<?xml version="1.0" encoding="UTF-8"?>
<!DOCTYPE svg PUBLIC "-//W3C//DTD SVG 1.1//EN" "http://www.w3.org/Graphics/SVG/1.1/DTD/svg11.dtd">
<svg xmlns="http://www.w3.org/2000/svg" version="1.1" width="512px" height="512px" style="shape-rendering:geometricPrecision; text-rendering:geometricPrecision; image-rendering:optimizeQuality; fill-rule:evenodd; clip-rule:evenodd" xmlns:xlink="http://www.w3.org/1999/xlink">
<g><path style="opacity:1" fill="#29273a" d="M 413.5,95.5 C 411.909,94.7811 410.409,93.7811 409,92.5C 408.149,81.442 404.649,71.442 398.5,62.5C 394.78,55.9419 389.78,50.4419 383.5,46C 369.166,38 353.833,35 337.5,37C 328.773,43.6183 324.106,52.4516 323.5,63.5C 327.514,63.6655 331.514,63.4988 335.5,63C 342.716,57.8583 350.716,56.1916 359.5,58C 369.784,59.9745 378.451,64.8078 385.5,72.5C 390.255,80.3428 394.755,88.3428 399,96.5C 403.29,101.307 408.456,104.641 414.5,106.5C 452.043,111.88 470.21,133.546 469,171.5C 473.869,180.504 480.035,181.671 487.5,175C 489.441,174.257 491.274,174.424 493,175.5C 494.499,183.373 493.166,190.706 489,197.5C 484.816,202.008 479.649,204.508 473.5,205C 476.917,210.001 479.083,215.501 480,221.5C 480.737,232.183 480.571,242.85 479.5,253.5C 479.762,264.608 484.596,267.274 494,261.5C 498.792,263.547 499.792,266.881 497,271.5C 489.55,286.214 477.716,291.714 461.5,288C 457.356,286.734 453.523,284.901 450,282.5C 447.58,300.173 439.746,315.007 426.5,327C 422.5,329.667 418.5,332.333 414.5,335C 409.057,338.681 407.224,343.514 409,349.5C 414.218,354.689 419.051,354.189 423.5,348C 425.701,347.175 427.534,347.675 429,349.5C 430.246,366.862 422.413,377.362 405.5,381C 416.65,405.76 424.317,431.593 428.5,458.5C 424.033,465.132 418.367,470.632 411.5,475C 374.9,495.655 335.9,502.489 294.5,495.5C 293.754,494.264 293.421,492.93 293.5,491.5C 296.588,471.337 295.088,451.337 289,431.5C 283.418,417.595 279.585,403.261 277.5,388.5C 273.167,388.5 268.833,388.5 264.5,388.5C 252.15,384.326 244.65,375.993 242,363.5C 242.804,362.196 243.971,361.529 245.5,361.5C 262.942,365.745 271.609,358.745 271.5,340.5C 271.908,335.407 270.908,330.74 268.5,326.5C 266.957,321.747 264.624,317.414 261.5,313.5C 256.488,306.15 253.155,298.15 251.5,289.5C 251.5,285.833 251.5,282.167 251.5,278.5C 251.607,272.074 253.273,266.074 256.5,260.5C 250.28,259.868 244.614,257.868 239.5,254.5C 233.187,246.303 230.52,236.97 231.5,226.5C 233.011,224.559 235.011,224.059 237.5,225C 240.632,232.431 245.966,234.431 253.5,231C 257.709,227.083 260.209,222.25 261,216.5C 261.598,208.822 261.431,201.155 260.5,193.5C 261.077,185.01 263.911,177.343 269,170.5C 275.147,164.529 280.313,157.862 284.5,150.5C 286.06,148.046 287.06,145.38 287.5,142.5C 289.265,138.107 290.432,133.44 291,128.5C 290.704,114.27 293.204,100.603 298.5,87.5C 299.933,85.4809 301.267,83.3143 302.5,81C 270.413,72.8845 240.913,78.3845 214,97.5C 213.446,103.188 213.613,108.855 214.5,114.5C 214.763,119.356 215.763,124.023 217.5,128.5C 237.242,115.418 258.909,109.584 282.5,111C 283.337,112.011 283.67,113.178 283.5,114.5C 283.586,115.496 283.252,116.329 282.5,117C 259.455,117.55 238.288,124.05 219,136.5C 221.61,154.27 226.11,171.603 232.5,188.5C 233.956,191.919 235.289,195.419 236.5,199C 234.687,202.911 232.187,203.411 229,200.5C 228.058,197.626 226.891,194.96 225.5,192.5C 221.325,179.442 217.325,166.442 213.5,153.5C 212.987,149.447 212.154,145.447 211,141.5C 210.275,140.941 209.442,140.608 208.5,140.5C 176.068,149.296 151.568,168.296 135,197.5C 130.934,204.961 127.434,212.627 124.5,220.5C 122.762,222.119 122.262,224.119 123,226.5C 128.426,237.03 134.592,247.03 141.5,256.5C 147.457,265.42 154.123,273.753 161.5,281.5C 168.131,289.466 175.131,297.133 182.5,304.5C 184.348,306.516 186.015,308.683 187.5,311C 186.553,314.072 184.553,315.072 181.5,314C 179.963,312.293 178.296,310.793 176.5,309.5C 169.139,301.807 161.806,294.14 154.5,286.5C 148.209,277.543 141.543,268.876 134.5,260.5C 128.497,251.159 122.497,241.825 116.5,232.5C 107.588,239.618 101.088,248.618 97,259.5C 93.9022,267.224 92.0688,275.224 91.5,283.5C 90.3365,295.019 90.5032,306.686 92,318.5C 91.9342,323.386 94.1009,326.72 98.5,328.5C 106.664,335.993 115.664,342.326 125.5,347.5C 135.334,354.254 145.667,360.254 156.5,365.5C 163.302,369.738 170.302,373.738 177.5,377.5C 181.883,380.358 186.55,382.692 191.5,384.5C 211.793,395.647 231.793,407.314 251.5,419.5C 256.175,423.268 261.009,426.934 266,430.5C 266.564,435.936 264.397,437.436 259.5,435C 254.62,431.28 249.62,427.78 244.5,424.5C 234.762,418.102 224.762,412.102 214.5,406.5C 204.734,400.736 194.734,395.402 184.5,390.5C 179.667,387.582 174.667,384.916 169.5,382.5C 162.698,378.262 155.698,374.262 148.5,370.5C 128.335,359.92 109.335,347.587 91.5,333.5C 86.1283,344.202 84.295,355.535 86,367.5C 87.889,381.924 93.0556,394.924 101.5,406.5C 104.486,410.817 107.82,414.817 111.5,418.5C 112.29,419.794 113.29,420.961 114.5,422C 161.905,433.036 207.238,449.702 250.5,472C 258.895,474.465 267.228,477.132 275.5,480C 276.244,481.815 276.911,483.648 277.5,485.5C 275.504,487.333 273.171,487.833 270.5,487C 244.553,477.513 217.886,470.847 190.5,467C 156.223,463.295 121.89,460.295 87.5,458C 64.556,453.057 50.056,439.223 44,416.5C 42.2887,408.254 41.2887,399.921 41,391.5C 24.1953,376.391 14.6953,357.558 12.5,335C 12.9919,326.532 14.8252,318.366 18,310.5C 25.5633,299.04 31.23,286.707 35,273.5C 35.6667,270.833 35.6667,268.167 35,265.5C 22.5197,220.619 33.353,182.452 67.5,151C 74.9115,146.259 81.7449,140.759 88,134.5C 95.8133,119.54 104.147,104.874 113,90.5C 137.647,59.0975 170.147,43.5975 210.5,44C 213.167,42.6667 215.833,41.3333 218.5,40C 252.315,8.8846 289.315,4.55127 329.5,27C 341.15,28.0532 352.817,29.0532 364.5,30C 397.664,38.1486 414.831,59.3153 416,93.5C 415.292,94.3805 414.458,95.0472 413.5,95.5 Z"/></g>
<g><path style="opacity:1" fill="#f7f0ea" d="M 286.5,21.5 C 263.234,38.9197 240.067,56.5863 217,74.5C 216.517,73.552 216.351,72.552 216.5,71.5C 219.017,54.1733 227.684,41.0066 242.5,32C 255.964,23.4779 270.631,19.9779 286.5,21.5 Z"/></g>
<g><path style="opacity:1" fill="#f9ecec" d="M 286.5,21.5 C 289.86,21.6159 293.193,21.9492 296.5,22.5C 296.489,24.0174 295.823,25.1841 294.5,26C 267.956,46.0504 241.289,65.8838 214.5,85.5C 214.229,80.5662 214.896,75.8996 216.5,71.5C 216.351,72.552 216.517,73.552 217,74.5C 240.067,56.5863 263.234,38.9197 286.5,21.5 Z"/></g>
<g><path style="opacity:1" fill="#f8eae4" d="M 296.5,22.5 C 307.431,25.1989 317.764,29.3655 327.5,35C 319.689,44.7538 315.189,55.9205 314,68.5C 312.5,70 311,71.5 309.5,73C 297.758,71.3996 285.924,70.2329 274,69.5C 252.484,69.6739 232.817,75.6739 215,87.5C 214.536,86.9056 214.369,86.2389 214.5,85.5C 241.289,65.8838 267.956,46.0504 294.5,26C 295.823,25.1841 296.489,24.0174 296.5,22.5 Z"/></g>
<g><path style="opacity:1" fill="#f6e1db" d="M 398.5,62.5 C 395.186,67.0092 390.852,70.3425 385.5,72.5C 378.451,64.8078 369.784,59.9745 359.5,58C 350.716,56.1916 342.716,57.8583 335.5,63C 331.514,63.4988 327.514,63.6655 323.5,63.5C 324.106,52.4516 328.773,43.6183 337.5,37C 353.833,35 369.166,38 383.5,46C 389.78,50.4419 394.78,55.9419 398.5,62.5 Z"/></g>
<g><path style="opacity:1" fill="#f7f0ea" d="M 101.5,133.5 C 138.656,107.688 174.989,80.6878 210.5,52.5C 211.858,51.3744 213.192,51.3744 214.5,52.5C 208.637,65.1499 205.97,78.4832 206.5,92.5C 184.419,94.9141 164.752,103.081 147.5,117C 128.025,132.807 113.525,152.307 104,175.5C 100.493,161.682 99.6597,147.682 101.5,133.5 Z"/></g>
<g><path style="opacity:1" fill="#f7f0f0" d="M 210.5,52.5 C 174.989,80.6878 138.656,107.688 101.5,133.5C 102.798,125.916 105.465,118.916 109.5,112.5C 109.696,114.646 110.696,114.812 112.5,113C 137.5,94 162.5,75 187.5,56C 186.207,55.51 184.873,55.3433 183.5,55.5C 192.331,54.0723 201.331,53.0723 210.5,52.5 Z"/></g>
<g><path style="opacity:1" fill="#f6f6f0" d="M 183.5,55.5 C 184.873,55.3433 186.207,55.51 187.5,56C 162.5,75 137.5,94 112.5,113C 110.696,114.812 109.696,114.646 109.5,112.5C 124.884,81.4489 149.551,62.4489 183.5,55.5 Z"/></g>
<g><path style="opacity:1" fill="#f5d5cf" d="M 398.5,62.5 C 404.649,71.442 408.149,81.442 409,92.5C 410.409,93.7811 411.909,94.7811 413.5,95.5C 414.114,99.1352 414.448,102.802 414.5,106.5C 408.456,104.641 403.29,101.307 399,96.5C 394.755,88.3428 390.255,80.3428 385.5,72.5C 390.852,70.3425 395.186,67.0092 398.5,62.5 Z"/></g>
<g><path style="opacity:1" fill="#f6dd74" d="M 373.5,72.5 C 362.05,80.7345 349.716,87.7345 336.5,93.5C 333.584,89.3943 330.917,89.5609 328.5,94C 328.989,95.1385 329.322,96.3052 329.5,97.5C 320.555,103.312 311.222,108.645 301.5,113.5C 300.548,111.955 300.215,110.288 300.5,108.5C 302.277,93.4276 309.277,81.5943 321.5,73C 324.022,71.6591 326.689,70.8257 329.5,70.5C 329.338,72.5273 329.505,74.5273 330,76.5C 331.388,77.5536 332.888,77.7203 334.5,77C 337.943,68.9028 344.11,64.7362 353,64.5C 360.845,64.9414 367.678,67.608 373.5,72.5 Z"/></g>
<g><path style="opacity:1" fill="#f9d96f" d="M 373.5,72.5 C 380.106,77.7783 384.772,84.445 387.5,92.5C 387.586,93.4959 387.252,94.3292 386.5,95C 375.3,101.433 363.966,107.6 352.5,113.5C 345.269,108.278 339.936,101.611 336.5,93.5C 349.716,87.7345 362.05,80.7345 373.5,72.5 Z"/></g>
<g><path style="opacity:1" fill="#e39aa0" d="M 298.5,87.5 C 298.631,86.6236 298.298,85.9569 297.5,85.5C 270.024,95.7695 242.357,105.436 214.5,114.5C 213.613,108.855 213.446,103.188 214,97.5C 240.913,78.3845 270.413,72.8845 302.5,81C 301.267,83.3143 299.933,85.4809 298.5,87.5 Z"/></g>
<g><path style="opacity:1" fill="#de949e" d="M 298.5,87.5 C 293.204,100.603 290.704,114.27 291,128.5C 290.432,133.44 289.265,138.107 287.5,142.5C 287.194,133.446 287.528,124.446 288.5,115.5C 286.955,114.548 285.288,114.215 283.5,114.5C 283.67,113.178 283.337,112.011 282.5,111C 258.909,109.584 237.242,115.418 217.5,128.5C 215.763,124.023 214.763,119.356 214.5,114.5C 242.357,105.436 270.024,95.7695 297.5,85.5C 298.298,85.9569 298.631,86.6236 298.5,87.5 Z"/></g>
<g><path style="opacity:1" fill="#e39aa0" d="M 206.5,114.5 C 206.5,115.833 206.5,117.167 206.5,118.5C 181.833,126.833 157.167,135.167 132.5,143.5C 151.139,118.846 175.806,104.512 206.5,100.5C 206.5,105.167 206.5,109.833 206.5,114.5 Z"/></g>
<g><path style="opacity:1" fill="#f8d26b" d="M 387.5,92.5 C 391.455,100.721 397.455,107.055 405.5,111.5C 394.821,118.844 383.487,125.177 371.5,130.5C 364.843,125.175 358.51,119.509 352.5,113.5C 363.966,107.6 375.3,101.433 386.5,95C 387.252,94.3292 387.586,93.4959 387.5,92.5 Z"/></g>
<g><path style="opacity:1" fill="#d57581" d="M 369.5,149.5 C 364.49,143.49 358.823,138.157 352.5,133.5C 346.88,128.216 341.213,122.883 335.5,117.5C 332.449,120.879 329.449,124.212 326.5,127.5C 327.245,120.51 330.245,114.677 335.5,110C 347.462,119.274 358.962,129.441 370,140.5C 370.634,143.555 370.468,146.555 369.5,149.5 Z"/></g>
<g><path style="opacity:1" fill="#f8cc68" d="M 405.5,111.5 C 416.172,115.167 426.838,118.834 437.5,122.5C 421.436,132.533 404.77,141.533 387.5,149.5C 382.196,143.192 376.863,136.858 371.5,130.5C 383.487,125.177 394.821,118.844 405.5,111.5 Z"/></g>
<g><path style="opacity:1" fill="#f8e0da" d="M 283.5,114.5 C 285.288,114.215 286.955,114.548 288.5,115.5C 287.528,124.446 287.194,133.446 287.5,142.5C 287.06,145.38 286.06,148.046 284.5,150.5C 266.904,162.755 249.571,175.422 232.5,188.5C 226.11,171.603 221.61,154.27 219,136.5C 238.288,124.05 259.455,117.55 282.5,117C 283.252,116.329 283.586,115.496 283.5,114.5 Z"/></g>
<g><path style="opacity:1" fill="#e095a1" d="M 206.5,114.5 C 207.477,117.287 207.81,120.287 207.5,123.5C 207.773,125.451 207.107,126.951 205.5,128C 177.998,138.09 150.331,147.59 122.5,156.5C 125.603,151.948 128.936,147.614 132.5,143.5C 157.167,135.167 181.833,126.833 206.5,118.5C 206.5,117.167 206.5,115.833 206.5,114.5 Z"/></g>
<g><path style="opacity:1" fill="#f8c461" d="M 437.5,122.5 C 454.98,132.799 462.314,148.132 459.5,168.5C 459.762,169.978 459.429,171.311 458.5,172.5C 454.299,175.1 449.966,177.434 445.5,179.5C 441.901,177.737 439.068,175.07 437,171.5C 434.143,166.096 431.976,160.429 430.5,154.5C 428.579,153.359 426.579,153.192 424.5,154C 424.849,165.191 428.849,175.024 436.5,183.5C 436.047,184.458 435.381,185.292 434.5,186C 427.257,190.093 419.924,193.926 412.5,197.5C 411.833,196.167 411.167,194.833 410.5,193.5C 411.537,191.262 411.703,188.929 411,186.5C 403.655,173.8 395.822,161.467 387.5,149.5C 404.77,141.533 421.436,132.533 437.5,122.5 Z"/></g>
<g><path style="opacity:1" fill="#de949a" d="M 207.5,123.5 C 208.254,126.023 208.92,128.689 209.5,131.5C 165.605,144.39 134.938,172.057 117.5,214.5C 112.893,206.514 109.56,198.014 107.5,189C 110.752,177.33 115.752,166.497 122.5,156.5C 150.331,147.59 177.998,138.09 205.5,128C 207.107,126.951 207.773,125.451 207.5,123.5 Z"/></g>
<g><path style="opacity:1" fill="#f9b8b4" d="M 352.5,133.5 C 343.833,133.5 335.167,133.5 326.5,133.5C 326.5,131.5 326.5,129.5 326.5,127.5C 329.449,124.212 332.449,120.879 335.5,117.5C 341.213,122.883 346.88,128.216 352.5,133.5 Z"/></g>
<g><path style="opacity:1" fill="#f8e5df" d="M 213.5,153.5 C 213.607,155.903 212.607,157.736 210.5,159C 182.217,179.615 154.217,200.615 126.5,222C 125.184,222.528 124.517,222.028 124.5,220.5C 127.434,212.627 130.934,204.961 135,197.5C 151.568,168.296 176.068,149.296 208.5,140.5C 209.442,140.608 210.275,140.941 211,141.5C 212.154,145.447 212.987,149.447 213.5,153.5 Z"/></g>
<g><path style="opacity:1" fill="#f7d36c" d="M 329.5,97.5 C 330.905,99.2251 331.405,101.225 331,103.5C 321.204,113.103 317.038,124.77 318.5,138.5C 318.814,146.087 318.481,153.587 317.5,161C 302.294,169.701 286.961,178.201 271.5,186.5C 270.702,186.043 270.369,185.376 270.5,184.5C 273.925,175.998 279.092,168.665 286,162.5C 292.47,153.889 296.47,144.222 298,133.5C 298.098,124.942 298.932,116.609 300.5,108.5C 300.215,110.288 300.548,111.955 301.5,113.5C 311.222,108.645 320.555,103.312 329.5,97.5 Z"/></g>
<g><path style="opacity:1" fill="#747079" d="M 91.5,142.5 C 91.56,141.957 91.8933,141.624 92.5,141.5C 93.4948,146.792 93.8282,152.125 93.5,157.5C 92.8333,152.5 92.1667,147.5 91.5,142.5 Z"/></g>
<g><path style="opacity:1" fill="#f9d8d2" d="M 284.5,150.5 C 280.313,157.862 275.147,164.529 269,170.5C 263.911,177.343 261.077,185.01 260.5,193.5C 261.431,201.155 261.598,208.822 261,216.5C 260.209,222.25 257.709,227.083 253.5,231C 245.966,234.431 240.632,232.431 237.5,225C 235.011,224.059 233.011,224.559 231.5,226.5C 230.766,227.878 230.099,229.378 229.5,231C 206.674,247.665 184.007,264.498 161.5,281.5C 154.123,273.753 147.457,265.42 141.5,256.5C 170.365,236.094 198.365,214.761 225.5,192.5C 226.891,194.96 228.058,197.626 229,200.5C 232.187,203.411 234.687,202.911 236.5,199C 235.289,195.419 233.956,191.919 232.5,188.5C 249.571,175.422 266.904,162.755 284.5,150.5 Z"/></g>
<g><path style="opacity:1" fill="#f6c9c8" d="M 326.5,133.5 C 335.167,133.5 343.833,133.5 352.5,133.5C 358.823,138.157 364.49,143.49 369.5,149.5C 367.036,161.127 360.203,168.794 349,172.5C 333.789,169.798 326.622,160.798 327.5,145.5C 333.929,145.041 334.929,142.541 330.5,138C 329.207,137.51 327.873,137.343 326.5,137.5C 326.5,136.167 326.5,134.833 326.5,133.5 Z"/></g>
<g><path style="opacity:1" fill="#312d3f" d="M 345.5,137.5 C 348.685,137.02 351.519,137.686 354,139.5C 354.825,141.701 354.325,143.534 352.5,145C 349.167,145.667 345.833,145.667 342.5,145C 340.612,141.186 341.612,138.686 345.5,137.5 Z"/></g>
<g><path style="opacity:1" fill="#f8cc68" d="M 318.5,138.5 C 320.515,156.268 319.182,173.935 314.5,191.5C 299.482,199.094 284.648,207.094 270,215.5C 269.826,210.649 269.326,205.982 268.5,201.5C 268.334,196.821 268.501,192.155 269,187.5C 269.232,186.263 269.732,185.263 270.5,184.5C 270.369,185.376 270.702,186.043 271.5,186.5C 286.961,178.201 302.294,169.701 317.5,161C 318.481,153.587 318.814,146.087 318.5,138.5 Z"/></g>
<g><path style="opacity:1" fill="#d55c4a" d="M 403.5,189.5 C 391.5,189.5 379.5,189.5 367.5,189.5C 367.5,190.833 367.5,192.167 367.5,193.5C 366.18,185.657 366.18,177.657 367.5,169.5C 372.044,163.746 375.544,157.413 378,150.5C 387.903,162.572 396.403,175.572 403.5,189.5 Z"/></g>
<g><path style="opacity:1" fill="#f9e0da" d="M 213.5,153.5 C 217.325,166.442 221.325,179.442 225.5,192.5C 198.365,214.761 170.365,236.094 141.5,256.5C 134.592,247.03 128.426,237.03 123,226.5C 122.262,224.119 122.762,222.119 124.5,220.5C 124.517,222.028 125.184,222.528 126.5,222C 154.217,200.615 182.217,179.615 210.5,159C 212.607,157.736 213.607,155.903 213.5,153.5 Z"/></g>
<g><path style="opacity:1" fill="#d25b49" d="M 326.5,168.5 C 329.588,171.915 333.255,174.582 337.5,176.5C 338.809,182.722 338.809,188.889 337.5,195C 336.167,195.667 334.833,195.667 333.5,195C 330.333,192.5 327.167,190 324,187.5C 324.405,181.159 325.239,174.825 326.5,168.5 Z"/></g>
<g><path style="opacity:1" fill="#f3b55a" d="M 459.5,168.5 C 462.42,181.74 470.754,188.406 484.5,188.5C 480.63,195.743 474.63,198.243 466.5,196C 459.431,190.48 452.431,184.98 445.5,179.5C 449.966,177.434 454.299,175.1 458.5,172.5C 459.429,171.311 459.762,169.978 459.5,168.5 Z"/></g>
<g><path style="opacity:1" fill="#f8ece7" d="M 91.5,142.5 C 92.1667,147.5 92.8333,152.5 93.5,157.5C 94.5813,167.977 96.0813,178.311 98,188.5C 86.3595,199.63 76.8595,212.296 69.5,226.5C 68.8826,226.389 68.3826,226.056 68,225.5C 58.8851,233.128 49.3851,240.128 39.5,246.5C 34.3647,210.405 45.6981,180.572 73.5,157C 80.1187,152.867 86.1187,148.034 91.5,142.5 Z"/></g>
<g><path style="opacity:1" fill="#d47380" d="M 359.5,184.5 C 355.419,186.526 351.085,187.526 346.5,187.5C 346.5,185.167 346.5,182.833 346.5,180.5C 350.976,180.181 355.143,178.848 359,176.5C 359.497,179.146 359.664,181.813 359.5,184.5 Z"/></g>
<g><path style="opacity:1" fill="#f8b95b" d="M 436.5,183.5 C 444.113,188.447 451.447,193.78 458.5,199.5C 458.047,200.458 457.381,201.292 456.5,202C 445.646,207.592 434.979,213.425 424.5,219.5C 422.043,216.249 420.376,212.582 419.5,208.5C 421.914,203.205 420.247,200.871 414.5,201.5C 414.267,199.938 413.6,198.605 412.5,197.5C 419.924,193.926 427.257,190.093 434.5,186C 435.381,185.292 436.047,184.458 436.5,183.5 Z"/></g>
<g><path style="opacity:1" fill="#f5caca" d="M 359.5,184.5 C 359.334,193.173 359.5,201.84 360,210.5C 361.104,213.721 362.937,216.388 365.5,218.5C 365.414,219.496 365.748,220.329 366.5,221C 371.167,223.667 375.833,226.333 380.5,229C 383.091,231.357 384.758,234.191 385.5,237.5C 382.941,237.198 380.607,237.532 378.5,238.5C 376.323,238.586 374.323,239.253 372.5,240.5C 371.123,233.052 367.289,227.385 361,223.5C 358.942,224.058 357.775,225.391 357.5,227.5C 359.763,230.222 361.263,233.222 362,236.5C 352.887,229.842 342.72,227.675 331.5,230C 329.481,230.45 327.648,231.283 326,232.5C 326.108,228.843 326.108,225.177 326,221.5C 324.274,220.424 322.441,220.257 320.5,221C 316.729,233.693 314.062,246.526 312.5,259.5C 307.5,259.5 302.5,259.5 297.5,259.5C 297.5,255.167 297.5,250.833 297.5,246.5C 311.484,233.879 320.317,218.212 324,199.5C 324.383,198.944 324.883,198.611 325.5,198.5C 334.22,206.132 341.054,204.799 346,194.5C 346.497,192.19 346.663,189.857 346.5,187.5C 351.085,187.526 355.419,186.526 359.5,184.5 Z"/></g>
<g><path style="opacity:1" fill="#d85b44" d="M 403.5,189.5 C 404.855,192.518 407.188,193.851 410.5,193.5C 411.167,194.833 411.833,196.167 412.5,197.5C 413.6,198.605 414.267,199.938 414.5,201.5C 411.156,207.485 412.823,209.819 419.5,208.5C 420.376,212.582 422.043,216.249 424.5,219.5C 426.5,224.5 428.5,229.5 430.5,234.5C 424.077,234.791 417.744,234.458 411.5,233.5C 411.662,224.083 408.662,215.916 402.5,209C 391.046,203.349 379.38,198.182 367.5,193.5C 367.5,192.167 367.5,190.833 367.5,189.5C 379.5,189.5 391.5,189.5 403.5,189.5 Z"/></g>
<g><path style="opacity:1" fill="#f5c463" d="M 314.5,191.5 C 307.912,210.332 297.079,226.332 282,239.5C 281.506,241.134 281.34,242.801 281.5,244.5C 276.797,247.514 272.13,250.514 267.5,253.5C 263.787,251.311 259.787,250.978 255.5,252.5C 247.071,252.069 242.071,247.735 240.5,239.5C 255.795,242.038 264.962,235.705 268,220.5C 268.5,214.175 268.666,207.842 268.5,201.5C 269.326,205.982 269.826,210.649 270,215.5C 284.648,207.094 299.482,199.094 314.5,191.5 Z"/></g>
<g><path style="opacity:1" fill="#d47581" d="M 325.5,198.5 C 324.883,198.611 324.383,198.944 324,199.5C 320.317,218.212 311.484,233.879 297.5,246.5C 297.334,242.486 297.501,238.486 298,234.5C 308.374,223.095 316.207,210.095 321.5,195.5C 322.901,196.521 324.235,197.521 325.5,198.5 Z"/></g>
<g><path style="opacity:1" fill="#f9b456" d="M 458.5,199.5 C 464.763,204.349 468.763,210.683 470.5,218.5C 470.714,220.144 470.38,221.644 469.5,223C 458.446,228.859 447.446,234.692 436.5,240.5C 432.749,240.376 430.749,238.376 430.5,234.5C 428.5,229.5 426.5,224.5 424.5,219.5C 434.979,213.425 445.646,207.592 456.5,202C 457.381,201.292 458.047,200.458 458.5,199.5 Z"/></g>
<g><path style="opacity:1" fill="#2e2838" d="M 414.5,201.5 C 420.247,200.871 421.914,203.205 419.5,208.5C 412.823,209.819 411.156,207.485 414.5,201.5 Z"/></g>
<g><path style="opacity:1" fill="#f4c8c8" d="M 409.5,266.5 C 404.5,266.5 399.5,266.5 394.5,266.5C 394.828,255.321 394.495,244.321 393.5,233.5C 393.049,228.876 391.049,225.043 387.5,222C 381.992,218.745 376.325,215.745 370.5,213C 366.7,209.903 365.7,206.069 367.5,201.5C 376.377,205.626 385.377,209.459 394.5,213C 398.058,214.892 400.558,217.725 402,221.5C 404.955,236.44 407.455,251.44 409.5,266.5 Z"/></g>
<g><path style="opacity:1" fill="#de8d95" d="M 88.5,259.5 C 88.44,258.957 88.1067,258.624 87.5,258.5C 81.0897,260.637 74.7564,262.97 68.5,265.5C 67.8165,265.137 67.1499,264.804 66.5,264.5C 69.8009,237.564 81.3009,214.897 101,196.5C 104.638,205.748 108.472,214.915 112.5,224C 102.273,234.382 94.2731,246.215 88.5,259.5 Z"/></g>
<g><path style="opacity:1" fill="#f7ad51" d="M 470.5,218.5 C 472.057,223.569 472.724,228.902 472.5,234.5C 471.999,242.507 471.832,250.507 472,258.5C 472.929,267.262 477.762,272.262 486.5,273.5C 479.823,279.996 471.823,282.163 462.5,280C 455.763,276.598 450.263,271.765 446,265.5C 442.274,257.598 439.107,249.598 436.5,241.5C 436.5,241.167 436.5,240.833 436.5,240.5C 447.446,234.692 458.446,228.859 469.5,223C 470.38,221.644 470.714,220.144 470.5,218.5 Z"/></g>
<g><path style="opacity:1" fill="#f9d3cc" d="M 231.5,226.5 C 230.52,236.97 233.187,246.303 239.5,254.5C 237.453,254.489 235.453,254.156 233.5,253.5C 229.853,254.486 228.686,256.819 230,260.5C 231.193,262.886 232.36,265.22 233.5,267.5C 216.993,280.58 199.993,292.913 182.5,304.5C 175.131,297.133 168.131,289.466 161.5,281.5C 184.007,264.498 206.674,247.665 229.5,231C 230.099,229.378 230.766,227.878 231.5,226.5 Z"/></g>
<g><path style="opacity:1" fill="#c87782" d="M 365.5,218.5 C 371.139,221.655 376.806,224.821 382.5,228C 385.87,230.697 387.204,234.197 386.5,238.5C 383.833,238.5 381.167,238.5 378.5,238.5C 380.607,237.532 382.941,237.198 385.5,237.5C 384.758,234.191 383.091,231.357 380.5,229C 375.833,226.333 371.167,223.667 366.5,221C 365.748,220.329 365.414,219.496 365.5,218.5 Z"/></g>
<g><path style="opacity:1" fill="#f7e4df" d="M 69.5,226.5 C 60.6045,246.149 56.7712,266.816 58,288.5C 47.7505,276.331 41.5838,262.331 39.5,246.5C 49.3851,240.128 58.8851,233.128 68,225.5C 68.3826,226.056 68.8826,226.389 69.5,226.5 Z"/></g>
<g><path style="opacity:1" fill="#f7ded7" d="M 134.5,260.5 C 134.489,262.017 133.823,263.184 132.5,264C 118.91,274.045 105.41,284.212 92,294.5C 91.5014,290.848 91.3347,287.182 91.5,283.5C 92.0688,275.224 93.9022,267.224 97,259.5C 101.088,248.618 107.588,239.618 116.5,232.5C 122.497,241.825 128.497,251.159 134.5,260.5 Z"/></g>
<g><path style="opacity:1" fill="#f2f7f7" d="M 378.5,246.5 C 380.833,246.5 383.167,246.5 385.5,246.5C 385.5,248.833 385.5,251.167 385.5,253.5C 384.596,254.209 384.263,255.209 384.5,256.5C 363.5,256.5 342.5,256.5 321.5,256.5C 321.5,255.833 321.5,255.167 321.5,254.5C 321.007,245.151 325.34,239.318 334.5,237C 347.715,234.941 357.382,239.774 363.5,251.5C 364.5,251.833 365.5,252.167 366.5,252.5C 370.262,250.082 374.262,248.082 378.5,246.5 Z"/></g>
<g><path style="opacity:1" fill="#de828d" d="M 239.5,254.5 C 244.614,257.868 250.28,259.868 256.5,260.5C 253.273,266.074 251.607,272.074 251.5,278.5C 248.575,278.54 245.909,277.707 243.5,276C 240,273.331 236.667,270.498 233.5,267.5C 232.36,265.22 231.193,262.886 230,260.5C 228.686,256.819 229.853,254.486 233.5,253.5C 235.453,254.156 237.453,254.489 239.5,254.5 Z"/></g>
<g><path style="opacity:1" fill="#f1f2f9" d="M 385.5,253.5 C 385.5,255.5 385.5,257.5 385.5,259.5C 384.675,263.647 384.175,267.981 384,272.5C 379.62,277.834 375.453,277.834 371.5,272.5C 371.648,269.648 370.314,267.981 367.5,267.5C 365.506,268.489 363.506,269.489 361.5,270.5C 352.588,269.038 343.588,267.872 334.5,267C 328.918,264.897 324.584,261.397 321.5,256.5C 342.5,256.5 363.5,256.5 384.5,256.5C 384.263,255.209 384.596,254.209 385.5,253.5 Z"/></g>
<g><path style="opacity:1" fill="#b7c3f5" d="M 321.5,254.5 C 321.5,255.167 321.5,255.833 321.5,256.5C 324.584,261.397 328.918,264.897 334.5,267C 343.588,267.872 352.588,269.038 361.5,270.5C 354.693,278.299 348.693,286.632 343.5,295.5C 341.064,294.129 338.397,293.129 335.5,292.5C 338.021,287.134 341.188,282.134 345,277.5C 345.833,273 344,271.167 339.5,272C 337.987,274.846 335.821,277.013 333,278.5C 327.987,276.492 323.653,273.492 320,269.5C 319.448,264.275 319.948,259.275 321.5,254.5 Z"/></g>
<g><path style="opacity:1" fill="#f5c2c0" d="M 297.5,259.5 C 302.5,259.5 307.5,259.5 312.5,259.5C 311.036,271.449 310.369,283.449 310.5,295.5C 310.5,296.5 310.5,297.5 310.5,298.5C 305.167,298.5 299.833,298.5 294.5,298.5C 294.5,296.833 294.5,295.167 294.5,293.5C 295.298,282.128 296.298,270.795 297.5,259.5 Z"/></g>
<g><path style="opacity:1" fill="#f8d8d2" d="M 134.5,260.5 C 141.543,268.876 148.209,277.543 154.5,286.5C 136.2,300.984 117.533,314.984 98.5,328.5C 94.1009,326.72 91.9342,323.386 92,318.5C 90.5032,306.686 90.3365,295.019 91.5,283.5C 91.3347,287.182 91.5014,290.848 92,294.5C 105.41,284.212 118.91,274.045 132.5,264C 133.823,263.184 134.489,262.017 134.5,260.5 Z"/></g>
<g><path style="opacity:1" fill="#f9cdc6" d="M 233.5,267.5 C 236.667,270.498 240,273.331 243.5,276C 245.909,277.707 248.575,278.54 251.5,278.5C 251.5,282.167 251.5,285.833 251.5,289.5C 251.739,291.467 251.406,293.301 250.5,295C 237.167,305 223.833,315 210.5,325C 209.255,325.791 207.922,326.291 206.5,326.5C 199.916,322.701 197.582,324.368 199.5,331.5C 199.586,332.496 199.252,333.329 198.5,334C 184.253,344.277 170.253,354.777 156.5,365.5C 145.667,360.254 135.334,354.254 125.5,347.5C 126.922,347.291 128.255,346.791 129.5,346C 145.597,334.297 161.264,322.13 176.5,309.5C 178.296,310.793 179.963,312.293 181.5,314C 184.553,315.072 186.553,314.072 187.5,311C 186.015,308.683 184.348,306.516 182.5,304.5C 199.993,292.913 216.993,280.58 233.5,267.5 Z"/></g>
<g><path style="opacity:1" fill="#d0513e" d="M 297.5,323.5 C 290.5,323.5 283.5,323.5 276.5,323.5C 273.452,317.089 269.619,311.089 265,305.5C 258.798,294.824 257.131,283.49 260,271.5C 262.261,265.323 264.761,259.323 267.5,253.5C 272.13,250.514 276.797,247.514 281.5,244.5C 284.761,245.977 287.594,245.311 290,242.5C 289.276,263.52 288.276,284.52 287,305.5C 289.218,312.273 292.718,318.273 297.5,323.5 Z"/></g>
<g><path style="opacity:1" fill="#d0523e" d="M 411.5,233.5 C 417.744,234.458 424.077,234.791 430.5,234.5C 430.749,238.376 432.749,240.376 436.5,240.5C 436.5,240.833 436.5,241.167 436.5,241.5C 434.801,241.34 433.134,241.506 431.5,242C 432.008,252.529 435.175,262.362 441,271.5C 442.67,294.158 434.17,311.824 415.5,324.5C 403.678,323.505 391.678,323.172 379.5,323.5C 377.208,314.179 379.374,305.845 386,298.5C 390.993,313.251 400.493,317.417 414.5,311C 421.993,304.852 424.493,297.018 422,287.5C 418.452,269.492 414.952,251.492 411.5,233.5 Z"/></g>
<g><path style="opacity:1" fill="#dd868f" d="M 88.5,259.5 C 82.5241,278.185 81.0241,297.185 84,316.5C 78.6667,311.833 73.6667,306.833 69,301.5C 65.6566,289.315 64.8233,276.982 66.5,264.5C 67.1499,264.804 67.8165,265.137 68.5,265.5C 74.7564,262.97 81.0897,260.637 87.5,258.5C 88.1067,258.624 88.44,258.957 88.5,259.5 Z"/></g>
<g><path style="opacity:1" fill="#f5b8b5" d="M 393.5,233.5 C 394.495,244.321 394.828,255.321 394.5,266.5C 399.5,266.5 404.5,266.5 409.5,266.5C 412.538,276.869 414.371,287.536 415,298.5C 411.462,305.858 405.962,308.025 398.5,305C 396.383,303.269 394.883,301.102 394,298.5C 393.5,276.836 393.333,255.169 393.5,233.5 Z"/></g>
<g><path style="opacity:1" fill="#aab5ea" d="M 327.5,291.5 C 325.283,290.631 322.95,290.298 320.5,290.5C 321.289,295.536 322.289,300.536 323.5,305.5C 317.788,297.76 316.122,289.093 318.5,279.5C 321.919,281.626 325.419,283.626 329,285.5C 328.85,287.506 328.35,289.506 327.5,291.5 Z"/></g>
<g><path style="opacity:1" fill="#b4bff3" d="M 385.5,259.5 C 385.5,267.5 385.5,275.5 385.5,283.5C 378.415,286.596 371.748,285.596 365.5,280.5C 364.479,279.998 364.312,279.332 365,278.5C 367.037,276.294 369.203,274.294 371.5,272.5C 375.453,277.834 379.62,277.834 384,272.5C 384.175,267.981 384.675,263.647 385.5,259.5 Z"/></g>
<g><path style="opacity:1" fill="#616480" d="M 378.5,246.5 C 380.948,245.527 383.615,245.194 386.5,245.5C 386.829,258.344 386.495,271.011 385.5,283.5C 385.5,275.5 385.5,267.5 385.5,259.5C 385.5,257.5 385.5,255.5 385.5,253.5C 385.5,251.167 385.5,248.833 385.5,246.5C 383.167,246.5 380.833,246.5 378.5,246.5 Z"/></g>
<g><path style="opacity:1" fill="#f9d3cc" d="M 154.5,286.5 C 161.806,294.14 169.139,301.807 176.5,309.5C 161.264,322.13 145.597,334.297 129.5,346C 128.255,346.791 126.922,347.291 125.5,347.5C 115.664,342.326 106.664,335.993 98.5,328.5C 117.533,314.984 136.2,300.984 154.5,286.5 Z"/></g>
<g><path style="opacity:1" fill="#b2bef6" d="M 371.5,308.5 C 365.123,304.311 358.456,300.645 351.5,297.5C 353.66,293.185 356.327,289.185 359.5,285.5C 365.415,290.123 372.082,293.123 379.5,294.5C 376.286,298.936 373.62,303.603 371.5,308.5 Z"/></g>
<g><path style="opacity:1" fill="#f7ded8" d="M 54.5,323.5 C 53.0783,323.709 51.745,324.209 50.5,325C 41.551,332.462 32.2177,339.296 22.5,345.5C 18.9177,329.092 22.4177,314.426 33,301.5C 36.461,294.28 39.6277,286.947 42.5,279.5C 47.7648,288.363 53.7648,296.696 60.5,304.5C 58.0917,310.724 56.0917,317.057 54.5,323.5 Z"/></g>
<g><path style="opacity:1" fill="#f9c7c0" d="M 251.5,289.5 C 253.155,298.15 256.488,306.15 261.5,313.5C 233.781,333.039 206.448,353.205 179.5,374C 178.177,374.816 177.511,375.983 177.5,377.5C 170.302,373.738 163.302,369.738 156.5,365.5C 170.253,354.777 184.253,344.277 198.5,334C 199.252,333.329 199.586,332.496 199.5,331.5C 205.485,334.844 207.819,333.177 206.5,326.5C 207.922,326.291 209.255,325.791 210.5,325C 223.833,315 237.167,305 250.5,295C 251.406,293.301 251.739,291.467 251.5,289.5 Z"/></g>
<g><path style="opacity:1" fill="#f2b2b0" d="M 294.5,293.5 C 294.5,295.167 294.5,296.833 294.5,298.5C 299.833,298.5 305.167,298.5 310.5,298.5C 310.5,297.5 310.5,296.5 310.5,295.5C 312.143,301.124 314.643,306.458 318,311.5C 332.43,327.766 347.93,342.766 364.5,356.5C 360.958,356.187 357.625,356.521 354.5,357.5C 334.637,345.465 316.471,331.131 300,314.5C 294.323,308.334 292.49,301.334 294.5,293.5 Z"/></g>
<g><path style="opacity:1" fill="#e5eaf8" d="M 327.5,291.5 C 327.818,293.818 329.152,295.152 331.5,295.5C 333.443,295.213 334.777,294.213 335.5,292.5C 338.397,293.129 341.064,294.129 343.5,295.5C 342.206,298.548 341.206,301.715 340.5,305C 340.585,306.107 340.919,307.107 341.5,308C 343.441,308.743 345.274,308.576 347,307.5C 348.24,304.022 349.74,300.689 351.5,297.5C 358.456,300.645 365.123,304.311 371.5,308.5C 370.746,313.463 370.413,318.463 370.5,323.5C 361.56,325.472 352.227,326.139 342.5,325.5C 335.464,319.465 329.131,312.798 323.5,305.5C 322.289,300.536 321.289,295.536 320.5,290.5C 322.95,290.298 325.283,290.631 327.5,291.5 Z"/></g>
<g><path style="opacity:1" fill="#f9c7ba" d="M 261.5,313.5 C 264.624,317.414 266.957,321.747 268.5,326.5C 267.525,328.193 266.192,329.693 264.5,331C 240.463,349.34 216.129,367.174 191.5,384.5C 186.55,382.692 181.883,380.358 177.5,377.5C 177.511,375.983 178.177,374.816 179.5,374C 206.448,353.205 233.781,333.039 261.5,313.5 Z"/></g>
<g><path style="opacity:1" fill="#f7d6d0" d="M 54.5,323.5 C 47.5149,348.1 49.5149,371.933 60.5,395C 41.4,383.698 28.7333,367.198 22.5,345.5C 32.2177,339.296 41.551,332.462 50.5,325C 51.745,324.209 53.0783,323.709 54.5,323.5 Z"/></g>
<g><path style="opacity:1" fill="#332f40" d="M 206.5,326.5 C 207.819,333.177 205.485,334.844 199.5,331.5C 197.582,324.368 199.916,322.701 206.5,326.5 Z"/></g>
<g><path style="opacity:1" fill="#dd8188" d="M 78.5,353.5 C 71.7627,355.302 65.096,357.302 58.5,359.5C 57.1728,342.485 59.8394,326.152 66.5,310.5C 72.8604,316.194 78.8604,322.194 84.5,328.5C 81.0836,336.499 79.0836,344.832 78.5,353.5 Z"/></g>
<g><path style="opacity:1" fill="#cf4a38" d="M 276.5,323.5 C 283.5,323.5 290.5,323.5 297.5,323.5C 299.63,325.127 301.63,326.96 303.5,329C 288.305,342.891 279.638,360.057 277.5,380.5C 267.086,382.964 258.752,379.798 252.5,371C 266.104,371.12 274.604,364.62 278,351.5C 280.296,341.981 279.796,332.648 276.5,323.5 Z"/></g>
<g><path style="opacity:1" fill="#d14a38" d="M 379.5,323.5 C 391.678,323.172 403.678,323.505 415.5,324.5C 406.803,328.525 401.469,335.192 399.5,344.5C 400.634,355.91 406.967,361.576 418.5,361.5C 415.662,370.31 409.662,373.643 400.5,371.5C 392.85,357.868 386.017,343.868 380,329.5C 379.505,327.527 379.338,325.527 379.5,323.5 Z"/></g>
<g><path style="opacity:1" fill="#a7b1f5" d="M 348.5,371.5 C 349.942,369.183 349.608,367.016 347.5,365C 332.479,357.496 318.145,348.996 304.5,339.5C 305.879,336.927 307.879,335.427 310.5,335C 322.663,345.496 335.663,354.83 349.5,363C 350.787,366.125 350.787,369.291 349.5,372.5C 348.893,372.376 348.56,372.043 348.5,371.5 Z"/></g>
<g><path style="opacity:1" fill="#f7cdc6" d="M 148.5,370.5 C 133.412,383.216 117.746,395.216 101.5,406.5C 93.0556,394.924 87.889,381.924 86,367.5C 84.295,355.535 86.1283,344.202 91.5,333.5C 109.335,347.587 128.335,359.92 148.5,370.5 Z"/></g>
<g><path style="opacity:1" fill="#d8e0f8" d="M 304.5,339.5 C 318.145,348.996 332.479,357.496 347.5,365C 349.608,367.016 349.942,369.183 348.5,371.5C 343.005,367.868 340.505,369.202 341,375.5C 348.663,381.844 355.163,389.177 360.5,397.5C 336.189,399.49 311.523,400.157 286.5,399.5C 282.192,383.557 284.359,368.557 293,354.5C 296.369,349.071 300.202,344.071 304.5,339.5 Z"/></g>
<g><path style="opacity:1" fill="#f8beb4" d="M 268.5,326.5 C 270.908,330.74 271.908,335.407 271.5,340.5C 271.609,358.745 262.942,365.745 245.5,361.5C 243.971,361.529 242.804,362.196 242,363.5C 244.65,375.993 252.15,384.326 264.5,388.5C 259.537,391.328 254.203,393.494 248.5,395C 247.065,397.267 247.398,399.267 249.5,401C 254.604,404.309 259.937,407.142 265.5,409.5C 261.117,413.214 256.45,416.547 251.5,419.5C 231.793,407.314 211.793,395.647 191.5,384.5C 216.129,367.174 240.463,349.34 264.5,331C 266.192,329.693 267.525,328.193 268.5,326.5 Z"/></g>
<g><path style="opacity:1" fill="#efa4a0" d="M 354.5,357.5 C 357.625,356.521 360.958,356.187 364.5,356.5C 367.505,358.352 369.672,361.019 371,364.5C 371.839,373.22 371.505,381.887 370,390.5C 359.271,383.777 355.271,374.11 358,361.5C 357.051,359.907 355.885,358.574 354.5,357.5 Z"/></g>
<g><path style="opacity:1" fill="#f9c7c0" d="M 148.5,370.5 C 155.698,374.262 162.698,378.262 169.5,382.5C 151.956,394.438 134.956,407.105 118.5,420.5C 116.079,420.122 113.746,419.455 111.5,418.5C 107.82,414.817 104.486,410.817 101.5,406.5C 117.746,395.216 133.412,383.216 148.5,370.5 Z"/></g>
<g><path style="opacity:1" fill="#dd7a83" d="M 78.5,353.5 C 77.2734,376.652 83.9401,397.152 98.5,415C 90.595,412.556 82.9284,409.222 75.5,405C 64.9989,391.666 59.3323,376.499 58.5,359.5C 65.096,357.302 71.7627,355.302 78.5,353.5 Z"/></g>
<g><path style="opacity:1" fill="#f9c7ba" d="M 169.5,382.5 C 174.667,384.916 179.667,387.582 184.5,390.5C 169.454,402.212 154.12,413.545 138.5,424.5C 131.683,423.803 125.016,422.47 118.5,420.5C 134.956,407.105 151.956,394.438 169.5,382.5 Z"/></g>
<g><path style="opacity:1" fill="#d7e0f7" d="M 370.5,323.5 C 372.194,329.084 374.027,334.751 376,340.5C 386.252,359.003 395.418,378.003 403.5,397.5C 399.555,398.825 395.222,399.492 390.5,399.5C 385.987,399.499 381.653,399.166 377.5,398.5C 379.684,386.166 379.85,373.833 378,361.5C 377,359.5 376,357.5 375,355.5C 363.67,346.002 352.837,336.002 342.5,325.5C 352.227,326.139 361.56,325.472 370.5,323.5 Z"/></g>
<g><path style="opacity:1" fill="#f9c0b6" d="M 184.5,390.5 C 194.734,395.402 204.734,400.736 214.5,406.5C 214.489,408.017 213.823,409.184 212.5,410C 202.884,416.615 193.55,423.615 184.5,431C 183.552,431.483 182.552,431.649 181.5,431.5C 167.015,429.252 152.681,426.919 138.5,424.5C 154.12,413.545 169.454,402.212 184.5,390.5 Z"/></g>
<g><path style="opacity:1" fill="#f8b3ad" d="M 265.5,409.5 C 271.914,412.084 276.08,416.751 278,423.5C 281.391,433.901 282.724,444.568 282,455.5C 279.571,460.202 275.738,462.035 270.5,461C 254.357,453.573 238.024,447.073 221.5,441.5C 230.017,436.983 237.683,431.317 244.5,424.5C 249.62,427.78 254.62,431.28 259.5,435C 264.397,437.436 266.564,435.936 266,430.5C 261.009,426.934 256.175,423.268 251.5,419.5C 256.45,416.547 261.117,413.214 265.5,409.5 Z"/></g>
<g><path style="opacity:1" fill="#f9b9af" d="M 214.5,406.5 C 224.762,412.102 234.762,418.102 244.5,424.5C 237.683,431.317 230.017,436.983 221.5,441.5C 208.064,438.141 194.731,434.808 181.5,431.5C 182.552,431.649 183.552,431.483 184.5,431C 193.55,423.615 202.884,416.615 212.5,410C 213.823,409.184 214.489,408.017 214.5,406.5 Z"/></g>
<g><path style="opacity:1" fill="#ced9f9" d="M 360.5,397.5 C 368.578,408.364 374.578,420.364 378.5,433.5C 358.5,433.5 338.5,433.5 318.5,433.5C 317.006,428.868 315.506,424.202 314,419.5C 313.051,416.8 311.217,415.967 308.5,417C 307.196,417.804 306.529,418.971 306.5,420.5C 307.917,424.414 308.917,428.414 309.5,432.5C 309.565,432.938 309.399,433.272 309,433.5C 303.96,428.956 298.794,424.622 293.5,420.5C 290.967,413.568 288.634,406.568 286.5,399.5C 311.523,400.157 336.189,399.49 360.5,397.5 Z"/></g>
<g><path style="opacity:1" fill="#cbd6f7" d="M 403.5,397.5 C 410.928,415.968 416.261,435.135 419.5,455C 416.031,461.624 410.698,466.457 403.5,469.5C 400.04,443.932 391.04,420.599 376.5,399.5C 376.5,398.833 376.833,398.5 377.5,398.5C 381.653,399.166 385.987,399.499 390.5,399.5C 395.222,399.492 399.555,398.825 403.5,397.5 Z"/></g>
<g><path style="opacity:1" fill="#dd757d" d="M 50.5,399.5 C 59.3064,403.797 67.473,409.131 75,415.5C 82.3116,425.788 87.145,437.122 89.5,449.5C 69.8192,445.656 57.3192,433.99 52,414.5C 50.9502,409.552 50.4502,404.552 50.5,399.5 Z"/></g>
<g><path style="opacity:1" fill="#d96b77" d="M 264.5,388.5 C 268.833,388.5 273.167,388.5 277.5,388.5C 279.585,403.261 283.418,417.595 289,431.5C 295.088,451.337 296.588,471.337 293.5,491.5C 288.39,488.947 283.057,486.947 277.5,485.5C 276.911,483.648 276.244,481.815 275.5,480C 267.228,477.132 258.895,474.465 250.5,472C 207.238,449.702 161.905,433.036 114.5,422C 113.29,420.961 112.29,419.794 111.5,418.5C 113.746,419.455 116.079,420.122 118.5,420.5C 125.016,422.47 131.683,423.803 138.5,424.5C 152.681,426.919 167.015,429.252 181.5,431.5C 194.731,434.808 208.064,438.141 221.5,441.5C 238.024,447.073 254.357,453.573 270.5,461C 275.738,462.035 279.571,460.202 282,455.5C 282.724,444.568 281.391,433.901 278,423.5C 276.08,416.751 271.914,412.084 265.5,409.5C 259.937,407.142 254.604,404.309 249.5,401C 247.398,399.267 247.065,397.267 248.5,395C 254.203,393.494 259.537,391.328 264.5,388.5 Z"/></g>
<g><path style="opacity:1" fill="#db6e79" d="M 123.5,432.5 C 152.985,439.538 181.652,449.038 209.5,461C 183.65,457.459 157.65,454.959 131.5,453.5C 130.01,446.027 127.343,439.027 123.5,432.5 Z"/></g>
<g><path style="opacity:1" fill="#9399f4" d="M 293.5,420.5 C 298.794,424.622 303.96,428.956 309,433.5C 309.399,433.272 309.565,432.938 309.5,432.5C 314.935,450.978 316.935,469.978 315.5,489.5C 311.167,489.5 306.833,489.5 302.5,489.5C 304.169,465.853 301.169,442.853 293.5,420.5 Z"/></g>
<g><path style="opacity:1" fill="#979ef7" d="M 376.5,399.5 C 391.04,420.599 400.04,443.932 403.5,469.5C 401.574,471.293 399.241,472.293 396.5,472.5C 393.291,447.205 385.291,423.539 372.5,401.5C 373.766,400.638 375.099,399.971 376.5,399.5 Z"/></g>
<g><path style="opacity:1" fill="#db707b" d="M 86.5,420.5 C 86.56,419.957 86.8933,419.624 87.5,419.5C 95.0455,422.96 102.712,426.126 110.5,429C 117.048,435.595 121.381,443.428 123.5,452.5C 114.812,452.587 106.146,452.253 97.5,451.5C 96.3865,440.153 92.7199,429.82 86.5,420.5 Z"/></g>
<g><path style="opacity:1" fill="#c7d2f8" d="M 318.5,433.5 C 338.5,433.5 358.5,433.5 378.5,433.5C 382.2,442.105 385.033,451.105 387,460.5C 388.766,466.124 389.266,471.791 388.5,477.5C 374.468,483.675 359.802,487.341 344.5,488.5C 344.666,480.826 344.5,473.159 344,465.5C 341.966,462.141 339.632,461.808 337,464.5C 336.501,468.152 336.335,471.818 336.5,475.5C 332.797,465.758 327.797,456.758 321.5,448.5C 320.343,443.536 319.343,438.536 318.5,433.5 Z"/></g>
<g><path style="opacity:1" fill="#969cf8" d="M 321.5,448.5 C 327.797,456.758 332.797,465.758 336.5,475.5C 336.5,480.167 336.5,484.833 336.5,489.5C 331.833,489.5 327.167,489.5 322.5,489.5C 323.97,475.785 323.637,462.118 321.5,448.5 Z"/></g>
</svg>
