<?xml version="1.0" encoding="UTF-8"?>
<!DOCTYPE svg PUBLIC "-//W3C//DTD SVG 1.1//EN" "http://www.w3.org/Graphics/SVG/1.1/DTD/svg11.dtd">
<svg xmlns="http://www.w3.org/2000/svg" version="1.1" width="512px" height="512px" style="shape-rendering:geometricPrecision; text-rendering:geometricPrecision; image-rendering:optimizeQuality; fill-rule:evenodd; clip-rule:evenodd" xmlns:xlink="http://www.w3.org/1999/xlink">
<g><path style="opacity:1" fill="#272639" d="M 259.5,3.5 C 263.182,3.3347 266.848,3.50137 270.5,4C 271,4.5 271.5,5 272,5.5C 272.689,11.8818 272.355,18.2151 271,24.5C 269.326,31.6872 267.159,38.6872 264.5,45.5C 285.979,48.1791 303.479,41.1791 317,24.5C 319.458,19.7471 322.292,15.2471 325.5,11C 333.011,6.23306 340.177,6.73306 347,12.5C 347.571,16.0445 346.904,19.3779 345,22.5C 333.5,47.3317 314.333,62.4984 287.5,68C 274.492,68.2927 261.492,68.2927 248.5,68C 237.833,73.3333 227.167,78.6667 216.5,84C 200.262,89.581 183.596,93.2477 166.5,95C 161.664,96.8186 158.831,100.319 158,105.5C 157.399,111.204 156.566,116.87 155.5,122.5C 155.833,123.167 156.167,123.833 156.5,124.5C 162.251,123.101 168.084,122.101 174,121.5C 175.895,121.615 177.562,122.282 179,123.5C 181.86,134.894 180.36,145.727 174.5,156C 177.774,159.308 181.441,162.141 185.5,164.5C 186.85,163.05 188.516,162.383 190.5,162.5C 190.17,154.107 190.67,145.773 192,137.5C 192.266,134.287 193.932,132.287 197,131.5C 204.578,134.703 211.411,139.036 217.5,144.5C 218.579,142.457 220.246,141.124 222.5,140.5C 244.858,151.379 254.192,169.212 250.5,194C 252.03,197.561 253.697,201.061 255.5,204.5C 259.884,204.943 263.717,206.61 267,209.5C 271.333,216.833 275.667,224.167 280,231.5C 290.798,223.938 294.798,213.604 292,200.5C 269.687,197.859 256.687,185.193 253,162.5C 252.302,155.08 252.802,147.747 254.5,140.5C 234.587,137.375 225.754,125.709 228,105.5C 233.233,87.7948 245.066,79.9615 263.5,82C 273.889,84.3275 280.555,90.4941 283.5,100.5C 298.085,94.2013 313.085,93.0346 328.5,97C 346.144,103.763 355.977,116.596 358,135.5C 358.667,150.5 358.667,165.5 358,180.5C 358.072,195.843 352.572,208.676 341.5,219C 336.31,222.286 330.643,223.952 324.5,224C 322.374,234.064 326.374,240.398 336.5,243C 343.8,244.596 351.133,245.929 358.5,247C 363.052,248.588 365.885,251.755 367,256.5C 367.475,268.967 366.309,281.301 363.5,293.5C 363.876,295.383 364.876,296.883 366.5,298C 381.187,306.235 385.687,318.401 380,334.5C 374.949,345.201 366.449,350.701 354.5,351C 353.398,353.401 353.231,355.901 354,358.5C 358.392,369.879 364.058,380.546 371,390.5C 379.167,396.667 387.333,402.833 395.5,409C 397.034,409.923 398.701,410.423 400.5,410.5C 405.16,408.479 409.993,407.146 415,406.5C 453.693,344.006 464.36,277.006 447,205.5C 445.855,191.862 445.188,178.195 445,164.5C 428.667,188.833 412.333,213.167 396,237.5C 393.831,240.417 391.331,240.917 388.5,239C 387.424,237.274 387.257,235.441 388,233.5C 417.579,190.685 445.912,147.019 473,102.5C 475.048,100.213 477.215,100.046 479.5,102C 485.071,107.714 487.238,114.548 486,122.5C 481.724,132.052 477.724,141.719 474,151.5C 469.795,168.421 469.462,185.421 473,202.5C 488.034,273.309 479.034,340.976 446,405.5C 443.542,410.253 440.708,414.753 437.5,419C 438.617,422.073 438.784,425.24 438,428.5C 434.333,433.833 430.667,439.167 427,444.5C 421.125,450.339 414.292,451.839 406.5,449C 401.9,446.785 397.734,443.952 394,440.5C 397.271,452.935 399.938,465.601 402,478.5C 402.999,485.15 403.333,491.817 403,498.5C 402.097,499.701 400.931,500.535 399.5,501C 335.436,514.961 274.936,505.794 218,473.5C 215.35,479.47 212.684,485.47 210,491.5C 205.291,496.368 199.791,497.535 193.5,495C 188.9,492.785 184.734,489.952 181,486.5C 178.928,483.117 177.761,479.45 177.5,475.5C 179.119,465.458 180.619,455.458 182,445.5C 164.646,428.302 151.48,408.302 142.5,385.5C 135.91,383.679 132.076,379.346 131,372.5C 127.692,350.17 127.692,327.837 131,305.5C 133.509,292.466 136.175,279.466 139,266.5C 140.113,259.285 139.446,252.285 137,245.5C 135.509,243.996 133.676,243.163 131.5,243C 128.5,242.833 125.5,242.667 122.5,242.5C 106.791,243.755 91.1244,245.422 75.5,247.5C 63.9192,250.248 53.2526,248.415 43.5,242C 37.6983,237.2 32.1983,232.033 27,226.5C 22.6554,217.527 24.4887,210.027 32.5,204C 42.1662,198.836 51.4996,193.169 60.5,187C 72.4371,177.066 83.7704,166.399 94.5,155C 104.447,147.199 115.78,143.032 128.5,142.5C 132.138,126.699 134.472,110.699 135.5,94.5C 103.198,92.0172 81.3649,75.6839 70,45.5C 68.7307,31.876 74.8973,26.0426 88.5,28C 93.58,52.0795 108.247,66.4128 132.5,71C 158.501,73.7499 183.835,70.7499 208.5,62C 233.229,52.5937 247.729,34.7604 252,8.5C 254.17,6.17694 256.67,4.51027 259.5,3.5 Z M 233.5,194.5 C 236.484,196.445 239.651,198.111 243,199.5C 244.706,203.079 246.539,206.579 248.5,210C 246.667,211.167 244.833,212.333 243,213.5C 238.738,207.644 235.572,201.31 233.5,194.5 Z"/></g>
<g><path style="opacity:1" fill="#dd7878" d="M 210.5,76.5 C 207.145,76.3104 204.145,75.3104 201.5,73.5C 219.009,68.5044 233.843,59.1711 246,45.5C 252.155,36.0418 256.155,25.7085 258,14.5C 259.509,12.0807 261.675,11.0807 264.5,11.5C 264.122,17.9771 262.956,24.3104 261,30.5C 258.355,36.2876 255.855,42.1209 253.5,48C 253.585,49.1074 253.919,50.1074 254.5,51C 289.038,59.561 314.705,48.2277 331.5,17C 333.473,16.5045 335.473,16.3379 337.5,16.5C 331.297,34.2071 319.631,47.0404 302.5,55C 296.683,57.2877 290.683,58.9544 284.5,60C 271.833,60 259.167,60 246.5,60C 236.252,64.4572 226.252,69.4572 216.5,75C 214.564,75.813 212.564,76.313 210.5,76.5 Z"/></g>
<g><path style="opacity:1" fill="#c36661" d="M 201.5,73.5 C 204.145,75.3104 207.145,76.3104 210.5,76.5C 196.762,81.7503 182.429,84.9169 167.5,86C 158.763,88.4035 152.929,93.9035 150,102.5C 148.916,111.592 147.416,120.592 145.5,129.5C 143.063,130.803 140.896,132.47 139,134.5C 140.49,123.911 141.824,113.244 143,102.5C 143.667,97.8333 143.667,93.1667 143,88.5C 124.443,87.1355 107.943,80.6355 93.5,69C 85.9918,61.1572 80.6585,51.9906 77.5,41.5C 77.7579,38.3135 79.4246,36.3135 82.5,35.5C 89.8077,61.9698 107.141,76.8031 134.5,80C 157.141,81.0025 179.475,78.8359 201.5,73.5 Z"/></g>
<g><path style="opacity:1" fill="#502a43" d="M 254.5,89.5 C 265.941,89.1403 273.275,94.3069 276.5,105C 276.333,105.833 276.167,106.667 276,107.5C 268.79,114.041 263.124,121.707 259,130.5C 245.092,132.275 237.259,126.108 235.5,112C 236.649,100.024 242.983,92.5243 254.5,89.5 Z"/></g>
<g><path style="opacity:1" fill="#874b69" d="M 298.5,103.5 C 303.08,103.878 306.913,105.878 310,109.5C 314.722,114.61 317.555,120.61 318.5,127.5C 313.29,128.221 308.29,129.388 303.5,131C 297.045,123.615 289.378,117.948 280.5,114C 285.808,109.184 291.808,105.684 298.5,103.5 Z"/></g>
<g><path style="opacity:1" fill="#e17a7a" d="M 465.5,206.5 C 462.762,206.149 460.096,205.482 457.5,204.5C 456.702,204.957 456.369,205.624 456.5,206.5C 455.262,202.381 454.429,198.047 454,193.5C 453.333,182.167 453.333,170.833 454,159.5C 455.081,154.764 456.414,150.097 458,145.5C 463.575,134.01 469.909,123.01 477,112.5C 478.457,115.366 478.79,118.366 478,121.5C 462.689,148.177 458.522,176.51 465.5,206.5 Z"/></g>
<g><path style="opacity:1" fill="#814864" d="M 313.5,103.5 C 332.005,103.789 343.838,113.123 349,131.5C 349.667,133.167 349.667,134.833 349,136.5C 342.776,130.305 335.276,126.638 326.5,125.5C 324.6,116.629 320.267,109.296 313.5,103.5 Z"/></g>
<g><path style="opacity:1" fill="#cc9595" d="M 182.5,172.5 C 182.423,173.75 181.756,174.583 180.5,175C 138.127,191.735 95.7936,208.569 53.5,225.5C 52.8933,225.376 52.56,225.043 52.5,224.5C 57.1139,216.527 58.7806,208.027 57.5,199C 62.1667,195.667 66.8333,192.333 71.5,189C 80.1667,181.667 88.1667,173.667 95.5,165C 105.053,156.058 116.387,151.225 129.5,150.5C 128.178,155.993 130.178,158.493 135.5,158C 140.067,138.69 152.4,129.523 172.5,130.5C 173.231,145.546 166.898,156.38 153.5,163C 149.067,167.704 150.067,170.037 156.5,170C 160.873,168.287 164.707,165.787 168,162.5C 172.714,166.054 177.547,169.387 182.5,172.5 Z"/></g>
<g><path style="opacity:1" fill="#7d4462" d="M 290.5,154.5 C 277.85,153.691 269.516,147.358 265.5,135.5C 267.668,129.823 270.834,124.823 275,120.5C 284.585,123.204 292.085,128.704 297.5,137C 293.92,142.327 291.587,148.161 290.5,154.5 Z"/></g>
<g><path style="opacity:1" fill="#502b43" d="M 265.5,135.5 C 269.516,147.358 277.85,153.691 290.5,154.5C 290.666,158.514 290.499,162.514 290,166.5C 277.406,164.752 271.406,170.419 272,183.5C 259.302,168.917 257.135,152.917 265.5,135.5 Z"/></g>
<g><path style="opacity:1" fill="#ee9e9b" d="M 348.5,151.5 C 336.247,150.521 323.913,150.187 311.5,150.5C 310.912,146.369 310.079,142.369 309,138.5C 312.173,136.387 315.673,135.387 319.5,135.5C 319.335,139.182 319.501,142.848 320,146.5C 323.159,148.171 325.325,147.337 326.5,144C 327.256,140.875 327.589,137.709 327.5,134.5C 338.362,135.36 345.362,141.026 348.5,151.5 Z"/></g>
<g><path style="opacity:1" fill="#f0a6a2" d="M 311.5,150.5 C 323.913,150.187 336.247,150.521 348.5,151.5C 349.473,153.948 349.806,156.615 349.5,159.5C 332.5,159.5 315.5,159.5 298.5,159.5C 297.89,154.345 299.056,149.678 302,145.5C 303.502,148.018 305.002,150.518 306.5,153C 308.928,153.747 310.594,152.914 311.5,150.5 Z"/></g>
<g><path style="opacity:1" fill="#a2b6e4" d="M 215.5,155.5 C 215.739,157.467 215.406,159.301 214.5,161C 210.458,162.737 206.458,164.57 202.5,166.5C 201.583,165.873 200.583,165.539 199.5,165.5C 198.388,157.941 198.388,150.441 199.5,143C 200.908,142.685 202.241,143.018 203.5,144C 208.618,146.715 212.618,150.548 215.5,155.5 Z"/></g>
<g><path style="opacity:1" fill="#c4d5ec" d="M 224.5,151.5 C 236.504,157.83 242.67,167.83 243,181.5C 240.667,176.833 238.333,172.167 236,167.5C 231.296,163.067 228.963,164.067 229,170.5C 231.947,175.711 234.28,181.045 236,186.5C 225.552,177.05 221.718,165.383 224.5,151.5 Z"/></g>
<g><path style="opacity:1" fill="#8ea0d4" d="M 215.5,155.5 C 216.086,162.454 217.252,169.454 219,176.5C 220.584,180.675 222.918,184.341 226,187.5C 227.244,194.294 225.411,195.294 220.5,190.5C 216.018,180.02 209.018,171.687 199.5,165.5C 200.583,165.539 201.583,165.873 202.5,166.5C 206.458,164.57 210.458,162.737 214.5,161C 215.406,159.301 215.739,157.467 215.5,155.5 Z"/></g>
<g><path style="opacity:1" fill="#f3afad" d="M 298.5,159.5 C 315.5,159.5 332.5,159.5 349.5,159.5C 349.5,162.167 349.5,164.833 349.5,167.5C 347.473,167.338 345.473,167.505 343.5,168C 339.963,169.826 339.629,172.16 342.5,175C 344.568,175.687 346.568,175.52 348.5,174.5C 349.429,175.689 349.762,177.022 349.5,178.5C 332.167,178.5 314.833,178.5 297.5,178.5C 298.458,172.256 298.791,165.923 298.5,159.5 Z"/></g>
<g><path style="opacity:1" fill="#302c3e" d="M 318.5,166.5 C 322.65,166.601 326.483,167.601 330,169.5C 331.073,173.095 329.739,175.095 326,175.5C 323.5,175 321,174.5 318.5,174C 315.914,171.506 315.914,169.006 318.5,166.5 Z"/></g>
<g><path style="opacity:1" fill="#cd8e95" d="M 182.5,172.5 C 183.458,172.953 184.292,173.619 185,174.5C 185.206,180.286 186.04,185.952 187.5,191.5C 187.5,191.833 187.5,192.167 187.5,192.5C 178.167,196.167 168.833,199.833 159.5,203.5C 156.866,199.032 153.366,195.365 149,192.5C 146.942,193.058 145.775,194.391 145.5,196.5C 146.921,199.678 148.587,202.678 150.5,205.5C 150.423,206.75 149.756,207.583 148.5,208C 122.421,218.138 96.4205,228.471 70.5,239C 65.8452,239.499 61.1785,239.666 56.5,239.5C 51.4487,237.967 47.4487,234.967 44.5,230.5C 47.4681,228.86 50.1348,226.86 52.5,224.5C 52.56,225.043 52.8933,225.376 53.5,225.5C 95.7936,208.569 138.127,191.735 180.5,175C 181.756,174.583 182.423,173.75 182.5,172.5 Z"/></g>
<g><path style="opacity:1" fill="#2d2a3b" d="M 110.5,173.5 C 115,173.164 116.833,175.164 116,179.5C 113.205,182.818 109.705,184.318 105.5,184C 104.424,182.274 104.257,180.441 105,178.5C 106.812,176.7 108.645,175.033 110.5,173.5 Z"/></g>
<g><path style="opacity:1" fill="#757c8d" d="M 194.5,172.5 C 193.523,175.287 193.19,178.287 193.5,181.5C 192.194,178.313 192.194,174.98 193.5,171.5C 194.107,171.624 194.44,171.957 194.5,172.5 Z"/></g>
<g><path style="opacity:1" fill="#cadef5" d="M 194.5,172.5 C 197.806,173.82 200.806,175.653 203.5,178C 205.464,179.451 206.797,181.284 207.5,183.5C 204.086,186.54 200.086,188.54 195.5,189.5C 194.525,186.933 193.858,184.267 193.5,181.5C 193.19,178.287 193.523,175.287 194.5,172.5 Z"/></g>
<g><path style="opacity:1" fill="#bacbec" d="M 207.5,183.5 C 212.176,188.187 214.676,193.854 215,200.5C 212.833,197.5 210.667,194.5 208.5,191.5C 203.383,189.448 201.55,191.115 203,196.5C 210.718,207.709 209.718,208.376 200,198.5C 197.962,195.757 196.462,192.757 195.5,189.5C 200.086,188.54 204.086,186.54 207.5,183.5 Z"/></g>
<g><path style="opacity:1" fill="#f8bdbb" d="M 297.5,178.5 C 314.833,178.5 332.167,178.5 349.5,178.5C 349.666,182.514 349.499,186.514 349,190.5C 348.76,192.852 347.927,194.852 346.5,196.5C 331.833,196.5 317.167,196.5 302.5,196.5C 301.582,194.18 300.248,192.013 298.5,190C 295.997,189.126 293.997,189.793 292.5,192C 286.083,193.596 282.249,191.096 281,184.5C 279.977,180.683 280.477,177.183 282.5,174C 284.5,173.333 286.5,173.333 288.5,174C 289.833,175.667 291.167,177.333 292.5,179C 294.265,179.64 295.932,179.473 297.5,178.5 Z"/></g>
<g><path style="opacity:1" fill="#c78e8e" d="M 187.5,192.5 C 188.487,197.296 189.987,201.963 192,206.5C 196.349,211.878 200.182,217.545 203.5,223.5C 189.09,229.925 174.423,236.092 159.5,242C 158.251,242.74 157.251,242.573 156.5,241.5C 156.911,238.447 157.577,235.447 158.5,232.5C 161.278,230.975 164.278,229.975 167.5,229.5C 168.935,228.071 169.935,226.405 170.5,224.5C 169.3,217.761 166.3,212.094 161.5,207.5C 160.833,206.167 160.167,204.833 159.5,203.5C 168.833,199.833 178.167,196.167 187.5,192.5 Z"/></g>
<g><path style="opacity:1" fill="#884450" d="M 187.5,191.5 C 192.927,205.245 202.927,213.912 217.5,217.5C 219.711,220.756 222.045,223.922 224.5,227C 222.84,229.633 222.34,232.466 223,235.5C 228.27,245.041 233.27,254.708 238,264.5C 233.729,278.811 228.562,292.811 222.5,306.5C 222.828,295.986 222.494,285.653 221.5,275.5C 221.656,271.236 220.989,267.236 219.5,263.5C 217.074,248.866 211.741,235.533 203.5,223.5C 200.182,217.545 196.349,211.878 192,206.5C 189.987,201.963 188.487,197.296 187.5,192.5C 187.5,192.167 187.5,191.833 187.5,191.5 Z"/></g>
<g><path style="opacity:1" fill="#f7c7c5" d="M 302.5,196.5 C 317.167,196.5 331.833,196.5 346.5,196.5C 338.116,218.124 325.282,221.124 308,205.5C 305.642,202.778 303.809,199.778 302.5,196.5 Z"/></g>
<g><path style="opacity:1" fill="#854350" d="M 223.5,201.5 C 225.592,201.561 227.092,202.561 228,204.5C 229.934,208.759 232.268,212.759 235,216.5C 235.18,220.185 233.347,221.685 229.5,221C 223.996,215.687 221.996,209.187 223.5,201.5 Z"/></g>
<g><path style="opacity:1" fill="#c48c8d" d="M 150.5,205.5 C 153.25,208.661 155.25,212.327 156.5,216.5C 156.392,217.442 156.059,218.275 155.5,219C 152.5,219.333 149.5,219.667 146.5,220C 146,220.5 145.5,221 145,221.5C 145.585,225.854 145.418,230.187 144.5,234.5C 132.205,234.584 119.872,234.75 107.5,235C 90.4913,238.617 73.4913,240.117 56.5,239.5C 61.1785,239.666 65.8452,239.499 70.5,239C 96.4205,228.471 122.421,218.138 148.5,208C 149.756,207.583 150.423,206.75 150.5,205.5 Z"/></g>
<g><path style="opacity:1" fill="#d77582" d="M 315.5,231.5 C 309.33,228.991 303.663,225.658 298.5,221.5C 299.901,217.302 300.735,212.968 301,208.5C 304.775,213.113 309.275,216.78 314.5,219.5C 315.491,223.445 315.824,227.445 315.5,231.5 Z"/></g>
<g><path style="opacity:1" fill="#894551" d="M 161.5,207.5 C 166.3,212.094 169.3,217.761 170.5,224.5C 169.935,226.405 168.935,228.071 167.5,229.5C 164.278,229.975 161.278,230.975 158.5,232.5C 157.577,235.447 156.911,238.447 156.5,241.5C 154.263,245.093 150.93,246.426 146.5,245.5C 146.196,244.85 145.863,244.183 145.5,243.5C 151.356,239.788 154.022,234.455 153.5,227.5C 161.269,226.568 164.769,222.235 164,214.5C 163.153,212.146 162.32,209.812 161.5,207.5 Z"/></g>
<g><path style="opacity:1" fill="#b45f7d" d="M 257.5,213.5 C 259.017,213.511 260.184,214.177 261,215.5C 263.748,220.666 266.748,225.666 270,230.5C 271.59,232.65 272.257,234.983 272,237.5C 270.23,238.276 268.397,238.11 266.5,237C 262.833,236.333 259.167,236.333 255.5,237C 249.985,240.925 244.652,245.092 239.5,249.5C 235.274,244.052 232.44,238.052 231,231.5C 239.986,225.601 248.819,219.601 257.5,213.5 Z"/></g>
<g><path style="opacity:1" fill="#c7888e" d="M 203.5,223.5 C 211.741,235.533 217.074,248.866 219.5,263.5C 193.5,273.833 167.5,284.167 141.5,294.5C 143.848,285.283 145.681,275.95 147,266.5C 147.76,259.45 147.593,252.45 146.5,245.5C 150.93,246.426 154.263,245.093 156.5,241.5C 157.251,242.573 158.251,242.74 159.5,242C 174.423,236.092 189.09,229.925 203.5,223.5 Z"/></g>
<g><path style="opacity:1" fill="#d7736f" d="M 465.5,206.5 C 470.643,228.175 472.976,250.175 472.5,272.5C 471.842,273.398 471.176,274.398 470.5,275.5C 468.885,274.846 467.218,274.346 465.5,274C 464.868,270.73 464.201,267.563 463.5,264.5C 462.47,244.993 460.137,225.659 456.5,206.5C 456.369,205.624 456.702,204.957 457.5,204.5C 460.096,205.482 462.762,206.149 465.5,206.5 Z"/></g>
<g><path style="opacity:1" fill="#f7f7f7" d="M 306.5,289.5 C 299.352,290.492 292.019,290.825 284.5,290.5C 277.159,290.334 269.826,290.5 262.5,291C 262,291.5 261.5,292 261,292.5C 252.07,281.649 246.737,269.315 245,255.5C 249.619,250.124 255.119,246.124 261.5,243.5C 264.111,243.556 266.278,244.556 268,246.5C 274.876,261.037 284.376,273.537 296.5,284C 299.7,286.099 303.033,287.933 306.5,289.5 Z"/></g>
<g><path style="opacity:1" fill="#252538" d="M 378.5,247.5 C 385.716,246.688 387.716,249.355 384.5,255.5C 377.766,256.712 375.766,254.046 378.5,247.5 Z"/></g>
<g><path style="opacity:1" fill="#f7cac8" d="M 298.5,221.5 C 303.663,225.658 309.33,228.991 315.5,231.5C 317.577,242.078 323.91,248.578 334.5,251C 341.07,252.647 347.736,253.647 354.5,254C 358.386,255.937 360.053,259.103 359.5,263.5C 359.053,269.636 358.053,275.636 356.5,281.5C 353.763,281.599 351.096,281.265 348.5,280.5C 346.608,276.767 344.941,272.934 343.5,269C 340.143,267.859 338.143,269.025 337.5,272.5C 338.04,275.662 339.04,278.662 340.5,281.5C 338.926,282.631 337.259,282.798 335.5,282C 312.764,274.267 296.764,259.267 287.5,237C 292.283,232.591 295.95,227.424 298.5,221.5 Z"/></g>
<g><path style="opacity:1" fill="#c78888" d="M 219.5,263.5 C 220.989,267.236 221.656,271.236 221.5,275.5C 194.376,286.38 167.21,297.38 140,308.5C 139.536,307.906 139.369,307.239 139.5,306.5C 139.344,302.236 140.011,298.236 141.5,294.5C 167.5,284.167 193.5,273.833 219.5,263.5 Z"/></g>
<g><path style="opacity:1" fill="#96a4d5" d="M 279.5,241.5 C 280.376,241.369 281.043,241.702 281.5,242.5C 290.33,262.496 304.663,276.996 324.5,286C 308.266,283.956 295.432,276.123 286,262.5C 282.248,256.664 278.748,250.664 275.5,244.5C 276.901,243.479 278.235,242.479 279.5,241.5 Z"/></g>
<g><path style="opacity:1" fill="#bf8188" d="M 221.5,275.5 C 222.494,285.653 222.828,295.986 222.5,306.5C 218.402,317.679 214.069,328.679 209.5,339.5C 206.669,340.079 204.336,341.412 202.5,343.5C 202.802,340.941 202.468,338.607 201.5,336.5C 201.653,332.157 199.653,329.99 195.5,330C 195,330.5 194.5,331 194,331.5C 194.154,338.166 192.82,344.499 190,350.5C 188.951,351.517 187.784,351.684 186.5,351C 184.983,348.796 183.65,346.462 182.5,344C 180.833,343.333 179.167,343.333 177.5,344C 175.487,348.358 173.654,352.858 172,357.5C 170.328,360.337 168.161,362.67 165.5,364.5C 163.272,363.781 161.439,362.448 160,360.5C 159.828,355.798 159.328,351.132 158.5,346.5C 156.356,345.047 154.523,345.38 153,347.5C 153.427,358.079 150.593,367.579 144.5,376C 143.5,376.667 142.5,376.667 141.5,376C 139.235,372.17 138.068,368.003 138,363.5C 135.676,344.275 136.176,325.275 139.5,306.5C 139.369,307.239 139.536,307.906 140,308.5C 167.21,297.38 194.376,286.38 221.5,275.5 Z"/></g>
<g><path style="opacity:1" fill="#d57481" d="M 245.5,315.5 C 242.454,308.089 239.454,300.756 236.5,293.5C 237.842,287.817 240.009,282.484 243,277.5C 246.205,284.691 250.205,291.358 255,297.5C 255.52,299.289 255.187,300.956 254,302.5C 250.91,306.739 248.077,311.072 245.5,315.5 Z"/></g>
<g><path style="opacity:1" fill="#cb707d" d="M 348.5,280.5 C 351.096,281.265 353.763,281.599 356.5,281.5C 356.813,284.247 356.48,286.914 355.5,289.5C 352.444,287.051 350.111,284.051 348.5,280.5 Z"/></g>
<g><path style="opacity:1" fill="#85858f" d="M 306.5,289.5 C 307.473,289.987 308.473,290.487 309.5,291C 300.99,291.823 292.656,291.657 284.5,290.5C 292.019,290.825 299.352,290.492 306.5,289.5 Z"/></g>
<g><path style="opacity:1" fill="#f0f5f6" d="M 341.5,299.5 C 316.146,304.422 290.646,309.088 265,313.5C 264.51,312.207 264.343,310.873 264.5,309.5C 264.854,305.77 266.187,302.437 268.5,299.5C 292.832,298.385 317.166,298.385 341.5,299.5 Z"/></g>
<g><path style="opacity:1" fill="#f1f1f8" d="M 341.5,299.5 C 346.179,299.334 350.845,299.501 355.5,300C 360.414,303.277 365.08,306.777 369.5,310.5C 335.34,316.805 301.006,322.805 266.5,328.5C 265.97,326.076 265.136,323.743 264,321.5C 263.188,317.311 263.355,313.311 264.5,309.5C 264.343,310.873 264.51,312.207 265,313.5C 290.646,309.088 316.146,304.422 341.5,299.5 Z"/></g>
<g><path style="opacity:1" fill="#eaeef8" d="M 369.5,310.5 C 371.136,311.749 372.303,313.416 373,315.5C 375.9,327.845 371.734,336.679 360.5,342C 350.833,342.667 341.167,342.667 331.5,342C 327.966,337.469 324.132,333.303 320,329.5C 317.5,330 316,331.5 315.5,334C 318.142,338.118 321.142,341.951 324.5,345.5C 320.366,346.485 316.032,346.818 311.5,346.5C 310.373,345.878 309.373,345.045 308.5,344C 301.5,343.667 294.5,343.333 287.5,343C 278.084,341.628 271.084,336.795 266.5,328.5C 301.006,322.805 335.34,316.805 369.5,310.5 Z"/></g>
<g><path style="opacity:1" fill="#f6b9b7" d="M 236.5,293.5 C 239.454,300.756 242.454,308.089 245.5,315.5C 240.346,324.807 236.013,334.474 232.5,344.5C 228.473,343.861 224.473,343.028 220.5,342C 219.244,341.583 218.577,340.75 218.5,339.5C 223.987,323.876 229.987,308.543 236.5,293.5 Z"/></g>
<g><path style="opacity:1" fill="#be615a" d="M 463.5,264.5 C 464.201,267.563 464.868,270.73 465.5,274C 467.218,274.346 468.885,274.846 470.5,275.5C 471.176,274.398 471.842,273.398 472.5,272.5C 470.814,302.931 465.147,332.598 455.5,361.5C 452.505,361.706 449.838,361.04 447.5,359.5C 458.557,328.827 463.89,297.16 463.5,264.5 Z"/></g>
<g><path style="opacity:1" fill="#833d4a" d="M 281.5,361.5 C 267.884,365.372 254.217,369.039 240.5,372.5C 240.047,363.495 239.88,354.495 240,345.5C 243.946,334.942 248.946,324.942 255,315.5C 256.511,329.876 263.511,340.543 276,347.5C 278.124,352.076 279.957,356.743 281.5,361.5 Z"/></g>
<g><path style="opacity:1" fill="#8d9bcb" d="M 324.5,345.5 C 332.179,353.848 339.513,362.515 346.5,371.5C 341.433,371.378 336.433,370.711 331.5,369.5C 330.584,369.543 329.917,369.876 329.5,370.5C 323.916,362.241 317.916,354.241 311.5,346.5C 316.032,346.818 320.366,346.485 324.5,345.5 Z"/></g>
<g><path style="opacity:1" fill="#8490bf" d="M 339.5,351.5 C 341.265,350.539 343.265,350.205 345.5,350.5C 345.663,352.857 345.497,355.19 345,357.5C 342.932,355.604 341.099,353.604 339.5,351.5 Z"/></g>
<g><path style="opacity:1" fill="#8f9dcd" d="M 317.5,367.5 C 308.387,365.971 299.387,363.971 290.5,361.5C 288.754,358.128 287.088,354.628 285.5,351C 291.833,350.333 298.167,350.333 304.5,351C 309.203,356.258 313.537,361.758 317.5,367.5 Z"/></g>
<g><path style="opacity:1" fill="#833e4b" d="M 201.5,336.5 C 202.468,338.607 202.802,340.941 202.5,343.5C 202.58,350.515 201.08,357.182 198,363.5C 196.014,365.742 193.514,366.742 190.5,366.5C 187.493,366.226 184.826,365.393 182.5,364C 180.799,370.068 177.799,375.402 173.5,380C 168.677,380.609 164.01,380.276 159.5,379C 157.929,383.214 156.263,387.38 154.5,391.5C 152.805,388.596 151.472,385.429 150.5,382C 153.21,378.083 155.544,373.916 157.5,369.5C 164.874,374.322 171.041,372.989 176,365.5C 177.667,362.5 179.333,359.5 181,356.5C 188.459,361.282 194.126,359.616 198,351.5C 200.122,346.726 201.288,341.726 201.5,336.5 Z"/></g>
<g><path style="opacity:1" fill="#82374a" d="M 281.5,361.5 C 286.061,367.372 287.561,374.039 286,381.5C 280.156,390.528 274.323,399.528 268.5,408.5C 250.789,413.344 233.123,418.344 215.5,423.5C 221.974,411.892 228.474,400.226 235,388.5C 237.154,383.149 238.987,377.816 240.5,372.5C 254.217,369.039 267.884,365.372 281.5,361.5 Z"/></g>
<g><path style="opacity:1" fill="#ba7b82" d="M 209.5,339.5 C 200.867,371.7 192.7,404.034 185,436.5C 172.239,423.242 162.072,408.242 154.5,391.5C 156.263,387.38 157.929,383.214 159.5,379C 164.01,380.276 168.677,380.609 173.5,380C 177.799,375.402 180.799,370.068 182.5,364C 184.826,365.393 187.493,366.226 190.5,366.5C 193.514,366.742 196.014,365.742 198,363.5C 201.08,357.182 202.58,350.515 202.5,343.5C 204.336,341.412 206.669,340.079 209.5,339.5 Z"/></g>
<g><path style="opacity:1" fill="#f1aeac" d="M 218.5,339.5 C 218.577,340.75 219.244,341.583 220.5,342C 224.473,343.028 228.473,343.861 232.5,344.5C 232.082,353.786 231.915,363.12 232,372.5C 228.884,385.065 223.384,396.398 215.5,406.5C 211.149,405.83 206.816,404.996 202.5,404C 201.944,403.617 201.611,403.117 201.5,402.5C 206.094,381.119 211.76,360.119 218.5,339.5 Z"/></g>
<g><path style="opacity:1" fill="#dee3f6" d="M 346.5,371.5 C 352.569,377.907 357.903,384.907 362.5,392.5C 357.127,394.452 351.46,395.452 345.5,395.5C 340.201,387.189 334.867,378.856 329.5,370.5C 329.917,369.876 330.584,369.543 331.5,369.5C 336.433,370.711 341.433,371.378 346.5,371.5 Z"/></g>
<g><path style="opacity:1" fill="#ad534a" d="M 447.5,359.5 C 449.838,361.04 452.505,361.706 455.5,361.5C 450.447,376.277 444.28,390.61 437,404.5C 435.355,408.132 433.021,411.132 430,413.5C 427.21,412.906 424.71,411.739 422.5,410C 432.335,393.831 440.668,376.998 447.5,359.5 Z"/></g>
<g><path style="opacity:1" fill="#e1e6f8" d="M 290.5,361.5 C 299.387,363.971 308.387,365.971 317.5,367.5C 324.59,376.682 330.923,386.349 336.5,396.5C 336.082,397.222 335.416,397.722 334.5,398C 325.794,399.395 317.128,400.895 308.5,402.5C 302.264,389.019 296.264,375.352 290.5,361.5 Z"/></g>
<g><path style="opacity:1" fill="#d6def7" d="M 362.5,392.5 C 367.595,400.354 371.928,408.687 375.5,417.5C 375.03,418.693 374.03,419.36 372.5,419.5C 367.855,420.385 363.189,421.052 358.5,421.5C 354.153,412.807 349.82,404.14 345.5,395.5C 351.46,395.452 357.127,394.452 362.5,392.5 Z"/></g>
<g><path style="opacity:1" fill="#d7dff8" d="M 336.5,396.5 C 339.559,400.937 342.392,405.603 345,410.5C 347.403,414.635 349.237,418.968 350.5,423.5C 339.483,425.058 328.483,426.725 317.5,428.5C 314.125,420.046 311.125,411.379 308.5,402.5C 317.128,400.895 325.794,399.395 334.5,398C 335.416,397.722 336.082,397.222 336.5,396.5 Z"/></g>
<g><path style="opacity:1" fill="#d4ddf5" d="M 288.5,426.5 C 288.5,428.833 288.5,431.167 288.5,433.5C 280.979,434.67 273.479,436.004 266,437.5C 265.235,437.43 264.735,437.097 264.5,436.5C 269.089,422.651 275.756,409.985 284.5,398.5C 287.306,407.61 288.639,416.943 288.5,426.5 Z"/></g>
<g><path style="opacity:1" fill="#823743" d="M 268.5,408.5 C 256.545,430.366 249.211,453.7 246.5,478.5C 232.784,473.566 220.617,466.233 210,456.5C 208.664,453.991 207.83,451.324 207.5,448.5C 208.786,439.678 211.453,431.345 215.5,423.5C 233.123,418.344 250.789,413.344 268.5,408.5 Z"/></g>
<g><path style="opacity:1" fill="#d47481" d="M 393.5,417.5 C 392.957,417.56 392.624,417.893 392.5,418.5C 394.889,423.331 396.889,428.331 398.5,433.5C 394.628,431.807 391.128,429.474 388,426.5C 385.436,420.455 383.103,414.455 381,408.5C 385.322,411.399 389.489,414.399 393.5,417.5 Z"/></g>
<g><path style="opacity:1" fill="#f4b2af" d="M 423.5,419.5 C 418.617,426.641 413.284,433.307 407.5,439.5C 403.946,438.231 400.946,436.231 398.5,433.5C 396.889,428.331 394.889,423.331 392.5,418.5C 392.624,417.893 392.957,417.56 393.5,417.5C 397.413,418.596 401.413,418.762 405.5,418C 411.758,414.65 417.758,415.15 423.5,419.5 Z"/></g>
<g><path style="opacity:1" fill="#eea3a0" d="M 423.5,419.5 C 426.548,420.016 428.882,421.516 430.5,424C 426.904,429.933 422.904,435.6 418.5,441C 414.332,443.303 410.665,442.803 407.5,439.5C 413.284,433.307 418.617,426.641 423.5,419.5 Z"/></g>
<g><path style="opacity:1" fill="#cdd7f7" d="M 375.5,417.5 C 379.297,424.775 382.297,432.442 384.5,440.5C 379.127,442.452 373.46,443.452 367.5,443.5C 364.89,436.001 361.89,428.667 358.5,421.5C 363.189,421.052 367.855,420.385 372.5,419.5C 374.03,419.36 375.03,418.693 375.5,417.5 Z"/></g>
<g><path style="opacity:1" fill="#ced8f8" d="M 350.5,423.5 C 354.458,430.025 357.458,437.025 359.5,444.5C 347.756,447.461 335.756,449.794 323.5,451.5C 321.348,443.892 319.348,436.225 317.5,428.5C 328.483,426.725 339.483,425.058 350.5,423.5 Z"/></g>
<g><path style="opacity:1" fill="#ced7f5" d="M 315.5,452.5 C 309.732,454.128 303.732,455.128 297.5,455.5C 298.395,433.278 296.062,411.445 290.5,390C 290.78,388.605 291.447,387.438 292.5,386.5C 302.147,407.772 309.814,429.772 315.5,452.5 Z"/></g>
<g><path style="opacity:1" fill="#eda09c" d="M 201.5,402.5 C 201.611,403.117 201.944,403.617 202.5,404C 206.816,404.996 211.149,405.83 215.5,406.5C 208.42,418.335 203.253,431.002 200,444.5C 199.504,451.511 201.337,457.844 205.5,463.5C 205.631,464.376 205.298,465.043 204.5,465.5C 199.289,464.239 194.123,462.906 189,461.5C 188.722,462.416 188.222,463.082 187.5,463.5C 191.215,442.833 195.882,422.499 201.5,402.5 Z"/></g>
<g><path style="opacity:1" fill="#ced8f8" d="M 288.5,426.5 C 289.494,436.653 289.828,446.986 289.5,457.5C 278.833,459.167 268.167,460.833 257.5,462.5C 257.5,461.5 257.5,460.5 257.5,459.5C 258.855,451.444 261.188,443.777 264.5,436.5C 264.735,437.097 265.235,437.43 266,437.5C 273.479,436.004 280.979,434.67 288.5,433.5C 288.5,431.167 288.5,428.833 288.5,426.5 Z"/></g>
<g><path style="opacity:1" fill="#c4cff5" d="M 384.5,440.5 C 391.058,457.468 394.225,475.134 394,493.5C 388.934,494.89 383.768,495.89 378.5,496.5C 378.155,478.123 374.488,460.457 367.5,443.5C 373.46,443.452 379.127,442.452 384.5,440.5 Z"/></g>
<g><path style="opacity:1" fill="#c5d1f6" d="M 359.5,444.5 C 366.626,461.684 370.626,479.684 371.5,498.5C 358.843,499.395 346.176,499.561 333.5,499C 330.745,483.061 327.412,467.227 323.5,451.5C 335.756,449.794 347.756,447.461 359.5,444.5 Z"/></g>
<g><path style="opacity:1" fill="#c4cff5" d="M 315.5,452.5 C 319.823,467.506 323.156,482.839 325.5,498.5C 314.822,497.748 304.322,496.081 294,493.5C 295.383,480.913 296.549,468.246 297.5,455.5C 303.732,455.128 309.732,454.128 315.5,452.5 Z"/></g>
<g><path style="opacity:1" fill="#c6d1f6" d="M 289.5,457.5 C 288.764,468.858 287.764,480.191 286.5,491.5C 275.513,489.728 264.846,486.728 254.5,482.5C 253.825,474.558 254.825,466.892 257.5,459.5C 257.5,460.5 257.5,461.5 257.5,462.5C 268.167,460.833 278.833,459.167 289.5,457.5 Z"/></g>
<g><path style="opacity:1" fill="#ec9895" d="M 205.5,463.5 C 208.628,466.101 209.795,469.434 209,473.5C 207.194,477.918 205.194,482.251 203,486.5C 202.196,487.804 201.029,488.471 199.5,488.5C 193.991,486.486 189.491,483.153 186,478.5C 185.624,473.418 186.124,468.418 187.5,463.5C 188.222,463.082 188.722,462.416 189,461.5C 194.123,462.906 199.289,464.239 204.5,465.5C 205.298,465.043 205.631,464.376 205.5,463.5 Z"/></g>
</svg>
