<?xml version="1.0" encoding="UTF-8"?>
<!DOCTYPE svg PUBLIC "-//W3C//DTD SVG 1.1//EN" "http://www.w3.org/Graphics/SVG/1.1/DTD/svg11.dtd">
<svg xmlns="http://www.w3.org/2000/svg" version="1.1" width="512px" height="512px" style="shape-rendering:geometricPrecision; text-rendering:geometricPrecision; image-rendering:optimizeQuality; fill-rule:evenodd; clip-rule:evenodd" xmlns:xlink="http://www.w3.org/1999/xlink">
<g><path style="opacity:1" fill="#262638" d="M 215.5,24.5 C 221.262,24.1493 226.928,24.6493 232.5,26C 241.77,32.4804 243.603,40.647 238,50.5C 236.255,51.9557 234.422,53.289 232.5,54.5C 230.07,73.1833 233.237,90.85 242,107.5C 249.426,120.134 257.092,120.467 265,108.5C 268.115,103.156 270.448,97.4894 272,91.5C 273.842,81.7717 275.676,72.1051 277.5,62.5C 279.969,60.9934 282.135,61.3268 284,63.5C 284.415,80.7586 280.748,97.0919 273,112.5C 264.771,125.915 252.938,130.748 237.5,127C 226.305,123.807 218.139,116.973 213,106.5C 210.405,101.049 208.405,95.3823 207,89.5C 201.249,112.252 193.416,134.252 183.5,155.5C 166.693,166.464 151.193,179.131 137,193.5C 134.64,196.36 132.473,199.36 130.5,202.5C 134.478,207.646 138.645,212.646 143,217.5C 151.701,234.407 147.201,246.074 129.5,252.5C 127.402,259.018 126.569,265.685 127,272.5C 142.961,291.406 155.628,312.406 165,335.5C 171.857,319.595 177.524,303.261 182,286.5C 185.359,276.271 190.859,267.438 198.5,260C 200.957,258.438 203.624,257.438 206.5,257C 193.129,244.155 189.963,228.988 197,211.5C 204.249,196.75 210.916,181.75 217,166.5C 222.611,156.223 230.778,148.723 241.5,144C 259.136,140.23 273.636,145.396 285,159.5C 298.498,177.664 304.998,198.164 304.5,221C 304.134,228.563 303.301,236.063 302,243.5C 300.477,247.852 297.977,251.519 294.5,254.5C 296.483,255.982 298.316,257.649 300,259.5C 307.158,275.987 317.991,289.487 332.5,300C 339.698,306.864 346.532,314.03 353,321.5C 361.427,303.629 372.094,287.296 385,272.5C 384.929,265.824 384.429,259.157 383.5,252.5C 369.37,249.533 363.204,240.866 365,226.5C 366.059,223.382 367.392,220.382 369,217.5C 373.167,212.667 377.333,207.833 381.5,203C 376.288,194.782 369.955,187.448 362.5,181C 350.976,172.136 339.476,163.302 328,154.5C 317.414,132.41 309.414,109.41 304,85.5C 301.762,96.9732 297.095,107.307 290,116.5C 285.533,121.821 280.033,124.487 273.5,124.5C 272.738,123.372 272.071,122.205 271.5,121C 275.315,116.855 279.481,113.022 284,109.5C 290.14,100.752 294.14,91.0855 296,80.5C 297.53,71.8969 298.363,63.2302 298.5,54.5C 292.833,55.0751 287.167,55.2417 281.5,55C 270.78,50.1833 267.947,42.3499 273,31.5C 279.416,24.7791 287.25,22.6125 296.5,25C 310.301,27.4838 322.301,33.4838 332.5,43C 352.25,61.0792 367.75,82.2459 379,106.5C 387.833,91 400,78.8333 415.5,70C 422.184,68.4808 428.184,69.8141 433.5,74C 446.257,84.7439 456.757,97.2439 465,111.5C 474.522,130.383 474.855,149.383 466,168.5C 462.991,172.339 459.824,176.006 456.5,179.5C 462.816,183.12 466.982,188.454 469,195.5C 469.006,219.224 472.006,242.557 478,265.5C 483.868,282.103 489.534,298.77 495,315.5C 507.217,363.035 504.383,409.702 486.5,455.5C 484.809,457.256 482.809,457.756 480.5,457C 456.117,428.38 441.951,395.213 438,357.5C 435.288,360.09 433.788,363.257 433.5,367C 434.315,373.37 435.315,379.703 436.5,386C 434.191,396.269 427.857,399.936 417.5,397C 412.794,395.895 409.627,393.062 408,388.5C 407.5,379.173 407.334,369.839 407.5,360.5C 394.533,364.829 381.2,366.829 367.5,366.5C 369.41,404.634 363.91,441.634 351,477.5C 342.042,486.826 333.042,486.826 324,477.5C 321.413,472.739 319.413,467.739 318,462.5C 316.003,452.847 314.336,443.181 313,433.5C 308.927,441.14 303.76,447.974 297.5,454C 295.547,455.633 293.38,456.799 291,457.5C 286.729,456.774 285.563,454.441 287.5,450.5C 300.808,439.371 309.308,425.371 313,408.5C 298.101,430.249 277.601,442.582 251.5,445.5C 234.934,445.089 219.934,440.089 206.5,430.5C 206.167,430.833 205.833,431.167 205.5,431.5C 217.719,450.948 235.386,461.115 258.5,462C 261.167,464.667 261.167,467.333 258.5,470C 227.26,468.792 205.093,453.959 192,425.5C 190.669,442.49 186.669,458.824 180,474.5C 175.311,484.594 167.477,488.428 156.5,486C 150.608,483.108 146.441,478.608 144,472.5C 141.928,466.952 140.262,461.285 139,455.5C 137.412,430.195 137.079,404.862 138,379.5C 138.471,377.754 139.138,376.087 140,374.5C 142.884,372.616 145.051,370.116 146.5,367C 132.127,367.104 118.127,364.938 104.5,360.5C 104.949,370.605 104.449,380.605 103,390.5C 97.7311,397.093 90.8978,399.259 82.5,397C 78.8345,395.332 76.6678,392.499 76,388.5C 76.1709,380.963 77.0042,373.463 78.5,366C 77.9197,362.672 76.4197,359.839 74,357.5C 69.8636,394.619 56.0303,427.452 32.5,456C 30.3763,457.582 28.2096,457.749 26,456.5C 6.78656,410.926 3.45323,364.26 16,316.5C 23.0641,297.974 29.7308,279.308 36,260.5C 40.3492,239.045 42.6825,217.378 43,195.5C 44.5771,188.255 48.7438,183.089 55.5,180C 40.6296,165.028 35.7963,147.195 41,126.5C 44.1684,115.828 49.1684,106.162 56,97.5C 64.5766,86.9213 74.4099,77.7546 85.5,70C 93.4976,68.5553 100.498,70.5553 106.5,76C 117.515,84.343 126.348,94.5097 133,106.5C 146.628,75.8833 167.128,51.05 194.5,32C 201.295,28.571 208.295,26.071 215.5,24.5 Z M 238.5,117.5 C 228.88,114.045 222.38,107.379 219,97.5C 214.207,83.5784 212.04,69.2451 212.5,54.5C 215.777,54.2161 218.943,54.5495 222,55.5C 221.286,75.2307 225.286,93.8973 234,111.5C 235.332,113.66 236.832,115.66 238.5,117.5 Z M 65.5,255.5 C 70.641,265.955 70.8077,276.622 66,287.5C 62.8819,276.833 62.7152,266.167 65.5,255.5 Z M 445.5,255.5 C 449.292,265.601 449.459,275.934 446,286.5C 441.532,276.303 441.366,265.97 445.5,255.5 Z M 216.5,334.5 C 224.29,339.885 228.957,347.385 230.5,357C 224.395,364.039 218.895,371.539 214,379.5C 213.406,375.679 212.906,371.845 212.5,368C 213.227,356.749 214.56,345.582 216.5,334.5 Z M 294.5,335.5 C 295.586,335.62 296.253,336.287 296.5,337.5C 299.586,351.788 300.419,366.121 299,380.5C 293.874,372.379 288.374,364.546 282.5,357C 284.082,348.321 288.082,341.154 294.5,335.5 Z"/></g>
<g><path style="opacity:1" fill="#f1b2b0" d="M 215.5,33.5 C 220.101,32.1 224.768,32.2666 229.5,34C 235.036,38.8376 234.703,43.1709 228.5,47C 222.52,46.9275 216.52,46.7609 210.5,46.5C 212.948,45.5269 215.615,45.1936 218.5,45.5C 217.992,41.2641 216.992,37.2641 215.5,33.5 Z"/></g>
<g><path style="opacity:1" fill="#f2b1af" d="M 298.5,34.5 C 297.883,34.6107 297.383,34.944 297,35.5C 296.545,38.8536 296.045,42.1869 295.5,45.5C 297.099,45.2322 298.432,45.5655 299.5,46.5C 294.133,46.6414 288.799,46.8081 283.5,47C 276.898,42.5181 276.898,37.8515 283.5,33C 288.759,32.1923 293.759,32.6923 298.5,34.5 Z"/></g>
<g><path style="opacity:1" fill="#f3c1bf" d="M 215.5,33.5 C 216.992,37.2641 217.992,41.2641 218.5,45.5C 215.615,45.1936 212.948,45.5269 210.5,46.5C 207.193,46.4615 204.026,47.1282 201,48.5C 200.5,48.1667 200,47.8333 199.5,47.5C 201.372,43.5879 203.372,39.7546 205.5,36C 208.72,34.6476 212.053,33.8143 215.5,33.5 Z"/></g>
<g><path style="opacity:1" fill="#f3c1c0" d="M 298.5,34.5 C 301.321,34.5387 303.988,35.2054 306.5,36.5C 308.735,40.2286 310.735,44.062 312.5,48C 308.19,47.6785 303.857,47.1785 299.5,46.5C 298.432,45.5655 297.099,45.2322 295.5,45.5C 296.045,42.1869 296.545,38.8536 297,35.5C 297.383,34.944 297.883,34.6107 298.5,34.5 Z"/></g>
<g><path style="opacity:1" fill="#7b7cad" d="M 175.5,116.5 C 174.675,120.647 174.175,124.981 174,129.5C 161.99,143.079 153.323,141.412 148,124.5C 146.763,116.536 145.93,108.536 145.5,100.5C 156.955,78.5413 172.288,59.708 191.5,44C 192.167,43.3333 192.833,43.3333 193.5,44C 182.564,66.9104 176.564,91.0771 175.5,116.5 Z"/></g>
<g><path style="opacity:1" fill="#7c7cad" d="M 368.5,105.5 C 369.756,116.448 367.922,126.782 363,136.5C 354.914,144.01 346.581,144.344 338,137.5C 337.828,131.319 337.328,125.319 336.5,119.5C 335.711,100.767 332.544,82.4332 327,64.5C 324.294,57.1904 321.794,50.1904 319.5,43.5C 341.118,60.1105 357.451,80.7772 368.5,105.5 Z"/></g>
<g><path style="opacity:1" fill="#7b7bac" d="M 115.5,180.5 C 120.845,170.124 124.178,159.124 125.5,147.5C 127.681,136.252 125.847,125.586 120,115.5C 111.962,107.284 102.462,104.618 91.5,107.5C 86.6848,108.16 82.8515,110.494 80,114.5C 73.163,123.024 70.8297,132.691 73,143.5C 73.6786,147.878 74.5119,152.211 75.5,156.5C 67.3501,157.493 59.0168,157.826 50.5,157.5C 45.2052,141.814 47.0385,126.814 56,112.5C 64.0877,98.846 74.5877,87.346 87.5,78C 89.5,77.3333 91.5,77.3333 93.5,78C 114.208,90.3748 127.708,108.208 134,131.5C 136.494,151.245 130.328,167.579 115.5,180.5 Z"/></g>
<g><path style="opacity:1" fill="#7b7bac" d="M 461.5,157.5 C 452.833,157.5 444.167,157.5 435.5,157.5C 438.47,148.403 439.637,139.07 439,129.5C 437.09,121.33 432.923,114.664 426.5,109.5C 414.775,98.3551 403.608,99.0218 393,111.5C 386.837,122.711 384.837,134.711 387,147.5C 387.198,149.382 387.698,151.048 388.5,152.5C 390.155,162.131 392.822,171.464 396.5,180.5C 377.977,164.08 372.81,144.08 381,120.5C 388.851,102.647 401.018,88.4804 417.5,78C 420.594,77.3482 423.594,77.6815 426.5,79C 441.484,91.1345 452.984,105.968 461,123.5C 465.365,134.947 465.532,146.28 461.5,157.5 Z"/></g>
<g><path style="opacity:1" fill="#504e72" d="M 202.5,55.5 C 203.629,57.6282 203.796,59.9615 203,62.5C 199.445,88.0584 192.778,112.725 183,136.5C 182.453,109.782 186.453,83.782 195,58.5C 197.48,57.1885 199.98,56.1885 202.5,55.5 Z"/></g>
<g><path style="opacity:1" fill="#4d4b6e" d="M 308.5,55.5 C 311.26,56.1924 313.927,57.1924 316.5,58.5C 325.752,83.6798 329.919,109.68 329,136.5C 318.039,110.522 311.206,83.522 308.5,55.5 Z"/></g>
<g><path style="opacity:1" fill="#56557a" d="M 426.5,109.5 C 411.285,104.02 400.785,109.02 395,124.5C 393.208,129 392.375,133.667 392.5,138.5C 391.523,141.287 391.19,144.287 391.5,147.5C 390.5,147.5 389.5,147.5 388.5,147.5C 388.5,149.167 388.5,150.833 388.5,152.5C 387.698,151.048 387.198,149.382 387,147.5C 384.837,134.711 386.837,122.711 393,111.5C 403.608,99.0218 414.775,98.3551 426.5,109.5 Z"/></g>
<g><path style="opacity:1" fill="#efa4a1" d="M 429.5,126.5 C 420.416,126.196 411.416,126.529 402.5,127.5C 404.583,120.583 409.083,116.25 416,114.5C 423.166,115.499 427.666,119.499 429.5,126.5 Z"/></g>
<g><path style="opacity:1" fill="#535277" d="M 91.5,107.5 C 102.462,104.618 111.962,107.284 120,115.5C 125.847,125.586 127.681,136.252 125.5,147.5C 124.448,145.744 122.781,145.077 120.5,145.5C 120.802,142.941 120.468,140.607 119.5,138.5C 119.391,125.104 113.724,114.938 102.5,108C 98.8484,107.501 95.1817,107.335 91.5,107.5 Z"/></g>
<g><path style="opacity:1" fill="#f0afad" d="M 429.5,126.5 C 430.222,126.918 430.722,127.584 431,128.5C 431.167,131.5 431.333,134.5 431.5,137.5C 431.684,142.107 431.017,146.44 429.5,150.5C 420.014,149.506 410.348,149.173 400.5,149.5C 400.369,148.761 400.536,148.094 401,147.5C 404.042,148.986 405.875,147.986 406.5,144.5C 404.411,141.755 402.078,139.255 399.5,137C 399.98,133.552 400.98,130.385 402.5,127.5C 411.416,126.529 420.416,126.196 429.5,126.5 Z"/></g>
<g><path style="opacity:1" fill="#f4b0ad" d="M 106.5,140.5 C 102.366,139.515 98.0323,139.182 93.5,139.5C 90.1216,138.891 88.1216,140.224 87.5,143.5C 85.1667,143.5 82.8333,143.5 80.5,143.5C 78.2229,132.499 81.2229,123.332 89.5,116C 93.5,114 97.5,114 101.5,116C 108.568,121.875 111.735,129.375 111,138.5C 109.53,139.267 108.03,139.933 106.5,140.5 Z"/></g>
<g><path style="opacity:1" fill="#2e2b3d" d="M 93.5,139.5 C 95.4478,140.131 97.2811,141.131 99,142.5C 99.7203,144.112 99.5536,145.612 98.5,147C 95.8333,147.667 93.1667,147.667 90.5,147C 88.9443,146.28 87.9443,145.113 87.5,143.5C 88.1216,140.224 90.1216,138.891 93.5,139.5 Z"/></g>
<g><path style="opacity:1" fill="#403f5f" d="M 368.5,105.5 C 370.861,109.051 372.861,112.885 374.5,117C 369.68,128.43 368.347,140.263 370.5,152.5C 370.082,153.222 369.416,153.722 368.5,154C 361.137,155.061 353.803,156.227 346.5,157.5C 342.968,156.146 339.802,154.146 337,151.5C 336.5,140.839 336.333,130.172 336.5,119.5C 337.328,125.319 337.828,131.319 338,137.5C 346.581,144.344 354.914,144.01 363,136.5C 367.922,126.782 369.756,116.448 368.5,105.5 Z"/></g>
<g><path style="opacity:1" fill="#2d2a3c" d="M 415.5,140.5 C 418.247,140.187 420.914,140.52 423.5,141.5C 424.953,143.644 424.62,145.477 422.5,147C 419.874,147.995 417.207,148.328 414.5,148C 411.709,145.016 412.042,142.516 415.5,140.5 Z"/></g>
<g><path style="opacity:1" fill="#403f5e" d="M 145.5,100.5 C 145.93,108.536 146.763,116.536 148,124.5C 153.323,141.412 161.99,143.079 174,129.5C 174.175,124.981 174.675,120.647 175.5,116.5C 175.667,128.171 175.5,139.838 175,151.5C 172.198,154.146 169.032,156.146 165.5,157.5C 158.214,156.471 150.88,155.638 143.5,155C 142.027,154.29 141.36,153.124 141.5,151.5C 141.666,143.826 141.5,136.159 141,128.5C 140.219,124.54 139.052,120.707 137.5,117C 139.533,111.103 142.2,105.603 145.5,100.5 Z"/></g>
<g><path style="opacity:1" fill="#f5bebd" d="M 93.5,139.5 C 98.0323,139.182 102.366,139.515 106.5,140.5C 104.086,145.795 105.753,148.129 111.5,147.5C 111.457,155.143 108.457,161.31 102.5,166C 98.5475,166.912 94.8809,166.245 91.5,164C 84.8057,158.777 81.139,151.944 80.5,143.5C 82.8333,143.5 85.1667,143.5 87.5,143.5C 87.9443,145.113 88.9443,146.28 90.5,147C 93.1667,147.667 95.8333,147.667 98.5,147C 99.5536,145.612 99.7203,144.112 99,142.5C 97.2811,141.131 95.4478,140.131 93.5,139.5 Z"/></g>
<g><path style="opacity:1" fill="#3d3756" d="M 141.5,151.5 C 141.36,153.124 142.027,154.29 143.5,155C 150.88,155.638 158.214,156.471 165.5,157.5C 151.093,167.985 137.927,179.985 126,193.5C 125.333,189.167 125.333,184.833 126,180.5C 134.356,172.451 139.522,162.784 141.5,151.5 Z"/></g>
<g><path style="opacity:1" fill="#3d3756" d="M 370.5,152.5 C 373.185,164.529 379.018,174.862 388,183.5C 388.908,187.489 388.241,191.155 386,194.5C 381.577,188.072 376.41,182.239 370.5,177C 362.601,170.257 354.601,163.757 346.5,157.5C 353.803,156.227 361.137,155.061 368.5,154C 369.416,153.722 370.082,153.222 370.5,152.5 Z"/></g>
<g><path style="opacity:1" fill="#444262" d="M 119.5,138.5 C 120.468,140.607 120.802,142.941 120.5,145.5C 122.781,145.077 124.448,145.744 125.5,147.5C 124.178,159.124 120.845,170.124 115.5,180.5C 114.542,181.962 113.376,183.295 112,184.5C 111.833,183.5 111.667,182.5 111.5,181.5C 113.055,173.275 115.222,165.275 118,157.5C 119.188,151.222 119.688,144.888 119.5,138.5 Z"/></g>
<g><path style="opacity:1" fill="#7479a5" d="M 75.5,156.5 C 82.8283,167.295 88.995,178.629 94,190.5C 86.9195,185.21 79.0862,181.377 70.5,179C 60.4885,174.826 53.8219,167.659 50.5,157.5C 59.0168,157.826 67.3501,157.493 75.5,156.5 Z"/></g>
<g><path style="opacity:1" fill="#767ca7" d="M 285.5,175.5 C 264.5,175.5 243.5,175.5 222.5,175.5C 226.95,163.883 234.95,155.716 246.5,151C 253.946,149.944 260.946,151.278 267.5,155C 275.141,160.469 281.141,167.302 285.5,175.5 Z"/></g>
<g><path style="opacity:1" fill="#747aa5" d="M 435.5,157.5 C 444.167,157.5 452.833,157.5 461.5,157.5C 458.929,166.241 453.595,172.741 445.5,177C 435.428,179.793 426.261,184.293 418,190.5C 422.759,178.984 428.593,167.984 435.5,157.5 Z"/></g>
<g><path style="opacity:1" fill="#f5c2c0" d="M 400.5,149.5 C 410.348,149.173 420.014,149.506 429.5,150.5C 426.655,160.869 419.988,166.036 409.5,166C 404.042,161.922 401.042,156.422 400.5,149.5 Z"/></g>
<g><path style="opacity:1" fill="#454363" d="M 392.5,138.5 C 392.334,143.179 392.501,147.845 393,152.5C 396.616,162.955 398.949,173.622 400,184.5C 398.624,183.295 397.458,181.962 396.5,180.5C 392.822,171.464 390.155,162.131 388.5,152.5C 388.5,150.833 388.5,149.167 388.5,147.5C 389.5,147.5 390.5,147.5 391.5,147.5C 391.19,144.287 391.523,141.287 392.5,138.5 Z"/></g>
<g><path style="opacity:1" fill="#3b3a58" d="M 102.5,173.5 C 103.5,173.5 104.5,173.5 105.5,173.5C 104.886,178.572 103.886,183.572 102.5,188.5C 100.357,184.076 98.0235,179.743 95.5,175.5C 97.9688,174.832 100.302,174.165 102.5,173.5 Z"/></g>
<g><path style="opacity:1" fill="#7172a2" d="M 222.5,175.5 C 243.5,175.5 264.5,175.5 285.5,175.5C 290.031,184.26 293.198,193.593 295,203.5C 295.667,215.167 295.667,226.833 295,238.5C 294.044,241.377 292.711,244.044 291,246.5C 286.147,250.263 281.48,254.263 277,258.5C 276.505,255.469 276.671,252.469 277.5,249.5C 283.681,232.945 284.847,215.945 281,198.5C 274.813,182.818 263.313,176.652 246.5,180C 237.402,184.996 231.235,192.496 228,202.5C 222.785,219.283 223.618,235.617 230.5,251.5C 232.464,256.894 234.297,262.228 236,267.5C 226.65,261.659 217.65,255.325 209,248.5C 201.925,239.532 199.925,229.532 203,218.5C 209.62,204.107 216.12,189.774 222.5,175.5 Z"/></g>
<g><path style="opacity:1" fill="#403c5c" d="M 406.5,173.5 C 409.813,174.045 413.146,174.545 416.5,175C 414.035,179.43 411.701,183.93 409.5,188.5C 408.579,183.445 407.579,178.445 406.5,173.5 Z"/></g>
<g><path style="opacity:1" fill="#535277" d="M 277.5,249.5 C 278.59,236.526 278.756,223.526 278,210.5C 276.234,200.799 271.734,192.632 264.5,186C 254.498,181.115 246.332,183.282 240,192.5C 230.958,202.961 227.125,215.128 228.5,229C 228.319,236.611 228.985,244.111 230.5,251.5C 223.618,235.617 222.785,219.283 228,202.5C 231.235,192.496 237.402,184.996 246.5,180C 263.313,176.652 274.813,182.818 281,198.5C 284.847,215.945 283.681,232.945 277.5,249.5 Z"/></g>
<g><path style="opacity:1" fill="#d27380" d="M 265.5,199.5 C 262.454,197.541 259.121,196.707 255.5,197C 248.695,199.724 243.028,203.891 238.5,209.5C 241.707,201.942 246.707,195.775 253.5,191C 259.234,191.214 263.234,194.048 265.5,199.5 Z"/></g>
<g><path style="opacity:1" fill="#7074a0" d="M 124.5,209.5 C 107.341,210.497 90.008,210.83 72.5,210.5C 71.4655,214.243 70.1322,217.91 68.5,221.5C 67.675,222.386 66.675,222.719 65.5,222.5C 65.7373,223.791 65.404,224.791 64.5,225.5C 65.2583,220.058 66.925,214.891 69.5,210C 69.2645,209.127 68.9312,208.293 68.5,207.5C 66.5,206.167 64.5,206.167 62.5,207.5C 59.7556,212.333 57.7556,217.333 56.5,222.5C 54.0504,222.298 51.717,222.631 49.5,223.5C 49.0863,214.418 49.5863,205.418 51,196.5C 54.5187,188.996 60.352,185.496 68.5,186C 74.7357,188.117 80.7357,190.784 86.5,194C 92.3793,199.385 98.3793,204.551 104.5,209.5C 105.442,209.392 106.275,209.059 107,208.5C 109.24,201.676 112.74,195.676 117.5,190.5C 118.163,197.509 120.496,203.842 124.5,209.5 Z"/></g>
<g><path style="opacity:1" fill="#6f6fa0" d="M 416.5,201.5 C 423.982,202.492 431.648,202.825 439.5,202.5C 438.809,209.265 440.143,215.598 443.5,221.5C 444.689,222.429 446.022,222.762 447.5,222.5C 449.073,227.085 448.739,231.419 446.5,235.5C 445.809,231.774 444.809,228.107 443.5,224.5C 421.004,223.833 398.67,223.167 376.5,222.5C 380.098,217.726 383.931,213.06 388,208.5C 390.682,203.136 393.349,197.802 396,192.5C 400.083,197.504 403.25,203.004 405.5,209C 406.833,209.667 408.167,209.667 409.5,209C 411.966,206.521 414.299,204.021 416.5,201.5 Z"/></g>
<g><path style="opacity:1" fill="#f0a4a2" d="M 265.5,199.5 C 268.527,203.237 270.193,207.57 270.5,212.5C 259.5,211.167 248.5,211.167 237.5,212.5C 237.557,211.391 237.89,210.391 238.5,209.5C 243.028,203.891 248.695,199.724 255.5,197C 259.121,196.707 262.454,197.541 265.5,199.5 Z"/></g>
<g><path style="opacity:1" fill="#6f6fa1" d="M 124.5,209.5 C 128.801,213.972 132.968,218.639 137,223.5C 138.009,225.025 138.509,226.692 138.5,228.5C 138.5,229.833 138.5,231.167 138.5,232.5C 113.833,232.5 89.1667,232.5 64.5,232.5C 64.5,230.167 64.5,227.833 64.5,225.5C 65.404,224.791 65.7373,223.791 65.5,222.5C 66.675,222.719 67.675,222.386 68.5,221.5C 70.1322,217.91 71.4655,214.243 72.5,210.5C 90.008,210.83 107.341,210.497 124.5,209.5 Z"/></g>
<g><path style="opacity:1" fill="#6a6e9a" d="M 376.5,222.5 C 398.67,223.167 421.004,223.833 443.5,224.5C 444.809,228.107 445.809,231.774 446.5,235.5C 443.074,244.72 436.407,248.553 426.5,247C 420.812,244.245 414.812,242.745 408.5,242.5C 399.527,243.776 390.527,244.276 381.5,244C 374.306,240.78 371.473,235.28 373,227.5C 373.697,225.416 374.864,223.749 376.5,222.5 Z"/></g>
<g><path style="opacity:1" fill="#f2b3b1" d="M 270.5,212.5 C 270.826,221.017 270.493,229.35 269.5,237.5C 269.5,236.5 269.5,235.5 269.5,234.5C 258.833,234.5 248.167,234.5 237.5,234.5C 237.5,235.5 237.5,236.5 237.5,237.5C 236.167,229.167 236.167,220.833 237.5,212.5C 248.5,211.167 259.5,211.167 270.5,212.5 Z"/></g>
<g><path style="opacity:1" fill="#2d2a3c" d="M 259.5,220.5 C 262.247,220.187 264.914,220.52 267.5,221.5C 268.428,222.768 268.595,224.101 268,225.5C 265.141,227.841 261.975,228.508 258.5,227.5C 257.154,224.9 257.488,222.567 259.5,220.5 Z"/></g>
<g><path style="opacity:1" fill="#2b293a" d="M 240.5,220.5 C 243.607,220.351 246.607,220.851 249.5,222C 250.435,228.482 247.768,230.148 241.5,227C 239.316,225.102 238.983,222.936 240.5,220.5 Z"/></g>
<g><path style="opacity:1" fill="#6a6e9a" d="M 138.5,228.5 C 140.23,236.027 137.23,241.194 129.5,244C 120.462,244.4 111.462,243.9 102.5,242.5C 96.917,242.528 91.5837,243.694 86.5,246C 74.5518,248.865 67.2185,244.365 64.5,232.5C 89.1667,232.5 113.833,232.5 138.5,232.5C 138.5,231.167 138.5,229.833 138.5,228.5 Z"/></g>
<g><path style="opacity:1" fill="#f6c3c1" d="M 269.5,237.5 C 265.014,251.882 256.347,255.382 243.5,248C 240.591,245.015 238.591,241.515 237.5,237.5C 237.5,236.5 237.5,235.5 237.5,234.5C 248.167,234.5 258.833,234.5 269.5,234.5C 269.5,235.5 269.5,236.5 269.5,237.5 Z"/></g>
<g><path style="opacity:1" fill="#565479" d="M 118.5,263.5 C 118.5,262.5 118.5,261.5 118.5,260.5C 107.223,262.428 96.223,265.095 85.5,268.5C 83.2362,269.219 80.9029,269.552 78.5,269.5C 78.7373,268.209 78.404,267.209 77.5,266.5C 77.4172,262.42 76.4172,258.587 74.5,255C 78.8333,254.667 83.1667,254.333 87.5,254C 92.3299,251.918 97.3299,250.418 102.5,249.5C 108.414,250.958 114.414,251.625 120.5,251.5C 120.149,255.684 119.482,259.684 118.5,263.5 Z"/></g>
<g><path style="opacity:1" fill="#6c6f9c" d="M 476.5,287.5 C 473.232,288.822 469.565,289.489 465.5,289.5C 461.435,289.489 457.768,288.822 454.5,287.5C 457.512,272.498 456.845,257.665 452.5,243C 459.395,229.36 457.229,217.527 446,207.5C 443.833,208.333 442.333,209.833 441.5,212C 443.896,215.295 445.896,218.795 447.5,222.5C 446.022,222.762 444.689,222.429 443.5,221.5C 440.143,215.598 438.809,209.265 439.5,202.5C 431.648,202.825 423.982,202.492 416.5,201.5C 424.467,193.344 434.133,188.011 445.5,185.5C 454.675,186.51 460.175,191.51 462,200.5C 461.04,230.501 465.874,259.501 476.5,287.5 Z"/></g>
<g><path style="opacity:1" fill="#504f72" d="M 438.5,305.5 C 433.36,304.512 428.026,304.179 422.5,304.5C 424.076,301.074 425.909,297.74 428,294.5C 428.497,292.19 428.663,289.857 428.5,287.5C 428.752,281.423 427.085,275.923 423.5,271C 413.546,268.842 403.546,267.009 393.5,265.5C 392.74,260.85 392.074,256.183 391.5,251.5C 396.914,251.48 402.247,250.813 407.5,249.5C 413.09,250.086 418.424,251.586 423.5,254C 427.821,254.499 432.154,254.666 436.5,254.5C 434.529,263.38 434.029,272.38 435,281.5C 436.891,287.613 439.058,293.613 441.5,299.5C 440.999,301.836 439.999,303.836 438.5,305.5 Z"/></g>
<g><path style="opacity:1" fill="#3d3857" d="M 268.5,253.5 C 269.124,253.917 269.457,254.584 269.5,255.5C 267.328,265.841 263.495,275.508 258,284.5C 251.334,275.172 245.167,265.505 239.5,255.5C 239.667,255.167 239.833,254.833 240,254.5C 249.858,262.601 259.358,262.268 268.5,253.5 Z"/></g>
<g><path style="opacity:1" fill="#69699a" d="M 247.5,288.5 C 228.5,289.833 209.5,289.833 190.5,288.5C 193.253,279.83 197.92,272.33 204.5,266C 212.679,263.042 220.012,264.375 226.5,270C 233.99,275.66 240.99,281.827 247.5,288.5 Z"/></g>
<g><path style="opacity:1" fill="#646995" d="M 393.5,265.5 C 403.546,267.009 413.546,268.842 423.5,271C 427.085,275.923 428.752,281.423 428.5,287.5C 413.5,287.5 398.5,287.5 383.5,287.5C 386.787,283.041 390.287,278.708 394,274.5C 394.301,271.493 394.135,268.493 393.5,265.5 Z"/></g>
<g><path style="opacity:1" fill="#656996" d="M 118.5,263.5 C 118.276,267.204 118.11,270.871 118,274.5C 124.85,281.836 130.683,289.836 135.5,298.5C 119.5,298.5 103.5,298.5 87.5,298.5C 83.0492,288.851 82.3826,278.851 85.5,268.5C 96.223,265.095 107.223,262.428 118.5,260.5C 118.5,261.5 118.5,262.5 118.5,263.5 Z"/></g>
<g><path style="opacity:1" fill="#636394" d="M 383.5,287.5 C 398.5,287.5 413.5,287.5 428.5,287.5C 428.663,289.857 428.497,292.19 428,294.5C 425.909,297.74 424.076,301.074 422.5,304.5C 404.976,316.695 385.976,320.361 365.5,315.5C 370.503,305.487 376.503,296.154 383.5,287.5 Z"/></g>
<g><path style="opacity:1" fill="#4c4a6e" d="M 77.5,266.5 C 78.404,267.209 78.7373,268.209 78.5,269.5C 80.9029,269.552 83.2362,269.219 85.5,268.5C 82.3826,278.851 83.0492,288.851 87.5,298.5C 90.9706,306.639 96.304,313.306 103.5,318.5C 96.7944,319.241 90.1277,320.241 83.5,321.5C 78.0308,314.738 73.6974,307.238 70.5,299C 75.2954,288.657 77.6288,277.823 77.5,266.5 Z"/></g>
<g><path style="opacity:1" fill="#666a97" d="M 56.5,222.5 C 55.9369,229.254 56.9369,235.754 59.5,242C 51.9107,268.544 55.5774,293.377 70.5,316.5C 55.1667,316.5 39.8333,316.5 24.5,316.5C 30.3199,300.854 36.1532,285.188 42,269.5C 46.3751,254.46 48.8751,239.127 49.5,223.5C 51.717,222.631 54.0504,222.298 56.5,222.5 Z"/></g>
<g><path style="opacity:1" fill="#656995" d="M 338.5,317.5 C 338.586,318.496 338.252,319.329 337.5,320C 323.23,327.861 311.064,325.361 301,312.5C 295.941,304.549 292.108,296.049 289.5,287C 288.551,286.383 287.718,286.549 287,287.5C 286.821,291.025 286.321,294.359 285.5,297.5C 285.519,292.016 283.019,290.35 278,292.5C 277.262,296.402 277.928,300.068 280,303.5C 283.796,307.449 286.963,311.783 289.5,316.5C 267.092,316.822 244.758,316.489 222.5,315.5C 225.838,310.651 229.004,305.651 232,300.5C 234.433,296.76 233.933,293.593 230.5,291C 229.5,290.333 228.5,290.333 227.5,291C 225.78,294.341 224.28,297.841 223,301.5C 221.595,302.731 220.429,304.064 219.5,305.5C 217.763,300.77 216.763,295.77 216.5,290.5C 214.876,290.36 213.71,291.027 213,292.5C 212.186,301.118 209.686,309.118 205.5,316.5C 197.5,316.5 189.5,316.5 181.5,316.5C 184.007,306.911 187.007,297.578 190.5,288.5C 209.5,289.833 228.5,289.833 247.5,288.5C 250.842,291.992 253.842,295.825 256.5,300C 258.167,300.667 259.833,300.667 261.5,300C 264.562,284.592 272.229,271.926 284.5,262C 288.421,261.041 291.588,262.208 294,265.5C 298.33,274.836 303.664,283.502 310,291.5C 319.396,300.401 328.896,309.068 338.5,317.5 Z"/></g>
<g><path style="opacity:1" fill="#646994" d="M 454.5,287.5 C 457.768,288.822 461.435,289.489 465.5,289.5C 469.565,289.489 473.232,288.822 476.5,287.5C 480.401,296.531 483.735,305.864 486.5,315.5C 471.578,316.483 456.578,316.816 441.5,316.5C 447.203,307.369 451.536,297.703 454.5,287.5 Z"/></g>
<g><path style="opacity:1" fill="#636394" d="M 87.5,298.5 C 103.5,298.5 119.5,298.5 135.5,298.5C 141.841,307.174 147.175,316.507 151.5,326.5C 149.393,327.468 147.059,327.802 144.5,327.5C 129.943,328.423 116.277,325.423 103.5,318.5C 96.304,313.306 90.9706,306.639 87.5,298.5 Z"/></g>
<g><path style="opacity:1" fill="#454464" d="M 422.5,304.5 C 428.026,304.179 433.36,304.512 438.5,305.5C 433.069,314.705 427.403,323.705 421.5,332.5C 400.339,332.035 379.006,332.035 357.5,332.5C 359.946,326.613 362.613,320.946 365.5,315.5C 385.976,320.361 404.976,316.695 422.5,304.5 Z"/></g>
<g><path style="opacity:1" fill="#626293" d="M 222.5,315.5 C 244.758,316.489 267.092,316.822 289.5,316.5C 293.562,324.58 291.228,330.414 282.5,334C 280.333,334.167 278.167,334.333 276,334.5C 268.989,333.494 261.989,332.494 255,331.5C 246.587,333.194 238.087,333.694 229.5,333C 221.423,329.358 219.089,323.524 222.5,315.5 Z"/></g>
<g><path style="opacity:1" fill="#636395" d="M 486.5,315.5 C 489.27,323.586 490.937,331.919 491.5,340.5C 482.348,341.494 473.015,341.827 463.5,341.5C 456.94,332.599 449.607,324.266 441.5,316.5C 456.578,316.816 471.578,316.483 486.5,315.5 Z"/></g>
<g><path style="opacity:1" fill="#636395" d="M 24.5,316.5 C 39.8333,316.5 55.1667,316.5 70.5,316.5C 62.3934,324.266 55.0601,332.599 48.5,341.5C 38.8333,341.5 29.1667,341.5 19.5,341.5C 19.5,340.5 19.5,339.5 19.5,338.5C 20.2269,330.928 21.8935,323.595 24.5,316.5 Z"/></g>
<g><path style="opacity:1" fill="#636394" d="M 181.5,316.5 C 189.5,316.5 197.5,316.5 205.5,316.5C 199.181,329.169 188.848,335.502 174.5,335.5C 176.638,329.085 178.971,322.751 181.5,316.5 Z"/></g>
<g><path style="opacity:1" fill="#515074" d="M 338.5,317.5 C 340.969,320.144 343.302,322.977 345.5,326C 342.24,325.518 338.907,325.518 335.5,326C 328.998,329.75 322.665,333.75 316.5,338C 315.299,338.903 314.465,340.069 314,341.5C 313.502,344.817 313.335,348.15 313.5,351.5C 311.735,352.461 309.735,352.795 307.5,352.5C 306.132,340.161 303.299,328.161 299,316.5C 294.669,310.01 290.169,303.676 285.5,297.5C 286.321,294.359 286.821,291.025 287,287.5C 287.718,286.549 288.551,286.383 289.5,287C 292.108,296.049 295.941,304.549 301,312.5C 311.064,325.361 323.23,327.861 337.5,320C 338.252,319.329 338.586,318.496 338.5,317.5 Z"/></g>
<g><path style="opacity:1" fill="#444363" d="M 103.5,318.5 C 116.277,325.423 129.943,328.423 144.5,327.5C 128.864,331.129 113.031,334.462 97,337.5C 95.6244,337.684 94.7911,338.351 94.5,339.5C 90.3346,333.842 86.6679,327.842 83.5,321.5C 90.1277,320.241 96.7944,319.241 103.5,318.5 Z"/></g>
<g><path style="opacity:1" fill="#433d63" d="M 151.5,326.5 C 152.931,327.78 153.598,329.447 153.5,331.5C 134.525,335.295 115.525,338.962 96.5,342.5C 95.5987,341.71 94.9321,340.71 94.5,339.5C 94.7911,338.351 95.6244,337.684 97,337.5C 113.031,334.462 128.864,331.129 144.5,327.5C 147.059,327.802 149.393,327.468 151.5,326.5 Z"/></g>
<g><path style="opacity:1" fill="#4f4c71" d="M 219.5,305.5 C 211.959,318.46 207.625,332.46 206.5,347.5C 205.85,347.804 205.183,348.137 204.5,348.5C 192.877,347.545 181.21,346.878 169.5,346.5C 170.928,342.65 172.594,338.983 174.5,335.5C 188.848,335.502 199.181,329.169 205.5,316.5C 209.686,309.118 212.186,301.118 213,292.5C 213.71,291.027 214.876,290.36 216.5,290.5C 216.763,295.77 217.763,300.77 219.5,305.5 Z"/></g>
<g><path style="opacity:1" fill="#433d63" d="M 421.5,332.5 C 420.89,334.434 419.89,336.101 418.5,337.5C 398.484,337.27 378.484,337.603 358.5,338.5C 358.167,336.5 357.833,334.5 357.5,332.5C 379.006,332.035 400.339,332.035 421.5,332.5 Z"/></g>
<g><path style="opacity:1" fill="#3e3d5c" d="M 153.5,331.5 C 156.56,336.504 158.56,342.004 159.5,348C 157.43,351.307 155.763,354.807 154.5,358.5C 135.59,360.222 117.59,357.055 100.5,349C 98.7682,347.028 97.4348,344.861 96.5,342.5C 115.525,338.962 134.525,335.295 153.5,331.5 Z"/></g>
<g><path style="opacity:1" fill="#f4b9b7" d="M 346.5,369.5 C 344.457,368.421 343.124,366.754 342.5,364.5C 343.315,363.163 344.482,362.163 346,361.5C 347.141,358.143 345.975,356.143 342.5,355.5C 340.506,356.489 338.506,357.489 336.5,358.5C 335.559,356.95 334.893,355.284 334.5,353.5C 337.25,351.992 338.084,349.659 337,346.5C 334.541,345.351 332.041,345.351 329.5,346.5C 327.413,345.415 326.08,343.749 325.5,341.5C 330.102,338.524 334.769,335.524 339.5,332.5C 342.385,336.895 345.885,340.895 350,344.5C 351.275,346.717 352.275,349.051 353,351.5C 355.623,353.698 357.789,356.198 359.5,359C 355.932,363.397 351.598,366.897 346.5,369.5 Z"/></g>
<g><path style="opacity:1" fill="#f5bebc" d="M 428.5,355.5 C 425.518,355.037 422.518,354.704 419.5,354.5C 419.5,353.5 419.5,352.5 419.5,351.5C 425.072,342.027 430.905,332.693 437,323.5C 440.682,327.015 444.182,330.682 447.5,334.5C 440.925,341.343 434.592,348.343 428.5,355.5 Z"/></g>
<g><path style="opacity:1" fill="#f4c0be" d="M 90.5,348.5 C 86.8333,349.167 83.1667,349.833 79.5,350.5C 74.5162,345.241 69.5162,339.907 64.5,334.5C 67.8176,330.682 71.3176,327.015 75,323.5C 80.6788,331.526 85.8454,339.859 90.5,348.5 Z"/></g>
<g><path style="opacity:1" fill="#3d3957" d="M 52.5,406.5 C 46.1667,406.5 39.8333,406.5 33.5,406.5C 33.7678,408.099 33.4345,409.432 32.5,410.5C 34.9396,384.673 43.7729,361.34 59,340.5C 61,342.5 63,344.5 65,346.5C 65.2948,367.444 61.1281,387.444 52.5,406.5 Z"/></g>
<g><path style="opacity:1" fill="#4b4a6d" d="M 274.5,360.5 C 273.691,359.531 272.691,358.698 271.5,358C 260.981,355.912 250.481,353.745 240,351.5C 238.97,351.836 238.47,352.503 238.5,353.5C 237.221,349.58 235.888,345.58 234.5,341.5C 238.182,341.665 241.848,341.499 245.5,341C 248.6,339.245 251.933,338.411 255.5,338.5C 262.98,340.785 270.647,342.285 278.5,343C 275.234,348.373 273.901,354.207 274.5,360.5 Z"/></g>
<g><path style="opacity:1" fill="#3e3d5c" d="M 418.5,337.5 C 416.439,343.387 412.772,347.887 407.5,351C 394.329,356.144 380.663,358.644 366.5,358.5C 365.926,353.401 363.426,349.401 359,346.5C 358.503,343.854 358.336,341.187 358.5,338.5C 378.484,337.603 398.484,337.27 418.5,337.5 Z"/></g>
<g><path style="opacity:1" fill="#3d3756" d="M 475.5,389.5 C 471.749,388.867 467.915,388.533 464,388.5C 460.098,388.512 456.598,389.179 453.5,390.5C 448.642,376.339 446.475,361.672 447,346.5C 449.018,344.65 450.851,342.65 452.5,340.5C 464.179,354.861 471.845,371.195 475.5,389.5 Z"/></g>
<g><path style="opacity:1" fill="#d0737f" d="M 325.5,341.5 C 326.08,343.749 327.413,345.415 329.5,346.5C 327.492,348.268 325.326,349.934 323,351.5C 319.138,346.949 319.971,343.616 325.5,341.5 Z"/></g>
<g><path style="opacity:1" fill="#4a4a69" d="M 169.5,346.5 C 181.21,346.878 192.877,347.545 204.5,348.5C 205.183,348.137 205.85,347.804 206.5,347.5C 206.058,351.154 205.724,354.821 205.5,358.5C 204.566,359.568 204.232,360.901 204.5,362.5C 198.251,362.386 192.251,362.386 186.5,362.5C 180.851,358.525 175.185,354.525 169.5,350.5C 168.374,349.192 168.374,347.858 169.5,346.5 Z"/></g>
<g><path style="opacity:1" fill="#f4b3b1" d="M 90.5,348.5 C 92.9569,351.751 94.6236,355.418 95.5,359.5C 95.5,365.5 95.5,371.5 95.5,377.5C 92.1194,377.46 88.7861,377.793 85.5,378.5C 85.5,377.5 85.5,376.5 85.5,375.5C 88.4055,365.874 86.4055,357.54 79.5,350.5C 83.1667,349.833 86.8333,349.167 90.5,348.5 Z"/></g>
<g><path style="opacity:1" fill="#5d618c" d="M 19.5,338.5 C 19.5,339.5 19.5,340.5 19.5,341.5C 29.1667,341.5 38.8333,341.5 48.5,341.5C 32.586,366.081 24.4194,393.081 24,422.5C 15.9409,394.726 14.4409,366.726 19.5,338.5 Z"/></g>
<g><path style="opacity:1" fill="#5c608b" d="M 491.5,340.5 C 496.107,367.57 494.94,394.57 488,421.5C 486.631,392.675 478.464,366.009 463.5,341.5C 473.015,341.827 482.348,341.494 491.5,340.5 Z"/></g>
<g><path style="opacity:1" fill="#5c638e" d="M 274.5,360.5 C 277.167,364.167 279.833,367.833 282.5,371.5C 265.167,371.5 247.833,371.5 230.5,371.5C 232.739,368.047 235.239,364.714 238,361.5C 238.497,358.854 238.664,356.187 238.5,353.5C 238.47,352.503 238.97,351.836 240,351.5C 250.481,353.745 260.981,355.912 271.5,358C 272.691,358.698 273.691,359.531 274.5,360.5 Z"/></g>
<g><path style="opacity:1" fill="#d0727f" d="M 334.5,353.5 C 334.893,355.284 335.559,356.95 336.5,358.5C 334.519,360.303 332.352,361.97 330,363.5C 328.341,362.183 327.174,360.517 326.5,358.5C 328.858,356.322 331.525,354.655 334.5,353.5 Z"/></g>
<g><path style="opacity:1" fill="#f2b9b8" d="M 180.5,367.5 C 180.608,369.514 179.942,371.18 178.5,372.5C 176.05,371.223 173.717,369.723 171.5,368C 167.32,366.88 165.486,368.38 166,372.5C 168.479,374.966 170.979,377.299 173.5,379.5C 172.5,380.833 171.5,382.167 170.5,383.5C 168.195,382.011 165.862,380.511 163.5,379C 158.917,378.066 157.417,379.9 159,384.5C 161.326,386.066 163.492,387.732 165.5,389.5C 164.876,391.754 163.543,393.421 161.5,394.5C 155.953,391.467 150.786,387.8 146,383.5C 145.333,382.5 145.333,381.5 146,380.5C 148,378.5 150,376.5 152,374.5C 155.346,368.908 158.846,363.408 162.5,358C 164.635,357.365 166.635,357.699 168.5,359C 172.354,362.089 176.354,364.922 180.5,367.5 Z"/></g>
<g><path style="opacity:1" fill="#d1727f" d="M 342.5,364.5 C 343.124,366.754 344.457,368.421 346.5,369.5C 344.439,371.711 341.939,373.377 339,374.5C 335.928,373.553 334.928,371.553 336,368.5C 338.052,366.942 340.219,365.608 342.5,364.5 Z"/></g>
<g><path style="opacity:1" fill="#ce737e" d="M 180.5,367.5 C 183.917,369.481 184.251,371.815 181.5,374.5C 180.261,374.058 179.261,373.391 178.5,372.5C 179.942,371.18 180.608,369.514 180.5,367.5 Z"/></g>
<g><path style="opacity:1" fill="#434162" d="M 205.5,358.5 C 205.23,370.191 205.563,381.858 206.5,393.5C 204.567,400.037 202.067,406.37 199,412.5C 195.081,408.919 192.414,404.586 191,399.5C 190.167,393.833 189.333,388.166 188.5,382.5C 189.194,378.77 190.194,375.103 191.5,371.5C 191.103,367.698 189.436,364.698 186.5,362.5C 192.251,362.386 198.251,362.386 204.5,362.5C 204.232,360.901 204.566,359.568 205.5,358.5 Z"/></g>
<g><path style="opacity:1" fill="#5c5c8e" d="M 230.5,371.5 C 247.833,371.5 265.167,371.5 282.5,371.5C 286.237,375.302 289.237,379.635 291.5,384.5C 268.167,385.833 244.833,385.833 221.5,384.5C 223.773,379.606 226.773,375.273 230.5,371.5 Z"/></g>
<g><path style="opacity:1" fill="#f0a7a3" d="M 419.5,351.5 C 419.5,352.5 419.5,353.5 419.5,354.5C 422.518,354.704 425.518,355.037 428.5,355.5C 426.114,358.929 425.114,362.762 425.5,367C 426.477,374.159 426.977,381.326 427,388.5C 422.837,390.274 419.17,389.607 416,386.5C 415.333,377.5 415.333,368.5 416,359.5C 416.705,356.524 417.871,353.858 419.5,351.5 Z"/></g>
<g><path style="opacity:1" fill="#464465" d="M 313.5,351.5 C 317.381,355.927 320.047,361.094 321.5,367C 319.539,379.222 315.039,390.388 308,400.5C 307.305,398.278 306.472,396.111 305.5,394C 308.181,380.246 308.848,366.413 307.5,352.5C 309.735,352.795 311.735,352.461 313.5,351.5 Z"/></g>
<g><path style="opacity:1" fill="#d47480" d="M 173.5,379.5 C 178.289,381.2 178.622,383.533 174.5,386.5C 173.148,385.476 171.815,384.476 170.5,383.5C 171.5,382.167 172.5,380.833 173.5,379.5 Z"/></g>
<g><path style="opacity:1" fill="#eca3a0" d="M 95.5,359.5 C 96.1657,363.653 96.4991,367.987 96.5,372.5C 96.6141,377.609 96.1141,382.609 95,387.5C 91.7862,389.483 88.4529,389.816 85,388.5C 84.1864,383.98 84.353,379.646 85.5,375.5C 85.5,376.5 85.5,377.5 85.5,378.5C 88.7861,377.793 92.1194,377.46 95.5,377.5C 95.5,371.5 95.5,365.5 95.5,359.5 Z"/></g>
<g><path style="opacity:1" fill="#d47480" d="M 165.5,389.5 C 170.601,391.992 170.768,394.658 166,397.5C 164.019,397.101 162.519,396.101 161.5,394.5C 163.543,393.421 164.876,391.754 165.5,389.5 Z"/></g>
<g><path style="opacity:1" fill="#3d3d5c" d="M 183.5,421.5 C 182.549,420.081 182.216,418.415 182.5,416.5C 170.512,415.834 158.512,415.501 146.5,415.5C 146.5,408.5 146.5,401.5 146.5,394.5C 151.311,397.409 155.978,400.576 160.5,404C 164.136,405.899 167.803,405.899 171.5,404C 174.802,399.875 177.969,395.708 181,391.5C 183.161,401.367 183.994,411.367 183.5,421.5 Z"/></g>
<g><path style="opacity:1" fill="#585c88" d="M 221.5,384.5 C 244.833,385.833 268.167,385.833 291.5,384.5C 297.76,392.023 300.927,400.69 301,410.5C 297.964,413.704 294.797,416.704 291.5,419.5C 263.167,418.167 234.833,418.167 206.5,419.5C 205.903,419.265 205.57,418.765 205.5,418C 209.397,406.043 214.731,394.876 221.5,384.5 Z"/></g>
<g><path style="opacity:1" fill="#403f5f" d="M 356.5,423.5 C 345.152,423.555 333.819,423.222 322.5,422.5C 322.5,421.167 322.5,419.833 322.5,418.5C 322.334,414.486 322.501,410.486 323,406.5C 325.648,396.302 327.648,385.968 329,375.5C 333.048,382.446 338.548,383.946 345.5,380C 350,376.833 354.5,373.667 359,370.5C 359.584,388.245 358.75,405.912 356.5,423.5 Z"/></g>
<g><path style="opacity:1" fill="#454264" d="M 52.5,406.5 C 47.2274,419.713 40.3941,432.046 32,443.5C 31.2867,432.478 31.4534,421.478 32.5,410.5C 33.4345,409.432 33.7678,408.099 33.5,406.5C 39.8333,406.5 46.1667,406.5 52.5,406.5 Z"/></g>
<g><path style="opacity:1" fill="#424161" d="M 475.5,389.5 C 480.039,407.22 481.539,425.22 480,443.5C 467.992,427.485 459.159,409.818 453.5,390.5C 456.598,389.179 460.098,388.512 464,388.5C 467.915,388.533 471.749,388.867 475.5,389.5 Z"/></g>
<g><path style="opacity:1" fill="#3d3756" d="M 146.5,394.5 C 146.5,401.5 146.5,408.5 146.5,415.5C 158.512,415.501 170.512,415.834 182.5,416.5C 182.216,418.415 182.549,420.081 183.5,421.5C 183.568,441.398 178.568,459.898 168.5,477C 164.471,478.913 160.471,478.913 156.5,477C 150.311,467.094 146.811,456.26 146,444.5C 145.175,427.092 145.341,410.425 146.5,394.5 Z"/></g>
<g><path style="opacity:1" fill="#565686" d="M 291.5,419.5 C 267.675,440.988 242.009,443.155 214.5,426C 211.645,423.969 208.978,421.803 206.5,419.5C 234.833,418.167 263.167,418.167 291.5,419.5 Z"/></g>
<g><path style="opacity:1" fill="#3d3756" d="M 322.5,418.5 C 322.5,419.833 322.5,421.167 322.5,422.5C 333.819,423.222 345.152,423.555 356.5,423.5C 354.347,441.11 349.847,458.11 343,474.5C 339.333,477.167 335.667,477.167 332,474.5C 323.58,456.587 320.414,437.921 322.5,418.5 Z"/></g>
<g><path style="opacity:1" fill="#262437" d="M 272.5,458.5 C 279.676,457.985 281.342,460.818 277.5,467C 270.416,467.475 268.749,464.642 272.5,458.5 Z"/></g>
</svg>
