<?xml version="1.0" encoding="UTF-8"?>
<!DOCTYPE svg PUBLIC "-//W3C//DTD SVG 1.1//EN" "http://www.w3.org/Graphics/SVG/1.1/DTD/svg11.dtd">
<svg xmlns="http://www.w3.org/2000/svg" version="1.1" width="512px" height="512px" style="shape-rendering:geometricPrecision; text-rendering:geometricPrecision; image-rendering:optimizeQuality; fill-rule:evenodd; clip-rule:evenodd" xmlns:xlink="http://www.w3.org/1999/xlink">
<g><path style="opacity:1" fill="#28283b" d="M 231.5,10.5 C 310.01,6.34438 371.843,36.011 417,99.5C 421.675,106.847 425.842,114.514 429.5,122.5C 440.736,126.585 447.57,134.585 450,146.5C 455.773,168.89 457.44,191.557 455,214.5C 446.888,252.733 428.888,285.399 401,312.5C 399.414,314.67 398.08,317.004 397,319.5C 395.306,334.666 392.639,349.666 389,364.5C 382.203,387.287 369.203,405.62 350,419.5C 348.467,429.105 344.801,437.772 339,445.5C 334.77,458.627 329.437,471.294 323,483.5C 304.661,497.961 283.828,503.461 260.5,500C 245.163,497.777 230.83,492.777 217.5,485C 216.196,484.196 215.529,483.029 215.5,481.5C 220.369,470.561 224.035,459.228 226.5,447.5C 223.11,443.442 220.11,439.109 217.5,434.5C 216.998,433.479 216.332,433.312 215.5,434C 202.589,447.383 188.256,449.05 172.5,439C 167.667,435.5 163.5,431.333 160,426.5C 154.004,410.516 144.838,396.682 132.5,385C 113.788,379.313 104.955,366.813 106,347.5C 107.084,346.335 107.917,345.002 108.5,343.5C 59.4457,288.613 43.9457,225.279 62,153.5C 82.9667,85.1996 127.467,40.0329 195.5,18C 207.461,14.6422 219.461,12.1422 231.5,10.5 Z"/></g>
<g><path style="opacity:1" fill="#c4eef6" d="M 291.5,31.5 C 271.887,34.5399 252.22,37.2066 232.5,39.5C 217.591,34.5133 202.257,31.3466 186.5,30C 222.522,16.9591 259.189,14.9591 296.5,24C 294.611,26.3818 292.945,28.8818 291.5,31.5 Z"/></g>
<g><path style="opacity:1" fill="#c4ebf8" d="M 291.5,31.5 C 287.376,39.0813 284.376,47.0813 282.5,55.5C 276.783,55.7931 271.116,56.4598 265.5,57.5C 254.914,50.7074 243.914,44.7074 232.5,39.5C 252.22,37.2066 271.887,34.5399 291.5,31.5 Z"/></g>
<g><path style="opacity:1" fill="#c1ebf8" d="M 346.5,44.5 C 345.848,45.7251 344.681,46.3917 343,46.5C 326.176,48.9749 309.342,51.3083 292.5,53.5C 292.5,52.1667 292.5,50.8333 292.5,49.5C 294.567,40.346 298.9,32.6793 305.5,26.5C 320.073,30.6238 333.739,36.6238 346.5,44.5 Z"/></g>
<g><path style="opacity:1" fill="#c5eff6" d="M 211.5,41.5 C 211.389,42.1174 211.056,42.6174 210.5,43C 191.23,45.9709 172.23,48.4709 153.5,50.5C 156.729,44.7733 161.396,40.6066 167.5,38C 182.377,36.7304 197.044,37.897 211.5,41.5 Z"/></g>
<g><path style="opacity:1" fill="#badff2" d="M 346.5,44.5 C 352.221,47.3842 357.555,50.8842 362.5,55C 350.806,53.014 338.973,51.8474 327,51.5C 315.11,52.339 303.276,53.6724 291.5,55.5C 291.205,53.2646 291.539,51.2646 292.5,49.5C 292.5,50.8333 292.5,52.1667 292.5,53.5C 309.342,51.3083 326.176,48.9749 343,46.5C 344.681,46.3917 345.848,45.7251 346.5,44.5 Z"/></g>
<g><path style="opacity:1" fill="#c2ecf9" d="M 211.5,41.5 C 226.056,45.0188 239.723,50.6855 252.5,58.5C 217.349,64.0941 182.016,69.4275 146.5,74.5C 145.287,74.2528 144.62,73.5862 144.5,72.5C 145.564,64.2917 148.564,56.9584 153.5,50.5C 172.23,48.4709 191.23,45.9709 210.5,43C 211.056,42.6174 211.389,42.1174 211.5,41.5 Z"/></g>
<g><path style="opacity:1" fill="#bee4f7" d="M 252.5,58.5 C 257.008,61.2533 261.341,64.2533 265.5,67.5C 263.735,68.4614 261.735,68.7947 259.5,68.5C 218.723,67.2782 180.389,76.2782 144.5,95.5C 143.18,87.6765 143.18,80.0098 144.5,72.5C 144.62,73.5862 145.287,74.2528 146.5,74.5C 182.016,69.4275 217.349,64.0941 252.5,58.5 Z"/></g>
<g><path style="opacity:1" fill="#b8e2f5" d="M 282.5,55.5 C 282.336,58.1873 282.503,60.854 283,63.5C 284.231,64.1078 285.564,64.4411 287,64.5C 305.968,60.3612 325.135,58.8612 344.5,60C 351.317,60.9948 357.983,62.4948 364.5,64.5C 342.152,69.0265 319.486,72.3598 296.5,74.5C 291.02,73.7851 285.687,72.4518 280.5,70.5C 275.75,65.7414 270.75,61.4081 265.5,57.5C 271.116,56.4598 276.783,55.7931 282.5,55.5 Z"/></g>
<g><path style="opacity:1" fill="#6b7b8e" d="M 265.5,67.5 C 266.289,67.7828 266.956,68.2828 267.5,69C 264.633,69.8007 261.966,69.6341 259.5,68.5C 261.735,68.7947 263.735,68.4614 265.5,67.5 Z"/></g>
<g><path style="opacity:1" fill="#b6dff8" d="M 364.5,64.5 C 368.922,65.6965 373.256,67.1965 377.5,69C 378.423,71.0408 378.756,73.2075 378.5,75.5C 378.5,80.1667 378.5,84.8333 378.5,89.5C 366.18,91.2599 353.847,92.9266 341.5,94.5C 327.307,85.9013 312.307,79.2346 296.5,74.5C 319.486,72.3598 342.152,69.0265 364.5,64.5 Z"/></g>
<g><path style="opacity:1" fill="#bce5f6" d="M 136.5,97.5 C 127.856,98.9254 119.189,100.259 110.5,101.5C 110.033,93.6565 110.866,85.9898 113,78.5C 122.077,69.4189 131.743,61.0855 142,53.5C 136.172,67.5034 134.339,82.1701 136.5,97.5 Z"/></g>
<g><path style="opacity:1" fill="#b6e1f4" d="M 271.5,77.5 C 271.082,78.2216 270.416,78.7216 269.5,79C 237.839,83.5468 206.173,88.0468 174.5,92.5C 173.274,92.4805 172.274,92.1471 171.5,91.5C 203.641,78.4058 236.974,73.7391 271.5,77.5 Z"/></g>
<g><path style="opacity:1" fill="#7397e2" d="M 101.5,92.5 C 102.167,98.5 102.833,104.5 103.5,110.5C 104.44,114.463 104.607,118.463 104,122.5C 92.3333,132.833 81.3333,143.833 71,155.5C 73.3549,142.097 78.0215,129.431 85,117.5C 89.9367,108.742 95.4367,100.409 101.5,92.5 Z"/></g>
<g><path style="opacity:1" fill="#acd5f5" d="M 410.5,106.5 C 402.384,108.376 394.051,109.709 385.5,110.5C 385.5,109.5 385.5,108.5 385.5,107.5C 386.146,96.8467 386.646,86.1801 387,75.5C 396.226,84.8773 404.059,95.2106 410.5,106.5 Z"/></g>
<g><path style="opacity:1" fill="#b5def7" d="M 271.5,77.5 C 273.355,77.272 274.188,77.9387 274,79.5C 267.644,88.2242 261.811,97.2242 256.5,106.5C 250.953,107.363 245.453,108.363 240,109.5C 239.601,109.272 239.435,108.938 239.5,108.5C 246.021,103.641 252.521,98.6412 259,93.5C 260.072,90.4473 259.072,88.4473 256,87.5C 240.53,97.1593 226.03,108.159 212.5,120.5C 192.264,108.157 175.431,111.824 162,131.5C 155.166,123.339 150,114.172 146.5,104C 154.064,98.4151 162.398,94.2485 171.5,91.5C 172.274,92.1471 173.274,92.4805 174.5,92.5C 206.173,88.0468 237.839,83.5468 269.5,79C 270.416,78.7216 271.082,78.2216 271.5,77.5 Z"/></g>
<g><path style="opacity:1" fill="#455177" d="M 103.5,110.5 C 102.833,104.5 102.167,98.5 101.5,92.5C 101.783,91.7109 102.283,91.0442 103,90.5C 103.5,97.1583 103.666,103.825 103.5,110.5 Z"/></g>
<g><path style="opacity:1" fill="#acd4f4" d="M 378.5,75.5 C 381.03,91.2387 379.197,106.572 373,121.5C 363.191,111.512 352.691,102.512 341.5,94.5C 353.847,92.9266 366.18,91.2599 378.5,89.5C 378.5,84.8333 378.5,80.1667 378.5,75.5 Z"/></g>
<g><path style="opacity:1" fill="#b5dbf4" d="M 136.5,97.5 C 136.719,98.675 136.386,99.675 135.5,100.5C 127.563,105.106 119.897,110.106 112.5,115.5C 111.749,114.624 111.249,113.624 111,112.5C 110.501,108.848 110.335,105.182 110.5,101.5C 119.189,100.259 127.856,98.9254 136.5,97.5 Z"/></g>
<g><path style="opacity:1" fill="#afd8f7" d="M 353.5,114.5 C 343.05,116.709 332.383,118.376 321.5,119.5C 317.704,119.782 314.037,119.782 310.5,119.5C 304.558,105.771 297.224,92.9376 288.5,81C 313.249,86.3733 334.916,97.54 353.5,114.5 Z"/></g>
<g><path style="opacity:1" fill="#afd9f8" d="M 302.5,121.5 C 286.645,124.434 270.645,127.101 254.5,129.5C 261.103,112.956 269.77,97.6224 280.5,83.5C 289.862,94.8769 297.195,107.544 302.5,121.5 Z"/></g>
<g><path style="opacity:1" fill="#aed7f7" d="M 256.5,106.5 C 252.481,114.539 248.481,122.539 244.5,130.5C 236.552,131.873 228.552,132.873 220.5,133.5C 219.789,131.201 218.789,129.035 217.5,127C 224.393,120.27 231.727,114.104 239.5,108.5C 239.435,108.938 239.601,109.272 240,109.5C 245.453,108.363 250.953,107.363 256.5,106.5 Z"/></g>
<g><path style="opacity:1" fill="#a9cef4" d="M 353.5,114.5 C 358.908,118.4 363.908,122.9 368.5,128C 361.567,129.506 354.567,129.839 347.5,129C 338.543,126.296 329.876,123.129 321.5,119.5C 332.383,118.376 343.05,116.709 353.5,114.5 Z"/></g>
<g><path style="opacity:1" fill="#a7cff5" d="M 410.5,106.5 C 415.245,112.981 419.245,119.981 422.5,127.5C 422.135,128.902 421.301,129.902 420,130.5C 407.487,124.118 394.321,121.784 380.5,123.5C 382.499,118.142 384.166,112.809 385.5,107.5C 385.5,108.5 385.5,109.5 385.5,110.5C 394.051,109.709 402.384,108.376 410.5,106.5 Z"/></g>
<g><path style="opacity:1" fill="#6d92e1" d="M 188.5,120.5 C 195.096,120.421 201.096,122.255 206.5,126C 197.987,134.013 189.654,142.179 181.5,150.5C 176.009,146.842 171.342,142.342 167.5,137C 172.622,129.038 179.622,123.538 188.5,120.5 Z"/></g>
<g><path style="opacity:1" fill="#afd9f8" d="M 155.5,143.5 C 145.86,144.747 136.193,145.747 126.5,146.5C 121.097,140.201 117.097,133.035 114.5,125C 121.741,118.278 129.741,112.445 138.5,107.5C 141.89,113.276 145.057,119.276 148,125.5C 150.615,129.783 153.615,133.783 157,137.5C 157.405,139.775 156.905,141.775 155.5,143.5 Z"/></g>
<g><path style="opacity:1" fill="#6f94e5" d="M 126.5,159.5 C 108.486,162.073 90.4859,164.74 72.5,167.5C 73.412,165.405 74.5787,163.405 76,161.5C 85.2319,150.008 95.5652,139.674 107,130.5C 112.515,140.845 119.015,150.512 126.5,159.5 Z"/></g>
<g><path style="opacity:1" fill="#688de4" d="M 419.5,150.5 C 411.499,151.5 403.499,152.5 395.5,153.5C 391.566,146.478 387.233,139.644 382.5,133C 396.551,129.114 409.385,131.614 421,140.5C 421.667,143.167 421.667,145.833 421,148.5C 420.722,149.416 420.222,150.082 419.5,150.5 Z"/></g>
<g><path style="opacity:1" fill="#efa5a1" d="M 441.5,232.5 C 438.411,218.128 434.411,204.128 429.5,190.5C 432.222,183.08 433.055,175.413 432,167.5C 429.102,164.37 427.268,160.703 426.5,156.5C 427.736,153.759 428.736,150.926 429.5,148C 428.682,142.529 428.348,137.029 428.5,131.5C 430.582,131.472 432.416,132.139 434,133.5C 436.583,136.997 438.916,140.664 441,144.5C 448.463,171.55 449.463,198.884 444,226.5C 443.155,228.611 442.322,230.611 441.5,232.5 Z"/></g>
<g><path style="opacity:1" fill="#a9d2f8" d="M 302.5,121.5 C 303.776,122.386 303.776,123.386 302.5,124.5C 296.036,129.293 292.036,135.626 290.5,143.5C 289.596,144.209 289.263,145.209 289.5,146.5C 275.466,148.219 261.466,150.219 247.5,152.5C 246.584,152.457 245.917,152.124 245.5,151.5C 247.735,143.781 250.735,136.447 254.5,129.5C 270.645,127.101 286.645,124.434 302.5,121.5 Z"/></g>
<g><path style="opacity:1" fill="#6a8ee5" d="M 349.5,136.5 C 353.833,137.167 358.167,137.833 362.5,138.5C 352.179,150.711 339.346,158.378 324,161.5C 320.921,150.103 317.754,138.769 314.5,127.5C 322.387,127.6 329.72,129.766 336.5,134C 340.754,135.314 345.087,136.147 349.5,136.5 Z"/></g>
<g><path style="opacity:1" fill="#506199" d="M 349.5,136.5 C 354.511,136.334 359.511,136.501 364.5,137C 363.956,137.717 363.289,138.217 362.5,138.5C 358.167,137.833 353.833,137.167 349.5,136.5 Z"/></g>
<g><path style="opacity:1" fill="#688ce3" d="M 387.5,155.5 C 374.808,156.98 362.141,158.647 349.5,160.5C 359.105,153.896 367.439,145.896 374.5,136.5C 379.572,142.304 383.905,148.638 387.5,155.5 Z"/></g>
<g><path style="opacity:1" fill="#a7d0f7" d="M 244.5,130.5 C 239.044,143.869 234.377,157.535 230.5,171.5C 226.803,170.992 223.136,170.326 219.5,169.5C 222.807,157.536 223.14,145.536 220.5,133.5C 228.552,132.873 236.552,131.873 244.5,130.5 Z"/></g>
<g><path style="opacity:1" fill="#688be1" d="M 305.5,131.5 C 306.497,131.47 307.164,131.97 307.5,133C 311.209,142.959 314.209,153.126 316.5,163.5C 315.811,165.353 314.478,166.519 312.5,167C 307.588,168.416 302.588,169.249 297.5,169.5C 298.411,160.847 298.578,152.181 298,143.5C 299.247,138.663 301.747,134.663 305.5,131.5 Z"/></g>
<g><path style="opacity:1" fill="#6d8ee3" d="M 210.5,132.5 C 212.41,133.975 213.576,135.975 214,138.5C 214.731,147.908 214.231,157.241 212.5,166.5C 203.615,164.484 195.615,160.651 188.5,155C 195.366,146.969 202.699,139.469 210.5,132.5 Z"/></g>
<g><path style="opacity:1" fill="#6b8add" d="M 163.5,145.5 C 167.665,149.497 171.998,153.33 176.5,157C 173.375,160.113 170.375,163.28 167.5,166.5C 163.139,160.06 161.806,153.06 163.5,145.5 Z"/></g>
<g><path style="opacity:1" fill="#a6cef6" d="M 155.5,143.5 C 154.218,154.271 156.552,164.105 162.5,173C 157.789,179.589 152.955,186.089 148,192.5C 147.474,180.923 144.141,170.257 138,160.5C 133.954,155.96 130.121,151.293 126.5,146.5C 136.193,145.747 145.86,144.747 155.5,143.5 Z"/></g>
<g><path style="opacity:1" fill="#a2cbf7" d="M 290.5,143.5 C 290.666,151.507 290.5,159.507 290,167.5C 289.289,170.879 287.122,172.379 283.5,172C 268.874,173.56 254.208,173.894 239.5,173C 239.745,165.421 241.745,158.254 245.5,151.5C 245.917,152.124 246.584,152.457 247.5,152.5C 261.466,150.219 275.466,148.219 289.5,146.5C 289.263,145.209 289.596,144.209 290.5,143.5 Z"/></g>
<g><path style="opacity:1" fill="#698ce4" d="M 181.5,161.5 C 190.103,165.466 198.77,169.466 207.5,173.5C 208.583,174.365 208.749,175.365 208,176.5C 201.964,187.268 192.798,191.768 180.5,190C 174.965,186.608 171.965,181.608 171.5,175C 174.675,170.333 178.009,165.833 181.5,161.5 Z"/></g>
<g><path style="opacity:1" fill="#6486e4" d="M 419.5,150.5 C 418.532,153.445 418.366,156.445 419,159.5C 421.08,164.483 423.246,169.317 425.5,174C 422.634,187.264 417.801,199.764 411,211.5C 409.564,191.144 404.397,171.81 395.5,153.5C 403.499,152.5 411.499,151.5 419.5,150.5 Z"/></g>
<g><path style="opacity:1" fill="#6a8ee6" d="M 126.5,159.5 C 138.556,172.667 142.89,188 139.5,205.5C 139.5,201.167 139.5,196.833 139.5,192.5C 120.158,195.501 100.825,198.501 81.5,201.5C 76.9005,190.684 73.9005,179.35 72.5,167.5C 90.4859,164.74 108.486,162.073 126.5,159.5 Z"/></g>
<g><path style="opacity:1" fill="#6588e6" d="M 387.5,155.5 C 392.877,165.63 396.877,176.297 399.5,187.5C 376.362,192.092 353.029,195.758 329.5,198.5C 328.169,189.193 327.336,179.86 327,170.5C 334.565,167.3 342.065,163.967 349.5,160.5C 362.141,158.647 374.808,156.98 387.5,155.5 Z"/></g>
<g><path style="opacity:1" fill="#6387e4" d="M 321.5,201.5 C 320.584,201.018 319.584,200.685 318.5,200.5C 303.188,203.021 287.854,205.354 272.5,207.5C 279.582,197.684 286.915,188.017 294.5,178.5C 302.503,176.833 310.503,175.166 318.5,173.5C 319.761,182.804 320.761,192.137 321.5,201.5 Z"/></g>
<g><path style="opacity:1" fill="#9bc6f7" d="M 269.5,197.5 C 257.297,198.839 245.13,200.505 233,202.5C 231.93,202.472 231.097,202.139 230.5,201.5C 231.699,194.371 233.366,187.371 235.5,180.5C 251.497,181.583 267.497,181.75 283.5,181C 278.593,186.398 273.927,191.898 269.5,197.5 Z"/></g>
<g><path style="opacity:1" fill="#9bc6f7" d="M 221.5,204.5 C 197.078,207.275 172.745,210.608 148.5,214.5C 148.163,210.692 148.663,207.026 150,203.5C 154.755,196.324 159.755,189.324 165,182.5C 169.625,194.781 178.458,199.947 191.5,198C 202.865,194.637 211.198,187.637 216.5,177C 220.136,177.319 223.803,177.819 227.5,178.5C 225.494,187.188 223.494,195.855 221.5,204.5 Z"/></g>
<g><path style="opacity:1" fill="#f1aea7" d="M 429.5,190.5 C 434.411,204.128 438.411,218.128 441.5,232.5C 440.428,237.715 438.762,242.715 436.5,247.5C 431.72,233.399 427.387,219.066 423.5,204.5C 425.503,199.829 427.503,195.162 429.5,190.5 Z"/></g>
<g><path style="opacity:1" fill="#6282e6" d="M 399.5,187.5 C 403.163,202.096 404.496,216.763 403.5,231.5C 403.5,228.833 403.5,226.167 403.5,223.5C 357.169,230.166 310.835,236.833 264.5,243.5C 262.184,230.416 264.851,218.416 272.5,207.5C 287.854,205.354 303.188,203.021 318.5,200.5C 319.584,200.685 320.584,201.018 321.5,201.5C 321.334,210.506 321.5,219.506 322,228.5C 324.592,229.982 326.925,229.648 329,227.5C 329.5,217.839 329.666,208.172 329.5,198.5C 353.029,195.758 376.362,192.092 399.5,187.5 Z"/></g>
<g><path style="opacity:1" fill="#96bff8" d="M 269.5,197.5 C 264.446,204.942 260.446,212.942 257.5,221.5C 246.797,222.553 236.13,223.886 225.5,225.5C 226.537,217.251 228.203,209.251 230.5,201.5C 231.097,202.139 231.93,202.472 233,202.5C 245.13,200.505 257.297,198.839 269.5,197.5 Z"/></g>
<g><path style="opacity:1" fill="#6588e6" d="M 139.5,205.5 C 134.234,213.703 129.234,222.037 124.5,230.5C 115.8,231.338 107.133,232.505 98.5,234C 97.944,234.383 97.6107,234.883 97.5,235.5C 90.5809,224.991 85.2475,213.658 81.5,201.5C 100.825,198.501 120.158,195.501 139.5,192.5C 139.5,196.833 139.5,201.167 139.5,205.5 Z"/></g>
<g><path style="opacity:1" fill="#96c0f9" d="M 221.5,204.5 C 219.783,211.754 218.449,219.088 217.5,226.5C 197.896,229.539 178.23,232.205 158.5,234.5C 154.115,228.396 150.781,221.729 148.5,214.5C 172.745,210.608 197.078,207.275 221.5,204.5 Z"/></g>
<g><path style="opacity:1" fill="#6487e3" d="M 87.5,235.5 C 80.2225,236.873 72.8892,237.873 65.5,238.5C 61.7113,218.208 61.5446,197.875 65,177.5C 70.618,197.514 78.118,216.847 87.5,235.5 Z"/></g>
<g><path style="opacity:1" fill="#5c7ce5" d="M 403.5,231.5 C 388.428,241.074 376.595,253.741 368,269.5C 361.393,247.421 347.393,240.421 326,248.5C 308.355,244.735 296.855,251.402 291.5,268.5C 289.228,269.441 287.228,270.774 285.5,272.5C 275.023,265.356 268.023,255.689 264.5,243.5C 310.835,236.833 357.169,230.166 403.5,223.5C 403.5,226.167 403.5,228.833 403.5,231.5 Z"/></g>
<g><path style="opacity:1" fill="#6281e3" d="M 124.5,230.5 C 120.601,239.298 116.435,247.964 112,256.5C 106.14,250.152 101.307,243.152 97.5,235.5C 97.6107,234.883 97.944,234.383 98.5,234C 107.133,232.505 115.8,231.338 124.5,230.5 Z"/></g>
<g><path style="opacity:1" fill="#90baf9" d="M 257.5,221.5 C 255.898,227.713 255.232,234.046 255.5,240.5C 255.5,241.5 255.5,242.5 255.5,243.5C 244.582,244.845 233.748,246.512 223,248.5C 222.768,247.263 222.268,246.263 221.5,245.5C 218.277,241.305 215.61,241.639 213.5,246.5C 213.685,247.584 214.018,248.584 214.5,249.5C 198.833,251.5 183.166,253.5 167.5,255.5C 165.084,248.254 162.084,241.254 158.5,234.5C 178.23,232.205 197.896,229.539 217.5,226.5C 217.559,228.722 218.725,229.722 221,229.5C 223.616,229.383 225.116,228.05 225.5,225.5C 236.13,223.886 246.797,222.553 257.5,221.5 Z"/></g>
<g><path style="opacity:1" fill="#6182e5" d="M 87.5,235.5 C 93.579,245.298 100.412,254.632 108,263.5C 108.765,265.066 108.598,266.399 107.5,267.5C 96.5539,269.445 85.5539,271.111 74.5,272.5C 70.2534,261.515 67.2534,250.181 65.5,238.5C 72.8892,237.873 80.2225,236.873 87.5,235.5 Z"/></g>
<g><path style="opacity:1" fill="#f5b1b0" d="M 423.5,204.5 C 427.387,219.066 431.72,233.399 436.5,247.5C 430.671,260.504 423.338,272.504 414.5,283.5C 410.852,271.246 407.352,258.913 404,246.5C 403.8,244.68 402.966,243.347 401.5,242.5C 405.722,239.468 410.222,236.802 415,234.5C 414.719,223.523 417.552,213.523 423.5,204.5 Z"/></g>
<g><path style="opacity:1" fill="#2b2d43" d="M 221.5,245.5 C 221.714,247.144 221.38,248.644 220.5,250C 218.288,250.789 216.288,250.622 214.5,249.5C 214.018,248.584 213.685,247.584 213.5,246.5C 215.61,241.639 218.277,241.305 221.5,245.5 Z"/></g>
<g><path style="opacity:1" fill="#f8b9b8" d="M 401.5,242.5 C 402.966,243.347 403.8,244.68 404,246.5C 407.352,258.913 410.852,271.246 414.5,283.5C 410.224,290.109 405.224,296.109 399.5,301.5C 395.92,286.165 391.587,271.165 386.5,256.5C 387.794,254.093 389.461,251.926 391.5,250C 394.71,247.283 398.044,244.783 401.5,242.5 Z"/></g>
<g><path style="opacity:1" fill="#5f82e5" d="M 160.5,259.5 C 147.22,261.778 133.887,263.778 120.5,265.5C 118.623,264.341 118.123,262.674 119,260.5C 125.552,245.729 132.885,231.396 141,217.5C 144.871,226.909 149.538,235.909 155,244.5C 157.332,249.332 159.166,254.332 160.5,259.5 Z"/></g>
<g><path style="opacity:1" fill="#8ab4f9" d="M 255.5,240.5 C 257.105,248.638 260.105,256.305 264.5,263.5C 250.541,266.235 236.375,268.569 222,270.5C 220.566,270.138 219.399,269.472 218.5,268.5C 213.727,265.079 211.06,266.412 210.5,272.5C 197.755,273.676 185.089,275.343 172.5,277.5C 171.463,270.018 169.796,262.684 167.5,255.5C 183.166,253.5 198.833,251.5 214.5,249.5C 216.288,250.622 218.288,250.789 220.5,250C 221.38,248.644 221.714,247.144 221.5,245.5C 222.268,246.263 222.768,247.263 223,248.5C 233.748,246.512 244.582,244.845 255.5,243.5C 255.5,242.5 255.5,241.5 255.5,240.5 Z"/></g>
<g><path style="opacity:1" fill="#dae5f1" d="M 350.5,255.5 C 330.379,265.392 310.046,275.058 289.5,284.5C 288.702,284.043 288.369,283.376 288.5,282.5C 289.242,280.574 290.242,278.741 291.5,277C 294.477,275.682 297.31,274.182 300,272.5C 301.123,259.386 308.289,253.552 321.5,255C 323.134,256.308 324.968,257.142 327,257.5C 329.723,256.459 332.223,254.959 334.5,253C 340.175,251.932 345.508,252.765 350.5,255.5 Z"/></g>
<g><path style="opacity:1" fill="#d4def0" d="M 350.5,255.5 C 354.3,257.963 356.967,261.296 358.5,265.5C 356.053,268.899 352.72,271.065 348.5,272C 341.5,272.333 334.5,272.667 327.5,273C 324.401,273.387 321.734,274.554 319.5,276.5C 305.667,279.498 296.834,287.832 293,301.5C 287.859,295.94 286.359,289.606 288.5,282.5C 288.369,283.376 288.702,284.043 289.5,284.5C 310.046,275.058 330.379,265.392 350.5,255.5 Z"/></g>
<g><path style="opacity:1" fill="#5b7be4" d="M 160.5,259.5 C 164.501,271.845 166.001,284.512 165,297.5C 148.032,289.683 133.198,279.016 120.5,265.5C 133.887,263.778 147.22,261.778 160.5,259.5 Z"/></g>
<g><path style="opacity:1" fill="#f8bfbd" d="M 386.5,256.5 C 391.587,271.165 395.92,286.165 399.5,301.5C 392.808,308.548 388.475,316.882 386.5,326.5C 380.203,331.462 374.203,336.795 368.5,342.5C 368.382,339.312 367.549,336.312 366,333.5C 365.333,330.5 365.333,327.5 366,324.5C 368.06,319.38 370.393,314.38 373,309.5C 373.696,306.522 374.196,303.522 374.5,300.5C 378.787,292.117 378.453,283.951 373.5,276C 376.505,268.517 380.838,262.017 386.5,256.5 Z"/></g>
<g><path style="opacity:1" fill="#5b7be4" d="M 107.5,267.5 C 102.496,282.013 97.9957,296.679 94,311.5C 85.9073,299.315 79.4073,286.315 74.5,272.5C 85.5539,271.111 96.5539,269.445 107.5,267.5 Z"/></g>
<g><path style="opacity:1" fill="#83aef8" d="M 264.5,263.5 C 269.49,269.488 275.157,274.821 281.5,279.5C 279.87,282.276 279.203,285.276 279.5,288.5C 258.822,291.073 238.155,293.74 217.5,296.5C 217.768,298.099 217.434,299.432 216.5,300.5C 217.432,289.851 218.098,279.184 218.5,268.5C 219.399,269.472 220.566,270.138 222,270.5C 236.375,268.569 250.541,266.235 264.5,263.5 Z"/></g>
<g><path style="opacity:1" fill="#94a4cf" d="M 358.5,265.5 C 359.236,268.695 359.903,272.029 360.5,275.5C 373.503,283.899 373.836,292.899 361.5,302.5C 354.249,283.197 340.249,274.53 319.5,276.5C 321.734,274.554 324.401,273.387 327.5,273C 334.5,272.667 341.5,272.333 348.5,272C 352.72,271.065 356.053,268.899 358.5,265.5 Z"/></g>
<g><path style="opacity:1" fill="#84aef9" d="M 210.5,272.5 C 210.117,281.2 209.45,289.867 208.5,298.5C 200.306,299.212 192.139,300.212 184,301.5C 182.319,301.608 181.152,302.275 180.5,303.5C 178.254,302.545 175.921,301.878 173.5,301.5C 173.698,293.466 173.365,285.466 172.5,277.5C 185.089,275.343 197.755,273.676 210.5,272.5 Z"/></g>
<g><path style="opacity:1" fill="#ed9d9a" d="M 348.5,294.5 C 335.131,293.345 321.797,292.012 308.5,290.5C 312.923,285.878 318.423,283.545 325,283.5C 334.639,283.572 342.473,287.239 348.5,294.5 Z"/></g>
<g><path style="opacity:1" fill="#587be4" d="M 155.5,301.5 C 138.854,304.045 122.187,306.545 105.5,309C 104.186,309.985 103.186,311.152 102.5,312.5C 105.271,298.42 109.437,284.754 115,271.5C 127.275,283.291 140.775,293.291 155.5,301.5 Z"/></g>
<g><path style="opacity:1" fill="#7da7f9" d="M 279.5,288.5 C 280.262,295.685 282.929,302.018 287.5,307.5C 287.03,308.693 286.03,309.36 284.5,309.5C 261.906,312.513 239.406,315.846 217,319.5C 216.501,314.845 216.334,310.179 216.5,305.5C 216.5,303.833 216.5,302.167 216.5,300.5C 217.434,299.432 217.768,298.099 217.5,296.5C 238.155,293.74 258.822,291.073 279.5,288.5 Z"/></g>
<g><path style="opacity:1" fill="#f1a9a5" d="M 308.5,290.5 C 321.797,292.012 335.131,293.345 348.5,294.5C 350.644,297.122 351.977,300.122 352.5,303.5C 350.866,304.161 349.033,304.494 347,304.5C 331.946,303.453 317.112,301.786 302.5,299.5C 303.723,295.951 305.723,292.951 308.5,290.5 Z"/></g>
<g><path style="opacity:1" fill="#7ea4f5" d="M 208.5,298.5 C 208.5,302.5 208.5,306.5 208.5,310.5C 198.91,309.103 189.577,306.769 180.5,303.5C 181.152,302.275 182.319,301.608 184,301.5C 192.139,300.212 200.306,299.212 208.5,298.5 Z"/></g>
<g><path style="opacity:1" fill="#5575e5" d="M 155.5,301.5 C 160.014,302.402 163.348,304.735 165.5,308.5C 163.428,331.026 151.428,344.693 129.5,349.5C 118.549,341.716 109.049,332.383 101,321.5C 100.914,318.424 101.414,315.424 102.5,312.5C 103.186,311.152 104.186,309.985 105.5,309C 122.187,306.545 138.854,304.045 155.5,301.5 Z"/></g>
<g><path style="opacity:1" fill="#d77582" d="M 374.5,300.5 C 374.196,303.522 373.696,306.522 373,309.5C 370.393,314.38 368.06,319.38 366,324.5C 365.333,327.5 365.333,330.5 366,333.5C 367.549,336.312 368.382,339.312 368.5,342.5C 370.4,356.975 365.733,368.809 354.5,378C 345.618,382.04 336.951,386.373 328.5,391C 324.514,391.499 320.514,391.666 316.5,391.5C 308.815,390.656 302.148,387.656 296.5,382.5C 290.933,375.791 287.933,368.124 287.5,359.5C 287.167,358.167 286.833,356.833 286.5,355.5C 287.458,355.953 288.292,356.619 289,357.5C 291.644,371.476 299.811,380.31 313.5,384C 317.167,384.667 320.833,384.667 324.5,384C 331.74,379.547 339.407,375.881 347.5,373C 354.589,368.58 359.423,362.413 362,354.5C 361.01,340.538 360.676,326.538 361,312.5C 366.315,309.348 370.815,305.348 374.5,300.5 Z"/></g>
<g><path style="opacity:1" fill="#f4b2b0" d="M 302.5,299.5 C 317.112,301.786 331.946,303.453 347,304.5C 349.033,304.494 350.866,304.161 352.5,303.5C 354.223,309.76 353.557,315.76 350.5,321.5C 334.135,320.527 317.801,319.194 301.5,317.5C 300.385,312.25 300.219,306.917 301,301.5C 301.278,300.584 301.778,299.918 302.5,299.5 Z"/></g>
<g><path style="opacity:1" fill="#789ef4" d="M 216.5,305.5 C 216.334,310.179 216.501,314.845 217,319.5C 239.406,315.846 261.906,312.513 284.5,309.5C 286.03,309.36 287.03,308.693 287.5,307.5C 290.799,308.901 291.132,310.735 288.5,313C 280.197,314.018 271.864,314.685 263.5,315C 254.307,316.679 246.473,320.846 240,327.5C 237.304,331.68 234.47,335.68 231.5,339.5C 226.758,339.701 222.091,340.368 217.5,341.5C 216.832,344.306 216.166,346.972 215.5,349.5C 215.171,334.657 215.504,319.99 216.5,305.5 Z"/></g>
<g><path style="opacity:1" fill="#302c3e" d="M 308.5,309.5 C 311.518,309.335 314.518,309.502 317.5,310C 320.167,312.333 320.167,314.667 317.5,317C 309.795,319.444 306.795,316.944 308.5,309.5 Z"/></g>
<g><path style="opacity:1" fill="#302c3d" d="M 331.5,309.5 C 335.007,308.994 338.174,309.66 341,311.5C 341.825,313.701 341.325,315.534 339.5,317C 336.5,317.667 333.5,317.667 330.5,317C 329.083,314.257 329.416,311.757 331.5,309.5 Z"/></g>
<g><path style="opacity:1" fill="#f6c0be" d="M 301.5,317.5 C 317.801,319.194 334.135,320.527 350.5,321.5C 349.053,327.413 345.886,332.08 341,335.5C 333.408,328.859 324.575,326.025 314.5,327C 311.588,328.373 308.754,329.873 306,331.5C 303.271,327.256 301.771,322.589 301.5,317.5 Z"/></g>
<g><path style="opacity:1" fill="#f8cccb" d="M 286.5,355.5 C 286.833,356.833 287.167,358.167 287.5,359.5C 277.86,368.806 268.193,378.139 258.5,387.5C 258.665,384.15 258.498,380.817 258,377.5C 256.186,376.24 254.353,376.24 252.5,377.5C 250.845,382.316 250.012,387.316 250,392.5C 241.62,404.282 230.786,413.116 217.5,419C 212.022,426.814 205.022,432.814 196.5,437C 185.236,437.621 176.07,433.454 169,424.5C 165.712,420.256 163.212,415.59 161.5,410.5C 162.072,408.745 162.906,407.078 164,405.5C 169.064,400.605 173.897,395.605 178.5,390.5C 182.146,393.479 185.479,396.812 188.5,400.5C 189.768,401.428 191.101,401.595 192.5,401C 195.714,396.074 198.548,390.907 201,385.5C 208.901,373.27 219.567,364.27 233,358.5C 235.59,345.469 242.09,334.969 252.5,327C 255.382,325.392 258.382,324.059 261.5,323C 268.524,322.169 275.524,322.336 282.5,323.5C 277.674,334.919 279.008,345.586 286.5,355.5 Z"/></g>
<g><path style="opacity:1" fill="#76a0f6" d="M 208.5,348.5 C 207.539,346.735 207.205,344.735 207.5,342.5C 188.504,345.166 169.504,347.833 150.5,350.5C 164.354,340.465 171.688,326.798 172.5,309.5C 184.218,312.944 196.052,315.944 208,318.5C 208.5,328.494 208.666,338.494 208.5,348.5 Z"/></g>
<g><path style="opacity:1" fill="#cfdbed" d="M 338.5,344.5 C 342.416,348.615 342.416,352.781 338.5,357C 335.826,357.67 333.493,358.837 331.5,360.5C 329.372,363.13 327.039,365.63 324.5,368C 320.138,369.923 315.805,369.923 311.5,368C 307.5,365.333 304.167,362 301.5,358C 299.975,356.991 298.308,356.491 296.5,356.5C 296.579,355.07 296.246,353.736 295.5,352.5C 288.537,346.779 286.037,339.445 288,330.5C 289.139,326.888 290.806,323.554 293,320.5C 294.743,326.054 297.077,331.387 300,336.5C 302.311,339.191 305.144,340.357 308.5,340C 315.608,333.456 323.275,332.79 331.5,338C 333.703,340.372 336.037,342.539 338.5,344.5 Z"/></g>
<g><path style="opacity:1" fill="#f7b9b6" d="M 386.5,326.5 C 386.748,337.497 385.081,348.164 381.5,358.5C 372.173,366.494 363.173,374.827 354.5,383.5C 353.167,385.167 351.833,386.833 350.5,388.5C 344.225,393.601 338.058,398.935 332,404.5C 331.536,403.906 331.369,403.239 331.5,402.5C 333.879,397.067 332.213,394.567 326.5,395C 318.789,416.519 303.789,425.019 281.5,420.5C 284.564,420.856 287.231,420.023 289.5,418C 298.395,408.937 307.395,400.104 316.5,391.5C 320.514,391.666 324.514,391.499 328.5,391C 336.951,386.373 345.618,382.04 354.5,378C 365.733,368.809 370.4,356.975 368.5,342.5C 374.203,336.795 380.203,331.462 386.5,326.5 Z"/></g>
<g><path style="opacity:1" fill="#709af8" d="M 231.5,339.5 C 229.575,344.103 227.742,348.77 226,353.5C 209.999,361.668 197.833,373.668 189.5,389.5C 182.599,383.096 175.265,377.263 167.5,372C 157.284,367.042 147.284,361.708 137.5,356C 141.783,354.072 146.116,352.238 150.5,350.5C 169.504,347.833 188.504,345.166 207.5,342.5C 207.205,344.735 207.539,346.735 208.5,348.5C 208.559,350.722 209.725,351.722 212,351.5C 213.699,351.613 214.866,350.947 215.5,349.5C 216.166,346.972 216.832,344.306 217.5,341.5C 222.091,340.368 226.758,339.701 231.5,339.5 Z"/></g>
<g><path style="opacity:1" fill="#96a6d1" d="M 341.5,367.5 C 337.817,365.659 334.484,363.326 331.5,360.5C 333.493,358.837 335.826,357.67 338.5,357C 342.416,352.781 342.416,348.615 338.5,344.5C 341.226,344.736 343.559,343.903 345.5,342C 348,339.5 350.5,337 353,334.5C 358.218,348.718 354.385,359.718 341.5,367.5 Z"/></g>
<g><path style="opacity:1" fill="#8999c5" d="M 296.5,356.5 C 298.308,356.491 299.975,356.991 301.5,358C 304.167,362 307.5,365.333 311.5,368C 315.805,369.923 320.138,369.923 324.5,368C 327.039,365.63 329.372,363.13 331.5,360.5C 334.484,363.326 337.817,365.659 341.5,367.5C 339.049,368.894 336.382,369.728 333.5,370C 329.833,372.333 326.167,374.667 322.5,377C 308.398,377.065 299.731,370.232 296.5,356.5 Z"/></g>
<g><path style="opacity:1" fill="#f9c7c5" d="M 287.5,359.5 C 287.933,368.124 290.933,375.791 296.5,382.5C 287.123,393.211 276.79,402.877 265.5,411.5C 259.737,404.605 257.404,396.605 258.5,387.5C 268.193,378.139 277.86,368.806 287.5,359.5 Z"/></g>
<g><path style="opacity:1" fill="#f2afae" d="M 151.5,372.5 C 147.105,374.562 144.105,377.896 142.5,382.5C 136.744,378.732 130.744,375.232 124.5,372C 116.809,366.787 113.309,359.62 114,350.5C 115.049,349.483 116.216,349.316 117.5,350C 127.945,358.964 139.279,366.464 151.5,372.5 Z"/></g>
<g><path style="opacity:1" fill="#f7bebd" d="M 296.5,382.5 C 302.148,387.656 308.815,390.656 316.5,391.5C 307.395,400.104 298.395,408.937 289.5,418C 287.231,420.023 284.564,420.856 281.5,420.5C 274.937,419.555 269.604,416.555 265.5,411.5C 276.79,402.877 287.123,393.211 296.5,382.5 Z"/></g>
<g><path style="opacity:1" fill="#f7bdbb" d="M 151.5,372.5 C 161.713,376.767 170.713,382.767 178.5,390.5C 173.897,395.605 169.064,400.605 164,405.5C 162.906,407.078 162.072,408.745 161.5,410.5C 156.676,400.199 150.343,390.866 142.5,382.5C 144.105,377.896 147.105,374.562 151.5,372.5 Z"/></g>
<g><path style="opacity:1" fill="#332e40" d="M 354.5,383.5 C 359,383.164 360.833,385.164 360,389.5C 357.653,392.856 354.653,393.856 351,392.5C 350.51,391.207 350.343,389.873 350.5,388.5C 351.833,386.833 353.167,385.167 354.5,383.5 Z"/></g>
<g><path style="opacity:1" fill="#f6b2b1" d="M 381.5,358.5 C 376.194,383.318 362.528,401.818 340.5,414C 335.4,415.195 330.733,414.362 326.5,411.5C 328.462,408.567 330.129,405.567 331.5,402.5C 331.369,403.239 331.536,403.906 332,404.5C 338.058,398.935 344.225,393.601 350.5,388.5C 350.343,389.873 350.51,391.207 351,392.5C 354.653,393.856 357.653,392.856 360,389.5C 360.833,385.164 359,383.164 354.5,383.5C 363.173,374.827 372.173,366.494 381.5,358.5 Z"/></g>
<g><path style="opacity:1" fill="#d77481" d="M 320.5,430.5 C 297.164,433.75 277.997,444.416 263,462.5C 257.373,471.008 254.873,480.342 255.5,490.5C 244.484,489.152 234.484,485.319 225.5,479C 230.476,467.265 233.31,455.099 234,442.5C 229.058,438.068 225.558,432.735 223.5,426.5C 223.608,425.558 223.941,424.725 224.5,424C 235.086,419.247 244.086,412.413 251.5,403.5C 256.3,416.243 265.3,424.41 278.5,428C 274.866,432.686 270.199,435.019 264.5,435C 260.897,431.62 257.897,427.787 255.5,423.5C 253.926,422.369 252.259,422.202 250.5,423C 249.17,426.368 249.67,429.535 252,432.5C 254.883,437.05 258.716,440.55 263.5,443C 265.833,443.667 268.167,443.667 270.5,443C 277.332,438.416 284.332,434.083 291.5,430C 302.833,429.076 313,425.243 322,418.5C 327.765,421.649 333.932,422.983 340.5,422.5C 339.667,427.164 338,431.497 335.5,435.5C 332.979,432.146 329.979,429.312 326.5,427C 322.78,425.608 320.78,426.775 320.5,430.5 Z"/></g>
<g><path style="opacity:1" fill="#2b293b" d="M 280.5,403.5 C 283.237,404.031 285.904,404.864 288.5,406C 289.435,412.482 286.768,414.148 280.5,411C 277.88,408.441 277.88,405.941 280.5,403.5 Z"/></g>
<g><path style="opacity:1" fill="#f3b0ae" d="M 320.5,430.5 C 322.717,433.224 325.217,435.891 328,438.5C 329.076,440.067 329.909,441.734 330.5,443.5C 329.101,448.198 327.601,452.864 326,457.5C 322.132,460.099 318.132,462.433 314,464.5C 313.257,466.441 313.424,468.274 314.5,470C 316.657,470.078 318.657,470.245 320.5,470.5C 316.994,478.727 310.994,483.894 302.5,486C 304.933,479.432 306.099,472.599 306,465.5C 311.193,457.597 312.693,449.097 310.5,440C 308.559,439.257 306.726,439.424 305,440.5C 305.18,448.814 303.013,456.48 298.5,463.5C 289.894,465.919 281.228,465.919 272.5,463.5C 268.902,465.354 268.568,467.854 271.5,471C 280.098,472.376 288.765,472.876 297.5,472.5C 297.873,489.267 289.706,495.933 273,492.5C 266.917,492.701 261.084,492.034 255.5,490.5C 254.873,480.342 257.373,471.008 263,462.5C 277.997,444.416 297.164,433.75 320.5,430.5 Z"/></g>
<g><path style="opacity:1" fill="#2b273a" d="M 242.5,435.5 C 243.552,435.351 244.552,435.517 245.5,436C 248.777,440.064 252.61,443.564 257,446.5C 258.5,451.667 256.667,453.5 251.5,452C 247.367,448.869 243.534,445.369 240,441.5C 239.333,440.5 239.333,439.5 240,438.5C 241.045,437.627 241.878,436.627 242.5,435.5 Z"/></g>
</svg>
