<?xml version="1.0" encoding="UTF-8"?>
<!DOCTYPE svg PUBLIC "-//W3C//DTD SVG 1.1//EN" "http://www.w3.org/Graphics/SVG/1.1/DTD/svg11.dtd">
<svg xmlns="http://www.w3.org/2000/svg" version="1.1" width="512px" height="512px" style="shape-rendering:geometricPrecision; text-rendering:geometricPrecision; image-rendering:optimizeQuality; fill-rule:evenodd; clip-rule:evenodd" xmlns:xlink="http://www.w3.org/1999/xlink">
<g><path style="opacity:1" fill="#282638" d="M 129.5,6.5 C 134.437,5.60341 138.437,7.10341 141.5,11C 152.821,10.645 163.821,12.3117 174.5,16C 179.209,19.2373 182.042,23.7373 183,29.5C 194.239,42.8783 199.739,58.3783 199.5,76C 199.48,84.3021 198.48,92.4687 196.5,100.5C 213.171,102.671 224.338,111.671 230,127.5C 234.687,142.132 235.52,156.966 232.5,172C 236.309,186.302 237.475,200.802 236,215.5C 266.664,201.431 297.831,200.098 329.5,211.5C 346.51,194.798 366.177,190.965 388.5,200C 410.765,210.933 424.932,228.433 431,252.5C 431.901,262.857 432.901,273.19 434,283.5C 435.001,286.173 436.501,288.507 438.5,290.5C 441.189,291.557 443.689,292.89 446,294.5C 447.271,298.166 446.104,300.666 442.5,302C 435.969,304.529 429.302,305.029 422.5,303.5C 419.983,316.033 417.316,328.533 414.5,341C 414.121,352.933 419.455,360.933 430.5,365C 438.921,365.618 447.254,365.285 455.5,364C 457.396,365.808 457.896,367.975 457,370.5C 440.656,389.939 420.489,395.105 396.5,386C 382.789,380.503 372.456,371.336 365.5,358.5C 364.726,357.289 363.893,357.289 363,358.5C 359.412,364.588 355.246,370.255 350.5,375.5C 361.005,383.513 369.172,393.513 375,405.5C 375.667,409.5 375.667,413.5 375,417.5C 367.922,427.978 361.589,438.978 356,450.5C 353.495,457.35 350.995,464.183 348.5,471C 349.918,478.834 349.751,486.667 348,494.5C 345.673,499.423 341.84,502.59 336.5,504C 312.833,504.667 289.167,504.667 265.5,504C 262.147,488.347 265.647,474.181 276,461.5C 279.211,445.916 285.045,431.416 293.5,418C 280.373,408.54 268.873,397.373 259,384.5C 253.92,373.865 253.086,362.865 256.5,351.5C 239.186,353.022 221.853,354.356 204.5,355.5C 202.151,359.528 199.317,363.194 196,366.5C 195.404,371.88 195.738,377.213 197,382.5C 202.654,396.16 208.321,409.827 214,423.5C 219.145,439.383 218.645,455.05 212.5,470.5C 219.373,498.124 208.873,509.457 181,504.5C 173.833,504.333 166.667,504.167 159.5,504C 155.304,490.741 157.47,478.574 166,467.5C 166.388,463.781 167.055,460.114 168,456.5C 171.333,451.833 174.667,447.167 178,442.5C 181.333,434.5 181.333,426.5 178,418.5C 173.501,410.164 168.501,402.164 163,394.5C 153.941,401.89 148.775,411.39 147.5,423C 150.691,435.879 154.024,448.712 157.5,461.5C 157.297,466.609 155.797,471.275 153,475.5C 155.318,486.082 152.485,494.915 144.5,502C 142.913,502.862 141.246,503.529 139.5,504C 123.833,504.667 108.167,504.667 92.5,504C 88.5983,485.782 92.9317,469.615 105.5,455.5C 105.788,436.862 108.288,418.529 113,400.5C 117.826,388.01 124.326,376.51 132.5,366C 115.076,352.33 103.242,334.83 97,313.5C 87.3442,299.195 82.5109,283.362 82.5,266C 82.8911,255.262 84.3911,244.762 87,234.5C 78.005,235.139 69.1717,233.639 60.5,230C 55.3003,222.171 52.9669,213.504 53.5,204C 53.7769,188.17 58.2769,173.67 67,160.5C 65.803,146.143 68.803,132.809 76,120.5C 82.0391,113.401 89.5391,108.735 98.5,106.5C 97.5598,97.589 99.7265,89.589 105,82.5C 105.948,74.1769 106.282,65.8436 106,57.5C 102.988,51.8089 100.822,45.8089 99.5,39.5C 103.908,23.4246 113.908,12.4246 129.5,6.5 Z"/></g>
<g><path style="opacity:1" fill="#f6db72" d="M 173.5,27.5 C 164.469,31.4013 155.136,34.7346 145.5,37.5C 131.289,29.8805 119.622,32.5472 110.5,45.5C 108.534,42.451 108.034,39.1177 109,35.5C 114.172,25.4937 122.005,18.4937 132.5,14.5C 133.95,15.6554 134.95,17.1554 135.5,19C 144.531,19.2823 153.531,19.949 162.5,21C 165.56,21.8476 168.56,22.8476 171.5,24C 172.823,24.8159 173.489,25.9826 173.5,27.5 Z"/></g>
<g><path style="opacity:1" fill="#f9d06a" d="M 173.5,27.5 C 174.302,28.9516 174.802,30.6183 175,32.5C 178.005,35.8488 180.505,39.5155 182.5,43.5C 182.53,44.4972 182.03,45.1639 181,45.5C 173.573,48.1429 166.073,50.4762 158.5,52.5C 156.29,48.4275 153.79,44.4275 151,40.5C 150.184,39.1772 149.017,38.5106 147.5,38.5C 146.508,38.6716 145.842,38.3382 145.5,37.5C 155.136,34.7346 164.469,31.4013 173.5,27.5 Z"/></g>
<g><path style="opacity:1" fill="#f1aeac" d="M 145.5,68.5 C 140.695,67.9401 136.029,67.2735 131.5,66.5C 136.9,66.9292 139.4,64.5959 139,59.5C 135.56,57.0063 132.227,57.3396 129,60.5C 128.252,62.8401 128.752,64.8401 130.5,66.5C 125.833,67.8333 121.167,67.8333 116.5,66.5C 121.068,66.9174 122.568,64.9174 121,60.5C 118.788,59.8801 116.954,58.7134 115.5,57C 117.248,43.5625 124.582,38.5625 137.5,42C 140.102,42.8834 142.269,44.3834 144,46.5C 145.429,53.7194 145.929,61.0528 145.5,68.5 Z"/></g>
<g><path style="opacity:1" fill="#2c2a3c" d="M 131.5,66.5 C 131.167,66.5 130.833,66.5 130.5,66.5C 128.752,64.8401 128.252,62.8401 129,60.5C 132.227,57.3396 135.56,57.0063 139,59.5C 139.4,64.5959 136.9,66.9292 131.5,66.5 Z"/></g>
<g><path style="opacity:1" fill="#f9c260" d="M 182.5,43.5 C 186.188,48.5547 188.522,54.2214 189.5,60.5C 189.5,61.8333 189.5,63.1667 189.5,64.5C 180.774,66.9643 172.107,69.631 163.5,72.5C 161.188,66.1099 159.521,59.4433 158.5,52.5C 166.073,50.4762 173.573,48.1429 181,45.5C 182.03,45.1639 182.53,44.4972 182.5,43.5 Z"/></g>
<g><path style="opacity:1" fill="#f7b75a" d="M 189.5,60.5 C 191.248,66.5737 191.915,72.907 191.5,79.5C 183.748,83.6578 176.081,83.4912 168.5,79C 166.21,77.2228 164.543,75.0562 163.5,72.5C 172.107,69.631 180.774,66.9643 189.5,64.5C 189.5,63.1667 189.5,61.8333 189.5,60.5 Z"/></g>
<g><path style="opacity:1" fill="#f2c2c1" d="M 116.5,66.5 C 121.167,67.8333 125.833,67.8333 130.5,66.5C 130.833,66.5 131.167,66.5 131.5,66.5C 136.029,67.2735 140.695,67.9401 145.5,68.5C 145.813,71.2469 145.48,73.9135 144.5,76.5C 134.46,71.2205 124.46,71.2205 114.5,76.5C 113.345,73.5541 113.179,70.5541 114,67.5C 114.671,66.7476 115.504,66.4142 116.5,66.5 Z"/></g>
<g><path style="opacity:1" fill="#df664b" d="M 147.5,38.5 C 149.017,38.5106 150.184,39.1772 151,40.5C 153.79,44.4275 156.29,48.4275 158.5,52.5C 159.521,59.4433 161.188,66.1099 163.5,72.5C 164.543,75.0562 166.21,77.2228 168.5,79C 176.081,83.4912 183.748,83.6578 191.5,79.5C 190.552,86.9048 189.219,94.2382 187.5,101.5C 183.775,101.595 180.109,101.762 176.5,102C 169.582,95.0777 162.082,88.9111 154,83.5C 153.667,71.5 153.333,59.5 153,47.5C 151.338,44.3507 149.505,41.3507 147.5,38.5 Z"/></g>
<g><path style="opacity:1" fill="#f7c663" d="M 151.5,92.5 C 151.5,93.5 151.5,94.5 151.5,95.5C 136.836,97.8327 122.169,100.166 107.5,102.5C 107.5,100.167 107.5,97.8333 107.5,95.5C 111.221,85.7115 118.387,80.7115 129,80.5C 138.641,80.7338 146.141,84.7338 151.5,92.5 Z"/></g>
<g><path style="opacity:1" fill="#f6bd5d" d="M 151.5,92.5 C 155.544,98.1517 157.044,104.485 156,111.5C 149.432,113.068 145.098,117.068 143,123.5C 142.044,124.894 140.711,125.561 139,125.5C 135.338,124.42 131.838,122.92 128.5,121C 126.246,118.556 123.913,116.389 121.5,114.5C 118.36,115.734 116.36,118.068 115.5,121.5C 114.635,122.583 113.635,122.749 112.5,122C 107.361,113.65 105.694,104.817 107.5,95.5C 107.5,97.8333 107.5,100.167 107.5,102.5C 122.169,100.166 136.836,97.8327 151.5,95.5C 151.5,94.5 151.5,93.5 151.5,92.5 Z"/></g>
<g><path style="opacity:1" fill="#f7cac9" d="M 224.5,171.5 C 212.046,170.035 199.712,168.035 187.5,165.5C 187.761,159.48 187.928,153.48 188,147.5C 186.444,145.365 184.611,145.032 182.5,146.5C 178.575,146.57 174.909,145.903 171.5,144.5C 173.017,142.064 172.684,139.898 170.5,138C 162.25,137.542 154.25,138.709 146.5,141.5C 126.046,137.423 105.38,133.756 84.5,130.5C 82.9704,130.36 81.9704,129.693 81.5,128.5C 85.7013,120.393 92.3679,115.726 101.5,114.5C 102.205,120.41 104.872,125.243 109.5,129C 114.437,130.369 118.604,129.203 122,125.5C 127.006,129.505 132.672,131.838 139,132.5C 141.63,132.536 144.13,132.036 146.5,131C 149.08,127.842 151.413,124.508 153.5,121C 157.406,120.404 160.573,118.57 163,115.5C 164.664,110.543 164.997,105.543 164,100.5C 168.036,103.877 172.036,107.21 176,110.5C 190.931,105.794 204.264,108.461 216,118.5C 223.131,129.179 226.631,141.012 226.5,154C 226.253,159.894 225.586,165.727 224.5,171.5 Z"/></g>
<g><path style="opacity:1" fill="#f5c1bf" d="M 81.5,128.5 C 81.9704,129.693 82.9704,130.36 84.5,130.5C 105.38,133.756 126.046,137.423 146.5,141.5C 141.38,144.34 141.214,147.34 146,150.5C 153.995,146.409 162.495,144.409 171.5,144.5C 174.909,145.903 178.575,146.57 182.5,146.5C 182.013,147.473 181.513,148.473 181,149.5C 179.984,158.807 179.317,168.14 179,177.5C 165.403,171.747 151.237,168.747 136.5,168.5C 135.779,161.533 135.279,154.533 135,147.5C 130.19,143.114 124.524,140.447 118,139.5C 114.061,139.104 112.728,140.771 114,144.5C 118.535,147.017 123.201,149.35 128,151.5C 128.499,157.157 128.666,162.824 128.5,168.5C 118.797,168.067 109.464,169.734 100.5,173.5C 99.1243,165.676 99.7909,158.01 102.5,150.5C 101.59,146.733 99.4238,145.733 96,147.5C 92.8679,155.86 91.7013,164.527 92.5,173.5C 85.4558,172.271 78.4558,170.938 71.5,169.5C 73.1774,166.161 74.8441,162.827 76.5,159.5C 74.6229,149.896 75.4563,140.563 79,131.5C 79.3768,130.058 80.2101,129.058 81.5,128.5 Z"/></g>
<g><path style="opacity:1" fill="#2d2b3d" d="M 171.5,144.5 C 162.495,144.409 153.995,146.409 146,150.5C 141.214,147.34 141.38,144.34 146.5,141.5C 154.25,138.709 162.25,137.542 170.5,138C 172.684,139.898 173.017,142.064 171.5,144.5 Z"/></g>
<g><path style="opacity:1" fill="#f5c9c9" d="M 158.5,178.5 C 154.592,180.454 150.592,182.454 146.5,184.5C 145.818,183.757 145.151,183.091 144.5,182.5C 144.5,180.5 144.5,178.5 144.5,176.5C 149.216,176.846 153.883,177.513 158.5,178.5 Z"/></g>
<g><path style="opacity:1" fill="#d37481" d="M 158.5,178.5 C 162.41,179.086 166.076,180.419 169.5,182.5C 162.833,186.167 156.167,189.833 149.5,193.5C 146.88,190.325 145.214,186.659 144.5,182.5C 145.151,183.091 145.818,183.757 146.5,184.5C 150.592,182.454 154.592,180.454 158.5,178.5 Z"/></g>
<g><path style="opacity:1" fill="#dde5f7" d="M 138.5,190.5 C 137.078,191.925 135.411,192.925 133.5,193.5C 118.508,192.868 103.508,192.535 88.5,192.5C 88.2148,190.712 88.5481,189.045 89.5,187.5C 103.813,178.338 119.48,174.338 136.5,175.5C 136.294,180.654 136.961,185.654 138.5,190.5 Z"/></g>
<g><path style="opacity:1" fill="#f8bab7" d="M 187.5,165.5 C 199.712,168.035 212.046,170.035 224.5,171.5C 228.881,185.985 229.548,200.652 226.5,215.5C 217.758,229.975 206.091,232.475 191.5,223C 189.359,221.692 187.359,220.192 185.5,218.5C 184.52,215.914 184.187,213.247 184.5,210.5C 185.076,202.862 186.91,195.529 190,188.5C 190.725,187.941 191.558,187.608 192.5,187.5C 195.722,188.969 199.056,189.469 202.5,189C 205.167,186.667 205.167,184.333 202.5,182C 197.6,181.285 192.767,180.452 188,179.5C 187.501,174.845 187.334,170.179 187.5,165.5 Z"/></g>
<g><path style="opacity:1" fill="#d5def8" d="M 88.5,192.5 C 103.508,192.535 118.508,192.868 133.5,193.5C 130.264,196.797 126.597,199.63 122.5,202C 113.932,207.115 105.266,211.948 96.5,216.5C 93.4111,214.507 91.4111,211.674 90.5,208C 88.8794,202.962 88.2127,197.795 88.5,192.5 Z"/></g>
<g><path style="opacity:1" fill="#d3ddf7" d="M 176.5,211.5 C 171.012,209.839 165.846,207.505 161,204.5C 160.333,202.5 160.333,200.5 161,198.5C 162.376,197.295 163.542,195.962 164.5,194.5C 169.554,190.81 175.221,188.477 181.5,187.5C 179.514,195.442 177.848,203.442 176.5,211.5 Z"/></g>
<g><path style="opacity:1" fill="#f1afac" d="M 71.5,169.5 C 78.4558,170.938 85.4558,172.271 92.5,173.5C 92.762,174.978 92.4287,176.311 91.5,177.5C 81.9148,181.755 74.5815,188.421 69.5,197.5C 69.7753,199.609 70.942,200.942 73,201.5C 75.6162,199.888 77.9495,197.888 80,195.5C 80.5142,204.177 83.0142,212.177 87.5,219.5C 81.6153,221.592 75.6153,223.258 69.5,224.5C 67.9102,224.372 66.5769,223.705 65.5,222.5C 58.7706,203.816 60.7706,186.149 71.5,169.5 Z"/></g>
<g><path style="opacity:1" fill="#f2d36d" d="M 357.5,217.5 C 352.894,215.29 350.561,211.624 350.5,206.5C 358.99,203.206 367.657,202.706 376.5,205C 368.76,207.192 362.426,211.359 357.5,217.5 Z"/></g>
<g><path style="opacity:1" fill="#e76e50" d="M 350.5,206.5 C 350.561,211.624 352.894,215.29 357.5,217.5C 355.343,220.471 353.176,223.471 351,226.5C 346.62,222.614 342.12,218.947 337.5,215.5C 341.34,211.75 345.673,208.75 350.5,206.5 Z"/></g>
<g><path style="opacity:1" fill="#7a7eb3" d="M 138.5,190.5 C 139.662,192.986 140.996,195.486 142.5,198C 129.239,206.265 115.739,214.098 102,221.5C 99.6716,220.336 97.8382,218.67 96.5,216.5C 105.266,211.948 113.932,207.115 122.5,202C 126.597,199.63 130.264,196.797 133.5,193.5C 135.411,192.925 137.078,191.925 138.5,190.5 Z"/></g>
<g><path style="opacity:1" fill="#d87c7c" d="M 350.5,237.5 C 313.833,238.833 277.167,238.833 240.5,237.5C 242.142,232.315 243.142,226.982 243.5,221.5C 257.773,214.746 272.94,211.746 289,212.5C 310.774,211.646 329.94,218.146 346.5,232C 348.439,233.432 349.772,235.265 350.5,237.5 Z"/></g>
<g><path style="opacity:1" fill="#777bb0" d="M 164.5,194.5 C 163.542,195.962 162.376,197.295 161,198.5C 160.333,200.5 160.333,202.5 161,204.5C 165.846,207.505 171.012,209.839 176.5,211.5C 176.5,215.5 176.5,219.5 176.5,223.5C 164.366,218.177 152.033,213.344 139.5,209C 147.233,203.133 155.567,198.3 164.5,194.5 Z"/></g>
<g><path style="opacity:1" fill="#d37481" d="M 173.5,241.5 C 162.062,229.446 148.062,222.113 131.5,219.5C 131.5,222.5 131.5,225.5 131.5,228.5C 130.179,224.767 130.179,220.934 131.5,217C 149.375,219.929 166.042,226.262 181.5,236C 178.978,238.09 176.312,239.924 173.5,241.5 Z"/></g>
<g><path style="opacity:1" fill="#d57581" d="M 184.5,210.5 C 184.187,213.247 184.52,215.914 185.5,218.5C 187.359,220.192 189.359,221.692 191.5,223C 206.091,232.475 217.758,229.975 226.5,215.5C 225.217,223.35 222.55,230.683 218.5,237.5C 206.144,238.577 194.811,235.577 184.5,228.5C 183.183,222.346 183.183,216.346 184.5,210.5 Z"/></g>
<g><path style="opacity:1" fill="#cb707d" d="M 87.5,219.5 C 89.2959,220.793 90.9625,222.293 92.5,224C 84.771,227.076 77.1044,227.242 69.5,224.5C 75.6153,223.258 81.6153,221.592 87.5,219.5 Z"/></g>
<g><path style="opacity:1" fill="#d47480" d="M 123.5,223.5 C 119.973,226.423 116.306,229.09 112.5,231.5C 110.938,231.733 109.605,232.4 108.5,233.5C 104.311,235.118 99.9777,236.118 95.5,236.5C 95.2606,234.533 95.5939,232.699 96.5,231C 106.007,228.169 114.841,224.002 123,218.5C 123.494,220.134 123.66,221.801 123.5,223.5 Z"/></g>
<g><path style="opacity:1" fill="#e36f50" d="M 363.5,222.5 C 366.191,226.185 368.858,229.852 371.5,233.5C 369.16,236.172 366.827,238.839 364.5,241.5C 361.605,238.768 359.272,235.602 357.5,232C 358.644,228.193 360.644,225.027 363.5,222.5 Z"/></g>
<g><path style="opacity:1" fill="#f7d06b" d="M 423.5,258.5 C 423.5,260.833 423.5,263.167 423.5,265.5C 413.12,266.589 402.787,267.922 392.5,269.5C 389.246,267.971 385.913,266.638 382.5,265.5C 382.551,256.657 380.551,248.324 376.5,240.5C 378.688,238.245 381.354,237.411 384.5,238C 388.606,240.133 392.439,242.633 396,245.5C 399.072,244.553 400.072,242.553 399,239.5C 391.429,230.029 382.263,228.029 371.5,233.5C 368.858,229.852 366.191,226.185 363.5,222.5C 370.149,214.016 378.816,210.85 389.5,213C 393.385,213.739 397.052,215.073 400.5,217C 413.517,227.867 421.184,241.7 423.5,258.5 Z"/></g>
<g><path style="opacity:1" fill="#e59d9a" d="M 123.5,223.5 C 123.46,226.881 123.793,230.214 124.5,233.5C 120.227,233.919 116.227,233.252 112.5,231.5C 116.306,229.09 119.973,226.423 123.5,223.5 Z"/></g>
<g><path style="opacity:1" fill="#efa4a1" d="M 173.5,241.5 C 169.664,243.584 165.997,245.917 162.5,248.5C 162.03,247.307 161.03,246.64 159.5,246.5C 150.084,245.042 140.75,243.376 131.5,241.5C 132.754,237.182 132.754,232.848 131.5,228.5C 131.5,225.5 131.5,222.5 131.5,219.5C 148.062,222.113 162.062,229.446 173.5,241.5 Z"/></g>
<g><path style="opacity:1" fill="#c04544" d="M 243.5,221.5 C 243.142,226.982 242.142,232.315 240.5,237.5C 232.217,256.14 218.217,262.64 198.5,257C 194.5,255 190.5,253 186.5,251C 184.234,249.574 182.568,247.74 181.5,245.5C 184.418,243.456 187.585,241.79 191,240.5C 200.685,245.131 210.852,246.964 221.5,246C 226.428,240.313 229.928,233.813 232,226.5C 235.528,224.153 239.361,222.487 243.5,221.5 Z"/></g>
<g><path style="opacity:1" fill="#2c293b" d="M 148.5,232.5 C 154.235,231.821 155.902,234.155 153.5,239.5C 149.223,240.606 144.89,240.772 140.5,240C 138.398,238.267 138.065,236.267 139.5,234C 142.695,233.819 145.695,233.319 148.5,232.5 Z"/></g>
<g><path style="opacity:1" fill="#d9757c" d="M 240.5,237.5 C 277.167,238.833 313.833,238.833 350.5,237.5C 357.849,244.853 363.182,253.519 366.5,263.5C 296.167,263.5 225.833,263.5 155.5,263.5C 163.432,256.526 172.099,250.526 181.5,245.5C 182.568,247.74 184.234,249.574 186.5,251C 190.5,253 194.5,255 198.5,257C 218.217,262.64 232.217,256.14 240.5,237.5 Z"/></g>
<g><path style="opacity:1" fill="#e36a4b" d="M 376.5,240.5 C 380.551,248.324 382.551,256.657 382.5,265.5C 379.882,265.221 377.382,264.554 375,263.5C 373.164,259.162 371.33,254.828 369.5,250.5C 370.858,246.44 373.191,243.106 376.5,240.5 Z"/></g>
<g><path style="opacity:1" fill="#ee9b97" d="M 108.5,233.5 C 108.178,235.722 108.845,237.556 110.5,239C 114.621,240.899 118.954,241.732 123.5,241.5C 122.919,248.061 123.752,254.395 126,260.5C 127.726,261.576 129.559,261.743 131.5,261C 132.081,260.107 132.415,259.107 132.5,258C 130.385,252.574 130.051,247.074 131.5,241.5C 140.75,243.376 150.084,245.042 159.5,246.5C 161.03,246.64 162.03,247.307 162.5,248.5C 152.418,255.742 142.751,263.575 133.5,272C 127.207,272.032 121.541,270.032 116.5,266C 109.625,260.793 103.792,254.626 99,247.5C 96.9243,244.107 95.7576,240.44 95.5,236.5C 99.9777,236.118 104.311,235.118 108.5,233.5 Z"/></g>
<g><path style="opacity:1" fill="#f2bf61" d="M 423.5,258.5 C 424.16,267.039 424.993,275.706 426,284.5C 426.791,288.719 428.625,292.386 431.5,295.5C 428.211,296.523 425.211,295.856 422.5,293.5C 421.648,288.759 420.481,284.092 419,279.5C 415.261,277.525 413.094,278.525 412.5,282.5C 415.134,293.194 415.134,303.86 412.5,314.5C 410.548,314.995 408.548,315.328 406.5,315.5C 404.667,315.415 403.334,314.748 402.5,313.5C 404.309,304.919 404.809,296.253 404,287.5C 402.415,279.982 398.582,273.982 392.5,269.5C 402.787,267.922 413.12,266.589 423.5,265.5C 423.5,263.167 423.5,260.833 423.5,258.5 Z"/></g>
<g><path style="opacity:1" fill="#d97075" d="M 155.5,263.5 C 225.833,263.5 296.167,263.5 366.5,263.5C 373.196,277.547 375.196,292.214 372.5,307.5C 372.5,302.833 372.5,298.167 372.5,293.5C 356.5,293.5 340.5,293.5 324.5,293.5C 324.663,291.143 324.497,288.81 324,286.5C 321.667,283.833 319.333,283.833 317,286.5C 316.817,289.365 316.317,292.031 315.5,294.5C 242.669,293.501 169.669,293.167 96.5,293.5C 90.5768,280.014 89.2434,266.014 92.5,251.5C 101.309,264.473 112.976,273.973 127.5,280C 130.5,280.667 133.5,280.667 136.5,280C 142.117,273.548 148.451,268.048 155.5,263.5 Z"/></g>
<g><path style="opacity:1" fill="#da6d4c" d="M 382.5,273.5 C 381.833,276.833 381.167,280.167 380.5,283.5C 379.665,280.057 378.665,276.557 377.5,273C 379.197,272.616 380.863,272.782 382.5,273.5 Z"/></g>
<g><path style="opacity:1" fill="#d96974" d="M 96.5,293.5 C 169.669,293.167 242.669,293.501 315.5,294.5C 315.5,295.833 315.5,297.167 315.5,298.5C 312.854,300.479 310.521,302.812 308.5,305.5C 253.833,305.5 199.167,305.5 144.5,305.5C 141.136,304.873 139.136,306.206 138.5,309.5C 143.205,318.613 145.872,328.28 146.5,338.5C 122.861,331.192 106.195,316.192 96.5,293.5 Z"/></g>
<g><path style="opacity:1" fill="#f4be5f" d="M 382.5,273.5 C 389.871,276.038 394.705,281.038 397,288.5C 397.573,294.539 397.239,300.539 396,306.5C 395.584,310.529 394.417,314.196 392.5,317.5C 389.133,317.457 385.799,317.79 382.5,318.5C 380.97,318.36 379.97,317.693 379.5,316.5C 380.432,305.538 380.765,294.538 380.5,283.5C 381.167,280.167 381.833,276.833 382.5,273.5 Z"/></g>
<g><path style="opacity:1" fill="#d9676f" d="M 144.5,305.5 C 199.167,305.5 253.833,305.5 308.5,305.5C 301.731,314.903 292.731,321.403 281.5,325C 260.446,332.454 238.779,335.454 216.5,334C 212.673,331.16 209.673,327.66 207.5,323.5C 207.111,320.054 206.278,316.721 205,313.5C 203.267,311.398 201.267,311.065 199,312.5C 200.079,322.445 200.412,332.445 200,342.5C 198.944,346.939 197.111,350.939 194.5,354.5C 179.971,354.161 165.638,353.161 151.5,351.5C 155.915,335.138 153.582,319.805 144.5,305.5 Z"/></g>
<g><path style="opacity:1" fill="#d96971" d="M 324.5,293.5 C 340.5,293.5 356.5,293.5 372.5,293.5C 372.5,298.167 372.5,302.833 372.5,307.5C 371.942,312.709 370.942,317.709 369.5,322.5C 352.008,321.503 334.341,321.17 316.5,321.5C 320.414,312.51 323.08,303.177 324.5,293.5 Z"/></g>
<g><path style="opacity:1" fill="#d9636e" d="M 316.5,321.5 C 334.341,321.17 352.008,321.503 369.5,322.5C 366.948,334.177 362.282,344.844 355.5,354.5C 335.34,353.503 315.007,353.17 294.5,353.5C 296.321,349.188 298.154,344.855 300,340.5C 306.442,334.923 311.942,328.59 316.5,321.5 Z"/></g>
<g><path style="opacity:1" fill="#bb3238" d="M 112.5,329.5 C 122.132,336.569 132.632,342.236 144,346.5C 143.157,350.69 141.324,354.524 138.5,358C 137.5,358.667 136.5,358.667 135.5,358C 126.017,349.811 118.35,340.311 112.5,329.5 Z"/></g>
<g><path style="opacity:1" fill="#bf3438" d="M 315.5,298.5 C 313.594,312.145 307.594,323.645 297.5,333C 283.592,337.983 269.258,341.316 254.5,343C 238.525,345.183 222.525,346.016 206.5,345.5C 207.465,338.224 207.799,330.891 207.5,323.5C 209.673,327.66 212.673,331.16 216.5,334C 238.779,335.454 260.446,332.454 281.5,325C 292.731,321.403 301.731,314.903 308.5,305.5C 310.521,302.812 312.854,300.479 315.5,298.5 Z"/></g>
<g><path style="opacity:1" fill="#f5b357" d="M 402.5,313.5 C 403.334,314.748 404.667,315.415 406.5,315.5C 408.548,315.328 410.548,314.995 412.5,314.5C 405.857,328.794 404.857,343.461 409.5,358.5C 403.609,359.905 397.609,361.238 391.5,362.5C 390.421,356.551 390.254,350.551 391,344.5C 395.358,334.25 399.191,323.916 402.5,313.5 Z"/></g>
<g><path style="opacity:1" fill="#f3b257" d="M 379.5,316.5 C 379.97,317.693 380.97,318.36 382.5,318.5C 385.799,317.79 389.133,317.457 392.5,317.5C 389.627,326.917 386.461,336.25 383,345.5C 381.783,354.031 382.95,362.198 386.5,370C 386.167,370.167 385.833,370.333 385.5,370.5C 377.55,364.115 372.217,355.948 369.5,346C 373.851,336.392 377.184,326.559 379.5,316.5 Z"/></g>
<g><path style="opacity:1" fill="#d75a68" d="M 151.5,351.5 C 165.638,353.161 179.971,354.161 194.5,354.5C 192.025,359.244 188.692,363.411 184.5,367C 171.423,376.408 159.256,386.908 148,398.5C 145.807,402.23 143.64,405.897 141.5,409.5C 134.265,408.189 126.932,408.189 119.5,409.5C 120.224,404.274 121.724,399.274 124,394.5C 133.03,379.992 142.196,365.659 151.5,351.5 Z"/></g>
<g><path style="opacity:1" fill="#d85a68" d="M 294.5,353.5 C 315.007,353.17 335.34,353.503 355.5,354.5C 351.313,361.862 346.147,368.529 340,374.5C 339.333,376.167 339.333,377.833 340,379.5C 352.855,386.185 362.022,396.185 367.5,409.5C 355.069,408.18 342.735,408.18 330.5,409.5C 314.322,399.158 301.822,385.491 293,368.5C 292.017,363.28 292.517,358.28 294.5,353.5 Z"/></g>
<g><path style="opacity:1" fill="#f4ab51" d="M 409.5,358.5 C 414.668,367.255 422.335,372.255 432.5,373.5C 435.167,374.167 437.833,374.833 440.5,375.5C 428.953,382.771 416.62,384.271 403.5,380C 397.378,375.579 393.378,369.746 391.5,362.5C 397.609,361.238 403.609,359.905 409.5,358.5 Z"/></g>
<g><path style="opacity:1" fill="#956c45" d="M 432.5,373.5 C 435.85,373.335 439.183,373.502 442.5,374C 441.956,374.717 441.289,375.217 440.5,375.5C 437.833,374.833 435.167,374.167 432.5,373.5 Z"/></g>
<g><path style="opacity:1" fill="#be2632" d="M 186.5,374.5 C 188.331,381.802 190.498,389.135 193,396.5C 199.755,407.764 204.755,419.764 208,432.5C 208.831,442.545 208.498,452.545 207,462.5C 206.044,463.894 204.711,464.561 203,464.5C 193.903,462.916 184.736,462.249 175.5,462.5C 175.343,461.127 175.51,459.793 176,458.5C 190.283,443.042 192.283,426.042 182,407.5C 178.028,401.362 173.862,395.362 169.5,389.5C 175.011,384.257 180.677,379.257 186.5,374.5 Z"/></g>
<g><path style="opacity:1" fill="#be2832" d="M 285.5,344.5 C 286.978,344.238 288.311,344.571 289.5,345.5C 282.678,357.281 282.845,368.948 290,380.5C 300.195,394.361 312.029,406.527 325.5,417C 316.498,430.839 309.498,445.673 304.5,461.5C 298.395,459.122 292.062,458.122 285.5,458.5C 286.621,452.303 288.454,446.303 291,440.5C 295.117,432.601 298.95,424.601 302.5,416.5C 302.167,415.5 301.833,414.5 301.5,413.5C 287.559,403.727 275.393,392.06 265,378.5C 261.552,368.474 262.052,358.641 266.5,349C 273.18,348.341 279.514,346.841 285.5,344.5 Z"/></g>
<g><path style="opacity:1" fill="#d64c5e" d="M 141.5,409.5 C 139.565,416.023 139.065,422.689 140,429.5C 142.264,437.626 144.931,445.626 148,453.5C 148.499,458.155 148.666,462.821 148.5,467.5C 147.448,467.649 146.448,467.483 145.5,467C 136.86,458.682 126.527,454.182 114.5,453.5C 113.72,438.417 115.387,423.751 119.5,409.5C 126.932,408.189 134.265,408.189 141.5,409.5 Z"/></g>
<g><path style="opacity:1" fill="#d74c5f" d="M 367.5,409.5 C 367.752,412.32 367.252,414.986 366,417.5C 354.7,431.767 346.867,447.767 342.5,465.5C 333.041,462.757 323.374,461.424 313.5,461.5C 317.728,445.378 324.895,430.711 335,417.5C 335.467,413.785 333.967,411.119 330.5,409.5C 342.735,408.18 355.069,408.18 367.5,409.5 Z"/></g>
<g><path style="opacity:1" fill="#4a5673" d="M 309.5,469.5 C 320.157,468.602 330.49,469.935 340.5,473.5C 342.154,480.388 341.654,487.055 339,493.5C 337.745,494.211 336.579,495.044 335.5,496C 323.505,496.5 311.505,496.667 299.5,496.5C 299.285,486.142 302.618,477.142 309.5,469.5 Z"/></g>
<g><path style="opacity:1" fill="#3c4864" d="M 176.5,470.5 C 186.255,470.189 195.922,470.855 205.5,472.5C 205.666,477.511 205.499,482.511 205,487.5C 204.955,490.334 204.121,492.834 202.5,495C 190.267,496.46 177.934,496.96 165.5,496.5C 164.577,488.444 166.41,481.111 171,474.5C 172.5,472.531 174.333,471.198 176.5,470.5 Z"/></g>
<g><path style="opacity:1" fill="#3c4864" d="M 281.5,466.5 C 287.955,466.15 294.289,466.817 300.5,468.5C 294.644,476.888 291.644,486.221 291.5,496.5C 284.833,496.5 278.167,496.5 271.5,496.5C 272.241,485.609 275.575,475.609 281.5,466.5 Z"/></g>
<g><path style="opacity:1" fill="#4a5572" d="M 111.5,460.5 C 124.715,461.191 135.548,466.524 144,476.5C 144.667,481.167 144.667,485.833 144,490.5C 142.749,493.381 140.583,495.214 137.5,496C 124.504,496.5 111.504,496.667 98.5,496.5C 98.095,482.71 102.428,470.71 111.5,460.5 Z"/></g>
</svg>
