<?xml version="1.0" encoding="UTF-8"?>
<!DOCTYPE svg PUBLIC "-//W3C//DTD SVG 1.1//EN" "http://www.w3.org/Graphics/SVG/1.1/DTD/svg11.dtd">
<svg xmlns="http://www.w3.org/2000/svg" version="1.1" width="512px" height="512px" style="shape-rendering:geometricPrecision; text-rendering:geometricPrecision; image-rendering:optimizeQuality; fill-rule:evenodd; clip-rule:evenodd" xmlns:xlink="http://www.w3.org/1999/xlink">
<g><path style="opacity:1" fill="#282638" d="M 266.5,28.5 C 280.853,27.0044 293.019,31.3377 303,41.5C 315.286,63.3093 309.952,79.3093 287,89.5C 285.933,88.8095 284.766,88.3095 283.5,88C 282.919,87.1074 282.585,86.1074 282.5,85C 284.131,80.8992 285.631,76.7326 287,72.5C 285.229,57.3529 277.062,52.5196 262.5,58C 248.504,68.6058 245.671,81.7725 254,97.5C 259.789,105.29 266.289,112.457 273.5,119C 277.609,121.372 281.942,122.705 286.5,123C 299.636,111.903 314.636,108.57 331.5,113C 336.584,113.85 341.584,115.016 346.5,116.5C 347.239,110.149 348.072,103.816 349,97.5C 350.085,96.7069 351.252,96.0402 352.5,95.5C 359.989,100.676 366.823,106.676 373,113.5C 377.068,112.396 381.068,112.729 385,114.5C 389.636,99.5611 396.636,85.8944 406,73.5C 409.374,70.5948 412.374,70.9281 415,74.5C 418.516,81.5311 422.016,88.5311 425.5,95.5C 428.957,91.5416 432.623,87.7083 436.5,84C 437.833,83.3333 439.167,83.3333 440.5,84C 448.638,93.4066 452.638,104.407 452.5,117C 452.141,123.639 451.307,130.139 450,136.5C 454.087,139.916 457.42,143.916 460,148.5C 463.074,174.993 474.741,196.66 495,213.5C 496.937,216.914 498.104,220.581 498.5,224.5C 496.219,236.843 492.052,248.51 486,259.5C 483.185,263.159 479.685,265.826 475.5,267.5C 468.397,260.569 461.064,253.736 453.5,247C 440.36,236.394 425.36,230.06 408.5,228C 403.311,224.145 398.811,219.645 395,214.5C 390.51,216.984 386.01,219.484 381.5,222C 378.319,222.71 375.319,223.043 372.5,223C 361.679,233.639 353.346,245.972 347.5,260C 351.952,274.073 359.119,286.573 369,297.5C 373.688,305.797 375.188,314.631 373.5,324C 375.94,330.991 377.773,338.157 379,345.5C 379.047,376.409 385.713,405.743 399,433.5C 404.815,438.738 410.815,443.738 417,448.5C 420.063,452.569 422.73,456.902 425,461.5C 428.847,471.288 426.014,478.122 416.5,482C 406.5,482.667 396.5,482.667 386.5,482C 375.554,478.382 368.721,470.882 366,459.5C 361.206,425.321 352.206,392.321 339,360.5C 335.588,353.342 331.922,346.342 328,339.5C 317.682,329.92 305.848,322.753 292.5,318C 290.559,317.257 288.726,317.424 287,318.5C 283.544,329.237 281.377,340.237 280.5,351.5C 282.24,357.744 284.24,363.911 286.5,370C 286.332,373.844 284.665,376.844 281.5,379C 273.167,381 264.833,381 256.5,379C 251.646,375.064 250.479,370.231 253,364.5C 258.021,358.095 260.188,350.761 259.5,342.5C 259.116,329.412 256.616,316.745 252,304.5C 250.833,303.333 249.667,302.167 248.5,301C 244.204,301.761 239.87,301.594 235.5,300.5C 232.085,317.925 234.919,334.259 244,349.5C 244.167,351.5 244.333,353.5 244.5,355.5C 241.362,369.328 239.196,383.328 238,397.5C 236.421,403.41 232.588,406.91 226.5,408C 219.833,408.667 213.167,408.667 206.5,408C 201.78,398.63 203.78,390.797 212.5,384.5C 214.326,377.6 214.826,370.6 214,363.5C 205.515,355.204 199.015,345.538 194.5,334.5C 175.487,360.208 162.654,388.875 156,420.5C 153.235,433.758 150.902,447.091 149,460.5C 145.618,472.549 137.784,479.716 125.5,482C 115.167,482.667 104.833,482.667 94.5,482C 88.814,479.985 85.814,475.985 85.5,470C 87.1052,461.386 90.9385,453.886 97,447.5C 108.023,440.143 115.69,430.143 120,417.5C 127.297,395.682 132.297,373.349 135,350.5C 141.728,336.044 148.728,321.711 156,307.5C 161.697,294.045 165.197,280.045 166.5,265.5C 166.148,253.259 161.815,242.759 153.5,234C 144.678,232.268 138.011,227.601 133.5,220C 132.308,217.945 132.308,215.945 133.5,214C 130.976,209.976 127.642,206.809 123.5,204.5C 122.346,212.139 119.012,218.639 113.5,224C 103.91,226.815 94.2432,229.482 84.5,232C 76.9287,234.785 69.5954,238.119 62.5,242C 52.3654,248.813 42.8654,256.313 34,264.5C 21.2576,256.364 14.0909,244.698 12.5,229.5C 12.896,225.581 14.0627,221.914 16,218.5C 23,209.5 30,200.5 37,191.5C 38.6079,188.618 39.9413,185.618 41,182.5C 42.6886,175.079 44.6886,167.746 47,160.5C 51.2581,153.74 56.0915,147.407 61.5,141.5C 51.8326,121.005 52.4992,100.838 63.5,81C 67.3286,80.2424 70.6619,81.2424 73.5,84C 76.021,86.2198 78.1877,88.7198 80,91.5C 85.0505,81.055 92.2171,72.3883 101.5,65.5C 106.096,68.6524 109.262,72.9857 111,78.5C 115.909,92.932 116.742,107.599 113.5,122.5C 120.506,123.584 127.506,124.418 134.5,125C 137.667,119.167 140.833,113.333 144,107.5C 146.916,105.987 149.582,106.32 152,108.5C 155.698,114.034 159.198,119.701 162.5,125.5C 165.986,126.276 169.486,126.942 173,127.5C 186.494,116.935 201.161,114.935 217,121.5C 219.786,119.858 222.619,118.358 225.5,117C 210.039,89.0556 214.039,64.0556 237.5,42C 245.986,34.7543 255.653,30.2543 266.5,28.5 Z"/></g>
<g><path style="opacity:1" fill="#bd4f4a" d="M 253.5,53.5 C 248.971,52.7265 244.305,52.0599 239.5,51.5C 255.196,35.8835 272.863,33.0502 292.5,43C 302.963,52.1709 304.13,62.3375 296,73.5C 294.667,54.5042 284.501,46.0042 265.5,48C 261.328,49.5879 257.328,51.4212 253.5,53.5 Z"/></g>
<g><path style="opacity:1" fill="#bd4544" d="M 239.5,51.5 C 244.305,52.0599 248.971,52.7265 253.5,53.5C 244.785,61.9412 240.785,72.2745 241.5,84.5C 240.733,83.828 240.066,82.9947 239.5,82C 234.914,81.8029 230.414,81.3029 226,80.5C 225.617,81.056 225.117,81.3893 224.5,81.5C 226.321,69.859 231.321,59.859 239.5,51.5 Z"/></g>
<g><path style="opacity:1" fill="#d77b7c" d="M 153.5,148.5 C 124.995,148.831 96.6618,148.498 68.5,147.5C 72.1405,144.032 75.9739,140.698 80,137.5C 78.6369,120 82.3036,103.667 91,88.5C 93.2614,84.0705 96.428,80.4039 100.5,77.5C 105.066,84.9136 107.399,93.0803 107.5,102C 107.675,113.14 105.175,123.64 100,133.5C 98.5,138.667 100.333,140.5 105.5,139C 106.562,136.209 107.895,133.543 109.5,131C 122.376,131.908 135.043,134.241 147.5,138C 150.588,140.911 152.588,144.411 153.5,148.5 Z"/></g>
<g><path style="opacity:1" fill="#be3b3c" d="M 241.5,84.5 C 243.274,96.5495 248.608,106.716 257.5,115C 250.167,114.302 242.834,114.468 235.5,115.5C 230.476,110.129 226.976,103.796 225,96.5C 224.501,91.5111 224.334,86.5111 224.5,81.5C 225.117,81.3893 225.617,81.056 226,80.5C 230.414,81.3029 234.914,81.8029 239.5,82C 240.066,82.9947 240.733,83.828 241.5,84.5 Z"/></g>
<g><path style="opacity:1" fill="#d57a7b" d="M 420.5,110.5 C 411.749,110.197 403.082,110.53 394.5,111.5C 398.623,101.252 403.79,91.5851 410,82.5C 414.931,91.3502 418.431,100.684 420.5,110.5 Z"/></g>
<g><path style="opacity:1" fill="#ba554f" d="M 67.5,90.5 C 71.5863,93.8215 74.5863,97.9882 76.5,103C 73.5372,113.279 72.0372,123.779 72,134.5C 70.9148,135.293 69.7481,135.96 68.5,136.5C 60.9212,121.381 60.5879,106.048 67.5,90.5 Z"/></g>
<g><path style="opacity:1" fill="#bc5550" d="M 437.5,94.5 C 441.104,99.1232 443.271,104.457 444,110.5C 444.749,117.598 444.249,124.598 442.5,131.5C 438.846,131.058 435.179,130.724 431.5,130.5C 431.279,122.895 430.279,115.395 428.5,108C 430.922,103.085 433.922,98.5846 437.5,94.5 Z"/></g>
<g><path style="opacity:1" fill="#d7757c" d="M 420.5,110.5 C 422.011,112.476 422.844,114.809 423,117.5C 423.499,122.823 423.666,128.156 423.5,133.5C 422.549,134.919 422.216,136.585 422.5,138.5C 416.323,139.92 410.323,141.92 404.5,144.5C 403.824,143.398 403.158,142.398 402.5,141.5C 393.084,133.26 390.418,123.26 394.5,111.5C 403.082,110.53 411.749,110.197 420.5,110.5 Z"/></g>
<g><path style="opacity:1" fill="#949aae" d="M 357.5,110.5 C 356.511,115.975 356.178,121.642 356.5,127.5C 355.183,121.654 355.183,115.654 356.5,109.5C 357.107,109.624 357.44,109.957 357.5,110.5 Z"/></g>
<g><path style="opacity:1" fill="#ccd6f5" d="M 357.5,110.5 C 362.096,113.924 365.763,118.091 368.5,123C 366.643,128.099 362.976,130.432 357.5,130C 356.748,129.329 356.414,128.496 356.5,127.5C 356.178,121.642 356.511,115.975 357.5,110.5 Z"/></g>
<g><path style="opacity:1" fill="#d77b7c" d="M 326.5,149.5 C 298.338,148.502 270.005,148.169 241.5,148.5C 242.473,146.932 242.64,145.265 242,143.5C 237.167,137.333 231.667,131.833 225.5,127C 228.777,124.685 232.444,123.351 236.5,123C 250.649,120.945 263.982,123.279 276.5,130C 272.912,132.377 269.412,134.877 266,137.5C 264.928,140.553 265.928,142.553 269,143.5C 280.235,136.464 291.402,129.298 302.5,122C 306.631,120.133 310.964,119.3 315.5,119.5C 323.863,120.42 332.196,121.587 340.5,123C 343.541,123.576 346.208,124.742 348.5,126.5C 343.171,132.484 338.837,139.151 335.5,146.5C 332.578,147.798 329.578,148.798 326.5,149.5 Z"/></g>
<g><path style="opacity:1" fill="#7b80b3" d="M 147.5,118.5 C 150.356,121.202 152.689,124.369 154.5,128C 150.354,131.129 146.354,130.962 142.5,127.5C 144.432,124.634 146.099,121.634 147.5,118.5 Z"/></g>
<g><path style="opacity:1" fill="#d67b7b" d="M 235.5,148.5 C 226.651,148.174 217.984,148.507 209.5,149.5C 201.772,146.257 193.772,143.591 185.5,141.5C 183.833,138.833 182.167,136.167 180.5,133.5C 185.514,128.36 191.681,125.693 199,125.5C 214.897,127.228 227.064,134.895 235.5,148.5 Z"/></g>
<g><path style="opacity:1" fill="#d67b7b" d="M 423.5,133.5 C 423.459,139.78 426.126,141.113 431.5,137.5C 438.59,138.54 444.256,141.874 448.5,147.5C 424.006,148.498 399.339,148.831 374.5,148.5C 377.404,142.593 381.737,137.926 387.5,134.5C 390.263,138.882 393.597,142.715 397.5,146C 401.492,147.177 403.158,145.677 402.5,141.5C 403.158,142.398 403.824,143.398 404.5,144.5C 410.323,141.92 416.323,139.92 422.5,138.5C 422.216,136.585 422.549,134.919 423.5,133.5 Z"/></g>
<g><path style="opacity:1" fill="#4a4465" d="M 365.5,146.5 C 359.167,146.5 352.833,146.5 346.5,146.5C 345.624,146.631 344.957,146.298 344.5,145.5C 346.28,141.599 348.78,138.266 352,135.5C 362.619,139.525 370.619,136.525 376,126.5C 376.494,124.866 376.66,123.199 376.5,121.5C 379.32,121.248 381.986,121.748 384.5,123C 385.517,124.049 385.684,125.216 385,126.5C 376.928,131.738 370.428,138.404 365.5,146.5 Z"/></g>
<g><path style="opacity:1" fill="#4a4868" d="M 184.5,173.5 C 178.108,172.973 171.775,172.307 165.5,171.5C 165.667,158.998 162.667,147.331 156.5,136.5C 160.963,134.533 165.63,134.033 170.5,135C 172.833,136 174.5,137.667 175.5,140C 167.462,144.819 165.295,151.653 169,160.5C 172.116,167.13 177.282,170.13 184.5,169.5C 184.5,170.833 184.5,172.167 184.5,173.5 Z"/></g>
<g><path style="opacity:1" fill="#433c60" d="M 346.5,146.5 C 352.833,146.5 359.167,146.5 365.5,146.5C 363.286,150.893 361.953,155.56 361.5,160.5C 360.527,162.948 360.194,165.615 360.5,168.5C 357.833,168.5 355.167,168.5 352.5,168.5C 356.379,159.48 354.379,152.146 346.5,146.5 Z"/></g>
<g><path style="opacity:1" fill="#d9757c" d="M 68.5,147.5 C 96.6618,148.498 124.995,148.831 153.5,148.5C 158.848,163.065 158.681,177.731 153,192.5C 151.723,194.747 150.223,196.747 148.5,198.5C 139.294,192.063 129.627,186.396 119.5,181.5C 118.908,176.738 116.408,175.404 112,177.5C 111.506,179.134 111.34,180.801 111.5,182.5C 98.8333,182.5 86.1667,182.5 73.5,182.5C 75.7871,180.386 77.4537,177.886 78.5,175C 77.8621,171.707 75.8621,170.707 72.5,172C 70.6667,173.833 68.8333,175.667 67,177.5C 66.3603,179.265 66.5269,180.932 67.5,182.5C 61.5,182.5 55.5,182.5 49.5,182.5C 50.8756,168.078 57.209,156.411 68.5,147.5 Z"/></g>
<g><path style="opacity:1" fill="#d8757c" d="M 235.5,148.5 C 237.5,149.833 239.5,149.833 241.5,148.5C 270.005,148.169 298.338,148.502 326.5,149.5C 322.422,150.371 318.422,151.537 314.5,153C 311.735,155.966 312.068,158.633 315.5,161C 318.621,162.306 321.287,164.14 323.5,166.5C 321.383,168.063 319.05,169.396 316.5,170.5C 321.334,173.752 326.334,176.752 331.5,179.5C 332.386,180.325 332.719,181.325 332.5,182.5C 324.5,182.5 316.5,182.5 308.5,182.5C 309.008,179.824 309.175,177.157 309,174.5C 307.534,172.675 305.701,172.175 303.5,173C 291.93,178.694 283.096,187.194 277,198.5C 272.608,190.775 267.441,183.608 261.5,177C 259.833,176.333 258.167,176.333 256.5,177C 255.267,179.314 253.933,181.481 252.5,183.5C 233.674,182.503 214.674,182.17 195.5,182.5C 195.176,178.445 195.509,174.445 196.5,170.5C 200.5,167.5 204.5,164.5 208.5,161.5C 206.255,160.792 204.255,159.792 202.5,158.5C 204.481,156.697 206.648,155.03 209,153.5C 209.49,152.207 209.657,150.873 209.5,149.5C 217.984,148.507 226.651,148.174 235.5,148.5 Z"/></g>
<g><path style="opacity:1" fill="#d8757c" d="M 448.5,147.5 C 450.451,148.716 451.951,150.382 453,152.5C 454.174,162.852 456.674,172.852 460.5,182.5C 455.833,182.5 451.167,182.5 446.5,182.5C 445.908,179.309 444.741,176.309 443,173.5C 439.507,170.498 437.007,171.165 435.5,175.5C 436.767,177.703 437.767,180.037 438.5,182.5C 425.167,182.5 411.833,182.5 398.5,182.5C 399.163,178.51 399.83,174.51 400.5,170.5C 400.021,165.513 397.854,164.513 394,167.5C 393.027,170.579 392.194,173.579 391.5,176.5C 384.713,182.47 377.713,182.803 370.5,177.5C 368.877,171.6 368.377,165.6 369,159.5C 369.81,155.213 371.643,151.546 374.5,148.5C 399.339,148.831 424.006,148.498 448.5,147.5 Z"/></g>
<g><path style="opacity:1" fill="#c8d3f2" d="M 177.5,147.5 C 183.487,149.162 189.487,150.828 195.5,152.5C 191.713,155.567 187.713,158.4 183.5,161C 181.833,161.667 180.167,161.667 178.5,161C 174.057,156.535 173.724,152.035 177.5,147.5 Z"/></g>
<g><path style="opacity:1" fill="#2c283a" d="M 246.5,155.5 C 252.488,155.664 253.821,158.164 250.5,163C 244.202,163.495 242.868,160.995 246.5,155.5 Z"/></g>
<g><path style="opacity:1" fill="#cbd5ef" d="M 345.5,156.5 C 345.859,158.766 345.192,160.599 343.5,162C 339.476,162.497 335.476,162.331 331.5,161.5C 329.364,160.597 327.364,159.431 325.5,158C 330.59,156.269 335.757,154.769 341,153.5C 343.183,153.522 344.683,154.522 345.5,156.5 Z"/></g>
<g><path style="opacity:1" fill="#7e83b4" d="M 345.5,156.5 C 346.158,157.793 346.492,159.293 346.5,161C 346.911,166.257 344.578,168.257 339.5,167C 336.593,165.391 333.927,163.558 331.5,161.5C 335.476,162.331 339.476,162.497 343.5,162C 345.192,160.599 345.859,158.766 345.5,156.5 Z"/></g>
<g><path style="opacity:1" fill="#2e283a" d="M 73.5,182.5 C 71.5,183.833 69.5,183.833 67.5,182.5C 66.5269,180.932 66.3603,179.265 67,177.5C 68.8333,175.667 70.6667,173.833 72.5,172C 75.8621,170.707 77.8621,171.707 78.5,175C 77.4537,177.886 75.7871,180.386 73.5,182.5 Z"/></g>
<g><path style="opacity:1" fill="#322a3c" d="M 446.5,182.5 C 443.783,186.482 441.116,186.482 438.5,182.5C 437.767,180.037 436.767,177.703 435.5,175.5C 437.007,171.165 439.507,170.498 443,173.5C 444.741,176.309 445.908,179.309 446.5,182.5 Z"/></g>
<g><path style="opacity:1" fill="#bc4d4a" d="M 202.5,158.5 C 204.255,159.792 206.255,160.792 208.5,161.5C 204.5,164.5 200.5,167.5 196.5,170.5C 195.509,174.445 195.176,178.445 195.5,182.5C 195.094,190.695 193.094,198.361 189.5,205.5C 189.08,203.906 188.414,202.406 187.5,201C 191.498,188.846 193.498,176.346 193.5,163.5C 196.393,161.555 199.393,159.889 202.5,158.5 Z"/></g>
<g><path style="opacity:1" fill="#3d3c56" d="M 361.5,160.5 C 361.005,172.849 363.505,184.516 369,195.5C 369.667,196.833 369.667,198.167 369,199.5C 364.358,191.094 357.191,187.26 347.5,188C 344.374,184.463 342.707,180.297 342.5,175.5C 347.273,175.122 350.607,172.788 352.5,168.5C 355.167,168.5 357.833,168.5 360.5,168.5C 360.194,165.615 360.527,162.948 361.5,160.5 Z"/></g>
<g><path style="opacity:1" fill="#bc4a49" d="M 391.5,176.5 C 389.584,181.673 388.25,187.006 387.5,192.5C 387.731,197.356 389.064,201.856 391.5,206C 390.303,207.52 388.803,208.687 387,209.5C 379.126,200.087 373.626,189.42 370.5,177.5C 377.713,182.803 384.713,182.47 391.5,176.5 Z"/></g>
<g><path style="opacity:1" fill="#433b5e" d="M 165.5,171.5 C 171.775,172.307 178.108,172.973 184.5,173.5C 184.662,179.555 184.162,185.555 183,191.5C 172.943,188.977 165.776,192.644 161.5,202.5C 159.598,204.151 157.598,204.484 155.5,203.5C 161.606,193.752 164.94,183.086 165.5,171.5 Z"/></g>
<g><path style="opacity:1" fill="#d97075" d="M 49.5,182.5 C 55.5,182.5 61.5,182.5 67.5,182.5C 69.5,183.833 71.5,183.833 73.5,182.5C 86.1667,182.5 98.8333,182.5 111.5,182.5C 114.038,190.655 114.871,198.988 114,207.5C 113.067,212.227 110.567,215.727 106.5,218C 95.8363,219.749 85.5029,222.582 75.5,226.5C 64.012,225.505 52.3453,225.172 40.5,225.5C 40.1465,219.275 38.4798,213.441 35.5,208C 37.9332,203.896 40.7665,200.063 44,196.5C 46.1352,191.923 47.9686,187.257 49.5,182.5 Z"/></g>
<g><path style="opacity:1" fill="#d77075" d="M 195.5,182.5 C 214.674,182.17 233.674,182.503 252.5,183.5C 251.432,188.033 249.766,192.366 247.5,196.5C 241.956,197.04 236.623,198.374 231.5,200.5C 225.092,196.268 219.092,191.435 213.5,186C 211.633,185.289 210.133,185.789 209,187.5C 208.2,198.368 208.367,209.201 209.5,220C 208.273,222.298 206.94,224.465 205.5,226.5C 202.713,225.523 199.713,225.19 196.5,225.5C 194.739,218.642 192.405,211.975 189.5,205.5C 193.094,198.361 195.094,190.695 195.5,182.5 Z"/></g>
<g><path style="opacity:1" fill="#d87075" d="M 308.5,182.5 C 316.5,182.5 324.5,182.5 332.5,182.5C 334.998,187.375 334.832,192.042 332,196.5C 326.225,203.626 319.058,208.626 310.5,211.5C 308.982,208.466 308.149,205.133 308,201.5C 307.18,194.986 307.347,188.653 308.5,182.5 Z"/></g>
<g><path style="opacity:1" fill="#d97075" d="M 398.5,182.5 C 411.833,182.5 425.167,182.5 438.5,182.5C 441.116,186.482 443.783,186.482 446.5,182.5C 451.167,182.5 455.833,182.5 460.5,182.5C 465.113,192.605 471.113,201.772 478.5,210C 475.925,214.891 474.258,220.058 473.5,225.5C 460.656,225.171 447.989,225.505 435.5,226.5C 429.073,224.126 422.406,222.626 415.5,222C 411.421,219.925 407.921,217.092 405,213.5C 401.145,207.79 397.812,201.79 395,195.5C 394.656,190.707 395.823,186.374 398.5,182.5 Z"/></g>
<g><path style="opacity:1" fill="#d67b7b" d="M 276.5,217.5 C 268.986,221.024 262.319,225.691 256.5,231.5C 250.379,230.375 247.712,226.708 248.5,220.5C 250.629,208.948 254.462,197.948 260,187.5C 267.33,196.494 272.83,206.494 276.5,217.5 Z"/></g>
<g><path style="opacity:1" fill="#be4a46" d="M 119.5,181.5 C 129.627,186.396 139.294,192.063 148.5,198.5C 147.05,201.785 144.717,204.285 141.5,206C 137.464,204.705 133.797,202.372 130.5,199C 127.995,197.247 125.329,195.747 122.5,194.5C 121.117,190.25 120.117,185.917 119.5,181.5 Z"/></g>
<g><path style="opacity:1" fill="#bb3e3e" d="M 298.5,184.5 C 299.376,184.369 300.043,184.702 300.5,185.5C 299.147,193.55 299.481,201.55 301.5,209.5C 295.671,207.634 289.671,206.468 283.5,206C 283.043,205.586 282.709,205.086 282.5,204.5C 286.778,196.899 292.111,190.233 298.5,184.5 Z"/></g>
<g><path style="opacity:1" fill="#be4b46" d="M 323.5,166.5 C 327.317,167.91 330.651,170.076 333.5,173C 335.29,180.542 337.957,187.709 341.5,194.5C 338.668,202.157 335.335,209.49 331.5,216.5C 327.629,216.185 323.962,216.518 320.5,217.5C 316.799,215.988 313.466,213.988 310.5,211.5C 319.058,208.626 326.225,203.626 332,196.5C 334.832,192.042 334.998,187.375 332.5,182.5C 332.719,181.325 332.386,180.325 331.5,179.5C 326.334,176.752 321.334,173.752 316.5,170.5C 319.05,169.396 321.383,168.063 323.5,166.5 Z"/></g>
<g><path style="opacity:1" fill="#7e83b5" d="M 350.5,195.5 C 353.928,195.547 356.928,196.713 359.5,199C 361.187,200.913 361.687,203.08 361,205.5C 355.268,207.915 349.435,210.248 343.5,212.5C 343.167,212.167 342.833,211.833 342.5,211.5C 345.196,206.109 347.862,200.776 350.5,195.5 Z"/></g>
<g><path style="opacity:1" fill="#d1daf3" d="M 184.5,214.5 C 184.565,214.938 184.399,215.272 184,215.5C 180.19,211.6 176.19,207.934 172,204.5C 171.517,203.552 171.351,202.552 171.5,201.5C 172.706,198.861 174.706,198.028 177.5,199C 180.7,203.762 183.033,208.928 184.5,214.5 Z"/></g>
<g><path style="opacity:1" fill="#8085b7" d="M 171.5,201.5 C 171.351,202.552 171.517,203.552 172,204.5C 176.19,207.934 180.19,211.6 184,215.5C 184.399,215.272 184.565,214.938 184.5,214.5C 185.885,215.302 185.718,215.969 184,216.5C 179.887,214.861 175.721,213.361 171.5,212C 167.58,208.458 167.58,204.958 171.5,201.5 Z"/></g>
<g><path style="opacity:1" fill="#cbd5f4" d="M 216.5,199.5 C 220.792,202.62 224.959,205.953 229,209.5C 228.97,213.904 226.804,217.071 222.5,219C 220.299,219.825 218.466,219.325 217,217.5C 216.501,211.509 216.334,205.509 216.5,199.5 Z"/></g>
<g><path style="opacity:1" fill="#323246" d="M 161.5,202.5 C 159.712,207.774 160.712,212.441 164.5,216.5C 163.833,217.5 163.167,218.5 162.5,219.5C 159.167,221.167 155.833,222.833 152.5,224.5C 147.715,223.383 144.048,220.716 141.5,216.5C 146.161,212.173 150.827,207.84 155.5,203.5C 157.598,204.484 159.598,204.151 161.5,202.5 Z"/></g>
<g><path style="opacity:1" fill="#d7757c" d="M 305.5,219.5 C 287.482,231.859 269.482,244.192 251.5,256.5C 248.994,253.914 246.494,253.914 244,256.5C 243.667,260.5 243.333,264.5 243,268.5C 236.288,260.32 233.955,250.987 236,240.5C 236.791,236.251 238.625,232.584 241.5,229.5C 244.371,234.041 248.371,237.041 253.5,238.5C 257.332,237.287 258.332,234.954 256.5,231.5C 262.319,225.691 268.986,221.024 276.5,217.5C 277.143,220.198 277.976,222.865 279,225.5C 281,226.833 283,226.833 285,225.5C 285.762,221.668 285.262,218.002 283.5,214.5C 283.833,214.167 284.167,213.833 284.5,213.5C 291.836,214.728 298.836,216.728 305.5,219.5 Z"/></g>
<g><path style="opacity:1" fill="#bc4343" d="M 320.5,217.5 C 323.962,216.518 327.629,216.185 331.5,216.5C 330.873,219.864 332.206,221.864 335.5,222.5C 343.123,219.958 350.79,217.625 358.5,215.5C 361.093,215.582 363.093,216.748 364.5,219C 356.479,227.186 349.813,236.353 344.5,246.5C 339.383,234.389 331.383,224.722 320.5,217.5 Z"/></g>
<g><path style="opacity:1" fill="#d97075" d="M 305.5,219.5 C 314.157,222.17 321.49,226.836 327.5,233.5C 326.078,233.709 324.745,234.209 323.5,235C 299.954,252.053 276.288,268.886 252.5,285.5C 251.551,275.886 251.218,266.219 251.5,256.5C 269.482,244.192 287.482,231.859 305.5,219.5 Z"/></g>
<g><path style="opacity:1" fill="#be4344" d="M 178.5,222.5 C 176.764,233.031 180.764,240.365 190.5,244.5C 187.167,246.5 183.833,248.5 180.5,250.5C 178.393,249.532 176.059,249.198 173.5,249.5C 173.5,250.5 173.5,251.5 173.5,252.5C 171.387,243.945 167.387,236.278 161.5,229.5C 165.477,226.691 169.31,223.691 173,220.5C 174.725,221.464 176.559,222.131 178.5,222.5 Z"/></g>
<g><path style="opacity:1" fill="#3a3952" d="M 29.5,214.5 C 32.2956,219.04 33.129,224.04 32,229.5C 23.6936,237.43 20.3603,235.764 22,224.5C 24.7167,221.29 27.2167,217.956 29.5,214.5 Z"/></g>
<g><path style="opacity:1" fill="#d66873" d="M 40.5,225.5 C 52.3453,225.172 64.012,225.505 75.5,226.5C 59.4979,232.834 45.4979,242.167 33.5,254.5C 30.275,251.44 27.6083,247.94 25.5,244C 29.9859,241.479 34.1525,238.312 38,234.5C 39.4301,231.647 40.2634,228.647 40.5,225.5 Z"/></g>
<g><path style="opacity:1" fill="#d86974" d="M 178.5,222.5 C 182.869,224.457 187.369,226.124 192,227.5C 193.833,227.481 195.333,226.815 196.5,225.5C 199.713,225.19 202.713,225.523 205.5,226.5C 204.105,230.515 202.605,234.515 201,238.5C 197.612,240.728 194.112,242.728 190.5,244.5C 180.764,240.365 176.764,233.031 178.5,222.5 Z"/></g>
<g><path style="opacity:1" fill="#d66873" d="M 435.5,226.5 C 447.989,225.505 460.656,225.171 473.5,225.5C 473.548,229.813 474.715,233.813 477,237.5C 479.553,239.716 481.72,242.216 483.5,245C 482.218,249.776 479.884,253.942 476.5,257.5C 470.681,252.182 465.015,246.682 459.5,241C 451.971,235.401 443.971,230.568 435.5,226.5 Z"/></g>
<g><path style="opacity:1" fill="#484263" d="M 227.5,251.5 C 225.486,251.608 223.82,250.942 222.5,249.5C 222.54,246.575 221.707,243.909 220,241.5C 217.205,238.533 214.038,236.2 210.5,234.5C 211.706,231.921 213.039,229.421 214.5,227C 228.573,227.92 236.073,221.42 237,207.5C 238.897,205.984 241.064,205.317 243.5,205.5C 242.712,213.363 239.546,220.03 234,225.5C 229.213,233.493 227.047,242.16 227.5,251.5 Z"/></g>
<g><path style="opacity:1" fill="#3f3d57" d="M 484.5,215.5 C 486.624,216.031 488.124,217.365 489,219.5C 490.109,225.484 489.276,231.15 486.5,236.5C 483.101,233.868 481.434,230.368 481.5,226C 481.782,222.277 482.782,218.777 484.5,215.5 Z"/></g>
<g><path style="opacity:1" fill="#d86974" d="M 327.5,233.5 C 332.105,238.371 335.439,244.038 337.5,250.5C 334.329,253.821 330.662,256.654 326.5,259C 325.131,260.719 324.131,262.552 323.5,264.5C 322.431,259.415 319.431,255.748 314.5,253.5C 312.84,254.172 311.507,255.172 310.5,256.5C 310.565,256.062 310.399,255.728 310,255.5C 291.328,268.367 273.161,281.7 255.5,295.5C 253.024,292.712 252.024,289.378 252.5,285.5C 276.288,268.886 299.954,252.053 323.5,235C 324.745,234.209 326.078,233.709 327.5,233.5 Z"/></g>
<g><path style="opacity:1" fill="#ced7f1" d="M 214.5,248.5 C 208.263,251.338 201.93,252.005 195.5,250.5C 199.866,247.65 204.533,245.317 209.5,243.5C 212.181,244.181 213.848,245.848 214.5,248.5 Z"/></g>
<g><path style="opacity:1" fill="#d8636e" d="M 337.5,250.5 C 339.191,259.678 341.524,268.678 344.5,277.5C 329.688,287.41 315.021,297.577 300.5,308C 299.177,308.816 298.511,309.983 298.5,311.5C 290.928,308.259 283.262,307.926 275.5,310.5C 272.1,308.144 268.767,305.811 265.5,303.5C 282.272,290.397 299.605,278.064 317.5,266.5C 320.01,266.946 322.01,266.28 323.5,264.5C 324.131,262.552 325.131,260.719 326.5,259C 330.662,256.654 334.329,253.821 337.5,250.5 Z"/></g>
<g><path style="opacity:1" fill="#bf3c3d" d="M 180.5,250.5 C 180.178,252.722 180.845,254.556 182.5,256C 189.503,258.111 196.337,260.611 203,263.5C 204.579,269.238 206.746,274.738 209.5,280C 207.088,287.57 205.754,295.404 205.5,303.5C 192.5,303.5 179.5,303.5 166.5,303.5C 172.524,286.97 174.858,269.97 173.5,252.5C 173.5,251.5 173.5,250.5 173.5,249.5C 176.059,249.198 178.393,249.532 180.5,250.5 Z"/></g>
<g><path style="opacity:1" fill="#7c80b3" d="M 214.5,248.5 C 215.629,250.628 215.796,252.961 215,255.5C 214.196,256.804 213.029,257.471 211.5,257.5C 205.678,255.893 200.012,253.893 194.5,251.5C 194.624,250.893 194.957,250.56 195.5,250.5C 201.93,252.005 208.263,251.338 214.5,248.5 Z"/></g>
<g><path style="opacity:1" fill="#2d283a" d="M 323.5,264.5 C 322.01,266.28 320.01,266.946 317.5,266.5C 315.539,264.037 313.372,261.703 311,259.5C 310.517,258.552 310.351,257.552 310.5,256.5C 311.507,255.172 312.84,254.172 314.5,253.5C 319.431,255.748 322.431,259.415 323.5,264.5 Z"/></g>
<g><path style="opacity:1" fill="#d9696f" d="M 310.5,256.5 C 310.351,257.552 310.517,258.552 311,259.5C 313.372,261.703 315.539,264.037 317.5,266.5C 299.605,278.064 282.272,290.397 265.5,303.5C 261.296,301.967 257.963,299.3 255.5,295.5C 273.161,281.7 291.328,268.367 310,255.5C 310.399,255.728 310.565,256.062 310.5,256.5 Z"/></g>
<g><path style="opacity:1" fill="#393750" d="M 222.5,249.5 C 223.82,250.942 225.486,251.608 227.5,251.5C 228.221,255.934 229.388,260.268 231,264.5C 233.831,269.238 236.831,273.571 240,277.5C 238.077,278.316 236.077,278.983 234,279.5C 228.315,276.202 222.148,274.368 215.5,274C 213.765,271.363 212.432,268.53 211.5,265.5C 220.107,263.632 223.774,258.298 222.5,249.5 Z"/></g>
<g><path style="opacity:1" fill="#d85a68" d="M 344.5,277.5 C 347.273,281.534 349.94,285.7 352.5,290C 343.926,301.676 344.926,312.509 355.5,322.5C 349.148,326.007 343.148,330.007 337.5,334.5C 329.891,329.354 322.224,324.187 314.5,319C 309.261,316.213 303.928,313.713 298.5,311.5C 298.511,309.983 299.177,308.816 300.5,308C 315.021,297.577 329.688,287.41 344.5,277.5 Z"/></g>
<g><path style="opacity:1" fill="#7a7eb2" d="M 217.5,282.5 C 222.957,281.895 226.957,283.895 229.5,288.5C 229.471,290.029 228.804,291.196 227.5,292C 223,295.167 218.5,298.333 214,301.5C 214.087,296.527 214.421,291.527 215,286.5C 215.662,285.016 216.496,283.683 217.5,282.5 Z"/></g>
<g><path style="opacity:1" fill="#bf3638" d="M 166.5,303.5 C 179.5,303.5 192.5,303.5 205.5,303.5C 205.66,305.199 205.494,306.866 205,308.5C 191.525,322.813 180.025,338.48 170.5,355.5C 172.314,342.172 168.314,331.172 158.5,322.5C 161.168,316.162 163.835,309.828 166.5,303.5 Z"/></g>
<g><path style="opacity:1" fill="#3d3b55" d="M 356.5,297.5 C 364.079,302.37 366.912,309.37 365,318.5C 355.266,314.273 352.433,307.273 356.5,297.5 Z"/></g>
<g><path style="opacity:1" fill="#d65063" d="M 355.5,322.5 C 358.208,324.353 361.208,325.353 364.5,325.5C 361.875,348.323 352.875,351.323 337.5,334.5C 343.148,330.007 349.148,326.007 355.5,322.5 Z"/></g>
<g><path style="opacity:1" fill="#bf3338" d="M 235.5,358.5 C 230.695,357.513 225.695,357.179 220.5,357.5C 211.062,348.695 204.396,338.029 200.5,325.5C 207.255,316.077 215.588,308.41 225.5,302.5C 224.318,319.754 227.818,336.087 236,351.5C 236.796,354.039 236.629,356.372 235.5,358.5 Z"/></g>
<g><path style="opacity:1" fill="#bd3236" d="M 263.5,312.5 C 266.778,313.809 269.778,315.642 272.5,318C 274.657,318.078 276.657,318.245 278.5,318.5C 273.883,331.432 272.05,344.765 273,358.5C 275.659,362.474 277.159,366.808 277.5,371.5C 271.833,371.5 266.167,371.5 260.5,371.5C 262.618,365.91 264.785,360.244 267,354.5C 268.372,340.258 267.205,326.258 263.5,312.5 Z"/></g>
<g><path style="opacity:1" fill="#b93137" d="M 371.5,363.5 C 370.539,361.735 370.205,359.735 370.5,357.5C 362.648,357.175 354.982,357.508 347.5,358.5C 345.697,355.232 344.197,351.899 343,348.5C 349.031,353.317 355.531,353.817 362.5,350C 365.543,347.407 367.71,344.24 369,340.5C 370.117,341.949 370.784,343.616 371,345.5C 371.499,351.491 371.666,357.491 371.5,363.5 Z"/></g>
<g><path style="opacity:1" fill="#d75765" d="M 158.5,322.5 C 168.314,331.172 172.314,342.172 170.5,355.5C 165.524,365.779 160.857,376.112 156.5,386.5C 150.167,386.5 143.833,386.5 137.5,386.5C 138.253,372.053 141.086,358.053 146,344.5C 150.03,336.999 154.197,329.666 158.5,322.5 Z"/></g>
<g><path style="opacity:1" fill="#c03132" d="M 371.5,363.5 C 371.724,367.179 372.058,370.846 372.5,374.5C 364.703,370.768 357.036,366.768 349.5,362.5C 348.326,361.486 347.66,360.153 347.5,358.5C 354.982,357.508 362.648,357.175 370.5,357.5C 370.205,359.735 370.539,361.735 371.5,363.5 Z"/></g>
<g><path style="opacity:1" fill="#bd2c32" d="M 220.5,357.5 C 225.695,357.179 230.695,357.513 235.5,358.5C 232.569,370.659 230.735,382.992 230,395.5C 229.252,397.751 227.752,399.084 225.5,399.5C 220.706,400.097 216.373,399.43 212.5,397.5C 214.43,393.734 217.264,390.734 221,388.5C 222.124,378.851 222.457,369.185 222,359.5C 221.283,358.956 220.783,358.289 220.5,357.5 Z"/></g>
<g><path style="opacity:1" fill="#d75063" d="M 137.5,386.5 C 143.833,386.5 150.167,386.5 156.5,386.5C 152.341,400.144 148.674,413.81 145.5,427.5C 139.021,426.509 132.354,426.176 125.5,426.5C 130.122,413.345 134.122,400.012 137.5,386.5 Z"/></g>
<g><path style="opacity:1" fill="#d65163" d="M 349.5,362.5 C 357.036,366.768 364.703,370.768 372.5,374.5C 375.42,392.507 380.087,410.173 386.5,427.5C 380.401,426.194 374.401,426.194 368.5,427.5C 364.021,405.385 357.687,383.718 349.5,362.5 Z"/></g>
<g><path style="opacity:1" fill="#8c2532" d="M 212.5,397.5 C 216.373,399.43 220.706,400.097 225.5,399.5C 221.03,400.486 216.363,400.819 211.5,400.5C 211.263,399.209 211.596,398.209 212.5,397.5 Z"/></g>
<g><path style="opacity:1" fill="#d64a5c" d="M 125.5,426.5 C 132.354,426.176 139.021,426.509 145.5,427.5C 143.863,438.867 142.03,450.201 140,461.5C 136.824,468.669 131.324,472.836 123.5,474C 119.848,474.499 116.182,474.665 112.5,474.5C 112.336,471.813 112.503,469.146 113,466.5C 115.341,463.329 117.841,460.329 120.5,457.5C 118.973,453.282 116.306,452.449 112.5,455C 106.446,460.066 103.78,466.566 104.5,474.5C 101.022,474.816 97.6883,474.316 94.5,473C 93.4238,471.274 93.2571,469.441 94,467.5C 98.8438,456.989 106.177,448.655 116,442.5C 119.445,437.268 122.611,431.935 125.5,426.5 Z"/></g>
<g><path style="opacity:1" fill="#d64a5c" d="M 386.5,427.5 C 390.161,437.661 396.828,445.161 406.5,450C 413.417,455.675 417.251,462.842 418,471.5C 415.016,474.1 411.516,475.1 407.5,474.5C 407.571,464.301 402.904,457.301 393.5,453.5C 392.558,453.608 391.725,453.941 391,454.5C 390.333,456.167 390.333,457.833 391,459.5C 396.634,462.956 399.468,467.956 399.5,474.5C 390.442,476.431 383.275,473.764 378,466.5C 372.913,453.988 369.747,440.988 368.5,427.5C 374.401,426.194 380.401,426.194 386.5,427.5 Z"/></g>
</svg>
