<?xml version="1.0" encoding="UTF-8"?>
<!DOCTYPE svg PUBLIC "-//W3C//DTD SVG 1.1//EN" "http://www.w3.org/Graphics/SVG/1.1/DTD/svg11.dtd">
<svg xmlns="http://www.w3.org/2000/svg" version="1.1" width="512px" height="512px" style="shape-rendering:geometricPrecision; text-rendering:geometricPrecision; image-rendering:optimizeQuality; fill-rule:evenodd; clip-rule:evenodd" xmlns:xlink="http://www.w3.org/1999/xlink">
<g><path style="opacity:1" fill="#282638" d="M 272.5,30.5 C 274.792,30.2436 276.959,30.5769 279,31.5C 287.338,52.6792 282.172,69.5125 263.5,82C 253.495,85.3337 243.495,88.6671 233.5,92C 238.43,96.6509 243.264,101.484 248,106.5C 255.804,117.271 263.971,127.771 272.5,138C 277.821,141.381 283.487,143.881 289.5,145.5C 290.762,147.575 290.595,149.575 289,151.5C 287.127,153.709 284.96,155.542 282.5,157C 301.219,176.936 313.219,200.436 318.5,227.5C 328.055,229.741 337.222,233.074 346,237.5C 351.65,231.403 354.483,224.069 354.5,215.5C 354.306,210.723 353.473,206.057 352,201.5C 342.269,181.244 337.935,159.911 339,137.5C 343.023,109.809 357.523,89.6426 382.5,77C 416.894,61.8893 449.561,64.8893 480.5,86C 502.879,102.925 511.045,125.092 505,152.5C 497.465,171.029 483.965,182.862 464.5,188C 451.885,191.018 439.218,191.185 426.5,188.5C 429.239,199.401 436.239,205.568 447.5,207C 449.595,211.426 448.261,213.926 443.5,214.5C 439.612,214.278 435.946,213.278 432.5,211.5C 432.894,215.267 434.727,218.6 438,221.5C 438.664,226.496 436.498,228.33 431.5,227C 423.81,220.27 420.643,211.77 422,201.5C 419.143,196.095 416.976,190.429 415.5,184.5C 398.032,176.248 392.865,163.248 400,145.5C 403.21,141.813 407.044,138.979 411.5,137C 425.126,132.411 439.126,130.577 453.5,131.5C 454.117,123.562 450.784,118.062 443.5,115C 415.915,108.542 396.748,118.376 386,144.5C 384,153.167 384,161.833 386,170.5C 391.405,180.255 396.405,190.255 401,200.5C 411.684,226.666 410.684,252.332 398,277.5C 393.065,285.434 387.065,292.434 380,298.5C 379.598,307.315 378.265,315.981 376,324.5C 372.169,333.661 367.669,342.494 362.5,351C 367.833,360.333 375.167,367.667 384.5,373C 389.564,377.128 392.231,382.462 392.5,389C 389.474,405.521 390.141,421.855 394.5,438C 393.811,442.733 392.311,447.233 390,451.5C 384.238,457.259 379.238,463.592 375,470.5C 367.251,478.65 357.751,481.984 346.5,480.5C 342.5,480.333 338.5,480.167 334.5,480C 331.425,469.223 334.425,460.223 343.5,453C 347.291,451.2 350.457,448.7 353,445.5C 353.667,436.5 353.667,427.5 353,418.5C 352.194,415.554 350.861,412.888 349,410.5C 348.647,411.672 348.813,412.838 349.5,414C 349.223,415.892 348.223,417.225 346.5,418C 335.16,419.275 324.16,418.275 313.5,415C 312.206,417.087 311.039,419.254 310,421.5C 307.483,430.573 304.816,439.573 302,448.5C 296.365,453.133 291.032,458.133 286,463.5C 282.312,471.858 276.146,477.358 267.5,480C 241.873,486.718 235.373,478.551 248,455.5C 254.481,449.596 261.148,443.929 268,438.5C 273.234,429.575 273.901,420.242 270,410.5C 268.107,405.713 265.94,401.047 263.5,396.5C 249.414,390.02 241.414,379.02 239.5,363.5C 238.252,364.04 237.085,364.707 236,365.5C 233.974,378.632 231.307,391.632 228,404.5C 226.416,410.254 224.25,415.754 221.5,421C 219.5,421.667 217.5,421.667 215.5,421C 214.37,418.572 212.87,416.405 211,414.5C 208.772,419.766 204.938,421.933 199.5,421C 189.613,409.278 178.613,398.778 166.5,389.5C 162.691,392.142 159.024,394.975 155.5,398C 148.124,400.373 142.958,405.206 140,412.5C 133.083,428.417 129.75,445.084 130,462.5C 127.5,471.667 121.667,477.5 112.5,480C 101.833,480.667 91.1667,480.667 80.5,480C 79.5697,478.806 78.9031,477.473 78.5,476C 78.9243,469.727 80.7577,463.894 84,458.5C 87.7208,454.779 91.3874,451.113 95,447.5C 97.6516,424.304 93.8183,402.304 83.5,381.5C 76.2257,377.446 70.059,372.113 65,365.5C 61.3253,371.911 55.992,374.578 49,373.5C 47.9543,367.358 46.2876,361.358 44,355.5C 35.1154,344.013 30.9487,331.013 31.5,316.5C 28.2011,317.376 24.8678,317.543 21.5,317C 20.8742,316.25 20.3742,315.416 20,314.5C 19.123,304.415 19.623,294.415 21.5,284.5C 16.7112,284.376 12.0445,283.542 7.5,282C 4.12475,280.971 2.95808,278.804 4,275.5C 7.01376,273.481 9.68043,271.148 12,268.5C 12.0582,251.892 17.5582,237.392 28.5,225C 20.3529,222.224 16.1863,216.724 16,208.5C 19.6031,206.877 23.4365,205.71 27.5,205C 30.4326,203.729 33.0993,202.062 35.5,200C 43.8789,187.288 54.5455,176.954 67.5,169C 78.8044,161.735 90.1377,161.735 101.5,169C 105.974,171.973 110.307,175.14 114.5,178.5C 126.449,168.692 140.115,163.026 155.5,161.5C 160.036,161.3 164.369,162.133 168.5,164C 174.291,168.122 179.791,172.622 185,177.5C 187.731,164.681 184.897,153.181 176.5,143C 171.79,142.625 167.123,141.958 162.5,141C 157.119,138.893 151.952,136.393 147,133.5C 141.733,132.137 136.4,131.137 131,130.5C 125.129,138.356 117.295,143.023 107.5,144.5C 102.551,143.298 101.218,140.298 103.5,135.5C 96.6978,135.513 90.8645,133.18 86,128.5C 85.3486,126.765 85.5153,125.098 86.5,123.5C 100.311,116.521 110.145,105.854 116,91.5C 118.778,88.1929 122.278,86.0262 126.5,85C 138.157,83.5937 149.824,82.2603 161.5,81C 172.27,77.0573 183.27,73.8906 194.5,71.5C 200.936,62.7793 209.603,57.9459 220.5,57C 230.411,56.1819 240.244,56.3485 250,57.5C 257.207,56.5628 262.54,52.8961 266,46.5C 268.663,41.3383 270.83,36.0049 272.5,30.5 Z"/></g>
<g><path style="opacity:1" fill="#eea28b" d="M 273.5,49.5 C 274.604,57.6744 271.938,64.6744 265.5,70.5C 262.144,68.7816 260.644,66.115 261,62.5C 266.717,59.6172 270.884,55.2839 273.5,49.5 Z"/></g>
<g><path style="opacity:1" fill="#f7a189" d="M 254.5,70.5 C 250.03,71.4861 245.363,71.8195 240.5,71.5C 239.532,69.3926 239.198,67.0593 239.5,64.5C 244.13,65.2295 248.797,65.5628 253.5,65.5C 253.629,67.2161 253.962,68.8828 254.5,70.5 Z"/></g>
<g><path style="opacity:1" fill="#ec9985" d="M 231.5,71.5 C 227.733,73.8975 224.067,76.5642 220.5,79.5C 216.357,76.2176 214.023,71.8843 213.5,66.5C 219.384,64.9345 225.384,64.2678 231.5,64.5C 231.5,66.8333 231.5,69.1667 231.5,71.5 Z"/></g>
<g><path style="opacity:1" fill="#c76758" d="M 254.5,70.5 C 255.596,72.1032 256.93,73.6032 258.5,75C 254.41,76.6969 250.243,78.1969 246,79.5C 242.928,77.6905 241.095,75.0238 240.5,71.5C 245.363,71.8195 250.03,71.4861 254.5,70.5 Z"/></g>
<g><path style="opacity:1" fill="#ed9380" d="M 215.5,85.5 C 214.538,90.7897 211.538,94.1231 206.5,95.5C 196.838,91.5937 195.005,85.2603 201,76.5C 202.667,74.8333 204.333,73.1667 206,71.5C 208.436,76.7182 211.602,81.3849 215.5,85.5 Z"/></g>
<g><path style="opacity:1" fill="#bb5b4c" d="M 231.5,71.5 C 232.681,74.8382 234.347,78.0049 236.5,81C 230.659,84.6615 225.326,84.1615 220.5,79.5C 224.067,76.5642 227.733,73.8975 231.5,71.5 Z"/></g>
<g><path style="opacity:1" fill="#7d876d" d="M 431.5,76.5 C 455.155,78.0082 474.322,88.0082 489,106.5C 499.767,122.5 501.433,139.5 494,157.5C 487.201,168.127 477.701,175.127 465.5,178.5C 460.265,171.041 455.265,163.374 450.5,155.5C 453.568,153.506 454.235,150.839 452.5,147.5C 451.565,145.139 450.232,142.972 448.5,141C 452.486,140.501 456.486,140.334 460.5,140.5C 465.894,141.934 471.227,141.767 476.5,140C 480.444,137.162 481.777,133.495 480.5,129C 478.833,128.333 477.167,128.333 475.5,129C 474.547,130.955 473.213,132.622 471.5,134C 468.032,134.434 464.698,133.934 461.5,132.5C 462.701,120.738 458.034,112.405 447.5,107.5C 441.952,97.2726 435.952,87.2726 429.5,77.5C 429.957,76.7025 430.624,76.3691 431.5,76.5 Z"/></g>
<g><path style="opacity:1" fill="#767e65" d="M 431.5,76.5 C 430.624,76.3691 429.957,76.7025 429.5,77.5C 435.952,87.2726 441.952,97.2726 447.5,107.5C 429.038,101.452 412.038,104.119 396.5,115.5C 395.178,115.67 394.011,115.337 393,114.5C 387.822,106.139 382.656,97.8053 377.5,89.5C 393.973,78.2139 411.973,73.8805 431.5,76.5 Z"/></g>
<g><path style="opacity:1" fill="#d1b9d0" d="M 200.5,101.5 C 200.5,102.167 200.5,102.833 200.5,103.5C 197.956,100.693 196.956,101.36 197.5,105.5C 194.053,104.065 191.72,105.232 190.5,109C 193.283,112.566 195.283,116.566 196.5,121C 196.167,121.5 195.833,122 195.5,122.5C 191.65,120.702 187.65,119.869 183.5,120C 182.896,123.501 182.563,127.001 182.5,130.5C 177.96,133.624 172.96,134.791 167.5,134C 160.833,131 154.167,128 147.5,125C 139.871,123.206 132.204,122.706 124.5,123.5C 121.833,128.167 118.167,131.833 113.5,134.5C 113.025,131.074 112.025,127.908 110.5,125C 106.603,125.953 102.603,126.287 98.5,126C 105.125,121.709 110.791,116.376 115.5,110C 128.505,110.348 137.172,104.515 141.5,92.5C 148.701,90.7443 156.035,89.5777 163.5,89C 172.396,85.9771 181.396,83.4771 190.5,81.5C 189.071,90.643 192.405,97.3096 200.5,101.5 Z"/></g>
<g><path style="opacity:1" fill="#aa4c3f" d="M 215.5,85.5 C 217.615,87.8907 220.281,89.2241 223.5,89.5C 220.765,99.196 215.099,101.196 206.5,95.5C 211.538,94.1231 214.538,90.7897 215.5,85.5 Z"/></g>
<g><path style="opacity:1" fill="#2b293c" d="M 164.5,96.5 C 167.518,96.3354 170.518,96.502 173.5,97C 174.935,99.2672 174.602,101.267 172.5,103C 169.824,103.74 167.158,104.073 164.5,104C 161.914,101.506 161.914,99.006 164.5,96.5 Z"/></g>
<g><path style="opacity:1" fill="#9c7a8e" d="M 236.5,106.5 C 235.209,106.263 234.209,106.596 233.5,107.5C 225.958,109.424 218.291,109.924 210.5,109C 206.689,107.93 203.356,106.097 200.5,103.5C 200.5,102.833 200.5,102.167 200.5,101.5C 207.795,105.603 215.462,106.436 223.5,104C 225.351,102.316 227.018,100.483 228.5,98.5C 231.521,100.854 234.188,103.521 236.5,106.5 Z"/></g>
<g><path style="opacity:1" fill="#dfc7de" d="M 200.5,103.5 C 203.356,106.097 206.689,107.93 210.5,109C 218.291,109.924 225.958,109.424 233.5,107.5C 233.168,139.338 233.502,171.004 234.5,202.5C 233.068,204.647 231.235,204.98 229,203.5C 226.234,196.801 223.067,190.301 219.5,184C 218.216,183.316 217.049,183.483 216,184.5C 215.023,187.102 213.856,189.602 212.5,192C 211.167,192.667 209.833,192.667 208.5,192C 204.67,184.815 200.003,178.315 194.5,172.5C 195.147,162.088 192.813,152.421 187.5,143.5C 189.762,142.177 192.096,140.843 194.5,139.5C 195.788,136.966 195.788,134.466 194.5,132C 198.035,131.93 201.035,133.263 203.5,136C 208.59,136.829 210.424,134.662 209,129.5C 207.997,126.16 206.497,123.16 204.5,120.5C 202.438,115.375 200.104,110.375 197.5,105.5C 196.956,101.36 197.956,100.693 200.5,103.5 Z"/></g>
<g><path style="opacity:1" fill="#e7cee6" d="M 236.5,106.5 C 244.851,116.027 252.684,126.027 260,136.5C 264.629,142.135 270.129,146.635 276.5,150C 271.534,149.631 269.367,151.798 270,156.5C 282.435,167.083 291.935,179.75 298.5,194.5C 298.418,200.075 297.252,205.409 295,210.5C 294.439,211.022 293.772,211.355 293,211.5C 285.967,207.476 279.801,202.309 274.5,196C 273.207,195.51 271.873,195.343 270.5,195.5C 270.436,200.193 270.769,204.859 271.5,209.5C 271.977,213.518 270.31,215.351 266.5,215C 262.008,212.002 257.675,208.835 253.5,205.5C 248.426,199.604 243.593,193.604 239,187.5C 238.228,187.645 237.561,187.978 237,188.5C 235.525,193.063 234.692,197.73 234.5,202.5C 233.502,171.004 233.168,139.338 233.5,107.5C 234.209,106.596 235.209,106.263 236.5,106.5 Z"/></g>
<g><path style="opacity:1" fill="#6b7159" d="M 377.5,89.5 C 382.656,97.8053 387.822,106.139 393,114.5C 394.011,115.337 395.178,115.67 396.5,115.5C 375.97,133.289 370.636,154.956 380.5,180.5C 369.763,164.825 359.097,148.492 348.5,131.5C 352.217,113.401 361.884,99.4009 377.5,89.5 Z"/></g>
<g><path style="opacity:1" fill="#ad839a" d="M 204.5,120.5 C 206.497,123.16 207.997,126.16 209,129.5C 210.424,134.662 208.59,136.829 203.5,136C 201.035,133.263 198.035,131.93 194.5,132C 195.788,134.466 195.788,136.966 194.5,139.5C 192.096,140.843 189.762,142.177 187.5,143.5C 186.404,141.897 185.07,140.397 183.5,139C 185.667,137.5 187.833,136 190,134.5C 191.009,132.975 191.509,131.308 191.5,129.5C 195.163,130.341 198.83,130.841 202.5,131C 203,130.5 203.5,130 204,129.5C 204.498,126.518 204.665,123.518 204.5,120.5 Z"/></g>
<g><path style="opacity:1" fill="#686856" d="M 348.5,131.5 C 359.097,148.492 369.763,164.825 380.5,180.5C 383.068,185.767 384.568,191.433 385,197.5C 385.821,204.679 385.655,211.679 384.5,218.5C 384.741,215.206 383.908,212.206 382,209.5C 371,192.167 360,174.833 349,157.5C 348.506,159.134 348.34,160.801 348.5,162.5C 347.133,157.059 346.467,151.392 346.5,145.5C 346.354,140.576 347.021,135.909 348.5,131.5 Z"/></g>
<g><path style="opacity:1" fill="#727962" d="M 460.5,140.5 C 456.486,140.334 452.486,140.501 448.5,141C 450.232,142.972 451.565,145.139 452.5,147.5C 448.541,147.071 445.041,148.071 442,150.5C 441.175,152.701 441.675,154.534 443.5,156C 445.797,156.018 448.131,155.851 450.5,155.5C 455.265,163.374 460.265,171.041 465.5,178.5C 463.723,179.6 461.723,180.434 459.5,181C 448.441,181.906 437.441,181.573 426.5,180C 425.484,179.481 424.818,178.647 424.5,177.5C 424.963,173.921 426.463,170.921 429,168.5C 435.924,171.293 443.091,172.126 450.5,171C 453.167,169 453.167,167 450.5,165C 441.466,164.575 432.8,162.575 424.5,159C 419.167,158.333 413.833,158.333 408.5,159C 407.234,159.309 406.067,159.809 405,160.5C 404.21,157.366 404.543,154.366 406,151.5C 412.941,144.401 421.441,140.567 431.5,140C 441.342,139.175 451.009,139.342 460.5,140.5 Z"/></g>
<g><path style="opacity:1" fill="#292839" d="M 452.5,147.5 C 454.235,150.839 453.568,153.506 450.5,155.5C 448.131,155.851 445.797,156.018 443.5,156C 441.675,154.534 441.175,152.701 442,150.5C 445.041,148.071 448.541,147.071 452.5,147.5 Z"/></g>
<g><path style="opacity:1" fill="#636950" d="M 384.5,218.5 C 384.247,222.04 383.581,225.373 382.5,228.5C 373.833,215.167 365.167,201.833 356.5,188.5C 352.61,180.292 349.944,171.625 348.5,162.5C 348.34,160.801 348.506,159.134 349,157.5C 360,174.833 371,192.167 382,209.5C 383.908,212.206 384.741,215.206 384.5,218.5 Z"/></g>
<g><path style="opacity:1" fill="#696e59" d="M 411.5,165.5 C 414.5,165.5 417.5,165.5 420.5,165.5C 419.115,168.659 418.115,171.992 417.5,175.5C 413.303,174.227 409.97,171.727 407.5,168C 409.066,167.392 410.4,166.558 411.5,165.5 Z"/></g>
<g><path style="opacity:1" fill="#f8755c" d="M 168.5,174.5 C 170.995,179.488 173.995,184.155 177.5,188.5C 175.557,191.919 172.557,194.085 168.5,195C 167.619,195.708 166.953,196.542 166.5,197.5C 159.1,199.252 151.433,200.085 143.5,200C 110.501,200.95 77.5012,201.784 44.5,202.5C 53.5205,188.822 65.5205,178.655 80.5,172C 83.1667,171.333 85.8333,171.333 88.5,172C 97.0204,175.756 104.687,180.756 111.5,187C 113.5,187.667 115.5,187.667 117.5,187C 130.075,175.705 144.741,170.038 161.5,170C 164.239,171.026 166.572,172.526 168.5,174.5 Z"/></g>
<g><path style="opacity:1" fill="#dd482c" d="M 168.5,174.5 C 176.481,180.81 184.481,187.143 192.5,193.5C 189.887,195.718 186.887,197.385 183.5,198.5C 182.369,200.074 182.202,201.741 183,203.5C 188.224,205.802 193.391,208.302 198.5,211C 201.754,213.747 204.42,216.914 206.5,220.5C 201.493,220.249 196.493,219.916 191.5,219.5C 191.167,219.5 190.833,219.5 190.5,219.5C 184.842,210.983 177.176,204.817 167.5,201C 166.663,199.989 166.33,198.822 166.5,197.5C 166.953,196.542 167.619,195.708 168.5,195C 172.557,194.085 175.557,191.919 177.5,188.5C 173.995,184.155 170.995,179.488 168.5,174.5 Z"/></g>
<g><path style="opacity:1" fill="#626250" d="M 356.5,188.5 C 365.167,201.833 373.833,215.167 382.5,228.5C 381.001,235.331 378.334,241.665 374.5,247.5C 367.697,245.435 362.364,241.435 358.5,235.5C 362.643,225.12 363.476,214.453 361,203.5C 359.339,198.515 357.839,193.515 356.5,188.5 Z"/></g>
<g><path style="opacity:1" fill="#f96f5c" d="M 166.5,197.5 C 166.33,198.822 166.663,199.989 167.5,201C 177.176,204.817 184.842,210.983 190.5,219.5C 140.854,221.301 91.1873,222.635 41.5,223.5C 42.9339,220.889 44.6006,218.389 46.5,216C 45.7707,212.641 43.7707,211.308 40.5,212C 36.7299,218.517 32.0633,219.183 26.5,214C 33.7568,211.887 39.7568,208.053 44.5,202.5C 77.5012,201.784 110.501,200.95 143.5,200C 151.433,200.085 159.1,199.252 166.5,197.5 Z"/></g>
<g><path style="opacity:1" fill="#9f7d91" d="M 194.5,172.5 C 200.003,178.315 204.67,184.815 208.5,192C 209.833,192.667 211.167,192.667 212.5,192C 213.856,189.602 215.023,187.102 216,184.5C 217.049,183.483 218.216,183.316 219.5,184C 223.067,190.301 226.234,196.801 229,203.5C 231.235,204.98 233.068,204.647 234.5,202.5C 234.692,197.73 235.525,193.063 237,188.5C 237.561,187.978 238.228,187.645 239,187.5C 243.593,193.604 248.426,199.604 253.5,205.5C 253.389,206.117 253.056,206.617 252.5,207C 239.561,210.814 226.561,214.314 213.5,217.5C 209.661,210.161 203.994,204.661 196.5,201C 199.513,199.321 201.846,196.987 203.5,194C 201.32,190.321 198.32,187.487 194.5,185.5C 193.577,181.194 193.577,176.861 194.5,172.5 Z"/></g>
<g><path style="opacity:1" fill="#96758c" d="M 298.5,194.5 C 303.94,204.821 307.607,215.821 309.5,227.5C 306.729,227.579 304.063,227.079 301.5,226C 295.412,223.058 289.746,219.558 284.5,215.5C 282.971,215.529 281.804,216.196 281,217.5C 281.017,221.475 281.184,225.475 281.5,229.5C 267.082,230.627 256.415,224.96 249.5,212.5C 246.527,210.782 244.36,211.449 243,214.5C 242.462,219.171 241.962,223.838 241.5,228.5C 232.985,227.525 224.652,225.692 216.5,223C 215.361,221.22 214.361,219.386 213.5,217.5C 226.561,214.314 239.561,210.814 252.5,207C 253.056,206.617 253.389,206.117 253.5,205.5C 257.675,208.835 262.008,212.002 266.5,215C 270.31,215.351 271.977,213.518 271.5,209.5C 270.769,204.859 270.436,200.193 270.5,195.5C 271.873,195.343 273.207,195.51 274.5,196C 279.801,202.309 285.967,207.476 293,211.5C 293.772,211.355 294.439,211.022 295,210.5C 297.252,205.409 298.418,200.075 298.5,194.5 Z"/></g>
<g><path style="opacity:1" fill="#f86756" d="M 190.5,219.5 C 190.833,219.5 191.167,219.5 191.5,219.5C 196.819,229.483 199.819,240.15 200.5,251.5C 188.375,253.174 176.042,253.841 163.5,253.5C 159.36,245.359 153.027,239.692 144.5,236.5C 140.657,232.578 135.99,230.245 130.5,229.5C 123.798,229.939 117.631,231.939 112,235.5C 104.628,231.369 96.7945,229.536 88.5,230C 76.4787,237.705 68.6454,248.538 65,262.5C 64.2516,264.84 64.7516,266.84 66.5,268.5C 51.2289,269.292 35.8956,269.959 20.5,270.5C 21.0438,263.469 21.8771,256.469 23,249.5C 27.4771,239.54 33.6438,230.873 41.5,223.5C 91.1873,222.635 140.854,221.301 190.5,219.5 Z"/></g>
<g><path style="opacity:1" fill="#ecb4ae" d="M 393.5,206.5 C 397.648,214.556 399.648,223.222 399.5,232.5C 395.576,233.035 392.576,231.701 390.5,228.5C 392.927,221.386 393.927,214.053 393.5,206.5 Z"/></g>
<g><path style="opacity:1" fill="#2a2739" d="M 144.5,236.5 C 151.664,244.328 156.331,253.495 158.5,264C 158.167,265.167 157.833,266.333 157.5,267.5C 154.668,268.58 151.835,269.58 149,270.5C 150.212,277.067 150.545,283.733 150,290.5C 149.48,294.735 147.48,298.068 144,300.5C 142.975,307.436 140.141,313.436 135.5,318.5C 133.132,321.353 130.132,322.519 126.5,322C 123.999,315.997 121.999,309.831 120.5,303.5C 118.784,303.371 117.117,303.038 115.5,302.5C 114.312,301.636 113.145,300.636 112,299.5C 109.857,301.471 107.357,302.804 104.5,303.5C 102.379,306.862 101.045,310.529 100.5,314.5C 99.3995,316.277 98.5662,318.277 98,320.5C 96.062,322.978 93.8953,323.145 91.5,321C 87.886,317.897 84.886,314.397 82.5,310.5C 81.9808,304.985 79.8141,300.318 76,296.5C 72.8399,288.25 72.6732,279.916 75.5,271.5C 72.6957,269.899 69.6957,268.899 66.5,268.5C 64.7516,266.84 64.2516,264.84 65,262.5C 68.6454,248.538 76.4787,237.705 88.5,230C 96.7945,229.536 104.628,231.369 112,235.5C 117.631,231.939 123.798,229.939 130.5,229.5C 135.99,230.245 140.657,232.578 144.5,236.5 Z"/></g>
<g><path style="opacity:1" fill="#df3f25" d="M 191.5,219.5 C 196.493,219.916 201.493,220.249 206.5,220.5C 208.683,224.211 210.183,228.211 211,232.5C 211.01,242.281 211.844,251.947 213.5,261.5C 209.865,260.886 206.198,260.552 202.5,260.5C 202.142,257.311 201.475,254.311 200.5,251.5C 199.819,240.15 196.819,229.483 191.5,219.5 Z"/></g>
<g><path style="opacity:1" fill="#f9ce99" d="M 361.5,265.5 C 319.003,266.499 276.337,266.832 233.5,266.5C 229.976,262.119 227.476,257.119 226,251.5C 224.926,245.045 223.426,238.712 221.5,232.5C 229.606,235.184 237.939,236.351 246.5,236C 249.027,233.426 250.194,230.26 250,226.5C 261.659,235.895 274.659,238.895 289,235.5C 289.333,233.167 289.667,230.833 290,228.5C 293.636,230.734 297.469,232.568 301.5,234C 324.281,234.027 343.114,242.527 358,259.5C 359.421,261.405 360.588,263.405 361.5,265.5 Z"/></g>
<g><path style="opacity:1" fill="#f6c593" d="M 128.5,237.5 C 129.601,236.402 130.934,236.235 132.5,237C 140.975,243.314 146.975,251.481 150.5,261.5C 146.894,262.608 143.394,263.941 140,265.5C 139.949,268.277 139.782,270.943 139.5,273.5C 132.374,269.481 124.708,267.481 116.5,267.5C 112.833,266.833 109.167,266.167 105.5,265.5C 107.205,261.065 106.539,257.065 103.5,253.5C 112.94,248.611 122.273,243.445 131.5,238C 130.552,237.517 129.552,237.351 128.5,237.5 Z"/></g>
<g><path style="opacity:1" fill="#f4aca1" d="M 398.5,252.5 C 392.788,252.687 387.121,252.354 381.5,251.5C 383.295,246.577 385.628,241.91 388.5,237.5C 391.793,239.882 395.46,240.882 399.5,240.5C 399.763,244.6 399.43,248.6 398.5,252.5 Z"/></g>
<g><path style="opacity:1" fill="#55504c" d="M 358.5,235.5 C 362.364,241.435 367.697,245.435 374.5,247.5C 372.066,250.438 369.399,253.271 366.5,256C 361.682,252.516 357.349,248.183 353.5,243C 354.812,240.193 356.479,237.693 358.5,235.5 Z"/></g>
<g><path style="opacity:1" fill="#302d3c" d="M 122.5,248.5 C 127.006,247.527 129.172,249.194 129,253.5C 125.282,256.405 121.115,257.905 116.5,258C 115.409,255.936 115.242,253.769 116,251.5C 118.294,250.578 120.461,249.578 122.5,248.5 Z"/></g>
<g><path style="opacity:1" fill="#f4cf9a" d="M 128.5,237.5 C 129.552,237.351 130.552,237.517 131.5,238C 122.273,243.445 112.94,248.611 103.5,253.5C 100.118,251.727 96.6178,250.06 93,248.5C 89.9277,249.447 88.9277,251.447 90,254.5C 92.1345,256.484 94.6345,257.818 97.5,258.5C 98.1997,262.326 97.1997,265.826 94.5,269C 90.5544,270.306 86.8878,272.139 83.5,274.5C 83.1667,274.167 82.8333,273.833 82.5,273.5C 84.1174,271.368 84.6174,269.035 84,266.5C 81.1586,264.494 77.9919,263.161 74.5,262.5C 76.4502,251.83 82.1168,243.33 91.5,237C 98.5868,238.139 105.42,240.306 112,243.5C 117.126,240.522 122.626,238.522 128.5,237.5 Z"/></g>
<g><path style="opacity:1" fill="#b1625b" d="M 381.5,251.5 C 387.121,252.354 392.788,252.687 398.5,252.5C 397.677,255.461 397.01,258.461 396.5,261.5C 389.366,261.366 384.366,258.033 381.5,251.5 Z"/></g>
<g><path style="opacity:1" fill="#de3821" d="M 144.5,236.5 C 153.027,239.692 159.36,245.359 163.5,253.5C 167.049,258.263 168.549,263.596 168,269.5C 163.293,270.677 158.627,272.01 154,273.5C 154.162,277.501 154.662,281.501 155.5,285.5C 156.262,292.639 153.762,298.306 148,302.5C 147.811,310.559 144.311,316.559 137.5,320.5C 136.287,320.253 135.62,319.586 135.5,318.5C 140.141,313.436 142.975,307.436 144,300.5C 147.48,298.068 149.48,294.735 150,290.5C 150.545,283.733 150.212,277.067 149,270.5C 151.835,269.58 154.668,268.58 157.5,267.5C 157.833,266.333 158.167,265.167 158.5,264C 156.331,253.495 151.664,244.328 144.5,236.5 Z"/></g>
<g><path style="opacity:1" fill="#f95e50" d="M 200.5,251.5 C 201.475,254.311 202.142,257.311 202.5,260.5C 202.047,261.458 201.381,262.292 200.5,263C 198.144,263.155 195.811,263.155 193.5,263C 192.426,263.739 191.759,264.739 191.5,266C 193.978,271.595 195.312,277.428 195.5,283.5C 193.369,284.314 191.036,284.814 188.5,285C 177.505,285.5 166.505,285.667 155.5,285.5C 154.662,281.501 154.162,277.501 154,273.5C 158.627,272.01 163.293,270.677 168,269.5C 168.549,263.596 167.049,258.263 163.5,253.5C 176.042,253.841 188.375,253.174 200.5,251.5 Z"/></g>
<g><path style="opacity:1" fill="#8c7164" d="M 105.5,265.5 C 109.167,266.167 112.833,266.833 116.5,267.5C 112.445,267.824 108.445,267.491 104.5,266.5C 104.624,265.893 104.957,265.56 105.5,265.5 Z"/></g>
<g><path style="opacity:1" fill="#f9c795" d="M 361.5,265.5 C 366.704,272.593 369.704,280.593 370.5,289.5C 370.5,290.5 370.5,291.5 370.5,292.5C 349.833,292.5 329.167,292.5 308.5,292.5C 307.167,292.5 305.833,292.5 304.5,292.5C 278.5,292.5 252.5,292.5 226.5,292.5C 226.714,290.856 226.38,289.356 225.5,288C 233.958,287.802 240.958,284.636 246.5,278.5C 240.852,275.85 236.519,271.85 233.5,266.5C 276.337,266.832 319.003,266.499 361.5,265.5 Z"/></g>
<g><path style="opacity:1" fill="#b05b57" d="M 375.5,257.5 C 379.521,263.69 385.188,267.69 392.5,269.5C 388.982,276.536 384.482,282.87 379,288.5C 377.162,279.985 374.328,271.818 370.5,264C 371.985,261.683 373.652,259.516 375.5,257.5 Z"/></g>
<g><path style="opacity:1" fill="#d79170" d="M 221.5,232.5 C 223.426,238.712 224.926,245.045 226,251.5C 227.476,257.119 229.976,262.119 233.5,266.5C 236.519,271.85 240.852,275.85 246.5,278.5C 240.958,284.636 233.958,287.802 225.5,288C 226.38,289.356 226.714,290.856 226.5,292.5C 224.34,290.436 222.007,290.102 219.5,291.5C 218.33,289.35 217.33,287.016 216.5,284.5C 222.09,283.029 227.257,280.695 232,277.5C 232.667,275.833 232.667,274.167 232,272.5C 226.026,268.198 222.026,262.532 220,255.5C 219.737,247.467 219.237,239.467 218.5,231.5C 219.791,231.263 220.791,231.596 221.5,232.5 Z"/></g>
<g><path style="opacity:1" fill="#f3c393" d="M 92.5,277.5 C 96.6781,278.145 100.011,280.312 102.5,284C 104.217,285.559 106.217,286.392 108.5,286.5C 109.037,289.972 108.037,292.805 105.5,295C 98.8333,297 92.1667,297 85.5,295C 80.1322,290.104 80.4656,285.437 86.5,281C 88.7274,280.059 90.7274,278.892 92.5,277.5 Z"/></g>
<g><path style="opacity:1" fill="#f4c393" d="M 127.5,277.5 C 133.72,278.212 138.553,281.212 142,286.5C 142.733,291.463 140.567,294.63 135.5,296C 130.5,296.667 125.5,296.667 120.5,296C 115.618,294.452 114.284,291.285 116.5,286.5C 121.082,284.581 124.749,281.581 127.5,277.5 Z"/></g>
<g><path style="opacity:1" fill="#f7584c" d="M 66.5,268.5 C 69.6957,268.899 72.6957,269.899 75.5,271.5C 72.6732,279.916 72.8399,288.25 76,296.5C 79.8141,300.318 81.9808,304.985 82.5,310.5C 68.8495,311.312 55.1829,311.645 41.5,311.5C 42.6209,307.526 44.4543,303.86 47,300.5C 47.9337,295.917 46.1004,294.417 41.5,296C 37.9539,301.213 33.4539,305.38 28,308.5C 26.2075,297.336 28.3742,287.003 34.5,277.5C 34.04,275.214 32.7067,273.881 30.5,273.5C 26.626,275.485 22.626,275.818 18.5,274.5C 19.1799,273.14 19.8466,271.807 20.5,270.5C 35.8956,269.959 51.2289,269.292 66.5,268.5 Z"/></g>
<g><path style="opacity:1" fill="#f9c08f" d="M 370.5,289.5 C 371.821,298.088 371.488,306.755 369.5,315.5C 346.142,316.156 323.142,315.49 300.5,313.5C 300.573,307.706 298.24,306.372 293.5,309.5C 292.5,311.813 291.166,313.813 289.5,315.5C 268.833,315.5 248.167,315.5 227.5,315.5C 227.799,307.747 227.466,300.08 226.5,292.5C 252.5,292.5 278.5,292.5 304.5,292.5C 301.055,298.94 302.889,301.273 310,299.5C 310.833,296.829 310.333,294.496 308.5,292.5C 329.167,292.5 349.833,292.5 370.5,292.5C 370.5,291.5 370.5,290.5 370.5,289.5 Z"/></g>
<g><path style="opacity:1" fill="#312d3c" d="M 304.5,292.5 C 305.833,292.5 307.167,292.5 308.5,292.5C 310.333,294.496 310.833,296.829 310,299.5C 302.889,301.273 301.055,298.94 304.5,292.5 Z"/></g>
<g><path style="opacity:1" fill="#db321c" d="M 115.5,302.5 C 113.087,304.051 110.421,304.717 107.5,304.5C 107.009,308.622 106.009,312.622 104.5,316.5C 103.311,317.429 101.978,317.762 100.5,317.5C 100.5,316.5 100.5,315.5 100.5,314.5C 101.045,310.529 102.379,306.862 104.5,303.5C 107.357,302.804 109.857,301.471 112,299.5C 113.145,300.636 114.312,301.636 115.5,302.5 Z"/></g>
<g><path style="opacity:1" fill="#c4cce2" d="M 88.5,303.5 C 90.9599,303.699 93.2933,304.365 95.5,305.5C 94.3906,307.385 93.5573,309.385 93,311.5C 90.6963,309.22 89.1963,306.554 88.5,303.5 Z"/></g>
<g><path style="opacity:1" fill="#df301b" d="M 202.5,260.5 C 206.198,260.552 209.865,260.886 213.5,261.5C 215.633,266.255 218.633,270.422 222.5,274C 215.825,277.006 210.825,275.34 207.5,269C 205.833,268.333 204.167,268.333 202.5,269C 201.941,269.725 201.608,270.558 201.5,271.5C 204.331,277.162 207.164,282.828 210,288.5C 215.489,304.49 214.155,319.824 206,334.5C 204.984,335.634 204.317,335.301 204,333.5C 203.118,330.211 202.452,326.877 202,323.5C 201.261,322.426 200.261,321.759 199,321.5C 196.719,322.776 194.719,324.443 193,326.5C 189.213,331.956 185.046,337.123 180.5,342C 165.572,339.473 151.572,341.973 138.5,349.5C 148.393,341.277 157.727,332.277 166.5,322.5C 172.843,315.005 178.843,307.172 184.5,299C 185.833,298.333 187.167,298.333 188.5,299C 190.85,302.051 193.35,302.217 196,299.5C 196.817,293.984 196.651,288.65 195.5,283.5C 195.312,277.428 193.978,271.595 191.5,266C 191.759,264.739 192.426,263.739 193.5,263C 195.811,263.155 198.144,263.155 200.5,263C 201.381,262.292 202.047,261.458 202.5,260.5 Z"/></g>
<g><path style="opacity:1" fill="#f8524a" d="M 195.5,283.5 C 196.651,288.65 196.817,293.984 196,299.5C 193.35,302.217 190.85,302.051 188.5,299C 187.167,298.333 185.833,298.333 184.5,299C 178.843,307.172 172.843,315.005 166.5,322.5C 128.877,323.963 91.2104,325.13 53.5,326C 48.7197,325.892 44.3864,326.725 40.5,328.5C 39.8373,326.527 39.5039,324.361 39.5,322C 39.3791,318.218 40.0458,314.718 41.5,311.5C 55.1829,311.645 68.8495,311.312 82.5,310.5C 84.886,314.397 87.886,317.897 91.5,321C 93.8953,323.145 96.062,322.978 98,320.5C 98.5662,318.277 99.3995,316.277 100.5,314.5C 100.5,315.5 100.5,316.5 100.5,317.5C 101.978,317.762 103.311,317.429 104.5,316.5C 106.009,312.622 107.009,308.622 107.5,304.5C 110.421,304.717 113.087,304.051 115.5,302.5C 117.117,303.038 118.784,303.371 120.5,303.5C 121.999,309.831 123.999,315.997 126.5,322C 130.132,322.519 133.132,321.353 135.5,318.5C 135.62,319.586 136.287,320.253 137.5,320.5C 144.311,316.559 147.811,310.559 148,302.5C 153.762,298.306 156.262,292.639 155.5,285.5C 166.505,285.667 177.505,285.5 188.5,285C 191.036,284.814 193.369,284.314 195.5,283.5 Z"/></g>
<g><path style="opacity:1" fill="#c6cde3" d="M 132.5,303.5 C 133.675,303.281 134.675,303.614 135.5,304.5C 134.499,307.173 132.999,309.507 131,311.5C 130.069,309.541 129.236,307.541 128.5,305.5C 129.949,304.828 131.282,304.161 132.5,303.5 Z"/></g>
<g><path style="opacity:1" fill="#f9ba8c" d="M 300.5,313.5 C 323.142,315.49 346.142,316.156 369.5,315.5C 368.042,324.074 364.708,331.74 359.5,338.5C 336.142,339.156 313.142,338.49 290.5,336.5C 291.949,327.943 295.282,320.276 300.5,313.5 Z"/></g>
<g><path style="opacity:1" fill="#f7b88b" d="M 227.5,315.5 C 248.167,315.5 268.833,315.5 289.5,315.5C 289.34,317.153 288.674,318.486 287.5,319.5C 277.941,327.405 271.608,337.405 268.5,349.5C 266.585,349.216 264.919,349.549 263.5,350.5C 254.525,350.628 245.859,352.295 237.5,355.5C 236.885,344.135 236.051,332.802 235,321.5C 232.667,318.833 230.333,318.833 228,321.5C 228.077,325.805 228.244,330.138 228.5,334.5C 228.5,335.833 228.5,337.167 228.5,338.5C 225.615,338.806 222.948,338.473 220.5,337.5C 224.034,330.564 226.368,323.23 227.5,315.5 Z"/></g>
<g><path style="opacity:1" fill="#f94b43" d="M 166.5,322.5 C 157.727,332.277 148.393,341.277 138.5,349.5C 137.395,350.6 136.062,351.267 134.5,351.5C 120.938,360.076 106.105,364.742 90,365.5C 85.5251,365.65 81.1918,364.983 77,363.5C 76.2352,363.57 75.7352,363.903 75.5,364.5C 72.2911,361.772 69.7911,358.439 68,354.5C 66.8156,349.546 65.8156,344.546 65,339.5C 62.6667,336.833 60.3333,336.833 58,339.5C 58.0314,344.176 58.5314,348.842 59.5,353.5C 59.1757,357.144 58.009,360.478 56,363.5C 52.7211,354.276 48.3878,345.609 43,337.5C 42.0069,334.526 41.1736,331.526 40.5,328.5C 44.3864,326.725 48.7197,325.892 53.5,326C 91.2104,325.13 128.877,323.963 166.5,322.5 Z"/></g>
<g><path style="opacity:1" fill="#d57d64" d="M 226.5,292.5 C 227.466,300.08 227.799,307.747 227.5,315.5C 226.368,323.23 224.034,330.564 220.5,337.5C 217.24,342.978 213.24,347.978 208.5,352.5C 210.874,355.028 211.874,358.028 211.5,361.5C 204.712,354.27 196.712,348.77 187.5,345C 190.704,342.131 193.537,338.965 196,335.5C 197.399,338.629 199.065,341.629 201,344.5C 202.194,345.43 203.527,346.097 205,346.5C 213.998,337.838 219.331,327.171 221,314.5C 221.804,306.726 221.304,299.059 219.5,291.5C 222.007,290.102 224.34,290.436 226.5,292.5 Z"/></g>
<g><path style="opacity:1" fill="#f9b488" d="M 290.5,336.5 C 313.142,338.49 336.142,339.156 359.5,338.5C 355.574,346.019 351.908,353.685 348.5,361.5C 328.167,361.5 307.833,361.5 287.5,361.5C 287.5,357.5 287.5,353.5 287.5,349.5C 287.74,344.88 288.74,340.547 290.5,336.5 Z"/></g>
<g><path style="opacity:1" fill="#d99170" d="M 287.5,319.5 C 283.43,329.445 280.763,339.779 279.5,350.5C 274.167,350.5 268.833,350.5 263.5,350.5C 264.919,349.549 266.585,349.216 268.5,349.5C 271.608,337.405 277.941,327.405 287.5,319.5 Z"/></g>
<g><path style="opacity:1" fill="#de2413" d="M 134.5,351.5 C 130.17,355.998 126.003,360.665 122,365.5C 118.227,372.518 115.06,379.685 112.5,387C 110.833,387.667 109.167,387.667 107.5,387C 100.321,379.908 91.9876,374.574 82.5,371C 79.7121,369.281 77.3788,367.115 75.5,364.5C 75.7352,363.903 76.2352,363.57 77,363.5C 81.1918,364.983 85.5251,365.65 90,365.5C 106.105,364.742 120.938,360.076 134.5,351.5 Z"/></g>
<g><path style="opacity:1" fill="#f7b286" d="M 228.5,334.5 C 230.006,352.302 228.34,369.968 223.5,387.5C 208.5,387.5 193.5,387.5 178.5,387.5C 173.282,384.775 173.782,382.775 180,381.5C 181.293,378.138 180.293,376.138 177,375.5C 172.9,376.299 169.066,377.799 165.5,380C 160.5,383.667 155.5,387.333 150.5,391C 147.5,391.667 144.5,391.667 141.5,391C 138.937,388.719 135.937,387.552 132.5,387.5C 129.113,387.964 125.78,388.631 122.5,389.5C 124.437,370.491 134.437,357.657 152.5,351C 167.868,346.756 182.201,349.089 195.5,358C 199.678,361.513 203.845,365.013 208,368.5C 211.881,367.405 213.048,365.072 211.5,361.5C 211.874,358.028 210.874,355.028 208.5,352.5C 213.24,347.978 217.24,342.978 220.5,337.5C 222.948,338.473 225.615,338.806 228.5,338.5C 228.5,337.167 228.5,335.833 228.5,334.5 Z"/></g>
<g><path style="opacity:1" fill="#f8ae83" d="M 287.5,349.5 C 287.5,353.5 287.5,357.5 287.5,361.5C 307.833,361.5 328.167,361.5 348.5,361.5C 344.662,369.358 342.995,377.692 343.5,386.5C 327.675,387.496 311.675,387.83 295.5,387.5C 287.675,375.869 285.008,363.203 287.5,349.5 Z"/></g>
<g><path style="opacity:1" fill="#d68267" d="M 252.5,358.5 C 261.5,358.5 270.5,358.5 279.5,358.5C 279.312,369.082 281.646,379.082 286.5,388.5C 286,388.833 285.5,389.167 285,389.5C 282.61,388.722 280.443,387.555 278.5,386C 272.691,376.872 268.691,377.706 266.5,388.5C 253.904,382.983 248.237,373.317 249.5,359.5C 250.791,359.737 251.791,359.404 252.5,358.5 Z"/></g>
<g><path style="opacity:1" fill="#d68267" d="M 383.5,385.5 C 373.554,387.475 363.221,388.142 352.5,387.5C 350.246,377.412 352.079,368.078 358,359.5C 363.214,367.715 370.048,374.215 378.5,379C 380.79,380.777 382.457,382.944 383.5,385.5 Z"/></g>
<g><path style="opacity:1" fill="#f7a681" d="M 178.5,387.5 C 193.5,387.5 208.5,387.5 223.5,387.5C 222.003,394.654 220.003,401.654 217.5,408.5C 215.42,406.411 213.087,404.744 210.5,403.5C 209.833,403.667 209.167,403.833 208.5,404C 206.69,406.644 204.69,409.144 202.5,411.5C 194.812,403.146 186.812,395.146 178.5,387.5 Z"/></g>
<g><path style="opacity:1" fill="#f6a581" d="M 343.5,386.5 C 345.344,391.851 348.011,396.851 351.5,401.5C 347.535,401.301 343.535,401.301 339.5,401.5C 338.934,404.417 338.934,407.417 339.5,410.5C 320.315,411.243 305.648,403.576 295.5,387.5C 311.675,387.83 327.675,387.496 343.5,386.5 Z"/></g>
<g><path style="opacity:1" fill="#d77b63" d="M 383.5,385.5 C 384.851,388.772 384.684,392.106 383,395.5C 382.5,401.825 382.334,408.158 382.5,414.5C 381.539,412.735 381.205,410.735 381.5,408.5C 374.5,408.5 367.5,408.5 360.5,408.5C 363.183,407.331 364.349,405.331 364,402.5C 358.777,398.459 354.943,393.459 352.5,387.5C 363.221,388.142 373.554,387.475 383.5,385.5 Z"/></g>
<g><path style="opacity:1" fill="#d7765e" d="M 300.5,422.5 C 293.549,423.066 286.882,422.399 280.5,420.5C 279.627,411.882 276.961,403.882 272.5,396.5C 272.977,395.069 273.643,393.736 274.5,392.5C 280.231,396.355 286.564,398.522 293.5,399C 297.081,403.252 301.248,406.752 306,409.5C 304.492,413.825 302.658,418.159 300.5,422.5 Z"/></g>
<g><path style="opacity:1" fill="#d7725b" d="M 360.5,408.5 C 367.5,408.5 374.5,408.5 381.5,408.5C 381.205,410.735 381.539,412.735 382.5,414.5C 383.284,422.536 384.284,430.536 385.5,438.5C 377.833,438.5 370.167,438.5 362.5,438.5C 362.802,441.059 362.468,443.393 361.5,445.5C 361.666,435.494 361.5,425.494 361,415.5C 360.443,413.385 359.609,411.385 358.5,409.5C 358.957,408.702 359.624,408.369 360.5,408.5 Z"/></g>
<g><path style="opacity:1" fill="#d68165" d="M 124.5,431.5 C 117.833,431.5 111.167,431.5 104.5,431.5C 104.821,436.695 104.487,441.695 103.5,446.5C 104.051,431.734 103.218,417.067 101,402.5C 99.2635,396.611 96.7635,391.111 93.5,386C 97.461,387.77 100.794,390.604 103.5,394.5C 107.142,395.589 110.808,395.589 114.5,394.5C 117.242,395.614 120.075,396.614 123,397.5C 128.896,394.348 134.396,394.848 139.5,399C 131.886,408.721 126.886,419.555 124.5,431.5 Z"/></g>
<g><path style="opacity:1" fill="#d76a57" d="M 280.5,420.5 C 286.882,422.399 293.549,423.066 300.5,422.5C 298.895,429.587 297.062,436.587 295,443.5C 286.913,449.585 280.246,456.918 275,465.5C 272.736,468.433 269.902,470.6 266.5,472C 261.177,472.499 255.844,472.666 250.5,472.5C 251.195,464.616 254.862,458.45 261.5,454C 275.2,447.109 281.533,435.942 280.5,420.5 Z"/></g>
<g><path style="opacity:1" fill="#d76856" d="M 385.5,438.5 C 385.54,441.425 384.707,444.091 383,446.5C 376.833,454 370.667,461.5 364.5,469C 357.201,472.19 349.534,473.357 341.5,472.5C 341.46,469.575 342.293,466.909 344,464.5C 348.626,459.694 353.626,455.361 359,451.5C 360.122,449.593 360.955,447.593 361.5,445.5C 362.468,443.393 362.802,441.059 362.5,438.5C 370.167,438.5 377.833,438.5 385.5,438.5 Z"/></g>
<g><path style="opacity:1" fill="#d86e5a" d="M 124.5,431.5 C 123.021,441.093 122.187,450.759 122,460.5C 120.092,466.74 115.925,470.573 109.5,472C 102.174,472.5 94.8409,472.666 87.5,472.5C 88.7399,464.689 92.9066,459.022 100,455.5C 101.741,452.691 102.908,449.691 103.5,446.5C 104.487,441.695 104.821,436.695 104.5,431.5C 111.167,431.5 117.833,431.5 124.5,431.5 Z"/></g>
</svg>
