<?xml version="1.0" encoding="UTF-8"?>
<!DOCTYPE svg PUBLIC "-//W3C//DTD SVG 1.1//EN" "http://www.w3.org/Graphics/SVG/1.1/DTD/svg11.dtd">
<svg xmlns="http://www.w3.org/2000/svg" version="1.1" width="512px" height="512px" style="shape-rendering:geometricPrecision; text-rendering:geometricPrecision; image-rendering:optimizeQuality; fill-rule:evenodd; clip-rule:evenodd" xmlns:xlink="http://www.w3.org/1999/xlink">
<g><path style="opacity:1" fill="#272638" d="M 286.5,11.5 C 298.278,13.1407 307.111,19.1407 313,29.5C 321.896,26.6353 330.563,27.3019 339,31.5C 345.216,29.3994 351.55,29.066 358,30.5C 361.787,27.7161 365.287,24.5494 368.5,21C 392.065,8.56398 397.898,14.3973 386,38.5C 383.791,41.0367 381.624,43.5367 379.5,46C 381.529,50.4197 383.362,54.9197 385,59.5C 395.026,48.3117 407.026,45.3117 421,50.5C 420.405,62.1848 415.238,71.3515 405.5,78C 402.637,79.3989 399.637,80.3989 396.5,81C 407.154,89.9857 415.987,100.486 423,112.5C 430.591,130.275 437.591,148.275 444,166.5C 447.155,169.992 450.988,172.325 455.5,173.5C 460.764,172.449 465.597,170.449 470,167.5C 473.527,169.453 474.361,172.287 472.5,176C 467.186,179.993 461.186,181.993 454.5,182C 460.698,188.532 467.198,194.699 474,200.5C 505.056,235.619 510.39,274.285 490,316.5C 480.472,329.693 469.305,341.193 456.5,351C 460.363,370.658 465.863,389.825 473,408.5C 474.061,414.724 473.394,420.724 471,426.5C 466.5,431 462,435.5 457.5,440C 451.284,443.66 445.451,443.16 440,438.5C 422.298,449.895 406.798,447.395 393.5,431C 382.018,422.803 370.351,422.469 358.5,430C 344.832,444.725 343.998,460.225 356,476.5C 362.707,483.441 370.54,488.774 379.5,492.5C 381.042,498.295 378.708,500.628 372.5,499.5C 336.391,499.388 317.724,481.388 316.5,445.5C 316.467,439.735 317.134,434.068 318.5,428.5C 291.898,425.114 268.398,414.78 248,397.5C 248.211,380.987 252.045,365.321 259.5,350.5C 255.444,348.136 251.11,346.136 246.5,344.5C 244.021,364.184 241.355,383.851 238.5,403.5C 238.667,405.833 238.833,408.167 239,410.5C 240.912,415.323 243.079,419.989 245.5,424.5C 245.502,427.159 244.169,428.493 241.5,428.5C 239.626,428.61 238.126,427.944 237,426.5C 227.992,411.824 217.825,397.99 206.5,385C 204.218,386.882 201.552,388.549 198.5,390C 189.856,392.013 183.189,389.346 178.5,382C 170.522,381.684 165.022,377.851 162,370.5C 154.477,367.792 151.311,362.458 152.5,354.5C 140.042,355.514 129.209,351.847 120,343.5C 118.923,339.153 120.423,335.986 124.5,334C 132.648,329.797 141.315,327.797 150.5,328C 142.13,319.962 133.464,312.295 124.5,305C 123.5,304.333 122.5,304.333 121.5,305C 112.357,317.713 100.357,321.379 85.5,316C 81.4234,314.213 77.59,312.046 74,309.5C 72.8129,307.956 72.4795,306.289 73,304.5C 81.3593,295.238 91.8593,290.071 104.5,289C 97.3831,284.217 90.5497,279.051 84,273.5C 80.3279,280.758 74.4946,285.258 66.5,287C 55.3403,289.166 45.1736,287 36,280.5C 35.3333,279.167 35.3333,277.833 36,276.5C 44.0873,267.539 54.254,262.372 66.5,261C 64.8333,260 63.1667,259 61.5,258C 35.4544,259.415 19.2878,247.581 13,222.5C 12.231,219.901 12.3977,217.401 13.5,215C 25.3693,213.608 36.3693,216.108 46.5,222.5C 54.6282,218.24 63.2948,216.074 72.5,216C 68.5,212.667 64.5,209.333 60.5,206C 34.0324,205.195 19.5324,191.695 17,165.5C 32.6398,163.384 45.6398,168.384 56,180.5C 57.09,174.802 58.4233,169.135 60,163.5C 62.0639,162.409 64.2305,162.242 66.5,163C 77.3964,172.395 83.7298,184.228 85.5,198.5C 85.3203,203.057 83.987,207.224 81.5,211C 89.7604,218.049 97.9271,225.216 106,232.5C 105.752,224.073 107.418,216.073 111,208.5C 114.228,205.87 117.395,206.036 120.5,209C 134.431,221.87 137.431,236.87 129.5,254C 139.724,263.889 149.558,274.056 159,284.5C 159.517,276.283 162.017,268.783 166.5,262C 170.672,261.132 173.838,262.632 176,266.5C 184.912,279.595 185.746,293.095 178.5,307C 188.522,318.878 197.688,331.378 206,344.5C 206.654,345.696 207.154,345.696 207.5,344.5C 200.701,314.603 191.201,285.603 179,257.5C 167.255,257.459 156.422,254.292 146.5,248C 140.829,243.327 137.496,237.327 136.5,230C 136.484,227.695 137.484,226.028 139.5,225C 148.054,224.125 156.388,224.791 164.5,227C 161.294,220.754 157.96,214.587 154.5,208.5C 136.774,211.201 122.274,205.534 111,191.5C 109.059,187.952 107.393,184.286 106,180.5C 104.167,173.305 107.001,170.305 114.5,171.5C 120.456,171.798 126.289,172.798 132,174.5C 132.5,174.167 133,173.833 133.5,173.5C 128.481,165.45 122.981,157.784 117,150.5C 96.3968,156.421 81.0635,150.088 71,131.5C 69.5549,125.431 72.0549,122.598 78.5,123C 84.9109,122.421 91.2442,122.421 97.5,123C 91.8333,116 86.1667,109 80.5,102C 59.7565,98.5895 46.5899,86.7562 41,66.5C 39.1258,59.5961 38.4591,52.5961 39,45.5C 41.9378,43.1309 45.1044,42.9642 48.5,45C 68.4215,51.5847 80.5881,65.0847 85,85.5C 86.8,77.746 90.3,70.9127 95.5,65C 97.3646,63.6986 99.3646,63.3653 101.5,64C 113.927,77.4295 115.761,92.2629 107,108.5C 105.257,110.321 103.757,112.321 102.5,114.5C 108.333,122.167 114.167,129.833 120,137.5C 120.435,123.788 126.602,113.621 138.5,107C 132.538,94.2415 126.705,81.4081 121,68.5C 94.4963,59.8636 82.8296,41.5303 86,13.5C 88.0639,12.4086 90.2305,12.2419 92.5,13C 115.149,23.6593 127.649,41.4926 130,66.5C 133.084,55.8231 138.584,46.6564 146.5,39C 148.701,38.1751 150.534,38.6751 152,40.5C 159.616,57.1507 158.949,73.4841 150,89.5C 147.447,91.7162 145.28,94.2162 143.5,97C 153.095,118.357 161.429,140.19 168.5,162.5C 167.643,167.671 165.143,168.671 161,165.5C 157.333,155.833 153.667,146.167 150,136.5C 148.343,146.662 143.51,154.829 135.5,161C 144.625,174.078 153.125,187.578 161,201.5C 164.091,190.763 169.924,181.93 178.5,175C 180.701,174.175 182.534,174.675 184,176.5C 190.73,191.266 190.73,205.933 184,220.5C 181.66,224.006 178.826,227.006 175.5,229.5C 180.547,238.926 185.047,248.593 189,258.5C 189.292,237.13 195.125,217.464 206.5,199.5C 204.035,187.176 201.702,174.843 199.5,162.5C 174.668,161.168 161.668,148.001 160.5,123C 160.615,121.105 161.282,119.438 162.5,118C 172.546,117.015 181.38,119.849 189,126.5C 188.843,122.682 187.843,119.015 186,115.5C 167.35,104.534 159.016,88.2011 161,66.5C 161.546,60.6488 162.879,54.9821 165,49.5C 167.048,47.213 169.215,47.0464 171.5,49C 182.449,59.3921 189.949,71.8921 194,86.5C 197.399,80.4325 201.565,74.9325 206.5,70C 209.352,69.0868 211.519,69.9201 213,72.5C 219.839,89.0837 218.839,105.084 210,120.5C 206.958,123.933 203.458,126.766 199.5,129C 201.56,135.74 203.394,142.573 205,149.5C 209.005,138.782 216.172,131.115 226.5,126.5C 228.894,127.24 230.394,128.907 231,131.5C 237.484,153.056 231.484,170.056 213,182.5C 212.886,185.833 213.219,189.166 214,192.5C 222.02,184.578 230.854,177.745 240.5,172C 249.39,164.702 256.223,155.868 261,145.5C 264.42,134.366 265.253,123.032 263.5,111.5C 263.485,100.383 266.485,90.2165 272.5,81C 255.429,74.3667 247.262,61.8667 248,43.5C 259.474,39.9873 269.141,42.9873 277,52.5C 278.752,55.672 280.752,58.672 283,61.5C 285.452,56.0927 288.286,50.9261 291.5,46C 287.855,42.547 285.355,38.3803 284,33.5C 283.333,27.5 283.333,21.5 284,15.5C 284.48,13.867 285.313,12.5336 286.5,11.5 Z M 95.5,235.5 C 105.514,243.86 115.18,252.693 124.5,262C 102.965,259.58 99.6318,266.413 114.5,282.5C 121.505,289.334 129.839,291.834 139.5,290C 142.916,288.745 146.249,287.745 149.5,287C 162.297,300.124 173.963,314.124 184.5,329C 181.833,329.333 179.167,329.667 176.5,330C 174.141,331.358 171.807,332.358 169.5,333C 137.043,303.031 102.71,275.531 66.5,250.5C 65.5019,248.51 64.5019,246.51 63.5,244.5C 75.494,246.169 86.1607,243.169 95.5,235.5 Z M 210.5,317.5 C 214.131,320.629 217.631,323.963 221,327.5C 221.667,343.167 221.667,358.833 221,374.5C 218.576,355.285 215.076,336.285 210.5,317.5 Z M 230.5,335.5 C 235.413,337.347 237.413,341.013 236.5,346.5C 235.569,361.611 233.736,376.611 231,391.5C 230.5,372.836 230.333,354.17 230.5,335.5 Z M 425.5,363.5 C 430.582,371.872 434.248,381.039 436.5,391C 434.745,395.343 432.578,399.509 430,403.5C 428.745,407.041 428.578,410.541 429.5,414C 427.5,415.333 425.5,416.667 423.5,418C 422.167,418.667 420.833,418.667 419.5,418C 411.644,405.239 400.31,397.739 385.5,395.5C 385.591,386.768 384.924,378.102 383.5,369.5C 397.98,369.895 411.98,367.895 425.5,363.5 Z"/></g>
<g><path style="opacity:1" fill="#eb8a66" d="M 93.5,22.5 C 107.947,30.2865 116.614,42.2865 119.5,58.5C 106.852,54.6847 98.6858,46.3514 95,33.5C 94.0642,29.8865 93.5642,26.2198 93.5,22.5 Z"/></g>
<g><path style="opacity:1" fill="#efac61" d="M 291.5,21.5 C 297.3,23.6235 301.967,27.2902 305.5,32.5C 302.859,34.8044 300.192,37.1377 297.5,39.5C 292.529,34.5888 290.529,28.5888 291.5,21.5 Z"/></g>
<g><path style="opacity:1" fill="#dd7751" d="M 378.5,24.5 C 379.833,24.5 381.167,24.5 382.5,24.5C 381.888,30.765 378.888,35.4317 373.5,38.5C 371.091,37.2993 369.091,35.6326 367.5,33.5C 370.895,30.0985 374.562,27.0985 378.5,24.5 Z"/></g>
<g><path style="opacity:1" fill="#ac6887" d="M 397.5,93.5 C 379.167,93.5 360.833,93.5 342.5,93.5C 340.457,82.93 339.957,72.2634 341,61.5C 340.196,60.1955 339.029,59.5288 337.5,59.5C 319.225,66.7729 307.225,79.7729 301.5,98.5C 292.5,98.5 283.5,98.5 274.5,98.5C 274.5,97.5 274.5,96.5 274.5,95.5C 276.055,90.0568 278.888,85.3901 283,81.5C 286.988,83.5758 291.154,85.2425 295.5,86.5C 299.267,85.5904 300.267,83.4238 298.5,80C 294.927,78.629 291.427,77.129 288,75.5C 290.748,59.5159 298.914,47.0159 312.5,38C 316.007,36.4417 319.673,35.6084 323.5,35.5C 328.454,36.3169 333.288,37.6503 338,39.5C 364.815,34.6352 377.815,45.9685 377,73.5C 369.584,77.6401 361.751,80.8068 353.5,83C 352.018,85.5918 352.352,87.9251 354.5,90C 363.667,88.0532 372.5,84.8865 381,80.5C 387.25,83.9211 392.75,88.2544 397.5,93.5 Z"/></g>
<g><path style="opacity:1" fill="#eca85e" d="M 255.5,49.5 C 267.072,52.4047 274.405,59.7381 277.5,71.5C 269.975,71.5417 264.141,68.2084 260,61.5C 258.193,57.5945 256.693,53.5945 255.5,49.5 Z"/></g>
<g><path style="opacity:1" fill="#f4b76e" d="M 47.5,53.5 C 65.7697,60.1068 75.7697,73.1068 77.5,92.5C 69.8639,91.4317 63.3639,88.0984 58,82.5C 51.8257,73.811 48.3257,64.1444 47.5,53.5 Z"/></g>
<g><path style="opacity:1" fill="#e58562" d="M 146.5,51.5 C 147.117,51.6107 147.617,51.944 148,52.5C 149.093,61.6576 148.426,70.6576 146,79.5C 144.752,82.579 142.919,85.2457 140.5,87.5C 139.029,86.6195 138.196,85.2861 138,83.5C 136.159,71.5265 138.992,60.8599 146.5,51.5 Z"/></g>
<g><path style="opacity:1" fill="#de6f49" d="M 402.5,56.5 C 405.5,56.5 408.5,56.5 411.5,56.5C 407.749,68.0511 399.749,73.7178 387.5,73.5C 390.039,65.6298 395.039,59.9631 402.5,56.5 Z"/></g>
<g><path style="opacity:1" fill="#262537" d="M 10.5,68.5 C 34.1704,73.0079 46.0038,87.3412 46,111.5C 68.4815,138.311 89.8148,165.977 110,194.5C 111.667,201.167 109.333,203.167 103,200.5C 88.051,179.883 72.7177,159.55 57,139.5C 40.0406,151.762 25.374,149.429 13,132.5C 11.6206,128.525 12.7873,125.691 16.5,124C 24.5683,121.127 32.9016,119.794 41.5,120C 37.3775,116.727 32.7108,114.394 27.5,113C 11.3004,102.114 5.63375,87.2802 10.5,68.5 Z"/></g>
<g><path style="opacity:1" fill="#f2b168" d="M 169.5,60.5 C 172.298,61.7063 174.465,63.7063 176,66.5C 184.764,78.4546 188.43,91.788 187,106.5C 171.442,95.0061 165.608,79.6728 169.5,60.5 Z"/></g>
<g><path style="opacity:1" fill="#e48461" d="M 98.5,74.5 C 102.826,78.4596 104.826,83.4596 104.5,89.5C 104.312,96.0681 101.978,101.735 97.5,106.5C 92.4221,99.5485 91.2555,91.8819 94,83.5C 95.5133,80.4734 97.0133,77.4734 98.5,74.5 Z"/></g>
<g><path style="opacity:1" fill="#eb9d9c" d="M 332.5,69.5 C 333.488,74.6405 333.821,79.9738 333.5,85.5C 327.738,85.8507 322.072,85.3507 316.5,84C 321.257,78.4675 326.59,73.6342 332.5,69.5 Z"/></g>
<g><path style="opacity:1" fill="#efae67" d="M 198.5,119.5 C 197.514,115.03 197.181,110.363 197.5,105.5C 198.021,96.4331 201.188,88.4331 207,81.5C 210.992,92.9391 209.992,103.939 204,114.5C 202.296,116.373 200.463,118.04 198.5,119.5 Z"/></g>
<g><path style="opacity:1" fill="#ec8762" d="M 16.5,78.5 C 30.1185,83.4418 37.1185,93.1085 37.5,107.5C 28.3255,105.161 22.1589,99.4941 19,90.5C 17.6409,86.5948 16.8076,82.5948 16.5,78.5 Z"/></g>
<g><path style="opacity:1" fill="#d1737f" d="M 333.5,113.5 C 332.979,109.519 332.646,105.519 332.5,101.5C 324.783,101.295 317.116,100.628 309.5,99.5C 309.798,96.7354 310.798,94.2354 312.5,92C 319.804,92.247 327.137,92.4137 334.5,92.5C 335.512,99.5706 336.845,106.571 338.5,113.5C 336.833,113.5 335.167,113.5 333.5,113.5 Z"/></g>
<g><path style="opacity:1" fill="#a36180" d="M 274.5,95.5 C 274.5,96.5 274.5,97.5 274.5,98.5C 283.5,98.5 292.5,98.5 301.5,98.5C 299.474,104.974 298.474,111.641 298.5,118.5C 300.2,133.514 300.534,148.514 299.5,163.5C 286.656,163.829 273.989,163.495 261.5,162.5C 266.34,154.471 269.84,145.804 272,136.5C 272.333,124.167 272.667,111.833 273,99.5C 273.21,97.9419 273.71,96.6085 274.5,95.5 Z"/></g>
<g><path style="opacity:1" fill="#a76382" d="M 342.5,93.5 C 360.833,93.5 379.167,93.5 397.5,93.5C 410.887,106.256 420.22,121.59 425.5,139.5C 402.908,138.511 380.242,138.178 357.5,138.5C 350.307,124.255 345.307,109.255 342.5,93.5 Z"/></g>
<g><path style="opacity:1" fill="#f3b2af" d="M 309.5,99.5 C 317.116,100.628 324.783,101.295 332.5,101.5C 332.646,105.519 332.979,109.519 333.5,113.5C 333.167,114.5 332.5,115.167 331.5,115.5C 328.5,114.167 325.5,114.167 322.5,115.5C 319.141,113.513 315.475,113.013 311.5,114C 310.594,115.699 310.261,117.533 310.5,119.5C 309.167,119.5 307.833,119.5 306.5,119.5C 306.5,121.833 306.5,124.167 306.5,126.5C 304.962,117.258 305.962,108.258 309.5,99.5 Z"/></g>
<g><path style="opacity:1" fill="#aa8056" d="M 197.5,105.5 C 197.181,110.363 197.514,115.03 198.5,119.5C 198.44,120.043 198.107,120.376 197.5,120.5C 196.186,115.348 196.186,110.348 197.5,105.5 Z"/></g>
<g><path style="opacity:1" fill="#2e2b3d" d="M 322.5,115.5 C 322.822,117.722 322.155,119.556 320.5,121C 316.851,121.963 313.518,121.463 310.5,119.5C 310.261,117.533 310.594,115.699 311.5,114C 315.475,113.013 319.141,113.513 322.5,115.5 Z"/></g>
<g><path style="opacity:1" fill="#f2b067" d="M 139.5,115.5 C 140.931,115.881 141.764,116.881 142,118.5C 143.756,128.785 142.089,138.452 137,147.5C 135.691,149.976 133.858,151.976 131.5,153.5C 125.275,138.791 127.941,126.124 139.5,115.5 Z"/></g>
<g><path style="opacity:1" fill="#d27481" d="M 346.5,140.5 C 341.865,134.899 338.532,128.565 336.5,121.5C 338.035,120.212 339.701,120.212 341.5,121.5C 343.429,127.188 345.762,132.688 348.5,138C 347.934,138.995 347.267,139.828 346.5,140.5 Z"/></g>
<g><path style="opacity:1" fill="#f5ce99" d="M 169.5,126.5 C 177.571,127.793 184.071,131.793 189,138.5C 191.769,143.039 194.269,147.706 196.5,152.5C 184.831,153.569 176.664,148.569 172,137.5C 170.69,133.93 169.857,130.263 169.5,126.5 Z"/></g>
<g><path style="opacity:1" fill="#e48461" d="M 26.5,128.5 C 31.8437,128.334 37.1771,128.501 42.5,129C 52.5506,131.375 52.8839,134.375 43.5,138C 34.8081,140.881 27.8081,138.547 22.5,131C 23.8584,130.066 25.1917,129.232 26.5,128.5 Z"/></g>
<g><path style="opacity:1" fill="#f2b068" d="M 80.5,130.5 C 93.6395,129.265 104.64,133.432 113.5,143C 101.066,147.074 90.5658,144.241 82,134.5C 81.2086,133.255 80.7086,131.922 80.5,130.5 Z"/></g>
<g><path style="opacity:1" fill="#f8c6c4" d="M 331.5,115.5 C 331.019,119.349 332.686,121.349 336.5,121.5C 338.532,128.565 341.865,134.899 346.5,140.5C 342.61,146.889 337.276,151.722 330.5,155C 323.875,154.094 318.375,150.927 314,145.5C 309.441,139.993 306.941,133.66 306.5,126.5C 306.5,124.167 306.5,121.833 306.5,119.5C 307.833,119.5 309.167,119.5 310.5,119.5C 313.518,121.463 316.851,121.963 320.5,121C 322.155,119.556 322.822,117.722 322.5,115.5C 325.5,114.167 328.5,114.167 331.5,115.5 Z"/></g>
<g><path style="opacity:1" fill="#a1637c" d="M 357.5,138.5 C 380.242,138.178 402.908,138.511 425.5,139.5C 426.807,142.725 427.807,146.059 428.5,149.5C 407.242,150.488 385.909,150.822 364.5,150.5C 362.167,146.5 359.833,142.5 357.5,138.5 Z"/></g>
<g><path style="opacity:1" fill="#df7955" d="M 222.5,137.5 C 227.818,151.129 224.485,162.963 212.5,173C 211.552,173.483 210.552,173.649 209.5,173.5C 208.311,159.393 212.644,147.393 222.5,137.5 Z"/></g>
<g><path style="opacity:1" fill="#5b3150" d="M 307.5,150.5 C 312.888,156.046 319.222,160.213 326.5,163C 328.95,171.051 329.117,179.218 327,187.5C 324.267,192.562 320.1,194.395 314.5,193C 311.049,191.704 307.715,190.204 304.5,188.5C 304.167,187.667 303.833,186.833 303.5,186C 306.469,174.38 307.802,162.547 307.5,150.5 Z"/></g>
<g><path style="opacity:1" fill="#d77582" d="M 348.5,168.5 C 344.75,170.707 340.75,172.373 336.5,173.5C 336.182,169.067 336.182,164.734 336.5,160.5C 340.477,157.691 344.31,154.691 348,151.5C 348.499,157.157 348.666,162.824 348.5,168.5 Z"/></g>
<g><path style="opacity:1" fill="#5b3150" d="M 356.5,153.5 C 363.223,161.92 369.723,170.586 376,179.5C 380.983,185.65 386.483,191.316 392.5,196.5C 388.205,197.661 383.871,197.828 379.5,197C 373.643,193.905 367.643,191.072 361.5,188.5C 357.462,177.198 355.795,165.531 356.5,153.5 Z"/></g>
<g><path style="opacity:1" fill="#9c5c7c" d="M 428.5,149.5 C 432.542,165.591 440.209,179.591 451.5,191.5C 434.325,191.17 417.325,191.503 400.5,192.5C 385.967,180.637 373.967,166.637 364.5,150.5C 385.909,150.822 407.242,150.488 428.5,149.5 Z"/></g>
<g><path style="opacity:1" fill="#eeae62" d="M 25.5,173.5 C 39.8956,174.837 49.8956,182.504 55.5,196.5C 47.8901,197.543 41.2234,195.376 35.5,190C 31.2482,184.986 27.9149,179.486 25.5,173.5 Z"/></g>
<g><path style="opacity:1" fill="#f1d09b" d="M 65.5,174.5 C 73.5076,181.681 77.3409,190.681 77,201.5C 76.3753,204.706 74.7086,205.706 72,204.5C 66.051,195.405 63.8843,185.405 65.5,174.5 Z"/></g>
<g><path style="opacity:1" fill="#f6c6c5" d="M 348.5,168.5 C 349.712,174.74 351.045,181.074 352.5,187.5C 347.265,189.45 341.598,190.117 335.5,189.5C 335.5,188.5 335.5,187.5 335.5,186.5C 336.2,182.202 336.533,177.869 336.5,173.5C 340.75,172.373 344.75,170.707 348.5,168.5 Z"/></g>
<g><path style="opacity:1" fill="#e67f57" d="M 115.5,180.5 C 130.734,180.283 142.401,186.617 150.5,199.5C 133.759,202.299 122.092,195.966 115.5,180.5 Z"/></g>
<g><path style="opacity:1" fill="#e8a75c" d="M 177.5,186.5 C 178.931,186.881 179.764,187.881 180,189.5C 180.667,196.167 180.667,202.833 180,209.5C 178.382,214.416 175.549,218.416 171.5,221.5C 167.71,213.628 167.544,205.628 171,197.5C 173.178,193.806 175.345,190.139 177.5,186.5 Z"/></g>
<g><path style="opacity:1" fill="#94bea6" d="M 334.5,267.5 C 312.267,269.986 290.1,272.986 268,276.5C 266.97,276.164 266.47,275.497 266.5,274.5C 268.836,267.662 273.17,262.496 279.5,259C 291.682,255.246 303.682,250.912 315.5,246C 338.706,236.64 354.706,220.473 363.5,197.5C 365.413,198.373 367.247,199.373 369,200.5C 360.157,224.186 348.657,246.52 334.5,267.5 Z"/></g>
<g><path style="opacity:1" fill="#925673" d="M 451.5,191.5 C 470.275,205.378 483.442,223.378 491,245.5C 492.636,250.375 493.469,255.375 493.5,260.5C 493.5,262.5 493.5,264.5 493.5,266.5C 481.833,266.5 470.167,266.5 458.5,266.5C 450.274,250.568 439.941,236.068 427.5,223C 427.728,222.601 428.062,222.435 428.5,222.5C 433.925,225.794 439.759,228.127 446,229.5C 449.293,228.862 450.293,226.862 449,223.5C 430.715,216.286 414.548,205.953 400.5,192.5C 417.325,191.503 434.325,191.17 451.5,191.5 Z"/></g>
<g><path style="opacity:1" fill="#975977" d="M 261.5,162.5 C 273.989,163.495 286.656,163.829 299.5,163.5C 298.682,171.258 297.348,178.925 295.5,186.5C 282.391,184.803 273.557,190.136 269,202.5C 267.369,206.688 266.536,211.021 266.5,215.5C 265.51,221.31 265.177,227.31 265.5,233.5C 255.985,233.827 246.652,233.494 237.5,232.5C 245.897,221.248 248.064,208.915 244,195.5C 242.274,194.424 240.441,194.257 238.5,195C 229.809,199.355 222.643,205.521 217,213.5C 216.111,209.848 215.778,206.182 216,202.5C 225.292,192.544 235.792,184.044 247.5,177C 252.397,172.271 257.064,167.438 261.5,162.5 Z"/></g>
<g><path style="opacity:1" fill="#eca45b" d="M 236.5,204.5 C 239.544,215.51 236.211,224.677 226.5,232C 224.63,233.366 222.63,234.533 220.5,235.5C 218.655,228.642 219.821,222.309 224,216.5C 227.486,211.695 231.653,207.695 236.5,204.5 Z"/></g>
<g><path style="opacity:1" fill="#d27481" d="M 378.5,204.5 C 376.708,218.343 380.042,230.676 388.5,241.5C 387.573,243.476 386.24,243.809 384.5,242.5C 376.465,231.692 373.798,219.692 376.5,206.5C 376.747,205.287 377.414,204.62 378.5,204.5 Z"/></g>
<g><path style="opacity:1" fill="#f7cccb" d="M 378.5,204.5 C 387.276,204.059 395.942,204.559 404.5,206C 412.225,214.66 416.558,224.827 417.5,236.5C 410.745,239.279 403.745,241.613 396.5,243.5C 394.352,240.63 391.685,239.963 388.5,241.5C 380.042,230.676 376.708,218.343 378.5,204.5 Z"/></g>
<g><path style="opacity:1" fill="#f6b6b2" d="M 335.5,186.5 C 335.5,187.5 335.5,188.5 335.5,189.5C 341.598,190.117 347.265,189.45 352.5,187.5C 353.905,189.225 354.405,191.225 354,193.5C 347.837,200.841 340.671,206.841 332.5,211.5C 313.5,211.5 294.5,211.5 275.5,211.5C 275.5,210.167 275.5,208.833 275.5,207.5C 278.891,196.613 286.225,192.113 297.5,194C 307.5,198.333 317.5,202.667 327.5,207C 330.353,207.659 332.02,206.492 332.5,203.5C 331.929,201.259 330.596,199.592 328.5,198.5C 331.902,195.017 334.235,191.017 335.5,186.5 Z"/></g>
<g><path style="opacity:1" fill="#f0aba7" d="M 275.5,207.5 C 275.5,208.833 275.5,210.167 275.5,211.5C 294.5,211.5 313.5,211.5 332.5,211.5C 321.652,218.838 309.818,224.171 297,227.5C 297,224.833 297,222.167 297,219.5C 291.801,216.476 288.968,218.142 288.5,224.5C 284.267,227.09 279.6,228.09 274.5,227.5C 274.5,222.5 274.5,217.5 274.5,212.5C 274.216,210.585 274.549,208.919 275.5,207.5 Z"/></g>
<g><path style="opacity:1" fill="#df7954" d="M 115.5,217.5 C 120.291,220.017 123.458,224.017 125,229.5C 125.856,252.655 122.522,253.321 115,231.5C 114.352,226.796 114.519,222.129 115.5,217.5 Z"/></g>
<g><path style="opacity:1" fill="#8b6068" d="M 274.5,212.5 C 274.5,217.5 274.5,222.5 274.5,227.5C 274.216,229.415 274.549,231.081 275.5,232.5C 275.44,233.043 275.107,233.376 274.5,233.5C 273.181,226.344 273.181,219.344 274.5,212.5 Z"/></g>
<g><path style="opacity:1" fill="#5c3251" d="M 428.5,222.5 C 428.062,222.435 427.728,222.601 427.5,223C 439.941,236.068 450.274,250.568 458.5,266.5C 469.171,285.157 471.337,304.824 465,325.5C 463.294,329.079 461.461,332.579 459.5,336C 459.728,336.399 460.062,336.565 460.5,336.5C 458.519,338.303 456.352,339.97 454,341.5C 449.276,325.664 443.943,309.997 438,294.5C 433.522,269.445 428.022,244.611 421.5,220C 421.667,219.5 421.833,219 422,218.5C 424.314,219.733 426.481,221.067 428.5,222.5 Z"/></g>
<g><path style="opacity:1" fill="#f2b56e" d="M 21.5,222.5 C 38.7693,224.456 50.436,233.456 56.5,249.5C 38.0861,249.071 26.4195,240.071 21.5,222.5 Z"/></g>
<g><path style="opacity:1" fill="#dc7855" d="M 62.5,224.5 C 71.7766,223.721 80.4433,225.555 88.5,230C 79.2,237.422 69.2,238.422 58.5,233C 56.4148,231.959 54.7481,230.459 53.5,228.5C 56.4121,226.76 59.4121,225.427 62.5,224.5 Z"/></g>
<g><path style="opacity:1" fill="#93bea6" d="M 382.5,260.5 C 370.758,261.701 359.091,263.368 347.5,265.5C 346.702,265.043 346.369,264.376 346.5,263.5C 354.162,250.849 361.329,237.849 368,224.5C 371.256,234.344 375.589,243.678 381,252.5C 382.079,255.063 382.579,257.729 382.5,260.5 Z"/></g>
<g><path style="opacity:1" fill="#d2737f" d="M 288.5,224.5 C 288.709,226.714 287.876,228.381 286,229.5C 282.381,230.188 278.881,231.188 275.5,232.5C 274.549,231.081 274.216,229.415 274.5,227.5C 279.6,228.09 284.267,227.09 288.5,224.5 Z"/></g>
<g><path style="opacity:1" fill="#ecb489" d="M 145.5,233.5 C 158.271,232.049 168.271,236.882 175.5,248C 162.403,249.283 152.403,244.45 145.5,233.5 Z"/></g>
<g><path style="opacity:1" fill="#8d536f" d="M 237.5,232.5 C 246.652,233.494 255.985,233.827 265.5,233.5C 265.177,227.31 265.51,221.31 266.5,215.5C 266.831,223.196 266.497,230.862 265.5,238.5C 260.003,243.493 256.003,249.493 253.5,256.5C 248.387,258.223 243.387,260.223 238.5,262.5C 238.665,258.818 238.499,255.152 238,251.5C 237.131,248.606 235.298,247.439 232.5,248C 217.606,254.561 207.106,265.394 201,280.5C 194.402,257.099 196.902,234.766 208.5,213.5C 210.575,221.668 211.742,230.001 212,238.5C 212.642,240.762 213.475,242.929 214.5,245C 223.504,243.494 231.171,239.328 237.5,232.5 Z"/></g>
<g><path style="opacity:1" fill="#558079" d="M 347.5,209.5 C 349.646,209.696 349.812,210.696 348,212.5C 338.978,223.767 327.811,232.267 314.5,238C 301.233,243.2 287.9,248.2 274.5,253C 268.955,256.878 264.455,261.711 261,267.5C 260.472,253.737 266.638,244.237 279.5,239C 300.226,235.759 319.56,228.759 337.5,218C 341.09,215.386 344.424,212.552 347.5,209.5 Z"/></g>
<g><path style="opacity:1" fill="#f5c1c0" d="M 417.5,236.5 C 422.296,253.811 425.963,271.478 428.5,289.5C 428.67,290.822 428.337,291.989 427.5,293C 422.842,294.856 418.176,295.689 413.5,295.5C 414.897,275.72 409.231,258.387 396.5,243.5C 403.745,241.613 410.745,239.279 417.5,236.5 Z"/></g>
<g><path style="opacity:1" fill="#5c3150" d="M 390.5,249.5 C 397.512,255.5 402.012,263.167 404,272.5C 405.065,288.876 406.731,305.209 409,321.5C 413.248,332.572 418.082,343.406 423.5,354C 423.18,355.653 422.18,356.653 420.5,357C 409.317,359.599 397.984,361.099 386.5,361.5C 384.036,361.41 381.87,360.743 380,359.5C 376.473,349.448 372.14,339.781 367,330.5C 364.11,320.595 363.777,310.595 366,300.5C 378.561,295.603 386.561,286.603 390,273.5C 390.265,265.402 390.431,257.402 390.5,249.5 Z"/></g>
<g><path style="opacity:1" fill="#5c3150" d="M 253.5,256.5 C 250.295,277.131 258.462,290.464 278,296.5C 279.466,307.372 277.799,317.705 273,327.5C 270.042,331.916 267.208,336.416 264.5,341C 258.185,340.509 252.185,338.675 246.5,335.5C 245.67,329.862 245.17,324.196 245,318.5C 243.419,315.447 241.086,314.78 238,316.5C 237.667,320.833 237.333,325.167 237,329.5C 234.667,327.833 232.333,326.167 230,324.5C 229.363,313.825 229.03,303.158 229,292.5C 235.982,283.804 239.149,273.804 238.5,262.5C 243.387,260.223 248.387,258.223 253.5,256.5 Z"/></g>
<g><path style="opacity:1" fill="#de724a" d="M 229.5,257.5 C 230.777,258.694 231.444,260.36 231.5,262.5C 231.634,273.862 227.634,283.362 219.5,291C 215.402,293.368 211.069,294.701 206.5,295C 205.424,293.274 205.257,291.441 206,289.5C 210.26,276.092 218.093,265.426 229.5,257.5 Z"/></g>
<g><path style="opacity:1" fill="#8fbfad" d="M 382.5,260.5 C 383.352,284.593 371.685,295.926 347.5,294.5C 348.202,291.422 349.202,288.422 350.5,285.5C 349.59,281.733 347.424,280.733 344,282.5C 342.311,286.56 340.144,290.227 337.5,293.5C 334.46,292.32 331.794,290.653 329.5,288.5C 335.427,280.303 341.094,271.969 346.5,263.5C 346.369,264.376 346.702,265.043 347.5,265.5C 359.091,263.368 370.758,261.701 382.5,260.5 Z"/></g>
<g><path style="opacity:1" fill="#edac66" d="M 62.5,269.5 C 66.8333,269.5 71.1667,269.5 75.5,269.5C 74.0428,274.454 70.7095,277.62 65.5,279C 43.1335,280.205 42.1335,277.038 62.5,269.5 Z"/></g>
<g><path style="opacity:1" fill="#eba457" d="M 116.5,270.5 C 124.777,269.758 132.443,271.592 139.5,276C 143.649,279.244 142.983,281.244 137.5,282C 127.562,283.367 120.562,279.534 116.5,270.5 Z"/></g>
<g><path style="opacity:1" fill="#8fbead" d="M 334.5,267.5 C 330.066,274.049 325.399,280.383 320.5,286.5C 318.143,286.337 315.81,286.503 313.5,287C 309.952,288.941 306.286,290.607 302.5,292C 300.402,292.678 298.402,292.511 296.5,291.5C 296.389,290.883 296.056,290.383 295.5,290C 284.288,291.54 274.455,288.707 266,281.5C 265.204,278.961 265.371,276.628 266.5,274.5C 266.47,275.497 266.97,276.164 268,276.5C 290.1,272.986 312.267,269.986 334.5,267.5 Z"/></g>
<g><path style="opacity:1" fill="#da704a" d="M 169.5,273.5 C 172.537,276.06 174.371,279.393 175,283.5C 176.11,289.426 175.444,295.092 173,300.5C 167.484,292.017 166.317,283.017 169.5,273.5 Z"/></g>
<g><path style="opacity:1" fill="#4a757a" d="M 320.5,286.5 C 310.542,300.958 298.376,313.291 284,323.5C 285.304,314.632 285.804,305.632 285.5,296.5C 288.85,296.665 292.183,296.498 295.5,296C 296.38,294.644 296.714,293.144 296.5,291.5C 298.402,292.511 300.402,292.678 302.5,292C 306.286,290.607 309.952,288.941 313.5,287C 315.81,286.503 318.143,286.337 320.5,286.5 Z"/></g>
<g><path style="opacity:1" fill="#df734e" d="M 97.5,297.5 C 103.203,297.375 108.87,297.708 114.5,298.5C 111.587,306.144 105.92,310.144 97.5,310.5C 92.5554,310.189 88.2221,308.522 84.5,305.5C 84.9767,304.522 85.6433,303.689 86.5,303C 90.2585,301.121 93.9252,299.287 97.5,297.5 Z"/></g>
<g><path style="opacity:1" fill="#4a757b" d="M 329.5,288.5 C 331.794,290.653 334.46,292.32 337.5,293.5C 334.252,299.264 330.752,304.931 327,310.5C 326.661,314.487 328.494,315.987 332.5,315C 335.868,311.098 338.868,306.931 341.5,302.5C 346.12,301.507 350.786,301.173 355.5,301.5C 353.281,307.607 350.281,313.273 346.5,318.5C 336.939,319.623 327.606,321.29 318.5,323.5C 316.833,322.167 315.167,322.167 313.5,323.5C 308.695,322.513 303.695,322.179 298.5,322.5C 309.543,311.791 319.876,300.458 329.5,288.5 Z"/></g>
<g><path style="opacity:1" fill="#58314f" d="M 219.5,298.5 C 220.816,301.087 221.483,304.087 221.5,307.5C 221.333,310.5 221.167,313.5 221,316.5C 217.379,312.09 213.879,307.59 210.5,303C 213.872,301.981 216.872,300.481 219.5,298.5 Z"/></g>
<g><path style="opacity:1" fill="#844c6a" d="M 493.5,260.5 C 496.099,291.693 485.099,317.027 460.5,336.5C 460.062,336.565 459.728,336.399 459.5,336C 461.461,332.579 463.294,329.079 465,325.5C 471.337,304.824 469.171,285.157 458.5,266.5C 470.167,266.5 481.833,266.5 493.5,266.5C 493.5,264.5 493.5,262.5 493.5,260.5 Z"/></g>
<g><path style="opacity:1" fill="#86b7ac" d="M 346.5,318.5 C 340.573,328.087 333.906,337.087 326.5,345.5C 318.179,346.593 309.846,347.593 301.5,348.5C 303.461,346.708 304.795,344.542 305.5,342C 304.895,339.199 303.229,338.199 300.5,339C 288.609,349.067 275.943,357.234 262.5,363.5C 266.139,354.888 270.306,346.554 275,338.5C 283.122,333.528 290.955,328.194 298.5,322.5C 303.695,322.179 308.695,322.513 313.5,323.5C 310.995,329.457 312.829,331.457 319,329.5C 319.789,327.288 319.622,325.288 318.5,323.5C 327.606,321.29 336.939,319.623 346.5,318.5 Z"/></g>
<g><path style="opacity:1" fill="#28293b" d="M 318.5,323.5 C 319.622,325.288 319.789,327.288 319,329.5C 312.829,331.457 310.995,329.457 313.5,323.5C 315.167,322.167 316.833,322.167 318.5,323.5 Z"/></g>
<g><path style="opacity:1" fill="#f3b2af" d="M 428.5,289.5 C 438.284,315.529 446.284,342.196 452.5,369.5C 452.423,370.75 451.756,371.583 450.5,372C 447.28,373.352 443.947,374.186 440.5,374.5C 434.461,358.416 427.295,342.749 419,327.5C 415.726,317.081 413.892,306.414 413.5,295.5C 418.176,295.689 422.842,294.856 427.5,293C 428.337,291.989 428.67,290.822 428.5,289.5 Z"/></g>
<g><path style="opacity:1" fill="#f0a27f" d="M 139.5,336.5 C 147.432,335.805 155.098,336.805 162.5,339.5C 152.264,348.209 141.598,348.709 130.5,341C 133.324,338.921 136.324,337.421 139.5,336.5 Z"/></g>
<g><path style="opacity:1" fill="#f3aca9" d="M 183.5,344.5 C 180.705,345.063 178.372,346.396 176.5,348.5C 174.566,347.89 172.899,346.89 171.5,345.5C 173.934,341.894 177.1,339.228 181,337.5C 183.515,337.842 185.348,339.175 186.5,341.5C 185.812,342.855 184.812,343.855 183.5,344.5 Z"/></g>
<g><path style="opacity:1" fill="#d77683" d="M 183.5,344.5 C 181.205,347.297 178.705,349.964 176,352.5C 175.252,354.84 175.752,356.84 177.5,358.5C 176.19,360.148 174.857,361.814 173.5,363.5C 177.696,370.355 182.363,371.022 187.5,365.5C 187.5,368.833 189.167,370.5 192.5,370.5C 192.586,371.496 192.252,372.329 191.5,373C 193.836,375.833 196.836,377 200.5,376.5C 198.25,382.493 194.25,383.993 188.5,381C 186.5,378.667 184.5,376.333 182.5,374C 174.798,374.632 170.298,371.132 169,363.5C 166.333,362.167 163.667,360.833 161,359.5C 160.123,357.326 160.623,355.659 162.5,354.5C 163.479,356.145 164.812,357.479 166.5,358.5C 170.188,355.479 173.521,352.146 176.5,348.5C 178.372,346.396 180.705,345.063 183.5,344.5 Z"/></g>
<g><path style="opacity:1" fill="#f8c6c4" d="M 171.5,345.5 C 172.899,346.89 174.566,347.89 176.5,348.5C 173.521,352.146 170.188,355.479 166.5,358.5C 164.812,357.479 163.479,356.145 162.5,354.5C 165.167,351.167 168.167,348.167 171.5,345.5 Z"/></g>
<g><path style="opacity:1" fill="#f2adab" d="M 189.5,361.5 C 187.664,359.412 185.331,358.079 182.5,357.5C 185.629,353.869 188.963,350.369 192.5,347C 196.347,346.315 198.18,347.815 198,351.5C 195.302,355.025 192.469,358.358 189.5,361.5 Z"/></g>
<g><path style="opacity:1" fill="#81b8b2" d="M 364.5,343.5 C 373.351,359.233 377.684,376.233 377.5,394.5C 358.526,393.739 342.359,400.073 329,413.5C 327.5,415.667 326,417.833 324.5,420C 319.109,420.692 313.775,420.359 308.5,419C 334.698,399.318 353.364,374.152 364.5,343.5 Z"/></g>
<g><path style="opacity:1" fill="#f8c8c7" d="M 182.5,357.5 C 185.331,358.079 187.664,359.412 189.5,361.5C 188.833,362.833 188.167,364.167 187.5,365.5C 182.363,371.022 177.696,370.355 173.5,363.5C 174.857,361.814 176.19,360.148 177.5,358.5C 179.292,358.634 180.958,358.301 182.5,357.5 Z"/></g>
<g><path style="opacity:1" fill="#83b8b2" d="M 355.5,318.5 C 359.305,327.29 359.472,336.29 356,345.5C 343.694,374.48 324.694,398.146 299,416.5C 289.267,413.55 280.101,409.383 271.5,404C 306.091,381.91 334.091,353.41 355.5,318.5 Z"/></g>
<g><path style="opacity:1" fill="#f3b6b3" d="M 200.5,376.5 C 196.836,377 193.836,375.833 191.5,373C 192.252,372.329 192.586,371.496 192.5,370.5C 196.258,365.565 200.258,360.732 204.5,356C 209.152,355.658 210.986,357.824 210,362.5C 206.612,367.048 203.445,371.714 200.5,376.5 Z"/></g>
<g><path style="opacity:1" fill="#83b8b2" d="M 326.5,345.5 C 308.591,366.748 287.924,384.748 264.5,399.5C 261.528,397.694 258.695,395.694 256,393.5C 255.956,387.045 256.956,380.711 259,374.5C 274.105,367.2 288.271,358.533 301.5,348.5C 309.846,347.593 318.179,346.593 326.5,345.5 Z"/></g>
<g><path style="opacity:1" fill="#f6ce98" d="M 416.5,425.5 C 418.623,430.011 417.289,431.845 412.5,431C 400.845,416.671 385.845,410.337 367.5,412C 361.249,413.792 355.582,416.626 350.5,420.5C 346.797,420.093 343.13,419.426 339.5,418.5C 338.287,418.253 337.62,417.586 337.5,416.5C 350.73,404.104 366.397,399.604 384.5,403C 391.002,404.585 397.002,407.252 402.5,411C 407.076,416.046 411.743,420.88 416.5,425.5 Z"/></g>
<g><path style="opacity:1" fill="#f0a09c" d="M 452.5,369.5 C 456.189,384.58 460.522,399.58 465.5,414.5C 465.421,418.238 464.254,421.572 462,424.5C 458.201,427.297 454.701,430.464 451.5,434C 449.299,434.825 447.466,434.325 446,432.5C 443.333,426.5 440.667,420.5 438,414.5C 437.333,411.833 437.333,409.167 438,406.5C 441.053,401.726 443.553,396.726 445.5,391.5C 444.031,385.762 442.365,380.096 440.5,374.5C 443.947,374.186 447.28,373.352 450.5,372C 451.756,371.583 452.423,370.75 452.5,369.5 Z"/></g>
<g><path style="opacity:1" fill="#de734d" d="M 416.5,425.5 C 422.173,427.31 427.34,426.31 432,422.5C 434.123,424.573 435.623,427.073 436.5,430C 428.216,438.359 418.882,439.692 408.5,434C 394.328,416.79 376.994,412.457 356.5,421C 347.209,427.411 341.876,436.244 340.5,447.5C 339.732,448.263 339.232,449.263 339,450.5C 338.505,448.527 338.338,446.527 338.5,444.5C 339.426,434.923 343.426,426.923 350.5,420.5C 355.582,416.626 361.249,413.792 367.5,412C 385.845,410.337 400.845,416.671 412.5,431C 417.289,431.845 418.623,430.011 416.5,425.5 Z"/></g>
<g><path style="opacity:1" fill="#f7c190" d="M 337.5,416.5 C 337.62,417.586 338.287,418.253 339.5,418.5C 343.13,419.426 346.797,420.093 350.5,420.5C 343.426,426.923 339.426,434.923 338.5,444.5C 334.429,443.816 330.429,442.816 326.5,441.5C 325.571,440.311 325.238,438.978 325.5,437.5C 327.174,429.151 331.174,422.151 337.5,416.5 Z"/></g>
<g><path style="opacity:1" fill="#f2af85" d="M 325.5,437.5 C 325.238,438.978 325.571,440.311 326.5,441.5C 330.429,442.816 334.429,443.816 338.5,444.5C 338.338,446.527 338.505,448.527 339,450.5C 339.232,449.263 339.732,448.263 340.5,447.5C 338.35,464.68 344.016,478.513 357.5,489C 343.01,487.192 333.177,479.359 328,465.5C 324.997,456.192 324.164,446.859 325.5,437.5 Z"/></g>
</svg>
