<?xml version="1.0" encoding="UTF-8"?>
<!DOCTYPE svg PUBLIC "-//W3C//DTD SVG 1.1//EN" "http://www.w3.org/Graphics/SVG/1.1/DTD/svg11.dtd">
<svg xmlns="http://www.w3.org/2000/svg" version="1.1" width="512px" height="512px" style="shape-rendering:geometricPrecision; text-rendering:geometricPrecision; image-rendering:optimizeQuality; fill-rule:evenodd; clip-rule:evenodd" xmlns:xlink="http://www.w3.org/1999/xlink">
<g><path style="opacity:1" fill="#272638" d="M 305.5,19.5 C 316.026,20.2594 325.693,23.5927 334.5,29.5C 342.835,23.1552 352.168,19.9885 362.5,20C 371.249,25.4136 378.749,32.2469 385,40.5C 388.684,35.0846 391.851,35.2513 394.5,41C 394.507,42.8122 393.84,44.3122 392.5,45.5C 395.213,46.9055 397.879,48.4055 400.5,50C 402.271,56.3936 399.938,58.5603 393.5,56.5C 392.525,65.0013 391.525,73.5013 390.5,82C 390.031,93.2729 395.198,100.106 406,102.5C 410.92,101.415 414.087,98.4145 415.5,93.5C 417.969,91.9934 420.135,92.3268 422,94.5C 425.662,106.612 423.496,117.445 415.5,127C 410.867,129.742 405.867,131.409 400.5,132C 402.912,150.634 394.912,162.468 376.5,167.5C 373.914,167.054 372.58,165.554 372.5,163C 374.615,158.006 375.448,152.839 375,147.5C 373.862,143.552 371.529,140.552 368,138.5C 365.385,142.783 362.385,146.783 359,150.5C 358.283,158.912 358.783,167.245 360.5,175.5C 369.473,176.073 377.473,173.573 384.5,168C 397.72,163.044 409.553,165.211 420,174.5C 428.398,170.567 435.398,172.233 441,179.5C 444.728,185.685 447.061,192.351 448,199.5C 461.262,207.583 469.095,219.25 471.5,234.5C 470.932,240.643 468.932,246.309 465.5,251.5C 468.825,264.643 472.658,277.643 477,290.5C 482.059,302.286 487.393,313.953 493,325.5C 495.401,334.503 492.901,341.67 485.5,347C 468.244,353.298 451.244,360.131 434.5,367.5C 444.661,375.485 455.494,382.485 467,388.5C 476.207,399.749 477.874,412.083 472,425.5C 470.01,428.488 467.677,431.155 465,433.5C 463.82,453.362 455.653,469.528 440.5,482C 431.8,488.234 422.134,491.234 411.5,491C 409.604,489.192 409.104,487.025 410,484.5C 411.833,482.167 413.667,479.833 415.5,477.5C 371.308,479.708 331.641,467.541 296.5,441C 290.301,435.136 284.468,428.969 279,422.5C 275.431,441.185 278.097,458.852 287,475.5C 289.786,478.888 293.119,481.554 297,483.5C 297.667,485.5 297.667,487.5 297,489.5C 274.302,491.046 254.135,484.546 236.5,470C 227.814,461.466 221.814,451.3 218.5,439.5C 195.548,426.599 186.381,407.266 191,381.5C 202.38,355.316 208.713,327.983 210,299.5C 195.363,308.091 183.696,305.091 175,290.5C 164.033,265.641 155.366,239.974 149,213.5C 146.185,204.553 142.685,195.887 138.5,187.5C 130.231,187.448 121.897,187.281 113.5,187C 112.069,186.535 110.903,185.701 110,184.5C 109.333,194.167 109.333,203.833 110,213.5C 123.992,212.643 131.825,219.31 133.5,233.5C 133.449,235.1 133.116,236.6 132.5,238C 149.427,241.868 155.093,251.868 149.5,268C 157.919,277.281 158.586,287.115 151.5,297.5C 161.183,309.296 160.183,320.129 148.5,330C 145.568,331.145 142.568,331.978 139.5,332.5C 141.07,347.427 134.404,355.594 119.5,357C 115.152,370.342 106.152,375.009 92.5,371C 87.7062,368.114 84.0395,364.114 81.5,359C 74.8186,357.655 69.8186,353.989 66.5,348C 57.2975,344.763 52.6309,338.263 52.5,328.5C 42.1125,327.109 36.4458,321.109 35.5,310.5C 35.9214,304.157 38.5881,298.99 43.5,295C 40.1073,288.784 39.6073,282.284 42,275.5C 44.2215,271.612 47.3882,268.779 51.5,267C 45.965,257.979 46.965,249.645 54.5,242C 51.2879,240.921 47.9546,240.421 44.5,240.5C 39.4858,240.96 34.4858,241.127 29.5,241C 28.4086,238.936 28.2419,236.769 29,234.5C 36.5796,231.726 44.413,230.893 52.5,232C 59.565,233.45 66.3983,235.617 73,238.5C 74.7748,237.73 76.2748,236.563 77.5,235C 70.5111,230.346 65.3445,224.179 62,216.5C 57.4459,213.882 53.4459,210.548 50,206.5C 38.2374,211.945 27.9041,209.945 19,200.5C 17.5783,197.97 17.245,195.303 18,192.5C 20.0425,190.288 22.2092,188.288 24.5,186.5C 17.7287,177.483 16.062,167.65 19.5,157C 26.7993,155.27 33.7993,156.27 40.5,160C 43.646,162.312 46.646,164.812 49.5,167.5C 60.3416,157.615 66.8416,159.949 69,174.5C 69.8512,179.97 69.3512,185.303 67.5,190.5C 67.8333,190.833 68.1667,191.167 68.5,191.5C 77.1571,186.406 83.9904,188.073 89,196.5C 90.7545,208.595 85.5878,215.928 73.5,218.5C 77.0187,222.852 81.0187,226.686 85.5,230C 87.8098,230.497 90.1432,230.663 92.5,230.5C 93.091,224.422 95.9243,219.755 101,216.5C 101.5,204.505 101.667,192.505 101.5,180.5C 89.8494,179.537 86.0161,173.537 90,162.5C 93.694,156.469 98.8607,152.303 105.5,150C 117.86,149.283 130.193,149.616 142.5,151C 150.013,152.838 155.847,157.004 160,163.5C 169.324,183.498 180.657,202.165 194,219.5C 198.523,226.545 202.523,233.878 206,241.5C 208.185,240.072 210.185,238.405 212,236.5C 213.114,222.733 219.78,212.733 232,206.5C 233.388,191.873 240.221,180.706 252.5,173C 258.401,170.723 264.068,171.223 269.5,174.5C 280.804,169.742 291.47,170.908 301.5,178C 305.802,179.535 310.135,179.702 314.5,178.5C 318.614,170.703 319.281,162.703 316.5,154.5C 310.118,150.452 305.118,145.118 301.5,138.5C 295.548,140.79 292.881,145.124 293.5,151.5C 293.579,155.571 294.579,159.405 296.5,163C 295.667,165.167 294.167,166.667 292,167.5C 273.645,162.329 265.478,150.329 267.5,131.5C 252.381,129.876 244.715,121.376 244.5,106C 244.487,101.391 245.487,97.058 247.5,93C 249.167,92.3333 250.833,92.3333 252.5,93C 256.239,102.801 262.573,104.801 271.5,99C 276.407,94.0641 278.407,88.0641 277.5,81C 277.325,74.781 276.658,68.6143 275.5,62.5C 275.926,57.87 276.926,53.37 278.5,49C 274.394,45.5726 270.228,42.0726 266,38.5C 265.397,31.4198 268.23,29.7531 274.5,33.5C 275.494,29.8284 277.66,27.1617 281,25.5C 282.473,25.9031 283.806,26.5697 285,27.5C 284.667,31.5 284.333,35.5 284,39.5C 290.681,32.2548 297.848,25.5881 305.5,19.5 Z M 75.5,197.5 C 80.5605,197.629 82.0605,199.962 80,204.5C 77.3436,208.035 73.8436,209.535 69.5,209C 68.2512,206.79 68.4178,204.624 70,202.5C 71.7297,200.598 73.563,198.931 75.5,197.5 Z M 60.5,200.5 C 60.8747,203.907 59.8747,204.407 57.5,202C 58.2438,200.961 59.2438,200.461 60.5,200.5 Z M 430.5,291.5 C 434.157,299.642 438.49,307.475 443.5,315C 434.642,324.857 425.475,334.357 416,343.5C 415.119,335.044 415.786,326.71 418,318.5C 421.648,309.208 425.814,300.208 430.5,291.5 Z"/></g>
<g><path style="opacity:1" fill="#975574" d="M 360.5,51.5 C 353.5,51.5 346.5,51.5 339.5,51.5C 337.5,50.1667 335.5,50.1667 333.5,51.5C 326.167,51.5 318.833,51.5 311.5,51.5C 304.261,50.7539 297.594,48.4206 291.5,44.5C 296.328,37.3428 302.495,31.6761 310,27.5C 318.432,30.3852 326.432,34.0519 334,38.5C 339.675,36.0785 345.175,33.2452 350.5,30C 353.43,28.6821 356.43,28.0154 359.5,28C 366.793,32.959 373.126,38.959 378.5,46C 376.189,48.1637 373.522,49.1637 370.5,49C 372.65,43.8254 370.983,41.492 365.5,42C 364.053,45.3169 362.387,48.4835 360.5,51.5 Z"/></g>
<g><path style="opacity:1" fill="#874b69" d="M 311.5,51.5 C 318.833,51.5 326.167,51.5 333.5,51.5C 332.631,53.717 332.298,56.0504 332.5,58.5C 329.531,62.4762 326.531,66.4762 323.5,70.5C 310.833,70.5 298.167,70.5 285.5,70.5C 284.349,65.3497 284.183,60.0164 285,54.5C 286.493,50.9422 288.66,50.6088 291.5,53.5C 291.087,57.4521 293.087,59.7854 297.5,60.5C 299.192,59.0314 301.192,58.3647 303.5,58.5C 307.809,59.3273 312.142,59.994 316.5,60.5C 321.684,61.4849 323.517,59.4849 322,54.5C 318.443,53.3353 314.943,52.3353 311.5,51.5 Z"/></g>
<g><path style="opacity:1" fill="#864b68" d="M 339.5,51.5 C 346.5,51.5 353.5,51.5 360.5,51.5C 360.082,52.2216 359.416,52.7216 358.5,53C 355.167,53.3333 351.833,53.6667 348.5,54C 344.067,58.5266 345.067,61.0266 351.5,61.5C 356.871,60.8995 362.204,60.0661 367.5,59C 372.749,56.873 378.083,55.0397 383.5,53.5C 384.833,59.1667 384.833,64.8333 383.5,70.5C 371.167,70.5 358.833,70.5 346.5,70.5C 341.895,68.2338 339.895,64.5671 340.5,59.5C 340.721,56.7212 340.388,54.0545 339.5,51.5 Z"/></g>
<g><path style="opacity:1" fill="#5b3250" d="M 332.5,58.5 C 328.961,73.8915 319.961,85.0581 305.5,92C 301.251,93.1256 296.918,93.7923 292.5,94C 288.797,99.8974 290.464,102.397 297.5,101.5C 297.72,110.423 298.72,119.257 300.5,128C 298.286,130.458 295.619,132.458 292.5,134C 286.57,139.847 284.07,147.013 285,155.5C 276.523,149.574 273.69,141.574 276.5,131.5C 279.609,129.525 282.443,127.192 285,124.5C 287.54,120.642 286.707,117.976 282.5,116.5C 280.199,117.857 278.199,119.69 276.5,122C 266.322,125.987 258.822,123.154 254,113.5C 252.572,108.894 253.739,107.727 257.5,110C 271.376,111.442 280.542,105.609 285,92.5C 285.499,87.1771 285.666,81.8437 285.5,76.5C 286.483,80.2984 286.817,84.2984 286.5,88.5C 301.639,88.0965 313.972,82.0965 323.5,70.5C 326.531,66.4762 329.531,62.4762 332.5,58.5 Z"/></g>
<g><path style="opacity:1" fill="#5b3250" d="M 340.5,59.5 C 339.895,64.5671 341.895,68.2338 346.5,70.5C 355.438,81.1008 366.771,87.4341 380.5,89.5C 381.713,89.2528 382.38,88.5862 382.5,87.5C 385.73,105.719 396.397,112.719 414.5,108.5C 415.059,115.851 411.725,120.684 404.5,123C 397.98,124.252 391.98,123.086 386.5,119.5C 384.591,120.348 382.591,120.682 380.5,120.5C 382.326,126.318 386.326,129.651 392.5,130.5C 395.379,140.749 392.545,149.082 384,155.5C 384.9,144.237 380.4,135.904 370.5,130.5C 369.389,121.169 369.389,111.836 370.5,102.5C 372.857,102.663 375.19,102.497 377.5,102C 378.982,99.4082 378.648,97.0749 376.5,95C 366.18,94.0074 357.18,90.0074 349.5,83C 345.618,78.7861 342.118,74.2861 339,69.5C 338.757,65.9668 339.257,62.6335 340.5,59.5 Z"/></g>
<g><path style="opacity:1" fill="#7c4261" d="M 285.5,70.5 C 298.167,70.5 310.833,70.5 323.5,70.5C 313.972,82.0965 301.639,88.0965 286.5,88.5C 286.817,84.2984 286.483,80.2984 285.5,76.5C 285.5,74.5 285.5,72.5 285.5,70.5 Z"/></g>
<g><path style="opacity:1" fill="#7c4261" d="M 346.5,70.5 C 358.833,70.5 371.167,70.5 383.5,70.5C 382.646,76.1209 382.313,81.7876 382.5,87.5C 382.38,88.5862 381.713,89.2528 380.5,89.5C 366.771,87.4341 355.438,81.1008 346.5,70.5 Z"/></g>
<g><path style="opacity:1" fill="#d87582" d="M 362.5,107.5 C 351.191,104.171 341.857,97.838 334.5,88.5C 327.25,98.3985 317.583,104.732 305.5,107.5C 305.187,104.753 305.52,102.086 306.5,99.5C 318.228,94.9416 327.395,87.275 334,76.5C 341.166,86.4943 350.333,94.1609 361.5,99.5C 362.48,102.086 362.813,104.753 362.5,107.5 Z"/></g>
<g><path style="opacity:1" fill="#f0adab" d="M 362.5,107.5 C 362.577,111.215 362.244,114.881 361.5,118.5C 358.833,118.5 356.167,118.5 353.5,118.5C 356.516,114.915 355.85,112.249 351.5,110.5C 348.855,111.108 346.188,111.608 343.5,112C 341.316,113.898 340.983,116.064 342.5,118.5C 338.167,118.5 333.833,118.5 329.5,118.5C 330.357,112.668 327.857,110.335 322,111.5C 315.445,110.788 313.945,113.122 317.5,118.5C 314.167,118.5 310.833,118.5 307.5,118.5C 307.5,120.167 307.5,121.833 307.5,123.5C 306.741,118.302 306.075,112.969 305.5,107.5C 317.583,104.732 327.25,98.3985 334.5,88.5C 341.857,97.838 351.191,104.171 362.5,107.5 Z"/></g>
<g><path style="opacity:1" fill="#2d2a3c" d="M 329.5,118.5 C 325.528,119.62 321.528,119.62 317.5,118.5C 313.945,113.122 315.445,110.788 322,111.5C 327.857,110.335 330.357,112.668 329.5,118.5 Z"/></g>
<g><path style="opacity:1" fill="#2c2a3c" d="M 353.5,118.5 C 349.713,118.915 346.046,118.915 342.5,118.5C 340.983,116.064 341.316,113.898 343.5,112C 346.188,111.608 348.855,111.108 351.5,110.5C 355.85,112.249 356.516,114.915 353.5,118.5 Z"/></g>
<g><path style="opacity:1" fill="#f8bdbc" d="M 317.5,118.5 C 321.528,119.62 325.528,119.62 329.5,118.5C 333.833,118.5 338.167,118.5 342.5,118.5C 346.046,118.915 349.713,118.915 353.5,118.5C 356.167,118.5 358.833,118.5 361.5,118.5C 361.666,122.846 361.499,127.179 361,131.5C 360.768,132.737 360.268,133.737 359.5,134.5C 351.528,133.169 343.194,132.502 334.5,132.5C 325.993,132.5 317.66,132.834 309.5,133.5C 308.566,130.344 307.899,127.011 307.5,123.5C 307.5,121.833 307.5,120.167 307.5,118.5C 310.833,118.5 314.167,118.5 317.5,118.5 Z"/></g>
<g><path style="opacity:1" fill="#f7c9c8" d="M 359.5,134.5 C 354.658,145.003 346.658,152.003 335.5,155.5C 327.048,151.873 319.548,146.873 313,140.5C 311.295,138.423 310.128,136.09 309.5,133.5C 317.66,132.834 325.993,132.5 334.5,132.5C 343.194,132.502 351.528,133.169 359.5,134.5 Z"/></g>
<g><path style="opacity:1" fill="#f6c7c5" d="M 149.5,164.5 C 148.072,168.953 146.739,173.453 145.5,178C 145.164,179.03 144.497,179.53 143.5,179.5C 134.205,178.848 124.872,178.515 115.5,178.5C 114.294,176.484 114.294,174.484 115.5,172.5C 118.167,171.833 120.833,171.167 123.5,170.5C 124.938,168.002 124.604,165.836 122.5,164C 118.318,163.389 114.318,164.056 110.5,166C 106.833,168.167 103.167,170.333 99.5,172.5C 97.0544,171.573 96.2211,169.906 97,167.5C 100.972,160.098 107.139,156.764 115.5,157.5C 123.832,158.02 132.165,158.52 140.5,159C 144.2,159.843 147.2,161.676 149.5,164.5 Z"/></g>
<g><path style="opacity:1" fill="#d67582" d="M 352.5,175.5 C 343.019,175.299 334.353,172.633 326.5,167.5C 326.336,164.813 326.503,162.146 327,159.5C 329.352,161.343 332.019,162.343 335,162.5C 340.138,161.732 344.971,160.065 349.5,157.5C 350.262,163.56 351.262,169.56 352.5,175.5 Z"/></g>
<g><path style="opacity:1" fill="#9bb9a9" d="M 25.5,164.5 C 35.9539,165.113 42.7872,170.447 46,180.5C 47.8138,181.76 49.6471,181.76 51.5,180.5C 53.0875,176.59 55.4208,173.257 58.5,170.5C 63.6082,180.682 61.4415,189.015 52,195.5C 49.5315,193.358 47.3649,190.858 45.5,188C 42.1432,186.859 40.1432,188.025 39.5,191.5C 40.6511,194.465 42.3178,197.131 44.5,199.5C 37.686,202.868 31.686,201.702 26.5,196C 29.6193,193.107 33.286,191.274 37.5,190.5C 38.767,188.629 38.767,186.796 37.5,185C 29.0319,180.911 25.0319,174.078 25.5,164.5 Z"/></g>
<g><path style="opacity:1" fill="#f6cacb" d="M 326.5,167.5 C 334.353,172.633 343.019,175.299 352.5,175.5C 352.586,176.496 352.252,177.329 351.5,178C 346.699,178.317 345.365,180.65 347.5,185C 356.849,184.517 366.182,183.517 375.5,182C 380.833,179.333 386.167,176.667 391.5,174C 401.321,171.751 408.987,174.751 414.5,183C 412.861,187.115 410.861,190.949 408.5,194.5C 362.67,193.501 316.67,193.168 270.5,193.5C 270.335,190.15 270.502,186.817 271,183.5C 275.861,179.716 281.361,178.549 287.5,180C 292.41,182.623 297.41,184.956 302.5,187C 311.833,187.667 321.167,187.667 330.5,187C 332.602,185.267 332.935,183.267 331.5,181C 328.854,180.503 326.187,180.336 323.5,180.5C 324.598,176.089 325.598,171.755 326.5,167.5 Z"/></g>
<g><path style="opacity:1" fill="#f6bab8" d="M 149.5,164.5 C 151.451,165.716 152.951,167.382 154,169.5C 160.095,182.699 166.929,195.366 174.5,207.5C 171.674,216.798 168.84,226.132 166,235.5C 165.617,236.056 165.117,236.389 164.5,236.5C 159.277,216.83 152.277,197.83 143.5,179.5C 144.497,179.53 145.164,179.03 145.5,178C 146.739,173.453 148.072,168.953 149.5,164.5 Z"/></g>
<g><path style="opacity:1" fill="#f9cdc7" d="M 270.5,193.5 C 316.67,193.168 362.67,193.501 408.5,194.5C 407.299,198.263 405.799,201.93 404,205.5C 402.769,198.332 399.603,196.998 394.5,201.5C 353.167,201.5 311.833,201.5 270.5,201.5C 270.5,198.833 270.5,196.167 270.5,193.5 Z"/></g>
<g><path style="opacity:1" fill="#f7c6c6" d="M 270.5,201.5 C 311.833,201.5 353.167,201.5 394.5,201.5C 397.051,207.152 398.051,213.152 397.5,219.5C 396.833,220.167 396.167,220.833 395.5,221.5C 377.833,221.5 360.167,221.5 342.5,221.5C 342.768,223.099 342.434,224.432 341.5,225.5C 341.666,218.825 341.5,212.158 341,205.5C 339,202.833 337,202.833 335,205.5C 334.829,213.011 334.329,220.345 333.5,227.5C 333.5,225.5 333.5,223.5 333.5,221.5C 315.423,221.181 297.423,221.514 279.5,222.5C 281.208,217.228 282.375,211.894 283,206.5C 280.408,205.018 278.075,205.352 276,207.5C 274.465,211.773 273.131,216.106 272,220.5C 270.63,214.258 270.13,207.925 270.5,201.5 Z"/></g>
<g><path style="opacity:1" fill="#d75194" d="M 269.5,260.5 C 262.913,262.461 255.913,263.128 248.5,262.5C 246.596,252.721 244.596,243.054 242.5,233.5C 241.808,225.009 241.142,216.509 240.5,208C 240.814,195.366 246.48,186.032 257.5,180C 259.167,179.333 260.833,179.333 262.5,180C 261.537,207.029 263.87,233.862 269.5,260.5 Z"/></g>
<g><path style="opacity:1" fill="#d65194" d="M 430.5,218.5 C 428.983,218.511 427.816,219.177 427,220.5C 417.117,233.268 409.617,247.268 404.5,262.5C 400.821,262.06 397.488,262.727 394.5,264.5C 399.722,236.001 409.222,209.001 423,183.5C 425.679,180.165 428.845,179.665 432.5,182C 437.5,188.331 439.666,195.497 439,203.5C 435.636,208.23 432.803,213.23 430.5,218.5 Z"/></g>
<g><path style="opacity:1" fill="#d85094" d="M 441.5,263.5 C 435.021,262.509 428.354,262.176 421.5,262.5C 422.833,260.5 422.833,258.5 421.5,256.5C 422.032,252.039 423.032,247.706 424.5,243.5C 425.822,243.67 426.989,243.337 428,242.5C 432.572,230.856 438.072,219.689 444.5,209C 452.578,212.751 458.411,218.918 462,227.5C 462.826,232.589 462.492,237.589 461,242.5C 454.662,249.671 448.162,256.671 441.5,263.5 Z"/></g>
<g><path style="opacity:1" fill="#d24f91" d="M 236.5,279.5 C 235.511,274.025 235.178,268.358 235.5,262.5C 230.5,262.5 225.5,262.5 220.5,262.5C 220.784,264.415 220.451,266.081 219.5,267.5C 219.632,255.154 220.132,242.821 221,230.5C 223.133,224.031 227.133,219.031 233,215.5C 234.601,236.814 235.768,258.147 236.5,279.5 Z"/></g>
<g><path style="opacity:1" fill="#f9c7c0" d="M 333.5,227.5 C 333.5,228.833 333.5,230.167 333.5,231.5C 314.992,231.83 296.659,231.497 278.5,230.5C 278.401,227.763 278.735,225.096 279.5,222.5C 297.423,221.514 315.423,221.181 333.5,221.5C 333.5,223.5 333.5,225.5 333.5,227.5 Z"/></g>
<g><path style="opacity:1" fill="#f9c7c0" d="M 395.5,221.5 C 394.167,224.833 392.833,228.167 391.5,231.5C 374.833,231.5 358.167,231.5 341.5,231.5C 341.5,229.5 341.5,227.5 341.5,225.5C 342.434,224.432 342.768,223.099 342.5,221.5C 360.167,221.5 377.833,221.5 395.5,221.5 Z"/></g>
<g><path style="opacity:1" fill="#d77783" d="M 397.5,219.5 C 394.43,230.382 391.763,241.382 389.5,252.5C 387.958,253.301 386.292,253.634 384.5,253.5C 386.033,245.901 388.366,238.568 391.5,231.5C 392.833,228.167 394.167,224.833 395.5,221.5C 396.167,220.833 396.833,220.167 397.5,219.5 Z"/></g>
<g><path style="opacity:1" fill="#f3afac" d="M 174.5,207.5 C 184.05,218.589 191.883,230.923 198,244.5C 198.667,246.167 198.667,247.833 198,249.5C 195.778,251.385 193.944,253.551 192.5,256C 193,258.5 194.5,260 197,260.5C 199.317,259.015 201.484,257.348 203.5,255.5C 203.134,266.833 200.301,277.499 195,287.5C 193.106,290.844 190.273,292.178 186.5,291.5C 182.087,287.024 178.921,281.691 177,275.5C 172.125,262.709 167.958,249.709 164.5,236.5C 165.117,236.389 165.617,236.056 166,235.5C 168.84,226.132 171.674,216.798 174.5,207.5 Z"/></g>
<g><path style="opacity:1" fill="#77447b" d="M 107.5,221.5 C 120.374,220.205 125.874,225.872 124,238.5C 120.868,244.164 116.034,246.498 109.5,245.5C 109.245,242.984 108.411,240.65 107,238.5C 104.556,236.246 102.389,233.913 100.5,231.5C 101.379,227.05 103.713,223.717 107.5,221.5 Z"/></g>
<g><path style="opacity:1" fill="#f8c0c0" d="M 278.5,230.5 C 296.659,231.497 314.992,231.83 333.5,231.5C 333.147,236.357 332.147,241.024 330.5,245.5C 320.833,245.5 311.167,245.5 301.5,245.5C 301.357,241.695 299.357,240.029 295.5,240.5C 291.643,240.029 289.643,241.695 289.5,245.5C 285.5,245.5 281.5,245.5 277.5,245.5C 277.5,242.167 277.5,238.833 277.5,235.5C 277.216,233.585 277.549,231.919 278.5,230.5 Z"/></g>
<g><path style="opacity:1" fill="#f6bebd" d="M 341.5,231.5 C 358.167,231.5 374.833,231.5 391.5,231.5C 388.366,238.568 386.033,245.901 384.5,253.5C 380.167,253.5 375.833,253.5 371.5,253.5C 364.209,252.875 357.042,251.542 350,249.5C 348.893,249.585 347.893,249.919 347,250.5C 346.506,252.134 346.34,253.801 346.5,255.5C 342.167,256.833 337.833,256.833 333.5,255.5C 338.271,248.253 340.938,240.253 341.5,231.5 Z"/></g>
<g><path style="opacity:1" fill="#744479" d="M 86.5,238.5 C 99.5283,238.015 104.695,244.015 102,256.5C 100.31,259.024 98.1432,261.024 95.5,262.5C 90.815,259.217 85.6484,257.217 80,256.5C 77.1236,248.626 79.2903,242.626 86.5,238.5 Z"/></g>
<g><path style="opacity:1" fill="#2a283a" d="M 368.5,238.5 C 371.518,238.335 374.518,238.502 377.5,239C 380.167,241 380.167,243 377.5,245C 374.5,245.667 371.5,245.667 368.5,245C 367.232,242.837 367.232,240.67 368.5,238.5 Z"/></g>
<g><path style="opacity:1" fill="#332f40" d="M 301.5,245.5 C 300.393,247.931 298.393,248.931 295.5,248.5C 292.692,248.922 290.692,247.922 289.5,245.5C 289.643,241.695 291.643,240.029 295.5,240.5C 299.357,240.029 301.357,241.695 301.5,245.5 Z"/></g>
<g><path style="opacity:1" fill="#f8bfba" d="M 277.5,245.5 C 281.5,245.5 285.5,245.5 289.5,245.5C 290.692,247.922 292.692,248.922 295.5,248.5C 298.393,248.931 300.393,247.931 301.5,245.5C 311.167,245.5 320.833,245.5 330.5,245.5C 328.445,250.385 324.778,253.219 319.5,254C 306.212,255.381 292.879,255.881 279.5,255.5C 278.518,252.237 277.851,248.903 277.5,245.5 Z"/></g>
<g><path style="opacity:1" fill="#be85da" d="M 85.5,242.5 C 92.0199,242.717 93.6866,245.551 90.5,251C 83.2372,251.821 81.5705,248.988 85.5,242.5 Z"/></g>
<g><path style="opacity:1" fill="#d77582" d="M 186.5,291.5 C 190.273,292.178 193.106,290.844 195,287.5C 200.301,277.499 203.134,266.833 203.5,255.5C 206.438,253.066 209.271,250.399 212,247.5C 212.589,261.202 212.089,274.869 210.5,288.5C 206.487,292.686 201.653,295.353 196,296.5C 191.801,296.613 188.634,294.946 186.5,291.5 Z"/></g>
<g><path style="opacity:1" fill="#c47983" d="M 277.5,235.5 C 277.5,238.833 277.5,242.167 277.5,245.5C 277.851,248.903 278.518,252.237 279.5,255.5C 278.5,255.5 277.5,255.5 276.5,255.5C 276.176,248.646 276.509,241.979 277.5,235.5 Z"/></g>
<g><path style="opacity:1" fill="#734376" d="M 63.5,245.5 C 65.9201,245.292 68.2534,245.626 70.5,246.5C 71.2652,250.325 71.9319,254.158 72.5,258C 69.6827,261.147 66.516,263.98 63,266.5C 56.9489,263.235 54.9489,258.235 57,251.5C 58.4936,248.686 60.6603,246.686 63.5,245.5 Z"/></g>
<g><path style="opacity:1" fill="#c086dc" d="M 61.5,250.5 C 66.1585,250.015 67.4919,251.848 65.5,256C 60.7282,256.81 59.3948,254.977 61.5,250.5 Z"/></g>
<g><path style="opacity:1" fill="#7f616b" d="M 389.5,252.5 C 386.913,253.816 383.913,254.483 380.5,254.5C 377.314,254.498 374.314,254.165 371.5,253.5C 375.833,253.5 380.167,253.5 384.5,253.5C 386.292,253.634 387.958,253.301 389.5,252.5 Z"/></g>
<g><path style="opacity:1" fill="#744377" d="M 127.5,247.5 C 139.99,245.823 145.157,251.156 143,263.5C 142.215,265.286 141.049,266.786 139.5,268C 126.074,272.238 120.241,267.404 122,253.5C 123.36,250.977 125.193,248.977 127.5,247.5 Z"/></g>
<g><path style="opacity:1" fill="#c086dc" d="M 126.5,252.5 C 133.486,252.331 135.153,255.164 131.5,261C 124.416,261.475 122.749,258.642 126.5,252.5 Z"/></g>
<g><path style="opacity:1" fill="#f6b8b6" d="M 333.5,255.5 C 337.833,256.833 342.167,256.833 346.5,255.5C 357.959,260.36 369.959,262.36 382.5,261.5C 380.762,268.19 379.429,274.857 378.5,281.5C 376.5,281.5 374.5,281.5 372.5,281.5C 367.409,272.411 360.076,265.745 350.5,261.5C 349.558,261.608 348.725,261.941 348,262.5C 347.333,264.167 347.333,265.833 348,267.5C 353.624,270.958 358.458,275.291 362.5,280.5C 353.014,281.494 343.348,281.827 333.5,281.5C 333.5,280.5 333.5,279.5 333.5,278.5C 334.008,275.824 334.175,273.157 334,270.5C 331.368,267.808 329.034,268.141 327,271.5C 325.921,274.063 325.421,276.729 325.5,279.5C 322.093,280.753 318.427,281.42 314.5,281.5C 310.982,281.498 307.649,281.165 304.5,280.5C 306.726,275.228 310.06,270.728 314.5,267C 320.861,263.155 327.194,259.322 333.5,255.5 Z"/></g>
<g><path style="opacity:1" fill="#2b2639" d="M 421.5,256.5 C 422.833,258.5 422.833,260.5 421.5,262.5C 420.833,262.833 420.167,263.167 419.5,263.5C 414.932,263.917 413.432,261.917 415,257.5C 416.898,255.316 419.064,254.983 421.5,256.5 Z"/></g>
<g><path style="opacity:1" fill="#d57481" d="M 462.5,271.5 C 453.593,276.405 446.26,283.072 440.5,291.5C 438.438,288.482 437.272,285.148 437,281.5C 443.46,273.371 450.294,265.537 457.5,258C 458.6,257.568 459.267,258.068 459.5,259.5C 460.505,263.518 461.505,267.518 462.5,271.5 Z"/></g>
<g><path style="opacity:1" fill="#2c2a3c" d="M 372.5,281.5 C 373.435,284.113 373.602,286.779 373,289.5C 371.267,291.602 369.267,291.935 367,290.5C 366.092,286.807 364.592,283.473 362.5,280.5C 358.458,275.291 353.624,270.958 348,267.5C 347.333,265.833 347.333,264.167 348,262.5C 348.725,261.941 349.558,261.608 350.5,261.5C 360.076,265.745 367.409,272.411 372.5,281.5 Z"/></g>
<g><path style="opacity:1" fill="#d67682" d="M 382.5,261.5 C 384.167,261.5 385.833,261.5 387.5,261.5C 382.219,286.492 382.219,311.492 387.5,336.5C 387.547,338.038 386.88,339.038 385.5,339.5C 383.41,334.055 382.076,328.388 381.5,322.5C 380.674,317.016 379.674,311.682 378.5,306.5C 378.5,302.5 378.5,298.5 378.5,294.5C 378.5,290.167 378.5,285.833 378.5,281.5C 379.429,274.857 380.762,268.19 382.5,261.5 Z"/></g>
<g><path style="opacity:1" fill="#d54e8c" d="M 421.5,262.5 C 428.354,262.176 435.021,262.509 441.5,263.5C 431.654,275.195 423.154,287.861 416,301.5C 415.367,294.266 415.867,287.099 417.5,280C 417.395,278.408 417.061,276.908 416.5,275.5C 416.566,271.235 417.566,267.235 419.5,263.5C 420.167,263.167 420.833,262.833 421.5,262.5 Z"/></g>
<g><path style="opacity:1" fill="#d57582" d="M 281.5,263.5 C 286.873,282.813 290.206,302.48 291.5,322.5C 291.5,327.167 291.5,331.833 291.5,336.5C 290.708,342.13 290.375,347.797 290.5,353.5C 288.883,352.962 287.216,352.629 285.5,352.5C 285.667,335.497 285.5,318.497 285,301.5C 283.695,289 281.528,276.667 278.5,264.5C 279.325,263.614 280.325,263.281 281.5,263.5 Z"/></g>
<g><path style="opacity:1" fill="#744475" d="M 79.5,264.5 C 92.974,266.449 96.6407,273.449 90.5,285.5C 84.3372,290.785 78.1706,290.785 72,285.5C 66.7653,275.558 69.2653,268.558 79.5,264.5 Z"/></g>
<g><path style="opacity:1" fill="#734274" d="M 104.5,265.5 C 110.269,264.634 114.769,266.634 118,271.5C 121.051,279.053 118.885,284.387 111.5,287.5C 108.063,285.612 104.396,284.612 100.5,284.5C 102.11,279.335 101.777,274.335 99.5,269.5C 101.015,267.918 102.681,266.584 104.5,265.5 Z"/></g>
<g><path style="opacity:1" fill="#c286dc" d="M 76.5,268.5 C 82.8197,268.32 85.3197,271.32 84,277.5C 80.5821,281.367 77.2488,281.367 74,277.5C 72.9302,273.858 73.7636,270.858 76.5,268.5 Z"/></g>
<g><path style="opacity:1" fill="#2b293b" d="M 333.5,278.5 C 332.84,279.964 332.507,281.631 332.5,283.5C 332.754,287.256 333.421,290.923 334.5,294.5C 334.428,298.626 333.761,302.626 332.5,306.5C 332.051,312.153 333.051,317.487 335.5,322.5C 335.707,325.127 334.54,326.793 332,327.5C 329.657,326.321 327.824,324.654 326.5,322.5C 324.316,314.925 323.983,307.258 325.5,299.5C 320.156,299.666 314.823,299.499 309.5,299C 306.568,295.854 306.902,293.354 310.5,291.5C 315.456,292.394 320.456,292.727 325.5,292.5C 325.5,288.167 325.5,283.833 325.5,279.5C 325.421,276.729 325.921,274.063 327,271.5C 329.034,268.141 331.368,267.808 334,270.5C 334.175,273.157 334.008,275.824 333.5,278.5 Z"/></g>
<g><path style="opacity:1" fill="#9b3661" d="M 430.5,218.5 C 426.921,225.23 423.921,232.23 421.5,239.5C 421.754,241.417 422.754,242.751 424.5,243.5C 423.032,247.706 422.032,252.039 421.5,256.5C 419.064,254.983 416.898,255.316 415,257.5C 413.432,261.917 414.932,263.917 419.5,263.5C 417.566,267.235 416.566,271.235 416.5,275.5C 414.533,275.261 412.699,275.594 411,276.5C 409.262,283.405 408.095,290.405 407.5,297.5C 405.167,297.5 402.833,297.5 400.5,297.5C 400.5,302.167 400.5,306.833 400.5,311.5C 398.484,295.045 399.818,278.711 404.5,262.5C 409.617,247.268 417.117,233.268 427,220.5C 427.816,219.177 428.983,218.511 430.5,218.5 Z"/></g>
<g><path style="opacity:1" fill="#734273" d="M 55.5,273.5 C 57.5,273.5 59.5,273.5 61.5,273.5C 60.9861,279.292 62.3194,284.626 65.5,289.5C 61.8111,295.172 57.1445,296.005 51.5,292C 46.4754,284.277 47.8087,278.11 55.5,273.5 Z"/></g>
<g><path style="opacity:1" fill="#734374" d="M 142.5,274.5 C 149.047,278.403 150.214,283.737 146,290.5C 139.306,296.129 132.973,295.796 127,289.5C 126.219,288.271 125.719,286.938 125.5,285.5C 126.269,282.885 126.603,280.219 126.5,277.5C 129.85,277.665 133.183,277.498 136.5,277C 138.852,276.76 140.852,275.927 142.5,274.5 Z"/></g>
<g><path style="opacity:1" fill="#d84b8e" d="M 236.5,279.5 C 236.334,284.511 236.501,289.511 237,294.5C 237.717,295.044 238.217,295.711 238.5,296.5C 238.5,302.5 238.5,308.5 238.5,314.5C 238.5,315.167 238.5,315.833 238.5,316.5C 233.646,318.584 233.313,321.251 237.5,324.5C 237.5,326.167 237.5,327.833 237.5,329.5C 229.757,330.13 222.424,329.463 215.5,327.5C 218.204,307.602 219.538,287.602 219.5,267.5C 220.451,266.081 220.784,264.415 220.5,262.5C 225.5,262.5 230.5,262.5 235.5,262.5C 235.178,268.358 235.511,274.025 236.5,279.5 Z"/></g>
<g><path style="opacity:1" fill="#d84b8e" d="M 269.5,260.5 C 275.752,282.943 278.752,305.943 278.5,329.5C 270.167,329.5 261.833,329.5 253.5,329.5C 253.5,325.833 253.5,322.167 253.5,318.5C 252.861,299.745 251.194,281.078 248.5,262.5C 255.913,263.128 262.913,262.461 269.5,260.5 Z"/></g>
<g><path style="opacity:1" fill="#d64b8b" d="M 404.5,262.5 C 399.818,278.711 398.484,295.045 400.5,311.5C 401.239,322.966 403.572,333.966 407.5,344.5C 407.808,346.924 407.474,349.257 406.5,351.5C 404.833,352.833 403.167,354.167 401.5,355.5C 393.705,337.648 390.372,318.981 391.5,299.5C 391.056,287.652 392.056,275.985 394.5,264.5C 397.488,262.727 400.821,262.06 404.5,262.5 Z"/></g>
<g><path style="opacity:1" fill="#f4b2b0" d="M 281.5,263.5 C 289.84,263.334 298.173,263.5 306.5,264C 300.748,270.67 296.414,278.17 293.5,286.5C 294.419,289.461 296.419,290.628 299.5,290C 301.323,286.851 302.99,283.684 304.5,280.5C 307.649,281.165 310.982,281.498 314.5,281.5C 318.427,281.42 322.093,280.753 325.5,279.5C 325.5,283.833 325.5,288.167 325.5,292.5C 320.456,292.727 315.456,292.394 310.5,291.5C 306.902,293.354 306.568,295.854 309.5,299C 314.823,299.499 320.156,299.666 325.5,299.5C 323.983,307.258 324.316,314.925 326.5,322.5C 314.833,322.5 303.167,322.5 291.5,322.5C 290.206,302.48 286.873,282.813 281.5,263.5 Z"/></g>
<g><path style="opacity:1" fill="#f5b2b2" d="M 333.5,278.5 C 333.5,279.5 333.5,280.5 333.5,281.5C 343.348,281.827 353.014,281.494 362.5,280.5C 364.592,283.473 366.092,286.807 367,290.5C 369.267,291.935 371.267,291.602 373,289.5C 373.602,286.779 373.435,284.113 372.5,281.5C 374.5,281.5 376.5,281.5 378.5,281.5C 378.5,285.833 378.5,290.167 378.5,294.5C 372.833,294.5 367.167,294.5 361.5,294.5C 361.737,295.791 361.404,296.791 360.5,297.5C 360.67,296.178 360.337,295.011 359.5,294C 353.833,293.333 348.167,293.333 342.5,294C 341.956,294.717 341.289,295.217 340.5,295.5C 338.735,294.539 336.735,294.205 334.5,294.5C 333.421,290.923 332.754,287.256 332.5,283.5C 332.507,281.631 332.84,279.964 333.5,278.5 Z"/></g>
<g><path style="opacity:1" fill="#f1aaa5" d="M 462.5,271.5 C 465.432,281.964 468.766,292.297 472.5,302.5C 472.083,303.124 471.416,303.457 470.5,303.5C 461.559,301.445 452.559,299.778 443.5,298.5C 441.935,296.491 440.935,294.157 440.5,291.5C 446.26,283.072 453.593,276.405 462.5,271.5 Z"/></g>
<g><path style="opacity:1" fill="#744275" d="M 95.5,291.5 C 106.042,290.539 110.542,295.206 109,305.5C 105.82,311.234 100.987,313.067 94.5,311C 87.6058,304.024 87.9391,297.524 95.5,291.5 Z"/></g>
<g><path style="opacity:1" fill="#2e2b3d" d="M 360.5,297.5 C 359.878,299.335 358.544,300.502 356.5,301C 352.167,301.667 347.833,301.667 343.5,301C 341.393,299.736 340.393,297.903 340.5,295.5C 341.289,295.217 341.956,294.717 342.5,294C 348.167,293.333 353.833,293.333 359.5,294C 360.337,295.011 360.67,296.178 360.5,297.5 Z"/></g>
<g><path style="opacity:1" fill="#f6b4ae" d="M 334.5,294.5 C 336.735,294.205 338.735,294.539 340.5,295.5C 340.393,297.903 341.393,299.736 343.5,301C 347.833,301.667 352.167,301.667 356.5,301C 358.544,300.502 359.878,299.335 360.5,297.5C 361.404,296.791 361.737,295.791 361.5,294.5C 367.167,294.5 372.833,294.5 378.5,294.5C 378.5,298.5 378.5,302.5 378.5,306.5C 363.167,306.5 347.833,306.5 332.5,306.5C 333.761,302.626 334.428,298.626 334.5,294.5 Z"/></g>
<g><path style="opacity:1" fill="#94335e" d="M 242.5,233.5 C 244.596,243.054 246.596,252.721 248.5,262.5C 251.194,281.078 252.861,299.745 253.5,318.5C 252.532,316.393 252.198,314.059 252.5,311.5C 248.167,311.5 243.833,311.5 239.5,311.5C 239.737,312.791 239.404,313.791 238.5,314.5C 238.5,308.5 238.5,302.5 238.5,296.5C 240.722,296.822 242.556,296.155 244,294.5C 244.114,274.157 243.614,253.824 242.5,233.5 Z"/></g>
<g><path style="opacity:1" fill="#8d325a" d="M 407.5,297.5 C 406.183,313.16 406.183,328.827 407.5,344.5C 403.572,333.966 401.239,322.966 400.5,311.5C 400.5,306.833 400.5,302.167 400.5,297.5C 402.833,297.5 405.167,297.5 407.5,297.5 Z"/></g>
<g><path style="opacity:1" fill="#bf85db" d="M 95.5,294.5 C 101.803,294.924 103.469,297.757 100.5,303C 93.2372,303.821 91.5705,300.988 95.5,294.5 Z"/></g>
<g><path style="opacity:1" fill="#733f74" d="M 70.5,295.5 C 74.1974,296.008 77.8641,296.674 81.5,297.5C 80.874,302.408 81.874,306.908 84.5,311C 74.9695,317.069 68.9695,314.569 66.5,303.5C 66.7821,300.269 68.1154,297.602 70.5,295.5 Z"/></g>
<g><path style="opacity:1" fill="#723e73" d="M 117.5,298.5 C 124.348,298.349 128.015,301.682 128.5,308.5C 127.826,315.339 123.993,319.005 117,319.5C 114.62,318.799 112.453,317.633 110.5,316C 115.751,311.331 118.085,305.498 117.5,298.5 Z"/></g>
<g><path style="opacity:1" fill="#f2aeae" d="M 332.5,306.5 C 347.833,306.5 363.167,306.5 378.5,306.5C 379.674,311.682 380.674,317.016 381.5,322.5C 366.167,322.5 350.833,322.5 335.5,322.5C 333.051,317.487 332.051,312.153 332.5,306.5 Z"/></g>
<g><path style="opacity:1" fill="#6f3d73" d="M 50.5,300.5 C 53.006,301.75 55.6726,302.416 58.5,302.5C 58.1181,306.54 59.1181,310.207 61.5,313.5C 58.9763,315.19 56.9763,317.357 55.5,320C 48.2657,320.779 44.2657,317.446 43.5,310C 44.5164,305.823 46.8497,302.656 50.5,300.5 Z"/></g>
<g><path style="opacity:1" fill="#6f3d73" d="M 135.5,302.5 C 147.885,302.057 152.051,307.724 148,319.5C 142.969,324.946 137.469,325.613 131.5,321.5C 133.233,318.941 134.733,316.275 136,313.5C 136.678,309.779 136.511,306.112 135.5,302.5 Z"/></g>
<g><path style="opacity:1" fill="#f4b0af" d="M 443.5,298.5 C 452.559,299.778 461.559,301.445 470.5,303.5C 471.416,303.457 472.083,303.124 472.5,302.5C 476.678,310.339 480.678,318.339 484.5,326.5C 473.188,324.371 461.855,322.371 450.5,320.5C 453.557,317.638 457.224,315.805 461.5,315C 463.35,311.253 462.183,309.086 458,308.5C 455.532,309.503 453.032,310.003 450.5,310C 447.516,306.527 445.183,302.694 443.5,298.5 Z"/></g>
<g><path style="opacity:1" fill="#2f273c" d="M 238.5,316.5 C 242.392,317.742 243.392,320.242 241.5,324C 240.207,324.49 238.873,324.657 237.5,324.5C 233.313,321.251 233.646,318.584 238.5,316.5 Z"/></g>
<g><path style="opacity:1" fill="#893257" d="M 253.5,318.5 C 253.5,322.167 253.5,325.833 253.5,329.5C 252.472,334.745 251.805,340.079 251.5,345.5C 246.637,345.181 241.97,345.514 237.5,346.5C 236.833,346.167 236.167,345.833 235.5,345.5C 235.949,340.137 236.616,334.804 237.5,329.5C 237.5,327.833 237.5,326.167 237.5,324.5C 238.873,324.657 240.207,324.49 241.5,324C 243.392,320.242 242.392,317.742 238.5,316.5C 238.5,315.833 238.5,315.167 238.5,314.5C 239.404,313.791 239.737,312.791 239.5,311.5C 243.833,311.5 248.167,311.5 252.5,311.5C 252.198,314.059 252.532,316.393 253.5,318.5 Z"/></g>
<g><path style="opacity:1" fill="#f2ada7" d="M 291.5,322.5 C 303.167,322.5 314.833,322.5 326.5,322.5C 327.824,324.654 329.657,326.321 332,327.5C 334.54,326.793 335.707,325.127 335.5,322.5C 350.833,322.5 366.167,322.5 381.5,322.5C 382.076,328.388 383.41,334.055 385.5,339.5C 379.214,345.805 371.881,350.305 363.5,353C 366.489,348.856 368.822,344.356 370.5,339.5C 370.487,337.133 369.32,335.8 367,335.5C 365.301,335.387 364.134,336.053 363.5,337.5C 339.575,336.51 315.575,336.177 291.5,336.5C 291.5,331.833 291.5,327.167 291.5,322.5 Z"/></g>
<g><path style="opacity:1" fill="#6d3d6f" d="M 66.5,319.5 C 69.6348,321.023 72.9682,321.69 76.5,321.5C 76.6399,326.708 77.4732,331.708 79,336.5C 75.3186,339.36 71.1519,340.193 66.5,339C 60.6141,335.194 59.1141,330.028 62,323.5C 63.3968,321.93 64.8968,320.596 66.5,319.5 Z"/></g>
<g><path style="opacity:1" fill="#6f3d71" d="M 88.5,317.5 C 93.6029,318.86 98.7696,319.86 104,320.5C 106.854,331.313 102.688,336.48 91.5,336C 83.4673,330.935 82.4673,324.769 88.5,317.5 Z"/></g>
<g><path style="opacity:1" fill="#6e3d6e" d="M 113.5,326.5 C 117.514,326.334 121.514,326.501 125.5,327C 130.635,330.055 132.468,334.555 131,340.5C 128.774,346.198 124.607,348.698 118.5,348C 116.702,343.903 113.869,340.737 110,338.5C 111.391,334.676 112.558,330.676 113.5,326.5 Z"/></g>
<g><path style="opacity:1" fill="#d74a87" d="M 215.5,327.5 C 222.424,329.463 229.757,330.13 237.5,329.5C 236.616,334.804 235.949,340.137 235.5,345.5C 233.089,345.137 231.589,346.137 231,348.5C 229.801,353.295 228.634,357.962 227.5,362.5C 227.5,361.5 227.5,360.5 227.5,359.5C 221.167,359.5 214.833,359.5 208.5,359.5C 210.885,348.719 213.218,338.052 215.5,327.5 Z"/></g>
<g><path style="opacity:1" fill="#d84a88" d="M 253.5,329.5 C 261.833,329.5 270.167,329.5 278.5,329.5C 278.484,340.179 278.15,350.846 277.5,361.5C 268.015,359.184 258.348,358.851 248.5,360.5C 249.117,355.415 250.117,350.415 251.5,345.5C 251.805,340.079 252.472,334.745 253.5,329.5 Z"/></g>
<g><path style="opacity:1" fill="#f7bdbb" d="M 450.5,320.5 C 461.855,322.371 473.188,324.371 484.5,326.5C 486.318,331.587 485.318,336.087 481.5,340C 473.777,342.74 466.111,345.574 458.5,348.5C 449.714,344.97 440.381,342.637 430.5,341.5C 436.945,334.267 443.611,327.267 450.5,320.5 Z"/></g>
<g><path style="opacity:1" fill="#6e3d6e" d="M 96.5,343.5 C 107.507,342.673 112.007,347.673 110,358.5C 106.945,363.635 102.445,365.468 96.5,364C 90.8912,360.723 89.0578,355.89 91,349.5C 92.3597,346.977 94.193,344.977 96.5,343.5 Z"/></g>
<g><path style="opacity:1" fill="#f0a6a2" d="M 291.5,336.5 C 315.575,336.177 339.575,336.51 363.5,337.5C 360.597,342.971 357.43,348.304 354,353.5C 352.039,356.135 349.539,357.969 346.5,359C 336.199,360.392 325.866,360.726 315.5,360C 306.847,356.21 301.347,349.71 299,340.5C 295.576,338.733 293.41,339.733 292.5,343.5C 293.485,347.635 295.151,351.469 297.5,355C 294.935,355.609 292.601,355.109 290.5,353.5C 290.375,347.797 290.708,342.13 291.5,336.5 Z"/></g>
<g><path style="opacity:1" fill="#9a3762" d="M 392.5,354.5 C 365.952,363.459 339.619,372.792 313.5,382.5C 303.568,380.031 294.234,376.198 285.5,371C 284.205,367.214 284.205,363.38 285.5,359.5C 322.338,374.691 356.838,370.691 389,347.5C 391.015,349.361 392.182,351.695 392.5,354.5 Z"/></g>
<g><path style="opacity:1" fill="#f5c8c7" d="M 430.5,341.5 C 440.381,342.637 449.714,344.97 458.5,348.5C 444.845,353.159 431.512,358.659 418.5,365C 416.926,366.826 416.093,368.993 416,371.5C 415.789,378.551 415.122,385.551 414,392.5C 412.682,395.941 410.182,397.275 406.5,396.5C 404.565,386.563 403.398,376.563 403,366.5C 403.883,363.898 405.383,361.731 407.5,360C 415.619,354.379 423.286,348.212 430.5,341.5 Z"/></g>
<g><path style="opacity:1" fill="#95335c" d="M 392.5,354.5 C 395.125,358.821 395.958,363.487 395,368.5C 369.753,384.418 342.586,389.084 313.5,382.5C 339.619,372.792 365.952,363.459 392.5,354.5 Z"/></g>
<g><path style="opacity:1" fill="#d24387" d="M 208.5,359.5 C 214.833,359.5 221.167,359.5 227.5,359.5C 227.5,360.5 227.5,361.5 227.5,362.5C 224.447,376.433 221.78,390.433 219.5,404.5C 207.748,401.339 201.415,393.673 200.5,381.5C 202.993,374.015 205.659,366.682 208.5,359.5 Z"/></g>
<g><path style="opacity:1" fill="#d34388" d="M 277.5,361.5 C 276.228,373.363 274.561,385.03 272.5,396.5C 261.321,396.828 250.321,396.495 239.5,395.5C 242.66,383.86 245.66,372.193 248.5,360.5C 258.348,358.851 268.015,359.184 277.5,361.5 Z"/></g>
<g><path style="opacity:1" fill="#7e2b52" d="M 237.5,346.5 C 241.97,345.514 246.637,345.181 251.5,345.5C 250.117,350.415 249.117,355.415 248.5,360.5C 245.66,372.193 242.66,383.86 239.5,395.5C 239.167,395.5 238.833,395.5 238.5,395.5C 235.713,394.523 232.713,394.19 229.5,394.5C 229.5,393.5 229.5,392.5 229.5,391.5C 232.02,378.753 234.854,366.087 238,353.5C 238.796,350.961 238.629,348.628 237.5,346.5 Z"/></g>
<g><path style="opacity:1" fill="#95345d" d="M 297.5,385.5 C 296.211,398.416 294.544,411.416 292.5,424.5C 288.153,420.314 284.32,415.647 281,410.5C 281.074,399.763 282.074,389.097 284,378.5C 288.514,381.006 293.014,383.339 297.5,385.5 Z"/></g>
<g><path style="opacity:1" fill="#74284e" d="M 200.5,381.5 C 201.415,393.673 207.748,401.339 219.5,404.5C 218.759,412.8 218.259,421.133 218,429.5C 200.43,417.428 194.597,401.428 200.5,381.5 Z"/></g>
<g><path style="opacity:1" fill="#76294f" d="M 450.5,416.5 C 444.355,417.49 438.022,417.823 431.5,417.5C 429.442,408.273 426.609,399.273 423,390.5C 422.285,383.746 422.785,377.079 424.5,370.5C 435.679,379.59 447.679,387.423 460.5,394C 468.452,402.557 469.619,412.057 464,422.5C 463.333,423.833 462.667,423.833 462,422.5C 460.265,415.861 457.098,410.028 452.5,405C 449.647,404.341 447.98,405.508 447.5,408.5C 448.51,411.183 449.51,413.849 450.5,416.5 Z"/></g>
<g><path style="opacity:1" fill="#d44c8e" d="M 420.5,406.5 C 401.275,408.589 384.609,402.756 370.5,389C 371.056,388.617 371.389,388.117 371.5,387.5C 379.881,385.149 387.881,381.815 395.5,377.5C 397.205,384.064 398.372,390.731 399,397.5C 403.946,405.734 410.279,406.734 418,400.5C 419.319,402.287 420.152,404.287 420.5,406.5 Z"/></g>
<g><path style="opacity:1" fill="#d24282" d="M 238.5,395.5 C 238.833,395.5 239.167,395.5 239.5,395.5C 250.321,396.495 261.321,396.828 272.5,396.5C 271.464,409.995 270.464,423.495 269.5,437C 269.488,444.571 270.155,452.071 271.5,459.5C 270.796,461.344 269.463,461.844 267.5,461C 250.387,454.223 239.22,442.056 234,424.5C 233.333,419.833 233.333,415.167 234,410.5C 235.806,405.582 237.306,400.582 238.5,395.5 Z"/></g>
<g><path style="opacity:1" fill="#873057" d="M 343.5,393.5 C 339.154,393.334 334.821,393.501 330.5,394C 340.218,410.506 353.885,422.34 371.5,429.5C 367.603,430.91 363.603,431.91 359.5,432.5C 338.302,423.724 321.635,409.558 309.5,390C 320.828,391.844 332.161,393.01 343.5,393.5 Z"/></g>
<g><path style="opacity:1" fill="#812d54" d="M 371.5,387.5 C 371.389,388.117 371.056,388.617 370.5,389C 384.609,402.756 401.275,408.589 420.5,406.5C 421.612,408.599 422.279,410.933 422.5,413.5C 396.083,416.859 373.083,409.692 353.5,392C 359.598,390.809 365.598,389.309 371.5,387.5 Z"/></g>
<g><path style="opacity:1" fill="#d84c8f" d="M 297.5,385.5 C 305.593,399.933 315.926,412.599 328.5,423.5C 332.54,427.542 336.873,431.209 341.5,434.5C 333.337,436.993 325.004,439.326 316.5,441.5C 315.287,441.747 314.62,442.414 314.5,443.5C 306.007,438.575 298.673,432.242 292.5,424.5C 294.544,411.416 296.211,398.416 297.5,385.5 Z"/></g>
<g><path style="opacity:1" fill="#6f254b" d="M 229.5,391.5 C 229.5,392.5 229.5,393.5 229.5,394.5C 232.713,394.19 235.713,394.523 238.5,395.5C 237.306,400.582 235.806,405.582 234,410.5C 233.333,415.167 233.333,419.833 234,424.5C 239.22,442.056 250.387,454.223 267.5,461C 269.463,461.844 270.796,461.344 271.5,459.5C 273.377,467.276 276.71,474.443 281.5,481C 260.98,478.826 244.814,469.326 233,452.5C 225.858,440.073 223.524,426.74 226,412.5C 226.671,405.278 227.838,398.278 229.5,391.5 Z"/></g>
<g><path style="opacity:1" fill="#6e254a" d="M 450.5,416.5 C 453.784,421.427 455.784,426.927 456.5,433C 455.447,449.769 448.781,463.769 436.5,475C 432.554,477.557 428.387,479.723 424,481.5C 423.5,481.333 423,481.167 422.5,481C 428.38,472.402 431.88,462.902 433,452.5C 433.997,440.728 433.497,429.061 431.5,417.5C 438.022,417.823 444.355,417.49 450.5,416.5 Z"/></g>
<g><path style="opacity:1" fill="#d64989" d="M 343.5,393.5 C 366.427,415.418 393.594,425.085 425,422.5C 425.497,424.81 425.663,427.143 425.5,429.5C 425.5,431.833 425.5,434.167 425.5,436.5C 406.934,438.096 388.934,435.763 371.5,429.5C 353.885,422.34 340.218,410.506 330.5,394C 334.821,393.501 339.154,393.334 343.5,393.5 Z"/></g>
<g><path style="opacity:1" fill="#70264c" d="M 371.5,429.5 C 388.934,435.763 406.934,438.096 425.5,436.5C 425.5,434.167 425.5,431.833 425.5,429.5C 426.486,433.97 426.819,438.637 426.5,443.5C 403.061,445.678 380.727,442.012 359.5,432.5C 363.603,431.91 367.603,430.91 371.5,429.5 Z"/></g>
<g><path style="opacity:1" fill="#d84a88" d="M 341.5,434.5 C 347.531,437.516 353.531,440.516 359.5,443.5C 349.5,446.5 339.5,449.5 329.5,452.5C 324.216,449.863 319.216,446.863 314.5,443.5C 314.62,442.414 315.287,441.747 316.5,441.5C 325.004,439.326 333.337,436.993 341.5,434.5 Z"/></g>
<g><path style="opacity:1" fill="#782a51" d="M 328.5,423.5 C 345.736,436.024 364.736,444.69 385.5,449.5C 376.522,448.755 367.855,446.755 359.5,443.5C 353.531,440.516 347.531,437.516 341.5,434.5C 336.873,431.209 332.54,427.542 328.5,423.5 Z"/></g>
<g><path style="opacity:1" fill="#d14283" d="M 359.5,443.5 C 367.855,446.755 376.522,448.755 385.5,449.5C 398.767,451.212 412.1,451.879 425.5,451.5C 424.325,457.201 422.991,462.868 421.5,468.5C 389.271,471.574 358.604,466.24 329.5,452.5C 339.5,449.5 349.5,446.5 359.5,443.5 Z"/></g>
</svg>
