<?xml version="1.0" encoding="UTF-8"?>
<!DOCTYPE svg PUBLIC "-//W3C//DTD SVG 1.1//EN" "http://www.w3.org/Graphics/SVG/1.1/DTD/svg11.dtd">
<svg xmlns="http://www.w3.org/2000/svg" version="1.1" width="512px" height="512px" style="shape-rendering:geometricPrecision; text-rendering:geometricPrecision; image-rendering:optimizeQuality; fill-rule:evenodd; clip-rule:evenodd" xmlns:xlink="http://www.w3.org/1999/xlink">
<g><path style="opacity:1" fill="#292638" d="M 66.5,22.5 C 94.0407,22.5303 110.207,36.197 115,63.5C 116.462,73.4597 116.795,83.4597 116,93.5C 114.003,106.981 112.17,120.481 110.5,134C 112.815,151.576 115.648,169.076 119,186.5C 120.655,201.158 120.822,215.825 119.5,230.5C 123.161,240.319 126.328,250.319 129,260.5C 130.774,271.427 131.774,282.427 132,293.5C 135.408,300.128 137.741,307.128 139,314.5C 140.317,324.821 141.484,335.155 142.5,345.5C 145.67,344.916 148.837,344.25 152,343.5C 155.912,344.44 159.745,345.273 163.5,346C 176.49,335.171 191.156,327.505 207.5,323C 193.841,304.559 189.341,284.059 194,261.5C 197.676,250.819 201.343,240.153 205,229.5C 204.102,215.864 203.768,202.197 204,188.5C 204.727,183.259 206.227,178.259 208.5,173.5C 197.835,169.699 194.335,162.366 198,151.5C 203.107,127.224 216.94,109.891 239.5,99.5C 240.745,98.0446 240.578,96.7113 239,95.5C 236.993,88.8487 238.827,83.682 244.5,80C 261.762,67.866 280.429,65.1993 300.5,72C 305.606,74.6362 310.772,77.1362 316,79.5C 336.203,59.0498 359.036,55.5498 384.5,69C 388.5,74.3333 388.5,79.6667 384.5,85C 399.629,90.8059 411.796,100.306 421,113.5C 425.387,121.997 429.387,130.664 433,139.5C 435.964,143.466 439.297,147.133 443,150.5C 445.191,160.652 441.025,165.819 430.5,166C 448.146,184.454 459.646,206.287 465,231.5C 472.138,258.068 469.638,283.734 457.5,308.5C 472.218,332.868 479.218,359.368 478.5,388C 478.252,400.892 477.252,413.726 475.5,426.5C 477.541,437.247 478.874,448.08 479.5,459C 480.569,465.825 478.902,471.825 474.5,477C 465.973,481.93 456.973,485.763 447.5,488.5C 443.432,487.932 440.265,485.932 438,482.5C 436.939,477.896 436.273,473.229 436,468.5C 431.796,463.021 430.796,457.021 433,450.5C 438.599,442.472 442.099,433.639 443.5,424C 442.22,417.385 440.387,410.885 438,404.5C 433.587,396.005 428.92,387.672 424,379.5C 421.525,373.249 419.525,366.916 418,360.5C 407.471,368.766 396.138,375.766 384,381.5C 383.333,384.167 383.333,386.833 384,389.5C 393.354,395.515 398.688,404.181 400,415.5C 405.444,436.799 405.777,458.132 401,479.5C 399.876,484.115 397.043,485.615 392.5,484C 389.096,477.271 383.763,472.604 376.5,470C 366.269,466.954 355.935,464.287 345.5,462C 338.576,460.121 332.076,457.287 326,453.5C 326.492,457.809 326.825,462.143 327,466.5C 325.426,467.848 323.593,468.514 321.5,468.5C 302.476,465.91 286.976,457.243 275,442.5C 275.369,447.466 273.202,449.633 268.5,449C 250.931,436.979 244.764,420.479 250,399.5C 252.963,388.735 258.13,379.235 265.5,371C 260.747,368.542 256.247,365.708 252,362.5C 247.307,365.929 242.141,368.429 236.5,370C 213.191,376.937 189.857,383.77 166.5,390.5C 166.58,398.689 162.914,404.356 155.5,407.5C 160.69,429.282 165.69,451.115 170.5,473C 168.011,482.911 162.011,485.911 152.5,482C 150.106,480.048 148.606,477.548 148,474.5C 143.648,455.093 138.982,435.76 134,416.5C 131.147,414.757 127.981,413.59 124.5,413C 119.219,409.278 116.386,404.112 116,397.5C 114.171,395.844 112.837,393.844 112,391.5C 111.824,388.118 111.324,384.785 110.5,381.5C 105.878,376.791 104.378,371.124 106,364.5C 106.667,363.167 107.333,361.833 108,360.5C 110.748,358.542 113.582,356.709 116.5,355C 111.874,340.121 107.04,325.288 102,310.5C 95.6667,298.167 89.3333,285.833 83,273.5C 80.1107,264.408 78.7774,255.074 79,245.5C 64.0222,229.215 54.0222,210.215 49,188.5C 48.0589,182.168 48.5589,176.001 50.5,170C 35.4279,135.646 29.2612,99.8131 32,62.5C 34.1742,40.8431 45.6742,27.5097 66.5,22.5 Z"/></g>
<g><path style="opacity:1" fill="#e37b7b" d="M 76.5,155.5 C 85.149,168.449 89.8157,182.782 90.5,198.5C 79.8386,188.006 69.0053,177.672 58,167.5C 44.0172,134.248 38.0172,99.5817 40,63.5C 43.0292,41.4571 55.5292,30.6238 77.5,31C 90.3815,34.212 99.2148,42.0453 104,54.5C 110.241,77.7767 109.241,100.777 101,123.5C 97.841,130.488 94.1744,137.154 90,143.5C 83.3333,148.833 76.6667,148.833 70,143.5C 59.31,126.726 55.6433,108.393 59,88.5C 59.8308,79.3271 62.9974,71.1605 68.5,64C 75.0951,63.8947 79.5951,67.0614 82,73.5C 86.1148,85.6742 86.6148,98.0076 83.5,110.5C 81.8561,110.714 80.3561,110.38 79,109.5C 78.3937,106.57 77.5604,103.737 76.5,101C 72.4505,99.5156 70.4505,100.849 70.5,105C 70.8433,116.036 76.1767,120.036 86.5,117C 88.8102,115.363 90.3102,113.196 91,110.5C 92.462,100.54 92.7953,90.5403 92,80.5C 90.6476,71.9595 86.8143,64.7928 80.5,59C 70.0142,52.9861 62.1809,55.4861 57,66.5C 49.7945,86.8665 48.7945,107.533 54,128.5C 56.8319,141.554 64.3319,150.554 76.5,155.5 Z"/></g>
<g><path style="opacity:1" fill="#f7745c" d="M 384.5,94.5 C 341.67,95.4987 298.67,95.832 255.5,95.5C 252.821,94.7739 250.154,93.9406 247.5,93C 246.446,91.6124 246.28,90.1124 247,88.5C 259.028,78.3825 272.862,74.5492 288.5,77C 298.61,80.8877 308.61,85.0544 318.5,89.5C 319.442,89.3918 320.275,89.0585 321,88.5C 326.841,79.3217 335.007,73.1551 345.5,70C 352.176,68.0589 358.843,68.0589 365.5,70C 369.833,71.8333 374.167,73.6667 378.5,75.5C 379.833,76.5 379.833,77.5 378.5,78.5C 375.914,80.0426 373.414,81.7093 371,83.5C 370.333,85.1667 370.333,86.8333 371,88.5C 375.554,90.4057 380.054,92.4057 384.5,94.5 Z"/></g>
<g><path style="opacity:1" fill="#f86e5c" d="M 384.5,94.5 C 397.526,99.1917 407.526,107.525 414.5,119.5C 395.992,119.17 377.659,119.503 359.5,120.5C 356.28,117.117 352.614,114.284 348.5,112C 343.079,111.161 337.746,111.494 332.5,113C 328.407,114.794 324.574,116.961 321,119.5C 316.017,116.591 310.85,114.091 305.5,112C 301.5,111.333 297.5,111.333 293.5,112C 289.386,114.284 285.72,117.117 282.5,120.5C 263.341,119.503 244.007,119.17 224.5,119.5C 233.244,111.121 243.577,105.287 255.5,102C 256.768,99.8368 256.768,97.6702 255.5,95.5C 298.67,95.832 341.67,95.4987 384.5,94.5 Z"/></g>
<g><path style="opacity:1" fill="#f86956" d="M 224.5,119.5 C 244.007,119.17 263.341,119.503 282.5,120.5C 277.592,126.761 276.259,133.761 278.5,141.5C 255.5,140.167 232.5,140.167 209.5,141.5C 212.944,133.065 217.944,125.731 224.5,119.5 Z"/></g>
<g><path style="opacity:1" fill="#f96956" d="M 414.5,119.5 C 418.293,126.094 421.293,133.094 423.5,140.5C 403.5,140.5 383.5,140.5 363.5,140.5C 365.572,133.128 364.238,126.462 359.5,120.5C 377.659,119.503 395.992,119.17 414.5,119.5 Z"/></g>
<g><path style="opacity:1" fill="#f4d19b" d="M 356.5,132.5 C 351.193,133.026 346.193,132.36 341.5,130.5C 341.038,129.12 340.038,128.453 338.5,128.5C 335.069,129.079 332.069,130.413 329.5,132.5C 324.073,132.218 318.74,132.551 313.5,133.5C 311.132,130.913 308.132,129.247 304.5,128.5C 302.583,128.754 301.249,129.754 300.5,131.5C 295.4,132.8 290.4,132.8 285.5,131.5C 288.363,122.584 294.363,118.418 303.5,119C 309.633,121.813 315.467,124.98 321,128.5C 325.795,125.728 330.628,122.895 335.5,120C 339.529,118.087 343.529,118.087 347.5,120C 351.947,123.257 354.947,127.424 356.5,132.5 Z"/></g>
<g><path style="opacity:1" fill="#2d2a3a" d="M 313.5,133.5 C 313.707,136.127 312.54,137.793 310,138.5C 307.005,137.724 304.172,136.557 301.5,135C 300.663,133.989 300.33,132.822 300.5,131.5C 301.249,129.754 302.583,128.754 304.5,128.5C 308.132,129.247 311.132,130.913 313.5,133.5 Z"/></g>
<g><path style="opacity:1" fill="#2d2b3b" d="M 341.5,130.5 C 341.785,132.288 341.452,133.955 340.5,135.5C 337.072,137.386 333.572,138.053 330,137.5C 329.506,135.866 329.34,134.199 329.5,132.5C 332.069,130.413 335.069,129.079 338.5,128.5C 340.038,128.453 341.038,129.12 341.5,130.5 Z"/></g>
<g><path style="opacity:1" fill="#f4c594" d="M 341.5,130.5 C 346.193,132.36 351.193,133.026 356.5,132.5C 356.866,141.486 352.866,144.82 344.5,142.5C 340.522,142.39 336.688,143.057 333,144.5C 324.667,140.5 316.333,140.5 308,144.5C 302.084,142.416 296.084,142.083 290,143.5C 285.305,140.482 283.805,136.482 285.5,131.5C 290.4,132.8 295.4,132.8 300.5,131.5C 300.33,132.822 300.663,133.989 301.5,135C 304.172,136.557 307.005,137.724 310,138.5C 312.54,137.793 313.707,136.127 313.5,133.5C 318.74,132.551 324.073,132.218 329.5,132.5C 329.34,134.199 329.506,135.866 330,137.5C 333.572,138.053 337.072,137.386 340.5,135.5C 341.452,133.955 341.785,132.288 341.5,130.5 Z"/></g>
<g><path style="opacity:1" fill="#b34a4a" d="M 90.5,198.5 C 89.8157,182.782 85.149,168.449 76.5,155.5C 88.4833,155.678 96.9833,150.345 102,139.5C 106.293,158.672 109.627,178.005 112,197.5C 112.667,206.167 112.667,214.833 112,223.5C 104.826,215.135 97.6589,206.802 90.5,198.5 Z"/></g>
<g><path style="opacity:1" fill="#f86356" d="M 278.5,141.5 C 279.228,143.735 280.561,145.568 282.5,147C 280.942,149.052 279.608,151.219 278.5,153.5C 253.938,152.858 229.605,153.525 205.5,155.5C 205.905,150.544 207.238,145.877 209.5,141.5C 232.5,140.167 255.5,140.167 278.5,141.5 Z"/></g>
<g><path style="opacity:1" fill="#f86356" d="M 363.5,140.5 C 383.5,140.5 403.5,140.5 423.5,140.5C 426.802,144.809 430.136,149.143 433.5,153.5C 410.167,153.5 386.833,153.5 363.5,153.5C 363.806,156.385 363.473,159.052 362.5,161.5C 363.197,156.391 362.197,151.724 359.5,147.5C 361.098,145.302 362.431,142.969 363.5,140.5 Z"/></g>
<g><path style="opacity:1" fill="#f96350" d="M 278.5,153.5 C 278.271,158.005 278.937,162.339 280.5,166.5C 261.167,166.5 241.833,166.5 222.5,166.5C 224.926,161.028 223.259,158.861 217.5,160C 214.377,163.02 210.71,164.02 206.5,163C 205.565,160.619 205.232,158.119 205.5,155.5C 229.605,153.525 253.938,152.858 278.5,153.5 Z"/></g>
<g><path style="opacity:1" fill="#f76350" d="M 433.5,153.5 C 435.048,153.821 435.715,154.821 435.5,156.5C 429.266,157.937 422.933,158.77 416.5,159C 415.446,160.388 415.28,161.888 416,163.5C 417.045,164.373 417.878,165.373 418.5,166.5C 399.091,166.18 379.757,166.513 360.5,167.5C 361.167,165.5 361.833,163.5 362.5,161.5C 363.473,159.052 363.806,156.385 363.5,153.5C 386.833,153.5 410.167,153.5 433.5,153.5 Z"/></g>
<g><path style="opacity:1" fill="#f5ac83" d="M 290.5,150.5 C 295.565,150.219 300.565,150.552 305.5,151.5C 307.5,154.833 309.5,158.167 311.5,161.5C 307.406,163.88 303.073,165.713 298.5,167C 289.035,167.525 285.202,163.025 287,153.5C 288.145,152.364 289.312,151.364 290.5,150.5 Z"/></g>
<g><path style="opacity:1" fill="#f4ab82" d="M 336.5,150.5 C 341.511,150.334 346.511,150.501 351.5,151C 356.206,154.954 356.706,159.454 353,164.5C 351.147,166.592 348.814,167.592 346,167.5C 340.107,166.303 334.607,164.136 329.5,161C 331.733,157.349 334.066,153.849 336.5,150.5 Z"/></g>
<g><path style="opacity:1" fill="#f85c50" d="M 222.5,166.5 C 241.833,166.5 261.167,166.5 280.5,166.5C 284.386,169.569 286.886,173.569 288,178.5C 288.5,187.494 288.666,196.494 288.5,205.5C 287.512,200.36 287.179,195.026 287.5,189.5C 262.5,189.5 237.5,189.5 212.5,189.5C 212.737,190.791 212.404,191.791 211.5,192.5C 212.458,182.595 216.125,173.929 222.5,166.5 Z"/></g>
<g><path style="opacity:1" fill="#f85c50" d="M 418.5,166.5 C 425.914,172.578 432.247,179.578 437.5,187.5C 428.167,187.5 418.833,187.5 409.5,187.5C 409.737,188.791 409.404,189.791 408.5,190.5C 408.917,185.932 406.917,184.432 402.5,186C 401.956,186.717 401.289,187.217 400.5,187.5C 384.833,187.5 369.167,187.5 353.5,187.5C 352.291,179.454 354.624,172.787 360.5,167.5C 379.757,166.513 399.091,166.18 418.5,166.5 Z"/></g>
<g><path style="opacity:1" fill="#d67481" d="M 335.5,182.5 C 325.852,181.755 316.185,181.422 306.5,181.5C 307.363,178.077 308.53,174.744 310,171.5C 316.952,166.472 324.119,166.305 331.5,171C 333.135,174.739 334.469,178.573 335.5,182.5 Z"/></g>
<g><path style="opacity:1" fill="#d1d8e5" d="M 295.5,174.5 C 297.288,174.215 298.955,174.548 300.5,175.5C 298.216,181.95 296.549,181.617 295.5,174.5 Z"/></g>
<g><path style="opacity:1" fill="#cbd2de" d="M 341.5,174.5 C 343.167,174.5 344.833,174.5 346.5,174.5C 344.833,182.5 343.167,182.5 341.5,174.5 Z"/></g>
<g><path style="opacity:1" fill="#332839" d="M 408.5,190.5 C 407.294,193.139 405.294,193.972 402.5,193C 400.845,191.556 400.178,189.722 400.5,187.5C 401.289,187.217 401.956,186.717 402.5,186C 406.917,184.432 408.917,185.932 408.5,190.5 Z"/></g>
<g><path style="opacity:1" fill="#f8544a" d="M 288.5,205.5 C 288.628,213.881 290.961,221.548 295.5,228.5C 283.322,228.172 271.322,228.505 259.5,229.5C 257.712,221.066 256.545,212.399 256,203.5C 254,202.167 252,202.167 250,203.5C 249.501,207.821 249.334,212.154 249.5,216.5C 246.418,223.478 241.418,228.645 234.5,232C 226.036,234.344 219.536,231.844 215,224.5C 214.722,225.416 214.222,226.082 213.5,226.5C 213.116,215.147 212.449,203.814 211.5,192.5C 212.404,191.791 212.737,190.791 212.5,189.5C 237.5,189.5 262.5,189.5 287.5,189.5C 287.179,195.026 287.512,200.36 288.5,205.5 Z"/></g>
<g><path style="opacity:1" fill="#f9564a" d="M 353.5,187.5 C 369.167,187.5 384.833,187.5 400.5,187.5C 400.178,189.722 400.845,191.556 402.5,193C 405.294,193.972 407.294,193.139 408.5,190.5C 409.404,189.791 409.737,188.791 409.5,187.5C 418.833,187.5 428.167,187.5 437.5,187.5C 442.278,194.721 446.278,202.388 449.5,210.5C 447.653,216.665 443.653,220.832 437.5,223C 426.116,225.283 416.616,222.117 409,213.5C 408.617,214.056 408.117,214.389 407.5,214.5C 407.433,212.599 407.767,210.766 408.5,209C 407.13,205.621 404.797,204.788 401.5,206.5C 400.95,208.657 400.283,210.657 399.5,212.5C 384.342,211.504 369.009,211.17 353.5,211.5C 353.737,212.791 353.404,213.791 352.5,214.5C 353.383,205.533 353.716,196.533 353.5,187.5 Z"/></g>
<g><path style="opacity:1" fill="#dc7874" d="M 100.5,222.5 C 104.013,234.221 105.346,246.221 104.5,258.5C 87.1092,243.949 73.2758,226.616 63,206.5C 59.8916,198.731 57.725,190.731 56.5,182.5C 56.8333,180.833 57.1667,179.167 57.5,177.5C 72.9213,191.585 87.2547,206.585 100.5,222.5 Z"/></g>
<g><path style="opacity:1" fill="#f0a5a3" d="M 306.5,181.5 C 316.185,181.422 325.852,181.755 335.5,182.5C 336.93,185.197 338.263,188.031 339.5,191C 341.441,191.743 343.274,191.576 345,190.5C 345.499,195.489 345.666,200.489 345.5,205.5C 340.5,205.5 335.5,205.5 330.5,205.5C 332.369,204.835 334.369,204.169 336.5,203.5C 337.953,201.356 337.62,199.523 335.5,198C 332.833,197.333 330.167,197.333 327.5,198C 325.771,199.789 325.104,201.956 325.5,204.5C 323.167,204.5 320.833,204.5 318.5,204.5C 319.913,199.564 317.913,197.231 312.5,197.5C 307.267,197.39 305.601,199.723 307.5,204.5C 303.833,204.5 300.167,204.5 296.5,204.5C 296.182,199.968 296.515,195.634 297.5,191.5C 299.722,191.822 301.556,191.155 303,189.5C 303.906,186.69 305.073,184.024 306.5,181.5 Z"/></g>
<g><path style="opacity:1" fill="#2f2b3d" d="M 318.5,204.5 C 314.866,205.758 311.2,205.758 307.5,204.5C 305.601,199.723 307.267,197.39 312.5,197.5C 317.913,197.231 319.913,199.564 318.5,204.5 Z"/></g>
<g><path style="opacity:1" fill="#2c293b" d="M 330.5,205.5 C 328.708,205.634 327.042,205.301 325.5,204.5C 325.104,201.956 325.771,199.789 327.5,198C 330.167,197.333 332.833,197.333 335.5,198C 337.62,199.523 337.953,201.356 336.5,203.5C 334.369,204.169 332.369,204.835 330.5,205.5 Z"/></g>
<g><path style="opacity:1" fill="#88676e" d="M 297.5,191.5 C 296.515,195.634 296.182,199.968 296.5,204.5C 296.5,206.167 296.5,207.833 296.5,209.5C 295.183,203.322 295.183,196.988 296.5,190.5C 297.107,190.624 297.44,190.957 297.5,191.5 Z"/></g>
<g><path style="opacity:1" fill="#f74e47" d="M 399.5,212.5 C 398.635,227.224 393.135,239.891 383,250.5C 377.978,254.022 373.811,258.355 370.5,263.5C 369.675,264.386 368.675,264.719 367.5,264.5C 367.334,259.489 367.501,254.489 368,249.5C 371.917,243.665 374.75,237.332 376.5,230.5C 375.59,226.733 373.424,225.733 370,227.5C 367.389,235.898 362.889,243.064 356.5,249C 353.52,251.324 350.187,252.824 346.5,253.5C 349.2,240.544 351.2,227.544 352.5,214.5C 353.404,213.791 353.737,212.791 353.5,211.5C 369.009,211.17 384.342,211.504 399.5,212.5 Z"/></g>
<g><path style="opacity:1" fill="#f8b8b6" d="M 296.5,204.5 C 300.167,204.5 303.833,204.5 307.5,204.5C 311.2,205.758 314.866,205.758 318.5,204.5C 320.833,204.5 323.167,204.5 325.5,204.5C 327.042,205.301 328.708,205.634 330.5,205.5C 335.5,205.5 340.5,205.5 345.5,205.5C 346.035,210.312 345.035,214.645 342.5,218.5C 328.205,216.517 313.538,215.85 298.5,216.5C 297.388,214.401 296.721,212.067 296.5,209.5C 296.5,207.833 296.5,206.167 296.5,204.5 Z"/></g>
<g><path style="opacity:1" fill="#b14a4a" d="M 100.5,222.5 C 115.936,238.954 123.436,258.621 123,281.5C 116.825,273.803 110.658,266.136 104.5,258.5C 105.346,246.221 104.013,234.221 100.5,222.5 Z"/></g>
<g><path style="opacity:1" fill="#f6c4c2" d="M 298.5,216.5 C 313.538,215.85 328.205,216.517 342.5,218.5C 332.997,235.876 320.33,238.71 304.5,227C 301.591,224.015 299.591,220.515 298.5,216.5 Z"/></g>
<g><path style="opacity:1" fill="#de2b19" d="M 249.5,216.5 C 250.481,221.129 250.648,225.796 250,230.5C 239.537,239.76 232.371,251.094 228.5,264.5C 219.5,264.5 210.5,264.5 201.5,264.5C 204.092,255.977 207.258,247.644 211,239.5C 212.157,235.218 212.99,230.884 213.5,226.5C 214.222,226.082 214.722,225.416 215,224.5C 219.536,231.844 226.036,234.344 234.5,232C 241.418,228.645 246.418,223.478 249.5,216.5 Z"/></g>
<g><path style="opacity:1" fill="#de2b18" d="M 449.5,210.5 C 462.752,239.051 463.752,268.051 452.5,297.5C 449.468,286.988 446.968,276.321 445,265.5C 437.561,247.227 425.061,233.56 407.5,224.5C 406.599,221.205 406.599,217.872 407.5,214.5C 408.117,214.389 408.617,214.056 409,213.5C 416.616,222.117 426.116,225.283 437.5,223C 443.653,220.832 447.653,216.665 449.5,210.5 Z"/></g>
<g><path style="opacity:1" fill="#d67582" d="M 396.5,246.5 C 395.17,252.826 392.503,258.493 388.5,263.5C 381.911,268.589 376.577,274.755 372.5,282C 366.643,284.835 361.81,283.669 358,278.5C 356.597,274.124 355.097,269.79 353.5,265.5C 347.007,269.831 340.84,269.498 335,264.5C 334.333,263.167 333.667,261.833 333,260.5C 332.829,255.467 332.329,250.467 331.5,245.5C 327.339,247.185 323.006,247.852 318.5,247.5C 318.863,250.989 319.196,254.489 319.5,258C 318.803,267.847 313.47,272.014 303.5,270.5C 303.666,275.511 303.499,280.511 303,285.5C 299.634,290.609 295.134,291.776 289.5,289C 285.266,286.268 281.933,282.768 279.5,278.5C 281.805,279.989 284.138,281.489 286.5,283C 292.73,284.636 296.897,282.469 299,276.5C 299.415,272.152 299.249,267.819 298.5,263.5C 306.891,265.32 311.891,262.153 313.5,254C 312.913,250.486 312.246,246.986 311.5,243.5C 311.833,242.5 312.167,241.5 312.5,240.5C 323.748,243.028 333.582,240.361 342,232.5C 341.569,239.074 340.402,245.574 338.5,252C 339,257.833 342.167,261 348,261.5C 351.822,260.506 355.322,258.839 358.5,256.5C 359.252,260.192 360.086,263.858 361,267.5C 364.013,272.535 368.18,273.702 373.5,271C 381.033,262.636 388.7,254.469 396.5,246.5 Z"/></g>
<g><path style="opacity:1" fill="#f74a43" d="M 295.5,228.5 C 298.13,230.628 300.63,232.961 303,235.5C 303.433,241.226 304.266,246.893 305.5,252.5C 305.658,254.319 304.991,255.652 303.5,256.5C 300.166,255.169 297.166,253.335 294.5,251C 292.559,250.257 290.726,250.424 289,251.5C 289.758,259.474 290.592,267.474 291.5,275.5C 282.861,272.718 276.027,267.385 271,259.5C 265.195,250.229 261.362,240.229 259.5,229.5C 271.322,228.505 283.322,228.172 295.5,228.5 Z"/></g>
<g><path style="opacity:1" fill="#f8ccc8" d="M 435.5,263.5 C 419.833,264.833 404.167,264.833 388.5,263.5C 392.503,258.493 395.17,252.826 396.5,246.5C 398.918,241.329 401.585,236.329 404.5,231.5C 418.782,238.448 429.115,249.114 435.5,263.5 Z"/></g>
<g><path style="opacity:1" fill="#d16e69" d="M 102.5,268.5 C 102.137,274.614 101.137,280.614 99.5,286.5C 92.1966,276.758 88.3633,265.758 88,253.5C 93.0365,258.369 97.8698,263.369 102.5,268.5 Z"/></g>
<g><path style="opacity:1" fill="#f8c6c4" d="M 279.5,278.5 C 281.933,282.768 285.266,286.268 289.5,289C 295.134,291.776 299.634,290.609 303,285.5C 303.499,280.511 303.666,275.511 303.5,270.5C 313.47,272.014 318.803,267.847 319.5,258C 319.196,254.489 318.863,250.989 318.5,247.5C 323.006,247.852 327.339,247.185 331.5,245.5C 332.329,250.467 332.829,255.467 333,260.5C 333.667,261.833 334.333,263.167 335,264.5C 340.84,269.498 347.007,269.831 353.5,265.5C 355.097,269.79 356.597,274.124 358,278.5C 361.81,283.669 366.643,284.835 372.5,282C 376.577,274.755 381.911,268.589 388.5,263.5C 404.167,264.833 419.833,264.833 435.5,263.5C 437.749,267.456 439.249,271.789 440,276.5C 440.771,282.52 441.605,288.52 442.5,294.5C 428.5,294.5 414.5,294.5 400.5,294.5C 400.5,293.167 400.5,291.833 400.5,290.5C 400.666,283.825 400.5,277.158 400,270.5C 397.667,267.833 395.333,267.833 393,270.5C 392.802,278.578 392.302,286.578 391.5,294.5C 371.167,294.5 350.833,294.5 330.5,294.5C 330.666,288.491 330.499,282.491 330,276.5C 327.733,275.065 325.733,275.398 324,277.5C 322.905,282.78 322.405,288.113 322.5,293.5C 304.91,294.486 287.243,294.819 269.5,294.5C 269.666,289.156 269.499,283.823 269,278.5C 266.667,277.167 264.333,277.167 262,278.5C 261.501,283.823 261.334,289.156 261.5,294.5C 254.167,294.5 246.833,294.5 239.5,294.5C 232.483,279.919 233.317,265.586 242,251.5C 244.945,246.555 248.612,242.222 253,238.5C 257.611,254.747 266.444,268.081 279.5,278.5 Z"/></g>
<g><path style="opacity:1" fill="#de2112" d="M 201.5,264.5 C 210.5,264.5 219.5,264.5 228.5,264.5C 226.985,273.233 227.318,281.9 229.5,290.5C 221.276,296.553 215.109,304.219 211,313.5C 201.634,298.368 198.467,282.035 201.5,264.5 Z"/></g>
<g><path style="opacity:1" fill="#f8bfbe" d="M 322.5,293.5 C 322.666,300.841 322.5,308.174 322,315.5C 321.5,316 321,316.5 320.5,317C 308.833,317.667 297.167,317.667 285.5,317C 275.421,313.049 270.087,305.549 269.5,294.5C 287.243,294.819 304.91,294.486 322.5,293.5 Z"/></g>
<g><path style="opacity:1" fill="#f8bfbe" d="M 330.5,294.5 C 350.833,294.5 371.167,294.5 391.5,294.5C 391.142,298.509 390.642,302.509 390,306.5C 386.095,311.544 380.928,314.711 374.5,316C 364.209,317.172 353.876,317.839 343.5,318C 342.956,318.717 342.289,319.217 341.5,319.5C 337.298,319.817 333.298,319.483 329.5,318.5C 330.437,310.555 330.77,302.555 330.5,294.5 Z"/></g>
<g><path style="opacity:1" fill="#ac4443" d="M 102.5,268.5 C 111.238,278.081 119.071,288.415 126,299.5C 130.88,311.688 133.213,324.355 133,337.5C 133.994,340.961 134.827,344.461 135.5,348C 132.777,350.251 129.611,351.751 126,352.5C 125.228,352.355 124.561,352.022 124,351.5C 118.279,328.827 110.112,307.16 99.5,286.5C 101.137,280.614 102.137,274.614 102.5,268.5 Z"/></g>
<g><path style="opacity:1" fill="#312d3f" d="M 364.5,302.5 C 370.702,301.366 373.035,303.699 371.5,309.5C 363.817,311.822 361.484,309.489 364.5,302.5 Z"/></g>
<g><path style="opacity:1" fill="#353041" d="M 289.5,304.5 C 292.685,304.02 295.519,304.686 298,306.5C 298.825,308.701 298.325,310.534 296.5,312C 289.088,314.09 286.755,311.59 289.5,304.5 Z"/></g>
<g><path style="opacity:1" fill="#f8bfbb" d="M 239.5,294.5 C 246.833,294.5 254.167,294.5 261.5,294.5C 263.963,302.635 264.963,310.968 264.5,319.5C 248.991,319.83 233.658,319.496 218.5,318.5C 220.761,310.307 225.261,303.641 232,298.5C 233.292,300.249 234.458,302.082 235.5,304C 237.441,304.743 239.274,304.576 241,303.5C 241.597,300.319 241.097,297.319 239.5,294.5 Z"/></g>
<g><path style="opacity:1" fill="#f8c0bc" d="M 400.5,290.5 C 400.5,291.833 400.5,293.167 400.5,294.5C 414.5,294.5 428.5,294.5 442.5,294.5C 445.584,302.674 449.251,310.674 453.5,318.5C 436.341,319.497 419.008,319.83 401.5,319.5C 396.684,309.936 396.351,300.269 400.5,290.5 Z"/></g>
<g><path style="opacity:1" fill="#f7b9b9" d="M 218.5,318.5 C 233.658,319.496 248.991,319.83 264.5,319.5C 264.882,324.367 264.215,329.034 262.5,333.5C 242.167,333.5 221.833,333.5 201.5,333.5C 205.566,331.982 209.899,331.149 214.5,331C 215.877,326.766 217.211,322.599 218.5,318.5 Z"/></g>
<g><path style="opacity:1" fill="#f6b5b3" d="M 329.5,318.5 C 333.298,319.483 337.298,319.817 341.5,319.5C 341.178,321.722 341.845,323.556 343.5,325C 354.451,328.03 360.951,335.197 363,346.5C 364.356,347.38 365.856,347.714 367.5,347.5C 367.691,355.201 367.358,362.868 366.5,370.5C 356.167,370.5 345.833,370.5 335.5,370.5C 335.5,367.833 335.5,365.167 335.5,362.5C 335.701,359.492 336.034,356.492 336.5,353.5C 333.523,345.966 333.856,338.633 337.5,331.5C 335.993,327.165 333.493,326.498 330,329.5C 329.138,331.087 328.471,332.754 328,334.5C 327.667,340.167 327.333,345.833 327,351.5C 321.356,353.027 315.856,352.694 310.5,350.5C 306.165,352.007 305.498,354.507 308.5,358C 314.343,360.516 320.343,361.016 326.5,359.5C 327.429,360.689 327.762,362.022 327.5,363.5C 326.532,365.607 326.198,367.941 326.5,370.5C 315.5,370.5 304.5,370.5 293.5,370.5C 293.5,369.5 293.5,368.5 293.5,367.5C 293.856,361.056 294.856,354.723 296.5,348.5C 298.39,348.703 299.89,348.037 301,346.5C 303.152,333.682 310.652,326.182 323.5,324C 326.023,322.64 328.023,320.807 329.5,318.5 Z"/></g>
<g><path style="opacity:1" fill="#f6b5b4" d="M 453.5,318.5 C 463.452,335.032 468.785,353.032 469.5,372.5C 469.5,377.167 469.5,381.833 469.5,386.5C 458.986,386.172 448.653,386.506 438.5,387.5C 425.802,369.842 423.302,350.842 431,330.5C 429.534,328.675 427.701,328.175 425.5,329C 424.373,330.753 423.373,332.587 422.5,334.5C 421.635,335.583 420.635,335.749 419.5,335C 411.783,331.779 405.783,326.613 401.5,319.5C 419.008,319.83 436.341,319.497 453.5,318.5 Z"/></g>
<g><path style="opacity:1" fill="#d77481" d="M 296.5,348.5 C 294.856,354.723 293.856,361.056 293.5,367.5C 292.549,368.919 292.216,370.585 292.5,372.5C 290.981,370.386 288.981,368.72 286.5,367.5C 285.672,362.868 285.172,358.202 285,353.5C 280.273,347.103 275.94,340.436 272,333.5C 271.997,328.513 272.331,323.513 273,318.5C 275.626,321.231 278.793,323.064 282.5,324C 289.103,325.163 295.77,325.83 302.5,326C 296.739,331.68 293.906,338.514 294,346.5C 294.708,347.381 295.542,348.047 296.5,348.5 Z"/></g>
<g><path style="opacity:1" fill="#d77582" d="M 364.5,390.5 C 364.511,383.749 365.178,377.082 366.5,370.5C 367.358,362.868 367.691,355.201 367.5,347.5C 370.102,342.379 369.602,337.379 366,332.5C 364.357,330.023 362.524,327.69 360.5,325.5C 369.666,324.834 378.499,322.834 387,319.5C 387.667,321.5 387.667,323.5 387,325.5C 383.333,334.833 379.667,344.167 376,353.5C 375.5,365.162 375.333,376.829 375.5,388.5C 371.709,388.659 368.042,389.325 364.5,390.5 Z"/></g>
<g><path style="opacity:1" fill="#dd190d" d="M 394.5,324.5 C 397.935,328.438 401.602,332.271 405.5,336C 409.808,338.988 414.475,341.155 419.5,342.5C 419.985,347.542 417.985,351.376 413.5,354C 404.424,361.292 394.591,367.459 384,372.5C 383.333,365.833 383.333,359.167 384,352.5C 388.791,343.624 392.291,334.291 394.5,324.5 Z"/></g>
<g><path style="opacity:1" fill="#2b293b" d="M 335.5,362.5 C 333.947,368.11 334.614,373.61 337.5,379C 335.687,382.911 333.187,383.411 330,380.5C 327.795,375.068 326.962,369.402 327.5,363.5C 327.762,362.022 327.429,360.689 326.5,359.5C 320.343,361.016 314.343,360.516 308.5,358C 305.498,354.507 306.165,352.007 310.5,350.5C 315.856,352.694 321.356,353.027 327,351.5C 327.333,345.833 327.667,340.167 328,334.5C 328.471,332.754 329.138,331.087 330,329.5C 333.493,326.498 335.993,327.165 337.5,331.5C 333.856,338.633 333.523,345.966 336.5,353.5C 336.034,356.492 335.701,359.492 335.5,362.5 Z"/></g>
<g><path style="opacity:1" fill="#f8bab4" d="M 201.5,333.5 C 221.833,333.5 242.167,333.5 262.5,333.5C 261.923,337.983 260.256,341.983 257.5,345.5C 231.661,345.831 205.995,345.498 180.5,344.5C 186.735,339.548 193.735,335.881 201.5,333.5 Z"/></g>
<g><path style="opacity:1" fill="#d81a0f" d="M 267.5,342.5 C 271.223,346.92 274.723,351.586 278,356.5C 278.498,359.817 278.665,363.15 278.5,366.5C 271.096,364.798 264.43,361.465 258.5,356.5C 262.341,352.335 265.341,347.668 267.5,342.5 Z"/></g>
<g><path style="opacity:1" fill="#302c3e" d="M 354.5,350.5 C 359.668,351.339 360.668,353.839 357.5,358C 352.785,360.362 347.951,360.862 343,359.5C 342.242,357.231 342.409,355.064 343.5,353C 347.43,352.758 351.097,351.925 354.5,350.5 Z"/></g>
<g><path style="opacity:1" fill="#d3727f" d="M 150.5,352.5 C 154.273,351.822 157.106,353.156 159,356.5C 160.648,360.96 162.148,365.46 163.5,370C 163.251,372.664 162.085,374.831 160,376.5C 158.248,373.328 156.248,370.328 154,367.5C 154.025,362.176 152.858,357.176 150.5,352.5 Z"/></g>
<g><path style="opacity:1" fill="#d0727f" d="M 140.5,366.5 C 140.518,362.871 139.184,359.871 136.5,357.5C 140.103,354.441 142.937,355.108 145,359.5C 145.495,361.473 145.662,363.473 145.5,365.5C 143.784,365.629 142.117,365.962 140.5,366.5 Z"/></g>
<g><path style="opacity:1" fill="#f6b3b0" d="M 180.5,344.5 C 205.995,345.498 231.661,345.831 257.5,345.5C 252.907,351.593 247.24,356.426 240.5,360C 215.941,367.634 191.274,374.634 166.5,381C 169.518,377.96 170.852,374.294 170.5,370C 169.711,364.331 168.544,358.831 167,353.5C 171.382,350.278 175.882,347.278 180.5,344.5 Z"/></g>
<g><path style="opacity:1" fill="#f5bfbd" d="M 122.5,362.5 C 124.475,372.446 125.142,382.779 124.5,393.5C 122.496,392.327 120.996,390.66 120,388.5C 119.631,385.123 119.631,381.79 120,378.5C 118.622,376.787 116.955,375.453 115,374.5C 111.83,367.143 114.33,363.143 122.5,362.5 Z"/></g>
<g><path style="opacity:1" fill="#edabaa" d="M 335.5,362.5 C 335.5,365.167 335.5,367.833 335.5,370.5C 345.833,370.5 356.167,370.5 366.5,370.5C 365.178,377.082 364.511,383.749 364.5,390.5C 343.057,395.375 322.723,392.542 303.5,382C 299.641,378.968 295.974,375.802 292.5,372.5C 292.216,370.585 292.549,368.919 293.5,367.5C 293.5,368.5 293.5,369.5 293.5,370.5C 304.5,370.5 315.5,370.5 326.5,370.5C 326.198,367.941 326.532,365.607 327.5,363.5C 326.962,369.402 327.795,375.068 330,380.5C 333.187,383.411 335.687,382.911 337.5,379C 334.614,373.61 333.947,368.11 335.5,362.5 Z"/></g>
<g><path style="opacity:1" fill="#d37380" d="M 146.5,382.5 C 146.982,379.169 145.982,376.503 143.5,374.5C 146.26,371.679 148.76,372.013 151,375.5C 151.495,377.473 151.662,379.473 151.5,381.5C 149.784,381.629 148.117,381.962 146.5,382.5 Z"/></g>
<g><path style="opacity:1" fill="#b25a68" d="M 281.5,387.5 C 279.359,384.528 276.692,382.028 273.5,380C 272.207,379.51 270.873,379.343 269.5,379.5C 271.778,376.528 274.778,374.861 278.5,374.5C 278.717,379.033 279.717,383.366 281.5,387.5 Z"/></g>
<g><path style="opacity:1" fill="#f3b0ae" d="M 136.5,357.5 C 139.184,359.871 140.518,362.871 140.5,366.5C 136.974,368.072 133.307,369.572 129.5,371C 126.781,374.35 127.448,376.85 131.5,378.5C 135.318,376.59 139.318,375.256 143.5,374.5C 145.982,376.503 146.982,379.169 146.5,382.5C 142.196,384.068 138.029,386.068 134,388.5C 132.728,392.229 134.061,393.896 138,393.5C 141.803,392.399 145.636,391.399 149.5,390.5C 151.358,392.883 152.692,395.55 153.5,398.5C 145.172,402.224 136.505,404.391 127.5,405C 124.846,401.673 123.846,397.839 124.5,393.5C 125.142,382.779 124.475,372.446 122.5,362.5C 126.895,360.313 131.562,358.646 136.5,357.5 Z"/></g>
<g><path style="opacity:1" fill="#de8a92" d="M 269.5,379.5 C 270.873,379.343 272.207,379.51 273.5,380C 276.692,382.028 279.359,384.528 281.5,387.5C 285.735,395.736 291.735,402.402 299.5,407.5C 293.546,412.15 286.88,415.817 279.5,418.5C 277.201,413.441 275.368,408.107 274,402.5C 272.951,401.483 271.784,401.316 270.5,402C 266.869,409.018 264.702,416.518 264,424.5C 262.89,426.037 261.39,426.703 259.5,426.5C 255.411,416.239 255.577,405.905 260,395.5C 262.437,389.608 265.604,384.274 269.5,379.5 Z"/></g>
<g><path style="opacity:1" fill="#cf717d" d="M 153.5,398.5 C 152.692,395.55 151.358,392.883 149.5,390.5C 152.359,387.51 154.859,387.844 157,391.5C 158.313,395.205 157.146,397.538 153.5,398.5 Z"/></g>
<g><path style="opacity:1" fill="#d7808b" d="M 299.5,407.5 C 301.67,409.086 304.004,410.42 306.5,411.5C 308.283,421.439 309.616,431.605 310.5,442C 311.23,446.937 309.23,448.604 304.5,447C 296.726,442.39 290.059,436.557 284.5,429.5C 282.576,425.983 280.909,422.316 279.5,418.5C 286.88,415.817 293.546,412.15 299.5,407.5 Z"/></g>
<g><path style="opacity:1" fill="#f0a8a3" d="M 469.5,372.5 C 470.91,389.423 470.243,406.423 467.5,423.5C 466.596,424.209 466.263,425.209 466.5,426.5C 461.5,426.5 456.5,426.5 451.5,426.5C 450.558,412.342 446.225,399.342 438.5,387.5C 448.653,386.506 458.986,386.172 469.5,386.5C 469.5,381.833 469.5,377.167 469.5,372.5 Z"/></g>
<g><path style="opacity:1" fill="#9e3e50" d="M 342.5,419.5 C 338.127,418.657 333.793,417.657 329.5,416.5C 329.348,412.513 327.348,411.013 323.5,412C 320.694,414.937 321.027,417.437 324.5,419.5C 326.029,431.879 332.696,440.379 344.5,445C 347.802,446.026 351.135,446.86 354.5,447.5C 352.656,450.687 349.989,452.687 346.5,453.5C 336.245,450.687 327.412,445.687 320,438.5C 318.893,438.585 317.893,438.919 317,439.5C 316.406,445.856 316.573,452.189 317.5,458.5C 301.771,456.143 289.437,448.476 280.5,435.5C 282.252,433.754 283.585,431.754 284.5,429.5C 290.059,436.557 296.726,442.39 304.5,447C 309.23,448.604 311.23,446.937 310.5,442C 309.616,431.605 308.283,421.439 306.5,411.5C 310,411.505 311.5,409.838 311,406.5C 301.333,400.833 293.667,393.167 288,383.5C 287.009,381.553 286.675,379.553 287,377.5C 302.382,393.574 321.215,400.907 343.5,399.5C 353.653,399.871 363.653,398.871 373.5,396.5C 371.238,406.59 364.905,412.423 354.5,414C 351.167,414.333 347.833,414.667 344.5,415C 342.963,416.11 342.297,417.61 342.5,419.5 Z"/></g>
<g><path style="opacity:1" fill="#292638" d="M 329.5,416.5 C 328.599,418.727 326.933,419.727 324.5,419.5C 321.027,417.437 320.694,414.937 323.5,412C 327.348,411.013 329.348,412.513 329.5,416.5 Z"/></g>
<g><path style="opacity:1" fill="#872824" d="M 143.5,409.5 C 145.144,409.286 146.644,409.62 148,410.5C 152.177,429.541 156.51,448.541 161,467.5C 161.667,469.833 161.667,472.167 161,474.5C 158.546,476.013 156.879,475.346 156,472.5C 151.795,452.346 146.961,432.346 141.5,412.5C 141.942,411.261 142.609,410.261 143.5,409.5 Z"/></g>
<g><path style="opacity:1" fill="#ae4f5e" d="M 279.5,418.5 C 280.909,422.316 282.576,425.983 284.5,429.5C 283.585,431.754 282.252,433.754 280.5,435.5C 278.271,431.007 275.938,426.507 273.5,422C 271.299,421.175 269.466,421.675 268,423.5C 267.828,428.202 267.328,432.868 266.5,437.5C 263.396,434.284 261.063,430.618 259.5,426.5C 261.39,426.703 262.89,426.037 264,424.5C 264.702,416.518 266.869,409.018 270.5,402C 271.784,401.316 272.951,401.483 274,402.5C 275.368,408.107 277.201,413.441 279.5,418.5 Z"/></g>
<g><path style="opacity:1" fill="#89273a" d="M 346.5,453.5 C 349.989,452.687 352.656,450.687 354.5,447.5C 362.466,448.822 370.132,451.155 377.5,454.5C 378.693,442.918 375.026,433.085 366.5,425C 363.929,423.546 361.262,422.38 358.5,421.5C 370.818,418.015 378.651,410.015 382,397.5C 386.271,401.703 389.271,406.703 391,412.5C 396.676,431.913 397.843,451.58 394.5,471.5C 390.572,468.077 386.239,465.243 381.5,463C 369.851,459.34 358.185,456.173 346.5,453.5 Z"/></g>
<g><path style="opacity:1" fill="#ce7481" d="M 329.5,416.5 C 333.793,417.657 338.127,418.657 342.5,419.5C 343.512,421.876 345.345,422.876 348,422.5C 351.473,421.837 354.973,421.504 358.5,421.5C 361.262,422.38 363.929,423.546 366.5,425C 375.026,433.085 378.693,442.918 377.5,454.5C 370.132,451.155 362.466,448.822 354.5,447.5C 351.135,446.86 347.802,446.026 344.5,445C 332.696,440.379 326.029,431.879 324.5,419.5C 326.933,419.727 328.599,418.727 329.5,416.5 Z"/></g>
<g><path style="opacity:1" fill="#ef9b97" d="M 467.5,423.5 C 467.536,431.982 468.703,440.315 471,448.5C 471.667,454.833 471.667,461.167 471,467.5C 470.535,468.931 469.701,470.097 468.5,471C 461.836,474.554 455.003,477.72 448,480.5C 446.739,480.241 445.739,479.574 445,478.5C 444.667,474.167 444.333,469.833 444,465.5C 441.719,462.937 440.552,459.937 440.5,456.5C 445.256,446.972 448.922,436.972 451.5,426.5C 456.5,426.5 461.5,426.5 466.5,426.5C 466.263,425.209 466.596,424.209 467.5,423.5 Z"/></g>
</svg>
