<?xml version="1.0" encoding="UTF-8"?>
<!DOCTYPE svg PUBLIC "-//W3C//DTD SVG 1.1//EN" "http://www.w3.org/Graphics/SVG/1.1/DTD/svg11.dtd">
<svg xmlns="http://www.w3.org/2000/svg" version="1.1" width="512px" height="512px" style="shape-rendering:geometricPrecision; text-rendering:geometricPrecision; image-rendering:optimizeQuality; fill-rule:evenodd; clip-rule:evenodd" xmlns:xlink="http://www.w3.org/1999/xlink">
<g><path style="opacity:1" fill="#272638" d="M 266.5,10.5 C 273.994,11.0023 278.161,15.0023 279,22.5C 303.71,36.7366 313.544,58.0699 308.5,86.5C 310.167,86.5 311.833,86.5 313.5,86.5C 317.742,55.4246 334.075,33.2579 362.5,20C 375.273,15.0226 388.273,14.0226 401.5,17C 415.836,23.1682 421.669,34.0015 419,49.5C 417.784,53.9016 416.118,57.9016 414,61.5C 433.818,53.4519 453.652,53.6186 473.5,62C 479.635,64.3026 484.469,68.1359 488,73.5C 488.667,78.5 488.667,83.5 488,88.5C 486.542,90.96 484.709,93.1266 482.5,95C 441.929,102.927 410.595,124.26 388.5,159C 399.174,155.226 410.174,152.226 421.5,150C 450.144,146.211 473.977,155.044 493,176.5C 512.826,206.609 512.16,236.275 491,265.5C 478.412,279.046 462.912,287.212 444.5,290C 437.293,290.922 430.126,291.756 423,292.5C 411.764,290.606 404.097,284.272 400,273.5C 398.752,266.785 399.752,260.452 403,254.5C 415.363,236.487 432.029,224.153 453,217.5C 453.262,212.21 452.095,207.21 449.5,202.5C 419.052,203.806 393.552,215.806 373,238.5C 357.65,265.562 350.983,294.562 353,325.5C 401.695,336.869 424.029,367.536 420,417.5C 415.342,447.793 400.509,471.626 375.5,489C 361.284,497.211 345.951,501.044 329.5,500.5C 285.802,500.023 242.135,499.189 198.5,498C 167.65,485.81 155.483,463.31 162,430.5C 164.903,417.699 169.736,405.699 176.5,394.5C 176.167,394.167 175.833,393.833 175.5,393.5C 150.339,404.741 125.006,405.241 99.5,395C 92.3315,388.863 89.1649,381.03 90,371.5C 68.7607,390.88 60.4273,414.88 65,443.5C 60.4731,449.85 54.6397,451.183 47.5,447.5C 33.0714,425.172 29.5714,401.172 37,375.5C 47.2042,347.294 65.3708,325.794 91.5,311C 107.432,301.701 124.432,295.201 142.5,291.5C 139.807,276.2 137.307,260.867 135,245.5C 133.293,226.529 135.46,208.029 141.5,190C 135.654,185.415 128.987,182.415 121.5,181C 117.324,180.573 113.158,180.073 109,179.5C 107.833,179.833 106.667,180.167 105.5,180.5C 98.6904,191.237 89.0237,195.404 76.5,193C 67.8222,202.86 62.8222,214.36 61.5,227.5C 62.0356,236.41 66.0356,243.244 73.5,248C 82.1667,250.333 90.8333,252.667 99.5,255C 110.8,265.107 112.3,276.607 104,289.5C 93.7717,298.969 81.6051,303.636 67.5,303.5C 29.8681,300.369 8.70146,280.036 4,242.5C 3.12664,204.419 17.2933,173.252 46.5,149C 51.0002,145.915 55.6669,143.082 60.5,140.5C 61.6029,135.82 62.7695,131.153 64,126.5C 68.9141,118.649 74.9141,117.649 82,123.5C 93.9182,107.957 109.751,99.9571 129.5,99.5C 157.615,100.88 178.282,113.88 191.5,138.5C 199.617,137.626 207.784,137.626 216,138.5C 211.077,100.575 189.577,78.7416 151.5,73C 136.198,71.8077 120.865,71.141 105.5,71C 94.6862,66.8795 90.5195,59.0462 93,47.5C 96.039,41.1232 100.539,35.9565 106.5,32C 121.109,21.3526 137.442,16.3526 155.5,17C 160.749,18.986 163.415,22.8193 163.5,28.5C 201.94,34.7756 231.44,54.4423 252,87.5C 255.606,94.3786 258.939,101.379 262,108.5C 264.63,104.868 267.63,101.535 271,98.5C 274.19,87.1216 274.19,75.7883 271,64.5C 268.708,60.2115 265.208,57.3782 260.5,56C 253.492,55.4175 246.492,54.7509 239.5,54C 232.94,47.85 231.774,40.6833 236,32.5C 239.597,25.1142 245.097,19.6142 252.5,16C 257.159,13.8421 261.825,12.0088 266.5,10.5 Z M 412.5,62.5 C 410.725,66.4803 410.058,70.4803 410.5,74.5C 393.189,82.8207 377.523,93.4873 363.5,106.5C 361.685,98.1835 362.518,90.1835 366,82.5C 367.5,81 369,79.5 370.5,78C 386.252,77.2531 400.252,72.0865 412.5,62.5 Z"/></g>
<g><path style="opacity:1" fill="#5b5b54" d="M 152.5,24.5 C 146.192,29.8038 139.858,35.1371 133.5,40.5C 131.166,37.0079 128.166,36.5079 124.5,39C 121.866,41.2933 121.866,43.46 124.5,45.5C 125.598,46.397 125.598,47.2303 124.5,48C 118.877,51.9546 113.543,56.2879 108.5,61C 107.207,61.49 105.873,61.6567 104.5,61.5C 100.76,58.4006 99.593,54.4006 101,49.5C 114.386,33.5582 131.552,25.2248 152.5,24.5 Z"/></g>
<g><path style="opacity:1" fill="#5c5650" d="M 152.5,24.5 C 153.458,24.9528 154.292,25.6195 155,26.5C 154.845,28.8107 154.845,31.144 155,33.5C 156.91,36.156 158.41,38.9893 159.5,42C 159.245,43.3261 158.578,44.3261 157.5,45C 154.833,45.3333 152.167,45.6667 149.5,46C 146.757,48.6109 147.09,50.7776 150.5,52.5C 151.609,53.29 152.942,53.79 154.5,54C 150.249,56.9454 146.249,60.112 142.5,63.5C 130.495,63.6665 118.495,63.4999 106.5,63C 105.584,62.7216 104.918,62.2216 104.5,61.5C 105.873,61.6567 107.207,61.49 108.5,61C 113.543,56.2879 118.877,51.9546 124.5,48C 125.598,47.2303 125.598,46.397 124.5,45.5C 127.32,45.7525 129.986,45.2525 132.5,44C 133.337,42.9887 133.67,41.8221 133.5,40.5C 139.858,35.1371 146.192,29.8038 152.5,24.5 Z"/></g>
<g><path style="opacity:1" fill="#434342" d="M 294.5,46.5 C 284.689,47.7388 274.689,48.4055 264.5,48.5C 257.524,47.8248 250.524,47.3248 243.5,47C 242.056,45.874 241.39,44.374 241.5,42.5C 245.071,29.4315 253.571,21.7648 267,19.5C 268.662,19.3875 269.829,20.0542 270.5,21.5C 269.294,23.5159 269.294,25.5159 270.5,27.5C 280.432,31.4573 288.432,37.7906 294.5,46.5 Z"/></g>
<g><path style="opacity:1" fill="#262538" d="M 258.5,30.5 C 259.583,30.5394 260.583,30.8728 261.5,31.5C 262.466,33.396 262.799,35.396 262.5,37.5C 260.325,37.6822 258.325,38.3489 256.5,39.5C 253.025,38.8568 251.859,36.8568 253,33.5C 255.058,32.7709 256.891,31.7709 258.5,30.5 Z"/></g>
<g><path style="opacity:1" fill="#272738" d="M 133.5,40.5 C 133.67,41.8221 133.337,42.9887 132.5,44C 129.986,45.2525 127.32,45.7525 124.5,45.5C 121.866,43.46 121.866,41.2933 124.5,39C 128.166,36.5079 131.166,37.0079 133.5,40.5 Z"/></g>
<g><path style="opacity:1" fill="#565650" d="M 203.5,50.5 C 195.418,58.2517 186.751,65.2517 177.5,71.5C 166.057,67.8117 154.391,65.145 142.5,63.5C 146.249,60.112 150.249,56.9454 154.5,54C 152.942,53.79 151.609,53.29 150.5,52.5C 157.561,53.5438 163.061,51.2105 167,45.5C 167.769,42.9009 167.602,40.4009 166.5,38C 179.793,39.2643 192.126,43.431 203.5,50.5 Z"/></g>
<g><path style="opacity:1" fill="#585651" d="M 347.5,69.5 C 347.565,69.9382 347.399,70.2716 347,70.5C 341.153,67.3274 335.319,64.3274 329.5,61.5C 341.907,37.7973 361.574,24.7973 388.5,22.5C 396.716,23.0681 403.549,26.4014 409,32.5C 413.834,43.2881 411.667,52.4548 402.5,60C 387.911,68.6976 372.411,71.5309 356,68.5C 353.853,63.6729 354.186,59.0062 357,54.5C 363.849,47.9827 371.516,42.6494 380,38.5C 380.772,38.6448 381.439,38.9781 382,39.5C 381.963,43.2939 383.796,45.2939 387.5,45.5C 391.733,44.7019 395.567,43.0352 399,40.5C 399.711,38.6332 399.211,37.1332 397.5,36C 394.725,35.2217 392.225,35.7217 390,37.5C 388.188,35.6884 386.355,33.8551 384.5,32C 381.833,31.3333 379.167,31.3333 376.5,32C 367.556,36.3853 359.39,41.8853 352,48.5C 348.151,54.9777 346.651,61.9777 347.5,69.5 Z"/></g>
<g><path style="opacity:1" fill="#272638" d="M 374.5,48.5 C 378.487,48.6518 379.987,50.6518 379,54.5C 376.507,56.6722 373.674,57.5056 370.5,57C 368.485,52.5395 369.819,49.7061 374.5,48.5 Z"/></g>
<g><path style="opacity:1" fill="#565050" d="M 203.5,50.5 C 210.082,54.0908 216.082,58.4242 221.5,63.5C 212.584,69.4136 204.251,76.0802 196.5,83.5C 190.604,78.7235 184.27,74.7235 177.5,71.5C 186.751,65.2517 195.418,58.2517 203.5,50.5 Z"/></g>
<g><path style="opacity:1" fill="#3d3b3c" d="M 294.5,46.5 C 298.114,51.8321 300.281,57.8321 301,64.5C 301.683,71.8615 301.517,79.1948 300.5,86.5C 293.578,87.1878 287.078,89.1878 281,92.5C 281.926,83.1588 281.593,73.8255 280,64.5C 276.67,57.3376 271.504,52.0043 264.5,48.5C 274.689,48.4055 284.689,47.7388 294.5,46.5 Z"/></g>
<g><path style="opacity:1" fill="#565050" d="M 329.5,61.5 C 335.319,64.3274 341.153,67.3274 347,70.5C 347.399,70.2716 347.565,69.9382 347.5,69.5C 349.844,74.1731 353.511,77.5065 358.5,79.5C 354.88,86.7161 353.547,94.3827 354.5,102.5C 353.834,99.3107 353.167,95.9773 352.5,92.5C 343.046,87.6895 333.546,83.0228 324,78.5C 323.768,79.7375 323.268,80.7375 322.5,81.5C 323.264,74.204 325.597,67.5374 329.5,61.5 Z"/></g>
<g><path style="opacity:1" fill="#5a5651" d="M 426.5,108.5 C 415.838,103.502 405.171,98.5024 394.5,93.5C 401.446,87.7722 409.279,83.4389 418,80.5C 419.226,80.6448 420.393,80.9781 421.5,81.5C 422.695,91.2134 428.029,95.38 437.5,94C 440.838,92.0121 441.172,89.6788 438.5,87C 435.854,86.5026 433.187,86.3359 430.5,86.5C 431.008,83.8239 431.175,81.1572 431,78.5C 427.863,76.0144 424.363,74.1811 420.5,73C 418.675,71.5341 418.175,69.7008 419,67.5C 440.729,60.1843 461.062,62.8509 480,75.5C 480.667,79.1667 480.667,82.8333 480,86.5C 478.829,87.8932 477.329,88.7265 475.5,89C 457.792,92.1924 441.459,98.6924 426.5,108.5 Z"/></g>
<g><path style="opacity:1" fill="#52504a" d="M 221.5,63.5 C 229.267,70.5989 235.934,78.5989 241.5,87.5C 233.484,94.8465 225.151,101.846 216.5,108.5C 211.353,99.0126 204.687,90.6792 196.5,83.5C 204.251,76.0802 212.584,69.4136 221.5,63.5 Z"/></g>
<g><path style="opacity:1" fill="#272638" d="M 453.5,72.5 C 456.187,72.3359 458.854,72.5026 461.5,73C 462.935,75.2672 462.602,77.2672 460.5,79C 453.618,81.2486 451.284,79.0819 453.5,72.5 Z"/></g>
<g><path style="opacity:1" fill="#4f4a4a" d="M 241.5,87.5 C 248.307,97.0607 253.307,107.561 256.5,119C 251.125,130.698 247.291,142.865 245,155.5C 242.167,152.667 239.333,149.833 236.5,147C 232.34,145.397 228.673,143.064 225.5,140C 223.651,129.094 220.651,118.594 216.5,108.5C 225.151,101.846 233.484,94.8465 241.5,87.5 Z"/></g>
<g><path style="opacity:1" fill="#524f4a" d="M 354.5,102.5 C 355.337,106.834 355.837,111.168 356,115.5C 352.297,118.867 348.964,122.534 346,126.5C 344.758,109.661 336.758,97.3274 322,89.5C 321.278,86.7395 321.445,84.0728 322.5,81.5C 323.268,80.7375 323.768,79.7375 324,78.5C 333.546,83.0228 343.046,87.6895 352.5,92.5C 353.167,95.9773 353.834,99.3107 354.5,102.5 Z"/></g>
<g><path style="opacity:1" fill="#565050" d="M 394.5,93.5 C 405.171,98.5024 415.838,103.502 426.5,108.5C 420.573,112.419 414.906,116.752 409.5,121.5C 399.759,114.629 389.092,109.296 377.5,105.5C 382.607,100.73 388.273,96.7297 394.5,93.5 Z"/></g>
<g><path style="opacity:1" fill="#636850" d="M 334.5,113.5 C 333.848,114.725 332.681,115.392 331,115.5C 311.487,113.532 291.987,111.532 272.5,109.5C 280.233,99.1713 290.733,93.8379 304,93.5C 318.732,93.5927 328.899,100.259 334.5,113.5 Z"/></g>
<g><path style="opacity:1" fill="#666955" d="M 166.5,120.5 C 167.052,127.614 165.718,134.281 162.5,140.5C 152.977,130.575 141.31,125.908 127.5,126.5C 124.847,121.193 122.18,115.86 119.5,110.5C 118.675,109.614 117.675,109.281 116.5,109.5C 134.85,105.253 151.516,108.919 166.5,120.5 Z"/></g>
<g><path style="opacity:1" fill="#686956" d="M 272.5,109.5 C 291.987,111.532 311.487,113.532 331,115.5C 332.681,115.392 333.848,114.725 334.5,113.5C 337.549,119.047 338.716,125.047 338,131.5C 327.227,123.04 317.06,123.707 307.5,133.5C 291.855,131.926 276.188,130.593 260.5,129.5C 262.994,121.83 266.994,115.163 272.5,109.5 Z"/></g>
<g><path style="opacity:1" fill="#52504a" d="M 377.5,105.5 C 389.092,109.296 399.759,114.629 409.5,121.5C 402.436,127.562 396.103,134.228 390.5,141.5C 379.177,136.506 367.844,131.506 356.5,126.5C 362.5,118.5 369.5,111.5 377.5,105.5 Z"/></g>
<g><path style="opacity:1" fill="#727961" d="M 116.5,109.5 C 117.675,109.281 118.675,109.614 119.5,110.5C 122.18,115.86 124.847,121.193 127.5,126.5C 118.915,129.251 113.081,134.918 110,143.5C 108.966,147.333 107.8,150.999 106.5,154.5C 105.54,149.914 103.54,145.914 100.5,142.5C 102.248,140.84 102.748,138.84 102,136.5C 100.629,133.734 98.7957,131.401 96.5,129.5C 96.631,128.761 96.4643,128.094 96,127.5C 94.3484,126.601 92.8484,125.601 91.5,124.5C 98.0611,116.617 106.394,111.617 116.5,109.5 Z"/></g>
<g><path style="opacity:1" fill="#4f4c4a" d="M 91.5,124.5 C 92.8484,125.601 94.3484,126.601 96,127.5C 96.4643,128.094 96.631,128.761 96.5,129.5C 93.9205,128.772 91.2538,128.272 88.5,128C 89.1634,126.482 90.1634,125.315 91.5,124.5 Z"/></g>
<g><path style="opacity:1" fill="#4f4a4a" d="M 356.5,126.5 C 367.844,131.506 379.177,136.506 390.5,141.5C 384.433,150.236 378.767,159.236 373.5,168.5C 362.652,175.175 352.818,183.175 344,192.5C 344.874,174.531 345.541,156.531 346,138.5C 349.365,134.307 352.865,130.307 356.5,126.5 Z"/></g>
<g><path style="opacity:1" fill="#696f56" d="M 260.5,129.5 C 276.188,130.593 291.855,131.926 307.5,133.5C 303.924,140.22 300.924,147.22 298.5,154.5C 285.482,153.598 272.482,152.432 259.5,151C 257.256,150.95 255.589,150.117 254.5,148.5C 255.7,141.9 257.7,135.566 260.5,129.5 Z"/></g>
<g><path style="opacity:1" fill="#be6f64" d="M 326.5,179.5 C 326.723,172.16 327.056,164.827 327.5,157.5C 328.685,156.143 329.685,154.643 330.5,153C 329.928,150.926 328.595,149.76 326.5,149.5C 326.288,141.619 322.288,137.953 314.5,138.5C 318.5,132.104 323.833,130.937 330.5,135C 333.057,137.892 335.224,141.059 337,144.5C 337.5,155.495 337.667,166.495 337.5,177.5C 333.998,178.917 330.331,179.584 326.5,179.5 Z"/></g>
<g><path style="opacity:1" fill="#f1cccc" d="M 129.5,133.5 C 132.881,133.46 136.214,133.793 139.5,134.5C 138.909,137.94 137.909,141.273 136.5,144.5C 130.525,144.398 124.525,144.731 118.5,145.5C 118.167,145.167 117.833,144.833 117.5,144.5C 120.294,139.366 124.294,135.699 129.5,133.5 Z"/></g>
<g><path style="opacity:1" fill="#504c4a" d="M 166.5,120.5 C 174.55,126.381 180.55,133.881 184.5,143C 180.019,146.141 175.519,149.307 171,152.5C 168.336,148.343 165.503,144.343 162.5,140.5C 165.718,134.281 167.052,127.614 166.5,120.5 Z"/></g>
<g><path style="opacity:1" fill="#f1cccc" d="M 146.5,138.5 C 157.093,142.126 158.259,147.793 150,155.5C 147.554,153.041 145.054,150.708 142.5,148.5C 144.409,145.356 145.742,142.023 146.5,138.5 Z"/></g>
<g><path style="opacity:1" fill="#f6d0d0" d="M 314.5,138.5 C 322.288,137.953 326.288,141.619 326.5,149.5C 321.156,149.666 315.823,149.499 310.5,149C 309.952,144.905 311.286,141.405 314.5,138.5 Z"/></g>
<g><path style="opacity:1" fill="#818d70" d="M 80.5,161.5 C 80.5,161.833 80.5,162.167 80.5,162.5C 83.5767,169.652 86.91,176.652 90.5,183.5C 83.6556,187.074 77.8223,185.741 73,179.5C 67.772,167.996 66.272,155.996 68.5,143.5C 69.1174,143.389 69.6174,143.056 70,142.5C 73.0205,149.217 76.5205,155.551 80.5,161.5 Z"/></g>
<g><path style="opacity:1" fill="#636350" d="M 230.5,152.5 C 230.5,161.5 230.5,170.5 230.5,179.5C 229.517,175.702 229.183,171.702 229.5,167.5C 210.778,165.309 192.112,162.976 173.5,160.5C 184.909,149.47 198.576,144.637 214.5,146C 220.471,146.826 225.804,148.993 230.5,152.5 Z"/></g>
<g><path style="opacity:1" fill="#4b4a49" d="M 119.5,152.5 C 136.158,150.707 146.658,157.707 151,173.5C 149.458,176.619 147.458,179.286 145,181.5C 134.087,175.145 122.254,172.145 109.5,172.5C 110.85,166.945 112.517,161.445 114.5,156C 115.921,154.377 117.588,153.21 119.5,152.5 Z"/></g>
<g><path style="opacity:1" fill="#272739" d="M 80.5,162.5 C 80.5,162.167 80.5,161.833 80.5,161.5C 80.2317,158.881 80.565,156.381 81.5,154C 85.902,152.431 87.902,153.931 87.5,158.5C 87.4209,164.282 85.0876,165.615 80.5,162.5 Z"/></g>
<g><path style="opacity:1" fill="#b1685f" d="M 160.5,152.5 C 162.389,153.401 163.722,154.901 164.5,157C 162.385,160.118 159.885,162.952 157,165.5C 155.916,164.335 155.083,163.002 154.5,161.5C 157.337,159.008 159.337,156.008 160.5,152.5 Z"/></g>
<g><path style="opacity:1" fill="#6d6f5c" d="M 254.5,148.5 C 255.589,150.117 257.256,150.95 259.5,151C 272.482,152.432 285.482,153.598 298.5,154.5C 297.167,158.833 295.833,163.167 294.5,167.5C 280.479,166.347 266.479,165.013 252.5,163.5C 252.737,164.791 252.404,165.791 251.5,166.5C 251.925,160.274 252.925,154.274 254.5,148.5 Z"/></g>
<g><path style="opacity:1" fill="#f5cfd0" d="M 327.5,157.5 C 327.056,164.827 326.723,172.16 326.5,179.5C 322.019,180.648 317.352,180.815 312.5,180C 308.855,179.005 305.188,178.172 301.5,177.5C 301.649,170.271 302.983,163.271 305.5,156.5C 307.187,155.432 308.854,155.599 310.5,157C 316.157,157.499 321.824,157.666 327.5,157.5 Z"/></g>
<g><path style="opacity:1" fill="#7c856c" d="M 100.5,142.5 C 103.54,145.914 105.54,149.914 106.5,154.5C 104.806,163.082 101.639,171.082 97,178.5C 95.2228,180.79 93.0562,182.457 90.5,183.5C 86.91,176.652 83.5767,169.652 80.5,162.5C 85.0876,165.615 87.4209,164.282 87.5,158.5C 87.902,153.931 85.902,152.431 81.5,154C 80.565,156.381 80.2317,158.881 80.5,161.5C 76.5205,155.551 73.0205,149.217 70,142.5C 69.6174,143.056 69.1174,143.389 68.5,143.5C 69.3292,138.846 70.1625,134.18 71,129.5C 71.7387,128.426 72.7387,127.759 74,127.5C 77.3235,130.331 80.1569,133.664 82.5,137.5C 84.0745,138.631 85.7412,138.798 87.5,138C 88.7741,136.779 90.2741,135.946 92,135.5C 93.7339,137.29 95.2339,139.29 96.5,141.5C 97.7362,142.246 99.0695,142.579 100.5,142.5 Z"/></g>
<g><path style="opacity:1" fill="#6d725b" d="M 442.5,158.5 C 439.632,166.437 436.965,174.437 434.5,182.5C 422.921,180.545 411.588,181.378 400.5,185C 393.447,188.527 386.447,192.027 379.5,195.5C 380.716,187.142 383.049,178.809 386.5,170.5C 403.762,160.066 422.429,156.066 442.5,158.5 Z"/></g>
<g><path style="opacity:1" fill="#747c63" d="M 442.5,158.5 C 452.553,159.518 461.886,162.518 470.5,167.5C 465.646,179.068 461.979,191.068 459.5,203.5C 454.231,193.008 445.897,186.008 434.5,182.5C 436.965,174.437 439.632,166.437 442.5,158.5 Z"/></g>
<g><path style="opacity:1" fill="#514f4a" d="M 61.5,200.5 C 50.6633,193.914 39.6633,187.581 28.5,181.5C 36.4575,168.876 46.7908,158.543 59.5,150.5C 59.4539,161.644 61.6206,172.311 66,182.5C 67.6851,184.017 69.1851,185.684 70.5,187.5C 66.7401,191.369 63.7401,195.702 61.5,200.5 Z"/></g>
<g><path style="opacity:1" fill="#636950" d="M 173.5,160.5 C 192.112,162.976 210.778,165.309 229.5,167.5C 229.183,171.702 229.517,175.702 230.5,179.5C 230.5,179.833 230.5,180.167 230.5,180.5C 207.523,177.688 184.523,175.021 161.5,172.5C 164.521,167.479 168.521,163.479 173.5,160.5 Z"/></g>
<g><path style="opacity:1" fill="#6f755d" d="M 294.5,167.5 C 292.947,179.101 292.281,190.767 292.5,202.5C 278.905,201.657 265.405,200.324 252,198.5C 251.517,199.448 251.351,200.448 251.5,201.5C 250.22,189.974 250.22,178.307 251.5,166.5C 252.404,165.791 252.737,164.791 252.5,163.5C 266.479,165.013 280.479,166.347 294.5,167.5 Z"/></g>
<g><path style="opacity:1" fill="#524e4b" d="M 230.5,152.5 C 235.123,155.289 238.956,158.955 242,163.5C 242.869,165.581 243.369,167.747 243.5,170C 242.95,177.84 242.283,185.674 241.5,193.5C 237.745,190.302 233.745,187.635 229.5,185.5C 230.451,184.081 230.784,182.415 230.5,180.5C 230.5,180.167 230.5,179.833 230.5,179.5C 230.5,170.5 230.5,161.5 230.5,152.5 Z"/></g>
<g><path style="opacity:1" fill="#686956" d="M 386.5,170.5 C 383.049,178.809 380.716,187.142 379.5,195.5C 374.205,199.488 368.872,203.488 363.5,207.5C 362.334,199.928 362.667,192.261 364.5,184.5C 371.025,178.657 378.359,173.99 386.5,170.5 Z"/></g>
<g><path style="opacity:1" fill="#7a8269" d="M 470.5,167.5 C 478.833,172.5 485.5,179.167 490.5,187.5C 484.946,201.489 479.946,215.822 475.5,230.5C 470.833,230.5 466.167,230.5 461.5,230.5C 461.928,221.386 461.262,212.386 459.5,203.5C 461.979,191.068 465.646,179.068 470.5,167.5 Z"/></g>
<g><path style="opacity:1" fill="#686956" d="M 161.5,172.5 C 184.523,175.021 207.523,177.688 230.5,180.5C 230.784,182.415 230.451,184.081 229.5,185.5C 216.239,181.589 205.239,184.922 196.5,195.5C 195.737,194.732 194.737,194.232 193.5,194C 180.666,192.5 167.833,191 155,189.5C 153.408,189.605 151.908,189.939 150.5,190.5C 152.664,183.49 156.331,177.49 161.5,172.5 Z"/></g>
<g><path style="opacity:1" fill="#565050" d="M 28.5,181.5 C 39.6633,187.581 50.6633,193.914 61.5,200.5C 58.1505,206.557 55.8172,212.891 54.5,219.5C 54.67,218.178 54.3366,217.011 53.5,216C 43.6656,210.251 33.9989,204.251 24.5,198C 22.9751,196.991 21.3084,196.491 19.5,196.5C 21.7601,190.967 24.7601,185.967 28.5,181.5 Z"/></g>
<g><path style="opacity:1" fill="#f6d0cf" d="M 315.5,187.5 C 318.625,188.479 321.958,188.813 325.5,188.5C 325.587,197.188 325.253,205.854 324.5,214.5C 316.458,214.736 308.458,214.403 300.5,213.5C 299.675,203.857 299.342,194.191 299.5,184.5C 304.76,185.921 310.093,186.921 315.5,187.5 Z"/></g>
<g><path style="opacity:1" fill="#bd7065" d="M 324.5,214.5 C 325.253,205.854 325.587,197.188 325.5,188.5C 321.958,188.813 318.625,188.479 315.5,187.5C 321.176,187.666 326.843,187.499 332.5,187C 335.58,185.116 336.914,186.283 336.5,190.5C 335.362,197.795 334.696,205.129 334.5,212.5C 331.167,213.167 327.833,213.833 324.5,214.5 Z"/></g>
<g><path style="opacity:1" fill="#696f56" d="M 196.5,195.5 C 193.2,200.724 190.867,206.391 189.5,212.5C 174.779,211.16 160.113,209.493 145.5,207.5C 146.095,201.441 147.762,195.775 150.5,190.5C 151.908,189.939 153.408,189.605 155,189.5C 167.833,191 180.666,192.5 193.5,194C 194.737,194.232 195.737,194.732 196.5,195.5 Z"/></g>
<g><path style="opacity:1" fill="#efcbcc" d="M 413.5,188.5 C 423.452,187.491 432.785,189.324 441.5,194C 432.132,195.274 422.965,197.441 414,200.5C 409.854,198.05 408.354,194.55 409.5,190C 411.058,189.79 412.391,189.29 413.5,188.5 Z"/></g>
<g><path style="opacity:1" fill="#7b876c" d="M 490.5,187.5 C 503.691,212.513 501.858,236.513 485,259.5C 478.388,266.959 470.554,272.626 461.5,276.5C 461.062,276.565 460.728,276.399 460.5,276C 463.697,266.107 467.03,256.94 470.5,248.5C 471.339,253.668 473.839,254.668 478,251.5C 479.631,245.606 481.465,239.772 483.5,234C 483.241,232.739 482.574,231.739 481.5,231C 479.527,230.505 477.527,230.338 475.5,230.5C 479.946,215.822 484.946,201.489 490.5,187.5 Z"/></g>
<g><path style="opacity:1" fill="#585650" d="M 19.5,196.5 C 21.3084,196.491 22.9751,196.991 24.5,198C 33.9989,204.251 43.6656,210.251 53.5,216C 54.3366,217.011 54.67,218.178 54.5,219.5C 53.8629,222.456 53.3629,225.456 53,228.5C 46.3635,224.907 41.0302,226.24 37,232.5C 36.2291,235.19 35.3958,237.856 34.5,240.5C 28.7867,241.546 25.4534,244.88 24.5,250.5C 20.5,248.167 16.5,245.833 12.5,243.5C 10.4821,227.336 12.8154,211.67 19.5,196.5 Z"/></g>
<g><path style="opacity:1" fill="#4e4a49" d="M 364.5,184.5 C 362.667,192.261 362.334,199.928 363.5,207.5C 355.199,214.968 347.366,222.968 340,231.5C 340.841,222.893 341.508,214.226 342,205.5C 348.414,197.25 355.914,190.25 364.5,184.5 Z"/></g>
<g><path style="opacity:1" fill="#757d64" d="M 292.5,202.5 C 293.446,220.223 296.446,237.556 301.5,254.5C 287.507,253.107 273.507,251.773 259.5,250.5C 254.801,234.627 252.135,218.293 251.5,201.5C 251.351,200.448 251.517,199.448 252,198.5C 265.405,200.324 278.905,201.657 292.5,202.5 Z"/></g>
<g><path style="opacity:1" fill="#f3cecb" d="M 399.5,193.5 C 400.497,193.47 401.164,193.97 401.5,195C 402.617,198.36 403.784,201.527 405,204.5C 397.665,208.332 390.665,212.665 384,217.5C 380.177,214.355 378.51,210.355 379,205.5C 385.65,201.095 392.483,197.095 399.5,193.5 Z"/></g>
<g><path style="opacity:1" fill="#f5cfcc" d="M 214.5,191.5 C 228.426,190.716 238.26,196.716 244,209.5C 244.818,212.227 244.652,214.894 243.5,217.5C 237.433,220.256 231.099,221.09 224.5,220C 220.229,211.291 215.562,202.791 210.5,194.5C 211.624,193.141 212.958,192.141 214.5,191.5 Z"/></g>
<g><path style="opacity:1" fill="#6d6f5c" d="M 145.5,207.5 C 160.113,209.493 174.779,211.16 189.5,212.5C 188.979,216.481 188.646,220.481 188.5,224.5C 173.562,222.425 158.562,220.758 143.5,219.5C 143.784,221.415 143.451,223.081 142.5,224.5C 142.333,218.497 143.333,212.83 145.5,207.5 Z"/></g>
<g><path style="opacity:1" fill="#f3c9c8" d="M 198.5,225.5 C 197.728,221.548 197.395,217.548 197.5,213.5C 198.215,207.848 200.382,202.848 204,198.5C 208.616,205.397 212.449,212.731 215.5,220.5C 215.392,221.442 215.059,222.275 214.5,223C 209.336,226.141 204.003,226.974 198.5,225.5 Z"/></g>
<g><path style="opacity:1" fill="#f3c8c8" d="M 368.5,230.5 C 366.76,226.281 365.427,221.947 364.5,217.5C 366.199,214.804 368.533,212.804 371.5,211.5C 373.242,215.318 375.242,218.984 377.5,222.5C 374.697,225.399 371.697,228.066 368.5,230.5 Z"/></g>
<g><path style="opacity:1" fill="#bb6e63" d="M 364.5,217.5 C 365.427,221.947 366.76,226.281 368.5,230.5C 364.856,234.988 361.356,239.655 358,244.5C 350.778,240.779 348.778,235.446 352,228.5C 355.761,224.23 359.928,220.563 364.5,217.5 Z"/></g>
<g><path style="opacity:1" fill="#6f755d" d="M 188.5,224.5 C 188.299,234.959 189.299,245.292 191.5,255.5C 175.874,253.468 160.208,251.801 144.5,250.5C 144.5,251.5 144.5,252.5 144.5,253.5C 143.698,252.048 143.198,250.382 143,248.5C 142.5,240.507 142.334,232.507 142.5,224.5C 143.451,223.081 143.784,221.415 143.5,219.5C 158.562,220.758 173.562,222.425 188.5,224.5 Z"/></g>
<g><path style="opacity:1" fill="#af6860" d="M 197.5,213.5 C 197.395,217.548 197.728,221.548 198.5,225.5C 197.206,223.952 196.539,221.952 196.5,219.5C 196.505,217.304 196.838,215.304 197.5,213.5 Z"/></g>
<g><path style="opacity:1" fill="#f8cbca" d="M 322.5,222.5 C 320.987,233.527 316.32,242.86 308.5,250.5C 305.534,241.039 303.534,231.372 302.5,221.5C 309.123,222.38 315.789,222.713 322.5,222.5 Z"/></g>
<g><path style="opacity:1" fill="#bd6e63" d="M 308.5,250.5 C 316.32,242.86 320.987,233.527 322.5,222.5C 325.833,221.833 329.167,221.167 332.5,220.5C 330.494,244.547 327.994,268.547 325,292.5C 317.834,279.17 312.334,265.17 308.5,250.5 Z"/></g>
<g><path style="opacity:1" fill="#bc6f64" d="M 201.5,233.5 C 202.838,239.86 204.172,246.193 205.5,252.5C 203.208,252.756 201.041,252.423 199,251.5C 197.212,245.635 196.379,239.635 196.5,233.5C 198.167,233.5 199.833,233.5 201.5,233.5 Z"/></g>
<g><path style="opacity:1" fill="#f5cac5" d="M 205.5,252.5 C 204.172,246.193 202.838,239.86 201.5,233.5C 207.499,233.584 213.165,232.25 218.5,229.5C 221.884,235.034 223.384,241.034 223,247.5C 218.039,251.926 212.206,253.593 205.5,252.5 Z"/></g>
<g><path style="opacity:1" fill="#777e66" d="M 456.5,237.5 C 462.406,237.854 468.073,238.854 473.5,240.5C 472.871,243.397 471.871,246.064 470.5,248.5C 467.03,256.94 463.697,266.107 460.5,276C 460.728,276.399 461.062,276.565 461.5,276.5C 450.871,281.592 439.538,284.259 427.5,284.5C 421.83,285.11 416.996,283.444 413,279.5C 416.062,271.572 421.562,269.572 429.5,273.5C 434.707,272.808 439.541,271.141 444,268.5C 447.113,269.657 450.28,270.157 453.5,270C 456.796,265.256 455.462,262.589 449.5,262C 445.833,261.333 442.167,261.333 438.5,262C 436.194,264.139 433.527,265.639 430.5,266.5C 421.675,262.566 414.175,264.233 408,271.5C 406.993,266.889 407.66,262.555 410,258.5C 421.148,242.914 435.815,231.914 454,225.5C 454.333,228.833 454.667,232.167 455,235.5C 455.278,236.416 455.778,237.082 456.5,237.5 Z"/></g>
<g><path style="opacity:1" fill="#505150" d="M 456.5,237.5 C 462.5,237.5 468.5,237.5 474.5,237.5C 474.737,238.791 474.404,239.791 473.5,240.5C 468.073,238.854 462.406,237.854 456.5,237.5 Z"/></g>
<g><path style="opacity:1" fill="#5b5650" d="M 88.5,290.5 C 69.8695,278.847 51.2028,267.181 32.5,255.5C 32.5,253.167 32.5,250.833 32.5,248.5C 34.6963,248.59 36.863,248.923 39,249.5C 40.7106,249.561 42.044,248.894 43,247.5C 43.3333,243.167 43.6667,238.833 44,234.5C 44.5613,233.978 45.228,233.645 46,233.5C 50.7982,237.968 55.2982,242.801 59.5,248C 64.406,252.561 70.0727,255.895 76.5,258C 82.9855,258.746 89.3188,260.079 95.5,262C 104.089,271.903 103.089,280.903 92.5,289C 91.255,289.791 89.9217,290.291 88.5,290.5 Z"/></g>
<g><path style="opacity:1" fill="#bc6d62" d="M 342.5,240.5 C 344.988,241.74 346.821,243.74 348,246.5C 349.925,247.88 351.759,249.38 353.5,251C 349.27,257.96 345.437,265.127 342,272.5C 337.299,273.882 335.132,272.048 335.5,267C 336.114,260.471 336.948,253.971 338,247.5C 339.511,245.138 341.011,242.805 342.5,240.5 Z"/></g>
<g><path style="opacity:1" fill="#2a2a3a" d="M 445.5,241.5 C 451.81,243.642 452.143,246.809 446.5,251C 442.002,252.477 439.835,250.977 440,246.5C 441.812,244.7 443.645,243.033 445.5,241.5 Z"/></g>
<g><path style="opacity:1" fill="#5c5c55" d="M 12.5,243.5 C 16.5,245.833 20.5,248.167 24.5,250.5C 24.2601,253.579 24.5934,256.579 25.5,259.5C 29.791,261.515 32.1243,260.181 32.5,255.5C 51.2028,267.181 69.8695,278.847 88.5,290.5C 59.6763,301.018 36.843,293.351 20,267.5C 15.9741,259.925 13.4741,251.925 12.5,243.5 Z"/></g>
<g><path style="opacity:1" fill="#7c8269" d="M 259.5,250.5 C 273.507,251.773 287.507,253.107 301.5,254.5C 304.636,263.909 307.97,273.243 311.5,282.5C 310.527,282.013 309.527,281.513 308.5,281C 293.798,279.697 279.131,278.197 264.5,276.5C 262.835,267.836 261.168,259.169 259.5,250.5 Z"/></g>
<g><path style="opacity:1" fill="#757c63" d="M 191.5,255.5 C 194.91,268.732 197.91,282.066 200.5,295.5C 199.596,294.791 199.263,293.791 199.5,292.5C 183.167,290.5 166.833,288.5 150.5,286.5C 148.133,275.611 146.133,264.611 144.5,253.5C 144.5,252.5 144.5,251.5 144.5,250.5C 160.208,251.801 175.874,253.468 191.5,255.5 Z"/></g>
<g><path style="opacity:1" fill="#f5c6c4" d="M 244.5,224.5 C 247.365,230.627 249.032,237.293 249.5,244.5C 246.102,244.18 242.768,244.513 239.5,245.5C 238.047,247.644 238.38,249.477 240.5,251C 244.486,251.499 248.486,251.666 252.5,251.5C 253.691,257.288 254.691,263.121 255.5,269C 255.716,272.131 254.383,274.131 251.5,275C 247.5,275.667 243.5,275.667 239.5,275C 237.413,274.208 235.579,273.041 234,271.5C 234.519,256.616 232.019,242.282 226.5,228.5C 230.459,227.673 234.459,227.173 238.5,227C 240.723,226.434 242.723,225.6 244.5,224.5 Z"/></g>
<g><path style="opacity:1" fill="#f6c4c3" d="M 210.5,276.5 C 210.142,271.018 209.142,265.685 207.5,260.5C 213.811,260.464 219.644,258.798 225,255.5C 230.03,269.88 225.197,276.88 210.5,276.5 Z"/></g>
<g><path style="opacity:1" fill="#282839" d="M 65.5,264.5 C 68.237,265.031 70.9036,265.864 73.5,267C 74.4642,273.489 71.7975,275.156 65.5,272C 62.9142,269.506 62.9142,267.006 65.5,264.5 Z"/></g>
<g><path style="opacity:1" fill="#bc7066" d="M 207.5,260.5 C 209.142,265.685 210.142,271.018 210.5,276.5C 208.533,276.739 206.699,276.406 205,275.5C 203.358,270.598 202.191,265.598 201.5,260.5C 203.5,260.5 205.5,260.5 207.5,260.5 Z"/></g>
<g><path style="opacity:1" fill="#7c8869" d="M 264.5,276.5 C 279.131,278.197 293.798,279.697 308.5,281C 309.527,281.513 310.527,282.013 311.5,282.5C 313.06,284.954 314.06,287.62 314.5,290.5C 298.32,289.919 281.987,288.586 265.5,286.5C 265.54,283.119 265.207,279.786 264.5,276.5 Z"/></g>
<g><path style="opacity:1" fill="#f8c6bf" d="M 258.5,298.5 C 243.258,299.125 228.258,298.459 213.5,296.5C 213.167,292.5 212.833,288.5 212.5,284.5C 214.099,284.768 215.432,284.434 216.5,283.5C 221.479,283.092 225.979,281.426 230,278.5C 238.682,284.096 247.682,284.762 257,280.5C 258.239,286.435 258.739,292.435 258.5,298.5 Z"/></g>
<g><path style="opacity:1" fill="#ae645f" d="M 333.5,279.5 C 335.311,279.572 336.644,280.405 337.5,282C 335.861,286.113 334.361,290.279 333,294.5C 332.612,289.489 332.778,284.489 333.5,279.5 Z"/></g>
<g><path style="opacity:1" fill="#b66a64" d="M 216.5,283.5 C 215.432,284.434 214.099,284.768 212.5,284.5C 212.833,288.5 213.167,292.5 213.5,296.5C 214.027,302.892 214.693,309.225 215.5,315.5C 213.742,315.123 212.075,314.456 210.5,313.5C 209.33,303.469 207.996,293.469 206.5,283.5C 209.833,283.5 213.167,283.5 216.5,283.5 Z"/></g>
<g><path style="opacity:1" fill="#7a8269" d="M 150.5,286.5 C 166.833,288.5 183.167,290.5 199.5,292.5C 199.263,293.791 199.596,294.791 200.5,295.5C 203.312,309.2 203.979,322.867 202.5,336.5C 202.5,334.833 202.5,333.167 202.5,331.5C 202.5,328.833 202.5,326.167 202.5,323.5C 186.461,321.718 170.461,319.718 154.5,317.5C 153.824,318.602 153.158,319.602 152.5,320.5C 152.751,309.102 152.084,297.768 150.5,286.5 Z"/></g>
<g><path style="opacity:1" fill="#54514d" d="M 344.5,304.5 C 343.833,311.678 343.167,319.011 342.5,326.5C 339.346,324.61 336.679,322.277 334.5,319.5C 337.01,303.801 341.844,288.801 349,274.5C 346.971,284.35 345.471,294.35 344.5,304.5 Z"/></g>
<g><path style="opacity:1" fill="#f8bfba" d="M 213.5,296.5 C 228.258,298.459 243.258,299.125 258.5,298.5C 258.665,301.518 258.498,304.518 258,307.5C 252.833,310.667 247.667,313.833 242.5,317C 234.833,317.667 227.167,317.667 219.5,317C 218.099,316.59 216.766,316.09 215.5,315.5C 214.693,309.225 214.027,302.892 213.5,296.5 Z"/></g>
<g><path style="opacity:1" fill="#4f4a4a" d="M 116.5,336.5 C 109.191,330.864 101.857,325.198 94.5,319.5C 103.133,313.653 112.466,308.819 122.5,305C 129.647,302.338 136.98,300.505 144.5,299.5C 145.371,307.8 145.705,316.133 145.5,324.5C 135.284,327.106 125.617,331.106 116.5,336.5 Z"/></g>
<g><path style="opacity:1" fill="#818c6f" d="M 304.5,330.5 C 302.785,331.657 300.785,332.324 298.5,332.5C 280.294,331.014 262.294,329.014 244.5,326.5C 254.718,317.055 266.718,310.721 280.5,307.5C 281.772,307.57 282.938,307.903 284,308.5C 284.831,312.014 286.331,315.181 288.5,318C 293.386,319.224 298.386,319.891 303.5,320C 304.894,320.956 305.561,322.289 305.5,324C 304.923,326.137 304.59,328.304 304.5,330.5 Z"/></g>
<g><path style="opacity:1" fill="#7c8969" d="M 202.5,331.5 C 185.819,329.98 169.153,328.313 152.5,326.5C 152.5,324.5 152.5,322.5 152.5,320.5C 153.158,319.602 153.824,318.602 154.5,317.5C 170.461,319.718 186.461,321.718 202.5,323.5C 202.5,326.167 202.5,328.833 202.5,331.5 Z"/></g>
<g><path style="opacity:1" fill="#52504a" d="M 94.5,319.5 C 101.857,325.198 109.191,330.864 116.5,336.5C 107.936,341.397 100.603,347.73 94.5,355.5C 86.4819,349.808 78.4819,344.142 70.5,338.5C 77.3441,330.65 85.3441,324.317 94.5,319.5 Z"/></g>
<g><path style="opacity:1" fill="#4c4747" d="M 344.5,304.5 C 344.333,316.171 344.5,327.838 345,339.5C 345.505,341.518 346.005,343.518 346.5,345.5C 342.969,351.531 339.135,357.531 335,363.5C 332.253,366.754 329.086,369.42 325.5,371.5C 325.867,365.828 326.367,360.161 327,354.5C 333.896,343.853 336.396,332.186 334.5,319.5C 336.679,322.277 339.346,324.61 342.5,326.5C 343.167,319.011 343.833,311.678 344.5,304.5 Z"/></g>
<g><path style="opacity:1" fill="#7c876f" d="M 152.5,326.5 C 169.153,328.313 185.819,329.98 202.5,331.5C 202.5,333.167 202.5,334.833 202.5,336.5C 202.207,343.297 200.54,349.631 197.5,355.5C 196.051,353.836 194.051,353.002 191.5,353C 187.961,352.718 184.461,352.218 181,351.5C 180.098,351.743 179.265,352.077 178.5,352.5C 182.157,344.937 180.824,338.437 174.5,333C 167.155,330.884 159.988,331.384 153,334.5C 152.503,331.854 152.336,329.187 152.5,326.5 Z"/></g>
<g><path style="opacity:1" fill="#808b73" d="M 265.5,286.5 C 281.987,288.586 298.32,289.919 314.5,290.5C 324.531,304.118 328.698,319.452 327,336.5C 319.928,360.318 304.762,367.485 281.5,358C 276.516,353.823 270.849,351.323 264.5,350.5C 262.833,350.667 261.167,350.833 259.5,351C 257.319,352.84 254.819,354.007 252,354.5C 247.717,352.462 243.217,351.128 238.5,350.5C 235.953,350.442 233.62,351.109 231.5,352.5C 227.911,342.43 230.911,339.097 240.5,342.5C 244.396,342.124 245.396,340.124 243.5,336.5C 241.289,335.877 239.289,334.877 237.5,333.5C 239.521,330.812 241.854,328.479 244.5,326.5C 262.294,329.014 280.294,331.014 298.5,332.5C 300.785,332.324 302.785,331.657 304.5,330.5C 304.007,336.547 306.174,337.88 311,334.5C 316.695,317.871 310.861,310.371 293.5,312C 292.281,306.124 288.948,302.124 283.5,300C 277.922,299.798 272.589,300.964 267.5,303.5C 266.745,297.817 266.078,292.15 265.5,286.5 Z"/></g>
<g><path style="opacity:1" fill="#2a2a3a" d="M 275.5,331.5 C 280.207,331.431 281.873,333.597 280.5,338C 275.718,340.618 270.718,341.452 265.5,340.5C 264.047,338.356 264.38,336.523 266.5,335C 269.802,334.339 272.802,333.172 275.5,331.5 Z"/></g>
<g><path style="opacity:1" fill="#565050" d="M 70.5,338.5 C 78.4819,344.142 86.4819,349.808 94.5,355.5C 90.7366,361.053 86.0699,365.719 80.5,369.5C 80.4894,367.983 79.8228,366.816 78.5,366C 71.6752,361.335 65.0085,356.502 58.5,351.5C 61.7923,346.54 65.7923,342.207 70.5,338.5 Z"/></g>
<g><path style="opacity:1" fill="#7f866e" d="M 171.5,352.5 C 169.845,351.07 167.845,350.236 165.5,350C 150.139,348.275 134.806,346.442 119.5,344.5C 126.86,338.655 135.193,334.655 144.5,332.5C 144.335,335.518 144.502,338.518 145,341.5C 145.5,342 146,342.5 146.5,343C 153.295,341.762 160.128,340.262 167,338.5C 168.627,338.625 170.127,339.125 171.5,340C 172.556,344.109 172.556,348.275 171.5,352.5 Z"/></g>
<g><path style="opacity:1" fill="#524f4b" d="M 382.5,346.5 C 373.813,354.888 370.813,364.888 373.5,376.5C 374.22,381.992 375.553,387.325 377.5,392.5C 370.318,385.851 364.818,377.851 361,368.5C 356.088,357.679 353.254,346.345 352.5,334.5C 363.484,336.179 373.484,340.179 382.5,346.5 Z"/></g>
<g><path style="opacity:1" fill="#828e6f" d="M 119.5,344.5 C 134.806,346.442 150.139,348.275 165.5,350C 167.845,350.236 169.845,351.07 171.5,352.5C 173.833,356.5 176.167,356.5 178.5,352.5C 179.265,352.077 180.098,351.743 181,351.5C 184.461,352.218 187.961,352.718 191.5,353C 194.051,353.002 196.051,353.836 197.5,355.5C 196.438,360.053 194.438,364.053 191.5,367.5C 174.48,365.924 157.48,364.09 140.5,362C 139.944,361.617 139.611,361.117 139.5,360.5C 143.148,359.5 144.314,357.166 143,353.5C 138.675,352.812 134.509,353.646 130.5,356C 128.963,357.11 128.297,358.61 128.5,360.5C 122.81,359.979 117.144,359.312 111.5,358.5C 110.358,356.567 108.692,355.067 106.5,354C 110.183,349.837 114.517,346.67 119.5,344.5 Z"/></g>
<g><path style="opacity:1" fill="#282839" d="M 139.5,360.5 C 135.723,362.94 132.056,362.94 128.5,360.5C 128.297,358.61 128.963,357.11 130.5,356C 134.509,353.646 138.675,352.812 143,353.5C 144.314,357.166 143.148,359.5 139.5,360.5 Z"/></g>
<g><path style="opacity:1" fill="#6f745d" d="M 382.5,346.5 C 393.746,353.077 401.746,362.411 406.5,374.5C 395.538,373.568 384.538,373.235 373.5,373.5C 373.5,374.5 373.5,375.5 373.5,376.5C 370.813,364.888 373.813,354.888 382.5,346.5 Z"/></g>
<g><path style="opacity:1" fill="#818d74" d="M 111.5,358.5 C 117.144,359.312 122.81,359.979 128.5,360.5C 132.056,362.94 135.723,362.94 139.5,360.5C 139.611,361.117 139.944,361.617 140.5,362C 157.48,364.09 174.48,365.924 191.5,367.5C 188.048,374.12 183.048,379.286 176.5,383C 171.455,383.551 166.455,383.218 161.5,382C 153.9,378.946 146.4,375.78 139,372.5C 134.44,373.946 130.106,375.946 126,378.5C 122.219,375.859 118.052,374.193 113.5,373.5C 108.373,374.433 103.373,375.766 98.5,377.5C 98.2991,374.492 97.9657,371.492 97.5,368.5C 97.383,365.403 98.383,362.736 100.5,360.5C 103.67,362.195 107.004,362.695 110.5,362C 111.337,360.989 111.67,359.822 111.5,358.5 Z"/></g>
<g><path style="opacity:1" fill="#b4635c" d="M 228.5,332.5 C 224.327,331.642 219.993,330.976 215.5,330.5C 215.707,346.018 214.374,361.351 211.5,376.5C 209.703,383.226 207.703,389.892 205.5,396.5C 205.011,397.995 204.345,399.329 203.5,400.5C 202.432,399.566 201.099,399.232 199.5,399.5C 199.737,400.791 199.404,401.791 198.5,402.5C 197.815,395.939 195.148,394.939 190.5,399.5C 188.167,399.5 185.833,399.5 183.5,399.5C 187.203,392.759 190.37,385.759 193,378.5C 201.577,368.007 206.91,356.007 209,342.5C 210.21,335.888 210.71,329.222 210.5,322.5C 218.032,324.465 225.699,325.632 233.5,326C 231.97,328.352 230.303,330.519 228.5,332.5 Z"/></g>
<g><path style="opacity:1" fill="#7c8771" d="M 237.5,357.5 C 241.979,359.272 246.646,360.605 251.5,361.5C 255.45,361.239 259.117,360.072 262.5,358C 264.167,357.333 265.833,357.333 267.5,358C 273.609,362.388 280.276,365.721 287.5,368C 270.187,370.737 253.187,369.403 236.5,364C 232.409,361.039 232.743,358.872 237.5,357.5 Z"/></g>
<g><path style="opacity:1" fill="#f7b8ae" d="M 228.5,332.5 C 224.144,337.734 222.311,343.734 223,350.5C 224.051,356.043 225.718,361.376 228,366.5C 230.911,369.588 234.411,371.588 238.5,372.5C 239.11,373.391 239.443,374.391 239.5,375.5C 230.348,376.494 221.015,376.827 211.5,376.5C 214.374,361.351 215.707,346.018 215.5,330.5C 219.993,330.976 224.327,331.642 228.5,332.5 Z"/></g>
<g><path style="opacity:1" fill="#b3635d" d="M 318.5,377.5 C 305.132,383.342 291.132,386.675 276.5,387.5C 262.638,387.879 250.305,383.879 239.5,375.5C 239.443,374.391 239.11,373.391 238.5,372.5C 253.589,376.269 268.922,377.436 284.5,376C 296.892,374.982 308.058,370.816 318,363.5C 318.499,368.155 318.666,372.821 318.5,377.5 Z"/></g>
<g><path style="opacity:1" fill="#5a5751" d="M 58.5,351.5 C 65.0085,356.502 71.6752,361.335 78.5,366C 79.8228,366.816 80.4894,367.983 80.5,369.5C 60.4142,388.925 52.5809,412.591 57,440.5C 55.6124,441.554 54.1124,441.72 52.5,441C 36.1492,409.85 38.1492,380.017 58.5,351.5 Z"/></g>
<g><path style="opacity:1" fill="#737a62" d="M 346.5,345.5 C 349.573,364.64 357.239,381.64 369.5,396.5C 357.819,396.666 346.152,396.333 334.5,395.5C 331.731,395.529 329.397,396.195 327.5,397.5C 326.691,395.708 326.191,393.708 326,391.5C 325.5,384.842 325.334,378.175 325.5,371.5C 329.086,369.42 332.253,366.754 335,363.5C 339.135,357.531 342.969,351.531 346.5,345.5 Z"/></g>
<g><path style="opacity:1" fill="#f9b4ae" d="M 239.5,375.5 C 250.305,383.879 262.638,387.879 276.5,387.5C 291.132,386.675 305.132,383.342 318.5,377.5C 318.666,383.509 318.499,389.509 318,395.5C 316.729,396.883 315.229,397.883 313.5,398.5C 277.598,397.827 241.598,397.16 205.5,396.5C 207.703,389.892 209.703,383.226 211.5,376.5C 221.015,376.827 230.348,376.494 239.5,375.5 Z"/></g>
<g><path style="opacity:1" fill="#747c63" d="M 406.5,374.5 C 410.005,381.66 412.005,389.326 412.5,397.5C 402.652,397.173 392.986,397.506 383.5,398.5C 380.5,397.5 378.5,395.5 377.5,392.5C 375.553,387.325 374.22,381.992 373.5,376.5C 373.5,375.5 373.5,374.5 373.5,373.5C 384.538,373.235 395.538,373.568 406.5,374.5 Z"/></g>
<g><path style="opacity:1" fill="#7f8a72" d="M 111.5,380.5 C 116.237,382.392 121.07,384.059 126,385.5C 127.5,385.333 129,385.167 130.5,385C 133.156,383.09 135.989,381.59 139,380.5C 146.557,384.244 154.39,387.41 162.5,390C 144.147,395.944 125.814,395.944 107.5,390C 105.413,389.208 103.579,388.041 102,386.5C 101.312,385.668 101.479,385.002 102.5,384.5C 105.708,383.391 108.708,382.058 111.5,380.5 Z"/></g>
<g><path style="opacity:1" fill="#f5b1a5" d="M 205.5,396.5 C 241.598,397.16 277.598,397.827 313.5,398.5C 300.529,405.802 286.529,409.968 271.5,411C 251.636,412.6 232.303,410.1 213.5,403.5C 210.508,403.98 209.341,405.647 210,408.5C 214.419,411.458 219.252,413.458 224.5,414.5C 220.681,415.166 216.681,415.499 212.5,415.5C 208.107,415.491 204.107,414.824 200.5,413.5C 201.029,409.051 202.029,404.718 203.5,400.5C 204.345,399.329 205.011,397.995 205.5,396.5 Z"/></g>
<g><path style="opacity:1" fill="#2f293a" d="M 198.5,402.5 C 196.989,404.441 194.989,404.941 192.5,404C 190.963,402.89 190.297,401.39 190.5,399.5C 195.148,394.939 197.815,395.939 198.5,402.5 Z"/></g>
<g><path style="opacity:1" fill="#b35c5c" d="M 183.5,399.5 C 185.833,399.5 188.167,399.5 190.5,399.5C 190.297,401.39 190.963,402.89 192.5,404C 194.989,404.941 196.989,404.441 198.5,402.5C 199.404,401.791 199.737,400.791 199.5,399.5C 201.099,399.232 202.432,399.566 203.5,400.5C 202.029,404.718 201.029,409.051 200.5,413.5C 199.076,415.515 198.41,417.848 198.5,420.5C 190.167,420.5 181.833,420.5 173.5,420.5C 175.522,412.793 178.855,405.793 183.5,399.5 Z"/></g>
<g><path style="opacity:1" fill="#7b8269" d="M 369.5,396.5 C 372.631,399.129 375.631,401.962 378.5,405C 380.067,406.076 381.734,406.909 383.5,407.5C 385.609,407.225 386.942,406.058 387.5,404C 386.35,402.019 385.016,400.186 383.5,398.5C 392.986,397.506 402.652,397.173 412.5,397.5C 412.824,404.354 412.491,411.021 411.5,417.5C 384.785,417.432 358.118,416.765 331.5,415.5C 329.04,409.882 327.707,403.882 327.5,397.5C 329.397,396.195 331.731,395.529 334.5,395.5C 346.152,396.333 357.819,396.666 369.5,396.5 Z"/></g>
<g><path style="opacity:1" fill="#f6ada6" d="M 327.5,426.5 C 284.239,427.494 240.906,427.828 197.5,427.5C 197.298,425.05 197.631,422.717 198.5,420.5C 198.41,417.848 199.076,415.515 200.5,413.5C 204.107,414.824 208.107,415.491 212.5,415.5C 216.681,415.499 220.681,415.166 224.5,414.5C 252.925,420.977 280.925,419.477 308.5,410C 312.577,408.213 316.41,406.046 320,403.5C 322.042,411.34 324.542,419.007 327.5,426.5 Z"/></g>
<g><path style="opacity:1" fill="#7c8869" d="M 331.5,415.5 C 358.118,416.765 384.785,417.432 411.5,417.5C 411.795,419.735 411.461,421.735 410.5,423.5C 384.832,422.883 359.165,422.217 333.5,421.5C 332.27,419.703 331.604,417.703 331.5,415.5 Z"/></g>
<g><path style="opacity:1" fill="#b35c57" d="M 173.5,420.5 C 181.833,420.5 190.167,420.5 198.5,420.5C 197.631,422.717 197.298,425.05 197.5,427.5C 195.68,438.248 197.014,448.581 201.5,458.5C 190.833,458.5 180.167,458.5 169.5,458.5C 167.252,445.308 168.585,432.641 173.5,420.5 Z"/></g>
<g><path style="opacity:1" fill="#7e886f" d="M 333.5,421.5 C 359.165,422.217 384.832,422.883 410.5,423.5C 409.405,428.785 407.738,433.785 405.5,438.5C 389.001,437.647 372.335,436.981 355.5,436.5C 351.651,436.501 347.984,436.835 344.5,437.5C 339.365,433.248 335.698,427.915 333.5,421.5 Z"/></g>
<g><path style="opacity:1" fill="#f9aea1" d="M 327.5,426.5 C 329.767,431.424 332.433,436.091 335.5,440.5C 332.032,448.303 327.032,454.97 320.5,460.5C 281.5,460.5 242.5,460.5 203.5,460.5C 202.833,459.833 202.167,459.167 201.5,458.5C 197.014,448.581 195.68,438.248 197.5,427.5C 240.906,427.828 284.239,427.494 327.5,426.5 Z"/></g>
<g><path style="opacity:1" fill="#818d70" d="M 405.5,438.5 C 403.815,444.204 401.315,449.537 398,454.5C 381.109,458.365 365.609,455.198 351.5,445C 348.883,442.558 346.55,440.058 344.5,437.5C 347.984,436.835 351.651,436.501 355.5,436.5C 372.335,436.981 389.001,437.647 405.5,438.5 Z"/></g>
<g><path style="opacity:1" fill="#ac5656" d="M 335.5,440.5 C 342.325,444.785 343.492,450.451 339,457.5C 330.169,475.982 315.669,487.482 295.5,492C 266.167,492.667 236.833,492.667 207.5,492C 188.074,488.402 175.407,477.235 169.5,458.5C 180.167,458.5 190.833,458.5 201.5,458.5C 202.167,459.167 202.833,459.833 203.5,460.5C 209.293,468.416 216.959,473.916 226.5,477C 242.203,481.326 258.203,482.66 274.5,481C 292.019,478.734 307.352,471.901 320.5,460.5C 327.032,454.97 332.032,448.303 335.5,440.5 Z"/></g>
<g><path style="opacity:1" fill="#ad5656" d="M 343.5,491.5 C 334.983,491.826 326.65,491.493 318.5,490.5C 333.99,482.169 344.157,469.503 349,452.5C 361.954,460.545 376.121,464.379 391.5,464C 379.011,479.328 363.011,488.494 343.5,491.5 Z"/></g>
<g><path style="opacity:1" fill="#f9a79b" d="M 203.5,460.5 C 242.5,460.5 281.5,460.5 320.5,460.5C 307.352,471.901 292.019,478.734 274.5,481C 258.203,482.66 242.203,481.326 226.5,477C 216.959,473.916 209.293,468.416 203.5,460.5 Z"/></g>
<g><path style="opacity:1" fill="#663c43" d="M 318.5,490.5 C 326.65,491.493 334.983,491.826 343.5,491.5C 334.676,492.657 325.676,492.824 316.5,492C 317.044,491.283 317.711,490.783 318.5,490.5 Z"/></g>
</svg>
