<?xml version="1.0" encoding="UTF-8"?>
<!DOCTYPE svg PUBLIC "-//W3C//DTD SVG 1.1//EN" "http://www.w3.org/Graphics/SVG/1.1/DTD/svg11.dtd">
<svg xmlns="http://www.w3.org/2000/svg" version="1.1" width="512px" height="512px" style="shape-rendering:geometricPrecision; text-rendering:geometricPrecision; image-rendering:optimizeQuality; fill-rule:evenodd; clip-rule:evenodd" xmlns:xlink="http://www.w3.org/1999/xlink">
<g><path style="opacity:1" fill="#272639" d="M 359.5,18.5 C 375.642,18.1345 382.142,25.8011 379,41.5C 377.262,45.2413 374.762,48.408 371.5,51C 358.304,54.3385 347.804,61.5051 340,72.5C 338.642,74.8595 337.642,77.1928 337,79.5C 344.467,72.7133 352.967,67.5467 362.5,64C 377.021,60.3826 391.021,55.3826 404.5,49C 418.407,45.6046 426.74,50.7713 429.5,64.5C 427.83,74.3371 422.163,80.5037 412.5,83C 397.64,83.9646 383.307,87.298 369.5,93C 375.5,93.3333 381.5,93.6667 387.5,94C 395.44,96.1519 403.44,97.9852 411.5,99.5C 413.167,99.3333 414.833,99.1667 416.5,99C 426.24,91.6608 436.573,90.6608 447.5,96C 455.9,109.479 452.9,119.813 438.5,127C 424.847,129.86 411.181,130.194 397.5,128C 404.92,135.504 410.587,144.17 414.5,154C 416.355,154.422 418.189,154.922 420,155.5C 425.998,154.167 431.998,152.834 438,151.5C 453.662,152.465 460.329,160.465 458,175.5C 455.008,180.813 450.508,184.313 444.5,186C 438.145,186.356 431.812,186.356 425.5,186C 434.051,188.236 440.551,193.069 445,200.5C 448.279,211.107 444.779,218.274 434.5,222C 430.179,222.499 425.846,222.666 421.5,222.5C 421.088,242.527 411.754,248.694 393.5,241C 387.807,234.27 384.641,226.437 384,217.5C 381.945,212.112 378.445,207.946 373.5,205C 365.833,201.5 358.167,198 350.5,194.5C 349.222,205.719 344.722,215.386 337,223.5C 336.333,228.5 336.333,233.5 337,238.5C 336.987,244.885 338.82,245.719 342.5,241C 347.672,238.772 352.505,239.272 357,242.5C 363.605,239.486 369.605,240.486 375,245.5C 386.583,262.997 397.916,280.664 409,298.5C 414.613,307.112 420.613,315.446 427,323.5C 432.119,334.499 431.453,345.166 425,355.5C 417.411,366.923 409.245,377.923 400.5,388.5C 406.836,394.333 411.336,401.333 414,409.5C 415.958,419.95 413.625,429.284 407,437.5C 385.009,460.254 358.509,475.421 327.5,483C 297.902,490.847 268.068,493.347 238,490.5C 236.937,463.679 243.27,438.679 257,415.5C 262.585,406.665 267.919,397.665 273,388.5C 276.424,380.138 278.59,371.471 279.5,362.5C 270.751,362.53 263.251,359.53 257,353.5C 252.116,360.193 245.949,365.359 238.5,369C 232.443,370.162 226.777,369.162 221.5,366C 195.71,346.545 173.71,323.545 155.5,297C 152.963,295.162 150.129,294.329 147,294.5C 135.53,297.924 125.864,295.257 118,286.5C 113.333,279.833 108.667,273.167 104,266.5C 102.094,258.246 105.261,253.246 113.5,251.5C 115.577,251.692 117.577,252.192 119.5,253C 125.167,258 130.833,263 136.5,268C 145.55,268.153 154.55,268.82 163.5,270C 166.433,271.271 169.099,272.938 171.5,275C 184.15,289.33 198.817,300.996 215.5,310C 219.967,313.465 224.133,317.298 228,321.5C 239.242,303.446 247.576,284.113 253,263.5C 258.37,248.809 268.87,242.309 284.5,244C 291.33,238.981 297.663,239.481 303.5,245.5C 304.469,239.502 304.303,233.502 303,227.5C 289.616,216.687 283.616,202.687 285,185.5C 256.759,189.406 243.593,205.573 245.5,234C 240.414,247.378 231.414,251.045 218.5,245C 212.717,238.979 210.55,231.813 212,223.5C 215.574,212.204 219.908,201.204 225,190.5C 231.936,178.897 241.436,170.064 253.5,164C 246.755,163.269 240.422,164.602 234.5,168C 231.557,173.211 227.89,177.878 223.5,182C 214.801,188.155 206.301,187.989 198,181.5C 193.172,172.954 193.505,164.621 199,156.5C 211.466,144.517 226.299,137.184 243.5,134.5C 239.862,128.915 237.195,122.915 235.5,116.5C 230.69,117.572 226.357,119.738 222.5,123C 213.046,126.378 204.879,124.545 198,117.5C 193.663,104.999 197.496,95.8324 209.5,90C 215.129,88.8553 220.795,87.8553 226.5,87C 227.447,83.2088 226.114,80.2088 222.5,78C 216.847,77.485 211.181,76.8183 205.5,76C 192.848,71.5315 188.682,63.0315 193,50.5C 195.928,46.619 199.761,44.119 204.5,43C 219.411,40.3099 232.577,43.8099 244,53.5C 252.305,64.7894 257.305,77.4561 259,91.5C 263.263,93.9275 267.097,96.9275 270.5,100.5C 270.833,100.333 271.167,100.167 271.5,100C 269.547,89.6254 269.047,79.1254 270,68.5C 272.101,56.4787 274.101,44.4787 276,32.5C 284.038,20.2806 294.038,18.2806 306,26.5C 309.731,33.2026 310.397,40.2026 308,47.5C 298.851,62.3953 296.184,78.3953 300,95.5C 303.955,72.0823 314.788,52.5823 332.5,37C 338.792,32.3767 344.792,27.3767 350.5,22C 353.571,20.7043 356.571,19.5377 359.5,18.5 Z M 359.5,157.5 C 369.138,163.99 378.805,170.49 388.5,177C 389.517,178.049 389.684,179.216 389,180.5C 379.143,175.099 368.976,170.265 358.5,166C 358.043,165.586 357.709,165.086 357.5,164.5C 358.577,162.271 359.244,159.937 359.5,157.5 Z M 386.5,327.5 C 390.116,331.454 393.783,335.454 397.5,339.5C 387.407,354.099 377.907,369.099 369,384.5C 365.487,380.322 361.987,376.155 358.5,372C 361.154,364.013 366.487,358.68 374.5,356C 383.651,348.726 387.651,339.226 386.5,327.5 Z"/></g>
<g><path style="opacity:1" fill="#88a790" d="M 337.5,61.5 C 333.466,61.3279 329.466,60.8279 325.5,60C 324.944,59.6174 324.611,59.1174 324.5,58.5C 327.464,54.09 330.798,49.9234 334.5,46C 341.389,41.3798 347.723,36.0465 353.5,30C 359.582,25.1654 365.416,25.332 371,30.5C 372.581,36.0616 371.081,40.5616 366.5,44C 355.209,47.305 345.542,53.1384 337.5,61.5 Z"/></g>
<g><path style="opacity:1" fill="#28293a" d="M 357.5,32.5 C 363.488,32.664 364.821,35.164 361.5,40C 355.413,40.2054 354.079,37.7054 357.5,32.5 Z"/></g>
<g><path style="opacity:1" fill="#8eae96" d="M 231.5,55.5 C 228.167,59.8333 224.833,64.1667 221.5,68.5C 216.489,68.6659 211.489,68.4993 206.5,68C 197.628,62.6235 197.294,56.9568 205.5,51C 210.833,50.3333 216.167,50.3333 221.5,51C 225.264,51.8523 228.597,53.3523 231.5,55.5 Z"/></g>
<g><path style="opacity:1" fill="#86a58e" d="M 290.5,74.5 C 286.827,76.3177 282.827,76.9843 278.5,76.5C 278.5,73.8333 278.5,71.1667 278.5,68.5C 279.993,58.9022 281.159,49.2356 282,39.5C 284.503,31.8371 289.67,28.6704 297.5,30C 301.13,33.0498 302.297,36.8831 301,41.5C 298.69,46.7929 296.356,52.1262 294,57.5C 291.89,62.991 290.723,68.6577 290.5,74.5 Z"/></g>
<g><path style="opacity:1" fill="#2b2c3c" d="M 289.5,36.5 C 294.984,36.4809 296.65,38.9809 294.5,44C 287.683,44.8606 286.016,42.3606 289.5,36.5 Z"/></g>
<g><path style="opacity:1" fill="#2c2d3d" d="M 210.5,54.5 C 216.488,54.664 217.821,57.164 214.5,62C 210.798,63.3927 208.798,62.226 208.5,58.5C 208.803,56.8857 209.47,55.5523 210.5,54.5 Z"/></g>
<g><path style="opacity:1" fill="#8dad95" d="M 399.5,75.5 C 397.049,71.8765 394.383,68.3765 391.5,65C 392.056,64.6174 392.389,64.1174 392.5,63.5C 398.057,60.0559 404.057,57.7225 410.5,56.5C 423.033,58.6556 424.699,64.1556 415.5,73C 410.405,75.1771 405.072,76.0104 399.5,75.5 Z"/></g>
<g><path style="opacity:1" fill="#2a2a3b" d="M 406.5,61.5 C 412.488,61.664 413.821,64.164 410.5,69C 404.202,69.4954 402.868,66.9954 406.5,61.5 Z"/></g>
<g><path style="opacity:1" fill="#7d9c85" d="M 392.5,63.5 C 392.389,64.1174 392.056,64.6174 391.5,65C 394.383,68.3765 397.049,71.8765 399.5,75.5C 385.995,78.4241 372.995,82.7575 360.5,88.5C 355.185,88.009 350.852,85.6757 347.5,81.5C 361.296,72.7834 376.296,66.7834 392.5,63.5 Z"/></g>
<g><path style="opacity:1" fill="#7c9a84" d="M 231.5,55.5 C 236.761,57.5921 240.594,61.2588 243,66.5C 246.868,72.9723 248.701,79.9723 248.5,87.5C 244.158,87.2605 239.824,86.9272 235.5,86.5C 234.97,77.3016 230.304,71.3016 221.5,68.5C 224.833,64.1667 228.167,59.8333 231.5,55.5 Z"/></g>
<g><path style="opacity:1" fill="#708e77" d="M 324.5,58.5 C 324.611,59.1174 324.944,59.6174 325.5,60C 329.466,60.8279 333.466,61.3279 337.5,61.5C 331.491,69.8537 326.824,78.8537 323.5,88.5C 318.245,87.5761 314.912,84.5761 313.5,79.5C 315.881,71.7347 319.548,64.7347 324.5,58.5 Z"/></g>
<g><path style="opacity:1" fill="#57706f" d="M 313.5,79.5 C 314.912,84.5761 318.245,87.5761 323.5,88.5C 322.113,94.7689 321.113,101.102 320.5,107.5C 316.155,105.994 312.155,103.994 308.5,101.5C 308.68,93.7139 310.347,86.3806 313.5,79.5 Z"/></g>
<g><path style="opacity:1" fill="#566e6e" d="M 347.5,81.5 C 350.852,85.6757 355.185,88.009 360.5,88.5C 348.882,97.284 338.382,107.284 329,118.5C 328.171,111.766 328.504,105.099 330,98.5C 335.04,91.9589 340.874,86.2922 347.5,81.5 Z"/></g>
<g><path style="opacity:1" fill="#8faf97" d="M 261.5,103.5 C 260.277,106.274 258.777,108.941 257,111.5C 256.184,112.823 255.017,113.489 253.5,113.5C 247.18,107.961 239.847,106.128 231.5,108C 226.627,110.936 221.627,113.603 216.5,116C 204.931,116.756 201.764,111.923 207,101.5C 209.08,99.8767 211.246,98.3767 213.5,97C 221.352,96.2437 229.186,95.4103 237,94.5C 246.296,94.5702 254.462,97.5702 261.5,103.5 Z"/></g>
<g><path style="opacity:1" fill="#76947e" d="M 278.5,68.5 C 278.5,71.1667 278.5,73.8333 278.5,76.5C 282.827,76.9843 286.827,76.3177 290.5,74.5C 290.132,84.3271 291.132,93.9938 293.5,103.5C 289.324,105.883 284.991,105.883 280.5,103.5C 277.563,91.8568 276.896,80.1901 278.5,68.5 Z"/></g>
<g><path style="opacity:1" fill="#76937d" d="M 378.5,101.5 C 380.234,105.702 381.567,110.035 382.5,114.5C 365.732,113.303 352.732,119.637 343.5,133.5C 338.988,131.653 336.321,128.32 335.5,123.5C 346.06,109.052 360.393,101.719 378.5,101.5 Z"/></g>
<g><path style="opacity:1" fill="#272839" d="M 214.5,102.5 C 220.488,102.664 221.821,105.164 218.5,110C 212.403,110.147 211.07,107.647 214.5,102.5 Z"/></g>
<g><path style="opacity:1" fill="#8dae95" d="M 414.5,121.5 C 413.372,117.45 412.039,113.45 410.5,109.5C 412.291,108.83 413.958,108.163 415.5,107.5C 420.11,107.029 424.11,105.196 427.5,102C 433.6,99.448 439.1,100.281 444,104.5C 444.997,112.533 441.497,117.699 433.5,120C 427.165,120.556 420.832,121.056 414.5,121.5 Z"/></g>
<g><path style="opacity:1" fill="#83a18b" d="M 378.5,101.5 C 386.834,101.776 394.834,103.609 402.5,107C 406.821,107.499 411.154,107.666 415.5,107.5C 413.958,108.163 412.291,108.83 410.5,109.5C 412.039,113.45 413.372,117.45 414.5,121.5C 410.103,121.575 405.77,121.075 401.5,120C 395.284,117.697 388.95,115.863 382.5,114.5C 381.567,110.035 380.234,105.702 378.5,101.5 Z"/></g>
<g><path style="opacity:1" fill="#2b2c3c" d="M 430.5,105.5 C 436.235,104.821 437.902,107.155 435.5,112.5C 428.789,113.788 427.122,111.454 430.5,105.5 Z"/></g>
<g><path style="opacity:1" fill="#7b9a83" d="M 261.5,103.5 C 270.173,112.173 278.506,121.173 286.5,130.5C 283.487,134.335 279.487,136.001 274.5,135.5C 267.472,128.14 260.472,120.807 253.5,113.5C 255.017,113.489 256.184,112.823 257,111.5C 258.777,108.941 260.277,106.274 261.5,103.5 Z"/></g>
<g><path style="opacity:1" fill="#546b6c" d="M 280.5,103.5 C 284.991,105.883 289.324,105.883 293.5,103.5C 295.169,108.311 297.335,112.978 300,117.5C 300.828,121.871 300.661,126.205 299.5,130.5C 288.805,124.487 282.472,115.487 280.5,103.5 Z"/></g>
<g><path style="opacity:1" fill="#506469" d="M 308.5,101.5 C 312.155,103.994 316.155,105.994 320.5,107.5C 320.5,113.833 320.5,120.167 320.5,126.5C 316.416,126.043 312.583,126.71 309,128.5C 307.919,123.582 307.419,118.582 307.5,113.5C 307.501,109.319 307.834,105.319 308.5,101.5 Z"/></g>
<g><path style="opacity:1" fill="#516769" d="M 389.5,132.5 C 383.927,132.047 379.261,133.713 375.5,137.5C 369.638,133.932 363.305,131.432 356.5,130C 361.34,125.58 367.007,122.747 373.5,121.5C 379.595,124.202 384.929,127.869 389.5,132.5 Z"/></g>
<g><path style="opacity:1" fill="#4a5e65" d="M 243.5,117.5 C 243.56,116.957 243.893,116.624 244.5,116.5C 253.02,122.853 260.354,130.353 266.5,139C 262.517,138.338 258.517,137.338 254.5,136C 250.429,130.018 246.763,123.851 243.5,117.5 Z"/></g>
<g><path style="opacity:1" fill="#556e6e" d="M 286.5,130.5 C 290.137,133.325 293.803,136.158 297.5,139C 288.415,145.957 280.748,144.791 274.5,135.5C 279.487,136.001 283.487,134.335 286.5,130.5 Z"/></g>
<g><path style="opacity:1" fill="#53686b" d="M 335.5,123.5 C 336.321,128.32 338.988,131.653 343.5,133.5C 341.844,136.139 340.178,138.805 338.5,141.5C 335.516,139.016 332.682,136.35 330,133.5C 330.495,129.516 332.328,126.183 335.5,123.5 Z"/></g>
<g><path style="opacity:1" fill="#252437" d="M 119.5,133.5 C 126.751,133.731 128.418,137.064 124.5,143.5C 128.829,150.983 130.329,158.983 129,167.5C 127.605,171.306 125.105,172.306 121.5,170.5C 122.394,163.065 120.894,156.065 117,149.5C 115.751,143.718 116.585,138.385 119.5,133.5 Z"/></g>
<g><path style="opacity:1" fill="#f4d26c" d="M 320.5,135.5 C 316.442,143.948 312.109,152.281 307.5,160.5C 304.708,160.548 302.875,159.215 302,156.5C 300.973,146.176 305.14,138.676 314.5,134C 316.881,133.262 318.881,133.762 320.5,135.5 Z"/></g>
<g><path style="opacity:1" fill="#4a5b63" d="M 349.5,137.5 C 366.127,138.223 378.293,145.89 386,160.5C 386.991,162.447 387.325,164.447 387,166.5C 374.883,156.03 361.383,148.03 346.5,142.5C 347.763,140.971 348.763,139.305 349.5,137.5 Z"/></g>
<g><path style="opacity:1" fill="#f8c663" d="M 320.5,135.5 C 329.09,140.348 332.59,147.681 331,157.5C 330.167,158.333 329.333,159.167 328.5,160C 321.508,160.5 314.508,160.666 307.5,160.5C 312.109,152.281 316.442,143.948 320.5,135.5 Z"/></g>
<g><path style="opacity:1" fill="#4d6067" d="M 248.5,143.5 C 257.51,143.668 265.843,146.168 273.5,151C 274.435,153.381 274.768,155.881 274.5,158.5C 271.933,158.855 269.433,159.521 267,160.5C 262.492,157.826 257.659,156.16 252.5,155.5C 251.368,151.437 250.035,147.437 248.5,143.5 Z"/></g>
<g><path style="opacity:1" fill="#546c6d" d="M 248.5,143.5 C 250.035,147.437 251.368,151.437 252.5,155.5C 242.524,155.016 233.857,158.016 226.5,164.5C 225.474,159.728 224.141,155.061 222.5,150.5C 230.108,144.762 238.775,142.429 248.5,143.5 Z"/></g>
<g><path style="opacity:1" fill="#7f9e87" d="M 389.5,132.5 C 403.025,144.696 410.025,160.029 410.5,178.5C 406.518,181.152 402.851,184.152 399.5,187.5C 397.754,178.608 395.921,169.608 394,160.5C 390.192,150.856 384.025,143.189 375.5,137.5C 379.261,133.713 383.927,132.047 389.5,132.5 Z"/></g>
<g><path style="opacity:1" fill="#252537" d="M 180.5,149.5 C 186.674,148.173 188.841,150.506 187,156.5C 185.333,157.5 183.667,158.5 182,159.5C 179.653,166.366 176.153,172.532 171.5,178C 168.783,180.076 165.783,180.743 162.5,180C 161.409,177.936 161.242,175.769 162,173.5C 164.185,172.072 166.185,170.405 168,168.5C 170.205,160.726 174.371,154.392 180.5,149.5 Z"/></g>
<g><path style="opacity:1" fill="#f6dd74" d="M 283.5,150.5 C 286.833,150.5 290.167,150.5 293.5,150.5C 293.257,153.883 293.924,157.049 295.5,160C 291.179,160.499 286.846,160.666 282.5,160.5C 282.253,157.061 282.586,153.728 283.5,150.5 Z"/></g>
<g><path style="opacity:1" fill="#e36c4f" d="M 339.5,150.5 C 343.182,150.335 346.848,150.501 350.5,151C 351.833,154 351.833,157 350.5,160C 346.514,160.499 342.514,160.666 338.5,160.5C 339.051,157.193 339.384,153.86 339.5,150.5 Z"/></g>
<g><path style="opacity:1" fill="#5a7570" d="M 222.5,150.5 C 224.141,155.061 225.474,159.728 226.5,164.5C 222.987,173.206 216.654,177.706 207.5,178C 202.931,175.459 201.431,171.625 203,166.5C 203.667,165.167 204.333,163.833 205,162.5C 210.457,157.862 216.29,153.862 222.5,150.5 Z"/></g>
<g><path style="opacity:1" fill="#252437" d="M 53.5,158.5 C 55.604,158.201 57.604,158.534 59.5,159.5C 60.6477,161.149 61.981,162.649 63.5,164C 68.4455,165.806 73.1122,168.139 77.5,171C 81.1171,174.059 82.6171,177.892 82,182.5C 80.4006,184.036 78.5672,184.536 76.5,184C 74.5101,181.707 72.5101,179.374 70.5,177C 66.082,175.194 61.7486,173.194 57.5,171C 55.2911,169.127 53.4578,166.96 52,164.5C 51.2516,162.16 51.7516,160.16 53.5,158.5 Z"/></g>
<g><path style="opacity:1" fill="#28293a" d="M 213.5,161.5 C 218.262,162.092 219.596,164.592 217.5,169C 212.502,170.33 210.336,168.496 211,163.5C 211.995,162.934 212.828,162.267 213.5,161.5 Z"/></g>
<g><path style="opacity:1" fill="#5b7671" d="M 432.5,160.5 C 437.267,160.191 441.934,160.691 446.5,162C 450.277,164.955 451.443,168.788 450,173.5C 448.269,175.617 446.102,177.117 443.5,178C 434.848,177.918 426.181,177.752 417.5,177.5C 417.46,172.807 417.127,168.141 416.5,163.5C 422.228,163.947 427.562,162.947 432.5,160.5 Z"/></g>
<g><path style="opacity:1" fill="#28293a" d="M 436.5,164.5 C 441.984,164.481 443.65,166.981 441.5,172C 434.683,172.861 433.016,170.361 436.5,164.5 Z"/></g>
<g><path style="opacity:1" fill="#4d6167" d="M 268.5,181.5 C 265.129,178.129 261.463,175.129 257.5,172.5C 263.223,168.811 269.556,166.478 276.5,165.5C 279.199,167.347 282.199,168.347 285.5,168.5C 285.5,171.5 285.5,174.5 285.5,177.5C 279.568,177.819 273.902,179.152 268.5,181.5 Z"/></g>
<g><path style="opacity:1" fill="#d67682" d="M 341.5,192.5 C 341.5,187.833 341.5,183.167 341.5,178.5C 325.282,178.088 309.282,176.088 293.5,172.5C 293.5,171.167 293.5,169.833 293.5,168.5C 309.833,168.5 326.167,168.5 342.5,168.5C 342.826,176.684 342.492,184.684 341.5,192.5 Z"/></g>
<g><path style="opacity:1" fill="#566e6e" d="M 257.5,172.5 C 261.463,175.129 265.129,178.129 268.5,181.5C 256.539,185.3 247.539,192.633 241.5,203.5C 238.167,201.167 234.833,198.833 231.5,196.5C 237.302,185.364 245.968,177.364 257.5,172.5 Z"/></g>
<g><path style="opacity:1" fill="#51676a" d="M 396.5,202.5 C 393.833,204.5 391.5,206.833 389.5,209.5C 386.973,205.321 383.64,201.821 379.5,199C 369.833,194.5 360.167,190 350.5,185.5C 349.167,180.5 349.167,175.5 350.5,170.5C 363.913,177.244 377.246,184.077 390.5,191C 393.539,194.279 395.539,198.113 396.5,202.5 Z"/></g>
<g><path style="opacity:1" fill="#272639" d="M 120.5,184.5 C 125.894,184.913 131.227,185.747 136.5,187C 145.897,190.532 154.897,194.865 163.5,200C 170.325,202.404 177.325,204.07 184.5,205C 185.591,207.064 185.758,209.231 185,211.5C 177.393,212.743 169.893,214.576 162.5,217C 154.779,221.527 146.779,225.527 138.5,229C 127.833,232.333 117.167,232.333 106.5,229C 98.2212,225.527 90.2212,221.527 82.5,217C 75.3659,214.477 68.0326,212.811 60.5,212C 59.1667,209.667 59.1667,207.333 60.5,205C 67.6747,204.07 74.6747,202.404 81.5,200C 88.3423,196.078 95.3423,192.412 102.5,189C 108.479,186.839 114.479,185.339 120.5,184.5 Z"/></g>
<g><path style="opacity:1" fill="#f2adab" d="M 293.5,172.5 C 309.282,176.088 325.282,178.088 341.5,178.5C 341.5,183.167 341.5,187.833 341.5,192.5C 341.802,195.059 341.468,197.393 340.5,199.5C 340.5,198.167 340.5,196.833 340.5,195.5C 324.797,194.849 309.464,195.516 294.5,197.5C 293.507,189.35 293.174,181.017 293.5,172.5 Z"/></g>
<g><path style="opacity:1" fill="#312c3e" d="M 323.5,183.5 C 326.518,183.335 329.518,183.502 332.5,184C 335.172,186.679 334.838,189.012 331.5,191C 328.5,191.667 325.5,191.667 322.5,191C 321.083,188.257 321.416,185.757 323.5,183.5 Z"/></g>
<g><path style="opacity:1" fill="#2b283b" d="M 300.5,183.5 C 304.188,183.781 307.855,184.281 311.5,185C 313.62,186.523 313.953,188.356 312.5,190.5C 308.878,191.659 305.211,191.825 301.5,191C 299.285,188.758 298.952,186.258 300.5,183.5 Z"/></g>
<g><path style="opacity:1" fill="#f5f5f6" d="M 113.5,193.5 C 119.509,193.334 125.509,193.501 131.5,194C 138.135,198.916 140.302,205.416 138,213.5C 135.351,221.252 129.851,224.585 121.5,223.5C 113.964,223.989 109.131,220.655 107,213.5C 106.333,209.5 106.333,205.5 107,201.5C 109.001,198.669 111.167,196.003 113.5,193.5 Z"/></g>
<g><path style="opacity:1" fill="#90af97" d="M 410.5,178.5 C 412.335,183.64 415.335,188.14 419.5,192C 425.24,194.797 430.74,197.964 436,201.5C 439.483,205.552 439.317,209.385 435.5,213C 423.409,216.859 413.576,213.692 406,203.5C 402.991,198.486 400.824,193.152 399.5,187.5C 402.851,184.152 406.518,181.152 410.5,178.5 Z"/></g>
<g><path style="opacity:1" fill="#2a2b3c" d="M 421.5,199.5 C 427.704,199.314 429.037,201.814 425.5,207C 419.403,207.147 418.07,204.647 421.5,199.5 Z"/></g>
<g><path style="opacity:1" fill="#d45383" d="M 98.5,199.5 C 98.5422,205.044 98.5422,210.711 98.5,216.5C 93.5,213.667 88.5,210.833 83.5,208C 88.9043,205.736 93.9043,202.902 98.5,199.5 Z"/></g>
<g><path style="opacity:1" fill="#d04877" d="M 145.5,199.5 C 150.362,203.099 155.695,205.933 161.5,208C 156.207,210.313 151.207,213.146 146.5,216.5C 146.748,210.887 146.414,205.22 145.5,199.5 Z"/></g>
<g><path style="opacity:1" fill="#303042" d="M 119.5,204.5 C 126.536,203.603 128.203,206.103 124.5,212C 118.785,212.401 117.119,209.901 119.5,204.5 Z"/></g>
<g><path style="opacity:1" fill="#607a74" d="M 231.5,196.5 C 234.833,198.833 238.167,201.167 241.5,203.5C 240.68,205.812 239.847,208.146 239,210.5C 238.667,217.5 238.333,224.5 238,231.5C 235.843,238.339 231.343,240.839 224.5,239C 220.281,235.398 218.781,230.898 220,225.5C 223.169,215.478 227.002,205.811 231.5,196.5 Z"/></g>
<g><path style="opacity:1" fill="#f9bebc" d="M 340.5,199.5 C 340.118,203.332 338.785,206.665 336.5,209.5C 323.833,209.5 311.167,209.5 298.5,209.5C 295.952,206.004 294.619,202.004 294.5,197.5C 309.464,195.516 324.797,194.849 340.5,195.5C 340.5,196.833 340.5,198.167 340.5,199.5 Z"/></g>
<g><path style="opacity:1" fill="#f6c6c4" d="M 298.5,209.5 C 311.167,209.5 323.833,209.5 336.5,209.5C 332.614,217.718 326.28,223.051 317.5,225.5C 308.72,223.051 302.386,217.718 298.5,209.5 Z"/></g>
<g><path style="opacity:1" fill="#5c7773" d="M 396.5,202.5 C 400.045,208.885 404.879,214.218 411,218.5C 414.876,225.07 414.043,230.904 408.5,236C 403.883,237.297 400.05,236.13 397,232.5C 394.494,224.824 391.994,217.158 389.5,209.5C 391.5,206.833 393.833,204.5 396.5,202.5 Z"/></g>
<g><path style="opacity:1" fill="#2a2b3c" d="M 402.5,219.5 C 408.02,220.044 409.354,222.544 406.5,227C 399.17,227.486 397.837,224.986 402.5,219.5 Z"/></g>
<g><path style="opacity:1" fill="#28293a" d="M 226.5,222.5 C 233.536,221.603 235.203,224.103 231.5,230C 225.788,230.433 224.122,227.933 226.5,222.5 Z"/></g>
<g><path style="opacity:1" fill="#d87582" d="M 328.5,239.5 C 323.138,239.528 317.805,239.194 312.5,238.5C 312.338,236.473 312.505,234.473 313,232.5C 318.426,234.034 323.426,233.034 328,229.5C 328.498,232.817 328.665,236.15 328.5,239.5 Z"/></g>
<g><path style="opacity:1" fill="#f5caca" d="M 312.5,238.5 C 317.805,239.194 323.138,239.528 328.5,239.5C 329.266,241.684 329.933,244.018 330.5,246.5C 329.289,247.874 328.289,249.374 327.5,251C 327.735,251.873 328.069,252.707 328.5,253.5C 331.795,254.401 335.128,254.401 338.5,253.5C 340.792,276.337 335.292,297.003 322,315.5C 320.422,305.823 321.922,296.656 326.5,288C 325.553,284.928 323.553,283.928 320.5,285C 317.371,289.759 315.204,294.926 314,300.5C 308.019,285.73 304.852,270.397 304.5,254.5C 308.182,254.665 311.848,254.499 315.5,254C 317.473,250.242 316.473,248.075 312.5,247.5C 312.5,244.5 312.5,241.5 312.5,238.5 Z"/></g>
<g><path style="opacity:1" fill="#f6c9c9" d="M 402.5,304.5 C 395.333,305.755 387.999,306.755 380.5,307.5C 374.461,302.628 369.295,296.961 365,290.5C 361.596,276.999 360.096,263.332 360.5,249.5C 362.912,248.182 365.246,248.349 367.5,250C 380.061,267.629 391.727,285.796 402.5,304.5 Z"/></g>
<g><path style="opacity:1" fill="#f5c5c3" d="M 251.5,315.5 C 250.883,315.389 250.383,315.056 250,314.5C 249.077,310.21 248.577,305.877 248.5,301.5C 252.823,290.365 256.656,279.031 260,267.5C 263.409,256.243 270.909,251.243 282.5,252.5C 282.572,265.782 278.739,277.782 271,288.5C 262.531,296.116 256.031,305.116 251.5,315.5 Z"/></g>
<g><path style="opacity:1" fill="#edeff4" d="M 311.5,315.5 C 305.5,315.5 299.5,315.5 293.5,315.5C 287.848,293.737 287.015,271.737 291,249.5C 292.667,248.167 294.333,248.167 296,249.5C 296.413,260.3 297.746,270.966 300,281.5C 303.344,293.032 307.177,304.365 311.5,315.5 Z"/></g>
<g><path style="opacity:1" fill="#ebeef4" d="M 355.5,300.5 C 350.056,301.108 345.056,300.442 340.5,298.5C 345.119,281.828 347.119,264.828 346.5,247.5C 348.144,247.286 349.644,247.62 351,248.5C 354.077,265.692 355.577,283.025 355.5,300.5 Z"/></g>
<g><path style="opacity:1" fill="#f2afad" d="M 194.5,307.5 C 194.367,316.095 195.367,324.762 197.5,333.5C 184.571,320.737 172.904,306.904 162.5,292C 159.714,289.274 156.381,287.607 152.5,287C 146.815,286.373 141.149,286.54 135.5,287.5C 132.567,287.534 129.9,286.701 127.5,285C 121.762,277.599 116.429,269.932 111.5,262C 111.763,260.054 112.763,259.388 114.5,260C 120.59,266.093 127.256,271.427 134.5,276C 142.5,276.333 150.5,276.667 158.5,277C 160.5,278 162.5,279 164.5,280C 173.797,290.138 183.797,299.305 194.5,307.5 Z"/></g>
<g><path style="opacity:1" fill="#f6bebc" d="M 248.5,301.5 C 248.577,305.877 249.077,310.21 250,314.5C 250.383,315.056 250.883,315.389 251.5,315.5C 247.315,325.791 247.648,335.957 252.5,346C 248.5,351.333 243.833,356 238.5,360C 235.405,361.534 232.405,361.701 229.5,360.5C 228.115,352.354 226.781,344.188 225.5,336C 225.528,334.93 225.861,334.097 226.5,333.5C 228.722,333.822 230.556,333.155 232,331.5C 238.2,321.822 243.7,311.822 248.5,301.5 Z"/></g>
<g><path style="opacity:1" fill="#e4e8f6" d="M 340.5,298.5 C 345.056,300.442 350.056,301.108 355.5,300.5C 354.507,314.481 349.174,326.481 339.5,336.5C 337.284,335.797 335.451,334.464 334,332.5C 331.822,328.806 329.655,325.139 327.5,321.5C 332.61,314.28 336.944,306.613 340.5,298.5 Z"/></g>
<g><path style="opacity:1" fill="#f7b9b7" d="M 194.5,307.5 C 207.821,312.836 218.488,321.503 226.5,333.5C 225.861,334.097 225.528,334.93 225.5,336C 226.781,344.188 228.115,352.354 229.5,360.5C 217.655,352.996 206.989,343.996 197.5,333.5C 195.367,324.762 194.367,316.095 194.5,307.5 Z"/></g>
<g><path style="opacity:1" fill="#f7bbb7" d="M 402.5,304.5 C 407.821,311.795 413.155,319.129 418.5,326.5C 412.698,327.929 406.698,328.929 400.5,329.5C 393.492,322.492 386.826,315.158 380.5,307.5C 387.999,306.755 395.333,305.755 402.5,304.5 Z"/></g>
<g><path style="opacity:1" fill="#e2e7f4" d="M 280.5,287.5 C 282.898,310.034 289.565,331.368 300.5,351.5C 295.111,353.859 289.444,354.859 283.5,354.5C 262.882,353.708 254.048,343.041 257,322.5C 259.305,315.887 262.638,309.887 267,304.5C 266.997,318.553 270.831,331.386 278.5,343C 280.701,343.825 282.534,343.325 284,341.5C 281.739,334.942 279.406,328.276 277,321.5C 275.595,313.208 275.262,304.875 276,296.5C 276.842,293.161 278.342,290.161 280.5,287.5 Z"/></g>
<g><path style="opacity:1" fill="#e4e9f6" d="M 293.5,315.5 C 299.5,315.5 305.5,315.5 311.5,315.5C 316.802,325.434 322.136,335.434 327.5,345.5C 323.253,345.194 319.253,345.861 315.5,347.5C 313.046,347.321 310.879,347.987 309,349.5C 302.497,338.825 297.331,327.491 293.5,315.5 Z"/></g>
<g><path style="opacity:1" fill="#898fc3" d="M 327.5,321.5 C 329.655,325.139 331.822,328.806 334,332.5C 335.451,334.464 337.284,335.797 339.5,336.5C 337.877,337.779 336.21,339.113 334.5,340.5C 330.68,335.539 327.347,330.206 324.5,324.5C 325.188,323.145 326.188,322.145 327.5,321.5 Z"/></g>
<g><path style="opacity:1" fill="#dee3f5" d="M 375.5,341.5 C 366.341,348.283 356.674,349.116 346.5,344C 345.748,343.329 345.414,342.496 345.5,341.5C 355.126,330.655 361.126,317.988 363.5,303.5C 372.982,312.126 377.815,322.793 378,335.5C 377.76,337.852 376.927,339.852 375.5,341.5 Z"/></g>
<g><path style="opacity:1" fill="#f2afad" d="M 418.5,326.5 C 422.785,332.203 423.619,338.537 421,345.5C 419.672,348.312 418.172,350.978 416.5,353.5C 411.352,354.202 406.185,354.869 401,355.5C 399.615,355.486 398.449,355.152 397.5,354.5C 400.956,349.725 403.956,344.725 406.5,339.5C 406.333,338.5 406.167,337.5 406,336.5C 403.57,334.578 401.737,332.245 400.5,329.5C 406.698,328.929 412.698,327.929 418.5,326.5 Z"/></g>
<g><path style="opacity:1" fill="#828cbe" d="M 345.5,341.5 C 345.414,342.496 345.748,343.329 346.5,344C 356.674,349.116 366.341,348.283 375.5,341.5C 372.222,347.601 367.222,351.768 360.5,354C 356.546,357.117 353.546,360.95 351.5,365.5C 346.801,359.934 342.468,354.101 338.5,348C 340.949,345.808 343.282,343.641 345.5,341.5 Z"/></g>
<g><path style="opacity:1" fill="#7c87bd" d="M 327.5,345.5 C 334.579,356.632 342.413,367.299 351,377.5C 364.546,391.013 378.379,404.18 392.5,417C 375.84,410.495 360.84,401.161 347.5,389C 345.544,387.388 343.544,387.222 341.5,388.5C 337.564,386.234 334.231,383.234 331.5,379.5C 331.359,372.157 328.692,370.823 323.5,375.5C 323.423,374.25 322.756,373.417 321.5,373C 313.174,372.31 304.841,371.81 296.5,371.5C 294.275,368.738 292.275,365.738 290.5,362.5C 298.39,361.111 306.057,358.944 313.5,356C 317.879,353.985 318.546,351.151 315.5,347.5C 319.253,345.861 323.253,345.194 327.5,345.5 Z"/></g>
<g><path style="opacity:1" fill="#efa19d" d="M 416.5,353.5 C 408.551,364.784 400.217,375.784 391.5,386.5C 388.353,383.532 385.686,380.198 383.5,376.5C 387.67,368.82 392.337,361.487 397.5,354.5C 398.449,355.152 399.615,355.486 401,355.5C 406.185,354.869 411.352,354.202 416.5,353.5 Z"/></g>
<g><path style="opacity:1" fill="#313146" d="M 331.5,379.5 C 326.589,382.929 323.923,381.595 323.5,375.5C 328.692,370.823 331.359,372.157 331.5,379.5 Z"/></g>
<g><path style="opacity:1" fill="#d6def7" d="M 296.5,371.5 C 304.841,371.81 313.174,372.31 321.5,373C 322.756,373.417 323.423,374.25 323.5,375.5C 323.923,381.595 326.589,382.929 331.5,379.5C 334.231,383.234 337.564,386.234 341.5,388.5C 340.527,390.068 340.36,391.735 341,393.5C 346.447,398.787 352.28,403.453 358.5,407.5C 349.014,408.494 339.348,408.827 329.5,408.5C 315.989,398.327 304.989,385.994 296.5,371.5 Z"/></g>
<g><path style="opacity:1" fill="#d57380" d="M 383.5,376.5 C 385.686,380.198 388.353,383.532 391.5,386.5C 390.527,388.068 390.36,389.735 391,391.5C 397.524,396.684 402.524,403.017 406,410.5C 406.667,413.833 406.667,417.167 406,420.5C 397.649,410.649 388.483,401.649 378.5,393.5C 376.972,386.89 378.639,381.224 383.5,376.5 Z"/></g>
<g><path style="opacity:1" fill="#ccd6f6" d="M 358.5,407.5 C 371.743,416.042 385.576,423.709 400,430.5C 397.854,434.992 394.521,438.659 390,441.5C 367.881,433.698 347.714,422.698 329.5,408.5C 339.348,408.827 349.014,408.494 358.5,407.5 Z"/></g>
<g><path style="opacity:1" fill="#ced8f6" d="M 361.5,437.5 C 347.01,438.496 332.343,438.829 317.5,438.5C 302.151,421.246 291.651,401.246 286,378.5C 285.294,376.029 285.627,373.695 287,371.5C 305.404,400.736 330.237,422.736 361.5,437.5 Z"/></g>
<g><path style="opacity:1" fill="#c7d2f6" d="M 280.5,390.5 C 286.88,407.256 295.38,422.923 306,437.5C 316.593,449.428 328.426,459.928 341.5,469C 330.356,474.036 318.69,477.036 306.5,478C 288.042,458.404 278.709,435.071 278.5,408C 278.344,402.041 279.011,396.208 280.5,390.5 Z"/></g>
<g><path style="opacity:1" fill="#c7d1f7" d="M 361.5,437.5 C 368.816,440.824 376.149,444.157 383.5,447.5C 374.202,455.099 363.868,461.099 352.5,465.5C 338.82,459.154 327.154,450.154 317.5,438.5C 332.343,438.829 347.01,438.496 361.5,437.5 Z"/></g>
<g><path style="opacity:1" fill="#c5d0f5" d="M 270.5,408.5 C 271.104,435.475 280.104,459.308 297.5,480C 280.335,483.222 263.001,484.722 245.5,484.5C 245.755,465.146 250.255,446.813 259,429.5C 262.846,422.473 266.679,415.473 270.5,408.5 Z"/></g>
</svg>
