<?xml version="1.0" encoding="UTF-8"?>
<!DOCTYPE svg PUBLIC "-//W3C//DTD SVG 1.1//EN" "http://www.w3.org/Graphics/SVG/1.1/DTD/svg11.dtd">
<svg xmlns="http://www.w3.org/2000/svg" version="1.1" width="512px" height="512px" style="shape-rendering:geometricPrecision; text-rendering:geometricPrecision; image-rendering:optimizeQuality; fill-rule:evenodd; clip-rule:evenodd" xmlns:xlink="http://www.w3.org/1999/xlink">
<g><path style="opacity:1" fill="#272739" d="M 103.5,6.5 C 107.182,6.3347 110.848,6.50137 114.5,7C 117.554,18.4662 113.887,27.4662 103.5,34C 97.547,37.0717 91.2136,38.7384 84.5,39C 81.6415,42.3579 78.9749,45.8579 76.5,49.5C 76.8333,49.8333 77.1667,50.1667 77.5,50.5C 93.4211,41.5872 98.9211,45.9206 94,63.5C 90.9818,75.0954 83.4818,80.4288 71.5,79.5C 73.3336,88.165 77.5002,95.4984 84,101.5C 83.991,92.3555 87.1577,84.5222 93.5,78C 97.6717,77.1316 100.838,78.6316 103,82.5C 109.15,92.4721 108.984,102.305 102.5,112C 104.101,112.273 105.601,112.773 107,113.5C 107.653,107.335 110.82,103.168 116.5,101C 125.745,100.183 134.911,100.35 144,101.5C 145.569,94.5324 149.069,88.6991 154.5,84C 157.347,83.0561 159.847,83.5561 162,85.5C 165.241,91.4636 167.408,97.797 168.5,104.5C 171.167,102.5 173.5,100.167 175.5,97.5C 164.18,89.2251 160.013,78.2251 163,64.5C 164.085,63.7069 165.252,63.0402 166.5,62.5C 174.103,63.3814 180.27,66.7148 185,72.5C 186.54,69.2791 186.707,65.9458 185.5,62.5C 171.655,58.6862 164.322,49.5195 163.5,35C 163.865,31.1155 164.865,27.4488 166.5,24C 182.619,24.7794 191.786,33.2794 194,49.5C 199.192,44.0701 205.525,40.7367 213,39.5C 214.711,39.4393 216.044,40.1059 217,41.5C 221.234,60.7172 213.734,72.0505 194.5,75.5C 193.895,83.7667 191.228,91.2667 186.5,98C 194.047,98.0918 200.88,100.258 207,104.5C 207.667,106.167 207.667,107.833 207,109.5C 196.439,123.737 184.439,125.07 171,113.5C 166.515,116.498 161.682,118.832 156.5,120.5C 157.83,124.54 157.663,128.54 156,132.5C 152.723,138.074 149.223,143.408 145.5,148.5C 146.817,161.406 149.317,174.073 153,186.5C 165.854,194.351 177.187,204.018 187,215.5C 192.291,227.414 198.124,239.081 204.5,250.5C 207.583,252.305 210.917,253.305 214.5,253.5C 222.073,251.862 229.74,251.195 237.5,251.5C 238.205,248.756 238.205,246.089 237.5,243.5C 226.657,238.158 219.157,229.825 215,218.5C 210.363,214.764 205.196,211.93 199.5,210C 192.3,203.425 190.633,195.592 194.5,186.5C 186.287,175.671 186.62,165.004 195.5,154.5C 192.781,152.781 190.781,150.447 189.5,147.5C 192.319,142.525 195.819,142.192 200,146.5C 203.586,133.586 212.086,126.419 225.5,125C 236.487,112.433 249.487,110.099 264.5,118C 267.206,120.371 269.539,123.037 271.5,126C 285.774,125.291 294.607,131.791 298,145.5C 303.188,144.02 305.188,146.02 304,151.5C 302.786,153.049 301.286,154.215 299.5,155C 304.183,161.419 305.683,168.586 304,176.5C 303.125,177.873 302.625,179.373 302.5,181C 309.353,194.579 307.019,206.245 295.5,216C 290.053,218.04 284.386,219.04 278.5,219C 274,219.5 271.5,222 271,226.5C 270.5,235.16 270.334,243.827 270.5,252.5C 273.87,251.017 277.203,249.184 280.5,247C 289.976,244.657 296.81,247.823 301,256.5C 311.202,242.251 318.536,226.584 323,209.5C 331.068,197.431 340.568,186.597 351.5,177C 389.679,146.212 432.179,123.045 479,107.5C 489.036,107.708 494.869,112.708 496.5,122.5C 495.857,127.454 493.857,131.787 490.5,135.5C 496.142,145.983 494.809,155.649 486.5,164.5C 488.918,169.761 489.084,175.094 487,180.5C 484.779,185.117 481.946,189.283 478.5,193C 481.683,198.623 482.183,204.457 480,210.5C 476.324,215.342 472.158,219.675 467.5,223.5C 474.976,237.239 471.976,248.072 458.5,256C 454.637,257.732 450.637,259.066 446.5,260C 444.582,271.181 438.249,278.515 427.5,282C 422.97,283.632 418.304,284.632 413.5,285C 411.123,295.045 404.956,301.545 395,304.5C 391.197,305.461 387.364,306.294 383.5,307C 380.089,318.381 372.422,323.215 360.5,321.5C 359.728,326.877 357.061,331.044 352.5,334C 347.917,335.145 343.251,335.811 338.5,336C 340.583,343.494 342.75,350.994 345,358.5C 360.252,385.589 369.919,414.589 374,445.5C 380.049,452.548 385.716,459.881 391,467.5C 394.46,475.299 395.127,483.299 393,491.5C 389.551,497.544 384.385,499.71 377.5,498C 375,496.833 373.167,495 372,492.5C 371.899,487.054 371.232,481.721 370,476.5C 368.351,483.728 363.851,486.562 356.5,485C 351.123,482.938 348.456,478.938 348.5,473C 352.448,462.399 352.282,451.899 348,441.5C 345.255,435.675 342.255,430.008 339,424.5C 331.561,416.045 326.228,406.378 323,395.5C 321.702,387.74 320.035,380.074 318,372.5C 312.414,363.661 306.581,354.994 300.5,346.5C 297.097,350.072 293.263,353.072 289,355.5C 287.543,360.773 286.876,366.106 287,371.5C 315.525,409.744 329.192,452.744 328,500.5C 327.626,501.416 327.126,502.25 326.5,503C 279.747,508.213 234.414,502.547 190.5,486C 183.262,482.8 176.429,478.967 170,474.5C 170.796,434.778 183.129,399.111 207,367.5C 207.824,364.118 207.657,360.784 206.5,357.5C 200.852,355.185 196.852,351.185 194.5,345.5C 190.63,344.132 187.464,341.798 185,338.5C 172.731,342.697 163.898,339.03 158.5,327.5C 151.595,328.761 145.429,327.095 140,322.5C 138.007,320.182 136.841,317.516 136.5,314.5C 126.417,314.973 117.584,311.973 110,305.5C 107.82,302.641 106.32,299.474 105.5,296C 94.5534,296.242 85.0534,292.742 77,285.5C 74.6916,282.077 72.8583,278.411 71.5,274.5C 63.4321,272.983 56.2654,269.65 50,264.5C 44.6667,256.826 44.1667,248.826 48.5,240.5C 40.3516,236.855 35.3516,230.688 33.5,222C 34.0023,218.803 35.0023,215.803 36.5,213C 32.1541,209.133 28.6541,204.633 26,199.5C 25.0044,194.771 25.5044,190.271 27.5,186C 19.5491,180.157 16.7158,172.323 19,162.5C 19.4652,161.069 20.2986,159.903 21.5,159C 12.6423,151.437 12.3089,143.437 20.5,135C 24.2197,133.356 28.053,132.19 32,131.5C 61.2783,139.15 89.2783,150.15 116,164.5C 116.384,156.15 116.05,147.817 115,139.5C 113.999,136.827 112.499,134.493 110.5,132.5C 100.727,138.817 90.7273,138.983 80.5,133C 77.2091,130.668 76.7091,127.835 79,124.5C 82.0422,121.067 85.5422,118.234 89.5,116C 83.788,113.125 78.788,109.291 74.5,104.5C 56.8701,111.184 44.8701,105.684 38.5,88C 38.7,85.463 40.0333,83.7963 42.5,83C 49.2715,81.5882 55.9381,81.0882 62.5,81.5C 61.7109,75.8848 61.2109,70.2182 61,64.5C 45.7803,54.6443 40.7803,40.9776 46,23.5C 58.203,23.2093 66.703,28.876 71.5,40.5C 73.1491,38.3501 74.9824,36.3501 77,34.5C 78.8846,18.4516 87.718,9.1183 103.5,6.5 Z"/></g>
<g><path style="opacity:1" fill="#95b75a" d="M 103.5,14.5 C 104.833,14.5 106.167,14.5 107.5,14.5C 104.489,24.8599 97.4892,30.1932 86.5,30.5C 88.9414,21.7249 94.608,16.3916 103.5,14.5 Z"/></g>
<g><path style="opacity:1" fill="#515f46" d="M 53.5,32.5 C 52.5318,34.6074 52.1984,36.9407 52.5,39.5C 51.1997,36.9759 51.1997,34.3092 52.5,31.5C 53.1067,31.6236 53.44,31.9569 53.5,32.5 Z"/></g>
<g><path style="opacity:1" fill="#91ba62" d="M 53.5,32.5 C 62.977,37.7679 65.977,45.4346 62.5,55.5C 57.1062,51.4426 53.7729,46.1092 52.5,39.5C 52.1984,36.9407 52.5318,34.6074 53.5,32.5 Z"/></g>
<g><path style="opacity:1" fill="#8bb764" d="M 172.5,32.5 C 182.007,36.856 186.34,44.1893 185.5,54.5C 175.501,50.5012 171.168,43.1678 172.5,32.5 Z"/></g>
<g><path style="opacity:1" fill="#80b36d" d="M 208.5,48.5 C 209.649,48.7911 210.316,49.6244 210.5,51C 209.046,60.2872 203.713,65.7872 194.5,67.5C 194.925,63.3929 196.425,59.7262 199,56.5C 202.145,53.6962 205.312,51.0296 208.5,48.5 Z"/></g>
<g><path style="opacity:1" fill="#80b66e" d="M 84.5,55.5 C 87.4038,62.536 85.0704,67.7027 77.5,71C 75.0982,71.8141 72.7649,71.6474 70.5,70.5C 73.8337,64.1693 78.5003,59.1693 84.5,55.5 Z"/></g>
<g><path style="opacity:1" fill="#27273a" d="M 356.5,71.5 C 373.248,72.0113 389.915,73.5113 406.5,76C 413.819,81.28 414.153,86.9467 407.5,93C 384.829,110.485 360.496,113.152 334.5,101C 327.235,94.7875 318.902,90.4542 309.5,88C 308.409,85.9361 308.242,83.7695 309,81.5C 310.062,80.9032 311.228,80.5698 312.5,80.5C 316.181,81.5599 319.847,82.7266 323.5,84C 325.167,84.6667 326.833,84.6667 328.5,84C 337.071,77.876 346.405,73.7093 356.5,71.5 Z"/></g>
<g><path style="opacity:1" fill="#72b277" d="M 170.5,72.5 C 178.547,75.2328 182.214,80.8995 181.5,89.5C 176.214,87.7106 172.714,84.044 171,78.5C 170.505,76.5273 170.338,74.5273 170.5,72.5 Z"/></g>
<g><path style="opacity:1" fill="#c5d8f2" d="M 374.5,80.5 C 375.498,84.3276 375.498,87.9943 374.5,91.5C 374.714,89.8561 374.38,88.3561 373.5,87C 361.845,87.3601 350.179,87.3601 338.5,87C 349.793,79.9997 361.793,77.833 374.5,80.5 Z"/></g>
<g><path style="opacity:1" fill="#dce9f7" d="M 374.5,80.5 C 384.148,81.9144 393.815,83.2478 403.5,84.5C 394.655,93.2545 383.988,98.2545 371.5,99.5C 370.659,97.6208 370.325,95.6208 370.5,93.5C 372.38,93.7709 373.713,93.1042 374.5,91.5C 375.498,87.9943 375.498,84.3276 374.5,80.5 Z"/></g>
<g><path style="opacity:1" fill="#67af7f" d="M 48.5,89.5 C 56.8235,88.4915 63.8235,90.9915 69.5,97C 59.8431,101.835 52.8431,99.3352 48.5,89.5 Z"/></g>
<g><path style="opacity:1" fill="#bfd1ef" d="M 370.5,93.5 C 370.325,95.6208 370.659,97.6208 371.5,99.5C 361.753,101.558 352.42,100.391 343.5,96C 352.58,95.8296 361.58,94.9962 370.5,93.5 Z"/></g>
<g><path style="opacity:1" fill="#60a67e" d="M 95.5,88.5 C 98.518,90.3742 99.8513,93.2076 99.5,97C 99.508,101.15 98.008,104.65 95,107.5C 91.5796,101.051 91.7463,94.7176 95.5,88.5 Z"/></g>
<g><path style="opacity:1" fill="#60ae84" d="M 156.5,93.5 C 158.439,97.5311 158.939,101.864 158,106.5C 157.027,108.64 155.527,110.307 153.5,111.5C 151.636,104.95 152.636,98.9502 156.5,93.5 Z"/></g>
<g><path style="opacity:1" fill="#59a686" d="M 181.5,106.5 C 185.182,106.335 188.848,106.501 192.5,107C 194.044,107.29 195.377,107.956 196.5,109C 190.574,114.923 184.574,114.923 178.5,109C 179.571,108.148 180.571,107.315 181.5,106.5 Z"/></g>
<g><path style="opacity:1" fill="#4da48e" d="M 97.5,121.5 C 100.167,121.5 102.833,121.5 105.5,121.5C 104.743,126.821 101.577,129.488 96,129.5C 93.2034,129.457 90.7034,128.623 88.5,127C 91.2984,124.696 94.2984,122.862 97.5,121.5 Z"/></g>
<g><path style="opacity:1" fill="#deebf7" d="M 439.5,153.5 C 433.892,149.561 428.892,144.894 424.5,139.5C 440.68,130.819 457.347,122.986 474.5,116C 478.738,115.177 482.738,115.844 486.5,118C 488.187,119.913 488.687,122.08 488,124.5C 486.542,126.96 484.709,129.127 482.5,131C 468.258,138.759 453.924,146.259 439.5,153.5 Z"/></g>
<g><path style="opacity:1" fill="#e89e9d" d="M 141.5,138.5 C 136.218,138.82 130.885,140.153 125.5,142.5C 124.52,145.086 124.187,147.753 124.5,150.5C 123.674,146.018 123.174,141.351 123,136.5C 121.24,132.642 119.24,128.975 117,125.5C 116.333,120.5 116.333,115.5 117,110.5C 117.5,110 118,109.5 118.5,109C 126.5,108.333 134.5,108.333 142.5,109C 144.155,110.444 144.822,112.278 144.5,114.5C 137.245,114.187 130.079,114.52 123,115.5C 120.762,123.512 123.262,129.345 130.5,133C 135.763,133.771 137.429,131.604 135.5,126.5C 132.853,126.071 130.853,124.738 129.5,122.5C 135.137,121.337 140.804,121.17 146.5,122C 147.416,122.374 148.25,122.874 149,123.5C 149.168,129.83 146.668,134.83 141.5,138.5 Z"/></g>
<g><path style="opacity:1" fill="#f5d870" d="M 284.5,137.5 C 261.849,139.548 239.016,141.215 216,142.5C 214.293,142.492 212.793,142.158 211.5,141.5C 213.327,138.526 215.993,136.359 219.5,135C 222.753,133.964 226.086,133.297 229.5,133C 236.541,121.651 246.207,118.651 258.5,124C 262.226,127.061 265.226,130.728 267.5,135C 271.47,134.674 275.47,134.674 279.5,135C 281.491,135.374 283.158,136.207 284.5,137.5 Z"/></g>
<g><path style="opacity:1" fill="#e3eff7" d="M 90.5,161.5 C 88.3876,167.211 85.7209,172.544 82.5,177.5C 64.7348,170.298 47.0682,162.798 29.5,155C 24.7676,152.962 22.6009,149.462 23,144.5C 26.7434,140.741 31.2434,139.574 36.5,141C 55.0667,146.455 73.0667,153.288 90.5,161.5 Z"/></g>
<g><path style="opacity:1" fill="#f8cf69" d="M 284.5,137.5 C 289.028,140.98 290.695,145.646 289.5,151.5C 286.873,152.092 284.206,152.425 281.5,152.5C 270.833,153.093 260.167,153.759 249.5,154.5C 247.304,154.495 245.304,154.162 243.5,153.5C 244.095,150.022 242.428,147.689 238.5,146.5C 236.432,149.157 235.099,152.157 234.5,155.5C 229.465,158.012 224.799,161.012 220.5,164.5C 214.638,164.335 208.804,164.669 203,165.5C 201.319,165.392 200.152,164.725 199.5,163.5C 202.351,158.407 206.518,157.073 212,159.5C 217.245,159.936 219.078,157.769 217.5,153C 214.649,151.711 211.649,151.211 208.5,151.5C 208.337,149.143 208.503,146.81 209,144.5C 209.377,143.058 210.21,142.058 211.5,141.5C 212.793,142.158 214.293,142.492 216,142.5C 239.016,141.215 261.849,139.548 284.5,137.5 Z"/></g>
<g><path style="opacity:1" fill="#8cabf5" d="M 480.5,140.5 C 484.106,140.523 486.106,142.356 486.5,146C 485.735,151.198 483.402,155.531 479.5,159C 465.317,168.424 450.317,176.258 434.5,182.5C 435.224,176.62 433.224,171.953 428.5,168.5C 445.895,159.138 463.228,149.805 480.5,140.5 Z"/></g>
<g><path style="opacity:1" fill="#cee0f7" d="M 424.5,139.5 C 428.892,144.894 433.892,149.561 439.5,153.5C 418.016,164.739 397.683,177.739 378.5,192.5C 373.106,188.108 368.439,183.108 364.5,177.5C 383.182,162.831 403.182,150.165 424.5,139.5 Z"/></g>
<g><path style="opacity:1" fill="#f3b1af" d="M 141.5,138.5 C 138.081,140.203 136.748,143.036 137.5,147C 138.296,155.204 139.296,163.371 140.5,171.5C 140.64,173.124 139.973,174.29 138.5,175C 134.23,177.057 129.897,177.891 125.5,177.5C 125.034,168.506 124.7,159.506 124.5,150.5C 124.187,147.753 124.52,145.086 125.5,142.5C 130.885,140.153 136.218,138.82 141.5,138.5 Z"/></g>
<g><path style="opacity:1" fill="#d9e7f5" d="M 90.5,161.5 C 99.6001,165.549 108.6,169.883 117.5,174.5C 118.833,179.5 118.833,184.5 117.5,189.5C 109.496,185.998 101.163,183.831 92.5,183C 88.9439,181.392 85.6106,179.559 82.5,177.5C 85.7209,172.544 88.3876,167.211 90.5,161.5 Z"/></g>
<g><path style="opacity:1" fill="#8cabf5" d="M 28.5,163.5 C 47.033,170.764 65.3663,178.597 83.5,187C 79.0827,190.43 77.4161,194.93 78.5,200.5C 62.4596,195.317 47.1262,188.484 32.5,180C 26.5046,175.448 25.1713,169.948 28.5,163.5 Z"/></g>
<g><path style="opacity:1" fill="#d77582" d="M 264.5,196.5 C 262.035,196.233 259.701,195.566 257.5,194.5C 252.55,191.545 249.55,187.212 248.5,181.5C 241.026,180.688 236.359,176.688 234.5,169.5C 231.763,169.401 229.096,169.735 226.5,170.5C 228.888,167.462 231.888,165.129 235.5,163.5C 239.168,171.001 245.168,175.001 253.5,175.5C 254.338,182.182 257.838,186.849 264,189.5C 264.497,191.81 264.663,194.143 264.5,196.5 Z"/></g>
<g><path style="opacity:1" fill="#f7bd5e" d="M 281.5,152.5 C 277.767,153.977 273.767,154.811 269.5,155C 267.425,160.925 269.592,163.091 276,161.5C 281.59,160.848 287.09,160.014 292.5,159C 296.437,163.598 297.437,168.765 295.5,174.5C 284.164,174.759 272.831,175.093 261.5,175.5C 261.945,172.635 261.278,170.135 259.5,168C 249.947,169.576 244.281,165.743 242.5,156.5C 242.52,155.274 242.853,154.274 243.5,153.5C 245.304,154.162 247.304,154.495 249.5,154.5C 260.167,153.759 270.833,153.093 281.5,152.5 Z"/></g>
<g><path style="opacity:1" fill="#8cabf6" d="M 451.5,197.5 C 449.624,193.712 447.291,190.379 444.5,187.5C 455.729,181.882 466.729,175.715 477.5,169C 478.332,168.312 478.998,168.479 479.5,169.5C 481.14,173.99 480.306,177.99 477,181.5C 469.871,188.983 461.371,194.317 451.5,197.5 Z"/></g>
<g><path style="opacity:1" fill="#f8ba5c" d="M 199.5,163.5 C 200.152,164.725 201.319,165.392 203,165.5C 208.804,164.669 214.638,164.335 220.5,164.5C 216.24,169.019 213.574,174.352 212.5,180.5C 206.51,180.168 201.177,178.168 196.5,174.5C 195.945,170.294 196.945,166.627 199.5,163.5 Z"/></g>
<g><path style="opacity:1" fill="#f8b256" d="M 295.5,174.5 C 295.443,175.609 295.11,176.609 294.5,177.5C 288.183,182.719 280.85,185.386 272.5,185.5C 272.047,184.542 271.381,183.708 270.5,183C 265.485,182.812 262.485,180.312 261.5,175.5C 272.831,175.093 284.164,174.759 295.5,174.5 Z"/></g>
<g><path style="opacity:1" fill="#d66049" d="M 196.5,174.5 C 201.177,178.168 206.51,180.168 212.5,180.5C 212.727,189.515 212.894,198.515 213,207.5C 209.754,205.641 206.421,203.975 203,202.5C 201.596,200.361 200.763,198.028 200.5,195.5C 201.991,191.224 202.825,186.891 203,182.5C 200.218,180.229 198.051,177.563 196.5,174.5 Z"/></g>
<g><path style="opacity:1" fill="#c3d7f6" d="M 364.5,177.5 C 368.439,183.108 373.106,188.108 378.5,192.5C 370.5,199.833 362.833,207.5 355.5,215.5C 350.167,210.833 345.167,205.833 340.5,200.5C 343.251,196.243 346.584,192.41 350.5,189C 355.04,184.954 359.707,181.121 364.5,177.5 Z"/></g>
<g><path style="opacity:1" fill="#da6249" d="M 294.5,177.5 C 293.418,178.594 292.752,179.927 292.5,181.5C 295.441,185.551 297.441,190.051 298.5,195C 298.184,201.82 295.018,206.654 289,209.5C 288.5,209.167 288,208.833 287.5,208.5C 291.295,198.101 288.128,191.101 278,187.5C 276.175,187.943 274.342,188.277 272.5,188.5C 272.5,187.5 272.5,186.5 272.5,185.5C 280.85,185.386 288.183,182.719 294.5,177.5 Z"/></g>
<g><path style="opacity:1" fill="#f2aba8" d="M 257.5,194.5 C 245.345,195.495 233.011,195.829 220.5,195.5C 219.385,190.25 219.219,184.917 220,179.5C 221.643,176.039 223.81,173.039 226.5,170.5C 229.096,169.735 231.763,169.401 234.5,169.5C 236.359,176.688 241.026,180.688 248.5,181.5C 249.55,187.212 252.55,191.545 257.5,194.5 Z"/></g>
<g><path style="opacity:1" fill="#cddff6" d="M 383.5,218.5 C 380.732,216.913 378.065,215.08 375.5,213C 373.859,211.871 372.859,210.371 372.5,208.5C 386.518,195.325 401.851,183.825 418.5,174C 423.281,173.229 426.281,175.229 427.5,180C 421.326,191.844 412.659,201.511 401.5,209C 395.604,212.447 389.604,215.614 383.5,218.5 Z"/></g>
<g><path style="opacity:1" fill="#d0e2f6" d="M 90.5,191.5 C 93.8499,191.335 97.1832,191.502 100.5,192C 106.909,193.684 113.242,195.518 119.5,197.5C 120.048,206.004 120.715,214.504 121.5,223C 121.167,224.5 120.833,226 120.5,227.5C 110.037,222.187 100.537,215.52 92,207.5C 89.207,204.547 87.0403,201.213 85.5,197.5C 86.4649,194.872 88.1315,192.872 90.5,191.5 Z"/></g>
<g><path style="opacity:1" fill="#f6c2c0" d="M 140.5,171.5 C 144.409,183.914 147.742,196.58 150.5,209.5C 143.218,211.705 135.884,213.705 128.5,215.5C 127.086,202.871 126.086,190.204 125.5,177.5C 129.897,177.891 134.23,177.057 138.5,175C 139.973,174.29 140.64,173.124 140.5,171.5 Z"/></g>
<g><path style="opacity:1" fill="#87a2f5" d="M 444.5,187.5 C 447.291,190.379 449.624,193.712 451.5,197.5C 443.949,200.295 436.283,202.795 428.5,205C 425.833,207 425.833,209 428.5,211C 434.305,211.04 439.972,210.04 445.5,208C 453.913,205.084 462.08,201.584 470,197.5C 472.425,198.673 473.592,200.673 473.5,203.5C 473.378,205.791 472.545,207.791 471,209.5C 456.113,221.913 438.946,229.08 419.5,231C 416.411,234.813 417.245,237.313 422,238.5C 434.694,236.546 446.861,232.879 458.5,227.5C 463.109,229.711 464.609,233.378 463,238.5C 460.371,245.086 455.538,249.253 448.5,251C 438.557,252.365 428.557,252.865 418.5,252.5C 416.267,246.938 413.601,241.605 410.5,236.5C 416.039,230.18 417.872,222.847 416,214.5C 415.215,212.714 414.049,211.214 412.5,210C 418.833,205 424.5,199.333 429.5,193C 434.521,191.153 439.521,189.32 444.5,187.5 Z"/></g>
<g><path style="opacity:1" fill="#f5b6b4" d="M 257.5,194.5 C 259.701,195.566 262.035,196.233 264.5,196.5C 263.78,202.638 266.28,204.638 272,202.5C 272.546,197.255 275.213,195.255 280,196.5C 282.609,204.159 280.109,209.492 272.5,212.5C 264.34,211.834 256.007,211.5 247.5,211.5C 238.806,211.502 230.472,212.169 222.5,213.5C 220.772,207.762 220.105,201.762 220.5,195.5C 233.011,195.829 245.345,195.495 257.5,194.5 Z"/></g>
<g><path style="opacity:1" fill="#2e2b3c" d="M 250.5,198.5 C 257.004,198.138 258.671,200.638 255.5,206C 253.302,206.373 251.135,206.873 249,207.5C 245.928,206.553 244.928,204.553 246,201.5C 247.409,200.219 248.909,199.219 250.5,198.5 Z"/></g>
<g><path style="opacity:1" fill="#312d3e" d="M 226.5,198.5 C 229.988,198.705 233.321,199.539 236.5,201C 238.35,204.747 237.183,206.914 233,207.5C 226.402,207.552 224.236,204.552 226.5,198.5 Z"/></g>
<g><path style="opacity:1" fill="#89a6f3" d="M 91.5,217.5 C 89.3187,219.764 87.9854,222.431 87.5,225.5C 87.7733,223.549 87.1066,222.049 85.5,221C 71.2,218.678 57.5334,214.345 44.5,208C 37.2946,204.312 33.6279,198.479 33.5,190.5C 45.4226,195.755 57.4226,200.922 69.5,206C 74.7724,207.869 80.1057,209.535 85.5,211C 87.7059,213.037 89.7059,215.203 91.5,217.5 Z"/></g>
<g><path style="opacity:1" fill="#c4d7f6" d="M 372.5,208.5 C 372.859,210.371 373.859,211.871 375.5,213C 378.065,215.08 380.732,216.913 383.5,218.5C 380.904,219.64 378.904,221.473 377.5,224C 378.058,226.058 379.391,227.225 381.5,227.5C 390.153,224.423 398.32,220.423 406,215.5C 407.261,215.759 408.261,216.426 409,217.5C 409.732,224.784 406.899,230.284 400.5,234C 392.012,238.3 383.012,240.967 373.5,242C 372.748,242.671 372.414,243.504 372.5,244.5C 366.246,240.582 360.579,235.915 355.5,230.5C 359.643,222.019 365.31,214.686 372.5,208.5 Z"/></g>
<g><path style="opacity:1" fill="#bad1f7" d="M 340.5,200.5 C 345.167,205.833 350.167,210.833 355.5,215.5C 348.579,224.677 343.245,234.677 339.5,245.5C 334.5,240.833 329.5,236.167 324.5,231.5C 326.439,219.285 331.772,208.952 340.5,200.5 Z"/></g>
<g><path style="opacity:1" fill="#f7cbcb" d="M 150.5,209.5 C 151.861,215.162 153.361,220.829 155,226.5C 169.061,243.122 186.561,254.622 207.5,261C 216.514,260.828 225.514,260.495 234.5,260C 236.138,262.133 236.971,264.633 237,267.5C 239.84,270.371 242.174,270.037 244,266.5C 244.945,260.467 245.778,254.467 246.5,248.5C 252.168,248.416 257.501,247.083 262.5,244.5C 262.334,249.511 262.501,254.511 263,259.5C 264.53,260.92 266.363,261.92 268.5,262.5C 250.934,287.596 228.267,306.096 200.5,318C 206.73,308.764 212.563,299.264 218,289.5C 218.833,285 217,283.167 212.5,284C 210.669,287.198 208.502,290.032 206,292.5C 179.787,277.968 156.121,259.968 135,238.5C 130.317,231.588 128.15,223.922 128.5,215.5C 135.884,213.705 143.218,211.705 150.5,209.5 Z"/></g>
<g><path style="opacity:1" fill="#b9cff5" d="M 156.5,199.5 C 164.988,204.518 172.488,210.852 179,218.5C 184.487,227.544 188.654,236.878 191.5,246.5C 180.716,240.889 171.216,233.555 163,224.5C 161.725,222.283 160.725,219.949 160,217.5C 159.153,211.416 157.987,205.416 156.5,199.5 Z"/></g>
<g><path style="opacity:1" fill="#f7c5c3" d="M 272.5,212.5 C 270.083,212.978 267.916,213.978 266,215.5C 262.184,230.033 253.017,236.533 238.5,235C 230.326,229.987 224.993,222.82 222.5,213.5C 230.472,212.169 238.806,211.502 247.5,211.5C 256.007,211.5 264.34,211.834 272.5,212.5 Z"/></g>
<g><path style="opacity:1" fill="#89a6f6" d="M 84.5,228.5 C 82.8333,233.167 81.1667,237.833 79.5,242.5C 65.5993,240.465 53.4326,234.799 43,225.5C 42.3333,222.833 42.3333,220.167 43,217.5C 43.414,217.043 43.914,216.709 44.5,216.5C 57.3063,222.325 70.6396,226.325 84.5,228.5 Z"/></g>
<g><path style="opacity:1" fill="#c1d4f2" d="M 107.5,229.5 C 113.447,232.473 119.447,235.473 125.5,238.5C 128.719,242.962 132.386,246.962 136.5,250.5C 126.932,252.148 118.265,249.981 110.5,244C 105.446,239.895 104.446,235.062 107.5,229.5 Z"/></g>
<g><path style="opacity:1" fill="#8099ee" d="M 410.5,236.5 C 413.601,241.605 416.267,246.938 418.5,252.5C 415.813,252.336 413.146,252.503 410.5,253C 408.561,256.689 409.561,259.023 413.5,260C 421.521,260.168 429.521,260.668 437.5,261.5C 433.99,270.444 427.323,275.277 417.5,276C 408.167,276.667 398.833,276.667 389.5,276C 387.048,275.71 384.715,275.044 382.5,274C 389.067,272.135 394.567,268.635 399,263.5C 402.483,257.016 402.317,250.683 398.5,244.5C 402.529,241.823 406.529,239.156 410.5,236.5 Z"/></g>
<g><path style="opacity:1" fill="#cf727e" d="M 262.5,244.5 C 257.501,247.083 252.168,248.416 246.5,248.5C 246.5,246.833 246.5,245.167 246.5,243.5C 252.13,242.518 257.13,240.185 261.5,236.5C 262.48,239.086 262.813,241.753 262.5,244.5 Z"/></g>
<g><path style="opacity:1" fill="#b2cbf7" d="M 324.5,231.5 C 329.5,236.167 334.5,240.833 339.5,245.5C 334.698,257.143 327.698,267.31 318.5,276C 317.833,276.667 317.167,276.667 316.5,276C 314.901,270.47 312.234,265.47 308.5,261C 311.202,256.432 314.035,251.932 317,247.5C 319.275,241.955 321.775,236.622 324.5,231.5 Z"/></g>
<g><path style="opacity:1" fill="#bbd2f8" d="M 355.5,230.5 C 360.579,235.915 366.246,240.582 372.5,244.5C 372.33,245.822 372.663,246.989 373.5,248C 379.534,247.561 385.534,247.728 391.5,248.5C 395.455,252.629 395.455,256.796 391.5,261C 381.344,266.919 370.344,269.419 358.5,268.5C 355.397,266.577 352.397,264.41 349.5,262C 346.758,260.114 345.091,257.614 344.5,254.5C 347.673,246.162 351.34,238.162 355.5,230.5 Z"/></g>
<g><path style="opacity:1" fill="#839cf1" d="M 91.5,217.5 C 95.1274,219.794 98.4607,222.46 101.5,225.5C 96.9319,233.971 97.9319,241.804 104.5,249C 108.87,251.847 113.203,254.68 117.5,257.5C 112.943,265.949 114.61,273.115 122.5,279C 126.048,280.941 129.714,282.607 133.5,284C 121.361,287.253 109.027,288.253 96.5,287C 89.2919,285.406 83.9586,281.406 80.5,275C 88.8419,274.066 97.1752,273.066 105.5,272C 107.725,269.975 108.059,267.642 106.5,265C 94.5506,266.188 82.5506,266.521 70.5,266C 65.0333,264.684 60.1999,262.184 56,258.5C 53.2475,254.667 52.9142,250.667 55,246.5C 55.804,245.196 56.9707,244.529 58.5,244.5C 70.9586,250.202 83.9586,252.536 97.5,251.5C 98.767,249.629 98.767,247.796 97.5,246C 91.374,245.246 85.374,244.08 79.5,242.5C 81.1667,237.833 82.8333,233.167 84.5,228.5C 85.8333,227.833 86.8333,226.833 87.5,225.5C 87.9854,222.431 89.3187,219.764 91.5,217.5 Z"/></g>
<g><path style="opacity:1" fill="#f68cc5" d="M 295.5,338.5 C 295.38,337.414 294.713,336.747 293.5,336.5C 276.819,332.829 260.153,329.163 243.5,325.5C 245.769,324.024 248.102,322.524 250.5,321C 252.833,315.667 251.167,313.667 245.5,315C 234.198,322.484 222.198,328.651 209.5,333.5C 206.86,331.577 205.193,328.91 204.5,325.5C 236.872,310.213 262.372,287.213 281,256.5C 287.406,252.772 291.906,254.438 294.5,261.5C 291.598,267.889 288.098,273.889 284,279.5C 278.657,286.339 273.157,293.005 267.5,299.5C 267.775,301.609 268.942,302.942 271,303.5C 274.561,301.945 277.561,299.612 280,296.5C 279.883,303.382 279.049,310.215 277.5,317C 278.687,321.755 281.187,322.589 285,319.5C 287.11,307.494 289.11,295.494 291,283.5C 294.04,277.918 297.207,272.418 300.5,267C 305.543,268.087 307.376,271.253 306,276.5C 303,284.5 300,292.5 297,300.5C 297.382,308.341 298.216,316.174 299.5,324C 300.082,329.52 298.749,334.353 295.5,338.5 Z"/></g>
<g><path style="opacity:1" fill="#bad1f6" d="M 153.5,266.5 C 150.577,273.11 145.577,276.444 138.5,276.5C 132.175,276.088 127.009,273.421 123,268.5C 121.877,265.044 122.71,262.21 125.5,260C 133.203,259.358 140.869,259.691 148.5,261C 150.373,262.704 152.04,264.537 153.5,266.5 Z"/></g>
<g><path style="opacity:1" fill="#b1c9f6" d="M 344.5,254.5 C 345.091,257.614 346.758,260.114 349.5,262C 352.397,264.41 355.397,266.577 358.5,268.5C 357.489,270.402 357.322,272.402 358,274.5C 360.185,275.928 362.185,277.595 364,279.5C 365.104,287.73 361.437,291.397 353,290.5C 348.77,290.234 344.604,289.568 340.5,288.5C 336.619,289.319 335.785,291.319 338,294.5C 339.276,300.61 337.276,305.277 332,308.5C 329.934,299.81 326.767,291.476 322.5,283.5C 330.657,274.359 337.99,264.692 344.5,254.5 Z"/></g>
<g><path style="opacity:1" fill="#7b93ea" d="M 372.5,280.5 C 383.006,283.048 393.673,284.382 404.5,284.5C 403.531,290.308 400.198,294.141 394.5,296C 384.743,299.49 375.076,299.323 365.5,295.5C 370.245,291.675 372.578,286.675 372.5,280.5 Z"/></g>
<g><path style="opacity:1" fill="#adc5f5" d="M 153.5,266.5 C 165.226,275.561 177.226,284.228 189.5,292.5C 186.672,293.655 184.005,294.989 181.5,296.5C 177.255,294.156 172.921,294.323 168.5,297C 163.771,297.996 159.271,297.496 155,295.5C 152.125,290.063 153.458,286.063 159,283.5C 159.667,281.833 159.667,280.167 159,278.5C 152.068,277.85 145.234,277.183 138.5,276.5C 145.577,276.444 150.577,273.11 153.5,266.5 Z"/></g>
<g><path style="opacity:1" fill="#7a91e8" d="M 141.5,289.5 C 142.833,289.5 144.167,289.5 145.5,289.5C 145.588,295.177 147.922,299.677 152.5,303C 143.354,306.54 134.021,307.207 124.5,305C 118.877,303.547 115.544,300.047 114.5,294.5C 123.957,294.648 132.957,292.982 141.5,289.5 Z"/></g>
<g><path style="opacity:1" fill="#6f86e3" d="M 189.5,292.5 C 194.315,294.406 198.649,297.073 202.5,300.5C 199.833,304.833 197.167,309.167 194.5,313.5C 186.683,314.919 181.683,311.752 179.5,304C 180.322,301.528 180.989,299.028 181.5,296.5C 184.005,294.989 186.672,293.655 189.5,292.5 Z"/></g>
<g><path style="opacity:1" fill="#738be7" d="M 346.5,298.5 C 355.244,301.617 364.244,303.783 373.5,305C 374.745,309.787 372.745,312.454 367.5,313C 359.374,314.533 351.874,313.033 345,308.5C 344.952,305.122 345.452,301.789 346.5,298.5 Z"/></g>
<g><path style="opacity:1" fill="#7289e5" d="M 168.5,305.5 C 169.833,305.5 171.167,305.5 172.5,305.5C 172.387,308.049 173.054,310.382 174.5,312.5C 172.172,315.335 169.172,317.169 165.5,318C 159.459,319.896 153.459,319.896 147.5,318C 146.128,316.758 145.128,315.258 144.5,313.5C 152.812,311.43 160.812,308.764 168.5,305.5 Z"/></g>
<g><path style="opacity:1" fill="#6e85e1" d="M 337.5,313.5 C 341.114,315.307 344.78,317.14 348.5,319C 349.793,319.49 351.127,319.657 352.5,319.5C 352.456,323.09 350.789,325.59 347.5,327C 343.833,327.667 340.167,327.667 336.5,327C 335.125,323.805 334.125,320.472 333.5,317C 334.686,315.588 336.019,314.421 337.5,313.5 Z"/></g>
<g><path style="opacity:1" fill="#f5c6c5" d="M 331.5,341.5 C 325.461,344.405 319.127,346.738 312.5,348.5C 309.796,345.117 307.463,341.451 305.5,337.5C 306.951,333.298 307.618,328.965 307.5,324.5C 307.032,317.925 306.032,311.425 304.5,305C 306.192,297.258 308.692,289.758 312,282.5C 316.637,288.106 319.971,294.439 322,301.5C 325.486,314.776 328.653,328.109 331.5,341.5 Z"/></g>
<g><path style="opacity:1" fill="#6e85e1" d="M 179.5,318.5 C 183.222,320.523 187.222,321.689 191.5,322C 187.978,324.189 185.145,327.022 183,330.5C 178.419,331.957 173.919,331.791 169.5,330C 168.235,328.663 167.735,327.163 168,325.5C 172.448,324.033 176.282,321.699 179.5,318.5 Z"/></g>
<g><path style="opacity:1" fill="#c24a80" d="M 204.5,325.5 C 205.193,328.91 206.86,331.577 209.5,333.5C 206.216,335.597 202.55,336.931 198.5,337.5C 196.029,337.205 193.863,336.205 192,334.5C 191.289,332.633 191.789,331.133 193.5,330C 197.07,328.201 200.737,326.701 204.5,325.5 Z"/></g>
<g><path style="opacity:1" fill="#f787c1" d="M 243.5,325.5 C 260.153,329.163 276.819,332.829 293.5,336.5C 294.713,336.747 295.38,337.414 295.5,338.5C 290.778,346.359 283.778,349.693 274.5,348.5C 274.682,346.325 275.349,344.325 276.5,342.5C 275.59,338.733 273.424,337.733 270,339.5C 268.021,343.3 265.521,346.634 262.5,349.5C 256.611,345.031 250.278,344.364 243.5,347.5C 242.041,347.433 240.708,347.766 239.5,348.5C 235.833,348.5 232.167,348.5 228.5,348.5C 228.167,348.5 227.833,348.5 227.5,348.5C 221.979,347.404 217.313,344.738 213.5,340.5C 223.779,336.027 233.779,331.027 243.5,325.5 Z"/></g>
<g><path style="opacity:1" fill="#272739" d="M 464.5,338.5 C 472.492,337.154 477.492,340.32 479.5,348C 471.106,374.149 453.773,382.816 427.5,374C 420.708,371.105 414.375,367.438 408.5,363C 403.363,361.732 398.363,360.066 393.5,358C 390.89,354.342 391.724,351.509 396,349.5C 399.785,350.976 403.618,352.309 407.5,353.5C 413.403,348.713 420.07,345.213 427.5,343C 440.074,342.26 452.407,340.76 464.5,338.5 Z"/></g>
<g><path style="opacity:1" fill="#c14a80" d="M 213.5,340.5 C 217.313,344.738 221.979,347.404 227.5,348.5C 222.996,349.084 218.496,349.75 214,350.5C 200.361,347.58 200.194,344.247 213.5,340.5 Z"/></g>
<g><path style="opacity:1" fill="#f6bcba" d="M 331.5,341.5 C 333.333,348.813 335.5,356.146 338,363.5C 341.705,369.577 344.872,375.91 347.5,382.5C 347.426,384.411 346.426,385.578 344.5,386C 339.963,388.013 335.296,389.513 330.5,390.5C 329.46,384.617 328.293,378.617 327,372.5C 322.407,364.306 317.573,356.306 312.5,348.5C 319.127,346.738 325.461,344.405 331.5,341.5 Z"/></g>
<g><path style="opacity:1" fill="#262639" d="M 69.5,348.5 C 85.4764,349.572 98.9764,355.905 110,367.5C 114.409,375.244 120.242,381.744 127.5,387C 129.333,387.167 131.167,387.333 133,387.5C 137.869,386.855 142.702,386.355 147.5,386C 150.293,387.545 150.96,389.712 149.5,392.5C 147.78,393.934 145.78,394.767 143.5,395C 130.23,397.483 116.896,399.65 103.5,401.5C 75.7197,399.223 61.5531,384.223 61,356.5C 63.0982,352.897 65.9315,350.23 69.5,348.5 Z"/></g>
<g><path style="opacity:1" fill="#dce9f7" d="M 455.5,366.5 C 454.5,366.5 453.5,366.5 452.5,366.5C 452.675,364.379 452.341,362.379 451.5,360.5C 451.88,358.302 451.213,356.635 449.5,355.5C 448.432,354.566 447.099,354.232 445.5,354.5C 444.929,352.64 444.929,350.973 445.5,349.5C 453.98,349.629 462.313,348.629 470.5,346.5C 469.3,356.031 464.3,362.698 455.5,366.5 Z"/></g>
<g><path style="opacity:1" fill="#c1d3ef" d="M 445.5,349.5 C 444.929,350.973 444.929,352.64 445.5,354.5C 447.099,354.232 448.432,354.566 449.5,355.5C 439.181,356.434 428.847,356.601 418.5,356C 426.662,350.543 435.662,348.376 445.5,349.5 Z"/></g>
<g><path style="opacity:1" fill="#bb4579" d="M 228.5,348.5 C 232.167,348.5 235.833,348.5 239.5,348.5C 232.915,356.772 224.915,363.105 215.5,367.5C 215.5,364.167 215.5,360.833 215.5,357.5C 219.979,357.464 224.312,356.631 228.5,355C 229.768,352.837 229.768,350.67 228.5,348.5 Z"/></g>
<g><path style="opacity:1" fill="#b9cef3" d="M 78.5,358.5 C 79.1667,361.833 79.8333,365.167 80.5,368.5C 82.099,368.232 83.4324,368.566 84.5,369.5C 79.9315,369.083 78.4315,371.083 80,375.5C 86.9869,382.656 95.1535,387.989 104.5,391.5C 102.393,392.468 100.059,392.802 97.5,392.5C 87.0372,391.682 79.2039,386.682 74,377.5C 71.4705,372.412 69.6372,367.078 68.5,361.5C 70.5158,356.162 73.8491,355.162 78.5,358.5 Z"/></g>
<g><path style="opacity:1" fill="#c4447c" d="M 262.5,349.5 C 260.577,352.603 258.41,355.603 256,358.5C 251.331,362.003 247.164,366.003 243.5,370.5C 240.271,373.943 237.271,377.61 234.5,381.5C 228.328,380.012 226.328,382.345 228.5,388.5C 224.878,390.787 221.545,393.453 218.5,396.5C 216.84,394.752 214.84,394.252 212.5,395C 204.735,400.761 197.569,407.261 191,414.5C 194.357,401.3 201.191,390.133 211.5,381C 223.194,373.644 234.027,365.144 244,355.5C 246.107,352.629 245.941,349.963 243.5,347.5C 250.278,344.364 256.611,345.031 262.5,349.5 Z"/></g>
<g><path style="opacity:1" fill="#c4457c" d="M 276.5,371.5 C 269.196,370.698 261.862,370.365 254.5,370.5C 259.531,364.97 264.698,359.637 270,354.5C 273.33,355.977 276.83,356.811 280.5,357C 279.598,362.041 278.265,366.874 276.5,371.5 Z"/></g>
<g><path style="opacity:1" fill="#c4d5ee" d="M 451.5,360.5 C 452.341,362.379 452.675,364.379 452.5,366.5C 453.5,366.5 454.5,366.5 455.5,366.5C 446.096,370.631 436.763,370.131 427.5,365C 433.853,364.513 440.186,363.847 446.5,363C 448.503,362.665 450.17,361.832 451.5,360.5 Z"/></g>
<g><path style="opacity:1" fill="#ccdcf1" d="M 78.5,358.5 C 85.4926,359.885 91.8259,362.719 97.5,367C 103.309,372.963 108.642,379.296 113.5,386C 102.102,383.632 92.4355,378.132 84.5,369.5C 83.4324,368.566 82.099,368.232 80.5,368.5C 79.8333,365.167 79.1667,361.833 78.5,358.5 Z"/></g>
<g><path style="opacity:1" fill="#352b3f" d="M 234.5,381.5 C 236.313,387.346 234.313,389.68 228.5,388.5C 226.328,382.345 228.328,380.012 234.5,381.5 Z"/></g>
<g><path style="opacity:1" fill="#f882ba" d="M 243.5,370.5 C 243.352,373.352 244.686,375.019 247.5,375.5C 250.105,374.231 252.438,372.564 254.5,370.5C 261.862,370.365 269.196,370.698 276.5,371.5C 261.082,394.262 243.082,414.929 222.5,433.5C 222.389,432.883 222.056,432.383 221.5,432C 211.186,429.671 200.852,427.504 190.5,425.5C 199.172,416.663 208.339,408.33 218,400.5C 218.49,399.207 218.657,397.873 218.5,396.5C 221.545,393.453 224.878,390.787 228.5,388.5C 234.313,389.68 236.313,387.346 234.5,381.5C 237.271,377.61 240.271,373.943 243.5,370.5 Z"/></g>
<g><path style="opacity:1" fill="#f681b9" d="M 265.5,441.5 C 254.74,439.476 244.073,437.142 233.5,434.5C 251.349,417.325 267.349,398.658 281.5,378.5C 282.969,380.192 283.635,382.192 283.5,384.5C 280.688,404.597 274.688,423.597 265.5,441.5 Z"/></g>
<g><path style="opacity:1" fill="#747a8e" d="M 104.5,391.5 C 105.756,391.461 106.756,391.961 107.5,393C 103.973,393.808 100.64,393.641 97.5,392.5C 100.059,392.802 102.393,392.468 104.5,391.5 Z"/></g>
<g><path style="opacity:1" fill="#f0aeac" d="M 347.5,382.5 C 355.079,397.242 360.079,412.909 362.5,429.5C 362.719,430.675 362.386,431.675 361.5,432.5C 359.22,433.702 356.886,434.702 354.5,435.5C 349.428,425.69 343.595,416.357 337,407.5C 334.139,402.083 331.973,396.416 330.5,390.5C 335.296,389.513 339.963,388.013 344.5,386C 346.426,385.578 347.426,384.411 347.5,382.5 Z"/></g>
<g><path style="opacity:1" fill="#f77bb3" d="M 190.5,425.5 C 200.852,427.504 211.186,429.671 221.5,432C 222.056,432.383 222.389,432.883 222.5,433.5C 209.605,445.713 195.272,456.047 179.5,464.5C 178.891,454.686 180.058,445.019 183,435.5C 184.95,431.722 187.45,428.388 190.5,425.5 Z"/></g>
<g><path style="opacity:1" fill="#f77cb3" d="M 233.5,434.5 C 244.073,437.142 254.74,439.476 265.5,441.5C 257.252,459.477 245.919,475.31 231.5,489C 220.868,487.795 210.534,485.128 200.5,481C 194.167,478.562 188.167,475.562 182.5,472C 200.952,461.444 217.952,448.944 233.5,434.5 Z"/></g>
<g><path style="opacity:1" fill="#f67db4" d="M 290.5,391.5 C 293.081,394.32 294.914,397.654 296,401.5C 299.305,415.508 299.305,429.508 296,443.5C 291.27,462.124 283.436,479.291 272.5,495C 261.666,495.479 251,494.313 240.5,491.5C 266.708,463.084 283.375,429.751 290.5,391.5 Z"/></g>
<g><path style="opacity:1" fill="#f47bb2" d="M 306.5,424.5 C 316.204,447.031 320.87,470.698 320.5,495.5C 307.505,496.712 294.505,496.712 281.5,495.5C 295.993,474.02 304.327,450.354 306.5,424.5 Z"/></g>
<g><path style="opacity:1" fill="#ea9c99" d="M 362.5,429.5 C 363.914,436.387 365.414,443.387 367,450.5C 370.921,456.426 375.588,461.759 381,466.5C 385.184,472.569 386.851,479.235 386,486.5C 384.974,489.693 382.808,491.026 379.5,490.5C 379.666,485.489 379.499,480.489 379,475.5C 376.354,469.496 371.854,466.996 365.5,468C 363.062,470.295 361.562,473.128 361,476.5C 360,477.833 359,477.833 358,476.5C 358.855,466.873 359.189,457.206 359,447.5C 357.762,443.365 356.262,439.365 354.5,435.5C 356.886,434.702 359.22,433.702 361.5,432.5C 362.386,431.675 362.719,430.675 362.5,429.5 Z"/></g>
</svg>
