<?xml version="1.0" encoding="UTF-8"?>
<!DOCTYPE svg PUBLIC "-//W3C//DTD SVG 1.1//EN" "http://www.w3.org/Graphics/SVG/1.1/DTD/svg11.dtd">
<svg xmlns="http://www.w3.org/2000/svg" version="1.1" width="512px" height="512px" style="shape-rendering:geometricPrecision; text-rendering:geometricPrecision; image-rendering:optimizeQuality; fill-rule:evenodd; clip-rule:evenodd" xmlns:xlink="http://www.w3.org/1999/xlink">
<g><path style="opacity:1" fill="#262538" d="M 149.5,9.5 C 151.17,9.75115 152.67,10.4178 154,11.5C 153.898,17.8327 155.232,23.8327 158,29.5C 158.585,44.2401 151.419,50.7401 136.5,49C 136.579,41.3481 136.246,33.6814 135.5,26C 137.477,18.1913 142.144,12.6913 149.5,9.5 Z"/></g>
<g><path style="opacity:1" fill="#272638" d="M 58.5,29.5 C 65.7373,29.1876 71.9039,31.521 77,36.5C 79.1389,41.9161 81.4722,47.2495 84,52.5C 87.8807,55.2234 88.3807,58.3901 85.5,62C 67.3707,67.2052 58.5373,60.3719 59,41.5C 58.0299,39.0408 56.8632,36.7075 55.5,34.5C 55.7573,32.3076 56.7573,30.6409 58.5,29.5 Z"/></g>
<g><path style="opacity:1" fill="#d9a275" d="M 145.5,21.5 C 148.727,25.9612 150.227,30.9612 150,36.5C 148.972,38.3615 147.472,39.6948 145.5,40.5C 144.21,34.1115 144.21,27.7782 145.5,21.5 Z"/></g>
<g><path style="opacity:1" fill="#e1ab78" d="M 67.5,39.5 C 68.7942,40.2899 69.9609,41.2899 71,42.5C 72.5983,46.4612 74.0983,50.4612 75.5,54.5C 73.0508,55.9097 70.8841,55.5763 69,53.5C 67.6211,48.964 67.1211,44.2973 67.5,39.5 Z"/></g>
<g><path style="opacity:1" fill="#262537" d="M 206.5,56.5 C 212.037,56.0866 217.37,56.9199 222.5,59C 224.413,63.1067 223.246,65.9401 219,67.5C 217.015,74.6591 213.182,80.4924 207.5,85C 197.928,87.6985 190.261,85.0319 184.5,77C 185.022,76.4387 185.355,75.772 185.5,75C 192.374,68.6219 199.374,62.4552 206.5,56.5 Z"/></g>
<g><path style="opacity:1" fill="#282638" d="M 117.5,57.5 C 149.865,55.2547 173.031,68.588 187,97.5C 196.885,128.812 189.051,154.645 163.5,175C 138.248,190.52 113.248,190.187 88.5,174C 62.8106,152.41 55.9773,125.91 68,94.5C 78.1342,73.5183 94.6342,61.185 117.5,57.5 Z"/></g>
<g><path style="opacity:1" fill="#ef9474" d="M 147.5,69.5 C 126.475,75.672 105.475,81.0053 84.5,85.5C 97.5509,69.3071 114.551,62.8071 135.5,66C 139.625,66.8633 143.625,68.0299 147.5,69.5 Z"/></g>
<g><path style="opacity:1" fill="#e07b6a" d="M 208.5,64.5 C 209.376,64.3691 210.043,64.7025 210.5,65.5C 209.274,68.9518 207.774,72.2852 206,75.5C 203.225,78.6539 200.058,79.1539 196.5,77C 200.759,72.9114 204.759,68.7447 208.5,64.5 Z"/></g>
<g><path style="opacity:1" fill="#282739" d="M 399.5,73.5 C 418.029,70.8329 432.862,76.8329 444,91.5C 446.48,97.9488 449.147,104.282 452,110.5C 454.855,114.851 458.688,116.185 463.5,114.5C 465.029,114.529 466.196,115.196 467,116.5C 468.553,125.352 465.72,132.352 458.5,137.5C 461.583,144.074 462.25,150.908 460.5,158C 459.534,159.734 458.034,160.568 456,160.5C 452.834,159.578 449.667,159.078 446.5,159C 445.722,162.147 444.889,165.313 444,168.5C 423.869,171.56 419.702,181.394 431.5,198C 438.086,196.888 444.752,196.555 451.5,197C 456.812,198.072 461.312,200.572 465,204.5C 479.169,227.17 491.502,250.836 502,275.5C 502.734,280.027 502.067,284.361 500,288.5C 493.032,297.403 485.365,305.736 477,313.5C 477.207,325.544 475.374,337.377 471.5,349C 474.353,351.863 476.853,355.029 479,358.5C 487.225,387.526 490.392,417.026 488.5,447C 495.185,460.04 500.185,473.706 503.5,488C 502.004,497.923 496.337,501.589 486.5,499C 484.714,498.215 483.214,497.049 482,495.5C 469.24,503.687 456.906,503.021 445,493.5C 434.603,497.874 424.436,497.374 414.5,492C 410.934,488.434 407.434,484.934 404,481.5C 389.297,484.883 374.464,487.716 359.5,490C 350.806,490.582 342.139,490.248 333.5,489C 315.012,484.949 296.679,480.282 278.5,475C 238.831,467.049 200.998,472.215 165,490.5C 160.163,488.669 156.163,485.669 153,481.5C 147.915,475.003 143.582,468.003 140,460.5C 132.052,438.046 124.719,415.38 118,392.5C 115.779,386.39 112.779,380.723 109,375.5C 105.195,378.319 101.029,380.486 96.5,382C 78.88,382.753 62.2133,387.086 46.5,395C 31.5431,399.458 19.3765,395.291 10,382.5C 6.66667,376.167 6.66667,369.833 10,363.5C 23.9348,348.97 35.9348,332.97 46,315.5C 48.4892,281.011 66.9892,262.511 101.5,260C 109.527,254.817 116.527,248.483 122.5,241C 125.063,240.082 127.23,240.582 129,242.5C 130.774,249.607 131.941,256.774 132.5,264C 147.445,268.093 161.779,273.76 175.5,281C 176.124,285.489 176.458,289.989 176.5,294.5C 179.039,292.8 181.705,291.3 184.5,290C 186.971,289.294 189.305,289.627 191.5,291C 215.675,308.516 238.842,327.349 261,347.5C 264.176,342.643 266.176,337.31 267,331.5C 268.04,323.869 268.706,316.202 269,308.5C 274.413,288.873 287.247,280.373 307.5,283C 328.08,289.206 346.913,298.706 364,311.5C 364.072,289.898 365.572,268.398 368.5,247C 368.333,245.833 368.167,244.667 368,243.5C 362.361,237.764 355.528,234.264 347.5,233C 335.09,232.287 322.756,230.954 310.5,229C 305.398,227.411 300.565,225.245 296,222.5C 293.34,223.834 290.506,224.668 287.5,225C 281.167,225.667 274.833,225.667 268.5,225C 260.402,223.412 252.402,221.412 244.5,219C 233.544,217.483 222.544,217.15 211.5,218C 206.37,222.709 200.37,224.376 193.5,223C 188.5,220 183.5,217 178.5,214C 172.856,212.559 167.189,211.226 161.5,210C 154.64,202.903 155.306,196.569 163.5,191C 177.51,190.906 191.51,191.406 205.5,192.5C 227.155,191.389 248.822,191.222 270.5,192C 292.81,194.08 315.143,195.914 337.5,197.5C 347.021,196.64 356.521,195.64 366,194.5C 370.955,194.408 375.788,195.074 380.5,196.5C 384.512,194.117 388.845,193.117 393.5,193.5C 393.665,189.818 393.499,186.152 393,182.5C 387.115,186.465 381.281,186.299 375.5,182C 373.959,180.421 372.792,178.587 372,176.5C 368.297,163.412 366.13,150.078 365.5,136.5C 357.48,138.37 350.314,136.703 344,131.5C 343.333,129.833 343.333,128.167 344,126.5C 346.762,125.019 349.429,123.353 352,121.5C 354.614,115.716 356.614,109.716 358,103.5C 362.147,96.5055 368.314,92.6722 376.5,92C 381.082,81.91 388.749,75.7434 399.5,73.5 Z M 456.5,260.5 C 460.637,266.155 464.637,271.988 468.5,278C 465.042,283.082 461.709,288.248 458.5,293.5C 453.811,289.778 449.811,285.445 446.5,280.5C 449.847,273.807 453.18,267.14 456.5,260.5 Z"/></g>
<g><path style="opacity:1" fill="#f28a6f" d="M 147.5,69.5 C 153.634,71.6495 158.967,74.9828 163.5,79.5C 134.377,87.7835 105.044,95.7835 75.5,103.5C 74.7025,103.043 74.3691,102.376 74.5,101.5C 76.3353,95.1484 79.6687,89.815 84.5,85.5C 105.475,81.0053 126.475,75.672 147.5,69.5 Z"/></g>
<g><path style="opacity:1" fill="#f5d66f" d="M 412.5,81.5 C 413.317,83.3077 412.65,84.8077 410.5,86C 393.833,100 377.167,114 360.5,128C 359.251,128.74 358.251,128.573 357.5,127.5C 358.657,125.862 359.824,124.196 361,122.5C 362.542,117.116 364.209,111.783 366,106.5C 370.265,101.408 375.765,99.2412 382.5,100C 384.464,90.036 390.464,84.036 400.5,82C 404.486,81.5012 408.486,81.3345 412.5,81.5 Z"/></g>
<g><path style="opacity:1" fill="#f7d06a" d="M 412.5,81.5 C 419.719,82.2823 426.053,84.9489 431.5,89.5C 422.153,98.178 412.487,106.511 402.5,114.5C 398.69,112.69 394.69,112.19 390.5,113C 380.885,116.471 372.218,121.471 364.5,128C 361.857,129.436 359.19,129.602 356.5,128.5C 356.624,127.893 356.957,127.56 357.5,127.5C 358.251,128.573 359.251,128.74 360.5,128C 377.167,114 393.833,100 410.5,86C 412.65,84.8077 413.317,83.3077 412.5,81.5 Z"/></g>
<g><path style="opacity:1" fill="#f27e6f" d="M 163.5,79.5 C 168.535,83.2073 172.535,87.874 175.5,93.5C 140.458,102.344 105.458,111.344 70.5,120.5C 70.3192,113.731 71.6526,107.398 74.5,101.5C 74.3691,102.376 74.7025,103.043 75.5,103.5C 105.044,95.7835 134.377,87.7835 163.5,79.5 Z"/></g>
<g><path style="opacity:1" fill="#f27569" d="M 175.5,93.5 C 177.008,95.1815 178.008,97.1815 178.5,99.5C 142.601,109.142 106.601,118.475 70.5,127.5C 70.5,125.167 70.5,122.833 70.5,120.5C 105.458,111.344 140.458,102.344 175.5,93.5 Z"/></g>
<g><path style="opacity:1" fill="#262537" d="M 25.5,96.5 C 32.3026,96.5597 38.636,98.393 44.5,102C 47.8642,102.727 51.1975,103.56 54.5,104.5C 54.7172,114.803 49.5505,120.803 39,122.5C 31.8991,121.196 26.0658,117.696 21.5,112C 19.0481,111.71 16.7148,111.044 14.5,110C 13.4238,108.274 13.2571,106.441 14,104.5C 17.4821,101.161 21.3155,98.4942 25.5,96.5 Z"/></g>
<g><path style="opacity:1" fill="#f8c260" d="M 431.5,89.5 C 437.138,94.1101 440.138,100.11 440.5,107.5C 431.181,114.821 422.181,122.488 413.5,130.5C 412.07,130.421 410.736,130.754 409.5,131.5C 408.676,128.215 408.176,124.882 408,121.5C 406.334,119.004 404.5,116.671 402.5,114.5C 412.487,106.511 422.153,98.178 431.5,89.5 Z"/></g>
<g><path style="opacity:1" fill="#e6836c" d="M 26.5,104.5 C 32.7589,105.789 38.7589,107.956 44.5,111C 41.9684,113.415 38.9684,114.081 35.5,113C 31.9528,110.616 28.9528,107.783 26.5,104.5 Z"/></g>
<g><path style="opacity:1" fill="#f86b69" d="M 178.5,99.5 C 180.336,104.334 181.669,109.334 182.5,114.5C 181.85,114.196 181.183,113.863 180.5,113.5C 144.956,122.883 109.623,132.55 74.5,142.5C 72.409,137.809 71.0756,132.809 70.5,127.5C 106.601,118.475 142.601,109.142 178.5,99.5 Z"/></g>
<g><path style="opacity:1" fill="#f7b65a" d="M 440.5,107.5 C 443.067,112.404 446.401,116.737 450.5,120.5C 450.389,121.117 450.056,121.617 449.5,122C 445.57,122.041 441.737,122.207 438,122.5C 438.236,125.972 438.736,129.472 439.5,133C 440.06,136.441 438.727,137.774 435.5,137C 432.352,133.338 428.352,131.505 423.5,131.5C 420.236,130.676 416.902,130.342 413.5,130.5C 422.181,122.488 431.181,114.821 440.5,107.5 Z"/></g>
<g><path style="opacity:1" fill="#e96f50" d="M 450.5,120.5 C 453.024,122.015 455.69,123.348 458.5,124.5C 456.95,128.614 453.95,130.78 449.5,131C 448.196,131.804 447.529,132.971 447.5,134.5C 449.57,137.636 451.404,140.969 453,144.5C 453.814,146.902 453.647,149.235 452.5,151.5C 448.597,149.914 444.597,149.081 440.5,149C 438.304,152.801 437.304,156.967 437.5,161.5C 430.945,162.528 425.445,165.528 421,170.5C 419.71,165.89 419.376,161.223 420,156.5C 428.986,151.212 431.319,143.879 427,134.5C 425.855,133.364 424.688,132.364 423.5,131.5C 428.352,131.505 432.352,133.338 435.5,137C 438.727,137.774 440.06,136.441 439.5,133C 438.736,129.472 438.236,125.972 438,122.5C 441.737,122.207 445.57,122.041 449.5,122C 450.056,121.617 450.389,121.117 450.5,120.5 Z"/></g>
<g><path style="opacity:1" fill="#f95f65" d="M 182.5,114.5 C 182.726,119.562 182.392,124.562 181.5,129.5C 148.852,137.996 116.185,146.496 83.5,155C 82.944,155.383 82.6107,155.883 82.5,156.5C 78.8255,152.493 76.1588,147.827 74.5,142.5C 109.623,132.55 144.956,122.883 180.5,113.5C 181.183,113.863 181.85,114.196 182.5,114.5 Z"/></g>
<g><path style="opacity:1" fill="#262538" d="M 200.5,129.5 C 207.218,131.721 214.051,132.054 221,130.5C 230.927,131.43 236.594,136.763 238,146.5C 236.121,149.682 233.455,150.349 230,148.5C 224.858,150.769 219.525,152.436 214,153.5C 205.92,152.755 200.92,148.422 199,140.5C 198.013,136.525 198.513,132.859 200.5,129.5 Z"/></g>
<g><path style="opacity:1" fill="#f95263" d="M 181.5,129.5 C 180.905,135.559 179.238,141.225 176.5,146.5C 176.44,145.957 176.107,145.624 175.5,145.5C 148.345,152.703 121.345,160.036 94.5,167.5C 89.8744,164.542 85.8744,160.876 82.5,156.5C 82.6107,155.883 82.944,155.383 83.5,155C 116.185,146.496 148.852,137.996 181.5,129.5 Z"/></g>
<g><path style="opacity:1" fill="#e7475f" d="M 214.5,138.5 C 218.869,137.923 222.869,138.757 226.5,141C 221.501,143.891 216.167,144.891 210.5,144C 209.257,142.846 208.257,141.512 207.5,140C 210.036,139.814 212.369,139.314 214.5,138.5 Z"/></g>
<g><path style="opacity:1" fill="#f2b2af" d="M 414.5,150.5 C 405.682,149.507 396.682,149.173 387.5,149.5C 391.147,148.029 392.147,145.529 390.5,142C 383.395,140.331 380.728,142.831 382.5,149.5C 379.941,149.198 377.607,149.532 375.5,150.5C 373.636,144.075 373.136,137.408 374,130.5C 380.031,125.818 386.698,122.484 394,120.5C 397.721,120.221 400.055,121.888 401,125.5C 401.333,130.5 401.667,135.5 402,140.5C 403.185,142.844 405.018,143.677 407.5,143C 411.076,137.498 415.576,136.332 421,139.5C 422.018,144.994 419.852,148.661 414.5,150.5 Z"/></g>
<g><path style="opacity:1" fill="#2a283a" d="M 387.5,149.5 C 385.833,149.5 384.167,149.5 382.5,149.5C 380.728,142.831 383.395,140.331 390.5,142C 392.147,145.529 391.147,148.029 387.5,149.5 Z"/></g>
<g><path style="opacity:1" fill="#f84762" d="M 176.5,146.5 C 169.679,161.933 158.012,171.767 141.5,176C 129.264,178.561 117.264,177.894 105.5,174C 101.44,172.311 97.7734,170.144 94.5,167.5C 121.345,160.036 148.345,152.703 175.5,145.5C 176.107,145.624 176.44,145.957 176.5,146.5 Z"/></g>
<g><path style="opacity:1" fill="#272538" d="M 61.5,160.5 C 66.4523,160.675 68.9523,163.342 69,168.5C 70.0748,183.744 62.9082,190.577 47.5,189C 45.0261,189.113 43.0261,190.113 41.5,192C 36.6791,192.675 34.6791,190.509 35.5,185.5C 35.4114,177.831 38.7447,172.331 45.5,169C 51.9017,167.94 57.235,165.107 61.5,160.5 Z"/></g>
<g><path style="opacity:1" fill="#f6c4c3" d="M 382.5,149.5 C 384.167,149.5 385.833,149.5 387.5,149.5C 396.682,149.173 405.682,149.507 414.5,150.5C 413.828,151.267 412.995,151.934 412,152.5C 411.939,157.276 410.439,161.443 407.5,165C 400.438,169.781 392.938,173.614 385,176.5C 382.966,176.646 381.299,175.98 380,174.5C 377.789,166.614 376.289,158.614 375.5,150.5C 377.607,149.532 379.941,149.198 382.5,149.5 Z"/></g>
<g><path style="opacity:1" fill="#ce727f" d="M 413.5,176.5 C 409.909,180.299 405.909,183.633 401.5,186.5C 401.18,183.102 401.513,179.768 402.5,176.5C 406.165,175.003 409.498,173.003 412.5,170.5C 413.466,172.396 413.799,174.396 413.5,176.5 Z"/></g>
<g><path style="opacity:1" fill="#ec4a60" d="M 60.5,171.5 C 61.3895,178.107 58.2228,181.107 51,180.5C 49.1667,180.167 47.3333,179.833 45.5,179.5C 50.3149,176.453 55.3149,173.787 60.5,171.5 Z"/></g>
<g><path style="opacity:1" fill="#262537" d="M 110.5,192.5 C 122.546,194.377 128.046,201.377 127,213.5C 124.443,218.723 121.109,223.39 117,227.5C 116.091,235.012 112.757,236.346 107,231.5C 104.215,227.762 102.382,223.596 101.5,219C 104.98,210.233 107.98,201.4 110.5,192.5 Z"/></g>
<g><path style="opacity:1" fill="#f6c6c5" d="M 413.5,176.5 C 415.929,184.934 419.262,193.1 423.5,201C 420.898,201.977 418.398,203.144 416,204.5C 414.707,207.862 415.707,209.862 419,210.5C 423.58,209.685 428.08,208.685 432.5,207.5C 433.873,207.343 435.207,207.51 436.5,208C 426.573,211.476 416.573,214.643 406.5,217.5C 404.401,212.714 402.568,207.714 401,202.5C 400.831,197.172 400.998,191.838 401.5,186.5C 405.909,183.633 409.909,180.299 413.5,176.5 Z"/></g>
<g><path style="opacity:1" fill="#f0aca9" d="M 272.5,200.5 C 271.487,206.23 271.487,211.897 272.5,217.5C 263.695,215.965 255.028,213.799 246.5,211C 233.559,208.214 220.559,207.88 207.5,210C 204.812,212.694 201.645,214.527 198,215.5C 192.185,212.363 186.351,209.197 180.5,206C 175.886,204.786 171.22,203.786 166.5,203C 165.62,201.644 165.286,200.144 165.5,198.5C 178.649,199.42 191.816,200.087 205,200.5C 227.525,199.319 250.025,199.319 272.5,200.5 Z"/></g>
<g><path style="opacity:1" fill="#f7c7c5" d="M 328.5,223.5 C 329.363,217.545 329.697,211.545 329.5,205.5C 336.508,205.666 343.508,205.5 350.5,205C 359.031,202.309 367.698,201.809 376.5,203.5C 374.504,213.816 372.504,224.149 370.5,234.5C 358.021,225.303 344.021,221.636 328.5,223.5 Z"/></g>
<g><path style="opacity:1" fill="#e8375a" d="M 115.5,203.5 C 119.465,206.028 120.299,209.362 118,213.5C 115.667,216.167 113.333,218.833 111,221.5C 110.333,219.167 110.333,216.833 111,214.5C 113.066,211.039 114.566,207.373 115.5,203.5 Z"/></g>
<g><path style="opacity:1" fill="#f6bcba" d="M 272.5,200.5 C 291.545,201.756 310.545,203.423 329.5,205.5C 329.697,211.545 329.363,217.545 328.5,223.5C 324.418,223.656 320.418,223.156 316.5,222C 309.425,219.867 302.592,217.367 296,214.5C 288.345,216.847 280.512,217.847 272.5,217.5C 271.487,211.897 271.487,206.23 272.5,200.5 Z"/></g>
<g><path style="opacity:1" fill="#f8bcb9" d="M 467.5,225.5 C 461.198,228.602 454.531,230.936 447.5,232.5C 446.137,229.338 445.303,226.004 445,222.5C 442.408,221.018 440.075,221.352 438,223.5C 437.57,226.192 437.737,228.859 438.5,231.5C 438.149,236.5 438.816,241.333 440.5,246C 439.587,249.992 437.754,253.492 435,256.5C 426.926,247.269 419.093,237.935 411.5,228.5C 409.261,225.125 407.594,221.459 406.5,217.5C 416.573,214.643 426.573,211.476 436.5,208C 435.207,207.51 433.873,207.343 432.5,207.5C 442.603,202.36 451.769,203.694 460,211.5C 462.78,216.062 465.28,220.728 467.5,225.5 Z"/></g>
<g><path style="opacity:1" fill="#e7ebf7" d="M 407.5,239.5 C 403.432,243.899 398.765,247.565 393.5,250.5C 387.12,235.298 384.786,219.465 386.5,203C 388.769,202.242 390.936,202.409 393,203.5C 397.155,215.804 401.988,227.804 407.5,239.5 Z"/></g>
<g><path style="opacity:1" fill="#f3b0ad" d="M 467.5,225.5 C 472.672,233.84 477.338,242.507 481.5,251.5C 476.652,254.454 471.319,256.454 465.5,257.5C 459.267,249.381 453.267,241.048 447.5,232.5C 454.531,230.936 461.198,228.602 467.5,225.5 Z"/></g>
<g><path style="opacity:1" fill="#d67581" d="M 411.5,228.5 C 419.093,237.935 426.926,247.269 435,256.5C 437.754,253.492 439.587,249.992 440.5,246C 438.816,241.333 438.149,236.5 438.5,231.5C 442.134,238.663 446.467,245.497 451.5,252C 447.801,259.23 443.968,266.397 440,273.5C 428.48,259.795 418.98,244.795 411.5,228.5 Z"/></g>
<g><path style="opacity:1" fill="#e1ebf8" d="M 146.5,309.5 C 139.286,326.26 131.286,342.594 122.5,358.5C 122.348,354.513 120.348,353.013 116.5,354C 113.667,357.5 110.833,361 108,364.5C 105.079,368.092 101.579,370.925 97.5,373C 86.2356,375.329 74.9023,377.329 63.5,379C 55.7217,381.723 48.055,384.723 40.5,388C 35.2317,389.068 30.2317,388.401 25.5,386C 22.6667,383.167 19.8333,380.333 17,377.5C 15.5783,374.97 15.245,372.303 16,369.5C 24.0843,361.42 31.4176,352.753 38,343.5C 46.1,328.477 56.2667,314.977 68.5,303C 73.7733,299.02 79.6066,296.186 86,294.5C 85.8922,290.843 85.8922,287.177 86,283.5C 87.3333,281.5 88.6667,279.5 90,277.5C 101.634,270.598 112.468,262.598 122.5,253.5C 124.829,267.53 120.996,279.53 111,289.5C 108.855,291.895 109.022,294.062 111.5,296C 124.916,296.3 136.582,300.8 146.5,309.5 Z"/></g>
<g><path style="opacity:1" fill="#d9e0f8" d="M 407.5,239.5 C 416.019,253.692 425.352,267.359 435.5,280.5C 435.079,282.91 433.746,284.743 431.5,286C 427.266,289.082 422.933,291.916 418.5,294.5C 413.119,288.454 408.119,282.121 403.5,275.5C 399.01,267.709 395.676,259.376 393.5,250.5C 398.765,247.565 403.432,243.899 407.5,239.5 Z"/></g>
<g><path style="opacity:1" fill="#efa29f" d="M 481.5,251.5 C 485.008,257.182 488.008,263.182 490.5,269.5C 487.996,274.928 483.663,277.595 477.5,277.5C 473.5,270.833 469.5,264.167 465.5,257.5C 471.319,256.454 476.652,254.454 481.5,251.5 Z"/></g>
<g><path style="opacity:1" fill="#d57481" d="M 490.5,269.5 C 493.36,273.662 494.193,278.328 493,283.5C 486.54,291.629 479.706,299.463 472.5,307C 468.797,306.66 466.131,304.66 464.5,301C 468.977,293.209 473.311,285.375 477.5,277.5C 483.663,277.595 487.996,274.928 490.5,269.5 Z"/></g>
<g><path style="opacity:1" fill="#eed672" d="M 82.5,271.5 C 83.552,271.351 84.552,271.517 85.5,272C 79.9968,276.508 77.3301,282.342 77.5,289.5C 69.4536,292.378 62.6203,297.045 57,303.5C 58.9697,287.691 67.4697,277.024 82.5,271.5 Z"/></g>
<g><path style="opacity:1" fill="#f5cc69" d="M 165.5,306.5 C 165.539,309.089 164.539,311.089 162.5,312.5C 156.044,307.1 149.378,301.934 142.5,297C 135.992,293.668 129.326,290.835 122.5,288.5C 125.537,283.894 127.703,278.894 129,273.5C 132.111,272.707 135.277,272.874 138.5,274C 148.035,277.345 157.368,281.178 166.5,285.5C 166.833,286.833 167.167,288.167 167.5,289.5C 166.311,295.11 165.644,300.777 165.5,306.5 Z"/></g>
<g><path style="opacity:1" fill="#cdd7f8" d="M 435.5,280.5 C 441.137,287.142 446.804,293.808 452.5,300.5C 451.579,305.014 450.079,309.348 448,313.5C 445.083,315.393 441.916,315.893 438.5,315C 430.96,308.961 424.293,302.127 418.5,294.5C 422.933,291.916 427.266,289.082 431.5,286C 433.746,284.743 435.079,282.91 435.5,280.5 Z"/></g>
<g><path style="opacity:1" fill="#d3d9f0" d="M 387.5,317.5 C 387.483,319.028 386.816,319.528 385.5,319C 381.492,315.335 377.159,312.168 372.5,309.5C 371.957,291.34 373.123,273.34 376,255.5C 378.356,276.447 382.189,297.113 387.5,317.5 Z"/></g>
<g><path style="opacity:1" fill="#f5da72" d="M 325.5,298.5 C 323.212,302.456 320.212,305.789 316.5,308.5C 298.51,309.658 289.01,319.325 288,337.5C 282.246,358.521 271.746,376.688 256.5,392C 246.004,390.077 239.004,394.077 235.5,404C 236.447,407.072 238.447,408.072 241.5,407C 247.07,397.182 252.903,397.015 259,406.5C 259.967,419.112 254.134,424.612 241.5,423C 226.195,417.423 222.029,407.256 229,392.5C 261.737,374.714 277.737,347.047 277,309.5C 281.982,293.922 292.482,288.089 308.5,292C 314.461,293.704 320.128,295.871 325.5,298.5 Z"/></g>
<g><path style="opacity:1" fill="#888fc3" d="M 386.5,257.5 C 392.314,272.127 399.481,286.127 408,299.5C 411.55,302.543 414.05,301.877 415.5,297.5C 410.984,290.47 406.984,283.136 403.5,275.5C 408.119,282.121 413.119,288.454 418.5,294.5C 424.293,302.127 430.96,308.961 438.5,315C 441.916,315.893 445.083,315.393 448,313.5C 450.079,309.348 451.579,305.014 452.5,300.5C 458.871,305.704 464.371,311.704 469,318.5C 469.667,320.833 469.667,323.167 469,325.5C 467.379,331.893 465.545,338.226 463.5,344.5C 454.105,338.277 445.438,331.11 437.5,323C 434.143,321.859 432.143,323.025 431.5,326.5C 432.897,329.406 434.897,331.906 437.5,334C 443.09,338.281 448.423,342.781 453.5,347.5C 444.833,353.167 436.167,358.833 427.5,364.5C 420.171,357.338 412.671,350.338 405,343.5C 403.395,339.515 401.895,335.515 400.5,331.5C 406.829,336.497 412.829,341.831 418.5,347.5C 419.665,339.187 419.832,330.853 419,322.5C 401.806,304.111 390.972,282.444 386.5,257.5 Z"/></g>
<g><path style="opacity:1" fill="#27273a" d="M 420.5,308.5 C 426.488,308.664 427.821,311.164 424.5,316C 418.403,316.147 417.07,313.647 420.5,308.5 Z"/></g>
<g><path style="opacity:1" fill="#f7c160" d="M 217.5,321.5 C 213.498,330.181 208.498,338.181 202.5,345.5C 188.559,335.225 175.226,324.225 162.5,312.5C 164.539,311.089 165.539,309.089 165.5,306.5C 167.068,307.473 168.735,307.64 170.5,307C 175.781,303.776 181.281,300.943 187,298.5C 197.665,305.574 207.832,313.241 217.5,321.5 Z"/></g>
<g><path style="opacity:1" fill="#ced8f7" d="M 386.5,257.5 C 390.972,282.444 401.806,304.111 419,322.5C 419.832,330.853 419.665,339.187 418.5,347.5C 412.829,341.831 406.829,336.497 400.5,331.5C 390.247,303.4 384.413,274.4 383,244.5C 384.327,248.809 385.494,253.142 386.5,257.5 Z"/></g>
<g><path style="opacity:1" fill="#f7dd74" d="M 367.5,348.5 C 361.426,354.91 354.76,360.577 347.5,365.5C 340.659,360.165 333.659,354.998 326.5,350C 321.333,348.5 319.5,350.333 321,355.5C 328.306,360.315 335.139,365.649 341.5,371.5C 337.153,375.845 332.486,379.845 327.5,383.5C 321.043,378.883 314.71,374.049 308.5,369C 305.144,367.969 303.144,369.136 302.5,372.5C 302.529,374.029 303.196,375.196 304.5,376C 316.714,384.612 328.381,393.946 339.5,404C 331.168,411.191 322.168,412.191 312.5,407C 304.637,400.909 296.637,395.076 288.5,389.5C 285.025,390.143 283.859,392.143 285,395.5C 291.167,400.333 297.333,405.167 303.5,410C 296.641,416.125 288.641,418.125 279.5,416C 270.562,412.893 264.895,406.727 262.5,397.5C 281.215,377.404 293.048,353.737 298,326.5C 301.907,318.189 308.407,315.023 317.5,317C 335.412,325.775 352.079,336.275 367.5,348.5 Z"/></g>
<g><path style="opacity:1" fill="#f5d16c" d="M 325.5,298.5 C 342.191,306.17 357.525,315.836 371.5,327.5C 369.138,330.192 366.804,332.859 364.5,335.5C 349.664,324.416 333.664,315.416 316.5,308.5C 320.212,305.789 323.212,302.456 325.5,298.5 Z"/></g>
<g><path style="opacity:1" fill="#8d92c2" d="M 372.5,309.5 C 377.159,312.168 381.492,315.335 385.5,319C 386.816,319.528 387.483,319.028 387.5,317.5C 389.149,322.052 390.816,326.719 392.5,331.5C 391.998,332.521 391.332,332.688 390.5,332C 385.118,326.895 379.285,322.395 373,318.5C 372.502,315.518 372.335,312.518 372.5,309.5 Z"/></g>
<g><path style="opacity:1" fill="#f8b75a" d="M 217.5,321.5 C 228.746,329.41 239.079,338.41 248.5,348.5C 243.798,356.871 236.798,362.205 227.5,364.5C 218.859,358.519 210.525,352.186 202.5,345.5C 208.498,338.181 213.498,330.181 217.5,321.5 Z"/></g>
<g><path style="opacity:1" fill="#323244" d="M 74.5,322.5 C 77.8641,321.873 79.8641,323.206 80.5,326.5C 79.09,329.995 76.7566,332.662 73.5,334.5C 71.6251,333.46 70.2918,331.96 69.5,330C 71.2949,327.574 72.9616,325.074 74.5,322.5 Z"/></g>
<g><path style="opacity:1" fill="#dae6f9" d="M 146.5,309.5 C 170.276,330.286 194.609,350.286 219.5,369.5C 201.785,405.93 183.785,442.264 165.5,478.5C 165.043,479.298 164.376,479.631 163.5,479.5C 156.634,473.461 151.468,466.128 148,457.5C 140.201,436.103 133.201,414.436 127,392.5C 124.013,383.693 119.847,375.526 114.5,368C 117.002,364.667 119.668,361.501 122.5,358.5C 131.286,342.594 139.286,326.26 146.5,309.5 Z"/></g>
<g><path style="opacity:1" fill="#f5c664" d="M 371.5,327.5 C 379.937,333.425 388.271,339.591 396.5,346C 403.337,351.671 409.671,357.838 415.5,364.5C 413.528,368.105 410.861,371.105 407.5,373.5C 393.735,360.061 379.402,347.394 364.5,335.5C 366.804,332.859 369.138,330.192 371.5,327.5 Z"/></g>
<g><path style="opacity:1" fill="#e36f50" d="M 248.5,348.5 C 252.08,350.408 255.08,353.074 257.5,356.5C 253.436,363.069 248.436,368.903 242.5,374C 241.5,374.667 240.5,374.667 239.5,374C 235.249,371.055 231.249,367.888 227.5,364.5C 236.798,362.205 243.798,356.871 248.5,348.5 Z"/></g>
<g><path style="opacity:1" fill="#7a86bd" d="M 453.5,347.5 C 458.769,350.922 463.936,354.589 469,358.5C 471.047,361.964 472.713,365.63 474,369.5C 478.492,390.609 480.826,411.943 481,433.5C 466.06,408.301 448.226,385.301 427.5,364.5C 436.167,358.833 444.833,353.167 453.5,347.5 Z"/></g>
<g><path style="opacity:1" fill="#f8d46c" d="M 367.5,348.5 C 376.578,355.369 385.245,362.702 393.5,370.5C 387.245,376.631 380.578,382.298 373.5,387.5C 364.793,380.156 356.127,372.823 347.5,365.5C 354.76,360.577 361.426,354.91 367.5,348.5 Z"/></g>
<g><path style="opacity:1" fill="#d2dff8" d="M 219.5,369.5 C 224.498,372.336 229.165,375.669 233.5,379.5C 215.454,391.05 212.788,405.384 225.5,422.5C 229.18,431.676 235.847,437.51 245.5,440C 250.5,440.667 255.5,440.667 260.5,440C 266.51,438.659 272.51,437.659 278.5,437C 288.472,446.13 297.472,455.964 305.5,466.5C 306.945,469.118 308.611,471.618 310.5,474C 310.272,474.399 309.938,474.565 309.5,474.5C 295.062,470.391 280.396,467.225 265.5,465C 231.27,460.048 198.603,465.048 167.5,480C 165.934,480.765 164.601,480.598 163.5,479.5C 164.376,479.631 165.043,479.298 165.5,478.5C 183.785,442.264 201.785,405.93 219.5,369.5 Z"/></g>
<g><path style="opacity:1" fill="#f7c765" d="M 393.5,370.5 C 402.421,378.365 410.421,387.032 417.5,396.5C 412.536,402.46 406.87,407.793 400.5,412.5C 391.173,404.506 382.173,396.173 373.5,387.5C 380.578,382.298 387.245,376.631 393.5,370.5 Z"/></g>
<g><path style="opacity:1" fill="#f6ba5c" d="M 415.5,364.5 C 428.944,376.273 440.944,389.273 451.5,403.5C 448.871,407.463 445.871,411.129 442.5,414.5C 431.237,400.564 419.571,386.898 407.5,373.5C 410.861,371.105 413.528,368.105 415.5,364.5 Z"/></g>
<g><path style="opacity:1" fill="#f6d06b" d="M 341.5,371.5 C 356.194,382.349 370.194,394.182 383.5,407C 373.272,414.569 363.272,414.236 353.5,406C 345.231,397.888 336.565,390.388 327.5,383.5C 332.486,379.845 337.153,375.845 341.5,371.5 Z"/></g>
<g><path style="opacity:1" fill="#f6bc5d" d="M 417.5,396.5 C 424.531,403.543 430.864,411.21 436.5,419.5C 434.543,421.485 432.21,422.985 429.5,424C 417.369,426.264 407.702,422.431 400.5,412.5C 406.87,407.793 412.536,402.46 417.5,396.5 Z"/></g>
<g><path style="opacity:1" fill="#e1684b" d="M 344.5,409.5 C 349.821,413.164 355.488,416.33 361.5,419C 370.898,420.803 379.565,419.136 387.5,414C 388.5,413.333 389.5,413.333 390.5,414C 412.146,434.838 428.646,459.005 440,486.5C 432.053,489.735 424.553,488.901 417.5,484C 405.633,468.432 394.133,452.599 383,436.5C 380.768,433.341 378.101,430.674 375,428.5C 371.795,429.798 370.795,432.132 372,435.5C 381.901,447.636 391.068,460.303 399.5,473.5C 388.326,478.009 379.16,475.342 372,465.5C 360.72,449.22 349.053,433.22 337,417.5C 336.251,416.365 336.417,415.365 337.5,414.5C 340.43,413.547 342.763,411.88 344.5,409.5 Z"/></g>
<g><path style="opacity:1" fill="#e56e50" d="M 308.5,414.5 C 314.577,416.829 320.91,417.996 327.5,418C 333.409,425.153 339.075,432.486 344.5,440C 337.215,443.326 329.882,443.326 322.5,440C 316.333,433.833 310.167,427.667 304,421.5C 303.333,420.833 303.333,420.167 304,419.5C 305.758,417.917 307.258,416.25 308.5,414.5 Z"/></g>
<g><path style="opacity:1" fill="#9196c6" d="M 322.5,448.5 C 317.578,454.253 312.078,459.586 306,464.5C 305.536,465.094 305.369,465.761 305.5,466.5C 297.472,455.964 288.472,446.13 278.5,437C 272.51,437.659 266.51,438.659 260.5,440C 255.5,440.667 250.5,440.667 245.5,440C 235.847,437.51 229.18,431.676 225.5,422.5C 234.993,430.86 245.66,432.693 257.5,428C 261.003,424.992 264.003,421.492 266.5,417.5C 275.179,424.084 284.845,426.251 295.5,424C 303.773,433.112 312.773,441.279 322.5,448.5 Z"/></g>
<g><path style="opacity:1" fill="#f4ac52" d="M 451.5,403.5 C 469.883,425.248 483.383,449.915 492,477.5C 493.484,481.754 494.151,486.087 494,490.5C 491.733,491.935 489.733,491.602 488,489.5C 475.347,462.841 460.181,437.841 442.5,414.5C 445.871,411.129 448.871,407.463 451.5,403.5 Z"/></g>
<g><path style="opacity:1" fill="#dd634a" d="M 439.5,426.5 C 441.91,426.921 443.743,428.254 445,430.5C 457.175,448.842 468.342,467.842 478.5,487.5C 476.543,489.485 474.21,490.985 471.5,492C 462.645,494.255 455.145,492.088 449,485.5C 440.651,466.624 430.151,449.124 417.5,433C 422.21,432.625 426.877,431.958 431.5,431C 434.684,430.246 437.351,428.746 439.5,426.5 Z"/></g>
<g><path style="opacity:1" fill="#848dbf" d="M 309.5,474.5 C 309.938,474.565 310.272,474.399 310.5,474C 308.611,471.618 306.945,469.118 305.5,466.5C 305.369,465.761 305.536,465.094 306,464.5C 312.078,459.586 317.578,454.253 322.5,448.5C 331.609,451.599 340.442,450.933 349,446.5C 355.245,454.657 361.245,462.99 367,471.5C 369.537,474.372 372.37,476.872 375.5,479C 372.529,479.794 369.529,480.461 366.5,481C 355.5,481.667 344.5,481.667 333.5,481C 325.132,479.744 317.132,477.577 309.5,474.5 Z"/></g>
</svg>
