<?xml version="1.0" encoding="UTF-8"?>
<!DOCTYPE svg PUBLIC "-//W3C//DTD SVG 1.1//EN" "http://www.w3.org/Graphics/SVG/1.1/DTD/svg11.dtd">
<svg xmlns="http://www.w3.org/2000/svg" version="1.1" width="512px" height="512px" style="shape-rendering:geometricPrecision; text-rendering:geometricPrecision; image-rendering:optimizeQuality; fill-rule:evenodd; clip-rule:evenodd" xmlns:xlink="http://www.w3.org/1999/xlink">
<g><path style="opacity:1" fill="#282739" d="M 391.5,1.5 C 404.819,0.319174 410.319,6.31917 408,19.5C 391.457,37.0682 379.457,57.4016 372,80.5C 368.544,94.506 367.71,108.673 369.5,123C 368.935,134.549 367.935,146.049 366.5,157.5C 372.225,156.343 377.892,156.676 383.5,158.5C 391.323,153.21 399.99,150.71 409.5,151C 413.542,144.616 419.042,140.116 426,137.5C 427.107,137.585 428.107,137.919 429,138.5C 431.375,143.313 433.542,148.146 435.5,153C 440.141,153.819 444.475,155.486 448.5,158C 452.522,163.02 456.856,167.686 461.5,172C 465.738,173.986 470.071,174.486 474.5,173.5C 477.339,174.002 478.672,175.669 478.5,178.5C 476.955,186.379 472.289,191.379 464.5,193.5C 464.063,200.25 462.23,206.584 459,212.5C 458.739,216.706 458.239,220.873 457.5,225C 459.242,233.471 460.909,241.971 462.5,250.5C 462.047,259.906 458.047,267.406 450.5,273C 447.167,275.667 443.833,278.333 440.5,281C 439.127,281.875 437.627,282.375 436,282.5C 426.838,279.341 420.171,273.341 416,264.5C 414.424,257.04 412.424,249.707 410,242.5C 408.316,240.649 406.483,238.982 404.5,237.5C 392.898,245.355 386.398,256.355 385,270.5C 384.074,283.849 383.074,297.182 382,310.5C 380.313,318.743 376.813,326.076 371.5,332.5C 372.748,334.459 374.415,335.959 376.5,337C 385.437,340.469 394.104,344.469 402.5,349C 409.025,353.924 411.525,360.424 410,368.5C 402.745,381.188 399.411,394.855 400,409.5C 398.6,412.902 396.433,415.736 393.5,418C 381.252,423.457 369.252,429.457 357.5,436C 355.559,436.743 353.726,436.576 352,435.5C 349.868,425.454 350.202,415.454 353,405.5C 358.16,398.207 365.327,394.707 374.5,395C 382.096,386.953 382.429,378.62 375.5,370C 368.465,367.772 361.465,365.439 354.5,363C 349.466,358.301 344.8,353.301 340.5,348C 338.833,347.333 337.167,347.333 335.5,348C 323.357,360.434 318.857,375.267 322,392.5C 323.747,399.07 324.914,405.736 325.5,412.5C 324.324,421.547 322.824,430.547 321,439.5C 320.467,444.347 320.634,449.18 321.5,454C 321.283,462.701 319.117,470.867 315,478.5C 315.034,487.059 313.701,495.392 311,503.5C 309.931,508.257 307.098,510.091 302.5,509C 290.447,503.623 282.78,494.623 279.5,482C 279.788,478.681 280.621,475.515 282,472.5C 291.538,461.724 296.038,449.057 295.5,434.5C 295.429,427.74 294.596,421.073 293,414.5C 288.936,402.71 284.602,391.043 280,379.5C 280.086,369.578 280.919,359.744 282.5,350C 275.165,349.452 267.831,348.952 260.5,348.5C 260.73,355.555 260.23,362.555 259,369.5C 255.367,376.48 251.7,383.48 248,390.5C 244.486,398.632 243.82,406.966 246,415.5C 248.941,420.772 252.274,425.772 256,430.5C 261.485,445.52 262.818,460.853 260,476.5C 259.196,477.804 258.029,478.471 256.5,478.5C 234.115,474.945 224.615,461.945 228,439.5C 217.157,429.488 212.157,417.155 213,402.5C 219.587,389.658 220.92,376.325 217,362.5C 214,358.5 211,354.5 208,350.5C 191.363,361.377 185.03,376.71 189,396.5C 190.667,402.833 192.333,409.167 194,415.5C 194.812,423.222 194.478,430.889 193,438.5C 191.695,441.306 189.528,442.14 186.5,441C 179.333,433.833 172.167,426.667 165,419.5C 163.331,415.824 162.164,411.991 161.5,408C 162.201,401.292 163.201,394.625 164.5,388C 163.41,376.86 162.91,365.693 163,354.5C 163.438,351.624 164.438,348.957 166,346.5C 179.928,336.143 187.428,322.31 188.5,305C 187.631,297.86 187.298,290.694 187.5,283.5C 182.452,283.127 177.785,284.294 173.5,287C 165.93,296.575 157.597,305.575 148.5,314C 119.141,336.323 90.1411,335.989 61.5,313C 40.1283,291.553 30.6283,265.72 33,235.5C 38.7644,212.393 51.5977,194.226 71.5,181C 75.1806,179.686 77.5139,180.853 78.5,184.5C 72.0222,194.457 66.8556,205.124 63,216.5C 59.7503,226.207 59.7503,235.873 63,245.5C 64,246.833 65,246.833 66,245.5C 66.6965,241.465 66.5299,237.465 65.5,233.5C 66.8516,229.746 69.5183,228.579 73.5,230C 80,232.5 84.5,237 87,243.5C 89.242,252.207 91.5753,260.874 94,269.5C 97.7434,273.259 102.243,274.426 107.5,273C 101.474,267.958 99.8077,261.958 102.5,255C 107.728,256.134 113.061,256.467 118.5,256C 124.242,254.197 129.909,252.197 135.5,250C 129.713,243.468 128.047,235.968 130.5,227.5C 115.32,218.154 103.82,205.488 96,189.5C 91.0085,173.663 91.5085,157.996 97.5,142.5C 91.7224,127.3 91.2224,111.967 96,96.5C 99.1886,91.9781 103.022,88.1447 107.5,85C 105.029,71.1179 105.529,57.2845 109,43.5C 111.356,35.239 116.522,29.739 124.5,27C 127.429,26.2228 130.263,26.3895 133,27.5C 136.563,16.8021 143.397,13.9687 153.5,19C 155.73,21.566 157.064,24.566 157.5,28C 150.606,64.8667 157.773,98.7001 179,129.5C 191.728,145.221 207.561,156.721 226.5,164C 238.372,167.172 250.206,170.339 262,173.5C 262.403,165.859 265.57,159.692 271.5,155C 269.107,143.862 268.941,132.696 271,121.5C 273.793,115.539 278.293,111.539 284.5,109.5C 285.652,98.6902 290.319,89.8568 298.5,83C 301.246,81.2503 304.246,80.2503 307.5,80C 309.761,71.1423 314.095,63.4756 320.5,57C 324.052,55.2054 327.718,53.7054 331.5,52.5C 335.168,40.3208 341.501,29.8208 350.5,21C 357.844,15.4574 366.177,12.7907 375.5,13C 380.178,8.14034 385.511,4.307 391.5,1.5 Z"/></g>
<g><path style="opacity:1" fill="#f4dc74" d="M 374.5,51.5 C 371.167,51.1667 367.833,50.8333 364.5,50.5C 364.5,49.5 364.5,48.5 364.5,47.5C 369.495,31.3437 379.162,18.8437 393.5,10C 399,8.83333 401.167,11 400,16.5C 390.09,27.2279 381.59,38.8946 374.5,51.5 Z"/></g>
<g><path style="opacity:1" fill="#efd26f" d="M 150.5,89.5 C 147.76,91.5595 144.76,93.2262 141.5,94.5C 136.47,76.562 135.303,58.2287 138,39.5C 138.694,34.218 140.527,29.3847 143.5,25C 147.229,23.7279 148.896,25.0612 148.5,29C 146.826,49.2499 147.493,69.4166 150.5,89.5 Z"/></g>
<g><path style="opacity:1" fill="#f3d670" d="M 133.5,96.5 C 133.439,98.5922 132.439,100.092 130.5,101C 127.264,102.786 123.93,104.286 120.5,105.5C 113.682,86.9323 112.182,67.9323 116,48.5C 117.814,43.0362 120.98,38.5362 125.5,35C 127.134,34.5065 128.801,34.3398 130.5,34.5C 128.532,55.3252 129.532,75.9919 133.5,96.5 Z"/></g>
<g><path style="opacity:1" fill="#f3d06b" d="M 364.5,47.5 C 364.5,48.5 364.5,49.5 364.5,50.5C 367.833,50.8333 371.167,51.1667 374.5,51.5C 369.083,61.9972 365.083,72.9972 362.5,84.5C 358.922,84.4512 355.589,83.7846 352.5,82.5C 354.932,70.2013 358.932,58.5346 364.5,47.5 Z"/></g>
<g><path style="opacity:1" fill="#e36a4c" d="M 342.5,96.5 C 341.523,99.2869 341.19,102.287 341.5,105.5C 339.265,105.205 337.265,105.539 335.5,106.5C 335.167,106.5 334.833,106.5 334.5,106.5C 328.159,103.989 321.493,102.155 314.5,101C 313.565,98.6194 313.232,96.1194 313.5,93.5C 314.235,84.1299 317.068,75.4633 322,67.5C 323.708,65.4565 325.708,63.7899 328,62.5C 326.92,69.7337 325.92,77.067 325,84.5C 324.333,88.8333 324.333,93.1667 325,97.5C 327,98.8333 329,98.8333 331,97.5C 331.651,73.8742 338.318,52.2076 351,32.5C 354.916,27.7955 359.749,24.4621 365.5,22.5C 366.167,22.8333 366.833,23.1667 367.5,23.5C 353.802,45.9437 345.468,70.2771 342.5,96.5 Z"/></g>
<g><path style="opacity:1" fill="#f7c663" d="M 352.5,82.5 C 355.589,83.7846 358.922,84.4512 362.5,84.5C 361.863,87.456 361.363,90.456 361,93.5C 360.5,108.496 360.333,123.496 360.5,138.5C 359.739,139.391 358.739,140.058 357.5,140.5C 355.218,139.777 352.884,139.443 350.5,139.5C 350.826,131.316 350.492,123.316 349.5,115.5C 349.334,107.826 349.5,100.159 350,92.5C 350.311,88.9101 351.144,85.5767 352.5,82.5 Z"/></g>
<g><path style="opacity:1" fill="#804540" d="M 342.5,96.5 C 342.5,99.8333 342.5,103.167 342.5,106.5C 340.167,106.5 337.833,106.5 335.5,106.5C 337.265,105.539 339.265,105.205 341.5,105.5C 341.19,102.287 341.523,99.2869 342.5,96.5 Z"/></g>
<g><path style="opacity:1" fill="#f5d06a" d="M 133.5,96.5 C 136.27,105.478 139.27,114.478 142.5,123.5C 142.586,124.496 142.252,125.329 141.5,126C 138.264,127.786 134.93,129.286 131.5,130.5C 126.498,122.822 122.831,114.489 120.5,105.5C 123.93,104.286 127.264,102.786 130.5,101C 132.439,100.092 133.439,98.5922 133.5,96.5 Z"/></g>
<g><path style="opacity:1" fill="#dc644a" d="M 313.5,93.5 C 313.232,96.1194 313.565,98.6194 314.5,101C 321.493,102.155 328.159,103.989 334.5,106.5C 326.717,111.381 321.883,118.381 320,127.5C 319.502,130.817 319.335,134.15 319.5,137.5C 314.719,138.777 310.886,141.444 308,145.5C 304.938,150.745 303.272,156.412 303,162.5C 290.727,143.145 288.061,122.478 295,100.5C 296.91,95.0908 300.41,91.0908 305.5,88.5C 305.833,89 306.167,89.5 306.5,90C 303.863,102.369 303.03,114.869 304,127.5C 305.826,131.037 308.16,131.371 311,128.5C 311.033,116.619 311.867,104.952 313.5,93.5 Z"/></g>
<g><path style="opacity:1" fill="#f4cb68" d="M 150.5,89.5 C 155.645,106.939 163.645,122.939 174.5,137.5C 171.972,140.665 168.639,142.665 164.5,143.5C 152.442,129.375 144.776,113.042 141.5,94.5C 144.76,93.2262 147.76,91.5595 150.5,89.5 Z"/></g>
<g><path style="opacity:1" fill="#f6cd69" d="M 139.5,157.5 C 132.868,161.151 126.202,164.818 119.5,168.5C 105.561,149.412 99.7275,128.079 102,104.5C 103.169,100.335 105.502,97.0013 109,94.5C 114.396,117.954 124.562,138.954 139.5,157.5 Z"/></g>
<g><path style="opacity:1" fill="#f3c362" d="M 174.5,137.5 C 182.598,145.939 191.265,153.606 200.5,160.5C 197.534,162.988 194.201,164.988 190.5,166.5C 185.02,162.921 179.686,159.088 174.5,155C 170.584,151.59 167.251,147.757 164.5,143.5C 168.639,142.665 171.972,140.665 174.5,137.5 Z"/></g>
<g><path style="opacity:1" fill="#e9ae58" d="M 349.5,115.5 C 350.492,123.316 350.826,131.316 350.5,139.5C 352.884,139.443 355.218,139.777 357.5,140.5C 358.739,140.058 359.739,139.391 360.5,138.5C 359.789,146.223 358.623,153.89 357,161.5C 353.492,163.587 350.158,165.92 347,168.5C 348.946,150.921 349.779,133.254 349.5,115.5 Z"/></g>
<g><path style="opacity:1" fill="#f7c664" d="M 142.5,123.5 C 149.476,138.48 159.143,151.48 171.5,162.5C 168.93,167.516 167.93,172.849 168.5,178.5C 159.167,183.5 149.833,188.5 140.5,193.5C 131.837,186.471 124.837,178.138 119.5,168.5C 126.202,164.818 132.868,161.151 139.5,157.5C 144.071,163.211 149.571,167.877 156,171.5C 157.833,171 159,169.833 159.5,168C 153.68,161.512 147.846,155.012 142,148.5C 137.846,142.855 134.346,136.855 131.5,130.5C 134.93,129.286 138.264,127.786 141.5,126C 142.252,125.329 142.586,124.496 142.5,123.5 Z"/></g>
<g><path style="opacity:1" fill="#834741" d="M 317.5,146.5 C 317.56,145.957 317.893,145.624 318.5,145.5C 319.497,152.803 319.831,160.137 319.5,167.5C 318.833,160.5 318.167,153.5 317.5,146.5 Z"/></g>
<g><path style="opacity:1" fill="#d55c45" d="M 282.5,119.5 C 283.111,128.498 284.611,137.498 287,146.5C 293.159,158.484 298.492,170.817 303,183.5C 303.667,189.167 303.667,194.833 303,200.5C 300.626,202.539 298.626,204.872 297,207.5C 292.276,195.11 284.276,185.444 273,178.5C 269.372,173.455 269.705,168.788 274,164.5C 276.422,168.344 279.089,172.01 282,175.5C 285.833,178 289,181.167 291.5,185C 296.667,186.5 298.5,184.667 297,179.5C 293.806,175.395 290.14,171.728 286,168.5C 280.789,161.739 278.122,154.072 278,145.5C 277.333,139.167 277.333,132.833 278,126.5C 278.904,123.767 280.404,121.433 282.5,119.5 Z"/></g>
<g><path style="opacity:1" fill="#f4db73" d="M 448.5,211.5 C 447.833,208.5 447.167,205.5 446.5,202.5C 443.821,193.81 438.488,187.143 430.5,182.5C 433.859,175.9 435.192,168.9 434.5,161.5C 437.311,161.826 439.978,162.659 442.5,164C 446.522,169.02 450.856,173.686 455.5,178C 459.191,180.347 463.191,181.847 467.5,182.5C 463.778,184.527 459.945,186.194 456,187.5C 456.313,194.863 454.98,201.863 452,208.5C 450.961,209.71 449.794,210.71 448.5,211.5 Z"/></g>
<g><path style="opacity:1" fill="#de674a" d="M 317.5,146.5 C 318.167,153.5 318.833,160.5 319.5,167.5C 321.282,169.687 323.448,170.02 326,168.5C 326.333,156.5 326.667,144.5 327,132.5C 327.389,124.888 330.556,118.722 336.5,114C 338.441,113.257 340.274,113.424 342,114.5C 343.123,135.479 341.123,156.146 336,176.5C 335.108,179.284 333.942,181.95 332.5,184.5C 325.485,186.727 318.818,189.727 312.5,193.5C 311.334,180.513 311.167,167.513 312,154.5C 313.116,151.244 314.949,148.578 317.5,146.5 Z"/></g>
<g><path style="opacity:1" fill="#f6cc68" d="M 369.5,192.5 C 365.083,186.003 361.416,179.003 358.5,171.5C 358.863,170.817 359.196,170.15 359.5,169.5C 361.858,167.871 364.524,166.705 367.5,166C 373.855,165.644 380.188,165.644 386.5,166C 390.443,163.196 394.777,161.196 399.5,160C 400.944,159.219 402.277,159.386 403.5,160.5C 399.623,165.921 397.123,171.921 396,178.5C 389.85,186.136 385.85,194.803 384,204.5C 382.287,203.122 380.953,201.455 380,199.5C 379.668,195.653 378.502,192.153 376.5,189C 375.5,188.333 374.5,188.333 373.5,189C 372.295,190.376 370.962,191.542 369.5,192.5 Z"/></g>
<g><path style="opacity:1" fill="#f4c362" d="M 359.5,169.5 C 359.196,170.15 358.863,170.817 358.5,171.5C 361.416,179.003 365.083,186.003 369.5,192.5C 364.101,201.301 359.767,210.634 356.5,220.5C 346.6,209.769 347.434,199.769 359,190.5C 359.833,186 358,184.167 353.5,185C 349.532,189.12 346.199,193.62 343.5,198.5C 341.375,195.912 340.042,192.912 339.5,189.5C 343.833,180.5 350.5,173.833 359.5,169.5 Z"/></g>
<g><path style="opacity:1" fill="#dd634a" d="M 101.5,154.5 C 102.376,154.369 103.043,154.702 103.5,155.5C 114.543,180.926 132.043,200.592 156,214.5C 156.039,219.85 156.872,225.017 158.5,230C 139.612,224.794 123.779,214.627 111,199.5C 101.258,185.961 98.0916,170.961 101.5,154.5 Z"/></g>
<g><path style="opacity:1" fill="#f6b558" d="M 200.5,160.5 C 217.816,170.662 236.482,177.162 256.5,180C 271.054,184.065 281.388,192.898 287.5,206.5C 287.631,207.376 287.298,208.043 286.5,208.5C 281.519,211.161 276.519,213.494 271.5,215.5C 270.504,215.586 269.671,215.252 269,214.5C 265.007,205.177 258.841,197.677 250.5,192C 236.512,187.002 222.512,182.002 208.5,177C 201.944,174.23 195.944,170.73 190.5,166.5C 194.201,164.988 197.534,162.988 200.5,160.5 Z"/></g>
<g><path style="opacity:1" fill="#dd634a" d="M 177.5,167.5 C 185.643,173.41 194.309,178.577 203.5,183C 217.31,188.603 231.31,193.603 245.5,198C 254.155,202.814 259.822,209.981 262.5,219.5C 256.978,230.729 258.978,240.229 268.5,248C 271.898,249.916 275.565,250.916 279.5,251C 273.45,259.528 265.116,263.361 254.5,262.5C 243.375,262.509 233.042,259.676 223.5,254C 217.004,249.499 214.671,243.499 216.5,236C 222.031,235.713 227.364,236.713 232.5,239C 237.306,241.497 241.806,244.331 246,247.5C 249.293,246.862 250.293,244.862 249,241.5C 245.113,237.472 240.613,234.306 235.5,232C 225.894,228.949 216.227,226.282 206.5,224C 203.036,220.215 201.702,215.715 202.5,210.5C 211.058,212.98 219.725,215.146 228.5,217C 234.996,219.166 241.163,221.999 247,225.5C 249.981,224.557 250.981,222.557 250,219.5C 245.363,215.764 240.196,212.93 234.5,211C 218.902,208.579 204.236,203.579 190.5,196C 179.735,189.31 175.401,179.81 177.5,167.5 Z"/></g>
<g><path style="opacity:1" fill="#dee9f6" d="M 449.5,228.5 C 430.264,222.857 410.931,217.524 391.5,212.5C 391.475,203.407 393.975,195.074 399,187.5C 400.424,189.876 402.424,191.543 405,192.5C 408.072,191.553 409.072,189.553 408,186.5C 404.69,182.785 403.69,178.452 405,173.5C 409.401,163.431 415.734,154.764 424,147.5C 429.238,161.428 427.905,174.761 420,187.5C 419.333,189.5 419.333,191.5 420,193.5C 421.388,194.554 422.888,194.72 424.5,194C 425.56,192.702 426.726,191.535 428,190.5C 433.382,192.884 437.049,196.884 439,202.5C 439.406,208.528 439.406,214.528 439,220.5C 439.804,221.804 440.971,222.471 442.5,222.5C 444.762,221.533 447.095,220.866 449.5,220.5C 449.5,223.167 449.5,225.833 449.5,228.5 Z"/></g>
<g><path style="opacity:1" fill="#f6ba5b" d="M 339.5,189.5 C 340.042,192.912 341.375,195.912 343.5,198.5C 340.04,207.379 336.873,216.379 334,225.5C 333,231.5 332,237.5 331,243.5C 329.667,241.5 328.333,239.5 327,237.5C 326.667,230.167 326.333,222.833 326,215.5C 323.321,212.828 320.988,213.162 319,216.5C 318.667,222.5 318.333,228.5 318,234.5C 317.427,236.641 316.594,238.641 315.5,240.5C 310.385,231.935 306.052,222.935 302.5,213.5C 308.213,205.627 315.546,199.627 324.5,195.5C 324.833,195.833 325.167,196.167 325.5,196.5C 320.764,201.808 321.764,204.641 328.5,205C 332.311,199.854 335.978,194.688 339.5,189.5 Z"/></g>
<g><path style="opacity:1" fill="#da614a" d="M 57.5,203.5 C 58.0967,203.735 58.4301,204.235 58.5,205C 51.9881,219.05 50.8214,233.55 55,248.5C 57.9188,254.025 62.4188,255.858 68.5,254C 70.286,253.215 71.786,252.049 73,250.5C 73.8333,247.5 74.6667,244.5 75.5,241.5C 77.8208,244.13 79.6541,247.13 81,250.5C 82.3235,256.107 83.3235,261.774 84,267.5C 86.0969,273.557 89.9303,278.057 95.5,281C 52.6919,292.528 34.8586,276.362 42,232.5C 45.2841,221.745 50.4508,212.078 57.5,203.5 Z"/></g>
<g><path style="opacity:1" fill="#2f3042" d="M 418.5,205.5 C 421.661,206.47 424.494,208.137 427,210.5C 427.5,214.667 425.667,216.5 421.5,216C 420,214.5 418.5,213 417,211.5C 416.252,209.16 416.752,207.16 418.5,205.5 Z"/></g>
<g><path style="opacity:1" fill="#6c614a" d="M 446.5,202.5 C 447.167,205.5 447.833,208.5 448.5,211.5C 448.44,212.043 448.107,212.376 447.5,212.5C 446.513,209.232 446.18,205.898 446.5,202.5 Z"/></g>
<g><path style="opacity:1" fill="#f2aa50" d="M 287.5,206.5 C 290.147,211.202 291.48,216.368 291.5,222C 291.82,229.125 289.82,235.458 285.5,241C 272.236,245.413 266.402,240.58 268,226.5C 268.833,225 270,223.833 271.5,223C 274.514,222.872 277.514,222.872 280.5,223C 283.371,220.16 283.037,217.826 279.5,216C 276.854,215.503 274.187,215.336 271.5,215.5C 276.519,213.494 281.519,211.161 286.5,208.5C 287.298,208.043 287.631,207.376 287.5,206.5 Z"/></g>
<g><path style="opacity:1" fill="#f3b056" d="M 302.5,213.5 C 306.052,222.935 310.385,231.935 315.5,240.5C 311.602,246.96 306.769,252.626 301,257.5C 301.094,248.791 299.927,240.291 297.5,232C 298.18,227.523 298.68,223.023 299,218.5C 299.697,216.416 300.864,214.749 302.5,213.5 Z"/></g>
<g><path style="opacity:1" fill="#d8e4f7" d="M 378.5,262.5 C 365.464,259.324 352.464,255.991 339.5,252.5C 339.14,240.908 340.64,229.574 344,218.5C 344.667,217.167 345.333,217.167 346,218.5C 348.074,223.475 351.241,227.642 355.5,231C 358.216,233.151 360.716,232.984 363,230.5C 364.099,220.315 367.432,210.982 373,202.5C 375.306,207.306 378.806,210.973 383.5,213.5C 384.292,218.711 385.792,223.711 388,228.5C 389.896,230.53 392.063,232.197 394.5,233.5C 385.776,241.28 380.443,250.947 378.5,262.5 Z"/></g>
<g><path style="opacity:1" fill="#f6ba5b" d="M 168.5,178.5 C 172.901,192.074 181.735,201.741 195,207.5C 194.976,209.763 194.809,212.097 194.5,214.5C 194.582,217.98 195.248,221.313 196.5,224.5C 188.363,229.405 180.03,234.071 171.5,238.5C 166.29,232.766 163.957,226.099 164.5,218.5C 169.762,221.312 175.262,223.645 181,225.5C 184.379,224.13 185.212,221.797 183.5,218.5C 167.364,212.944 153.031,204.61 140.5,193.5C 149.833,188.5 159.167,183.5 168.5,178.5 Z"/></g>
<g><path style="opacity:1" fill="#f6b256" d="M 196.5,224.5 C 199.59,228.313 203.423,231.313 208,233.5C 206.261,242.619 208.761,250.452 215.5,257C 202.479,256.772 190.479,253.105 179.5,246C 176.334,244 173.668,241.5 171.5,238.5C 180.03,234.071 188.363,229.405 196.5,224.5 Z"/></g>
<g><path style="opacity:1" fill="#d9e4f7" d="M 391.5,212.5 C 410.931,217.524 430.264,222.857 449.5,228.5C 450.036,233.31 451.203,237.977 453,242.5C 455.867,252.708 453.033,260.874 444.5,267C 441.64,269.36 438.64,271.527 435.5,273.5C 424.789,266.916 419.622,257.249 420,244.5C 418.292,239.588 415.458,235.421 411.5,232C 406.084,229.861 400.751,227.528 395.5,225C 394.107,223.829 393.273,222.329 393,220.5C 392.728,217.746 392.228,215.079 391.5,212.5 Z"/></g>
<g><path style="opacity:1" fill="#db624a" d="M 137.5,230.5 C 146.023,234.287 154.689,237.787 163.5,241C 170.203,249.192 178.536,255.192 188.5,259C 172.449,260.654 157.782,256.987 144.5,248C 139.068,243.466 136.735,237.633 137.5,230.5 Z"/></g>
<g><path style="opacity:1" fill="#d2dff8" d="M 339.5,252.5 C 352.464,255.991 365.464,259.324 378.5,262.5C 377.179,267.058 376.346,271.725 376,276.5C 375.783,286.213 375.283,295.88 374.5,305.5C 340.79,296.322 307.123,286.989 273.5,277.5C 275.243,269.346 279.076,262.346 285,256.5C 286.312,251.687 288.812,247.687 292.5,244.5C 293.908,251.51 293.241,258.343 290.5,265C 290.543,267.376 291.709,268.876 294,269.5C 305.786,264.214 315.286,256.214 322.5,245.5C 325.63,250.232 329.963,253.232 335.5,254.5C 337.114,254.197 338.448,253.53 339.5,252.5 Z"/></g>
<g><path style="opacity:1" fill="#2d2d40" d="M 441.5,246.5 C 446.984,246.481 448.65,248.981 446.5,254C 439.745,254.756 438.078,252.256 441.5,246.5 Z"/></g>
<g><path style="opacity:1" fill="#f3c262" d="M 107.5,299.5 C 107.665,296.482 107.498,293.482 107,290.5C 106.878,288.563 106.045,287.23 104.5,286.5C 111.267,283.865 117.767,280.532 124,276.5C 125.246,271.23 123.08,269.063 117.5,270C 115.359,268.692 113.359,267.192 111.5,265.5C 122.324,263.09 132.99,260.09 143.5,256.5C 148.5,259 153.5,261.5 158.5,264C 151.544,267.145 144.877,270.811 138.5,275C 128.5,283.657 118.167,291.824 107.5,299.5 Z"/></g>
<g><path style="opacity:1" fill="#ccdef7" d="M 273.5,277.5 C 307.123,286.989 340.79,296.322 374.5,305.5C 371.487,322.847 361.487,333.847 344.5,338.5C 344.167,338.167 343.833,337.833 343.5,337.5C 347.055,330.67 349.721,323.503 351.5,316C 350.553,312.928 348.553,311.928 345.5,313C 341.681,326.828 334.514,338.661 324,348.5C 316.95,358.36 313.117,369.36 312.5,381.5C 313.78,391.901 315.447,402.234 317.5,412.5C 316.48,420.249 314.98,427.915 313,435.5C 312.667,445.167 312.333,454.833 312,464.5C 311.415,467.62 310.081,470.287 308,472.5C 304.013,471.18 301.346,468.513 300,464.5C 300.184,458.08 301.184,451.747 303,445.5C 304.898,429.655 302.898,414.322 297,399.5C 293.174,392.848 290.174,385.848 288,378.5C 289.212,366.882 289.879,355.215 290,343.5C 281.494,335.362 277.827,325.362 279,313.5C 276.733,312.065 274.733,312.398 273,314.5C 271.358,323.736 272.858,332.403 277.5,340.5C 245.005,343.824 225.838,329.491 220,297.5C 217.667,294.833 215.333,294.833 213,297.5C 215.124,322.627 228.124,339.293 252,347.5C 253.336,356.157 252.336,364.49 249,372.5C 236.421,387.474 233.421,404.141 240,422.5C 242.092,425.681 244.425,428.681 247,431.5C 248.411,433.65 249.245,435.984 249.5,438.5C 244.92,438.887 240.586,438.053 236.5,436C 227.803,428.608 222.47,419.275 220.5,408C 222.863,400.575 225.03,393.075 227,385.5C 228.073,375.911 227.073,366.578 224,357.5C 210.665,342.131 201.665,324.464 197,304.5C 193.086,290.314 195.586,277.48 204.5,266C 216.747,264.597 228.747,265.597 240.5,269C 249.518,269.168 258.518,269.668 267.5,270.5C 265.057,275.598 264.224,280.931 265,286.5C 267.333,289.167 269.667,289.167 272,286.5C 272.181,283.305 272.681,280.305 273.5,277.5 Z"/></g>
<g><path style="opacity:1" fill="#725441" d="M 177.5,267.5 C 183.013,266.184 188.68,266.184 194.5,267.5C 194.376,268.107 194.043,268.44 193.5,268.5C 188.36,267.512 183.026,267.179 177.5,267.5 Z"/></g>
<g><path style="opacity:1" fill="#f5b459" d="M 177.5,267.5 C 183.026,267.179 188.36,267.512 193.5,268.5C 192.513,270.473 191.513,272.473 190.5,274.5C 182.087,274.227 174.42,276.393 167.5,281C 161.967,287.363 156.301,293.529 150.5,299.5C 150.626,293.807 150.293,288.14 149.5,282.5C 149.415,280.667 148.748,279.334 147.5,278.5C 156.396,272.087 166.396,268.421 177.5,267.5 Z"/></g>
<g><path style="opacity:1" fill="#f7c361" d="M 147.5,278.5 C 148.748,279.334 149.415,280.667 149.5,282.5C 150.293,288.14 150.626,293.807 150.5,299.5C 142.936,308.618 133.603,315.284 122.5,319.5C 122.546,312.95 121.879,306.617 120.5,300.5C 128.895,292.44 137.895,285.106 147.5,278.5 Z"/></g>
<g><path style="opacity:1" fill="#f5d66f" d="M 104.5,286.5 C 106.045,287.23 106.878,288.563 107,290.5C 107.498,293.482 107.665,296.482 107.5,299.5C 85.7,315.77 67.7,312.437 53.5,289.5C 53.8333,289.167 54.1667,288.833 54.5,288.5C 63.4612,292.279 72.7945,293.445 82.5,292C 89.9994,290.792 97.3327,288.958 104.5,286.5 Z"/></g>
<g><path style="opacity:1" fill="#f4cc68" d="M 120.5,300.5 C 121.879,306.617 122.546,312.95 122.5,319.5C 108.781,324.164 95.4473,323.331 82.5,317C 88.4051,316.699 94.0718,315.365 99.5,313C 106.555,308.811 113.555,304.644 120.5,300.5 Z"/></g>
<g><path style="opacity:1" fill="#8ea0d7" d="M 362.5,338.5 C 367.061,340.452 371.395,342.952 375.5,346C 384.231,348.685 392.397,352.519 400,357.5C 402.174,360.546 402.841,363.88 402,367.5C 394.49,379.37 391.156,392.37 392,406.5C 389.832,410.826 386.332,413.493 381.5,414.5C 378.951,410.491 378.118,406.158 379,401.5C 386.724,395.003 389.724,386.67 388,376.5C 386.548,369.074 382.382,363.907 375.5,361C 370.507,359.559 365.507,358.225 360.5,357C 357,353.5 353.5,350 350,346.5C 349.312,345.668 349.479,345.002 350.5,344.5C 355.078,343.433 359.078,341.433 362.5,338.5 Z"/></g>
<g><path style="opacity:1" fill="#8b9cd5" d="M 193.5,322.5 C 196.742,329.479 200.408,336.312 204.5,343C 191.783,349.386 183.95,359.553 181,373.5C 180.667,381.5 180.333,389.5 180,397.5C 176.962,394.797 174.295,391.797 172,388.5C 171.333,376.5 171.333,364.5 172,352.5C 176.279,348.221 180.613,343.887 185,339.5C 188.899,334.369 191.732,328.702 193.5,322.5 Z"/></g>
<g><path style="opacity:1" fill="#494364" d="M 365.5,404.5 C 367.5,404.5 369.5,404.5 371.5,404.5C 371.329,408.639 371.996,412.639 373.5,416.5C 369.246,419.971 364.58,422.971 359.5,425.5C 356.765,416.942 358.765,409.942 365.5,404.5 Z"/></g>
<g><path style="opacity:1" fill="#474263" d="M 170.5,399.5 C 174.63,402.737 178.963,405.737 183.5,408.5C 186.371,414.952 187.038,421.619 185.5,428.5C 180.482,424.315 175.982,419.649 172,414.5C 170.675,409.599 170.175,404.599 170.5,399.5 Z"/></g>
<g><path style="opacity:1" fill="#4a4868" d="M 236.5,444.5 C 241.621,445.754 246.787,446.754 252,447.5C 253.724,454.776 253.891,462.109 252.5,469.5C 246.709,467.524 241.876,464.191 238,459.5C 236.675,454.599 236.175,449.599 236.5,444.5 Z"/></g>
<g><path style="opacity:1" fill="#494465" d="M 293.5,471.5 C 297.364,474.459 301.364,477.459 305.5,480.5C 306.395,486.559 305.895,492.559 304,498.5C 303.586,498.957 303.086,499.291 302.5,499.5C 295.804,496.304 290.971,491.304 288,484.5C 287.616,479.264 289.449,474.931 293.5,471.5 Z"/></g>
</svg>
