<?xml version="1.0" encoding="UTF-8"?>
<!DOCTYPE svg PUBLIC "-//W3C//DTD SVG 1.1//EN" "http://www.w3.org/Graphics/SVG/1.1/DTD/svg11.dtd">
<svg xmlns="http://www.w3.org/2000/svg" version="1.1" width="512px" height="512px" style="shape-rendering:geometricPrecision; text-rendering:geometricPrecision; image-rendering:optimizeQuality; fill-rule:evenodd; clip-rule:evenodd" xmlns:xlink="http://www.w3.org/1999/xlink">
<g><path style="opacity:1" fill="#272639" d="M 255.5,40.5 C 277.219,38.4445 294.052,46.4445 306,64.5C 308.795,71.9337 312.962,78.4337 318.5,84C 330.119,89.2189 339.953,96.7189 348,106.5C 352.551,115.253 354.551,124.587 354,134.5C 363.091,140.631 372.591,146.131 382.5,151C 388.278,155.057 392.778,160.223 396,166.5C 398.657,176.152 402.657,185.152 408,193.5C 415.365,200.53 422.365,207.864 429,215.5C 432.895,221.351 435.729,227.684 437.5,234.5C 457.82,229.6 474.987,234.933 489,250.5C 504.45,275.625 501.116,297.958 479,317.5C 477.844,321.123 476.844,324.789 476,328.5C 474.691,330.976 472.858,332.976 470.5,334.5C 470.084,340.745 467.084,345.245 461.5,348C 442.607,356.234 424.273,355.234 406.5,345C 401.4,341.701 396.234,338.535 391,335.5C 382.157,342.504 372.657,348.504 362.5,353.5C 368.938,391.666 370.105,429.999 366,468.5C 322.484,473.599 280.984,466.433 241.5,447C 225.548,438.382 212.048,426.882 201,412.5C 199.383,381.633 206.55,352.966 222.5,326.5C 209.526,325.301 196.526,324.468 183.5,324C 175.022,322.954 167.355,319.954 160.5,315C 155.755,309.731 154.255,303.564 156,296.5C 156.792,294.413 157.959,292.579 159.5,291C 156.458,288.076 153.125,287.743 149.5,290C 124.264,302.583 108.764,322.749 103,350.5C 100.769,365.456 98.9357,380.289 97.5,395C 95.8333,395.667 94.1667,395.667 92.5,395C 71.5563,364.255 67.723,331.421 81,296.5C 83.1267,292.411 85.6267,288.577 88.5,285C 80.8688,287.656 73.8688,291.656 67.5,297C 55.2744,308.215 44.941,320.882 36.5,335C 34.5,337 32.5,337 30.5,335C 22.0785,304.021 29.4118,277.354 52.5,255C 67.1239,244.049 83.6239,239.216 102,240.5C 110.908,240.571 119.742,241.071 128.5,242C 107.919,220.299 82.5857,209.799 52.5,210.5C 41.7589,210.676 31.0923,211.676 20.5,213.5C 15.9903,213.827 14.157,211.827 15,207.5C 42.4719,187.254 73.3053,178.421 107.5,181C 123.627,183.312 137.127,190.479 148,202.5C 149.057,200.781 149.89,198.947 150.5,197C 132.377,168.272 106.377,154.938 72.5,157C 71.4086,154.936 71.2419,152.769 72,150.5C 93.9313,135.262 117.765,131.428 143.5,139C 153.244,142.619 161.744,148.119 169,155.5C 169.294,143.477 169.961,131.477 171,119.5C 172.808,117.604 174.975,117.104 177.5,118C 181.785,122.74 185.952,127.573 190,132.5C 188.604,118.589 191.27,105.589 198,93.5C 198.903,82.122 202.569,71.7887 209,62.5C 215.132,56.1855 222.632,52.6855 231.5,52C 238.932,46.7825 246.932,42.9491 255.5,40.5 Z M 413.5,304.5 C 417.777,308.275 421.944,312.275 426,316.5C 427.171,319.35 428.338,322.184 429.5,325C 427.369,324.602 425.369,323.602 423.5,322C 419.357,317.767 415.023,313.767 410.5,310C 411.758,308.259 412.758,306.426 413.5,304.5 Z"/></g>
<g><path style="opacity:1" fill="#df4a6f" d="M 314.5,91.5 C 295.37,96.3648 276.37,101.365 257.5,106.5C 251.745,104.456 246.412,101.623 241.5,98C 238.287,94.4506 234.787,91.2839 231,88.5C 229.108,88.7769 227.775,89.7769 227,91.5C 225.046,99.6058 223.213,107.606 221.5,115.5C 213.774,117.348 206.107,119.348 198.5,121.5C 198.018,113.097 200.184,105.43 205,98.5C 205.88,87.631 209.213,77.631 215,68.5C 220.412,62.3595 227.245,59.5262 235.5,60C 256.924,43.5453 277.091,45.0453 296,64.5C 299.841,70.1777 303.174,76.1777 306,82.5C 308.362,86.0266 311.196,89.0266 314.5,91.5 Z"/></g>
<g><path style="opacity:1" fill="#252538" d="M 99.5,63.5 C 126.296,65.6293 140.63,79.9626 142.5,106.5C 128.745,109.931 117.578,105.931 109,94.5C 103.86,85.2496 100.193,75.5829 98,65.5C 98.7172,64.9558 99.2172,64.2891 99.5,63.5 Z"/></g>
<g><path style="opacity:1" fill="#4f92b1" d="M 108.5,74.5 C 108.735,73.9033 109.235,73.5699 110,73.5C 122.963,77.6249 130.796,86.2916 133.5,99.5C 125.286,99.3084 119.119,95.6418 115,88.5C 113.058,83.6226 110.892,78.9559 108.5,74.5 Z"/></g>
<g><path style="opacity:1" fill="#de4a69" d="M 314.5,91.5 C 324.624,95.8899 333.291,102.223 340.5,110.5C 329.573,112.565 318.907,115.232 308.5,118.5C 294.841,112.554 280.508,109.387 265.5,109C 262.708,108.458 260.042,107.624 257.5,106.5C 276.37,101.365 295.37,96.3648 314.5,91.5 Z"/></g>
<g><path style="opacity:1" fill="#d77582" d="M 234.5,102.5 C 247.153,112.165 261.487,117.498 277.5,118.5C 277.963,121.221 278.629,123.888 279.5,126.5C 277.167,126.5 274.833,126.5 272.5,126.5C 270.417,124.396 268.083,124.062 265.5,125.5C 251.315,122.919 240.982,115.252 234.5,102.5 Z"/></g>
<g><path style="opacity:1" fill="#262639" d="M 437.5,108.5 C 439.722,108.178 441.556,108.845 443,110.5C 443.272,115.878 442.772,121.211 441.5,126.5C 442.047,129.826 442.547,133.16 443,136.5C 447.925,147.354 452.591,158.354 457,169.5C 459.66,184.185 456.66,197.518 448,209.5C 445.5,211.536 442.833,211.87 440,210.5C 439.992,202.356 438.992,194.356 437,186.5C 432.73,178.57 428.064,170.903 423,163.5C 416.728,142.162 421.561,123.828 437.5,108.5 Z"/></g>
<g><path style="opacity:1" fill="#de4369" d="M 340.5,110.5 C 345.408,118.885 346.908,127.885 345,137.5C 348.963,141.213 353.129,144.546 357.5,147.5C 347.792,149.677 338.125,152.01 328.5,154.5C 328.5,156.167 328.5,157.833 328.5,159.5C 330.113,141.726 323.446,128.059 308.5,118.5C 318.907,115.232 329.573,112.565 340.5,110.5 Z"/></g>
<g><path style="opacity:1" fill="#f5b3b1" d="M 234.5,102.5 C 240.982,115.252 251.315,122.919 265.5,125.5C 264.025,127.41 262.025,128.576 259.5,129C 256.112,133.891 257.445,136.058 263.5,135.5C 259.659,137.003 255.659,138.336 251.5,139.5C 252.17,136.41 251.003,134.743 248,134.5C 244.443,136.574 240.609,137.407 236.5,137C 230.803,127.248 228.97,116.748 231,105.5C 231.216,103.616 231.883,101.949 233,100.5C 233.717,101.044 234.217,101.711 234.5,102.5 Z"/></g>
<g><path style="opacity:1" fill="#2f2b3d" d="M 272.5,126.5 C 271.914,131.754 268.914,134.754 263.5,135.5C 257.445,136.058 256.112,133.891 259.5,129C 262.025,128.576 264.025,127.41 265.5,125.5C 268.083,124.062 270.417,124.396 272.5,126.5 Z"/></g>
<g><path style="opacity:1" fill="#9e2b37" d="M 285.5,119.5 C 311.108,121.939 322.608,135.939 320,161.5C 321.15,164.768 321.984,168.101 322.5,171.5C 317.123,172.867 312.456,175.534 308.5,179.5C 298.877,178.376 293.377,173.043 292,163.5C 290.153,153.252 289.153,142.919 289,132.5C 287.725,128.178 286.558,123.844 285.5,119.5 Z"/></g>
<g><path style="opacity:1" fill="#2b6d8c" d="M 206.5,175.5 C 199.968,178.929 193.634,182.596 187.5,186.5C 184.907,179.98 181.74,173.647 178,167.5C 177.167,155.486 177.334,143.486 178.5,131.5C 190.354,144.535 199.687,159.202 206.5,175.5 Z"/></g>
<g><path style="opacity:1" fill="#f5c6c5" d="M 272.5,126.5 C 274.833,126.5 277.167,126.5 279.5,126.5C 284.339,136.425 283.506,145.758 277,154.5C 268.445,159.956 259.945,159.79 251.5,154C 248.5,151 245.5,148 242.5,145C 246.181,144.128 249.181,142.294 251.5,139.5C 255.659,138.336 259.659,137.003 263.5,135.5C 268.914,134.754 271.914,131.754 272.5,126.5 Z"/></g>
<g><path style="opacity:1" fill="#252539" d="M 39.5,136.5 C 44.5089,136.809 49.3423,137.809 54,139.5C 55.5324,151.943 50.6991,160.776 39.5,166C 30.8461,167 22.1794,167.333 13.5,167C 13.6594,149.668 22.3261,139.502 39.5,136.5 Z"/></g>
<g><path style="opacity:1" fill="#de4669" d="M 221.5,115.5 C 220.752,129.388 222.085,143.054 225.5,156.5C 224.245,164.304 220.911,170.971 215.5,176.5C 211.793,167.42 207.293,158.753 202,150.5C 199.766,140.958 198.599,131.292 198.5,121.5C 206.107,119.348 213.774,117.348 221.5,115.5 Z"/></g>
<g><path style="opacity:1" fill="#4a8db1" d="M 145.5,149.5 C 138.768,152.866 132.101,156.199 125.5,159.5C 114.499,154.571 103.832,150.738 93.5,148C 111.2,140.315 128.534,140.815 145.5,149.5 Z"/></g>
<g><path style="opacity:1" fill="#788eeb" d="M 432.5,127.5 C 434.044,133.356 435.544,139.356 437,145.5C 441.441,153.612 445.441,161.945 449,170.5C 449.667,176.5 449.667,182.5 449,188.5C 448.529,190.246 447.862,191.913 447,193.5C 445.272,182.378 440.605,172.711 433,164.5C 427.172,152.256 427.006,139.923 432.5,127.5 Z"/></g>
<g><path style="opacity:1" fill="#14649f" d="M 34.5,145.5 C 38.5546,145.176 42.5546,145.509 46.5,146.5C 42.2402,157.662 34.2402,161.495 22.5,158C 25.0218,152.313 29.0218,148.147 34.5,145.5 Z"/></g>
<g><path style="opacity:1" fill="#252538" d="M 485.5,146.5 C 491.923,146.678 493.756,149.678 491,155.5C 489.233,163.352 490.9,170.352 496,176.5C 500.901,192.137 497.068,205.304 484.5,216C 480.39,218.619 477.39,217.785 475.5,213.5C 478.59,204.496 478.756,195.496 476,186.5C 469.085,176.748 468.751,166.748 475,156.5C 478.396,152.935 481.896,149.602 485.5,146.5 Z"/></g>
<g><path style="opacity:1" fill="#df4263" d="M 357.5,147.5 C 364.937,151.053 372.271,154.886 379.5,159C 385.952,164.404 389.952,171.237 391.5,179.5C 391.5,180.833 391.5,182.167 391.5,183.5C 380.861,185.409 370.528,188.076 360.5,191.5C 354.918,190.091 350.585,186.924 347.5,182C 344.356,180.308 341.023,179.142 337.5,178.5C 334.85,175.264 332.35,171.931 330,168.5C 329.047,165.568 328.547,162.568 328.5,159.5C 328.5,157.833 328.5,156.167 328.5,154.5C 338.125,152.01 347.792,149.677 357.5,147.5 Z"/></g>
<g><path style="opacity:1" fill="#d37481" d="M 284.5,167.5 C 281.992,169.924 278.992,171.59 275.5,172.5C 275.244,170.063 274.577,167.729 273.5,165.5C 276.59,164.3 279.257,162.467 281.5,160C 282.6,159.568 283.267,160.068 283.5,161.5C 284.156,163.453 284.489,165.453 284.5,167.5 Z"/></g>
<g><path style="opacity:1" fill="#9b2b36" d="M 230.5,142.5 C 235.932,149.767 242.265,156.267 249.5,162C 254.871,164.593 260.538,165.759 266.5,165.5C 267.855,171.103 268.355,176.77 268,182.5C 266.666,186.104 264.166,187.271 260.5,186C 256.222,183.26 251.556,181.427 246.5,180.5C 238.253,169.1 232.919,156.433 230.5,142.5 Z"/></g>
<g><path style="opacity:1" fill="#468db9" d="M 145.5,149.5 C 160.401,156.228 171.068,167.228 177.5,182.5C 169.375,182.431 162.041,184.764 155.5,189.5C 147.146,177.812 137.146,167.812 125.5,159.5C 132.101,156.199 138.768,152.866 145.5,149.5 Z"/></g>
<g><path style="opacity:1" fill="#9b2b37" d="M 225.5,156.5 C 228.651,165.138 232.651,173.471 237.5,181.5C 231.132,184.032 228.299,188.699 229,195.5C 226.708,196.79 224.708,198.457 223,200.5C 220.807,192.393 218.307,184.393 215.5,176.5C 220.911,170.971 224.245,164.304 225.5,156.5 Z"/></g>
<g><path style="opacity:1" fill="#6e82df" d="M 480.5,162.5 C 482.751,169.685 485.917,176.685 490,183.5C 491.224,189.304 490.224,194.638 487,199.5C 486.933,190.358 484.266,182.025 479,174.5C 478.19,170.31 478.69,166.31 480.5,162.5 Z"/></g>
<g><path style="opacity:1" fill="#286c93" d="M 206.5,175.5 C 212.091,187.637 215.591,200.303 217,213.5C 212.015,207.423 205.515,204.09 197.5,203.5C 196.995,196.156 193.662,190.489 187.5,186.5C 193.634,182.596 199.968,178.929 206.5,175.5 Z"/></g>
<g><path style="opacity:1" fill="#7bb8b8" d="M 331.5,227.5 C 325.102,228.113 318.769,229.113 312.5,230.5C 313.156,228.516 313.822,226.516 314.5,224.5C 313.304,221.862 311.304,221.029 308.5,222C 303.535,229.132 299.202,236.632 295.5,244.5C 292.046,238.107 291.546,231.44 294,224.5C 297.031,207.6 304.864,193.433 317.5,182C 321.075,178.484 325.075,177.817 329.5,180C 330.097,181.062 330.43,182.228 330.5,183.5C 328.374,189.046 326.54,194.713 325,200.5C 322.762,210.663 324.929,219.663 331.5,227.5 Z"/></g>
<g><path style="opacity:1" fill="#d83d63" d="M 391.5,179.5 C 396.007,192.025 403.341,202.691 413.5,211.5C 405.748,212.687 398.081,214.354 390.5,216.5C 389.287,216.747 388.62,217.414 388.5,218.5C 381.121,207.455 371.788,198.455 360.5,191.5C 370.528,188.076 380.861,185.409 391.5,183.5C 391.5,182.167 391.5,180.833 391.5,179.5 Z"/></g>
<g><path style="opacity:1" fill="#f6c3c2" d="M 284.5,167.5 C 287.017,177.02 293.017,183.353 302.5,186.5C 294.591,197.714 289.091,210.048 286,223.5C 280.202,213.398 274.036,203.564 267.5,194C 275.357,188.782 278.024,181.615 275.5,172.5C 278.992,171.59 281.992,169.924 284.5,167.5 Z"/></g>
<g><path style="opacity:1" fill="#488cb7" d="M 136.5,232.5 C 136.859,234.371 137.859,235.871 139.5,237C 142.148,239.05 145.148,240.216 148.5,240.5C 149.198,249.217 153.531,255.55 161.5,259.5C 160.995,260.919 159.995,261.585 158.5,261.5C 144.435,244.435 128.435,229.435 110.5,216.5C 88.2335,205.01 64.5668,200.176 39.5,202C 57.4943,193.251 76.4943,188.418 96.5,187.5C 113.597,188.692 128.264,195.192 140.5,207C 128.939,214.104 127.605,222.604 136.5,232.5 Z"/></g>
<g><path style="opacity:1" fill="#7cb8b7" d="M 264.5,241.5 C 256.454,242.677 248.454,244.177 240.5,246C 239.309,246.698 238.309,247.531 237.5,248.5C 238.231,242.808 240.064,237.475 243,232.5C 247.901,226.603 252.401,220.436 256.5,214C 253.943,209.707 251.109,209.541 248,213.5C 243.105,206.049 239.605,198.049 237.5,189.5C 242.511,189.334 247.511,189.501 252.5,190C 265.572,203.609 276.072,219.109 284,236.5C 288.867,247.337 291.367,258.671 291.5,270.5C 289.5,270.5 287.5,270.5 285.5,270.5C 283.07,257.638 277.903,245.971 270,235.5C 267.925,233.352 265.592,233.018 263,234.5C 262.167,237.171 262.667,239.504 264.5,241.5 Z"/></g>
<g><path style="opacity:1" fill="#f5b273" d="M 166.5,191.5 C 172.262,191.149 177.928,191.649 183.5,193C 185.333,194.833 187.167,196.667 189,198.5C 190.138,202.43 189.305,205.764 186.5,208.5C 178.008,204.017 170.008,204.683 162.5,210.5C 157.892,208.239 156.392,204.572 158,199.5C 160.157,196.024 162.99,193.357 166.5,191.5 Z"/></g>
<g><path style="opacity:1" fill="#d67481" d="M 231.5,202.5 C 232.496,202.414 233.329,202.748 234,203.5C 236.713,209.094 239.547,214.594 242.5,220C 236.76,227.979 231.927,236.479 228,245.5C 227.799,234.614 226.966,223.78 225.5,213C 225.667,211.5 225.833,210 226,208.5C 228.04,206.63 229.873,204.63 231.5,202.5 Z"/></g>
<g><path style="opacity:1" fill="#ededee" d="M 172.5,212.5 C 178.709,211.933 183.042,214.433 185.5,220C 182.403,226.714 177.403,228.714 170.5,226C 164.811,220.583 165.478,216.083 172.5,212.5 Z"/></g>
<g><path style="opacity:1" fill="#f4a067" d="M 194.5,211.5 C 201.491,210.996 207.325,213.329 212,218.5C 212.806,223.06 210.973,226.226 206.5,228C 202.442,228.767 198.442,228.6 194.5,227.5C 192.922,223.71 191.922,219.71 191.5,215.5C 192.524,214.148 193.524,212.815 194.5,211.5 Z"/></g>
<g><path style="opacity:1" fill="#f2b173" d="M 147.5,211.5 C 149.199,211.34 150.866,211.506 152.5,212C 154.373,214.209 156.54,216.042 159,217.5C 158.684,227.426 153.518,230.926 143.5,228C 139.553,226.411 137.72,223.578 138,219.5C 140.772,216.217 143.939,213.55 147.5,211.5 Z"/></g>
<g><path style="opacity:1" fill="#f4c5c4" d="M 359.5,256.5 C 355.441,260.565 351.107,264.232 346.5,267.5C 346.322,266.305 345.989,265.138 345.5,264C 351.991,254.002 352.158,243.835 346,233.5C 340.855,227.694 336.522,221.361 333,214.5C 331.465,205.122 332.965,196.289 337.5,188C 341.672,187.132 344.838,188.632 347,192.5C 352.135,213.674 356.302,235.007 359.5,256.5 Z"/></g>
<g><path style="opacity:1" fill="#81b7b2" d="M 331.5,227.5 C 348.924,246.75 345.59,261.25 321.5,271C 319.421,271.808 317.421,271.641 315.5,270.5C 320.054,264.058 323.554,257.058 326,249.5C 327.205,246.132 326.205,243.798 323,242.5C 321.739,242.759 320.739,243.426 320,244.5C 317.055,253.727 312.555,262.061 306.5,269.5C 304.257,270.474 301.924,270.808 299.5,270.5C 299.049,255.52 303.383,242.187 312.5,230.5C 318.769,229.113 325.102,228.113 331.5,227.5 Z"/></g>
<g><path style="opacity:1" fill="#d7395b" d="M 413.5,211.5 C 422.888,218.944 428.055,228.611 429,240.5C 410.347,253.806 404.18,271.473 410.5,293.5C 408.898,297.095 406.898,300.429 404.5,303.5C 401.734,301.741 399.734,299.407 398.5,296.5C 401.611,278.382 401.111,260.382 397,242.5C 396.626,240.509 395.793,238.842 394.5,237.5C 393.3,230.901 391.3,224.567 388.5,218.5C 388.62,217.414 389.287,216.747 390.5,216.5C 398.081,214.354 405.748,212.687 413.5,211.5 Z"/></g>
<g><path style="opacity:1" fill="#f3a369" d="M 162.5,230.5 C 170.315,235.215 178.315,235.548 186.5,231.5C 191.741,240.537 189.075,246.371 178.5,249C 165.752,251.233 159.586,246.066 160,233.5C 161.045,232.627 161.878,231.627 162.5,230.5 Z"/></g>
<g><path style="opacity:1" fill="#1d6899" d="M 218.5,226.5 C 220.95,246.676 218.95,266.509 212.5,286C 210.512,286.18 208.512,286.014 206.5,285.5C 205.639,269.083 203.972,252.749 201.5,236.5C 209.214,236.482 214.88,233.149 218.5,226.5 Z"/></g>
<g><path style="opacity:1" fill="#83212a" d="M 356.5,198.5 C 387.276,217.815 395.109,244.148 380,277.5C 376.478,274.734 373.145,271.734 370,268.5C 366.248,244.984 361.748,221.651 356.5,198.5 Z"/></g>
<g><path style="opacity:1" fill="#80b7b2" d="M 264.5,241.5 C 271.295,250.427 275.962,260.427 278.5,271.5C 276.076,271.808 273.743,271.474 271.5,270.5C 269.726,264.256 266.059,259.589 260.5,256.5C 259.558,256.608 258.725,256.941 258,257.5C 257.333,259.167 257.333,260.833 258,262.5C 260.029,265.029 261.862,267.696 263.5,270.5C 251.579,275.617 243.079,272.283 238,260.5C 237.501,256.514 237.334,252.514 237.5,248.5C 238.309,247.531 239.309,246.698 240.5,246C 248.454,244.177 256.454,242.677 264.5,241.5 Z"/></g>
<g><path style="opacity:1" fill="#d0ddf6" d="M 479.5,252.5 C 461.833,253.833 444.167,253.833 426.5,252.5C 441.262,239.514 457.262,238.014 474.5,248C 476.24,249.517 477.906,251.017 479.5,252.5 Z"/></g>
<g><path style="opacity:1" fill="#438eb9" d="M 124.5,250.5 C 124.733,252.062 125.4,253.395 126.5,254.5C 97.0676,268.049 67.7342,281.882 38.5,296C 37.9341,296.995 37.2674,297.828 36.5,298.5C 43.1254,270.037 60.792,253.537 89.5,249C 101.289,248.035 112.956,248.535 124.5,250.5 Z"/></g>
<g><path style="opacity:1" fill="#1e6797" d="M 193.5,247.5 C 195.045,248.23 195.878,249.563 196,251.5C 197.273,261.804 198.107,272.137 198.5,282.5C 194.578,282.155 190.745,281.488 187,280.5C 186.205,272.692 184.705,265.025 182.5,257.5C 184.569,254.952 187.236,253.119 190.5,252C 192.141,250.871 193.141,249.371 193.5,247.5 Z"/></g>
<g><path style="opacity:1" fill="#1f6897" d="M 136.5,232.5 C 140.897,235.849 145.897,237.183 151.5,236.5C 153.135,250.259 160.968,257.259 175,257.5C 176.696,265.478 178.196,273.478 179.5,281.5C 177.801,281.66 176.134,281.494 174.5,281C 169.332,274.335 163.999,267.835 158.5,261.5C 159.995,261.585 160.995,260.919 161.5,259.5C 153.531,255.55 149.198,249.217 148.5,240.5C 145.148,240.216 142.148,239.05 139.5,237C 137.859,235.871 136.859,234.371 136.5,232.5 Z"/></g>
<g><path style="opacity:1" fill="#c6d3f5" d="M 426.5,252.5 C 444.167,253.833 461.833,253.833 479.5,252.5C 484.648,257.793 487.981,264.126 489.5,271.5C 489.826,275.884 489.492,280.217 488.5,284.5C 487.702,284.043 487.369,283.376 487.5,282.5C 487.163,267.995 479.83,260.828 465.5,261C 459.802,264.568 457.469,269.735 458.5,276.5C 456.833,276.5 455.167,276.5 453.5,276.5C 453.806,273.615 453.473,270.948 452.5,268.5C 450.794,258.977 445.127,255.143 435.5,257C 427.665,260.989 422.665,267.156 420.5,275.5C 419.292,276.234 417.959,276.567 416.5,276.5C 416.5,274.833 416.5,273.167 416.5,271.5C 418.019,264.126 421.352,257.793 426.5,252.5 Z"/></g>
<g><path style="opacity:1" fill="#418cbd" d="M 126.5,254.5 C 130.848,260.007 134.848,265.84 138.5,272C 137.552,272.483 136.552,272.649 135.5,272.5C 106.697,266.756 81.3632,273.59 59.5,293C 50.5339,301.626 42.7006,311.126 36,321.5C 33.9796,313.786 34.1462,306.119 36.5,298.5C 37.2674,297.828 37.9341,296.995 38.5,296C 67.7342,281.882 97.0676,268.049 126.5,254.5 Z"/></g>
<g><path style="opacity:1" fill="#28283c" d="M 452.5,268.5 C 453.639,281.409 448.306,290.242 436.5,295C 428.465,295.89 423.299,292.39 421,284.5C 420.502,281.518 420.335,278.518 420.5,275.5C 422.665,267.156 427.665,260.989 435.5,257C 445.127,255.143 450.794,258.977 452.5,268.5 Z"/></g>
<g><path style="opacity:1" fill="#7c1f26" d="M 394.5,237.5 C 395.793,238.842 396.626,240.509 397,242.5C 401.111,260.382 401.611,278.382 398.5,296.5C 394.352,292.182 390.352,287.682 386.5,283C 392.899,268.434 395.566,253.268 394.5,237.5 Z"/></g>
<g><path style="opacity:1" fill="#29293d" d="M 487.5,282.5 C 485.934,291.458 480.601,295.291 471.5,294C 463.896,290.567 459.563,284.734 458.5,276.5C 457.469,269.735 459.802,264.568 465.5,261C 479.83,260.828 487.163,267.995 487.5,282.5 Z"/></g>
<g><path style="opacity:1" fill="#216894" d="M 124.5,250.5 C 130.71,251.409 136.71,253.075 142.5,255.5C 150.853,264.685 159.02,274.019 167,283.5C 167.667,284.167 167.667,284.833 167,285.5C 157.09,279.482 146.59,275.148 135.5,272.5C 136.552,272.649 137.552,272.483 138.5,272C 134.848,265.84 130.848,260.007 126.5,254.5C 125.4,253.395 124.733,252.062 124.5,250.5 Z"/></g>
<g><path style="opacity:1" fill="#7a91ed" d="M 468.5,267.5 C 478.61,270.219 481.61,276.386 477.5,286C 470.172,285.664 466.506,281.664 466.5,274C 466.338,271.498 467.005,269.331 468.5,267.5 Z"/></g>
<g><path style="opacity:1" fill="#7a91ee" d="M 438.5,263.5 C 441.522,263.428 443.688,264.762 445,267.5C 446.398,275.869 443.565,282.369 436.5,287C 432.834,288.271 430.334,287.104 429,283.5C 427.713,277.982 428.713,272.982 432,268.5C 434.352,266.97 436.519,265.303 438.5,263.5 Z"/></g>
<g><path style="opacity:1" fill="#7a1f25" d="M 338.5,270.5 C 341.868,278.395 345.368,286.395 349,294.5C 351.467,298.6 354.301,302.434 357.5,306C 354.346,308.743 351.012,311.243 347.5,313.5C 341.677,306.54 335.844,299.54 330,292.5C 329.333,287.167 329.333,281.833 330,276.5C 332.988,274.601 335.821,272.601 338.5,270.5 Z"/></g>
<g><path style="opacity:1" fill="#82202b" d="M 228.5,254.5 C 230.019,269.687 238.353,278.353 253.5,280.5C 253.724,284.204 253.89,287.871 254,291.5C 250.019,294.647 246.186,297.98 242.5,301.5C 234.248,298.707 226.581,294.874 219.5,290C 222.864,278.145 225.864,266.312 228.5,254.5 Z"/></g>
<g><path style="opacity:1" fill="#1f6995" d="M 136.5,281.5 C 119.202,291.819 101.869,302.152 84.5,312.5C 87.0846,298.835 94.0846,288.001 105.5,280C 113.061,278.402 120.728,278.069 128.5,279C 131.379,279.546 134.046,280.379 136.5,281.5 Z"/></g>
<g><path style="opacity:1" fill="#f9cc97" d="M 293.5,278.5 C 293.396,281.84 292.396,285.173 290.5,288.5C 280.572,289.1 270.905,288.433 261.5,286.5C 261.5,284.167 261.5,281.833 261.5,279.5C 272.14,278.625 282.806,278.291 293.5,278.5 Z"/></g>
<g><path style="opacity:1" fill="#f3b287" d="M 293.5,278.5 C 302.833,278.5 312.167,278.5 321.5,278.5C 321.5,281.833 321.5,285.167 321.5,288.5C 311.167,288.5 300.833,288.5 290.5,288.5C 292.396,285.173 293.396,281.84 293.5,278.5 Z"/></g>
<g><path style="opacity:1" fill="#1d689a" d="M 136.5,281.5 C 138.927,281.523 141.26,282.023 143.5,283C 116.633,298.195 100.133,321.028 94,351.5C 92.891,359.82 91.891,368.154 91,376.5C 81.4379,355.772 79.2712,334.438 84.5,312.5C 101.869,302.152 119.202,291.819 136.5,281.5 Z"/></g>
<g><path style="opacity:1" fill="#7d645a" d="M 261.5,286.5 C 270.905,288.433 280.572,289.1 290.5,288.5C 300.833,288.5 311.167,288.5 321.5,288.5C 301.674,289.497 281.674,289.83 261.5,289.5C 261.5,288.5 261.5,287.5 261.5,286.5 Z"/></g>
<g><path style="opacity:1" fill="#f6cbca" d="M 195.5,289.5 C 192.199,296.766 188.366,303.766 184,310.5C 183.124,312.635 181.624,313.969 179.5,314.5C 173.967,313.651 169.134,311.317 165,307.5C 162.496,302.354 163.329,297.854 167.5,294C 176.114,288.519 185.447,287.019 195.5,289.5 Z"/></g>
<g><path style="opacity:1" fill="#f8c4c2" d="M 195.5,289.5 C 203.949,291.723 211.949,295.057 219.5,299.5C 217.204,305.319 214.204,310.819 210.5,316C 207.518,316.498 204.518,316.665 201.5,316.5C 193.921,316.906 186.588,316.239 179.5,314.5C 181.624,313.969 183.124,312.635 184,310.5C 188.366,303.766 192.199,296.766 195.5,289.5 Z"/></g>
<g><path style="opacity:1" fill="#f6bab6" d="M 359.5,256.5 C 360.676,262.14 362.176,267.806 364,273.5C 370.333,279.167 376.667,284.833 383,290.5C 385.41,293.397 387.577,296.397 389.5,299.5C 385.441,304.562 380.774,308.895 375.5,312.5C 360.579,301.016 350.912,286.016 346.5,267.5C 351.107,264.232 355.441,260.565 359.5,256.5 Z"/></g>
<g><path style="opacity:1" fill="#28283c" d="M 465.5,296.5 C 467.317,309.497 461.651,314.331 448.5,311C 446.261,309.69 444.594,307.857 443.5,305.5C 442.87,298.282 445.87,293.116 452.5,290C 455.257,289.416 457.923,289.75 460.5,291C 462.3,292.812 463.967,294.645 465.5,296.5 Z"/></g>
<g><path style="opacity:1" fill="#acbff3" d="M 452.5,268.5 C 453.473,270.948 453.806,273.615 453.5,276.5C 455.167,276.5 456.833,276.5 458.5,276.5C 459.563,284.734 463.896,290.567 471.5,294C 480.601,295.291 485.934,291.458 487.5,282.5C 487.369,283.376 487.702,284.043 488.5,284.5C 489.492,280.217 489.826,275.884 489.5,271.5C 491.333,279.816 490.333,287.816 486.5,295.5C 479.313,295.175 472.313,295.509 465.5,296.5C 463.967,294.645 462.3,292.812 460.5,291C 457.923,289.75 455.257,289.416 452.5,290C 445.87,293.116 442.87,298.282 443.5,305.5C 437.974,305.179 432.64,305.512 427.5,306.5C 421.379,301.271 417.546,294.604 416,286.5C 415.184,281.316 415.35,276.316 416.5,271.5C 416.5,273.167 416.5,274.833 416.5,276.5C 417.959,276.567 419.292,276.234 420.5,275.5C 420.335,278.518 420.502,281.518 421,284.5C 423.299,292.39 428.465,295.89 436.5,295C 448.306,290.242 453.639,281.409 452.5,268.5 Z"/></g>
<g><path style="opacity:1" fill="#55817b" d="M 342.5,321.5 C 336.31,321.177 330.31,321.51 324.5,322.5C 321.223,313.774 317.223,305.274 312.5,297C 316.541,296.173 320.541,296.34 324.5,297.5C 330.996,305.172 336.996,313.172 342.5,321.5 Z"/></g>
<g><path style="opacity:1" fill="#56817b" d="M 314.5,319.5 C 308.82,318.942 303.153,318.275 297.5,317.5C 297.5,318.5 297.5,319.5 297.5,320.5C 296.064,312.634 294.73,304.634 293.5,296.5C 296.898,296.18 300.232,296.513 303.5,297.5C 307.705,304.577 311.372,311.91 314.5,319.5 Z"/></g>
<g><path style="opacity:1" fill="#6a80da" d="M 454.5,297.5 C 457.808,298.615 458.808,300.782 457.5,304C 449.57,304.974 448.57,302.807 454.5,297.5 Z"/></g>
<g><path style="opacity:1" fill="#f3b4b3" d="M 219.5,299.5 C 226.812,303.656 234.479,306.989 242.5,309.5C 240.735,312.709 238.735,315.709 236.5,318.5C 224.691,317.895 213.025,317.228 201.5,316.5C 204.518,316.665 207.518,316.498 210.5,316C 214.204,310.819 217.204,305.319 219.5,299.5 Z"/></g>
<g><path style="opacity:1" fill="#58877c" d="M 265.5,311.5 C 264.596,310.791 264.263,309.791 264.5,308.5C 259.905,307.968 255.571,306.635 251.5,304.5C 255.463,298.202 261.129,295.536 268.5,296.5C 266.876,301.374 265.876,306.374 265.5,311.5 Z"/></g>
<g><path style="opacity:1" fill="#56817a" d="M 288.5,315.5 C 283.167,314.167 277.833,312.833 272.5,311.5C 273.833,306.5 275.167,301.5 276.5,296.5C 279.5,296.5 282.5,296.5 285.5,296.5C 286.661,302.811 287.661,309.144 288.5,315.5 Z"/></g>
<g><path style="opacity:1" fill="#a2b8f6" d="M 486.5,295.5 C 485.191,298.778 483.358,301.778 481,304.5C 473.398,309.443 469.065,316.443 468,325.5C 466.89,327.037 465.39,327.703 463.5,327.5C 463.663,325.143 463.497,322.81 463,320.5C 460.667,317.833 458.333,317.833 456,320.5C 455.503,322.81 455.337,325.143 455.5,327.5C 454.167,327.5 452.833,327.5 451.5,327.5C 451.802,324.941 451.468,322.607 450.5,320.5C 448.46,317.866 446.293,317.866 444,320.5C 443.503,322.81 443.337,325.143 443.5,327.5C 441.278,327.822 439.444,327.155 438,325.5C 437.053,317.594 433.553,311.261 427.5,306.5C 432.64,305.512 437.974,305.179 443.5,305.5C 444.594,307.857 446.261,309.69 448.5,311C 461.651,314.331 467.317,309.497 465.5,296.5C 472.313,295.509 479.313,295.175 486.5,295.5 Z"/></g>
<g><path style="opacity:1" fill="#741f25" d="M 361.5,312.5 C 362.552,312.351 363.552,312.517 364.5,313C 370.686,318.687 377.019,324.187 383.5,329.5C 377.244,335.97 369.911,340.97 361.5,344.5C 358.192,336.939 354.859,329.273 351.5,321.5C 354.853,318.478 358.187,315.478 361.5,312.5 Z"/></g>
<g><path style="opacity:1" fill="#86b8b2" d="M 251.5,304.5 C 255.571,306.635 259.905,307.968 264.5,308.5C 264.263,309.791 264.596,310.791 265.5,311.5C 267.771,314.147 270.104,314.147 272.5,311.5C 277.833,312.833 283.167,314.167 288.5,315.5C 289.878,322.562 291.211,329.729 292.5,337C 294.441,337.743 296.274,337.576 298,336.5C 298.529,331.146 298.362,325.813 297.5,320.5C 297.5,319.5 297.5,318.5 297.5,317.5C 303.153,318.275 308.82,318.942 314.5,319.5C 318.275,329.598 321.275,339.932 323.5,350.5C 316.108,351.515 308.774,352.848 301.5,354.5C 296.852,349.939 294.185,350.939 293.5,357.5C 292.85,357.196 292.183,356.863 291.5,356.5C 281.879,358.822 272.213,360.988 262.5,363C 261.186,363.985 260.186,365.152 259.5,366.5C 260.384,355.894 263.217,345.894 268,336.5C 268.667,333.5 268.667,330.5 268,327.5C 263.726,318.785 257.893,311.285 250.5,305C 250.728,304.601 251.062,304.435 251.5,304.5 Z"/></g>
<g><path style="opacity:1" fill="#efaba9" d="M 389.5,299.5 C 400.335,311.501 412.002,322.668 424.5,333C 426.246,333.471 427.913,334.138 429.5,335C 439.828,335.5 450.161,335.666 460.5,335.5C 460.67,336.822 460.337,337.989 459.5,339C 449.289,344.974 438.289,346.974 426.5,345C 407.492,337.128 390.492,326.295 375.5,312.5C 380.774,308.895 385.441,304.562 389.5,299.5 Z"/></g>
<g><path style="opacity:1" fill="#5e688e" d="M 450.5,320.5 C 451.468,322.607 451.802,324.941 451.5,327.5C 452.833,327.5 454.167,327.5 455.5,327.5C 454.081,328.451 452.415,328.784 450.5,328.5C 450.5,325.833 450.5,323.167 450.5,320.5 Z"/></g>
<g><path style="opacity:1" fill="#eda5a2" d="M 242.5,309.5 C 251.27,314.771 257.27,322.271 260.5,332C 260.109,338.537 257.109,343.371 251.5,346.5C 250.522,346.023 249.689,345.357 249,344.5C 246.713,338.259 244.713,331.926 243,325.5C 241.306,322.642 239.139,320.309 236.5,318.5C 238.735,315.709 240.735,312.709 242.5,309.5 Z"/></g>
<g><path style="opacity:1" fill="#252538" d="M 147.5,325.5 C 154.338,328.165 159.505,332.832 163,339.5C 164.646,343.878 165.813,348.378 166.5,353C 164.078,363.602 161.244,374.102 158,384.5C 155.936,385.591 153.769,385.758 151.5,385C 134.497,366.157 133.164,346.323 147.5,325.5 Z"/></g>
<g><path style="opacity:1" fill="#87b8b3" d="M 230.5,330.5 C 232.504,331.673 234.004,333.34 235,335.5C 236.034,342.342 237.701,349.008 240,355.5C 243.308,359.352 247.308,360.352 252,358.5C 252.464,359.094 252.631,359.761 252.5,360.5C 252.784,362.415 252.451,364.081 251.5,365.5C 238.894,367.777 226.394,370.444 214,373.5C 213.617,372.944 213.117,372.611 212.5,372.5C 215.802,357.241 221.802,343.241 230.5,330.5 Z"/></g>
<g><path style="opacity:1" fill="#14629d" d="M 149.5,336.5 C 156.742,342.027 159.242,349.361 157,358.5C 155.632,363.324 153.965,367.991 152,372.5C 144.392,360.975 143.558,348.975 149.5,336.5 Z"/></g>
<g><path style="opacity:1" fill="#252639" d="M 49.5,344.5 C 53.4896,343.616 56.3229,344.949 58,348.5C 64.1544,358.884 64.8211,369.551 60,380.5C 55.273,386.897 50.9396,393.564 47,400.5C 44.8723,403.458 42.2056,404.124 39,402.5C 28.2801,380.599 31.7801,361.266 49.5,344.5 Z"/></g>
<g><path style="opacity:1" fill="#88b9ae" d="M 342.5,321.5 C 353.784,342.702 359.117,365.368 358.5,389.5C 351.146,390.704 343.813,392.037 336.5,393.5C 336.826,401.684 336.492,409.684 335.5,417.5C 337.164,385.166 333.497,353.499 324.5,322.5C 330.31,321.51 336.31,321.177 342.5,321.5 Z"/></g>
<g><path style="opacity:1" fill="#537e7c" d="M 252.5,360.5 C 252.631,359.761 252.464,359.094 252,358.5C 247.308,360.352 243.308,359.352 240,355.5C 237.701,349.008 236.034,342.342 235,335.5C 234.004,333.34 232.504,331.673 230.5,330.5C 231.021,327.281 232.688,326.281 235.5,327.5C 237.766,334.464 239.932,341.464 242,348.5C 244.819,352.493 248.653,354.16 253.5,353.5C 253.802,356.059 253.468,358.393 252.5,360.5 Z"/></g>
<g><path style="opacity:1" fill="#88baae" d="M 323.5,350.5 C 326.392,365.305 327.725,380.305 327.5,395.5C 319.251,397.55 310.918,399.216 302.5,400.5C 302.784,402.415 302.451,404.081 301.5,405.5C 302.512,394.852 302.679,384.186 302,373.5C 299.667,370.833 297.333,370.833 295,373.5C 294.755,383.2 294.255,392.866 293.5,402.5C 280.63,405.674 267.63,408.341 254.5,410.5C 255.675,395.767 257.342,381.101 259.5,366.5C 260.186,365.152 261.186,363.985 262.5,363C 272.213,360.988 281.879,358.822 291.5,356.5C 292.183,356.863 292.85,357.196 293.5,357.5C 295.011,359.441 297.011,359.941 299.5,359C 301.037,357.89 301.703,356.39 301.5,354.5C 308.774,352.848 316.108,351.515 323.5,350.5 Z"/></g>
<g><path style="opacity:1" fill="#2a2b3d" d="M 301.5,354.5 C 301.703,356.39 301.037,357.89 299.5,359C 297.011,359.941 295.011,359.441 293.5,357.5C 294.185,350.939 296.852,349.939 301.5,354.5 Z"/></g>
<g><path style="opacity:1" fill="#89baad" d="M 251.5,365.5 C 248.374,390.092 246.041,414.758 244.5,439.5C 231.004,431.507 219.17,421.507 209,409.5C 207.81,396.904 208.977,384.571 212.5,372.5C 213.117,372.611 213.617,372.944 214,373.5C 226.394,370.444 238.894,367.777 251.5,365.5 Z"/></g>
<g><path style="opacity:1" fill="#3c87bc" d="M 50.5,355.5 C 52.7761,355.756 53.9428,357.09 54,359.5C 55.2811,366.543 54.2811,373.21 51,379.5C 48.0887,382.99 45.422,386.656 43,390.5C 38.697,377.378 41.197,365.712 50.5,355.5 Z"/></g>
<g><path style="opacity:1" fill="#8dbead" d="M 358.5,389.5 C 360.03,401.795 360.697,414.295 360.5,427C 360.387,438.845 360.053,450.678 359.5,462.5C 350.5,462.5 341.5,462.5 332.5,462.5C 333.721,447.519 334.721,432.519 335.5,417.5C 336.492,409.684 336.826,401.684 336.5,393.5C 343.813,392.037 351.146,390.704 358.5,389.5 Z"/></g>
<g><path style="opacity:1" fill="#8dbfad" d="M 327.5,395.5 C 327.871,417.571 326.871,439.571 324.5,461.5C 313.801,460.448 303.135,459.115 292.5,457.5C 296.792,440.413 299.792,423.08 301.5,405.5C 302.451,404.081 302.784,402.415 302.5,400.5C 310.918,399.216 319.251,397.55 327.5,395.5 Z"/></g>
<g><path style="opacity:1" fill="#8dbead" d="M 293.5,402.5 C 293.045,419.897 290.212,436.897 285,453.5C 284.275,454.059 283.442,454.392 282.5,454.5C 272.319,451.718 262.485,448.051 253,443.5C 252.17,432.416 252.67,421.416 254.5,410.5C 267.63,408.341 280.63,405.674 293.5,402.5 Z"/></g>
</svg>
