<?xml version="1.0" encoding="UTF-8"?>
<!DOCTYPE svg PUBLIC "-//W3C//DTD SVG 1.1//EN" "http://www.w3.org/Graphics/SVG/1.1/DTD/svg11.dtd">
<svg xmlns="http://www.w3.org/2000/svg" version="1.1" width="512px" height="512px" style="shape-rendering:geometricPrecision; text-rendering:geometricPrecision; image-rendering:optimizeQuality; fill-rule:evenodd; clip-rule:evenodd" xmlns:xlink="http://www.w3.org/1999/xlink">
<g><path style="opacity:1" fill="#272638" d="M 24.5,22.5 C 52.4426,21.4744 75.1093,31.8078 92.5,53.5C 94.745,50.0879 97.745,47.5879 101.5,46C 107.865,46.1063 114.199,45.9396 120.5,45.5C 124.074,45.6912 127.407,46.6912 130.5,48.5C 140.049,44.5175 147.549,46.8509 153,55.5C 158.553,52.4241 164.386,49.9241 170.5,48C 180.542,46.5512 190.542,44.8846 200.5,43C 205.853,40.2989 211.186,37.6322 216.5,35C 231.364,34.5324 237.864,41.6991 236,56.5C 233.596,62.8085 229.096,66.9752 222.5,69C 219.226,70.2023 215.893,71.2023 212.5,72C 200.176,73.7867 187.843,75.4534 175.5,77C 184.481,81.3137 190.648,88.147 194,97.5C 194.698,102.818 196.532,107.651 199.5,112C 210.52,116.862 215.853,125.362 215.5,137.5C 235.534,148.6 256.367,157.933 278,165.5C 289.159,156.792 301.493,154.459 315,158.5C 314.117,151.607 313.617,144.607 313.5,137.5C 307.633,137.132 303.133,134.466 300,129.5C 298.275,126.326 296.942,122.993 296,119.5C 294,116.833 292,116.833 290,119.5C 288.529,123.581 286.862,127.581 285,131.5C 273.93,137.132 267.596,133.798 266,121.5C 264.333,125.167 262.667,128.833 261,132.5C 257.257,136.259 252.757,137.426 247.5,136C 245,134.833 243.167,133 242,130.5C 241.925,119.048 244.925,108.381 251,98.5C 261.399,80.8731 275.899,67.7064 294.5,59C 306.835,57.003 312.335,62.1696 311,74.5C 308.451,79.428 306.617,84.5947 305.5,90C 305.454,91.728 305.954,93.228 307,94.5C 316.597,83.5681 327.431,74.0681 339.5,66C 343.958,63.8594 348.625,63.1928 353.5,64C 361.987,67.7434 369.654,72.7434 376.5,79C 381.7,83.8653 386.533,89.0319 391,94.5C 392.557,91.7055 392.89,88.7055 392,85.5C 389.438,80.5531 387.605,75.3865 386.5,70C 387.93,60.1044 393.597,56.4378 403.5,59C 432.143,72.6534 450.143,94.9867 457.5,126C 455.687,134.909 450.354,138.242 441.5,136C 439.714,135.215 438.214,134.049 437,132.5C 435.607,128.714 433.941,125.048 432,121.5C 432.08,131.422 427.246,135.589 417.5,134C 415.376,132.878 413.543,131.378 412,129.5C 410.748,125.048 408.748,121.048 406,117.5C 404.739,117.759 403.739,118.426 403,119.5C 401.226,125.553 398.059,130.72 393.5,135C 391.091,136.707 388.425,137.54 385.5,137.5C 387.054,157.856 380.387,174.856 365.5,188.5C 366.274,192.779 366.774,197.113 367,201.5C 372.221,205.189 378.055,207.356 384.5,208C 392.024,208.391 399.358,207.725 406.5,206C 411.496,207.986 415.663,211.153 419,215.5C 425.24,212.703 431.406,212.87 437.5,216C 441.612,221.979 444.778,228.479 447,235.5C 452.374,239.361 457.374,243.694 462,248.5C 466.456,257.522 464.956,265.356 457.5,272C 463.554,279.06 468.387,286.893 472,295.5C 477.851,320.274 482.518,345.274 486,370.5C 489.73,378.293 493.73,385.959 498,393.5C 501.043,399.56 500.71,405.56 497,411.5C 491.167,416 485.333,420.5 479.5,425C 487.041,441.746 482.041,452.58 464.5,457.5C 462.742,456.872 461.242,455.872 460,454.5C 458.513,449.221 457.347,443.888 456.5,438.5C 408.568,443.979 363.235,457.812 320.5,480C 292.157,490.145 263.49,491.145 234.5,483C 233.707,481.915 233.04,480.748 232.5,479.5C 234.131,476.404 236.131,473.57 238.5,471C 251.481,460.043 265.981,451.543 282,445.5C 283.582,431.02 285.082,416.52 286.5,402C 286.167,401.167 285.833,400.333 285.5,399.5C 259.169,412.143 231.502,416.643 202.5,413C 200.964,411.401 200.464,409.567 201,407.5C 212.243,400.925 221.576,392.259 229,381.5C 229.982,380.241 230.315,378.908 230,377.5C 224.813,380.677 219.313,383.177 213.5,385C 193.548,389.548 173.548,393.881 153.5,398C 128.543,406.952 109.71,423.118 97,446.5C 91.8085,451.159 88.9752,449.992 88.5,443C 92.6189,409.794 104.286,379.627 123.5,352.5C 113.743,352.865 105.076,356.365 97.5,363C 93.8194,364.314 91.4861,363.147 90.5,359.5C 101.915,319.488 124.915,287.988 159.5,265C 169.843,258.493 180.51,252.493 191.5,247C 205.58,241.529 219.58,235.862 233.5,230C 242.416,224.419 250.083,217.419 256.5,209C 237.092,195.544 217.259,182.71 197,170.5C 196.508,180.522 191.508,186.855 182,189.5C 179.483,207.344 169.983,212.51 153.5,205C 146.297,198.105 140.964,189.939 137.5,180.5C 121.696,200.78 105.196,201.447 88,182.5C 84.3058,188.403 79.8058,193.569 74.5,198C 61.0563,203.113 53.0563,198.613 50.5,184.5C 51.472,178.225 54.3053,172.892 59,168.5C 60.8707,163.533 60.0374,163.366 56.5,168C 47.1698,172.422 39.0031,170.922 32,163.5C 28.7877,157.533 28.7877,151.533 32,145.5C 34.7011,140.147 37.3678,134.814 40,129.5C 40.6667,125.5 40.6667,121.5 40,117.5C 31.2132,122.362 23.5466,121.028 17,113.5C 13.6858,107.023 14.0192,100.69 18,94.5C 27.1808,78.1643 41.0141,68.6643 59.5,66C 56.0581,62.9457 52.0581,60.9457 47.5,60C 38.8979,58.2729 30.2312,56.9396 21.5,56C 11.4313,50.3056 8.59802,42.139 13,31.5C 15.6834,26.922 19.5168,23.922 24.5,22.5 Z M 436.5,320.5 C 438.15,326.748 439.984,333.082 442,339.5C 448.743,352.822 454.243,366.656 458.5,381C 455.5,381.333 452.5,381.667 449.5,382C 446.056,382.111 443.723,383.777 442.5,387C 444.165,392.662 445.832,398.329 447.5,404C 441.292,407.124 434.959,409.958 428.5,412.5C 427.306,394.747 421.473,378.747 411,364.5C 410.172,360.129 410.339,355.795 411.5,351.5C 421.999,342.791 430.332,332.458 436.5,320.5 Z"/></g>
<g><path style="opacity:1" fill="#8dad95" d="M 58.5,37.5 C 55.3869,41.5491 52.3869,45.7157 49.5,50C 47.8659,50.4935 46.1992,50.6602 44.5,50.5C 37.4268,50.1611 30.4268,49.3277 23.5,48C 18.2345,42.7402 18.2345,37.4069 23.5,32C 35.8646,29.5094 47.5312,31.3427 58.5,37.5 Z"/></g>
<g><path style="opacity:1" fill="#282839" d="M 32.5,34.5 C 38.4877,34.664 39.821,37.164 36.5,42C 30.4034,42.1475 29.0701,39.6475 32.5,34.5 Z"/></g>
<g><path style="opacity:1" fill="#7e9d86" d="M 58.5,37.5 C 73.307,43.1383 84.1404,53.1383 91,67.5C 91.8141,69.9018 91.6474,72.2351 90.5,74.5C 85.4701,71.655 80.1368,69.4883 74.5,68C 66.3805,58.7792 56.3805,52.9458 44.5,50.5C 46.1992,50.6602 47.8659,50.4935 49.5,50C 52.3869,45.7157 55.3869,41.5491 58.5,37.5 Z"/></g>
<g><path style="opacity:1" fill="#88a78f" d="M 185.5,66.5 C 184.167,66.5 182.833,66.5 181.5,66.5C 180.909,63.0601 179.909,59.7268 178.5,56.5C 178.863,55.8165 179.196,55.1499 179.5,54.5C 185.934,54.4754 192.267,53.6421 198.5,52C 205.876,49.2271 213.042,46.0605 220,42.5C 226.72,43.875 229.387,47.875 228,54.5C 226.833,57 225,58.8333 222.5,60C 210.604,64.5246 198.271,66.6913 185.5,66.5 Z"/></g>
<g><path style="opacity:1" fill="#2a2b3b" d="M 214.5,47.5 C 220.488,47.664 221.821,50.164 218.5,55C 212.202,55.4954 210.868,52.9954 214.5,47.5 Z"/></g>
<g><path style="opacity:1" fill="#f2b4b2" d="M 143.5,80.5 C 140.555,81.4675 137.555,81.6342 134.5,81C 133.577,78.9592 133.244,76.7925 133.5,74.5C 133.5,72.5 133.5,70.5 133.5,68.5C 133.686,62.296 131.186,60.9626 126,64.5C 125.51,65.7932 125.343,67.1266 125.5,68.5C 125.5,72.1667 125.5,75.8333 125.5,79.5C 122.927,80.5552 120.261,80.7218 117.5,80C 116.594,78.3005 116.261,76.4672 116.5,74.5C 116.5,72.1667 116.5,69.8333 116.5,67.5C 116.648,60.4364 114.148,59.1031 109,63.5C 108.51,64.7932 108.343,66.1266 108.5,67.5C 108.495,71.5341 108.162,75.5341 107.5,79.5C 104.5,79.5 101.5,79.5 98.5,79.5C 98.7677,71.7314 99.601,64.0647 101,56.5C 104.771,52.9081 108.937,52.5748 113.5,55.5C 115.75,54.5413 118.084,53.8747 120.5,53.5C 124.03,54.368 127.363,55.7013 130.5,57.5C 133.094,56.6158 135.594,55.6158 138,54.5C 140.406,54.7029 142.406,55.7029 144,57.5C 144.541,65.1816 144.374,72.8483 143.5,80.5 Z"/></g>
<g><path style="opacity:1" fill="#77957f" d="M 179.5,54.5 C 179.196,55.1499 178.863,55.8165 178.5,56.5C 179.909,59.7268 180.909,63.0601 181.5,66.5C 182.833,66.5 184.167,66.5 185.5,66.5C 178.618,67.822 171.618,69.1553 164.5,70.5C 162.071,70.415 160.071,69.415 158.5,67.5C 157.295,66.4231 156.628,65.0898 156.5,63.5C 163.337,58.5888 171.004,55.5888 179.5,54.5 Z"/></g>
<g><path style="opacity:1" fill="#d77884" d="M 116.5,67.5 C 113.833,64.8333 111.167,64.8333 108.5,67.5C 108.343,66.1266 108.51,64.7932 109,63.5C 114.148,59.1031 116.648,60.4364 116.5,67.5 Z"/></g>
<g><path style="opacity:1" fill="#d57782" d="M 133.5,68.5 C 130.833,65.8333 128.167,65.8333 125.5,68.5C 125.343,67.1266 125.51,65.7932 126,64.5C 131.186,60.9626 133.686,62.296 133.5,68.5 Z"/></g>
<g><path style="opacity:1" fill="#556c6d" d="M 156.5,63.5 C 156.628,65.0898 157.295,66.4231 158.5,67.5C 160.071,69.415 162.071,70.415 164.5,70.5C 160.237,72.0462 156.07,74.0462 152,76.5C 151.333,73.1667 151.333,69.8333 152,66.5C 153.271,65.1175 154.771,64.1175 156.5,63.5 Z"/></g>
<g><path style="opacity:1" fill="#ccdef6" d="M 297.5,85.5 C 289.972,84.6706 282.639,83.3373 275.5,81.5C 282.498,74.6848 290.664,69.6848 300,66.5C 302.5,66.3333 303.667,67.5 303.5,70C 301.356,75.1202 299.356,80.2868 297.5,85.5 Z"/></g>
<g><path style="opacity:1" fill="#566f6f" d="M 62.5,74.5 C 63.5032,78.5215 64.5032,82.5215 65.5,86.5C 54.9364,89.3961 46.6031,95.3961 40.5,104.5C 39.674,98.0353 38.3406,91.702 36.5,85.5C 43.4828,78.0126 52.1495,74.3459 62.5,74.5 Z"/></g>
<g><path style="opacity:1" fill="#4a5c63" d="M 62.5,74.5 C 72.9997,74.389 82.4997,77.389 91,83.5C 91.3834,88.214 93.7167,91.5474 98,93.5C 98.6667,98.1667 98.6667,102.833 98,107.5C 92.2971,92.6407 81.4638,85.6407 65.5,86.5C 64.5032,82.5215 63.5032,78.5215 62.5,74.5 Z"/></g>
<g><path style="opacity:1" fill="#e26a4d" d="M 349.5,71.5 C 357.153,74.3258 363.82,78.6592 369.5,84.5C 369.5,86.5 369.5,88.5 369.5,90.5C 367.278,90.178 365.444,90.8446 364,92.5C 363.333,95.5 363.333,98.5 364,101.5C 364.383,102.056 364.883,102.389 365.5,102.5C 366.568,103.434 367.901,103.768 369.5,103.5C 369.813,107.042 369.479,110.375 368.5,113.5C 363.529,110.01 358.529,106.51 353.5,103C 351.19,102.503 348.857,102.337 346.5,102.5C 347.209,101.596 348.209,101.263 349.5,101.5C 349.5,99.5 349.5,97.5 349.5,95.5C 352.876,93.932 354.209,91.2653 353.5,87.5C 354.274,83.7819 352.94,81.4486 349.5,80.5C 349.5,77.5 349.5,74.5 349.5,71.5 Z"/></g>
<g><path style="opacity:1" fill="#87a2f6" d="M 427.5,86.5 C 418.345,93.2484 408.678,99.2484 398.5,104.5C 398.196,103.85 397.863,103.183 397.5,102.5C 402.046,91.2901 401.046,80.6234 394.5,70.5C 395.143,67.0254 397.143,65.8588 400.5,67C 410.947,71.5512 419.947,78.0512 427.5,86.5 Z"/></g>
<g><path style="opacity:1" fill="#cf6b8d" d="M 98.5,79.5 C 101.5,79.5 104.5,79.5 107.5,79.5C 108.107,86.6972 105.274,88.3639 99,84.5C 98.5065,82.8659 98.3398,81.1992 98.5,79.5 Z"/></g>
<g><path style="opacity:1" fill="#c36587" d="M 116.5,74.5 C 116.261,76.4672 116.594,78.3005 117.5,80C 120.261,80.7218 122.927,80.5552 125.5,79.5C 126.122,86.3637 123.122,88.697 116.5,86.5C 115.191,82.3507 115.191,78.3507 116.5,74.5 Z"/></g>
<g><path style="opacity:1" fill="#312a3a" d="M 349.5,80.5 C 352.94,81.4486 354.274,83.7819 353.5,87.5C 354.209,91.2653 352.876,93.932 349.5,95.5C 347.983,95.4894 346.816,94.8228 346,93.5C 345.333,89.5 345.333,85.5 346,81.5C 347.011,80.6634 348.178,80.33 349.5,80.5 Z"/></g>
<g><path style="opacity:1" fill="#c86789" d="M 133.5,74.5 C 133.244,76.7925 133.577,78.9592 134.5,81C 137.555,81.6342 140.555,81.4675 143.5,80.5C 143.634,87.9351 140.3,90.1018 133.5,87C 132.178,82.7331 132.178,78.5664 133.5,74.5 Z"/></g>
<g><path style="opacity:1" fill="#c4d8f8" d="M 275.5,81.5 C 282.639,83.3373 289.972,84.6706 297.5,85.5C 297.5,87.8333 297.5,90.1667 297.5,92.5C 287.571,92.0302 277.905,90.6969 268.5,88.5C 270.5,85.8333 272.833,83.5 275.5,81.5 Z"/></g>
<g><path style="opacity:1" fill="#506569" d="M 178.5,89.5 C 177.769,94.357 176.436,99.0237 174.5,103.5C 168.507,95.4926 160.507,90.4926 150.5,88.5C 156.035,80.9227 163.035,79.4227 171.5,84C 174.595,84.9354 176.929,86.7687 178.5,89.5 Z"/></g>
<g><path style="opacity:1" fill="#f4c392" d="M 349.5,71.5 C 349.5,74.5 349.5,77.5 349.5,80.5C 348.178,80.33 347.011,80.6634 346,81.5C 345.333,85.5 345.333,89.5 346,93.5C 346.816,94.8228 347.983,95.4894 349.5,95.5C 349.5,97.5 349.5,99.5 349.5,101.5C 348.209,101.263 347.209,101.596 346.5,102.5C 345.167,102.833 343.833,103.167 342.5,103.5C 339.615,103.806 336.948,103.473 334.5,102.5C 335.58,99.2569 335.747,95.9236 335,92.5C 332.707,89.8661 330.54,89.8661 328.5,92.5C 327.549,93.9187 327.216,95.5853 327.5,97.5C 323.452,98.6784 319.452,98.6784 315.5,97.5C 324.866,86.1181 336.199,77.4514 349.5,71.5 Z"/></g>
<g><path style="opacity:1" fill="#7d95ec" d="M 427.5,86.5 C 436.869,96.5564 443.703,108.223 448,121.5C 448.758,123.769 448.591,125.936 447.5,128C 446.216,128.684 445.049,128.517 444,127.5C 440.2,117.03 434.033,108.197 425.5,101C 422.173,100.487 420.507,101.987 420.5,105.5C 421.222,111.218 422.222,116.885 423.5,122.5C 423.739,125.946 422.406,126.946 419.5,125.5C 418.046,119.947 415.379,115.114 411.5,111C 407.974,109.663 404.308,109.163 400.5,109.5C 400.608,107.486 399.942,105.82 398.5,104.5C 408.678,99.2484 418.345,93.2484 427.5,86.5 Z"/></g>
<g><path style="opacity:1" fill="#d96249" d="M 369.5,84.5 C 378.199,92.0323 386.033,100.366 393,109.5C 395.745,117.694 393.579,124.36 386.5,129.5C 380.157,124.487 374.157,119.154 368.5,113.5C 369.479,110.375 369.813,107.042 369.5,103.5C 367.901,103.768 366.568,103.434 365.5,102.5C 367.144,102.714 368.644,102.38 370,101.5C 371.976,97.5986 371.81,93.932 369.5,90.5C 369.5,88.5 369.5,86.5 369.5,84.5 Z"/></g>
<g><path style="opacity:1" fill="#282739" d="M 334.5,102.5 C 332.533,102.739 330.699,102.406 329,101.5C 328.502,98.5184 328.335,95.5184 328.5,92.5C 330.54,89.8661 332.707,89.8661 335,92.5C 335.747,95.9236 335.58,99.2569 334.5,102.5 Z"/></g>
<g><path style="opacity:1" fill="#2d2738" d="M 369.5,90.5 C 371.81,93.932 371.976,97.5986 370,101.5C 368.644,102.38 367.144,102.714 365.5,102.5C 364.883,102.389 364.383,102.056 364,101.5C 363.333,98.5 363.333,95.5 364,92.5C 365.444,90.8446 367.278,90.178 369.5,90.5 Z"/></g>
<g><path style="opacity:1" fill="#5f7973" d="M 36.5,85.5 C 38.3406,91.702 39.674,98.0353 40.5,104.5C 38.3719,107.13 36.0386,109.63 33.5,112C 24.6068,113.098 21.4401,109.264 24,100.5C 27.2322,94.6901 31.3989,89.6901 36.5,85.5 Z"/></g>
<g><path style="opacity:1" fill="#b9d0f8" d="M 268.5,88.5 C 277.905,90.6969 287.571,92.0302 297.5,92.5C 298.038,94.1172 298.371,95.7839 298.5,97.5C 288.729,108.205 282.062,106.538 278.5,92.5C 277.833,92.1667 277.167,91.8333 276.5,91.5C 273.709,93.7888 271.042,96.2888 268.5,99C 265.458,101.225 262.124,102.725 258.5,103.5C 261.056,97.9508 264.39,92.9508 268.5,88.5 Z"/></g>
<g><path style="opacity:1" fill="#262739" d="M 31.5,96.5 C 37.4877,96.664 38.821,99.164 35.5,104C 29.4034,104.147 28.0701,101.647 31.5,96.5 Z"/></g>
<g><path style="opacity:1" fill="#4f6367" d="M 63.5,95.5 C 74.8344,92.4924 83.5011,96.1591 89.5,106.5C 89.1667,106.833 88.8333,107.167 88.5,107.5C 84.7121,105.744 80.7121,105.078 76.5,105.5C 74.4472,99.105 70.1138,95.7717 63.5,95.5 Z"/></g>
<g><path style="opacity:1" fill="#4a5c63" d="M 109.5,92.5 C 112.426,93.4608 115.426,94.1274 118.5,94.5C 118.042,103.205 117.209,111.871 116,120.5C 112.655,123.387 109.655,123.054 107,119.5C 106.633,110.818 106.133,102.152 105.5,93.5C 107.099,93.7678 108.432,93.4345 109.5,92.5 Z"/></g>
<g><path style="opacity:1" fill="#4f6368" d="M 167.5,107.5 C 162.513,106.999 158.513,108.665 155.5,112.5C 152.566,110.304 149.233,108.971 145.5,108.5C 144.651,105.19 144.818,101.856 146,98.5C 154.865,96.491 162.031,99.491 167.5,107.5 Z"/></g>
<g><path style="opacity:1" fill="#eeb689" d="M 328.5,92.5 C 328.335,95.5184 328.502,98.5184 329,101.5C 330.699,102.406 332.533,102.739 334.5,102.5C 336.948,103.473 339.615,103.806 342.5,103.5C 340.393,105.727 338.06,107.727 335.5,109.5C 331.33,108.543 326.997,108.543 322.5,109.5C 322.784,111.415 322.451,113.081 321.5,114.5C 321.664,111.813 321.497,109.146 321,106.5C 318.925,104.352 316.592,104.018 314,105.5C 313.825,108.157 313.992,110.824 314.5,113.5C 313.596,112.791 313.263,111.791 313.5,110.5C 310.162,110.065 307.162,110.732 304.5,112.5C 307.756,107.238 311.422,102.238 315.5,97.5C 319.452,98.6784 323.452,98.6784 327.5,97.5C 327.216,95.5853 327.549,93.9187 328.5,92.5 Z"/></g>
<g><path style="opacity:1" fill="#4a5c63" d="M 126.5,93.5 C 130.474,94.4794 134.474,95.4794 138.5,96.5C 136.916,105.067 136.083,113.733 136,122.5C 132.333,125.167 128.667,125.167 125,122.5C 124.741,112.793 125.241,103.126 126.5,93.5 Z"/></g>
<g><path style="opacity:1" fill="#7b9882" d="M 63.5,95.5 C 70.1138,95.7717 74.4472,99.105 76.5,105.5C 68.8971,106.89 63.7305,111.224 61,118.5C 60.829,126.344 60.329,134.011 59.5,141.5C 59.5,135.833 59.5,130.167 59.5,124.5C 55.7356,123.452 52.069,122.119 48.5,120.5C 48.5066,112.31 51.1732,105.144 56.5,99C 58.5766,97.295 60.91,96.1283 63.5,95.5 Z"/></g>
<g><path style="opacity:1" fill="#7d96ec" d="M 298.5,97.5 C 299.256,99.2666 299.923,101.1 300.5,103C 299.38,104.737 298.38,106.571 297.5,108.5C 293.765,109.153 290.099,109.986 286.5,111C 282.822,115.189 280.322,120.023 279,125.5C 276.2,127.118 274.7,126.285 274.5,123C 276.384,116.262 277.217,109.428 277,102.5C 275.867,100.789 274.367,100.289 272.5,101C 263.838,108.508 257.838,117.675 254.5,128.5C 251.41,129.17 249.743,128.003 249.5,125C 251.059,117.136 254.059,109.97 258.5,103.5C 262.124,102.725 265.458,101.225 268.5,99C 271.042,96.2888 273.709,93.7888 276.5,91.5C 277.167,91.8333 277.833,92.1667 278.5,92.5C 282.062,106.538 288.729,108.205 298.5,97.5 Z"/></g>
<g><path style="opacity:1" fill="#2a2839" d="M 321.5,114.5 C 318.852,117.262 316.519,116.929 314.5,113.5C 313.992,110.824 313.825,108.157 314,105.5C 316.592,104.018 318.925,104.352 321,106.5C 321.497,109.146 321.664,111.813 321.5,114.5 Z"/></g>
<g><path style="opacity:1" fill="#2b2638" d="M 379.5,104.5 C 381.199,104.34 382.866,104.506 384.5,105C 385.728,108.174 385.561,111.341 384,114.5C 379.472,117.822 377.306,116.656 377.5,111C 377.338,108.498 378.005,106.331 379.5,104.5 Z"/></g>
<g><path style="opacity:1" fill="#5a7471" d="M 178.5,89.5 C 180.129,90.6253 181.629,91.9586 183,93.5C 186.039,100.365 188.705,107.365 191,114.5C 195.48,118.737 200.147,122.737 205,126.5C 208.212,137.626 204.045,142.126 192.5,140C 188.421,137.925 184.921,135.092 182,131.5C 181.942,121.454 179.442,112.121 174.5,103.5C 176.436,99.0237 177.769,94.357 178.5,89.5 Z"/></g>
<g><path style="opacity:1" fill="#76937f" d="M 167.5,107.5 C 170.124,111.085 171.957,115.085 173,119.5C 174.186,126.786 174.686,134.119 174.5,141.5C 173.834,136.983 173.167,132.317 172.5,127.5C 169.574,128.265 167.574,129.932 166.5,132.5C 164.934,124.702 161.267,118.035 155.5,112.5C 158.513,108.665 162.513,106.999 167.5,107.5 Z"/></g>
<g><path style="opacity:1" fill="#f5b186" d="M 335.5,109.5 C 327.847,116.315 320.013,122.982 312,129.5C 306.331,125.357 303.831,119.691 304.5,112.5C 307.162,110.732 310.162,110.065 313.5,110.5C 313.263,111.791 313.596,112.791 314.5,113.5C 316.519,116.929 318.852,117.262 321.5,114.5C 322.451,113.081 322.784,111.415 322.5,109.5C 326.997,108.543 331.33,108.543 335.5,109.5 Z"/></g>
<g><path style="opacity:1" fill="#683544" d="M 347.5,109.5 C 356.795,114.17 365.129,120.337 372.5,128C 371.377,129.044 370.044,129.71 368.5,130C 364.5,130.667 360.5,130.667 356.5,130C 352.038,127.203 347.872,124.036 344,120.5C 340.321,122.277 338.487,125.277 338.5,129.5C 335.761,130.767 333.094,130.601 330.5,129C 328.993,128.163 328.493,126.996 329,125.5C 335.064,119.928 341.231,114.595 347.5,109.5 Z"/></g>
<g><path style="opacity:1" fill="#4f6368" d="M 76.5,144.5 C 74.0213,143.377 71.688,143.377 69.5,144.5C 68.7784,144.082 68.2784,143.416 68,142.5C 67.3333,135.5 67.3333,128.5 68,121.5C 72.8383,112.333 79.6717,110.499 88.5,116C 79.7363,123.449 75.7363,132.949 76.5,144.5 Z"/></g>
<g><path style="opacity:1" fill="#d77582" d="M 139.5,140.5 C 134.916,139.723 130.25,139.223 125.5,139C 122.898,138.117 120.731,136.617 119,134.5C 110.606,139.465 103.44,137.965 97.5,130C 93.5979,129.112 89.9312,129.612 86.5,131.5C 88.8118,124.857 93.4785,121.19 100.5,120.5C 101.132,125.305 103.799,128.472 108.5,130C 112.141,130.644 115.641,130.144 119,128.5C 121.39,129.278 123.557,130.445 125.5,132C 129.9,132.978 134.067,132.478 138,130.5C 139.405,133.619 139.905,136.952 139.5,140.5 Z"/></g>
<g><path style="opacity:1" fill="#28283a" d="M 192.5,124.5 C 197.708,124.369 199.375,126.702 197.5,131.5C 190.699,132.903 189.032,130.57 192.5,124.5 Z"/></g>
<g><path style="opacity:1" fill="#d57581" d="M 376.5,142.5 C 365.774,145.932 356.108,143.932 347.5,136.5C 343.593,142.144 338.259,143.978 331.5,142C 328.271,139.259 324.938,136.759 321.5,134.5C 321.351,133.448 321.517,132.448 322,131.5C 329.941,140.259 337.941,140.593 346,132.5C 355.505,139.35 365.672,140.35 376.5,135.5C 377.057,137.718 377.057,140.051 376.5,142.5 Z"/></g>
<g><path style="opacity:1" fill="#506669" d="M 158.5,162.5 C 157.521,159.375 157.187,156.042 157.5,152.5C 152.708,153.191 148.708,155.191 145.5,158.5C 146.429,151.874 147.096,145.207 147.5,138.5C 145.879,131.255 144.879,123.922 144.5,116.5C 152.178,118.012 156.678,122.679 158,130.5C 158.5,141.161 158.667,151.828 158.5,162.5 Z"/></g>
<g><path style="opacity:1" fill="#f1a6a4" d="M 139.5,140.5 C 139.5,141.5 139.5,142.5 139.5,143.5C 120.931,142.867 102.598,143.534 84.5,145.5C 84.3347,141.818 84.5014,138.152 85,134.5C 85.2321,133.263 85.7321,132.263 86.5,131.5C 89.9312,129.612 93.5979,129.112 97.5,130C 103.44,137.965 110.606,139.465 119,134.5C 120.731,136.617 122.898,138.117 125.5,139C 130.25,139.223 134.916,139.723 139.5,140.5 Z"/></g>
<g><path style="opacity:1" fill="#8faf97" d="M 48.5,120.5 C 52.069,122.119 55.7356,123.452 59.5,124.5C 59.5,130.167 59.5,135.833 59.5,141.5C 59.345,148.631 57.0117,154.964 52.5,160.5C 41.8888,164.391 37.3888,160.724 39,149.5C 41.6667,144.833 44.3333,140.167 47,135.5C 48.0498,130.552 48.5498,125.552 48.5,120.5 Z"/></g>
<g><path style="opacity:1" fill="#d77481" d="M 215.5,147.5 C 214.249,155.488 214.249,163.488 215.5,171.5C 207.393,167.277 199.393,162.777 191.5,158C 186.429,154.344 183.596,149.51 183,143.5C 191.75,151.066 200.75,151.399 210,144.5C 212.12,145.14 213.954,146.14 215.5,147.5 Z"/></g>
<g><path style="opacity:1" fill="#2d2e3e" d="M 45.5,145.5 C 52.536,144.603 54.2027,147.103 50.5,153C 44.7853,153.401 43.1187,150.901 45.5,145.5 Z"/></g>
<g><path style="opacity:1" fill="#f3b0ad" d="M 321.5,134.5 C 324.938,136.759 328.271,139.259 331.5,142C 338.259,143.978 343.593,142.144 347.5,136.5C 356.108,143.932 365.774,145.932 376.5,142.5C 376.414,146.857 376.08,151.19 375.5,155.5C 372.833,155.5 370.167,155.5 367.5,155.5C 368.062,151.901 366.562,149.901 363,149.5C 360.432,149.934 357.932,150.6 355.5,151.5C 354.571,152.689 354.238,154.022 354.5,155.5C 353.566,154.432 353.232,153.099 353.5,151.5C 350.615,151.194 347.948,151.527 345.5,152.5C 341.536,150.387 337.369,149.72 333,150.5C 332.506,152.134 332.34,153.801 332.5,155.5C 331.549,154.081 331.216,152.415 331.5,150.5C 328.5,150.5 325.5,150.5 322.5,150.5C 321.658,145.213 321.324,139.88 321.5,134.5 Z"/></g>
<g><path style="opacity:1" fill="#edaba8" d="M 139.5,143.5 C 139.492,146.545 139.159,149.545 138.5,152.5C 135.145,152.091 132.145,152.758 129.5,154.5C 130.075,151.429 128.909,149.429 126,148.5C 122.483,149.127 118.983,149.793 115.5,150.5C 114.571,151.689 114.238,153.022 114.5,154.5C 112.544,152.852 110.211,152.185 107.5,152.5C 107.047,151.542 106.381,150.708 105.5,150C 101.483,149.329 97.4834,148.996 93.5,149C 90.9142,151.494 90.9142,153.994 93.5,156.5C 91.1667,156.5 88.8333,156.5 86.5,156.5C 86.5,157.5 86.5,158.5 86.5,159.5C 84.8958,155.1 84.2291,150.434 84.5,145.5C 102.598,143.534 120.931,142.867 139.5,143.5 Z"/></g>
<g><path style="opacity:1" fill="#312d3e" d="M 107.5,152.5 C 107.863,154.911 106.863,156.411 104.5,157C 100.779,157.678 97.1122,157.511 93.5,156.5C 90.9142,153.994 90.9142,151.494 93.5,149C 97.4834,148.996 101.483,149.329 105.5,150C 106.381,150.708 107.047,151.542 107.5,152.5 Z"/></g>
<g><path style="opacity:1" fill="#2e2a3d" d="M 129.5,154.5 C 125.68,157.323 121.347,158.156 116.5,157C 115.619,156.292 114.953,155.458 114.5,154.5C 114.238,153.022 114.571,151.689 115.5,150.5C 118.983,149.793 122.483,149.127 126,148.5C 128.909,149.429 130.075,151.429 129.5,154.5 Z"/></g>
<g><path style="opacity:1" fill="#312d3f" d="M 345.5,152.5 C 345.633,155.588 344.3,157.588 341.5,158.5C 338.855,157.892 336.188,157.392 333.5,157C 332.944,156.617 332.611,156.117 332.5,155.5C 332.34,153.801 332.506,152.134 333,150.5C 337.369,149.72 341.536,150.387 345.5,152.5 Z"/></g>
<g><path style="opacity:1" fill="#2c2a3b" d="M 367.5,155.5 C 363.802,157.506 359.802,158.006 355.5,157C 354.944,156.617 354.611,156.117 354.5,155.5C 354.238,154.022 354.571,152.689 355.5,151.5C 357.932,150.6 360.432,149.934 363,149.5C 366.562,149.901 368.062,151.901 367.5,155.5 Z"/></g>
<g><path style="opacity:1" fill="#f6bcb9" d="M 322.5,150.5 C 325.5,150.5 328.5,150.5 331.5,150.5C 331.216,152.415 331.549,154.081 332.5,155.5C 332.611,156.117 332.944,156.617 333.5,157C 336.188,157.392 338.855,157.892 341.5,158.5C 344.3,157.588 345.633,155.588 345.5,152.5C 347.948,151.527 350.615,151.194 353.5,151.5C 353.232,153.099 353.566,154.432 354.5,155.5C 354.611,156.117 354.944,156.617 355.5,157C 359.802,158.006 363.802,157.506 367.5,155.5C 370.167,155.5 372.833,155.5 375.5,155.5C 375.253,158.854 374.253,161.854 372.5,164.5C 356.466,163.915 340.466,162.915 324.5,161.5C 323.651,157.899 322.984,154.232 322.5,150.5 Z"/></g>
<g><path style="opacity:1" fill="#89a992" d="M 174.5,141.5 C 175.762,151.025 179.929,159.025 187,165.5C 190.855,176.006 187.355,180.839 176.5,180C 170.881,175.948 167.381,170.448 166,163.5C 166.018,153.176 166.184,142.843 166.5,132.5C 167.574,129.932 169.574,128.265 172.5,127.5C 173.167,132.317 173.834,136.983 174.5,141.5 Z"/></g>
<g><path style="opacity:1" fill="#f09e9a" d="M 215.5,147.5 C 228.903,153.87 242.236,160.203 255.5,166.5C 250.745,173.676 245.745,180.676 240.5,187.5C 231.961,182.402 223.627,177.069 215.5,171.5C 214.249,163.488 214.249,155.488 215.5,147.5 Z"/></g>
<g><path style="opacity:1" fill="#f8b8b6" d="M 107.5,152.5 C 110.211,152.185 112.544,152.852 114.5,154.5C 114.953,155.458 115.619,156.292 116.5,157C 121.347,158.156 125.68,157.323 129.5,154.5C 132.145,152.758 135.145,152.091 138.5,152.5C 138.057,158.952 136.39,164.952 133.5,170.5C 119.343,169.504 105.01,169.171 90.5,169.5C 88.6001,166.482 87.2667,163.149 86.5,159.5C 86.5,158.5 86.5,157.5 86.5,156.5C 88.8333,156.5 91.1667,156.5 93.5,156.5C 97.1122,157.511 100.779,157.678 104.5,157C 106.863,156.411 107.863,154.911 107.5,152.5 Z"/></g>
<g><path style="opacity:1" fill="#2a2a3b" d="M 175.5,163.5 C 181.452,163.609 182.786,166.109 179.5,171C 173.202,171.495 171.868,168.995 175.5,163.5 Z"/></g>
<g><path style="opacity:1" fill="#e3547f" d="M 359.5,224.5 C 355.981,229.537 352.981,234.87 350.5,240.5C 342.302,236.141 335.469,230.141 330,222.5C 329.289,204.789 320.122,195.289 302.5,194C 299.007,184.826 293.674,176.993 286.5,170.5C 297.529,162.551 308.529,162.551 319.5,170.5C 325.838,188.682 335.838,204.516 349.5,218C 352.691,220.426 356.025,222.593 359.5,224.5 Z"/></g>
<g><path style="opacity:1" fill="#f6c9c8" d="M 324.5,161.5 C 340.466,162.915 356.466,163.915 372.5,164.5C 368.064,175.435 360.23,182.769 349,186.5C 336.638,182.304 328.471,173.971 324.5,161.5 Z"/></g>
<g><path style="opacity:1" fill="#f1a6a4" d="M 255.5,166.5 C 262.72,168.792 269.72,171.459 276.5,174.5C 270.167,182.5 263.833,190.5 257.5,198.5C 251.559,195.22 245.892,191.553 240.5,187.5C 245.745,180.676 250.745,173.676 255.5,166.5 Z"/></g>
<g><path style="opacity:1" fill="#5b7672" d="M 76.5,144.5 C 76.9832,154.471 78.9832,164.138 82.5,173.5C 79.902,180.27 75.902,186.103 70.5,191C 63.7498,193.234 59.7498,190.901 58.5,184C 60.9399,179.638 63.7732,175.471 67,171.5C 70.6368,162.794 71.4702,153.794 69.5,144.5C 71.688,143.377 74.0213,143.377 76.5,144.5 Z"/></g>
<g><path style="opacity:1" fill="#5a7471" d="M 158.5,162.5 C 159.55,171.939 163.717,179.606 171,185.5C 175.48,195.353 172.313,200.186 161.5,200C 150.828,191.663 144.828,180.663 143.5,167C 144.233,164.165 144.9,161.332 145.5,158.5C 148.708,155.191 152.708,153.191 157.5,152.5C 157.187,156.042 157.521,159.375 158.5,162.5 Z"/></g>
<g><path style="opacity:1" fill="#28293b" d="M 67.5,176.5 C 73.4877,176.664 74.821,179.164 71.5,184C 65.2016,184.495 63.8682,181.995 67.5,176.5 Z"/></g>
<g><path style="opacity:1" fill="#f6c2c0" d="M 90.5,169.5 C 105.01,169.171 119.343,169.504 133.5,170.5C 129.051,179.8 121.884,185.467 112,187.5C 101.071,186.077 93.9044,180.077 90.5,169.5 Z"/></g>
<g><path style="opacity:1" fill="#262639" d="M 161.5,184.5 C 167.488,184.664 168.821,187.164 165.5,192C 159.403,192.147 158.07,189.647 161.5,184.5 Z"/></g>
<g><path style="opacity:1" fill="#cf717e" d="M 358.5,200.5 C 353.463,200.587 348.463,200.254 343.5,199.5C 341.31,196.312 338.976,193.145 336.5,190C 338.807,190.642 341.141,191.642 343.5,193C 348.327,193.884 352.994,193.384 357.5,191.5C 358.484,194.428 358.817,197.428 358.5,200.5 Z"/></g>
<g><path style="opacity:1" fill="#f2b1ae" d="M 276.5,174.5 C 280.544,175.944 284.044,178.278 287,181.5C 290.612,186.389 293.445,191.723 295.5,197.5C 285.544,208.858 284.877,220.858 293.5,233.5C 295.943,238.603 299.943,241.936 305.5,243.5C 301.991,247.855 298.991,252.522 296.5,257.5C 289.551,233.875 276.551,214.208 257.5,198.5C 263.833,190.5 270.167,182.5 276.5,174.5 Z"/></g>
<g><path style="opacity:1" fill="#eaaaa9" d="M 343.5,199.5 C 348.463,200.254 353.463,200.587 358.5,200.5C 359.084,204.836 359.751,209.169 360.5,213.5C 360.167,214.167 359.833,214.833 359.5,215.5C 353.145,211.145 347.812,205.812 343.5,199.5 Z"/></g>
<g><path style="opacity:1" fill="#f5c794" d="M 318.5,209.5 C 317.965,211.446 316.632,212.446 314.5,212.5C 308.333,206.542 303.667,207.542 300.5,215.5C 296.521,219.869 294.854,218.869 295.5,212.5C 297.514,203.986 302.848,200.819 311.5,203C 314.331,204.666 316.664,206.832 318.5,209.5 Z"/></g>
<g><path style="opacity:1" fill="#e2674c" d="M 314.5,212.5 C 318.616,221.771 315.616,226.271 305.5,226C 301.808,223.45 300.142,219.95 300.5,215.5C 303.667,207.542 308.333,206.542 314.5,212.5 Z"/></g>
<g><path style="opacity:1" fill="#782538" d="M 367.5,211.5 C 372.7,213.636 378.033,215.469 383.5,217C 378.716,219.032 373.716,219.866 368.5,219.5C 368.425,216.794 368.092,214.127 367.5,211.5 Z"/></g>
<g><path style="opacity:1" fill="#dd4a74" d="M 392.5,241.5 C 390.208,243.267 387.542,244.267 384.5,244.5C 382.989,242.559 380.989,242.059 378.5,243C 376.963,244.11 376.297,245.61 376.5,247.5C 373.5,247.5 370.5,247.5 367.5,247.5C 367.047,246.542 366.381,245.708 365.5,245C 360.198,244.399 355.198,242.899 350.5,240.5C 352.981,234.87 355.981,229.537 359.5,224.5C 375.315,229.96 388.981,226.46 400.5,214C 402.167,213.333 403.833,213.333 405.5,214C 407.833,216.333 410.167,218.667 412.5,221C 406.293,226.875 399.793,232.375 393,237.5C 392.51,238.793 392.343,240.127 392.5,241.5 Z"/></g>
<g><path style="opacity:1" fill="#832b38" d="M 297.5,287.5 C 297.631,288.239 297.464,288.906 297,289.5C 279.634,270.636 262.134,251.969 244.5,233.5C 251.135,227.697 257.302,221.364 263,214.5C 271.618,222.791 278.284,232.457 283,243.5C 287.142,258.425 291.975,273.092 297.5,287.5 Z"/></g>
<g><path style="opacity:1" fill="#df436e" d="M 434.5,227.5 C 434.072,233.176 433.905,238.843 434,244.5C 435.365,246.86 437.365,248.527 440,249.5C 440.52,251.289 440.187,252.956 439,254.5C 436.408,257.762 433.241,260.262 429.5,262C 423.391,264.183 417.391,266.349 411.5,268.5C 401.897,270.121 392.231,270.621 382.5,270C 378.724,269.408 375.057,268.408 371.5,267C 370.065,264.733 370.398,262.733 372.5,261C 391.94,259.043 405.607,249.209 413.5,231.5C 416.333,227.835 419.666,224.668 423.5,222C 429.332,219.975 432.998,221.808 434.5,227.5 Z"/></g>
<g><path style="opacity:1" fill="#f5aa82" d="M 318.5,209.5 C 322.306,215.61 322.473,221.944 319,228.5C 307.305,236.001 299.305,233.001 295,219.5C 294.204,216.961 294.371,214.628 295.5,212.5C 294.854,218.869 296.521,219.869 300.5,215.5C 300.142,219.95 301.808,223.45 305.5,226C 315.616,226.271 318.616,221.771 314.5,212.5C 316.632,212.446 317.965,211.446 318.5,209.5 Z"/></g>
<g><path style="opacity:1" fill="#882b3d" d="M 244.5,233.5 C 262.134,251.969 279.634,270.636 297,289.5C 297.464,288.906 297.631,288.239 297.5,287.5C 302.766,295.697 307.266,304.363 311,313.5C 312.405,321.16 312.572,328.827 311.5,336.5C 310.14,337.18 308.807,337.847 307.5,338.5C 279.763,307.257 251.43,276.424 222.5,246C 221.552,245.517 220.552,245.351 219.5,245.5C 228.169,242.273 236.502,238.273 244.5,233.5 Z"/></g>
<g><path style="opacity:1" fill="#d67582" d="M 293.5,233.5 C 298.692,238.758 305.025,241.258 312.5,241C 322.21,255.044 334.21,266.71 348.5,276C 343.955,277.542 339.289,278.376 334.5,278.5C 331.138,274.808 327.805,271.141 324.5,267.5C 325.019,263.686 323.353,261.686 319.5,261.5C 316.822,256.636 314.322,251.636 312,246.5C 310.157,244.829 307.991,243.829 305.5,243.5C 299.943,241.936 295.943,238.603 293.5,233.5 Z"/></g>
<g><path style="opacity:1" fill="#a53649" d="M 360.5,251.5 C 360.611,252.117 360.944,252.617 361.5,253C 358.766,257.635 356.433,262.468 354.5,267.5C 354.043,268.298 353.376,268.631 352.5,268.5C 339.633,260.97 328.966,250.97 320.5,238.5C 322.5,236.167 324.5,233.833 326.5,231.5C 335.625,241.966 346.958,248.633 360.5,251.5 Z"/></g>
<g><path style="opacity:1" fill="#2e2639" d="M 384.5,244.5 C 385.16,249.328 383.16,251.161 378.5,250C 377.619,249.292 376.953,248.458 376.5,247.5C 376.297,245.61 376.963,244.11 378.5,243C 380.989,242.059 382.989,242.559 384.5,244.5 Z"/></g>
<g><path style="opacity:1" fill="#7e2738" d="M 434.5,227.5 C 436.169,232.311 438.335,236.978 441,241.5C 446.374,245.361 451.374,249.694 456,254.5C 457.202,258.793 456.035,262.293 452.5,265C 438.066,272.756 422.732,277.59 406.5,279.5C 407.973,275.749 409.64,272.083 411.5,268.5C 417.391,266.349 423.391,264.183 429.5,262C 433.241,260.262 436.408,257.762 439,254.5C 440.187,252.956 440.52,251.289 440,249.5C 437.365,248.527 435.365,246.86 434,244.5C 433.905,238.843 434.072,233.176 434.5,227.5 Z"/></g>
<g><path style="opacity:1" fill="#8e2b3d" d="M 219.5,245.5 C 220.552,245.351 221.552,245.517 222.5,246C 251.43,276.424 279.763,307.257 307.5,338.5C 304.049,342.784 302.549,347.784 303,353.5C 302.051,355.093 300.885,356.426 299.5,357.5C 298.25,355.068 296.75,352.734 295,350.5C 268.333,321.833 241.667,293.167 215,264.5C 210.906,259.898 206.406,255.898 201.5,252.5C 207.013,249.083 213.013,246.75 219.5,245.5 Z"/></g>
<g><path style="opacity:1" fill="#f7bfbe" d="M 305.5,243.5 C 307.991,243.829 310.157,244.829 312,246.5C 314.322,251.636 316.822,256.636 319.5,261.5C 315.513,261.652 314.013,263.652 315,267.5C 318.164,270.112 321.331,270.112 324.5,267.5C 327.805,271.141 331.138,274.808 334.5,278.5C 317.379,279.278 304.712,272.278 296.5,257.5C 298.991,252.522 301.991,247.855 305.5,243.5 Z"/></g>
<g><path style="opacity:1" fill="#8e313e" d="M 201.5,252.5 C 206.406,255.898 210.906,259.898 215,264.5C 241.667,293.167 268.333,321.833 295,350.5C 296.75,352.734 298.25,355.068 299.5,357.5C 298.341,361.151 296.674,364.485 294.5,367.5C 260.15,330.484 225.483,293.818 190.5,257.5C 193.751,255.043 197.418,253.376 201.5,252.5 Z"/></g>
<g><path style="opacity:1" fill="#95313e" d="M 190.5,257.5 C 225.483,293.818 260.15,330.484 294.5,367.5C 293.342,370.989 292.009,374.322 290.5,377.5C 254.161,339.161 218.161,300.494 182.5,261.5C 184.849,259.659 187.515,258.326 190.5,257.5 Z"/></g>
<g><path style="opacity:1" fill="#953143" d="M 182.5,261.5 C 218.161,300.494 254.161,339.161 290.5,377.5C 290.143,381.263 289.31,384.93 288,388.5C 282.677,391.578 277.177,394.245 271.5,396.5C 263.124,386.459 254.124,377.126 244.5,368.5C 246.649,362.323 244.649,359.99 238.5,361.5C 216.895,337.39 195.062,313.39 173,289.5C 168.574,284.566 163.74,280.233 158.5,276.5C 165.963,270.716 173.963,265.716 182.5,261.5 Z"/></g>
<g><path style="opacity:1" fill="#312d3f" d="M 319.5,261.5 C 323.353,261.686 325.019,263.686 324.5,267.5C 321.331,270.112 318.164,270.112 315,267.5C 314.013,263.652 315.513,261.652 319.5,261.5 Z"/></g>
<g><path style="opacity:1" fill="#933041" d="M 413.5,231.5 C 405.607,249.209 391.94,259.043 372.5,261C 370.398,262.733 370.065,264.733 371.5,267C 375.057,268.408 378.724,269.408 382.5,270C 392.231,270.621 401.897,270.121 411.5,268.5C 409.64,272.083 407.973,275.749 406.5,279.5C 387.05,282.477 369.05,278.81 352.5,268.5C 353.376,268.631 354.043,268.298 354.5,267.5C 356.433,262.468 358.766,257.635 361.5,253C 360.944,252.617 360.611,252.117 360.5,251.5C 362.527,251.662 364.527,251.495 366.5,251C 367.337,249.989 367.67,248.822 367.5,247.5C 370.5,247.5 373.5,247.5 376.5,247.5C 376.953,248.458 377.619,249.292 378.5,250C 383.16,251.161 385.16,249.328 384.5,244.5C 387.542,244.267 390.208,243.267 392.5,241.5C 393.838,243.113 395.505,243.613 397.5,243C 403.039,239.402 408.372,235.569 413.5,231.5 Z"/></g>
<g><path style="opacity:1" fill="#d57481" d="M 456.5,285.5 C 448.603,288.142 440.603,290.475 432.5,292.5C 429.018,290.252 425.684,287.752 422.5,285C 431.358,282.325 440.025,279.159 448.5,275.5C 451.645,278.46 454.312,281.793 456.5,285.5 Z"/></g>
<g><path style="opacity:1" fill="#9b3143" d="M 158.5,276.5 C 163.74,280.233 168.574,284.566 173,289.5C 195.062,313.39 216.895,337.39 238.5,361.5C 230.74,368.562 221.74,373.562 211.5,376.5C 189.838,353.337 168.338,330.004 147,306.5C 143.571,302.561 139.737,299.228 135.5,296.5C 142.55,289.116 150.217,282.449 158.5,276.5 Z"/></g>
<g><path style="opacity:1" fill="#d77682" d="M 380.5,298.5 C 368.926,297.199 358.26,293.532 348.5,287.5C 352.132,284.017 356.466,282.184 361.5,282C 370.174,284.843 376.507,290.343 380.5,298.5 Z"/></g>
<g><path style="opacity:1" fill="#7b2538" d="M 408.5,287.5 C 411.564,287.144 414.231,287.977 416.5,290C 422.727,294.94 428.727,300.107 434.5,305.5C 428.741,321.179 419.408,334.346 406.5,345C 405.207,345.49 403.873,345.657 402.5,345.5C 402.204,329.805 402.704,314.138 404,298.5C 405.513,294.812 407.013,291.145 408.5,287.5 Z"/></g>
<g><path style="opacity:1" fill="#f5c9c9" d="M 348.5,287.5 C 358.26,293.532 368.926,297.199 380.5,298.5C 382.167,298.5 383.833,298.5 385.5,298.5C 390.358,299.693 392.358,302.859 391.5,308C 390.763,320.744 388.763,333.244 385.5,345.5C 363.664,346.361 341.997,344.027 320.5,338.5C 320.543,327.682 319.377,317.016 317,306.5C 311.324,297.151 306.158,287.484 301.5,277.5C 301.833,277.167 302.167,276.833 302.5,276.5C 311.971,283.49 322.638,286.99 334.5,287C 331.667,289.833 328.833,292.667 326,295.5C 325.436,300.936 327.603,302.436 332.5,300C 336.869,294.449 342.202,290.282 348.5,287.5 Z"/></g>
<g><path style="opacity:1" fill="#d97783" d="M 385.5,345.5 C 388.763,333.244 390.763,320.744 391.5,308C 392.358,302.859 390.358,299.693 385.5,298.5C 386.841,295.015 386.174,291.848 383.5,289C 388.864,288.171 394.198,288.337 399.5,289.5C 398.236,292.125 397.069,294.792 396,297.5C 395.22,313.493 394.72,329.493 394.5,345.5C 391.5,345.5 388.5,345.5 385.5,345.5 Z"/></g>
<g><path style="opacity:1" fill="#282739" d="M 355.5,294.5 C 358.864,293.873 360.864,295.206 361.5,298.5C 360.393,300.881 359.727,303.381 359.5,306C 359.898,314.672 360.232,323.338 360.5,332C 360.415,333.107 360.081,334.107 359.5,335C 357.559,335.743 355.726,335.576 354,334.5C 352.612,329.628 352.112,324.628 352.5,319.5C 347.733,319.809 343.066,319.309 338.5,318C 335.589,314.813 336.089,312.313 340,310.5C 351.479,315.699 355.812,312.032 353,299.5C 353.847,297.807 354.68,296.14 355.5,294.5 Z"/></g>
<g><path style="opacity:1" fill="#a13143" d="M 135.5,296.5 C 139.737,299.228 143.571,302.561 147,306.5C 168.338,330.004 189.838,353.337 211.5,376.5C 208.171,377.499 204.838,378.499 201.5,379.5C 198.237,375.06 194.737,370.727 191,366.5C 170.967,344.969 150.8,323.635 130.5,302.5C 131.419,299.911 133.086,297.911 135.5,296.5 Z"/></g>
<g><path style="opacity:1" fill="#f5c6c5" d="M 456.5,285.5 C 463.487,293.373 467.153,302.707 467.5,313.5C 467.5,314.833 467.5,316.167 467.5,317.5C 460.368,319.1 453.368,321.1 446.5,323.5C 445.944,316.506 445.277,309.506 444.5,302.5C 440.164,299.491 436.164,296.157 432.5,292.5C 440.603,290.475 448.603,288.142 456.5,285.5 Z"/></g>
<g><path style="opacity:1" fill="#a1324a" d="M 130.5,302.5 C 150.8,323.635 170.967,344.969 191,366.5C 194.737,370.727 198.237,375.06 201.5,379.5C 198.211,380.374 194.877,381.041 191.5,381.5C 169.5,357.167 147.5,332.833 125.5,308.5C 126.419,305.911 128.086,303.911 130.5,302.5 Z"/></g>
<g><path style="opacity:1" fill="#a2374a" d="M 125.5,308.5 C 147.5,332.833 169.5,357.167 191.5,381.5C 186.593,382.819 181.593,383.819 176.5,384.5C 165.208,370.873 153.208,357.873 140.5,345.5C 141.934,342.889 143.601,340.389 145.5,338C 144.876,335.709 143.376,334.543 141,334.5C 137.989,335.59 135.156,337.09 132.5,339C 122.642,342.008 112.976,345.508 103.5,349.5C 103.167,349 102.833,348.5 102.5,348C 107.776,333.26 115.442,320.093 125.5,308.5 Z"/></g>
<g><path style="opacity:1" fill="#2b293c" d="M 372.5,311.5 C 377.993,310.178 380.493,312.178 380,317.5C 376.369,319.35 372.536,319.85 368.5,319C 366.408,314.533 367.741,312.033 372.5,311.5 Z"/></g>
<g><path style="opacity:1" fill="#f7bbb7" d="M 467.5,313.5 C 470.011,321.883 471.678,330.549 472.5,339.5C 472.5,341.167 472.5,342.833 472.5,344.5C 466.868,345.991 461.201,347.325 455.5,348.5C 450.717,340.817 447.717,332.484 446.5,323.5C 453.368,321.1 460.368,319.1 467.5,317.5C 467.5,316.167 467.5,314.833 467.5,313.5 Z"/></g>
<g><path style="opacity:1" fill="#f3ce99" d="M 340.5,350.5 C 339.5,353.833 338.5,357.167 337.5,360.5C 328.805,359.325 320.472,356.825 312.5,353C 311.556,350.281 311.223,347.448 311.5,344.5C 321.26,346.023 330.927,348.023 340.5,350.5 Z"/></g>
<g><path style="opacity:1" fill="#f6c190" d="M 340.5,350.5 C 345.833,351.167 351.167,351.833 356.5,352.5C 355.833,355.833 355.167,359.167 354.5,362.5C 352.5,362.5 350.5,362.5 348.5,362.5C 344.575,362.57 340.909,361.903 337.5,360.5C 338.5,357.167 339.5,353.833 340.5,350.5 Z"/></g>
<g><path style="opacity:1" fill="#edab82" d="M 356.5,352.5 C 363.476,353.232 370.476,353.565 377.5,353.5C 377.5,356.833 377.5,360.167 377.5,363.5C 380.833,363.5 384.167,363.5 387.5,363.5C 382.678,364.166 377.678,364.499 372.5,364.5C 364.282,364.634 356.282,363.967 348.5,362.5C 350.5,362.5 352.5,362.5 354.5,362.5C 355.167,359.167 355.833,355.833 356.5,352.5 Z"/></g>
<g><path style="opacity:1" fill="#dd644a" d="M 387.5,363.5 C 384.167,363.5 380.833,363.5 377.5,363.5C 377.5,360.167 377.5,356.833 377.5,353.5C 385.53,353.442 393.53,353.275 401.5,353C 402.451,356.057 402.784,359.223 402.5,362.5C 397.518,363.053 392.518,363.387 387.5,363.5 Z"/></g>
<g><path style="opacity:1" fill="#efadab" d="M 472.5,339.5 C 475.119,350.227 476.786,361.227 477.5,372.5C 477.389,373.117 477.056,373.617 476.5,374C 472.888,375.15 469.222,375.983 465.5,376.5C 463.154,366.793 459.82,357.46 455.5,348.5C 461.201,347.325 466.868,345.991 472.5,344.5C 472.5,342.833 472.5,341.167 472.5,339.5 Z"/></g>
<g><path style="opacity:1" fill="#a1374a" d="M 323.5,373.5 C 317.248,371.041 311.248,368.041 305.5,364.5C 306.048,362.606 307.048,360.94 308.5,359.5C 314.183,362.506 320.183,364.506 326.5,365.5C 326.02,368.443 325.02,371.11 323.5,373.5 Z"/></g>
<g><path style="opacity:1" fill="#9b3143" d="M 244.5,368.5 C 254.124,377.126 263.124,386.459 271.5,396.5C 254.224,403.578 236.224,406.745 217.5,406C 230.05,396.072 239.05,383.572 244.5,368.5 Z"/></g>
<g><path style="opacity:1" fill="#9a3244" d="M 355.5,385.5 C 346.907,383.603 338.574,380.936 330.5,377.5C 331.341,373.803 333.175,370.803 336,368.5C 342.76,370.013 349.594,371.013 356.5,371.5C 355.686,376.119 355.353,380.786 355.5,385.5 Z"/></g>
<g><path style="opacity:1" fill="#aa374a" d="M 140.5,345.5 C 153.208,357.873 165.208,370.873 176.5,384.5C 144.931,387.696 119.431,401.696 100,426.5C 106.082,395.669 119.582,368.669 140.5,345.5 Z"/></g>
<g><path style="opacity:1" fill="#8b2d3e" d="M 386.5,389.5 C 384.167,389.5 381.833,389.5 379.5,389.5C 379.923,386.757 378.756,385.424 376,385.5C 373.648,385.414 372.148,386.414 371.5,388.5C 368.873,387.908 366.206,387.575 363.5,387.5C 363.219,382.435 363.552,377.435 364.5,372.5C 369.5,371.167 374.5,371.167 379.5,372.5C 382.815,377.783 385.149,383.45 386.5,389.5 Z"/></g>
<g><path style="opacity:1" fill="#2f273a" d="M 379.5,389.5 C 378.018,393.829 375.518,394.496 372,391.5C 371.517,390.552 371.351,389.552 371.5,388.5C 372.148,386.414 373.648,385.414 376,385.5C 378.756,385.424 379.923,386.757 379.5,389.5 Z"/></g>
<g><path style="opacity:1" fill="#ef9f9b" d="M 477.5,372.5 C 481.101,380.361 485.268,388.028 490,395.5C 491.368,398.738 491.701,402.072 491,405.5C 486.62,409.548 481.954,413.215 477,416.5C 473.353,403.089 469.52,389.756 465.5,376.5C 469.222,375.983 472.888,375.15 476.5,374C 477.056,373.617 477.389,373.117 477.5,372.5 Z"/></g>
<g><path style="opacity:1" fill="#7e2738" d="M 397.5,370.5 C 400.247,370.187 402.914,370.52 405.5,371.5C 415.43,385.216 420.096,400.55 419.5,417.5C 412.904,419.698 406.237,421.698 399.5,423.5C 399.989,405.579 396.322,388.579 388.5,372.5C 391.642,371.833 394.642,371.166 397.5,370.5 Z"/></g>
<g><path style="opacity:1" fill="#2d2538" d="M 402.5,381.5 C 407.013,381.991 408.68,384.324 407.5,388.5C 403.805,391.546 401.472,390.713 400.5,386C 400.519,384.167 401.185,382.667 402.5,381.5 Z"/></g>
<g><path style="opacity:1" fill="#f2cc98" d="M 463.5,397.5 C 463.586,398.496 463.252,399.329 462.5,400C 460.14,401.18 457.807,402.347 455.5,403.5C 453.994,398.97 452.994,394.303 452.5,389.5C 458.604,389.035 462.271,391.701 463.5,397.5 Z"/></g>
<g><path style="opacity:1" fill="#df4c76" d="M 330.5,377.5 C 338.574,380.936 346.907,383.603 355.5,385.5C 355.5,392.5 355.5,399.5 355.5,406.5C 346.798,407.171 338.131,408.171 329.5,409.5C 328.416,409.315 327.416,408.982 326.5,408.5C 325.808,397.878 327.141,387.545 330.5,377.5 Z"/></g>
<g><path style="opacity:1" fill="#2f273a" d="M 339.5,383.5 C 344.984,383.481 346.65,385.981 344.5,391C 337.745,391.756 336.078,389.256 339.5,383.5 Z"/></g>
<g><path style="opacity:1" fill="#e04d78" d="M 305.5,364.5 C 311.248,368.041 317.248,371.041 323.5,373.5C 319.622,386.189 317.955,399.189 318.5,412.5C 310.154,413.02 301.821,413.687 293.5,414.5C 293.802,417.059 293.468,419.393 292.5,421.5C 292.807,404.696 295.641,388.363 301,372.5C 302.274,369.609 303.774,366.942 305.5,364.5 Z"/></g>
<g><path style="opacity:1" fill="#32283c" d="M 307.5,376.5 C 313.313,376.062 314.98,378.562 312.5,384C 305.745,384.756 304.078,382.256 307.5,376.5 Z"/></g>
<g><path style="opacity:1" fill="#eeb88b" d="M 463.5,397.5 C 465.924,403.526 467.591,409.859 468.5,416.5C 466.117,418.358 463.45,419.692 460.5,420.5C 458.08,415.171 456.413,409.504 455.5,403.5C 457.807,402.347 460.14,401.18 462.5,400C 463.252,399.329 463.586,398.496 463.5,397.5 Z"/></g>
<g><path style="opacity:1" fill="#df446f" d="M 363.5,387.5 C 366.206,387.575 368.873,387.908 371.5,388.5C 371.351,389.552 371.517,390.552 372,391.5C 375.518,394.496 378.018,393.829 379.5,389.5C 381.833,389.5 384.167,389.5 386.5,389.5C 390.948,401.656 392.614,414.322 391.5,427.5C 382.173,429.831 372.839,432.164 363.5,434.5C 363.5,418.833 363.5,403.167 363.5,387.5 Z"/></g>
<g><path style="opacity:1" fill="#7c81b5" d="M 435.5,433.5 C 436.164,428.527 436.497,423.527 436.5,418.5C 440.877,415.982 445.544,413.982 450.5,412.5C 451.246,418.649 452.579,424.649 454.5,430.5C 448.072,431.12 441.738,432.12 435.5,433.5 Z"/></g>
<g><path style="opacity:1" fill="#db654a" d="M 468.5,416.5 C 471.025,423.421 473.025,430.587 474.5,438C 474.296,442.708 471.962,445.875 467.5,447.5C 464.082,438.828 461.748,429.828 460.5,420.5C 463.45,419.692 466.117,418.358 468.5,416.5 Z"/></g>
<g><path style="opacity:1" fill="#e0406b" d="M 355.5,406.5 C 355.5,416.5 355.5,426.5 355.5,436.5C 345.878,437.754 336.211,438.421 326.5,438.5C 326.5,428.5 326.5,418.5 326.5,408.5C 327.416,408.982 328.416,409.315 329.5,409.5C 338.131,408.171 346.798,407.171 355.5,406.5 Z"/></g>
<g><path style="opacity:1" fill="#df406b" d="M 318.5,412.5 C 318.5,421.5 318.5,430.5 318.5,439.5C 309.396,439.588 300.396,440.588 291.5,442.5C 291.377,435.471 291.71,428.471 292.5,421.5C 293.468,419.393 293.802,417.059 293.5,414.5C 301.821,413.687 310.154,413.02 318.5,412.5 Z"/></g>
<g><path style="opacity:1" fill="#c1ccf0" d="M 436.5,418.5 C 436.497,423.527 436.164,428.527 435.5,433.5C 414.064,436.902 393.064,441.902 372.5,448.5C 372.326,446.139 371.993,443.806 371.5,441.5C 370.5,441.5 369.5,441.5 368.5,441.5C 391.608,435.463 414.275,427.797 436.5,418.5 Z"/></g>
<g><path style="opacity:1" fill="#ccd5f4" d="M 368.5,441.5 C 369.5,441.5 370.5,441.5 371.5,441.5C 371.993,443.806 372.326,446.139 372.5,448.5C 356.727,453.088 341.727,459.422 327.5,467.5C 327.162,460.797 326.495,454.13 325.5,447.5C 320.5,447.5 315.5,447.5 310.5,447.5C 329.854,447.097 349.187,445.097 368.5,441.5 Z"/></g>
<g><path style="opacity:1" fill="#d6dff7" d="M 310.5,447.5 C 315.5,447.5 320.5,447.5 325.5,447.5C 326.495,454.13 327.162,460.797 327.5,467.5C 301.235,480.359 273.902,483.526 245.5,477C 264.131,460.688 285.798,450.855 310.5,447.5 Z"/></g>
</svg>
