<?xml version="1.0" encoding="UTF-8"?>
<!DOCTYPE svg PUBLIC "-//W3C//DTD SVG 1.1//EN" "http://www.w3.org/Graphics/SVG/1.1/DTD/svg11.dtd">
<svg xmlns="http://www.w3.org/2000/svg" version="1.1" width="512px" height="512px" style="shape-rendering:geometricPrecision; text-rendering:geometricPrecision; image-rendering:optimizeQuality; fill-rule:evenodd; clip-rule:evenodd" xmlns:xlink="http://www.w3.org/1999/xlink">
<g><path style="opacity:1" fill="#27273a" d="M 448.5,134.5 C 436.371,146.543 421.705,151.21 404.5,148.5C 403.469,160.385 406.469,171.052 413.5,180.5C 419.324,193.972 423.324,207.972 425.5,222.5C 428.101,236.701 429.101,251.034 428.5,265.5C 446.379,276.212 460.879,290.545 472,308.5C 474.924,292.303 476.424,275.97 476.5,259.5C 477.188,244.176 475.855,229.176 472.5,214.5C 470.465,200.295 466.799,186.629 461.5,173.5C 459.16,166.653 456.327,159.986 453,153.5C 452.252,151.16 452.752,149.16 454.5,147.5C 456.288,147.215 457.955,147.548 459.5,148.5C 479.076,189.281 487.242,232.281 484,277.5C 483.053,290.629 481.22,303.629 478.5,316.5C 478.833,317.5 479.167,318.5 479.5,319.5C 488.01,323.514 495.176,329.181 501,336.5C 504.711,342.343 506.044,348.676 505,355.5C 499.917,364.05 495.584,373.05 492,382.5C 485.202,392.625 476.035,399.791 464.5,404C 454.722,407.074 444.722,409.074 434.5,410C 430,415.167 425.5,420.333 421,425.5C 415.699,429.8 410.699,434.466 406,439.5C 405.5,456.83 405.333,474.163 405.5,491.5C 402.833,491.5 400.167,491.5 397.5,491.5C 396.389,463.497 396.389,435.497 397.5,407.5C 394.833,407.5 392.167,407.5 389.5,407.5C 389.5,435.5 389.5,463.5 389.5,491.5C 386.833,491.5 384.167,491.5 381.5,491.5C 381.667,480.162 381.5,468.828 381,457.5C 333.6,487.975 281.767,501.142 225.5,497C 204.239,494.602 183.906,488.935 164.5,480C 161.168,477.509 158.668,474.342 157,470.5C 142.329,481.993 128.662,480.993 116,467.5C 108.249,452.336 111.749,440.503 126.5,432C 123.681,429.425 120.681,427.092 117.5,425C 102.617,419.226 88.6166,411.893 75.5,403C 65.6769,395.519 59.8436,385.685 58,373.5C 49.3621,364.308 47.6954,353.975 53,342.5C 58,336.167 63.6667,330.5 70,325.5C 75.4453,317.055 81.2786,308.888 87.5,301C 78.9032,297.45 71.4032,292.283 65,285.5C 44.3569,290.593 27.3569,284.926 14,268.5C 4.2326,249.129 2.89927,229.129 10,208.5C 14.7807,194.261 22.114,181.594 32,170.5C 35.1233,141.93 46.1233,116.93 65,95.5C 107.879,51.4783 160.045,25.645 221.5,18C 243.88,15.7472 266.213,16.0805 288.5,19C 292.305,19.5343 295.971,20.5343 299.5,22C 300.337,23.0113 300.67,24.1779 300.5,25.5C 299.356,27.9272 297.356,28.9272 294.5,28.5C 235.47,18.1161 179.804,27.6161 127.5,57C 114.824,63.8619 103.157,72.0286 92.5,81.5C 88.728,84.0941 85.0613,86.9274 81.5,90C 78.8823,92.1057 76.8823,94.6057 75.5,97.5C 73.5,98.8333 71.8333,100.5 70.5,102.5C 66.025,107.437 62.025,112.77 58.5,118.5C 55.3429,122.806 52.6762,127.472 50.5,132.5C 45.695,141.583 42.695,151.25 41.5,161.5C 36.7113,178.675 39.7113,194.342 50.5,208.5C 52.8333,211.5 55.5,214.167 58.5,216.5C 70.121,225.049 83.121,227.883 97.5,225C 108.373,222.743 117.04,217.243 123.5,208.5C 126.231,206.054 128.231,203.054 129.5,199.5C 132.453,191.217 133.12,182.884 131.5,174.5C 126.216,158.685 115.216,150.352 98.5,149.5C 84.7689,150.185 76.4355,157.185 73.5,170.5C 71.7386,182.279 76.9053,189.279 89,191.5C 90.3847,191.486 91.5514,191.152 92.5,190.5C 95.4464,188.73 98.2797,186.73 101,184.5C 104.072,185.447 105.072,187.447 104,190.5C 100.733,196.302 95.7331,198.968 89,198.5C 77.3455,198.173 69.6788,192.507 66,181.5C 65.3029,175.463 65.4696,169.463 66.5,163.5C 75.6384,146.264 89.9717,139.097 109.5,142C 110.71,140.961 111.71,139.794 112.5,138.5C 117.833,133.833 122.833,128.833 127.5,123.5C 133.539,118.822 139.539,114.155 145.5,109.5C 157.105,101.231 169.438,94.231 182.5,88.5C 187.838,86.4972 193.171,84.4972 198.5,82.5C 217.998,76.3488 237.998,73.3488 258.5,73.5C 279.605,75.0261 299.938,79.8594 319.5,88C 320.406,89.6995 320.739,91.5328 320.5,93.5C 318.598,94.5109 316.598,94.6776 314.5,94C 256.162,72.2784 201.495,79.2784 150.5,115C 139.408,123.421 128.908,132.588 119,142.5C 118.5,143.5 118,144.5 117.5,145.5C 126.73,150.976 133.397,158.643 137.5,168.5C 141.151,178.341 141.484,188.341 138.5,198.5C 135.914,204.939 132.248,210.772 127.5,216C 133.403,220.401 138.403,225.568 142.5,231.5C 143.5,234.167 144.5,236.833 145.5,239.5C 146.3,241.896 147.3,244.229 148.5,246.5C 158.728,240.219 169.394,234.719 180.5,230C 187.382,224.117 194.548,218.617 202,213.5C 202.498,210.183 202.665,206.85 202.5,203.5C 204.482,199.024 203.482,195.357 199.5,192.5C 196.497,187.825 193.497,183.159 190.5,178.5C 177.646,187.854 166.646,199.02 157.5,212C 152.431,211.679 151.264,209.179 154,204.5C 163.377,190.789 175.044,179.456 189,170.5C 189.499,166.179 189.666,161.846 189.5,157.5C 190.624,146.571 195.791,138.238 205,132.5C 206.697,130.301 208.197,127.968 209.5,125.5C 187.722,132.36 168.722,144.193 152.5,161C 150.16,161.748 148.16,161.248 146.5,159.5C 146.622,155.853 148.288,153.019 151.5,151C 166.47,137.838 183.137,127.172 201.5,119C 213.928,115.57 225.928,111.236 237.5,106C 247.895,104.716 257.895,106.049 267.5,110C 285.326,112.539 302.326,117.705 318.5,125.5C 346.378,140.712 367.044,162.712 380.5,191.5C 380.783,192.289 381.283,192.956 382,193.5C 382.828,178.328 382.661,163.328 381.5,148.5C 355.844,152.87 339.51,142.87 332.5,118.5C 332.114,108.33 331.447,98.3296 330.5,88.5C 330.83,70.3256 330.497,52.3256 329.5,34.5C 329.5,34.1667 329.5,33.8333 329.5,33.5C 330.168,27.1657 331.001,20.8324 332,14.5C 333.599,12.9644 335.433,12.4644 337.5,13C 345.471,22.1381 352.471,31.9714 358.5,42.5C 364.418,46.0416 370.251,49.7083 376,53.5C 378.941,40.3442 383.274,27.6775 389,15.5C 390.99,12.2781 393.49,11.7781 396.5,14C 405.086,29.084 409.586,45.2507 410,62.5C 408.772,66.0587 407.106,69.392 405,72.5C 404.333,73.5 404.333,74.5 405,75.5C 415.067,84.8976 424.4,94.8976 433,105.5C 434.407,99.5084 435.24,93.3418 435.5,87C 434.143,71.8931 431.643,57.0597 428,42.5C 433.838,32.8205 440.172,23.4872 447,14.5C 450.096,11.6468 452.763,11.9801 455,15.5C 458.222,50.5203 457.889,85.5203 454,120.5C 452.988,125.518 451.155,130.185 448.5,134.5 Z"/></g>
<g><path style="opacity:1" fill="#c7f8f8" d="M 300.5,25.5 C 303.802,26.2937 307.135,26.9604 310.5,27.5C 309.671,32.5011 311.671,34.6678 316.5,34C 317.823,33.1841 318.489,32.0174 318.5,30.5C 322.11,31.7033 325.777,32.7033 329.5,33.5C 329.5,33.8333 329.5,34.1667 329.5,34.5C 329.5,39.8333 329.5,45.1667 329.5,50.5C 250.511,60.927 171.511,71.2603 92.5,81.5C 103.157,72.0286 114.824,63.8619 127.5,57C 179.804,27.6161 235.47,18.1161 294.5,28.5C 297.356,28.9272 299.356,27.9272 300.5,25.5 Z"/></g>
<g><path style="opacity:1" fill="#2b2c3e" d="M 318.5,30.5 C 318.489,32.0174 317.823,33.1841 316.5,34C 311.671,34.6678 309.671,32.5011 310.5,27.5C 314.763,24.2327 317.43,25.2327 318.5,30.5 Z"/></g>
<g><path style="opacity:1" fill="#f6c986" d="M 448.5,32.5 C 448.5,39.8333 448.5,47.1667 448.5,54.5C 445.5,54.5 442.5,54.5 439.5,54.5C 437.35,51.1988 436.517,47.5322 437,43.5C 440.276,37.8918 443.943,32.5585 448,27.5C 448.494,29.1341 448.66,30.8008 448.5,32.5 Z"/></g>
<g><path style="opacity:1" fill="#f3c183" d="M 398.5,66.5 C 395.167,66.5 391.833,66.5 388.5,66.5C 385.807,63.782 384.141,60.4487 383.5,56.5C 385.563,46.1456 388.729,36.1456 393,26.5C 399.069,37.0378 402.069,48.3711 402,60.5C 401.4,62.9096 400.234,64.9096 398.5,66.5 Z"/></g>
<g><path style="opacity:1" fill="#c0f9f9" d="M 329.5,50.5 C 329.5,54.8333 329.5,59.1667 329.5,63.5C 305.669,66.6018 282.003,69.9351 258.5,73.5C 237.998,73.3488 217.998,76.3488 198.5,82.5C 197.551,81.8476 196.385,81.5143 195,81.5C 155.175,86.975 115.342,92.3084 75.5,97.5C 76.8823,94.6057 78.8823,92.1057 81.5,90C 85.0613,86.9274 88.728,84.0941 92.5,81.5C 171.511,71.2603 250.511,60.927 329.5,50.5 Z"/></g>
<g><path style="opacity:1" fill="#f4c483" d="M 346.5,60.5 C 343.5,60.5 340.5,60.5 337.5,60.5C 337.168,49.4798 337.501,38.4798 338.5,27.5C 343.115,33.2207 347.115,39.3873 350.5,46C 348.652,50.7078 347.319,55.5412 346.5,60.5 Z"/></g>
<g><path style="opacity:1" fill="#b4eef0" d="M 382.5,98.5 C 372.424,99.3681 362.424,100.701 352.5,102.5C 351.38,91.8798 351.213,81.2131 352,70.5C 352.661,63.8434 354.328,57.5101 357,51.5C 363.833,55.6667 370.667,59.8333 377.5,64C 378.542,65.918 379.708,67.7513 381,69.5C 382.448,79.0607 382.948,88.7274 382.5,98.5 Z"/></g>
<g><path style="opacity:1" fill="#b3eaed" d="M 329.5,34.5 C 330.497,52.3256 330.83,70.3256 330.5,88.5C 330.817,91.5719 330.484,94.5719 329.5,97.5C 326.592,95.8775 323.592,94.5442 320.5,93.5C 320.739,91.5328 320.406,89.6995 319.5,88C 299.938,79.8594 279.605,75.0261 258.5,73.5C 282.003,69.9351 305.669,66.6018 329.5,63.5C 329.5,59.1667 329.5,54.8333 329.5,50.5C 329.5,45.1667 329.5,39.8333 329.5,34.5 Z"/></g>
<g><path style="opacity:1" fill="#f6ae7e" d="M 337.5,60.5 C 340.5,60.5 343.5,60.5 346.5,60.5C 344.911,67.374 343.911,74.374 343.5,81.5C 342.566,82.5676 342.232,83.901 342.5,85.5C 341.167,85.5 339.833,85.5 338.5,85.5C 338.806,82.6146 338.473,79.9479 337.5,77.5C 337.5,71.8333 337.5,66.1667 337.5,60.5 Z"/></g>
<g><path style="opacity:1" fill="#eaab7c" d="M 448.5,32.5 C 449.778,48.02 449.778,63.6866 448.5,79.5C 446.833,79.5 445.167,79.5 443.5,79.5C 443.737,78.209 443.404,77.209 442.5,76.5C 441.499,69.164 440.499,61.8307 439.5,54.5C 442.5,54.5 445.5,54.5 448.5,54.5C 448.5,47.1667 448.5,39.8333 448.5,32.5 Z"/></g>
<g><path style="opacity:1" fill="#4fbdcf" d="M 320.5,93.5 C 323.592,94.5442 326.592,95.8775 329.5,97.5C 330.484,94.5719 330.817,91.5719 330.5,88.5C 331.447,98.3296 332.114,108.33 332.5,118.5C 332.719,119.675 332.386,120.675 331.5,121.5C 327.275,123.242 322.941,124.576 318.5,125.5C 302.326,117.705 285.326,112.539 267.5,110C 257.895,106.049 247.895,104.716 237.5,106C 225.928,111.236 213.928,115.57 201.5,119C 183.137,127.172 166.47,137.838 151.5,151C 148.288,153.019 146.622,155.853 146.5,159.5C 143.86,162.806 140.86,165.806 137.5,168.5C 133.397,158.643 126.73,150.976 117.5,145.5C 118,144.5 118.5,143.5 119,142.5C 128.908,132.588 139.408,123.421 150.5,115C 201.495,79.2784 256.162,72.2784 314.5,94C 316.598,94.6776 318.598,94.5109 320.5,93.5 Z"/></g>
<g><path style="opacity:1" fill="#bbf2f9" d="M 198.5,82.5 C 193.171,84.4972 187.838,86.4972 182.5,88.5C 145.023,93.8579 107.689,98.5246 70.5,102.5C 71.8333,100.5 73.5,98.8333 75.5,97.5C 115.342,92.3084 155.175,86.975 195,81.5C 196.385,81.5143 197.551,81.8476 198.5,82.5 Z"/></g>
<g><path style="opacity:1" fill="#f9a87e" d="M 388.5,66.5 C 391.833,66.5 395.167,66.5 398.5,66.5C 397.061,68.588 396.394,70.9214 396.5,73.5C 395.51,79.6446 395.177,85.9779 395.5,92.5C 393.833,92.5 392.167,92.5 390.5,92.5C 391.003,83.6926 390.336,75.0259 388.5,66.5 Z"/></g>
<g><path style="opacity:1" fill="#b8f1f2" d="M 182.5,88.5 C 169.438,94.231 157.105,101.231 145.5,109.5C 117.299,112.838 89.1319,116.505 61,120.5C 59.6244,120.316 58.7911,119.649 58.5,118.5C 62.025,112.77 66.025,107.437 70.5,102.5C 107.689,98.5246 145.023,93.8579 182.5,88.5 Z"/></g>
<g><path style="opacity:1" fill="#7ba5ad" d="M 405.5,87.5 C 404.505,99.3217 404.172,111.322 404.5,123.5C 403.175,111.327 403.175,98.9937 404.5,86.5C 405.107,86.6236 405.44,86.9569 405.5,87.5 Z"/></g>
<g><path style="opacity:1" fill="#a6e5eb" d="M 382.5,98.5 C 382.666,107.173 382.5,115.84 382,124.5C 380.871,126.141 379.371,127.141 377.5,127.5C 375.143,127.663 372.81,127.497 370.5,127C 364.915,121.574 358.915,116.741 352.5,112.5C 352.5,109.167 352.5,105.833 352.5,102.5C 362.424,100.701 372.424,99.3681 382.5,98.5 Z"/></g>
<g><path style="opacity:1" fill="#eb8f75" d="M 337.5,77.5 C 338.473,79.9479 338.806,82.6146 338.5,85.5C 339.833,85.5 341.167,85.5 342.5,85.5C 342.232,83.901 342.566,82.5676 343.5,81.5C 343.709,91.172 344.042,100.839 344.5,110.5C 342.95,111.72 341.284,111.72 339.5,110.5C 338.502,99.5216 337.836,88.5216 337.5,77.5 Z"/></g>
<g><path style="opacity:1" fill="#f19377" d="M 442.5,76.5 C 443.404,77.209 443.737,78.209 443.5,79.5C 445.167,79.5 446.833,79.5 448.5,79.5C 448.177,90.3408 447.51,101.007 446.5,111.5C 444.833,111.5 443.167,111.5 441.5,111.5C 442.025,103.659 442.691,95.8259 443.5,88C 443.321,84.1424 442.987,80.3091 442.5,76.5 Z"/></g>
<g><path style="opacity:1" fill="#b2ebf1" d="M 145.5,109.5 C 139.539,114.155 133.539,118.822 127.5,123.5C 127.083,122.876 126.416,122.543 125.5,122.5C 100.545,126.208 75.545,129.541 50.5,132.5C 52.6762,127.472 55.3429,122.806 58.5,118.5C 58.7911,119.649 59.6244,120.316 61,120.5C 89.1319,116.505 117.299,112.838 145.5,109.5 Z"/></g>
<g><path style="opacity:1" fill="#f48d76" d="M 396.5,73.5 C 396.5,89.5 396.5,105.5 396.5,121.5C 395.566,120.432 395.232,119.099 395.5,117.5C 393.833,117.5 392.167,117.5 390.5,117.5C 390.5,109.167 390.5,100.833 390.5,92.5C 392.167,92.5 393.833,92.5 395.5,92.5C 395.177,85.9779 395.51,79.6446 396.5,73.5 Z"/></g>
<g><path style="opacity:1" fill="#a1e0e6" d="M 405.5,87.5 C 410.13,92.6313 414.963,97.6313 420,102.5C 423.976,107.977 428.142,113.31 432.5,118.5C 430.565,122.932 427.232,125.765 422.5,127C 417.5,127.667 412.5,127.667 407.5,127C 405.944,126.28 404.944,125.113 404.5,123.5C 404.172,111.322 404.505,99.3217 405.5,87.5 Z"/></g>
<g><path style="opacity:1" fill="#bad4f5" d="M 243.5,142.5 C 238.661,142.222 233.994,142.888 229.5,144.5C 225.927,129.229 231.594,119.062 246.5,114C 255.782,113.07 264.115,115.403 271.5,121C 257.639,122.371 248.305,129.538 243.5,142.5 Z"/></g>
<g><path style="opacity:1" fill="#2b8594" d="M 281.5,119.5 C 291.855,122.421 301.855,126.255 311.5,131C 301.684,133.27 293.017,131.27 285.5,125C 283.536,123.549 282.203,121.716 281.5,119.5 Z"/></g>
<g><path style="opacity:1" fill="#3194a1" d="M 189.5,157.5 C 188.679,160.641 188.179,163.975 188,167.5C 171.667,178.5 155.333,189.5 139,200.5C 138.536,199.906 138.369,199.239 138.5,198.5C 141.484,188.341 141.151,178.341 137.5,168.5C 140.86,165.806 143.86,162.806 146.5,159.5C 148.16,161.248 150.16,161.748 152.5,161C 168.722,144.193 187.722,132.36 209.5,125.5C 208.197,127.968 206.697,130.301 205,132.5C 195.791,138.238 190.624,146.571 189.5,157.5 Z"/></g>
<g><path style="opacity:1" fill="#f4776f" d="M 339.5,110.5 C 341.284,111.72 342.95,111.72 344.5,110.5C 347.604,129.588 358.937,137.755 378.5,135C 387.041,132.451 391.041,126.617 390.5,117.5C 392.167,117.5 393.833,117.5 395.5,117.5C 395.232,119.099 395.566,120.432 396.5,121.5C 396.951,128.119 400.284,132.619 406.5,135C 416.939,136.738 426.439,134.571 435,128.5C 438.651,123.379 440.817,117.712 441.5,111.5C 443.167,111.5 444.833,111.5 446.5,111.5C 447.086,126.082 440.419,135.582 426.5,140C 404.167,140.667 381.833,140.667 359.5,140C 345.982,134.957 339.315,125.123 339.5,110.5 Z"/></g>
<g><path style="opacity:1" fill="#4eacbe" d="M 352.5,112.5 C 358.915,116.741 364.915,121.574 370.5,127C 372.81,127.497 375.143,127.663 377.5,127.5C 364.405,130.452 356.071,125.452 352.5,112.5 Z"/></g>
<g><path style="opacity:1" fill="#abcaf6" d="M 268.5,153.5 C 263.993,149.743 258.993,146.743 253.5,144.5C 252.702,144.043 252.369,143.376 252.5,142.5C 257.279,131.772 265.612,127.272 277.5,129C 281.304,131.305 284.97,133.805 288.5,136.5C 280.979,141.246 274.312,146.913 268.5,153.5 Z"/></g>
<g><path style="opacity:1" fill="#56bfd1" d="M 112.5,138.5 C 111.71,139.794 110.71,140.961 109.5,142C 89.9717,139.097 75.6384,146.264 66.5,163.5C 66.5,162.833 66.5,162.167 66.5,161.5C 75.4505,141.025 90.7839,133.358 112.5,138.5 Z"/></g>
<g><path style="opacity:1" fill="#9bbff6" d="M 333.5,144.5 C 333.53,145.497 333.03,146.164 332,146.5C 314.254,152.804 296.421,158.804 278.5,164.5C 276.833,163.167 275.167,161.833 273.5,160.5C 289.088,138.638 309.088,133.304 333.5,144.5 Z"/></g>
<g><path style="opacity:1" fill="#a9e7eb" d="M 127.5,123.5 C 122.833,128.833 117.833,133.833 112.5,138.5C 90.7839,133.358 75.4505,141.025 66.5,161.5C 58.1771,162.582 49.8437,163.582 41.5,164.5C 41.5,163.5 41.5,162.5 41.5,161.5C 42.695,151.25 45.695,141.583 50.5,132.5C 75.545,129.541 100.545,126.208 125.5,122.5C 126.416,122.543 127.083,122.876 127.5,123.5 Z"/></g>
<g><path style="opacity:1" fill="#b4d1f5" d="M 221.5,146.5 C 216.771,153.026 210.437,155.359 202.5,153.5C 202.263,149.727 202.763,146.06 204,142.5C 210.495,138.338 215.162,132.672 218,125.5C 220.719,122.078 223.886,119.578 227.5,118C 220.721,126.412 218.721,135.912 221.5,146.5 Z"/></g>
<g><path style="opacity:1" fill="#6b95de" d="M 243.5,142.5 C 243.5,145.5 243.5,148.5 243.5,151.5C 239.76,151.241 236.094,151.574 232.5,152.5C 230.713,150.142 229.713,147.475 229.5,144.5C 233.994,142.888 238.661,142.222 243.5,142.5 Z"/></g>
<g><path style="opacity:1" fill="#6792dd" d="M 252.5,142.5 C 252.369,143.376 252.702,144.043 253.5,144.5C 258.993,146.743 263.993,149.743 268.5,153.5C 267.356,156.447 265.689,159.113 263.5,161.5C 259.899,158.406 255.899,155.906 251.5,154C 250.072,149.942 250.405,146.109 252.5,142.5 Z"/></g>
<g><path style="opacity:1" fill="#94baf9" d="M 333.5,144.5 C 337.12,146.453 340.12,149.119 342.5,152.5C 342.389,153.117 342.056,153.617 341.5,154C 331.289,157.235 321.289,160.735 311.5,164.5C 302.37,167.155 293.037,167.988 283.5,167C 281.509,166.626 279.842,165.793 278.5,164.5C 296.421,158.804 314.254,152.804 332,146.5C 333.03,146.164 333.53,145.497 333.5,144.5 Z"/></g>
<g><path style="opacity:1" fill="#6892dc" d="M 221.5,146.5 C 222.835,149.341 223.668,152.341 224,155.5C 218.705,158.629 214.205,162.629 210.5,167.5C 205.276,164.396 202.61,159.729 202.5,153.5C 210.437,155.359 216.771,153.026 221.5,146.5 Z"/></g>
<g><path style="opacity:1" fill="#44aebf" d="M 332.5,118.5 C 339.51,142.87 355.844,152.87 381.5,148.5C 381.829,163.01 381.496,177.343 380.5,191.5C 367.044,162.712 346.378,140.712 318.5,125.5C 322.941,124.576 327.275,123.242 331.5,121.5C 332.386,120.675 332.719,119.675 332.5,118.5 Z"/></g>
<g><path style="opacity:1" fill="#8ed6de" d="M 448.5,134.5 C 450.5,138.833 452.5,143.167 454.5,147.5C 452.752,149.16 452.252,151.16 453,153.5C 456.327,159.986 459.16,166.653 461.5,173.5C 445.79,176.8 429.79,179.133 413.5,180.5C 406.469,171.052 403.469,160.385 404.5,148.5C 421.705,151.21 436.371,146.543 448.5,134.5 Z"/></g>
<g><path style="opacity:1" fill="#89b1f7" d="M 342.5,152.5 C 347.902,159.82 350.235,168.154 349.5,177.5C 343.555,173.187 337.222,169.353 330.5,166C 324.258,164.63 317.925,164.13 311.5,164.5C 321.289,160.735 331.289,157.235 341.5,154C 342.056,153.617 342.389,153.117 342.5,152.5 Z"/></g>
<g><path style="opacity:1" fill="#9ce0e5" d="M 131.5,174.5 C 131.5,175.5 131.5,176.5 131.5,177.5C 113.718,179.264 96.051,181.598 78.5,184.5C 74.9013,180.553 73.2346,175.886 73.5,170.5C 76.4355,157.185 84.7689,150.185 98.5,149.5C 115.216,150.352 126.216,158.685 131.5,174.5 Z"/></g>
<g><path style="opacity:1" fill="#5d87d6" d="M 273.5,160.5 C 275.167,161.833 276.833,163.167 278.5,164.5C 279.842,165.793 281.509,166.626 283.5,167C 293.037,167.988 302.37,167.155 311.5,164.5C 317.925,164.13 324.258,164.63 330.5,166C 337.222,169.353 343.555,173.187 349.5,177.5C 350.369,179.984 351.036,182.651 351.5,185.5C 351.167,186.167 350.833,186.833 350.5,187.5C 325.44,173.871 299.44,171.871 272.5,181.5C 272.017,177.07 270.684,172.903 268.5,169C 269.556,165.707 271.223,162.874 273.5,160.5 Z"/></g>
<g><path style="opacity:1" fill="#4a4465" d="M 396.5,148.5 C 396.5,182.167 396.5,215.833 396.5,249.5C 394.167,249.5 391.833,249.5 389.5,249.5C 389.5,215.833 389.5,182.167 389.5,148.5C 391.833,148.5 394.167,148.5 396.5,148.5 Z"/></g>
<g><path style="opacity:1" fill="#628bd8" d="M 197.5,165.5 C 201.009,169.176 204.342,173.009 207.5,177C 206.901,180.229 206.068,183.396 205,186.5C 200.026,180.412 197.526,173.412 197.5,165.5 Z"/></g>
<g><path style="opacity:1" fill="#f7c8c6" d="M 264.5,184.5 C 258.5,184.5 252.5,184.5 246.5,184.5C 244.208,183.314 241.874,183.314 239.5,184.5C 231.167,184.5 222.833,184.5 214.5,184.5C 214.5,183.167 214.5,181.833 214.5,180.5C 221.461,159.896 234.794,154.396 254.5,164C 261.459,169.085 264.793,175.918 264.5,184.5 Z"/></g>
<g><path style="opacity:1" fill="#326472" d="M 381.5,148.5 C 382.661,163.328 382.828,178.328 382,193.5C 381.283,192.956 380.783,192.289 380.5,191.5C 381.496,177.343 381.829,163.01 381.5,148.5 Z"/></g>
<g><path style="opacity:1" fill="#2b8d9b" d="M 189.5,157.5 C 189.666,161.846 189.499,166.179 189,170.5C 175.044,179.456 163.377,190.789 154,204.5C 151.264,209.179 152.431,211.679 157.5,212C 166.646,199.02 177.646,187.854 190.5,178.5C 193.497,183.159 196.497,187.825 199.5,192.5C 199.586,193.496 199.252,194.329 198.5,195C 179.681,206.996 161.014,219.163 142.5,231.5C 138.403,225.568 133.403,220.401 127.5,216C 132.248,210.772 135.914,204.939 138.5,198.5C 138.369,199.239 138.536,199.906 139,200.5C 155.333,189.5 171.667,178.5 188,167.5C 188.179,163.975 188.679,160.641 189.5,157.5 Z"/></g>
<g><path style="opacity:1" fill="#2e2b3d" d="M 246.5,184.5 C 247.473,186.068 247.64,187.735 247,189.5C 243.414,191.723 239.581,192.889 235.5,193C 233.398,191.267 233.065,189.267 234.5,187C 236.315,186.243 237.981,185.41 239.5,184.5C 241.874,183.314 244.208,183.314 246.5,184.5 Z"/></g>
<g><path style="opacity:1" fill="#4caabc" d="M 73.5,170.5 C 73.2346,175.886 74.9013,180.553 78.5,184.5C 82.1651,188.618 86.8318,190.618 92.5,190.5C 91.5514,191.152 90.3847,191.486 89,191.5C 76.9053,189.279 71.7386,182.279 73.5,170.5 Z"/></g>
<g><path style="opacity:1" fill="#567dcd" d="M 355.5,199.5 C 343.626,203.124 331.959,207.124 320.5,211.5C 312.5,210.833 304.5,210.167 296.5,209.5C 289.352,208.508 282.019,208.175 274.5,208.5C 274.813,204.958 274.479,201.625 273.5,198.5C 273.183,195.428 273.516,192.428 274.5,189.5C 284.522,185.037 295.022,183.037 306,183.5C 324.377,183.284 340.877,188.618 355.5,199.5 Z"/></g>
<g><path style="opacity:1" fill="#217485" d="M 356.5,167.5 C 367.407,179.645 374.907,193.645 379,209.5C 373.313,204.811 367.979,199.811 363,194.5C 358.484,186.077 356.318,177.077 356.5,167.5 Z"/></g>
<g><path style="opacity:1" fill="#92d8df" d="M 41.5,161.5 C 41.5,162.5 41.5,163.5 41.5,164.5C 49.8437,163.582 58.1771,162.582 66.5,161.5C 66.5,162.167 66.5,162.833 66.5,163.5C 65.4696,169.463 65.3029,175.463 66,181.5C 69.6788,192.507 77.3455,198.173 89,198.5C 95.7331,198.968 100.733,196.302 104,190.5C 105.072,187.447 104.072,185.447 101,184.5C 98.2797,186.73 95.4464,188.73 92.5,190.5C 86.8318,190.618 82.1651,188.618 78.5,184.5C 96.051,181.598 113.718,179.264 131.5,177.5C 131.5,176.5 131.5,175.5 131.5,174.5C 133.12,182.884 132.453,191.217 129.5,199.5C 128.423,198.982 127.256,198.648 126,198.5C 100.853,202.039 75.6867,205.372 50.5,208.5C 39.7113,194.342 36.7113,178.675 41.5,161.5 Z"/></g>
<g><path style="opacity:1" fill="#2b889b" d="M 199.5,192.5 C 203.482,195.357 204.482,199.024 202.5,203.5C 184.382,215.111 166.382,226.944 148.5,239C 147.552,239.483 146.552,239.649 145.5,239.5C 144.5,236.833 143.5,234.167 142.5,231.5C 161.014,219.163 179.681,206.996 198.5,195C 199.252,194.329 199.586,193.496 199.5,192.5 Z"/></g>
<g><path style="opacity:1" fill="#f3b6b4" d="M 214.5,180.5 C 214.5,181.833 214.5,183.167 214.5,184.5C 222.833,184.5 231.167,184.5 239.5,184.5C 237.981,185.41 236.315,186.243 234.5,187C 233.065,189.267 233.398,191.267 235.5,193C 239.581,192.889 243.414,191.723 247,189.5C 247.64,187.735 247.473,186.068 246.5,184.5C 252.5,184.5 258.5,184.5 264.5,184.5C 266.261,193.361 266.928,202.361 266.5,211.5C 259.368,210.307 252.201,209.307 245,208.5C 238.836,209.403 232.669,209.903 226.5,210C 224.789,208.867 224.289,207.367 225,205.5C 227.562,203.654 229.729,201.487 231.5,199C 229.721,195.221 227.054,194.555 223.5,197C 217.235,201.673 215.902,207.506 219.5,214.5C 216.749,216.293 213.916,217.959 211,219.5C 210.029,210.393 210.529,201.393 212.5,192.5C 215.103,193.562 217.77,193.728 220.5,193C 221.76,191.186 221.76,189.353 220.5,187.5C 218.271,186.423 215.937,185.756 213.5,185.5C 213.216,183.585 213.549,181.919 214.5,180.5 Z"/></g>
<g><path style="opacity:1" fill="#8ed3e0" d="M 129.5,199.5 C 128.231,203.054 126.231,206.054 123.5,208.5C 122.903,207.861 122.07,207.528 121,207.5C 99.9961,210.31 79.1628,213.31 58.5,216.5C 55.5,214.167 52.8333,211.5 50.5,208.5C 75.6867,205.372 100.853,202.039 126,198.5C 127.256,198.648 128.423,198.982 129.5,199.5 Z"/></g>
<g><path style="opacity:1" fill="#4e72c3" d="M 355.5,199.5 C 365.833,206.5 374.5,215.167 381.5,225.5C 381.821,231.026 381.488,236.36 380.5,241.5C 363.446,225.64 343.446,215.64 320.5,211.5C 331.959,207.124 343.626,203.124 355.5,199.5 Z"/></g>
<g><path style="opacity:1" fill="#2b8794" d="M 202.5,203.5 C 202.665,206.85 202.498,210.183 202,213.5C 194.548,218.617 187.382,224.117 180.5,230C 169.394,234.719 158.728,240.219 148.5,246.5C 147.3,244.229 146.3,241.896 145.5,239.5C 146.552,239.649 147.552,239.483 148.5,239C 166.382,226.944 184.382,215.111 202.5,203.5 Z"/></g>
<g><path style="opacity:1" fill="#7ac9d3" d="M 461.5,173.5 C 466.799,186.629 470.465,200.295 472.5,214.5C 472.5,215.833 472.5,217.167 472.5,218.5C 457.628,220.213 442.795,222.213 428,224.5C 426.989,223.944 426.156,223.278 425.5,222.5C 423.324,207.972 419.324,193.972 413.5,180.5C 429.79,179.133 445.79,176.8 461.5,173.5 Z"/></g>
<g><path style="opacity:1" fill="#87d1d7" d="M 123.5,208.5 C 117.04,217.243 108.373,222.743 97.5,225C 83.121,227.883 70.121,225.049 58.5,216.5C 79.1628,213.31 99.9961,210.31 121,207.5C 122.07,207.528 122.903,207.861 123.5,208.5 Z"/></g>
<g><path style="opacity:1" fill="#3f5687" d="M 273.5,198.5 C 274.479,201.625 274.813,204.958 274.5,208.5C 282.019,208.175 289.352,208.508 296.5,209.5C 288.833,209.5 281.167,209.5 273.5,209.5C 273.5,205.833 273.5,202.167 273.5,198.5 Z"/></g>
<g><path style="opacity:1" fill="#b9d4f6" d="M 260.5,255.5 C 260.423,256.75 259.756,257.583 258.5,258C 252.101,260.077 245.768,262.244 239.5,264.5C 236.496,260.701 234.33,256.368 233,251.5C 232.282,243.387 232.616,235.387 234,227.5C 232.867,225.789 231.367,225.289 229.5,226C 227.331,228.819 225.831,231.986 225,235.5C 224.311,241.882 224.645,248.215 226,254.5C 227.846,258.855 229.679,263.188 231.5,267.5C 224.61,269.908 217.61,271.908 210.5,273.5C 200.396,257.405 201.563,242.072 214,227.5C 220.453,221.898 227.953,218.398 236.5,217C 243.158,216.5 249.825,216.334 256.5,216.5C 252.878,230.019 254.211,243.019 260.5,255.5 Z"/></g>
<g><path style="opacity:1" fill="#384b76" d="M 381.5,225.5 C 382.816,231.013 382.816,236.68 381.5,242.5C 380.893,242.376 380.56,242.043 380.5,241.5C 381.488,236.36 381.821,231.026 381.5,225.5 Z"/></g>
<g><path style="opacity:1" fill="#f8c8c5" d="M 380.5,253.5 C 360.824,255.751 341.158,258.084 321.5,260.5C 306.125,252.956 294.958,241.29 288,225.5C 285.131,222.296 281.965,219.463 278.5,217C 307.737,214.647 335.071,220.647 360.5,235C 368.274,240.039 374.941,246.206 380.5,253.5 Z"/></g>
<g><path style="opacity:1" fill="#b6d3f7" d="M 290.5,244.5 C 290.5,245.5 290.5,246.5 290.5,247.5C 283.218,249.705 275.884,251.705 268.5,253.5C 261.399,243.132 259.732,231.966 263.5,220C 271.396,221.182 277.896,225.016 283,231.5C 285.512,235.861 288.012,240.194 290.5,244.5 Z"/></g>
<g><path style="opacity:1" fill="#45afc2" d="M 39.5,206.5 C 35.7806,213.823 32.9473,221.49 31,229.5C 27.9529,245.916 34.1195,257.082 49.5,263C 64.7282,265.089 72.5615,258.589 73,243.5C 70.7328,236.4 65.8995,232.4 58.5,231.5C 54.5003,231.663 53.0003,233.663 54,237.5C 56.166,239.121 58.666,239.955 61.5,240C 62.6667,241.167 63.8333,242.333 65,243.5C 65.7401,244.749 65.5735,245.749 64.5,246.5C 63.4226,245.982 62.2559,245.648 61,245.5C 49.263,251.447 43.263,247.78 43,234.5C 44.7084,229.588 47.5417,225.421 51.5,222C 58.4215,225.786 65.7548,229.12 73.5,232C 78.7674,233.191 84.1007,233.691 89.5,233.5C 91.8967,250.498 86.2301,263.998 72.5,274C 53.522,283.599 36.6887,280.766 22,265.5C 11.4382,245.581 10.7715,225.248 20,204.5C 22.9939,197.17 26.9939,190.503 32,184.5C 33.6084,192.159 36.1084,199.492 39.5,206.5 Z"/></g>
<g><path style="opacity:1" fill="#237b8c" d="M 39.5,206.5 C 41.5841,209.765 43.9174,212.932 46.5,216C 38.3785,223.066 34.8785,231.899 36,242.5C 41.5751,256.38 50.7418,259.547 63.5,252C 65.6348,250.444 65.9681,248.611 64.5,246.5C 65.5735,245.749 65.7401,244.749 65,243.5C 63.8333,242.333 62.6667,241.167 61.5,240C 58.666,239.955 56.166,239.121 54,237.5C 53.0003,233.663 54.5003,231.663 58.5,231.5C 65.8995,232.4 70.7328,236.4 73,243.5C 72.5615,258.589 64.7282,265.089 49.5,263C 34.1195,257.082 27.9529,245.916 31,229.5C 32.9473,221.49 35.7806,213.823 39.5,206.5 Z"/></g>
<g><path style="opacity:1" fill="#2b8896" d="M 119.5,222.5 C 126.182,224.327 131.349,228.327 135,234.5C 136.941,238.048 138.607,241.714 140,245.5C 140.814,247.902 140.647,250.235 139.5,252.5C 123.106,264.391 108.106,277.891 94.5,293C 86.0514,292.274 79.0514,288.608 73.5,282C 79.4255,278.079 84.7588,273.412 89.5,268C 107.225,272.439 117.225,265.606 119.5,247.5C 119.38,242.194 116.88,240.194 112,241.5C 111.667,245.5 111.333,249.5 111,253.5C 107.037,261.413 101.204,263.413 93.5,259.5C 97.2461,251.121 98.2461,242.454 96.5,233.5C 102.118,231.238 107.785,229.071 113.5,227C 115.747,225.723 117.747,224.223 119.5,222.5 Z"/></g>
<g><path style="opacity:1" fill="#eff1f8" d="M 189.5,407.5 C 190.153,425.532 189.486,443.198 187.5,460.5C 180.285,459.318 173.285,457.318 166.5,454.5C 164.254,451.096 162.588,447.429 161.5,443.5C 162.833,384.5 162.833,325.5 161.5,266.5C 170.947,248.215 184.447,233.548 202,222.5C 202.167,223.167 202.333,223.833 202.5,224.5C 195.287,232.899 189.454,242.232 185,252.5C 171.942,291.898 169.942,331.898 179,372.5C 181.93,384.354 185.43,396.021 189.5,407.5 Z"/></g>
<g><path style="opacity:1" fill="#68bcc9" d="M 472.5,214.5 C 475.855,229.176 477.188,244.176 476.5,259.5C 460.536,261.781 444.536,263.781 428.5,265.5C 429.101,251.034 428.101,236.701 425.5,222.5C 426.156,223.278 426.989,223.944 428,224.5C 442.795,222.213 457.628,220.213 472.5,218.5C 472.5,217.167 472.5,215.833 472.5,214.5 Z"/></g>
<g><path style="opacity:1" fill="#38a0af" d="M 404.5,181.5 C 411.805,195.586 416.639,210.586 419,226.5C 420.338,238.457 420.838,250.457 420.5,262.5C 415.224,261.556 410.057,260.223 405,258.5C 404.5,232.835 404.333,207.169 404.5,181.5 Z"/></g>
<g><path style="opacity:1" fill="#f8bebd" d="M 380.5,253.5 C 381.497,270.659 381.83,287.992 381.5,305.5C 378.302,301.645 374.969,297.812 371.5,294C 370.255,293.209 368.922,292.709 367.5,292.5C 363.042,286.207 357.708,280.707 351.5,276C 341.847,270.008 331.847,264.841 321.5,260.5C 341.158,258.084 360.824,255.751 380.5,253.5 Z"/></g>
<g><path style="opacity:1" fill="#403c5a" d="M 396.5,148.5 C 397.499,218.665 397.833,288.998 397.5,359.5C 394.833,359.5 392.167,359.5 389.5,359.5C 389.5,322.833 389.5,286.167 389.5,249.5C 391.833,249.5 394.167,249.5 396.5,249.5C 396.5,215.833 396.5,182.167 396.5,148.5 Z"/></g>
<g><path style="opacity:1" fill="#a6c7f7" d="M 290.5,244.5 C 298.318,254.644 307.985,262.644 319.5,268.5C 319.53,269.497 319.03,270.164 318,270.5C 309.847,273.273 301.68,275.94 293.5,278.5C 283.597,271.719 275.263,263.386 268.5,253.5C 275.884,251.705 283.218,249.705 290.5,247.5C 290.5,246.5 290.5,245.5 290.5,244.5 Z"/></g>
<g><path style="opacity:1" fill="#5ab1c3" d="M 476.5,259.5 C 476.424,275.97 474.924,292.303 472,308.5C 460.879,290.545 446.379,276.212 428.5,265.5C 444.536,263.781 460.536,261.781 476.5,259.5 Z"/></g>
<g><path style="opacity:1" fill="#d67481" d="M 411.5,268.5 C 411.167,291.51 411.5,314.51 412.5,337.5C 424.769,331.181 437.769,327.514 451.5,326.5C 436.344,334.468 423.01,344.968 411.5,358C 409.19,358.497 406.857,358.663 404.5,358.5C 404.5,327.833 404.5,297.167 404.5,266.5C 406.965,266.767 409.299,267.434 411.5,268.5 Z"/></g>
<g><path style="opacity:1" fill="#99bef8" d="M 319.5,268.5 C 322.749,270.028 326.082,271.361 329.5,272.5C 329.865,275.625 330.698,278.625 332,281.5C 332.499,286.155 332.666,290.821 332.5,295.5C 324.988,298.56 317.322,301.226 309.5,303.5C 304.956,294.63 299.622,286.297 293.5,278.5C 301.68,275.94 309.847,273.273 318,270.5C 319.03,270.164 319.53,269.497 319.5,268.5 Z"/></g>
<g><path style="opacity:1" fill="#f6f7f8" d="M 161.5,266.5 C 162.833,325.5 162.833,384.5 161.5,443.5C 143.51,398.914 138.343,352.914 146,305.5C 149.012,291.501 154.178,278.501 161.5,266.5 Z"/></g>
<g><path style="opacity:1" fill="#a5c7f7" d="M 260.5,255.5 C 267.424,265.094 275.424,273.76 284.5,281.5C 278.059,284.204 271.392,286.537 264.5,288.5C 259.957,283.791 254.957,279.625 249.5,276C 245.584,272.59 242.251,268.757 239.5,264.5C 245.768,262.244 252.101,260.077 258.5,258C 259.756,257.583 260.423,256.75 260.5,255.5 Z"/></g>
<g><path style="opacity:1" fill="#547ccb" d="M 329.5,272.5 C 341.53,276.881 351.197,284.215 358.5,294.5C 348.719,298.224 339.052,302.224 329.5,306.5C 330.344,302.789 331.344,299.123 332.5,295.5C 332.666,290.821 332.499,286.155 332,281.5C 330.698,278.625 329.865,275.625 329.5,272.5 Z"/></g>
<g><path style="opacity:1" fill="#f7c1bf" d="M 143.5,285.5 C 138.026,293.582 133.693,302.249 130.5,311.5C 116.302,313.266 102.135,315.266 88,317.5C 87.2352,317.43 86.7352,317.097 86.5,316.5C 107.082,285.769 133.749,262.269 166.5,246C 156.634,257.901 148.967,271.067 143.5,285.5 Z"/></g>
<g><path style="opacity:1" fill="#a5c7f7" d="M 231.5,267.5 C 238.814,275.813 246.814,283.479 255.5,290.5C 255.53,291.497 255.03,292.164 254,292.5C 247.847,294.607 241.68,296.607 235.5,298.5C 234.164,296.99 232.997,295.323 232,293.5C 224.636,286.967 217.47,280.3 210.5,273.5C 217.61,271.908 224.61,269.908 231.5,267.5 Z"/></g>
<g><path style="opacity:1" fill="#5d87d6" d="M 236.5,318.5 C 229.751,321.623 222.918,324.623 216,327.5C 214.97,327.836 214.47,328.503 214.5,329.5C 207.865,322.032 200.698,315.032 193,308.5C 190.806,305.446 189.139,302.112 188,298.5C 184.714,280.261 187.381,262.928 196,246.5C 194.788,259.733 198.455,271.4 207,281.5C 214.649,287.151 221.649,293.484 228,300.5C 232.183,305.866 235.017,311.866 236.5,318.5 Z"/></g>
<g><path style="opacity:1" fill="#d77582" d="M 143.5,285.5 C 135.993,309.56 132.826,334.227 134,359.5C 128.267,352.265 121.767,345.932 114.5,340.5C 117.272,341.591 120.105,342.591 123,343.5C 124.261,343.241 125.261,342.574 126,341.5C 126.31,331.306 127.81,321.306 130.5,311.5C 133.693,302.249 138.026,293.582 143.5,285.5 Z"/></g>
<g><path style="opacity:1" fill="#f8b5b3" d="M 412.5,268.5 C 436.771,277.113 454.771,292.78 466.5,315.5C 448.447,317.46 430.447,319.793 412.5,322.5C 412.5,304.5 412.5,286.5 412.5,268.5 Z"/></g>
<g><path style="opacity:1" fill="#96bbf8" d="M 284.5,281.5 C 292.203,288.559 298.203,296.893 302.5,306.5C 294.433,308.967 286.433,311.633 278.5,314.5C 275.42,305.007 270.753,296.341 264.5,288.5C 271.392,286.537 278.059,284.204 284.5,281.5 Z"/></g>
<g><path style="opacity:1" fill="#d67481" d="M 367.5,292.5 C 368.922,292.709 370.255,293.209 371.5,294C 374.969,297.812 378.302,301.645 381.5,305.5C 381.5,323.833 381.5,342.167 381.5,360.5C 378.291,360.411 375.125,360.744 372,361.5C 369.476,360.822 367.309,359.488 365.5,357.5C 379.257,336.085 379.923,314.419 367.5,292.5 Z"/></g>
<g><path style="opacity:1" fill="#5075c6" d="M 358.5,294.5 C 362.796,306.748 358.796,315.248 346.5,320C 338.833,322.359 331.5,321.859 324.5,318.5C 326.557,314.662 328.224,310.662 329.5,306.5C 339.052,302.224 348.719,298.224 358.5,294.5 Z"/></g>
<g><path style="opacity:1" fill="#8bb2f7" d="M 332.5,295.5 C 331.344,299.123 330.344,302.789 329.5,306.5C 328.224,310.662 326.557,314.662 324.5,318.5C 317.517,315.578 312.517,310.578 309.5,303.5C 317.322,301.226 324.988,298.56 332.5,295.5 Z"/></g>
<g><path style="opacity:1" fill="#96bbf7" d="M 255.5,290.5 C 263.341,297.841 268.341,306.841 270.5,317.5C 262.904,320.032 255.238,322.365 247.5,324.5C 247.167,324.5 246.833,324.5 246.5,324.5C 244.77,314.967 241.104,306.3 235.5,298.5C 241.68,296.607 247.847,294.607 254,292.5C 255.03,292.164 255.53,291.497 255.5,290.5 Z"/></g>
<g><path style="opacity:1" fill="#4a6fbf" d="M 288.5,343.5 C 300.323,342.339 310.157,337.339 318,328.5C 318.791,327.255 319.291,325.922 319.5,324.5C 321.896,326.138 324.562,327.304 327.5,328C 339.629,330.465 350.629,328.132 360.5,321C 363.205,317.758 365.539,314.258 367.5,310.5C 371.148,327.406 367.648,342.739 357,356.5C 346.893,367.057 334.726,370.557 320.5,367C 307.092,362.806 296.426,354.973 288.5,343.5 Z"/></g>
<g><path style="opacity:1" fill="#f0abaa" d="M 411.5,268.5 C 411.833,268.5 412.167,268.5 412.5,268.5C 412.5,286.5 412.5,304.5 412.5,322.5C 430.447,319.793 448.447,317.46 466.5,315.5C 468.81,318.102 470.643,321.102 472,324.5C 480.057,328.028 487.057,333.028 493,339.5C 499.589,349.044 498.422,357.544 489.5,365C 485.115,365.968 482.115,364.301 480.5,360C 481.917,356.584 484.084,353.751 487,351.5C 487.934,346.917 486.1,345.417 481.5,347C 471.676,354.253 471.01,362.253 479.5,371C 481.957,372.562 484.624,373.562 487.5,374C 485.419,378.018 482.753,381.518 479.5,384.5C 472.643,365.769 465.476,347.102 458,328.5C 457.768,329.737 457.268,330.737 456.5,331.5C 456.5,328.167 454.833,326.5 451.5,326.5C 437.769,327.514 424.769,331.181 412.5,337.5C 411.5,314.51 411.167,291.51 411.5,268.5 Z"/></g>
<g><path style="opacity:1" fill="#5379c8" d="M 236.5,318.5 C 239.131,326.669 241.631,335.003 244,343.5C 247.284,352.117 252.784,358.95 260.5,364C 238.875,361.008 223.541,349.508 214.5,329.5C 214.47,328.503 214.97,327.836 216,327.5C 222.918,324.623 229.751,321.623 236.5,318.5 Z"/></g>
<g><path style="opacity:1" fill="#86aff8" d="M 302.5,306.5 C 306.133,314.465 311.8,320.465 319.5,324.5C 319.291,325.922 318.791,327.255 318,328.5C 310.157,337.339 300.323,342.339 288.5,343.5C 282.787,334.696 279.454,325.029 278.5,314.5C 286.433,311.633 294.433,308.967 302.5,306.5 Z"/></g>
<g><path style="opacity:1" fill="#f8b9b5" d="M 130.5,311.5 C 127.81,321.306 126.31,331.306 126,341.5C 125.261,342.574 124.261,343.241 123,343.5C 120.105,342.591 117.272,341.591 114.5,340.5C 111.076,339.041 107.576,337.708 104,336.5C 102.358,336.978 101.191,337.978 100.5,339.5C 88.2006,341.686 75.8673,343.686 63.5,345.5C 62.7025,345.043 62.3691,344.376 62.5,343.5C 66.4266,339.85 70.4266,336.183 74.5,332.5C 78.5207,327.099 82.5207,321.765 86.5,316.5C 86.7352,317.097 87.2352,317.43 88,317.5C 102.135,315.266 116.302,313.266 130.5,311.5 Z"/></g>
<g><path style="opacity:1" fill="#88b1f7" d="M 270.5,317.5 C 272.687,325.893 275.354,334.226 278.5,342.5C 264.291,343.552 253.958,337.552 247.5,324.5C 255.238,322.365 262.904,320.032 270.5,317.5 Z"/></g>
<g><path style="opacity:1" fill="#6372a2" d="M 197.5,356.5 C 192.93,355.559 188.263,355.226 183.5,355.5C 181.502,338.906 181.002,322.239 182,305.5C 184.615,309.783 187.615,313.783 191,317.5C 191.661,330.798 193.828,343.798 197.5,356.5 Z"/></g>
<g><path style="opacity:1" fill="#f8b8b6" d="M 479.5,384.5 C 473.457,390.861 466.124,395.194 457.5,397.5C 450.91,381.569 444.41,365.569 438,349.5C 437.623,348.058 436.79,347.058 435.5,346.5C 442.222,341.112 449.222,336.112 456.5,331.5C 457.268,330.737 457.768,329.737 458,328.5C 465.476,347.102 472.643,365.769 479.5,384.5 Z"/></g>
<g><path style="opacity:1" fill="#d27581" d="M 103.5,344.5 C 113.332,348.342 120.998,354.675 126.5,363.5C 119.1,356.759 111.433,350.426 103.5,344.5 Z"/></g>
<g><path style="opacity:1" fill="#4c70c0" d="M 246.5,324.5 C 246.833,324.5 247.167,324.5 247.5,324.5C 253.958,337.552 264.291,343.552 278.5,342.5C 283.354,351.36 290.021,358.693 298.5,364.5C 279.088,367.982 263.921,361.649 253,345.5C 249.748,338.823 247.581,331.823 246.5,324.5 Z"/></g>
<g><path style="opacity:1" fill="#f4b1ad" d="M 100.5,339.5 C 100.31,341.959 101.31,343.626 103.5,344.5C 111.433,350.426 119.1,356.759 126.5,363.5C 131.734,369.968 135.401,377.302 137.5,385.5C 137.5,386.5 137.5,387.5 137.5,388.5C 118.533,391.114 99.5334,393.448 80.5,395.5C 76.8803,393.715 74.047,391.048 72,387.5C 70.0073,385.182 68.8406,382.516 68.5,379.5C 79.4012,379.039 84.2346,373.372 83,362.5C 81.7894,359.241 79.9561,356.408 77.5,354C 74.1379,352.707 72.1379,353.707 71.5,357C 72.2007,359.38 73.3674,361.547 75,363.5C 76.6513,368.141 75.1513,370.807 70.5,371.5C 62.914,368.552 58.5806,362.885 57.5,354.5C 57.8523,350.136 59.5189,346.469 62.5,343.5C 62.3691,344.376 62.7025,345.043 63.5,345.5C 75.8673,343.686 88.2006,341.686 100.5,339.5 Z"/></g>
<g><path style="opacity:1" fill="#e0e6f7" d="M 244.5,375.5 C 244.83,391.342 244.496,407.009 243.5,422.5C 217.073,395.636 202.573,363.302 200,325.5C 206.962,332.746 212.962,340.746 218,349.5C 222.244,354.415 227.077,358.581 232.5,362C 236.337,366.669 240.337,371.169 244.5,375.5 Z"/></g>
<g><path style="opacity:1" fill="#f7c4c2" d="M 435.5,346.5 C 436.79,347.058 437.623,348.058 438,349.5C 444.41,365.569 450.91,381.569 457.5,397.5C 444.244,401.333 430.911,402.333 417.5,400.5C 420.898,400.82 424.232,400.487 427.5,399.5C 423.057,388.295 418.39,377.295 413.5,366.5C 419.858,358.811 427.191,352.144 435.5,346.5 Z"/></g>
<g><path style="opacity:1" fill="#f7cccb" d="M 413.5,366.5 C 418.39,377.295 423.057,388.295 427.5,399.5C 424.232,400.487 420.898,400.82 417.5,400.5C 406.18,399.84 394.847,399.34 383.5,399C 381.291,397.127 379.458,394.96 378,392.5C 377.667,388.167 377.333,383.833 377,379.5C 374.046,378.218 372.213,376.052 371.5,373C 371.439,371.289 372.106,369.956 373.5,369C 386.798,367.55 400.131,366.717 413.5,366.5 Z"/></g>
<g><path style="opacity:1" fill="#d77481" d="M 250.5,371.5 C 250.735,370.903 251.235,370.57 252,370.5C 258.804,372.8 265.804,373.8 273,373.5C 283.495,372.667 293.995,372.5 304.5,373C 314.405,374.884 324.405,375.884 334.5,376C 329.69,382.444 324.524,388.611 319,394.5C 317.939,401.644 316.439,408.644 314.5,415.5C 290.675,404.321 269.341,389.655 250.5,371.5 Z"/></g>
<g><path style="opacity:1" fill="#d7dff8" d="M 244.5,375.5 C 254.253,385.922 264.92,395.256 276.5,403.5C 275.504,417.99 275.171,432.657 275.5,447.5C 263.09,441.427 252.424,433.093 243.5,422.5C 244.496,407.009 244.83,391.342 244.5,375.5 Z"/></g>
<g><path style="opacity:1" fill="#2c92a9" d="M 381.5,421.5 C 365.808,423.313 350.141,425.313 334.5,427.5C 334.795,429.735 334.461,431.735 333.5,433.5C 334.948,426.389 332.282,421.723 325.5,419.5C 338.147,413.513 350.147,406.513 361.5,398.5C 363.552,393.383 361.885,391.55 356.5,393C 346.708,400.315 336.208,406.482 325,411.5C 324.271,406.331 324.938,401.331 327,396.5C 333.833,388.333 340.667,380.167 347.5,372C 352.483,370.174 356.817,367.341 360.5,363.5C 362.167,364.833 363.833,366.167 365.5,367.5C 363.155,374.045 364.655,379.379 370,383.5C 369.835,389.543 371.168,395.209 374,400.5C 375.739,402.741 377.906,404.408 380.5,405.5C 381.495,410.792 381.828,416.125 381.5,421.5 Z"/></g>
<g><path style="opacity:1" fill="#f0a6a2" d="M 137.5,385.5 C 139.529,392.97 141.196,400.636 142.5,408.5C 142.5,409.833 142.5,411.167 142.5,412.5C 134.156,413.418 125.823,414.418 117.5,415.5C 103.786,411.147 91.4522,404.48 80.5,395.5C 99.5334,393.448 118.533,391.114 137.5,388.5C 137.5,387.5 137.5,386.5 137.5,385.5 Z"/></g>
<g><path style="opacity:1" fill="#238aa2" d="M 404.5,407.5 C 411.222,407.29 417.888,407.79 424.5,409C 418.684,415.983 412.35,422.483 405.5,428.5C 404.503,421.532 404.17,414.532 404.5,407.5 Z"/></g>
<g><path style="opacity:1" fill="#7784b6" d="M 183.5,355.5 C 188.263,355.226 192.93,355.559 197.5,356.5C 204.457,383.091 217.124,406.424 235.5,426.5C 226.5,426.5 217.5,426.5 208.5,426.5C 195.227,404.687 186.894,381.02 183.5,355.5 Z"/></g>
<g><path style="opacity:1" fill="#ced7f8" d="M 276.5,403.5 C 287.175,409.503 297.841,415.503 308.5,421.5C 308.561,427.484 306.728,432.817 303,437.5C 302.34,444.525 301.174,451.192 299.5,457.5C 290.984,455.237 282.984,451.904 275.5,447.5C 275.171,432.657 275.504,417.99 276.5,403.5 Z"/></g>
<g><path style="opacity:1" fill="#1f8ea1" d="M 381.5,421.5 C 381.666,430.173 381.5,438.84 381,447.5C 363.528,459.653 344.695,469.32 324.5,476.5C 322.59,466.168 322.424,455.835 324,445.5C 328.871,442.801 332.038,438.801 333.5,433.5C 334.461,431.735 334.795,429.735 334.5,427.5C 350.141,425.313 365.808,423.313 381.5,421.5 Z"/></g>
<g><path style="opacity:1" fill="#e3e7f4" d="M 189.5,407.5 C 198.875,429.546 211.875,449.213 228.5,466.5C 223.182,467.34 217.848,467.173 212.5,466C 203.86,464.975 195.527,463.141 187.5,460.5C 189.486,443.198 190.153,425.532 189.5,407.5 Z"/></g>
<g><path style="opacity:1" fill="#38324f" d="M 397.5,491.5 C 394.833,491.5 392.167,491.5 389.5,491.5C 389.5,463.5 389.5,435.5 389.5,407.5C 392.167,407.5 394.833,407.5 397.5,407.5C 396.389,435.497 396.389,463.497 397.5,491.5 Z"/></g>
<g><path style="opacity:1" fill="#808ec0" d="M 308.5,421.5 C 313.479,423.32 318.479,425.153 323.5,427C 326.902,428.786 327.402,431.286 325,434.5C 322.629,437.206 319.963,439.539 317,441.5C 316.203,446.175 315.37,450.841 314.5,455.5C 309.593,458.238 304.593,458.904 299.5,457.5C 301.174,451.192 302.34,444.525 303,437.5C 306.728,432.817 308.561,427.484 308.5,421.5 Z"/></g>
<g><path style="opacity:1" fill="#ee9a96" d="M 142.5,408.5 C 146.869,424.277 151.869,439.943 157.5,455.5C 156.518,458.669 154.851,461.502 152.5,464C 145.151,470.024 137.151,471.357 128.5,468C 119.435,461.814 117.602,453.98 123,444.5C 126.901,440.317 131.735,438.483 137.5,439C 138.797,436.455 138.631,433.955 137,431.5C 131.473,424.79 124.973,419.456 117.5,415.5C 125.823,414.418 134.156,413.418 142.5,412.5C 142.5,411.167 142.5,409.833 142.5,408.5 Z"/></g>
<g><path style="opacity:1" fill="#8492c4" d="M 208.5,426.5 C 217.5,426.5 226.5,426.5 235.5,426.5C 251.061,442.043 269.061,454.043 289.5,462.5C 273.123,466.837 256.456,468.337 239.5,467C 227.01,455.028 216.677,441.528 208.5,426.5 Z"/></g>
<g><path style="opacity:1" fill="#8693c4" d="M 164.5,462.5 C 198.391,473.325 233.058,477.158 268.5,474C 284.285,472.46 299.619,468.96 314.5,463.5C 316.013,465.535 316.679,467.869 316.5,470.5C 316.888,473.861 315.888,476.694 313.5,479C 284.615,488.818 254.948,492.152 224.5,489C 203.612,487.036 184.112,480.87 166,470.5C 164.748,467.986 164.248,465.32 164.5,462.5 Z"/></g>
</svg>
