<?xml version="1.0" encoding="UTF-8"?>
<!DOCTYPE svg PUBLIC "-//W3C//DTD SVG 1.1//EN" "http://www.w3.org/Graphics/SVG/1.1/DTD/svg11.dtd">
<svg xmlns="http://www.w3.org/2000/svg" version="1.1" width="512px" height="512px" style="shape-rendering:geometricPrecision; text-rendering:geometricPrecision; image-rendering:optimizeQuality; fill-rule:evenodd; clip-rule:evenodd" xmlns:xlink="http://www.w3.org/1999/xlink">
<g><path style="opacity:1" fill="#272639" d="M 112.5,490.5 C 111.122,489.766 109.622,489.099 108,488.5C 105.242,478.01 103.575,467.344 103,456.5C 102.5,440.503 102.333,424.503 102.5,408.5C 103.06,390.441 104.394,372.441 106.5,354.5C 111.161,330.247 112.828,305.914 111.5,281.5C 111.575,270.434 110.742,259.434 109,248.5C 106.774,233.939 103.774,219.606 100,205.5C 97,207.833 94,210.167 91,212.5C 93.0759,228.106 95.0759,243.772 97,259.5C 97.9341,267.476 98.4341,275.476 98.5,283.5C 98.1596,308.259 96.4929,332.925 93.5,357.5C 90.9096,375.405 89.2429,393.405 88.5,411.5C 86.875,430.773 87.7084,450.106 91,469.5C 92.3684,475.974 94.2017,482.308 96.5,488.5C 95.0508,489.172 93.7175,489.839 92.5,490.5C 90.8561,490.714 89.3561,490.38 88,489.5C 83.2867,475.554 80.6201,461.221 80,446.5C 79.4395,434.134 79.4395,421.801 80,409.5C 60.632,379.345 52.9653,346.345 57,310.5C 61.9129,275.329 63.9129,239.996 63,204.5C 58.2896,200.273 56.2896,194.94 57,188.5C 50.9194,183.015 49.9194,176.682 54,169.5C 57.0834,164.412 60.9167,159.912 65.5,156C 48.2623,122.741 42.429,87.5739 48,50.5C 49.139,44.3568 52.3057,39.5235 57.5,36C 80.0639,25.146 103.731,17.4793 128.5,13C 205.487,-0.873382 280.487,6.12662 353.5,34C 361.5,37.6667 369.5,41.3333 377.5,45C 380.305,46.4789 382.805,48.3122 385,50.5C 385.843,54.8272 384.01,56.8272 379.5,56.5C 297.788,45.1424 217.788,52.309 139.5,78C 117.649,85.4263 96.9822,95.2596 77.5,107.5C 80.091,119.107 83.591,130.44 88,141.5C 93.9814,135.427 101.148,133.26 109.5,135C 111.96,136.458 114.127,138.291 116,140.5C 118,145.167 120,149.833 122,154.5C 124.089,164.646 120.922,172.646 112.5,178.5C 115.256,182.772 116.089,187.439 115,192.5C 112.805,196.018 110.638,199.518 108.5,203C 110.333,212.843 112.666,222.51 115.5,232C 125.724,231.953 135.557,233.787 145,237.5C 150.472,228.009 158.639,222.343 169.5,220.5C 177.812,204.192 189.812,191.525 205.5,182.5C 195.319,171.981 193.819,160.314 201,147.5C 207.333,142.5 213,136.833 218,130.5C 220.587,125.739 222.587,120.739 224,115.5C 233.836,95.3285 250.003,86.8285 272.5,90C 293.591,95.6455 303.925,109.479 303.5,131.5C 303.449,134.223 303.116,136.89 302.5,139.5C 311.452,147.845 315.618,158.178 315,170.5C 332.987,161.85 344.32,147.85 349,128.5C 351.441,126.031 354.274,124.198 357.5,123C 363.825,122.5 370.158,122.334 376.5,122.5C 377.198,116.533 377.698,110.533 378,104.5C 382.495,96.2729 389.328,93.6062 398.5,96.5C 404.549,93.6137 410.382,93.947 416,97.5C 422.21,93.582 428.377,93.7486 434.5,98C 436.894,99.9522 438.394,102.452 439,105.5C 439.499,111.157 439.666,116.824 439.5,122.5C 446.061,121.919 452.395,122.752 458.5,125C 461.825,127.823 463.992,131.323 465,135.5C 465.667,193.167 465.667,250.833 465,308.5C 463.702,314.469 460.202,318.635 454.5,321C 445.814,321.168 437.148,321.668 428.5,322.5C 442.399,345.144 451.399,369.644 455.5,396C 454.841,400.082 452.508,401.416 448.5,400C 444.598,393.428 439.931,387.428 434.5,382C 430.649,379.365 426.649,379.031 422.5,381C 404.02,395.763 399.52,413.93 409,435.5C 414.214,443.715 421.048,450.215 429.5,455C 432.07,457.915 431.737,460.581 428.5,463C 425.156,463.667 422.489,465.334 420.5,468C 423.453,473.286 427.453,477.62 432.5,481C 437.334,484.252 442.334,487.252 447.5,490C 448.576,491.726 448.743,493.559 448,495.5C 444.196,497.832 440.029,499.332 435.5,500C 414.026,504.218 392.359,505.551 370.5,504C 355.494,502.751 341.494,498.418 328.5,491C 326.833,489.333 325.167,487.667 323.5,486C 286.923,487.028 253.257,477.695 222.5,458C 207.845,448.686 194.345,437.852 182,425.5C 181.667,435.167 181.333,444.833 181,454.5C 180.765,468.338 175.932,480.171 166.5,490C 162.65,493.027 158.316,494.027 153.5,493C 139.708,476.205 125.541,459.705 111,443.5C 110.632,459.426 112.466,475.093 116.5,490.5C 115.167,490.5 113.833,490.5 112.5,490.5 Z M 439.5,201.5 C 440.66,214.327 440.827,227.327 440,240.5C 435.709,233.875 430.376,228.209 424,223.5C 423.333,221.833 423.333,220.167 424,218.5C 430.446,213.892 435.613,208.226 439.5,201.5 Z"/></g>
<g><path style="opacity:1" fill="#7d81b9" d="M 187.5,14.5 C 188.413,20.4406 188.746,26.4406 188.5,32.5C 181.739,34.2152 174.739,35.2152 167.5,35.5C 165.906,29.4056 165.239,23.0723 165.5,16.5C 172.765,15.307 180.099,14.6403 187.5,14.5 Z"/></g>
<g><path style="opacity:1" fill="#858bbd" d="M 187.5,14.5 C 217.077,13.3606 246.41,15.3606 275.5,20.5C 275.226,25.263 275.559,29.9296 276.5,34.5C 247.245,30.217 217.912,29.5504 188.5,32.5C 188.746,26.4406 188.413,20.4406 187.5,14.5 Z"/></g>
<g><path style="opacity:1" fill="#7b80b2" d="M 165.5,16.5 C 165.239,23.0723 165.906,29.4056 167.5,35.5C 160.453,37.9124 153.12,39.579 145.5,40.5C 145.498,33.4803 145.165,26.4803 144.5,19.5C 143.5,19.5 142.5,19.5 141.5,19.5C 149.263,17.6962 157.263,16.6962 165.5,16.5 Z"/></g>
<g><path style="opacity:1" fill="#777ab1" d="M 141.5,19.5 C 142.5,19.5 143.5,19.5 144.5,19.5C 145.165,26.4803 145.498,33.4803 145.5,40.5C 120.74,47.0313 96.9066,56.0313 74,67.5C 73.3333,63.5 73.3333,59.5 74,55.5C 74.6728,48.4278 76.1728,41.5944 78.5,35C 99.1056,28.1135 120.106,22.9468 141.5,19.5 Z"/></g>
<g><path style="opacity:1" fill="#8b94c3" d="M 275.5,20.5 C 304.414,25.8591 332.414,34.3591 359.5,46C 347.207,45.381 334.874,44.7144 322.5,44C 307.255,40.2512 291.921,37.0845 276.5,34.5C 275.559,29.9296 275.226,25.263 275.5,20.5 Z"/></g>
<g><path style="opacity:1" fill="#a44a6d" d="M 67.5,39.5 C 62.7953,75.4055 67.1287,110.406 80.5,144.5C 78.1401,146.853 75.4735,148.853 72.5,150.5C 56.005,119.531 50.505,86.5307 56,51.5C 58.4234,46.0607 62.2568,42.0607 67.5,39.5 Z"/></g>
<g><path style="opacity:1" fill="#d3ddf3" d="M 278.5,42.5 C 276.833,43.1667 275.167,43.8333 273.5,44.5C 241.031,45.5584 209.031,49.8917 177.5,57.5C 175.67,52.5577 175.003,47.5577 175.5,42.5C 209.822,37.1813 244.155,37.1813 278.5,42.5 Z"/></g>
<g><path style="opacity:1" fill="#5e606f" d="M 278.5,42.5 C 280.75,42.1814 282.75,42.6814 284.5,44C 280.848,44.4986 277.182,44.6653 273.5,44.5C 275.167,43.8333 276.833,43.1667 278.5,42.5 Z"/></g>
<g><path style="opacity:1" fill="#ccd6f6" d="M 175.5,42.5 C 175.003,47.5577 175.67,52.5577 177.5,57.5C 166.865,60.493 156.198,63.493 145.5,66.5C 144.114,60.905 143.114,55.2384 142.5,49.5C 153.358,46.5284 164.358,44.195 175.5,42.5 Z"/></g>
<g><path style="opacity:1" fill="#c1ccf1" d="M 142.5,49.5 C 143.114,55.2384 144.114,60.905 145.5,66.5C 121.33,74.8325 98.1637,85.4991 76,98.5C 74.3975,90.844 73.8975,83.1774 74.5,75.5C 96.1965,64.2683 118.863,55.6016 142.5,49.5 Z"/></g>
<g><path style="opacity:1" fill="#f5b5b2" d="M 431.5,127.5 C 427.816,128.728 424.15,128.728 420.5,127.5C 420.666,123.154 420.499,118.821 420,114.5C 417.667,111.833 415.333,111.833 413,114.5C 412.501,118.486 412.334,122.486 412.5,126.5C 409.167,127.833 405.833,127.833 402.5,126.5C 402.666,122.486 402.499,118.486 402,114.5C 399.667,111.833 397.333,111.833 395,114.5C 394.501,118.486 394.334,122.486 394.5,126.5C 391.5,126.5 388.5,126.5 385.5,126.5C 385.334,119.825 385.5,113.158 386,106.5C 389.84,102.837 394.006,102.504 398.5,105.5C 404.659,102.686 410.659,103.019 416.5,106.5C 419.237,105.049 422.07,103.716 425,102.5C 427.499,103.083 429.499,104.416 431,106.5C 431.5,113.492 431.666,120.492 431.5,127.5 Z"/></g>
<g><path style="opacity:1" fill="#f5b1af" d="M 294.5,121.5 C 273.576,120.512 252.576,120.179 231.5,120.5C 238.635,102.423 251.968,94.9232 271.5,98C 283.387,101.72 291.054,109.554 294.5,121.5 Z"/></g>
<g><path style="opacity:1" fill="#f7bbb9" d="M 231.5,120.5 C 252.576,120.179 273.576,120.512 294.5,121.5C 295.762,127.297 295.762,132.963 294.5,138.5C 288.167,138.5 281.833,138.5 275.5,138.5C 273.593,135.668 270.927,134.834 267.5,136C 263.695,135.974 261.695,137.808 261.5,141.5C 260.596,140.791 260.263,139.791 260.5,138.5C 256.958,138.187 253.625,138.521 250.5,139.5C 246.782,136.319 242.448,135.152 237.5,136C 236.619,136.708 235.953,137.542 235.5,138.5C 232.833,138.5 230.167,138.5 227.5,138.5C 227.795,140.735 227.461,142.735 226.5,144.5C 226.463,136.026 228.13,128.026 231.5,120.5 Z"/></g>
<g><path style="opacity:1" fill="#d67682" d="M 385.5,126.5 C 388.5,126.5 391.5,126.5 394.5,126.5C 394.5,129.167 394.5,131.833 394.5,134.5C 387.481,136.174 384.481,133.507 385.5,126.5 Z"/></g>
<g><path style="opacity:1" fill="#d77582" d="M 402.5,126.5 C 405.833,127.833 409.167,127.833 412.5,126.5C 412.5,128.833 412.5,131.167 412.5,133.5C 405.186,136.524 401.853,134.19 402.5,126.5 Z"/></g>
<g><path style="opacity:1" fill="#d27380" d="M 420.5,127.5 C 424.15,128.728 427.816,128.728 431.5,127.5C 432.305,132.525 430.139,134.858 425,134.5C 423.564,134.441 422.231,134.108 421,133.5C 420.505,131.527 420.338,129.527 420.5,127.5 Z"/></g>
<g><path style="opacity:1" fill="#f7c486" d="M 381.5,139.5 C 380.773,141.954 379.773,144.287 378.5,146.5C 370.5,146.5 362.5,146.5 354.5,146.5C 354.5,143.167 354.5,139.833 354.5,136.5C 355.254,133.909 356.921,132.076 359.5,131C 365.491,130.501 371.491,130.334 377.5,130.5C 377.482,134.129 378.816,137.129 381.5,139.5 Z"/></g>
<g><path style="opacity:1" fill="#f79b6b" d="M 456.5,136.5 C 456.5,139.833 456.5,143.167 456.5,146.5C 447.167,146.5 437.833,146.5 428.5,146.5C 429.028,145.279 429.695,144.113 430.5,143C 429.906,142.536 429.239,142.369 428.5,142.5C 430.986,141.338 433.486,140.004 436,138.5C 437.707,136.091 438.54,133.425 438.5,130.5C 442.846,130.334 447.179,130.501 451.5,131C 454.079,132.076 455.746,133.909 456.5,136.5 Z"/></g>
<g><path style="opacity:1" fill="#312e3f" d="M 275.5,138.5 C 275.703,140.39 275.037,141.89 273.5,143C 270.294,143.296 267.128,143.796 264,144.5C 262.251,144.252 261.418,143.252 261.5,141.5C 261.695,137.808 263.695,135.974 267.5,136C 270.927,134.834 273.593,135.668 275.5,138.5 Z"/></g>
<g><path style="opacity:1" fill="#f6c7c6" d="M 235.5,138.5 C 235.297,140.39 235.963,141.89 237.5,143C 240.362,143.27 243.028,144.104 245.5,145.5C 244.054,147.618 243.387,149.951 243.5,152.5C 239.958,154.007 236.292,155.007 232.5,155.5C 230.5,155.833 228.5,156.167 226.5,156.5C 226.5,152.5 226.5,148.5 226.5,144.5C 227.461,142.735 227.795,140.735 227.5,138.5C 230.167,138.5 232.833,138.5 235.5,138.5 Z"/></g>
<g><path style="opacity:1" fill="#d37380" d="M 100.5,142.5 C 106.73,142.211 110.563,145.211 112,151.5C 115.615,157.487 115.282,163.154 111,168.5C 110.319,163.812 107.985,160.145 104,157.5C 103.667,154.167 103.333,150.833 103,147.5C 101.628,146.09 100.795,144.423 100.5,142.5 Z"/></g>
<g><path style="opacity:1" fill="#b88463" d="M 354.5,136.5 C 354.5,139.833 354.5,143.167 354.5,146.5C 362.5,146.5 370.5,146.5 378.5,146.5C 395.167,146.5 411.833,146.5 428.5,146.5C 437.833,146.5 447.167,146.5 456.5,146.5C 456.5,143.167 456.5,139.833 456.5,136.5C 457.482,139.962 457.815,143.629 457.5,147.5C 422.833,147.5 388.167,147.5 353.5,147.5C 353.185,143.629 353.518,139.962 354.5,136.5 Z"/></g>
<g><path style="opacity:1" fill="#f7ae78" d="M 381.5,139.5 C 386.915,143.127 392.582,143.46 398.5,140.5C 404.185,143.162 409.852,143.162 415.5,140.5C 419.717,141.912 424.05,142.579 428.5,142.5C 429.239,142.369 429.906,142.536 430.5,143C 429.695,144.113 429.028,145.279 428.5,146.5C 411.833,146.5 395.167,146.5 378.5,146.5C 379.773,144.287 380.773,141.954 381.5,139.5 Z"/></g>
<g><path style="opacity:1" fill="#93a3cf" d="M 217.5,143.5 C 218.654,149.987 218.821,156.654 218,163.5C 214.604,166.393 211.771,169.726 209.5,173.5C 204.944,169.136 203.444,163.803 205,157.5C 208.319,152.017 212.486,147.351 217.5,143.5 Z"/></g>
<g><path style="opacity:1" fill="#f4c8c6" d="M 261.5,141.5 C 261.418,143.252 262.251,144.252 264,144.5C 267.128,143.796 270.294,143.296 273.5,143C 275.037,141.89 275.703,140.39 275.5,138.5C 281.833,138.5 288.167,138.5 294.5,138.5C 294.088,146.71 292.088,154.377 288.5,161.5C 277.636,154.873 266.303,153.873 254.5,158.5C 251.841,158.502 250.507,157.169 250.5,154.5C 251.271,151.355 251.937,148.188 252.5,145C 252.605,142.822 251.939,140.988 250.5,139.5C 253.625,138.521 256.958,138.187 260.5,138.5C 260.263,139.791 260.596,140.791 261.5,141.5 Z"/></g>
<g><path style="opacity:1" fill="#85717a" d="M 243.5,152.5 C 243.5,153.5 243.5,154.5 243.5,155.5C 239.833,155.5 236.167,155.5 232.5,155.5C 236.292,155.007 239.958,154.007 243.5,152.5 Z"/></g>
<g><path style="opacity:1" fill="#def8f8" d="M 370.5,155.5 C 393.5,155.5 416.5,155.5 439.5,155.5C 439.666,160.844 439.499,166.177 439,171.5C 435.943,173.129 432.777,174.462 429.5,175.5C 413.908,174.35 398.241,174.183 382.5,175C 381.196,175.804 380.529,176.971 380.5,178.5C 381.778,183.337 383.445,188.003 385.5,192.5C 382.673,193.108 380.007,194.108 377.5,195.5C 375.205,191.814 373.372,187.814 372,183.5C 370.684,174.218 370.184,164.884 370.5,155.5 Z"/></g>
<g><path style="opacity:1" fill="#f3b8b6" d="M 87.5,172.5 C 89.4023,175.337 90.069,178.671 89.5,182.5C 89.1583,183.338 88.4916,183.672 87.5,183.5C 77.4291,181.436 70.7625,175.436 67.5,165.5C 74.6975,156.908 83.6975,151.408 94.5,149C 95.6105,151.737 95.7772,154.571 95,157.5C 89.6107,161.889 83.944,165.889 78,169.5C 76.5,174.667 78.3333,176.5 83.5,175C 84.6934,173.905 86.0267,173.072 87.5,172.5 Z"/></g>
<g><path style="opacity:1" fill="#8b9ac5" d="M 300.5,150.5 C 307.9,159.671 308.4,169.338 302,179.5C 300.088,175.34 297.921,171.34 295.5,167.5C 297.64,161.936 299.306,156.269 300.5,150.5 Z"/></g>
<g><path style="opacity:1" fill="#e9f6f6" d="M 276.5,164.5 C 255.866,172.771 235.033,180.771 214,188.5C 213.51,187.207 213.343,185.873 213.5,184.5C 215.297,178.905 218.13,173.905 222,169.5C 227.591,163.526 234.425,161.359 242.5,163C 246.034,164.435 249.701,165.268 253.5,165.5C 261.144,163.5 268.81,163.167 276.5,164.5 Z"/></g>
<g><path style="opacity:1" fill="#eba4a1" d="M 89.5,182.5 C 90.069,178.671 89.4023,175.337 87.5,172.5C 91.2342,169.287 95.4009,166.62 100,164.5C 104.627,168.284 104.46,172.118 99.5,176C 96.0142,177.996 92.6809,180.163 89.5,182.5 Z"/></g>
<g><path style="opacity:1" fill="#e8eff7" d="M 276.5,164.5 C 293.065,171.302 298.565,183.302 293,200.5C 289.412,204.393 285.746,204.393 282,200.5C 278.604,191.604 272.438,185.604 263.5,182.5C 261.962,182.453 260.962,183.12 260.5,184.5C 256.86,183.727 253.193,183.06 249.5,182.5C 240.56,180.877 233.393,183.877 228,191.5C 226.333,194.167 224.667,196.833 223,199.5C 221.093,203.01 218.26,204.176 214.5,203C 213.874,202.25 213.374,201.416 213,200.5C 212.183,194.984 212.349,189.65 213.5,184.5C 213.343,185.873 213.51,187.207 214,188.5C 235.033,180.771 255.866,172.771 276.5,164.5 Z"/></g>
<g><path style="opacity:1" fill="#d67481" d="M 67.5,165.5 C 70.7625,175.436 77.4291,181.436 87.5,183.5C 84.6034,185.818 83.9367,188.651 85.5,192C 87.6354,192.635 89.6354,192.301 91.5,191C 95.4238,187.79 99.5904,184.956 104,182.5C 107.972,185.38 108.472,188.88 105.5,193C 96.3248,199.087 87.3248,205.421 78.5,212C 74.7441,212.585 72.7441,210.919 72.5,207C 73.125,205.159 73.2917,203.326 73,201.5C 70.347,199.845 68.0136,197.845 66,195.5C 65.5959,191.644 65.9292,187.977 67,184.5C 59.9916,181.64 58.6583,176.973 63,170.5C 64.517,168.76 66.017,167.094 67.5,165.5 Z"/></g>
<g><path style="opacity:1" fill="#904c57" d="M 346.5,233.5 C 345.672,239.319 345.172,245.319 345,251.5C 332.27,261.076 319.437,270.41 306.5,279.5C 312.841,267.044 314.174,254.044 310.5,240.5C 313.09,239.872 315.423,238.705 317.5,237C 326.358,229.975 335.358,223.141 344.5,216.5C 345.833,202.167 345.833,187.833 344.5,173.5C 330.359,183.808 316.359,194.308 302.5,205C 301.184,205.528 300.517,205.028 300.5,203.5C 301.821,198.942 302.654,194.275 303,189.5C 305.951,186.428 308.784,183.261 311.5,180C 325.776,175.721 337.276,167.554 346,155.5C 346.5,181.498 346.667,207.498 346.5,233.5 Z"/></g>
<g><path style="opacity:1" fill="#954a56" d="M 310.5,240.5 C 306.854,232.541 302.687,224.874 298,217.5C 297.048,212.412 297.881,207.745 300.5,203.5C 300.517,205.028 301.184,205.528 302.5,205C 316.359,194.308 330.359,183.808 344.5,173.5C 345.833,187.833 345.833,202.167 344.5,216.5C 335.358,223.141 326.358,229.975 317.5,237C 315.423,238.705 313.09,239.872 310.5,240.5 Z"/></g>
<g><path style="opacity:1" fill="#2b2a3d" d="M 429.5,175.5 C 430.148,180.765 428.982,185.765 426,190.5C 413.328,210.912 399.828,211.579 385.5,192.5C 383.445,188.003 381.778,183.337 380.5,178.5C 380.529,176.971 381.196,175.804 382.5,175C 398.241,174.183 413.908,174.35 429.5,175.5 Z"/></g>
<g><path style="opacity:1" fill="#b1bdfa" d="M 448.5,155.5 C 451.167,155.5 453.833,155.5 456.5,155.5C 456.5,169.833 456.5,184.167 456.5,198.5C 453.833,198.5 451.167,198.5 448.5,198.5C 448.5,184.167 448.5,169.833 448.5,155.5 Z"/></g>
<g><path style="opacity:1" fill="#f68a8f" d="M 389.5,183.5 C 399.992,182.341 410.659,182.175 421.5,183C 418.028,190.306 412.694,195.806 405.5,199.5C 398.451,195.784 393.117,190.451 389.5,183.5 Z"/></g>
<g><path style="opacity:1" fill="#cb9494" d="M 198.5,236.5 C 186.969,243.431 175.302,250.098 163.5,256.5C 160.692,251.068 157.026,246.235 152.5,242C 156.483,232.84 163.483,228.506 173.5,229C 177.542,222.415 181.709,215.915 186,209.5C 190.542,202.981 196.376,197.981 203.5,194.5C 204.456,195.865 205.122,197.365 205.5,199C 201.19,203.781 198.023,209.281 196,215.5C 195.125,222.71 195.958,229.71 198.5,236.5 Z"/></g>
<g><path style="opacity:1" fill="#c8e7f1" d="M 370.5,155.5 C 393.661,154.502 416.994,154.169 440.5,154.5C 444.338,179.848 436.172,200.181 416,215.5C 414.711,218.351 414.211,221.351 414.5,224.5C 406.618,227.357 398.784,230.357 391,233.5C 390.601,233.272 390.435,232.938 390.5,232.5C 397.282,226.53 398.115,219.863 393,212.5C 386.446,208.029 381.28,202.362 377.5,195.5C 380.007,194.108 382.673,193.108 385.5,192.5C 399.828,211.579 413.328,210.912 426,190.5C 428.982,185.765 430.148,180.765 429.5,175.5C 432.777,174.462 435.943,173.129 439,171.5C 439.499,166.177 439.666,160.844 439.5,155.5C 416.5,155.5 393.5,155.5 370.5,155.5 Z"/></g>
<g><path style="opacity:1" fill="#9eadd7" d="M 249.5,182.5 C 253.193,183.06 256.86,183.727 260.5,184.5C 260.343,185.873 260.51,187.207 261,188.5C 267.389,191.889 272.056,196.889 275,203.5C 277.614,207.301 281.114,209.634 285.5,210.5C 286.568,211.434 287.901,211.768 289.5,211.5C 289.662,213.527 289.495,215.527 289,217.5C 286.978,218.786 284.811,219.786 282.5,220.5C 281.702,220.957 281.369,221.624 281.5,222.5C 275.415,213.901 269.082,205.401 262.5,197C 253.504,192.064 245.337,193.231 238,200.5C 236.055,205.557 233.221,210.057 229.5,214C 224.808,216.871 219.975,219.371 215,221.5C 212.561,227.347 213.727,232.347 218.5,236.5C 214.225,239.416 210.392,238.749 207,234.5C 203.178,227.49 202.512,220.157 205,212.5C 206.093,210.651 207.426,208.984 209,207.5C 213.168,211.764 218.002,212.597 223.5,210C 228.833,203.667 234.167,197.333 239.5,191C 242.834,189.254 246.334,188.087 250,187.5C 250.64,185.735 250.473,184.068 249.5,182.5 Z"/></g>
<g><path style="opacity:1" fill="#8b4853" d="M 370.5,200.5 C 375.098,206.933 380.598,212.599 387,217.5C 387.781,218.729 388.281,220.062 388.5,221.5C 382.196,227.645 376.363,234.311 371,241.5C 370.5,227.837 370.333,214.171 370.5,200.5 Z"/></g>
<g><path style="opacity:1" fill="#d47380" d="M 88.5,255.5 C 84.5401,250.205 80.2068,245.205 75.5,240.5C 74.5,238.833 73.1667,237.5 71.5,236.5C 71.3338,230.491 71.5005,224.491 72,218.5C 75.7842,219.637 79.6175,219.637 83.5,218.5C 85.71,230.76 87.3767,243.093 88.5,255.5 Z"/></g>
<g><path style="opacity:1" fill="#e1e8f4" d="M 281.5,222.5 C 283.115,225.45 285.115,228.116 287.5,230.5C 287.389,231.117 287.056,231.617 286.5,232C 264.24,239.975 242.073,248.142 220,256.5C 219.501,252.848 219.335,249.182 219.5,245.5C 227.616,241.602 230.616,235.268 228.5,226.5C 226.051,225.09 223.884,225.424 222,227.5C 221.667,229.833 221.333,232.167 221,234.5C 220.583,235.756 219.75,236.423 218.5,236.5C 213.727,232.347 212.561,227.347 215,221.5C 219.975,219.371 224.808,216.871 229.5,214C 233.221,210.057 236.055,205.557 238,200.5C 245.337,193.231 253.504,192.064 262.5,197C 269.082,205.401 275.415,213.901 281.5,222.5 Z"/></g>
<g><path style="opacity:1" fill="#d9e6f2" d="M 287.5,230.5 C 290.786,233.4 292.786,237.067 293.5,241.5C 293.426,243.411 292.426,244.578 290.5,245C 268.1,253.077 245.767,261.244 223.5,269.5C 219.353,262.047 217.686,254.047 218.5,245.5C 218.833,245.5 219.167,245.5 219.5,245.5C 219.335,249.182 219.501,252.848 220,256.5C 242.073,248.142 264.24,239.975 286.5,232C 287.056,231.617 287.389,231.117 287.5,230.5 Z"/></g>
<g><path style="opacity:1" fill="#5d6189" d="M 362.5,288.5 C 362.5,273.167 362.5,257.833 362.5,242.5C 362.5,227.833 362.5,213.167 362.5,198.5C 362.5,184.167 362.5,169.833 362.5,155.5C 359.833,155.5 357.167,155.5 354.5,155.5C 354.5,169.833 354.5,184.167 354.5,198.5C 354.5,213.167 354.5,227.833 354.5,242.5C 354.5,257.833 354.5,273.167 354.5,288.5C 353.501,244.003 353.168,199.336 353.5,154.5C 356.833,154.5 360.167,154.5 363.5,154.5C 363.832,199.336 363.499,244.003 362.5,288.5 Z"/></g>
<g><path style="opacity:1" fill="#a6b0fa" d="M 354.5,198.5 C 357.167,198.5 359.833,198.5 362.5,198.5C 362.5,213.167 362.5,227.833 362.5,242.5C 359.833,242.5 357.167,242.5 354.5,242.5C 354.5,227.833 354.5,213.167 354.5,198.5 Z"/></g>
<g><path style="opacity:1" fill="#b1bdfa" d="M 362.5,198.5 C 359.833,198.5 357.167,198.5 354.5,198.5C 354.5,184.167 354.5,169.833 354.5,155.5C 357.167,155.5 359.833,155.5 362.5,155.5C 362.5,169.833 362.5,184.167 362.5,198.5 Z"/></g>
<g><path style="opacity:1" fill="#bde0f5" d="M 414.5,224.5 C 421.449,231.291 427.949,238.624 434,246.5C 438.49,254.626 440.49,263.293 440,272.5C 416.423,236.173 393.423,236.506 371,273.5C 370.025,256.121 376.525,242.455 390.5,232.5C 390.435,232.938 390.601,233.272 391,233.5C 398.784,230.357 406.618,227.357 414.5,224.5 Z"/></g>
<g><path style="opacity:1" fill="#a6b0fa" d="M 448.5,198.5 C 451.167,198.5 453.833,198.5 456.5,198.5C 456.5,213.167 456.5,227.833 456.5,242.5C 453.833,242.5 451.167,242.5 448.5,242.5C 448.5,227.833 448.5,213.167 448.5,198.5 Z"/></g>
<g><path style="opacity:1" fill="#cc8e95" d="M 198.5,236.5 C 200.266,238.771 202.266,240.937 204.5,243C 203.023,246.12 201.689,249.286 200.5,252.5C 190.5,258.5 180.5,264.5 170.5,270.5C 168.199,265.899 165.866,261.232 163.5,256.5C 175.302,250.098 186.969,243.431 198.5,236.5 Z"/></g>
<g><path style="opacity:1" fill="#f6bfbc" d="M 71.5,236.5 C 73.1667,237.5 74.5,238.833 75.5,240.5C 75.8313,269.005 75.498,297.338 74.5,325.5C 69.0058,318.393 66.3392,310.226 66.5,301C 69.061,279.572 70.7277,258.072 71.5,236.5 Z"/></g>
<g><path style="opacity:1" fill="#8f395a" d="M 111.5,281.5 C 107.14,282.007 102.807,282.673 98.5,283.5C 98.4341,275.476 97.9341,267.476 97,259.5C 95.0759,243.772 93.0759,228.106 91,212.5C 94,210.167 97,207.833 100,205.5C 103.774,219.606 106.774,233.939 109,248.5C 110.742,259.434 111.575,270.434 111.5,281.5 Z"/></g>
<g><path style="opacity:1" fill="#f5b3af" d="M 75.5,240.5 C 80.2068,245.205 84.5401,250.205 88.5,255.5C 91.3107,281.708 91.1441,308.041 88,334.5C 85.7579,335.175 83.5912,334.675 81.5,333C 78.9614,330.63 76.6281,328.13 74.5,325.5C 75.498,297.338 75.8313,269.005 75.5,240.5 Z"/></g>
<g><path style="opacity:1" fill="#94a1cc" d="M 285.5,210.5 C 287.167,210.5 288.833,210.5 290.5,210.5C 290.21,214.936 290.71,219.27 292,223.5C 296.424,229.342 300.091,235.676 303,242.5C 306.191,250.193 306.191,257.859 303,265.5C 298.969,271.122 293.802,273.122 287.5,271.5C 288.978,271.762 290.311,271.429 291.5,270.5C 295.555,260.873 296.222,251.206 293.5,241.5C 292.786,237.067 290.786,233.4 287.5,230.5C 285.115,228.116 283.115,225.45 281.5,222.5C 281.369,221.624 281.702,220.957 282.5,220.5C 284.811,219.786 286.978,218.786 289,217.5C 289.495,215.527 289.662,213.527 289.5,211.5C 287.901,211.768 286.568,211.434 285.5,210.5 Z"/></g>
<g><path style="opacity:1" fill="#8a414e" d="M 346.5,233.5 C 346.333,259.169 346.5,284.835 347,310.5C 349.256,315.757 353.09,319.257 358.5,321C 369.161,321.5 379.828,321.667 390.5,321.5C 375.786,332.879 360.786,343.879 345.5,354.5C 333.54,334.91 323.373,314.244 315,292.5C 311.576,290.733 309.41,291.733 308.5,295.5C 316.773,317.659 326.773,338.992 338.5,359.5C 332.146,365.183 325.48,370.516 318.5,375.5C 314.416,369.671 311.083,363.338 308.5,356.5C 315.452,347.412 316.285,337.746 311,327.5C 305.46,321.752 301.46,315.085 299,307.5C 297.352,296.96 299.852,287.627 306.5,279.5C 319.437,270.41 332.27,261.076 345,251.5C 345.172,245.319 345.672,239.319 346.5,233.5 Z"/></g>
<g><path style="opacity:1" fill="#c68d8d" d="M 200.5,252.5 C 200.334,257.511 200.501,262.511 201,267.5C 202.56,272.583 204.06,277.583 205.5,282.5C 196.363,287.57 187.363,292.903 178.5,298.5C 177.817,298.137 177.15,297.804 176.5,297.5C 174.754,288.438 172.754,279.438 170.5,270.5C 180.5,264.5 190.5,258.5 200.5,252.5 Z"/></g>
<g><path style="opacity:1" fill="#d3def0" d="M 293.5,241.5 C 296.222,251.206 295.555,260.873 291.5,270.5C 290.311,271.429 288.978,271.762 287.5,271.5C 280.833,269.52 279.833,265.853 284.5,260.5C 289.395,260.446 291.562,258.112 291,253.5C 288.032,251.009 284.865,250.843 281.5,253C 274.136,258.946 272.636,266.112 277,274.5C 280.062,277.115 283.562,278.781 287.5,279.5C 273.327,295.135 256.994,297.635 238.5,287C 232.6,281.934 227.6,276.1 223.5,269.5C 245.767,261.244 268.1,253.077 290.5,245C 292.426,244.578 293.426,243.411 293.5,241.5 Z"/></g>
<g><path style="opacity:1" fill="#f69b9d" d="M 425.5,265.5 C 409.456,269.459 393.623,274.126 378,279.5C 377.601,279.272 377.435,278.938 377.5,278.5C 382.259,266.574 390.592,258.074 402.5,253C 411.879,253.849 419.545,258.016 425.5,265.5 Z"/></g>
<g><path style="opacity:1" fill="#9ba3fa" d="M 354.5,242.5 C 357.167,242.5 359.833,242.5 362.5,242.5C 362.5,257.833 362.5,273.167 362.5,288.5C 359.833,288.5 357.167,288.5 354.5,288.5C 354.5,273.167 354.5,257.833 354.5,242.5 Z"/></g>
<g><path style="opacity:1" fill="#9ba3fa" d="M 448.5,242.5 C 451.167,242.5 453.833,242.5 456.5,242.5C 456.5,257.833 456.5,273.167 456.5,288.5C 453.833,288.5 451.167,288.5 448.5,288.5C 448.5,273.167 448.5,257.833 448.5,242.5 Z"/></g>
<g><path style="opacity:1" fill="#f99597" d="M 425.5,265.5 C 427.555,267.555 429.221,269.888 430.5,272.5C 413.398,278.822 395.898,284.155 378,288.5C 376.014,288.431 374.514,287.765 373.5,286.5C 373.896,283.279 375.229,280.612 377.5,278.5C 377.435,278.938 377.601,279.272 378,279.5C 393.623,274.126 409.456,269.459 425.5,265.5 Z"/></g>
<g><path style="opacity:1" fill="#6b70a2" d="M 448.5,155.5 C 451.287,154.523 454.287,154.19 457.5,154.5C 457.832,199.336 457.499,244.003 456.5,288.5C 456.5,273.167 456.5,257.833 456.5,242.5C 456.5,227.833 456.5,213.167 456.5,198.5C 456.5,184.167 456.5,169.833 456.5,155.5C 453.833,155.5 451.167,155.5 448.5,155.5 Z"/></g>
<g><path style="opacity:1" fill="#f58b91" d="M 430.5,272.5 C 434.485,277.473 437.152,283.14 438.5,289.5C 416.5,289.5 394.5,289.5 372.5,289.5C 372.263,288.209 372.596,287.209 373.5,286.5C 374.514,287.765 376.014,288.431 378,288.5C 395.898,284.155 413.398,278.822 430.5,272.5 Z"/></g>
<g><path style="opacity:1" fill="#c88f90" d="M 169.5,303.5 C 164.87,306.486 160.203,309.486 155.5,312.5C 146.584,287.668 135.25,264.001 121.5,241.5C 128.688,240.92 135.688,242.087 142.5,245C 146.241,246.738 149.408,249.238 152,252.5C 162.307,267.921 168.141,284.921 169.5,303.5 Z"/></g>
<g><path style="opacity:1" fill="#91a1cd" d="M 218.5,245.5 C 217.686,254.047 219.353,262.047 223.5,269.5C 227.6,276.1 232.6,281.934 238.5,287C 256.994,297.635 273.327,295.135 287.5,279.5C 290.572,279.183 293.572,279.516 296.5,280.5C 294.594,283.64 293.26,286.973 292.5,290.5C 282.209,294.316 272.209,298.649 262.5,303.5C 259.482,303.335 256.482,303.502 253.5,304C 249.205,305.845 248.538,308.512 251.5,312C 253.68,312.419 255.846,312.252 258,311.5C 259.711,311.439 261.044,312.106 262,313.5C 263.423,322.253 259.59,326.586 250.5,326.5C 246.406,326.702 242.906,325.369 240,322.5C 235.673,315.833 233.673,308.5 234,300.5C 233.275,298.051 232.275,295.717 231,293.5C 226.374,288.694 221.374,284.361 216,280.5C 206.798,270.139 205.298,258.806 211.5,246.5C 213.743,245.526 216.076,245.192 218.5,245.5 Z"/></g>
<g><path style="opacity:1" fill="#c78d8f" d="M 148.5,316.5 C 143.701,319.737 138.701,322.737 133.5,325.5C 129.324,313.483 124.824,301.483 120,289.5C 119.357,275.765 118.357,262.098 117,248.5C 129.947,270.058 140.447,292.725 148.5,316.5 Z"/></g>
<g><path style="opacity:1" fill="#8b9ac6" d="M 292.5,290.5 C 290.015,302.17 291.682,313.17 297.5,323.5C 289.38,327.725 281.046,331.725 272.5,335.5C 271.702,335.957 271.369,336.624 271.5,337.5C 268.035,336.098 265.368,333.764 263.5,330.5C 270.828,324.422 272.328,317.088 268,308.5C 266.188,306.7 264.355,305.033 262.5,303.5C 272.209,298.649 282.209,294.316 292.5,290.5 Z"/></g>
<g><path style="opacity:1" fill="#843050" d="M 111.5,281.5 C 112.828,305.914 111.161,330.247 106.5,354.5C 102.217,355.624 97.8838,356.624 93.5,357.5C 96.4929,332.925 98.1596,308.259 98.5,283.5C 102.807,282.673 107.14,282.007 111.5,281.5 Z"/></g>
<g><path style="opacity:1" fill="#896554" d="M 354.5,297.5 C 388.663,296.502 422.996,296.168 457.5,296.5C 457.815,300.371 457.482,304.038 456.5,307.5C 456.5,304.167 456.5,300.833 456.5,297.5C 441.833,297.5 427.167,297.5 412.5,297.5C 402.167,297.5 391.833,297.5 381.5,297.5C 372.5,297.5 363.5,297.5 354.5,297.5 Z"/></g>
<g><path style="opacity:1" fill="#f99f6d" d="M 354.5,297.5 C 363.5,297.5 372.5,297.5 381.5,297.5C 382.94,303.046 384.94,308.38 387.5,313.5C 377.828,313.666 368.161,313.5 358.5,313C 357.333,311.833 356.167,310.667 355,309.5C 354.501,305.514 354.334,301.514 354.5,297.5 Z"/></g>
<g><path style="opacity:1" fill="#faac76" d="M 381.5,297.5 C 391.833,297.5 402.167,297.5 412.5,297.5C 413.94,303.046 415.94,308.38 418.5,313.5C 408.167,313.5 397.833,313.5 387.5,313.5C 384.94,308.38 382.94,303.046 381.5,297.5 Z"/></g>
<g><path style="opacity:1" fill="#f9ba80" d="M 412.5,297.5 C 427.167,297.5 441.833,297.5 456.5,297.5C 456.5,300.833 456.5,304.167 456.5,307.5C 456.262,310.148 454.928,311.982 452.5,313C 441.172,313.5 429.838,313.667 418.5,313.5C 415.94,308.38 413.94,303.046 412.5,297.5 Z"/></g>
<g><path style="opacity:1" fill="#c4868b" d="M 169.5,303.5 C 176.666,337.666 187.666,370.666 202.5,402.5C 193.533,394.868 184.866,386.868 176.5,378.5C 171.447,372.943 166.947,366.943 163,360.5C 160.718,356.959 158.051,356.626 155,359.5C 155.349,367.943 153.183,375.61 148.5,382.5C 143.643,363.582 138.643,344.582 133.5,325.5C 138.701,322.737 143.701,319.737 148.5,316.5C 150.266,320.285 151.766,324.285 153,328.5C 158.848,330.653 160.848,328.653 159,322.5C 157.923,319.101 156.756,315.767 155.5,312.5C 160.203,309.486 164.87,306.486 169.5,303.5 Z"/></g>
<g><path style="opacity:1" fill="#823d4a" d="M 390.5,321.5 C 399.839,321.334 409.173,321.5 418.5,322C 419.719,324.278 421.052,326.445 422.5,328.5C 401.167,344.167 379.833,359.833 358.5,375.5C 354.53,370.916 351.03,365.916 348,360.5C 346.878,358.593 346.045,356.593 345.5,354.5C 360.786,343.879 375.786,332.879 390.5,321.5 Z"/></g>
<g><path style="opacity:1" fill="#8693c4" d="M 297.5,323.5 C 304.423,328.76 307.59,335.76 307,344.5C 305.63,349.567 302.463,351.733 297.5,351C 293.89,349.056 290.557,346.723 287.5,344C 282.327,341.334 276.994,339.167 271.5,337.5C 271.369,336.624 271.702,335.957 272.5,335.5C 281.046,331.725 289.38,327.725 297.5,323.5 Z"/></g>
<g><path style="opacity:1" fill="#c18489" d="M 205.5,282.5 C 210.075,306.391 217.742,329.225 228.5,351C 233.333,352.167 235.166,350.333 234,345.5C 232.214,342.264 230.714,338.93 229.5,335.5C 232.618,337.563 235.952,339.396 239.5,341C 243.548,341.434 247.548,341.434 251.5,341C 253.713,344.714 256.713,347.548 260.5,349.5C 241.764,360.376 223.097,371.542 204.5,383C 203.748,383.671 203.414,384.504 203.5,385.5C 197.613,373.702 192.779,361.369 189,348.5C 183.73,331.753 179.563,314.753 176.5,297.5C 177.15,297.804 177.817,298.137 178.5,298.5C 187.363,292.903 196.363,287.57 205.5,282.5 Z"/></g>
<g><path style="opacity:1" fill="#82374a" d="M 422.5,328.5 C 425.358,332.883 427.692,337.55 429.5,342.5C 408.468,357.348 387.802,372.682 367.5,388.5C 364.117,384.447 361.117,380.114 358.5,375.5C 379.833,359.833 401.167,344.167 422.5,328.5 Z"/></g>
<g><path style="opacity:1" fill="#8c4552" d="M 305.5,368.5 C 293.151,367.992 282.818,363.159 274.5,354C 272.866,353.506 271.199,353.34 269.5,353.5C 266.382,352.441 263.382,351.108 260.5,349.5C 256.713,347.548 253.713,344.714 251.5,341C 247.548,341.434 243.548,341.434 239.5,341C 235.952,339.396 232.618,337.563 229.5,335.5C 223.137,320.582 218.304,305.249 215,289.5C 218.632,292.13 221.965,295.13 225,298.5C 226.234,306.663 228.234,314.663 231,322.5C 236.921,332.213 245.421,336.047 256.5,334C 261.735,341.89 269.068,346.557 278.5,348C 283.833,351.333 289.167,354.667 294.5,358C 296.9,358.186 299.234,358.686 301.5,359.5C 303.122,362.408 304.456,365.408 305.5,368.5 Z"/></g>
<g><path style="opacity:1" fill="#823743" d="M 429.5,342.5 C 432.284,346.405 434.284,350.738 435.5,355.5C 435.67,356.822 435.337,357.989 434.5,359C 415.988,372.423 397.655,386.09 379.5,400C 378.552,400.483 377.552,400.649 376.5,400.5C 373.512,396.538 370.512,392.538 367.5,388.5C 387.802,372.682 408.468,357.348 429.5,342.5 Z"/></g>
<g><path style="opacity:1" fill="#5a5573" d="M 140.5,386.5 C 140.586,387.496 140.252,388.329 139.5,389C 130.423,390.515 121.423,392.349 112.5,394.5C 111.702,394.043 111.369,393.376 111.5,392.5C 113.582,365.102 116.415,337.769 120,310.5C 128.715,335.361 135.548,360.694 140.5,386.5 Z"/></g>
<g><path style="opacity:1" fill="#c07c88" d="M 260.5,349.5 C 263.382,351.108 266.382,352.441 269.5,353.5C 261.898,358.309 254.231,363.142 246.5,368C 247.056,368.383 247.389,368.883 247.5,369.5C 244.99,369.054 242.99,369.72 241.5,371.5C 229.566,378.11 217.9,385.11 206.5,392.5C 204.935,390.491 203.935,388.157 203.5,385.5C 203.414,384.504 203.748,383.671 204.5,383C 223.097,371.542 241.764,360.376 260.5,349.5 Z"/></g>
<g><path style="opacity:1" fill="#5d5776" d="M 64.5,325.5 C 69.751,334.088 77.0844,340.088 86.5,343.5C 85.2151,360.564 83.3817,377.564 81,394.5C 69.3782,373.011 63.8782,350.011 64.5,325.5 Z"/></g>
<g><path style="opacity:1" fill="#7b3743" d="M 435.5,355.5 C 439.173,362.356 441.34,369.69 442,377.5C 429.172,368.319 417.839,369.986 408,382.5C 398.883,393.85 394.55,406.85 395,421.5C 387.884,415.219 381.718,408.219 376.5,400.5C 377.552,400.649 378.552,400.483 379.5,400C 397.655,386.09 415.988,372.423 434.5,359C 435.337,357.989 435.67,356.822 435.5,355.5 Z"/></g>
<g><path style="opacity:1" fill="#8f4b55" d="M 176.5,378.5 C 175.448,378.351 174.448,378.517 173.5,379C 165.936,384.744 158.27,390.244 150.5,395.5C 149.09,391.295 148.423,386.962 148.5,382.5C 153.183,375.61 155.349,367.943 155,359.5C 158.051,356.626 160.718,356.959 163,360.5C 166.947,366.943 171.447,372.943 176.5,378.5 Z"/></g>
<g><path style="opacity:1" fill="#bb7c82" d="M 269.5,353.5 C 271.199,353.34 272.866,353.506 274.5,354C 282.818,363.159 293.151,367.992 305.5,368.5C 307.167,371.833 308.833,375.167 310.5,378.5C 295.833,386.833 281.167,395.167 266.5,403.5C 264.942,399.082 261.942,396.915 257.5,397C 256.426,397.739 255.759,398.739 255.5,400C 256.978,402.459 258.312,404.959 259.5,407.5C 251.175,413.664 242.508,419.331 233.5,424.5C 228.98,422.409 224.647,420.075 220.5,417.5C 215.061,409.624 210.394,401.291 206.5,392.5C 217.9,385.11 229.566,378.11 241.5,371.5C 241.164,376 243.164,377.833 247.5,377C 250.14,374.379 250.14,371.879 247.5,369.5C 247.389,368.883 247.056,368.383 246.5,368C 254.231,363.142 261.898,358.309 269.5,353.5 Z"/></g>
<g><path style="opacity:1" fill="#823c4a" d="M 338.5,359.5 C 345.83,370.825 353.164,382.158 360.5,393.5C 353.643,398.425 346.643,403.092 339.5,407.5C 331.011,397.868 324.011,387.202 318.5,375.5C 325.48,370.516 332.146,365.183 338.5,359.5 Z"/></g>
<g><path style="opacity:1" fill="#2e2a3c" d="M 247.5,369.5 C 250.14,371.879 250.14,374.379 247.5,377C 243.164,377.833 241.164,376 241.5,371.5C 242.99,369.72 244.99,369.054 247.5,369.5 Z"/></g>
<g><path style="opacity:1" fill="#89424f" d="M 176.5,378.5 C 184.866,386.868 193.533,394.868 202.5,402.5C 213.505,424.026 227.839,443.193 245.5,460C 220.314,448.627 198.481,432.461 180,411.5C 178.978,402.701 177.311,394.034 175,385.5C 170.822,382.25 168.655,383.25 168.5,388.5C 174.016,414.007 174.849,439.673 171,465.5C 169.649,472.538 166.483,478.538 161.5,483.5C 159.281,453.973 155.614,424.64 150.5,395.5C 158.27,390.244 165.936,384.744 173.5,379C 174.448,378.517 175.448,378.351 176.5,378.5 Z"/></g>
<g><path style="opacity:1" fill="#ba7582" d="M 310.5,378.5 C 314.071,383.967 317.404,389.633 320.5,395.5C 306.5,403.5 292.5,411.5 278.5,419.5C 274.147,414.473 270.147,409.14 266.5,403.5C 281.167,395.167 295.833,386.833 310.5,378.5 Z"/></g>
<g><path style="opacity:1" fill="#ba757c" d="M 320.5,395.5 C 328.776,407.113 337.443,418.446 346.5,429.5C 345.917,438.257 341.583,444.424 333.5,448C 322.99,452.023 312.323,452.523 301.5,449.5C 293.074,440.075 285.407,430.075 278.5,419.5C 292.5,411.5 306.5,403.5 320.5,395.5 Z"/></g>
<g><path style="opacity:1" fill="#782645" d="M 106.5,354.5 C 104.394,372.441 103.06,390.441 102.5,408.5C 101.833,418.008 101.167,427.675 100.5,437.5C 96.6257,438.44 92.7924,439.44 89,440.5C 88.5002,430.839 88.3335,421.172 88.5,411.5C 89.2429,393.405 90.9096,375.405 93.5,357.5C 97.8838,356.624 102.217,355.624 106.5,354.5 Z"/></g>
<g><path style="opacity:1" fill="#7d3743" d="M 360.5,393.5 C 368.47,403.142 376.47,412.809 384.5,422.5C 378.81,427.518 372.81,432.185 366.5,436.5C 361.928,433.437 357.761,429.77 354,425.5C 348.574,419.915 343.741,413.915 339.5,407.5C 346.643,403.092 353.643,398.425 360.5,393.5 Z"/></g>
<g><path style="opacity:1" fill="#b97480" d="M 259.5,407.5 C 268.911,420.64 278.578,433.64 288.5,446.5C 268.865,442.174 250.532,434.841 233.5,424.5C 242.508,419.331 251.175,413.664 259.5,407.5 Z"/></g>
<g><path style="opacity:1" fill="#4f4b65" d="M 140.5,386.5 C 144.084,401.897 146.75,417.563 148.5,433.5C 138.255,434.882 128.255,436.882 118.5,439.5C 115.899,436.396 113.066,433.396 110,430.5C 109.112,417.626 109.612,404.96 111.5,392.5C 111.369,393.376 111.702,394.043 112.5,394.5C 121.423,392.349 130.423,390.515 139.5,389C 140.252,388.329 140.586,387.496 140.5,386.5 Z"/></g>
<g><path style="opacity:1" fill="#7c3243" d="M 384.5,422.5 C 390.167,427.5 395.5,432.833 400.5,438.5C 395.053,441.731 389.719,445.231 384.5,449C 383.748,449.671 383.414,450.504 383.5,451.5C 377.229,447.196 371.563,442.196 366.5,436.5C 372.81,432.185 378.81,427.518 384.5,422.5 Z"/></g>
<g><path style="opacity:1" fill="#7d3844" d="M 346.5,429.5 C 351.193,433.861 355.859,438.195 360.5,442.5C 359.078,442.709 357.745,443.209 356.5,444C 344.648,453.087 332.648,461.92 320.5,470.5C 313.825,463.825 307.492,456.825 301.5,449.5C 312.323,452.523 322.99,452.023 333.5,448C 341.583,444.424 345.917,438.257 346.5,429.5 Z"/></g>
<g><path style="opacity:1" fill="#823b48" d="M 220.5,417.5 C 224.647,420.075 228.98,422.409 233.5,424.5C 250.532,434.841 268.865,442.174 288.5,446.5C 297.13,456.876 306.13,467.043 315.5,477C 301.226,477.733 287.226,476.066 273.5,472C 251.911,457.578 234.244,439.412 220.5,417.5 Z"/></g>
<g><path style="opacity:1" fill="#6a1f3c" d="M 102.5,408.5 C 102.333,424.503 102.5,440.503 103,456.5C 103.575,467.344 105.242,478.01 108,488.5C 109.622,489.099 111.122,489.766 112.5,490.5C 105.833,490.5 99.1667,490.5 92.5,490.5C 93.7175,489.839 95.0508,489.172 96.5,488.5C 94.2017,482.308 92.3684,475.974 91,469.5C 87.7084,450.106 86.875,430.773 88.5,411.5C 88.3335,421.172 88.5002,430.839 89,440.5C 92.7924,439.44 96.6257,438.44 100.5,437.5C 101.167,427.675 101.833,418.008 102.5,408.5 Z"/></g>
<g><path style="opacity:1" fill="#4a435d" d="M 148.5,433.5 C 151.26,448.03 152.427,462.697 152,477.5C 140.625,464.962 129.458,452.295 118.5,439.5C 128.255,436.882 138.255,434.882 148.5,433.5 Z"/></g>
<g><path style="opacity:1" fill="#7a313d" d="M 400.5,438.5 C 405.92,445.484 411.92,451.984 418.5,458C 414.214,461.072 411.881,465.239 411.5,470.5C 401.578,464.89 392.245,458.557 383.5,451.5C 383.414,450.504 383.748,449.671 384.5,449C 389.719,445.231 395.053,441.731 400.5,438.5 Z"/></g>
<g><path style="opacity:1" fill="#7c3143" d="M 360.5,442.5 C 365.874,447.177 371.207,451.843 376.5,456.5C 362.602,465.4 349.269,475.066 336.5,485.5C 329.882,481.882 324.548,476.882 320.5,470.5C 332.648,461.92 344.648,453.087 356.5,444C 357.745,443.209 359.078,442.709 360.5,442.5 Z"/></g>
<g><path style="opacity:1" fill="#7c313d" d="M 376.5,456.5 C 382.538,460.845 388.538,465.179 394.5,469.5C 383.833,477.833 373.167,486.167 362.5,494.5C 353.216,493.187 344.55,490.187 336.5,485.5C 349.269,475.066 362.602,465.4 376.5,456.5 Z"/></g>
<g><path style="opacity:1" fill="#75303d" d="M 394.5,469.5 C 407.261,476.411 419.927,483.577 432.5,491C 424.391,493.401 416.058,495.067 407.5,496C 394.5,496.667 381.5,496.667 368.5,496C 366.292,495.809 364.292,495.309 362.5,494.5C 373.167,486.167 383.833,477.833 394.5,469.5 Z"/></g>
</svg>
