<?xml version="1.0" encoding="UTF-8"?>
<!DOCTYPE svg PUBLIC "-//W3C//DTD SVG 1.1//EN" "http://www.w3.org/Graphics/SVG/1.1/DTD/svg11.dtd">
<svg xmlns="http://www.w3.org/2000/svg" version="1.1" width="512px" height="512px" style="shape-rendering:geometricPrecision; text-rendering:geometricPrecision; image-rendering:optimizeQuality; fill-rule:evenodd; clip-rule:evenodd" xmlns:xlink="http://www.w3.org/1999/xlink">
<g><path style="opacity:1" fill="#252538" d="M 178.5,9.5 C 181.187,9.33591 183.854,9.50258 186.5,10C 191.65,18.7969 199.317,24.1302 209.5,26C 212.533,29.571 211.866,32.2376 207.5,34C 199.984,34.6658 192.484,34.4992 185,33.5C 176.06,34.1009 171.726,38.7676 172,47.5C 174.827,51.7486 178.494,55.0819 183,57.5C 183.635,59.6354 183.301,61.6354 182,63.5C 174.688,74.4805 165.188,82.9805 153.5,89C 146.75,92.4411 143.916,90.6077 145,83.5C 151.946,76.947 154.946,68.947 154,59.5C 143.295,42.9355 145.795,28.7688 161.5,17C 166.872,13.6071 172.538,11.1071 178.5,9.5 Z"/></g>
<g><path style="opacity:1" fill="#282739" d="M 407.5,18.5 C 414.615,18.0753 421.615,18.5753 428.5,20C 427.546,31.5485 432.879,37.7152 444.5,38.5C 454.946,37.8529 464.279,34.3529 472.5,28C 477.331,25.9379 482.331,25.2712 487.5,26C 491.246,28.7723 491.246,31.439 487.5,34C 483.75,34.2599 480.084,34.9266 476.5,36C 467.213,43.0566 456.713,46.5566 445,46.5C 436.83,45.5834 428.663,44.5834 420.5,43.5C 412.977,43.3708 405.977,45.2041 399.5,49C 394.319,53.5667 393.153,59.0667 396,65.5C 401.195,74.3463 408.695,78.1796 418.5,77C 424.342,69.8169 431.342,64.1502 439.5,60C 444.762,58.5615 450.096,58.2282 455.5,59C 458.25,62.0124 457.917,64.679 454.5,67C 448.487,66.4059 442.82,67.7392 437.5,71C 432.5,74.6667 428.167,79 424.5,84C 418.338,86.9292 412.005,87.2625 405.5,85C 399.813,81.3026 394.146,77.636 388.5,74C 370.224,73.5964 359.89,82.5964 357.5,101C 358.384,107.944 362.051,109.944 368.5,107C 373.5,106.333 378.5,106.333 383.5,107C 386.167,109.667 386.167,112.333 383.5,115C 374.902,115.514 366.236,115.848 357.5,116C 352.271,113.442 349.438,109.275 349,103.5C 324.296,90.5882 298.963,89.2549 273,99.5C 272.312,100.332 272.479,100.998 273.5,101.5C 276.885,102.462 280.051,103.796 283,105.5C 284.14,108.528 283.306,110.695 280.5,112C 262.533,114.407 244.533,116.407 226.5,118C 218.46,120.717 211.46,125.051 205.5,131C 201.918,132.251 198.251,133.251 194.5,134C 198.443,136.705 202.776,138.538 207.5,139.5C 209.423,143.368 208.423,146.034 204.5,147.5C 196.887,145.386 189.554,142.553 182.5,139C 172.95,137.926 163.617,138.926 154.5,142C 153.902,151.481 153.068,160.981 152,170.5C 149.401,176.365 145.401,181.031 140,184.5C 139.827,193.606 140.827,202.606 143,211.5C 148.67,226.165 150.837,241.165 149.5,256.5C 157.834,252.082 166.334,248.082 175,244.5C 177.447,232.111 183.614,221.944 193.5,214C 186.746,206.811 185.913,198.978 191,190.5C 192.873,188.291 195.04,186.458 197.5,185C 206.802,184.019 214.635,180.186 221,173.5C 225.667,164.167 230.333,154.833 235,145.5C 242.898,131.27 254.898,122.937 271,120.5C 276.385,121.035 281.551,122.369 286.5,124.5C 299.459,115.532 312.459,115.366 325.5,124C 327.452,126.074 329.285,128.241 331,130.5C 334.29,137.944 336.956,145.611 339,153.5C 342.923,163.09 349.756,169.59 359.5,173C 366.53,173.899 373.53,174.899 380.5,176C 386.825,178.799 390.659,183.632 392,190.5C 392.535,196.885 392.535,203.219 392,209.5C 397.264,216.89 404.431,221.39 413.5,223C 423.82,222.652 434.154,222.652 444.5,223C 469.604,229.035 480.437,244.869 477,270.5C 474.08,280.248 469.247,288.915 462.5,296.5C 471.08,305.979 477.913,316.645 483,328.5C 487.773,341.257 491.773,354.257 495,367.5C 504.739,380.311 506.073,393.978 499,408.5C 496.833,410.667 494.667,412.833 492.5,415C 483.833,419 475.167,423 466.5,427C 453.366,431.283 440.033,434.617 426.5,437C 424.595,438.815 422.928,440.815 421.5,443C 435.64,443.442 440.14,450.276 435,463.5C 429.577,466.919 424.744,471.085 420.5,476C 417.382,477.893 414.049,479.226 410.5,480C 403.104,480.151 395.771,480.818 388.5,482C 357.894,498.756 325.227,504.756 290.5,500C 266.746,497.311 243.746,491.645 221.5,483C 213.753,475.68 208.419,466.847 205.5,456.5C 188.78,456.742 173.78,451.909 160.5,442C 153.096,434.691 148.763,425.858 147.5,415.5C 119.469,414.63 107.636,400.297 112,372.5C 113.827,365.341 117.327,359.174 122.5,354C 116.522,354.33 110.522,354.996 104.5,356C 97.1667,356.667 89.8333,356.667 82.5,356C 66.0472,350.011 60.2138,338.511 65,321.5C 66.8409,317.817 69.1742,314.484 72,311.5C 71.3351,266.832 80.1685,224.165 98.5,183.5C 89.6979,177.58 84.6979,169.247 83.5,158.5C 74.839,160.999 66.1723,163.499 57.5,166C 59.3772,167.185 61.3772,168.185 63.5,169C 65.2832,174.899 62.9499,177.565 56.5,177C 41.3331,178.294 26.3331,177.294 11.5,174C 7.70544,172.936 6.53878,170.436 8,166.5C 17.4082,162.216 26.2415,157.05 34.5,151C 43.8875,142.946 52.5542,134.279 60.5,125C 62.3668,124.289 63.8668,124.789 65,126.5C 65.7419,131.488 65.2419,136.322 63.5,141C 68.2131,140.993 72.8798,140.327 77.5,139C 75.7978,120.702 83.9645,112.535 102,114.5C 108.583,110.417 115.75,108.584 123.5,109C 131.274,103.141 138.774,103.308 146,109.5C 147.073,113.084 147.74,116.75 148,120.5C 153.345,118.992 157.678,115.992 161,111.5C 164.814,102.382 168.814,93.3823 173,84.5C 177.825,77.4991 184.325,74.4991 192.5,75.5C 194.499,80.5037 198.166,83.1703 203.5,83.5C 204.833,85.8333 204.833,88.1667 203.5,90.5C 200.127,91.7745 196.793,91.6079 193.5,90C 191.023,88.3573 188.69,86.524 186.5,84.5C 182.769,86.6097 179.936,89.6097 178,93.5C 175.431,100.213 173.097,106.88 171,113.5C 184.885,108.982 198.385,103.482 211.5,97C 216.286,93.8821 220.786,90.3821 225,86.5C 227.607,81.6203 229.94,76.6203 232,71.5C 232.844,61.824 233.511,52.1573 234,42.5C 237.419,37.0769 241.585,32.2436 246.5,28C 250.442,26.5823 252.775,27.9157 253.5,32C 249.562,36.6854 245.729,41.5188 242,46.5C 241.449,51.5445 241.782,56.5445 243,61.5C 250.35,47.149 260.85,35.649 274.5,27C 289.16,19.7394 303.827,19.7394 318.5,27C 324.943,31.9407 328.609,38.4407 329.5,46.5C 335.184,45.8236 340.851,45.3236 346.5,45C 349.533,48.571 348.866,51.2376 344.5,53C 337.581,55.61 330.581,55.9434 323.5,54C 322.333,53.5 321.5,52.6667 321,51.5C 319.588,34.8682 310.754,28.7015 294.5,33C 283.415,37.7499 276.249,45.9165 273,57.5C 273.539,65.6069 270.706,72.1069 264.5,77C 272.207,74.1024 280.207,71.769 288.5,70C 299.147,69.0081 309.647,69.8414 320,72.5C 349.824,68.6696 370.324,52.8363 381.5,25C 389.995,21.6072 398.662,19.4405 407.5,18.5 Z"/></g>
<g><path style="opacity:1" fill="#435fcc" d="M 175.5,18.5 C 177.857,18.3367 180.19,18.5034 182.5,19C 183.833,21.6667 185.833,23.6667 188.5,25C 171.541,24.6799 163.375,32.8466 164,49.5C 165.689,54.5252 168.856,58.3585 173.5,61C 170.035,65.4668 166.202,69.6334 162,73.5C 162.456,67.8704 162.456,62.2037 162,56.5C 152.564,45.0485 153.397,34.5485 164.5,25C 168.23,22.807 171.897,20.6404 175.5,18.5 Z"/></g>
<g><path style="opacity:1" fill="#252538" d="M 224.5,24.5 C 230.263,24.7827 231.93,27.616 229.5,33C 221.184,33.8375 219.517,31.0042 224.5,24.5 Z"/></g>
<g><path style="opacity:1" fill="#a3b6f2" d="M 385.5,65.5 C 383.328,59.8223 380.661,54.489 377.5,49.5C 381.471,43.7276 384.804,37.5609 387.5,31C 398.557,27.435 409.891,25.935 421.5,26.5C 421.342,29.5455 422.009,32.3788 423.5,35C 410.552,33.9016 399.386,37.735 390,46.5C 389.252,48.3325 388.252,49.9991 387,51.5C 386.826,56.3514 386.326,61.0181 385.5,65.5 Z"/></g>
<g><path style="opacity:1" fill="#252436" d="M 359.5,29.5 C 365.41,30.0034 366.91,33.0034 364,38.5C 362.192,40.3959 360.025,40.8959 357.5,40C 356.106,39.044 355.439,37.7106 355.5,36C 356.205,33.4582 357.539,31.2916 359.5,29.5 Z"/></g>
<g><path style="opacity:1" fill="#98adf4" d="M 377.5,49.5 C 380.661,54.489 383.328,59.8223 385.5,65.5C 366.359,66.1349 354.526,75.8015 350,94.5C 337.656,87.9981 324.49,84.6647 310.5,84.5C 310.107,82.7162 309.441,81.0495 308.5,79.5C 337.2,82.2774 360.2,72.2774 377.5,49.5 Z"/></g>
<g><path style="opacity:1" fill="#252437" d="M 476.5,76.5 C 483.158,75.3445 485.158,77.8445 482.5,84C 478.282,87.6782 474.615,87.3448 471.5,83C 472.269,80.0737 473.935,77.9071 476.5,76.5 Z"/></g>
<g><path style="opacity:1" fill="#869ff4" d="M 308.5,79.5 C 309.441,81.0495 310.107,82.7162 310.5,84.5C 295.973,84.1057 281.973,86.6057 268.5,92C 264.543,95.7935 263.543,100.294 265.5,105.5C 258.216,106.718 250.882,107.385 243.5,107.5C 241.425,100.547 238.425,94.2134 234.5,88.5C 243.65,76.8817 251.816,64.5484 259,51.5C 263,46.1667 267.667,41.5 273,37.5C 270.755,41.9901 268.422,46.6567 266,51.5C 264.524,56.4057 263.524,61.4057 263,66.5C 255.524,73.6371 249.191,81.6371 244,90.5C 243.013,94.5057 244.513,96.339 248.5,96C 260.834,87.8338 274.168,81.8338 288.5,78C 295.344,77.0102 302.01,77.5102 308.5,79.5 Z"/></g>
<g><path style="opacity:1" fill="#7e98f4" d="M 234.5,88.5 C 238.425,94.2134 241.425,100.547 243.5,107.5C 231.634,107.078 220.634,110.078 210.5,116.5C 209.013,114.039 207.346,111.705 205.5,109.5C 216.367,104.226 226.033,97.2261 234.5,88.5 Z"/></g>
<g><path style="opacity:1" fill="#262538" d="M 460.5,91.5 C 463.477,91.6407 465.144,93.1407 465.5,96C 461.375,102.414 457.875,109.247 455,116.5C 454.5,119.5 454,122.5 453.5,125.5C 454.598,129.805 455.098,134.139 455,138.5C 454.5,139 454,139.5 453.5,140C 445.5,140.833 437.5,141.667 429.5,142.5C 433.812,157.24 443.645,164.24 459,163.5C 459.896,166.025 459.396,168.192 457.5,170C 443.808,173.073 433.308,168.573 426,156.5C 422.641,146.271 417.141,137.438 409.5,130C 405.334,127.083 401.001,124.416 396.5,122C 393.425,118.197 394.092,115.364 398.5,113.5C 407.956,117.371 417.622,118.205 427.5,116C 428.833,115.333 430.167,114.667 431.5,114C 439.946,104.696 449.612,97.1963 460.5,91.5 Z"/></g>
<g><path style="opacity:1" fill="#262537" d="M 80.5,97.5 C 86.9339,97.0928 88.7673,99.7594 86,105.5C 81.7564,109.971 78.5898,109.471 76.5,104C 77.2054,101.458 78.5387,99.2916 80.5,97.5 Z"/></g>
<g><path style="opacity:1" fill="#7390f2" d="M 205.5,109.5 C 207.346,111.705 209.013,114.039 210.5,116.5C 207.044,118.783 203.71,121.283 200.5,124C 182.535,127.827 164.535,131.327 146.5,134.5C 146.261,132.533 146.594,130.699 147.5,129C 167.042,122.986 186.375,116.486 205.5,109.5 Z"/></g>
<g><path style="opacity:1" fill="#edaba8" d="M 130.5,134.5 C 128.547,128.926 127.88,122.926 128.5,116.5C 129.058,115.21 130.058,114.377 131.5,114C 134.099,113.231 136.599,113.398 139,114.5C 139.83,120.528 139.664,126.528 138.5,132.5C 135.856,133.295 133.189,133.962 130.5,134.5 Z"/></g>
<g><path style="opacity:1" fill="#6e81d4" d="M 447.5,109.5 C 448.043,109.56 448.376,109.893 448.5,110.5C 445.978,117.606 444.978,124.939 445.5,132.5C 438.505,133.167 431.505,133.333 424.5,133C 422.167,130.667 419.833,128.333 417.5,126C 430.476,125.846 440.476,120.346 447.5,109.5 Z"/></g>
<g><path style="opacity:1" fill="#e8acab" d="M 99.5,148.5 C 99.5,144.167 99.5,139.833 99.5,135.5C 95.5,135.5 91.5,135.5 87.5,135.5C 87.5,139.833 87.5,144.167 87.5,148.5C 86.3448,141.345 86.1782,134.012 87,126.5C 90.5301,122.22 94.8634,120.887 100,122.5C 100.824,131.343 100.657,140.01 99.5,148.5 Z"/></g>
<g><path style="opacity:1" fill="#f7f7f8" d="M 366.5,214.5 C 356.573,217.787 347.24,216.121 338.5,209.5C 333.757,206.249 330.257,201.915 328,196.5C 326.135,180.937 319.635,167.771 308.5,157C 304.038,154.77 299.372,153.103 294.5,152C 290.948,148.394 288.281,144.227 286.5,139.5C 284.056,142.877 281.722,146.377 279.5,150C 269.669,153.187 261.503,158.687 255,166.5C 253.107,169.618 251.774,172.951 251,176.5C 251,187.871 249.167,198.871 245.5,209.5C 239.154,220.796 229.487,225.296 216.5,223C 212.819,222.128 209.819,220.294 207.5,217.5C 218.355,215.797 222.855,209.464 221,198.5C 219.274,197.424 217.441,197.257 215.5,198C 215.28,207.213 210.613,210.88 201.5,209C 199.714,208.215 198.214,207.049 197,205.5C 194.998,199.315 196.831,194.815 202.5,192C 212.13,190.602 220.297,186.435 227,179.5C 232.037,170.412 236.704,161.079 241,151.5C 245.833,142.667 252.667,135.833 261.5,131C 270.589,128.21 279.089,129.376 287,134.5C 290.49,132.349 293.99,130.182 297.5,128C 311.72,122.859 321.553,127.359 327,141.5C 331.462,169.801 347.962,183.635 376.5,183C 384.056,187.848 386.556,194.682 384,203.5C 381.559,210.224 377.226,211.89 371,208.5C 370.219,207.271 369.719,205.938 369.5,204.5C 371.102,201.662 371.602,198.662 371,195.5C 369,194.167 367,194.167 365,195.5C 361.279,202.273 361.779,208.607 366.5,214.5 Z"/></g>
<g><path style="opacity:1" fill="#f0b2b0" d="M 113.5,117.5 C 115.833,117.5 118.167,117.5 120.5,117.5C 120.5,123.833 120.5,130.167 120.5,136.5C 113.423,136.078 110.256,139.411 111,146.5C 109.989,147.337 108.822,147.67 107.5,147.5C 107.334,138.827 107.5,130.16 108,121.5C 109.812,120.023 111.645,118.69 113.5,117.5 Z"/></g>
<g><path style="opacity:1" fill="#957279" d="M 128.5,116.5 C 127.88,122.926 128.547,128.926 130.5,134.5C 129.791,135.404 128.791,135.737 127.5,135.5C 127.177,128.978 127.51,122.645 128.5,116.5 Z"/></g>
<g><path style="opacity:1" fill="#b5c7f0" d="M 338.5,209.5 C 331.167,209.5 323.833,209.5 316.5,209.5C 316.768,207.901 316.434,206.568 315.5,205.5C 315.241,192.705 312.741,180.372 308,168.5C 297.641,154.75 284.808,151.917 269.5,160C 266,162.167 263.167,165 261,168.5C 258.399,182.196 255.566,195.863 252.5,209.5C 250.167,209.5 247.833,209.5 245.5,209.5C 249.167,198.871 251,187.871 251,176.5C 251.774,172.951 253.107,169.618 255,166.5C 261.503,158.687 269.669,153.187 279.5,150C 281.722,146.377 284.056,142.877 286.5,139.5C 288.281,144.227 290.948,148.394 294.5,152C 299.372,153.103 304.038,154.77 308.5,157C 319.635,167.771 326.135,180.937 328,196.5C 330.257,201.915 333.757,206.249 338.5,209.5 Z"/></g>
<g><path style="opacity:1" fill="#262538" d="M 219.5,140.5 C 225.512,141.038 227.179,143.871 224.5,149C 216.184,149.838 214.517,147.004 219.5,140.5 Z"/></g>
<g><path style="opacity:1" fill="#f8c6c3" d="M 99.5,148.5 C 96.8599,149.421 94.0265,150.088 91,150.5C 89.3009,150.613 88.1342,149.947 87.5,148.5C 87.5,144.167 87.5,139.833 87.5,135.5C 91.5,135.5 95.5,135.5 99.5,135.5C 99.5,139.833 99.5,144.167 99.5,148.5 Z"/></g>
<g><path style="opacity:1" fill="#f3b0ad" d="M 137.5,175.5 C 135.976,171.798 133.81,168.464 131,165.5C 129.549,163.536 127.716,162.203 125.5,161.5C 129.222,160.609 130.722,158.276 130,154.5C 124.529,153.522 120.695,150.522 118.5,145.5C 118.833,145.167 119.167,144.833 119.5,144.5C 125.979,143.121 132.479,141.788 139,140.5C 141.406,140.703 143.406,141.703 145,143.5C 145.667,150.5 145.667,157.5 145,164.5C 143.971,169.241 141.471,172.908 137.5,175.5 Z"/></g>
<g><path style="opacity:1" fill="#6285f2" d="M 53.5,144.5 C 54.3019,145.952 54.8019,147.618 55,149.5C 55.804,150.804 56.9707,151.471 58.5,151.5C 65.4186,149.649 72.4186,148.316 79.5,147.5C 79.7733,149.451 79.1066,150.951 77.5,152C 67.7058,154.199 58.0392,156.865 48.5,160C 46.0321,162.716 46.0321,165.549 48.5,168.5C 40.1332,169.832 31.7999,169.665 23.5,168C 34.8388,161.836 44.8388,154.003 53.5,144.5 Z"/></g>
<g><path style="opacity:1" fill="#f7cbca" d="M 125.5,161.5 C 127.716,162.203 129.549,163.536 131,165.5C 133.81,168.464 135.976,171.798 137.5,175.5C 135.849,176.97 134.015,178.303 132,179.5C 131.52,191.662 132.687,203.662 135.5,215.5C 135.67,216.822 135.337,217.989 134.5,219C 118.409,229.128 102.576,239.628 87,250.5C 86.5172,249.552 86.3505,248.552 86.5,247.5C 90.9294,224.379 98.2627,202.212 108.5,181C 108.241,179.739 107.574,178.739 106.5,178C 97.5068,174.196 92.8401,167.362 92.5,157.5C 100.114,156.008 107.781,155.174 115.5,155C 116.357,155.689 117.023,156.522 117.5,157.5C 113.105,161.626 111.605,166.626 113,172.5C 115.267,173.935 117.267,173.602 119,171.5C 119.435,166.945 121.602,163.611 125.5,161.5 Z"/></g>
<g><path style="opacity:1" fill="#262538" d="M 471.5,157.5 C 476.549,158.194 478.216,160.861 476.5,165.5C 470.196,168.712 467.696,166.712 469,159.5C 469.995,158.934 470.828,158.267 471.5,157.5 Z"/></g>
<g><path style="opacity:1" fill="#f7cbcb" d="M 304.5,183.5 C 298.369,184.83 291.869,185.497 285,185.5C 278.325,185.5 271.825,185.166 265.5,184.5C 265.914,168.925 273.914,162.092 289.5,164C 298.945,167.049 303.945,173.549 304.5,183.5 Z"/></g>
<g><path style="opacity:1" fill="#f3c0be" d="M 304.5,183.5 C 306.375,188.89 307.375,194.556 307.5,200.5C 293.01,201.496 278.343,201.829 263.5,201.5C 263.5,200.5 263.5,199.5 263.5,198.5C 263.369,197.761 263.536,197.094 264,196.5C 266.466,197.777 268.966,197.777 271.5,196.5C 272.953,194.356 272.62,192.523 270.5,191C 268.564,190.187 266.564,189.687 264.5,189.5C 264.216,187.585 264.549,185.919 265.5,184.5C 271.825,185.166 278.325,185.5 285,185.5C 291.869,185.497 298.369,184.83 304.5,183.5 Z"/></g>
<g><path style="opacity:1" fill="#2d2b3c" d="M 285.5,188.5 C 291.113,187.079 293.28,189.079 292,194.5C 288.758,196.519 285.258,197.352 281.5,197C 279.789,195.867 279.289,194.367 280,192.5C 281.5,190.531 283.333,189.198 285.5,188.5 Z"/></g>
<g><path style="opacity:1" fill="#f3b2af" d="M 263.5,198.5 C 263.5,199.5 263.5,200.5 263.5,201.5C 278.343,201.829 293.01,201.496 307.5,200.5C 310.905,212.127 306.405,218.461 294,219.5C 287.65,217.551 281.15,216.551 274.5,216.5C 274.6,212.802 275.933,209.635 278.5,207C 277.553,203.928 275.553,202.928 272.5,204C 267.216,208.054 265.549,213.22 267.5,219.5C 264.482,219.665 261.482,219.498 258.5,219C 258.043,218.586 257.709,218.086 257.5,217.5C 259.943,211.176 261.943,204.843 263.5,198.5 Z"/></g>
<g><path style="opacity:1" fill="#acbce8" d="M 315.5,205.5 C 316.434,206.568 316.768,207.901 316.5,209.5C 323.833,209.5 331.167,209.5 338.5,209.5C 347.24,216.121 356.573,217.787 366.5,214.5C 369.11,216.637 372.11,217.97 375.5,218.5C 379.232,217.524 382.898,216.691 386.5,216C 392.589,223.422 400.255,228.422 409.5,231C 420.495,230.825 431.495,230.825 442.5,231C 465.625,237.085 473.792,251.585 467,274.5C 464.491,280.834 460.658,286.167 455.5,290.5C 441.114,277.803 425.114,267.469 407.5,259.5C 405.153,245.985 397.153,237.818 383.5,235C 376.675,232.54 369.675,231.54 362.5,232C 358.957,233.608 355.957,235.942 353.5,239C 347.527,236.859 341.527,234.359 335.5,231.5C 330.167,224.167 323.833,217.833 316.5,212.5C 315.526,210.257 315.192,207.924 315.5,205.5 Z"/></g>
<g><path style="opacity:1" fill="#aebfea" d="M 245.5,209.5 C 247.833,209.5 250.167,209.5 252.5,209.5C 247.044,226.118 235.711,236.284 218.5,240C 207.268,240.787 196.102,241.954 185,243.5C 184.5,243.167 184,242.833 183.5,242.5C 186.514,233.288 191.848,225.788 199.5,220C 201.909,218.293 204.575,217.46 207.5,217.5C 209.819,220.294 212.819,222.128 216.5,223C 229.487,225.296 239.154,220.796 245.5,209.5 Z"/></g>
<g><path style="opacity:1" fill="#f8c6c6" d="M 135.5,215.5 C 138.079,221.14 139.746,227.14 140.5,233.5C 140.5,234.5 140.5,235.5 140.5,236.5C 121.149,248.86 101.816,261.193 82.5,273.5C 82.9575,264.574 84.2908,255.907 86.5,247.5C 86.3505,248.552 86.5172,249.552 87,250.5C 102.576,239.628 118.409,229.128 134.5,219C 135.337,217.989 135.67,216.822 135.5,215.5 Z"/></g>
<g><path style="opacity:1" fill="#f9f9f9" d="M 307.5,223.5 C 309.883,227.647 310.883,232.147 310.5,237C 310.36,243.7 309.193,250.2 307,256.5C 306.829,263.679 306.329,270.679 305.5,277.5C 277.5,276.833 249.5,276.167 221.5,275.5C 221.5,274.167 221.5,272.833 221.5,271.5C 222.983,264.866 225.817,258.866 230,253.5C 238.583,244.922 246.416,235.755 253.5,226C 256.694,226.769 260.027,227.269 263.5,227.5C 268.954,227.009 274.288,226.009 279.5,224.5C 284.167,225.5 288.833,226.5 293.5,227.5C 298.466,227.093 303.133,225.76 307.5,223.5 Z"/></g>
<g><path style="opacity:1" fill="#f9c7c0" d="M 140.5,236.5 C 140.793,240.437 140.46,244.27 139.5,248C 120.333,260.5 101.167,273 82,285.5C 81.5065,283.866 81.3398,282.199 81.5,280.5C 81.298,278.05 81.6314,275.717 82.5,273.5C 101.816,261.193 121.149,248.86 140.5,236.5 Z"/></g>
<g><path style="opacity:1" fill="#f4d39c" d="M 382.5,242.5 C 381.738,244.262 380.404,245.262 378.5,245.5C 375.813,245.336 373.146,245.503 370.5,246C 368.166,247.842 367.832,250.009 369.5,252.5C 368.415,254.587 366.749,255.92 364.5,256.5C 358.595,253.813 357.095,249.48 360,243.5C 363.66,239.633 368.16,238.466 373.5,240C 376.474,240.993 379.474,241.826 382.5,242.5 Z"/></g>
<g><path style="opacity:1" fill="#d1717e" d="M 338.5,242.5 C 338.56,241.957 338.893,241.624 339.5,241.5C 343.327,243.246 346.993,245.246 350.5,247.5C 351.842,251.248 351.675,254.915 350,258.5C 346.333,263.833 342.667,269.167 339,274.5C 339.806,267.908 340.306,261.241 340.5,254.5C 340.333,251.167 340.167,247.833 340,244.5C 339.722,243.584 339.222,242.918 338.5,242.5 Z"/></g>
<g><path style="opacity:1" fill="#e2684c" d="M 378.5,245.5 C 382.953,246.65 386.786,248.984 390,252.5C 390.72,254.112 390.554,255.612 389.5,257C 386.97,258.422 384.303,258.755 381.5,258C 377.095,256.963 373.095,255.129 369.5,252.5C 367.832,250.009 368.166,247.842 370.5,246C 373.146,245.503 375.813,245.336 378.5,245.5 Z"/></g>
<g><path style="opacity:1" fill="#f7bfbe" d="M 140.5,233.5 C 142.179,243.874 141.346,254.207 138,264.5C 132.081,269.42 127.248,275.253 123.5,282C 123.743,282.902 124.077,283.735 124.5,284.5C 113.515,292.329 102.182,299.662 90.5,306.5C 87.1667,306.5 83.8333,306.5 80.5,306.5C 80.1736,297.651 80.507,288.984 81.5,280.5C 81.3398,282.199 81.5065,283.866 82,285.5C 101.167,273 120.333,260.5 139.5,248C 140.46,244.27 140.793,240.437 140.5,236.5C 140.5,235.5 140.5,234.5 140.5,233.5 Z"/></g>
<g><path style="opacity:1" fill="#f9bab4" d="M 221.5,247.5 C 222.239,247.369 222.906,247.536 223.5,248C 183.73,273.44 144.23,299.273 105,325.5C 104.802,323.618 104.302,321.952 103.5,320.5C 103.371,318.784 103.038,317.117 102.5,315.5C 102.937,313.926 103.937,312.759 105.5,312C 137.574,291.64 169.241,270.807 200.5,249.5C 207.615,249.826 214.615,249.159 221.5,247.5 Z"/></g>
<g><path style="opacity:1" fill="#f8b4b4" d="M 213.5,268.5 C 172.321,294.921 131.321,321.587 90.5,348.5C 76.6056,347.727 70.4389,340.394 72,326.5C 74.7764,318.353 80.2764,314.186 88.5,314C 96.3935,317.121 98.3935,322.454 94.5,330C 95.1379,333.293 97.1379,334.293 100.5,333C 102.926,329.199 103.926,325.032 103.5,320.5C 104.302,321.952 104.802,323.618 105,325.5C 144.23,299.273 183.73,273.44 223.5,248C 222.906,247.536 222.239,247.369 221.5,247.5C 222.943,246.297 224.609,245.797 226.5,246C 220.723,252.728 216.389,260.228 213.5,268.5 Z"/></g>
<g><path style="opacity:1" fill="#f7b9b9" d="M 200.5,249.5 C 169.241,270.807 137.574,291.64 105.5,312C 103.937,312.759 102.937,313.926 102.5,315.5C 99.5765,311.041 95.5765,308.041 90.5,306.5C 102.182,299.662 113.515,292.329 124.5,284.5C 126.068,285.473 127.735,285.64 129.5,285C 145.023,267.229 164.356,255.563 187.5,250C 191.821,249.501 196.154,249.334 200.5,249.5 Z"/></g>
<g><path style="opacity:1" fill="#f4bb8d" d="M 382.5,242.5 C 388.748,244.204 393.914,247.538 398,252.5C 400.31,262.504 396.476,267.338 386.5,267C 378.437,264.8 371.103,261.3 364.5,256.5C 366.749,255.92 368.415,254.587 369.5,252.5C 373.095,255.129 377.095,256.963 381.5,258C 384.303,258.755 386.97,258.422 389.5,257C 390.554,255.612 390.72,254.112 390,252.5C 386.786,248.984 382.953,246.65 378.5,245.5C 380.404,245.262 381.738,244.262 382.5,242.5 Z"/></g>
<g><path style="opacity:1" fill="#ed947c" d="M 366.5,273.5 C 361.932,271.597 357.598,269.264 353.5,266.5C 354.614,265.115 355.614,263.615 356.5,262C 359.632,262.899 362.632,264.399 365.5,266.5C 366.474,268.743 366.808,271.076 366.5,273.5 Z"/></g>
<g><path style="opacity:1" fill="#f5d6c3" d="M 353.5,266.5 C 357.598,269.264 361.932,271.597 366.5,273.5C 356.249,304.024 339.915,330.691 317.5,353.5C 314.275,352.763 310.941,352.097 307.5,351.5C 311.012,346.8 312.845,341.466 313,335.5C 329.035,330.13 338.702,319.13 342,302.5C 342.424,296.138 342.424,289.805 342,283.5C 346.339,278.15 350.172,272.484 353.5,266.5 Z"/></g>
<g><path style="opacity:1" fill="#d57481" d="M 445.5,292.5 C 433.118,288.766 425.618,293.099 423,305.5C 422.406,311.856 422.573,318.189 423.5,324.5C 424.281,330.859 425.281,337.192 426.5,343.5C 426.5,346.833 426.5,350.167 426.5,353.5C 426.175,361.352 426.508,369.018 427.5,376.5C 425.877,377.779 424.21,379.113 422.5,380.5C 421.215,348.093 417.048,316.093 410,284.5C 408.59,278.512 406.423,272.845 403.5,267.5C 419.177,272.685 433.177,281.018 445.5,292.5 Z"/></g>
<g><path style="opacity:1" fill="#f8b4ae" d="M 213.5,268.5 C 213.167,271.167 212.833,273.833 212.5,276.5C 211.593,278.657 210.927,280.99 210.5,283.5C 181.797,302.513 153.13,321.513 124.5,340.5C 114.991,341.79 105.991,344.456 97.5,348.5C 95.1667,348.5 92.8333,348.5 90.5,348.5C 131.321,321.587 172.321,294.921 213.5,268.5 Z"/></g>
<g><path style="opacity:1" fill="#eb927c" d="M 401.5,283.5 C 396.364,284.956 391.364,284.622 386.5,282.5C 386.5,279.833 386.5,277.167 386.5,274.5C 390.599,274.142 394.599,274.142 398.5,274.5C 399.801,277.427 400.801,280.427 401.5,283.5 Z"/></g>
<g><path style="opacity:1" fill="#f1f8f9" d="M 221.5,271.5 C 221.5,272.833 221.5,274.167 221.5,275.5C 249.5,276.167 277.5,276.833 305.5,277.5C 304.63,288.44 300.63,298.106 293.5,306.5C 279.879,318.497 265.545,319.497 250.5,309.5C 254.757,304.087 255.257,298.42 252,292.5C 249.966,289.141 247.632,288.808 245,291.5C 244.558,294.305 245.058,296.972 246.5,299.5C 246.332,301.171 245.665,302.504 244.5,303.5C 237.915,298.189 230.582,294.189 222.5,291.5C 220.956,287.891 220.29,284.057 220.5,280C 220.502,276.979 220.836,274.146 221.5,271.5 Z"/></g>
<g><path style="opacity:1" fill="#d87582" d="M 212.5,276.5 C 211.749,289.654 216.416,300.321 226.5,308.5C 218.345,323.452 220.345,336.952 232.5,349C 239.167,354.333 245.833,359.667 252.5,365C 248.656,367.422 244.99,370.089 241.5,373C 213.993,375.727 191.827,366.227 175,344.5C 172.449,340.065 170.449,335.399 169,330.5C 167.102,328.316 164.936,327.983 162.5,329.5C 161.178,324.007 163.178,321.507 168.5,322C 169.636,323.145 170.636,324.312 171.5,325.5C 173.5,329.5 176.5,332.5 180.5,334.5C 189.138,341.606 199.138,344.772 210.5,344C 211.804,343.196 212.471,342.029 212.5,340.5C 208.554,332.869 207.554,324.869 209.5,316.5C 210.806,313.889 212.139,311.222 213.5,308.5C 213.023,306.403 212.357,304.403 211.5,302.5C 209.299,296.28 208.965,289.946 210.5,283.5C 210.927,280.99 211.593,278.657 212.5,276.5 Z"/></g>
<g><path style="opacity:1" fill="#f4d5c4" d="M 386.5,282.5 C 391.364,284.622 396.364,284.956 401.5,283.5C 406.109,298.146 409.109,313.146 410.5,328.5C 402.642,326.782 394.642,326.115 386.5,326.5C 386.81,329.713 386.477,332.713 385.5,335.5C 386.283,317.845 386.616,300.178 386.5,282.5 Z"/></g>
<g><path style="opacity:1" fill="#f2aeae" d="M 210.5,283.5 C 208.965,289.946 209.299,296.28 211.5,302.5C 209.806,301.314 208.139,301.481 206.5,303C 195.116,311.02 183.45,318.52 171.5,325.5C 170.636,324.312 169.636,323.145 168.5,322C 163.178,321.507 161.178,324.007 162.5,329.5C 162.018,330.416 161.685,331.416 161.5,332.5C 162.467,334.762 163.134,337.095 163.5,339.5C 150.564,339.342 137.564,339.676 124.5,340.5C 153.13,321.513 181.797,302.513 210.5,283.5 Z"/></g>
<g><path style="opacity:1" fill="#b0c2ed" d="M 332.5,307.5 C 319.323,307.829 306.323,307.495 293.5,306.5C 300.63,298.106 304.63,288.44 305.5,277.5C 306.329,270.679 306.829,263.679 307,256.5C 309.193,250.2 310.36,243.7 310.5,237C 310.883,232.147 309.883,227.647 307.5,223.5C 309.162,222.015 310.995,220.682 313,219.5C 332.311,232.804 337.811,250.471 329.5,272.5C 322.591,276.538 319.091,274.538 319,266.5C 314.65,263.639 312.483,264.972 312.5,270.5C 314.37,281.938 320.703,285.271 331.5,280.5C 332.086,280.709 332.586,281.043 333,281.5C 335.159,290.272 334.992,298.939 332.5,307.5 Z"/></g>
<g><path style="opacity:1" fill="#f9cdcc" d="M 445.5,292.5 C 458.228,302.886 467.894,315.553 474.5,330.5C 474.38,331.586 473.713,332.253 472.5,332.5C 456.211,329.507 439.877,326.841 423.5,324.5C 422.573,318.189 422.406,311.856 423,305.5C 425.618,293.099 433.118,288.766 445.5,292.5 Z"/></g>
<g><path style="opacity:1" fill="#acbde6" d="M 222.5,291.5 C 230.582,294.189 237.915,298.189 244.5,303.5C 234.279,305.364 226.946,301.364 222.5,291.5 Z"/></g>
<g><path style="opacity:1" fill="#f2aea7" d="M 211.5,302.5 C 212.357,304.403 213.023,306.403 213.5,308.5C 212.139,311.222 210.806,313.889 209.5,316.5C 199.973,322.761 190.306,328.761 180.5,334.5C 176.5,332.5 173.5,329.5 171.5,325.5C 183.45,318.52 195.116,311.02 206.5,303C 208.139,301.481 209.806,301.314 211.5,302.5 Z"/></g>
<g><path style="opacity:1" fill="#f2a7a5" d="M 209.5,316.5 C 207.554,324.869 208.554,332.869 212.5,340.5C 212.471,342.029 211.804,343.196 210.5,344C 199.138,344.772 189.138,341.606 180.5,334.5C 190.306,328.761 199.973,322.761 209.5,316.5 Z"/></g>
<g><path style="opacity:1" fill="#a9bae6" d="M 293.5,306.5 C 306.323,307.495 319.323,307.829 332.5,307.5C 326.639,322.438 315.639,329.271 299.5,328C 298.231,325.861 298.231,323.695 299.5,321.5C 302.603,321.077 305.436,320.077 308,318.5C 308.686,314.13 306.686,312.13 302,312.5C 290.866,315.437 287.866,322.104 293,332.5C 294.271,333.883 295.771,334.883 297.5,335.5C 276.006,336.497 254.34,336.831 232.5,336.5C 227.089,328.479 227.255,320.479 233,312.5C 236.301,312.501 239.801,312.334 243.5,312C 246.03,311.621 248.363,310.787 250.5,309.5C 265.545,319.497 279.879,318.497 293.5,306.5 Z"/></g>
<g><path style="opacity:1" fill="#f9c7c5" d="M 423.5,324.5 C 439.877,326.841 456.211,329.507 472.5,332.5C 473.713,332.253 474.38,331.586 474.5,330.5C 477.803,336.402 480.136,342.736 481.5,349.5C 481.5,350.5 481.5,351.5 481.5,352.5C 463.104,349.823 444.771,346.823 426.5,343.5C 425.281,337.192 424.281,330.859 423.5,324.5 Z"/></g>
<g><path style="opacity:1" fill="#e98b76" d="M 337.5,367.5 C 339.334,363.521 340.834,359.521 342,355.5C 332.789,364.52 321.955,370.52 309.5,373.5C 330.228,353.278 347.728,330.612 362,305.5C 360.734,329.011 352.568,349.678 337.5,367.5 Z"/></g>
<g><path style="opacity:1" fill="#f7d7bf" d="M 410.5,328.5 C 411.664,338.481 412.664,348.481 413.5,358.5C 403.979,356.931 394.313,355.598 384.5,354.5C 384.767,348.162 385.1,341.829 385.5,335.5C 386.477,332.713 386.81,329.713 386.5,326.5C 394.642,326.115 402.642,326.782 410.5,328.5 Z"/></g>
<g><path style="opacity:1" fill="#a5b3df" d="M 297.5,335.5 C 300.054,336.388 302.721,336.721 305.5,336.5C 304.776,341.842 302.443,346.342 298.5,350C 287.056,358.36 274.39,361.693 260.5,360C 249.462,354.123 240.129,346.29 232.5,336.5C 254.34,336.831 276.006,336.497 297.5,335.5 Z"/></g>
<g><path style="opacity:1" fill="#e88c76" d="M 373.5,270.5 C 375.117,271.038 376.784,271.371 378.5,271.5C 379.522,306.283 378.189,340.95 374.5,375.5C 366.561,381.486 357.895,385.152 348.5,386.5C 363.986,349.404 372.32,310.737 373.5,270.5 Z"/></g>
<g><path style="opacity:1" fill="#d57581" d="M 163.5,339.5 C 165.266,342.188 166.933,345.021 168.5,348C 167.333,348.167 166.167,348.333 165,348.5C 142.486,344.512 119.986,344.512 97.5,348.5C 105.991,344.456 114.991,341.79 124.5,340.5C 137.564,339.676 150.564,339.342 163.5,339.5 Z"/></g>
<g><path style="opacity:1" fill="#f6d6b8" d="M 307.5,351.5 C 310.941,352.097 314.275,352.763 317.5,353.5C 312.203,359.298 306.703,364.965 301,370.5C 300.013,374.506 301.513,376.339 305.5,376C 306.471,374.519 307.804,373.685 309.5,373.5C 321.955,370.52 332.789,364.52 342,355.5C 340.834,359.521 339.334,363.521 337.5,367.5C 334.415,372.672 331.081,377.672 327.5,382.5C 301.071,380.799 274.738,379.132 248.5,377.5C 252.098,374.687 255.765,371.853 259.5,369C 278.131,369.96 294.131,364.127 307.5,351.5 Z"/></g>
<g><path style="opacity:1" fill="#f9c0bc" d="M 426.5,343.5 C 444.771,346.823 463.104,349.823 481.5,352.5C 481.5,351.5 481.5,350.5 481.5,349.5C 483.691,355.587 485.358,361.92 486.5,368.5C 484.167,368.5 481.833,368.5 479.5,368.5C 462.181,365.74 444.848,363.073 427.5,360.5C 427.802,357.941 427.468,355.607 426.5,353.5C 426.5,350.167 426.5,346.833 426.5,343.5 Z"/></g>
<g><path style="opacity:1" fill="#f8d8b9" d="M 384.5,354.5 C 394.313,355.598 403.979,356.931 413.5,358.5C 413.626,367.509 413.959,376.509 414.5,385.5C 403.823,385.433 393.156,385.099 382.5,384.5C 382.5,383.5 382.5,382.5 382.5,381.5C 382.76,372.458 383.426,363.458 384.5,354.5 Z"/></g>
<g><path style="opacity:1" fill="#362c3e" d="M 216.5,356.5 C 220.65,356.601 224.483,357.601 228,359.5C 228.976,363.534 227.309,365.534 223,365.5C 220.815,365.079 218.649,364.579 216.5,364C 213.914,361.506 213.914,359.006 216.5,356.5 Z"/></g>
<g><path style="opacity:1" fill="#f5b4b3" d="M 426.5,353.5 C 427.468,355.607 427.802,357.941 427.5,360.5C 444.848,363.073 462.181,365.74 479.5,368.5C 467.666,373.858 464.499,382.524 470,394.5C 474.223,398.383 479.056,399.383 484.5,397.5C 485.91,395.051 485.576,392.884 483.5,391C 473.159,389.37 471.826,384.703 479.5,377C 489.758,375.92 495.092,380.587 495.5,391C 494.864,402.136 489.198,409.303 478.5,412.5C 478.389,411.883 478.056,411.383 477.5,411C 460.173,408.057 442.84,405.223 425.5,402.5C 425.178,398.253 426.011,394.253 428,390.5C 431.038,387.631 433.871,384.631 436.5,381.5C 439.079,380.772 441.746,380.272 444.5,380C 445.833,378 445.833,376 444.5,374C 438.565,373.122 432.899,373.955 427.5,376.5C 426.508,369.018 426.175,361.352 426.5,353.5 Z"/></g>
<g><path style="opacity:1" fill="#a4b3df" d="M 200.5,396.5 C 191.818,395.986 183.152,395.319 174.5,394.5C 174.795,392.265 174.461,390.265 173.5,388.5C 170.419,377.598 163.086,371.931 151.5,371.5C 147.468,371.217 144.468,372.717 142.5,376C 142.735,376.873 143.069,377.707 143.5,378.5C 148.132,379.328 152.798,379.828 157.5,380C 161.748,381.413 164.415,384.246 165.5,388.5C 165.5,390.167 165.5,391.833 165.5,393.5C 150.472,392.857 135.472,391.857 120.5,390.5C 117.505,380.439 119.338,371.105 126,362.5C 128.833,359.667 131.667,356.833 134.5,354C 147.826,353.291 160.826,354.957 173.5,359C 188.477,367.095 197.477,379.595 200.5,396.5 Z"/></g>
<g><path style="opacity:1" fill="#d57380" d="M 201.5,375.5 C 209.912,378.603 218.579,380.77 227.5,382C 221.499,386.336 215.166,390.169 208.5,393.5C 206.157,387.484 203.823,381.484 201.5,375.5 Z"/></g>
<g><path style="opacity:1" fill="#f7d2b2" d="M 248.5,377.5 C 274.738,379.132 301.071,380.799 327.5,382.5C 319.511,392.487 311.178,402.153 302.5,411.5C 291.033,410.009 279.366,409.342 267.5,409.5C 268.301,407.958 268.634,406.292 268.5,404.5C 269.493,399.325 267.493,397.491 262.5,399C 244.337,410.082 225.337,419.582 205.5,427.5C 198.194,424.688 193.528,419.522 191.5,412C 211.164,401.506 230.164,390.006 248.5,377.5 Z"/></g>
<g><path style="opacity:1" fill="#d67481" d="M 436.5,381.5 C 433.871,384.631 431.038,387.631 428,390.5C 426.011,394.253 425.178,398.253 425.5,402.5C 425.029,404.579 424.363,406.579 423.5,408.5C 417.904,415.27 412.071,421.936 406,428.5C 403.169,435.84 405.669,439.84 413.5,440.5C 412.286,443.93 410.786,447.264 409,450.5C 407.859,453.857 409.025,455.857 412.5,456.5C 416.617,454.691 420.784,453.024 425,451.5C 428.319,452.131 429.652,454.131 429,457.5C 423.209,461.622 417.709,466.122 412.5,471C 405.924,472.377 399.257,472.877 392.5,472.5C 394.343,456.424 396.676,440.424 399.5,424.5C 407.795,418.704 415.295,412.037 422,404.5C 419.701,392.305 424.534,384.638 436.5,381.5 Z"/></g>
<g><path style="opacity:1" fill="#312e3e" d="M 282.5,384.5 C 289.004,384.138 290.671,386.638 287.5,392C 281.785,392.401 280.119,389.901 282.5,384.5 Z"/></g>
<g><path style="opacity:1" fill="#f6d1b2" d="M 382.5,381.5 C 382.5,382.5 382.5,383.5 382.5,384.5C 393.156,385.099 403.823,385.433 414.5,385.5C 414.91,391.621 414.41,397.621 413,403.5C 402.642,414.698 390.142,422.365 375.5,426.5C 377.964,411.39 380.298,396.39 382.5,381.5 Z"/></g>
<g><path style="opacity:1" fill="#9facdc" d="M 165.5,388.5 C 166.625,398.594 161.958,404.761 151.5,407C 140.087,409.418 130.587,406.251 123,397.5C 121.589,395.35 120.755,393.016 120.5,390.5C 135.472,391.857 150.472,392.857 165.5,393.5C 165.5,391.833 165.5,390.167 165.5,388.5 Z"/></g>
<g><path style="opacity:1" fill="#f1aea7" d="M 425.5,402.5 C 442.84,405.223 460.173,408.057 477.5,411C 478.056,411.383 478.389,411.883 478.5,412.5C 473.92,414.694 469.254,416.694 464.5,418.5C 451.09,415.431 437.423,413.098 423.5,411.5C 423.5,410.5 423.5,409.5 423.5,408.5C 424.363,406.579 425.029,404.579 425.5,402.5 Z"/></g>
<g><path style="opacity:1" fill="#f8d2ad" d="M 267.5,409.5 C 279.366,409.342 291.033,410.009 302.5,411.5C 291.085,423.584 278.752,434.584 265.5,444.5C 255.638,443.057 245.638,442.057 235.5,441.5C 247.806,432.527 258.473,421.861 267.5,409.5 Z"/></g>
<g><path style="opacity:1" fill="#f8d2ae" d="M 347.5,400.5 C 341.129,417.587 332.463,433.253 321.5,447.5C 321.389,446.883 321.056,446.383 320.5,446C 313.174,445.5 305.841,445.334 298.5,445.5C 312.05,431.888 324.05,417.054 334.5,401C 338.821,400.501 343.154,400.334 347.5,400.5 Z"/></g>
<g><path style="opacity:1" fill="#9bacd7" d="M 173.5,388.5 C 174.461,390.265 174.795,392.265 174.5,394.5C 183.152,395.319 191.818,395.986 200.5,396.5C 196.461,400.035 191.794,402.869 186.5,405C 182.952,415.1 185.619,423.434 194.5,430C 196.917,431.626 199.417,433.126 202,434.5C 202.735,438.813 203.235,443.147 203.5,447.5C 186.034,448.965 171.868,442.965 161,429.5C 158.378,424.967 156.545,420.134 155.5,415C 158.473,412.509 161.806,410.509 165.5,409C 171.796,403.617 174.462,396.784 173.5,388.5 Z"/></g>
<g><path style="opacity:1" fill="#df826f" d="M 268.5,404.5 C 268.634,406.292 268.301,407.958 267.5,409.5C 258.473,421.861 247.806,432.527 235.5,441.5C 228.14,445.349 220.473,448.349 212.5,450.5C 210.753,444.862 210.086,439.195 210.5,433.5C 230.696,425.402 250.03,415.735 268.5,404.5 Z"/></g>
<g><path style="opacity:1" fill="#f1a5a1" d="M 423.5,408.5 C 423.5,409.5 423.5,410.5 423.5,411.5C 437.423,413.098 451.09,415.431 464.5,418.5C 452.986,423.211 440.986,426.045 428.5,427C 421.383,429.29 416.383,433.79 413.5,440.5C 405.669,439.84 403.169,435.84 406,428.5C 412.071,421.936 417.904,415.27 423.5,408.5 Z"/></g>
<g><path style="opacity:1" fill="#f7cfa6" d="M 235.5,441.5 C 245.638,442.057 255.638,443.057 265.5,444.5C 252.073,454.726 237.74,463.726 222.5,471.5C 217.834,465.166 214.5,458.166 212.5,450.5C 220.473,448.349 228.14,445.349 235.5,441.5 Z"/></g>
<g><path style="opacity:1" fill="#e18471" d="M 347.5,400.5 C 343.154,400.334 338.821,400.501 334.5,401C 324.05,417.054 312.05,431.888 298.5,445.5C 282.817,460.188 265.483,472.521 246.5,482.5C 240.558,481.575 234.891,479.742 229.5,477C 278.391,450.293 317.891,413.46 348,366.5C 344.84,375.174 341.34,383.841 337.5,392.5C 337.529,394.029 338.196,395.196 339.5,396C 342.531,396.495 345.531,396.329 348.5,395.5C 348.371,397.216 348.038,398.883 347.5,400.5 Z"/></g>
<g><path style="opacity:1" fill="#e08471" d="M 320.5,492.5 C 346.223,465.711 361.223,433.711 365.5,396.5C 362.402,396.756 359.402,397.422 356.5,398.5C 356.565,396.304 357.232,394.304 358.5,392.5C 363.419,390.204 368.419,388.204 373.5,386.5C 372.233,407.772 368.066,428.439 361,448.5C 353.568,465.591 342.735,480.091 328.5,492C 325.854,492.497 323.187,492.664 320.5,492.5 Z"/></g>
<g><path style="opacity:1" fill="#f8cda5" d="M 298.5,445.5 C 305.841,445.334 313.174,445.5 320.5,446C 321.056,446.383 321.389,446.883 321.5,447.5C 309.335,463.165 295.335,476.998 279.5,489C 268.008,488.873 257.008,486.706 246.5,482.5C 265.483,472.521 282.817,460.188 298.5,445.5 Z"/></g>
<g><path style="opacity:1" fill="#f7cda6" d="M 320.5,492.5 C 309.833,493.59 299.166,493.257 288.5,491.5C 320.485,467.201 343.152,436.201 356.5,398.5C 359.402,397.422 362.402,396.756 365.5,396.5C 361.223,433.711 346.223,465.711 320.5,492.5 Z"/></g>
<g><path style="opacity:1" fill="#df816f" d="M 388.5,429.5 C 389.649,429.791 390.316,430.624 390.5,432C 388.851,446.244 386.685,460.411 384,474.5C 371.221,482.647 357.388,487.813 342.5,490C 357.33,474.519 367.664,456.352 373.5,435.5C 378.897,434.247 383.897,432.247 388.5,429.5 Z"/></g>
</svg>
