<?xml version="1.0" encoding="UTF-8"?>
<!DOCTYPE svg PUBLIC "-//W3C//DTD SVG 1.1//EN" "http://www.w3.org/Graphics/SVG/1.1/DTD/svg11.dtd">
<svg xmlns="http://www.w3.org/2000/svg" version="1.1" width="512px" height="512px" style="shape-rendering:geometricPrecision; text-rendering:geometricPrecision; image-rendering:optimizeQuality; fill-rule:evenodd; clip-rule:evenodd" xmlns:xlink="http://www.w3.org/1999/xlink">
<g><path style="opacity:1" fill="#39394c" d="M 236.5,21.5 C 334.475,18.0593 408.975,57.726 460,140.5C 494.847,207.013 498.847,275.347 472,345.5C 443.275,411.559 394.775,456.059 326.5,479C 245.354,501.981 171.688,487.648 105.5,436C 42.3221,380.098 14.8221,309.931 23,225.5C 39.0922,129.415 92.9255,64.9149 184.5,32C 201.651,26.8686 218.985,23.3686 236.5,21.5 Z"/></g>
<g><path style="opacity:1" fill="#d1bff0" d="M 268.5,32.5 C 264.486,32.3345 260.486,32.5012 256.5,33C 249.833,40.3333 243.167,47.6667 236.5,55C 237.448,55.4828 238.448,55.6495 239.5,55.5C 156.46,66.0304 98.9605,110.03 67,187.5C 59.0563,210.496 55.223,234.162 55.5,258.5C 54.6829,256.031 54.1829,253.365 54,250.5C 47.3333,257.833 40.6667,265.167 34,272.5C 33.5034,274.81 33.3367,277.143 33.5,279.5C 26.6182,200.645 52.9515,135.145 112.5,83C 158,45.9998 210,29.1664 268.5,32.5 Z"/></g>
<g><path style="opacity:1" fill="#d7c6f1" d="M 268.5,32.5 C 303.546,34.4246 336.213,44.0913 366.5,61.5C 361.397,67.1047 356.064,72.6047 350.5,78C 351.056,78.3826 351.389,78.8826 351.5,79.5C 316.387,61.4229 279.054,53.4229 239.5,55.5C 238.448,55.6495 237.448,55.4828 236.5,55C 243.167,47.6667 249.833,40.3333 256.5,33C 260.486,32.5012 264.486,32.3345 268.5,32.5 Z"/></g>
<g><path style="opacity:1" fill="#3b3b4e" d="M 239.5,55.5 C 279.054,53.4229 316.387,61.4229 351.5,79.5C 369.524,89.8418 385.857,102.508 400.5,117.5C 405.157,123.489 410.157,129.156 415.5,134.5C 433.793,159.764 446.127,187.764 452.5,218.5C 464.082,300.63 437.416,367.13 372.5,418C 330.643,446.882 284.309,459.049 233.5,454.5C 201.971,451.103 172.971,440.769 146.5,423.5C 140.523,419.199 134.523,414.865 128.5,410.5C 112.304,396.646 98.3036,380.979 86.5,363.5C 67.0245,331.277 56.6912,296.277 55.5,258.5C 55.223,234.162 59.0563,210.496 67,187.5C 98.9605,110.03 156.46,66.0304 239.5,55.5 Z"/></g>
<g><path style="opacity:1" fill="#d9ccf1" d="M 366.5,61.5 C 385.017,72.096 401.683,85.096 416.5,100.5C 410.481,105.552 405.148,111.219 400.5,117.5C 385.857,102.508 369.524,89.8418 351.5,79.5C 351.389,78.8826 351.056,78.3826 350.5,78C 356.064,72.6047 361.397,67.1047 366.5,61.5 Z"/></g>
<g><path style="opacity:1" fill="#f6f6f6" d="M 237.5,65.5 C 317.588,62.1207 378.755,94.1207 421,161.5C 453.319,223.298 453.653,285.298 422,347.5C 379.85,416.665 318.017,449.165 236.5,445C 162.124,434.413 109.624,394.913 79,326.5C 50.278,243.225 67.778,171.391 131.5,111C 162.365,85.4335 197.698,70.2669 237.5,65.5 Z"/></g>
<g><path style="opacity:1" fill="#3a3a4d" d="M 235.5,81.5 C 309.068,77.0341 365.901,105.367 406,166.5C 428.857,206.23 435.524,248.563 426,293.5C 408.883,358.617 368.383,401.783 304.5,423C 233.297,440.913 172.797,423.08 123,369.5C 83.712,320.882 72.0453,266.215 88,205.5C 112.683,134.925 161.85,93.592 235.5,81.5 Z"/></g>
<g><path style="opacity:1" fill="#a1a1e0" d="M 244.5,91.5 C 245.833,91.5 247.167,91.5 248.5,91.5C 232.928,119.74 216.928,147.74 200.5,175.5C 187.833,175.5 175.167,175.5 162.5,175.5C 177.431,149.969 192.098,124.302 206.5,98.5C 218.759,94.1154 231.425,91.7821 244.5,91.5 Z"/></g>
<g><path style="opacity:1" fill="#a19ce1" d="M 248.5,91.5 C 250.924,91.1924 253.257,91.5258 255.5,92.5C 239.5,119.833 223.5,147.167 207.5,174.5C 205.257,175.474 202.924,175.808 200.5,175.5C 216.928,147.74 232.928,119.74 248.5,91.5 Z"/></g>
<g><path style="opacity:1" fill="#9d98d4" d="M 244.5,91.5 C 258.661,89.8543 272.661,90.8543 286.5,94.5C 281.526,101.095 277.026,108.095 273,115.5C 271.872,117.345 271.372,119.345 271.5,121.5C 265.553,110.021 256.886,107.521 245.5,114C 232.915,134.501 220.582,155.168 208.5,176C 186.169,176.5 163.836,176.667 141.5,176.5C 148.313,175.509 155.313,175.175 162.5,175.5C 175.167,175.5 187.833,175.5 200.5,175.5C 202.924,175.808 205.257,175.474 207.5,174.5C 223.5,147.167 239.5,119.833 255.5,92.5C 253.257,91.5258 250.924,91.1924 248.5,91.5C 247.167,91.5 245.833,91.5 244.5,91.5 Z"/></g>
<g><path style="opacity:1" fill="#a195d8" d="M 286.5,94.5 C 299.141,96.323 311.141,99.9896 322.5,105.5C 313.526,123.451 303.526,140.785 292.5,157.5C 285.5,145.5 278.5,133.5 271.5,121.5C 271.372,119.345 271.872,117.345 273,115.5C 277.026,108.095 281.526,101.095 286.5,94.5 Z"/></g>
<g><path style="opacity:1" fill="#a2a8e0" d="M 206.5,98.5 C 192.098,124.302 177.431,149.969 162.5,175.5C 155.313,175.175 148.313,175.509 141.5,176.5C 129.339,179.147 125.172,186.48 129,198.5C 132.328,204.647 135.828,210.647 139.5,216.5C 125.63,237.876 112.464,259.876 100,282.5C 98.629,285.266 96.7957,287.599 94.5,289.5C 83.104,226.854 100.771,174.021 147.5,131C 164.777,116.024 184.444,105.191 206.5,98.5 Z"/></g>
<g><path style="opacity:1" fill="#deccf7" d="M 416.5,100.5 C 421.843,105.844 426.843,111.511 431.5,117.5C 425.462,122.537 420.129,128.203 415.5,134.5C 410.157,129.156 405.157,123.489 400.5,117.5C 405.148,111.219 410.481,105.552 416.5,100.5 Z"/></g>
<g><path style="opacity:1" fill="#3a3a4d" d="M 271.5,121.5 C 278.5,133.5 285.5,145.5 292.5,157.5C 295.778,163.887 299.444,170.053 303.5,176C 325.831,176.5 348.164,176.667 370.5,176.5C 380.254,177.924 384.92,183.591 384.5,193.5C 373.723,214.625 362.056,235.292 349.5,255.5C 352.228,259.873 354.895,264.206 357.5,268.5C 362.137,277.118 367.137,285.451 372.5,293.5C 375.412,300.332 379.079,306.666 383.5,312.5C 386.765,323.98 382.765,331.313 371.5,334.5C 348.661,334.169 325.994,334.503 303.5,335.5C 290.667,355.828 278.333,376.495 266.5,397.5C 258.494,402.082 250.994,401.416 244,395.5C 241.822,391.806 239.655,388.139 237.5,384.5C 235.07,379.963 232.403,375.63 229.5,371.5C 225.862,364.85 222.195,358.184 218.5,351.5C 215.392,345.886 212.059,340.386 208.5,335C 186.503,334.5 164.503,334.333 142.5,334.5C 130.624,333.106 125.791,326.439 128,314.5C 139.333,295.167 150.667,275.833 162,256.5C 162.585,255.002 162.085,254.002 160.5,253.5C 160.25,251.326 159.25,249.659 157.5,248.5C 151.928,237.594 145.928,226.928 139.5,216.5C 135.828,210.647 132.328,204.647 129,198.5C 125.172,186.48 129.339,179.147 141.5,176.5C 163.836,176.667 186.169,176.5 208.5,176C 220.582,155.168 232.915,134.501 245.5,114C 256.886,107.521 265.553,110.021 271.5,121.5 Z"/></g>
<g><path style="opacity:1" fill="#9c8dd2" d="M 322.5,105.5 C 327.265,107.382 331.932,109.548 336.5,112C 341.916,115.03 346.916,118.53 351.5,122.5C 341.556,140.22 331.223,157.72 320.5,175C 328.5,175.667 336.5,175.667 344.5,175C 352.305,161.888 359.971,148.721 367.5,135.5C 371.167,138.5 374.5,141.833 377.5,145.5C 370.799,154.535 364.799,164.202 359.5,174.5C 363.313,175.167 366.979,175.834 370.5,176.5C 348.164,176.667 325.831,176.5 303.5,176C 299.444,170.053 295.778,163.887 292.5,157.5C 303.526,140.785 313.526,123.451 322.5,105.5 Z"/></g>
<g><path style="opacity:1" fill="#dfd2f7" d="M 431.5,117.5 C 450.863,142.241 464.529,169.907 472.5,200.5C 471.883,200.389 471.383,200.056 471,199.5C 465.329,206.337 459.162,212.671 452.5,218.5C 446.127,187.764 433.793,159.764 415.5,134.5C 420.129,128.203 425.462,122.537 431.5,117.5 Z"/></g>
<g><path style="opacity:1" fill="#f4f4f5" d="M 252.5,120.5 C 255.97,119.875 258.804,120.875 261,123.5C 270.914,140.998 281.081,158.331 291.5,175.5C 287.5,176.833 283.5,176.833 279.5,175.5C 272.833,164.167 266.167,152.833 259.5,141.5C 257.344,139.062 255.011,138.895 252.5,141C 232.378,176.08 211.878,210.914 191,245.5C 188.966,242.294 187.133,238.96 185.5,235.5C 208.097,197.303 230.431,158.97 252.5,120.5 Z"/></g>
<g><path style="opacity:1" fill="#9b88d3" d="M 351.5,122.5 C 355.456,124.485 359.122,126.985 362.5,130C 364.373,131.704 366.04,133.537 367.5,135.5C 359.971,148.721 352.305,161.888 344.5,175C 336.5,175.667 328.5,175.667 320.5,175C 331.223,157.72 341.556,140.22 351.5,122.5 Z"/></g>
<g><path style="opacity:1" fill="#9b82cc" d="M 377.5,145.5 C 385.721,154.274 392.721,163.94 398.5,174.5C 393.942,179.927 390.109,185.927 387,192.5C 386.329,193.252 385.496,193.586 384.5,193.5C 384.92,183.591 380.254,177.924 370.5,176.5C 366.979,175.834 363.313,175.167 359.5,174.5C 364.799,164.202 370.799,154.535 377.5,145.5 Z"/></g>
<g><path style="opacity:1" fill="#9e93d5" d="M 255.5,155.5 C 259.97,162.16 264.304,168.993 268.5,176C 260.167,176.667 251.833,176.667 243.5,176C 247.385,169.057 251.385,162.224 255.5,155.5 Z"/></g>
<g><path style="opacity:1" fill="#9a7ccc" d="M 398.5,174.5 C 401.341,178.849 403.674,183.516 405.5,188.5C 390.093,214.308 374.926,240.308 360,266.5C 359.292,267.381 358.458,268.047 357.5,268.5C 354.895,264.206 352.228,259.873 349.5,255.5C 362.056,235.292 373.723,214.625 384.5,193.5C 385.496,193.586 386.329,193.252 387,192.5C 390.109,185.927 393.942,179.927 398.5,174.5 Z"/></g>
<g><path style="opacity:1" fill="#f6f6f6" d="M 139.5,186.5 C 160.503,186.333 181.503,186.5 202.5,187C 200.455,189.586 198.789,192.42 197.5,195.5C 184.179,196.333 170.846,196.833 157.5,197C 155.876,198.117 154.876,199.617 154.5,201.5C 174.129,235.477 193.796,269.477 213.5,303.5C 209.878,304.659 206.211,304.825 202.5,304C 181.126,267.418 159.626,230.918 138,194.5C 137.109,191.502 137.609,188.836 139.5,186.5 Z"/></g>
<g><path style="opacity:1" fill="#f8f8f8" d="M 352.5,196.5 C 312.656,196.165 272.989,195.165 233.5,193.5C 234.446,191.11 235.779,188.944 237.5,187C 282.5,186.333 327.5,186.333 372.5,187C 374.396,188.808 374.896,190.975 374,193.5C 364,210.833 354,228.167 344,245.5C 341.896,242.29 340.063,238.957 338.5,235.5C 344.398,224.707 350.565,214.041 357,203.5C 357.764,199.756 356.264,197.423 352.5,196.5 Z"/></g>
<g><path style="opacity:1" fill="#9b7cc7" d="M 405.5,188.5 C 410.686,198.547 414.353,209.213 416.5,220.5C 414.926,220.937 413.759,221.937 413,223.5C 399.672,246.98 386.172,270.313 372.5,293.5C 367.137,285.451 362.137,277.118 357.5,268.5C 358.458,268.047 359.292,267.381 360,266.5C 374.926,240.308 390.093,214.308 405.5,188.5 Z"/></g>
<g><path style="opacity:1" fill="#e0e0e6" d="M 233.5,193.5 C 272.989,195.165 312.656,196.165 352.5,196.5C 312.165,196.667 271.832,196.5 231.5,196C 232.066,195.005 232.733,194.172 233.5,193.5 Z"/></g>
<g><path style="opacity:1" fill="#9f9bdc" d="M 168.5,207.5 C 175.677,206.181 183.01,206.181 190.5,207.5C 186.8,213.37 183.3,219.37 180,225.5C 175.909,219.594 172.076,213.594 168.5,207.5 Z"/></g>
<g><path style="opacity:1" fill="#a195d9" d="M 257.5,206.5 C 243.214,232.096 228.214,257.096 212.5,281.5C 207.006,273.185 202.006,264.519 197.5,255.5C 206.438,239.126 215.772,222.959 225.5,207C 236.161,206.5 246.828,206.333 257.5,206.5 Z"/></g>
<g><path style="opacity:1" fill="#a195d3" d="M 257.5,206.5 C 259.833,206.5 262.167,206.5 264.5,206.5C 248.485,233.869 232.485,261.202 216.5,288.5C 214.914,286.33 213.58,283.996 212.5,281.5C 228.214,257.096 243.214,232.096 257.5,206.5 Z"/></g>
<g><path style="opacity:1" fill="#9d8ed3" d="M 264.5,206.5 C 271.841,206.334 279.174,206.5 286.5,207C 289.304,211.445 291.971,215.945 294.5,220.5C 278.182,248.465 261.848,276.465 245.5,304.5C 238.825,304.666 232.158,304.5 225.5,304C 222.362,298.888 219.362,293.721 216.5,288.5C 232.485,261.202 248.485,233.869 264.5,206.5 Z"/></g>
<g><path style="opacity:1" fill="#f6f6f6" d="M 298.5,206.5 C 302.182,206.335 305.848,206.501 309.5,207C 330.874,243.582 352.374,280.082 374,316.5C 374.944,319.347 374.444,321.847 372.5,324C 351.5,324.667 330.5,324.667 309.5,324C 311.041,321.084 312.707,318.251 314.5,315.5C 327.821,314.667 341.154,314.167 354.5,314C 356.124,312.883 357.124,311.383 357.5,309.5C 337.573,275.312 317.906,240.979 298.5,206.5 Z"/></g>
<g><path style="opacity:1" fill="#9986cb" d="M 321.5,206.5 C 328.841,206.334 336.174,206.5 343.5,207C 339.541,213.083 335.708,219.249 332,225.5C 328.243,219.26 324.743,212.926 321.5,206.5 Z"/></g>
<g><path style="opacity:1" fill="#e4d7f7" d="M 472.5,200.5 C 483.849,246.071 481.183,290.738 464.5,334.5C 464.631,333.761 464.464,333.094 464,332.5C 424.238,374.423 385.071,416.756 346.5,459.5C 304.219,478.347 260.219,483.68 214.5,475.5C 220.464,468.201 226.797,461.201 233.5,454.5C 284.309,459.049 330.643,446.882 372.5,418C 437.416,367.13 464.082,300.63 452.5,218.5C 459.162,212.671 465.329,206.337 471,199.5C 471.383,200.056 471.883,200.389 472.5,200.5 Z"/></g>
<g><path style="opacity:1" fill="#a1a1e0" d="M 139.5,216.5 C 145.928,226.928 151.928,237.594 157.5,248.5C 141.485,275.869 125.485,303.202 109.5,330.5C 102.576,317.63 97.5757,303.963 94.5,289.5C 96.7957,287.599 98.629,285.266 100,282.5C 112.464,259.876 125.63,237.876 139.5,216.5 Z"/></g>
<g><path style="opacity:1" fill="#9b88d3" d="M 294.5,220.5 C 298.687,226.873 302.353,233.539 305.5,240.5C 293.5,261.833 281.5,283.167 269.5,304.5C 261.5,304.5 253.5,304.5 245.5,304.5C 261.848,276.465 278.182,248.465 294.5,220.5 Z"/></g>
<g><path style="opacity:1" fill="#9b75c7" d="M 416.5,220.5 C 418.237,228.059 419.237,235.725 419.5,243.5C 420.007,248.121 419.174,252.454 417,256.5C 406.059,275.396 394.892,294.062 383.5,312.5C 379.079,306.666 375.412,300.332 372.5,293.5C 386.172,270.313 399.672,246.98 413,223.5C 413.759,221.937 414.926,220.937 416.5,220.5 Z"/></g>
<g><path style="opacity:1" fill="#9b87cc" d="M 305.5,240.5 C 308.309,244.768 311.143,249.102 314,253.5C 314.667,254.833 314.667,256.167 314,257.5C 304.601,272.573 295.601,287.907 287,303.5C 281.259,304.475 275.425,304.808 269.5,304.5C 281.5,283.167 293.5,261.833 305.5,240.5 Z"/></g>
<g><path style="opacity:1" fill="#a19be0" d="M 157.5,248.5 C 159.25,249.659 160.25,251.326 160.5,253.5C 145.254,281.665 129.254,309.332 112.5,336.5C 110.992,334.819 109.992,332.819 109.5,330.5C 125.485,303.202 141.485,275.869 157.5,248.5 Z"/></g>
<g><path style="opacity:1" fill="#9575c6" d="M 419.5,243.5 C 420.924,256.584 420.258,269.584 417.5,282.5C 397.08,315.666 377.413,349.333 358.5,383.5C 350.723,389.896 342.39,395.562 333.5,400.5C 345.568,378.698 357.902,357.031 370.5,335.5C 371.167,335.5 371.5,335.167 371.5,334.5C 382.765,331.313 386.765,323.98 383.5,312.5C 394.892,294.062 406.059,275.396 417,256.5C 419.174,252.454 420.007,248.121 419.5,243.5 Z"/></g>
<g><path style="opacity:1" fill="#f7f7f7" d="M 167.5,265.5 C 169.856,268.365 171.856,271.532 173.5,275C 167.72,286.061 161.553,296.895 155,307.5C 154.08,310.308 154.913,312.475 157.5,314C 198.5,314.333 239.5,314.667 280.5,315C 278.5,318 276.5,321 274.5,324C 229.5,324.667 184.5,324.667 139.5,324C 137.556,321.847 137.056,319.347 138,316.5C 148.362,299.772 158.195,282.772 167.5,265.5 Z"/></g>
<g><path style="opacity:1" fill="#f4f4f5" d="M 320.5,265.5 C 322.903,268.973 324.737,272.64 326,276.5C 303.878,314.581 281.378,352.414 258.5,390C 256.5,390.667 254.5,390.667 252.5,390C 241.959,371.751 231.293,353.584 220.5,335.5C 224.5,334.167 228.5,334.167 232.5,335.5C 238.8,346.962 245.3,358.296 252,369.5C 253.972,371.442 256.139,371.776 258.5,370.5C 279.43,335.637 300.097,300.637 320.5,265.5 Z"/></g>
<g><path style="opacity:1" fill="#d7c6f1" d="M 55.5,258.5 C 56.6912,296.277 67.0245,331.277 86.5,363.5C 84.629,363.859 83.129,364.859 82,366.5C 77.9312,371.06 74.0979,375.726 70.5,380.5C 49.2965,350.236 36.9632,316.569 33.5,279.5C 33.3367,277.143 33.5034,274.81 34,272.5C 40.6667,265.167 47.3333,257.833 54,250.5C 54.1829,253.365 54.6829,256.031 55.5,258.5 Z"/></g>
<g><path style="opacity:1" fill="#946fc6" d="M 417.5,282.5 C 410.424,323.67 390.757,357.337 358.5,383.5C 377.413,349.333 397.08,315.666 417.5,282.5 Z"/></g>
<g><path style="opacity:1" fill="#9f93d6" d="M 179.5,285.5 C 183.141,291.436 186.808,297.436 190.5,303.5C 183.189,304.665 175.856,304.831 168.5,304C 172.052,297.723 175.719,291.556 179.5,285.5 Z"/></g>
<g><path style="opacity:1" fill="#997bca" d="M 331.5,285.5 C 335.601,291.517 339.601,297.683 343.5,304C 336.144,304.831 328.811,304.665 321.5,303.5C 325.291,297.721 328.624,291.721 331.5,285.5 Z"/></g>
<g><path style="opacity:1" fill="#9f9ad7" d="M 160.5,253.5 C 162.085,254.002 162.585,255.002 162,256.5C 150.667,275.833 139.333,295.167 128,314.5C 125.791,326.439 130.624,333.106 142.5,334.5C 142.842,335.338 143.508,335.672 144.5,335.5C 140.943,342.275 137.11,348.942 133,355.5C 131.589,357.65 130.755,359.984 130.5,362.5C 123.363,354.683 117.363,346.017 112.5,336.5C 129.254,309.332 145.254,281.665 160.5,253.5 Z"/></g>
<g><path style="opacity:1" fill="#e5dff8" d="M 464.5,334.5 C 442.312,392.355 402.978,434.021 346.5,459.5C 385.071,416.756 424.238,374.423 464,332.5C 464.464,333.094 464.631,333.761 464.5,334.5 Z"/></g>
<g><path style="opacity:1" fill="#a195d8" d="M 144.5,335.5 C 159.504,335.333 174.504,335.5 189.5,336C 178.777,353.28 168.444,370.78 158.5,388.5C 148.238,380.907 138.905,372.241 130.5,362.5C 130.755,359.984 131.589,357.65 133,355.5C 137.11,348.942 140.943,342.275 144.5,335.5 Z"/></g>
<g><path style="opacity:1" fill="#9d8ed3" d="M 142.5,334.5 C 164.503,334.333 186.503,334.5 208.5,335C 212.059,340.386 215.392,345.886 218.5,351.5C 208.359,368.437 198.193,385.437 188,402.5C 187.53,403.577 187.697,404.577 188.5,405.5C 177.878,400.858 167.878,395.191 158.5,388.5C 168.444,370.78 178.777,353.28 189.5,336C 174.504,335.5 159.504,335.333 144.5,335.5C 143.508,335.672 142.842,335.338 142.5,334.5 Z"/></g>
<g><path style="opacity:1" fill="#9985cb" d="M 243.5,335.5 C 251.656,334.343 259.99,334.177 268.5,335C 264.333,341.833 260.167,348.667 256,355.5C 251.558,348.937 247.391,342.271 243.5,335.5 Z"/></g>
<g><path style="opacity:1" fill="#9b7ccd" d="M 303.5,335.5 C 308.844,335.334 314.177,335.501 319.5,336C 303.029,363.779 286.696,391.612 270.5,419.5C 268.833,419.5 267.167,419.5 265.5,419.5C 261.818,419.665 258.152,419.499 254.5,419C 259.157,412.182 263.157,405.015 266.5,397.5C 278.333,376.495 290.667,355.828 303.5,335.5 Z"/></g>
<g><path style="opacity:1" fill="#9b7cc7" d="M 303.5,335.5 C 325.994,334.503 348.661,334.169 371.5,334.5C 371.5,335.167 371.167,335.5 370.5,335.5C 362.58,335.185 354.747,335.518 347,336.5C 332.223,361.725 317.723,387.059 303.5,412.5C 292.816,416.212 281.816,418.546 270.5,419.5C 286.696,391.612 303.029,363.779 319.5,336C 314.177,335.501 308.844,335.334 303.5,335.5 Z"/></g>
<g><path style="opacity:1" fill="#9b75c7" d="M 370.5,335.5 C 357.902,357.031 345.568,378.698 333.5,400.5C 323.945,405.611 313.945,409.611 303.5,412.5C 317.723,387.059 332.223,361.725 347,336.5C 354.747,335.518 362.58,335.185 370.5,335.5 Z"/></g>
<g><path style="opacity:1" fill="#9b88d3" d="M 218.5,351.5 C 222.195,358.184 225.862,364.85 229.5,371.5C 222.589,384.261 215.423,396.927 208,409.5C 206.89,411.037 205.39,411.703 203.5,411.5C 198.105,410.262 193.105,408.262 188.5,405.5C 187.697,404.577 187.53,403.577 188,402.5C 198.193,385.437 208.359,368.437 218.5,351.5 Z"/></g>
<g><path style="opacity:1" fill="#d9cbf0" d="M 86.5,363.5 C 98.3036,380.979 112.304,396.646 128.5,410.5C 122.512,415.49 117.179,421.157 112.5,427.5C 95.9414,413.996 81.9414,398.329 70.5,380.5C 74.0979,375.726 77.9312,371.06 82,366.5C 83.129,364.859 84.629,363.859 86.5,363.5 Z"/></g>
<g><path style="opacity:1" fill="#9b88cc" d="M 229.5,371.5 C 232.403,375.63 235.07,379.963 237.5,384.5C 230.746,394.334 224.746,404.667 219.5,415.5C 213.836,415.039 208.503,413.706 203.5,411.5C 205.39,411.703 206.89,411.037 208,409.5C 215.423,396.927 222.589,384.261 229.5,371.5 Z"/></g>
<g><path style="opacity:1" fill="#9981cb" d="M 237.5,384.5 C 239.655,388.139 241.822,391.806 244,395.5C 250.994,401.416 258.494,402.082 266.5,397.5C 263.157,405.015 259.157,412.182 254.5,419C 258.152,419.499 261.818,419.665 265.5,419.5C 249.908,421.451 234.575,420.118 219.5,415.5C 224.746,404.667 230.746,394.334 237.5,384.5 Z"/></g>
<g><path style="opacity:1" fill="#deccf7" d="M 128.5,410.5 C 134.523,414.865 140.523,419.199 146.5,423.5C 140.944,428.934 135.611,434.601 130.5,440.5C 123.936,436.934 117.936,432.601 112.5,427.5C 117.179,421.157 122.512,415.49 128.5,410.5 Z"/></g>
<g><path style="opacity:1" fill="#dfd2f8" d="M 146.5,423.5 C 172.971,440.769 201.971,451.103 233.5,454.5C 226.797,461.201 220.464,468.201 214.5,475.5C 183.784,470.048 155.784,458.381 130.5,440.5C 135.611,434.601 140.944,428.934 146.5,423.5 Z"/></g>
</svg>
