<?xml version="1.0" encoding="UTF-8"?>
<!DOCTYPE svg PUBLIC "-//W3C//DTD SVG 1.1//EN" "http://www.w3.org/Graphics/SVG/1.1/DTD/svg11.dtd">
<svg xmlns="http://www.w3.org/2000/svg" version="1.1" width="512px" height="512px" style="shape-rendering:geometricPrecision; text-rendering:geometricPrecision; image-rendering:optimizeQuality; fill-rule:evenodd; clip-rule:evenodd" xmlns:xlink="http://www.w3.org/1999/xlink">
<g><path style="opacity:1" fill="#39394d" d="M 150.5,40.5 C 153.272,40.22 155.772,40.8866 158,42.5C 177.657,66.8178 197.99,90.4844 219,113.5C 249.823,91.3479 280.656,69.1812 311.5,47C 314.348,44.479 317.348,44.1457 320.5,46C 334.086,98.5116 347.586,151.012 361,203.5C 381.762,187.211 402.928,171.544 424.5,156.5C 426.107,156.637 427.441,157.304 428.5,158.5C 429.663,217.126 429.829,275.793 429,334.5C 421.833,343 414.667,351.5 407.5,360C 427.444,361.292 447.277,363.126 467,365.5C 468.373,367.695 468.706,370.029 468,372.5C 461.389,389.391 455.055,406.391 449,423.5C 448.063,426.656 446.563,429.489 444.5,432C 408.242,444.864 371.909,457.531 335.5,470C 261.167,470.667 186.833,470.667 112.5,470C 88.9534,429.076 65.7867,387.91 43,346.5C 41.5848,341.92 43.2515,339.586 48,339.5C 61.6494,343.327 75.1494,347.661 88.5,352.5C 88.8333,352 89.1667,351.5 89.5,351C 76.4293,315.786 63.7627,280.453 51.5,245C 52.3619,239.402 55.3619,238.069 60.5,241C 72.397,251.024 84.397,260.19 96.5,268.5C 93.2549,261.676 89.7549,255.009 86,248.5C 85.3333,245.833 85.3333,243.167 86,240.5C 106.828,173.518 128.328,106.851 150.5,40.5 Z"/></g>
<g><path style="opacity:1" fill="#a4b5ee" d="M 150.5,108.5 C 146.5,108.5 142.5,108.5 138.5,108.5C 141.686,97.093 145.186,85.7597 149,74.5C 150.259,85.7972 150.759,97.1305 150.5,108.5 Z"/></g>
<g><path style="opacity:1" fill="#8e96e7" d="M 275.5,144.5 C 261.426,140.531 247.592,135.864 234,130.5C 233.536,131.094 233.369,131.761 233.5,132.5C 230.365,129.192 227.365,125.692 224.5,122C 251.931,102.868 279.098,83.3678 306,63.5C 296.403,90.6981 286.236,117.698 275.5,144.5 Z"/></g>
<g><path style="opacity:1" fill="#cfebf8" d="M 213.5,124.5 C 195.816,122.646 178.149,120.646 160.5,118.5C 159.373,98.8516 158.873,79.185 159,59.5C 177.401,81.059 195.567,102.726 213.5,124.5 Z"/></g>
<g><path style="opacity:1" fill="#8d96e6" d="M 340.5,166.5 C 321.868,160.735 303.534,154.401 285.5,147.5C 294.978,120.23 305.145,93.2302 316,66.5C 324.811,99.743 332.978,133.076 340.5,166.5 Z"/></g>
<g><path style="opacity:1" fill="#c7e6f9" d="M 160.5,118.5 C 178.149,120.646 195.816,122.646 213.5,124.5C 220.219,130.886 226.219,137.886 231.5,145.5C 209.69,143.695 187.69,141.362 165.5,138.5C 163.545,138.276 161.879,137.609 160.5,136.5C 160.5,130.5 160.5,124.5 160.5,118.5 Z"/></g>
<g><path style="opacity:1" fill="#acc7f4" d="M 138.5,108.5 C 142.5,108.5 146.5,108.5 150.5,108.5C 151.213,118.484 151.547,128.484 151.5,138.5C 144.242,137.552 136.908,136.885 129.5,136.5C 132.13,126.947 135.13,117.614 138.5,108.5 Z"/></g>
<g><path style="opacity:1" fill="#868ddf" d="M 275.5,144.5 C 272.367,155.398 268.534,166.065 264,176.5C 263.625,172.332 262.625,168.332 261,164.5C 251.624,153.961 242.457,143.294 233.5,132.5C 233.369,131.761 233.536,131.094 234,130.5C 247.592,135.864 261.426,140.531 275.5,144.5 Z"/></g>
<g><path style="opacity:1" fill="#c0e6f9" d="M 160.5,136.5 C 161.879,137.609 163.545,138.276 165.5,138.5C 187.69,141.362 209.69,143.695 231.5,145.5C 237.176,151.177 242.509,157.177 247.5,163.5C 247.38,164.586 246.713,165.253 245.5,165.5C 217.537,161.838 189.537,158.505 161.5,155.5C 161.593,149.137 161.26,142.804 160.5,136.5 Z"/></g>
<g><path style="opacity:1" fill="#b2d5f6" d="M 129.5,136.5 C 136.908,136.885 144.242,137.552 151.5,138.5C 151.767,151.169 152.1,163.836 152.5,176.5C 152.089,172.206 151.089,168.04 149.5,164C 140.155,163.611 130.821,163.111 121.5,162.5C 123.566,153.637 126.232,144.97 129.5,136.5 Z"/></g>
<g><path style="opacity:1" fill="#bae0f9" d="M 161.5,155.5 C 189.537,158.505 217.537,161.838 245.5,165.5C 246.713,165.253 247.38,164.586 247.5,163.5C 249.099,165.604 250.932,167.604 253,169.5C 254.16,175.129 254.993,180.796 255.5,186.5C 255.5,187.833 255.5,189.167 255.5,190.5C 224.489,186.915 193.489,183.249 162.5,179.5C 162.768,177.901 162.434,176.568 161.5,175.5C 161.5,168.833 161.5,162.167 161.5,155.5 Z"/></g>
<g><path style="opacity:1" fill="#badff8" d="M 121.5,162.5 C 130.821,163.111 140.155,163.611 149.5,164C 151.089,168.04 152.089,172.206 152.5,176.5C 152.5,178.833 152.5,181.167 152.5,183.5C 140.134,183.149 127.8,182.483 115.5,181.5C 116.745,174.832 118.745,168.499 121.5,162.5 Z"/></g>
<g><path style="opacity:1" fill="#848ee0" d="M 285.5,147.5 C 303.534,154.401 321.868,160.735 340.5,166.5C 343.695,178.091 346.695,189.758 349.5,201.5C 324.116,193.596 299.116,184.929 274.5,175.5C 277.794,165.938 281.461,156.604 285.5,147.5 Z"/></g>
<g><path style="opacity:1" fill="#8288e0" d="M 274.5,175.5 C 299.116,184.929 324.116,193.596 349.5,201.5C 353.314,207.812 351.98,212.478 345.5,215.5C 320.302,206.767 294.968,198.434 269.5,190.5C 270.883,185.402 272.55,180.402 274.5,175.5 Z"/></g>
<g><path style="opacity:1" fill="#b4d9f9" d="M 161.5,175.5 C 162.434,176.568 162.768,177.901 162.5,179.5C 193.489,183.249 224.489,186.915 255.5,190.5C 255.5,189.167 255.5,187.833 255.5,186.5C 256.4,191.332 257.066,196.332 257.5,201.5C 257.799,203.604 257.466,205.604 256.5,207.5C 225.137,203.496 193.804,199.496 162.5,195.5C 162.167,188.833 161.833,182.167 161.5,175.5 Z"/></g>
<g><path style="opacity:1" fill="#b4d6f8" d="M 418.5,172.5 C 419.494,181.986 419.827,191.652 419.5,201.5C 412.879,196.881 406.546,191.881 400.5,186.5C 406.19,181.482 412.19,176.815 418.5,172.5 Z"/></g>
<g><path style="opacity:1" fill="#7c88d9" d="M 269.5,190.5 C 294.968,198.434 320.302,206.767 345.5,215.5C 340.473,219.853 335.14,223.853 329.5,227.5C 309.598,220.531 289.598,213.531 269.5,206.5C 268.614,207.325 268.281,208.325 268.5,209.5C 267.598,206.017 266.932,202.35 266.5,198.5C 266.737,195.445 267.737,192.779 269.5,190.5 Z"/></g>
<g><path style="opacity:1" fill="#c3e4f7" d="M 115.5,181.5 C 127.8,182.483 140.134,183.149 152.5,183.5C 153.38,194.473 153.713,205.473 153.5,216.5C 152.596,215.791 152.263,214.791 152.5,213.5C 136.869,212.264 121.202,211.597 105.5,211.5C 108.664,201.341 111.997,191.341 115.5,181.5 Z"/></g>
<g><path style="opacity:1" fill="#b4d3f9" d="M 162.5,195.5 C 193.804,199.496 225.137,203.496 256.5,207.5C 257.466,205.604 257.799,203.604 257.5,201.5C 258.973,208.635 259.973,215.968 260.5,223.5C 228.139,220.08 195.806,216.413 163.5,212.5C 163.784,210.585 163.451,208.919 162.5,207.5C 162.5,203.5 162.5,199.5 162.5,195.5 Z"/></g>
<g><path style="opacity:1" fill="#c4e5f9" d="M 400.5,186.5 C 406.546,191.881 412.879,196.881 419.5,201.5C 419.5,215.833 419.5,230.167 419.5,244.5C 404.5,231.833 389.5,219.167 374.5,206.5C 382.767,199.36 391.434,192.694 400.5,186.5 Z"/></g>
<g><path style="opacity:1" fill="#7980d6" d="M 329.5,227.5 C 322.161,233.601 314.661,239.601 307,245.5C 298.348,262.135 289.682,278.802 281,295.5C 276.087,267.015 271.921,238.348 268.5,209.5C 268.281,208.325 268.614,207.325 269.5,206.5C 289.598,213.531 309.598,220.531 329.5,227.5 Z"/></g>
<g><path style="opacity:1" fill="#d2ecf9" d="M 374.5,206.5 C 389.5,219.167 404.5,231.833 419.5,244.5C 419.5,252.833 419.5,261.167 419.5,269.5C 398.874,252.876 378.541,235.876 358.5,218.5C 363.467,214.016 368.8,210.016 374.5,206.5 Z"/></g>
<g><path style="opacity:1" fill="#afcdf9" d="M 162.5,207.5 C 163.451,208.919 163.784,210.585 163.5,212.5C 195.806,216.413 228.139,220.08 260.5,223.5C 261.966,228.692 262.633,234.025 262.5,239.5C 229.601,236.765 196.601,233.099 163.5,228.5C 163.332,221.49 162.999,214.49 162.5,207.5 Z"/></g>
<g><path style="opacity:1" fill="#dff2f9" d="M 358.5,218.5 C 378.541,235.876 398.874,252.876 419.5,269.5C 419.5,278.167 419.5,286.833 419.5,295.5C 394.019,273.596 368.352,251.929 342.5,230.5C 347.467,226.016 352.8,222.016 358.5,218.5 Z"/></g>
<g><path style="opacity:1" fill="#d1ebf8" d="M 105.5,211.5 C 121.202,211.597 136.869,212.264 152.5,213.5C 152.263,214.791 152.596,215.791 153.5,216.5C 154.305,226.812 154.638,237.146 154.5,247.5C 153.549,246.081 153.216,244.415 153.5,242.5C 134.502,241.77 115.502,241.103 96.5,240.5C 99.3036,230.757 102.304,221.09 105.5,211.5 Z"/></g>
<g><path style="opacity:1" fill="#aec7f9" d="M 163.5,228.5 C 196.601,233.099 229.601,236.765 262.5,239.5C 263.709,243.618 264.376,247.951 264.5,252.5C 264.5,254.833 264.5,257.167 264.5,259.5C 230.723,256.069 197.056,252.069 163.5,247.5C 163.5,241.167 163.5,234.833 163.5,228.5 Z"/></g>
<g><path style="opacity:1" fill="#5d6376" d="M 418.5,172.5 C 418.56,171.957 418.893,171.624 419.5,171.5C 420.831,223.665 420.831,275.665 419.5,327.5C 419.5,323.5 419.5,319.5 419.5,315.5C 419.5,308.833 419.5,302.167 419.5,295.5C 419.5,286.833 419.5,278.167 419.5,269.5C 419.5,261.167 419.5,252.833 419.5,244.5C 419.5,230.167 419.5,215.833 419.5,201.5C 419.827,191.652 419.494,181.986 418.5,172.5 Z"/></g>
<g><path style="opacity:1" fill="#ebf9f9" d="M 342.5,230.5 C 368.352,251.929 394.019,273.596 419.5,295.5C 419.5,302.167 419.5,308.833 419.5,315.5C 389.22,290.887 359.553,265.553 330.5,239.5C 334.104,236.025 338.104,233.025 342.5,230.5 Z"/></g>
<g><path style="opacity:1" fill="#f1f8f8" d="M 330.5,239.5 C 359.553,265.553 389.22,290.887 419.5,315.5C 419.5,319.5 419.5,323.5 419.5,327.5C 397.49,327.833 375.49,327.5 353.5,326.5C 341.363,301.06 329.363,275.56 317.5,250C 321.068,245.603 325.402,242.103 330.5,239.5 Z"/></g>
<g><path style="opacity:1" fill="#acc0f8" d="M 163.5,247.5 C 197.056,252.069 230.723,256.069 264.5,259.5C 264.5,257.167 264.5,254.833 264.5,252.5C 266.126,260.286 267.126,268.286 267.5,276.5C 238.833,273.167 210.167,269.833 181.5,266.5C 177.702,263.204 174.036,259.704 170.5,256C 168.432,255.313 166.432,255.48 164.5,256.5C 163.516,253.572 163.183,250.572 163.5,247.5 Z"/></g>
<g><path style="opacity:1" fill="#def2f9" d="M 96.5,240.5 C 115.502,241.103 134.502,241.77 153.5,242.5C 153.216,244.415 153.549,246.081 154.5,247.5C 154.689,261.171 155.022,274.838 155.5,288.5C 154.512,283.36 154.179,278.026 154.5,272.5C 142.002,271.881 129.502,271.214 117,270.5C 114.31,270.503 111.81,270.836 109.5,271.5C 104.774,263.052 100.274,254.385 96,245.5C 95.3603,243.735 95.5269,242.068 96.5,240.5 Z"/></g>
<g><path style="opacity:1" fill="#a7baf9" d="M 181.5,266.5 C 210.167,269.833 238.833,273.167 267.5,276.5C 268.681,280.743 269.348,285.076 269.5,289.5C 269.762,290.978 269.429,292.311 268.5,293.5C 245.907,290.323 223.24,287.656 200.5,285.5C 193.833,279.5 187.5,273.167 181.5,266.5 Z"/></g>
<g><path style="opacity:1" fill="#cce9f6" d="M 332.5,305.5 C 321.797,297.523 311.13,288.856 300.5,279.5C 303.462,272.243 306.962,265.243 311,258.5C 318.732,273.961 325.899,289.627 332.5,305.5 Z"/></g>
<g><path style="opacity:1" fill="#eaf8f8" d="M 155.5,288.5 C 154.734,296.301 153.234,303.968 151,311.5C 150.586,311.957 150.086,312.291 149.5,312.5C 138.189,303.69 127.022,294.69 116,285.5C 113.548,280.932 111.382,276.265 109.5,271.5C 111.81,270.836 114.31,270.503 117,270.5C 129.502,271.214 142.002,271.881 154.5,272.5C 154.179,278.026 154.512,283.36 155.5,288.5 Z"/></g>
<g><path style="opacity:1" fill="#a7b4f9" d="M 200.5,285.5 C 223.24,287.656 245.907,290.323 268.5,293.5C 269.429,292.311 269.762,290.978 269.5,289.5C 270.458,294.658 271.125,299.991 271.5,305.5C 271.5,306.833 271.5,308.167 271.5,309.5C 253.798,307.792 236.131,305.792 218.5,303.5C 212.167,297.833 206.167,291.833 200.5,285.5 Z"/></g>
<g><path style="opacity:1" fill="#b6daf5" d="M 203.5,302.5 C 189.904,304.07 176.238,305.403 162.5,306.5C 164.144,293.945 166.811,281.612 170.5,269.5C 181.211,280.709 192.211,291.709 203.5,302.5 Z"/></g>
<g><path style="opacity:1" fill="#c2e6f9" d="M 300.5,279.5 C 311.13,288.856 321.797,297.523 332.5,305.5C 337.33,313.827 341.664,322.494 345.5,331.5C 343.637,335.25 341.303,338.583 338.5,341.5C 321.942,328.061 305.608,314.394 289.5,300.5C 292.406,293.019 296.072,286.019 300.5,279.5 Z"/></g>
<g><path style="opacity:1" fill="#8d96e7" d="M 120.5,301.5 C 110.704,308.572 100.37,314.905 89.5,320.5C 81.3238,300.292 73.9905,279.959 67.5,259.5C 85.2099,273.554 102.877,287.554 120.5,301.5 Z"/></g>
<g><path style="opacity:1" fill="#bae0f9" d="M 289.5,300.5 C 305.608,314.394 321.942,328.061 338.5,341.5C 336.582,346.343 333.916,350.677 330.5,354.5C 314.183,341.514 298.183,328.18 282.5,314.5C 284.326,309.516 286.659,304.849 289.5,300.5 Z"/></g>
<g><path style="opacity:1" fill="#a1acf8" d="M 218.5,303.5 C 236.131,305.792 253.798,307.792 271.5,309.5C 271.5,308.167 271.5,306.833 271.5,305.5C 272.634,307.966 272.801,310.633 272,313.5C 265.333,326.167 258.667,338.833 252,351.5C 251.667,346.833 251.333,342.167 251,337.5C 240.328,325.995 229.494,314.661 218.5,303.5 Z"/></g>
<g><path style="opacity:1" fill="#828bde" d="M 120.5,301.5 C 129.727,308.705 138.894,316.038 148,323.5C 148.032,326.314 147.532,328.98 146.5,331.5C 131.547,338.662 116.881,346.996 102.5,356.5C 97.6464,344.772 93.313,332.772 89.5,320.5C 100.37,314.905 110.704,308.572 120.5,301.5 Z"/></g>
<g><path style="opacity:1" fill="#c4e5f8" d="M 203.5,302.5 C 211.318,309.93 218.984,317.597 226.5,325.5C 203.234,328.039 179.9,330.039 156.5,331.5C 157.763,322.873 159.763,314.539 162.5,306.5C 176.238,305.403 189.904,304.07 203.5,302.5 Z"/></g>
<g><path style="opacity:1" fill="#b4d9f9" d="M 282.5,314.5 C 298.183,328.18 314.183,341.514 330.5,354.5C 329.331,357.511 327.664,360.178 325.5,362.5C 324.078,362.291 322.745,361.791 321.5,361C 306.936,348.26 292.269,335.76 277.5,323.5C 278.611,320.144 280.277,317.144 282.5,314.5 Z"/></g>
<g><path style="opacity:1" fill="#b4d3f9" d="M 277.5,323.5 C 292.269,335.76 306.936,348.26 321.5,361C 322.745,361.791 324.078,362.291 325.5,362.5C 323.898,366.095 321.898,369.429 319.5,372.5C 304.998,360.168 290.332,348.001 275.5,336C 273.963,334.89 273.297,333.39 273.5,331.5C 274.326,328.515 275.659,325.849 277.5,323.5 Z"/></g>
<g><path style="opacity:1" fill="#7a81d6" d="M 146.5,331.5 C 144.321,343.56 141.821,355.56 139,367.5C 138.612,368.428 137.945,369.095 137,369.5C 126,365.833 115,362.167 104,358.5C 102.97,358.164 102.47,357.497 102.5,356.5C 116.881,346.996 131.547,338.662 146.5,331.5 Z"/></g>
<g><path style="opacity:1" fill="#d2ecf9" d="M 226.5,325.5 C 231.146,330.146 235.812,334.812 240.5,339.5C 238.392,343.401 236.059,347.067 233.5,350.5C 205.681,352.234 178.014,354.901 150.5,358.5C 152.395,349.454 154.395,340.454 156.5,331.5C 179.9,330.039 203.234,328.039 226.5,325.5 Z"/></g>
<g><path style="opacity:1" fill="#afcdf9" d="M 273.5,331.5 C 273.297,333.39 273.963,334.89 275.5,336C 290.332,348.001 304.998,360.168 319.5,372.5C 317.833,375.167 316.167,377.833 314.5,380.5C 298.315,368.561 282.648,355.894 267.5,342.5C 269.262,338.638 271.262,334.972 273.5,331.5 Z"/></g>
<g><path style="opacity:1" fill="#acbff8" d="M 412.5,338.5 C 408.689,337.355 404.689,337.188 400.5,338C 381.231,343.817 361.897,349.317 342.5,354.5C 345.916,348.568 349.582,342.735 353.5,337C 373.508,336.167 393.508,336.334 413.5,337.5C 413.376,338.107 413.043,338.44 412.5,338.5 Z"/></g>
<g><path style="opacity:1" fill="#aec7f9" d="M 412.5,338.5 C 406.804,345.192 401.137,351.858 395.5,358.5C 394.399,357.402 393.066,357.235 391.5,358C 370.57,364.477 349.57,370.644 328.5,376.5C 332.806,368.876 337.473,361.543 342.5,354.5C 361.897,349.317 381.231,343.817 400.5,338C 404.689,337.188 408.689,337.355 412.5,338.5 Z"/></g>
<g><path style="opacity:1" fill="#aec7f9" d="M 267.5,342.5 C 282.648,355.894 298.315,368.561 314.5,380.5C 312.416,384.336 310.083,388.003 307.5,391.5C 292.998,379.168 278.332,367.001 263.5,355C 262.748,354.329 262.414,353.496 262.5,352.5C 264.167,349.167 265.833,345.833 267.5,342.5 Z"/></g>
<g><path style="opacity:1" fill="#acc0f9" d="M 262.5,352.5 C 262.414,353.496 262.748,354.329 263.5,355C 278.332,367.001 292.998,379.168 307.5,391.5C 305.833,394.167 304.167,396.833 302.5,399.5C 286.939,387.881 271.939,375.548 257.5,362.5C 258.659,358.849 260.326,355.515 262.5,352.5 Z"/></g>
<g><path style="opacity:1" fill="#afcdf8" d="M 395.5,358.5 C 389.804,365.192 384.137,371.858 378.5,378.5C 377.399,377.402 376.066,377.235 374.5,378C 355.564,383.813 336.564,389.313 317.5,394.5C 320.668,388.158 324.335,382.158 328.5,376.5C 349.57,370.644 370.57,364.477 391.5,358C 393.066,357.235 394.399,357.402 395.5,358.5 Z"/></g>
<g><path style="opacity:1" fill="#eaf6f7" d="M 89.5,363.5 C 86.3927,371.048 82.726,378.381 78.5,385.5C 78.0431,386.298 77.3764,386.631 76.5,386.5C 70.3051,375.279 63.9718,364.113 57.5,353C 68.1836,356.172 78.8502,359.672 89.5,363.5 Z"/></g>
<g><path style="opacity:1" fill="#def2f9" d="M 233.5,350.5 C 229.002,359.501 224.002,368.168 218.5,376.5C 194.181,378.665 169.847,380.665 145.5,382.5C 146.661,374.362 148.327,366.362 150.5,358.5C 178.014,354.901 205.681,352.234 233.5,350.5 Z"/></g>
<g><path style="opacity:1" fill="#a7baf8" d="M 257.5,362.5 C 271.939,375.548 286.939,387.881 302.5,399.5C 300.735,402.709 298.735,405.709 296.5,408.5C 282.21,397.546 268.21,386.212 254.5,374.5C 253.124,369.916 254.124,365.916 257.5,362.5 Z"/></g>
<g><path style="opacity:1" fill="#def1f8" d="M 89.5,363.5 C 95.3227,365.107 100.989,367.107 106.5,369.5C 100.589,381.663 93.922,393.33 86.5,404.5C 83.1667,398.5 79.8333,392.5 76.5,386.5C 77.3764,386.631 78.0431,386.298 78.5,385.5C 82.726,378.381 86.3927,371.048 89.5,363.5 Z"/></g>
<g><path style="opacity:1" fill="#8e96e7" d="M 438.5,421.5 C 424.5,405.167 410.5,388.833 396.5,372.5C 397.874,370.041 400.04,369.041 403,369.5C 420.852,371.012 438.685,372.679 456.5,374.5C 450.472,390.266 444.472,405.932 438.5,421.5 Z"/></g>
<g><path style="opacity:1" fill="#cfecf9" d="M 106.5,369.5 C 112.381,371.125 118.047,373.125 123.5,375.5C 114.738,391.365 105.738,407.032 96.5,422.5C 93.1667,416.5 89.8333,410.5 86.5,404.5C 93.922,393.33 100.589,381.663 106.5,369.5 Z"/></g>
<g><path style="opacity:1" fill="#cfe9f7" d="M 251.5,450.5 C 250.503,450.53 249.836,450.03 249.5,449C 242.5,427.333 235.5,405.667 228.5,384C 228.164,382.97 227.497,382.47 226.5,382.5C 231.825,373.185 237.159,363.852 242.5,354.5C 245.981,386.459 248.981,418.459 251.5,450.5 Z"/></g>
<g><path style="opacity:1" fill="#a5b2f9" d="M 254.5,374.5 C 268.21,386.212 282.21,397.546 296.5,408.5C 292.736,415.038 288.736,421.372 284.5,427.5C 275.681,420.258 266.681,413.258 257.5,406.5C 256.122,395.873 255.122,385.207 254.5,374.5 Z"/></g>
<g><path style="opacity:1" fill="#c5e6f9" d="M 123.5,375.5 C 127.786,376.707 132.12,377.707 136.5,378.5C 135.833,381.833 135.167,385.167 134.5,388.5C 125.983,405.86 116.65,422.86 106.5,439.5C 102.929,434.033 99.5961,428.367 96.5,422.5C 105.738,407.032 114.738,391.365 123.5,375.5 Z"/></g>
<g><path style="opacity:1" fill="#b4d2f8" d="M 378.5,378.5 C 372.804,385.192 367.137,391.858 361.5,398.5C 361.265,397.903 360.765,397.57 360,397.5C 341.845,402.941 323.679,408.275 305.5,413.5C 308.753,406.652 312.753,400.319 317.5,394.5C 336.564,389.313 355.564,383.813 374.5,378C 376.066,377.235 377.399,377.402 378.5,378.5 Z"/></g>
<g><path style="opacity:1" fill="#848ee0" d="M 396.5,372.5 C 410.5,388.833 424.5,405.167 438.5,421.5C 438.426,423.411 437.426,424.578 435.5,425C 430.571,426.81 425.571,428.31 420.5,429.5C 409.246,414.576 397.246,400.243 384.5,386.5C 388.155,381.514 392.155,376.847 396.5,372.5 Z"/></g>
<g><path style="opacity:1" fill="#e9f7f7" d="M 218.5,376.5 C 213.435,386.966 207.602,396.966 201,406.5C 182.886,400.194 164.719,394.027 146.5,388C 144.19,386.541 143.857,384.708 145.5,382.5C 169.847,380.665 194.181,378.665 218.5,376.5 Z"/></g>
<g><path style="opacity:1" fill="#8288e0" d="M 384.5,386.5 C 397.246,400.243 409.246,414.576 420.5,429.5C 418.064,430.871 415.397,431.871 412.5,432.5C 401.5,419.167 390.5,405.833 379.5,392.5C 381.177,390.46 382.844,388.46 384.5,386.5 Z"/></g>
<g><path style="opacity:1" fill="#def2f9" d="M 226.5,382.5 C 227.497,382.47 228.164,382.97 228.5,384C 235.5,405.667 242.5,427.333 249.5,449C 249.836,450.03 250.503,450.53 251.5,450.5C 252.414,453.728 252.747,457.061 252.5,460.5C 248.167,460.5 243.833,460.5 239.5,460.5C 233.27,438.811 226.27,417.478 218.5,396.5C 221.167,391.833 223.833,387.167 226.5,382.5 Z"/></g>
<g><path style="opacity:1" fill="#badff8" d="M 134.5,388.5 C 134.343,389.873 134.51,391.207 135,392.5C 136.856,395.556 138.689,398.556 140.5,401.5C 132.367,417.765 123.7,433.765 114.5,449.5C 114.043,450.298 113.376,450.631 112.5,450.5C 109.742,447.322 107.742,443.655 106.5,439.5C 116.65,422.86 125.983,405.86 134.5,388.5 Z"/></g>
<g><path style="opacity:1" fill="#b4d8f8" d="M 361.5,398.5 C 355.804,405.192 350.137,411.858 344.5,418.5C 344.265,417.903 343.765,417.57 343,417.5C 326.396,422.274 309.896,427.274 293.5,432.5C 296.753,425.652 300.753,419.319 305.5,413.5C 323.679,408.275 341.845,402.941 360,397.5C 360.765,397.57 361.265,397.903 361.5,398.5 Z"/></g>
<g><path style="opacity:1" fill="#7b84d8" d="M 379.5,392.5 C 390.5,405.833 401.5,419.167 412.5,432.5C 403.301,436.012 393.968,439.345 384.5,442.5C 383.928,440.745 383.094,439.078 382,437.5C 376.291,431.46 370.957,425.126 366,418.5C 364.549,416.536 362.716,415.203 360.5,414.5C 366.843,407.126 373.177,399.793 379.5,392.5 Z"/></g>
<g><path style="opacity:1" fill="#e9f7f7" d="M 218.5,396.5 C 226.27,417.478 233.27,438.811 239.5,460.5C 236.881,460.768 234.381,460.435 232,459.5C 224.62,443.908 217.12,428.408 209.5,413C 212.311,407.366 215.311,401.866 218.5,396.5 Z"/></g>
<g><path style="opacity:1" fill="#a0aaf6" d="M 176.5,408.5 C 175.863,416.266 175.196,423.933 174.5,431.5C 166.488,421.333 158.821,410.833 151.5,400C 159.995,402.332 168.329,405.165 176.5,408.5 Z"/></g>
<g><path style="opacity:1" fill="#a0a6f7" d="M 257.5,406.5 C 266.681,413.258 275.681,420.258 284.5,427.5C 278.595,437.639 272.428,447.639 266,457.5C 265.092,459.439 263.592,460.439 261.5,460.5C 260.347,442.487 259.014,424.487 257.5,406.5 Z"/></g>
<g><path style="opacity:1" fill="#b4d5f9" d="M 140.5,401.5 C 144.321,405.806 147.655,410.473 150.5,415.5C 142.5,430.5 134.5,445.5 126.5,460.5C 123.5,460.5 120.5,460.5 117.5,460.5C 115.804,457.15 114.137,453.817 112.5,450.5C 113.376,450.631 114.043,450.298 114.5,449.5C 123.7,433.765 132.367,417.765 140.5,401.5 Z"/></g>
<g><path style="opacity:1" fill="#a6b7f8" d="M 176.5,408.5 C 180.784,409.261 184.784,410.595 188.5,412.5C 187.906,424.825 187.573,437.158 187.5,449.5C 182.689,443.891 178.356,437.891 174.5,431.5C 175.196,423.933 175.863,416.266 176.5,408.5 Z"/></g>
<g><path style="opacity:1" fill="#acbff8" d="M 188.5,412.5 C 190.786,412.595 192.786,413.262 194.5,414.5C 194.056,429.164 193.722,443.83 193.5,458.5C 191.255,455.68 189.255,452.68 187.5,449.5C 187.573,437.158 187.906,424.825 188.5,412.5 Z"/></g>
<g><path style="opacity:1" fill="#aec8f8" d="M 194.5,414.5 C 196.827,414.665 198.993,415.331 201,416.5C 203.41,421.906 205.91,427.239 208.5,432.5C 207.572,441.664 206.905,450.997 206.5,460.5C 202.486,460.666 198.486,460.499 194.5,460C 193.944,459.617 193.611,459.117 193.5,458.5C 193.722,443.83 194.056,429.164 194.5,414.5 Z"/></g>
<g><path style="opacity:1" fill="#bae0f8" d="M 344.5,418.5 C 332.833,432.5 321.167,446.5 309.5,460.5C 297.988,460.828 286.654,460.495 275.5,459.5C 281.265,450.291 287.265,441.291 293.5,432.5C 309.896,427.274 326.396,422.274 343,417.5C 343.765,417.57 344.265,417.903 344.5,418.5 Z"/></g>
<g><path style="opacity:1" fill="#afc9f9" d="M 150.5,415.5 C 154.521,420.196 158.188,425.196 161.5,430.5C 156.154,440.527 150.821,450.527 145.5,460.5C 139.167,460.5 132.833,460.5 126.5,460.5C 134.5,445.5 142.5,430.5 150.5,415.5 Z"/></g>
<g><path style="opacity:1" fill="#717cd1" d="M 360.5,414.5 C 362.716,415.203 364.549,416.536 366,418.5C 370.957,425.126 376.291,431.46 382,437.5C 383.094,439.078 383.928,440.745 384.5,442.5C 378.085,444.638 371.751,446.971 365.5,449.5C 359.158,443.157 353.158,436.491 347.5,429.5C 352.079,424.646 356.413,419.646 360.5,414.5 Z"/></g>
<g><path style="opacity:1" fill="#6f75cc" d="M 347.5,429.5 C 353.158,436.491 359.158,443.157 365.5,449.5C 354.832,452.889 344.165,456.389 333.5,460C 329.5,460.667 325.5,460.667 321.5,460C 330.377,449.961 339.044,439.794 347.5,429.5 Z"/></g>
<g><path style="opacity:1" fill="#b2d2f7" d="M 208.5,432.5 C 213.092,441.352 217.425,450.352 221.5,459.5C 216.544,460.494 211.544,460.827 206.5,460.5C 206.905,450.997 207.572,441.664 208.5,432.5 Z"/></g>
<g><path style="opacity:1" fill="#a9bcf8" d="M 161.5,430.5 C 165.399,435.284 169.066,440.284 172.5,445.5C 168.459,449.881 165.126,454.881 162.5,460.5C 156.833,460.5 151.167,460.5 145.5,460.5C 150.821,450.527 156.154,440.527 161.5,430.5 Z"/></g>
<g><path style="opacity:1" fill="#a5b2f8" d="M 172.5,445.5 C 175.833,450.167 179.167,454.833 182.5,459.5C 176.021,460.491 169.354,460.824 162.5,460.5C 165.126,454.881 168.459,449.881 172.5,445.5 Z"/></g>
<g><path style="opacity:1" fill="#505270" d="M 182.5,459.5 C 183.043,459.56 183.376,459.893 183.5,460.5C 161.337,461.828 139.337,461.828 117.5,460.5C 120.5,460.5 123.5,460.5 126.5,460.5C 132.833,460.5 139.167,460.5 145.5,460.5C 151.167,460.5 156.833,460.5 162.5,460.5C 169.354,460.824 176.021,460.491 182.5,459.5 Z"/></g>
<g><path style="opacity:1" fill="#505b6e" d="M 275.5,459.5 C 286.654,460.495 297.988,460.828 309.5,460.5C 297.993,461.824 286.327,461.824 274.5,460.5C 274.624,459.893 274.957,459.56 275.5,459.5 Z"/></g>
</svg>
