<?xml version="1.0" encoding="UTF-8"?>
<!DOCTYPE svg PUBLIC "-//W3C//DTD SVG 1.1//EN" "http://www.w3.org/Graphics/SVG/1.1/DTD/svg11.dtd">
<svg xmlns="http://www.w3.org/2000/svg" version="1.1" width="512px" height="512px" style="shape-rendering:geometricPrecision; text-rendering:geometricPrecision; image-rendering:optimizeQuality; fill-rule:evenodd; clip-rule:evenodd" xmlns:xlink="http://www.w3.org/1999/xlink">
<g><path style="opacity:1" fill="#37374b" d="M 345.5,39.5 C 351.448,38.2834 353.948,40.6168 353,46.5C 349.136,51.3002 345.136,51.6335 341,47.5C 340.675,43.8166 342.175,41.15 345.5,39.5 Z"/></g>
<g><path style="opacity:1" fill="#39394b" d="M 308.5,173.5 C 303.752,175.882 299.752,179.216 296.5,183.5C 290.812,187.188 286.145,191.855 282.5,197.5C 280.095,198.398 278.095,199.898 276.5,202C 268.421,202.892 266.421,199.725 270.5,192.5C 278.902,186.274 286.902,179.441 294.5,172C 291.112,169.639 287.446,167.806 283.5,166.5C 273.071,173.702 263.071,181.369 253.5,189.5C 250.317,193.26 246.317,195.094 241.5,195C 240.177,194.184 239.511,193.017 239.5,191.5C 239.343,190.127 239.51,188.793 240,187.5C 245.953,179.212 252.286,171.212 259,163.5C 259.617,162.551 259.451,161.718 258.5,161C 235.721,158.152 215.387,163.819 197.5,178C 193.607,181.39 190.273,185.223 187.5,189.5C 193.175,197.168 199.175,204.501 205.5,211.5C 221.705,230.21 238.872,248.21 257,265.5C 259.362,272.473 256.862,274.973 249.5,273C 229.526,262.161 210.526,249.995 192.5,236.5C 192.141,234.629 191.141,233.129 189.5,232C 181.607,225.264 173.607,218.764 165.5,212.5C 131.509,181.328 105.009,144.661 86,102.5C 83.2882,90.0868 87.7882,81.5868 99.5,77C 104.257,76.1902 108.924,76.5236 113.5,78C 142.353,94.5132 166.519,116.347 186,143.5C 187.753,148.357 186.253,151.357 181.5,152.5C 170.825,145.339 159.992,138.339 149,131.5C 148.5,132 148,132.5 147.5,133C 157.987,149.488 169.32,165.321 181.5,180.5C 198.18,163.497 218.514,153.997 242.5,152C 250.864,151.503 259.198,151.503 267.5,152C 295.812,117.012 328.478,87.0119 365.5,62C 378.044,54.0617 391.378,47.7284 405.5,43C 415.657,39.3673 425.99,38.7006 436.5,41C 448.003,46.6558 453.67,55.9892 453.5,69C 451.97,84.897 447.137,99.7303 439,113.5C 424.551,139.291 405.717,161.458 382.5,180C 379.29,182.104 375.957,183.937 372.5,185.5C 367.85,184.734 366.35,182.068 368,177.5C 381.533,155.269 391.033,131.436 396.5,106C 396.643,102.443 395.143,99.9432 392,98.5C 379.595,102.786 367.762,108.286 356.5,115C 334.798,128.85 313.798,143.683 293.5,159.5C 296.571,160.785 299.404,162.451 302,164.5C 316.936,152.229 332.436,140.729 348.5,130C 359.947,123.474 367.28,126.474 370.5,139C 367.61,148.889 362.61,157.555 355.5,165C 351.528,165.847 348.862,164.347 347.5,160.5C 351.694,153.283 356.028,146.116 360.5,139C 359.892,138.13 359.059,137.63 358,137.5C 340.208,147.801 323.708,159.801 308.5,173.5 Z M 282.5,150.5 C 283.791,150.263 284.791,150.596 285.5,151.5C 283.14,153.853 280.473,155.853 277.5,157.5C 278.754,154.907 280.42,152.573 282.5,150.5 Z"/></g>
<g><path style="opacity:1" fill="#37374a" d="M 186.5,51.5 C 190.594,50.7046 193.761,52.038 196,55.5C 212.103,73.7883 224.27,94.455 232.5,117.5C 232.47,120.7 230.804,122.366 227.5,122.5C 225.893,122.363 224.559,121.696 223.5,120.5C 214.191,97.8696 201.358,77.5363 185,59.5C 184.109,56.5024 184.609,53.8357 186.5,51.5 Z"/></g>
<g><path style="opacity:1" fill="#38384b" d="M 139.5,52.5 C 146.312,52.6033 152.646,54.4366 158.5,58C 180.175,73.4854 196.009,93.652 206,118.5C 209.06,125.68 211.727,133.014 214,140.5C 216.022,147.642 213.522,150.309 206.5,148.5C 183.779,120.612 158.279,95.6117 130,73.5C 126.062,63.3711 129.229,56.3711 139.5,52.5 Z"/></g>
<g><path style="opacity:1" fill="#38374b" d="M 61.5,53.5 C 71.7884,51.6505 80.2884,54.6505 87,62.5C 88.5,69 86,71.5 79.5,70C 71.159,60.9138 63.659,61.4138 57,71.5C 56.3333,73.8333 56.3333,76.1667 57,78.5C 70.8874,109.967 88.554,138.967 110,165.5C 112.757,172.078 110.59,174.911 103.5,174C 81.0074,146.798 62.5074,116.965 48,84.5C 43.3461,69.9101 47.8461,59.5767 61.5,53.5 Z"/></g>
<g><path style="opacity:1" fill="#a0d8c0" d="M 427.5,112.5 C 413.255,94.0641 395.922,79.3974 375.5,68.5C 386.985,61.093 399.319,55.2597 412.5,51C 437.596,45.4291 447.429,55.2624 442,80.5C 438.592,91.9222 433.759,102.589 427.5,112.5 Z"/></g>
<g><path style="opacity:1" fill="#37374a" d="M 312.5,65.5 C 317.813,65.6438 319.979,68.3105 319,73.5C 298.46,93.0392 278.96,113.539 260.5,135C 254.507,136.668 252.007,134.502 253,128.5C 271.026,105.772 290.859,84.7716 312.5,65.5 Z"/></g>
<g><path style="opacity:1" fill="#acdfbf" d="M 375.5,68.5 C 395.922,79.3974 413.255,94.0641 427.5,112.5C 417.001,131.106 403.834,147.772 388,162.5C 395.55,145.855 401.55,128.522 406,110.5C 407.76,94.926 400.926,88.0927 385.5,90C 362.611,99.4389 341.278,111.439 321.5,126C 309.968,135.256 297.968,143.756 285.5,151.5C 284.791,150.596 283.791,150.263 282.5,150.5C 304.441,124.058 329.107,100.558 356.5,80C 362.556,75.6416 368.89,71.8082 375.5,68.5 Z"/></g>
<g><path style="opacity:1" fill="#acddbd" d="M 140.5,62.5 C 148.207,64.0186 155.207,67.1853 161.5,72C 176.805,85.4879 187.972,101.655 195,120.5C 177.858,100.686 158.858,83.0192 138,67.5C 138.058,65.5646 138.891,63.8979 140.5,62.5 Z"/></g>
<g><path style="opacity:1" fill="#37374a" d="M 463.5,92.5 C 470.503,91.6727 473.003,94.6727 471,101.5C 456.193,137.303 434.693,168.47 406.5,195C 399.875,195.584 397.708,192.751 400,186.5C 427.712,159.615 448.879,128.282 463.5,92.5 Z"/></g>
<g><path style="opacity:1" fill="#addfbf" d="M 145.5,114.5 C 135.206,121.793 126.206,130.46 118.5,140.5C 109.747,128.007 102.247,114.673 96,100.5C 94.8452,88.6621 100.012,84.4954 111.5,88C 123.808,95.6455 135.141,104.479 145.5,114.5 Z"/></g>
<g><path style="opacity:1" fill="#39394b" d="M 44.5,127.5 C 50.5648,127.282 55.3982,129.616 59,134.5C 81.1746,170.36 108.175,202.36 140,230.5C 143.898,243.594 139.064,250.094 125.5,250C 90.1682,229.67 61.6682,202.17 40,167.5C 34.9153,157.27 33.2487,146.603 35,135.5C 37.1608,131.495 40.3275,128.829 44.5,127.5 Z"/></g>
<g><path style="opacity:1" fill="#bce6c0" d="M 145.5,114.5 C 149.57,117.06 153.236,120.227 156.5,124C 152.423,122.562 148.09,122.229 143.5,123C 137.124,127.429 135.957,132.929 140,139.5C 163.28,175.46 189.613,209.126 219,240.5C 219.667,241.167 219.667,241.833 219,242.5C 182.788,217.289 151.455,186.956 125,151.5C 122.579,147.929 120.413,144.262 118.5,140.5C 126.206,130.46 135.206,121.793 145.5,114.5 Z"/></g>
<g><path style="opacity:1" fill="#b0cfb0" d="M 276.5,158.5 C 275.793,160.134 274.627,161.468 273,162.5C 272.832,160.159 273.999,158.826 276.5,158.5 Z"/></g>
<g><path style="opacity:1" fill="#37374a" d="M 447.5,162.5 C 454,161.499 456.5,164.165 455,170.5C 434.619,199.216 410.453,224.382 382.5,246C 375.781,246.692 373.781,243.859 376.5,237.5C 403.284,215.385 426.951,190.385 447.5,162.5 Z"/></g>
<g><path style="opacity:1" fill="#addebe" d="M 45.5,137.5 C 47.9032,137.393 49.7365,138.393 51,140.5C 72.8392,176.025 99.5059,207.691 131,235.5C 132.167,239.667 130.667,241.167 126.5,240C 93.2375,219.404 66.7375,192.238 47,158.5C 45.1249,153.833 43.9582,149 43.5,144C 43.3384,141.498 44.0051,139.331 45.5,137.5 Z"/></g>
<g><path style="opacity:1" fill="#caefc6" d="M 239.5,191.5 C 225.917,194.431 214.584,201.097 205.5,211.5C 199.175,204.501 193.175,197.168 187.5,189.5C 190.273,185.223 193.607,181.39 197.5,178C 215.387,163.819 235.721,158.152 258.5,161C 259.451,161.718 259.617,162.551 259,163.5C 252.286,171.212 245.953,179.212 240,187.5C 239.51,188.793 239.343,190.127 239.5,191.5 Z"/></g>
<g><path style="opacity:1" fill="#c5eac5" d="M 308.5,173.5 C 312.122,175.787 315.455,178.453 318.5,181.5C 317.463,183.738 317.297,186.071 318,188.5C 348.208,222.676 352.708,260.009 331.5,300.5C 332.092,302.423 333.092,304.089 334.5,305.5C 331.936,308.28 329.603,311.28 327.5,314.5C 320.962,312.564 314.962,309.564 309.5,305.5C 330.787,281.661 336.621,254.327 327,223.5C 320.739,207.087 310.572,193.754 296.5,183.5C 299.752,179.216 303.752,175.882 308.5,173.5 Z"/></g>
<g><path style="opacity:1" fill="#c8edc4" d="M 270.5,192.5 C 265,190.75 259.333,189.75 253.5,189.5C 263.071,181.369 273.071,173.702 283.5,166.5C 287.446,167.806 291.112,169.639 294.5,172C 286.902,179.441 278.902,186.274 270.5,192.5 Z"/></g>
<g><path style="opacity:1" fill="#38384b" d="M 116.5,180.5 C 124.804,180.278 127.137,183.778 123.5,191C 114.939,191.609 112.605,188.109 116.5,180.5 Z"/></g>
<g><path style="opacity:1" fill="#39394b" d="M 334.5,305.5 C 333.092,304.089 332.092,302.423 331.5,300.5C 352.708,260.009 348.208,222.676 318,188.5C 317.297,186.071 317.463,183.738 318.5,181.5C 320.402,180.489 322.402,180.322 324.5,181C 351.556,210.057 360.056,243.89 350,282.5C 347.779,289.828 344.779,296.828 341,303.5C 339.211,305.229 337.044,305.896 334.5,305.5 Z"/></g>
<g><path style="opacity:1" fill="#ccf2c7" d="M 296.5,183.5 C 310.572,193.754 320.739,207.087 327,223.5C 336.621,254.327 330.787,281.661 309.5,305.5C 304.737,303.799 300.737,301.132 297.5,297.5C 319.795,271.796 321.962,244.462 304,215.5C 298.423,207.481 291.256,201.481 282.5,197.5C 286.145,191.855 290.812,187.188 296.5,183.5 Z"/></g>
<g><path style="opacity:1" fill="#38384b" d="M 161.5,221.5 C 170.142,231.319 179.809,239.986 190.5,247.5C 205.054,259.551 220.054,271.051 235.5,282C 238.197,285.271 237.864,288.271 234.5,291C 232.029,291.706 229.695,291.373 227.5,290C 214.776,280.975 202.442,271.475 190.5,261.5C 181.761,253.282 172.761,245.282 163.5,237.5C 158.545,269.801 167.711,297.468 191,320.5C 191.49,322.545 191.323,324.545 190.5,326.5C 188.262,327.537 185.929,327.703 183.5,327C 156.464,299.89 146.797,267.556 154.5,230C 147,222.5 139.5,215 132,207.5C 130.5,201 133,198.5 139.5,200C 146.702,207.369 154.035,214.536 161.5,221.5 Z"/></g>
<g><path style="opacity:1" fill="#c8ecc4" d="M 165.5,212.5 C 173.607,218.764 181.607,225.264 189.5,232C 191.141,233.129 192.141,234.629 192.5,236.5C 190.918,239.876 190.251,243.542 190.5,247.5C 179.809,239.986 170.142,231.319 161.5,221.5C 162.462,218.261 163.795,215.261 165.5,212.5 Z"/></g>
<g><path style="opacity:1" fill="#c9efc6" d="M 190.5,261.5 C 195.205,286.705 209.539,303.872 233.5,313C 243.383,315.756 253.383,316.589 263.5,315.5C 271.219,321.799 278.719,328.466 286,335.5C 286.688,336.332 286.521,336.998 285.5,337.5C 270.484,344.002 254.817,346.169 238.5,344C 231.095,342.865 224.095,340.532 217.5,337C 220.794,330.912 223.961,324.745 227,318.5C 228.167,313 226,310.833 220.5,312C 213.578,319.428 206.244,326.261 198.5,332.5C 195.527,330.853 192.86,328.853 190.5,326.5C 191.323,324.545 191.49,322.545 191,320.5C 167.711,297.468 158.545,269.801 163.5,237.5C 172.761,245.282 181.761,253.282 190.5,261.5 Z"/></g>
<g><path style="opacity:1" fill="#37374a" d="M 134.5,271.5 C 140.555,271.052 142.721,273.719 141,279.5C 104.731,307.769 73.2307,340.602 46.5,378C 40,379.5 37.5,377 39,370.5C 65.2373,332.096 97.0706,299.096 134.5,271.5 Z"/></g>
<g><path style="opacity:1" fill="#38394b" d="M 312.5,329.5 C 312.489,327.983 311.823,326.816 310.5,326C 302.942,318.937 295.276,312.103 287.5,305.5C 281.875,300.678 282.375,296.678 289,293.5C 291.946,294.725 294.78,296.058 297.5,297.5C 300.737,301.132 304.737,303.799 309.5,305.5C 314.962,309.564 320.962,312.564 327.5,314.5C 351.207,327.021 375.873,337.521 401.5,346C 409.689,347.482 412.522,344.315 410,336.5C 398.904,319.306 387.07,302.639 374.5,286.5C 375.921,281.923 378.921,280.423 383.5,282C 418.951,302.84 448.784,330.007 473,363.5C 480.674,380.136 476.84,393.303 461.5,403C 454.607,405.79 447.607,406.123 440.5,404C 405.438,392.305 373.105,375.638 343.5,354C 333.136,345.825 322.803,337.658 312.5,329.5 Z"/></g>
<g><path style="opacity:1" fill="#38384b" d="M 132.5,296.5 C 149.285,295.451 155.785,303.118 152,319.5C 146.275,330.949 137.441,334.449 125.5,330C 117.14,321.944 116.307,313.111 123,303.5C 125.79,300.535 128.957,298.202 132.5,296.5 Z"/></g>
<g><path style="opacity:1" fill="#38394b" d="M 275.5,311.5 C 283.234,320.899 292.234,328.899 302.5,335.5C 348.689,376.521 401.856,405.187 462,421.5C 463.336,425.832 461.836,428.499 457.5,429.5C 438.661,424.957 419.995,419.79 401.5,414C 383.706,411.727 366.04,408.727 348.5,405C 326.126,399.066 306.293,388.566 289,373.5C 287.643,368.874 289.309,366.207 294,365.5C 312.303,379.735 332.803,389.901 355.5,396C 362.118,397.659 368.785,398.659 375.5,399C 346.715,383.039 319.715,364.539 294.5,343.5C 276.613,352.871 257.613,356.371 237.5,354C 232.388,367.227 225.721,379.561 217.5,391C 210.947,391.763 208.781,388.93 211,382.5C 217.152,372.363 222.652,361.863 227.5,351C 223.002,349.959 218.669,348.459 214.5,346.5C 199.394,371.032 182.56,394.365 164,416.5C 146.291,436.555 125.457,452.388 101.5,464C 91.6722,468.666 81.3389,471.166 70.5,471.5C 48.0598,471.723 36.3931,460.723 35.5,438.5C 36.8937,420.486 42.3937,403.819 52,388.5C 65.9254,367.241 83.7588,350.074 105.5,337C 111.161,336.333 113.328,338.833 112,344.5C 101.105,361.465 94.2716,379.965 91.5,400C 92.134,406.63 95.634,410.796 102,412.5C 116.121,406.699 128.955,398.865 140.5,389C 160.642,371.025 179.975,352.192 198.5,332.5C 206.244,326.261 213.578,319.428 220.5,312C 226,310.833 228.167,313 227,318.5C 223.961,324.745 220.794,330.912 217.5,337C 224.095,340.532 231.095,342.865 238.5,344C 254.817,346.169 270.484,344.002 285.5,337.5C 286.521,336.998 286.688,336.332 286,335.5C 278.719,328.466 271.219,321.799 263.5,315.5C 260.349,312.864 259.182,309.531 260,305.5C 261.242,304.128 262.742,303.128 264.5,302.5C 268.476,305.145 272.143,308.145 275.5,311.5 Z"/></g>
<g><path style="opacity:1" fill="#b8e2bd" d="M 134.5,306.5 C 142.929,306.013 145.429,309.68 142,317.5C 135.863,324.833 131.363,324.167 128.5,315.5C 129.265,311.626 131.265,308.626 134.5,306.5 Z"/></g>
<g><path style="opacity:1" fill="#c5e9c4" d="M 287.5,305.5 C 295.276,312.103 302.942,318.937 310.5,326C 311.823,326.816 312.489,327.983 312.5,329.5C 309.429,331.898 306.095,333.898 302.5,335.5C 292.234,328.899 283.234,320.899 275.5,311.5C 279.783,310.025 283.783,308.025 287.5,305.5 Z"/></g>
<g><path style="opacity:1" fill="#acdfbf" d="M 402.5,306.5 C 425.793,323.959 446.293,344.293 464,367.5C 470.346,380.465 466.846,389.632 453.5,395C 450.5,395.667 447.5,395.667 444.5,395C 398.69,379.274 357.69,355.608 321.5,324C 346.685,336.247 372.685,346.913 399.5,356C 414.35,357.813 421.516,351.313 421,336.5C 415.563,325.942 409.397,315.942 402.5,306.5 Z"/></g>
<g><path style="opacity:1" fill="#38374a" d="M 172.5,330.5 C 177.33,331.156 179.163,333.823 178,338.5C 164.682,354.491 149.515,368.324 132.5,380C 122.201,384.35 115.868,381.016 113.5,370C 114.613,365.442 116.28,361.109 118.5,357C 120.833,356.333 123.167,356.333 125.5,357C 126.126,357.75 126.626,358.584 127,359.5C 126.964,363.11 126.131,366.61 124.5,370C 124.833,370.5 125.167,371 125.5,371.5C 130.973,367.86 136.306,364.027 141.5,360C 152.108,350.219 162.442,340.386 172.5,330.5 Z"/></g>
<g><path style="opacity:1" fill="#37374a" d="M 258.5,378.5 C 265.165,381.64 271.499,385.474 277.5,390C 285.672,394.92 294.005,399.587 302.5,404C 305.791,406.332 306.291,409.165 304,412.5C 301.599,413.602 299.099,413.769 296.5,413C 283.501,405.836 270.834,398.169 258.5,390C 253.178,385.986 253.178,382.152 258.5,378.5 Z"/></g>
<g><path style="opacity:1" fill="#9fd8bf" d="M 104.5,421.5 C 104.389,422.117 104.056,422.617 103.5,423C 109.582,429.606 116.582,434.772 124.5,438.5C 111,449.415 95.6666,456.915 78.5,461C 52.9229,464.756 42.0895,453.923 46,428.5C 53.9063,399.685 69.5729,376.018 93,357.5C 89.1131,367.499 85.7798,377.832 83,388.5C 82.3333,394.5 82.3333,400.5 83,406.5C 86.343,417.081 93.5097,422.081 104.5,421.5 Z"/></g>
<g><path style="opacity:1" fill="#37374a" d="M 200.5,399.5 C 207.931,398.76 210.098,401.76 207,408.5C 202.241,412.909 199.074,412.076 197.5,406C 197.391,403.288 198.391,401.122 200.5,399.5 Z"/></g>
<g><path style="opacity:1" fill="#afdfbe" d="M 201.5,346.5 C 185.361,374.91 165.694,400.743 142.5,424C 136.915,429.426 130.915,434.259 124.5,438.5C 116.582,434.772 109.582,429.606 103.5,423C 104.056,422.617 104.389,422.117 104.5,421.5C 117.992,416.754 130.325,409.921 141.5,401C 161.407,384.097 180.407,366.097 198.5,347C 199.448,346.517 200.448,346.351 201.5,346.5 Z"/></g>
<g><path style="opacity:1" fill="#38374b" d="M 320.5,413.5 C 327.735,413.31 330.902,416.644 330,423.5C 325.885,426.157 321.885,425.823 318,422.5C 316.779,418.718 317.613,415.718 320.5,413.5 Z"/></g>
<g><path style="opacity:1" fill="#37374a" d="M 183.5,421.5 C 187.841,420.663 190.508,422.33 191.5,426.5C 189.96,430.213 187.793,433.547 185,436.5C 173.4,449.105 160.9,460.605 147.5,471C 141.556,472.72 139.056,470.553 140,464.5C 155.671,451.329 170.171,436.996 183.5,421.5 Z"/></g>
<g><path style="opacity:1" fill="#38374a" d="M 346.5,424.5 C 348.527,424.338 350.527,424.505 352.5,425C 366.695,429.799 381.029,434.132 395.5,438C 399.5,445 397.5,448 389.5,447C 375.656,443.608 361.989,439.608 348.5,435C 342.672,432.372 342.005,428.872 346.5,424.5 Z"/></g>
</svg>
