<?xml version="1.0" encoding="UTF-8"?>
<!DOCTYPE svg PUBLIC "-//W3C//DTD SVG 1.1//EN" "http://www.w3.org/Graphics/SVG/1.1/DTD/svg11.dtd">
<svg xmlns="http://www.w3.org/2000/svg" version="1.1" width="512px" height="512px" style="shape-rendering:geometricPrecision; text-rendering:geometricPrecision; image-rendering:optimizeQuality; fill-rule:evenodd; clip-rule:evenodd" xmlns:xlink="http://www.w3.org/1999/xlink">
<g><path style="opacity:1" fill="#fad275" d="M 297.5,44.5 C 323.502,44.3334 349.502,44.5 375.5,45C 356.365,52.3231 337.032,59.1564 317.5,65.5C 312.923,59.3781 308.09,53.3781 303,47.5C 301.281,46.1312 299.448,45.1312 297.5,44.5 Z"/></g>
<g><path style="opacity:1" fill="#fab954" d="M 230.5,45.5 C 241.292,58.1286 252.292,70.6286 263.5,83C 262.944,83.3826 262.611,83.8826 262.5,84.5C 261.749,85.5735 260.749,85.7401 259.5,85C 225.167,72 190.833,59 156.5,46C 181.164,45.5 205.831,45.3334 230.5,45.5 Z"/></g>
<g><path style="opacity:1" fill="#fac15e" d="M 230.5,45.5 C 240.833,45.5 251.167,45.5 261.5,45.5C 270.167,55.8333 278.833,66.1667 287.5,76.5C 279.155,79.1707 270.822,81.8374 262.5,84.5C 262.611,83.8826 262.944,83.3826 263.5,83C 252.292,70.6286 241.292,58.1286 230.5,45.5 Z"/></g>
<g><path style="opacity:1" fill="#fac866" d="M 297.5,44.5 C 299.448,45.1312 301.281,46.1312 303,47.5C 308.09,53.3781 312.923,59.3781 317.5,65.5C 307.5,69.1667 297.5,72.8333 287.5,76.5C 278.833,66.1667 270.167,55.8333 261.5,45.5C 273.48,44.6617 285.48,44.3283 297.5,44.5 Z"/></g>
<g><path style="opacity:1" fill="#fae28a" d="M 447.5,115.5 C 432.875,97.2727 417.542,79.606 401.5,62.5C 425.387,53.0376 449.721,44.8709 474.5,38C 465.005,63.6523 456.005,89.4857 447.5,115.5 Z"/></g>
<g><path style="opacity:1" fill="#fad87e" d="M 401.5,62.5 C 417.542,79.606 432.875,97.2727 447.5,115.5C 443.5,126.5 439.5,137.5 435.5,148.5C 413.698,123.86 392.032,99.0263 370.5,74C 371.416,73.7216 372.082,73.2216 372.5,72.5C 381.954,68.7921 391.621,65.4588 401.5,62.5 Z"/></g>
<g><path style="opacity:1" fill="#fad475" d="M 372.5,72.5 C 372.082,73.2216 371.416,73.7216 370.5,74C 392.032,99.0263 413.698,123.86 435.5,148.5C 434.068,154.141 432.068,159.475 429.5,164.5C 418.216,150.215 406.216,136.548 393.5,123.5C 393.724,121.213 394.391,119.047 395.5,117C 395.167,116.5 394.833,116 394.5,115.5C 392.55,116.372 390.55,117.039 388.5,117.5C 377.875,104.207 366.875,91.2066 355.5,78.5C 360.953,76.1255 366.619,74.1255 372.5,72.5 Z"/></g>
<g><path style="opacity:1" fill="#facd6f" d="M 355.5,78.5 C 366.875,91.2066 377.875,104.207 388.5,117.5C 381.238,120.481 373.904,123.481 366.5,126.5C 354.775,113.116 343.109,99.7826 331.5,86.5C 339.297,83.2702 347.297,80.6035 355.5,78.5 Z"/></g>
<g><path style="opacity:1" fill="#fac865" d="M 331.5,86.5 C 343.109,99.7826 354.775,113.116 366.5,126.5C 357.5,129.833 348.5,133.167 339.5,136.5C 329.876,125.039 320.043,113.705 310,102.5C 308.25,100.266 306.75,97.9324 305.5,95.5C 314.162,92.5016 322.828,89.5016 331.5,86.5 Z"/></g>
<g><path style="opacity:1" fill="#fac15e" d="M 305.5,95.5 C 306.75,97.9324 308.25,100.266 310,102.5C 320.043,113.705 329.876,125.039 339.5,136.5C 331.648,139.895 323.648,142.895 315.5,145.5C 315.611,144.883 315.944,144.383 316.5,144C 304.96,131.462 293.794,118.629 283,105.5C 282.329,104.748 281.496,104.414 280.5,104.5C 288.682,101.326 297.016,98.326 305.5,95.5 Z"/></g>
<g><path style="opacity:1" fill="#fabb55" d="M 280.5,104.5 C 281.496,104.414 282.329,104.748 283,105.5C 293.794,118.629 304.96,131.462 316.5,144C 315.944,144.383 315.611,144.883 315.5,145.5C 308.146,149.067 300.479,152.067 292.5,154.5C 292.611,153.883 292.944,153.383 293.5,153C 282.006,139.008 270.006,125.508 257.5,112.5C 264.954,109.459 272.62,106.792 280.5,104.5 Z"/></g>
<g><path style="opacity:1" fill="#fab44c" d="M 257.5,112.5 C 270.006,125.508 282.006,139.008 293.5,153C 292.944,153.383 292.611,153.883 292.5,154.5C 285.731,157.538 278.731,160.204 271.5,162.5C 258.724,148.732 246.724,134.399 235.5,119.5C 242.845,117.163 250.178,114.829 257.5,112.5 Z"/></g>
<g><path style="opacity:1" fill="#faaf45" d="M 235.5,119.5 C 246.724,134.399 258.724,148.732 271.5,162.5C 263.132,166.404 254.465,169.737 245.5,172.5C 233.403,157.98 221.07,143.647 208.5,129.5C 217.43,126.188 226.43,122.854 235.5,119.5 Z"/></g>
<g><path style="opacity:1" fill="#face6f" d="M 393.5,123.5 C 406.216,136.548 418.216,150.215 429.5,164.5C 427.233,172.967 424.567,181.3 421.5,189.5C 409.865,176.359 398.365,163.026 387,149.5C 386.184,148.177 385.017,147.511 383.5,147.5C 386.656,139.348 389.99,131.348 393.5,123.5 Z"/></g>
<g><path style="opacity:1" fill="#faa644" d="M 208.5,129.5 C 221.07,143.647 233.403,157.98 245.5,172.5C 236.854,176.606 227.854,179.94 218.5,182.5C 219.833,174.501 221.166,166.501 222.5,158.5C 207.158,158.523 191.825,158.856 176.5,159.5C 176.649,158.448 176.483,157.448 176,156.5C 171.918,152.924 168.418,148.924 165.5,144.5C 179.545,138.928 193.878,133.928 208.5,129.5 Z"/></g>
<g><path style="opacity:1" fill="#fa9a44" d="M 165.5,144.5 C 168.418,148.924 171.918,152.924 176,156.5C 176.483,157.448 176.649,158.448 176.5,159.5C 157.594,159.835 138.761,160.501 120,161.5C 119.409,160.517 119.743,159.85 121,159.5C 135.757,154.192 150.591,149.192 165.5,144.5 Z"/></g>
<g><path style="opacity:1" fill="#fac765" d="M 383.5,147.5 C 385.017,147.511 386.184,148.177 387,149.5C 398.365,163.026 409.865,176.359 421.5,189.5C 418.364,198.909 415.03,208.243 411.5,217.5C 410.504,217.586 409.671,217.252 409,216.5C 397.302,202.641 385.468,188.974 373.5,175.5C 376.633,166.102 379.966,156.769 383.5,147.5 Z"/></g>
<g><path style="opacity:1" fill="#e0e8f9" d="M 358.5,154.5 C 358.565,154.062 358.399,153.728 358,153.5C 345.938,165.729 333.772,177.729 321.5,189.5C 310.659,193.886 301.992,191.22 295.5,181.5C 317.9,173.218 339.4,162.885 360,150.5C 360.348,152.14 359.848,153.473 358.5,154.5 Z"/></g>
<g><path style="opacity:1" fill="#fac15e" d="M 373.5,175.5 C 385.468,188.974 397.302,202.641 409,216.5C 409.671,217.252 410.504,217.586 411.5,217.5C 409.068,226.137 406.068,234.47 402.5,242.5C 389.266,228.356 376.266,214.022 363.5,199.5C 366.656,191.348 369.99,183.348 373.5,175.5 Z"/></g>
<g><path style="opacity:1" fill="#a2b0eb" d="M 295.5,181.5 C 301.992,191.22 310.659,193.886 321.5,189.5C 327.052,191.716 332.385,194.382 337.5,197.5C 334.032,206.272 330.698,215.106 327.5,224C 326.167,224.667 324.833,224.667 323.5,224C 319.63,220.298 315.963,216.464 312.5,212.5C 308.167,207.5 303.5,202.833 298.5,198.5C 293.784,194.786 289.784,190.453 286.5,185.5C 288.764,182.829 291.764,181.496 295.5,181.5 Z"/></g>
<g><path style="opacity:1" fill="#b2c1f0" d="M 358.5,154.5 C 351.228,168.711 344.228,183.044 337.5,197.5C 332.385,194.382 327.052,191.716 321.5,189.5C 333.772,177.729 345.938,165.729 358,153.5C 358.399,153.728 358.565,154.062 358.5,154.5 Z"/></g>
<g><path style="opacity:1" fill="#fad072" d="M 466.5,236.5 C 465.732,237.263 465.232,238.263 465,239.5C 457.003,229.672 448.503,220.338 439.5,211.5C 447.833,186.002 456.666,160.669 466,135.5C 466.5,169.165 466.667,202.832 466.5,236.5 Z"/></g>
<g><path style="opacity:1" fill="#fabb55" d="M 363.5,199.5 C 376.266,214.022 389.266,228.356 402.5,242.5C 400.121,250.925 397.454,259.259 394.5,267.5C 392.983,267.489 391.816,266.823 391,265.5C 379.333,251.833 367.667,238.167 356,224.5C 355.329,225.252 354.496,225.586 353.5,225.5C 357.028,216.917 360.362,208.25 363.5,199.5 Z"/></g>
<g><path style="opacity:1" fill="#fa8f43" d="M 153.5,199.5 C 163.983,200.532 174.316,202.032 184.5,204C 181.546,210.078 178.213,215.911 174.5,221.5C 153.591,228.26 132.591,233.926 111.5,238.5C 125.52,225.478 139.52,212.478 153.5,199.5 Z"/></g>
<g><path style="opacity:1" fill="#fac865" d="M 439.5,211.5 C 448.503,220.338 457.003,229.672 465,239.5C 465.232,238.263 465.732,237.263 466.5,236.5C 466.5,251.167 466.5,265.833 466.5,280.5C 464.629,280.141 463.129,279.141 462,277.5C 451.674,264.677 440.84,252.343 429.5,240.5C 432.459,230.621 435.792,220.954 439.5,211.5 Z"/></g>
<g><path style="opacity:1" fill="#fab44c" d="M 394.5,267.5 C 391.107,276.012 388.107,284.679 385.5,293.5C 372.167,278.5 358.833,263.5 345.5,248.5C 347.881,240.738 350.547,233.071 353.5,225.5C 354.496,225.586 355.329,225.252 356,224.5C 367.667,238.167 379.333,251.833 391,265.5C 391.816,266.823 392.983,267.489 394.5,267.5 Z"/></g>
<g><path style="opacity:1" fill="#fabf5c" d="M 429.5,240.5 C 440.84,252.343 451.674,264.677 462,277.5C 463.129,279.141 464.629,280.141 466.5,280.5C 466.617,305.179 466.117,329.845 465,354.5C 451.963,319.597 438.796,284.763 425.5,250C 426.757,246.709 428.09,243.542 429.5,240.5 Z"/></g>
<g><path style="opacity:1" fill="#4e5580" d="M 298.5,198.5 C 303.5,202.833 308.167,207.5 312.5,212.5C 280.5,244.167 248.5,275.833 216.5,307.5C 212.897,302.558 208.897,297.892 204.5,293.5C 235.833,261.833 267.167,230.167 298.5,198.5 Z"/></g>
<g><path style="opacity:1" fill="#faad45" d="M 345.5,248.5 C 358.833,263.5 372.167,278.5 385.5,293.5C 379.304,310.754 373.304,328.087 367.5,345.5C 362.167,339.167 356.833,332.833 351.5,326.5C 352.138,313.969 352.805,301.469 353.5,289C 345.181,289.941 336.848,291.107 328.5,292.5C 333.4,277.456 339.067,262.789 345.5,248.5 Z"/></g>
<g><path style="opacity:1" fill="#565c87" d="M 204.5,293.5 C 208.897,297.892 212.897,302.558 216.5,307.5C 198.167,326.5 179.5,345.167 160.5,363.5C 157.167,358.167 152.833,353.833 147.5,350.5C 166.167,331.167 185.167,312.167 204.5,293.5 Z"/></g>
<g><path style="opacity:1" fill="#faa044" d="M 351.5,326.5 C 356.833,332.833 362.167,339.167 367.5,345.5C 362.107,360.843 356.607,376.176 351,391.5C 350.853,369.835 351.02,348.168 351.5,326.5 Z"/></g>
<g><path style="opacity:1" fill="#fa9644" d="M 299.5,369.5 C 296.144,364.823 292.311,360.489 288,356.5C 286.906,354.922 286.072,353.255 285.5,351.5C 286.422,346.4 287.755,341.4 289.5,336.5C 295.5,333.167 301.5,329.833 307.5,326.5C 308.979,336.146 310.313,345.812 311.5,355.5C 308.602,361.068 304.602,365.734 299.5,369.5 Z"/></g>
<g><path style="opacity:1" fill="#586388" d="M 147.5,350.5 C 152.833,353.833 157.167,358.167 160.5,363.5C 148.5,376.167 136.167,388.5 123.5,400.5C 118.558,396.897 113.892,392.897 109.5,388.5C 121.833,375.5 134.5,362.833 147.5,350.5 Z"/></g>
<g><path style="opacity:1" fill="#fa8e44" d="M 285.5,351.5 C 286.072,353.255 286.906,354.922 288,356.5C 292.311,360.489 296.144,364.823 299.5,369.5C 290.935,380.24 281.769,390.573 272,400.5C 275.728,383.92 280.228,367.587 285.5,351.5 Z"/></g>
<g><path style="opacity:1" fill="#5d648f" d="M 109.5,388.5 C 113.892,392.897 118.558,396.897 123.5,400.5C 120.204,404.298 116.704,407.964 113,411.5C 112.626,421.216 112.96,430.883 114,440.5C 110.229,443.959 106.395,447.292 102.5,450.5C 89.2291,436.728 75.7291,423.062 62,409.5C 61.5357,408.906 61.369,408.239 61.5,407.5C 63.9155,403.578 66.9155,400.078 70.5,397C 80.128,397.897 89.7947,398.231 99.5,398C 102.703,394.629 106.036,391.462 109.5,388.5 Z"/></g>
<g><path style="opacity:1" fill="#5d698f" d="M 61.5,407.5 C 61.369,408.239 61.5357,408.906 62,409.5C 75.7291,423.062 89.2291,436.728 102.5,450.5C 95.0634,456.763 87.7301,463.263 80.5,470C 78.4732,471.879 76.1398,473.046 73.5,473.5C 78.1082,444.108 65.7749,431.775 36.5,436.5C 44.5113,426.494 52.8446,416.827 61.5,407.5 Z"/></g>
</svg>
