<?xml version="1.0" encoding="UTF-8"?>
<!DOCTYPE svg PUBLIC "-//W3C//DTD SVG 1.1//EN" "http://www.w3.org/Graphics/SVG/1.1/DTD/svg11.dtd">
<svg xmlns="http://www.w3.org/2000/svg" version="1.1" width="512px" height="512px" style="shape-rendering:geometricPrecision; text-rendering:geometricPrecision; image-rendering:optimizeQuality; fill-rule:evenodd; clip-rule:evenodd" xmlns:xlink="http://www.w3.org/1999/xlink">
<g><path style="opacity:1" fill="#39394b" d="M 385.5,192.5 C 388.365,192.055 390.865,192.722 393,194.5C 395.55,200.257 398.05,205.923 400.5,211.5C 402.857,222.45 405.023,233.45 407,244.5C 407.628,255.848 407.461,267.181 406.5,278.5C 405.596,279.209 405.263,280.209 405.5,281.5C 430.339,281.831 455.006,281.498 479.5,280.5C 479.5,266.167 479.5,251.833 479.5,237.5C 467.162,237.667 454.829,237.5 442.5,237C 441.667,236.167 440.833,235.333 440,234.5C 439.22,225.803 437.386,217.469 434.5,209.5C 428.993,188.82 419.993,169.82 407.5,152.5C 397.424,161.574 388.091,171.241 379.5,181.5C 377.011,181.702 374.677,181.202 372.5,180C 343.982,140.073 304.982,119.24 255.5,117.5C 234.844,117.748 215.177,122.248 196.5,131C 194.167,131.667 191.833,131.667 189.5,131C 188.944,130.617 188.611,130.117 188.5,129.5C 187.862,123.623 190.528,120.123 196.5,119C 231.273,105.409 266.607,103.909 302.5,114.5C 332.535,125.02 357.535,142.686 377.5,167.5C 395.521,150.146 413.188,132.479 430.5,114.5C 443.479,102.188 456.146,89.521 468.5,76.5C 458.806,65.9719 448.639,55.9719 438,46.5C 415.874,67.6257 394.04,89.1257 372.5,111C 370.833,111.667 369.167,111.667 367.5,111C 344.074,93.0182 317.741,81.5182 288.5,76.5C 284.35,76.5987 280.85,75.2654 278,72.5C 277.5,60.1712 277.333,47.8378 277.5,35.5C 262.833,35.5 248.167,35.5 233.5,35.5C 233.667,47.8378 233.5,60.1712 233,72.5C 232.228,73.8491 231.061,74.6824 229.5,75C 226.487,75.5022 223.487,76.0022 220.5,76.5C 193.983,80.9305 169.983,91.0971 148.5,107C 158.035,116.702 167.702,126.202 177.5,135.5C 177.662,137.527 177.495,139.527 177,141.5C 141.58,166.309 120.913,200.309 115,243.5C 114.273,258.561 114.606,273.561 116,288.5C 115.097,289.701 113.931,290.535 112.5,291C 83.1667,291.667 53.8333,291.667 24.5,291C 23.3333,290.5 22.5,289.667 22,288.5C 21.3333,268.833 21.3333,249.167 22,229.5C 22.9025,228.299 24.0692,227.465 25.5,227C 37.7423,226.823 49.909,226.323 62,225.5C 67.3363,196.136 78.5029,169.303 95.5,145C 73.6667,123.167 51.8333,101.333 30,79.5C 29.3333,77.5 29.3333,75.5 30,73.5C 43.7111,59.2876 57.8778,45.6209 72.5,32.5C 73.7946,33.0983 75.1279,33.5983 76.5,34C 98.0138,55.6806 119.68,77.1806 141.5,98.5C 166.056,80.8641 193.389,69.8641 223.5,65.5C 223.333,52.8289 223.5,40.1623 224,27.5C 224.903,26.2986 226.069,25.4652 227.5,25C 246.167,24.3333 264.833,24.3333 283.5,25C 284.931,25.4652 286.097,26.2986 287,27.5C 287.5,40.1623 287.667,52.8289 287.5,65.5C 317.167,70.5501 344.333,81.5501 369,98.5C 391.126,77.3743 412.96,55.8743 434.5,34C 436.897,32.2759 439.231,32.2759 441.5,34C 454.667,47.1667 467.833,60.3333 481,73.5C 481.667,75.5 481.667,77.5 481,79.5C 459.167,101.333 437.333,123.167 415.5,145C 432.836,169.183 444.002,196.016 449,225.5C 461.091,226.323 473.258,226.823 485.5,227C 486.931,227.465 488.097,228.299 489,229.5C 489.821,249.543 489.654,269.543 488.5,289.5C 487.975,290.192 487.308,290.692 486.5,291C 471.833,291.167 457.167,291.333 442.5,291.5C 427.077,291.652 411.744,291.152 396.5,290C 395.056,288.874 394.39,287.374 394.5,285.5C 399.744,256.048 396.244,227.714 384,200.5C 383.333,198.167 383.333,195.833 384,193.5C 384.383,192.944 384.883,192.611 385.5,192.5 Z"/></g>
<g><path style="opacity:1" fill="#f8e68a" d="M 288.5,76.5 C 265.833,77.8333 243.167,77.8333 220.5,76.5C 223.487,76.0022 226.487,75.5022 229.5,75C 231.061,74.6824 232.228,73.8491 233,72.5C 233.5,60.1712 233.667,47.8378 233.5,35.5C 248.167,35.5 262.833,35.5 277.5,35.5C 277.333,47.8378 277.5,60.1712 278,72.5C 280.85,75.2654 284.35,76.5987 288.5,76.5 Z"/></g>
<g><path style="opacity:1" fill="#f8df81" d="M 430.5,114.5 C 387.833,114.5 345.167,114.5 302.5,114.5C 266.607,103.909 231.273,105.409 196.5,119C 190.528,120.123 187.862,123.623 188.5,129.5C 184.7,131.234 181.034,133.234 177.5,135.5C 167.702,126.202 158.035,116.702 148.5,107C 169.983,91.0971 193.983,80.9305 220.5,76.5C 243.167,77.8333 265.833,77.8333 288.5,76.5C 317.741,81.5182 344.074,93.0182 367.5,111C 369.167,111.667 370.833,111.667 372.5,111C 394.04,89.1257 415.874,67.6257 438,46.5C 448.639,55.9719 458.806,65.9719 468.5,76.5C 456.146,89.521 443.479,102.188 430.5,114.5 Z"/></g>
<g><path style="opacity:1" fill="#f7e083" d="M 142.5,115.5 C 122.674,116.497 102.674,116.83 82.5,116.5C 68.8543,103.521 55.521,90.1877 42.5,76.5C 52.5,66.1667 62.5,55.8333 72.5,45.5C 96.1877,68.521 119.521,91.8543 142.5,115.5 Z"/></g>
<g><path style="opacity:1" fill="#f8d87a" d="M 302.5,114.5 C 345.167,114.5 387.833,114.5 430.5,114.5C 413.188,132.479 395.521,150.146 377.5,167.5C 357.535,142.686 332.535,125.02 302.5,114.5 Z"/></g>
<g><path style="opacity:1" fill="#f7d77a" d="M 142.5,115.5 C 150.146,122.479 157.479,129.812 164.5,137.5C 159.796,141.214 155.129,144.881 150.5,148.5C 135.99,148.829 121.657,148.496 107.5,147.5C 107.662,145.473 107.495,143.473 107,141.5C 98.631,133.298 90.4643,124.965 82.5,116.5C 102.674,116.83 122.674,116.497 142.5,115.5 Z"/></g>
<g><path style="opacity:1" fill="#3b394c" d="M 322.5,486.5 C 322.5,482.833 322.5,479.167 322.5,475.5C 322.5,469.5 322.5,463.5 322.5,457.5C 322.5,448.167 322.5,438.833 322.5,429.5C 322.5,424.167 322.5,418.833 322.5,413.5C 322.5,411.833 322.5,410.167 322.5,408.5C 310.745,412.058 298.745,413.224 286.5,412C 283.689,408.706 284.022,405.706 287.5,403C 301.765,403.28 315.432,400.613 328.5,395C 333.799,389.901 337.133,383.735 338.5,376.5C 339.222,376.082 339.722,375.416 340,374.5C 342.119,362.598 342.952,350.598 342.5,338.5C 342.5,318.167 342.5,297.833 342.5,277.5C 342.666,272.821 342.499,268.155 342,263.5C 333.468,270.073 323.968,271.906 313.5,269C 309.726,267.698 306.559,265.531 304,262.5C 296.047,283.488 281.547,289.988 260.5,282C 257.688,280.023 255.022,277.856 252.5,275.5C 247.312,288.689 238.312,298.356 225.5,304.5C 238.113,312.957 247.28,324.29 253,338.5C 254.662,335.351 256.495,332.351 258.5,329.5C 270.346,315.912 285.346,308.745 303.5,308C 307.002,310.496 307.335,313.329 304.5,316.5C 294.532,317.767 285.199,320.934 276.5,326C 271.623,329.376 267.623,333.543 264.5,338.5C 260.67,344.012 258.67,350.178 258.5,357C 259.496,363.473 260.163,369.973 260.5,376.5C 260.929,380.257 260.263,383.757 258.5,387C 253.906,388.651 251.24,387.151 250.5,382.5C 251.162,367.494 248.495,353.16 242.5,339.5C 234.658,321.507 220.991,310.674 201.5,307C 199.845,305.556 199.178,303.722 199.5,301.5C 200.29,300.206 201.29,299.039 202.5,298C 228.012,297.655 242.345,284.822 245.5,259.5C 221.174,258.334 196.84,258.167 172.5,259C 166,261.5 161.5,266 159,272.5C 157.361,297.32 157.194,321.986 158.5,346.5C 159.625,357.008 162.292,367.008 166.5,376.5C 171.266,390.031 177.599,402.698 185.5,414.5C 186.441,416.05 187.107,417.716 187.5,419.5C 187.5,441.5 187.5,463.5 187.5,485.5C 187.5,485.833 187.5,486.167 187.5,486.5C 184.167,486.5 180.833,486.5 177.5,486.5C 177.667,464.831 177.5,443.164 177,421.5C 162.643,399.782 152.977,376.115 148,350.5C 147.833,324 147.667,297.5 147.5,271C 147.358,242.467 147.858,213.967 149,185.5C 154.876,173.411 164.543,168.744 178,171.5C 182.833,171.667 187.667,171.833 192.5,172C 195.923,173.13 199.089,174.63 202,176.5C 205.184,175.159 208.351,173.659 211.5,172C 221.167,171.333 230.833,171.333 240.5,172C 243.987,173.245 247.321,174.745 250.5,176.5C 253.712,174.802 257.046,173.302 260.5,172C 270.167,171.333 279.833,171.333 289.5,172C 292.954,173.302 296.288,174.802 299.5,176.5C 302.464,175.018 305.464,173.518 308.5,172C 318.5,171.333 328.5,171.333 338.5,172C 346.641,175.137 351.474,180.97 353,189.5C 353.667,245.833 353.667,302.167 353,358.5C 352.458,373.126 348.124,386.459 340,398.5C 338.316,400.351 336.483,402.018 334.5,403.5C 333.5,431.159 333.167,458.825 333.5,486.5C 329.833,486.5 326.167,486.5 322.5,486.5 Z"/></g>
<g><path style="opacity:1" fill="#f8cd6b" d="M 434.5,209.5 C 423.549,211.478 412.216,212.144 400.5,211.5C 398.05,205.923 395.55,200.257 393,194.5C 390.865,192.722 388.365,192.055 385.5,192.5C 383.754,188.673 381.754,185.007 379.5,181.5C 388.091,171.241 397.424,161.574 407.5,152.5C 419.993,169.82 428.993,188.82 434.5,209.5 Z"/></g>
<g><path style="opacity:1" fill="#f8ce6c" d="M 107.5,147.5 C 121.657,148.496 135.99,148.829 150.5,148.5C 132.623,166.904 119.29,188.237 110.5,212.5C 98.784,213.144 87.4507,212.478 76.5,210.5C 82.3438,187.147 92.6772,166.147 107.5,147.5 Z"/></g>
<g><path style="opacity:1" fill="#f7a2a0" d="M 166.5,181.5 C 173.841,181.334 181.174,181.5 188.5,182C 191.539,183.031 194.039,184.865 196,187.5C 197.465,207.766 197.965,228.099 197.5,248.5C 188.827,248.334 180.16,248.5 171.5,249C 166.688,249.989 162.521,252.156 159,255.5C 158.333,233.167 158.333,210.833 159,188.5C 160.742,185.254 163.242,182.921 166.5,181.5 Z"/></g>
<g><path style="opacity:1" fill="#f9a3a1" d="M 214.5,181.5 C 222.174,181.334 229.841,181.5 237.5,182C 240.937,183.105 243.437,185.272 245,188.5C 245.5,208.497 245.667,228.497 245.5,248.5C 232.833,248.5 220.167,248.5 207.5,248.5C 207.333,228.164 207.5,207.831 208,187.5C 210.063,185.266 212.229,183.266 214.5,181.5 Z"/></g>
<g><path style="opacity:1" fill="#f9a1a0" d="M 293.5,189.5 C 293.5,199.5 293.5,209.5 293.5,219.5C 281.167,219.5 268.833,219.5 256.5,219.5C 256.5,209.5 256.5,199.5 256.5,189.5C 257.248,185.583 259.582,183.083 263.5,182C 271.911,181.095 280.245,181.428 288.5,183C 291.021,184.558 292.688,186.725 293.5,189.5 Z"/></g>
<g><path style="opacity:1" fill="#f9a1a0" d="M 342.5,219.5 C 329.833,219.5 317.167,219.5 304.5,219.5C 304.334,209.161 304.5,198.828 305,188.5C 306.5,185.667 308.667,183.5 311.5,182C 319.167,181.333 326.833,181.333 334.5,182C 337.102,182.883 339.269,184.383 341,186.5C 342.454,197.397 342.954,208.397 342.5,219.5 Z"/></g>
<g><path style="opacity:1" fill="#f9a7a3" d="M 304.5,219.5 C 317.167,219.5 329.833,219.5 342.5,219.5C 342.895,229.566 342.395,239.566 341,249.5C 334.193,259.991 325.026,262.825 313.5,258C 309.908,255.079 307.075,251.579 305,247.5C 304.5,238.173 304.334,228.839 304.5,219.5 Z"/></g>
<g><path style="opacity:1" fill="#f6a7a4" d="M 256.5,189.5 C 256.5,199.5 256.5,209.5 256.5,219.5C 268.833,219.5 281.167,219.5 293.5,219.5C 293.5,209.5 293.5,199.5 293.5,189.5C 294.663,212.663 294.83,235.996 294,259.5C 290.448,271.864 282.281,277.03 269.5,275C 262.155,272.321 257.655,267.155 256,259.5C 255.17,235.996 255.337,212.663 256.5,189.5 Z"/></g>
<g><path style="opacity:1" fill="#f8c65f" d="M 76.5,210.5 C 87.4507,212.478 98.784,213.144 110.5,212.5C 106.766,224.572 104.433,236.905 103.5,249.5C 79.8333,249.5 56.1667,249.5 32.5,249.5C 32.5,259.833 32.5,270.167 32.5,280.5C 32.1667,280.5 31.8333,280.5 31.5,280.5C 31.5,266.167 31.5,251.833 31.5,237.5C 43.8378,237.667 56.1712,237.5 68.5,237C 69.3333,236.167 70.1667,235.333 71,234.5C 72.3117,226.25 74.145,218.25 76.5,210.5 Z"/></g>
<g><path style="opacity:1" fill="#f9c25d" d="M 434.5,209.5 C 437.386,217.469 439.22,225.803 440,234.5C 440.833,235.333 441.667,236.167 442.5,237C 454.829,237.5 467.162,237.667 479.5,237.5C 479.5,251.833 479.5,266.167 479.5,280.5C 454.81,281.157 430.477,280.49 406.5,278.5C 407.461,267.181 407.628,255.848 407,244.5C 405.023,233.45 402.857,222.45 400.5,211.5C 412.216,212.144 423.549,211.478 434.5,209.5 Z"/></g>
<g><path style="opacity:1" fill="#f7ada8" d="M 199.5,301.5 C 185.833,301.5 172.167,301.5 158.5,301.5C 158.5,313.833 158.5,326.167 158.5,338.5C 158.5,341.167 158.5,343.833 158.5,346.5C 157.194,321.986 157.361,297.32 159,272.5C 161.5,266 166,261.5 172.5,259C 196.84,258.167 221.174,258.334 245.5,259.5C 242.345,284.822 228.012,297.655 202.5,298C 201.29,299.039 200.29,300.206 199.5,301.5 Z"/></g>
<g><path style="opacity:1" fill="#f9c058" d="M 103.5,249.5 C 103.434,258.852 103.768,268.185 104.5,277.5C 104.5,278.5 104.5,279.5 104.5,280.5C 80.5,280.5 56.5,280.5 32.5,280.5C 32.5,270.167 32.5,259.833 32.5,249.5C 56.1667,249.5 79.8333,249.5 103.5,249.5 Z"/></g>
<g><path style="opacity:1" fill="#df6565" d="M 342.5,277.5 C 331.494,283.651 320.328,283.985 309,278.5C 295.976,294.219 279.476,299.719 259.5,295C 254.991,299.838 249.658,303.505 243.5,306C 250.66,312.495 255.66,320.328 258.5,329.5C 256.495,332.351 254.662,335.351 253,338.5C 247.28,324.29 238.113,312.957 225.5,304.5C 238.312,298.356 247.312,288.689 252.5,275.5C 255.022,277.856 257.688,280.023 260.5,282C 281.547,289.988 296.047,283.488 304,262.5C 306.559,265.531 309.726,267.698 313.5,269C 323.968,271.906 333.468,270.073 342,263.5C 342.499,268.155 342.666,272.821 342.5,277.5 Z"/></g>
<g><path style="opacity:1" fill="#6a5d50" d="M 104.5,277.5 C 105.434,278.568 105.768,279.901 105.5,281.5C 80.661,281.831 55.9944,281.498 31.5,280.5C 31.8333,280.5 32.1667,280.5 32.5,280.5C 56.5,280.5 80.5,280.5 104.5,280.5C 104.5,279.5 104.5,278.5 104.5,277.5 Z"/></g>
<g><path style="opacity:1" fill="#6a5d50" d="M 406.5,278.5 C 430.477,280.49 454.81,281.157 479.5,280.5C 455.006,281.498 430.339,281.831 405.5,281.5C 405.263,280.209 405.596,279.209 406.5,278.5 Z"/></g>
<g><path style="opacity:1" fill="#f9b4ae" d="M 199.5,301.5 C 199.178,303.722 199.845,305.556 201.5,307C 220.991,310.674 234.658,321.507 242.5,339.5C 214.574,338.509 186.574,338.176 158.5,338.5C 158.5,326.167 158.5,313.833 158.5,301.5C 172.167,301.5 185.833,301.5 199.5,301.5 Z"/></g>
<g><path style="opacity:1" fill="#f9b2ae" d="M 342.5,277.5 C 342.5,297.833 342.5,318.167 342.5,338.5C 316.5,338.5 290.5,338.5 264.5,338.5C 267.623,333.543 271.623,329.376 276.5,326C 285.199,320.934 294.532,317.767 304.5,316.5C 307.335,313.329 307.002,310.496 303.5,308C 285.346,308.745 270.346,315.912 258.5,329.5C 255.66,320.328 250.66,312.495 243.5,306C 249.658,303.505 254.991,299.838 259.5,295C 279.476,299.719 295.976,294.219 309,278.5C 320.328,283.985 331.494,283.651 342.5,277.5 Z"/></g>
<g><path style="opacity:1" fill="#f9bab4" d="M 158.5,338.5 C 186.574,338.176 214.574,338.509 242.5,339.5C 248.495,353.16 251.162,367.494 250.5,382.5C 249.539,380.735 249.205,378.735 249.5,376.5C 221.833,376.5 194.167,376.5 166.5,376.5C 162.292,367.008 159.625,357.008 158.5,346.5C 158.5,343.833 158.5,341.167 158.5,338.5 Z"/></g>
<g><path style="opacity:1" fill="#f9bab4" d="M 264.5,338.5 C 290.5,338.5 316.5,338.5 342.5,338.5C 342.952,350.598 342.119,362.598 340,374.5C 339.722,375.416 339.222,376.082 338.5,376.5C 312.5,376.5 286.5,376.5 260.5,376.5C 260.163,369.973 259.496,363.473 258.5,357C 258.67,350.178 260.67,344.012 264.5,338.5 Z"/></g>
<g><path style="opacity:1" fill="#f9c0b9" d="M 166.5,376.5 C 194.167,376.5 221.833,376.5 249.5,376.5C 249.205,378.735 249.539,380.735 250.5,382.5C 251.24,387.151 253.906,388.651 258.5,387C 260.263,383.757 260.929,380.257 260.5,376.5C 286.5,376.5 312.5,376.5 338.5,376.5C 337.133,383.735 333.799,389.901 328.5,395C 315.432,400.613 301.765,403.28 287.5,403C 284.022,405.706 283.689,408.706 286.5,412C 298.745,413.224 310.745,412.058 322.5,408.5C 322.5,410.167 322.5,411.833 322.5,413.5C 276.664,413.168 230.997,413.501 185.5,414.5C 177.599,402.698 171.266,390.031 166.5,376.5 Z"/></g>
<g><path style="opacity:1" fill="#f9c7ba" d="M 322.5,413.5 C 322.5,418.833 322.5,424.167 322.5,429.5C 277.833,429.5 233.167,429.5 188.5,429.5C 188.813,425.958 188.479,422.625 187.5,419.5C 187.107,417.716 186.441,416.05 185.5,414.5C 230.997,413.501 276.664,413.168 322.5,413.5 Z"/></g>
<g><path style="opacity:1" fill="#f9c7c0" d="M 187.5,419.5 C 188.479,422.625 188.813,425.958 188.5,429.5C 233.167,429.5 277.833,429.5 322.5,429.5C 322.5,438.833 322.5,448.167 322.5,457.5C 277.833,457.5 233.167,457.5 188.5,457.5C 188.5,463.5 188.5,469.5 188.5,475.5C 188.813,479.042 188.479,482.375 187.5,485.5C 187.5,463.5 187.5,441.5 187.5,419.5 Z"/></g>
<g><path style="opacity:1" fill="#f9cec0" d="M 322.5,457.5 C 322.5,463.5 322.5,469.5 322.5,475.5C 277.833,475.5 233.167,475.5 188.5,475.5C 188.5,469.5 188.5,463.5 188.5,457.5C 233.167,457.5 277.833,457.5 322.5,457.5 Z"/></g>
<g><path style="opacity:1" fill="#f9cdc7" d="M 188.5,475.5 C 233.167,475.5 277.833,475.5 322.5,475.5C 322.5,479.167 322.5,482.833 322.5,486.5C 277.5,486.5 232.5,486.5 187.5,486.5C 187.5,486.167 187.5,485.833 187.5,485.5C 188.479,482.375 188.813,479.042 188.5,475.5 Z"/></g>
</svg>
