<?xml version="1.0" encoding="UTF-8"?>
<!DOCTYPE svg PUBLIC "-//W3C//DTD SVG 1.1//EN" "http://www.w3.org/Graphics/SVG/1.1/DTD/svg11.dtd">
<svg xmlns="http://www.w3.org/2000/svg" version="1.1" width="512px" height="512px" style="shape-rendering:geometricPrecision; text-rendering:geometricPrecision; image-rendering:optimizeQuality; fill-rule:evenodd; clip-rule:evenodd" xmlns:xlink="http://www.w3.org/1999/xlink">
<g><path style="opacity:1" fill="#3b3a4e" d="M 197.5,49.5 C 200.14,58.2459 197.306,60.9126 189,57.5C 188.398,54.7795 188.565,52.1128 189.5,49.5C 192.119,47.0285 194.786,47.0285 197.5,49.5 Z"/></g>
<g><path style="opacity:1" fill="#39384c" d="M 458.5,271.5 C 453.862,274.489 449.195,277.489 444.5,280.5C 444.334,287.691 441,290.024 434.5,287.5C 433.549,286.081 433.216,284.415 433.5,282.5C 433.731,279.215 432.397,276.715 429.5,275C 427.934,274.235 426.601,274.402 425.5,275.5C 411.448,281.561 403.115,292.227 400.5,307.5C 400.975,312.294 403.308,315.794 407.5,318C 413.718,321.828 420.051,322.662 426.5,320.5C 430.359,320.154 433.359,318.32 435.5,315C 437.134,314.506 438.801,314.34 440.5,314.5C 443.736,319.547 442.736,323.713 437.5,327C 431.304,330.553 424.637,332.886 417.5,334C 401.886,340.616 388.886,350.616 378.5,364C 369.712,368.76 361.045,368.593 352.5,363.5C 353.103,370.137 355.269,376.471 359,382.5C 371.605,397.315 376.271,414.315 373,433.5C 366.651,450.492 354.318,458.825 336,458.5C 323.845,458.422 313.845,453.756 306,444.5C 300.749,433.083 292.583,424.416 281.5,418.5C 267.303,437.051 249.303,441.884 227.5,433C 214.694,431.256 202.361,432.923 190.5,438C 185.167,440.667 179.833,443.333 174.5,446C 157.618,448.976 145.451,442.809 138,427.5C 136.349,422.859 137.849,420.193 142.5,419.5C 151.563,423.953 160.23,423.12 168.5,417C 173.228,413.274 178.228,409.941 183.5,407C 161.596,397.719 142.93,384.052 127.5,366C 117.029,367.086 109.363,372.419 104.5,382C 101.653,382.944 99.1529,382.444 97,380.5C 96.3333,377.167 96.3333,373.833 97,370.5C 99.4419,361.621 102.442,352.955 106,344.5C 106.952,338.638 106.285,332.972 104,327.5C 100.783,321.563 96.9493,316.063 92.5,311C 83.1667,305.667 73.8333,300.333 64.5,295C 52.3828,283.384 47.5495,269.217 50,252.5C 51.3722,226.895 64.5389,211.395 89.5,206C 94.9974,203.755 99.9974,200.755 104.5,197C 94.6128,188.113 85.7795,178.28 78,167.5C 76,164.167 74,160.833 72,157.5C 71.6875,142.732 78.5208,137.898 92.5,143C 99.512,150.692 108.012,155.858 118,158.5C 120.732,158.385 123.232,157.552 125.5,156C 131.391,141.117 140.057,128.117 151.5,117C 159.084,113.472 166.751,110.139 174.5,107C 175.667,105.833 176.833,104.667 178,103.5C 180.515,97.7557 182.182,91.7557 183,85.5C 187.92,74.0809 196.086,70.9142 207.5,76C 210.531,78.559 212.698,81.7257 214,85.5C 232.646,133.957 251.146,182.457 269.5,231C 269.073,236.089 266.406,237.756 261.5,236C 248.271,222.859 235.271,209.526 222.5,196C 217.223,192.838 211.557,191.838 205.5,193C 177.238,207.17 163.238,230.17 163.5,262C 163.667,266.5 163.833,271 164,275.5C 164.29,277.952 164.956,280.285 166,282.5C 170.555,281.235 175.055,279.735 179.5,278C 184.921,269.158 191.921,261.824 200.5,256C 213.484,253.884 224.651,257.384 234,266.5C 234.667,268.5 234.667,270.5 234,272.5C 221.203,274.557 211.203,280.891 204,291.5C 201.793,296.232 199.96,301.065 198.5,306C 189.343,310.412 180.343,315.078 171.5,320C 182.12,318.346 192.787,317.012 203.5,316C 204,316.5 204.5,317 205,317.5C 203.047,331.735 208.547,341.569 221.5,347C 236.851,354.225 252.851,356.225 269.5,353C 278.547,350.305 287.213,346.805 295.5,342.5C 296.5,342.667 297.5,342.833 298.5,343C 302.333,346.833 306.167,350.667 310,354.5C 310.381,338.025 306.381,322.692 298,308.5C 296.612,294.891 302.779,289.058 316.5,291C 321.923,294.419 326.756,298.585 331,303.5C 349.31,265.65 343.643,231.983 314,202.5C 306.925,194.633 298.258,189.633 288,187.5C 283.247,188.394 278.414,189.06 273.5,189.5C 271.192,189.635 269.192,188.969 267.5,187.5C 257.135,161.236 247.468,134.736 238.5,108C 238.667,106.833 238.833,105.667 239,104.5C 243,98.5 247,92.5 251,86.5C 259.167,82.9995 267,78.8328 274.5,74C 281,68.1705 285.333,61.0038 287.5,52.5C 289.527,50.661 291.86,50.161 294.5,51C 302.177,60.3429 310.843,68.6762 320.5,76C 323.077,77.2504 325.743,77.5837 328.5,77C 331.432,74.3855 334.599,72.2189 338,70.5C 341.738,70.738 343.571,72.738 343.5,76.5C 342.873,87.5918 338.207,96.4252 329.5,103C 316.867,107.213 304.867,105.713 293.5,98.5C 292.09,100.949 292.424,103.116 294.5,105C 302.913,108.138 311.246,111.471 319.5,115C 327.853,119.367 336.186,123.701 344.5,128C 358.022,129.429 370.689,126.762 382.5,120C 384.809,119.244 386.809,119.744 388.5,121.5C 396.913,146.791 414.413,160.458 441,162.5C 443.278,165.879 442.778,168.712 439.5,171C 424.657,175.799 409.657,176.466 394.5,173C 389.732,167.476 384.732,162.143 379.5,157C 377.956,155.813 376.289,155.48 374.5,156C 391.135,175.769 402.635,198.269 409,223.5C 417.535,233.395 427.368,234.895 438.5,228C 441.057,225.108 443.224,221.941 445,218.5C 446.66,212.209 447.993,205.875 449,199.5C 451.667,198.167 454.333,198.167 457,199.5C 459.954,213.406 465.621,226.072 474,237.5C 474.513,251.471 469.346,262.805 458.5,271.5 Z M 93.5,238.5 C 94.0431,238.56 94.3764,238.893 94.5,239.5C 92.3377,251.047 91.0044,262.714 90.5,274.5C 80.4645,266.619 78.9645,257.285 86,246.5C 88.705,243.964 91.205,241.297 93.5,238.5 Z M 333.5,409.5 C 339.026,409.853 342.693,412.686 344.5,418C 343.007,423.338 339.507,426.505 334,427.5C 326.363,424.548 324.696,419.548 329,412.5C 330.652,411.601 332.152,410.601 333.5,409.5 Z"/></g>
<g><path style="opacity:1" fill="#715f8b" d="M 189.5,49.5 C 188.565,52.1128 188.398,54.7795 189,57.5C 197.306,60.9126 200.14,58.2459 197.5,49.5C 198.458,49.9528 199.292,50.6195 200,51.5C 201.833,60.3333 198.333,63.8333 189.5,62C 186.606,59.0913 185.773,55.5913 187,51.5C 187.708,50.6195 188.542,49.9528 189.5,49.5 Z"/></g>
<g><path style="opacity:1" fill="#38384b" d="M 406.5,72.5 C 426.853,72.876 434.353,82.876 429,102.5C 420.917,113.735 410.417,116.569 397.5,111C 389.889,105.441 387.056,97.9412 389,88.5C 391.869,79.8319 397.702,74.4986 406.5,72.5 Z"/></g>
<g><path style="opacity:1" fill="#c58dcf" d="M 326.5,92.5 C 312.442,86.6501 297.776,82.6501 282.5,80.5C 286.528,75.7992 290.195,70.7992 293.5,65.5C 300.055,72.2248 307.055,78.3914 314.5,84C 319.126,86.6838 324.126,88.1838 329.5,88.5C 328.965,90.261 327.965,91.5943 326.5,92.5 Z"/></g>
<g><path style="opacity:1" fill="#74628d" d="M 406.5,82.5 C 418.172,81.9949 422.672,87.3282 420,98.5C 415.509,103.259 410.009,104.759 403.5,103C 398.918,99.6058 397.418,95.1058 399,89.5C 401.015,86.5883 403.515,84.255 406.5,82.5 Z"/></g>
<g><path style="opacity:1" fill="#38374b" d="M 56.5,87.5 C 75.9543,88.7201 82.7876,98.7201 77,117.5C 72.9866,125.015 66.6533,129.015 58,129.5C 40.1858,127.541 33.5191,117.875 38,100.5C 42.1833,93.3265 48.35,88.9932 56.5,87.5 Z"/></g>
<g><path style="opacity:1" fill="#c993d1" d="M 211.5,107.5 C 185.973,114.262 163.306,126.262 143.5,143.5C 147.158,136.662 151.824,130.495 157.5,125C 164.007,121.942 170.674,119.275 177.5,117C 186.911,110.349 191.744,101.183 192,89.5C 194.012,83.3406 197.678,82.0072 203,85.5C 206.124,92.7435 208.957,100.077 211.5,107.5 Z"/></g>
<g><path style="opacity:1" fill="#73628c" d="M 55.5,97.5 C 67.3623,96.8597 71.529,102.193 68,113.5C 60.9404,121.391 53.9404,121.391 47,113.5C 46.3333,110.5 46.3333,107.5 47,104.5C 49.4412,101.546 52.2745,99.2131 55.5,97.5 Z"/></g>
<g><path style="opacity:1" fill="#cd9bd3" d="M 211.5,107.5 C 213.095,110.285 214.095,113.285 214.5,116.5C 170.859,128.818 138.192,154.818 116.5,194.5C 113.833,192.5 111.5,190.167 109.5,187.5C 112.054,181.395 115.387,175.728 119.5,170.5C 118.051,169.828 116.718,169.161 115.5,168.5C 124.335,169.066 131.168,165.732 136,158.5C 138.003,153.16 140.503,148.16 143.5,143.5C 163.306,126.262 185.973,114.262 211.5,107.5 Z"/></g>
<g><path style="opacity:1" fill="#ca98d4" d="M 282.5,80.5 C 297.776,82.6501 312.442,86.6501 326.5,92.5C 325.571,93.3149 324.571,94.1482 323.5,95C 312.644,96.6029 302.977,93.9362 294.5,87C 292.833,86.3333 291.167,86.3333 289.5,87C 280.216,96.0732 280.216,105.073 289.5,114C 298.912,117.471 308.246,121.137 317.5,125C 325.739,129.619 334.072,133.952 342.5,138C 356.078,139.293 369.078,137.126 381.5,131.5C 387.441,146.275 397.441,157.442 411.5,165C 407.406,165.767 403.406,165.434 399.5,164C 394.459,157.292 388.459,151.625 381.5,147C 373.91,145.361 367.077,146.861 361,151.5C 360.365,153.635 360.699,155.635 362,157.5C 376.851,172.204 387.351,189.537 393.5,209.5C 384.023,190.77 371.689,173.937 356.5,159C 327.267,132.862 292.933,120.029 253.5,120.5C 251.566,116.892 249.899,113.058 248.5,109C 251.651,103.844 254.818,98.6768 258,93.5C 267.129,90.8536 275.296,86.5202 282.5,80.5 Z"/></g>
<g><path style="opacity:1" fill="#cc9ad7" d="M 214.5,116.5 C 216.204,119.256 217.537,122.256 218.5,125.5C 173.301,137.866 140.468,165.199 120,207.5C 95.945,269.042 105.778,324.375 149.5,373.5C 142.394,368.229 136.061,362.062 130.5,355C 127.485,354.799 124.485,355.132 121.5,356C 117.832,357.683 114.165,359.016 110.5,360C 116.364,349.784 117.864,338.95 115,327.5C 109.966,314.357 101.466,304.357 89.5,297.5C 89.9382,297.565 90.2716,297.399 90.5,297C 89.5116,293.255 88.845,289.422 88.5,285.5C 95.6042,289.571 100.271,287.738 102.5,280C 100.115,262.106 101.782,244.606 107.5,227.5C 107.029,224.698 105.362,223.364 102.5,223.5C 99.4828,223.726 96.8162,224.726 94.5,226.5C 94.2439,222.853 94.9106,219.186 96.5,215.5C 96.3764,214.893 96.0431,214.56 95.5,214.5C 103.241,210.866 110.075,205.866 116,199.5C 116.494,197.866 116.66,196.199 116.5,194.5C 138.192,154.818 170.859,128.818 214.5,116.5 Z"/></g>
<g><path style="opacity:1" fill="#d2a0d9" d="M 253.5,120.5 C 292.933,120.029 327.267,132.862 356.5,159C 371.689,173.937 384.023,190.77 393.5,209.5C 395.275,222.886 401.942,233.052 413.5,240C 415.74,240.977 418.073,241.477 420.5,241.5C 422.808,249.259 423.808,257.259 423.5,265.5C 407.702,271.803 397.202,283.136 392,299.5C 389.11,312.359 393.276,322.026 404.5,328.5C 392.448,336.03 381.782,345.197 372.5,356C 368.594,357.434 364.594,357.767 360.5,357C 357.944,355.945 356.277,354.112 355.5,351.5C 387.501,309.886 393.668,264.553 374,215.5C 350.578,168.951 312.744,143.618 260.5,139.5C 257.595,133.461 255.262,127.127 253.5,120.5 Z"/></g>
<g><path style="opacity:1" fill="#d3a1d9" d="M 218.5,125.5 C 220.832,131.495 223.165,137.495 225.5,143.5C 185.459,153.702 156.293,177.368 138,214.5C 117.433,265.195 124.099,311.862 158,354.5C 195.564,393.684 240.731,406.517 293.5,393C 311.917,387.638 327.917,378.471 341.5,365.5C 343.555,371.942 345.888,378.275 348.5,384.5C 332.11,398.861 313.11,408.194 291.5,412.5C 286.684,409.06 281.35,407.56 275.5,408C 273.689,411.631 271.356,414.798 268.5,417.5C 246.202,418.838 224.535,415.838 203.5,408.5C 203.822,406.278 203.155,404.444 201.5,403C 181.827,397.005 164.494,387.172 149.5,373.5C 105.778,324.375 95.945,269.042 120,207.5C 140.468,165.199 173.301,137.866 218.5,125.5 Z"/></g>
<g><path style="opacity:1" fill="#d3a7d9" d="M 260.5,139.5 C 312.744,143.618 350.578,168.951 374,215.5C 393.668,264.553 387.501,309.886 355.5,351.5C 353.05,349.371 351.383,346.704 350.5,343.5C 378.104,306.013 383.604,265.347 367,221.5C 346.588,177.542 312.421,153.542 264.5,149.5C 262.6,146.482 261.267,143.149 260.5,139.5 Z"/></g>
<g><path style="opacity:1" fill="#d3a7d9" d="M 225.5,143.5 C 226.499,146.162 227.499,148.828 228.5,151.5C 178.856,164.645 148.356,196.312 137,246.5C 132.395,272.539 135.728,297.539 147,321.5C 147.671,322.252 148.504,322.586 149.5,322.5C 144.696,325.212 144.363,328.378 148.5,332C 150.134,332.494 151.801,332.66 153.5,332.5C 180.566,373.698 218.899,392.531 268.5,389C 295.137,385.928 318.303,375.428 338,357.5C 338.483,356.552 338.649,355.552 338.5,354.5C 339.632,358.019 340.632,361.686 341.5,365.5C 327.917,378.471 311.917,387.638 293.5,393C 240.731,406.517 195.564,393.684 158,354.5C 124.099,311.862 117.433,265.195 138,214.5C 156.293,177.368 185.459,153.702 225.5,143.5 Z"/></g>
<g><path style="opacity:1" fill="#d3a7e0" d="M 350.5,343.5 C 349.026,342.564 348.026,341.23 347.5,339.5C 356.522,329.478 363.022,317.811 367,304.5C 381.346,247.521 364.513,202.355 316.5,169C 300.738,159.643 283.738,154.143 265.5,152.5C 264.596,151.791 264.263,150.791 264.5,149.5C 312.421,153.542 346.588,177.542 367,221.5C 383.604,265.347 378.104,306.013 350.5,343.5 Z"/></g>
<g><path style="opacity:1" fill="#d9a7e0" d="M 265.5,152.5 C 283.738,154.143 300.738,159.643 316.5,169C 364.513,202.355 381.346,247.521 367,304.5C 363.022,317.811 356.522,329.478 347.5,339.5C 346.512,338.205 345.512,336.872 344.5,335.5C 373.589,291.65 373.756,247.65 345,203.5C 325.478,177.82 299.645,163.153 267.5,159.5C 266.833,157.167 266.167,154.833 265.5,152.5 Z"/></g>
<g><path style="opacity:1" fill="#d8a7e0" d="M 228.5,151.5 C 230.095,154.285 231.095,157.285 231.5,160.5C 178.055,176.626 149.389,212.626 145.5,268.5C 145.473,285.704 149.14,302.037 156.5,317.5C 154.381,319.4 152.047,321.066 149.5,322.5C 148.504,322.586 147.671,322.252 147,321.5C 135.728,297.539 132.395,272.539 137,246.5C 148.356,196.312 178.856,164.645 228.5,151.5 Z"/></g>
<g><path style="opacity:1" fill="#d8aedf" d="M 267.5,159.5 C 299.645,163.153 325.478,177.82 345,203.5C 373.756,247.65 373.589,291.65 344.5,335.5C 339.361,333.135 336.694,334.801 336.5,340.5C 336.997,342.818 337.33,345.152 337.5,347.5C 336.732,346.737 336.232,345.737 336,344.5C 330.545,350.126 325.045,355.459 319.5,360.5C 321.593,340.187 317.26,321.354 306.5,304C 307.798,300.795 310.132,299.795 313.5,301C 319.469,305.967 325.135,311.301 330.5,317C 333.025,317.896 335.192,317.396 337,315.5C 363.923,262.102 353.423,217.935 305.5,183C 295.608,178.4 285.274,177.233 274.5,179.5C 272.563,172.69 270.23,166.023 267.5,159.5 Z"/></g>
<g><path style="opacity:1" fill="#c792d0" d="M 115.5,168.5 C 116.718,169.161 118.051,169.828 119.5,170.5C 115.387,175.728 112.054,181.395 109.5,187.5C 99.1343,177.96 89.9677,167.293 82,155.5C 80.8333,151.333 82.3333,149.833 86.5,151C 94.6555,159.408 104.322,165.241 115.5,168.5 Z"/></g>
<g><path style="opacity:1" fill="#d7adde" d="M 231.5,160.5 C 238.336,176.987 245.002,193.654 251.5,210.5C 244.037,203.546 236.371,196.046 228.5,188C 217.338,181.107 206.005,180.773 194.5,187C 159.29,211.27 146.456,244.436 156,286.5C 156.516,289.034 157.683,291.2 159.5,293C 163.112,292.549 166.779,292.049 170.5,291.5C 171.933,296.485 173.933,301.151 176.5,305.5C 169.869,309.485 163.202,313.485 156.5,317.5C 149.14,302.037 145.473,285.704 145.5,268.5C 149.389,212.626 178.055,176.626 231.5,160.5 Z"/></g>
<g><path style="opacity:1" fill="#72618c" d="M 452.5,170.5 C 458.755,169.261 462.422,171.761 463.5,178C 461.127,185.875 456.627,187.375 450,182.5C 447.523,177.669 448.356,173.669 452.5,170.5 Z"/></g>
<g><path style="opacity:1" fill="#3a394d" d="M 453.5,172.5 C 461.774,172.929 463.44,176.429 458.5,183C 452.667,183.833 450.167,181.333 451,175.5C 451.698,174.309 452.531,173.309 453.5,172.5 Z"/></g>
<g><path style="opacity:1" fill="#c694d1" d="M 95.5,214.5 C 96.0431,214.56 96.3764,214.893 96.5,215.5C 94.9106,219.186 94.2439,222.853 94.5,226.5C 76.8451,235.806 70.0118,250.139 74,269.5C 77.3071,276.303 82.1404,281.636 88.5,285.5C 88.845,289.422 89.5116,293.255 90.5,297C 90.2716,297.399 89.9382,297.565 89.5,297.5C 79.1088,294.158 70.7755,288.158 64.5,279.5C 64.778,263.004 66.4446,246.504 69.5,230C 69.4301,229.235 69.0967,228.735 68.5,228.5C 75.6153,220.444 84.6153,215.777 95.5,214.5 Z"/></g>
<g><path style="opacity:1" fill="#39394c" d="M 88.5,285.5 C 82.1404,281.636 77.3071,276.303 74,269.5C 70.0118,250.139 76.8451,235.806 94.5,226.5C 96.8162,224.726 99.4828,223.726 102.5,223.5C 105.362,223.364 107.029,224.698 107.5,227.5C 101.782,244.606 100.115,262.106 102.5,280C 100.271,287.738 95.6042,289.571 88.5,285.5 Z M 93.5,238.5 C 91.205,241.297 88.705,243.964 86,246.5C 78.9645,257.285 80.4645,266.619 90.5,274.5C 91.0044,262.714 92.3377,251.047 94.5,239.5C 94.3764,238.893 94.0431,238.56 93.5,238.5 Z"/></g>
<g><path style="opacity:1" fill="#c58dcd" d="M 446.5,267.5 C 445.831,257.132 444.831,246.799 443.5,236.5C 447.94,232.969 451.44,228.636 454,223.5C 457.64,229.949 461.14,236.449 464.5,243C 462.041,253.933 456.041,262.1 446.5,267.5 Z"/></g>
<g><path style="opacity:1" fill="#c38ccf" d="M 68.5,228.5 C 69.0967,228.735 69.4301,229.235 69.5,230C 66.4446,246.504 64.778,263.004 64.5,279.5C 58.3846,265.783 57.8846,251.783 63,237.5C 64.3426,234.138 66.176,231.138 68.5,228.5 Z"/></g>
<g><path style="opacity:1" fill="#ca94d2" d="M 443.5,236.5 C 444.831,246.799 445.831,257.132 446.5,267.5C 444.519,269.303 442.352,270.97 440,272.5C 435.804,267.155 430.304,264.822 423.5,265.5C 423.808,257.259 422.808,249.259 420.5,241.5C 428.863,242.612 436.53,240.945 443.5,236.5 Z"/></g>
<g><path style="opacity:1" fill="#37364b" d="M 292.5,269.5 C 298.093,270.618 299.926,273.951 298,279.5C 295.261,282.747 292.094,283.247 288.5,281C 285.043,275.424 286.376,271.59 292.5,269.5 Z"/></g>
<g><path style="opacity:1" fill="#c18fc9" d="M 425.5,275.5 C 426.601,274.402 427.934,274.235 429.5,275C 432.397,276.715 433.731,279.215 433.5,282.5C 431.457,279.457 428.79,277.124 425.5,275.5 Z"/></g>
<g><path style="opacity:1" fill="#c592d0" d="M 458.5,271.5 C 453.933,279.944 447.933,287.278 440.5,293.5C 439.167,293.5 437.833,293.5 436.5,293.5C 435.27,291.703 434.604,289.703 434.5,287.5C 441,290.024 444.334,287.691 444.5,280.5C 449.195,277.489 453.862,274.489 458.5,271.5 Z"/></g>
<g><path style="opacity:1" fill="#dbb3df" d="M 176.5,305.5 C 173.933,301.151 171.933,296.485 170.5,291.5C 175.639,290.129 180.639,288.296 185.5,286C 191.094,278.402 197.427,271.402 204.5,265C 218.481,264.558 219.481,267.224 207.5,273C 198.897,280.096 192.897,288.93 189.5,299.5C 185.265,301.785 180.931,303.785 176.5,305.5 Z"/></g>
<g><path style="opacity:1" fill="#37374b" d="M 436.5,293.5 C 437.833,293.5 439.167,293.5 440.5,293.5C 444.76,296.471 445.427,300.137 442.5,304.5C 434.878,307.042 431.711,304.375 433,296.5C 434.145,295.364 435.312,294.364 436.5,293.5 Z"/></g>
<g><path style="opacity:1" fill="#75638e" d="M 440.5,314.5 C 438.801,314.34 437.134,314.506 435.5,315C 433.359,318.32 430.359,320.154 426.5,320.5C 423.516,315.898 424.182,311.732 428.5,308C 434.74,306.283 438.74,308.45 440.5,314.5 Z"/></g>
<g><path style="opacity:1" fill="#d8addf" d="M 307.5,367.5 C 257.563,389.011 213.063,381.011 174,343.5C 170.533,339.88 167.7,335.88 165.5,331.5C 175.47,329.647 185.47,327.981 195.5,326.5C 195.923,334.271 198.423,341.271 203,347.5C 232.234,367.692 262.734,369.692 294.5,353.5C 299.296,357.777 303.629,362.444 307.5,367.5 Z"/></g>
<g><path style="opacity:1" fill="#d9a7e0" d="M 165.5,331.5 C 167.7,335.88 170.533,339.88 174,343.5C 213.063,381.011 257.563,389.011 307.5,367.5C 308.833,368.167 309.833,369.167 310.5,370.5C 306.916,373.97 302.583,376.47 297.5,378C 248.272,394.15 205.439,383.983 169,347.5C 164.988,342.792 161.488,337.792 158.5,332.5C 160.717,331.631 163.05,331.298 165.5,331.5 Z"/></g>
<g><path style="opacity:1" fill="#d4a7e0" d="M 153.5,332.5 C 155.167,332.5 156.833,332.5 158.5,332.5C 161.488,337.792 164.988,342.792 169,347.5C 205.439,383.983 248.272,394.15 297.5,378C 302.583,376.47 306.916,373.97 310.5,370.5C 313.547,372.113 316.047,371.446 318,368.5C 318.567,365.832 319.067,363.166 319.5,360.5C 325.045,355.459 330.545,350.126 336,344.5C 336.232,345.737 336.732,346.737 337.5,347.5C 338.369,349.717 338.702,352.05 338.5,354.5C 338.649,355.552 338.483,356.552 338,357.5C 318.303,375.428 295.137,385.928 268.5,389C 218.899,392.531 180.566,373.698 153.5,332.5 Z"/></g>
<g><path style="opacity:1" fill="#38384b" d="M 423.5,372.5 C 446.417,371.579 455.25,382.246 450,404.5C 445.943,413.371 438.943,417.705 429,417.5C 409.159,415.634 401.826,404.967 407,385.5C 410.939,379.048 416.439,374.714 423.5,372.5 Z"/></g>
<g><path style="opacity:1" fill="#74628d" d="M 424.5,382.5 C 440.024,381.229 445.191,387.896 440,402.5C 434.31,407.691 427.81,408.858 420.5,406C 411.571,396.33 412.904,388.497 424.5,382.5 Z"/></g>
<g><path style="opacity:1" fill="#ca99d5" d="M 348.5,384.5 C 352.402,389.96 356.069,395.627 359.5,401.5C 356.144,403.198 353.477,405.532 351.5,408.5C 345.66,400.953 337.994,398.453 328.5,401C 318.955,406.585 315.289,414.752 317.5,425.5C 314.053,426.083 311.053,427.416 308.5,429.5C 303.833,422.833 298.167,417.167 291.5,412.5C 313.11,408.194 332.11,398.861 348.5,384.5 Z"/></g>
<g><path style="opacity:1" fill="#3a394d" d="M 351.5,408.5 C 356.286,428.558 348.286,437.725 327.5,436C 322.613,433.947 319.279,430.447 317.5,425.5C 315.289,414.752 318.955,406.585 328.5,401C 337.994,398.453 345.66,400.953 351.5,408.5 Z M 333.5,409.5 C 332.152,410.601 330.652,411.601 329,412.5C 324.696,419.548 326.363,424.548 334,427.5C 339.507,426.505 343.007,423.338 344.5,418C 342.693,412.686 339.026,409.853 333.5,409.5 Z"/></g>
<g><path style="opacity:1" fill="#ca98d4" d="M 203.5,408.5 C 224.535,415.838 246.202,418.838 268.5,417.5C 261.213,425.319 252.213,428.486 241.5,427C 216.708,418.566 193.375,421.566 171.5,436C 166.04,436.791 161.04,435.624 156.5,432.5C 167.462,429.692 177.129,424.525 185.5,417C 191.568,414.047 197.568,411.214 203.5,408.5 Z"/></g>
<g><path style="opacity:1" fill="#705e8b" d="M 102.5,397.5 C 113.818,396.99 116.485,401.49 110.5,411C 99.1055,411.803 96.4388,407.303 102.5,397.5 Z"/></g>
<g><path style="opacity:1" fill="#38384b" d="M 103.5,399.5 C 111.486,398.998 113.486,402.165 109.5,409C 101.424,409.805 99.424,406.638 103.5,399.5 Z"/></g>
<g><path style="opacity:1" fill="#c491ce" d="M 359.5,401.5 C 365.851,413.751 366.018,426.085 360,438.5C 346.746,450.417 332.579,451.584 317.5,442C 313.894,438.234 310.894,434.067 308.5,429.5C 311.053,427.416 314.053,426.083 317.5,425.5C 319.279,430.447 322.613,433.947 327.5,436C 348.286,437.725 356.286,428.558 351.5,408.5C 353.477,405.532 356.144,403.198 359.5,401.5 Z"/></g>
<g><path style="opacity:1" fill="#38384b" d="M 68.5,426.5 C 82.568,424.582 90.568,430.582 92.5,444.5C 89.7583,459.876 80.7583,465.709 65.5,462C 57.4445,459.084 53.4445,453.25 53.5,444.5C 54.9215,435.42 59.9215,429.42 68.5,426.5 Z"/></g>
<g><path style="opacity:1" fill="#73628c" d="M 69.5,436.5 C 78.6558,434.832 82.8225,438.499 82,447.5C 77.3854,454.203 71.7187,455.203 65,450.5C 62.2267,444.395 63.7267,439.728 69.5,436.5 Z"/></g>
</svg>
