<?xml version="1.0" encoding="UTF-8"?>
<!DOCTYPE svg PUBLIC "-//W3C//DTD SVG 1.1//EN" "http://www.w3.org/Graphics/SVG/1.1/DTD/svg11.dtd">
<svg xmlns="http://www.w3.org/2000/svg" version="1.1" width="512px" height="512px" style="shape-rendering:geometricPrecision; text-rendering:geometricPrecision; image-rendering:optimizeQuality; fill-rule:evenodd; clip-rule:evenodd" xmlns:xlink="http://www.w3.org/1999/xlink">
<g><path style="opacity:1" fill="#aed9ae" d="M 330.5,133.5 C 321.21,122.372 311.71,111.372 302,100.5C 300.579,98.5952 299.412,96.5952 298.5,94.5C 300.463,93.0401 302.296,91.3734 304,89.5C 304.611,85.9124 303.111,84.7458 299.5,86C 297.423,87.705 295.09,88.8717 292.5,89.5C 284.178,79.1794 275.511,69.1794 266.5,59.5C 295.224,45.7663 325.558,40.0996 357.5,42.5C 357.596,67.1856 352.763,90.8523 343,113.5C 339.559,120.736 335.393,127.402 330.5,133.5 Z"/></g>
<g><path style="opacity:1" fill="#a4d0a9" d="M 266.5,59.5 C 275.511,69.1794 284.178,79.1794 292.5,89.5C 276.644,99.017 261.31,109.35 246.5,120.5C 237.934,111.69 229.601,102.69 221.5,93.5C 232.431,76.9174 247.431,65.584 266.5,59.5 Z"/></g>
<g><path style="opacity:1" fill="#d4f2bb" d="M 290.5,243.5 C 222.5,242.167 154.5,242.167 86.5,243.5C 49.3129,226.793 36.1463,198.793 47,159.5C 65.7791,127.173 93.2791,106.007 129.5,96C 141.221,92.157 153.221,90.4903 165.5,91C 173.61,95.0636 176.443,101.564 174,110.5C 171.306,117.184 167.14,122.684 161.5,127C 140.37,133.475 122.204,144.642 107,160.5C 93.4957,181.629 95.6624,201.129 113.5,219C 126.124,226.764 139.791,231.764 154.5,234C 197.317,240.058 238.651,234.724 278.5,218C 302.249,207.965 324.582,195.631 345.5,181C 356.664,176.499 363.331,180.165 365.5,192C 365.369,194.253 364.869,196.419 364,198.5C 342.162,217.677 317.662,232.677 290.5,243.5 Z"/></g>
<g><path style="opacity:1" fill="#9ac6a1" d="M 221.5,93.5 C 229.601,102.69 237.934,111.69 246.5,120.5C 236.237,128.426 226.57,137.092 217.5,146.5C 214.105,149.902 210.438,152.902 206.5,155.5C 205.24,138.242 207.74,121.575 214,105.5C 215.774,100.93 218.274,96.9305 221.5,93.5 Z"/></g>
<g><path style="opacity:1" fill="#a3cfa9" d="M 298.5,94.5 C 299.412,96.5952 300.579,98.5952 302,100.5C 311.71,111.372 321.21,122.372 330.5,133.5C 319.153,149.51 304.486,161.51 286.5,169.5C 276.87,157.202 266.87,145.202 256.5,133.5C 269.872,119.793 283.872,106.793 298.5,94.5 Z"/></g>
<g><path style="opacity:1" fill="#6f9876" d="M 298.5,94.5 C 283.872,106.793 269.872,119.793 256.5,133.5C 247.473,141.86 238.806,150.527 230.5,159.5C 226.548,154.881 222.215,150.548 217.5,146.5C 226.57,137.092 236.237,128.426 246.5,120.5C 261.31,109.35 276.644,99.017 292.5,89.5C 295.09,88.8717 297.423,87.705 299.5,86C 303.111,84.7458 304.611,85.9124 304,89.5C 302.296,91.3734 300.463,93.0401 298.5,94.5 Z"/></g>
<g><path style="opacity:1" fill="#d4f2bb" d="M 468.5,241.5 C 438.574,242.492 408.574,242.825 378.5,242.5C 385.135,236.697 391.302,230.364 397,223.5C 416.913,196.7 414.58,172.033 390,149.5C 384.578,140.709 385.745,132.875 393.5,126C 400.234,123.974 406.9,124.307 413.5,127C 429.225,132.743 442.058,142.243 452,155.5C 461.079,171.47 462.579,188.137 456.5,205.5C 464.28,216.173 468.28,228.173 468.5,241.5 Z"/></g>
<g><path style="opacity:1" fill="#9ac6a1" d="M 256.5,133.5 C 266.87,145.202 276.87,157.202 286.5,169.5C 264.707,177.934 242.707,178.6 220.5,171.5C 223.457,167.208 226.79,163.208 230.5,159.5C 238.806,150.527 247.473,141.86 256.5,133.5 Z"/></g>
<g><path style="opacity:1" fill="#678b75" d="M 217.5,146.5 C 222.215,150.548 226.548,154.881 230.5,159.5C 226.79,163.208 223.457,167.208 220.5,171.5C 210.68,183.153 200.68,194.653 190.5,206C 181.687,208.758 176.353,205.592 174.5,196.5C 175.036,194.058 175.869,191.725 177,189.5C 186.296,177.704 196.129,166.371 206.5,155.5C 210.438,152.902 214.105,149.902 217.5,146.5 Z"/></g>
<g><path style="opacity:1" fill="#d0edbb" d="M 290.5,243.5 C 227.621,268.81 163.955,270.977 99.5,250C 94.8268,248.33 90.4934,246.163 86.5,243.5C 154.5,242.167 222.5,242.167 290.5,243.5 Z"/></g>
<g><path style="opacity:1" fill="#cdedbb" d="M 468.5,241.5 C 469.084,254.252 466.751,266.418 461.5,278C 462.939,280.705 463.939,283.538 464.5,286.5C 450.323,286.829 436.323,286.496 422.5,285.5C 429.432,273.771 432.599,261.104 432,247.5C 417.889,264.121 401.056,277.121 381.5,286.5C 347.663,286.832 313.996,286.498 280.5,285.5C 316.69,278.728 349.356,264.395 378.5,242.5C 408.574,242.825 438.574,242.492 468.5,241.5 Z"/></g>
<g><path style="opacity:1" fill="#c5e7ba" d="M 280.5,285.5 C 313.996,286.498 347.663,286.832 381.5,286.5C 363.924,295.973 345.257,302.807 325.5,307C 288.077,314.644 250.411,316.644 212.5,313C 207.167,308 207.167,303 212.5,298C 235.337,294.583 258.004,290.417 280.5,285.5 Z"/></g>
<g><path style="opacity:1" fill="#c2e7ba" d="M 96.5,304.5 C 81.5979,305.823 66.5979,305.823 51.5,304.5C 50.0033,300.777 49.3367,296.777 49.5,292.5C 49.5984,278.901 56.4317,271.568 70,270.5C 76.9432,270.472 82.6099,273.138 87,278.5C 89.2868,287.531 92.4535,296.197 96.5,304.5 Z"/></g>
<g><path style="opacity:1" fill="#c2e7ba" d="M 422.5,285.5 C 436.323,286.496 450.323,286.829 464.5,286.5C 467.594,293.552 468.927,301.052 468.5,309C 468.741,316.479 467.741,323.646 465.5,330.5C 453.753,330.189 442.086,330.522 430.5,331.5C 432.367,324.228 432.701,316.895 431.5,309.5C 428.171,312.415 424.338,314.415 420,315.5C 411.036,313.891 408.036,308.891 411,300.5C 415.338,295.792 419.172,290.792 422.5,285.5 Z"/></g>
<g><path style="opacity:1" fill="#c3e7bb" d="M 150.5,286.5 C 164.727,285.225 170.894,291.558 169,305.5C 163.207,312.923 156.041,314.756 147.5,311C 139.562,305.037 138.562,298.037 144.5,290C 146.432,288.541 148.432,287.375 150.5,286.5 Z"/></g>
<g><path style="opacity:1" fill="#b5e1bb" d="M 51.5,304.5 C 66.5979,305.823 81.5979,305.823 96.5,304.5C 102.984,313.261 110.984,320.428 120.5,326C 127.136,329.487 133.803,332.654 140.5,335.5C 116.476,334.843 92.8098,335.51 69.5,337.5C 60.987,327.957 54.987,316.957 51.5,304.5 Z"/></g>
<g><path style="opacity:1" fill="#a9daba" d="M 329.5,357.5 C 250.167,356.167 170.833,356.167 91.5,357.5C 83.2434,351.913 75.91,345.246 69.5,337.5C 92.8098,335.51 116.476,334.843 140.5,335.5C 205.508,354.719 270.341,354.052 335,333.5C 342.855,335.211 345.522,339.877 343,347.5C 338.916,351.452 334.416,354.786 329.5,357.5 Z"/></g>
<g><path style="opacity:1" fill="#b6e1ba" d="M 465.5,330.5 C 463.38,340.406 458.88,349.073 452,356.5C 443.705,365.135 434.538,372.635 424.5,379C 414.498,381.313 409.665,377.479 410,367.5C 419.164,356.84 425.997,344.84 430.5,331.5C 442.086,330.522 453.753,330.189 465.5,330.5 Z"/></g>
<g><path style="opacity:1" fill="#a3dab5" d="M 329.5,357.5 C 326.869,359.153 324.203,360.819 321.5,362.5C 247.002,361.501 172.335,361.167 97.5,361.5C 95.2048,360.525 93.2048,359.192 91.5,357.5C 170.833,356.167 250.167,356.167 329.5,357.5 Z"/></g>
<g><path style="opacity:1" fill="#9dd4b5" d="M 97.5,361.5 C 172.335,361.167 247.002,361.501 321.5,362.5C 288.164,379.708 252.664,388.041 215,387.5C 188.191,386.92 161.691,383.753 135.5,378C 121.76,374.707 109.093,369.207 97.5,361.5 Z"/></g>
<g><path style="opacity:1" fill="#c1e7bb" d="M 169.5,411.5 C 144.833,411.5 120.167,411.5 95.5,411.5C 90.8922,404.843 88.3922,397.509 88,389.5C 89.1824,387.643 90.849,386.643 93,386.5C 113.479,396.102 134.979,402.269 157.5,405C 162.299,405.896 166.299,408.063 169.5,411.5 Z"/></g>
<g><path style="opacity:1" fill="#b5e1bb" d="M 95.5,411.5 C 120.167,411.5 144.833,411.5 169.5,411.5C 185.18,422.285 202.513,428.952 221.5,431.5C 186.167,432.167 150.833,432.833 115.5,433.5C 107.811,427.142 101.144,419.809 95.5,411.5 Z"/></g>
<g><path style="opacity:1" fill="#a9daba" d="M 300.5,451.5 C 249.664,451.168 198.997,451.501 148.5,452.5C 136.065,448.456 125.065,442.122 115.5,433.5C 150.833,432.833 186.167,432.167 221.5,431.5C 244.906,435.436 267.906,433.602 290.5,426C 298.278,423.277 305.945,420.277 313.5,417C 324.836,415.669 329.002,420.502 326,431.5C 318.618,439.753 310.118,446.419 300.5,451.5 Z"/></g>
<g><path style="opacity:1" fill="#9dd4b5" d="M 300.5,451.5 C 285.911,460.086 270.078,465.419 253,467.5C 216.74,471.649 181.907,466.649 148.5,452.5C 198.997,451.501 249.664,451.168 300.5,451.5 Z"/></g>
</svg>
