<?xml version="1.0" encoding="UTF-8"?>
<!DOCTYPE svg PUBLIC "-//W3C//DTD SVG 1.1//EN" "http://www.w3.org/Graphics/SVG/1.1/DTD/svg11.dtd">
<svg xmlns="http://www.w3.org/2000/svg" version="1.1" width="512px" height="512px" style="shape-rendering:geometricPrecision; text-rendering:geometricPrecision; image-rendering:optimizeQuality; fill-rule:evenodd; clip-rule:evenodd" xmlns:xlink="http://www.w3.org/1999/xlink">
<g><path style="opacity:1" fill="#39384b" d="M 292.5,29.5 C 294.989,29.2978 297.323,29.7978 299.5,31C 317.411,46.3066 330.245,65.1399 338,87.5C 341.631,100.691 344.631,114.025 347,127.5C 361.835,142.336 370.668,160.17 373.5,181C 373.366,189.402 371.199,197.235 367,204.5C 358.5,214.333 349.333,223.5 339.5,232C 330.965,238.134 321.632,239.8 311.5,237C 300.811,233.156 290.477,228.489 280.5,223C 275.132,219.097 271.632,213.93 270,207.5C 265.002,179.825 270.002,154.159 285,130.5C 291.528,99.5822 293.028,68.4155 289.5,37C 289.106,33.8318 290.106,31.3318 292.5,29.5 Z"/></g>
<g><path style="opacity:1" fill="#39384b" d="M 215.5,32.5 C 217.857,32.3367 220.19,32.5034 222.5,33C 223.126,33.7504 223.626,34.5838 224,35.5C 219.548,62.126 223.548,87.4593 236,111.5C 243.032,118.197 249.698,125.197 256,132.5C 257.899,135.374 258.733,138.541 258.5,142C 254.74,153.623 251.573,165.456 249,177.5C 247.2,189.346 247.367,201.179 249.5,213C 249.71,222.125 245.377,227.792 236.5,230C 223.858,231.358 211.191,231.691 198.5,231C 183.66,223.506 170.494,213.672 159,201.5C 147.475,183.344 147.808,165.344 160,147.5C 166.508,137.15 173.508,127.15 181,117.5C 177.665,82.8743 189.165,54.541 215.5,32.5 Z"/></g>
<g><path style="opacity:1" fill="#817bae" d="M 322.5,78.5 C 316.021,79.4907 309.354,79.824 302.5,79.5C 302.768,81.099 302.434,82.4324 301.5,83.5C 301.333,71.8286 301.5,60.1619 302,48.5C 311.034,57.0274 317.867,67.0274 322.5,78.5 Z"/></g>
<g><path style="opacity:1" fill="#7d76ab" d="M 210.5,52.5 C 211.611,69.302 214.944,85.802 220.5,102C 220.167,102.5 219.833,103 219.5,103.5C 213.218,102.374 206.885,102.207 200.5,103C 198,103.885 195.667,105.052 193.5,106.5C 190.742,85.7767 196.409,67.7767 210.5,52.5 Z"/></g>
<g><path style="opacity:1" fill="#7871a8" d="M 322.5,78.5 C 328.634,90.0274 332.134,102.361 333,115.5C 326.056,109.586 318.223,108.086 309.5,111C 306.006,112.579 302.673,114.413 299.5,116.5C 299.167,115.5 298.833,114.5 298.5,113.5C 300.206,103.58 301.206,93.5805 301.5,83.5C 302.434,82.4324 302.768,81.099 302.5,79.5C 309.354,79.824 316.021,79.4907 322.5,78.5 Z"/></g>
<g><path style="opacity:1" fill="#f8c08e" d="M 245.5,148.5 C 221.143,149.157 197.143,148.49 173.5,146.5C 179.821,135.378 187.487,125.211 196.5,116C 205.149,110.091 213.815,110.091 222.5,116C 233.214,122.714 241.881,131.381 248.5,142C 248.141,144.546 247.141,146.713 245.5,148.5 Z"/></g>
<g><path style="opacity:1" fill="#f8bf8e" d="M 349.5,148.5 C 328.833,148.5 308.167,148.5 287.5,148.5C 292.423,136.073 300.757,126.573 312.5,120C 318.535,118.595 323.868,119.928 328.5,124C 336.856,131.176 343.856,139.342 349.5,148.5 Z"/></g>
<g><path style="opacity:1" fill="#39384b" d="M 94.5,125.5 C 97.1873,125.336 99.854,125.503 102.5,126C 103.126,126.75 103.626,127.584 104,128.5C 101.232,152.335 106.232,174.335 119,194.5C 127.703,198.958 136.203,203.792 144.5,209C 155.41,219.906 165.577,231.406 175,243.5C 180.699,255.42 179.366,266.42 171,276.5C 162.131,287.036 152.298,296.536 141.5,305C 135.045,309.123 128.045,310.456 120.5,309C 104.736,302.364 90.9028,292.864 79,280.5C 76.4963,275.985 74.9963,271.151 74.5,266C 75.4597,256.616 76.793,247.282 78.5,238C 62.1627,207.572 61.3294,176.739 76,145.5C 80.1378,136.84 86.3045,130.173 94.5,125.5 Z"/></g>
<g><path style="opacity:1" fill="#39384b" d="M 391.5,132.5 C 394.794,132.259 397.794,133.092 400.5,135C 412.417,143.253 421.917,153.753 429,166.5C 431.685,177.329 433.352,188.329 434,199.5C 439.486,205.809 442.82,213.142 444,221.5C 446,236.167 446,250.833 444,265.5C 436.617,285.221 423.784,300.388 405.5,311C 391.23,315.814 379.063,312.647 369,301.5C 359.357,288.046 352.857,273.213 349.5,257C 349.675,249.808 351.842,243.308 356,237.5C 365.636,226.863 375.636,216.529 386,206.5C 387.541,200.254 388.541,193.921 389,187.5C 389.772,171.485 389.606,155.485 388.5,139.5C 388.667,138.167 388.833,136.833 389,135.5C 390.045,134.627 390.878,133.627 391.5,132.5 Z"/></g>
<g><path style="opacity:1" fill="#69639a" d="M 91.5,140.5 C 92.5962,155.333 95.7628,169.999 101,184.5C 102.787,188.577 104.954,192.41 107.5,196C 99.6593,197.169 93.4926,201.002 89,207.5C 86.9768,212.207 84.9768,216.874 83,221.5C 71.0224,192.905 73.8557,165.905 91.5,140.5 Z"/></g>
<g><path style="opacity:1" fill="#f9ba8e" d="M 173.5,146.5 C 197.143,148.49 221.143,149.157 245.5,148.5C 243.265,155.195 241.265,161.862 239.5,168.5C 214.188,166.509 188.522,165.843 162.5,166.5C 165.372,159.321 169.039,152.654 173.5,146.5 Z"/></g>
<g><path style="opacity:1" fill="#f9ba8e" d="M 287.5,148.5 C 308.167,148.5 328.833,148.5 349.5,148.5C 353.844,153.847 357.177,159.847 359.5,166.5C 333.5,166.5 307.5,166.5 281.5,166.5C 282.125,159.957 284.125,153.957 287.5,148.5 Z"/></g>
<g><path style="opacity:1" fill="#69639b" d="M 400.5,148.5 C 415.838,159.175 423.171,173.842 422.5,192.5C 414.911,190.673 407.577,191.34 400.5,194.5C 400.312,179.209 400.312,163.876 400.5,148.5 Z"/></g>
<g><path style="opacity:1" fill="#f9ba88" d="M 162.5,166.5 C 188.522,165.843 214.188,166.509 239.5,168.5C 238.841,171.455 238.508,174.455 238.5,177.5C 237.596,178.209 237.263,179.209 237.5,180.5C 212.167,180.5 186.833,180.5 161.5,180.5C 160.067,175.723 160.401,171.057 162.5,166.5 Z"/></g>
<g><path style="opacity:1" fill="#f9ba88" d="M 281.5,166.5 C 307.5,166.5 333.5,166.5 359.5,166.5C 361.956,170.738 362.956,175.404 362.5,180.5C 334.833,180.5 307.167,180.5 279.5,180.5C 279.5,179.167 279.5,177.833 279.5,176.5C 279.159,172.84 279.825,169.507 281.5,166.5 Z"/></g>
<g><path style="opacity:1" fill="#f8b488" d="M 238.5,177.5 C 237.332,188.487 237.332,199.487 238.5,210.5C 222.2,212.485 205.534,213.152 188.5,212.5C 186.405,211.588 184.405,210.421 182.5,209C 177.032,204.533 171.865,199.7 167,194.5C 164.088,190.266 162.255,185.6 161.5,180.5C 186.833,180.5 212.167,180.5 237.5,180.5C 237.263,179.209 237.596,178.209 238.5,177.5 Z"/></g>
<g><path style="opacity:1" fill="#f8b488" d="M 279.5,176.5 C 279.5,177.833 279.5,179.167 279.5,180.5C 307.167,180.5 334.833,180.5 362.5,180.5C 363.08,187.011 361.58,193.011 358,198.5C 353.997,203.669 349.497,208.336 344.5,212.5C 324.833,212.5 305.167,212.5 285.5,212.5C 282.676,210.2 280.843,207.2 280,203.5C 278.346,194.372 278.18,185.372 279.5,176.5 Z"/></g>
<g><path style="opacity:1" fill="#f8ae88" d="M 166.5,250.5 C 139.607,249.856 112.94,250.523 86.5,252.5C 88.2808,239.044 91.7808,226.044 97,213.5C 99.8831,208.766 104.05,206.433 109.5,206.5C 119.933,207.143 129.266,210.643 137.5,217C 148.71,226.984 158.377,238.151 166.5,250.5 Z"/></g>
<g><path style="opacity:1" fill="#f4ab87" d="M 238.5,210.5 C 239.965,213.655 239.299,216.489 236.5,219C 223.85,221.544 211.183,221.877 198.5,220C 194.7,218.021 191.366,215.521 188.5,212.5C 205.534,213.152 222.2,212.485 238.5,210.5 Z"/></g>
<g><path style="opacity:1" fill="#f7ad88" d="M 285.5,212.5 C 305.167,212.5 324.833,212.5 344.5,212.5C 340.094,216.884 335.428,221.051 330.5,225C 321.544,228.671 312.877,228.005 304.5,223C 297.783,219.98 291.449,216.48 285.5,212.5 Z"/></g>
<g><path style="opacity:1" fill="#f8ae88" d="M 434.5,252.5 C 410.523,250.51 386.19,249.843 361.5,250.5C 362.045,248.407 362.878,246.407 364,244.5C 376.804,230.695 389.971,217.195 403.5,204C 415.36,199.346 424.527,202.512 431,213.5C 435.306,226.366 436.473,239.366 434.5,252.5 Z"/></g>
<g><path style="opacity:1" fill="#f9a782" d="M 166.5,250.5 C 168.388,253.931 168.888,257.598 168,261.5C 163.101,269.31 157.268,276.31 150.5,282.5C 132.833,282.5 115.167,282.5 97.5,282.5C 85.9842,275.639 82.3176,265.639 86.5,252.5C 112.94,250.523 139.607,249.856 166.5,250.5 Z"/></g>
<g><path style="opacity:1" fill="#f9a782" d="M 361.5,250.5 C 386.19,249.843 410.523,250.51 434.5,252.5C 434.387,264.059 430.387,274.059 422.5,282.5C 405.167,282.5 387.833,282.5 370.5,282.5C 363.376,272.818 360.376,262.151 361.5,250.5 Z"/></g>
<g><path style="opacity:1" fill="#3a384b" d="M 250.5,252.5 C 270.84,252.225 289.173,258.059 305.5,270C 312.302,275.801 318.802,281.968 325,288.5C 335.415,302.99 345.081,317.99 354,333.5C 364.343,343.586 375.843,352.086 388.5,359C 402.871,373.626 408.037,391.126 404,411.5C 401.514,431.297 394.514,449.297 383,465.5C 371.633,478.179 357.466,483.346 340.5,481C 312.815,472.096 284.481,466.596 255.5,464.5C 226.463,466.342 198.13,471.842 170.5,481C 148.298,483.483 131.798,474.983 121,455.5C 108.705,433.659 104.038,410.326 107,385.5C 112.115,367.046 123.615,354.213 141.5,347C 145.667,343.5 149.833,340 154,336.5C 157.575,332.347 160.909,328.014 164,323.5C 175.467,297.373 193.3,276.873 217.5,262C 228.046,256.785 239.046,253.618 250.5,252.5 Z"/></g>
<g><path style="opacity:1" fill="#f7a682" d="M 302.5,281.5 C 271.167,282.833 239.833,282.833 208.5,281.5C 229.775,263.497 253.775,258.997 280.5,268C 288.399,271.773 295.732,276.273 302.5,281.5 Z"/></g>
<g><path style="opacity:1" fill="#f6a082" d="M 97.5,282.5 C 115.167,282.5 132.833,282.5 150.5,282.5C 144.071,290.777 135.905,296.443 126,299.5C 115.143,295.993 105.643,290.326 97.5,282.5 Z"/></g>
<g><path style="opacity:1" fill="#f9a183" d="M 208.5,281.5 C 239.833,282.833 271.167,282.833 302.5,281.5C 313.361,291.023 322.361,302.023 329.5,314.5C 315.99,314.171 302.656,314.504 289.5,315.5C 279.164,305.908 267.664,297.908 255,291.5C 245.698,298.968 236.865,306.968 228.5,315.5C 213.009,314.504 197.342,314.17 181.5,314.5C 187.919,301.412 196.919,290.412 208.5,281.5 Z"/></g>
<g><path style="opacity:1" fill="#f7a082" d="M 370.5,282.5 C 387.833,282.5 405.167,282.5 422.5,282.5C 416.199,290.637 408.532,297.137 399.5,302C 390.406,304.2 382.906,301.7 377,294.5C 374.554,290.606 372.388,286.606 370.5,282.5 Z"/></g>
<g><path style="opacity:1" fill="#faf9f8" d="M 289.5,315.5 C 293.996,320.164 298.33,324.998 302.5,330C 288.834,325.357 274.834,321.524 260.5,318.5C 259.228,318.57 258.062,318.903 257,319.5C 253.312,324.218 250.145,329.218 247.5,334.5C 244.35,338.119 241.684,342.119 239.5,346.5C 233.75,354.991 228.75,363.991 224.5,373.5C 226.416,377.744 229.083,381.411 232.5,384.5C 240.497,394.335 250.331,401.669 262,406.5C 271.687,400.979 279.187,393.313 284.5,383.5C 282.049,379.876 279.383,376.376 276.5,373C 270.397,373.253 264.564,374.753 259,377.5C 256.042,373.084 253.208,368.584 250.5,364C 255.337,358.33 260.337,352.83 265.5,347.5C 268.237,344.598 271.404,342.265 275,340.5C 279.095,342.461 282.928,344.795 286.5,347.5C 299.38,358.037 310.046,370.371 318.5,384.5C 320.215,386.921 321.048,389.587 321,392.5C 313.968,400.698 306.468,408.365 298.5,415.5C 292.097,421.244 285.431,426.577 278.5,431.5C 272.931,435.537 267.098,439.204 261,442.5C 254.034,439.023 247.201,435.356 240.5,431.5C 232.91,426.585 225.577,421.252 218.5,415.5C 207.467,405.468 197.134,394.801 187.5,383.5C 185.9,381.429 185.4,379.095 186,376.5C 191.006,366.481 196.506,356.814 202.5,347.5C 210.758,336.568 219.424,325.901 228.5,315.5C 236.865,306.968 245.698,298.968 255,291.5C 267.664,297.908 279.164,305.908 289.5,315.5 Z"/></g>
<g><path style="opacity:1" fill="#f99b81" d="M 181.5,314.5 C 197.342,314.17 213.009,314.504 228.5,315.5C 219.424,325.901 210.758,336.568 202.5,347.5C 188.5,346.833 174.5,346.167 160.5,345.5C 168.707,335.964 175.707,325.631 181.5,314.5 Z"/></g>
<g><path style="opacity:1" fill="#f99c83" d="M 329.5,314.5 C 333.485,321.131 337.485,327.798 341.5,334.5C 310.167,334.5 278.833,334.5 247.5,334.5C 250.145,329.218 253.312,324.218 257,319.5C 258.062,318.903 259.228,318.57 260.5,318.5C 274.834,321.524 288.834,325.357 302.5,330C 298.33,324.998 293.996,320.164 289.5,315.5C 302.656,314.504 315.99,314.171 329.5,314.5 Z"/></g>
<g><path style="opacity:1" fill="#f99c7d" d="M 247.5,334.5 C 278.833,334.5 310.167,334.5 341.5,334.5C 344.122,338.457 347.122,342.124 350.5,345.5C 329.167,346.167 307.833,346.833 286.5,347.5C 282.928,344.795 279.095,342.461 275,340.5C 271.404,342.265 268.237,344.598 265.5,347.5C 257.016,346.507 248.349,346.174 239.5,346.5C 241.684,342.119 244.35,338.119 247.5,334.5 Z"/></g>
<g><path style="opacity:1" fill="#f9957d" d="M 160.5,345.5 C 174.5,346.167 188.5,346.833 202.5,347.5C 196.506,356.814 191.006,366.481 186,376.5C 185.4,379.095 185.9,381.429 187.5,383.5C 164.475,384.156 141.809,383.49 119.5,381.5C 122.042,375.602 125.708,370.435 130.5,366C 141.204,360.118 151.204,353.285 160.5,345.5 Z"/></g>
<g><path style="opacity:1" fill="#fa977e" d="M 239.5,346.5 C 248.349,346.174 257.016,346.507 265.5,347.5C 260.337,352.83 255.337,358.33 250.5,364C 253.208,368.584 256.042,373.084 259,377.5C 264.564,374.753 270.397,373.253 276.5,373C 279.383,376.376 282.049,379.876 284.5,383.5C 266.992,383.17 249.659,383.503 232.5,384.5C 229.083,381.411 226.416,377.744 224.5,373.5C 228.75,363.991 233.75,354.991 239.5,346.5 Z"/></g>
<g><path style="opacity:1" fill="#f9957d" d="M 350.5,345.5 C 360.107,353.643 370.44,360.81 381.5,367C 386.265,371.261 389.599,376.428 391.5,382.5C 367.167,383.167 342.833,383.833 318.5,384.5C 310.046,370.371 299.38,358.037 286.5,347.5C 307.833,346.833 329.167,346.167 350.5,345.5 Z"/></g>
<g><path style="opacity:1" fill="#f98f7d" d="M 119.5,381.5 C 141.809,383.49 164.475,384.156 187.5,383.5C 197.134,394.801 207.467,405.468 218.5,415.5C 185.167,415.5 151.833,415.5 118.5,415.5C 116.565,406.394 116.065,397.06 117,387.5C 117.566,385.277 118.4,383.277 119.5,381.5 Z"/></g>
<g><path style="opacity:1" fill="#fa907e" d="M 284.5,383.5 C 279.187,393.313 271.687,400.979 262,406.5C 250.331,401.669 240.497,394.335 232.5,384.5C 249.659,383.503 266.992,383.17 284.5,383.5 Z"/></g>
<g><path style="opacity:1" fill="#f98e7d" d="M 391.5,382.5 C 393.694,387.307 394.694,392.474 394.5,398C 394.282,403.907 393.616,409.74 392.5,415.5C 361.167,415.5 329.833,415.5 298.5,415.5C 306.468,408.365 313.968,400.698 321,392.5C 321.048,389.587 320.215,386.921 318.5,384.5C 342.833,383.833 367.167,383.167 391.5,382.5 Z"/></g>
<g><path style="opacity:1" fill="#f9897d" d="M 118.5,415.5 C 151.833,415.5 185.167,415.5 218.5,415.5C 225.577,421.252 232.91,426.585 240.5,431.5C 201.167,431.5 161.833,431.5 122.5,431.5C 119.918,426.506 118.585,421.173 118.5,415.5 Z"/></g>
<g><path style="opacity:1" fill="#f9897d" d="M 298.5,415.5 C 329.833,415.5 361.167,415.5 392.5,415.5C 391.435,421.771 389.768,427.771 387.5,433.5C 351.515,431.506 315.182,430.84 278.5,431.5C 285.431,426.577 292.097,421.244 298.5,415.5 Z"/></g>
<g><path style="opacity:1" fill="#f98976" d="M 122.5,431.5 C 161.833,431.5 201.167,431.5 240.5,431.5C 247.201,435.356 254.034,439.023 261,442.5C 267.098,439.204 272.931,435.537 278.5,431.5C 315.182,430.84 351.515,431.506 387.5,433.5C 385.95,438.93 383.616,443.93 380.5,448.5C 297.002,447.501 213.335,447.167 129.5,447.5C 126.106,442.704 123.772,437.371 122.5,431.5 Z"/></g>
<g><path style="opacity:1" fill="#f78275" d="M 129.5,447.5 C 213.335,447.167 297.002,447.501 380.5,448.5C 373.261,464.96 360.595,472.46 342.5,471C 313.765,461.273 284.265,455.773 254,454.5C 239.987,454.311 226.154,455.811 212.5,459C 195.586,462.974 178.753,467.141 162,471.5C 146.209,470.208 135.375,462.208 129.5,447.5 Z"/></g>
</svg>
