<?xml version="1.0" encoding="UTF-8"?>
<!DOCTYPE svg PUBLIC "-//W3C//DTD SVG 1.1//EN" "http://www.w3.org/Graphics/SVG/1.1/DTD/svg11.dtd">
<svg xmlns="http://www.w3.org/2000/svg" version="1.1" width="512px" height="512px" style="shape-rendering:geometricPrecision; text-rendering:geometricPrecision; image-rendering:optimizeQuality; fill-rule:evenodd; clip-rule:evenodd" xmlns:xlink="http://www.w3.org/1999/xlink">
<g><path style="opacity:1" fill="#6a5688" d="M 190.5,48.5 C 197.657,48.155 200.824,51.4884 200,58.5C 195.833,64.759 191.167,65.0923 186,59.5C 184.393,54.4383 185.893,50.7716 190.5,48.5 Z"/></g>
<g><path style="opacity:1" fill="#6a5689" d="M 406.5,78.5 C 421.984,77.1498 428.817,84.1498 427,99.5C 421.881,109.084 414.048,112.25 403.5,109C 395.39,104.936 392.557,98.4364 395,89.5C 397.412,84.2523 401.246,80.5857 406.5,78.5 Z"/></g>
<g><path style="opacity:1" fill="#6a5689" d="M 53.5,93.5 C 69.793,93.7294 75.6264,101.729 71,117.5C 64.9554,125.469 57.122,127.635 47.5,124C 39.535,118.755 37.3683,111.589 41,102.5C 44.2606,98.1306 48.4273,95.1306 53.5,93.5 Z"/></g>
<g><path style="opacity:1" fill="#c18cca" d="M 218.5,113.5 C 218.5,114.5 218.5,115.5 218.5,116.5C 169.408,129.09 133.575,158.09 111,203.5C 106.875,213.096 103.375,222.429 100.5,231.5C 86.1589,236.68 77.8255,246.847 75.5,262C 77.6324,273.637 84.2991,281.47 95.5,285.5C 95.5,286.167 95.8333,286.5 96.5,286.5C 97.8093,297.379 100.143,308.045 103.5,318.5C 103.376,319.107 103.043,319.44 102.5,319.5C 100.218,316.878 97.8848,314.212 95.5,311.5C 86.8262,305.828 77.8262,300.661 68.5,296C 53.8859,282.911 49.0526,266.744 54,247.5C 56.1394,234.705 62.6394,224.872 73.5,218C 82.0724,215.254 90.4057,211.921 98.5,208C 102.274,205.898 104.941,202.898 106.5,199C 106.375,197.373 105.875,195.873 105,194.5C 94.5409,184.381 85.2076,173.381 77,161.5C 72.5299,152.266 75.3632,147.433 85.5,147C 90.8333,151 96.1667,155 101.5,159C 106.389,161.862 111.556,164.029 117,165.5C 122.998,164.49 127.665,161.49 131,156.5C 135.875,143.24 143.375,131.74 153.5,122C 159.825,118.556 166.492,115.89 173.5,114C 178.445,111.054 181.945,106.888 184,101.5C 184.818,95.2443 186.485,89.2443 189,83.5C 195,78.1667 201,78.1667 207,83.5C 211.135,93.4064 214.968,103.406 218.5,113.5 Z"/></g>
<g><path style="opacity:1" fill="#c28cca" d="M 367.5,156.5 C 332.848,124.392 291.848,109.725 244.5,112.5C 243.441,110.274 243.608,107.941 245,105.5C 248.062,99.7696 251.896,94.6029 256.5,90C 272.173,84.659 283.84,74.659 291.5,60C 292.833,59.3333 294.167,59.3333 295.5,60C 301.838,66.6708 308.504,73.0042 315.5,79C 318.826,80.9131 322.326,82.4131 326,83.5C 329.408,82.1027 332.908,81.6027 336.5,82C 337.141,92.6638 332.141,99.3305 321.5,102C 312.164,102.335 303.497,100.002 295.5,95C 290.767,94.7206 288.101,97.054 287.5,102C 287.951,104.568 288.951,106.902 290.5,109C 301.548,113.463 312.548,118.13 323.5,123C 341.353,136.523 360.353,138.19 380.5,128C 382.167,127.333 383.833,127.333 385.5,128C 390.357,138.051 396.691,147.051 404.5,155C 410.222,159.529 416.555,163.029 423.5,165.5C 424.76,167.353 424.76,169.186 423.5,171C 414.25,173.34 405.25,172.673 396.5,169C 392.2,163.699 387.534,158.699 382.5,154C 376.903,151.822 371.903,152.655 367.5,156.5 Z"/></g>
<g><path style="opacity:1" fill="#c895ce" d="M 367.5,156.5 C 385.412,174.646 397.245,196.312 403,221.5C 405.317,227.169 408.817,231.836 413.5,235.5C 412.503,235.47 411.836,235.97 411.5,237C 414.384,250.339 415.717,263.839 415.5,277.5C 416.5,277.5 417.5,277.5 418.5,277.5C 406.524,284.756 399.524,295.423 397.5,309.5C 398.29,319.465 403.624,325.632 413.5,328C 415.515,329.555 415.848,331.389 414.5,333.5C 406.665,337.247 399.332,341.747 392.5,347C 386.779,352.721 381.113,358.387 375.5,364C 369.276,367.448 363.276,367.282 357.5,363.5C 394.413,318.957 402.247,269.624 381,215.5C 354.652,162.702 311.819,135.702 252.5,134.5C 251.718,130.937 250.384,127.603 248.5,124.5C 246.566,120.697 245.232,116.697 244.5,112.5C 291.848,109.725 332.848,124.392 367.5,156.5 Z"/></g>
<g><path style="opacity:1" fill="#c795cd" d="M 218.5,113.5 C 220.736,118.32 222.736,123.32 224.5,128.5C 225.167,131.167 225.833,133.833 226.5,136.5C 182.133,148.36 149.966,175.027 130,216.5C 109.539,269.728 117.206,318.395 153,362.5C 193.299,403.952 241.466,417.119 297.5,402C 317.153,395.858 334.153,385.691 348.5,371.5C 351.302,379.102 354.635,386.435 358.5,393.5C 351.81,398.531 345.143,403.531 338.5,408.5C 331.9,408.298 326.9,410.965 323.5,416.5C 314.425,419.856 305.425,423.189 296.5,426.5C 292.327,422.505 287.494,419.505 282,417.5C 277.426,419.903 273.592,423.236 270.5,427.5C 268.754,429.252 266.754,430.585 264.5,431.5C 243.547,431.861 222.881,428.695 202.5,422C 196.714,420.271 191.38,417.771 186.5,414.5C 189.177,412.54 192.177,411.04 195.5,410C 169.431,401.308 147.431,386.642 129.5,366C 126.298,364.517 122.964,364.183 119.5,365C 115.172,366.829 111.172,369.162 107.5,372C 105.888,372.72 104.388,372.554 103,371.5C 102.333,369.5 102.333,367.5 103,365.5C 106.649,358.203 109.149,350.536 110.5,342.5C 109.988,338.427 109.155,334.427 108,330.5C 106.14,326.78 104.307,323.114 102.5,319.5C 103.043,319.44 103.376,319.107 103.5,318.5C 100.143,308.045 97.8093,297.379 96.5,286.5C 95.8333,286.5 95.5,286.167 95.5,285.5C 93.6838,267.144 95.3505,249.144 100.5,231.5C 103.375,222.429 106.875,213.096 111,203.5C 133.575,158.09 169.408,129.09 218.5,116.5C 218.5,115.5 218.5,114.5 218.5,113.5 Z"/></g>
<g><path style="opacity:1" fill="#f9f9f9" d="M 248.5,124.5 C 250.384,127.603 251.718,130.937 252.5,134.5C 252.989,135.995 253.655,137.329 254.5,138.5C 254.796,140.403 255.463,142.07 256.5,143.5C 257.5,146.833 258.5,150.167 259.5,153.5C 262.323,160.654 265.323,167.654 268.5,174.5C 270.052,184.868 275.885,188.202 286,184.5C 289.57,184.544 293.07,185.044 296.5,186C 339.154,209.146 354.654,244.313 343,291.5C 340.658,299.359 337.825,307.026 334.5,314.5C 333.998,315.521 333.332,315.688 332.5,315C 327.135,309.301 321.469,303.967 315.5,299C 305.833,297.67 301.999,301.836 304,311.5C 312.965,326.625 316.799,342.958 315.5,360.5C 315.986,364.509 314.32,366.342 310.5,366C 306.465,362.3 302.798,358.3 299.5,354C 297.966,353.077 296.299,352.577 294.5,352.5C 263.45,368.545 233.616,366.545 205,346.5C 201.255,341.126 199.588,335.126 200,328.5C 199.5,326.667 198.333,325.5 196.5,325C 185.062,326.534 173.562,328.034 162,329.5C 156.534,330.042 155.367,328.209 158.5,324C 167.563,318.806 176.563,313.64 185.5,308.5C 188.854,307.739 191.687,306.072 194,303.5C 198.13,287.705 207.963,277.538 223.5,273C 225.211,271.867 225.711,270.367 225,268.5C 216.582,262.981 207.748,262.148 198.5,266C 192.364,271.956 186.698,278.29 181.5,285C 179.685,285.757 178.019,286.59 176.5,287.5C 171.881,288.658 167.215,289.158 162.5,289C 160.951,287.786 159.785,286.286 159,284.5C 151.748,249.611 161.581,220.778 188.5,198C 192.562,194.971 196.895,192.471 201.5,190.5C 209.451,188.619 217.118,189.453 224.5,193C 235.113,203.613 245.779,214.279 256.5,225C 257.448,225.483 258.448,225.649 259.5,225.5C 259.605,221.313 258.772,217.313 257,213.5C 251.571,199.694 246.071,186.027 240.5,172.5C 238.933,166.121 236.6,160.121 233.5,154.5C 232.784,151.402 231.784,148.402 230.5,145.5C 230.107,143.716 229.441,142.05 228.5,140.5C 228.34,138.847 227.674,137.514 226.5,136.5C 225.833,133.833 225.167,131.167 224.5,128.5C 232.363,126.523 240.363,125.19 248.5,124.5 Z"/></g>
<g><path style="opacity:1" fill="#c89cce" d="M 252.5,134.5 C 311.819,135.702 354.652,162.702 381,215.5C 402.247,269.624 394.413,318.957 357.5,363.5C 356.29,363.068 355.29,362.401 354.5,361.5C 371.985,342.531 383.151,320.198 388,294.5C 395.496,229.318 370.663,181.152 313.5,150C 294.668,140.865 275.001,137.032 254.5,138.5C 253.655,137.329 252.989,135.995 252.5,134.5 Z"/></g>
<g><path style="opacity:1" fill="#c89cce" d="M 226.5,136.5 C 227.674,137.514 228.34,138.847 228.5,140.5C 184.424,150.405 152.591,175.738 133,216.5C 113.467,265.717 119.134,311.717 150,354.5C 187.46,397.764 234.294,413.264 290.5,401C 312.222,395.145 331.222,384.645 347.5,369.5C 347.833,370.167 348.167,370.833 348.5,371.5C 334.153,385.691 317.153,395.858 297.5,402C 241.466,417.119 193.299,403.952 153,362.5C 117.206,318.395 109.539,269.728 130,216.5C 149.966,175.027 182.133,148.36 226.5,136.5 Z"/></g>
<g><path style="opacity:1" fill="#c89cd4" d="M 354.5,361.5 C 353.197,359.858 351.864,358.191 350.5,356.5C 367.318,338.865 377.818,317.865 382,293.5C 389.091,238.2 369.924,194.7 324.5,163C 303.674,150.114 281.007,143.614 256.5,143.5C 255.463,142.07 254.796,140.403 254.5,138.5C 275.001,137.032 294.668,140.865 313.5,150C 370.663,181.152 395.496,229.318 388,294.5C 383.151,320.198 371.985,342.531 354.5,361.5 Z"/></g>
<g><path style="opacity:1" fill="#c89cd4" d="M 228.5,140.5 C 229.441,142.05 230.107,143.716 230.5,145.5C 173.952,159.55 140.119,195.216 129,252.5C 123.306,315.293 148.472,360.793 204.5,389C 256.719,408.587 303.719,400.087 345.5,363.5C 346.738,365.214 347.405,367.214 347.5,369.5C 331.222,384.645 312.222,395.145 290.5,401C 234.294,413.264 187.46,397.764 150,354.5C 119.134,311.717 113.467,265.717 133,216.5C 152.591,175.738 184.424,150.405 228.5,140.5 Z"/></g>
<g><path style="opacity:1" fill="#ce9cd4" d="M 256.5,143.5 C 281.007,143.614 303.674,150.114 324.5,163C 369.924,194.7 389.091,238.2 382,293.5C 377.818,317.865 367.318,338.865 350.5,356.5C 348.102,353.429 346.102,350.095 344.5,346.5C 347.764,345.073 350.264,342.739 352,339.5C 379.092,296.98 380.426,253.647 356,209.5C 333.182,174.999 301.015,156.332 259.5,153.5C 258.5,150.167 257.5,146.833 256.5,143.5 Z"/></g>
<g><path style="opacity:1" fill="#ce9cd4" d="M 230.5,145.5 C 231.784,148.402 232.784,151.402 233.5,154.5C 185.475,166.69 154.642,196.69 141,244.5C 131.444,296.187 147.611,337.687 189.5,369C 230.713,394.4 272.713,395.733 315.5,373C 325.575,366.425 334.908,358.925 343.5,350.5C 344.425,354.79 345.091,359.124 345.5,363.5C 303.719,400.087 256.719,408.587 204.5,389C 148.472,360.793 123.306,315.293 129,252.5C 140.119,195.216 173.952,159.55 230.5,145.5 Z"/></g>
<g><path style="opacity:1" fill="#cea3d4" d="M 259.5,153.5 C 301.015,156.332 333.182,174.999 356,209.5C 380.426,253.647 379.092,296.98 352,339.5C 350.264,342.739 347.764,345.073 344.5,346.5C 343.566,347.568 343.232,348.901 343.5,350.5C 334.908,358.925 325.575,366.425 315.5,373C 272.713,395.733 230.713,394.4 189.5,369C 147.611,337.687 131.444,296.187 141,244.5C 154.642,196.69 185.475,166.69 233.5,154.5C 236.6,160.121 238.933,166.121 240.5,172.5C 227.322,176.074 214.655,181.407 202.5,188.5C 201.702,188.957 201.369,189.624 201.5,190.5C 196.895,192.471 192.562,194.971 188.5,198C 161.581,220.778 151.748,249.611 159,284.5C 159.785,286.286 160.951,287.786 162.5,289C 167.215,289.158 171.881,288.658 176.5,287.5C 177.497,287.47 178.164,287.97 178.5,289C 180.423,295.673 182.756,302.173 185.5,308.5C 176.563,313.64 167.563,318.806 158.5,324C 155.367,328.209 156.534,330.042 162,329.5C 173.562,328.034 185.062,326.534 196.5,325C 198.333,325.5 199.5,326.667 200,328.5C 199.588,335.126 201.255,341.126 205,346.5C 233.616,366.545 263.45,368.545 294.5,352.5C 296.299,352.577 297.966,353.077 299.5,354C 302.798,358.3 306.465,362.3 310.5,366C 314.32,366.342 315.986,364.509 315.5,360.5C 316.324,356.688 316.824,352.688 317,348.5C 351.992,317.202 361.992,279.202 347,234.5C 331.748,199.695 305.581,179.695 268.5,174.5C 265.323,167.654 262.323,160.654 259.5,153.5 Z"/></g>
<g><path style="opacity:1" fill="#6a5689" d="M 456.5,171.5 C 461.696,171.696 464.696,174.362 465.5,179.5C 463.961,186.044 459.961,188.211 453.5,186C 448.14,179.904 449.14,175.071 456.5,171.5 Z"/></g>
<g><path style="opacity:1" fill="#d4abda" d="M 240.5,172.5 C 246.071,186.027 251.571,199.694 257,213.5C 258.772,217.313 259.605,221.313 259.5,225.5C 258.448,225.649 257.448,225.483 256.5,225C 245.779,214.279 235.113,203.613 224.5,193C 217.118,189.453 209.451,188.619 201.5,190.5C 201.369,189.624 201.702,188.957 202.5,188.5C 214.655,181.407 227.322,176.074 240.5,172.5 Z"/></g>
<g><path style="opacity:1" fill="#d3aad9" d="M 315.5,360.5 C 316.799,342.958 312.965,326.625 304,311.5C 301.999,301.836 305.833,297.67 315.5,299C 321.469,303.967 327.135,309.301 332.5,315C 333.332,315.688 333.998,315.521 334.5,314.5C 337.825,307.026 340.658,299.359 343,291.5C 354.654,244.313 339.154,209.146 296.5,186C 293.07,185.044 289.57,184.544 286,184.5C 275.885,188.202 270.052,184.868 268.5,174.5C 305.581,179.695 331.748,199.695 347,234.5C 361.992,279.202 351.992,317.202 317,348.5C 316.824,352.688 316.324,356.688 315.5,360.5 Z"/></g>
<g><path style="opacity:1" fill="#bf8ac9" d="M 418.5,277.5 C 417.5,277.5 416.5,277.5 415.5,277.5C 415.717,263.839 414.384,250.339 411.5,237C 411.836,235.97 412.503,235.47 413.5,235.5C 432.241,243.306 445.075,237.639 452,218.5C 453.733,216.398 455.733,216.065 458,217.5C 462.356,226.656 466.856,235.656 471.5,244.5C 467.663,265.013 457.996,282.18 442.5,296C 440.299,296.825 438.466,296.325 437,294.5C 436.609,285.003 431.942,279.003 423,276.5C 421.644,277.38 420.144,277.714 418.5,277.5 Z"/></g>
<g><path style="opacity:1" fill="#6e5b8b" d="M 287.5,268.5 C 296.374,267.871 300.208,271.871 299,280.5C 293.121,287.49 287.787,287.157 283,279.5C 282.333,277.833 282.333,276.167 283,274.5C 284.332,272.34 285.832,270.34 287.5,268.5 Z"/></g>
<g><path style="opacity:1" fill="#d7b2dc" d="M 185.5,308.5 C 182.756,302.173 180.423,295.673 178.5,289C 178.164,287.97 177.497,287.47 176.5,287.5C 178.019,286.59 179.685,285.757 181.5,285C 186.698,278.29 192.364,271.956 198.5,266C 207.748,262.148 216.582,262.981 225,268.5C 225.711,270.367 225.211,271.867 223.5,273C 207.963,277.538 198.13,287.705 194,303.5C 191.687,306.072 188.854,307.739 185.5,308.5 Z"/></g>
<g><path style="opacity:1" fill="#6a5688" d="M 429.5,310.5 C 440.528,309.401 443.861,313.901 439.5,324C 432.264,327.542 427.597,325.542 425.5,318C 425.994,314.992 427.327,312.492 429.5,310.5 Z"/></g>
<g><path style="opacity:1" fill="#6a5689" d="M 425.5,380.5 C 443.273,379.106 450.773,387.106 448,404.5C 440.652,416.833 430.485,419.666 417.5,413C 411.788,407.331 409.955,400.497 412,392.5C 414.85,386.514 419.35,382.514 425.5,380.5 Z"/></g>
<g><path style="opacity:1" fill="#695689" d="M 102.5,400.5 C 110.201,400.362 113.367,404.029 112,411.5C 108.042,416.436 103.709,416.769 99,412.5C 96.845,407.47 98.0117,403.47 102.5,400.5 Z"/></g>
<g><path style="opacity:1" fill="#c08bc9" d="M 358.5,393.5 C 366.507,402.711 370.507,413.544 370.5,426C 370.302,442.867 361.969,453.2 345.5,457C 331.447,459.759 319.613,455.926 310,445.5C 306.446,438.454 301.946,432.12 296.5,426.5C 305.425,423.189 314.425,419.856 323.5,416.5C 320.762,426.705 324.429,433.038 334.5,435.5C 343.365,434.969 348.365,430.302 349.5,421.5C 348.303,414.977 344.637,410.644 338.5,408.5C 345.143,403.531 351.81,398.531 358.5,393.5 Z"/></g>
<g><path style="opacity:1" fill="#c28bc9" d="M 186.5,414.5 C 191.38,417.771 196.714,420.271 202.5,422C 222.881,428.695 243.547,431.861 264.5,431.5C 259.438,434.853 253.771,436.52 247.5,436.5C 240.738,435.526 234.071,434.026 227.5,432C 213.704,430.177 200.371,431.844 187.5,437C 181.954,439.94 176.287,442.606 170.5,445C 161.37,445.735 153.537,442.901 147,436.5C 146.175,434.299 146.675,432.466 148.5,431C 154.017,430.916 159.351,429.916 164.5,428C 170.108,424.724 175.442,421.057 180.5,417C 182.407,415.878 184.407,415.045 186.5,414.5 Z"/></g>
<g><path style="opacity:1" fill="#6a5688" d="M 68.5,434.5 C 81.1255,433.369 86.9588,439.036 86,451.5C 81.9492,461.414 74.7825,464.581 64.5,461C 61,460.167 58.8333,458 58,454.5C 57.1327,450.044 57.4661,445.711 59,441.5C 61.7901,438.535 64.9567,436.202 68.5,434.5 Z"/></g>
</svg>
