<?xml version="1.0" encoding="UTF-8"?>
<!DOCTYPE svg PUBLIC "-//W3C//DTD SVG 1.1//EN" "http://www.w3.org/Graphics/SVG/1.1/DTD/svg11.dtd">
<svg xmlns="http://www.w3.org/2000/svg" version="1.1" width="512px" height="512px" style="shape-rendering:geometricPrecision; text-rendering:geometricPrecision; image-rendering:optimizeQuality; fill-rule:evenodd; clip-rule:evenodd" xmlns:xlink="http://www.w3.org/1999/xlink">
<g><path style="opacity:1" fill="#7c6fae" d="M 301.5,50.5 C 278.5,50.5 255.5,50.5 232.5,50.5C 230.098,48.0908 227.431,46.0908 224.5,44.5C 243.578,38.8369 262.911,38.3369 282.5,43C 289.358,44.4469 295.691,46.9469 301.5,50.5 Z"/></g>
<g><path style="opacity:1" fill="#4b4b7d" d="M 224.5,44.5 C 227.431,46.0908 230.098,48.0908 232.5,50.5C 239.622,59.2932 247.955,66.6266 257.5,72.5C 270.057,81.8582 283.89,88.8582 299,93.5C 311.73,90.3218 323.563,85.3218 334.5,78.5C 337.669,82.833 340.336,87.4997 342.5,92.5C 321.101,107.187 297.434,116.354 271.5,120C 234.533,124.451 197.533,124.617 160.5,120.5C 161.089,111.813 163.089,103.479 166.5,95.5C 198.675,101.838 231.008,103.005 263.5,99C 253.414,93.399 243.747,87.2323 234.5,80.5C 223.8,72.1341 214.467,62.4674 206.5,51.5C 212.192,48.3803 218.192,46.047 224.5,44.5 Z"/></g>
<g><path style="opacity:1" fill="#776fa8" d="M 232.5,50.5 C 255.5,50.5 278.5,50.5 301.5,50.5C 312.215,55.3504 321.215,62.3504 328.5,71.5C 304.661,71.1691 280.994,71.5024 257.5,72.5C 247.955,66.6266 239.622,59.2932 232.5,50.5 Z"/></g>
<g><path style="opacity:1" fill="#756ba7" d="M 206.5,51.5 C 214.467,62.4674 223.8,72.1341 234.5,80.5C 214.833,81.8333 195.167,81.8333 175.5,80.5C 183.412,68.3543 193.745,58.6877 206.5,51.5 Z"/></g>
<g><path style="opacity:1" fill="#7469a6" d="M 328.5,71.5 C 331.2,73.2344 333.2,75.5677 334.5,78.5C 323.563,85.3218 311.73,90.3218 299,93.5C 283.89,88.8582 270.057,81.8582 257.5,72.5C 280.994,71.5024 304.661,71.1691 328.5,71.5 Z"/></g>
<g><path style="opacity:1" fill="#6f69a1" d="M 175.5,80.5 C 195.167,81.8333 214.833,81.8333 234.5,80.5C 243.747,87.2323 253.414,93.399 263.5,99C 231.008,103.005 198.675,101.838 166.5,95.5C 168.76,89.9667 171.76,84.9667 175.5,80.5 Z"/></g>
<g><path style="opacity:1" fill="#6f679f" d="M 74.5,138.5 C 60.2048,140.483 45.5381,141.15 30.5,140.5C 27.0847,120.497 34.418,105.997 52.5,97C 59.8983,95.1224 65.065,97.6224 68,104.5C 70.3619,115.809 72.5286,127.142 74.5,138.5 Z"/></g>
<g><path style="opacity:1" fill="#6f679f" d="M 479.5,142.5 C 465.128,140.814 450.461,139.814 435.5,139.5C 438.312,127.943 440.812,116.277 443,104.5C 445.935,97.6224 451.102,95.1224 458.5,97C 477.607,106.708 484.607,121.875 479.5,142.5 Z"/></g>
<g><path style="opacity:1" fill="#68649c" d="M 342.5,92.5 C 349.899,107.88 352.899,124.214 351.5,141.5C 287.5,142.167 223.5,142.833 159.5,143.5C 159.175,135.648 159.508,127.982 160.5,120.5C 197.533,124.617 234.533,124.451 271.5,120C 297.434,116.354 321.101,107.187 342.5,92.5 Z"/></g>
<g><path style="opacity:1" fill="#645d95" d="M 74.5,138.5 C 76.7385,145.994 78.7385,153.661 80.5,161.5C 65.2446,160.517 49.9112,160.183 34.5,160.5C 33.294,153.803 31.9607,147.137 30.5,140.5C 45.5381,141.15 60.2048,140.483 74.5,138.5 Z"/></g>
<g><path style="opacity:1" fill="#636396" d="M 351.5,141.5 C 351.296,144.518 350.963,147.518 350.5,150.5C 287.167,150.5 223.833,150.5 160.5,150.5C 160.326,148.139 159.993,145.806 159.5,143.5C 223.5,142.833 287.5,142.167 351.5,141.5 Z"/></g>
<g><path style="opacity:1" fill="#645c95" d="M 435.5,139.5 C 450.461,139.814 465.128,140.814 479.5,142.5C 478.913,149.109 477.579,155.442 475.5,161.5C 460.735,160.849 446.069,160.182 431.5,159.5C 432.705,152.808 434.038,146.141 435.5,139.5 Z"/></g>
<g><path style="opacity:1" fill="#635c96" d="M 160.5,150.5 C 223.833,150.5 287.167,150.5 350.5,150.5C 350.23,155.028 349.563,159.361 348.5,163.5C 286.5,163.5 224.5,163.5 162.5,163.5C 161.437,159.361 160.77,155.028 160.5,150.5 Z"/></g>
<g><path style="opacity:1" fill="#5a558c" d="M 34.5,160.5 C 49.9112,160.183 65.2446,160.517 80.5,161.5C 83.3726,171.45 86.0392,181.45 88.5,191.5C 73.5,191.5 58.5,191.5 43.5,191.5C 40.0513,181.385 37.0513,171.052 34.5,160.5 Z"/></g>
<g><path style="opacity:1" fill="#5a558c" d="M 431.5,159.5 C 446.069,160.182 460.735,160.849 475.5,161.5C 473.747,171.852 471.08,181.852 467.5,191.5C 452.5,191.5 437.5,191.5 422.5,191.5C 425.128,180.629 428.128,169.963 431.5,159.5 Z"/></g>
<g><path style="opacity:1" fill="#5d5c95" d="M 162.5,163.5 C 224.5,163.5 286.5,163.5 348.5,163.5C 348.5,166.167 348.5,168.833 348.5,171.5C 347.686,169.369 347.186,167.036 347,164.5C 341.308,168.29 335.141,171.123 328.5,173C 304.87,178.951 280.87,181.451 256.5,180.5C 230.069,181.416 204.069,178.582 178.5,172C 173.347,170.173 168.514,167.673 164,164.5C 163.814,167.036 163.314,169.369 162.5,171.5C 162.5,168.833 162.5,166.167 162.5,163.5 Z"/></g>
<g><path style="opacity:1" fill="#4e4d7e" d="M 348.5,171.5 C 347.631,173.717 347.298,176.05 347.5,178.5C 329.132,186.759 309.799,191.592 289.5,193C 260.372,195.593 231.372,194.593 202.5,190C 188.61,187.381 175.61,182.548 163.5,175.5C 163.567,174.041 163.234,172.708 162.5,171.5C 163.314,169.369 163.814,167.036 164,164.5C 168.514,167.673 173.347,170.173 178.5,172C 204.069,178.582 230.069,181.416 256.5,180.5C 280.87,181.451 304.87,178.951 328.5,173C 335.141,171.123 341.308,168.29 347,164.5C 347.186,167.036 347.686,169.369 348.5,171.5 Z"/></g>
<g><path style="opacity:1" fill="#f8c7c3" d="M 163.5,175.5 C 175.61,182.548 188.61,187.381 202.5,190C 231.372,194.593 260.372,195.593 289.5,193C 309.799,191.592 329.132,186.759 347.5,178.5C 346.582,184.845 345.582,191.179 344.5,197.5C 285.167,197.5 225.833,197.5 166.5,197.5C 165.174,190.225 164.174,182.892 163.5,175.5 Z"/></g>
<g><path style="opacity:1" fill="#faf8f8" d="M 231.5,217.5 C 233.1,218.644 234.767,219.811 236.5,221C 225.613,231.255 214.113,232.088 202,223.5C 199.217,219.985 197.717,215.985 197.5,211.5C 197.085,207.625 197.585,203.958 199,200.5C 209.651,206.575 220.484,212.241 231.5,217.5 Z"/></g>
<g><path style="opacity:1" fill="#faf8f8" d="M 313.5,211.5 C 312.811,221.052 307.811,226.885 298.5,229C 288.854,231.118 280.854,228.451 274.5,221C 276.364,219.569 278.364,218.403 280.5,217.5C 291.053,211.973 301.553,206.306 312,200.5C 313.415,203.958 313.915,207.625 313.5,211.5 Z"/></g>
<g><path style="opacity:1" fill="#fabbbb" d="M 166.5,197.5 C 225.833,197.5 285.167,197.5 344.5,197.5C 344.201,201.928 343.535,206.261 342.5,210.5C 332.75,210.194 323.084,210.527 313.5,211.5C 313.915,207.625 313.415,203.958 312,200.5C 301.553,206.306 291.053,211.973 280.5,217.5C 264.167,216.167 247.833,216.167 231.5,217.5C 220.484,212.241 209.651,206.575 199,200.5C 197.585,203.958 197.085,207.625 197.5,211.5C 187.833,210.167 178.167,210.167 168.5,211.5C 167.555,206.886 166.888,202.219 166.5,197.5 Z"/></g>
<g><path style="opacity:1" fill="#4c4b7e" d="M 43.5,191.5 C 58.5,191.5 73.5,191.5 88.5,191.5C 95.6272,212.102 103.627,232.435 112.5,252.5C 102.342,260.079 92.009,267.412 81.5,274.5C 80.3951,275.6 79.0618,276.267 77.5,276.5C 63.1274,249.416 51.7941,221.082 43.5,191.5 Z"/></g>
<g><path style="opacity:1" fill="#4c4b7e" d="M 422.5,191.5 C 437.5,191.5 452.5,191.5 467.5,191.5C 459.206,221.082 447.873,249.416 433.5,276.5C 432.167,275.833 430.833,275.167 429.5,274.5C 418.991,267.412 408.658,260.079 398.5,252.5C 407.697,232.566 415.697,212.232 422.5,191.5 Z"/></g>
<g><path style="opacity:1" fill="#f9acad" d="M 197.5,211.5 C 197.717,215.985 199.217,219.985 202,223.5C 214.113,232.088 225.613,231.255 236.5,221C 234.767,219.811 233.1,218.644 231.5,217.5C 247.833,216.167 264.167,216.167 280.5,217.5C 278.364,218.403 276.364,219.569 274.5,221C 280.854,228.451 288.854,231.118 298.5,229C 307.811,226.885 312.811,221.052 313.5,211.5C 323.084,210.527 332.75,210.194 342.5,210.5C 341.927,215.847 341.26,221.18 340.5,226.5C 338.846,227.75 337.179,229.084 335.5,230.5C 282.167,230.5 228.833,230.5 175.5,230.5C 173.821,229.084 172.154,227.75 170.5,226.5C 169.833,221.5 169.167,216.5 168.5,211.5C 178.167,210.167 187.833,210.167 197.5,211.5 Z"/></g>
<g><path style="opacity:1" fill="#fad4a2" d="M 397.5,252.5 C 382.767,252.867 368.1,253.867 353.5,255.5C 354.283,246.984 356.95,239.15 361.5,232C 363.833,231.333 366.167,231.333 368.5,232C 378.584,238.364 388.251,245.197 397.5,252.5 Z"/></g>
<g><path style="opacity:1" fill="#fad4a2" d="M 157.5,253.5 C 142.657,253.829 127.99,253.496 113.5,252.5C 122.749,245.197 132.416,238.364 142.5,232C 145.669,231.022 148.503,231.522 151,233.5C 154.072,239.883 156.239,246.55 157.5,253.5 Z"/></g>
<g><path style="opacity:1" fill="#666496" d="M 170.5,226.5 C 172.154,227.75 173.821,229.084 175.5,230.5C 178.446,233.313 181.779,235.646 185.5,237.5C 195.423,245.254 206.756,249.254 219.5,249.5C 231.875,248.471 244.042,246.471 256,243.5C 263.769,243.721 271.269,245.221 278.5,248C 295.831,251.121 311.497,247.621 325.5,237.5C 329.221,235.646 332.554,233.313 335.5,230.5C 337.179,229.084 338.846,227.75 340.5,226.5C 338.423,237.886 336.089,249.219 333.5,260.5C 281.5,260.5 229.5,260.5 177.5,260.5C 174.911,249.219 172.577,237.886 170.5,226.5 Z"/></g>
<g><path style="opacity:1" fill="#f7999f" d="M 185.5,237.5 C 232.167,237.5 278.833,237.5 325.5,237.5C 311.497,247.621 295.831,251.121 278.5,248C 271.269,245.221 263.769,243.721 256,243.5C 244.042,246.471 231.875,248.471 219.5,249.5C 206.756,249.254 195.423,245.254 185.5,237.5 Z"/></g>
<g><path style="opacity:1" fill="#f9a1a6" d="M 175.5,230.5 C 228.833,230.5 282.167,230.5 335.5,230.5C 332.554,233.313 329.221,235.646 325.5,237.5C 278.833,237.5 232.167,237.5 185.5,237.5C 181.779,235.646 178.446,233.313 175.5,230.5 Z"/></g>
<g><path style="opacity:1" fill="#635c96" d="M 177.5,260.5 C 229.5,260.5 281.5,260.5 333.5,260.5C 333.567,261.959 333.234,263.292 332.5,264.5C 281.095,264.171 229.762,264.505 178.5,265.5C 177.962,263.883 177.629,262.216 177.5,260.5 Z"/></g>
<g><path style="opacity:1" fill="#5d5d8e" d="M 332.5,264.5 C 331.611,269.728 330.278,274.728 328.5,279.5C 279.833,278.167 231.167,278.167 182.5,279.5C 180.877,275.022 179.544,270.356 178.5,265.5C 229.762,264.505 281.095,264.171 332.5,264.5 Z"/></g>
<g><path style="opacity:1" fill="#f9ca91" d="M 112.5,252.5 C 112.833,252.5 113.167,252.5 113.5,252.5C 127.99,253.496 142.657,253.829 157.5,253.5C 158.004,257.507 158.17,261.507 158,265.5C 155.201,269.316 151.701,272.316 147.5,274.5C 125.5,274.5 103.5,274.5 81.5,274.5C 92.009,267.412 102.342,260.079 112.5,252.5 Z"/></g>
<g><path style="opacity:1" fill="#f9ca92" d="M 397.5,252.5 C 397.833,252.5 398.167,252.5 398.5,252.5C 408.658,260.079 418.991,267.412 429.5,274.5C 407.5,274.5 385.5,274.5 363.5,274.5C 357.715,272.384 354.048,268.384 352.5,262.5C 352.997,260.182 353.33,257.848 353.5,255.5C 368.1,253.867 382.767,252.867 397.5,252.5 Z"/></g>
<g><path style="opacity:1" fill="#f9c582" d="M 81.5,274.5 C 103.5,274.5 125.5,274.5 147.5,274.5C 144.204,276.821 140.871,279.154 137.5,281.5C 128.518,287.474 119.518,293.474 110.5,299.5C 90.0067,298.503 69.3401,298.169 48.5,298.5C 49.2026,296.284 50.5359,294.451 52.5,293C 60.8618,287.49 69.1952,281.99 77.5,276.5C 79.0618,276.267 80.3951,275.6 81.5,274.5 Z"/></g>
<g><path style="opacity:1" fill="#f9c582" d="M 363.5,274.5 C 385.5,274.5 407.5,274.5 429.5,274.5C 430.833,275.167 432.167,275.833 433.5,276.5C 441.805,281.99 450.138,287.49 458.5,293C 459.71,294.039 460.71,295.206 461.5,296.5C 441.354,298.163 421.021,299.163 400.5,299.5C 391.643,293.242 382.643,287.242 373.5,281.5C 370.129,279.154 366.796,276.821 363.5,274.5 Z"/></g>
<g><path style="opacity:1" fill="#4b4b7d" d="M 137.5,281.5 C 142.482,291.464 147.982,301.131 154,310.5C 154.536,312.567 154.036,314.401 152.5,316C 138.518,325.274 123.184,331.107 106.5,333.5C 104.074,333.596 101.907,332.93 100,331.5C 96.8212,325.806 93.6546,320.139 90.5,314.5C 97.1284,309.512 103.795,304.512 110.5,299.5C 119.518,293.474 128.518,287.474 137.5,281.5 Z"/></g>
<g><path style="opacity:1" fill="#4b4b7d" d="M 373.5,281.5 C 382.643,287.242 391.643,293.242 400.5,299.5C 407.524,304.013 414.191,309.013 420.5,314.5C 417.469,320.727 413.803,326.56 409.5,332C 390.695,330.684 373.862,324.184 359,312.5C 358.333,310.5 358.333,308.5 359,306.5C 364.35,298.467 369.183,290.133 373.5,281.5 Z"/></g>
<g><path style="opacity:1" fill="#565488" d="M 328.5,279.5 C 326.139,289.554 322.139,298.887 316.5,307.5C 314.661,308.508 313.328,310.008 312.5,312C 274.833,312.667 237.167,312.667 199.5,312C 197.963,310.293 196.296,308.793 194.5,307.5C 188.861,298.887 184.861,289.554 182.5,279.5C 231.167,278.167 279.833,278.167 328.5,279.5 Z"/></g>
<g><path style="opacity:1" fill="#f9bb70" d="M 48.5,298.5 C 69.3401,298.169 90.0067,298.503 110.5,299.5C 103.795,304.512 97.1284,309.512 90.5,314.5C 84.1951,318.656 77.8618,322.823 71.5,327C 67.0479,327.86 63.5479,326.36 61,322.5C 58.0887,319.01 55.422,315.344 53,311.5C 50.3979,307.526 48.8979,303.193 48.5,298.5 Z"/></g>
<g><path style="opacity:1" fill="#f9bb70" d="M 461.5,296.5 C 462.65,300.99 461.816,305.324 459,309.5C 455.238,316.258 450.405,322.091 444.5,327C 441.217,327.743 438.217,327.076 435.5,325C 430.62,321.28 425.62,317.78 420.5,314.5C 414.191,309.013 407.524,304.013 400.5,299.5C 421.021,299.163 441.354,298.163 461.5,296.5 Z"/></g>
<g><path style="opacity:1" fill="#4b4b7d" d="M 194.5,307.5 C 196.296,308.793 197.963,310.293 199.5,312C 237.167,312.667 274.833,312.667 312.5,312C 313.328,310.008 314.661,308.508 316.5,307.5C 316.369,308.239 316.536,308.906 317,309.5C 339.708,330.61 366.208,345.11 396.5,353C 411.089,357.606 423.589,365.44 434,376.5C 437.502,380.833 438.168,385.5 436,390.5C 426.375,398.058 416.208,404.725 405.5,410.5C 305.5,410.5 205.5,410.5 105.5,410.5C 94.7917,404.725 84.625,398.058 75,390.5C 72.8318,385.5 73.4985,380.833 77,376.5C 87.4109,365.44 99.9109,357.606 114.5,353C 144.792,345.11 171.292,330.61 194,309.5C 194.464,308.906 194.631,308.239 194.5,307.5 Z"/></g>
<g><path style="opacity:1" fill="#514b83" d="M 105.5,410.5 C 205.5,410.5 305.5,410.5 405.5,410.5C 401.881,413.65 397.881,416.316 393.5,418.5C 393.44,417.957 393.107,417.624 392.5,417.5C 301.373,418.164 210.373,418.831 119.5,419.5C 114.457,416.985 109.79,413.985 105.5,410.5 Z"/></g>
<g><path style="opacity:1" fill="#515083" d="M 393.5,418.5 C 387.325,422.088 380.991,425.422 374.5,428.5C 295.5,428.5 216.5,428.5 137.5,428.5C 131.217,426.025 125.217,423.025 119.5,419.5C 210.373,418.831 301.373,418.164 392.5,417.5C 393.107,417.624 393.44,417.957 393.5,418.5 Z"/></g>
<g><path style="opacity:1" fill="#575089" d="M 137.5,428.5 C 216.5,428.5 295.5,428.5 374.5,428.5C 365.907,432.819 357.241,437.153 348.5,441.5C 317.674,440.167 286.507,439.5 255,439.5C 223.665,439.5 192.498,439.833 161.5,440.5C 153.151,436.992 145.151,432.992 137.5,428.5 Z"/></g>
<g><path style="opacity:1" fill="#5a5789" d="M 161.5,440.5 C 192.498,439.833 223.665,439.5 255,439.5C 286.507,439.5 317.674,440.167 348.5,441.5C 343.232,443.7 337.899,445.7 332.5,447.5C 280.833,446.167 229.167,446.167 177.5,447.5C 171.996,445.554 166.663,443.221 161.5,440.5 Z"/></g>
<g><path style="opacity:1" fill="#5e588f" d="M 177.5,447.5 C 229.167,446.167 280.833,446.167 332.5,447.5C 307.909,458.696 282.242,466.696 255.5,471.5C 228.571,466.524 202.571,458.524 177.5,447.5 Z"/></g>
</svg>
