<?xml version="1.0" encoding="UTF-8"?>
<!DOCTYPE svg PUBLIC "-//W3C//DTD SVG 1.1//EN" "http://www.w3.org/Graphics/SVG/1.1/DTD/svg11.dtd">
<svg xmlns="http://www.w3.org/2000/svg" version="1.1" width="512px" height="512px" style="shape-rendering:geometricPrecision; text-rendering:geometricPrecision; image-rendering:optimizeQuality; fill-rule:evenodd; clip-rule:evenodd" xmlns:xlink="http://www.w3.org/1999/xlink">
<g><path style="opacity:1" fill="#faa475" d="M 348.5,50.5 C 345.542,55.1256 341.876,59.1256 337.5,62.5C 333.614,58.4188 330.448,53.7521 328,48.5C 327.713,41.786 330.88,38.9527 337.5,40C 341.624,43.0545 345.291,46.5545 348.5,50.5 Z"/></g>
<g><path style="opacity:1" fill="#fa9875" d="M 348.5,50.5 C 354.205,55.204 359.205,60.5374 363.5,66.5C 360.229,72.017 356.229,77.017 351.5,81.5C 346.113,75.7385 341.446,69.4052 337.5,62.5C 341.876,59.1256 345.542,55.1256 348.5,50.5 Z"/></g>
<g><path style="opacity:1" fill="#faa275" d="M 274.5,58.5 C 278.792,58.0349 282.792,58.8682 286.5,61C 291.968,65.4666 297.135,70.3 302,75.5C 306.303,80.6727 306.469,85.8393 302.5,91C 298.434,92.6651 294.434,92.3318 290.5,90C 284.407,85.9113 278.907,81.078 274,75.5C 269.224,69.5919 269.39,63.9252 274.5,58.5 Z"/></g>
<g><path style="opacity:1" fill="#fa8d76" d="M 363.5,66.5 C 368.5,70.8333 373.167,75.5 377.5,80.5C 371.512,85.4899 366.179,91.1566 361.5,97.5C 357.669,92.5112 354.336,87.1778 351.5,81.5C 356.229,77.017 360.229,72.017 363.5,66.5 Z"/></g>
<g><path style="opacity:1" fill="#fab075" d="M 250.5,85.5 C 246.5,89.8333 242.5,94.1667 238.5,98.5C 233.165,91.6591 227.998,84.6591 223,77.5C 219.833,67.3333 223.333,63.8333 233.5,67C 239.741,72.7368 245.408,78.9035 250.5,85.5 Z"/></g>
<g><path style="opacity:1" fill="#fac86f" d="M 87.5,84.5 C 82.1997,88.1329 77.5331,92.4663 73.5,97.5C 69.7774,93.0803 66.2774,88.4137 63,83.5C 61.9657,73.2022 66.4657,69.3688 76.5,72C 80.7475,75.7417 84.4141,79.9083 87.5,84.5 Z"/></g>
<g><path style="opacity:1" fill="#fa727c" d="M 431.5,87.5 C 416.862,103.808 402.195,120.141 387.5,136.5C 382.775,131.397 378.775,125.731 375.5,119.5C 383.258,110.344 391.258,101.344 399.5,92.5C 403.813,89.2255 406.647,84.8922 408,79.5C 412.478,76.1509 417.312,75.6509 422.5,78C 425.704,81.0359 428.704,84.2026 431.5,87.5 Z"/></g>
<g><path style="opacity:1" fill="#fac174" d="M 87.5,84.5 C 92.9661,90.0907 97.9661,96.0907 102.5,102.5C 98.4407,107.562 93.774,111.895 88.5,115.5C 83.5104,109.54 78.5104,103.54 73.5,97.5C 77.5331,92.4663 82.1997,88.1329 87.5,84.5 Z"/></g>
<g><path style="opacity:1" fill="#fa7f7c" d="M 377.5,80.5 C 380.964,83.4625 384.297,86.6291 387.5,90C 391.241,92.6491 395.241,93.4824 399.5,92.5C 391.258,101.344 383.258,110.344 375.5,119.5C 370.473,112.457 365.806,105.124 361.5,97.5C 366.179,91.1566 371.512,85.4899 377.5,80.5 Z"/></g>
<g><path style="opacity:1" fill="#fa657c" d="M 431.5,87.5 C 436.85,93.5216 441.85,99.8549 446.5,106.5C 444.284,107.203 442.451,108.536 441,110.5C 428.868,124.301 416.368,137.801 403.5,151C 404.252,151.671 404.586,152.504 404.5,153.5C 397.833,148.833 392.167,143.167 387.5,136.5C 402.195,120.141 416.862,103.808 431.5,87.5 Z"/></g>
<g><path style="opacity:1" fill="#faa475" d="M 250.5,85.5 C 257.345,94.3511 265.678,101.351 275.5,106.5C 270.204,113.131 264.537,119.465 258.5,125.5C 251.865,116.524 245.198,107.524 238.5,98.5C 242.5,94.1667 246.5,89.8333 250.5,85.5 Z"/></g>
<g><path style="opacity:1" fill="#faae75" d="M 167.5,112.5 C 182.927,115.04 188.427,123.707 184,138.5C 173.235,145.505 164.902,143.172 159,131.5C 156.014,122.337 158.847,116.003 167.5,112.5 Z"/></g>
<g><path style="opacity:1" fill="#fa9775" d="M 275.5,106.5 C 287.886,110.673 300.219,114.673 312.5,118.5C 303.449,128.276 295.116,138.609 287.5,149.5C 274.487,145.5 264.82,137.5 258.5,125.5C 264.537,119.465 270.204,113.131 275.5,106.5 Z"/></g>
<g><path style="opacity:1" fill="#fa577d" d="M 446.5,106.5 C 459.083,122.91 458.417,138.743 444.5,154C 431.064,161.41 417.731,161.243 404.5,153.5C 404.586,152.504 404.252,151.671 403.5,151C 416.368,137.801 428.868,124.301 441,110.5C 442.451,108.536 444.284,107.203 446.5,106.5 Z"/></g>
<g><path style="opacity:1" fill="#fa8d75" d="M 312.5,118.5 C 321.81,121.484 329.81,126.484 336.5,133.5C 330.878,141.124 324.878,148.457 318.5,155.5C 308.499,151.888 298.166,149.888 287.5,149.5C 295.116,138.609 303.449,128.276 312.5,118.5 Z"/></g>
<g><path style="opacity:1" fill="#fab675" d="M 102.5,102.5 C 113.513,114.849 124.18,127.515 134.5,140.5C 130.167,145.5 125.5,150.167 120.5,154.5C 109.127,142.091 98.4601,129.091 88.5,115.5C 93.774,111.895 98.4407,107.562 102.5,102.5 Z"/></g>
<g><path style="opacity:1" fill="#fa847c" d="M 336.5,133.5 C 342.167,138.5 347.5,143.833 352.5,149.5C 350.284,150.203 348.451,151.536 347,153.5C 342.677,159.652 337.843,165.319 332.5,170.5C 329.921,163.586 325.254,158.586 318.5,155.5C 324.878,148.457 330.878,141.124 336.5,133.5 Z"/></g>
<g><path style="opacity:1" fill="#faaf75" d="M 134.5,140.5 C 140.804,147.808 147.138,155.141 153.5,162.5C 149.134,167.866 144.134,172.533 138.5,176.5C 132.122,169.457 126.122,162.124 120.5,154.5C 125.5,150.167 130.167,145.5 134.5,140.5 Z"/></g>
<g><path style="opacity:1" fill="#fa7d7c" d="M 352.5,149.5 C 357.208,153.207 361.208,157.54 364.5,162.5C 351.545,178.626 338.379,194.626 325,210.5C 324.517,211.448 324.351,212.448 324.5,213.5C 319.025,206.724 314.692,199.224 311.5,191C 312.186,187.959 313.853,185.625 316.5,184C 327.822,186.209 333.155,181.709 332.5,170.5C 337.843,165.319 342.677,159.652 347,153.5C 348.451,151.536 350.284,150.203 352.5,149.5 Z"/></g>
<g><path style="opacity:1" fill="#fa757c" d="M 364.5,162.5 C 368.859,166.528 373.193,170.528 377.5,174.5C 362.833,191.5 348.167,208.5 333.5,225.5C 329.738,222.071 326.738,218.071 324.5,213.5C 324.351,212.448 324.517,211.448 325,210.5C 338.379,194.626 351.545,178.626 364.5,162.5 Z"/></g>
<g><path style="opacity:1" fill="#fa6f7c" d="M 377.5,174.5 C 381.696,177.759 386.03,180.759 390.5,183.5C 375.122,201.543 360.122,219.876 345.5,238.5C 340.792,234.793 336.792,230.46 333.5,225.5C 348.167,208.5 362.833,191.5 377.5,174.5 Z"/></g>
<g><path style="opacity:1" fill="#fa9d75" d="M 224.5,196.5 C 212.054,208.113 200.054,220.28 188.5,233C 187.906,233.464 187.239,233.631 186.5,233.5C 181.034,227.909 176.034,221.909 171.5,215.5C 177.195,209.474 182.861,203.474 188.5,197.5C 190.441,197.869 192.275,198.536 194,199.5C 196.048,198.902 197.215,197.569 197.5,195.5C 194.464,187.762 190.631,180.429 186,173.5C 184.8,164.694 188.3,161.86 196.5,165C 207.178,174.499 216.511,184.999 224.5,196.5 Z"/></g>
<g><path style="opacity:1" fill="#faa475" d="M 153.5,162.5 C 164.887,174.554 176.554,186.221 188.5,197.5C 182.861,203.474 177.195,209.474 171.5,215.5C 160.154,202.818 149.154,189.818 138.5,176.5C 144.134,172.533 149.134,167.866 153.5,162.5 Z"/></g>
<g><path style="opacity:1" fill="#fa687d" d="M 390.5,183.5 C 402.987,187.455 415.653,190.789 428.5,193.5C 422.046,201.793 415.379,209.959 408.5,218C 409.056,218.383 409.389,218.883 409.5,219.5C 400.469,217.326 391.469,214.992 382.5,212.5C 376.899,213.601 374.733,216.934 376,222.5C 380.331,228.99 384.831,235.324 389.5,241.5C 384.204,248.131 378.537,254.465 372.5,260.5C 362.543,254.353 353.543,247.02 345.5,238.5C 360.122,219.876 375.122,201.543 390.5,183.5 Z"/></g>
<g><path style="opacity:1" fill="#fa9675" d="M 224.5,196.5 C 230.727,203.274 236.727,210.274 242.5,217.5C 231.039,230.13 219.372,242.63 207.5,255C 208.252,255.671 208.586,256.504 208.5,257.5C 200.089,250.425 192.756,242.425 186.5,233.5C 187.239,233.631 187.906,233.464 188.5,233C 200.054,220.28 212.054,208.113 224.5,196.5 Z"/></g>
<g><path style="opacity:1" fill="#fa597d" d="M 428.5,193.5 C 440.512,196.335 450.845,202.001 459.5,210.5C 457.629,210.859 456.129,211.859 455,213.5C 448.053,222.422 440.887,231.088 433.5,239.5C 432.895,234.123 430.561,229.623 426.5,226C 421.228,222.744 415.562,220.577 409.5,219.5C 409.389,218.883 409.056,218.383 408.5,218C 415.379,209.959 422.046,201.793 428.5,193.5 Z"/></g>
<g><path style="opacity:1" fill="#fa517d" d="M 459.5,210.5 C 467.682,217.71 471.682,226.877 471.5,238C 470.488,254.027 463.488,266.694 450.5,276C 436.107,284.844 420.773,287.177 404.5,283C 402.934,282.392 401.6,281.558 400.5,280.5C 406.833,272.5 413.167,264.5 419.5,256.5C 427.821,253.845 432.488,248.178 433.5,239.5C 440.887,231.088 448.053,222.422 455,213.5C 456.129,211.859 457.629,210.859 459.5,210.5 Z"/></g>
<g><path style="opacity:1" fill="#faf8f8" d="M 409.5,219.5 C 415.562,220.577 421.228,222.744 426.5,226C 430.561,229.623 432.895,234.123 433.5,239.5C 432.488,248.178 427.821,253.845 419.5,256.5C 406.813,256.8 396.813,251.8 389.5,241.5C 384.831,235.324 380.331,228.99 376,222.5C 374.733,216.934 376.899,213.601 382.5,212.5C 391.469,214.992 400.469,217.326 409.5,219.5 Z"/></g>
<g><path style="opacity:1" fill="#fa8f75" d="M 242.5,217.5 C 247.804,223.808 253.137,230.142 258.5,236.5C 249.569,246.933 240.069,256.933 230,266.5C 227.889,268.974 226.389,271.307 225.5,273.5C 219.203,268.871 213.537,263.538 208.5,257.5C 208.586,256.504 208.252,255.671 207.5,255C 219.372,242.63 231.039,230.13 242.5,217.5 Z"/></g>
<g><path style="opacity:1" fill="#fa837c" d="M 321.5,244.5 C 315.258,249.236 309.424,254.569 304,260.5C 289.048,276.766 273.882,292.766 258.5,308.5C 258.66,306.801 258.494,305.134 258,303.5C 253.271,298.603 248.438,293.936 243.5,289.5C 254.162,277.505 265.162,265.838 276.5,254.5C 281.012,257.257 285.679,259.757 290.5,262C 301.177,263.364 303.343,259.53 297,250.5C 293.084,245.004 289.418,239.337 286,233.5C 285.645,224.931 289.478,222.098 297.5,225C 305.979,230.985 313.979,237.485 321.5,244.5 Z"/></g>
<g><path style="opacity:1" fill="#fa8977" d="M 258.5,236.5 C 264.167,242.833 270.167,248.833 276.5,254.5C 265.162,265.838 254.162,277.505 243.5,289.5C 237.083,284.627 231.083,279.293 225.5,273.5C 226.389,271.307 227.889,268.974 230,266.5C 240.069,256.933 249.569,246.933 258.5,236.5 Z"/></g>
<g><path style="opacity:1" fill="#fa7d7c" d="M 321.5,244.5 C 328.193,250.861 334.86,257.194 341.5,263.5C 315.167,290.833 288.833,318.167 262.5,345.5C 253.496,335.33 243.663,325.997 233,317.5C 231.835,313.316 233.335,310.483 237.5,309C 242.927,308.362 248.26,308.862 253.5,310.5C 255.514,310.563 257.181,309.897 258.5,308.5C 273.882,292.766 289.048,276.766 304,260.5C 309.424,254.569 315.258,249.236 321.5,244.5 Z"/></g>
<g><path style="opacity:1" fill="#fa597d" d="M 389.5,241.5 C 396.813,251.8 406.813,256.8 419.5,256.5C 413.167,264.5 406.833,272.5 400.5,280.5C 396.619,279.226 392.952,277.393 389.5,275C 383.936,269.927 378.269,265.094 372.5,260.5C 378.537,254.465 384.204,248.131 389.5,241.5 Z"/></g>
<g><path style="opacity:1" fill="#fa767d" d="M 341.5,263.5 C 348.814,268.818 355.814,274.484 362.5,280.5C 361.504,280.586 360.671,280.252 360,279.5C 355.911,284.044 352.078,288.711 348.5,293.5C 344.896,290.865 340.896,290.032 336.5,291C 334.323,292.497 332.99,294.497 332.5,297C 333.546,299.886 335.213,302.386 337.5,304.5C 335.629,304.859 334.129,305.859 333,307.5C 330.59,310.397 328.423,313.397 326.5,316.5C 322.2,312.118 317.2,310.952 311.5,313C 309.224,315.385 307.891,318.219 307.5,321.5C 308.302,325.236 309.302,328.902 310.5,332.5C 299.006,343.161 288.006,354.328 277.5,366C 276.906,366.464 276.239,366.631 275.5,366.5C 270.778,359.77 266.445,352.77 262.5,345.5C 288.833,318.167 315.167,290.833 341.5,263.5 Z"/></g>
<g><path style="opacity:1" fill="#fab775" d="M 89.5,274.5 C 88.448,274.351 87.448,274.517 86.5,275C 82.33,280.336 77.6633,285.17 72.5,289.5C 64.7572,280.91 57.9239,271.577 52,261.5C 51.4448,252.752 55.2782,250.252 63.5,254C 72.3534,260.697 81.0201,267.53 89.5,274.5 Z"/></g>
<g><path style="opacity:1" fill="#faaf75" d="M 89.5,274.5 C 94.1518,277.821 98.4851,281.487 102.5,285.5C 96.5,291.5 90.5,297.5 84.5,303.5C 80.1549,299.153 76.1549,294.486 72.5,289.5C 77.6633,285.17 82.33,280.336 86.5,275C 87.448,274.517 88.448,274.351 89.5,274.5 Z"/></g>
<g><path style="opacity:1" fill="#fa717e" d="M 362.5,280.5 C 369.203,284.847 375.87,289.18 382.5,293.5C 381.761,293.369 381.094,293.536 380.5,294C 370.03,305.471 359.197,316.637 348,327.5C 347.209,328.745 346.709,330.078 346.5,331.5C 339.833,326.5 333.167,321.5 326.5,316.5C 328.423,313.397 330.59,310.397 333,307.5C 334.129,305.859 335.629,304.859 337.5,304.5C 342.386,309.112 348.053,312.445 354.5,314.5C 360.579,311.949 362.079,307.616 359,301.5C 355.6,298.586 352.1,295.92 348.5,293.5C 352.078,288.711 355.911,284.044 360,279.5C 360.671,280.252 361.504,280.586 362.5,280.5 Z"/></g>
<g><path style="opacity:1" fill="#faf7f7" d="M 348.5,293.5 C 352.1,295.92 355.6,298.586 359,301.5C 362.079,307.616 360.579,311.949 354.5,314.5C 348.053,312.445 342.386,309.112 337.5,304.5C 335.213,302.386 333.546,299.886 332.5,297C 332.99,294.497 334.323,292.497 336.5,291C 340.896,290.032 344.896,290.865 348.5,293.5 Z"/></g>
<g><path style="opacity:1" fill="#fa6a7d" d="M 382.5,293.5 C 389.671,297.251 396.671,301.251 403.5,305.5C 392.074,316.587 381.407,328.254 371.5,340.5C 362.606,338.87 354.272,335.87 346.5,331.5C 346.709,330.078 347.209,328.745 348,327.5C 359.197,316.637 370.03,305.471 380.5,294C 381.094,293.536 381.761,293.369 382.5,293.5 Z"/></g>
<g><path style="opacity:1" fill="#faa475" d="M 102.5,285.5 C 110.817,291.82 118.817,298.486 126.5,305.5C 120.564,311.938 114.397,318.271 108,324.5C 107.209,325.745 106.709,327.078 106.5,328.5C 99.1955,320.192 91.8622,311.859 84.5,303.5C 90.5,297.5 96.5,291.5 102.5,285.5 Z"/></g>
<g><path style="opacity:1" fill="#fa8e76" d="M 171.5,301.5 C 182.089,302.585 188.422,308.418 190.5,319C 189.977,323.523 187.477,326.023 183,326.5C 171.653,324.5 166.32,317.833 167,306.5C 168.025,304.313 169.525,302.646 171.5,301.5 Z"/></g>
<g><path style="opacity:1" fill="#fa647d" d="M 403.5,305.5 C 412.321,309.664 420.321,314.997 427.5,321.5C 418.534,331.801 409.2,341.801 399.5,351.5C 390.646,346.659 381.313,342.992 371.5,340.5C 381.407,328.254 392.074,316.587 403.5,305.5 Z"/></g>
<g><path style="opacity:1" fill="#faf8f9" d="M 326.5,316.5 C 333.167,321.5 339.833,326.5 346.5,331.5C 354.272,335.87 362.606,338.87 371.5,340.5C 381.313,342.992 390.646,346.659 399.5,351.5C 406.934,356.267 412.601,362.6 416.5,370.5C 420.747,398.766 408.413,412.599 379.5,412C 370.341,408.991 362.341,404.158 355.5,397.5C 349.068,390.738 343.402,383.404 338.5,375.5C 334.068,368.291 329.402,361.291 324.5,354.5C 320.33,346.82 315.663,339.487 310.5,332.5C 309.302,328.902 308.302,325.236 307.5,321.5C 307.891,318.219 309.224,315.385 311.5,313C 317.2,310.952 322.2,312.118 326.5,316.5 Z"/></g>
<g><path style="opacity:1" fill="#fa9875" d="M 126.5,305.5 C 135.425,311.756 143.425,319.089 150.5,327.5C 143.57,336.766 135.904,345.433 127.5,353.5C 120.154,345.484 113.154,337.151 106.5,328.5C 106.709,327.078 107.209,325.745 108,324.5C 114.397,318.271 120.564,311.938 126.5,305.5 Z"/></g>
<g><path style="opacity:1" fill="#fa5d7d" d="M 427.5,321.5 C 435.243,326.577 441.243,333.244 445.5,341.5C 444.448,341.351 443.448,341.517 442.5,342C 433.605,351.39 424.938,360.89 416.5,370.5C 412.601,362.6 406.934,356.267 399.5,351.5C 409.2,341.801 418.534,331.801 427.5,321.5 Z"/></g>
<g><path style="opacity:1" fill="#fa8f75" d="M 150.5,327.5 C 155.189,331.222 159.189,335.555 162.5,340.5C 161.761,340.369 161.094,340.536 160.5,341C 154.667,347.5 148.833,354 143,360.5C 141.223,362.79 139.056,364.457 136.5,365.5C 133.016,361.866 130.016,357.866 127.5,353.5C 135.904,345.433 143.57,336.766 150.5,327.5 Z"/></g>
<g><path style="opacity:1" fill="#fa707d" d="M 310.5,332.5 C 315.663,339.487 320.33,346.82 324.5,354.5C 323.761,354.369 323.094,354.536 322.5,355C 310.932,366.066 299.932,377.566 289.5,389.5C 284.047,382.365 279.38,374.699 275.5,366.5C 276.239,366.631 276.906,366.464 277.5,366C 288.006,354.328 299.006,343.161 310.5,332.5 Z"/></g>
<g><path style="opacity:1" fill="#fa8977" d="M 162.5,340.5 C 165.871,343.871 168.871,347.537 171.5,351.5C 163.167,360.833 154.833,370.167 146.5,379.5C 143.179,374.871 139.846,370.204 136.5,365.5C 139.056,364.457 141.223,362.79 143,360.5C 148.833,354 154.667,347.5 160.5,341C 161.094,340.536 161.761,340.369 162.5,340.5 Z"/></g>
<g><path style="opacity:1" fill="#fa587d" d="M 445.5,341.5 C 449.884,349.317 452.884,357.65 454.5,366.5C 453.504,366.414 452.671,366.748 452,367.5C 425.966,395.032 399.8,422.365 373.5,449.5C 355.673,445.916 339.673,438.583 325.5,427.5C 335.785,417.881 345.785,407.881 355.5,397.5C 362.341,404.158 370.341,408.991 379.5,412C 408.413,412.599 420.747,398.766 416.5,370.5C 424.938,360.89 433.605,351.39 442.5,342C 443.448,341.517 444.448,341.351 445.5,341.5 Z"/></g>
<g><path style="opacity:1" fill="#fa7e7c" d="M 217.5,350.5 C 215.241,353.938 212.741,357.271 210,360.5C 195.634,376.363 181.134,392.03 166.5,407.5C 159.477,398.468 152.811,389.135 146.5,379.5C 154.833,370.167 163.167,360.833 171.5,351.5C 174.631,354.129 177.631,356.962 180.5,360C 183.795,362.231 187.295,364.064 191,365.5C 197.07,362.389 198.237,357.889 194.5,352C 194.892,347.772 197.225,345.272 201.5,344.5C 207.233,345.521 212.566,347.521 217.5,350.5 Z"/></g>
<g><path style="opacity:1" fill="#fa767c" d="M 217.5,350.5 C 222.569,353.695 227.235,357.362 231.5,361.5C 230.761,361.369 230.094,361.536 229.5,362C 221.167,371 212.833,380 204.5,389C 205.056,389.383 205.389,389.883 205.5,390.5C 199.864,390.812 197.531,393.812 198.5,399.5C 197.778,399.082 197.278,398.416 197,397.5C 189.967,405.364 182.8,413.031 175.5,420.5C 171.763,416.698 168.763,412.365 166.5,407.5C 181.134,392.03 195.634,376.363 210,360.5C 212.741,357.271 215.241,353.938 217.5,350.5 Z"/></g>
<g><path style="opacity:1" fill="#fa6a7d" d="M 324.5,354.5 C 329.402,361.291 334.068,368.291 338.5,375.5C 337.761,375.369 337.094,375.536 336.5,376C 325.604,386.728 314.937,397.562 304.5,408.5C 298.788,402.751 293.788,396.418 289.5,389.5C 299.932,377.566 310.932,366.066 322.5,355C 323.094,354.536 323.761,354.369 324.5,354.5 Z"/></g>
<g><path style="opacity:1" fill="#fa9875" d="M 69.5,365.5 C 64.1667,370.5 58.8333,375.5 53.5,380.5C 48.8634,373.003 44.3634,365.336 40,357.5C 39.2312,348.798 43.0645,345.632 51.5,348C 57.3952,354.064 63.3952,359.897 69.5,365.5 Z"/></g>
<g><path style="opacity:1" fill="#fa8d75" d="M 69.5,365.5 C 74.0524,368.603 78.3857,371.936 82.5,375.5C 75.8056,382.526 69.1389,389.526 62.5,396.5C 58.9814,391.463 55.9814,386.13 53.5,380.5C 58.8333,375.5 64.1667,370.5 69.5,365.5 Z"/></g>
<g><path style="opacity:1" fill="#fa517d" d="M 454.5,366.5 C 458.061,389.094 453.894,410.094 442,429.5C 423.127,450.072 400.294,456.739 373.5,449.5C 399.8,422.365 425.966,395.032 452,367.5C 452.671,366.748 453.504,366.414 454.5,366.5 Z"/></g>
<g><path style="opacity:1" fill="#fa6c7d" d="M 231.5,361.5 C 240.061,366.397 248.061,372.063 255.5,378.5C 248.439,387.737 240.772,396.571 232.5,405C 233.056,405.383 233.389,405.883 233.5,406.5C 229.307,406.047 225.307,404.881 221.5,403C 216.005,399 210.671,394.834 205.5,390.5C 205.389,389.883 205.056,389.383 204.5,389C 212.833,380 221.167,371 229.5,362C 230.094,361.536 230.761,361.369 231.5,361.5 Z"/></g>
<g><path style="opacity:1" fill="#fa647d" d="M 338.5,375.5 C 343.402,383.404 349.068,390.738 355.5,397.5C 345.785,407.881 335.785,417.881 325.5,427.5C 317.578,422.247 310.578,415.914 304.5,408.5C 314.937,397.562 325.604,386.728 336.5,376C 337.094,375.536 337.761,375.369 338.5,375.5 Z"/></g>
<g><path style="opacity:1" fill="#fa7f7c" d="M 82.5,375.5 C 89.2032,379.847 95.8699,384.18 102.5,388.5C 93.8333,397.833 84.8333,406.833 75.5,415.5C 70.9324,409.377 66.599,403.044 62.5,396.5C 69.1389,389.526 75.8056,382.526 82.5,375.5 Z"/></g>
<g><path style="opacity:1" fill="#faf8f8" d="M 205.5,390.5 C 210.671,394.834 216.005,399 221.5,403C 225.307,404.881 229.307,406.047 233.5,406.5C 240.562,407.433 247.229,409.599 253.5,413C 257.037,415.94 259.703,419.44 261.5,423.5C 265.085,434.661 261.418,441.827 250.5,445C 247.183,445.498 243.85,445.665 240.5,445.5C 229.213,441.543 219.88,434.877 212.5,425.5C 209.916,421.067 207.082,416.734 204,412.5C 201.673,408.347 199.84,404.013 198.5,399.5C 197.531,393.812 199.864,390.812 205.5,390.5 Z"/></g>
<g><path style="opacity:1" fill="#fa607d" d="M 255.5,378.5 C 264.945,385.275 272.612,393.609 278.5,403.5C 273.316,410.507 267.649,417.174 261.5,423.5C 259.703,419.44 257.037,415.94 253.5,413C 247.229,409.599 240.562,407.433 233.5,406.5C 233.389,405.883 233.056,405.383 232.5,405C 240.772,396.571 248.439,387.737 255.5,378.5 Z"/></g>
<g><path style="opacity:1" fill="#fa717c" d="M 102.5,388.5 C 108.83,391.33 114.83,394.663 120.5,398.5C 109.167,409.5 97.8333,420.5 86.5,431.5C 82.3523,426.552 78.6856,421.218 75.5,415.5C 84.8333,406.833 93.8333,397.833 102.5,388.5 Z"/></g>
<g><path style="opacity:1" fill="#fa657d" d="M 120.5,398.5 C 127.197,401.511 133.197,405.511 138.5,410.5C 125.802,423.199 112.802,435.532 99.5,447.5C 94.4393,442.771 90.106,437.438 86.5,431.5C 97.8333,420.5 109.167,409.5 120.5,398.5 Z"/></g>
<g><path style="opacity:1" fill="#fa6c7d" d="M 198.5,399.5 C 199.84,404.013 201.673,408.347 204,412.5C 207.082,416.734 209.916,421.067 212.5,425.5C 207.939,432.733 202.273,439.066 195.5,444.5C 187.733,437.401 181.066,429.401 175.5,420.5C 182.8,413.031 189.967,405.364 197,397.5C 197.278,398.416 197.778,399.082 198.5,399.5 Z"/></g>
<g><path style="opacity:1" fill="#fa597d" d="M 138.5,410.5 C 143.925,414.589 148.258,419.589 151.5,425.5C 139.167,436.833 126.833,448.167 114.5,459.5C 108.341,457.014 103.341,453.014 99.5,447.5C 112.802,435.532 125.802,423.199 138.5,410.5 Z"/></g>
<g><path style="opacity:1" fill="#fa537d" d="M 278.5,403.5 C 286.928,415.45 290.094,428.783 288,443.5C 285.487,455.683 278.321,463.85 266.5,468C 251.332,473.301 236.665,472.468 222.5,465.5C 228.842,459.157 234.842,452.491 240.5,445.5C 243.85,445.665 247.183,445.498 250.5,445C 261.418,441.827 265.085,434.661 261.5,423.5C 267.649,417.174 273.316,410.507 278.5,403.5 Z"/></g>
<g><path style="opacity:1" fill="#fa517d" d="M 151.5,425.5 C 160.625,447.573 153.291,460.573 129.5,464.5C 123.935,464.2 118.935,462.533 114.5,459.5C 126.833,448.167 139.167,436.833 151.5,425.5 Z"/></g>
<g><path style="opacity:1" fill="#fa607d" d="M 212.5,425.5 C 219.88,434.877 229.213,441.543 240.5,445.5C 234.842,452.491 228.842,459.157 222.5,465.5C 211.863,460.673 202.863,453.673 195.5,444.5C 202.273,439.066 207.939,432.733 212.5,425.5 Z"/></g>
</svg>
