<?xml version="1.0" encoding="UTF-8"?>
<!DOCTYPE svg PUBLIC "-//W3C//DTD SVG 1.1//EN" "http://www.w3.org/Graphics/SVG/1.1/DTD/svg11.dtd">
<svg xmlns="http://www.w3.org/2000/svg" version="1.1" width="512px" height="512px" style="shape-rendering:geometricPrecision; text-rendering:geometricPrecision; image-rendering:optimizeQuality; fill-rule:evenodd; clip-rule:evenodd" xmlns:xlink="http://www.w3.org/1999/xlink">
<g><path style="opacity:1" fill="#faeacd" d="M 165.5,39.5 C 167.948,38.5269 170.615,38.1936 173.5,38.5C 174.568,39.4345 175.901,39.7678 177.5,39.5C 174.106,49.5142 170.606,59.5142 167,69.5C 166.83,59.3249 166.33,49.3249 165.5,39.5 Z"/></g>
<g><path style="opacity:1" fill="#f9e3b9" d="M 165.5,39.5 C 166.33,49.3249 166.83,59.3249 167,69.5C 170.606,59.5142 174.106,49.5142 177.5,39.5C 179.5,39.5 181.5,39.5 183.5,39.5C 180.167,49.8333 176.833,60.1667 173.5,70.5C 175.5,70.5 177.5,70.5 179.5,70.5C 180.492,70.3284 181.158,70.6618 181.5,71.5C 176.167,71.5 170.833,71.5 165.5,71.5C 165.5,60.8333 165.5,50.1667 165.5,39.5 Z"/></g>
<g><path style="opacity:1" fill="#fadfa7" d="M 173.5,38.5 C 183.5,38.5 193.5,38.5 203.5,38.5C 203.5,38.8333 203.5,39.1667 203.5,39.5C 200.5,39.5 197.5,39.5 194.5,39.5C 192.549,39.2267 191.049,39.8934 190,41.5C 186.59,51.2333 183.09,60.9 179.5,70.5C 177.5,70.5 175.5,70.5 173.5,70.5C 176.833,60.1667 180.167,49.8333 183.5,39.5C 181.5,39.5 179.5,39.5 177.5,39.5C 175.901,39.7678 174.568,39.4345 173.5,38.5 Z"/></g>
<g><path style="opacity:1" fill="#f7d495" d="M 194.5,39.5 C 191.376,49.5388 188.043,59.5388 184.5,69.5C 187.428,70.4841 190.428,70.8174 193.5,70.5C 194.833,70.5 196.167,70.5 197.5,70.5C 201.702,70.1832 205.702,70.5166 209.5,71.5C 200.167,71.5 190.833,71.5 181.5,71.5C 181.158,70.6618 180.492,70.3284 179.5,70.5C 183.09,60.9 186.59,51.2333 190,41.5C 191.049,39.8934 192.549,39.2267 194.5,39.5 Z"/></g>
<g><path style="opacity:1" fill="#fad082" d="M 194.5,39.5 C 197.5,39.5 200.5,39.5 203.5,39.5C 200.163,49.845 196.829,60.1783 193.5,70.5C 190.428,70.8174 187.428,70.4841 184.5,69.5C 188.043,59.5388 191.376,49.5388 194.5,39.5 Z"/></g>
<g><path style="opacity:1" fill="#fac972" d="M 203.5,39.5 C 204.833,39.5 206.167,39.5 207.5,39.5C 204.167,49.8333 200.833,60.1667 197.5,70.5C 196.167,70.5 194.833,70.5 193.5,70.5C 196.829,60.1783 200.163,49.845 203.5,39.5 Z"/></g>
<g><path style="opacity:1" fill="#f9c766" d="M 203.5,39.5 C 203.5,39.1667 203.5,38.8333 203.5,38.5C 211.826,38.9756 220.16,39.309 228.5,39.5C 233.441,49.7147 238.108,60.048 242.5,70.5C 232.985,70.1731 223.652,70.5064 214.5,71.5C 212.833,71.5 211.167,71.5 209.5,71.5C 205.702,70.5166 201.702,70.1832 197.5,70.5C 200.833,60.1667 204.167,49.8333 207.5,39.5C 206.167,39.5 204.833,39.5 203.5,39.5 Z"/></g>
<g><path style="opacity:1" fill="#facf71" d="M 228.5,39.5 C 241.833,39.5 255.167,39.5 268.5,39.5C 273.63,49.5942 278.63,59.7609 283.5,70C 269.837,70.4999 256.171,70.6666 242.5,70.5C 238.108,60.048 233.441,49.7147 228.5,39.5 Z"/></g>
<g><path style="opacity:1" fill="#f6d27e" d="M 268.5,39.5 C 276.833,39.5 285.167,39.5 293.5,39.5C 293.172,50.0135 293.506,60.3468 294.5,70.5C 302.167,70.5 309.833,70.5 317.5,70.5C 322.833,70.5 328.167,70.5 333.5,70.5C 338.833,70.5 344.167,70.5 349.5,70.5C 353.702,70.1832 357.702,70.5166 361.5,71.5C 312.5,71.5 263.5,71.5 214.5,71.5C 223.652,70.5064 232.985,70.1731 242.5,70.5C 256.171,70.6666 269.837,70.4999 283.5,70C 278.63,59.7609 273.63,49.5942 268.5,39.5 Z"/></g>
<g><path style="opacity:1" fill="#fa9d45" d="M 293.5,39.5 C 297.5,39.5 301.5,39.5 305.5,39.5C 314.833,49.8333 324.167,60.1667 333.5,70.5C 328.167,70.5 322.833,70.5 317.5,70.5C 310.207,62.0374 302.707,53.7041 295,45.5C 294.5,53.8267 294.334,62.16 294.5,70.5C 293.506,60.3468 293.172,50.0135 293.5,39.5 Z"/></g>
<g><path style="opacity:1" fill="#f9a243" d="M 305.5,39.5 C 310.833,39.5 316.167,39.5 321.5,39.5C 330.833,49.8333 340.167,60.1667 349.5,70.5C 344.167,70.5 338.833,70.5 333.5,70.5C 324.167,60.1667 314.833,49.8333 305.5,39.5 Z"/></g>
<g><path style="opacity:1" fill="#f9a843" d="M 321.5,39.5 C 326.833,39.5 332.167,39.5 337.5,39.5C 346.663,49.4983 355.663,59.665 364.5,70C 363.944,70.3826 363.611,70.8826 363.5,71.5C 362.833,71.5 362.167,71.5 361.5,71.5C 357.702,70.5166 353.702,70.1832 349.5,70.5C 340.167,60.1667 330.833,49.8333 321.5,39.5 Z"/></g>
<g><path style="opacity:1" fill="#fab046" d="M 337.5,39.5 C 348.172,39.3335 358.839,39.5002 369.5,40C 370.931,40.4652 372.097,41.2986 373,42.5C 374.598,50.0609 374.931,57.7276 374,65.5C 372.084,70.245 368.584,72.245 363.5,71.5C 363.611,70.8826 363.944,70.3826 364.5,70C 355.663,59.665 346.663,49.4983 337.5,39.5 Z"/></g>
<g><path style="opacity:1" fill="#f9b64f" d="M 165.5,39.5 C 165.5,50.1667 165.5,60.8333 165.5,71.5C 160.167,71.5 154.833,71.5 149.5,71.5C 143.56,72.9307 139.393,70.9307 137,65.5C 136.333,58.5 136.333,51.5 137,44.5C 137.833,42.3333 139.333,40.8333 141.5,40C 149.493,39.5003 157.493,39.3336 165.5,39.5 Z"/></g>
<g><path style="opacity:1" fill="#fa9544" d="M 317.5,70.5 C 309.833,70.5 302.167,70.5 294.5,70.5C 294.334,62.16 294.5,53.8267 295,45.5C 302.707,53.7041 310.207,62.0374 317.5,70.5 Z"/></g>
<g><path style="opacity:1" fill="#b5c8e7" d="M 149.5,71.5 C 154.833,71.5 160.167,71.5 165.5,71.5C 170.833,71.5 176.167,71.5 181.5,71.5C 190.833,71.5 200.167,71.5 209.5,71.5C 211.167,71.5 212.833,71.5 214.5,71.5C 263.5,71.5 312.5,71.5 361.5,71.5C 361.942,80.9197 361.942,90.253 361.5,99.5C 360.698,100.952 360.198,102.618 360,104.5C 344.623,122.208 329.623,140.208 315,158.5C 314.184,159.823 313.017,160.489 311.5,160.5C 308.214,159.793 304.881,159.46 301.5,159.5C 304.169,143.939 305.002,128.272 304,112.5C 302.513,103.013 297.013,97.5131 287.5,96C 266.145,94.984 244.812,93.8173 223.5,92.5C 198.654,91.6109 173.988,90.2776 149.5,88.5C 149.5,82.8333 149.5,77.1667 149.5,71.5 Z"/></g>
<g><path style="opacity:1" fill="#ecf2f9" d="M 149.5,88.5 C 173.988,90.2776 198.654,91.6109 223.5,92.5C 224.263,93.2679 225.263,93.7679 226.5,94C 217.987,99.6964 209.654,105.53 201.5,111.5C 195.628,104.6 188.295,102.433 179.5,105C 177.622,106.543 176.122,108.376 175,110.5C 174.232,116.948 174.732,123.281 176.5,129.5C 175.448,129.351 174.448,129.517 173.5,130C 167.137,134.51 160.804,139.01 154.5,143.5C 150.389,125.198 148.722,106.865 149.5,88.5 Z"/></g>
<g><path style="opacity:1" fill="#e6ecf9" d="M 223.5,92.5 C 244.812,93.8173 266.145,94.984 287.5,96C 297.013,97.5131 302.513,103.013 304,112.5C 305.002,128.272 304.169,143.939 301.5,159.5C 301.167,159.5 300.833,159.5 300.5,159.5C 267.498,159.333 234.498,159.5 201.5,160C 194.127,163.715 192.794,168.881 197.5,175.5C 202.167,182.833 208.167,188.833 215.5,193.5C 217.67,195.086 220.004,196.42 222.5,197.5C 224.964,198.567 227.297,199.9 229.5,201.5C 221.851,207.658 213.851,213.325 205.5,218.5C 178.365,200.615 161.365,175.615 154.5,143.5C 160.804,139.01 167.137,134.51 173.5,130C 174.448,129.517 175.448,129.351 176.5,129.5C 177.428,136.185 180.094,142.018 184.5,147C 199.453,151.895 206.453,146.395 205.5,130.5C 206.184,123.689 204.851,117.355 201.5,111.5C 209.654,105.53 217.987,99.6964 226.5,94C 225.263,93.7679 224.263,93.2679 223.5,92.5 Z"/></g>
<g><path style="opacity:1" fill="#f9f9fa" d="M 201.5,111.5 C 204.851,117.355 206.184,123.689 205.5,130.5C 206.453,146.395 199.453,151.895 184.5,147C 180.094,142.018 177.428,136.185 176.5,129.5C 174.732,123.281 174.232,116.948 175,110.5C 176.122,108.376 177.622,106.543 179.5,105C 188.295,102.433 195.628,104.6 201.5,111.5 Z"/></g>
<g><path style="opacity:1" fill="#b5c8e1" d="M 361.5,99.5 C 361.754,107.723 361.088,115.723 359.5,123.5C 359.662,121.473 359.495,119.473 359,117.5C 344.969,134.358 330.802,151.025 316.5,167.5C 315.221,164.888 313.555,162.555 311.5,160.5C 313.017,160.489 314.184,159.823 315,158.5C 329.623,140.208 344.623,122.208 360,104.5C 360.198,102.618 360.698,100.952 361.5,99.5 Z"/></g>
<g><path style="opacity:1" fill="#b0c2e1" d="M 359.5,123.5 C 356.676,158.553 342.343,187.719 316.5,211C 307.995,217.089 298.995,222.422 289.5,227C 268.221,246.164 268.221,265.331 289.5,284.5C 285.155,288.847 281.155,293.514 277.5,298.5C 276.833,298.167 276.167,297.833 275.5,297.5C 272.471,294.141 269.471,290.808 266.5,287.5C 262.422,281.342 259.422,274.676 257.5,267.5C 253.988,250.935 256.821,235.601 266,221.5C 272.754,214.587 278.92,207.253 284.5,199.5C 285.167,199.5 285.5,199.167 285.5,198.5C 296.946,194.043 305.946,186.71 312.5,176.5C 315.165,174.165 316.498,171.165 316.5,167.5C 330.802,151.025 344.969,134.358 359,117.5C 359.495,119.473 359.662,121.473 359.5,123.5 Z"/></g>
<g><path style="opacity:1" fill="#f8c8ae" d="M 300.5,159.5 C 300.5,159.833 300.5,160.167 300.5,160.5C 279.831,160.333 259.164,160.5 238.5,161C 224.767,165.744 211.101,170.577 197.5,175.5C 192.794,168.881 194.127,163.715 201.5,160C 234.498,159.5 267.498,159.333 300.5,159.5 Z"/></g>
<g><path style="opacity:1" fill="#f5bda3" d="M 300.5,160.5 C 300.737,161.791 300.404,162.791 299.5,163.5C 272.688,172.051 245.688,181.217 218.5,191C 217.058,191.377 216.058,192.21 215.5,193.5C 208.167,188.833 202.167,182.833 197.5,175.5C 211.101,170.577 224.767,165.744 238.5,161C 259.164,160.5 279.831,160.333 300.5,160.5 Z"/></g>
<g><path style="opacity:1" fill="#f2bb9c" d="M 299.5,163.5 C 298.99,166.539 298.323,169.539 297.5,172.5C 272.693,181.436 247.693,189.769 222.5,197.5C 220.004,196.42 217.67,195.086 215.5,193.5C 216.058,192.21 217.058,191.377 218.5,191C 245.688,181.217 272.688,172.051 299.5,163.5 Z"/></g>
<g><path style="opacity:1" fill="#dd9aa8" d="M 300.5,159.5 C 300.833,159.5 301.167,159.5 301.5,159.5C 304.881,159.46 308.214,159.793 311.5,160.5C 313.555,162.555 315.221,164.888 316.5,167.5C 316.498,171.165 315.165,174.165 312.5,176.5C 307.445,175.622 302.445,174.622 297.5,173.5C 297.5,173.167 297.5,172.833 297.5,172.5C 298.323,169.539 298.99,166.539 299.5,163.5C 300.404,162.791 300.737,161.791 300.5,160.5C 300.5,160.167 300.5,159.833 300.5,159.5 Z"/></g>
<g><path style="opacity:1" fill="#f2b498" d="M 297.5,172.5 C 297.5,172.833 297.5,173.167 297.5,173.5C 294.288,182.256 290.288,190.589 285.5,198.5C 285.5,199.167 285.167,199.5 284.5,199.5C 266.438,206.607 248.104,207.274 229.5,201.5C 227.297,199.9 224.964,198.567 222.5,197.5C 247.693,189.769 272.693,181.436 297.5,172.5 Z"/></g>
<g><path style="opacity:1" fill="#d48a97" d="M 297.5,173.5 C 302.445,174.622 307.445,175.622 312.5,176.5C 305.946,186.71 296.946,194.043 285.5,198.5C 290.288,190.589 294.288,182.256 297.5,173.5 Z"/></g>
<g><path style="opacity:1" fill="#e0e6f9" d="M 284.5,199.5 C 278.92,207.253 272.754,214.587 266,221.5C 256.821,235.601 253.988,250.935 257.5,267.5C 228.994,286.252 200.661,305.252 172.5,324.5C 184.705,306.139 201.039,292.639 221.5,284C 242.833,265 242.833,246 221.5,227C 216.298,223.899 210.965,221.066 205.5,218.5C 213.851,213.325 221.851,207.658 229.5,201.5C 248.104,207.274 266.438,206.607 284.5,199.5 Z"/></g>
<g><path style="opacity:1" fill="#dae6f9" d="M 257.5,267.5 C 259.422,274.676 262.422,281.342 266.5,287.5C 249.994,298.252 233.661,309.252 217.5,320.5C 213.677,313.414 208.344,311.914 201.5,316C 191.367,324.779 184.7,335.612 181.5,348.5C 180.849,347.909 180.182,347.243 179.5,346.5C 172.246,351.377 165.079,356.377 158,361.5C 157.617,360.944 157.117,360.611 156.5,360.5C 160.222,347.727 165.556,335.727 172.5,324.5C 200.661,305.252 228.994,286.252 257.5,267.5 Z"/></g>
<g><path style="opacity:1" fill="#a8bbe1" d="M 289.5,284.5 C 297.126,287.98 304.46,291.98 311.5,296.5C 311.511,298.017 312.177,299.184 313.5,300C 306.969,308.025 300.302,315.858 293.5,323.5C 289.427,314.352 284.093,306.018 277.5,298.5C 281.155,293.514 285.155,288.847 289.5,284.5 Z"/></g>
<g><path style="opacity:1" fill="#dae1f9" d="M 266.5,287.5 C 269.471,290.808 272.471,294.141 275.5,297.5C 254.179,312.637 232.679,327.637 211,342.5C 210.601,342.272 210.435,341.938 210.5,341.5C 211.961,336.529 214.128,331.862 217,327.5C 217.497,325.19 217.663,322.857 217.5,320.5C 233.661,309.252 249.994,298.252 266.5,287.5 Z"/></g>
<g><path style="opacity:1" fill="#d9e0f2" d="M 275.5,297.5 C 276.167,297.833 276.833,298.167 277.5,298.5C 284.093,306.018 289.427,314.352 293.5,323.5C 296.946,332.949 299.612,342.615 301.5,352.5C 302.686,358.1 303.353,363.767 303.5,369.5C 302.833,369.167 302.167,368.833 301.5,368.5C 299.178,366.336 296.511,364.669 293.5,363.5C 288.086,359.46 282.086,356.46 275.5,354.5C 273.485,353.076 271.152,352.41 268.5,352.5C 257.122,349.483 245.789,349.983 234.5,354C 212.461,364.045 193.961,378.545 179,397.5C 177.402,399.895 177.236,402.228 178.5,404.5C 178.229,406.38 178.896,407.713 180.5,408.5C 181.306,409.728 182.306,410.728 183.5,411.5C 172.167,411.5 160.833,411.5 149.5,411.5C 149.272,400.906 150.272,390.573 152.5,380.5C 152.897,381.525 153.563,381.692 154.5,381C 164.66,373.753 174.994,366.753 185.5,360C 186.71,358.961 187.71,357.794 188.5,356.5C 193.628,356.888 198.628,356.388 203.5,355C 204.333,354.167 205.167,353.333 206,352.5C 207.428,348.693 208.928,345.026 210.5,341.5C 210.435,341.938 210.601,342.272 211,342.5C 232.679,327.637 254.179,312.637 275.5,297.5 Z"/></g>
<g><path style="opacity:1" fill="#a7bbda" d="M 311.5,296.5 C 320.521,302.188 327.855,309.521 333.5,318.5C 331.171,317.251 329.338,317.918 328,320.5C 319.302,331.356 310.469,342.023 301.5,352.5C 299.612,342.615 296.946,332.949 293.5,323.5C 300.302,315.858 306.969,308.025 313.5,300C 312.177,299.184 311.511,298.017 311.5,296.5 Z"/></g>
<g><path style="opacity:1" fill="#f9f9fa" d="M 217.5,320.5 C 217.663,322.857 217.497,325.19 217,327.5C 214.128,331.862 211.961,336.529 210.5,341.5C 208.928,345.026 207.428,348.693 206,352.5C 205.167,353.333 204.333,354.167 203.5,355C 198.628,356.388 193.628,356.888 188.5,356.5C 184.764,355.095 182.431,352.429 181.5,348.5C 184.7,335.612 191.367,324.779 201.5,316C 208.344,311.914 213.677,313.414 217.5,320.5 Z"/></g>
<g><path style="opacity:1" fill="#a1b5d9" d="M 333.5,318.5 C 345.464,333.775 353.13,351.109 356.5,370.5C 348.5,379.5 340.5,388.5 332.5,397.5C 331.833,397.167 331.167,396.833 330.5,396.5C 323.027,385.939 314.027,376.939 303.5,369.5C 303.353,363.767 302.686,358.1 301.5,352.5C 310.469,342.023 319.302,331.356 328,320.5C 329.338,317.918 331.171,317.251 333.5,318.5 Z"/></g>
<g><path style="opacity:1" fill="#dae1f9" d="M 181.5,348.5 C 182.431,352.429 184.764,355.095 188.5,356.5C 187.71,357.794 186.71,358.961 185.5,360C 174.994,366.753 164.66,373.753 154.5,381C 153.563,381.692 152.897,381.525 152.5,380.5C 153.195,373.694 154.528,367.027 156.5,360.5C 157.117,360.611 157.617,360.944 158,361.5C 165.079,356.377 172.246,351.377 179.5,346.5C 180.182,347.243 180.849,347.909 181.5,348.5 Z"/></g>
<g><path style="opacity:1" fill="#f7c1a6" d="M 268.5,352.5 C 238.5,369.833 208.5,387.167 178.5,404.5C 177.236,402.228 177.402,399.895 179,397.5C 193.961,378.545 212.461,364.045 234.5,354C 245.789,349.983 257.122,349.483 268.5,352.5 Z"/></g>
<g><path style="opacity:1" fill="#f2bb9c" d="M 268.5,352.5 C 271.152,352.41 273.485,353.076 275.5,354.5C 273.692,354.491 272.025,354.991 270.5,356C 240.855,374.154 210.855,391.654 180.5,408.5C 178.896,407.713 178.229,406.38 178.5,404.5C 208.5,387.167 238.5,369.833 268.5,352.5 Z"/></g>
<g><path style="opacity:1" fill="#f1b294" d="M 275.5,354.5 C 282.086,356.46 288.086,359.46 293.5,363.5C 266.299,379.263 239.299,395.263 212.5,411.5C 203.5,411.5 194.5,411.5 185.5,411.5C 184.833,411.5 184.167,411.5 183.5,411.5C 182.306,410.728 181.306,409.728 180.5,408.5C 210.855,391.654 240.855,374.154 270.5,356C 272.025,354.991 273.692,354.491 275.5,354.5 Z"/></g>
<g><path style="opacity:1" fill="#eca888" d="M 293.5,363.5 C 296.511,364.669 299.178,366.336 301.5,368.5C 277.133,382.345 253.133,396.678 229.5,411.5C 223.833,411.5 218.167,411.5 212.5,411.5C 239.299,395.263 266.299,379.263 293.5,363.5 Z"/></g>
<g><path style="opacity:1" fill="#eaa080" d="M 301.5,368.5 C 299.451,382.409 292.451,393.242 280.5,401C 275.196,403.822 269.863,406.322 264.5,408.5C 260.313,409.213 256.313,410.213 252.5,411.5C 244.833,411.5 237.167,411.5 229.5,411.5C 253.133,396.678 277.133,382.345 301.5,368.5 Z"/></g>
<g><path style="opacity:1" fill="#9bafd4" d="M 356.5,370.5 C 358.868,378.881 360.368,387.547 361,396.5C 362.033,410.906 362.2,425.24 361.5,439.5C 340.5,439.5 319.5,439.5 298.5,439.5C 305.833,430.5 313.167,421.5 320.5,412.5C 322.415,412.784 324.081,412.451 325.5,411.5C 332.073,409.02 334.407,404.353 332.5,397.5C 340.5,388.5 348.5,379.5 356.5,370.5 Z"/></g>
<g><path style="opacity:1" fill="#d2858f" d="M 301.5,368.5 C 302.167,368.833 302.833,369.167 303.5,369.5C 314.027,376.939 323.027,385.939 330.5,396.5C 308.478,400.371 286.478,404.371 264.5,408.5C 269.863,406.322 275.196,403.822 280.5,401C 292.451,393.242 299.451,382.409 301.5,368.5 Z"/></g>
<g><path style="opacity:1" fill="#cd7d88" d="M 330.5,396.5 C 331.167,396.833 331.833,397.167 332.5,397.5C 334.407,404.353 332.073,409.02 325.5,411.5C 301.167,411.5 276.833,411.5 252.5,411.5C 256.313,410.213 260.313,409.213 264.5,408.5C 286.478,404.371 308.478,400.371 330.5,396.5 Z"/></g>
<g><path style="opacity:1" fill="#afc1e1" d="M 149.5,411.5 C 160.833,411.5 172.167,411.5 183.5,411.5C 184.167,411.5 184.833,411.5 185.5,411.5C 185.5,411.833 185.5,412.167 185.5,412.5C 182.386,413.091 179.886,414.758 178,417.5C 171.953,424.708 166.12,432.042 160.5,439.5C 156.833,439.5 153.167,439.5 149.5,439.5C 148.167,430.167 148.167,420.833 149.5,411.5 Z"/></g>
<g><path style="opacity:1" fill="#a7bbe0" d="M 185.5,412.5 C 196.838,412.333 208.172,412.5 219.5,413C 211.955,421.707 204.622,430.54 197.5,439.5C 194.5,439.5 191.5,439.5 188.5,439.5C 180.833,439.5 173.167,439.5 165.5,439.5C 163.833,439.5 162.167,439.5 160.5,439.5C 166.12,432.042 171.953,424.708 178,417.5C 179.886,414.758 182.386,413.091 185.5,412.5 Z"/></g>
<g><path style="opacity:1" fill="#aab8d5" d="M 185.5,412.5 C 185.5,412.167 185.5,411.833 185.5,411.5C 194.5,411.5 203.5,411.5 212.5,411.5C 218.167,411.5 223.833,411.5 229.5,411.5C 237.167,411.5 244.833,411.5 252.5,411.5C 276.833,411.5 301.167,411.5 325.5,411.5C 324.081,412.451 322.415,412.784 320.5,412.5C 297.498,412.333 274.498,412.5 251.5,413C 243.955,421.707 236.622,430.54 229.5,439.5C 224.5,439.5 219.5,439.5 214.5,439.5C 212.5,439.5 210.5,439.5 208.5,439.5C 205.167,439.5 201.833,439.5 198.5,439.5C 198.167,439.5 197.833,439.5 197.5,439.5C 204.622,430.54 211.955,421.707 219.5,413C 208.172,412.5 196.838,412.333 185.5,412.5 Z"/></g>
<g><path style="opacity:1" fill="#a0b5d9" d="M 320.5,412.5 C 313.167,421.5 305.833,430.5 298.5,439.5C 275.5,439.5 252.5,439.5 229.5,439.5C 236.622,430.54 243.955,421.707 251.5,413C 274.498,412.5 297.498,412.333 320.5,412.5 Z"/></g>
<g><path style="opacity:1" fill="#f9d87e" d="M 149.5,439.5 C 153.167,439.5 156.833,439.5 160.5,439.5C 162.167,439.5 163.833,439.5 165.5,439.5C 165.5,441.167 165.5,442.833 165.5,444.5C 165.5,453.5 165.5,462.5 165.5,471.5C 157.493,471.666 149.493,471.5 141.5,471C 140.069,470.535 138.903,469.701 138,468.5C 136.402,460.939 136.069,453.272 137,445.5C 139.393,440.069 143.56,438.069 149.5,439.5 Z"/></g>
<g><path style="opacity:1" fill="#f8e8cb" d="M 165.5,439.5 C 173.167,439.5 180.833,439.5 188.5,439.5C 187.081,440.451 185.415,440.784 183.5,440.5C 181.208,440.244 179.041,440.577 177,441.5C 173.667,450.833 170.333,460.167 167,469.5C 166.829,460.99 166.329,452.657 165.5,444.5C 165.5,442.833 165.5,441.167 165.5,439.5 Z"/></g>
<g><path style="opacity:1" fill="#fae4ba" d="M 183.5,440.5 C 180.029,450.914 176.362,461.247 172.5,471.5C 170.265,471.205 168.265,471.539 166.5,472.5C 165.833,472.5 165.5,472.167 165.5,471.5C 165.5,462.5 165.5,453.5 165.5,444.5C 166.329,452.657 166.829,460.99 167,469.5C 170.333,460.167 173.667,450.833 177,441.5C 179.041,440.577 181.208,440.244 183.5,440.5 Z"/></g>
<g><path style="opacity:1" fill="#f8dba6" d="M 188.5,439.5 C 191.5,439.5 194.5,439.5 197.5,439.5C 197.833,439.5 198.167,439.5 198.5,439.5C 197.432,440.434 196.099,440.768 194.5,440.5C 192.856,440.286 191.356,440.62 190,441.5C 186.598,451.205 183.098,460.872 179.5,470.5C 177.257,471.474 174.924,471.808 172.5,471.5C 176.362,461.247 180.029,450.914 183.5,440.5C 185.415,440.784 187.081,440.451 188.5,439.5 Z"/></g>
<g><path style="opacity:1" fill="#fadc9a" d="M 194.5,440.5 C 191.163,450.845 187.829,461.178 184.5,471.5C 186.099,471.232 187.432,471.566 188.5,472.5C 181.167,472.5 173.833,472.5 166.5,472.5C 168.265,471.539 170.265,471.205 172.5,471.5C 174.924,471.808 177.257,471.474 179.5,470.5C 183.098,460.872 186.598,451.205 190,441.5C 191.356,440.62 192.856,440.286 194.5,440.5 Z"/></g>
<g><path style="opacity:1" fill="#f9d189" d="M 198.5,439.5 C 201.833,439.5 205.167,439.5 208.5,439.5C 208.5,440.167 208.167,440.5 207.5,440.5C 205.167,440.5 202.833,440.5 200.5,440.5C 197.747,450.677 194.414,460.677 190.5,470.5C 190.624,471.107 190.957,471.44 191.5,471.5C 191.5,471.833 191.5,472.167 191.5,472.5C 190.5,472.5 189.5,472.5 188.5,472.5C 187.432,471.566 186.099,471.232 184.5,471.5C 187.829,461.178 191.163,450.845 194.5,440.5C 196.099,440.768 197.432,440.434 198.5,439.5 Z"/></g>
<g><path style="opacity:1" fill="#faca75" d="M 207.5,440.5 C 204.293,450.586 200.793,460.586 197,470.5C 195.301,471.406 193.467,471.739 191.5,471.5C 190.957,471.44 190.624,471.107 190.5,470.5C 194.414,460.677 197.747,450.677 200.5,440.5C 202.833,440.5 205.167,440.5 207.5,440.5 Z"/></g>
<g><path style="opacity:1" fill="#f9c664" d="M 208.5,439.5 C 210.5,439.5 212.5,439.5 214.5,439.5C 216.607,440.468 218.941,440.802 221.5,440.5C 220.171,450.793 219.171,461.126 218.5,471.5C 209.533,472.383 200.533,472.716 191.5,472.5C 191.5,472.167 191.5,471.833 191.5,471.5C 193.467,471.739 195.301,471.406 197,470.5C 200.793,460.586 204.293,450.586 207.5,440.5C 208.167,440.5 208.5,440.167 208.5,439.5 Z"/></g>
<g><path style="opacity:1" fill="#f6bd61" d="M 214.5,439.5 C 219.5,439.5 224.5,439.5 229.5,439.5C 252.5,439.5 275.5,439.5 298.5,439.5C 319.5,439.5 340.5,439.5 361.5,439.5C 358.038,440.482 354.371,440.815 350.5,440.5C 341.5,440.5 332.5,440.5 323.5,440.5C 313.5,440.5 303.5,440.5 293.5,440.5C 282.833,440.5 272.167,440.5 261.5,440.5C 254.833,440.5 248.167,440.5 241.5,440.5C 240.135,450.79 239.135,461.123 238.5,471.5C 231.833,471.5 225.167,471.5 218.5,471.5C 219.171,461.126 220.171,450.793 221.5,440.5C 218.941,440.802 216.607,440.468 214.5,439.5 Z"/></g>
<g><path style="opacity:1" fill="#faba55" d="M 261.5,440.5 C 260.135,450.79 259.135,461.123 258.5,471.5C 251.833,471.5 245.167,471.5 238.5,471.5C 239.135,461.123 240.135,450.79 241.5,440.5C 248.167,440.5 254.833,440.5 261.5,440.5 Z"/></g>
<g><path style="opacity:1" fill="#fab34b" d="M 261.5,440.5 C 272.167,440.5 282.833,440.5 293.5,440.5C 293.5,450.833 293.5,461.167 293.5,471.5C 281.833,471.5 270.167,471.5 258.5,471.5C 259.135,461.123 260.135,450.79 261.5,440.5 Z"/></g>
<g><path style="opacity:1" fill="#fa9344" d="M 293.5,440.5 C 303.5,440.5 313.5,440.5 323.5,440.5C 332.167,450.833 340.833,461.167 349.5,471.5C 339.833,471.5 330.167,471.5 320.5,471.5C 312.008,461.865 303.508,452.198 295,442.5C 294.5,452.161 294.334,461.828 294.5,471.5C 294.167,471.5 293.833,471.5 293.5,471.5C 293.5,461.167 293.5,450.833 293.5,440.5 Z"/></g>
<g><path style="opacity:1" fill="#fa9f44" d="M 323.5,440.5 C 332.5,440.5 341.5,440.5 350.5,440.5C 357.06,449.236 364.227,457.57 372,465.5C 372.483,466.448 372.649,467.448 372.5,468.5C 371.942,469.79 370.942,470.623 369.5,471C 362.842,471.5 356.175,471.666 349.5,471.5C 340.833,461.167 332.167,450.833 323.5,440.5 Z"/></g>
<g><path style="opacity:1" fill="#faa944" d="M 361.5,439.5 C 367.44,438.069 371.607,440.069 374,445.5C 374.667,452.5 374.667,459.5 374,466.5C 373.722,467.416 373.222,468.082 372.5,468.5C 372.649,467.448 372.483,466.448 372,465.5C 364.227,457.57 357.06,449.236 350.5,440.5C 354.371,440.815 358.038,440.482 361.5,439.5 Z"/></g>
<g><path style="opacity:1" fill="#fa8744" d="M 320.5,471.5 C 311.833,471.5 303.167,471.5 294.5,471.5C 294.334,461.828 294.5,452.161 295,442.5C 303.508,452.198 312.008,461.865 320.5,471.5 Z"/></g>
</svg>
