<?xml version="1.0" encoding="UTF-8"?>
<!DOCTYPE svg PUBLIC "-//W3C//DTD SVG 1.1//EN" "http://www.w3.org/Graphics/SVG/1.1/DTD/svg11.dtd">
<svg xmlns="http://www.w3.org/2000/svg" version="1.1" width="512px" height="512px" style="shape-rendering:geometricPrecision; text-rendering:geometricPrecision; image-rendering:optimizeQuality; fill-rule:evenodd; clip-rule:evenodd" xmlns:xlink="http://www.w3.org/1999/xlink">
<g><path style="opacity:1" fill="#39394c" d="M 442.5,42.5 C 449.729,41.8789 452.229,44.8789 450,51.5C 387.08,165.006 324.413,278.673 262,392.5C 192.188,418.439 122.021,443.606 51.5,468C 46.9322,469.65 44.2656,468.15 43.5,463.5C 61.697,404.075 80.197,344.742 99,285.5C 210.063,206.718 321.563,128.551 433.5,51C 437,48.6658 440,45.8325 442.5,42.5 Z"/></g>
<g><path style="opacity:1" fill="#38384c" d="M 305.5,45.5 C 312.249,45.9919 314.082,49.3253 311,55.5C 292.167,80.3333 273.333,105.167 254.5,130C 237.556,132.494 220.556,134.661 203.5,136.5C 198.922,135.182 197.422,132.182 199,127.5C 203.59,111.398 208.757,95.5645 214.5,80C 244.971,68.5696 275.305,57.0696 305.5,45.5 Z"/></g>
<g><path style="opacity:1" fill="#38384c" d="M 152.5,65.5 C 155.97,64.8748 158.804,65.8748 161,68.5C 161.968,84.2591 161.635,99.9258 160,115.5C 123.833,142.333 87.6667,169.167 51.5,196C 45.5557,197.72 43.0557,195.553 44,189.5C 61.7443,153.678 79.7443,118.011 98,82.5C 99.1711,81.1068 100.671,80.2735 102.5,80C 119.375,75.4526 136.041,70.6193 152.5,65.5 Z"/></g>
<g><path style="opacity:1" fill="#747cd2" d="M 290.5,61.5 C 291.552,61.3505 292.552,61.5172 293.5,62C 278.5,81.6667 263.5,101.333 248.5,121C 235.852,122.565 223.185,124.065 210.5,125.5C 213.347,114.12 216.514,102.786 220,91.5C 220.273,89.6711 221.107,88.1711 222.5,87C 245.459,78.9624 268.126,70.4624 290.5,61.5 Z"/></g>
<g><path style="opacity:1" fill="#7b81d7" d="M 149.5,110.5 C 138.867,103.17 128.534,95.3369 118.5,87C 119.056,86.6174 119.389,86.1174 119.5,85.5C 129.923,82.8804 140.256,79.8804 150.5,76.5C 151.666,87.4849 151.832,98.4849 151,109.5C 150.617,110.056 150.117,110.389 149.5,110.5 Z"/></g>
<g><path style="opacity:1" fill="#7c88d8" d="M 119.5,85.5 C 119.389,86.1174 119.056,86.6174 118.5,87C 128.534,95.3369 138.867,103.17 149.5,110.5C 143.738,115.887 137.405,120.554 130.5,124.5C 130.489,122.983 129.823,121.816 128.5,121C 119.291,113.618 109.957,106.451 100.5,99.5C 102.109,95.7832 104.109,92.2832 106.5,89C 110.822,87.7248 115.156,86.5581 119.5,85.5 Z"/></g>
<g><path style="opacity:1" fill="#aecff0" d="M 372.5,115.5 C 370.941,113.376 368.941,111.709 366.5,110.5C 378.264,100.969 390.597,92.4695 403.5,85C 393.298,95.3688 382.965,105.535 372.5,115.5 Z"/></g>
<g><path style="opacity:1" fill="#8288df" d="M 100.5,99.5 C 109.957,106.451 119.291,113.618 128.5,121C 129.823,121.816 130.489,122.983 130.5,124.5C 125.786,128.546 120.786,132.212 115.5,135.5C 108.149,128.819 100.483,122.486 92.5,116.5C 94.8959,110.708 97.5626,105.041 100.5,99.5 Z"/></g>
<g><path style="opacity:1" fill="#7a81d5" d="M 388.5,141.5 C 383.824,136.833 378.491,133.166 372.5,130.5C 389.129,112.702 405.963,95.0358 423,77.5C 412.317,99.1937 400.817,120.527 388.5,141.5 Z"/></g>
<g><path style="opacity:1" fill="#b7dcf5" d="M 366.5,110.5 C 368.941,111.709 370.941,113.376 372.5,115.5C 365.868,123.799 358.535,131.466 350.5,138.5C 346.419,135.126 341.753,132.793 336.5,131.5C 345.942,123.729 355.942,116.729 366.5,110.5 Z"/></g>
<g><path style="opacity:1" fill="#38384c" d="M 459.5,128.5 C 464.134,127.641 466.801,129.474 467.5,134C 462.069,154.293 456.235,174.459 450,194.5C 432.831,207.843 414.997,220.177 396.5,231.5C 391.747,230.357 390.247,227.357 392,222.5C 397.022,203.078 402.355,183.745 408,164.5C 425.346,152.637 442.513,140.637 459.5,128.5 Z"/></g>
<g><path style="opacity:1" fill="#7c88d8" d="M 372.5,130.5 C 378.491,133.166 383.824,136.833 388.5,141.5C 383.738,150.696 378.738,159.696 373.5,168.5C 366.365,162.43 358.699,157.097 350.5,152.5C 357.5,144.833 364.833,137.5 372.5,130.5 Z"/></g>
<g><path style="opacity:1" fill="#858edf" d="M 92.5,116.5 C 100.483,122.486 108.149,128.819 115.5,135.5C 98.1583,148.934 80.6583,162.268 63,175.5C 71.7676,155.298 81.6009,135.632 92.5,116.5 Z"/></g>
<g><path style="opacity:1" fill="#c4e4f7" d="M 336.5,131.5 C 341.753,132.793 346.419,135.126 350.5,138.5C 339.139,150.193 327.806,161.86 316.5,173.5C 309.025,169.261 301.359,165.261 293.5,161.5C 307.301,150.764 321.634,140.764 336.5,131.5 Z"/></g>
<g><path style="opacity:1" fill="#8288df" d="M 350.5,152.5 C 358.699,157.097 366.365,162.43 373.5,168.5C 369.167,176.5 364.833,184.5 360.5,192.5C 350.303,186.571 340.636,179.904 331.5,172.5C 337.861,165.807 344.194,159.14 350.5,152.5 Z"/></g>
<g><path style="opacity:1" fill="#737bd1" d="M 453.5,144.5 C 454.043,144.56 454.376,144.893 454.5,145.5C 449.891,160.157 445.391,174.824 441,189.5C 428.904,197.464 417.07,205.798 405.5,214.5C 405.167,214 404.833,213.5 404.5,213C 408.283,198.697 412.45,184.53 417,170.5C 429.321,161.934 441.488,153.268 453.5,144.5 Z"/></g>
<g><path style="opacity:1" fill="#d1ebf8" d="M 293.5,161.5 C 301.359,165.261 309.025,169.261 316.5,173.5C 304.806,185.527 293.139,197.527 281.5,209.5C 270.978,203.071 259.978,197.405 248.5,192.5C 263.22,181.784 278.22,171.45 293.5,161.5 Z"/></g>
<g><path style="opacity:1" fill="#868ee0" d="M 331.5,172.5 C 340.636,179.904 350.303,186.571 360.5,192.5C 351.325,210.191 341.658,227.524 331.5,244.5C 328.91,243.872 326.577,242.705 324.5,241C 314.112,232.946 303.446,225.279 292.5,218C 291.177,217.184 290.511,216.017 290.5,214.5C 303.469,199.864 317.135,185.864 331.5,172.5 Z"/></g>
<g><path style="opacity:1" fill="#def1f8" d="M 248.5,192.5 C 259.978,197.405 270.978,203.071 281.5,209.5C 270.139,221.193 258.806,232.86 247.5,244.5C 233.593,236.714 219.26,229.714 204.5,223.5C 219.129,213.179 233.796,202.846 248.5,192.5 Z"/></g>
<g><path style="opacity:1" fill="#ebf8f8" d="M 204.5,223.5 C 219.26,229.714 233.593,236.714 247.5,244.5C 243.669,249.164 239.336,253.33 234.5,257C 198.557,264.655 162.557,271.655 126.5,278C 152.354,259.577 178.354,241.411 204.5,223.5 Z"/></g>
<g><path style="opacity:1" fill="#39394c" d="M 456.5,233.5 C 461.835,233.005 464.335,235.338 464,240.5C 447.267,290.698 430.934,341.032 415,391.5C 386.25,409.126 357.417,426.626 328.5,444C 325.634,445.457 322.634,445.79 319.5,445C 318.427,443.687 317.76,442.187 317.5,440.5C 321.136,406.472 324.969,372.472 329,338.5C 371.478,303.362 413.978,268.362 456.5,233.5 Z"/></g>
<g><path style="opacity:1" fill="#8c95e6" d="M 290.5,214.5 C 290.511,216.017 291.177,217.184 292.5,218C 303.446,225.279 314.112,232.946 324.5,241C 326.577,242.705 328.91,243.872 331.5,244.5C 320.596,265.403 309.263,286.07 297.5,306.5C 280.274,294.299 263.108,281.965 246,269.5C 245.617,270.056 245.117,270.389 244.5,270.5C 243.865,267.507 243.699,264.507 244,261.5C 259.729,245.938 275.229,230.272 290.5,214.5 Z"/></g>
<g><path style="opacity:1" fill="#abb6f4" d="M 237.5,288.5 C 225.252,283.306 212.918,278.306 200.5,273.5C 211.604,270.513 222.938,268.346 234.5,267C 236.028,274.055 237.028,281.222 237.5,288.5 Z"/></g>
<g><path style="opacity:1" fill="#aebff8" d="M 200.5,273.5 C 212.918,278.306 225.252,283.306 237.5,288.5C 238.961,294.051 239.961,299.718 240.5,305.5C 219.51,296.288 198.51,287.288 177.5,278.5C 184.928,276.259 192.594,274.592 200.5,273.5 Z"/></g>
<g><path style="opacity:1" fill="#b4c7f9" d="M 177.5,278.5 C 198.51,287.288 219.51,296.288 240.5,305.5C 241.634,311.441 242.301,317.441 242.5,323.5C 210.914,310.305 179.247,297.305 147.5,284.5C 157.272,281.879 167.272,279.879 177.5,278.5 Z"/></g>
<g><path style="opacity:1" fill="#bbd8f2" d="M 401.5,305.5 C 397.931,303.881 394.264,302.548 390.5,301.5C 402.527,290.281 415.194,280.115 428.5,271C 427.874,271.75 427.374,272.584 427,273.5C 418.721,284.419 410.221,295.085 401.5,305.5 Z"/></g>
<g><path style="opacity:1" fill="#b4cdf9" d="M 147.5,284.5 C 179.247,297.305 210.914,310.305 242.5,323.5C 244.044,328.606 245.044,333.939 245.5,339.5C 204.247,322.638 162.913,305.971 121.5,289.5C 129.929,287.233 138.596,285.566 147.5,284.5 Z"/></g>
<g><path style="opacity:1" fill="#bad3f9" d="M 121.5,289.5 C 162.913,305.971 204.247,322.638 245.5,339.5C 246.33,344.807 246.997,350.141 247.5,355.5C 200.098,336.365 152.765,317.032 105.5,297.5C 105.869,295.559 106.536,293.725 107.5,292C 112.096,290.714 116.763,289.881 121.5,289.5 Z"/></g>
<g><path style="opacity:1" fill="#939beb" d="M 297.5,306.5 C 285.266,329.3 272.766,351.967 260,374.5C 254.501,339.827 249.335,305.16 244.5,270.5C 245.117,270.389 245.617,270.056 246,269.5C 263.108,281.965 280.274,294.299 297.5,306.5 Z"/></g>
<g><path style="opacity:1" fill="#bad9f9" d="M 105.5,297.5 C 152.765,317.032 200.098,336.365 247.5,355.5C 248.871,361.428 249.871,367.428 250.5,373.5C 200.979,352.242 151.312,331.242 101.5,310.5C 102.435,306.031 103.768,301.697 105.5,297.5 Z"/></g>
<g><path style="opacity:1" fill="#838bdd" d="M 425.5,324.5 C 419.5,321.167 413.5,317.833 407.5,314.5C 419.415,298.35 431.582,282.35 444,266.5C 438.538,286.052 432.372,305.386 425.5,324.5 Z"/></g>
<g><path style="opacity:1" fill="#c0e0f9" d="M 101.5,310.5 C 151.312,331.242 200.979,352.242 250.5,373.5C 251.463,377.796 251.629,382.129 251,386.5C 244.783,388.739 238.616,391.072 232.5,393.5C 186.568,373.405 140.234,354.072 93.5,335.5C 96.015,327.103 98.6816,318.77 101.5,310.5 Z"/></g>
<g><path style="opacity:1" fill="#cfe8f7" d="M 390.5,301.5 C 394.264,302.548 397.931,303.881 401.5,305.5C 394.212,316.121 386.545,326.454 378.5,336.5C 368.319,336.827 358.319,336.494 348.5,335.5C 362.186,323.818 376.186,312.484 390.5,301.5 Z"/></g>
<g><path style="opacity:1" fill="#c7e0f9" d="M 93.5,335.5 C 140.234,354.072 186.568,373.405 232.5,393.5C 226.5,395.5 220.5,397.5 214.5,399.5C 173.35,382.348 132.183,365.015 91,347.5C 90.6174,348.056 90.1174,348.389 89.5,348.5C 90.839,344.151 92.1723,339.818 93.5,335.5 Z"/></g>
<g><path style="opacity:1" fill="#8e9ba8" d="M 348.5,335.5 C 358.319,336.494 368.319,336.827 378.5,336.5C 368.008,337.659 357.341,337.825 346.5,337C 347.044,336.283 347.711,335.783 348.5,335.5 Z"/></g>
<g><path style="opacity:1" fill="#9199e9" d="M 407.5,314.5 C 413.5,317.833 419.5,321.167 425.5,324.5C 420.31,342.239 414.81,359.906 409,377.5C 401.303,365.968 393.803,354.301 386.5,342.5C 393.034,332.741 400.034,323.407 407.5,314.5 Z"/></g>
<g><path style="opacity:1" fill="#b4c7f9" d="M 351.5,346.5 C 364.191,362.852 376.857,379.185 389.5,395.5C 386.709,397.735 383.709,399.735 380.5,401.5C 366.177,384.206 351.844,366.873 337.5,349.5C 337.5,348.5 337.5,347.5 337.5,346.5C 342.167,346.5 346.833,346.5 351.5,346.5 Z"/></g>
<g><path style="opacity:1" fill="#afc0f9" d="M 351.5,346.5 C 355.833,346.5 360.167,346.5 364.5,346.5C 376.24,360.9 387.573,375.566 398.5,390.5C 395.634,392.432 392.634,394.099 389.5,395.5C 376.857,379.185 364.191,362.852 351.5,346.5 Z"/></g>
<g><path style="opacity:1" fill="#adb8f7" d="M 364.5,346.5 C 369.43,346.197 374.263,346.531 379,347.5C 386.791,360.918 394.958,374.085 403.5,387C 402.154,388.669 400.487,389.836 398.5,390.5C 387.573,375.566 376.24,360.9 364.5,346.5 Z"/></g>
<g><path style="opacity:1" fill="#b4cdf9" d="M 337.5,349.5 C 351.844,366.873 366.177,384.206 380.5,401.5C 377.15,403.196 373.817,404.863 370.5,406.5C 359.547,392.375 348.38,378.375 337,364.5C 336.617,365.056 336.117,365.389 335.5,365.5C 336.036,360.136 336.703,354.803 337.5,349.5 Z"/></g>
<g><path style="opacity:1" fill="#cbe6f9" d="M 214.5,399.5 C 198.267,405.45 181.933,411.116 165.5,416.5C 137.131,403.988 108.464,391.988 79.5,380.5C 82.6369,369.757 85.9703,359.09 89.5,348.5C 90.1174,348.389 90.6174,348.056 91,347.5C 132.183,365.015 173.35,382.348 214.5,399.5 Z"/></g>
<g><path style="opacity:1" fill="#b9d2f7" d="M 370.5,406.5 C 367.709,408.735 364.709,410.735 361.5,412.5C 352.917,401.016 344.084,389.682 335,378.5C 334.809,380.708 334.309,382.708 333.5,384.5C 333.757,378.116 334.423,371.782 335.5,365.5C 336.117,365.389 336.617,365.056 337,364.5C 348.38,378.375 359.547,392.375 370.5,406.5 Z"/></g>
<g><path style="opacity:1" fill="#d4ecf9" d="M 79.5,380.5 C 108.464,391.988 137.131,403.988 165.5,416.5C 149.77,422.687 133.77,428.354 117.5,433.5C 101.797,426.321 85.7972,419.655 69.5,413.5C 72.4343,402.365 75.7677,391.365 79.5,380.5 Z"/></g>
<g><path style="opacity:1" fill="#bcdbf7" d="M 361.5,412.5 C 350.861,418.822 340.194,425.155 329.5,431.5C 329.167,430.5 328.833,429.5 328.5,428.5C 330.169,413.82 331.836,399.154 333.5,384.5C 334.309,382.708 334.809,380.708 335,378.5C 344.084,389.682 352.917,401.016 361.5,412.5 Z"/></g>
<g><path style="opacity:1" fill="#dcf0f7" d="M 69.5,413.5 C 85.7972,419.655 101.797,426.321 117.5,433.5C 97.6753,441 77.6753,448.334 57.5,455.5C 56.7942,453.234 56.9609,450.901 58,448.5C 61.5696,436.626 65.403,424.959 69.5,413.5 Z"/></g>
</svg>
