<?xml version="1.0" encoding="UTF-8"?>
<!DOCTYPE svg PUBLIC "-//W3C//DTD SVG 1.1//EN" "http://www.w3.org/Graphics/SVG/1.1/DTD/svg11.dtd">
<svg xmlns="http://www.w3.org/2000/svg" version="1.1" width="512px" height="512px" style="shape-rendering:geometricPrecision; text-rendering:geometricPrecision; image-rendering:optimizeQuality; fill-rule:evenodd; clip-rule:evenodd" xmlns:xlink="http://www.w3.org/1999/xlink">
<g><path style="opacity:1" fill="#39394c" d="M 99.5,40.5 C 103.514,40.3345 107.514,40.5012 111.5,41C 126.832,49.3346 142.832,56.0013 159.5,61C 165.461,62.2393 171.461,62.5726 177.5,62C 189.3,60.5401 200.966,58.3734 212.5,55.5C 215.544,56.1777 218.544,57.011 221.5,58C 226.317,62.2403 231.317,66.2403 236.5,70C 240.736,74.4739 243.069,79.8073 243.5,86C 245.082,114.148 235.416,137.482 214.5,156C 211.283,157.637 207.95,158.97 204.5,160C 201.536,163.966 198.203,167.633 194.5,171C 188.593,175.538 182.426,179.705 176,183.5C 175.658,203.379 166.825,217.879 149.5,227C 151.875,231.827 151.708,236.661 149,241.5C 140.565,253.268 129.731,262.101 116.5,268C 109.318,269.836 102.318,269.169 95.5,266C 90.3343,263.252 85.3343,260.252 80.5,257C 77.5095,254.01 75.3428,250.51 74,246.5C 72.6885,238.895 72.1885,231.228 72.5,223.5C 46.2543,218.005 35.0876,202.005 39,175.5C 41.3847,166.898 45.2181,159.065 50.5,152C 44.1432,136.666 43.9766,121.166 50,105.5C 53.4993,99.8267 58.3327,95.66 64.5,93C 69.9377,90.6328 75.4377,88.4661 81,86.5C 79.2008,79.7053 78.0342,72.7053 77.5,65.5C 77.1771,57.9796 80.1771,52.1462 86.5,48C 90.6017,44.9539 94.935,42.4539 99.5,40.5 Z"/></g>
<g><path style="opacity:1" fill="#39394c" d="M 399.5,40.5 C 412.465,39.5651 422.965,44.2317 431,54.5C 432.87,57.9219 433.703,61.5886 433.5,65.5C 432.966,72.7053 431.799,79.7053 430,86.5C 438.969,89.5685 447.469,93.5685 455.5,98.5C 460.324,103.117 463.157,108.783 464,115.5C 466.952,128.14 465.785,140.307 460.5,152C 470.676,164.856 474.51,179.356 472,195.5C 466.782,211.88 455.615,221.214 438.5,223.5C 438.811,231.228 438.311,238.895 437,246.5C 435.657,250.51 433.491,254.01 430.5,257C 422.292,263.602 412.958,267.769 402.5,269.5C 391.207,267.854 381.54,263.02 373.5,255C 369.667,250.5 365.833,246 362,241.5C 359.364,236.663 359.197,231.83 361.5,227C 344.175,217.879 335.342,203.379 335,183.5C 330.084,179.957 324.917,176.79 319.5,174C 314.923,170.011 310.923,165.511 307.5,160.5C 299.827,158.908 293.66,154.908 289,148.5C 271.312,128.453 264.645,105.12 269,78.5C 270,76.5 271,74.5 272,72.5C 277.557,67.3088 283.39,62.4755 289.5,58C 292.633,57.04 295.8,56.2067 299,55.5C 310.35,58.4367 321.85,60.6034 333.5,62C 347.196,62.7941 360.196,60.1274 372.5,54C 381.84,49.9968 390.84,45.4968 399.5,40.5 Z"/></g>
<g><path style="opacity:1" fill="#b4c0ee" d="M 163.5,71.5 C 164.609,72.29 165.942,72.79 167.5,73C 161.5,77.3333 155.5,81.6667 149.5,86C 148.207,86.49 146.873,86.6567 145.5,86.5C 139.675,83.5049 135.842,78.8382 134,72.5C 131.383,69.0148 127.883,67.3481 123.5,67.5C 124.092,70.1272 124.425,72.7938 124.5,75.5C 123.883,75.6107 123.383,75.944 123,76.5C 122.333,78.5 122.333,80.5 123,82.5C 125.689,87.9925 128.523,93.3258 131.5,98.5C 124.47,104.188 117.137,109.522 109.5,114.5C 95.1912,99.4188 88.0246,81.4188 88,60.5C 93.2909,54.4423 99.7909,50.9423 107.5,50C 120.141,56.821 133.141,62.821 146.5,68C 152.016,69.9629 157.683,71.1296 163.5,71.5 Z"/></g>
<g><path style="opacity:1" fill="#b4c0ee" d="M 401.5,114.5 C 393.863,109.522 386.53,104.188 379.5,98.5C 382.477,93.3258 385.311,87.9925 388,82.5C 388.667,80.5 388.667,78.5 388,76.5C 387.617,75.944 387.117,75.6107 386.5,75.5C 386.575,72.7938 386.908,70.1272 387.5,67.5C 383.05,67.1416 379.55,68.8083 377,72.5C 375.158,78.8382 371.325,83.5049 365.5,86.5C 364.127,86.6567 362.793,86.49 361.5,86C 355.5,81.6667 349.5,77.3333 343.5,73C 344.056,72.6174 344.389,72.1174 344.5,71.5C 352.02,70.9537 359.353,69.4537 366.5,67C 379.742,61.7126 392.742,55.8793 405.5,49.5C 412.391,51.5263 418.224,55.193 423,60.5C 422.975,81.4188 415.809,99.4188 401.5,114.5 Z"/></g>
<g><path style="opacity:1" fill="#acb8e8" d="M 232.5,82.5 C 221.05,91.3986 209.383,100.065 197.5,108.5C 199.807,101.273 201.807,93.9395 203.5,86.5C 202.148,82.7459 199.482,81.5792 195.5,83C 193.984,84.897 193.317,87.0637 193.5,89.5C 189.766,89.3227 186.099,89.6561 182.5,90.5C 174.215,91.6059 165.882,91.7726 157.5,91C 153,90.5594 149,89.0594 145.5,86.5C 146.873,86.6567 148.207,86.49 149.5,86C 155.5,81.6667 161.5,77.3333 167.5,73C 165.942,72.79 164.609,72.29 163.5,71.5C 179.787,71.8401 195.787,69.8401 211.5,65.5C 214.028,65.7628 216.361,66.5961 218.5,68C 222.667,71.5 226.833,75 231,78.5C 231.791,79.745 232.291,81.0783 232.5,82.5 Z"/></g>
<g><path style="opacity:1" fill="#adb9e9" d="M 344.5,71.5 C 344.389,72.1174 344.056,72.6174 343.5,73C 349.5,77.3333 355.5,81.6667 361.5,86C 362.793,86.49 364.127,86.6567 365.5,86.5C 361.302,89.0537 356.636,90.5537 351.5,91C 343.785,91.7668 336.118,91.6001 328.5,90.5C 324.865,89.8857 321.198,89.5524 317.5,89.5C 317.948,83.4452 315.281,81.2786 309.5,83C 308.196,83.804 307.529,84.9707 307.5,86.5C 309.193,93.9395 311.193,101.273 313.5,108.5C 301.617,100.065 289.95,91.3986 278.5,82.5C 278.709,81.0783 279.209,79.745 280,78.5C 284.167,75 288.333,71.5 292.5,68C 294.513,66.7428 296.679,65.9095 299,65.5C 313.827,70.0706 328.994,72.0706 344.5,71.5 Z"/></g>
<g><path style="opacity:1" fill="#a7b3e4" d="M 232.5,82.5 C 233.496,94.8582 232.329,107.192 229,119.5C 223.717,130.116 216.884,139.616 208.5,148C 198.375,149.687 190.875,145.853 186,136.5C 185.333,133.833 185.333,131.167 186,128.5C 190.127,121.902 193.96,115.235 197.5,108.5C 209.383,100.065 221.05,91.3986 232.5,82.5 Z"/></g>
<g><path style="opacity:1" fill="#a7b3e5" d="M 278.5,82.5 C 289.95,91.3986 301.617,100.065 313.5,108.5C 317.038,115.236 320.871,121.903 325,128.5C 325.965,132.782 325.298,136.782 323,140.5C 317.997,147.092 311.497,149.925 303.5,149C 294.787,140.288 287.62,130.454 282,119.5C 278.794,107.176 277.628,94.8424 278.5,82.5 Z"/></g>
<g><path style="opacity:1" fill="#6975a7" d="M 193.5,89.5 C 190.913,101.668 185.913,112.668 178.5,122.5C 168.799,128.441 159.299,134.774 150,141.5C 149.601,141.272 149.435,140.938 149.5,140.5C 159.786,131.63 161.119,121.63 153.5,110.5C 163.697,104.571 173.364,97.9042 182.5,90.5C 186.099,89.6561 189.766,89.3227 193.5,89.5 Z"/></g>
<g><path style="opacity:1" fill="#6975a7" d="M 317.5,89.5 C 321.198,89.5524 324.865,89.8857 328.5,90.5C 337.636,97.9042 347.303,104.571 357.5,110.5C 349.881,121.63 351.214,131.63 361.5,140.5C 361.565,140.938 361.399,141.272 361,141.5C 351.701,134.774 342.201,128.441 332.5,122.5C 325.081,112.657 320.081,101.657 317.5,89.5 Z"/></g>
<g><path style="opacity:1" fill="#6d7da9" d="M 145.5,86.5 C 149,89.0594 153,90.5594 157.5,91C 165.882,91.7726 174.215,91.6059 182.5,90.5C 173.364,97.9042 163.697,104.571 153.5,110.5C 144.045,100.953 136.545,89.9534 131,77.5C 129.379,74.6793 127.212,74.0126 124.5,75.5C 124.425,72.7938 124.092,70.1272 123.5,67.5C 127.883,67.3481 131.383,69.0148 134,72.5C 135.842,78.8382 139.675,83.5049 145.5,86.5 Z"/></g>
<g><path style="opacity:1" fill="#6d7da9" d="M 386.5,75.5 C 383.788,74.0126 381.621,74.6793 380,77.5C 374.455,89.9534 366.955,100.953 357.5,110.5C 347.303,104.571 337.636,97.9042 328.5,90.5C 336.118,91.6001 343.785,91.7668 351.5,91C 356.636,90.5537 361.302,89.0537 365.5,86.5C 371.325,83.5049 375.158,78.8382 377,72.5C 379.55,68.8083 383.05,67.1416 387.5,67.5C 386.908,70.1272 386.575,72.7938 386.5,75.5 Z"/></g>
<g><path style="opacity:1" fill="#adb9e9" d="M 131.5,98.5 C 137.089,105.934 142.922,113.267 149,120.5C 149.327,126.677 146.827,131.511 141.5,135C 138.298,136.483 134.964,136.817 131.5,136C 122.999,129.999 115.666,122.832 109.5,114.5C 117.137,109.522 124.47,104.188 131.5,98.5 Z"/></g>
<g><path style="opacity:1" fill="#adb9e9" d="M 379.5,98.5 C 386.53,104.188 393.863,109.522 401.5,114.5C 395.334,122.832 388.001,129.999 379.5,136C 370.997,137.197 365.163,133.697 362,125.5C 361.333,123.833 361.333,122.167 362,120.5C 368.078,113.267 373.911,105.934 379.5,98.5 Z"/></g>
<g><path style="opacity:1" fill="#b3bfec" d="M 81.5,97.5 C 83.6182,102.483 85.9515,107.483 88.5,112.5C 84.1759,114.494 82.5092,117.827 83.5,122.5C 79.673,125.742 79.673,129.075 83.5,132.5C 76.5294,138.32 69.1961,143.653 61.5,148.5C 58.7055,146.181 56.8722,143.181 56,139.5C 54.9072,130.342 55.5739,121.342 58,112.5C 59.3999,109.098 61.5665,106.264 64.5,104C 69.9287,101.136 75.5954,98.9694 81.5,97.5 Z"/></g>
<g><path style="opacity:1" fill="#b3bfec" d="M 429.5,97.5 C 435.367,99.0982 441.033,101.265 446.5,104C 451.285,108.069 454.119,113.236 455,119.5C 455.667,126.167 455.667,132.833 455,139.5C 454.128,143.181 452.294,146.181 449.5,148.5C 441.804,143.653 434.471,138.32 427.5,132.5C 431.327,129.075 431.327,125.742 427.5,122.5C 428.491,117.827 426.824,114.494 422.5,112.5C 425.073,107.368 427.406,102.368 429.5,97.5 Z"/></g>
<g><path style="opacity:1" fill="#6d7aaa" d="M 81.5,97.5 C 83.2232,96.193 85.0565,96.193 87,97.5C 96.9838,118.149 111.817,134.316 131.5,146C 135.984,146.731 140.318,146.231 144.5,144.5C 138.015,149.47 131.348,154.303 124.5,159C 123.423,159.47 122.423,159.303 121.5,158.5C 120.944,154.77 119.278,151.603 116.5,149C 106.093,141.764 96.7599,133.264 88.5,123.5C 86.9291,122.691 85.2624,122.357 83.5,122.5C 82.5092,117.827 84.1759,114.494 88.5,112.5C 85.9515,107.483 83.6182,102.483 81.5,97.5 Z"/></g>
<g><path style="opacity:1" fill="#6d7aaa" d="M 429.5,97.5 C 427.406,102.368 425.073,107.368 422.5,112.5C 426.824,114.494 428.491,117.827 427.5,122.5C 425.738,122.357 424.071,122.691 422.5,123.5C 412.73,134.44 402.23,144.44 391,153.5C 389.991,155.025 389.491,156.692 389.5,158.5C 388.577,159.303 387.577,159.47 386.5,159C 379.742,154.568 373.742,150.068 368.5,145.5C 375.907,147.422 382.574,145.922 388.5,141C 403.992,128.347 416.325,113.181 425.5,95.5C 427.026,95.9943 428.359,96.661 429.5,97.5 Z"/></g>
<g><path style="opacity:1" fill="#6975a2" d="M 178.5,122.5 C 176.758,127.303 176.091,132.303 176.5,137.5C 176.141,139.371 175.141,140.871 173.5,142C 149.047,157.973 125.047,174.473 101.5,191.5C 97.7235,190.107 93.8901,188.773 90,187.5C 88.3566,188.315 86.8566,189.315 85.5,190.5C 84.391,190.443 83.391,190.11 82.5,189.5C 70.274,184.214 61.274,175.547 55.5,163.5C 55.6854,161.804 56.5187,160.471 58,159.5C 67.718,168.281 78.5513,175.448 90.5,181C 104.589,184.372 114.756,179.538 121,166.5C 121.497,163.854 121.664,161.187 121.5,158.5C 122.423,159.303 123.423,159.47 124.5,159C 131.348,154.303 138.015,149.47 144.5,144.5C 145.945,142.937 147.611,141.604 149.5,140.5C 149.435,140.938 149.601,141.272 150,141.5C 159.299,134.774 168.799,128.441 178.5,122.5 Z"/></g>
<g><path style="opacity:1" fill="#6975a2" d="M 332.5,122.5 C 342.201,128.441 351.701,134.774 361,141.5C 361.399,141.272 361.565,140.938 361.5,140.5C 364.047,141.934 366.381,143.6 368.5,145.5C 373.742,150.068 379.742,154.568 386.5,159C 387.577,159.47 388.577,159.303 389.5,158.5C 388.558,167.781 392.224,174.614 400.5,179C 407.643,183.237 414.977,183.571 422.5,180C 433.758,174.734 443.925,167.9 453,159.5C 454.481,160.471 455.315,161.804 455.5,163.5C 449.806,175.195 441.139,183.861 429.5,189.5C 428.167,189.833 426.833,190.167 425.5,190.5C 424.143,189.315 422.643,188.315 421,187.5C 417.101,188.744 413.267,190.077 409.5,191.5C 385.953,174.473 361.953,157.973 337.5,142C 335.859,140.871 334.859,139.371 334.5,137.5C 334.909,132.303 334.242,127.303 332.5,122.5 Z"/></g>
<g><path style="opacity:1" fill="#636fa1" d="M 176.5,137.5 C 179.796,146.304 185.796,152.804 194.5,157C 188.592,163.582 181.592,168.582 173.5,172C 171.963,173.707 170.296,175.207 168.5,176.5C 147.833,190.167 127.167,203.833 106.5,217.5C 109.387,211.866 110.22,205.866 109,199.5C 107.169,196.145 104.669,193.478 101.5,191.5C 125.047,174.473 149.047,157.973 173.5,142C 175.141,140.871 176.141,139.371 176.5,137.5 Z"/></g>
<g><path style="opacity:1" fill="#636fa1" d="M 334.5,137.5 C 334.859,139.371 335.859,140.871 337.5,142C 361.953,157.973 385.953,174.473 409.5,191.5C 400.141,197.963 398.141,206.296 403.5,216.5C 403.565,216.938 403.399,217.272 403,217.5C 383.035,203.442 362.869,189.775 342.5,176.5C 337.196,172.51 331.53,169.01 325.5,166C 322.65,163.318 319.984,160.484 317.5,157.5C 322.42,154.086 326.92,150.086 331,145.5C 332.478,142.842 333.645,140.175 334.5,137.5 Z"/></g>
<g><path style="opacity:1" fill="#acb8e6" d="M 83.5,132.5 C 92.4789,141.641 101.979,150.308 112,158.5C 113.202,162.793 112.035,166.293 108.5,169C 104.753,172.381 100.419,173.714 95.5,173C 82.1562,167.507 70.8229,159.34 61.5,148.5C 69.1961,143.653 76.5294,138.32 83.5,132.5 Z"/></g>
<g><path style="opacity:1" fill="#acb8e6" d="M 427.5,132.5 C 434.471,138.32 441.804,143.653 449.5,148.5C 439.04,161.554 425.706,169.721 409.5,173C 405.096,171.223 401.596,168.39 399,164.5C 398.333,162.5 398.333,160.5 399,158.5C 409.021,150.308 418.521,141.641 427.5,132.5 Z"/></g>
<g><path style="opacity:1" fill="#3a394c" d="M 301.5,470.5 C 300.308,466.698 298.975,463.031 297.5,459.5C 297.089,455.779 296.422,452.112 295.5,448.5C 293.769,439.254 292.769,429.921 292.5,420.5C 292.831,412.14 292.498,403.807 291.5,395.5C 290.893,395.624 290.56,395.957 290.5,396.5C 274.4,406.347 257.067,409.18 238.5,405C 231.663,403.247 225.33,400.414 219.5,396.5C 218.504,402.463 218.171,408.463 218.5,414.5C 217.865,423.547 216.865,432.547 215.5,441.5C 213.702,447.687 212.035,454.021 210.5,460.5C 208.991,463.678 207.658,467.011 206.5,470.5C 202.774,470.823 199.107,470.489 195.5,469.5C 207.391,442.986 211.225,415.32 207,386.5C 197.342,376.193 190.509,364.193 186.5,350.5C 168.247,344.359 157.747,331.692 155,312.5C 151.046,295.731 157.546,286.064 174.5,283.5C 172.295,260.243 175.128,237.577 183,215.5C 200.564,178.63 229.731,163.13 270.5,169C 305.682,177.519 326.515,199.686 333,235.5C 335.25,251.409 336.084,267.409 335.5,283.5C 347.681,284.68 354.681,291.347 356.5,303.5C 355.433,319.565 349.099,333.065 337.5,344C 333.075,346.644 328.408,348.811 323.5,350.5C 319.491,364.193 312.658,376.193 303,386.5C 299.62,415.159 302.454,443.159 311.5,470.5C 308.167,470.5 304.833,470.5 301.5,470.5 Z"/></g>
<g><path style="opacity:1" fill="#636e9b" d="M 168.5,176.5 C 167.68,178.14 166.847,179.807 166,181.5C 166.037,193.227 162.204,203.394 154.5,212C 151.056,214.807 147.223,216.973 143,218.5C 137.626,213.972 131.459,212.472 124.5,214C 119.379,217.453 114.546,221.286 110,225.5C 108.991,227.025 108.491,228.692 108.5,230.5C 99.8171,231.579 91.1504,231.579 82.5,230.5C 82.5,228.5 82.5,226.5 82.5,224.5C 91.4151,224.908 99.4151,222.575 106.5,217.5C 127.167,203.833 147.833,190.167 168.5,176.5 Z"/></g>
<g><path style="opacity:1" fill="#636e9b" d="M 342.5,176.5 C 362.869,189.775 383.035,203.442 403,217.5C 403.399,217.272 403.565,216.938 403.5,216.5C 410.605,222.665 418.939,225.332 428.5,224.5C 428.5,226.5 428.5,228.5 428.5,230.5C 419.5,231.833 410.5,231.833 401.5,230.5C 401.66,228.801 401.494,227.134 401,225.5C 396.833,222 392.667,218.5 388.5,215C 383.924,213.524 379.257,213.19 374.5,214C 372.277,215.733 369.944,217.233 367.5,218.5C 352.113,211.22 344.613,198.886 345,181.5C 344.153,179.807 343.32,178.14 342.5,176.5 Z"/></g>
<g><path style="opacity:1" fill="#adb9e6" d="M 55.5,163.5 C 61.274,175.547 70.274,184.214 82.5,189.5C 82.5858,190.496 82.2524,191.329 81.5,192C 74.8333,196.667 68.1667,201.333 61.5,206C 60.7476,206.671 60.4142,207.504 60.5,208.5C 48.8803,200.411 45.0469,189.411 49,175.5C 50.4182,170.99 52.5849,166.99 55.5,163.5 Z"/></g>
<g><path style="opacity:1" fill="#f7ccc6" d="M 300.5,194.5 C 270.167,194.5 239.833,194.5 209.5,194.5C 233.319,175.416 259.319,172.25 287.5,185C 292.256,187.699 296.589,190.866 300.5,194.5 Z"/></g>
<g><path style="opacity:1" fill="#adb9e6" d="M 455.5,163.5 C 465.006,175.915 465.84,188.915 458,202.5C 455.914,205.094 453.414,207.094 450.5,208.5C 450.586,207.504 450.252,206.671 449.5,206C 442.833,201.333 436.167,196.667 429.5,192C 428.402,191.23 428.402,190.397 429.5,189.5C 441.139,183.861 449.806,175.195 455.5,163.5 Z"/></g>
<g><path style="opacity:1" fill="#a6b2e3" d="M 82.5,189.5 C 83.391,190.11 84.391,190.443 85.5,190.5C 85.2471,192.827 85.9137,194.827 87.5,196.5C 92.1603,197.581 96.327,199.581 100,202.5C 101.81,210.363 98.6437,214.529 90.5,215C 79.6069,216.456 69.6069,214.29 60.5,208.5C 60.4142,207.504 60.7476,206.671 61.5,206C 68.1667,201.333 74.8333,196.667 81.5,192C 82.2524,191.329 82.5858,190.496 82.5,189.5 Z"/></g>
<g><path style="opacity:1" fill="#a6b2e3" d="M 429.5,189.5 C 428.402,190.397 428.402,191.23 429.5,192C 436.167,196.667 442.833,201.333 449.5,206C 450.252,206.671 450.586,207.504 450.5,208.5C 438.943,215.645 426.61,217.145 413.5,213C 409.221,207.967 409.554,203.3 414.5,199C 418.02,198.327 421.353,197.16 424.5,195.5C 425.309,193.929 425.643,192.262 425.5,190.5C 426.833,190.167 428.167,189.833 429.5,189.5 Z"/></g>
<g><path style="opacity:1" fill="#f9cdc0" d="M 209.5,194.5 C 239.833,194.5 270.167,194.5 300.5,194.5C 304.212,197.211 307.212,200.544 309.5,204.5C 291.679,205.833 273.512,206.5 255,206.5C 236.664,206.5 218.497,206.167 200.5,205.5C 202.785,201.273 205.785,197.607 209.5,194.5 Z"/></g>
<g><path style="opacity:1" fill="#f9c7c0" d="M 309.5,204.5 C 315.212,212.269 319.212,220.936 321.5,230.5C 277.167,230.5 232.833,230.5 188.5,230.5C 190.655,221.193 194.655,212.86 200.5,205.5C 218.497,206.167 236.664,206.5 255,206.5C 273.512,206.5 291.679,205.833 309.5,204.5 Z"/></g>
<g><path style="opacity:1" fill="#a0adde" d="M 82.5,230.5 C 91.1504,231.579 99.8171,231.579 108.5,230.5C 109.627,231.122 110.627,231.955 111.5,233C 112.833,233.667 114.167,233.667 115.5,233C 119.5,229.667 123.5,226.333 127.5,223C 129.971,222.294 132.305,222.627 134.5,224C 137.06,227.051 139.393,230.218 141.5,233.5C 137.457,240.731 132.124,246.898 125.5,252C 120.666,256.001 115.166,258.501 109,259.5C 100.302,257.984 92.6357,254.318 86,248.5C 82.8637,242.965 81.697,236.965 82.5,230.5 Z"/></g>
<g><path style="opacity:1" fill="#a0adde" d="M 401.5,230.5 C 410.5,231.833 419.5,231.833 428.5,230.5C 429.303,236.965 428.136,242.965 425,248.5C 417.146,255.561 407.979,259.061 397.5,259C 389.877,255.273 383.044,250.439 377,244.5C 373.879,241.22 371.379,237.553 369.5,233.5C 371.439,230.385 373.606,227.385 376,224.5C 378.153,222.556 380.653,222.056 383.5,223C 387.5,226.333 391.5,229.667 395.5,233C 398.294,233.972 400.294,233.139 401.5,230.5 Z"/></g>
<g><path style="opacity:1" fill="#f9c7ba" d="M 188.5,230.5 C 232.833,230.5 277.167,230.5 321.5,230.5C 322.913,233.219 323.58,236.219 323.5,239.5C 277.833,240.833 232.167,240.833 186.5,239.5C 186.7,236.37 187.366,233.37 188.5,230.5 Z"/></g>
<g><path style="opacity:1" fill="#f8beb8" d="M 186.5,239.5 C 232.167,240.833 277.833,240.833 323.5,239.5C 325.508,247.403 326.508,255.57 326.5,264C 325.775,273.512 325.275,283.012 325,292.5C 326.062,293.899 327.395,294.899 329,295.5C 332.314,293.693 335.814,293.193 339.5,294C 341.324,294.66 342.657,295.827 343.5,297.5C 331.678,298.495 319.678,298.828 307.5,298.5C 308.618,287.581 304.951,278.748 296.5,272C 292.368,270.1 288.034,269.267 283.5,269.5C 264.167,269.5 244.833,269.5 225.5,269.5C 213.608,269.878 206.108,275.878 203,287.5C 202.502,290.817 202.335,294.15 202.5,297.5C 190.402,298.82 178.402,298.82 166.5,297.5C 167.343,295.827 168.676,294.66 170.5,294C 174.186,293.193 177.686,293.693 181,295.5C 182.605,294.899 183.938,293.899 185,292.5C 184.492,276.851 184.492,261.184 185,245.5C 185.191,243.292 185.691,241.292 186.5,239.5 Z"/></g>
<g><path style="opacity:1" fill="#f8b9b3" d="M 225.5,269.5 C 244.833,269.5 264.167,269.5 283.5,269.5C 272.91,274.438 266.91,282.771 265.5,294.5C 264.566,295.568 264.232,296.901 264.5,298.5C 258.167,298.5 251.833,298.5 245.5,298.5C 245.737,297.209 245.404,296.209 244.5,295.5C 243.469,282.822 237.136,274.156 225.5,269.5 Z"/></g>
<g><path style="opacity:1" fill="#3c3b4d" d="M 225.5,269.5 C 237.136,274.156 243.469,282.822 244.5,295.5C 245.386,305.678 242.053,314.178 234.5,321C 220.629,326.653 210.796,322.487 205,308.5C 203.438,304.986 202.605,301.319 202.5,297.5C 202.335,294.15 202.502,290.817 203,287.5C 206.108,275.878 213.608,269.878 225.5,269.5 Z"/></g>
<g><path style="opacity:1" fill="#3c3b4d" d="M 283.5,269.5 C 288.034,269.267 292.368,270.1 296.5,272C 304.951,278.748 308.618,287.581 307.5,298.5C 306.516,307.636 302.516,315.136 295.5,321C 281.876,327.269 272.376,323.435 267,309.5C 265.675,304.599 265.175,299.599 265.5,294.5C 266.91,282.771 272.91,274.438 283.5,269.5 Z"/></g>
<g><path style="opacity:1" fill="#f6f6f6" d="M 218.5,279.5 C 227.3,279.451 232.8,283.785 235,292.5C 236.842,300.968 234.675,308.135 228.5,314C 220.03,314.888 214.863,311.054 213,302.5C 210.029,293.599 211.862,285.933 218.5,279.5 Z"/></g>
<g><path style="opacity:1" fill="#f6f6f6" d="M 283.5,279.5 C 293.597,279.432 298.597,284.599 298.5,295C 298.148,302.066 295.481,308.066 290.5,313C 284.956,315.781 280.456,314.614 277,309.5C 272.064,297.87 274.23,287.87 283.5,279.5 Z"/></g>
<g><path style="opacity:1" fill="#f7b3ad" d="M 265.5,294.5 C 265.175,299.599 265.675,304.599 267,309.5C 272.376,323.435 281.876,327.269 295.5,321C 302.516,315.136 306.516,307.636 307.5,298.5C 319.678,298.828 331.678,298.495 343.5,297.5C 346.303,300.204 347.137,303.537 346,307.5C 344.523,315.266 341.856,322.599 338,329.5C 334.942,333.062 331.442,336.062 327.5,338.5C 327.167,337.5 326.833,336.5 326.5,335.5C 327.555,330.853 328.055,326.186 328,321.5C 321.82,318.135 318.653,320.135 318.5,327.5C 276.167,327.5 233.833,327.5 191.5,327.5C 191.347,320.135 188.18,318.135 182,321.5C 181.773,326.211 182.273,330.878 183.5,335.5C 183.167,336.5 182.833,337.5 182.5,338.5C 171.758,331.035 165.592,320.702 164,307.5C 162.863,303.537 163.697,300.204 166.5,297.5C 178.402,298.82 190.402,298.82 202.5,297.5C 202.605,301.319 203.438,304.986 205,308.5C 210.796,322.487 220.629,326.653 234.5,321C 242.053,314.178 245.386,305.678 244.5,295.5C 245.404,296.209 245.737,297.209 245.5,298.5C 251.833,298.5 258.167,298.5 264.5,298.5C 264.232,296.901 264.566,295.568 265.5,294.5 Z"/></g>
<g><path style="opacity:1" fill="#f9aeae" d="M 191.5,327.5 C 233.833,327.5 276.167,327.5 318.5,327.5C 317.532,333.034 316.198,338.368 314.5,343.5C 274.833,342.167 235.167,342.167 195.5,343.5C 193.294,338.497 191.961,333.164 191.5,327.5 Z"/></g>
<g><path style="opacity:1" fill="#f9aea7" d="M 314.5,343.5 C 313.095,349.715 311.095,355.715 308.5,361.5C 272.833,361.5 237.167,361.5 201.5,361.5C 198.905,355.715 196.905,349.715 195.5,343.5C 235.167,342.167 274.833,342.167 314.5,343.5 Z"/></g>
<g><path style="opacity:1" fill="#f9a7a7" d="M 201.5,361.5 C 237.167,361.5 272.833,361.5 308.5,361.5C 305.245,367.745 301.245,373.411 296.5,378.5C 268.833,377.167 241.167,377.167 213.5,378.5C 208.755,373.411 204.755,367.745 201.5,361.5 Z"/></g>
<g><path style="opacity:1" fill="#f8a5a1" d="M 296.5,378.5 C 279.269,396.786 258.602,401.952 234.5,394C 226.191,390.513 219.191,385.346 213.5,378.5C 241.167,377.167 268.833,377.167 296.5,378.5 Z"/></g>
<g><path style="opacity:1" fill="#e46f6e" d="M 290.5,396.5 C 291.483,400.298 291.817,404.298 291.5,408.5C 274.591,413.859 257.757,419.525 241,425.5C 239.97,425.836 239.47,426.503 239.5,427.5C 232.252,423.59 225.252,419.256 218.5,414.5C 218.171,408.463 218.504,402.463 219.5,396.5C 225.33,400.414 231.663,403.247 238.5,405C 257.067,409.18 274.4,406.347 290.5,396.5 Z"/></g>
<g><path style="opacity:1" fill="#774d57" d="M 290.5,396.5 C 290.56,395.957 290.893,395.624 291.5,395.5C 292.498,403.807 292.831,412.14 292.5,420.5C 291.517,416.702 291.183,412.702 291.5,408.5C 291.817,404.298 291.483,400.298 290.5,396.5 Z"/></g>
<g><path style="opacity:1" fill="#e16968" d="M 291.5,408.5 C 291.183,412.702 291.517,416.702 292.5,420.5C 292.769,429.921 293.769,439.254 295.5,448.5C 288.723,447.26 282.056,445.593 275.5,443.5C 262.839,439.508 250.839,434.175 239.5,427.5C 239.47,426.503 239.97,425.836 241,425.5C 257.757,419.525 274.591,413.859 291.5,408.5 Z"/></g>
<g><path style="opacity:1" fill="#f9a7a3" d="M 218.5,414.5 C 225.252,419.256 232.252,423.59 239.5,427.5C 250.839,434.175 262.839,439.508 275.5,443.5C 255.674,444.497 235.674,444.83 215.5,444.5C 215.5,443.5 215.5,442.5 215.5,441.5C 216.865,432.547 217.865,423.547 218.5,414.5 Z"/></g>
<g><path style="opacity:1" fill="#f9a1a0" d="M 215.5,441.5 C 215.5,442.5 215.5,443.5 215.5,444.5C 235.674,444.83 255.674,444.497 275.5,443.5C 282.056,445.593 288.723,447.26 295.5,448.5C 296.422,452.112 297.089,455.779 297.5,459.5C 297.5,460.5 297.5,461.5 297.5,462.5C 268.147,463.159 239.147,462.492 210.5,460.5C 212.035,454.021 213.702,447.687 215.5,441.5 Z"/></g>
<g><path style="opacity:1" fill="#f99b9b" d="M 297.5,459.5 C 298.975,463.031 300.308,466.698 301.5,470.5C 269.833,470.5 238.167,470.5 206.5,470.5C 207.658,467.011 208.991,463.678 210.5,460.5C 239.147,462.492 268.147,463.159 297.5,462.5C 297.5,461.5 297.5,460.5 297.5,459.5 Z"/></g>
</svg>
