<?xml version="1.0" encoding="UTF-8"?>
<!DOCTYPE svg PUBLIC "-//W3C//DTD SVG 1.1//EN" "http://www.w3.org/Graphics/SVG/1.1/DTD/svg11.dtd">
<svg xmlns="http://www.w3.org/2000/svg" version="1.1" width="512px" height="512px" style="shape-rendering:geometricPrecision; text-rendering:geometricPrecision; image-rendering:optimizeQuality; fill-rule:evenodd; clip-rule:evenodd" xmlns:xlink="http://www.w3.org/1999/xlink">
<g><path style="opacity:1" fill="#717daf" d="M 456.5,188.5 C 445.833,182.5 435.167,176.5 424.5,170.5C 420.625,160.411 416.458,150.411 412,140.5C 403.922,127.886 392.422,123.052 377.5,126C 372.652,128.256 367.985,130.756 363.5,133.5C 352.4,126.108 341.067,118.941 329.5,112C 328.552,111.517 327.552,111.351 326.5,111.5C 367.933,86.1191 411.6,64.9524 457.5,48C 463,46.8333 465.167,49 464,54.5C 455.034,60.4604 448.701,68.4604 445,78.5C 444.306,81.4682 443.806,84.4682 443.5,87.5C 448.121,104.986 451.954,122.653 455,140.5C 456.324,156.469 456.824,172.469 456.5,188.5 Z"/></g>
<g><path style="opacity:1" fill="#f9f9f9" d="M 424.5,170.5 C 431.744,192.222 435.577,214.556 436,237.5C 437.312,240.238 439.478,241.572 442.5,241.5C 438.336,276.83 423.336,306.497 397.5,330.5C 395.074,328.782 392.407,328.282 389.5,329C 347.383,358.208 300.716,375.041 249.5,379.5C 214.197,380.757 181.197,372.757 150.5,355.5C 155.512,346.806 160.512,338.139 165.5,329.5C 170.402,322.709 175.068,315.709 179.5,308.5C 189.588,294.663 199.921,280.996 210.5,267.5C 212.463,266.04 214.296,264.373 216,262.5C 222.286,274.787 230.786,285.287 241.5,294C 244.12,296.271 247.12,296.938 250.5,296C 255.306,286.364 262.306,278.864 271.5,273.5C 296.101,265.978 313.601,273.978 324,297.5C 324.804,298.804 325.971,299.471 327.5,299.5C 338.347,294.985 346.68,287.651 352.5,277.5C 361.202,266.08 366.202,253.08 367.5,238.5C 368.374,228.143 367.04,218.143 363.5,208.5C 356.168,188.327 343.168,172.827 324.5,162C 337.402,152.25 350.402,142.75 363.5,133.5C 367.985,130.756 372.652,128.256 377.5,126C 392.422,123.052 403.922,127.886 412,140.5C 416.458,150.411 420.625,160.411 424.5,170.5 Z"/></g>
<g><path style="opacity:1" fill="#6c76a8" d="M 326.5,111.5 C 327.552,111.351 328.552,111.517 329.5,112C 341.067,118.941 352.4,126.108 363.5,133.5C 350.402,142.75 337.402,152.25 324.5,162C 343.168,172.827 356.168,188.327 363.5,208.5C 331.803,188.985 299.803,169.985 267.5,151.5C 286.067,136.609 305.734,123.276 326.5,111.5 Z"/></g>
<g><path style="opacity:1" fill="#6a70a8" d="M 267.5,151.5 C 299.803,169.985 331.803,188.985 363.5,208.5C 367.04,218.143 368.374,228.143 367.5,238.5C 359.258,234.26 351.258,229.593 343.5,224.5C 340.011,207.573 329.678,200.906 312.5,204.5C 290.542,192.856 269.209,180.189 248.5,166.5C 254.279,160.78 260.613,155.78 267.5,151.5 Z"/></g>
<g><path style="opacity:1" fill="#6670a2" d="M 248.5,166.5 C 269.209,180.189 290.542,192.856 312.5,204.5C 298.718,213.071 295.885,224.405 304,238.5C 312.968,247.401 323.135,248.901 334.5,243C 340.458,238.302 343.458,232.136 343.5,224.5C 351.258,229.593 359.258,234.26 367.5,238.5C 366.202,253.08 361.202,266.08 352.5,277.5C 306.667,250.085 261,222.418 215.5,194.5C 225.907,184.423 236.907,175.089 248.5,166.5 Z"/></g>
<g><path style="opacity:1" fill="#6f76aa" d="M 424.5,170.5 C 435.167,176.5 445.833,182.5 456.5,188.5C 454.692,205.374 451.526,222.041 447,238.5C 445.871,240.141 444.371,241.141 442.5,241.5C 439.478,241.572 437.312,240.238 436,237.5C 435.577,214.556 431.744,192.222 424.5,170.5 Z"/></g>
<g><path style="opacity:1" fill="#646aa2" d="M 215.5,194.5 C 261,222.418 306.667,250.085 352.5,277.5C 346.68,287.651 338.347,294.985 327.5,299.5C 325.971,299.471 324.804,298.804 324,297.5C 313.601,273.978 296.101,265.978 271.5,273.5C 243.869,256.012 215.869,239.012 187.5,222.5C 196.5,212.833 205.833,203.5 215.5,194.5 Z"/></g>
<g><path style="opacity:1" fill="#f8f8f8" d="M 343.5,224.5 C 343.458,232.136 340.458,238.302 334.5,243C 323.135,248.901 312.968,247.401 304,238.5C 295.885,224.405 298.718,213.071 312.5,204.5C 329.678,200.906 340.011,207.573 343.5,224.5 Z"/></g>
<g><path style="opacity:1" fill="#646a9c" d="M 187.5,222.5 C 215.869,239.012 243.869,256.012 271.5,273.5C 262.306,278.864 255.306,286.364 250.5,296C 247.12,296.938 244.12,296.271 241.5,294C 230.786,285.287 222.286,274.787 216,262.5C 214.296,264.373 212.463,266.04 210.5,267.5C 196.547,259.529 182.881,251.196 169.5,242.5C 175.034,235.447 181.034,228.78 187.5,222.5 Z"/></g>
<g><path style="opacity:1" fill="#5e649c" d="M 169.5,242.5 C 182.881,251.196 196.547,259.529 210.5,267.5C 199.921,280.996 189.588,294.663 179.5,308.5C 166.272,301.547 153.272,294.047 140.5,286C 138.975,284.991 137.308,284.491 135.5,284.5C 145.726,269.607 157.06,255.607 169.5,242.5 Z"/></g>
<g><path style="opacity:1" fill="#5d6496" d="M 135.5,284.5 C 137.308,284.491 138.975,284.991 140.5,286C 153.272,294.047 166.272,301.547 179.5,308.5C 175.068,315.709 170.402,322.709 165.5,329.5C 150.998,320.75 136.665,311.75 122.5,302.5C 126.356,296.109 130.689,290.109 135.5,284.5 Z"/></g>
<g><path style="opacity:1" fill="#585d96" d="M 122.5,302.5 C 136.665,311.75 150.998,320.75 165.5,329.5C 160.512,338.139 155.512,346.806 150.5,355.5C 181.197,372.757 214.197,380.757 249.5,379.5C 268.167,391.167 286.833,402.833 305.5,414.5C 283.478,425.006 260.145,430.839 235.5,432C 226.089,432.805 216.756,432.638 207.5,431.5C 168.12,406.805 128.453,382.471 88.5,358.5C 98.6496,339.039 109.983,320.372 122.5,302.5 Z"/></g>
<g><path style="opacity:1" fill="#5f659b" d="M 397.5,330.5 C 398.792,333.696 398.292,336.696 396,339.5C 377.71,364.125 355.876,384.959 330.5,402C 322.691,407.238 314.358,411.404 305.5,414.5C 286.833,402.833 268.167,391.167 249.5,379.5C 300.716,375.041 347.383,358.208 389.5,329C 392.407,328.282 395.074,328.782 397.5,330.5 Z"/></g>
<g><path style="opacity:1" fill="#55568f" d="M 88.5,358.5 C 128.453,382.471 168.12,406.805 207.5,431.5C 182.81,430.161 158.81,425.328 135.5,417C 118.929,413.714 103.596,416.714 89.5,426C 77.1918,437.976 65.1918,450.309 53.5,463C 47.4983,463.993 45.3317,461.493 47,455.5C 57.5794,421.685 71.4127,389.352 88.5,358.5 Z"/></g>
</svg>
