<?xml version="1.0" encoding="UTF-8"?>
<!DOCTYPE svg PUBLIC "-//W3C//DTD SVG 1.1//EN" "http://www.w3.org/Graphics/SVG/1.1/DTD/svg11.dtd">
<svg xmlns="http://www.w3.org/2000/svg" version="1.1" width="512px" height="512px" style="shape-rendering:geometricPrecision; text-rendering:geometricPrecision; image-rendering:optimizeQuality; fill-rule:evenodd; clip-rule:evenodd" xmlns:xlink="http://www.w3.org/1999/xlink">
<g><path style="opacity:1" fill="#39394c" d="M 426.5,274.5 C 425.312,273.636 424.145,272.636 423,271.5C 427.043,225.874 419.043,182.541 399,141.5C 386.921,127.553 373.421,126.053 358.5,137C 347.361,144.639 336.361,152.473 325.5,160.5C 358.692,184.906 370.525,217.239 361,257.5C 353.809,276.863 341.309,291.863 323.5,302.5C 323.08,324.206 312.746,338.706 292.5,346C 265.291,350.782 247.791,339.949 240,313.5C 239.667,309.167 239.333,304.833 239,300.5C 227.219,292.221 217.719,281.887 210.5,269.5C 189.201,294.632 170.035,321.299 153,349.5C 152.493,350.996 152.993,352.163 154.5,353C 191.467,370.166 230.133,375.499 270.5,369C 319.27,358.778 362.937,338.112 401.5,307C 404.078,305.187 406.745,305.02 409.5,306.5C 410.511,308.402 410.678,310.402 410,312.5C 388.388,349.445 359.888,379.945 324.5,404C 278.135,431.117 228.468,439.784 175.5,430C 156.442,425.652 137.442,421.152 118.5,416.5C 106.688,417.27 96.0215,421.103 86.5,428C 72.5,442.667 58.5,457.333 44.5,472C 39.6816,474.746 36.3483,473.579 34.5,468.5C 53.2892,402.596 82.4559,341.929 122,286.5C 183.043,203.446 258.876,137.612 349.5,89C 387.436,68.6971 426.769,51.6971 467.5,38C 471.819,36.5405 474.819,37.8738 476.5,42C 476.138,43.2247 475.638,44.3914 475,45.5C 466,53.1667 457,60.8333 448,68.5C 443.249,74.3375 440.415,81.0042 439.5,88.5C 459.881,150.937 456.881,212.27 430.5,272.5C 429.234,273.362 427.901,274.029 426.5,274.5 Z"/></g>
<g><path style="opacity:1" fill="#838ec0" d="M 442.5,180.5 C 442.813,177.753 442.48,175.086 441.5,172.5C 434.035,168.198 426.701,163.698 419.5,159C 418.563,158.308 417.897,158.475 417.5,159.5C 413.971,151.439 410.137,143.439 406,135.5C 393.881,120.849 379.048,117.182 361.5,124.5C 353.212,118.21 344.212,113.21 334.5,109.5C 370.092,88.249 407.425,70.749 446.5,57C 433.419,67.3491 428.253,80.8491 431,97.5C 440.715,124.531 444.549,152.198 442.5,180.5 Z"/></g>
<g><path style="opacity:1" fill="#7e88ba" d="M 334.5,109.5 C 344.212,113.21 353.212,118.21 361.5,124.5C 341.465,137.183 322.131,150.85 303.5,165.5C 303.586,164.504 303.252,163.671 302.5,163C 293.64,158.074 284.974,152.907 276.5,147.5C 294.771,133.355 314.104,120.688 334.5,109.5 Z"/></g>
<g><path style="opacity:1" fill="#f8f8f8" d="M 426.5,274.5 C 421.885,285.73 416.218,296.397 409.5,306.5C 406.745,305.02 404.078,305.187 401.5,307C 362.937,338.112 319.27,358.778 270.5,369C 230.133,375.499 191.467,370.166 154.5,353C 152.993,352.163 152.493,350.996 153,349.5C 170.035,321.299 189.201,294.632 210.5,269.5C 217.719,281.887 227.219,292.221 239,300.5C 239.333,304.833 239.667,309.167 240,313.5C 247.791,339.949 265.291,350.782 292.5,346C 312.746,338.706 323.08,324.206 323.5,302.5C 341.309,291.863 353.809,276.863 361,257.5C 370.525,217.239 358.692,184.906 325.5,160.5C 336.361,152.473 347.361,144.639 358.5,137C 373.421,126.053 386.921,127.553 399,141.5C 419.043,182.541 427.043,225.874 423,271.5C 424.145,272.636 425.312,273.636 426.5,274.5 Z"/></g>
<g><path style="opacity:1" fill="#7c82ba" d="M 276.5,147.5 C 284.974,152.907 293.64,158.074 302.5,163C 303.252,163.671 303.586,164.504 303.5,165.5C 298.191,169.803 292.858,174.137 287.5,178.5C 277.322,173.248 267.655,167.248 258.5,160.5C 264.138,155.679 270.138,151.346 276.5,147.5 Z"/></g>
<g><path style="opacity:1" fill="#7b82b4" d="M 258.5,160.5 C 267.655,167.248 277.322,173.248 287.5,178.5C 276.207,188.49 264.874,198.49 253.5,208.5C 243.303,202.236 232.97,196.236 222.5,190.5C 234.091,180.034 246.091,170.034 258.5,160.5 Z"/></g>
<g><path style="opacity:1" fill="#7c82b9" d="M 353.5,216.5 C 353.631,217.376 353.298,218.043 352.5,218.5C 346.943,214.891 341.276,211.558 335.5,208.5C 331.281,202.884 325.614,199.551 318.5,198.5C 311.167,193.5 303.833,188.5 296.5,183.5C 302.644,178.197 308.978,173.031 315.5,168C 323.201,169.986 329.701,174.153 335,180.5C 344.075,190.983 350.242,202.983 353.5,216.5 Z"/></g>
<g><path style="opacity:1" fill="#8088ba" d="M 442.5,180.5 C 442.168,199.657 439.002,218.324 433,236.5C 431.225,210.124 426.058,184.457 417.5,159.5C 417.897,158.475 418.563,158.308 419.5,159C 426.701,163.698 434.035,168.198 441.5,172.5C 442.48,175.086 442.813,177.753 442.5,180.5 Z"/></g>
<g><path style="opacity:1" fill="#7b82b3" d="M 296.5,183.5 C 303.833,188.5 311.167,193.5 318.5,198.5C 303.568,197.555 293.735,204.222 289,218.5C 288.501,222.152 288.335,225.818 288.5,229.5C 279.621,224.901 271.288,219.568 263.5,213.5C 273.876,202.79 284.876,192.79 296.5,183.5 Z"/></g>
<g><path style="opacity:1" fill="#757cb4" d="M 222.5,190.5 C 232.97,196.236 243.303,202.236 253.5,208.5C 245.139,217.193 236.806,225.86 228.5,234.5C 218.982,228.495 209.315,222.662 199.5,217C 198.619,216.292 197.953,215.458 197.5,214.5C 205.2,205.799 213.533,197.799 222.5,190.5 Z"/></g>
<g><path style="opacity:1" fill="#3a3a4d" d="M 318.5,198.5 C 325.614,199.551 331.281,202.884 335.5,208.5C 340.699,216.518 341.866,225.184 339,234.5C 334.843,242.811 328.343,248.144 319.5,250.5C 303.626,251.727 293.293,244.727 288.5,229.5C 288.335,225.818 288.501,222.152 289,218.5C 293.735,204.222 303.568,197.555 318.5,198.5 Z"/></g>
<g><path style="opacity:1" fill="#f6f6f6" d="M 310.5,207.5 C 325.315,206.814 332.148,213.814 331,228.5C 326.146,240.568 317.646,244.068 305.5,239C 293.634,226.22 295.301,215.72 310.5,207.5 Z"/></g>
<g><path style="opacity:1" fill="#7a81b3" d="M 335.5,208.5 C 341.276,211.558 346.943,214.891 352.5,218.5C 353.298,218.043 353.631,217.376 353.5,216.5C 357.558,233.475 355.558,249.809 347.5,265.5C 340.693,261.595 334.027,257.428 327.5,253C 325.091,251.293 322.425,250.46 319.5,250.5C 328.343,248.144 334.843,242.811 339,234.5C 341.866,225.184 340.699,216.518 335.5,208.5 Z"/></g>
<g><path style="opacity:1" fill="#757cb4" d="M 263.5,213.5 C 271.288,219.568 279.621,224.901 288.5,229.5C 293.293,244.727 303.626,251.727 319.5,250.5C 322.425,250.46 325.091,251.293 327.5,253C 334.027,257.428 340.693,261.595 347.5,265.5C 340.588,276.58 331.755,285.914 321,293.5C 313.191,274.512 299.024,264.846 278.5,264.5C 264.699,256.431 251.033,248.097 237.5,239.5C 245.167,229.833 253.833,221.167 263.5,213.5 Z"/></g>
<g><path style="opacity:1" fill="#757cae" d="M 197.5,214.5 C 197.953,215.458 198.619,216.292 199.5,217C 209.315,222.662 218.982,228.495 228.5,234.5C 219.471,244.526 210.471,254.526 201.5,264.5C 190.666,257.582 179.666,250.915 168.5,244.5C 177.467,233.866 187.134,223.866 197.5,214.5 Z"/></g>
<g><path style="opacity:1" fill="#757cae" d="M 237.5,239.5 C 251.033,248.097 264.699,256.431 278.5,264.5C 262.084,266.382 250.084,274.715 242.5,289.5C 241.998,290.521 241.332,290.688 240.5,290C 230.234,282.74 222.567,273.407 217.5,262C 218.651,260.177 219.818,258.344 221,256.5C 226.056,250.374 231.556,244.707 237.5,239.5 Z"/></g>
<g><path style="opacity:1" fill="#6f75ae" d="M 168.5,244.5 C 179.666,250.915 190.666,257.582 201.5,264.5C 191.407,278.355 181.074,292.021 170.5,305.5C 159.131,298.486 147.797,291.486 136.5,284.5C 146.686,270.802 157.353,257.468 168.5,244.5 Z"/></g>
<g><path style="opacity:1" fill="#f8f8f8" d="M 274.5,273.5 C 294.023,272.34 306.856,281.007 313,299.5C 314.743,320.195 305.576,333.028 285.5,338C 266.19,339.088 254.023,330.255 249,311.5C 247.782,292.261 256.282,279.594 274.5,273.5 Z"/></g>
<g><path style="opacity:1" fill="#6f75a7" d="M 136.5,284.5 C 147.797,291.486 159.131,298.486 170.5,305.5C 168.646,309.221 166.313,312.554 163.5,315.5C 151.489,309.499 140.155,302.499 129.5,294.5C 131.344,290.808 133.677,287.475 136.5,284.5 Z"/></g>
<g><path style="opacity:1" fill="#6a6fa7" d="M 129.5,294.5 C 140.155,302.499 151.489,309.499 163.5,315.5C 157.011,325.805 150.511,336.139 144,346.5C 141.588,349.797 141.088,353.297 142.5,357C 181.994,378.665 223.994,385.831 268.5,378.5C 280.46,387.488 293.127,395.488 306.5,402.5C 278.279,416.902 248.279,423.902 216.5,423.5C 177.397,399.441 138.063,375.608 98.5,352C 96.5614,351.092 95.5614,349.592 95.5,347.5C 105.589,328.976 116.923,311.31 129.5,294.5 Z"/></g>
<g><path style="opacity:1" fill="#6869a1" d="M 95.5,347.5 C 95.5614,349.592 96.5614,351.092 98.5,352C 138.063,375.608 177.397,399.441 216.5,423.5C 186.64,423.161 157.64,417.995 129.5,408C 111.553,405.522 95.2198,409.522 80.5,420C 69.9699,430.196 59.8032,440.696 50,451.5C 61.0642,415.038 76.2309,380.372 95.5,347.5 Z"/></g>
<g><path style="opacity:1" fill="#6f75ac" d="M 306.5,402.5 C 293.127,395.488 280.46,387.488 268.5,378.5C 311.447,371.106 350.613,354.773 386,329.5C 371.442,352.401 352.942,371.901 330.5,388C 322.638,393.096 314.638,397.929 306.5,402.5 Z"/></g>
</svg>
