<?xml version="1.0" encoding="UTF-8"?>
<!DOCTYPE svg PUBLIC "-//W3C//DTD SVG 1.1//EN" "http://www.w3.org/Graphics/SVG/1.1/DTD/svg11.dtd">
<svg xmlns="http://www.w3.org/2000/svg" version="1.1" width="512px" height="512px" style="shape-rendering:geometricPrecision; text-rendering:geometricPrecision; image-rendering:optimizeQuality; fill-rule:evenodd; clip-rule:evenodd" xmlns:xlink="http://www.w3.org/1999/xlink">
<g><path style="opacity:1" fill="#3a394c" d="M 333.5,81.5 C 345.505,81.3335 357.505,81.5001 369.5,82C 372.623,82.2065 375.623,82.8732 378.5,84C 410.757,128.316 438.591,175.482 462,225.5C 462.944,228.347 462.444,230.847 460.5,233C 456.558,233.993 452.558,234.66 448.5,235C 456.01,246.351 463.01,258.018 469.5,270C 466.399,280.637 462.899,291.137 459,301.5C 420.728,307.142 385.562,320.642 353.5,342C 345.167,349 336.833,356 328.5,363C 263.595,356.611 210.928,378.611 170.5,429C 168.167,429.667 165.833,429.667 163.5,429C 153.622,423.894 143.622,419.061 133.5,414.5C 115.31,387.469 99.1432,359.135 85,329.5C 69.5368,296.408 55.0368,262.908 41.5,229C 41.9903,227.018 42.9903,225.351 44.5,224C 52.3339,218.915 60.3339,214.082 68.5,209.5C 66,204.5 63.5,199.5 61,194.5C 59.8495,192.246 59.5162,189.913 60,187.5C 99.7568,154.249 145.59,139.415 197.5,143C 205.725,143.89 213.725,145.723 221.5,148.5C 249.233,110.293 286.567,87.9597 333.5,81.5 Z"/></g>
<g><path style="opacity:1" fill="#f8f1df" d="M 423.5,173.5 C 400.06,160.945 376.727,148.112 353.5,135C 355.382,134.802 357.048,134.302 358.5,133.5C 362.146,132.538 363.313,130.205 362,126.5C 361.25,125.874 360.416,125.374 359.5,125C 351.818,124.459 344.152,124.626 336.5,125.5C 324.391,119.229 312.391,112.729 300.5,106C 298.308,104.933 296.642,103.433 295.5,101.5C 320.196,91.3724 345.863,88.3724 372.5,92.5C 390.772,118.713 407.772,145.713 423.5,173.5 Z"/></g>
<g><path style="opacity:1" fill="#f8ebd9" d="M 295.5,101.5 C 296.642,103.433 298.308,104.933 300.5,106C 312.391,112.729 324.391,119.229 336.5,125.5C 328.954,127.291 321.621,129.958 314.5,133.5C 314.063,131.926 313.063,130.759 311.5,130C 299.811,123.124 287.811,116.957 275.5,111.5C 281.57,107.132 288.236,103.798 295.5,101.5 Z"/></g>
<g><path style="opacity:1" fill="#f8ebd3" d="M 275.5,111.5 C 287.811,116.957 299.811,123.124 311.5,130C 313.063,130.759 314.063,131.926 314.5,133.5C 308.307,136.762 302.64,140.762 297.5,145.5C 284.006,138.923 271.006,131.59 258.5,123.5C 263.603,118.775 269.269,114.775 275.5,111.5 Z"/></g>
<g><path style="opacity:1" fill="#f8e5cd" d="M 258.5,123.5 C 271.006,131.59 284.006,138.923 297.5,145.5C 295.539,147.292 294.205,149.458 293.5,152C 293.905,155.739 295.905,157.073 299.5,156C 301.996,154.334 304.329,152.5 306.5,150.5C 317.909,157.227 329.576,163.56 341.5,169.5C 332.792,173.021 324.459,177.355 316.5,182.5C 314.669,180.224 312.336,178.391 309.5,177C 286.781,164.979 264.448,152.479 242.5,139.5C 246.812,133.188 252.145,127.855 258.5,123.5 Z"/></g>
<g><path style="opacity:1" fill="#3c3c4e" d="M 358.5,133.5 C 347.699,133.137 337.365,134.804 327.5,138.5C 319.395,140.715 312.395,144.715 306.5,150.5C 304.329,152.5 301.996,154.334 299.5,156C 295.905,157.073 293.905,155.739 293.5,152C 294.205,149.458 295.539,147.292 297.5,145.5C 302.64,140.762 308.307,136.762 314.5,133.5C 321.621,129.958 328.954,127.291 336.5,125.5C 344.152,124.626 351.818,124.459 359.5,125C 360.416,125.374 361.25,125.874 362,126.5C 363.313,130.205 362.146,132.538 358.5,133.5 Z"/></g>
<g><path style="opacity:1" fill="#f8ebd8" d="M 358.5,133.5 C 357.048,134.302 355.382,134.802 353.5,135C 376.727,148.112 400.06,160.945 423.5,173.5C 429.257,182.009 434.257,191.009 438.5,200.5C 417.451,189.226 396.618,177.559 376,165.5C 375.722,166.416 375.222,167.082 374.5,167.5C 374.185,163.2 371.851,161.533 367.5,162.5C 367.631,161.624 367.298,160.957 366.5,160.5C 353.276,153.392 340.276,146.059 327.5,138.5C 337.365,134.804 347.699,133.137 358.5,133.5 Z"/></g>
<g><path style="opacity:1" fill="#f9ecd3" d="M 327.5,138.5 C 340.276,146.059 353.276,153.392 366.5,160.5C 367.298,160.957 367.631,161.624 367.5,162.5C 364.141,168.282 365.808,171.116 372.5,171C 373.823,170.184 374.489,169.017 374.5,167.5C 375.222,167.082 375.722,166.416 376,165.5C 396.618,177.559 417.451,189.226 438.5,200.5C 442.726,207.948 446.726,215.615 450.5,223.5C 449.975,224.192 449.308,224.692 448.5,225C 445.854,225.497 443.187,225.664 440.5,225.5C 427.697,217.929 414.697,210.596 401.5,203.5C 401.753,201.173 401.086,199.173 399.5,197.5C 396.229,196.802 392.896,196.802 389.5,197.5C 377.463,190.164 365.129,183.164 352.5,176.5C 351.828,175.051 351.161,173.718 350.5,172.5C 350.489,170.983 349.823,169.816 348.5,169C 346.115,168.444 343.782,168.61 341.5,169.5C 329.576,163.56 317.909,157.227 306.5,150.5C 312.395,144.715 319.395,140.715 327.5,138.5 Z"/></g>
<g><path style="opacity:1" fill="#f9e6c7" d="M 242.5,139.5 C 264.448,152.479 286.781,164.979 309.5,177C 312.336,178.391 314.669,180.224 316.5,182.5C 313.192,185.471 309.859,188.471 306.5,191.5C 304.692,191.509 303.025,191.009 301.5,190C 279.994,177.746 258.328,165.746 236.5,154C 234.937,153.241 233.937,152.074 233.5,150.5C 235.372,145.957 238.372,142.29 242.5,139.5 Z"/></g>
<g><path style="opacity:1" fill="#f9e0c7" d="M 233.5,150.5 C 233.937,152.074 234.937,153.241 236.5,154C 258.328,165.746 279.994,177.746 301.5,190C 303.025,191.009 304.692,191.509 306.5,191.5C 304.397,194.72 302.064,197.72 299.5,200.5C 279.659,188.41 259.325,177.076 238.5,166.5C 235.48,162.978 232.814,159.145 230.5,155C 230.899,153.019 231.899,151.519 233.5,150.5 Z"/></g>
<g><path style="opacity:1" fill="#f8f0de" d="M 206.5,154.5 C 206.709,155.922 207.209,157.255 208,158.5C 223.71,176.541 239.043,194.874 254,213.5C 254.671,214.252 255.504,214.586 256.5,214.5C 277.772,251.379 296.105,289.712 311.5,329.5C 310.209,329.737 309.209,329.404 308.5,328.5C 309.525,328.103 309.692,327.437 309,326.5C 283.833,296.667 258.667,266.833 233.5,237C 231.942,236.79 230.609,236.29 229.5,235.5C 237.543,235.997 239.21,233.164 234.5,227C 228.871,225.84 223.204,225.007 217.5,224.5C 214.634,223.153 212.134,221.153 210,218.5C 202.544,208.709 194.711,199.209 186.5,190C 189.482,189.502 192.482,189.335 195.5,189.5C 199.667,190.1 203.833,190.766 208,191.5C 214.186,190.959 215.686,188.125 212.5,183C 192.841,178.606 173.175,178.439 153.5,182.5C 148.924,175.75 143.758,169.417 138,163.5C 136.906,161.922 136.072,160.255 135.5,158.5C 158.7,150.914 182.367,149.581 206.5,154.5 Z"/></g>
<g><path style="opacity:1" fill="#f6efe3" d="M 206.5,154.5 C 211.779,155.779 216.945,157.446 222,159.5C 234.512,177.188 246.012,195.521 256.5,214.5C 255.504,214.586 254.671,214.252 254,213.5C 239.043,194.874 223.71,176.541 208,158.5C 207.209,157.255 206.709,155.922 206.5,154.5 Z"/></g>
<g><path style="opacity:1" fill="#f8ebd3" d="M 135.5,158.5 C 136.072,160.255 136.906,161.922 138,163.5C 143.758,169.417 148.924,175.75 153.5,182.5C 147.885,183.426 142.719,185.426 138,188.5C 136.686,192.181 137.853,194.514 141.5,195.5C 147.084,193.748 152.75,192.415 158.5,191.5C 160.144,191.286 161.644,191.62 163,192.5C 170.957,202.792 179.29,212.792 188,222.5C 188.483,223.448 188.649,224.448 188.5,225.5C 179.668,227.251 171.001,229.585 162.5,232.5C 144.833,211.167 127.167,189.833 109.5,168.5C 117.666,164.092 126.333,160.759 135.5,158.5 Z"/></g>
<g><path style="opacity:1" fill="#404051" d="M 367.5,162.5 C 371.851,161.533 374.185,163.2 374.5,167.5C 374.489,169.017 373.823,170.184 372.5,171C 365.808,171.116 364.141,168.282 367.5,162.5 Z"/></g>
<g><path style="opacity:1" fill="#f8e0c2" d="M 238.5,166.5 C 259.325,177.076 279.659,188.41 299.5,200.5C 295.594,207.014 297.261,210.181 304.5,210C 310.068,200.265 317.734,192.765 327.5,187.5C 339.857,193.675 351.857,200.342 363.5,207.5C 348.435,215.231 335.435,225.565 324.5,238.5C 303.991,226.076 282.991,214.409 261.5,203.5C 253.586,191.343 245.919,179.009 238.5,166.5 Z"/></g>
<g><path style="opacity:1" fill="#f9e6cd" d="M 109.5,168.5 C 127.167,189.833 144.833,211.167 162.5,232.5C 154.181,236.325 146.181,240.658 138.5,245.5C 121.103,225.049 103.936,204.382 87,183.5C 86.3292,182.748 85.4959,182.414 84.5,182.5C 92.0169,176.57 100.35,171.903 109.5,168.5 Z"/></g>
<g><path style="opacity:1" fill="#3c3c4e" d="M 350.5,172.5 C 350.709,174.714 349.876,176.381 348,177.5C 340.492,179.672 333.659,183.005 327.5,187.5C 317.734,192.765 310.068,200.265 304.5,210C 297.261,210.181 295.594,207.014 299.5,200.5C 302.064,197.72 304.397,194.72 306.5,191.5C 309.859,188.471 313.192,185.471 316.5,182.5C 324.459,177.355 332.792,173.021 341.5,169.5C 343.782,168.61 346.115,168.444 348.5,169C 349.823,169.816 350.489,170.983 350.5,172.5 Z"/></g>
<g><path style="opacity:1" fill="#f8e5cd" d="M 350.5,172.5 C 351.161,173.718 351.828,175.051 352.5,176.5C 365.129,183.164 377.463,190.164 389.5,197.5C 380.453,199.849 371.786,203.182 363.5,207.5C 351.857,200.342 339.857,193.675 327.5,187.5C 333.659,183.005 340.492,179.672 348,177.5C 349.876,176.381 350.709,174.714 350.5,172.5 Z"/></g>
<g><path style="opacity:1" fill="#3c3b4e" d="M 195.5,189.5 C 188.011,188.344 180.345,188.178 172.5,189C 167.588,189.222 162.921,190.055 158.5,191.5C 152.75,192.415 147.084,193.748 141.5,195.5C 137.853,194.514 136.686,192.181 138,188.5C 142.719,185.426 147.885,183.426 153.5,182.5C 173.175,178.439 192.841,178.606 212.5,183C 215.686,188.125 214.186,190.959 208,191.5C 203.833,190.766 199.667,190.1 195.5,189.5 Z"/></g>
<g><path style="opacity:1" fill="#f9e6c7" d="M 84.5,182.5 C 85.4959,182.414 86.3292,182.748 87,183.5C 103.936,204.382 121.103,225.049 138.5,245.5C 136.645,247.033 134.812,248.7 133,250.5C 131.127,255.943 132.96,258.443 138.5,258C 141.051,255.9 143.717,254.067 146.5,252.5C 146.389,253.117 146.056,253.617 145.5,254C 153.783,263.104 161.449,272.604 168.5,282.5C 164.131,285.357 160.131,288.69 156.5,292.5C 155.778,292.918 155.278,293.584 155,294.5C 129,263.167 103,231.833 77,200.5C 76.3292,199.748 75.4959,199.414 74.5,199.5C 73.1799,196.86 71.8466,194.193 70.5,191.5C 74.8836,187.98 79.5503,184.98 84.5,182.5 Z"/></g>
<g><path style="opacity:1" fill="#f6e9d7" d="M 195.5,189.5 C 192.482,189.335 189.482,189.502 186.5,190C 194.711,199.209 202.544,208.709 210,218.5C 212.134,221.153 214.634,223.153 217.5,224.5C 207.781,224.218 198.114,224.551 188.5,225.5C 188.649,224.448 188.483,223.448 188,222.5C 179.29,212.792 170.957,202.792 163,192.5C 161.644,191.62 160.144,191.286 158.5,191.5C 162.921,190.055 167.588,189.222 172.5,189C 180.345,188.178 188.011,188.344 195.5,189.5 Z"/></g>
<g><path style="opacity:1" fill="#3d3c4e" d="M 401.5,203.5 C 391.923,206.225 382.589,209.558 373.5,213.5C 368.68,215.074 364.347,217.407 360.5,220.5C 356.268,222.4 352.601,225.067 349.5,228.5C 343.558,232.773 338.224,237.773 333.5,243.5C 329.998,247.841 326.665,252.341 323.5,257C 317.333,258.833 315.167,256.667 317,250.5C 319.751,246.598 322.251,242.598 324.5,238.5C 335.435,225.565 348.435,215.231 363.5,207.5C 371.786,203.182 380.453,199.849 389.5,197.5C 392.896,196.802 396.229,196.802 399.5,197.5C 401.086,199.173 401.753,201.173 401.5,203.5 Z"/></g>
<g><path style="opacity:1" fill="#f9e0c7" d="M 74.5,199.5 C 75.4959,199.414 76.3292,199.748 77,200.5C 103,231.833 129,263.167 155,294.5C 155.278,293.584 155.778,292.918 156.5,292.5C 156.461,295.089 157.461,297.089 159.5,298.5C 167.477,309.203 176.144,319.87 185.5,330.5C 181.565,332.467 177.565,334.467 173.5,336.5C 160.83,319.862 147.663,303.529 134,287.5C 121.624,273.459 109.624,259.126 98,244.5C 97.31,243.262 96.81,243.262 96.5,244.5C 88.9278,229.688 81.5945,214.688 74.5,199.5 Z"/></g>
<g><path style="opacity:1" fill="#f8dfba" d="M 261.5,203.5 C 282.991,214.409 303.991,226.076 324.5,238.5C 322.251,242.598 319.751,246.598 317,250.5C 315.167,256.667 317.333,258.833 323.5,257C 326.665,252.341 329.998,247.841 333.5,243.5C 345.654,249.074 357.321,255.408 368.5,262.5C 349.029,281.137 333.196,302.47 321,326.5C 303.815,284.133 283.982,243.133 261.5,203.5 Z"/></g>
<g><path style="opacity:1" fill="#f8e5cc" d="M 401.5,203.5 C 414.697,210.596 427.697,217.929 440.5,225.5C 430.913,227.695 421.58,230.695 412.5,234.5C 399.986,226.741 386.986,219.741 373.5,213.5C 382.589,209.558 391.923,206.225 401.5,203.5 Z"/></g>
<g><path style="opacity:1" fill="#f8e5c7" d="M 373.5,213.5 C 386.986,219.741 399.986,226.741 412.5,234.5C 406.959,237.437 401.292,240.104 395.5,242.5C 383.725,235.441 371.725,228.608 359.5,222C 360.056,221.617 360.389,221.117 360.5,220.5C 364.347,217.407 368.68,215.074 373.5,213.5 Z"/></g>
<g><path style="opacity:1" fill="#f7c69a" d="M 95.5,265.5 C 95.5299,266.497 95.0299,267.164 94,267.5C 84.5577,265.178 75.0577,263.178 65.5,261.5C 61.4619,251.223 57.1286,241.056 52.5,231C 58.8061,226.039 65.6394,221.873 73,218.5C 81.0406,233.914 88.5406,249.581 95.5,265.5 Z"/></g>
<g><path style="opacity:1" fill="#f8e0c7" d="M 360.5,220.5 C 360.389,221.117 360.056,221.617 359.5,222C 371.725,228.608 383.725,235.441 395.5,242.5C 393.178,244.664 390.511,246.331 387.5,247.5C 374.833,241.167 362.167,234.833 349.5,228.5C 352.601,225.067 356.268,222.4 360.5,220.5 Z"/></g>
<g><path style="opacity:1" fill="#3c3b4e" d="M 217.5,224.5 C 223.204,225.007 228.871,225.84 234.5,227C 239.21,233.164 237.543,235.997 229.5,235.5C 228.833,235.5 228.167,235.5 227.5,235.5C 216.206,233.446 204.872,233.113 193.5,234.5C 185.161,235.252 177.161,237.252 169.5,240.5C 161.069,243.214 153.403,247.214 146.5,252.5C 143.717,254.067 141.051,255.9 138.5,258C 132.96,258.443 131.127,255.943 133,250.5C 134.812,248.7 136.645,247.033 138.5,245.5C 146.181,240.658 154.181,236.325 162.5,232.5C 171.001,229.585 179.668,227.251 188.5,225.5C 198.114,224.551 207.781,224.218 217.5,224.5 Z"/></g>
<g><path style="opacity:1" fill="#f8dfc0" d="M 349.5,228.5 C 362.167,234.833 374.833,241.167 387.5,247.5C 381.387,252.73 375.054,257.73 368.5,262.5C 357.321,255.408 345.654,249.074 333.5,243.5C 338.224,237.773 343.558,232.773 349.5,228.5 Z"/></g>
<g><path style="opacity:1" fill="#f8ebd8" d="M 193.5,234.5 C 204.872,233.113 216.206,233.446 227.5,235.5C 226.448,235.351 225.448,235.517 224.5,236C 234.754,247.08 244.42,258.58 253.5,270.5C 243.882,269.031 234.216,268.031 224.5,267.5C 216.235,256.562 207.569,245.896 198.5,235.5C 196.955,234.548 195.288,234.215 193.5,234.5 Z"/></g>
<g><path style="opacity:1" fill="#f8ebd3" d="M 193.5,234.5 C 195.288,234.215 196.955,234.548 198.5,235.5C 207.569,245.896 216.235,256.562 224.5,267.5C 214.307,267.524 204.307,268.857 194.5,271.5C 186.569,260.896 178.236,250.563 169.5,240.5C 177.161,237.252 185.161,235.252 193.5,234.5 Z"/></g>
<g><path style="opacity:1" fill="#f8f1d9" d="M 227.5,235.5 C 228.167,235.5 228.833,235.5 229.5,235.5C 230.609,236.29 231.942,236.79 233.5,237C 258.667,266.833 283.833,296.667 309,326.5C 309.692,327.437 309.525,328.103 308.5,328.5C 305.402,327.784 302.402,326.784 299.5,325.5C 286.678,310.502 274.345,295.168 262.5,279.5C 262.66,277.801 262.494,276.134 262,274.5C 259.217,272.939 256.383,271.606 253.5,270.5C 244.42,258.58 234.754,247.08 224.5,236C 225.448,235.517 226.448,235.351 227.5,235.5 Z"/></g>
<g><path style="opacity:1" fill="#f8e5cd" d="M 169.5,240.5 C 178.236,250.563 186.569,260.896 194.5,271.5C 185.561,274.373 176.894,278.04 168.5,282.5C 161.449,272.604 153.783,263.104 145.5,254C 146.056,253.617 146.389,253.117 146.5,252.5C 153.403,247.214 161.069,243.214 169.5,240.5 Z"/></g>
<g><path style="opacity:1" fill="#f8dfbf" d="M 173.5,336.5 C 164.607,341.197 156.107,346.53 148,352.5C 130.549,316.6 113.382,280.6 96.5,244.5C 96.81,243.262 97.31,243.262 98,244.5C 109.624,259.126 121.624,273.459 134,287.5C 147.663,303.529 160.83,319.862 173.5,336.5 Z"/></g>
<g><path style="opacity:1" fill="#f6cba1" d="M 389.5,278.5 C 382.769,278.422 376.436,277.089 370.5,274.5C 388.675,255.819 410.508,243.153 436,236.5C 437.89,236.785 439.223,237.785 440,239.5C 444.457,247.584 449.291,255.418 454.5,263C 443.405,263.052 432.405,264.052 421.5,266C 410.502,269.333 399.835,273.5 389.5,278.5 Z"/></g>
<g><path style="opacity:1" fill="#f8bf95" d="M 65.5,261.5 C 75.0577,263.178 84.5577,265.178 94,267.5C 95.0299,267.164 95.5299,266.497 95.5,265.5C 103.739,281.645 111.739,297.979 119.5,314.5C 118.735,314.923 117.902,315.257 117,315.5C 107.245,313.049 97.4119,311.049 87.5,309.5C 79.6539,293.803 72.3206,277.803 65.5,261.5 Z"/></g>
<g><path style="opacity:1" fill="#3d3d4f" d="M 224.5,267.5 C 234.216,268.031 243.882,269.031 253.5,270.5C 256.383,271.606 259.217,272.939 262,274.5C 262.494,276.134 262.66,277.801 262.5,279.5C 261.181,280.897 259.514,281.563 257.5,281.5C 249.861,279.905 242.194,278.572 234.5,277.5C 225.827,277.334 217.16,277.5 208.5,278C 206.292,278.191 204.292,278.691 202.5,279.5C 193.075,281.082 184.408,284.416 176.5,289.5C 171.54,291.317 167.207,294.15 163.5,298C 162.207,298.49 160.873,298.657 159.5,298.5C 157.461,297.089 156.461,295.089 156.5,292.5C 160.131,288.69 164.131,285.357 168.5,282.5C 176.894,278.04 185.561,274.373 194.5,271.5C 204.307,268.857 214.307,267.524 224.5,267.5 Z"/></g>
<g><path style="opacity:1" fill="#f6987c" d="M 439.5,295.5 C 428.679,290.595 417.679,285.928 406.5,281.5C 422.222,273.824 438.889,270.99 456.5,273C 457.022,273.561 457.355,274.228 457.5,275C 455.599,280.871 453.599,286.704 451.5,292.5C 447.655,294.128 443.655,295.128 439.5,295.5 Z"/></g>
<g><path style="opacity:1" fill="#f8ebd3" d="M 234.5,277.5 C 244.551,291.063 255.218,304.23 266.5,317C 266.272,317.399 265.938,317.565 265.5,317.5C 254.833,317.5 244.167,317.5 233.5,317.5C 223.167,304.833 212.833,292.167 202.5,279.5C 204.292,278.691 206.292,278.191 208.5,278C 217.16,277.5 225.827,277.334 234.5,277.5 Z"/></g>
<g><path style="opacity:1" fill="#f8ebd8" d="M 234.5,277.5 C 242.194,278.572 249.861,279.905 257.5,281.5C 259.514,281.563 261.181,280.897 262.5,279.5C 274.345,295.168 286.678,310.502 299.5,325.5C 288.197,322.165 276.863,319.498 265.5,317.5C 265.938,317.565 266.272,317.399 266.5,317C 255.218,304.23 244.551,291.063 234.5,277.5 Z"/></g>
<g><path style="opacity:1" fill="#f8e5cd" d="M 202.5,279.5 C 212.833,292.167 223.167,304.833 233.5,317.5C 223.53,319.627 213.53,321.627 203.5,323.5C 193.715,312.724 184.715,301.39 176.5,289.5C 184.408,284.416 193.075,281.082 202.5,279.5 Z"/></g>
<g><path style="opacity:1" fill="#f3c29a" d="M 370.5,274.5 C 376.436,277.089 382.769,278.422 389.5,278.5C 371.165,288.652 354.331,300.985 339,315.5C 346.905,300.063 357.405,286.396 370.5,274.5 Z"/></g>
<g><path style="opacity:1" fill="#f89575" d="M 406.5,281.5 C 417.679,285.928 428.679,290.595 439.5,295.5C 418.354,299.771 398.02,306.438 378.5,315.5C 374.016,313.33 369.35,311.33 364.5,309.5C 363.702,309.043 363.369,308.376 363.5,307.5C 376.329,296.575 390.662,287.908 406.5,281.5 Z"/></g>
<g><path style="opacity:1" fill="#f9e6c7" d="M 176.5,289.5 C 184.715,301.39 193.715,312.724 203.5,323.5C 197.576,325.812 191.576,328.146 185.5,330.5C 176.144,319.87 167.477,309.203 159.5,298.5C 160.873,298.657 162.207,298.49 163.5,298C 167.207,294.15 171.54,291.317 176.5,289.5 Z"/></g>
<g><path style="opacity:1" fill="#f8b98d" d="M 87.5,309.5 C 97.4119,311.049 107.245,313.049 117,315.5C 117.902,315.257 118.735,314.923 119.5,314.5C 127.104,330.042 134.438,345.708 141.5,361.5C 141.631,362.376 141.298,363.043 140.5,363.5C 130.625,360.865 120.625,358.865 110.5,357.5C 102.068,341.872 94.4011,325.872 87.5,309.5 Z"/></g>
<g><path style="opacity:1" fill="#f2bb92" d="M 228.5,338.5 C 221.087,336.215 213.42,334.549 205.5,333.5C 224.516,326.904 244.183,324.737 264.5,327C 270.521,327.871 276.521,328.871 282.5,330C 264.065,330.386 246.065,333.219 228.5,338.5 Z"/></g>
<g><path style="opacity:1" fill="#f7b98d" d="M 205.5,333.5 C 213.42,334.549 221.087,336.215 228.5,338.5C 206.948,345.441 187.282,355.774 169.5,369.5C 162.36,367.943 155.36,366.276 148.5,364.5C 165.23,350.296 184.23,339.963 205.5,333.5 Z"/></g>
<g><path style="opacity:1" fill="#ee8870" d="M 363.5,307.5 C 363.369,308.376 363.702,309.043 364.5,309.5C 369.35,311.33 374.016,313.33 378.5,315.5C 359.308,324.937 341.974,337.104 326.5,352C 302.522,351.119 278.855,353.286 255.5,358.5C 246.917,354.972 238.25,351.638 229.5,348.5C 249.148,341.667 269.482,338.834 290.5,340C 301.303,340.783 311.97,342.116 322.5,344C 331.53,334.636 340.863,325.636 350.5,317C 354.538,313.326 358.871,310.159 363.5,307.5 Z"/></g>
<g><path style="opacity:1" fill="#f8b388" d="M 110.5,357.5 C 120.625,358.865 130.625,360.865 140.5,363.5C 141.298,363.043 141.631,362.376 141.5,361.5C 142.991,364.091 145.325,365.091 148.5,364.5C 155.36,366.276 162.36,367.943 169.5,369.5C 157.886,379.446 146.886,390.113 136.5,401.5C 126.814,387.465 118.147,372.798 110.5,357.5 Z"/></g>
<g><path style="opacity:1" fill="#f0826b" d="M 229.5,348.5 C 238.25,351.638 246.917,354.972 255.5,358.5C 236.247,364.459 218.247,373.126 201.5,384.5C 194.777,380.24 187.444,376.907 179.5,374.5C 194.124,362.186 210.791,353.519 229.5,348.5 Z"/></g>
<g><path style="opacity:1" fill="#f07c69" d="M 179.5,374.5 C 187.444,376.907 194.777,380.24 201.5,384.5C 188.108,393.723 176.441,404.889 166.5,418C 165.5,418.667 164.5,418.667 163.5,418C 157.371,414.6 151.037,411.766 144.5,409.5C 144.351,408.448 144.517,407.448 145,406.5C 155.135,394.192 166.635,383.525 179.5,374.5 Z"/></g>
</svg>
