<?xml version="1.0" encoding="UTF-8"?>
<!DOCTYPE svg PUBLIC "-//W3C//DTD SVG 1.1//EN" "http://www.w3.org/Graphics/SVG/1.1/DTD/svg11.dtd">
<svg xmlns="http://www.w3.org/2000/svg" version="1.1" width="512px" height="512px" style="shape-rendering:geometricPrecision; text-rendering:geometricPrecision; image-rendering:optimizeQuality; fill-rule:evenodd; clip-rule:evenodd" xmlns:xlink="http://www.w3.org/1999/xlink">
<g><path style="opacity:1" fill="#6a5689" d="M 318.5,107.5 C 310.596,98.6859 302.93,89.6859 295.5,80.5C 299.771,76.7312 303.938,72.7312 308,68.5C 311.292,63.4168 314.459,58.2502 317.5,53C 323.589,51.8989 329.755,51.3989 336,51.5C 341.167,51.6667 346.333,51.8333 351.5,52C 353.769,54.3622 354.102,57.0288 352.5,60C 345.931,79.3272 334.598,95.1605 318.5,107.5 Z"/></g>
<g><path style="opacity:1" fill="#8e6fae" d="M 440.5,133.5 C 421.533,113.698 402.7,93.6976 384,73.5C 383.617,74.056 383.117,74.3893 382.5,74.5C 385.594,67.1469 389.594,60.3136 394.5,54C 396.087,53.1376 397.754,52.4709 399.5,52C 421.833,51.3333 444.167,51.3333 466.5,52C 468.286,52.7845 469.786,53.9512 471,55.5C 471.667,74.8333 471.667,94.1667 471,113.5C 470.117,116.102 468.617,118.269 466.5,120C 457.463,123.89 448.797,128.39 440.5,133.5 Z"/></g>
<g><path style="opacity:1" fill="#705c8a" d="M 295.5,80.5 C 302.93,89.6859 310.596,98.6859 318.5,107.5C 311.516,114.156 303.516,119.156 294.5,122.5C 285.967,119.236 277.634,115.402 269.5,111C 257.339,105.868 244.672,103.368 231.5,103.5C 232.263,102.732 233.263,102.232 234.5,102C 226.301,92.3067 217.968,82.8067 209.5,73.5C 216.452,67.686 223.785,62.3527 231.5,57.5C 234.873,63.0407 238.873,68.2074 243.5,73C 259.508,85.3922 276.841,87.8922 295.5,80.5 Z"/></g>
<g><path style="opacity:1" fill="#786590" d="M 209.5,73.5 C 217.968,82.8067 226.301,92.3067 234.5,102C 233.263,102.232 232.263,102.732 231.5,103.5C 212.474,104.039 197.974,112.373 188,128.5C 185.191,135.055 184.858,141.722 187,148.5C 189.305,153.609 191.471,158.776 193.5,164C 191.718,170.562 188.384,176.229 183.5,181C 180.482,181.573 178.315,180.406 177,177.5C 172.917,170.332 168.584,163.332 164,156.5C 164.958,146.525 166.124,136.525 167.5,126.5C 166.746,120.148 166.246,113.815 166,107.5C 166.346,105.152 167.513,103.319 169.5,102C 182.716,92.2354 196.049,82.7354 209.5,73.5 Z"/></g>
<g><path style="opacity:1" fill="#9675b3" d="M 440.5,133.5 C 432.201,140.132 424.534,147.465 417.5,155.5C 400.861,137.86 384.195,120.193 367.5,102.5C 371.995,92.8409 376.995,83.5075 382.5,74.5C 383.117,74.3893 383.617,74.056 384,73.5C 402.7,93.6976 421.533,113.698 440.5,133.5 Z"/></g>
<g><path style="opacity:1" fill="#9c75b5" d="M 367.5,102.5 C 384.195,120.193 400.861,137.86 417.5,155.5C 412.623,163.274 408.789,171.608 406,180.5C 403.636,183.69 401.136,186.69 398.5,189.5C 385.5,176.666 373,163.332 361,149.5C 360.184,148.177 359.017,147.511 357.5,147.5C 358.538,138.879 358.704,130.213 358,121.5C 360.143,114.561 363.309,108.228 367.5,102.5 Z"/></g>
<g><path style="opacity:1" fill="#a77dba" d="M 357.5,147.5 C 359.017,147.511 360.184,148.177 361,149.5C 373,163.332 385.5,176.666 398.5,189.5C 393.209,195.961 387.709,202.295 382,208.5C 381.069,211.973 382.236,214.306 385.5,215.5C 385.062,215.435 384.728,215.601 384.5,216C 392.374,224.371 400.04,232.871 407.5,241.5C 393.81,244.674 380.144,248.341 366.5,252.5C 346.224,229.554 325.558,206.887 304.5,184.5C 319.045,182.375 332.379,177.209 344.5,169C 351.526,163.446 355.859,156.279 357.5,147.5 Z"/></g>
<g><path style="opacity:1" fill="#b583c1" d="M 260.5,186.5 C 284.444,213.114 308.777,239.447 333.5,265.5C 330.454,266.885 327.454,266.719 324.5,265C 314.091,253.588 301.424,245.922 286.5,242C 280.796,241.313 275.13,241.479 269.5,242.5C 251.167,222.5 232.833,202.5 214.5,182.5C 215.768,180.613 217.601,179.613 220,179.5C 233.372,182.645 246.872,184.979 260.5,186.5 Z"/></g>
<g><path style="opacity:1" fill="#ba83c7" d="M 214.5,182.5 C 232.833,202.5 251.167,222.5 269.5,242.5C 262.773,244.697 256.439,247.697 250.5,251.5C 242.207,242.037 233.707,232.704 225,223.5C 220.241,218.234 215.075,213.567 209.5,209.5C 211.226,200.395 212.893,191.395 214.5,182.5 Z"/></g>
<g><path style="opacity:1" fill="#ae7dc0" d="M 304.5,184.5 C 325.558,206.887 346.224,229.554 366.5,252.5C 361.319,254.675 355.986,256.675 350.5,258.5C 349.588,256.405 348.421,254.405 347,252.5C 327,231.167 307,209.833 287,188.5C 285.698,187.915 284.531,187.249 283.5,186.5C 290.599,186.659 297.599,185.992 304.5,184.5 Z"/></g>
<g><path style="opacity:1" fill="#ae82c1" d="M 260.5,186.5 C 268.167,186.5 275.833,186.5 283.5,186.5C 284.531,187.249 285.698,187.915 287,188.5C 307,209.833 327,231.167 347,252.5C 348.421,254.405 349.588,256.405 350.5,258.5C 344.914,261.029 339.247,263.362 333.5,265.5C 308.777,239.447 284.444,213.114 260.5,186.5 Z"/></g>
<g><path style="opacity:1" fill="#9f7ab8" d="M 407.5,241.5 C 400.04,232.871 392.374,224.371 384.5,216C 384.728,215.601 385.062,215.435 385.5,215.5C 413.768,215.846 440.768,210.18 466.5,198.5C 468.107,198.637 469.441,199.304 470.5,200.5C 471.646,212.787 471.813,225.121 471,237.5C 470.5,238 470,238.5 469.5,239C 448.751,237.739 428.085,238.573 407.5,241.5 Z"/></g>
<g><path style="opacity:1" fill="#bf89c8" d="M 209.5,209.5 C 215.075,213.567 220.241,218.234 225,223.5C 233.707,232.704 242.207,242.037 250.5,251.5C 240.326,259.667 231.993,269.334 225.5,280.5C 213.496,268.495 201.829,256.162 190.5,243.5C 200.439,234.299 206.772,222.965 209.5,209.5 Z"/></g>
<g><path style="opacity:1" fill="#c998cf" d="M 161.5,254.5 C 178.828,272.662 195.995,290.996 213,309.5C 213.383,308.944 213.883,308.611 214.5,308.5C 207.766,329.969 204.766,351.969 205.5,374.5C 198.268,372.526 190.934,370.859 183.5,369.5C 173.561,357.556 163.227,345.889 152.5,334.5C 167.731,330.407 174.231,320.407 172,304.5C 168.555,293.377 161.722,284.877 151.5,279C 134.297,268.852 117.297,269.018 100.5,279.5C 94.1944,272.86 87.8611,266.193 81.5,259.5C 93.9515,248.215 108.618,244.048 125.5,247C 133.015,248.379 140.349,250.379 147.5,253C 152.137,253.829 156.804,254.329 161.5,254.5 Z"/></g>
<g><path style="opacity:1" fill="#c28fcc" d="M 190.5,243.5 C 201.829,256.162 213.496,268.495 225.5,280.5C 221.276,289.614 217.61,298.947 214.5,308.5C 213.883,308.611 213.383,308.944 213,309.5C 195.995,290.996 178.828,272.662 161.5,254.5C 172.374,253.768 182.041,250.101 190.5,243.5 Z"/></g>
<g><path style="opacity:1" fill="#cfa3d5" d="M 81.5,259.5 C 87.8611,266.193 94.1944,272.86 100.5,279.5C 91.401,292.883 91.2343,306.55 100,320.5C 100.552,323.419 99.8849,326.086 98,328.5C 92.8333,333.667 87.6667,338.833 82.5,344C 81.0039,344.507 79.8373,344.007 79,342.5C 79.5497,335.553 79.5497,328.553 79,321.5C 76.0336,315.853 73.0336,310.186 70,304.5C 64.6102,287.057 68.4435,272.057 81.5,259.5 Z"/></g>
<g><path style="opacity:1" fill="#705c89" d="M 471.5,352.5 C 456.425,336.428 442.092,319.762 428.5,302.5C 440.451,296.411 453.118,294.244 466.5,296C 467.931,296.465 469.097,297.299 470,298.5C 471.473,316.406 471.973,334.406 471.5,352.5 Z"/></g>
<g><path style="opacity:1" fill="#7d6a94" d="M 342.5,332.5 C 351.497,342.332 360.33,352.332 369,362.5C 370.094,364.078 370.928,365.745 371.5,367.5C 354.677,368.17 339.677,363.336 326.5,353C 319.337,344.495 311.004,337.495 301.5,332C 283.795,324.871 267.128,326.871 251.5,338C 246.858,339.032 245.692,337.532 248,333.5C 255.361,323.639 262.527,313.639 269.5,303.5C 270.665,302.416 271.998,301.583 273.5,301C 286.5,300.333 299.5,300.333 312.5,301C 314.002,301.583 315.335,302.416 316.5,303.5C 321.032,317.024 329.699,326.691 342.5,332.5 Z"/></g>
<g><path style="opacity:1" fill="#715c8f" d="M 428.5,302.5 C 442.092,319.762 456.425,336.428 471.5,352.5C 471.823,356.226 471.489,359.893 470.5,363.5C 469.914,363.709 469.414,364.043 469,364.5C 462.227,357.557 454.727,351.557 446.5,346.5C 436.877,334.208 426.877,322.208 416.5,310.5C 419.774,306.855 423.774,304.188 428.5,302.5 Z"/></g>
<g><path style="opacity:1" fill="#76638f" d="M 416.5,310.5 C 426.877,322.208 436.877,334.208 446.5,346.5C 436.291,343.392 426.291,343.892 416.5,348C 403.408,358.879 388.408,365.379 371.5,367.5C 370.928,365.745 370.094,364.078 369,362.5C 360.33,352.332 351.497,342.332 342.5,332.5C 362.657,339.558 381.657,337.391 399.5,326C 405.292,320.853 410.958,315.687 416.5,310.5 Z"/></g>
<g><path style="opacity:1" fill="#d1a6d7" d="M 152.5,334.5 C 163.227,345.889 173.561,357.556 183.5,369.5C 170.648,368.179 160.815,372.845 154,383.5C 152.584,387.415 152.584,391.415 154,395.5C 156.807,407.086 160.307,418.419 164.5,429.5C 159.864,426.407 155.364,422.407 151,417.5C 145.297,410.64 139.464,404.64 133.5,399.5C 131.549,396.214 129.215,393.214 126.5,390.5C 119.591,383.089 112.424,375.755 105,368.5C 104.517,367.552 104.351,366.552 104.5,365.5C 112.211,354.276 120.544,343.443 129.5,333C 131,332.5 132.5,332 134,331.5C 139.936,333.91 146.103,334.91 152.5,334.5 Z"/></g>
<g><path style="opacity:1" fill="#8f7ea1" d="M 48.5,359.5 C 64.927,358.752 70.427,366.085 65,381.5C 57.3333,389.5 49.6667,389.5 42,381.5C 37.4312,372.048 39.5979,364.715 48.5,359.5 Z"/></g>
<g><path style="opacity:1" fill="#d7b1dc" d="M 104.5,365.5 C 104.351,366.552 104.517,367.552 105,368.5C 112.424,375.755 119.591,383.089 126.5,390.5C 101.529,407.657 76.5289,424.823 51.5,442C 46.8583,443.032 45.6917,441.532 48,437.5C 66.6971,413.314 85.5304,389.314 104.5,365.5 Z"/></g>
<g><path style="opacity:1" fill="#837096" d="M 245.5,368.5 C 262.171,369.009 268.338,377.343 264,393.5C 259.037,400.714 252.203,403.214 243.5,401C 231.36,393.91 229.36,384.577 237.5,373C 240.099,371.205 242.766,369.705 245.5,368.5 Z"/></g>
<g><path style="opacity:1" fill="#d6b1dc" d="M 164.5,429.5 C 165.089,441.791 159.755,450.958 148.5,457C 146.5,457.667 144.5,457.667 142.5,457C 129.405,450.06 115.738,448.726 101.5,453C 95.831,455.351 90.1643,457.351 84.5,459C 83.1537,456.206 83.6537,453.706 86,451.5C 90.3799,446.789 94.3799,441.789 98,436.5C 102.208,432.149 107.375,429.815 113.5,429.5C 120.082,430.437 126.582,431.77 133,433.5C 136.955,432.545 139.121,430.045 139.5,426C 138.518,416.907 136.518,408.074 133.5,399.5C 139.464,404.64 145.297,410.64 151,417.5C 155.364,422.407 159.864,426.407 164.5,429.5 Z"/></g>
</svg>
