<?xml version="1.0" encoding="UTF-8"?>
<!DOCTYPE svg PUBLIC "-//W3C//DTD SVG 1.1//EN" "http://www.w3.org/Graphics/SVG/1.1/DTD/svg11.dtd">
<svg xmlns="http://www.w3.org/2000/svg" version="1.1" width="512px" height="512px" style="shape-rendering:geometricPrecision; text-rendering:geometricPrecision; image-rendering:optimizeQuality; fill-rule:evenodd; clip-rule:evenodd" xmlns:xlink="http://www.w3.org/1999/xlink">
<g><path style="opacity:1" fill="#5a5a88" d="M 483.5,46.5 C 482.883,46.6107 482.383,46.944 482,47.5C 469.698,43.4661 457.198,40.1327 444.5,37.5C 451.365,28.7341 460.365,24.2341 471.5,24C 476.64,25.1398 479.807,28.3065 481,33.5C 481.791,37.8873 482.625,42.2206 483.5,46.5 Z"/></g>
<g><path style="opacity:1" fill="#4f4e7c" d="M 444.5,37.5 C 457.198,40.1327 469.698,43.4661 482,47.5C 482.383,46.944 482.883,46.6107 483.5,46.5C 483.608,51.8699 483.275,57.2032 482.5,62.5C 480.589,63.075 478.922,64.075 477.5,65.5C 464.069,61.0547 450.402,57.0547 436.5,53.5C 438.392,48.2807 440.725,43.2807 443.5,38.5C 443.5,37.8333 443.833,37.5 444.5,37.5 Z"/></g>
<g><path style="opacity:1" fill="#42416f" d="M 436.5,53.5 C 450.402,57.0547 464.069,61.0547 477.5,65.5C 464.372,73.9321 450.038,78.4321 434.5,79C 432.258,77.0143 431.258,74.5143 431.5,71.5C 432.256,65.132 433.922,59.132 436.5,53.5 Z"/></g>
<g><path style="opacity:1" fill="#f9a77e" d="M 443.5,38.5 C 440.725,43.2807 438.392,48.2807 436.5,53.5C 433.922,59.132 432.256,65.132 431.5,71.5C 431.258,74.5143 432.258,77.0143 434.5,79C 450.038,78.4321 464.372,73.9321 477.5,65.5C 478.922,64.075 480.589,63.075 482.5,62.5C 483.188,71.6581 483.855,80.8248 484.5,90C 484.564,97.3503 482.73,104.184 479,110.5C 471.304,121.681 463.47,132.681 455.5,143.5C 429.281,124.222 403.615,104.222 378.5,83.5C 399.868,68.1427 421.535,53.1427 443.5,38.5 Z"/></g>
<g><path style="opacity:1" fill="#faa27d" d="M 378.5,83.5 C 403.615,104.222 429.281,124.222 455.5,143.5C 442.657,163.19 429.324,182.523 415.5,201.5C 374.464,170.648 333.797,139.315 293.5,107.5C 307.152,106.804 320.819,106.304 334.5,106C 338.558,105.66 342.558,104.993 346.5,104C 357.365,97.4055 368.031,90.5722 378.5,83.5 Z"/></g>
<g><path style="opacity:1" fill="#fa9c7d" d="M 293.5,107.5 C 333.797,139.315 374.464,170.648 415.5,201.5C 415.5,201.833 415.5,202.167 415.5,202.5C 432.857,216.518 450.524,230.185 468.5,243.5C 452.138,261.526 435.805,279.526 419.5,297.5C 419.631,296.761 419.464,296.094 419,295.5C 371.044,257.787 322.878,220.453 274.5,183.5C 280.495,177.36 287.495,172.526 295.5,169C 298.5,168.333 301.5,168.333 304.5,169C 307.438,170.808 310.438,172.308 313.5,173.5C 313.061,165.563 309.061,160.396 301.5,158C 288.858,156.642 276.191,156.309 263.5,157C 258.459,158.892 253.792,161.392 249.5,164.5C 249.586,163.504 249.252,162.671 248.5,162C 235.584,152.388 222.917,142.555 210.5,132.5C 224.871,123.646 239.871,115.813 255.5,109C 268.128,107.679 280.795,107.179 293.5,107.5 Z"/></g>
<g><path style="opacity:1" fill="#fa967d" d="M 210.5,132.5 C 222.917,142.555 235.584,152.388 248.5,162C 249.252,162.671 249.586,163.504 249.5,164.5C 240.78,170.373 232.447,176.873 224.5,184C 241.23,187.474 257.896,187.308 274.5,183.5C 322.878,220.453 371.044,257.787 419,295.5C 419.464,296.094 419.631,296.761 419.5,297.5C 409.925,305.983 404.592,316.65 403.5,329.5C 323.662,267.166 243.662,205 163.5,143C 164.737,142.768 165.737,142.268 166.5,141.5C 181.963,142.607 196.63,139.607 210.5,132.5 Z"/></g>
<g><path style="opacity:1" fill="#f98e75" d="M 85.5,140.5 C 189.32,221.016 293.153,301.682 397,382.5C 397.383,381.944 397.883,381.611 398.5,381.5C 396.463,389.581 393.296,397.248 389,404.5C 381.325,418.525 373.159,432.192 364.5,445.5C 361.86,445.046 359.527,443.879 357.5,442C 328.601,418.922 299.601,396.088 270.5,373.5C 285.9,365.607 300.4,356.273 314,345.5C 314.617,344.551 314.451,343.718 313.5,343C 312.167,342.333 310.833,342.333 309.5,343C 290.692,350.035 271.358,354.869 251.5,357.5C 250.448,357.649 249.448,357.483 248.5,357C 233.681,345.092 218.681,333.425 203.5,322C 202.177,321.184 201.511,320.017 201.5,318.5C 203.008,313.289 204.008,307.956 204.5,302.5C 196.426,302.939 188.426,303.939 180.5,305.5C 181.356,298.431 183.523,291.764 187,285.5C 191.491,275.849 196.491,266.515 202,257.5C 202.699,255.926 202.365,254.593 201,253.5C 194.218,257.948 187.718,262.781 181.5,268C 174.965,274.703 168.298,281.203 161.5,287.5C 158.484,286.657 155.817,285.157 153.5,283C 115.097,252.814 76.7641,222.647 38.5,192.5C 59.0571,183.591 80.0571,175.757 101.5,169C 95.3651,161.864 88.8651,155.031 82,148.5C 79.3178,143.945 80.4845,141.278 85.5,140.5 Z"/></g>
<g><path style="opacity:1" fill="#fa9676" d="M 85.5,140.5 C 112.51,140.294 139.51,140.628 166.5,141.5C 165.737,142.268 164.737,142.768 163.5,143C 243.662,205 323.662,267.166 403.5,329.5C 402.757,346.931 401.09,364.265 398.5,381.5C 397.883,381.611 397.383,381.944 397,382.5C 293.153,301.682 189.32,221.016 85.5,140.5 Z"/></g>
<g><path style="opacity:1" fill="#faf8f7" d="M 274.5,183.5 C 257.896,187.308 241.23,187.474 224.5,184C 232.447,176.873 240.78,170.373 249.5,164.5C 253.792,161.392 258.459,158.892 263.5,157C 276.191,156.309 288.858,156.642 301.5,158C 309.061,160.396 313.061,165.563 313.5,173.5C 310.438,172.308 307.438,170.808 304.5,169C 301.5,168.333 298.5,168.333 295.5,169C 287.495,172.526 280.495,177.36 274.5,183.5 Z"/></g>
<g><path style="opacity:1" fill="#f98875" d="M 38.5,192.5 C 76.7641,222.647 115.097,252.814 153.5,283C 155.817,285.157 158.484,286.657 161.5,287.5C 159.885,290.45 157.885,293.116 155.5,295.5C 152.253,299.659 149.253,303.992 146.5,308.5C 139.033,319.101 134.033,330.768 131.5,343.5C 144.771,341.113 158.105,339.113 171.5,337.5C 167.878,351.032 164.878,364.699 162.5,378.5C 128.533,353.169 94.8662,327.336 61.5,301C 59.8588,299.871 58.8588,298.371 58.5,296.5C 67.0147,279.972 76.6814,264.139 87.5,249C 67.3333,233.5 47.1667,218 27,202.5C 26.2571,200.559 26.4238,198.726 27.5,197C 31.188,195.487 34.8546,193.987 38.5,192.5 Z"/></g>
<g><path style="opacity:1" fill="#faa27d" d="M 468.5,243.5 C 450.524,230.185 432.857,216.518 415.5,202.5C 438.082,198.486 460.749,197.319 483.5,199C 484.194,207.76 482.694,216.26 479,224.5C 476.501,231.508 473.001,237.841 468.5,243.5 Z"/></g>
<g><path style="opacity:1" fill="#b74d56" d="M 201.5,318.5 C 200.288,321.78 199.288,325.113 198.5,328.5C 198.67,327.178 198.337,326.011 197.5,325C 184.833,315.667 172.167,306.333 159.5,297C 158.255,296.209 156.922,295.709 155.5,295.5C 157.885,293.116 159.885,290.45 161.5,287.5C 168.298,281.203 174.965,274.703 181.5,268C 187.718,262.781 194.218,257.948 201,253.5C 202.365,254.593 202.699,255.926 202,257.5C 196.491,266.515 191.491,275.849 187,285.5C 183.523,291.764 181.356,298.431 180.5,305.5C 188.426,303.939 196.426,302.939 204.5,302.5C 204.008,307.956 203.008,313.289 201.5,318.5 Z"/></g>
<g><path style="opacity:1" fill="#b04451" d="M 155.5,295.5 C 156.922,295.709 158.255,296.209 159.5,297C 172.167,306.333 184.833,315.667 197.5,325C 198.337,326.011 198.67,327.178 198.5,328.5C 197.404,334.333 196.07,340 194.5,345.5C 194.67,344.178 194.337,343.011 193.5,342C 178.127,330.323 162.46,319.157 146.5,308.5C 149.253,303.992 152.253,299.659 155.5,295.5 Z"/></g>
<g><path style="opacity:1" fill="#f9836f" d="M 58.5,296.5 C 58.8588,298.371 59.8588,299.871 61.5,301C 94.8662,327.336 128.533,353.169 162.5,378.5C 161.805,382.955 161.138,387.455 160.5,392C 160.645,392.772 160.978,393.439 161.5,394C 169.493,394.5 177.493,394.666 185.5,394.5C 185.082,395.222 184.416,395.722 183.5,396C 209.833,416.333 236.167,436.667 262.5,457C 264.141,458.129 265.141,459.629 265.5,461.5C 246.992,470.837 228.159,479.504 209,487.5C 208.127,487.265 207.293,486.931 206.5,486.5C 205.501,471.848 205.167,457.182 205.5,442.5C 184.673,447.138 163.673,450.804 142.5,453.5C 119.852,435.857 97.1854,418.191 74.5,400.5C 73.6143,399.675 73.281,398.675 73.5,397.5C 79.2926,376.622 86.9592,356.456 96.5,337C 77.1902,341.415 57.6902,345.248 38,348.5C 35.6241,348.457 34.1241,347.291 33.5,345C 40.6915,328.114 49.0249,311.947 58.5,296.5 Z"/></g>
<g><path style="opacity:1" fill="#ab3a4f" d="M 146.5,308.5 C 162.46,319.157 178.127,330.323 193.5,342C 194.337,343.011 194.67,344.178 194.5,345.5C 193.833,351.833 193.167,358.167 192.5,364.5C 202.173,363.916 211.84,363.249 221.5,362.5C 230.167,369.167 238.833,375.833 247.5,382.5C 227.462,389.555 206.796,393.555 185.5,394.5C 177.493,394.666 169.493,394.5 161.5,394C 160.978,393.439 160.645,392.772 160.5,392C 161.138,387.455 161.805,382.955 162.5,378.5C 164.878,364.699 167.878,351.032 171.5,337.5C 158.105,339.113 144.771,341.113 131.5,343.5C 134.033,330.768 139.033,319.101 146.5,308.5 Z"/></g>
<g><path style="opacity:1" fill="#f98875" d="M 201.5,318.5 C 201.511,320.017 202.177,321.184 203.5,322C 218.681,333.425 233.681,345.092 248.5,357C 249.448,357.483 250.448,357.649 251.5,357.5C 241.74,359.897 231.74,361.564 221.5,362.5C 211.84,363.249 202.173,363.916 192.5,364.5C 193.167,358.167 193.833,351.833 194.5,345.5C 196.07,340 197.404,334.333 198.5,328.5C 199.288,325.113 200.288,321.78 201.5,318.5 Z"/></g>
<g><path style="opacity:1" fill="#b34853" d="M 270.5,373.5 C 262.945,376.777 255.278,379.777 247.5,382.5C 238.833,375.833 230.167,369.167 221.5,362.5C 231.74,361.564 241.74,359.897 251.5,357.5C 271.358,354.869 290.692,350.035 309.5,343C 310.833,342.333 312.167,342.333 313.5,343C 314.451,343.718 314.617,344.551 314,345.5C 300.4,356.273 285.9,365.607 270.5,373.5 Z"/></g>
<g><path style="opacity:1" fill="#f98875" d="M 270.5,373.5 C 299.601,396.088 328.601,418.922 357.5,442C 359.527,443.879 361.86,445.046 364.5,445.5C 357.499,456.158 349.999,466.491 342,476.5C 339.633,479.932 336.966,480.265 334,477.5C 333.437,461.303 331.437,445.303 328,429.5C 307.374,440.563 286.541,451.229 265.5,461.5C 265.141,459.629 264.141,458.129 262.5,457C 236.167,436.667 209.833,416.333 183.5,396C 184.416,395.722 185.082,395.222 185.5,394.5C 206.796,393.555 227.462,389.555 247.5,382.5C 255.278,379.777 262.945,376.777 270.5,373.5 Z"/></g>
<g><path style="opacity:1" fill="#fa7d6f" d="M 73.5,397.5 C 73.281,398.675 73.6143,399.675 74.5,400.5C 97.1854,418.191 119.852,435.857 142.5,453.5C 115.174,458.363 87.5073,460.863 59.5,461C 58.9032,459.938 58.5698,458.772 58.5,457.5C 61.9616,436.987 66.9616,416.987 73.5,397.5 Z"/></g>
</svg>
