<?xml version="1.0" encoding="UTF-8"?>
<!DOCTYPE svg PUBLIC "-//W3C//DTD SVG 1.1//EN" "http://www.w3.org/Graphics/SVG/1.1/DTD/svg11.dtd">
<svg xmlns="http://www.w3.org/2000/svg" version="1.1" width="512px" height="512px" style="shape-rendering:geometricPrecision; text-rendering:geometricPrecision; image-rendering:optimizeQuality; fill-rule:evenodd; clip-rule:evenodd" xmlns:xlink="http://www.w3.org/1999/xlink">
<g><path style="opacity:1" fill="#a1cdfa" d="M 317.5,55.5 C 314.854,56.1644 312.021,56.4978 309,56.5C 305.567,56.4033 302.4,55.7366 299.5,54.5C 292.841,42.9932 295.508,40.4932 307.5,47C 311.462,49.1399 314.796,51.9733 317.5,55.5 Z"/></g>
<g><path style="opacity:1" fill="#97bbfa" d="M 60.5,59.5 C 53.5,65.5 46.5,71.5 39.5,77.5C 39.3342,72.8215 39.5008,68.1548 40,63.5C 43.3718,56.5671 48.8718,54.0671 56.5,56C 58.3237,56.66 59.657,57.8267 60.5,59.5 Z"/></g>
<g><path style="opacity:1" fill="#a8d2fa" d="M 210.5,73.5 C 199.419,73.8099 188.419,73.4766 177.5,72.5C 177.439,66.5164 179.272,61.1831 183,56.5C 189,50.4904 196,46.157 204,43.5C 205.871,43.7094 207.038,44.7094 207.5,46.5C 200.311,56.3738 201.311,65.3738 210.5,73.5 Z"/></g>
<g><path style="opacity:1" fill="#9bc0fa" d="M 470.5,86.5 C 461.284,80.0654 452.284,73.3987 443.5,66.5C 446.665,62.502 450.332,59.002 454.5,56C 462.128,54.0671 467.628,56.5671 471,63.5C 471.822,71.3446 471.656,79.0113 470.5,86.5 Z"/></g>
<g><path style="opacity:1" fill="#9cc1fa" d="M 60.5,59.5 C 64.2119,62.2109 67.2119,65.5442 69.5,69.5C 60.4863,77.8451 51.1529,85.8451 41.5,93.5C 40.0313,88.2838 39.3646,82.9505 39.5,77.5C 46.5,71.5 53.5,65.5 60.5,59.5 Z"/></g>
<g><path style="opacity:1" fill="#add4fa" d="M 299.5,54.5 C 302.4,55.7366 305.567,56.4033 309,56.5C 312.021,56.4978 314.854,56.1644 317.5,55.5C 323.268,60.3385 325.601,66.3385 324.5,73.5C 313.5,73.5 302.5,73.5 291.5,73.5C 294.553,70.6096 297.053,67.2762 299,63.5C 299.498,60.5184 299.665,57.5184 299.5,54.5 Z"/></g>
<g><path style="opacity:1" fill="#9cc8fa" d="M 443.5,66.5 C 452.284,73.3987 461.284,80.0654 470.5,86.5C 470.083,92.1698 468.749,97.5032 466.5,102.5C 454.599,94.9317 443.266,86.5984 432.5,77.5C 436.5,74.1667 440.167,70.5 443.5,66.5 Z"/></g>
<g><path style="opacity:1" fill="#9cc7fa" d="M 69.5,69.5 C 73.9206,72.7099 77.9206,76.3765 81.5,80.5C 70.1667,90.1667 58.8333,99.8333 47.5,109.5C 44.5363,104.619 42.5363,99.2857 41.5,93.5C 51.1529,85.8451 60.4863,77.8451 69.5,69.5 Z"/></g>
<g><path style="opacity:1" fill="#b3dafa" d="M 177.5,72.5 C 188.419,73.4766 199.419,73.8099 210.5,73.5C 229.932,84.6787 250.599,87.512 272.5,82C 279.363,80.2329 285.696,77.3996 291.5,73.5C 302.5,73.5 313.5,73.5 324.5,73.5C 324.369,78.7593 322.369,83.0926 318.5,86.5C 273.5,86.5 228.5,86.5 183.5,86.5C 179.89,82.6036 177.89,77.9369 177.5,72.5 Z"/></g>
<g><path style="opacity:1" fill="#a2cefa" d="M 432.5,77.5 C 443.266,86.5984 454.599,94.9317 466.5,102.5C 464.124,110.254 460.458,117.254 455.5,123.5C 455.586,122.504 455.252,121.671 454.5,121C 441.549,111.717 428.882,102.05 416.5,92C 415.552,91.5172 414.552,91.3505 413.5,91.5C 419.973,87.0893 426.306,82.4226 432.5,77.5 Z"/></g>
<g><path style="opacity:1" fill="#a2cefa" d="M 81.5,80.5 C 87.4714,84.4898 93.4714,88.4898 99.5,92.5C 86.692,103.802 73.692,114.968 60.5,126C 59.7476,126.671 59.4142,127.504 59.5,128.5C 53.8849,123.212 49.8849,116.878 47.5,109.5C 58.8333,99.8333 70.1667,90.1667 81.5,80.5 Z"/></g>
<g><path style="opacity:1" fill="#badafa" d="M 183.5,86.5 C 228.5,86.5 273.5,86.5 318.5,86.5C 317.167,88.5 315.5,90.1667 313.5,91.5C 272.003,90.5014 230.337,90.168 188.5,90.5C 186.251,89.9202 184.585,88.5869 183.5,86.5 Z"/></g>
<g><path style="opacity:1" fill="#bbe0fa" d="M 188.5,90.5 C 230.337,90.168 272.003,90.5014 313.5,91.5C 311.178,93.664 308.511,95.3307 305.5,96.5C 269.5,96.5 233.5,96.5 197.5,96.5C 193.951,95.2768 190.951,93.2768 188.5,90.5 Z"/></g>
<g><path style="opacity:1" fill="#a7d4fa" d="M 413.5,91.5 C 414.552,91.3505 415.552,91.5172 416.5,92C 428.882,102.05 441.549,111.717 454.5,121C 455.252,121.671 455.586,122.504 455.5,123.5C 453.118,128.248 449.784,132.248 445.5,135.5C 429.5,123.833 413.5,112.167 397.5,100.5C 402.798,97.5155 408.132,94.5155 413.5,91.5 Z"/></g>
<g><path style="opacity:1" fill="#a8d4fa" d="M 99.5,92.5 C 104.868,95.5155 110.202,98.5155 115.5,101.5C 100.821,114.844 85.8206,127.844 70.5,140.5C 66.1024,137.105 62.4357,133.105 59.5,128.5C 59.4142,127.504 59.7476,126.671 60.5,126C 73.692,114.968 86.692,103.802 99.5,92.5 Z"/></g>
<g><path style="opacity:1" fill="#c1e1fa" d="M 197.5,96.5 C 233.5,96.5 269.5,96.5 305.5,96.5C 288.733,105.413 270.733,109.413 251.5,108.5C 235.656,109.103 220.323,106.603 205.5,101C 202.552,99.7627 199.885,98.2627 197.5,96.5 Z"/></g>
<g><path style="opacity:1" fill="#afd4fa" d="M 397.5,100.5 C 413.5,112.167 429.5,123.833 445.5,135.5C 442.126,139.876 438.126,143.542 433.5,146.5C 433.489,144.983 432.823,143.816 431.5,143C 415.315,130.97 399.315,118.803 383.5,106.5C 388.162,104.503 392.829,102.503 397.5,100.5 Z"/></g>
<g><path style="opacity:1" fill="#afd4fa" d="M 115.5,101.5 C 120.617,103.226 125.617,105.226 130.5,107.5C 114.766,122.2 98.4323,136.2 81.5,149.5C 77.5181,146.848 73.8514,143.848 70.5,140.5C 85.8206,127.844 100.821,114.844 115.5,101.5 Z"/></g>
<g><path style="opacity:1" fill="#b3dafa" d="M 383.5,106.5 C 399.315,118.803 415.315,130.97 431.5,143C 432.823,143.816 433.489,144.983 433.5,146.5C 427.696,151.572 421.362,155.905 414.5,159.5C 397.512,148.326 381.179,136.159 365.5,123C 362.778,120.642 359.778,118.809 356.5,117.5C 365.022,112.876 374.022,109.209 383.5,106.5 Z"/></g>
<g><path style="opacity:1" fill="#b3dafa" d="M 130.5,107.5 C 139.733,110.016 148.4,113.683 156.5,118.5C 139.078,132.415 122.078,146.915 105.5,162C 104.552,162.483 103.552,162.649 102.5,162.5C 94.6996,159.347 87.6996,155.014 81.5,149.5C 98.4323,136.2 114.766,122.2 130.5,107.5 Z"/></g>
<g><path style="opacity:1" fill="#bbdafa" d="M 356.5,117.5 C 359.778,118.809 362.778,120.642 365.5,123C 381.179,136.159 397.512,148.326 414.5,159.5C 412.337,161.083 410.004,162.416 407.5,163.5C 387.954,149.893 368.954,135.56 350.5,120.5C 352.181,118.992 354.181,117.992 356.5,117.5 Z"/></g>
<g><path style="opacity:1" fill="#bbdafa" d="M 156.5,118.5 C 158.819,118.992 160.819,119.992 162.5,121.5C 145.72,137.619 128.053,152.619 109.5,166.5C 106.9,165.532 104.566,164.199 102.5,162.5C 103.552,162.649 104.552,162.483 105.5,162C 122.078,146.915 139.078,132.415 156.5,118.5 Z"/></g>
<g><path style="opacity:1" fill="#bbe1fa" d="M 350.5,120.5 C 368.954,135.56 387.954,149.893 407.5,163.5C 403.918,165.12 400.918,167.453 398.5,170.5C 379.281,156.064 360.281,141.397 341.5,126.5C 343.975,123.759 346.975,121.759 350.5,120.5 Z"/></g>
<g><path style="opacity:1" fill="#bbe1fa" d="M 162.5,121.5 C 166.221,123.354 169.554,125.687 172.5,128.5C 139.043,156.413 105.71,184.58 72.5,213C 70.2101,214.777 68.5434,216.944 67.5,219.5C 64.4208,216.35 62.0875,212.683 60.5,208.5C 61.9217,208.291 63.255,207.791 64.5,207C 76.0986,196.225 88.0986,186.058 100.5,176.5C 106.25,179.795 110.25,178.295 112.5,172C 111.876,169.915 110.876,168.082 109.5,166.5C 128.053,152.619 145.72,137.619 162.5,121.5 Z"/></g>
<g><path style="opacity:1" fill="#c0e1fa" d="M 341.5,126.5 C 360.281,141.397 379.281,156.064 398.5,170.5C 398.582,174.585 400.582,177.252 404.5,178.5C 409.188,176.488 413.855,174.488 418.5,172.5C 430.5,182.167 442.5,191.833 454.5,201.5C 450.652,210.541 445.319,218.541 438.5,225.5C 438.079,223.09 436.746,221.257 434.5,220C 398.673,193.001 363.006,165.834 327.5,138.5C 331.258,133.406 335.925,129.406 341.5,126.5 Z"/></g>
<g><path style="opacity:1" fill="#c1e1fa" d="M 172.5,128.5 C 177.794,132.127 182.461,136.46 186.5,141.5C 185.504,141.586 184.671,141.252 184,140.5C 148.974,170.698 114.14,201.032 79.5,231.5C 74.5213,228.521 70.5213,224.521 67.5,219.5C 68.5434,216.944 70.2101,214.777 72.5,213C 105.71,184.58 139.043,156.413 172.5,128.5 Z"/></g>
<g><path style="opacity:1" fill="#fae18e" d="M 280.5,140.5 C 280.5,141.833 280.5,143.167 280.5,144.5C 261.091,144.18 241.757,144.513 222.5,145.5C 221.846,141.317 223.512,138.484 227.5,137C 243.833,136.333 260.167,136.333 276.5,137C 278.324,137.66 279.657,138.827 280.5,140.5 Z"/></g>
<g><path style="opacity:1" fill="#c7e1fa" d="M 327.5,138.5 C 363.006,165.834 398.673,193.001 434.5,220C 436.746,221.257 438.079,223.09 438.5,225.5C 437.167,227.5 435.5,229.167 433.5,230.5C 396.167,202.167 358.833,173.833 321.5,145.5C 322.8,142.568 324.8,140.234 327.5,138.5 Z"/></g>
<g><path style="opacity:1" fill="#c7e1fa" d="M 186.5,141.5 C 187.803,143.142 189.136,144.809 190.5,146.5C 156.526,176.302 122.359,205.968 88,235.5C 87.5304,236.577 87.6971,237.577 88.5,238.5C 84.9485,236.889 81.9485,234.556 79.5,231.5C 114.14,201.032 148.974,170.698 184,140.5C 184.671,141.252 185.504,141.586 186.5,141.5 Z"/></g>
<g><path style="opacity:1" fill="#fae189" d="M 280.5,140.5 C 281.638,143.304 281.805,146.304 281,149.5C 279.066,158.438 277.566,167.438 276.5,176.5C 260.325,176.17 244.325,176.504 228.5,177.5C 226.518,166.957 224.518,156.29 222.5,145.5C 241.757,144.513 261.091,144.18 280.5,144.5C 280.5,143.167 280.5,141.833 280.5,140.5 Z"/></g>
<g><path style="opacity:1" fill="#aed4fa" d="M 465.5,168.5 C 458.467,163.984 451.8,158.984 445.5,153.5C 447.962,150.536 450.629,147.703 453.5,145C 456.03,143.578 458.697,143.245 461.5,144C 463.771,147.075 464.937,150.575 465,154.5C 465.499,159.155 465.666,163.821 465.5,168.5 Z"/></g>
<g><path style="opacity:1" fill="#c9e7fa" d="M 321.5,145.5 C 358.833,173.833 396.167,202.167 433.5,230.5C 430.81,233.185 427.81,235.518 424.5,237.5C 407.714,225.261 391.047,212.761 374.5,200C 373.552,199.517 372.552,199.351 371.5,199.5C 356.552,184.796 338.552,178.963 317.5,182C 310.167,179.356 307.334,174.189 309,166.5C 312.172,158.808 316.339,151.808 321.5,145.5 Z"/></g>
<g><path style="opacity:1" fill="#c9e7fa" d="M 190.5,146.5 C 195.078,152.646 198.912,159.313 202,166.5C 203.666,174.189 200.833,179.356 193.5,182C 169.227,178.524 149.727,186.357 135,205.5C 133.259,208.309 132.092,211.309 131.5,214.5C 119.472,224.201 107.472,233.868 95.5,243.5C 92.8646,242.189 90.5313,240.522 88.5,238.5C 87.6971,237.577 87.5304,236.577 88,235.5C 122.359,205.968 156.526,176.302 190.5,146.5 Z"/></g>
<g><path style="opacity:1" fill="#add4fa" d="M 71.5,158.5 C 63.7977,165.537 55.7977,172.203 47.5,178.5C 45.5999,170.302 45.0999,161.969 46,153.5C 45.7606,144.712 49.594,141.878 57.5,145C 62.062,149.731 66.7287,154.231 71.5,158.5 Z"/></g>
<g><path style="opacity:1" fill="#b5dafa" d="M 445.5,153.5 C 451.8,158.984 458.467,163.984 465.5,168.5C 464.005,180.319 460.338,191.319 454.5,201.5C 442.5,191.833 430.5,182.167 418.5,172.5C 427.667,166.415 436.667,160.082 445.5,153.5 Z"/></g>
<g><path style="opacity:1" fill="#b5dafa" d="M 71.5,158.5 C 81.007,164.754 90.6736,170.754 100.5,176.5C 88.0986,186.058 76.0986,196.225 64.5,207C 63.255,207.791 61.9217,208.291 60.5,208.5C 54.0156,199.522 49.6823,189.522 47.5,178.5C 55.7977,172.203 63.7977,165.537 71.5,158.5 Z"/></g>
<g><path style="opacity:1" fill="#fae083" d="M 276.5,176.5 C 275.99,179.983 275.323,183.316 274.5,186.5C 259.5,185.167 244.5,185.167 229.5,186.5C 228.523,183.713 228.19,180.713 228.5,177.5C 244.325,176.504 260.325,176.17 276.5,176.5 Z"/></g>
<g><path style="opacity:1" fill="#fada82" d="M 274.5,186.5 C 273.945,194.822 273.612,203.156 273.5,211.5C 272.566,210.432 272.232,209.099 272.5,207.5C 258.255,208.122 244.255,207.455 230.5,205.5C 230.233,199.162 229.9,192.829 229.5,186.5C 244.5,185.167 259.5,185.167 274.5,186.5 Z"/></g>
<g><path style="opacity:1" fill="#cee7fa" d="M 371.5,199.5 C 372.552,199.351 373.552,199.517 374.5,200C 391.047,212.761 407.714,225.261 424.5,237.5C 414.936,244.613 404.269,249.613 392.5,252.5C 384.683,251.373 380.35,246.873 379.5,239C 383.542,224.376 380.875,211.209 371.5,199.5 Z"/></g>
<g><path style="opacity:1" fill="#fada7d" d="M 230.5,205.5 C 244.255,207.455 258.255,208.122 272.5,207.5C 272.232,209.099 272.566,210.432 273.5,211.5C 274.327,218.325 277.327,223.991 282.5,228.5C 262.546,227.524 242.546,227.19 222.5,227.5C 228.518,221.45 231.185,214.116 230.5,205.5 Z"/></g>
<g><path style="opacity:1" fill="#cee7fa" d="M 131.5,214.5 C 128.915,222.616 128.915,230.783 131.5,239C 130.65,246.873 126.317,251.373 118.5,252.5C 110.427,250.477 102.76,247.477 95.5,243.5C 107.472,233.868 119.472,224.201 131.5,214.5 Z"/></g>
<g><path style="opacity:1" fill="#fad47c" d="M 222.5,227.5 C 242.546,227.19 262.546,227.524 282.5,228.5C 287.167,231.627 292.334,233.294 298,233.5C 310.817,232.075 323.651,231.241 336.5,231C 338.259,232.008 339.426,233.508 340,235.5C 340.497,238.146 340.664,240.813 340.5,243.5C 281.167,243.5 221.833,243.5 162.5,243.5C 162.335,240.15 162.502,236.817 163,233.5C 163.833,232.667 164.667,231.833 165.5,231C 179.233,230.895 192.9,231.728 206.5,233.5C 212.287,232.602 217.62,230.602 222.5,227.5 Z"/></g>
<g><path style="opacity:1" fill="#fad375" d="M 162.5,243.5 C 221.833,243.5 281.167,243.5 340.5,243.5C 340.805,252.917 340.472,262.25 339.5,271.5C 296.736,270.17 254.069,270.17 211.5,271.5C 196.134,272.138 180.8,272.971 165.5,274C 164.667,273.167 163.833,272.333 163,271.5C 162.5,262.173 162.334,252.839 162.5,243.5 Z"/></g>
<g><path style="opacity:1" fill="#face75" d="M 211.5,271.5 C 254.069,270.17 296.736,270.17 339.5,271.5C 337.9,273.939 335.567,275.272 332.5,275.5C 320.686,274.017 308.853,272.684 297,271.5C 293.018,272.061 289.185,273.061 285.5,274.5C 264.36,275.134 243.36,275.8 222.5,276.5C 219.226,274.03 215.559,272.364 211.5,271.5 Z"/></g>
<g><path style="opacity:1" fill="#face6f" d="M 285.5,274.5 C 274.797,281.892 270.463,292.226 272.5,305.5C 272.5,307.833 272.5,310.167 272.5,312.5C 258.833,312.5 245.167,312.5 231.5,312.5C 231.5,310.5 231.5,308.5 231.5,306.5C 231.829,299.759 231.329,293.092 230,286.5C 227.99,282.676 225.49,279.342 222.5,276.5C 243.36,275.8 264.36,275.134 285.5,274.5 Z"/></g>
<g><path style="opacity:1" fill="#fac76a" d="M 272.5,305.5 C 273.71,316.001 274.71,326.668 275.5,337.5C 259.756,337.183 244.089,337.516 228.5,338.5C 229.29,327.668 230.29,317.001 231.5,306.5C 231.5,308.5 231.5,310.5 231.5,312.5C 245.167,312.5 258.833,312.5 272.5,312.5C 272.5,310.167 272.5,307.833 272.5,305.5 Z"/></g>
<g><path style="opacity:1" fill="#fac764" d="M 275.5,337.5 C 276.368,346.182 277.368,354.848 278.5,363.5C 260.672,361.842 243.006,362.175 225.5,364.5C 226.632,355.848 227.632,347.182 228.5,338.5C 244.089,337.516 259.756,337.183 275.5,337.5 Z"/></g>
<g><path style="opacity:1" fill="#fac163" d="M 278.5,363.5 C 279.114,367.135 279.448,370.802 279.5,374.5C 261.243,373.514 242.91,373.18 224.5,373.5C 224.704,370.482 225.037,367.482 225.5,364.5C 243.006,362.175 260.672,361.842 278.5,363.5 Z"/></g>
<g><path style="opacity:1" fill="#fac15c" d="M 224.5,373.5 C 242.91,373.18 261.243,373.514 279.5,374.5C 281.295,383.73 282.628,393.064 283.5,402.5C 283.5,403.5 283.5,404.5 283.5,405.5C 261.935,406.138 240.602,405.471 219.5,403.5C 221.535,393.594 223.202,383.594 224.5,373.5 Z"/></g>
<g><path style="opacity:1" fill="#faba57" d="M 283.5,402.5 C 286.117,413.6 288.117,424.933 289.5,436.5C 264.5,436.5 239.5,436.5 214.5,436.5C 216.275,425.518 217.941,414.518 219.5,403.5C 240.602,405.471 261.935,406.138 283.5,405.5C 283.5,404.5 283.5,403.5 283.5,402.5 Z"/></g>
<g><path style="opacity:1" fill="#fabb50" d="M 214.5,436.5 C 239.5,436.5 264.5,436.5 289.5,436.5C 290.913,439.219 291.58,442.219 291.5,445.5C 278.684,446.833 265.517,447.499 252,447.5C 238.662,447.5 225.496,447.167 212.5,446.5C 212.549,442.922 213.215,439.589 214.5,436.5 Z"/></g>
<g><path style="opacity:1" fill="#fab451" d="M 291.5,445.5 C 293.799,451.531 294.632,457.864 294,464.5C 293.167,465.333 292.333,466.167 291.5,467C 265.167,467.667 238.833,467.667 212.5,467C 210.408,465.147 209.408,462.814 209.5,460C 210.075,455.275 211.075,450.775 212.5,446.5C 225.496,447.167 238.662,447.5 252,447.5C 265.517,447.499 278.684,446.833 291.5,445.5 Z"/></g>
</svg>
