<?xml version="1.0" encoding="UTF-8"?>
<!DOCTYPE svg PUBLIC "-//W3C//DTD SVG 1.1//EN" "http://www.w3.org/Graphics/SVG/1.1/DTD/svg11.dtd">
<svg xmlns="http://www.w3.org/2000/svg" version="1.1" width="512px" height="512px" style="shape-rendering:geometricPrecision; text-rendering:geometricPrecision; image-rendering:optimizeQuality; fill-rule:evenodd; clip-rule:evenodd" xmlns:xlink="http://www.w3.org/1999/xlink">
<g><path style="opacity:1" fill="#d4f2bb" d="M 208.5,54.5 C 188.873,52.2037 169.206,50.037 149.5,48C 148.944,47.6174 148.611,47.1174 148.5,46.5C 162.249,40.6459 176.583,38.1459 191.5,39C 197.915,40.1237 203.415,42.957 208,47.5C 208.497,49.8098 208.663,52.1432 208.5,54.5 Z"/></g>
<g><path style="opacity:1" fill="#d4f2bb" d="M 430.5,77.5 C 429.726,78.1471 428.726,78.4805 427.5,78.5C 407.534,76.1034 387.534,74.1034 367.5,72.5C 365.565,71.8505 363.565,71.5172 361.5,71.5C 336.943,62.3839 311.61,60.0506 285.5,64.5C 282.455,64.6035 280.788,63.1035 280.5,60C 280.759,58.7387 281.426,57.7387 282.5,57C 317.146,39.9281 353.146,36.2614 390.5,46C 404.035,50.0117 415.535,57.1784 425,67.5C 427.112,70.7271 428.945,74.0604 430.5,77.5 Z"/></g>
<g><path style="opacity:1" fill="#cfedbb" d="M 148.5,46.5 C 148.611,47.1174 148.944,47.6174 149.5,48C 169.206,50.037 188.873,52.2037 208.5,54.5C 208.047,55.4584 207.381,56.2917 206.5,57C 176.975,63.5558 149.641,75.0558 124.5,91.5C 123.306,90.2227 121.64,89.5561 119.5,89.5C 110.156,88.499 100.823,87.499 91.5,86.5C 107.708,69.3079 126.708,55.9746 148.5,46.5 Z"/></g>
<g><path style="opacity:1" fill="#cfedb9" d="M 236.5,71.5 C 241.697,70.7558 244.697,72.9224 245.5,78C 244.024,83.1382 240.69,84.8049 235.5,83C 231.376,78.6949 231.709,74.8615 236.5,71.5 Z"/></g>
<g><path style="opacity:1" fill="#579683" d="M 361.5,71.5 C 365.865,85.9363 371.198,99.9363 377.5,113.5C 376.299,115.909 374.633,117.909 372.5,119.5C 371.833,119.833 371.167,120.167 370.5,120.5C 369.713,117.592 368.38,114.926 366.5,112.5C 360.956,99.4052 355.956,86.0719 351.5,72.5C 354.833,72.1667 358.167,71.8333 361.5,71.5 Z"/></g>
<g><path style="opacity:1" fill="#569082" d="M 361.5,71.5 C 363.565,71.5172 365.565,71.8505 367.5,72.5C 379.994,78.4766 385.494,88.4766 384,102.5C 382.828,106.858 380.661,110.525 377.5,113.5C 371.198,99.9363 365.865,85.9363 361.5,71.5 Z"/></g>
<g><path style="opacity:1" fill="#5e9a8a" d="M 351.5,72.5 C 355.956,86.0719 360.956,99.4052 366.5,112.5C 358.702,108.465 350.368,106.132 341.5,105.5C 337.544,95.2877 333.211,85.2877 328.5,75.5C 336.107,74.0907 343.774,73.0907 351.5,72.5 Z"/></g>
<g><path style="opacity:1" fill="#68a593" d="M 328.5,75.5 C 333.211,85.2877 337.544,95.2877 341.5,105.5C 331.484,105.453 321.484,105.787 311.5,106.5C 308.167,98.1667 304.833,89.8333 301.5,81.5C 310.362,78.9938 319.362,76.9938 328.5,75.5 Z"/></g>
<g><path style="opacity:1" fill="#73b19c" d="M 301.5,81.5 C 304.833,89.8333 308.167,98.1667 311.5,106.5C 301.836,108.437 292.169,110.77 282.5,113.5C 278.15,106.467 275.15,98.7999 273.5,90.5C 282.694,87.1021 292.027,84.1021 301.5,81.5 Z"/></g>
<g><path style="opacity:1" fill="#c8edba" d="M 91.5,86.5 C 100.823,87.499 110.156,88.499 119.5,89.5C 121.64,89.5561 123.306,90.2227 124.5,91.5C 118.5,95.8333 112.5,100.167 106.5,104.5C 96.7283,102.82 87.0616,101.82 77.5,101.5C 81.4608,95.8714 86.1275,90.8714 91.5,86.5 Z"/></g>
<g><path style="opacity:1" fill="#cfecba" d="M 367.5,72.5 C 387.534,74.1034 407.534,76.1034 427.5,78.5C 428.726,78.4805 429.726,78.1471 430.5,77.5C 436.604,95.0879 433.937,111.421 422.5,126.5C 406.924,124.343 391.257,122.51 375.5,121C 374.263,120.768 373.263,120.268 372.5,119.5C 374.633,117.909 376.299,115.909 377.5,113.5C 380.661,110.525 382.828,106.858 384,102.5C 385.494,88.4766 379.994,78.4766 367.5,72.5 Z"/></g>
<g><path style="opacity:1" fill="#80bea7" d="M 273.5,90.5 C 275.15,98.7999 278.15,106.467 282.5,113.5C 273.032,116.1 263.699,119.1 254.5,122.5C 252.183,116.526 249.849,110.526 247.5,104.5C 247.863,103.817 248.196,103.15 248.5,102.5C 256.403,97.716 264.736,93.716 273.5,90.5 Z"/></g>
<g><path style="opacity:1" fill="#c9edbb" d="M 168.5,116.5 C 160.427,115.76 152.427,114.76 144.5,113.5C 159.05,103.303 175.05,95.9693 192.5,91.5C 196.278,91.5022 197.278,93.1689 195.5,96.5C 186.263,102.941 177.263,109.608 168.5,116.5 Z"/></g>
<g><path style="opacity:1" fill="#c8e7ba" d="M 77.5,101.5 C 87.0616,101.82 96.7283,102.82 106.5,104.5C 100.472,110.86 94.4722,117.193 88.5,123.5C 80.7194,121.852 72.7194,120.852 64.5,120.5C 68.1049,113.609 72.4382,107.275 77.5,101.5 Z"/></g>
<g><path style="opacity:1" fill="#8ccbb2" d="M 248.5,102.5 C 248.196,103.15 247.863,103.817 247.5,104.5C 249.849,110.526 252.183,116.526 254.5,122.5C 245.231,126.799 235.898,131.132 226.5,135.5C 224.695,130.084 222.695,124.751 220.5,119.5C 229.159,112.832 238.493,107.165 248.5,102.5 Z"/></g>
<g><path style="opacity:1" fill="#c7e7ba" d="M 144.5,113.5 C 152.427,114.76 160.427,115.76 168.5,116.5C 162.101,122.894 156.101,129.561 150.5,136.5C 140.131,135.83 129.797,134.83 119.5,133.5C 126.674,125.32 135.007,118.654 144.5,113.5 Z"/></g>
<g><path style="opacity:1" fill="#c0e7ba" d="M 64.5,120.5 C 72.7194,120.852 80.7194,121.852 88.5,123.5C 79.5469,134.806 72.2135,147.139 66.5,160.5C 61.4817,159.898 56.4817,159.232 51.5,158.5C 53.054,144.837 57.3873,132.17 64.5,120.5 Z"/></g>
<g><path style="opacity:1" fill="#c8ecba" d="M 372.5,119.5 C 373.263,120.268 374.263,120.768 375.5,121C 391.257,122.51 406.924,124.343 422.5,126.5C 418.74,131.683 414.74,136.683 410.5,141.5C 390.137,139.793 369.804,137.793 349.5,135.5C 356.755,130.92 363.755,125.92 370.5,120.5C 371.167,120.167 371.833,119.833 372.5,119.5 Z"/></g>
<g><path style="opacity:1" fill="#c9ecba" d="M 459.5,146.5 C 450.588,146.411 441.921,145.411 433.5,143.5C 437.702,137.607 442.036,131.774 446.5,126C 455.202,123.188 460.202,126.355 461.5,135.5C 460.938,139.206 460.271,142.873 459.5,146.5 Z"/></g>
<g><path style="opacity:1" fill="#99d8ba" d="M 220.5,119.5 C 222.695,124.751 224.695,130.084 226.5,135.5C 216.543,140.145 206.876,145.312 197.5,151C 192.014,152.825 189.514,150.992 190,145.5C 199.175,135.521 209.342,126.855 220.5,119.5 Z"/></g>
<g><path style="opacity:1" fill="#bfe7ba" d="M 119.5,133.5 C 129.797,134.83 140.131,135.83 150.5,136.5C 145.315,143.532 141.148,151.198 138,159.5C 136.693,166.332 137.86,172.665 141.5,178.5C 125.4,177.357 109.4,175.69 93.5,173.5C 94.0915,168.558 95.5915,163.892 98,159.5C 103.899,149.769 111.066,141.103 119.5,133.5 Z"/></g>
<g><path style="opacity:1" fill="#c8e7ba" d="M 349.5,135.5 C 369.804,137.793 390.137,139.793 410.5,141.5C 407.887,144.883 408.053,148.217 411,151.5C 415.367,155.267 419.867,155.433 424.5,152C 427.369,148.962 430.369,146.129 433.5,143.5C 441.921,145.411 450.588,146.411 459.5,146.5C 456.431,154.981 452.098,162.648 446.5,169.5C 445.306,168.223 443.64,167.556 441.5,167.5C 398.971,163.256 356.637,158.589 314.5,153.5C 326.323,147.755 337.99,141.755 349.5,135.5 Z"/></g>
<g><path style="opacity:1" fill="#c0e7ba" d="M 314.5,153.5 C 356.637,158.589 398.971,163.256 441.5,167.5C 443.64,167.556 445.306,168.223 446.5,169.5C 442.909,175.098 438.909,180.431 434.5,185.5C 435.348,187.283 436.681,187.783 438.5,187C 444.094,184.287 449.594,181.453 455,178.5C 456.473,178.903 457.806,179.57 459,180.5C 460.551,187.418 460.884,194.418 460,201.5C 459.502,205.491 458.335,209.158 456.5,212.5C 426.567,208.952 396.567,205.619 366.5,202.5C 369.799,198.736 372.465,194.569 374.5,190C 371.549,180.431 365.549,177.764 356.5,182C 350.114,185.193 343.78,188.36 337.5,191.5C 336.391,190.71 335.058,190.21 333.5,190C 306.667,187.167 279.833,184.333 253,181.5C 251.014,181.431 249.514,180.765 248.5,179.5C 271.027,172.212 293.027,163.546 314.5,153.5 Z"/></g>
<g><path style="opacity:1" fill="#bae1ba" d="M 51.5,158.5 C 56.4817,159.232 61.4817,159.898 66.5,160.5C 62.1112,169.375 58.9445,178.708 57,188.5C 55.33,190.698 53.33,191.032 51,189.5C 48.9137,178.984 49.0803,168.65 51.5,158.5 Z"/></g>
<g><path style="opacity:1" fill="#bbe1ba" d="M 93.5,173.5 C 109.4,175.69 125.4,177.357 141.5,178.5C 144.003,180.833 146.669,182.999 149.5,185C 172.682,191.804 196.016,192.304 219.5,186.5C 254.355,190.687 289.355,194.687 324.5,198.5C 309.708,206.561 294.375,213.561 278.5,219.5C 277.306,218.223 275.64,217.556 273.5,217.5C 216.492,211.499 159.492,205.499 102.5,199.5C 94.761,192.621 91.761,183.955 93.5,173.5 Z"/></g>
<g><path style="opacity:1" fill="#bbe6ba" d="M 248.5,179.5 C 249.514,180.765 251.014,181.431 253,181.5C 279.833,184.333 306.667,187.167 333.5,190C 335.058,190.21 336.391,190.71 337.5,191.5C 333.653,194.593 329.32,196.926 324.5,198.5C 289.355,194.687 254.355,190.687 219.5,186.5C 229.286,184.637 238.952,182.304 248.5,179.5 Z"/></g>
<g><path style="opacity:1" fill="#b5e1ba" d="M 102.5,199.5 C 159.492,205.499 216.492,211.499 273.5,217.5C 275.64,217.556 277.306,218.223 278.5,219.5C 247.925,231.374 216.259,236.54 183.5,235C 162.612,233.712 144.279,226.378 128.5,213C 123.177,211.006 117.843,209.006 112.5,207C 108.7,205.021 105.366,202.521 102.5,199.5 Z"/></g>
<g><path style="opacity:1" fill="#bae1ba" d="M 366.5,202.5 C 396.567,205.619 426.567,208.952 456.5,212.5C 453.086,221.008 448.419,228.675 442.5,235.5C 406.149,231.565 369.816,227.565 333.5,223.5C 344.323,216.253 355.323,209.253 366.5,202.5 Z"/></g>
<g><path style="opacity:1" fill="#b4e1ba" d="M 333.5,223.5 C 369.816,227.565 406.149,231.565 442.5,235.5C 441.743,248.475 441.243,261.475 441,274.5C 440.665,278.736 439.832,282.736 438.5,286.5C 430.129,285.697 421.796,284.697 413.5,283.5C 416.137,276.065 416.97,268.398 416,260.5C 413.963,262.706 411.797,264.706 409.5,266.5C 389.5,263.833 369.5,261.167 349.5,258.5C 355.12,254.382 360.287,249.715 365,244.5C 365.832,239.48 363.665,236.48 358.5,235.5C 335.97,243.924 312.803,249.924 289,253.5C 284.669,252.201 283.836,249.868 286.5,246.5C 302.342,239.078 318.009,231.412 333.5,223.5 Z"/></g>
<g><path style="opacity:1" fill="#70ba9d" d="M 83.5,247.5 C 83.6309,246.624 83.2975,245.957 82.5,245.5C 75.428,242.215 68.5947,238.548 62,234.5C 61.6174,235.056 61.1174,235.389 60.5,235.5C 61.7671,231.743 64.4338,229.576 68.5,229C 81.5317,228.852 86.5317,235.019 83.5,247.5 Z"/></g>
<g><path style="opacity:1" fill="#6fb49c" d="M 83.5,247.5 C 78.6859,255.488 72.0192,257.321 63.5,253C 58.2388,247.763 57.2388,241.93 60.5,235.5C 61.1174,235.389 61.6174,235.056 62,234.5C 68.5947,238.548 75.428,242.215 82.5,245.5C 83.2975,245.957 83.6309,246.624 83.5,247.5 Z"/></g>
<g><path style="opacity:1" fill="#a7dab9" d="M 235.5,250.5 C 240.42,249.784 243.42,251.784 244.5,256.5C 242.547,262.811 238.714,264.144 233,260.5C 232.333,257.833 232.333,255.167 233,252.5C 233.995,251.934 234.828,251.267 235.5,250.5 Z"/></g>
<g><path style="opacity:1" fill="#afe1ba" d="M 349.5,258.5 C 369.5,261.167 389.5,263.833 409.5,266.5C 404.034,272.636 397.701,277.636 390.5,281.5C 367.864,278.903 345.197,276.57 322.5,274.5C 331.959,269.937 340.959,264.604 349.5,258.5 Z"/></g>
<g><path style="opacity:1" fill="#aedaba" d="M 322.5,274.5 C 345.197,276.57 367.864,278.903 390.5,281.5C 381.503,289.006 371.503,295.006 360.5,299.5C 328.617,296.879 296.951,293.546 265.5,289.5C 285.308,287.465 304.308,282.465 322.5,274.5 Z"/></g>
<g><path style="opacity:1" fill="#a8daba" d="M 177.5,309.5 C 164.834,308.5 152.168,307.5 139.5,306.5C 138.831,296.51 140.997,287.177 146,278.5C 148.664,274.165 151.997,273.499 156,276.5C 158.997,290.309 166.163,301.309 177.5,309.5 Z"/></g>
<g><path style="opacity:1" fill="#a8daba" d="M 265.5,289.5 C 296.951,293.546 328.617,296.879 360.5,299.5C 335.634,311.784 309.301,319.451 281.5,322.5C 280.486,321.235 278.986,320.569 277,320.5C 251.98,317.586 227.146,315.253 202.5,313.5C 189.782,303.068 184.615,289.734 187,273.5C 191.06,266.091 197.226,261.924 205.5,261C 206,261.5 206.5,262 207,262.5C 210.549,279.392 221.049,288.559 238.5,290C 247.523,290.681 256.523,290.514 265.5,289.5 Z"/></g>
<g><path style="opacity:1" fill="#a9daba" d="M 413.5,283.5 C 421.796,284.697 430.129,285.697 438.5,286.5C 435.667,302.498 428.834,316.498 418,328.5C 415.894,331.118 413.394,333.118 410.5,334.5C 392.657,332.818 374.99,330.818 357.5,328.5C 379.403,324.056 396.57,312.722 409,294.5C 411.066,291.039 412.566,287.373 413.5,283.5 Z"/></g>
<g><path style="opacity:1" fill="#a3d9b5" d="M 139.5,306.5 C 152.168,307.5 164.834,308.5 177.5,309.5C 187.415,315.194 198.082,318.361 209.5,319C 206.734,317.629 204.401,315.796 202.5,313.5C 227.146,315.253 251.98,317.586 277,320.5C 278.986,320.569 280.486,321.235 281.5,322.5C 278.513,322.998 275.513,323.498 272.5,324C 300.35,334.411 328.683,335.911 357.5,328.5C 374.99,330.818 392.657,332.818 410.5,334.5C 405.719,339.727 400.052,343.727 393.5,346.5C 309.138,338.126 224.805,329.46 140.5,320.5C 139.771,315.87 139.437,311.203 139.5,306.5 Z"/></g>
<g><path style="opacity:1" fill="#a2d4b5" d="M 140.5,320.5 C 224.805,329.46 309.138,338.126 393.5,346.5C 378.312,354.888 361.979,360.054 344.5,362C 335.2,363.128 325.866,363.628 316.5,363.5C 261.698,357.076 207.032,351.409 152.5,346.5C 146.904,338.637 142.904,329.971 140.5,320.5 Z"/></g>
<g><path style="opacity:1" fill="#9bd4b5" d="M 188.5,389.5 C 187.378,390.156 186.045,390.489 184.5,390.5C 165.839,388.367 147.173,386.367 128.5,384.5C 122.408,377.326 117.575,369.326 114,360.5C 112.529,354.569 112.196,348.569 113,342.5C 115.667,339.833 118.333,339.833 121,342.5C 136.849,367.678 159.349,383.345 188.5,389.5 Z"/></g>
<g><path style="opacity:1" fill="#9cd4b5" d="M 316.5,363.5 C 312.696,366.801 313.363,369.301 318.5,371C 333.494,374.636 348.66,376.47 364,376.5C 365.701,379.249 365.367,381.916 363,384.5C 358.226,391.112 352.393,396.445 345.5,400.5C 299.853,394.835 254.186,390.169 208.5,386.5C 184.131,380.996 165.464,367.663 152.5,346.5C 207.032,351.409 261.698,357.076 316.5,363.5 Z"/></g>
<g><path style="opacity:1" fill="#97d3b5" d="M 94.5,379.5 C 86.8998,379.811 79.2331,379.811 71.5,379.5C 71.6889,374.433 73.1889,369.766 76,365.5C 79.2709,362.803 82.2709,363.136 85,366.5C 87.6871,371.218 90.8538,375.551 94.5,379.5 Z"/></g>
<g><path style="opacity:1" fill="#96ceb5" d="M 94.5,379.5 C 106.089,389.531 119.422,393.364 134.5,391C 132.294,388.963 130.294,386.797 128.5,384.5C 147.173,386.367 165.839,388.367 184.5,390.5C 186.045,390.489 187.378,390.156 188.5,389.5C 193.711,390.815 199.044,391.482 204.5,391.5C 246.943,396.938 289.61,401.772 332.5,406C 333.737,406.232 334.737,406.732 335.5,407.5C 313.366,417.015 290.366,419.849 266.5,416C 260.323,421.253 253.656,425.753 246.5,429.5C 189.703,422.92 132.703,416.92 75.5,411.5C 75.7373,410.209 75.404,409.209 74.5,408.5C 76.2167,401.568 75.3834,394.902 72,388.5C 71.502,385.518 71.3354,382.518 71.5,379.5C 79.2331,379.811 86.8998,379.811 94.5,379.5 Z"/></g>
<g><path style="opacity:1" fill="#95d4b4" d="M 345.5,400.5 C 342.554,403.313 339.221,405.646 335.5,407.5C 334.737,406.732 333.737,406.232 332.5,406C 289.61,401.772 246.943,396.938 204.5,391.5C 208.255,391.437 209.588,389.77 208.5,386.5C 254.186,390.169 299.853,394.835 345.5,400.5 Z"/></g>
<g><path style="opacity:1" fill="#8fceb5" d="M 74.5,408.5 C 75.404,409.209 75.7373,410.209 75.5,411.5C 132.703,416.92 189.703,422.92 246.5,429.5C 223.224,439.832 199.724,440.166 176,430.5C 155.886,436.113 135.886,435.779 116,429.5C 115.5,429.667 115,429.833 114.5,430C 118.636,438.966 124.969,445.799 133.5,450.5C 118.684,448.802 103.851,447.135 89,445.5C 87.6153,445.514 86.4486,445.848 85.5,446.5C 81.1161,441.733 78.2828,436.066 77,429.5C 75.6911,422.553 74.8578,415.553 74.5,408.5 Z"/></g>
<g><path style="opacity:1" fill="#89c8b4" d="M 133.5,450.5 C 143.396,454.514 153.562,457.514 164,459.5C 164.667,461.167 164.667,462.833 164,464.5C 152.864,471.656 140.697,474.156 127.5,472C 113.408,469.453 101.075,463.453 90.5,454C 88.5854,451.6 86.9188,449.1 85.5,446.5C 86.4486,445.848 87.6153,445.514 89,445.5C 103.851,447.135 118.684,448.802 133.5,450.5 Z"/></g>
</svg>
