<?xml version="1.0" encoding="UTF-8"?>
<!DOCTYPE svg PUBLIC "-//W3C//DTD SVG 1.1//EN" "http://www.w3.org/Graphics/SVG/1.1/DTD/svg11.dtd">
<svg xmlns="http://www.w3.org/2000/svg" version="1.1" width="512px" height="512px" style="shape-rendering:geometricPrecision; text-rendering:geometricPrecision; image-rendering:optimizeQuality; fill-rule:evenodd; clip-rule:evenodd" xmlns:xlink="http://www.w3.org/1999/xlink">
<g><path style="opacity:1" fill="#a3afe0" d="M 147.5,58.5 C 143.024,62.5746 138.024,65.9079 132.5,68.5C 130.205,64.2688 126.538,62.2688 121.5,62.5C 122.656,66.7925 123.656,71.1259 124.5,75.5C 113.796,83.1788 103.129,90.8455 92.5,98.5C 89.8977,94.2943 87.5643,89.961 85.5,85.5C 81.6731,75.8657 79.8398,65.8657 80,55.5C 83.7429,48.7052 89.2429,43.8719 96.5,41C 100.072,39.5951 103.739,39.2617 107.5,40C 120.724,46.6725 134.057,52.8391 147.5,58.5 Z"/></g>
<g><path style="opacity:1" fill="#a3afe0" d="M 425.5,85.5 C 423.436,89.961 421.102,94.2943 418.5,98.5C 407.781,90.451 396.781,82.7844 385.5,75.5C 387.795,71.0022 388.795,66.3356 388.5,61.5C 384.005,62.395 380.672,64.7283 378.5,68.5C 372.976,65.9079 367.976,62.5746 363.5,58.5C 376.943,52.8391 390.276,46.6725 403.5,40C 407.261,39.2617 410.928,39.5951 414.5,41C 421.757,43.8719 427.257,48.7052 431,55.5C 431.16,65.8657 429.327,75.8657 425.5,85.5 Z"/></g>
<g><path style="opacity:1" fill="#9ba7d9" d="M 228.5,65.5 C 219.258,73.1334 209.591,80.3 199.5,87C 197.93,88.3968 196.596,89.8968 195.5,91.5C 195.896,88.9556 195.229,86.7889 193.5,85C 189.016,84.269 184.682,84.769 180.5,86.5C 171.318,86.8266 162.318,86.4933 153.5,85.5C 155.783,85.3921 157.783,84.5588 159.5,83C 169.684,75.6366 179.684,68.1366 189.5,60.5C 197.871,57.7464 206.538,56.2464 215.5,56C 220.555,58.2282 224.889,61.3948 228.5,65.5 Z"/></g>
<g><path style="opacity:1" fill="#9ba7d9" d="M 321.5,60.5 C 332.883,69.2142 344.55,77.5475 356.5,85.5C 348.016,86.493 339.349,86.8264 330.5,86.5C 327.582,85.5462 324.582,84.8795 321.5,84.5C 318.692,84.0777 316.692,85.0777 315.5,87.5C 314.778,87.9175 314.278,88.5842 314,89.5C 303.547,81.2002 292.713,73.5335 281.5,66.5C 285.439,62.0656 290.105,58.5656 295.5,56C 304.462,56.2464 313.129,57.7464 321.5,60.5 Z"/></g>
<g><path style="opacity:1" fill="#a0aed9" d="M 147.5,58.5 C 161.416,62.3618 175.416,63.0284 189.5,60.5C 179.684,68.1366 169.684,75.6366 159.5,83C 157.783,84.5588 155.783,85.3921 153.5,85.5C 143.589,83.3841 136.589,77.7174 132.5,68.5C 138.024,65.9079 143.024,62.5746 147.5,58.5 Z"/></g>
<g><path style="opacity:1" fill="#a1aed9" d="M 363.5,58.5 C 367.976,62.5746 372.976,65.9079 378.5,68.5C 374.169,78.0044 366.835,83.6711 356.5,85.5C 344.55,77.5475 332.883,69.2142 321.5,60.5C 335.584,63.0284 349.584,62.3618 363.5,58.5 Z"/></g>
<g><path style="opacity:1" fill="#9aa7d3" d="M 228.5,65.5 C 236.347,70.199 239.681,77.199 238.5,86.5C 237.778,86.0825 237.278,85.4158 237,84.5C 218.667,97.8333 200.333,111.167 182,124.5C 181.536,123.906 181.369,123.239 181.5,122.5C 185.144,115.992 188.644,109.325 192,102.5C 193.274,98.8463 194.44,95.1796 195.5,91.5C 196.596,89.8968 197.93,88.3968 199.5,87C 209.591,80.3 219.258,73.1334 228.5,65.5 Z"/></g>
<g><path style="opacity:1" fill="#9aa7d3" d="M 281.5,66.5 C 292.713,73.5335 303.547,81.2002 314,89.5C 314.278,88.5842 314.778,87.9175 315.5,87.5C 315.731,92.698 316.897,97.698 319,102.5C 322.356,109.325 325.856,115.992 329.5,122.5C 329.631,123.239 329.464,123.906 329,124.5C 310.372,110.779 291.538,97.4455 272.5,84.5C 271.825,76.5169 274.825,70.5169 281.5,66.5 Z"/></g>
<g><path style="opacity:1" fill="#a0aed9" d="M 124.5,75.5 C 129.415,82.992 134.081,90.6587 138.5,98.5C 128.142,105.01 118.142,112.01 108.5,119.5C 100.985,114.126 95.6521,107.126 92.5,98.5C 103.129,90.8455 113.796,83.1788 124.5,75.5 Z"/></g>
<g><path style="opacity:1" fill="#a0aed9" d="M 385.5,75.5 C 396.781,82.7844 407.781,90.451 418.5,98.5C 415.348,107.126 410.015,114.126 402.5,119.5C 392.858,112.01 382.858,105.01 372.5,98.5C 377.075,91.0228 381.408,83.3561 385.5,75.5 Z"/></g>
<g><path style="opacity:1" fill="#586496" d="M 195.5,91.5 C 194.44,95.1796 193.274,98.8463 192,102.5C 188.644,109.325 185.144,115.992 181.5,122.5C 180.523,125.287 180.19,128.287 180.5,131.5C 179.686,129.369 179.186,127.036 179,124.5C 148.013,145.732 117.18,167.066 86.5,188.5C 79.9486,186.558 73.9486,183.558 68.5,179.5C 59.7808,172.77 53.7808,164.103 50.5,153.5C 51.2485,151.668 52.2485,150.001 53.5,148.5C 55.6957,149.838 57.6957,151.505 59.5,153.5C 70.3741,166.771 84.3741,173.271 101.5,173C 109.338,170.832 114.005,165.832 115.5,158C 115.385,155.268 114.552,152.768 113,150.5C 109.308,147.635 105.808,144.635 102.5,141.5C 107.382,136.617 113.049,132.951 119.5,130.5C 122.947,132.397 126.28,134.563 129.5,137C 140.011,137.817 147.511,133.317 152,123.5C 153.392,118.093 152.226,113.426 148.5,109.5C 159.167,101.833 169.833,94.1667 180.5,86.5C 184.682,84.769 189.016,84.269 193.5,85C 195.229,86.7889 195.896,88.9556 195.5,91.5 Z"/></g>
<g><path style="opacity:1" fill="#95a1d3" d="M 238.5,86.5 C 237.995,112.675 228.328,134.842 209.5,153C 206.544,154.663 203.544,154.829 200.5,153.5C 196.589,149.866 192.256,146.699 187.5,144C 185.266,141.937 183.266,139.771 181.5,137.5C 181.167,135.5 180.833,133.5 180.5,131.5C 180.19,128.287 180.523,125.287 181.5,122.5C 181.369,123.239 181.536,123.906 182,124.5C 200.333,111.167 218.667,97.8333 237,84.5C 237.278,85.4158 237.778,86.0825 238.5,86.5 Z"/></g>
<g><path style="opacity:1" fill="#95a1d3" d="M 272.5,84.5 C 291.538,97.4455 310.372,110.779 329,124.5C 329.464,123.906 329.631,123.239 329.5,122.5C 330.477,125.287 330.81,128.287 330.5,131.5C 330.167,133.5 329.833,135.5 329.5,137.5C 327.734,139.771 325.734,141.937 323.5,144C 318.744,146.699 314.411,149.866 310.5,153.5C 307.456,154.829 304.456,154.663 301.5,153C 282.099,134.357 272.433,111.524 272.5,84.5 Z"/></g>
<g><path style="opacity:1" fill="#586496" d="M 330.5,86.5 C 341.167,94.1667 351.833,101.833 362.5,109.5C 358.774,113.426 357.608,118.093 359,123.5C 367.191,139.267 378.024,141.6 391.5,130.5C 397.951,132.951 403.618,136.617 408.5,141.5C 405.192,144.635 401.692,147.635 398,150.5C 393.643,161.952 397.477,169.452 409.5,173C 426.658,173.254 440.658,166.754 451.5,153.5C 453.395,152.027 455.061,150.36 456.5,148.5C 458.543,149.579 459.876,151.246 460.5,153.5C 457.219,164.103 451.219,172.77 442.5,179.5C 437.089,183.539 431.089,186.539 424.5,188.5C 393.82,167.066 362.987,145.732 332,124.5C 331.814,127.036 331.314,129.369 330.5,131.5C 330.81,128.287 330.477,125.287 329.5,122.5C 325.856,115.992 322.356,109.325 319,102.5C 316.897,97.698 315.731,92.698 315.5,87.5C 316.692,85.0777 318.692,84.0777 321.5,84.5C 324.582,84.8795 327.582,85.5462 330.5,86.5 Z"/></g>
<g><path style="opacity:1" fill="#5e6b99" d="M 132.5,68.5 C 136.589,77.7174 143.589,83.3841 153.5,85.5C 162.318,86.4933 171.318,86.8266 180.5,86.5C 169.833,94.1667 159.167,101.833 148.5,109.5C 145.167,105.833 141.833,102.167 138.5,98.5C 134.081,90.6587 129.415,82.992 124.5,75.5C 123.656,71.1259 122.656,66.7925 121.5,62.5C 126.538,62.2688 130.205,64.2688 132.5,68.5 Z"/></g>
<g><path style="opacity:1" fill="#5e6b99" d="M 385.5,75.5 C 381.408,83.3561 377.075,91.0228 372.5,98.5C 369.167,102.167 365.833,105.833 362.5,109.5C 351.833,101.833 341.167,94.1667 330.5,86.5C 339.349,86.8264 348.016,86.493 356.5,85.5C 366.835,83.6711 374.169,78.0044 378.5,68.5C 380.672,64.7283 384.005,62.395 388.5,61.5C 388.795,66.3356 387.795,71.0022 385.5,75.5 Z"/></g>
<g><path style="opacity:1" fill="#a2aee0" d="M 79.5,87.5 C 80.2375,93.7862 81.9042,99.7862 84.5,105.5C 82.2166,105.608 80.2166,106.441 78.5,108C 68.2883,115.718 57.955,123.218 47.5,130.5C 46.701,119.997 48.5343,109.997 53,100.5C 60.5588,93.6375 69.3922,89.3042 79.5,87.5 Z"/></g>
<g><path style="opacity:1" fill="#a2aee0" d="M 430.5,86.5 C 438.369,89.099 446.036,92.2657 453.5,96C 458.285,100.069 461.119,105.236 462,111.5C 463.191,116.767 463.691,122.101 463.5,127.5C 462.778,127.918 462.278,128.584 462,129.5C 452.078,122.456 442.245,115.289 432.5,108C 430.783,106.441 428.783,105.608 426.5,105.5C 429.486,99.535 430.819,93.2016 430.5,86.5 Z"/></g>
<g><path style="opacity:1" fill="#9ba7d8" d="M 138.5,98.5 C 141.833,102.167 145.167,105.833 148.5,109.5C 152.226,113.426 153.392,118.093 152,123.5C 147.511,133.317 140.011,137.817 129.5,137C 126.28,134.563 122.947,132.397 119.5,130.5C 115.64,127.061 111.973,123.395 108.5,119.5C 118.142,112.01 128.142,105.01 138.5,98.5 Z"/></g>
<g><path style="opacity:1" fill="#9ba7d8" d="M 372.5,98.5 C 382.858,105.01 392.858,112.01 402.5,119.5C 399.027,123.395 395.36,127.061 391.5,130.5C 378.024,141.6 367.191,139.267 359,123.5C 357.608,118.093 358.774,113.426 362.5,109.5C 365.833,105.833 369.167,102.167 372.5,98.5 Z"/></g>
<g><path style="opacity:1" fill="#a1aed9" d="M 84.5,105.5 C 85.2674,106.172 85.9341,107.005 86.5,108C 82.3873,110.394 80.5539,113.894 81,118.5C 83.2253,123.553 86.3919,127.886 90.5,131.5C 80.7275,139.603 70.3942,146.936 59.5,153.5C 57.6957,151.505 55.6957,149.838 53.5,148.5C 52.2611,145.411 50.7611,142.411 49,139.5C 47.8512,136.607 47.3512,133.607 47.5,130.5C 57.955,123.218 68.2883,115.718 78.5,108C 80.2166,106.441 82.2166,105.608 84.5,105.5 Z"/></g>
<g><path style="opacity:1" fill="#a1aed9" d="M 426.5,105.5 C 428.783,105.608 430.783,106.441 432.5,108C 442.245,115.289 452.078,122.456 462,129.5C 462.278,128.584 462.778,127.918 463.5,127.5C 464.152,135.545 461.819,142.545 456.5,148.5C 455.061,150.36 453.395,152.027 451.5,153.5C 440.606,146.936 430.272,139.603 420.5,131.5C 424.608,127.886 427.775,123.553 430,118.5C 430.446,113.894 428.613,110.394 424.5,108C 425.066,107.005 425.733,106.172 426.5,105.5 Z"/></g>
<g><path style="opacity:1" fill="#5e6b99" d="M 85.5,85.5 C 87.5643,89.961 89.8977,94.2943 92.5,98.5C 95.6521,107.126 100.985,114.126 108.5,119.5C 111.973,123.395 115.64,127.061 119.5,130.5C 113.049,132.951 107.382,136.617 102.5,141.5C 98.2079,138.543 94.2079,135.21 90.5,131.5C 86.3919,127.886 83.2253,123.553 81,118.5C 80.5539,113.894 82.3873,110.394 86.5,108C 85.9341,107.005 85.2674,106.172 84.5,105.5C 81.9042,99.7862 80.2375,93.7862 79.5,87.5C 81.2143,86.2616 83.2143,85.595 85.5,85.5 Z"/></g>
<g><path style="opacity:1" fill="#5e6b99" d="M 425.5,85.5 C 427.216,85.6287 428.883,85.962 430.5,86.5C 430.819,93.2016 429.486,99.535 426.5,105.5C 425.733,106.172 425.066,107.005 424.5,108C 428.613,110.394 430.446,113.894 430,118.5C 427.775,123.553 424.608,127.886 420.5,131.5C 416.792,135.21 412.792,138.543 408.5,141.5C 403.618,136.617 397.951,132.951 391.5,130.5C 395.36,127.061 399.027,123.395 402.5,119.5C 410.015,114.126 415.348,107.126 418.5,98.5C 421.102,94.2943 423.436,89.961 425.5,85.5 Z"/></g>
<g><path style="opacity:1" fill="#56648f" d="M 180.5,131.5 C 180.833,133.5 181.167,135.5 181.5,137.5C 181.586,138.496 181.252,139.329 180.5,140C 153.678,157.997 127.012,176.163 100.5,194.5C 97.2715,192.105 93.6049,190.771 89.5,190.5C 88.5,189.833 87.5,189.167 86.5,188.5C 117.18,167.066 148.013,145.732 179,124.5C 179.186,127.036 179.686,129.369 180.5,131.5 Z"/></g>
<g><path style="opacity:1" fill="#56648f" d="M 424.5,188.5 C 423.833,188.833 423.167,189.167 422.5,189.5C 418.016,190.077 414.016,191.744 410.5,194.5C 383.988,176.163 357.322,157.997 330.5,140C 329.748,139.329 329.414,138.496 329.5,137.5C 329.833,135.5 330.167,133.5 330.5,131.5C 331.314,129.369 331.814,127.036 332,124.5C 362.987,145.732 393.82,167.066 424.5,188.5 Z"/></g>
<g><path style="opacity:1" fill="#9ba7d8" d="M 90.5,131.5 C 94.2079,135.21 98.2079,138.543 102.5,141.5C 105.808,144.635 109.308,147.635 113,150.5C 114.552,152.768 115.385,155.268 115.5,158C 114.005,165.832 109.338,170.832 101.5,173C 84.3741,173.271 70.3741,166.771 59.5,153.5C 70.3942,146.936 80.7275,139.603 90.5,131.5 Z"/></g>
<g><path style="opacity:1" fill="#9ba7d8" d="M 420.5,131.5 C 430.272,139.603 440.606,146.936 451.5,153.5C 440.658,166.754 426.658,173.254 409.5,173C 397.477,169.452 393.643,161.952 398,150.5C 401.692,147.635 405.192,144.635 408.5,141.5C 412.792,138.543 416.792,135.21 420.5,131.5 Z"/></g>
<g><path style="opacity:1" fill="#515c8e" d="M 181.5,137.5 C 183.266,139.771 185.266,141.937 187.5,144C 192.256,146.699 196.589,149.866 200.5,153.5C 193.498,161.664 185.165,168.164 175.5,173C 174,174.5 172.5,176 171,177.5C 170.031,187.308 167.364,196.641 163,205.5C 157.132,212.874 149.966,218.541 141.5,222.5C 138.569,220.909 135.902,218.909 133.5,216.5C 131.205,214.615 128.538,214.115 125.5,215C 121.282,217.282 117.616,220.282 114.5,224C 112.5,225 110.5,226 108.5,227C 97.5072,228.667 86.5072,228.834 75.5,227.5C 75.5,223.833 75.5,220.167 75.5,216.5C 82.992,216.942 90.3253,216.108 97.5,214C 104.22,208.341 105.22,201.841 100.5,194.5C 127.012,176.163 153.678,157.997 180.5,140C 181.252,139.329 181.586,138.496 181.5,137.5 Z"/></g>
<g><path style="opacity:1" fill="#515c8e" d="M 329.5,137.5 C 329.414,138.496 329.748,139.329 330.5,140C 357.322,157.997 383.988,176.163 410.5,194.5C 404.813,205.268 407.813,212.434 419.5,216C 424.823,216.499 430.156,216.666 435.5,216.5C 435.5,219.833 435.5,223.167 435.5,226.5C 424.556,228.926 413.556,229.093 402.5,227C 396.556,223.389 390.889,219.389 385.5,215C 382.462,214.115 379.795,214.615 377.5,216.5C 375.122,218.878 372.455,220.878 369.5,222.5C 356,217.164 347.166,207.497 343,193.5C 342.324,188.075 341.324,182.741 340,177.5C 335.439,173.134 330.272,169.634 324.5,167C 319.938,162.269 315.271,157.769 310.5,153.5C 314.411,149.866 318.744,146.699 323.5,144C 325.734,141.937 327.734,139.771 329.5,137.5 Z"/></g>
<g><path style="opacity:1" fill="#9ba7d9" d="M 50.5,153.5 C 53.7808,164.103 59.7808,172.77 68.5,179.5C 68.4894,181.017 67.8228,182.184 66.5,183C 58.9197,188.277 51.5864,193.777 44.5,199.5C 36.7746,183.02 38.7746,167.687 50.5,153.5 Z"/></g>
<g><path style="opacity:1" fill="#9ba8d9" d="M 460.5,153.5 C 471.658,167.129 473.991,182.129 467.5,198.5C 459.545,193.849 451.879,188.682 444.5,183C 443.177,182.184 442.511,181.017 442.5,179.5C 451.219,172.77 457.219,164.103 460.5,153.5 Z"/></g>
<g><path style="opacity:1" fill="#fac7bb" d="M 304.5,187.5 C 271.338,188.498 238.004,188.832 204.5,188.5C 218.571,175.301 235.405,168.634 255,168.5C 274.07,168.681 290.57,175.015 304.5,187.5 Z"/></g>
<g><path style="opacity:1" fill="#9aa7d3" d="M 68.5,179.5 C 73.9486,183.558 79.9486,186.558 86.5,188.5C 87.5,189.167 88.5,189.833 89.5,190.5C 81.2344,196.646 72.9011,202.812 64.5,209C 62.7834,210.559 60.7834,211.392 58.5,211.5C 52.3055,209.307 47.6388,205.307 44.5,199.5C 51.5864,193.777 58.9197,188.277 66.5,183C 67.8228,182.184 68.4894,181.017 68.5,179.5 Z"/></g>
<g><path style="opacity:1" fill="#9aa7d3" d="M 442.5,179.5 C 442.511,181.017 443.177,182.184 444.5,183C 451.879,188.682 459.545,193.849 467.5,198.5C 463.724,204.943 458.39,209.61 451.5,212.5C 441.743,205.11 431.743,197.943 421.5,191C 422.056,190.617 422.389,190.117 422.5,189.5C 423.167,189.167 423.833,188.833 424.5,188.5C 431.089,186.539 437.089,183.539 442.5,179.5 Z"/></g>
<g><path style="opacity:1" fill="#fac1ba" d="M 304.5,187.5 C 310.342,191.669 314.675,197.002 317.5,203.5C 275.833,203.5 234.167,203.5 192.5,203.5C 194.986,197.341 198.986,192.341 204.5,188.5C 238.004,188.832 271.338,188.498 304.5,187.5 Z"/></g>
<g><path style="opacity:1" fill="#95a1d3" d="M 89.5,190.5 C 93.6049,190.771 97.2715,192.105 100.5,194.5C 105.22,201.841 104.22,208.341 97.5,214C 90.3253,216.108 82.992,216.942 75.5,216.5C 69.2355,216.521 63.5688,214.855 58.5,211.5C 60.7834,211.392 62.7834,210.559 64.5,209C 72.9011,202.812 81.2344,196.646 89.5,190.5 Z"/></g>
<g><path style="opacity:1" fill="#95a1d3" d="M 422.5,189.5 C 422.389,190.117 422.056,190.617 421.5,191C 431.743,197.943 441.743,205.11 451.5,212.5C 446.506,215.082 441.173,216.415 435.5,216.5C 430.156,216.666 424.823,216.499 419.5,216C 407.813,212.434 404.813,205.268 410.5,194.5C 414.016,191.744 418.016,190.077 422.5,189.5 Z"/></g>
<g><path style="opacity:1" fill="#fac1b5" d="M 192.5,203.5 C 234.167,203.5 275.833,203.5 317.5,203.5C 321.152,207.808 323.486,212.808 324.5,218.5C 277.833,218.5 231.167,218.5 184.5,218.5C 186.405,213.02 189.071,208.02 192.5,203.5 Z"/></g>
<g><path style="opacity:1" fill="#95a1ce" d="M 133.5,216.5 C 117.167,228.5 100.833,240.5 84.5,252.5C 81.2364,251.073 78.7364,248.739 77,245.5C 75.6392,239.593 75.1392,233.593 75.5,227.5C 86.5072,228.834 97.5072,228.667 108.5,227C 110.5,226 112.5,225 114.5,224C 117.616,220.282 121.282,217.282 125.5,215C 128.538,214.115 131.205,214.615 133.5,216.5 Z"/></g>
<g><path style="opacity:1" fill="#95a1ce" d="M 435.5,226.5 C 435.87,232.925 435.37,239.258 434,245.5C 432.264,248.739 429.764,251.073 426.5,252.5C 410.167,240.5 393.833,228.5 377.5,216.5C 379.795,214.615 382.462,214.115 385.5,215C 390.889,219.389 396.556,223.389 402.5,227C 413.556,229.093 424.556,228.926 435.5,226.5 Z"/></g>
<g><path style="opacity:1" fill="#8f9cce" d="M 133.5,216.5 C 135.902,218.909 138.569,220.909 141.5,222.5C 144.324,226.36 145.158,230.693 144,235.5C 135.166,249.406 122.833,258.406 107,262.5C 98.411,261.369 90.911,258.036 84.5,252.5C 100.833,240.5 117.167,228.5 133.5,216.5 Z"/></g>
<g><path style="opacity:1" fill="#8f9cce" d="M 377.5,216.5 C 393.833,228.5 410.167,240.5 426.5,252.5C 414.893,263.19 402.227,264.69 388.5,257C 380,251.167 372.833,244 367,235.5C 365.842,230.693 366.676,226.36 369.5,222.5C 372.455,220.878 375.122,218.878 377.5,216.5 Z"/></g>
<g><path style="opacity:1" fill="#fabbb4" d="M 184.5,218.5 C 231.167,218.5 277.833,218.5 324.5,218.5C 327.566,225.081 329.566,232.081 330.5,239.5C 279.95,238.845 229.616,239.512 179.5,241.5C 180.378,233.655 182.045,225.988 184.5,218.5 Z"/></g>
<g><path style="opacity:1" fill="#fabaae" d="M 330.5,239.5 C 330.833,242.167 331.167,244.833 331.5,247.5C 280.5,247.5 229.5,247.5 178.5,247.5C 178.325,245.379 178.659,243.379 179.5,241.5C 229.616,239.512 279.95,238.845 330.5,239.5 Z"/></g>
<g><path style="opacity:1" fill="#fab4ae" d="M 178.5,247.5 C 229.5,247.5 280.5,247.5 331.5,247.5C 332.8,258.502 332.8,269.502 331.5,280.5C 330.566,279.432 330.232,278.099 330.5,276.5C 319.654,276.172 308.987,276.506 298.5,277.5C 290.749,270.569 283.249,270.902 276,278.5C 270.759,286.742 269.092,295.742 271,305.5C 272.122,307.407 272.955,309.407 273.5,311.5C 260.833,311.5 248.167,311.5 235.5,311.5C 239.352,304.378 240.519,296.711 239,288.5C 233.886,272.505 224.386,268.838 210.5,277.5C 200.013,276.506 189.346,276.172 178.5,276.5C 177.313,266.89 177.313,257.224 178.5,247.5 Z"/></g>
<g><path style="opacity:1" fill="#faf9f8" d="M 235.5,311.5 C 230.721,317.504 224.721,319.004 217.5,316C 215.382,314.951 213.716,313.451 212.5,311.5C 205.328,300.579 204.661,289.246 210.5,277.5C 224.386,268.838 233.886,272.505 239,288.5C 240.519,296.711 239.352,304.378 235.5,311.5 Z"/></g>
<g><path style="opacity:1" fill="#faf9f9" d="M 298.5,277.5 C 305.27,288.968 304.937,300.301 297.5,311.5C 293.181,317.088 287.514,318.921 280.5,317C 278.004,315.334 275.671,313.5 273.5,311.5C 272.955,309.407 272.122,307.407 271,305.5C 269.092,295.742 270.759,286.742 276,278.5C 283.249,270.902 290.749,270.569 298.5,277.5 Z"/></g>
<g><path style="opacity:1" fill="#faafa8" d="M 178.5,276.5 C 189.346,276.172 200.013,276.506 210.5,277.5C 204.661,289.246 205.328,300.579 212.5,311.5C 194.423,311.181 176.423,311.514 158.5,312.5C 157.054,306.443 157.221,300.443 159,294.5C 163.578,286.966 170.078,284.633 178.5,287.5C 178.689,284.015 178.689,280.348 178.5,276.5 Z"/></g>
<g><path style="opacity:1" fill="#faafa8" d="M 331.5,280.5 C 331.162,283.011 331.162,285.345 331.5,287.5C 344.6,284.435 351.6,289.602 352.5,303C 352.316,305.865 351.982,308.698 351.5,311.5C 333.5,311.5 315.5,311.5 297.5,311.5C 304.937,300.301 305.27,288.968 298.5,277.5C 308.987,276.506 319.654,276.172 330.5,276.5C 330.232,278.099 330.566,279.432 331.5,280.5 Z"/></g>
<g><path style="opacity:1" fill="#faa8a3" d="M 212.5,311.5 C 213.716,313.451 215.382,314.951 217.5,316C 224.721,319.004 230.721,317.504 235.5,311.5C 248.167,311.5 260.833,311.5 273.5,311.5C 275.671,313.5 278.004,315.334 280.5,317C 287.514,318.921 293.181,317.088 297.5,311.5C 315.5,311.5 333.5,311.5 351.5,311.5C 349.095,324.532 342.428,334.532 331.5,341.5C 280.336,340.501 229.003,340.168 177.5,340.5C 172.959,338.798 169.459,335.798 167,331.5C 163.1,325.631 160.267,319.298 158.5,312.5C 176.423,311.514 194.423,311.181 212.5,311.5 Z"/></g>
<g><path style="opacity:1" fill="#faa2a2" d="M 177.5,340.5 C 229.003,340.168 280.336,340.501 331.5,341.5C 328.074,343.274 324.407,344.274 320.5,344.5C 320.072,347.785 319.072,350.785 317.5,353.5C 276.167,353.5 234.833,353.5 193.5,353.5C 193.5,354.5 193.5,355.5 193.5,356.5C 191.595,352.784 190.261,348.784 189.5,344.5C 184.996,344.381 180.996,343.048 177.5,340.5 Z"/></g>
<g><path style="opacity:1" fill="#f9a19c" d="M 317.5,353.5 C 315.868,359.43 313.202,364.764 309.5,369.5C 273.167,369.5 236.833,369.5 200.5,369.5C 197.407,365.653 195.074,361.32 193.5,356.5C 193.5,355.5 193.5,354.5 193.5,353.5C 234.833,353.5 276.167,353.5 317.5,353.5 Z"/></g>
<g><path style="opacity:1" fill="#f99b9a" d="M 200.5,369.5 C 236.833,369.5 273.167,369.5 309.5,369.5C 309.291,370.922 308.791,372.255 308,373.5C 304.998,377.334 301.831,381 298.5,384.5C 269.477,408.461 240.477,408.461 211.5,384.5C 208.169,381 205.002,377.334 202,373.5C 201.209,372.255 200.709,370.922 200.5,369.5 Z"/></g>
<g><path style="opacity:1" fill="#dc6564" d="M 211.5,384.5 C 240.477,408.461 269.477,408.461 298.5,384.5C 297.625,395.14 297.291,405.806 297.5,416.5C 296.844,415.722 296.011,415.056 295,414.5C 278.547,419.705 262.38,425.371 246.5,431.5C 234.62,425.266 223.286,418.266 212.5,410.5C 212.632,401.809 212.299,393.142 211.5,384.5 Z"/></g>
<g><path style="opacity:1" fill="#d95e5d" d="M 297.5,416.5 C 297.617,427.774 299.283,438.774 302.5,449.5C 301.5,449.5 300.5,449.5 299.5,449.5C 280.865,446.289 263.199,440.289 246.5,431.5C 262.38,425.371 278.547,419.705 295,414.5C 296.011,415.056 296.844,415.722 297.5,416.5 Z"/></g>
<g><path style="opacity:1" fill="#f99c9a" d="M 212.5,410.5 C 223.286,418.266 234.62,425.266 246.5,431.5C 263.199,440.289 280.865,446.289 299.5,449.5C 284.504,450.167 269.337,450.5 254,450.5C 238.485,450.499 223.318,449.833 208.5,448.5C 211.313,435.997 212.646,423.33 212.5,410.5 Z"/></g>
<g><path style="opacity:1" fill="#f89695" d="M 208.5,448.5 C 223.318,449.833 238.485,450.499 254,450.5C 269.337,450.5 284.504,450.167 299.5,449.5C 300.5,449.5 301.5,449.5 302.5,449.5C 304.314,456.799 306.98,463.799 310.5,470.5C 273.506,471.5 236.506,471.833 199.5,471.5C 202.714,463.849 205.714,456.182 208.5,448.5 Z"/></g>
</svg>
