<?xml version="1.0" encoding="UTF-8"?>
<!DOCTYPE svg PUBLIC "-//W3C//DTD SVG 1.1//EN" "http://www.w3.org/Graphics/SVG/1.1/DTD/svg11.dtd">
<svg xmlns="http://www.w3.org/2000/svg" version="1.1" width="512px" height="512px" style="shape-rendering:geometricPrecision; text-rendering:geometricPrecision; image-rendering:optimizeQuality; fill-rule:evenodd; clip-rule:evenodd" xmlns:xlink="http://www.w3.org/1999/xlink">
<g><path style="opacity:1" fill="#fa6f89" d="M 330.5,57.5 C 280.833,57.5 231.167,57.5 181.5,57.5C 201.73,37.0672 226.396,27.0672 255.5,27.5C 284.927,26.9644 309.927,36.9644 330.5,57.5 Z"/></g>
<g><path style="opacity:1" fill="#ee6f89" d="M 181.5,57.5 C 231.167,57.5 280.833,57.5 330.5,57.5C 337.895,64.6123 343.562,72.9457 347.5,82.5C 286.095,82.1707 224.762,82.504 163.5,83.5C 167.558,73.4503 173.558,64.7836 181.5,57.5 Z"/></g>
<g><path style="opacity:1" fill="#e76f89" d="M 347.5,82.5 C 349.625,85.0878 350.958,88.0878 351.5,91.5C 287.664,91.8325 223.998,91.4991 160.5,90.5C 160.707,87.7594 161.707,85.4261 163.5,83.5C 224.762,82.504 286.095,82.1707 347.5,82.5 Z"/></g>
<g><path style="opacity:1" fill="#e16a88" d="M 160.5,90.5 C 223.998,91.4991 287.664,91.8325 351.5,91.5C 353.771,96.5676 355.438,101.901 356.5,107.5C 329.241,108.491 301.907,108.824 274.5,108.5C 261.816,101.963 249.149,101.963 236.5,108.5C 209.833,108.5 183.167,108.5 156.5,108.5C 156.737,107.209 156.404,106.209 155.5,105.5C 156.595,100.215 158.262,95.2152 160.5,90.5 Z"/></g>
<g><path style="opacity:1" fill="#d46987" d="M 155.5,105.5 C 156.404,106.209 156.737,107.209 156.5,108.5C 183.167,108.5 209.833,108.5 236.5,108.5C 226.506,115.161 218.173,123.494 211.5,133.5C 209.115,135.884 207.115,138.55 205.5,141.5C 188.262,142.13 171.262,141.464 154.5,139.5C 154.257,128.136 154.59,116.802 155.5,105.5 Z"/></g>
<g><path style="opacity:1" fill="#4c4b78" d="M 274.5,108.5 C 285.093,114.758 293.76,123.092 300.5,133.5C 270.833,133.5 241.167,133.5 211.5,133.5C 218.173,123.494 226.506,115.161 236.5,108.5C 249.149,101.963 261.816,101.963 274.5,108.5 Z"/></g>
<g><path style="opacity:1" fill="#d56988" d="M 356.5,107.5 C 357.24,115.812 357.573,124.146 357.5,132.5C 338.659,132.17 319.993,132.503 301.5,133.5C 301.167,133.5 300.833,133.5 300.5,133.5C 293.76,123.092 285.093,114.758 274.5,108.5C 301.907,108.824 329.241,108.491 356.5,107.5 Z"/></g>
<g><path style="opacity:1" fill="#444471" d="M 211.5,133.5 C 241.167,133.5 270.833,133.5 300.5,133.5C 300.833,133.5 301.167,133.5 301.5,133.5C 305.038,139.91 308.038,146.577 310.5,153.5C 273.833,153.5 237.167,153.5 200.5,153.5C 202.167,149.5 203.833,145.5 205.5,141.5C 207.115,138.55 209.115,135.884 211.5,133.5 Z"/></g>
<g><path style="opacity:1" fill="#ca6583" d="M 357.5,132.5 C 356.899,141.505 356.233,150.505 355.5,159.5C 341.5,159.5 327.5,159.5 313.5,159.5C 312.87,157.25 311.87,155.25 310.5,153.5C 308.038,146.577 305.038,139.91 301.5,133.5C 319.993,132.503 338.659,132.17 357.5,132.5 Z"/></g>
<g><path style="opacity:1" fill="#c36382" d="M 154.5,139.5 C 171.262,141.464 188.262,142.13 205.5,141.5C 203.833,145.5 202.167,149.5 200.5,153.5C 198.33,159.342 196.664,165.342 195.5,171.5C 181.833,171.5 168.167,171.5 154.5,171.5C 155.55,167.582 156.216,163.582 156.5,159.5C 155.668,152.843 155.001,146.177 154.5,139.5 Z"/></g>
<g><path style="opacity:1" fill="#3c3c6a" d="M 200.5,153.5 C 237.167,153.5 273.833,153.5 310.5,153.5C 311.87,155.25 312.87,157.25 313.5,159.5C 315.915,167.989 317.248,176.656 317.5,185.5C 317.5,187.5 317.5,189.5 317.5,191.5C 307.833,191.5 298.167,191.5 288.5,191.5C 295.398,185.912 297.231,178.912 294,170.5C 284.379,176.389 274.879,182.389 265.5,188.5C 266.193,189.518 266.859,190.518 267.5,191.5C 259.5,191.5 251.5,191.5 243.5,191.5C 244.172,190.733 245.005,190.066 246,189.5C 246.688,188.668 246.521,188.002 245.5,187.5C 236.167,181.833 226.833,176.167 217.5,170.5C 214.115,178.068 215.448,184.735 221.5,190.5C 212.682,191.493 203.682,191.827 194.5,191.5C 194.5,193.833 194.5,196.167 194.5,198.5C 194.167,198.5 193.833,198.5 193.5,198.5C 193.561,189.432 194.228,180.432 195.5,171.5C 196.664,165.342 198.33,159.342 200.5,153.5 Z"/></g>
<g><path style="opacity:1" fill="#f3f3f5" d="M 243.5,191.5 C 235.932,195.803 228.599,195.469 221.5,190.5C 215.448,184.735 214.115,178.068 217.5,170.5C 226.833,176.167 236.167,181.833 245.5,187.5C 246.521,188.002 246.688,188.668 246,189.5C 245.005,190.066 244.172,190.733 243.5,191.5 Z"/></g>
<g><path style="opacity:1" fill="#f4f3f5" d="M 288.5,191.5 C 281.489,195.419 274.489,195.419 267.5,191.5C 266.859,190.518 266.193,189.518 265.5,188.5C 274.879,182.389 284.379,176.389 294,170.5C 297.231,178.912 295.398,185.912 288.5,191.5 Z"/></g>
<g><path style="opacity:1" fill="#b96482" d="M 313.5,159.5 C 327.5,159.5 341.5,159.5 355.5,159.5C 355.81,171.955 360.81,182.121 370.5,190C 374.3,191.979 377.634,194.479 380.5,197.5C 360.007,198.497 339.34,198.831 318.5,198.5C 318.818,193.968 318.485,189.634 317.5,185.5C 317.248,176.656 315.915,167.989 313.5,159.5 Z"/></g>
<g><path style="opacity:1" fill="#b56383" d="M 154.5,171.5 C 168.167,171.5 181.833,171.5 195.5,171.5C 194.228,180.432 193.561,189.432 193.5,198.5C 172.327,198.831 151.327,198.497 130.5,197.5C 136.747,193.427 142.581,188.76 148,183.5C 150.433,179.633 152.6,175.633 154.5,171.5 Z"/></g>
<g><path style="opacity:1" fill="#323264" d="M 221.5,190.5 C 228.599,195.469 235.932,195.803 243.5,191.5C 251.5,191.5 259.5,191.5 267.5,191.5C 274.489,195.419 281.489,195.419 288.5,191.5C 298.167,191.5 307.833,191.5 317.5,191.5C 317.663,193.857 317.497,196.19 317,198.5C 313.192,200.653 309.358,202.653 305.5,204.5C 272.5,204.5 239.5,204.5 206.5,204.5C 202.527,202.513 198.527,200.513 194.5,198.5C 194.5,196.167 194.5,193.833 194.5,191.5C 203.682,191.827 212.682,191.493 221.5,190.5 Z"/></g>
<g><path style="opacity:1" fill="#33325d" d="M 206.5,204.5 C 239.5,204.5 272.5,204.5 305.5,204.5C 296.202,209.818 286.869,215.151 277.5,220.5C 262.788,229.827 248.122,229.827 233.5,220.5C 224.335,215.419 215.335,210.085 206.5,204.5 Z"/></g>
<g><path style="opacity:1" fill="#a95c82" d="M 130.5,197.5 C 151.327,198.497 172.327,198.831 193.5,198.5C 193.833,198.5 194.167,198.5 194.5,198.5C 198.527,200.513 202.527,202.513 206.5,204.5C 215.335,210.085 224.335,215.419 233.5,220.5C 188.833,221.833 144.167,221.833 99.5,220.5C 109.528,212.479 119.861,204.813 130.5,197.5 Z"/></g>
<g><path style="opacity:1" fill="#a95c82" d="M 317.5,185.5 C 318.485,189.634 318.818,193.968 318.5,198.5C 339.34,198.831 360.007,198.497 380.5,197.5C 391.557,204.689 402.224,212.355 412.5,220.5C 367.5,221.833 322.5,221.833 277.5,220.5C 286.869,215.151 296.202,209.818 305.5,204.5C 309.358,202.653 313.192,200.653 317,198.5C 317.497,196.19 317.663,193.857 317.5,191.5C 317.5,189.5 317.5,187.5 317.5,185.5 Z"/></g>
<g><path style="opacity:1" fill="#a15c82" d="M 99.5,220.5 C 144.167,221.833 188.833,221.833 233.5,220.5C 248.122,229.827 262.788,229.827 277.5,220.5C 322.5,221.833 367.5,221.833 412.5,220.5C 416.107,224.391 418.107,229.057 418.5,234.5C 310.167,233.172 201.833,233.172 93.5,234.5C 93.3824,228.832 95.3824,224.165 99.5,220.5 Z"/></g>
<g><path style="opacity:1" fill="#9b5c83" d="M 418.5,234.5 C 417.893,240.384 415.227,245.05 410.5,248.5C 358.999,248.438 307.499,248.105 256,247.5C 204.664,247.769 153.497,248.435 102.5,249.5C 96.6853,246.206 93.6853,241.206 93.5,234.5C 201.833,233.172 310.167,233.172 418.5,234.5 Z"/></g>
<g><path style="opacity:1" fill="#96577d" d="M 410.5,248.5 C 407.667,252.165 404.334,255.332 400.5,258C 398.922,259.094 397.255,259.928 395.5,260.5C 302.167,260.5 208.833,260.5 115.5,260.5C 110.262,257.93 105.928,254.264 102.5,249.5C 153.497,248.435 204.664,247.769 256,247.5C 307.499,248.105 358.999,248.438 410.5,248.5 Z"/></g>
<g><path style="opacity:1" fill="#8f577d" d="M 115.5,260.5 C 208.833,260.5 302.167,260.5 395.5,260.5C 386.966,265.599 377.966,269.932 368.5,273.5C 293.167,272.167 217.833,272.167 142.5,273.5C 133.313,269.406 124.313,265.072 115.5,260.5 Z"/></g>
<g><path style="opacity:1" fill="#d8e1fa" d="M 181.5,318.5 C 173.893,336.716 166.559,355.05 159.5,373.5C 126.135,348.303 98.9681,317.636 78,281.5C 72.18,271.318 74.68,268.818 85.5,274C 117.711,288.608 149.711,303.442 181.5,318.5 Z"/></g>
<g><path style="opacity:1" fill="#87577d" d="M 142.5,273.5 C 217.833,272.167 293.167,272.167 368.5,273.5C 351.021,281.736 333.354,289.736 315.5,297.5C 276.33,297.168 237.33,297.501 198.5,298.5C 179.828,290.166 161.162,281.832 142.5,273.5 Z"/></g>
<g><path style="opacity:1" fill="#acb6fa" d="M 397.5,330.5 C 390.7,319.234 384.7,307.567 379.5,295.5C 397.036,287.035 414.87,279.035 433,271.5C 435.942,271.437 436.942,272.77 436,275.5C 425.25,295.396 412.417,313.729 397.5,330.5 Z"/></g>
<g><path style="opacity:1" fill="#7b517d" d="M 315.5,297.5 C 299.711,305.225 283.711,312.725 267.5,320C 258.718,322.242 250.051,321.909 241.5,319C 226.814,312.621 212.481,305.787 198.5,298.5C 237.33,297.501 276.33,297.168 315.5,297.5 Z"/></g>
<g><path style="opacity:1" fill="#a3aefa" d="M 379.5,295.5 C 384.7,307.567 390.7,319.234 397.5,330.5C 391.536,338.132 384.869,345.132 377.5,351.5C 369.5,336.833 361.5,322.167 353.5,307.5C 361.858,302.99 370.525,298.99 379.5,295.5 Z"/></g>
<g><path style="opacity:1" fill="#9da8fa" d="M 353.5,307.5 C 361.5,322.167 369.5,336.833 377.5,351.5C 371.49,357.509 365.157,363.175 358.5,368.5C 350.284,350.948 341.618,333.615 332.5,316.5C 339.38,313.227 346.38,310.227 353.5,307.5 Z"/></g>
<g><path style="opacity:1" fill="#97a2f9" d="M 332.5,316.5 C 341.618,333.615 350.284,350.948 358.5,368.5C 355.306,371.037 351.639,371.87 347.5,371C 341.145,368.487 334.812,365.987 328.5,363.5C 328.611,362.883 328.944,362.383 329.5,362C 323.411,349.965 316.744,338.465 309.5,327.5C 316.98,323.594 324.647,319.928 332.5,316.5 Z"/></g>
<g><path style="opacity:1" fill="#cfd9fa" d="M 181.5,318.5 C 193.272,323.218 204.939,328.218 216.5,333.5C 209.073,353.694 201.073,373.694 192.5,393.5C 192.043,394.298 191.376,394.631 190.5,394.5C 186.299,391.9 181.966,389.566 177.5,387.5C 171.138,383.317 165.138,378.65 159.5,373.5C 166.559,355.05 173.893,336.716 181.5,318.5 Z"/></g>
<g><path style="opacity:1" fill="#909bf9" d="M 309.5,327.5 C 316.744,338.465 323.411,349.965 329.5,362C 328.944,362.383 328.611,362.883 328.5,363.5C 314.045,357.439 299.711,351.106 285.5,344.5C 283.895,341.42 284.562,338.92 287.5,337C 294.738,333.546 302.072,330.379 309.5,327.5 Z"/></g>
<g><path style="opacity:1" fill="#c9d3f9" d="M 216.5,333.5 C 229.231,339.534 241.898,345.534 254.5,351.5C 253.178,351.33 252.011,351.663 251,352.5C 243.257,372.967 234.757,392.967 225.5,412.5C 218.083,409.36 210.749,406.027 203.5,402.5C 199.167,399.833 194.833,397.167 190.5,394.5C 191.376,394.631 192.043,394.298 192.5,393.5C 201.073,373.694 209.073,353.694 216.5,333.5 Z"/></g>
<g><path style="opacity:1" fill="#c2cdf9" d="M 254.5,351.5 C 266.005,356.113 277.338,361.113 288.5,366.5C 279.064,386.388 270.397,406.721 262.5,427.5C 260.106,426.985 257.772,426.319 255.5,425.5C 245.277,421.723 235.277,417.389 225.5,412.5C 234.757,392.967 243.257,372.967 251,352.5C 252.011,351.663 253.178,351.33 254.5,351.5 Z"/></g>
<g><path style="opacity:1" fill="#bcc7fa" d="M 288.5,366.5 C 301.684,372.261 314.684,378.261 327.5,384.5C 321.068,402.701 314.068,420.701 306.5,438.5C 291.496,436.082 276.829,432.416 262.5,427.5C 270.397,406.721 279.064,386.388 288.5,366.5 Z"/></g>
<g><path style="opacity:1" fill="#5f5989" d="M 140.5,399.5 C 130.167,398.833 119.833,398.167 109.5,397.5C 106.682,390.526 103.849,383.526 101,376.5C 99.8495,374.246 99.5162,371.913 100,369.5C 106.084,368.358 112.251,368.191 118.5,369C 126.502,371.003 132.002,375.836 135,383.5C 137.141,388.756 138.974,394.09 140.5,399.5 Z"/></g>
<g><path style="opacity:1" fill="#5f5989" d="M 401.5,398.5 C 391.167,398.5 380.833,398.5 370.5,398.5C 372.884,389.497 376.884,381.33 382.5,374C 388.081,369.64 394.415,367.807 401.5,368.5C 404.5,368.667 407.5,368.833 410.5,369C 411.059,369.725 411.392,370.558 411.5,371.5C 408.161,380.518 404.828,389.518 401.5,398.5 Z"/></g>
<g><path style="opacity:1" fill="#b4c0f9" d="M 327.5,384.5 C 341.167,390.5 354.833,396.5 368.5,402.5C 364.701,413.897 360.701,425.23 356.5,436.5C 355.366,439.216 354.033,441.882 352.5,444.5C 337.002,443.48 321.669,441.48 306.5,438.5C 314.068,420.701 321.068,402.701 327.5,384.5 Z"/></g>
<g><path style="opacity:1" fill="#707df3" d="M 177.5,387.5 C 181.966,389.566 186.299,391.9 190.5,394.5C 194.833,397.167 199.167,399.833 203.5,402.5C 209.111,413.389 214.445,424.389 219.5,435.5C 209.598,437.88 199.598,439.88 189.5,441.5C 189.804,440.85 190.137,440.183 190.5,439.5C 182.294,424.253 173.96,409.086 165.5,394C 166.056,393.617 166.389,393.117 166.5,392.5C 169.74,390.049 173.407,388.382 177.5,387.5 Z"/></g>
<g><path style="opacity:1" fill="#6975f2" d="M 166.5,392.5 C 166.389,393.117 166.056,393.617 165.5,394C 173.96,409.086 182.294,424.253 190.5,439.5C 190.137,440.183 189.804,440.85 189.5,441.5C 179.172,442.642 168.838,443.642 158.5,444.5C 156.967,441.882 155.634,439.216 154.5,436.5C 150.299,425.23 146.299,413.897 142.5,402.5C 150.5,399.167 158.5,395.833 166.5,392.5 Z"/></g>
<g><path style="opacity:1" fill="#7784f3" d="M 203.5,402.5 C 210.749,406.027 218.083,409.36 225.5,412.5C 235.277,417.389 245.277,421.723 255.5,425.5C 243.676,429.456 231.676,432.789 219.5,435.5C 214.445,424.389 209.111,413.389 203.5,402.5 Z"/></g>
<g><path style="opacity:1" fill="#4e4a7b" d="M 109.5,397.5 C 119.833,398.167 130.167,398.833 140.5,399.5C 141.401,400.29 142.068,401.29 142.5,402.5C 146.299,413.897 150.299,425.23 154.5,436.5C 128.661,436.831 102.995,436.498 77.5,435.5C 90.1542,428.171 103.154,421.338 116.5,415C 113.675,409.359 111.342,403.526 109.5,397.5 Z"/></g>
<g><path style="opacity:1" fill="#4e4a7b" d="M 370.5,398.5 C 380.833,398.5 391.167,398.5 401.5,398.5C 399.462,404.111 397.129,409.611 394.5,415C 407.846,421.338 420.846,428.171 433.5,435.5C 408.005,436.498 382.339,436.831 356.5,436.5C 360.701,425.23 364.701,413.897 368.5,402.5C 369.167,401.167 369.833,399.833 370.5,398.5 Z"/></g>
<g><path style="opacity:1" fill="#3e3d6d" d="M 77.5,435.5 C 102.995,436.498 128.661,436.831 154.5,436.5C 155.634,439.216 156.967,441.882 158.5,444.5C 163.289,456.586 167.956,468.752 172.5,481C 159.579,486.446 148.413,483.613 139,472.5C 135.553,465.274 132.386,457.941 129.5,450.5C 121.55,453.372 113.55,456.039 105.5,458.5C 80.3388,457.502 55.0055,457.169 29.5,457.5C 32.1634,451.521 36.8301,448.188 43.5,447.5C 46.843,448.026 50.0097,449.026 53,450.5C 60.6382,444.599 68.8049,439.599 77.5,435.5 Z"/></g>
<g><path style="opacity:1" fill="#3e3d6d" d="M 433.5,435.5 C 442.195,439.599 450.362,444.599 458,450.5C 465.82,446.361 472.987,447.361 479.5,453.5C 480.63,454.622 481.297,455.956 481.5,457.5C 455.995,457.169 430.661,457.502 405.5,458.5C 397.562,456.132 389.729,453.465 382,450.5C 378.619,457.302 375.619,464.302 373,471.5C 364.536,482.656 353.369,486.49 339.5,483C 338.524,480.853 338.691,478.686 340,476.5C 344.273,465.844 348.439,455.177 352.5,444.5C 354.033,441.882 355.366,439.216 356.5,436.5C 382.339,436.831 408.005,436.498 433.5,435.5 Z"/></g>
<g><path style="opacity:1" fill="#383769" d="M 29.5,457.5 C 55.0055,457.169 80.3388,457.502 105.5,458.5C 90.7989,463.258 75.7989,466.925 60.5,469.5C 55.7214,480.262 47.7214,483.762 36.5,480C 27.7828,474.355 25.4494,466.855 29.5,457.5 Z"/></g>
<g><path style="opacity:1" fill="#383769" d="M 405.5,458.5 C 430.661,457.502 455.995,457.169 481.5,457.5C 485.551,466.855 483.217,474.355 474.5,480C 463.279,483.762 455.279,480.262 450.5,469.5C 435.201,466.925 420.201,463.258 405.5,458.5 Z"/></g>
</svg>
