<?xml version="1.0" encoding="UTF-8"?>
<!DOCTYPE svg PUBLIC "-//W3C//DTD SVG 1.1//EN" "http://www.w3.org/Graphics/SVG/1.1/DTD/svg11.dtd">
<svg xmlns="http://www.w3.org/2000/svg" version="1.1" width="512px" height="512px" style="shape-rendering:geometricPrecision; text-rendering:geometricPrecision; image-rendering:optimizeQuality; fill-rule:evenodd; clip-rule:evenodd" xmlns:xlink="http://www.w3.org/1999/xlink">
<g><path style="opacity:1" fill="#39384b" d="M 244.5,26.5 C 289.354,23.1782 323.854,40.1782 348,77.5C 357.386,94.093 361.553,111.926 360.5,131C 360.52,141.048 359.853,151.048 358.5,161C 358.926,172.185 363.593,181.185 372.5,188C 385.167,197 397.833,206 410.5,215C 420.98,224.396 422.813,235.229 416,247.5C 409.717,254.789 402.551,260.956 394.5,266C 351.001,286.055 307.334,305.721 263.5,325C 255.192,326.248 247.192,325.248 239.5,322C 198.167,303 156.833,284 115.5,265C 108.351,260.331 101.851,254.831 96,248.5C 89.7512,238.252 90.0846,228.252 97,218.5C 113.692,206.653 130.025,194.319 146,181.5C 150.372,175.554 152.872,168.887 153.5,161.5C 148.326,135.937 150.159,110.937 159,86.5C 176.648,51.0169 205.148,31.0169 244.5,26.5 Z"/></g>
<g><path style="opacity:1" fill="#f87c95" d="M 318.5,59.5 C 276.5,59.5 234.5,59.5 192.5,59.5C 217.381,39.5059 245.714,32.6725 277.5,39C 293.161,42.1637 306.828,48.997 318.5,59.5 Z"/></g>
<g><path style="opacity:1" fill="#f97c8e" d="M 192.5,59.5 C 234.5,59.5 276.5,59.5 318.5,59.5C 319.5,60.1667 320.5,60.8333 321.5,61.5C 277.833,62.8333 234.167,62.8333 190.5,61.5C 190.833,60.5 191.5,59.8333 192.5,59.5 Z"/></g>
<g><path style="opacity:1" fill="#f2758e" d="M 190.5,61.5 C 234.167,62.8333 277.833,62.8333 321.5,61.5C 325.203,65.2023 328.537,69.2023 331.5,73.5C 280.833,74.8333 230.167,74.8333 179.5,73.5C 182.458,68.8744 186.124,64.8744 190.5,61.5 Z"/></g>
<g><path style="opacity:1" fill="#ec758e" d="M 179.5,73.5 C 230.167,74.8333 280.833,74.8333 331.5,73.5C 335.156,76.8033 337.822,80.8033 339.5,85.5C 311.841,86.8332 283.841,87.4998 255.5,87.5C 227.331,87.5 199.331,87.1666 171.5,86.5C 173.418,81.6566 176.084,77.3233 179.5,73.5 Z"/></g>
<g><path style="opacity:1" fill="#e6758e" d="M 339.5,85.5 C 342.458,89.6911 344.458,94.3578 345.5,99.5C 285.664,99.8324 225.998,99.4991 166.5,98.5C 167.097,93.9831 168.763,89.9831 171.5,86.5C 199.331,87.1666 227.331,87.5 255.5,87.5C 283.841,87.4998 311.841,86.8332 339.5,85.5 Z"/></g>
<g><path style="opacity:1" fill="#df758e" d="M 166.5,98.5 C 225.998,99.4991 285.664,99.8324 345.5,99.5C 347.318,102.844 348.318,106.511 348.5,110.5C 326.66,110.169 304.994,110.503 283.5,111.5C 265.123,98.2631 246.789,98.2631 228.5,111.5C 206.598,110.174 184.598,110.174 162.5,111.5C 163.061,106.824 164.394,102.491 166.5,98.5 Z"/></g>
<g><path style="opacity:1" fill="#3a394c" d="M 283.5,111.5 C 293.778,119.724 302.445,129.391 309.5,140.5C 315.36,153.273 319.36,166.607 321.5,180.5C 322.457,187.477 322.623,194.477 322,201.5C 320.035,203.55 317.868,205.217 315.5,206.5C 307.931,210.07 300.597,214.07 293.5,218.5C 285.293,223.103 276.959,227.437 268.5,231.5C 259.81,234.075 251.143,234.075 242.5,231.5C 234.329,226.914 225.995,222.58 217.5,218.5C 211.162,214.329 204.496,210.663 197.5,207.5C 195.41,205.61 193.077,203.943 190.5,202.5C 189.574,198.906 189.241,195.24 189.5,191.5C 189.38,183.34 190.38,175.34 192.5,167.5C 194.648,158.055 197.981,149.055 202.5,140.5C 209.029,128.968 217.696,119.301 228.5,111.5C 246.789,98.2631 265.123,98.2631 283.5,111.5 Z"/></g>
<g><path style="opacity:1" fill="#d86f8e" d="M 228.5,111.5 C 217.696,119.301 209.029,128.968 202.5,140.5C 188.754,140.815 175.088,140.481 161.5,139.5C 161.22,130.114 161.553,120.78 162.5,111.5C 184.598,110.174 206.598,110.174 228.5,111.5 Z"/></g>
<g><path style="opacity:1" fill="#d86f8e" d="M 348.5,110.5 C 349.473,112.948 349.806,115.615 349.5,118.5C 349.5,125.833 349.5,133.167 349.5,140.5C 336.167,140.5 322.833,140.5 309.5,140.5C 302.445,129.391 293.778,119.724 283.5,111.5C 304.994,110.503 326.66,110.169 348.5,110.5 Z"/></g>
<g><path style="opacity:1" fill="#646494" d="M 282.5,124.5 C 264.5,125.833 246.5,125.833 228.5,124.5C 246.51,107.229 264.51,107.229 282.5,124.5 Z"/></g>
<g><path style="opacity:1" fill="#63638e" d="M 228.5,124.5 C 246.5,125.833 264.5,125.833 282.5,124.5C 287.816,128.819 292.483,133.819 296.5,139.5C 269.5,139.5 242.5,139.5 215.5,139.5C 218.742,133.589 223.075,128.589 228.5,124.5 Z"/></g>
<g><path style="opacity:1" fill="#5c5c8e" d="M 215.5,139.5 C 242.5,139.5 269.5,139.5 296.5,139.5C 298.025,141.216 299.025,143.216 299.5,145.5C 270.329,145.831 241.329,145.498 212.5,144.5C 213.11,142.566 214.11,140.899 215.5,139.5 Z"/></g>
<g><path style="opacity:1" fill="#ca6e8e" d="M 161.5,139.5 C 175.088,140.481 188.754,140.815 202.5,140.5C 197.981,149.055 194.648,158.055 192.5,167.5C 182.833,167.5 173.167,167.5 163.5,167.5C 163.585,158.105 162.918,148.771 161.5,139.5 Z"/></g>
<g><path style="opacity:1" fill="#5c5c88" d="M 212.5,144.5 C 241.329,145.498 270.329,145.831 299.5,145.5C 302.82,149.144 304.82,153.478 305.5,158.5C 272.167,158.5 238.833,158.5 205.5,158.5C 207.033,153.338 209.366,148.671 212.5,144.5 Z"/></g>
<g><path style="opacity:1" fill="#565688" d="M 205.5,158.5 C 238.833,158.5 272.167,158.5 305.5,158.5C 307.163,160.438 307.829,162.772 307.5,165.5C 273.167,165.5 238.833,165.5 204.5,165.5C 204.5,164.5 204.5,163.5 204.5,162.5C 204.433,161.041 204.766,159.708 205.5,158.5 Z"/></g>
<g><path style="opacity:1" fill="#575783" d="M 204.5,162.5 C 204.5,163.5 204.5,164.5 204.5,165.5C 238.833,165.5 273.167,165.5 307.5,165.5C 309.281,169.2 310.281,173.2 310.5,177.5C 305.5,177.5 300.5,177.5 295.5,177.5C 294.962,175.883 294.629,174.216 294.5,172.5C 290.259,173.954 286.259,175.954 282.5,178.5C 264.833,177.167 247.167,177.167 229.5,178.5C 225.85,176.528 222.184,174.528 218.5,172.5C 216.783,173.668 216.116,175.335 216.5,177.5C 210.865,176.963 205.532,177.63 200.5,179.5C 201.088,173.539 202.421,167.873 204.5,162.5 Z"/></g>
<g><path style="opacity:1" fill="#f4f4f6" d="M 295.5,177.5 C 293.134,192.018 284.8,197.518 270.5,194C 268.5,192.667 266.5,191.333 264.5,190C 270.384,185.943 276.384,182.11 282.5,178.5C 286.259,175.954 290.259,173.954 294.5,172.5C 294.629,174.216 294.962,175.883 295.5,177.5 Z"/></g>
<g><path style="opacity:1" fill="#c46b8b" d="M 349.5,118.5 C 350.656,126.323 350.823,134.323 350,142.5C 346.197,155.06 346.697,167.393 351.5,179.5C 341.681,180.494 331.681,180.827 321.5,180.5C 319.36,166.607 315.36,153.273 309.5,140.5C 322.833,140.5 336.167,140.5 349.5,140.5C 349.5,133.167 349.5,125.833 349.5,118.5 Z"/></g>
<g><path style="opacity:1" fill="#f4f4f6" d="M 229.5,178.5 C 234.932,182.392 240.598,186.058 246.5,189.5C 237.747,197.48 228.913,197.48 220,189.5C 217.369,185.911 216.203,181.911 216.5,177.5C 216.116,175.335 216.783,173.668 218.5,172.5C 222.184,174.528 225.85,176.528 229.5,178.5 Z"/></g>
<g><path style="opacity:1" fill="#bc6989" d="M 163.5,167.5 C 173.167,167.5 182.833,167.5 192.5,167.5C 190.38,175.34 189.38,183.34 189.5,191.5C 176.735,192.821 164.069,192.821 151.5,191.5C 157.66,184.514 161.66,176.514 163.5,167.5 Z"/></g>
<g><path style="opacity:1" fill="#52527f" d="M 216.5,177.5 C 216.203,181.911 217.369,185.911 220,189.5C 228.913,197.48 237.747,197.48 246.5,189.5C 240.598,186.058 234.932,182.392 229.5,178.5C 247.167,177.167 264.833,177.167 282.5,178.5C 276.384,182.11 270.384,185.943 264.5,190C 266.5,191.333 268.5,192.667 270.5,194C 284.8,197.518 293.134,192.018 295.5,177.5C 300.5,177.5 305.5,177.5 310.5,177.5C 312.16,183.61 312.66,189.944 312,196.5C 311.617,197.056 311.117,197.389 310.5,197.5C 274.167,196.167 237.833,196.167 201.5,197.5C 200.883,197.389 200.383,197.056 200,196.5C 199.374,190.805 199.541,185.138 200.5,179.5C 205.532,177.63 210.865,176.963 216.5,177.5 Z"/></g>
<g><path style="opacity:1" fill="#b56988" d="M 351.5,179.5 C 354.086,184.305 357.42,188.639 361.5,192.5C 367.569,197.187 373.569,201.853 379.5,206.5C 358.167,207.833 336.833,207.833 315.5,206.5C 317.868,205.217 320.035,203.55 322,201.5C 322.623,194.477 322.457,187.477 321.5,180.5C 331.681,180.827 341.681,180.494 351.5,179.5 Z"/></g>
<g><path style="opacity:1" fill="#b36988" d="M 151.5,191.5 C 164.069,192.821 176.735,192.821 189.5,191.5C 189.241,195.24 189.574,198.906 190.5,202.5C 193.077,203.943 195.41,205.61 197.5,207.5C 175.167,207.5 152.833,207.5 130.5,207.5C 137.476,202.198 144.476,196.864 151.5,191.5 Z"/></g>
<g><path style="opacity:1" fill="#4a4a7c" d="M 201.5,197.5 C 237.833,196.167 274.167,196.167 310.5,197.5C 303.631,201.434 296.631,205.101 289.5,208.5C 266.833,208.5 244.167,208.5 221.5,208.5C 214.615,205.207 207.949,201.54 201.5,197.5 Z"/></g>
<g><path style="opacity:1" fill="#ae6388" d="M 315.5,206.5 C 336.833,207.833 358.167,207.833 379.5,206.5C 385.891,210.356 391.891,214.689 397.5,219.5C 384.171,220.167 370.671,220.5 357,220.5C 335.647,220.645 314.48,219.978 293.5,218.5C 300.597,214.07 307.931,210.07 315.5,206.5 Z"/></g>
<g><path style="opacity:1" fill="#ae6388" d="M 130.5,207.5 C 152.833,207.5 175.167,207.5 197.5,207.5C 204.496,210.663 211.162,214.329 217.5,218.5C 196.687,219.989 175.687,220.655 154.5,220.5C 140.663,220.5 126.996,220.167 113.5,219.5C 119.167,215.5 124.833,211.5 130.5,207.5 Z"/></g>
<g><path style="opacity:1" fill="#4a4a75" d="M 221.5,208.5 C 244.167,208.5 266.833,208.5 289.5,208.5C 282.67,213.302 275.336,217.469 267.5,221C 259.541,224.229 251.541,224.229 243.5,221C 235.91,217.045 228.576,212.879 221.5,208.5 Z"/></g>
<g><path style="opacity:1" fill="#a76388" d="M 217.5,218.5 C 225.995,222.58 234.329,226.914 242.5,231.5C 196.003,232.499 149.336,232.832 102.5,232.5C 104.317,226.677 107.984,222.343 113.5,219.5C 126.996,220.167 140.663,220.5 154.5,220.5C 175.687,220.655 196.687,219.989 217.5,218.5 Z"/></g>
<g><path style="opacity:1" fill="#a76388" d="M 293.5,218.5 C 314.48,219.978 335.647,220.645 357,220.5C 370.671,220.5 384.171,220.167 397.5,219.5C 402.237,221.694 405.904,225.028 408.5,229.5C 408.5,230.5 408.5,231.5 408.5,232.5C 361.664,232.832 314.997,232.499 268.5,231.5C 276.959,227.437 285.293,223.103 293.5,218.5 Z"/></g>
<g><path style="opacity:1" fill="#a16388" d="M 408.5,229.5 C 411.059,236.406 409.059,241.739 402.5,245.5C 304.5,245.5 206.5,245.5 108.5,245.5C 104.091,242.345 102.091,238.012 102.5,232.5C 149.336,232.832 196.003,232.499 242.5,231.5C 251.143,234.075 259.81,234.075 268.5,231.5C 314.997,232.499 361.664,232.832 408.5,232.5C 408.5,231.5 408.5,230.5 408.5,229.5 Z"/></g>
<g><path style="opacity:1" fill="#9b6388" d="M 108.5,245.5 C 206.5,245.5 304.5,245.5 402.5,245.5C 397.623,251.375 391.623,255.709 384.5,258.5C 298.5,257.167 212.5,257.167 126.5,258.5C 119.431,255.634 113.431,251.3 108.5,245.5 Z"/></g>
<g><path style="opacity:1" fill="#956388" d="M 384.5,258.5 C 380.082,261.203 375.416,263.537 370.5,265.5C 294.167,264.167 217.833,264.167 141.5,265.5C 136.315,263.406 131.315,261.072 126.5,258.5C 212.5,257.167 298.5,257.167 384.5,258.5 Z"/></g>
<g><path style="opacity:1" fill="#38384c" d="M 73.5,262.5 C 78.6855,263.756 83.6855,265.59 88.5,268C 143.95,293.726 199.617,318.893 255.5,343.5C 315.769,316.796 375.935,289.796 436,262.5C 439.205,263.038 441.039,264.872 441.5,268C 418.476,314.537 385.809,353.037 343.5,383.5C 349.938,386.926 356.438,390.259 363,393.5C 365.983,386.864 368.983,380.197 372,373.5C 376.141,367.689 381.641,363.856 388.5,362C 396.5,361.333 404.5,361.333 412.5,362C 414.478,364.497 414.978,367.331 414,370.5C 408.833,383.5 403.667,396.5 398.5,409.5C 417.446,418.638 435.779,428.804 453.5,440C 473.816,436.664 483.983,445.164 484,465.5C 480.024,477.909 471.524,483.409 458.5,482C 455.215,481.241 452.215,479.908 449.5,478C 446.931,474.988 444.264,472.154 441.5,469.5C 421.505,465.96 402.005,460.626 383,453.5C 379.679,460.1 376.346,466.767 373,473.5C 362.25,484.042 349.417,487.542 334.5,484C 333.584,483.626 332.75,483.126 332,482.5C 331.333,480.167 331.333,477.833 332,475.5C 335.642,465.571 339.475,455.738 343.5,446C 313.448,443.223 284.115,437.056 255.5,427.5C 226.887,437.056 197.554,443.223 167.5,446C 171.525,455.738 175.358,465.571 179,475.5C 179.667,477.833 179.667,480.167 179,482.5C 178.25,483.126 177.416,483.626 176.5,484C 169.5,484.667 162.5,484.667 155.5,484C 141.829,480.327 133.663,471.493 131,457.5C 130.477,455.777 129.477,454.444 128,453.5C 108.995,460.626 89.4946,465.96 69.5,469.5C 61.6068,481.298 50.9401,484.798 37.5,480C 26.9854,472.45 24.152,462.616 29,450.5C 36.0031,440.496 45.5031,436.996 57.5,440C 75.221,428.804 93.5543,418.638 112.5,409.5C 107.333,396.5 102.167,383.5 97,370.5C 96.0218,367.331 96.5218,364.497 98.5,362C 106.5,361.333 114.5,361.333 122.5,362C 129.359,363.856 134.859,367.689 139,373.5C 142.017,380.197 145.017,386.864 148,393.5C 154.562,390.259 161.062,386.926 167.5,383.5C 126.162,353.338 93.6617,315.671 70,270.5C 68.7801,266.707 69.9468,264.04 73.5,262.5 Z"/></g>
<g><path style="opacity:1" fill="#955c88" d="M 141.5,265.5 C 217.833,264.167 294.167,264.167 370.5,265.5C 364.952,268.107 359.285,270.44 353.5,272.5C 288.167,272.5 222.833,272.5 157.5,272.5C 151.996,270.554 146.663,268.221 141.5,265.5 Z"/></g>
<g><path style="opacity:1" fill="#8e5c88" d="M 157.5,272.5 C 222.833,272.5 288.167,272.5 353.5,272.5C 344.476,277.343 335.142,281.677 325.5,285.5C 279.167,285.5 232.833,285.5 186.5,285.5C 176.505,281.731 166.838,277.398 157.5,272.5 Z"/></g>
<g><path style="opacity:1" fill="#dde5f8" d="M 186.5,324.5 C 180.774,339.617 174.774,354.617 168.5,369.5C 143.562,351.73 122.062,330.396 104,305.5C 98.3036,297.302 92.8036,288.969 87.5,280.5C 120.576,294.33 153.576,308.997 186.5,324.5 Z"/></g>
<g><path style="opacity:1" fill="#b9c5f7" d="M 383.5,333.5 C 378.105,324.086 373.105,314.42 368.5,304.5C 386.612,296.073 404.779,287.739 423,279.5C 419.247,286.979 414.914,294.313 410,301.5C 401.864,312.79 393.03,323.457 383.5,333.5 Z"/></g>
<g><path style="opacity:1" fill="#885c82" d="M 186.5,285.5 C 232.833,285.5 279.167,285.5 325.5,285.5C 316.162,290.398 306.495,294.731 296.5,298.5C 269.264,297.172 241.931,297.172 214.5,298.5C 204.888,294.693 195.555,290.36 186.5,285.5 Z"/></g>
<g><path style="opacity:1" fill="#815c82" d="M 296.5,298.5 C 287.38,303.225 278.047,307.725 268.5,312C 261.765,315.64 254.765,316.307 247.5,314C 236.409,308.785 225.409,303.618 214.5,298.5C 241.931,297.172 269.264,297.172 296.5,298.5 Z"/></g>
<g><path style="opacity:1" fill="#b5c0f8" d="M 368.5,304.5 C 373.105,314.42 378.105,324.086 383.5,333.5C 378.5,339.167 373.167,344.5 367.5,349.5C 360.494,338.756 354.16,327.422 348.5,315.5C 348.863,314.817 349.196,314.15 349.5,313.5C 355.648,310.261 361.981,307.261 368.5,304.5 Z"/></g>
<g><path style="opacity:1" fill="#afbaf8" d="M 349.5,313.5 C 349.196,314.15 348.863,314.817 348.5,315.5C 354.16,327.422 360.494,338.756 367.5,349.5C 361.778,355.555 355.444,360.889 348.5,365.5C 341.529,351.517 334.529,337.517 327.5,323.5C 334.527,319.656 341.86,316.323 349.5,313.5 Z"/></g>
<g><path style="opacity:1" fill="#a9b4f9" d="M 327.5,323.5 C 334.529,337.517 341.529,351.517 348.5,365.5C 343.142,370.186 337.475,374.519 331.5,378.5C 322.932,364.371 315.099,349.705 308,334.5C 307.329,333.748 306.496,333.414 305.5,333.5C 312.527,329.656 319.86,326.323 327.5,323.5 Z"/></g>
<g><path style="opacity:1" fill="#d5e0f9" d="M 186.5,324.5 C 199.833,330.5 213.167,336.5 226.5,342.5C 221.964,355.245 217.131,367.912 212,380.5C 210.287,385.192 208.12,389.525 205.5,393.5C 192.084,387.068 179.75,379.068 168.5,369.5C 174.774,354.617 180.774,339.617 186.5,324.5 Z"/></g>
<g><path style="opacity:1" fill="#a1acf7" d="M 305.5,333.5 C 306.496,333.414 307.329,333.748 308,334.5C 315.099,349.705 322.932,364.371 331.5,378.5C 309.996,370.081 288.996,360.581 268.5,350C 280.619,343.939 292.952,338.439 305.5,333.5 Z"/></g>
<g><path style="opacity:1" fill="#ced9f9" d="M 226.5,342.5 C 238.047,348.107 249.714,353.441 261.5,358.5C 254.55,375.399 247.883,392.399 241.5,409.5C 240.5,409.5 239.5,409.5 238.5,409.5C 226.788,405.476 215.788,400.143 205.5,393.5C 208.12,389.525 210.287,385.192 212,380.5C 217.131,367.912 221.964,355.245 226.5,342.5 Z"/></g>
<g><path style="opacity:1" fill="#c8d3f9" d="M 261.5,358.5 C 273.047,364.107 284.714,369.441 296.5,374.5C 290.243,389.431 284.076,404.431 278,419.5C 277.623,420.942 276.79,421.942 275.5,422.5C 262.738,419.136 250.404,414.803 238.5,409.5C 239.5,409.5 240.5,409.5 241.5,409.5C 247.883,392.399 254.55,375.399 261.5,358.5 Z"/></g>
<g><path style="opacity:1" fill="#c1cdf8" d="M 296.5,374.5 C 307.992,379.656 319.325,384.989 330.5,390.5C 325.909,401.77 321.409,413.103 317,424.5C 316.186,427.177 314.686,429.177 312.5,430.5C 299.814,429.001 287.48,426.335 275.5,422.5C 276.79,421.942 277.623,420.942 278,419.5C 284.076,404.431 290.243,389.431 296.5,374.5 Z"/></g>
<g><path style="opacity:1" fill="#7670a0" d="M 137.5,398.5 C 131.642,398.178 125.975,398.511 120.5,399.5C 116.314,390.447 112.647,381.114 109.5,371.5C 117.784,370.538 124.617,373.204 130,379.5C 133.074,385.641 135.574,391.974 137.5,398.5 Z"/></g>
<g><path style="opacity:1" fill="#7670a0" d="M 390.5,399.5 C 385.025,398.511 379.358,398.178 373.5,398.5C 375.32,389.529 379.32,381.695 385.5,375C 390.392,371.941 395.725,370.775 401.5,371.5C 398.353,381.114 394.686,390.447 390.5,399.5 Z"/></g>
<g><path style="opacity:1" fill="#828ef7" d="M 196.5,431.5 C 196.611,430.883 196.944,430.383 197.5,430C 191.294,417.755 184.961,405.588 178.5,393.5C 178.043,392.702 177.376,392.369 176.5,392.5C 177.261,391.609 178.261,390.942 179.5,390.5C 198.319,402.243 217.986,412.41 238.5,421C 224.783,425.446 210.783,428.946 196.5,431.5 Z"/></g>
<g><path style="opacity:1" fill="#7b87f8" d="M 176.5,392.5 C 177.376,392.369 178.043,392.702 178.5,393.5C 184.961,405.588 191.294,417.755 197.5,430C 196.944,430.383 196.611,430.883 196.5,431.5C 185.219,433.57 173.886,434.236 162.5,433.5C 158.629,423.595 154.629,413.762 150.5,404C 158.816,399.341 167.482,395.508 176.5,392.5 Z"/></g>
<g><path style="opacity:1" fill="#bac6f8" d="M 330.5,390.5 C 340.636,394.711 350.636,399.211 360.5,404C 356.602,413.857 352.602,423.69 348.5,433.5C 336.175,434.955 324.175,433.955 312.5,430.5C 314.686,429.177 316.186,427.177 317,424.5C 321.409,413.103 325.909,401.77 330.5,390.5 Z"/></g>
<g><path style="opacity:1" fill="#686494" d="M 137.5,398.5 C 141.677,408.349 145.677,418.349 149.5,428.5C 133.325,428.83 117.325,428.496 101.5,427.5C 109.145,423.925 116.645,419.925 124,415.5C 124.667,413.833 124.667,412.167 124,410.5C 122.326,406.979 121.16,403.313 120.5,399.5C 125.975,398.511 131.642,398.178 137.5,398.5 Z"/></g>
<g><path style="opacity:1" fill="#686494" d="M 373.5,398.5 C 379.358,398.178 385.025,398.511 390.5,399.5C 389.84,403.313 388.674,406.979 387,410.5C 385.959,413.636 386.793,416.136 389.5,418C 396.484,420.706 403.151,423.872 409.5,427.5C 393.675,428.496 377.675,428.83 361.5,428.5C 365.323,418.349 369.323,408.349 373.5,398.5 Z"/></g>
<g><path style="opacity:1" fill="#615c8e" d="M 101.5,427.5 C 117.325,428.496 133.325,428.83 149.5,428.5C 150.363,430.421 151.029,432.421 151.5,434.5C 130.167,435.833 108.833,435.833 87.5,434.5C 91.8489,431.659 96.5156,429.326 101.5,427.5 Z"/></g>
<g><path style="opacity:1" fill="#615c8e" d="M 409.5,427.5 C 414.481,429.324 419.148,431.657 423.5,434.5C 402.167,435.833 380.833,435.833 359.5,434.5C 359.971,432.421 360.637,430.421 361.5,428.5C 377.675,428.83 393.675,428.496 409.5,427.5 Z"/></g>
<g><path style="opacity:1" fill="#5b5a87" d="M 87.5,434.5 C 108.833,435.833 130.167,435.833 151.5,434.5C 154.919,441.141 157.585,448.141 159.5,455.5C 153.642,455.178 147.975,455.511 142.5,456.5C 140.456,451.541 138.123,446.708 135.5,442C 132.739,441.278 130.073,441.445 127.5,442.5C 110.341,441.503 93.008,441.17 75.5,441.5C 79.1362,438.677 83.1362,436.344 87.5,434.5 Z"/></g>
<g><path style="opacity:1" fill="#5b5a87" d="M 359.5,434.5 C 380.833,435.833 402.167,435.833 423.5,434.5C 427.864,436.344 431.864,438.677 435.5,441.5C 417.992,441.17 400.659,441.503 383.5,442.5C 380.887,441.565 378.221,441.398 375.5,442C 372.868,446.755 370.534,451.588 368.5,456.5C 363.025,455.511 357.358,455.178 351.5,455.5C 353.415,448.141 356.081,441.141 359.5,434.5 Z"/></g>
<g><path style="opacity:1" fill="#565585" d="M 75.5,441.5 C 93.008,441.17 110.341,441.503 127.5,442.5C 106.099,450.517 84.0994,456.35 61.5,460C 59.5166,462.954 57.5166,465.954 55.5,469C 48.5062,473.191 42.6728,472.025 38,465.5C 36.0578,459.11 37.8912,454.277 43.5,451C 48.9556,450.536 54.2889,450.869 59.5,452C 64.4453,447.884 69.7786,444.384 75.5,441.5 Z"/></g>
<g><path style="opacity:1" fill="#565485" d="M 383.5,442.5 C 400.659,441.503 417.992,441.17 435.5,441.5C 441.221,444.384 446.555,447.884 451.5,452C 455.36,451.676 459.193,450.842 463,449.5C 472.089,451.253 475.423,456.586 473,465.5C 468.844,471.47 463.344,472.97 456.5,470C 453.981,466.724 451.648,463.39 449.5,460C 426.828,456.633 404.828,450.8 383.5,442.5 Z"/></g>
<g><path style="opacity:1" fill="#505080" d="M 159.5,455.5 C 162.642,461.466 164.975,467.799 166.5,474.5C 153.018,475.673 145.018,469.673 142.5,456.5C 147.975,455.511 153.642,455.178 159.5,455.5 Z"/></g>
<g><path style="opacity:1" fill="#505081" d="M 351.5,455.5 C 357.358,455.178 363.025,455.511 368.5,456.5C 365.698,469.251 357.698,475.251 344.5,474.5C 346.025,467.799 348.358,461.466 351.5,455.5 Z"/></g>
</svg>
