<?xml version="1.0" encoding="UTF-8"?>
<!DOCTYPE svg PUBLIC "-//W3C//DTD SVG 1.1//EN" "http://www.w3.org/Graphics/SVG/1.1/DTD/svg11.dtd">
<svg xmlns="http://www.w3.org/2000/svg" version="1.1" width="512px" height="512px" style="shape-rendering:geometricPrecision; text-rendering:geometricPrecision; image-rendering:optimizeQuality; fill-rule:evenodd; clip-rule:evenodd" xmlns:xlink="http://www.w3.org/1999/xlink">
<g><path style="opacity:1" fill="#7972a8" d="M 335.5,89.5 C 322.5,88.8333 309.5,88.1667 296.5,87.5C 297.627,70.3114 297.294,53.1447 295.5,36C 295.495,33.8372 296.495,32.3372 298.5,31.5C 317.28,46.6343 329.613,65.9676 335.5,89.5 Z"/></g>
<g><path style="opacity:1" fill="#7069a0" d="M 296.5,87.5 C 309.5,88.1667 322.5,88.8333 335.5,89.5C 339.041,101.192 341.707,113.192 343.5,125.5C 337.916,119.705 331.583,114.872 324.5,111C 317.169,109.402 310.502,110.735 304.5,115C 299.603,119.729 294.936,124.562 290.5,129.5C 293.339,115.626 295.339,101.626 296.5,87.5 Z"/></g>
<g><path style="opacity:1" fill="#756da4" d="M 231.5,112.5 C 215.375,98.5163 200.041,99.1829 185.5,114.5C 181.211,84.0935 189.878,58.2602 211.5,37C 214.695,34.7609 216.695,35.5943 217.5,39.5C 215.817,52.9753 216.65,66.3086 220,79.5C 223.151,90.7873 226.984,101.787 231.5,112.5 Z"/></g>
<g><path style="opacity:1" fill="#f9ba89" d="M 231.5,112.5 C 240.883,118.216 248.216,125.883 253.5,135.5C 225.907,134.509 198.241,134.176 170.5,134.5C 174.762,127.244 179.762,120.577 185.5,114.5C 200.041,99.1829 215.375,98.5163 231.5,112.5 Z"/></g>
<g><path style="opacity:1" fill="#f8ba89" d="M 343.5,125.5 C 346.392,128.271 349.058,131.271 351.5,134.5C 330.497,134.667 309.497,134.5 288.5,134C 289.999,133.162 290.332,132.329 289.5,131.5C 289.328,130.508 289.662,129.842 290.5,129.5C 294.936,124.562 299.603,119.729 304.5,115C 310.502,110.735 317.169,109.402 324.5,111C 331.583,114.872 337.916,119.705 343.5,125.5 Z"/></g>
<g><path style="opacity:1" fill="#fab583" d="M 289.5,131.5 C 290.332,132.329 289.999,133.162 288.5,134C 309.497,134.5 330.497,134.667 351.5,134.5C 359.235,143.964 364.901,154.631 368.5,166.5C 337.338,167.498 306.004,167.832 274.5,167.5C 276.15,160.045 278.317,152.712 281,145.5C 283.106,140.27 285.939,135.603 289.5,131.5 Z"/></g>
<g><path style="opacity:1" fill="#fab583" d="M 170.5,134.5 C 198.241,134.176 225.907,134.509 253.5,135.5C 253.663,137.857 253.497,140.19 253,142.5C 249.261,150.883 246.428,159.549 244.5,168.5C 214.016,166.838 183.682,167.172 153.5,169.5C 156.773,156.621 162.44,144.955 170.5,134.5 Z"/></g>
<g><path style="opacity:1" fill="#645d95" d="M 116.5,199.5 C 103.271,195.867 93.7712,200.2 88,212.5C 85.4219,218.991 83.4219,225.657 82,232.5C 81.6174,233.056 81.1174,233.389 80.5,233.5C 60.1737,198.059 62.1737,164.059 86.5,131.5C 87.9814,130.52 89.3147,129.353 90.5,128C 92.1124,127.28 93.6124,127.446 95,128.5C 94.1008,149.674 98.4341,169.674 108,188.5C 110.358,192.558 113.192,196.225 116.5,199.5 Z"/></g>
<g><path style="opacity:1" fill="#645d95" d="M 432.5,199.5 C 422.894,192.12 412.894,191.62 402.5,198C 399.631,201.038 396.631,203.871 393.5,206.5C 397.303,183.631 398.469,160.631 397,137.5C 397.739,136.426 398.739,135.759 400,135.5C 423.762,150.022 434.596,171.355 432.5,199.5 Z"/></g>
<g><path style="opacity:1" fill="#faaf83" d="M 244.5,168.5 C 242.415,180.454 242.081,192.454 243.5,204.5C 220.069,205.157 196.736,205.824 173.5,206.5C 159.774,198.052 153.107,185.719 153.5,169.5C 183.682,167.172 214.016,166.838 244.5,168.5 Z"/></g>
<g><path style="opacity:1" fill="#faaf83" d="M 368.5,166.5 C 372.061,178.888 370.227,190.555 363,201.5C 361.629,203.041 360.129,204.375 358.5,205.5C 331.167,205.5 303.833,205.5 276.5,205.5C 275.732,204.737 275.232,203.737 275,202.5C 273.205,190.853 273.038,179.186 274.5,167.5C 306.004,167.832 337.338,167.498 368.5,166.5 Z"/></g>
<g><path style="opacity:1" fill="#faa882" d="M 243.5,204.5 C 246.632,214.32 243.299,220.487 233.5,223C 222.196,224.388 210.863,224.721 199.5,224C 189.333,220.322 180.666,214.489 173.5,206.5C 196.736,205.824 220.069,205.157 243.5,204.5 Z"/></g>
<g><path style="opacity:1" fill="#faa781" d="M 276.5,205.5 C 303.833,205.5 331.167,205.5 358.5,205.5C 350.925,214.577 342.258,222.41 332.5,229C 325.167,232.333 317.833,232.333 310.5,229C 302.5,225.333 294.5,221.667 286.5,218C 281.431,215.11 278.098,210.944 276.5,205.5 Z"/></g>
<g><path style="opacity:1" fill="#f9a87f" d="M 432.5,199.5 C 436.852,203.526 439.685,208.526 441,214.5C 442.985,222.384 444.152,230.384 444.5,238.5C 417.574,237.509 390.574,237.176 363.5,237.5C 372.819,226.548 382.819,216.214 393.5,206.5C 396.631,203.871 399.631,201.038 402.5,198C 412.894,191.62 422.894,192.12 432.5,199.5 Z"/></g>
<g><path style="opacity:1" fill="#f9a87e" d="M 116.5,199.5 C 124.744,201.122 132.078,204.622 138.5,210C 147.446,218.106 155.446,226.94 162.5,236.5C 135.338,237.498 108.005,237.831 80.5,237.5C 80.5,236.167 80.5,234.833 80.5,233.5C 81.1174,233.389 81.6174,233.056 82,232.5C 83.4219,225.657 85.4219,218.991 88,212.5C 93.7712,200.2 103.271,195.867 116.5,199.5 Z"/></g>
<g><path style="opacity:1" fill="#faa27d" d="M 162.5,236.5 C 174.486,247.359 175.486,259.026 165.5,271.5C 136.338,270.502 107.005,270.169 77.5,270.5C 76.5141,259.365 77.5141,248.365 80.5,237.5C 108.005,237.831 135.338,237.498 162.5,236.5 Z"/></g>
<g><path style="opacity:1" fill="#faa27d" d="M 363.5,237.5 C 390.574,237.176 417.574,237.509 444.5,238.5C 444.442,245.86 443.942,253.194 443,260.5C 442.356,264.619 440.856,268.285 438.5,271.5C 412.672,270.502 386.672,270.169 360.5,270.5C 355.459,260.899 355.293,251.233 360,241.5C 360.949,239.907 362.115,238.574 363.5,237.5 Z"/></g>
<g><path style="opacity:1" fill="#faa27d" d="M 298.5,269.5 C 269.671,270.498 240.671,270.831 211.5,270.5C 232.289,256.093 254.956,252.593 279.5,260C 286.139,262.653 292.472,265.819 298.5,269.5 Z"/></g>
<g><path style="opacity:1" fill="#fa9c7c" d="M 77.5,270.5 C 107.005,270.169 136.338,270.502 165.5,271.5C 155.87,284.298 144.203,294.798 130.5,303C 125.107,304.663 119.773,304.33 114.5,302C 101.592,295.429 90.0924,286.929 80,276.5C 78.878,274.593 78.0447,272.593 77.5,270.5 Z"/></g>
<g><path style="opacity:1" fill="#fa9c7d" d="M 298.5,269.5 C 311.209,278.542 321.876,289.542 330.5,302.5C 315.99,302.171 301.657,302.504 287.5,303.5C 278.132,295.725 267.965,289.058 257,283.5C 249.034,289.632 241.534,296.299 234.5,303.5C 216.674,302.503 198.674,302.17 180.5,302.5C 188.097,289.236 198.43,278.569 211.5,270.5C 240.671,270.831 269.671,270.498 298.5,269.5 Z"/></g>
<g><path style="opacity:1" fill="#fa9b7c" d="M 360.5,270.5 C 386.672,270.169 412.672,270.502 438.5,271.5C 430.786,286.049 419.786,297.549 405.5,306C 393.482,309.622 383.315,306.788 375,297.5C 369.631,288.76 364.797,279.76 360.5,270.5 Z"/></g>
<g><path style="opacity:1" fill="#faf8f8" d="M 287.5,303.5 C 292.5,309.167 297.833,314.5 303.5,319.5C 303.414,320.496 303.748,321.329 304.5,322C 290.455,318.112 276.288,314.278 262,310.5C 259.039,312.128 256.705,314.461 255,317.5C 249.942,325.051 245.109,332.717 240.5,340.5C 235.022,348.777 230.022,357.444 225.5,366.5C 226.691,369.568 228.358,372.235 230.5,374.5C 239.414,386.218 250.581,395.218 264,401.5C 273.167,395 281,387.167 287.5,378C 286.672,376.008 285.339,374.508 283.5,373.5C 282.055,370.882 280.389,368.382 278.5,366C 272.903,367.359 267.236,368.859 261.5,370.5C 259.207,368.608 257.374,366.275 256,363.5C 254.115,361.086 253.448,358.419 254,355.5C 258.003,350.665 262.17,345.998 266.5,341.5C 269.833,338.336 273.333,335.336 277,332.5C 281.443,335.634 285.943,338.634 290.5,341.5C 301.805,351.147 311.472,362.147 319.5,374.5C 320.973,377.447 322.473,380.447 324,383.5C 324.667,384.5 324.667,385.5 324,386.5C 318.329,393.004 312.495,399.337 306.5,405.5C 292.99,417.506 278.49,428.172 263,437.5C 245.364,428.941 229.198,418.274 214.5,405.5C 204.123,395.457 194.456,384.79 185.5,373.5C 190.361,362.332 196.028,351.665 202.5,341.5C 208.155,334.205 213.822,326.872 219.5,319.5C 224.472,314.193 229.472,308.86 234.5,303.5C 241.534,296.299 249.034,289.632 257,283.5C 267.965,289.058 278.132,295.725 287.5,303.5 Z"/></g>
<g><path style="opacity:1" fill="#fa967d" d="M 180.5,302.5 C 198.674,302.17 216.674,302.503 234.5,303.5C 229.472,308.86 224.472,314.193 219.5,319.5C 203.167,319.5 186.833,319.5 170.5,319.5C 173.044,313.308 176.377,307.641 180.5,302.5 Z"/></g>
<g><path style="opacity:1" fill="#fa967d" d="M 330.5,302.5 C 334.921,308.334 338.588,314.668 341.5,321.5C 341.565,321.938 341.399,322.272 341,322.5C 340.626,321.584 340.126,320.75 339.5,320C 327.505,319.5 315.505,319.333 303.5,319.5C 297.833,314.5 292.5,309.167 287.5,303.5C 301.657,302.504 315.99,302.171 330.5,302.5 Z"/></g>
<g><path style="opacity:1" fill="#fa9676" d="M 170.5,319.5 C 186.833,319.5 203.167,319.5 219.5,319.5C 213.822,326.872 208.155,334.205 202.5,341.5C 187.009,340.504 171.342,340.17 155.5,340.5C 160.92,333.755 165.92,326.755 170.5,319.5 Z"/></g>
<g><path style="opacity:1" fill="#fa9677" d="M 303.5,319.5 C 315.505,319.333 327.505,319.5 339.5,320C 340.126,320.75 340.626,321.584 341,322.5C 341.399,322.272 341.565,321.938 341.5,321.5C 345.422,328.329 350.089,334.662 355.5,340.5C 333.66,340.169 311.994,340.503 290.5,341.5C 285.943,338.634 281.443,335.634 277,332.5C 273.333,335.336 269.833,338.336 266.5,341.5C 258.016,340.507 249.349,340.174 240.5,340.5C 245.109,332.717 249.942,325.051 255,317.5C 256.705,314.461 259.039,312.128 262,310.5C 276.288,314.278 290.455,318.112 304.5,322C 303.748,321.329 303.414,320.496 303.5,319.5 Z"/></g>
<g><path style="opacity:1" fill="#fa8f76" d="M 155.5,340.5 C 171.342,340.17 187.009,340.504 202.5,341.5C 196.028,351.665 190.361,362.332 185.5,373.5C 161.994,373.831 138.661,373.498 115.5,372.5C 118.251,368.243 121.584,364.41 125.5,361C 136.396,355.392 146.396,348.559 155.5,340.5 Z"/></g>
<g><path style="opacity:1" fill="#fa9077" d="M 240.5,340.5 C 249.349,340.174 258.016,340.507 266.5,341.5C 262.17,345.998 258.003,350.665 254,355.5C 253.448,358.419 254.115,361.086 256,363.5C 257.374,366.275 259.207,368.608 261.5,370.5C 267.236,368.859 272.903,367.359 278.5,366C 280.389,368.382 282.055,370.882 283.5,373.5C 265.659,373.17 247.992,373.503 230.5,374.5C 228.358,372.235 226.691,369.568 225.5,366.5C 230.022,357.444 235.022,348.777 240.5,340.5 Z"/></g>
<g><path style="opacity:1" fill="#fa8f76" d="M 355.5,340.5 C 365.262,349.22 375.928,356.72 387.5,363C 391.034,365.931 393.701,369.431 395.5,373.5C 369.995,373.169 344.661,373.502 319.5,374.5C 311.472,362.147 301.805,351.147 290.5,341.5C 311.994,340.503 333.66,340.169 355.5,340.5 Z"/></g>
<g><path style="opacity:1" fill="#fa8976" d="M 115.5,372.5 C 138.661,373.498 161.994,373.831 185.5,373.5C 194.456,384.79 204.123,395.457 214.5,405.5C 179.167,405.5 143.833,405.5 108.5,405.5C 106.758,393.487 109.091,382.487 115.5,372.5 Z"/></g>
<g><path style="opacity:1" fill="#fa8a77" d="M 283.5,373.5 C 285.339,374.508 286.672,376.008 287.5,378C 281,387.167 273.167,395 264,401.5C 250.581,395.218 239.414,386.218 230.5,374.5C 247.992,373.503 265.659,373.17 283.5,373.5 Z"/></g>
<g><path style="opacity:1" fill="#fa8976" d="M 395.5,373.5 C 401.59,383.207 403.923,393.874 402.5,405.5C 370.5,405.5 338.5,405.5 306.5,405.5C 312.495,399.337 318.329,393.004 324,386.5C 324.667,385.5 324.667,384.5 324,383.5C 322.473,380.447 320.973,377.447 319.5,374.5C 344.661,373.502 369.995,373.169 395.5,373.5 Z"/></g>
<g><path style="opacity:1" fill="#fa8370" d="M 108.5,405.5 C 143.833,405.5 179.167,405.5 214.5,405.5C 229.198,418.274 245.364,428.941 263,437.5C 278.49,428.172 292.99,417.506 306.5,405.5C 338.5,405.5 370.5,405.5 402.5,405.5C 401.806,416.318 399.472,426.652 395.5,436.5C 302.308,438.166 208.975,439.166 115.5,439.5C 111.376,428.548 109.043,417.215 108.5,405.5 Z"/></g>
<g><path style="opacity:1" fill="#fa7c6f" d="M 395.5,436.5 C 391.351,450.296 384.018,462.129 373.5,472C 366.184,476.663 358.184,479.163 349.5,479.5C 328.996,474.041 308.33,469.208 287.5,465C 262.38,460.286 237.38,460.953 212.5,467C 195.227,471.485 177.894,475.652 160.5,479.5C 147.838,478.918 137.338,473.918 129,464.5C 123.835,456.508 119.335,448.175 115.5,439.5C 208.975,439.166 302.308,438.166 395.5,436.5 Z"/></g>
</svg>
