<?xml version="1.0" encoding="UTF-8"?>
<!DOCTYPE svg PUBLIC "-//W3C//DTD SVG 1.1//EN" "http://www.w3.org/Graphics/SVG/1.1/DTD/svg11.dtd">
<svg xmlns="http://www.w3.org/2000/svg" version="1.1" width="512px" height="512px" style="shape-rendering:geometricPrecision; text-rendering:geometricPrecision; image-rendering:optimizeQuality; fill-rule:evenodd; clip-rule:evenodd" xmlns:xlink="http://www.w3.org/1999/xlink">
<g><path style="opacity:1" fill="#fae289" d="M 283.5,43.5 C 282.566,42.4324 282.232,41.099 282.5,39.5C 264.5,39.5 246.5,39.5 228.5,39.5C 228.768,41.099 228.434,42.4324 227.5,43.5C 227.334,37.8236 227.501,32.1569 228,26.5C 228.308,25.6919 228.808,25.0253 229.5,24.5C 246.833,23.1667 264.167,23.1667 281.5,24.5C 282.192,25.0253 282.692,25.6919 283,26.5C 283.499,32.1569 283.666,37.8236 283.5,43.5 Z"/></g>
<g><path style="opacity:1" fill="#fae083" d="M 474.5,64.5 C 452.5,64.5 430.5,64.5 408.5,64.5C 417.964,54.5349 427.631,44.7016 437.5,35C 439.695,33.627 442.029,33.2937 444.5,34C 454.702,44.0349 464.702,54.2016 474.5,64.5 Z"/></g>
<g><path style="opacity:1" fill="#fae082" d="M 283.5,43.5 C 283.205,50.5878 283.538,57.5878 284.5,64.5C 265.326,64.8303 246.326,64.497 227.5,63.5C 227.5,56.8333 227.5,50.1667 227.5,43.5C 228.434,42.4324 228.768,41.099 228.5,39.5C 246.5,39.5 264.5,39.5 282.5,39.5C 282.232,41.099 282.566,42.4324 283.5,43.5 Z"/></g>
<g><path style="opacity:1" fill="#fae183" d="M 105.5,67.5 C 81.6608,67.8309 57.9941,67.4976 34.5,66.5C 45.2412,54.5896 56.7412,43.5896 69,33.5C 70.6268,33.6251 72.1268,34.1251 73.5,35C 84.3688,45.7016 95.0354,56.5349 105.5,67.5 Z"/></g>
<g><path style="opacity:1" fill="#fada7d" d="M 227.5,63.5 C 246.326,64.497 265.326,64.8303 284.5,64.5C 312.605,68.0852 338.272,77.7518 361.5,93.5C 296.331,93.1675 231.331,93.5009 166.5,94.5C 160.792,89.4721 161.458,85.3055 168.5,82C 187.343,73.1073 207.01,66.9406 227.5,63.5 Z"/></g>
<g><path style="opacity:1" fill="#fada7c" d="M 408.5,64.5 C 430.5,64.5 452.5,64.5 474.5,64.5C 478.169,66.438 479.336,69.438 478,73.5C 470.298,81.3691 462.465,89.0358 454.5,96.5C 428.194,96.5166 402.194,96.5166 376.5,96.5C 386.833,85.5 397.5,74.8333 408.5,64.5 Z"/></g>
<g><path style="opacity:1" fill="#fad97c" d="M 34.5,66.5 C 57.9941,67.4976 81.6608,67.8309 105.5,67.5C 116.5,77.8333 127.167,88.5 137.5,99.5C 112.005,100.498 86.3388,100.831 60.5,100.5C 51.2016,91.7023 42.035,82.7023 33,73.5C 32.3333,71.5 32.3333,69.5 33,67.5C 33.3826,66.944 33.8826,66.6107 34.5,66.5 Z"/></g>
<g><path style="opacity:1" fill="#fad976" d="M 361.5,93.5 C 362.71,93.9321 363.71,94.5987 364.5,95.5C 299.5,96.1667 234.5,96.8333 169.5,97.5C 168.167,96.8333 167.167,95.8333 166.5,94.5C 231.331,93.5009 296.331,93.1675 361.5,93.5 Z"/></g>
<g><path style="opacity:1" fill="#fad475" d="M 364.5,95.5 C 367.118,96.9447 369.618,98.6113 372,100.5C 373.371,98.9586 374.871,97.6253 376.5,96.5C 402.194,96.5166 428.194,96.5166 454.5,96.5C 447.5,104.167 440.167,111.5 432.5,118.5C 392.996,118.168 353.663,118.501 314.5,119.5C 275.906,103.725 237.239,103.559 198.5,119C 196.167,119.667 193.833,119.667 191.5,119C 183.662,112.329 176.329,105.162 169.5,97.5C 234.5,96.8333 299.5,96.1667 364.5,95.5 Z"/></g>
<g><path style="opacity:1" fill="#fad375" d="M 137.5,99.5 C 145.167,106.5 152.5,113.833 159.5,121.5C 134.67,122.332 109.67,122.832 84.5,123C 85.2524,123.671 85.5858,124.504 85.5,125.5C 76.8333,117.5 68.5,109.167 60.5,100.5C 86.3388,100.831 112.005,100.498 137.5,99.5 Z"/></g>
<g><path style="opacity:1" fill="#fad470" d="M 432.5,118.5 C 429.5,122.167 426.167,125.5 422.5,128.5C 392.5,128.5 362.5,128.5 332.5,128.5C 326.461,125.481 320.461,122.481 314.5,119.5C 353.663,118.501 392.996,118.168 432.5,118.5 Z"/></g>
<g><path style="opacity:1" fill="#fad370" d="M 159.5,121.5 C 163.747,124.072 166.414,127.738 167.5,132.5C 142.661,132.169 117.994,132.502 93.5,133.5C 90.5,131.167 87.8333,128.5 85.5,125.5C 85.5858,124.504 85.2524,123.671 84.5,123C 109.67,122.832 134.67,122.332 159.5,121.5 Z"/></g>
<g><path style="opacity:1" fill="#face6f" d="M 332.5,128.5 C 362.5,128.5 392.5,128.5 422.5,128.5C 417.5,134.167 412.167,139.5 406.5,144.5C 388.674,143.503 370.674,143.17 352.5,143.5C 345.81,138.469 339.143,133.469 332.5,128.5 Z"/></g>
<g><path style="opacity:1" fill="#face6f" d="M 167.5,132.5 C 167.509,134.308 167.009,135.975 166,137.5C 161.959,141.047 157.792,144.38 153.5,147.5C 133.833,147.5 114.167,147.5 94.5,147.5C 95.9188,144.9 97.5854,142.4 99.5,140C 97.2941,137.963 95.2941,135.797 93.5,133.5C 117.994,132.502 142.661,132.169 167.5,132.5 Z"/></g>
<g><path style="opacity:1" fill="#facd69" d="M 352.5,143.5 C 370.674,143.17 388.674,143.503 406.5,144.5C 399.036,152.465 391.369,160.298 383.5,168C 380.366,168.79 377.366,168.457 374.5,167C 368.005,158.34 360.672,150.507 352.5,143.5 Z"/></g>
<g><path style="opacity:1" fill="#face6a" d="M 94.5,147.5 C 114.167,147.5 133.833,147.5 153.5,147.5C 147.434,153.561 141.767,159.894 136.5,166.5C 118.976,166.162 101.643,165.162 84.5,163.5C 87.3468,157.794 90.6802,152.461 94.5,147.5 Z"/></g>
<g><path style="opacity:1" fill="#facd6a" d="M 436.5,185.5 C 424.247,184.521 411.913,184.187 399.5,184.5C 405.297,178.202 411.297,172.035 417.5,166C 420.939,163.003 424.439,162.837 428,165.5C 431.327,171.986 434.16,178.653 436.5,185.5 Z"/></g>
<g><path style="opacity:1" fill="#f89493" d="M 195.5,172.5 C 195.831,193.673 195.497,214.673 194.5,235.5C 194.5,233.5 194.5,231.5 194.5,229.5C 194.5,221.167 194.5,212.833 194.5,204.5C 194.5,200.167 194.5,195.833 194.5,191.5C 180.167,191.5 165.833,191.5 151.5,191.5C 150.789,183.722 153.789,177.889 160.5,174C 172.09,172.564 183.757,172.064 195.5,172.5 Z"/></g>
<g><path style="opacity:1" fill="#f99595" d="M 256.5,172.5 C 268.833,172.5 281.167,172.5 293.5,172.5C 293.5,178.833 293.5,185.167 293.5,191.5C 281.167,191.5 268.833,191.5 256.5,191.5C 256.5,185.167 256.5,178.833 256.5,172.5 Z"/></g>
<g><path style="opacity:1" fill="#f99696" d="M 306.5,172.5 C 317.91,172.067 329.244,172.567 340.5,174C 346.732,177.733 349.732,183.233 349.5,190.5C 349.5,190.833 349.5,191.167 349.5,191.5C 335.167,191.5 320.833,191.5 306.5,191.5C 306.5,185.167 306.5,178.833 306.5,172.5 Z"/></g>
<g><path style="opacity:1" fill="#fac864" d="M 84.5,163.5 C 101.643,165.162 118.976,166.162 136.5,166.5C 128.027,177.775 121.36,190.108 116.5,203.5C 100.5,203.5 84.5,203.5 68.5,203.5C 72.0843,189.403 77.4176,176.07 84.5,163.5 Z"/></g>
<g><path style="opacity:1" fill="#fac864" d="M 399.5,184.5 C 411.913,184.187 424.247,184.521 436.5,185.5C 440.805,195.755 444.139,206.422 446.5,217.5C 430.911,216.516 415.244,216.183 399.5,216.5C 396.781,209.538 394.448,202.371 392.5,195C 392.256,189.75 394.59,186.25 399.5,184.5 Z"/></g>
<g><path style="opacity:1" fill="#f97c7c" d="M 349.5,190.5 C 350.497,209.326 350.83,228.326 350.5,247.5C 349.833,246.5 349.167,245.5 348.5,244.5C 349.445,239.595 349.779,234.595 349.5,229.5C 349.5,221.167 349.5,212.833 349.5,204.5C 349.5,200.167 349.5,195.833 349.5,191.5C 349.5,191.167 349.5,190.833 349.5,190.5 Z"/></g>
<g><path style="opacity:1" fill="#f99c95" d="M 151.5,191.5 C 165.833,191.5 180.167,191.5 194.5,191.5C 194.5,195.833 194.5,200.167 194.5,204.5C 180.167,204.5 165.833,204.5 151.5,204.5C 151.5,200.167 151.5,195.833 151.5,191.5 Z"/></g>
<g><path style="opacity:1" fill="#f99b95" d="M 256.5,191.5 C 268.833,191.5 281.167,191.5 293.5,191.5C 293.5,195.833 293.5,200.167 293.5,204.5C 281.167,204.5 268.833,204.5 256.5,204.5C 256.5,200.167 256.5,195.833 256.5,191.5 Z"/></g>
<g><path style="opacity:1" fill="#f99c95" d="M 306.5,191.5 C 320.833,191.5 335.167,191.5 349.5,191.5C 349.5,195.833 349.5,200.167 349.5,204.5C 335.167,204.5 320.833,204.5 306.5,204.5C 306.5,200.167 306.5,195.833 306.5,191.5 Z"/></g>
<g><path style="opacity:1" fill="#fac15d" d="M 68.5,203.5 C 84.5,203.5 100.5,203.5 116.5,203.5C 113.356,211.764 110.689,220.097 108.5,228.5C 93.0888,228.817 77.7554,228.483 62.5,227.5C 63.8918,219.266 65.8918,211.266 68.5,203.5 Z"/></g>
<g><path style="opacity:1" fill="#f99c9b" d="M 151.5,204.5 C 165.833,204.5 180.167,204.5 194.5,204.5C 194.5,212.833 194.5,221.167 194.5,229.5C 180.5,229.5 166.5,229.5 152.5,229.5C 152.795,231.735 152.461,233.735 151.5,235.5C 151.5,225.167 151.5,214.833 151.5,204.5 Z"/></g>
<g><path style="opacity:1" fill="#f99b9b" d="M 256.5,204.5 C 268.833,204.5 281.167,204.5 293.5,204.5C 293.5,212.833 293.5,221.167 293.5,229.5C 281.5,229.5 269.5,229.5 257.5,229.5C 257.795,231.735 257.461,233.735 256.5,235.5C 256.5,225.167 256.5,214.833 256.5,204.5 Z"/></g>
<g><path style="opacity:1" fill="#f99c9b" d="M 306.5,204.5 C 320.833,204.5 335.167,204.5 349.5,204.5C 349.5,212.833 349.5,221.167 349.5,229.5C 335.167,229.5 320.833,229.5 306.5,229.5C 306.5,221.167 306.5,212.833 306.5,204.5 Z"/></g>
<g><path style="opacity:1" fill="#fac05c" d="M 399.5,216.5 C 415.244,216.183 430.911,216.516 446.5,217.5C 446.952,220.876 447.618,224.209 448.5,227.5C 460.486,228.333 472.486,228.833 484.5,229C 486.751,229.748 488.084,231.248 488.5,233.5C 488.5,234.833 488.5,236.167 488.5,237.5C 460.167,237.5 431.833,237.5 403.5,237.5C 402.326,230.47 400.992,223.47 399.5,216.5 Z"/></g>
<g><path style="opacity:1" fill="#fac156" d="M 62.5,227.5 C 77.7554,228.483 93.0888,228.817 108.5,228.5C 108.599,231.237 108.265,233.904 107.5,236.5C 78.6081,237.146 49.9415,236.479 21.5,234.5C 21.7188,231.326 23.3855,229.493 26.5,229C 38.6737,228.831 50.6737,228.331 62.5,227.5 Z"/></g>
<g><path style="opacity:1" fill="#f89e99" d="M 194.5,229.5 C 194.5,231.5 194.5,233.5 194.5,235.5C 183.341,236.331 172.007,236.831 160.5,237C 156.315,238.688 153.315,241.521 151.5,245.5C 151.5,242.167 151.5,238.833 151.5,235.5C 152.461,233.735 152.795,231.735 152.5,229.5C 166.5,229.5 180.5,229.5 194.5,229.5 Z"/></g>
<g><path style="opacity:1" fill="#d35656" d="M 195.5,172.5 C 199.5,172.5 203.5,172.5 207.5,172.5C 207.5,178.833 207.5,185.167 207.5,191.5C 207.5,195.833 207.5,200.167 207.5,204.5C 207.5,215.167 207.5,225.833 207.5,236.5C 219.833,236.5 232.167,236.5 244.5,236.5C 244.5,228.5 244.5,220.5 244.5,212.5C 244.5,207.5 244.5,202.5 244.5,197.5C 244.5,189.167 244.5,180.833 244.5,172.5C 248.5,172.5 252.5,172.5 256.5,172.5C 256.5,178.833 256.5,185.167 256.5,191.5C 256.5,195.833 256.5,200.167 256.5,204.5C 256.5,214.833 256.5,225.167 256.5,235.5C 256.369,236.376 256.702,237.043 257.5,237.5C 265.031,239.7 270.364,244.367 273.5,251.5C 274.974,257.617 274.64,263.617 272.5,269.5C 264.097,270.134 256.097,269.467 248.5,267.5C 249.221,264.183 249.388,260.849 249,257.5C 247.833,255 246,253.167 243.5,252C 218.5,251.333 193.5,251.333 168.5,252C 160.921,254.744 155.921,259.911 153.5,267.5C 152.833,268.833 152.167,270.167 151.5,271.5C 151.5,262.833 151.5,254.167 151.5,245.5C 153.315,241.521 156.315,238.688 160.5,237C 172.007,236.831 183.341,236.331 194.5,235.5C 195.497,214.673 195.831,193.673 195.5,172.5 Z"/></g>
<g><path style="opacity:1" fill="#f99c9b" d="M 207.5,204.5 C 219.5,204.5 231.5,204.5 243.5,204.5C 243.194,207.385 243.527,210.052 244.5,212.5C 244.5,220.5 244.5,228.5 244.5,236.5C 232.167,236.5 219.833,236.5 207.5,236.5C 207.5,225.833 207.5,215.167 207.5,204.5 Z"/></g>
<g><path style="opacity:1" fill="#f99c96" d="M 207.5,191.5 C 219.5,191.5 231.5,191.5 243.5,191.5C 243.205,193.735 243.539,195.735 244.5,197.5C 244.5,202.5 244.5,207.5 244.5,212.5C 243.527,210.052 243.194,207.385 243.5,204.5C 231.5,204.5 219.5,204.5 207.5,204.5C 207.5,200.167 207.5,195.833 207.5,191.5 Z"/></g>
<g><path style="opacity:1" fill="#f99696" d="M 207.5,172.5 C 219.833,172.5 232.167,172.5 244.5,172.5C 244.5,180.833 244.5,189.167 244.5,197.5C 243.539,195.735 243.205,193.735 243.5,191.5C 231.5,191.5 219.5,191.5 207.5,191.5C 207.5,185.167 207.5,178.833 207.5,172.5 Z"/></g>
<g><path style="opacity:1" fill="#f9a19b" d="M 293.5,229.5 C 293.5,236.833 293.5,244.167 293.5,251.5C 286.833,251.5 280.167,251.5 273.5,251.5C 270.364,244.367 265.031,239.7 257.5,237.5C 256.702,237.043 256.369,236.376 256.5,235.5C 257.461,233.735 257.795,231.735 257.5,229.5C 269.5,229.5 281.5,229.5 293.5,229.5 Z"/></g>
<g><path style="opacity:1" fill="#d35656" d="M 294.5,172.5 C 298.5,172.5 302.5,172.5 306.5,172.5C 306.5,178.833 306.5,185.167 306.5,191.5C 306.5,195.833 306.5,200.167 306.5,204.5C 306.5,212.833 306.5,221.167 306.5,229.5C 306.334,238.173 306.5,246.84 307,255.5C 319.567,266.256 331.901,265.922 344,254.5C 346.324,251.52 347.824,248.187 348.5,244.5C 349.167,245.5 349.833,246.5 350.5,247.5C 350.5,255.167 350.5,262.833 350.5,270.5C 350.167,270.5 349.833,270.5 349.5,270.5C 331.341,269.503 313.008,269.17 294.5,269.5C 294.5,237.167 294.5,204.833 294.5,172.5 Z"/></g>
<g><path style="opacity:1" fill="#f9a19c" d="M 306.5,229.5 C 320.833,229.5 335.167,229.5 349.5,229.5C 349.779,234.595 349.445,239.595 348.5,244.5C 347.824,248.187 346.324,251.52 344,254.5C 331.901,265.922 319.567,266.256 307,255.5C 306.5,246.84 306.334,238.173 306.5,229.5 Z"/></g>
<g><path style="opacity:1" fill="#fabb57" d="M 21.5,234.5 C 49.9415,236.479 78.6081,237.146 107.5,236.5C 106.866,242.145 106.532,247.811 106.5,253.5C 78.5,253.5 50.5,253.5 22.5,253.5C 22.5,254.833 22.5,256.167 22.5,257.5C 22.1667,257.5 21.8333,257.5 21.5,257.5C 21.5,249.833 21.5,242.167 21.5,234.5 Z"/></g>
<g><path style="opacity:1" fill="#fabb56" d="M 488.5,233.5 C 489.494,242.986 489.827,252.652 489.5,262.5C 488.566,261.432 488.232,260.099 488.5,258.5C 460.5,258.5 432.5,258.5 404.5,258.5C 404.5,253.5 404.5,248.5 404.5,243.5C 432.5,243.5 460.5,243.5 488.5,243.5C 488.5,241.5 488.5,239.5 488.5,237.5C 488.5,236.167 488.5,234.833 488.5,233.5 Z"/></g>
<g><path style="opacity:1" fill="#fac157" d="M 403.5,237.5 C 431.833,237.5 460.167,237.5 488.5,237.5C 488.5,239.5 488.5,241.5 488.5,243.5C 460.5,243.5 432.5,243.5 404.5,243.5C 403.659,241.621 403.325,239.621 403.5,237.5 Z"/></g>
<g><path style="opacity:1" fill="#f9a1a1" d="M 248.5,267.5 C 248.167,267.5 247.833,267.5 247.5,267.5C 216.167,267.5 184.833,267.5 153.5,267.5C 155.921,259.911 160.921,254.744 168.5,252C 193.5,251.333 218.5,251.333 243.5,252C 246,253.167 247.833,255 249,257.5C 249.388,260.849 249.221,264.183 248.5,267.5 Z"/></g>
<g><path style="opacity:1" fill="#f9a2a1" d="M 273.5,251.5 C 280.167,251.5 286.833,251.5 293.5,251.5C 293.666,258.175 293.5,264.842 293,271.5C 286.308,277.896 278.475,279.896 269.5,277.5C 270.9,274.965 271.9,272.298 272.5,269.5C 274.64,263.617 274.974,257.617 273.5,251.5 Z"/></g>
<g><path style="opacity:1" fill="#f9bb51" d="M 106.5,253.5 C 106.5,258.5 106.5,263.5 106.5,268.5C 78.5,268.5 50.5,268.5 22.5,268.5C 22.5,264.833 22.5,261.167 22.5,257.5C 22.5,256.167 22.5,254.833 22.5,253.5C 50.5,253.5 78.5,253.5 106.5,253.5 Z"/></g>
<g><path style="opacity:1" fill="#fabb50" d="M 404.5,258.5 C 432.5,258.5 460.5,258.5 488.5,258.5C 488.232,260.099 488.566,261.432 489.5,262.5C 489.5,266.833 489.5,271.167 489.5,275.5C 488.566,274.432 488.232,273.099 488.5,271.5C 460.167,271.5 431.833,271.5 403.5,271.5C 404.373,267.232 404.706,262.898 404.5,258.5 Z"/></g>
<g><path style="opacity:1" fill="#f9a7a1" d="M 153.5,267.5 C 184.833,267.5 216.167,267.5 247.5,267.5C 246.459,274.246 243.792,280.246 239.5,285.5C 234.545,291.779 228.211,296.112 220.5,298.5C 197.673,297.502 174.673,297.169 151.5,297.5C 151.768,299.099 151.434,300.432 150.5,301.5C 150.99,291.506 151.323,281.506 151.5,271.5C 152.167,270.167 152.833,268.833 153.5,267.5 Z"/></g>
<g><path style="opacity:1" fill="#fab54f" d="M 21.5,257.5 C 21.8333,257.5 22.1667,257.5 22.5,257.5C 22.5,261.167 22.5,264.833 22.5,268.5C 50.5,268.5 78.5,268.5 106.5,268.5C 108.344,273.753 107.677,278.587 104.5,283C 103.5,283.333 102.5,283.667 101.5,284C 76.1667,284.667 50.8333,284.667 25.5,284C 23.6667,283.5 22.5,282.333 22,280.5C 21.5003,272.841 21.3336,265.174 21.5,257.5 Z"/></g>
<g><path style="opacity:1" fill="#f97c7c" d="M 348.5,271.5 C 348.5,270.833 348.833,270.5 349.5,270.5C 349.833,270.5 350.167,270.5 350.5,270.5C 350.5,296.5 350.5,322.5 350.5,348.5C 349.507,340.35 349.174,332.017 349.5,323.5C 349.5,311.833 349.5,300.167 349.5,288.5C 349.822,282.642 349.489,276.975 348.5,271.5 Z"/></g>
<g><path style="opacity:1" fill="#fab54f" d="M 403.5,271.5 C 431.833,271.5 460.167,271.5 488.5,271.5C 488.232,273.099 488.566,274.432 489.5,275.5C 489.775,279.21 488.442,282.043 485.5,284C 460.167,284.667 434.833,284.667 409.5,284C 406.768,283.602 404.935,282.102 404,279.5C 403.503,276.854 403.336,274.187 403.5,271.5 Z"/></g>
<g><path style="opacity:1" fill="#d55f5d" d="M 293.5,172.5 C 293.833,172.5 294.167,172.5 294.5,172.5C 294.5,204.833 294.5,237.167 294.5,269.5C 313.008,269.17 331.341,269.503 349.5,270.5C 348.833,270.5 348.5,270.833 348.5,271.5C 336.525,279.701 323.692,281.368 310,276.5C 306.652,280.015 303.152,283.348 299.5,286.5C 279.674,285.503 259.674,285.17 239.5,285.5C 243.792,280.246 246.459,274.246 247.5,267.5C 247.833,267.5 248.167,267.5 248.5,267.5C 256.097,269.467 264.097,270.134 272.5,269.5C 271.9,272.298 270.9,274.965 269.5,277.5C 278.475,279.896 286.308,277.896 293,271.5C 293.5,264.842 293.666,258.175 293.5,251.5C 293.5,244.167 293.5,236.833 293.5,229.5C 293.5,221.167 293.5,212.833 293.5,204.5C 293.5,200.167 293.5,195.833 293.5,191.5C 293.5,185.167 293.5,178.833 293.5,172.5 Z"/></g>
<g><path style="opacity:1" fill="#f9a1a1" d="M 348.5,271.5 C 349.489,276.975 349.822,282.642 349.5,288.5C 332.167,288.5 314.833,288.5 297.5,288.5C 298.167,287.833 298.833,287.167 299.5,286.5C 303.152,283.348 306.652,280.015 310,276.5C 323.692,281.368 336.525,279.701 348.5,271.5 Z"/></g>
<g><path style="opacity:1" fill="#da5e5e" d="M 239.5,285.5 C 259.674,285.17 279.674,285.503 299.5,286.5C 298.833,287.167 298.167,287.833 297.5,288.5C 292.996,290.579 288.33,292.412 283.5,294C 275.387,294.718 267.387,294.384 259.5,293C 254.882,297.973 249.549,301.973 243.5,305C 245.373,306.704 247.04,308.537 248.5,310.5C 242.021,311.491 235.354,311.824 228.5,311.5C 224.741,308.954 220.741,306.954 216.5,305.5C 212.837,303.405 208.837,301.905 204.5,301C 209.99,300.853 215.324,300.019 220.5,298.5C 228.211,296.112 234.545,291.779 239.5,285.5 Z"/></g>
<g><path style="opacity:1" fill="#f9a7a2" d="M 297.5,288.5 C 314.833,288.5 332.167,288.5 349.5,288.5C 349.5,300.167 349.5,311.833 349.5,323.5C 327.5,323.5 305.5,323.5 283.5,323.5C 285.795,320.703 288.295,318.036 291,315.5C 291.381,309.608 288.881,308.108 283.5,311C 273.867,315.297 266.034,321.797 260,330.5C 257.417,322.986 253.583,316.319 248.5,310.5C 247.04,308.537 245.373,306.704 243.5,305C 249.549,301.973 254.882,297.973 259.5,293C 267.387,294.384 275.387,294.718 283.5,294C 288.33,292.412 292.996,290.579 297.5,288.5 Z"/></g>
<g><path style="opacity:1" fill="#f9a7a7" d="M 220.5,298.5 C 215.324,300.019 209.99,300.853 204.5,301C 208.837,301.905 212.837,303.405 216.5,305.5C 194.425,305.822 172.425,305.489 150.5,304.5C 150.5,303.5 150.5,302.5 150.5,301.5C 151.434,300.432 151.768,299.099 151.5,297.5C 174.673,297.169 197.673,297.502 220.5,298.5 Z"/></g>
<g><path style="opacity:1" fill="#f9aea7" d="M 150.5,304.5 C 172.425,305.489 194.425,305.822 216.5,305.5C 220.741,306.954 224.741,308.954 228.5,311.5C 238.818,320.777 246.151,332.111 250.5,345.5C 217.167,344.833 183.833,344.167 150.5,343.5C 150.5,330.5 150.5,317.5 150.5,304.5 Z"/></g>
<g><path style="opacity:1" fill="#db6563" d="M 283.5,323.5 C 273.341,333.796 265.674,345.796 260.5,359.5C 259.559,361.05 258.893,362.716 258.5,364.5C 257.206,365.29 256.039,366.29 255,367.5C 254.461,361.57 253.295,355.904 251.5,350.5C 251.634,348.708 251.301,347.042 250.5,345.5C 246.151,332.111 238.818,320.777 228.5,311.5C 235.354,311.824 242.021,311.491 248.5,310.5C 253.583,316.319 257.417,322.986 260,330.5C 266.034,321.797 273.867,315.297 283.5,311C 288.881,308.108 291.381,309.608 291,315.5C 288.295,318.036 285.795,320.703 283.5,323.5 Z"/></g>
<g><path style="opacity:1" fill="#f9aea7" d="M 283.5,323.5 C 305.5,323.5 327.5,323.5 349.5,323.5C 349.174,332.017 349.507,340.35 350.5,348.5C 349.57,352.4 349.237,356.4 349.5,360.5C 319.985,358.172 290.318,357.838 260.5,359.5C 265.674,345.796 273.341,333.796 283.5,323.5 Z"/></g>
<g><path style="opacity:1" fill="#f9aeae" d="M 150.5,343.5 C 183.833,344.167 217.167,344.833 250.5,345.5C 251.301,347.042 251.634,348.708 251.5,350.5C 218.167,350.5 184.833,350.5 151.5,350.5C 150.781,348.236 150.448,345.903 150.5,343.5 Z"/></g>
<g><path style="opacity:1" fill="#f9b4ae" d="M 151.5,350.5 C 184.833,350.5 218.167,350.5 251.5,350.5C 253.295,355.904 254.461,361.57 255,367.5C 256.039,366.29 257.206,365.29 258.5,364.5C 288.76,363.508 319.093,363.175 349.5,363.5C 348.085,374.244 344.585,384.244 339,393.5C 336.963,395.706 334.797,397.706 332.5,399.5C 297.002,398.667 261.336,398.167 225.5,398C 228.47,397.237 230.97,395.737 233,393.5C 233.333,393.833 233.667,394.167 234,394.5C 236.195,392.312 238.695,390.479 241.5,389C 215.124,388.816 188.791,388.316 162.5,387.5C 157.42,375.594 153.754,363.26 151.5,350.5 Z"/></g>
<g><path style="opacity:1" fill="#f9aeae" d="M 349.5,360.5 C 349.5,361.5 349.5,362.5 349.5,363.5C 319.093,363.175 288.76,363.508 258.5,364.5C 258.893,362.716 259.559,361.05 260.5,359.5C 290.318,357.838 319.985,358.172 349.5,360.5 Z"/></g>
<g><path style="opacity:1" fill="#f9baae" d="M 162.5,387.5 C 188.791,388.316 215.124,388.816 241.5,389C 238.695,390.479 236.195,392.312 234,394.5C 233.667,394.167 233.333,393.833 233,393.5C 230.97,395.737 228.47,397.237 225.5,398C 261.336,398.167 297.002,398.667 332.5,399.5C 332.027,400.906 331.027,401.573 329.5,401.5C 320.988,404.424 312.321,406.757 303.5,408.5C 271.669,407.668 239.669,407.168 207.5,407C 211.523,404.322 215.857,402.155 220.5,400.5C 203.338,399.173 186.338,399.173 169.5,400.5C 166.928,396.361 164.595,392.027 162.5,387.5 Z"/></g>
<g><path style="opacity:1" fill="#f9bab4" d="M 303.5,408.5 C 297.202,409.489 290.869,410.323 284.5,411C 283.167,412 283.167,413 284.5,414C 289.606,416.61 294.94,418.61 300.5,420C 310.13,421.198 319.796,421.698 329.5,421.5C 329.5,427.167 329.5,432.833 329.5,438.5C 328.539,436.735 328.205,434.735 328.5,432.5C 279.5,432.5 230.5,432.5 181.5,432.5C 181.795,434.735 181.461,436.735 180.5,438.5C 180.666,432.158 180.5,425.825 180,419.5C 175.968,413.434 172.468,407.101 169.5,400.5C 186.338,399.173 203.338,399.173 220.5,400.5C 215.857,402.155 211.523,404.322 207.5,407C 239.669,407.168 271.669,407.668 303.5,408.5 Z"/></g>
<g><path style="opacity:1" fill="#e1716c" d="M 329.5,401.5 C 329.5,408.167 329.5,414.833 329.5,421.5C 319.796,421.698 310.13,421.198 300.5,420C 294.94,418.61 289.606,416.61 284.5,414C 283.167,413 283.167,412 284.5,411C 290.869,410.323 297.202,409.489 303.5,408.5C 312.321,406.757 320.988,404.424 329.5,401.5 Z"/></g>
<g><path style="opacity:1" fill="#f9c1b4" d="M 329.5,438.5 C 329.5,439.833 329.5,441.167 329.5,442.5C 328.532,444.607 328.198,446.941 328.5,449.5C 279.5,449.5 230.5,449.5 181.5,449.5C 181.802,446.941 181.468,444.607 180.5,442.5C 180.5,441.167 180.5,439.833 180.5,438.5C 181.461,436.735 181.795,434.735 181.5,432.5C 230.5,432.5 279.5,432.5 328.5,432.5C 328.205,434.735 328.539,436.735 329.5,438.5 Z"/></g>
<g><path style="opacity:1" fill="#f9c1ba" d="M 180.5,442.5 C 181.468,444.607 181.802,446.941 181.5,449.5C 230.5,449.5 279.5,449.5 328.5,449.5C 328.198,446.941 328.532,444.607 329.5,442.5C 329.5,450.833 329.5,459.167 329.5,467.5C 280.167,467.5 230.833,467.5 181.5,467.5C 181.795,465.265 181.461,463.265 180.5,461.5C 180.5,455.167 180.5,448.833 180.5,442.5 Z"/></g>
<g><path style="opacity:1" fill="#f9c8ba" d="M 180.5,461.5 C 181.461,463.265 181.795,465.265 181.5,467.5C 230.833,467.5 280.167,467.5 329.5,467.5C 329.5,474.167 329.5,480.833 329.5,487.5C 279.833,487.5 230.167,487.5 180.5,487.5C 180.5,478.833 180.5,470.167 180.5,461.5 Z"/></g>
</svg>
