<?xml version="1.0" encoding="UTF-8"?>
<!DOCTYPE svg PUBLIC "-//W3C//DTD SVG 1.1//EN" "http://www.w3.org/Graphics/SVG/1.1/DTD/svg11.dtd">
<svg xmlns="http://www.w3.org/2000/svg" version="1.1" width="512px" height="512px" style="shape-rendering:geometricPrecision; text-rendering:geometricPrecision; image-rendering:optimizeQuality; fill-rule:evenodd; clip-rule:evenodd" xmlns:xlink="http://www.w3.org/1999/xlink">
<g><path style="opacity:1" fill="#39384b" d="M 349.5,36.5 C 362.469,35.6331 369.969,41.6331 372,54.5C 374.694,68.5901 370.861,80.4235 360.5,90C 347.55,95.608 339.384,91.4413 336,77.5C 333.206,66.0841 334.206,55.0841 339,44.5C 341.831,40.8209 345.331,38.1543 349.5,36.5 Z"/></g>
<g><path style="opacity:1" fill="#38384b" d="M 76.5,50.5 C 95.109,50.934 102.942,60.2673 100,78.5C 94.0336,90.7246 84.5336,94.558 71.5,90C 64.1283,86.1057 60.1283,79.939 59.5,71.5C 60.48,60.5356 66.1467,53.5356 76.5,50.5 Z"/></g>
<g><path style="opacity:1" fill="#f2c77b" d="M 76.5,60.5 C 89.6208,60.4384 93.7874,66.4384 89,78.5C 81.1641,84.6921 74.8308,83.3588 70,74.5C 69.2092,68.417 71.3759,63.7503 76.5,60.5 Z"/></g>
<g><path style="opacity:1" fill="#f4cb7b" d="M 350.5,46.5 C 357.733,45.8926 361.9,49.2259 363,56.5C 364.834,66.1615 362.334,74.4948 355.5,81.5C 351.581,83.4211 348.747,82.4211 347,78.5C 343.406,70.3695 342.739,62.0362 345,53.5C 346.666,51.0043 348.5,48.671 350.5,46.5 Z"/></g>
<g><path style="opacity:1" fill="#373749" d="M 289.5,89.5 C 295.773,89.386 298.273,92.386 297,98.5C 296.5,99.6667 295.667,100.5 294.5,101C 287,102.833 284.167,100 286,92.5C 287.145,91.3636 288.312,90.3636 289.5,89.5 Z"/></g>
<g><path style="opacity:1" fill="#3a394b" d="M 273.5,151.5 C 272.972,152.721 272.305,153.887 271.5,155C 257.772,155.191 244.105,156.191 230.5,158C 219.751,159.768 209.418,162.601 199.5,166.5C 191.415,169.047 183.748,172.38 176.5,176.5C 169.357,179.905 162.69,184.072 156.5,189C 157.066,189.995 157.733,190.828 158.5,191.5C 160.954,198.408 163.954,205.075 167.5,211.5C 170.561,218.621 173.894,225.621 177.5,232.5C 179.52,235.646 179.854,238.979 178.5,242.5C 176.298,243.78 174.132,243.78 172,242.5C 170.392,238.944 168.559,235.611 166.5,232.5C 163.949,225.067 160.615,218.067 156.5,211.5C 154.046,204.592 151.046,197.925 147.5,191.5C 144.013,182.529 140.013,173.863 135.5,165.5C 130.121,152.405 124.454,139.405 118.5,126.5C 113.075,122.952 110.742,124.452 111.5,131C 112.64,143.197 113.973,155.363 115.5,167.5C 116.645,175.468 117.645,183.468 118.5,191.5C 119.783,198.159 119.783,204.826 118.5,211.5C 115.506,218.83 111.506,225.497 106.5,231.5C 102.012,237.799 98.0115,244.466 94.5,251.5C 92.8333,251.5 91.1667,251.5 89.5,251.5C 86.8609,250.294 86.0276,248.294 87,245.5C 91.7475,234.994 97.7475,225.328 105,216.5C 106.893,213.382 108.226,210.049 109,206.5C 107.017,180.982 104.517,155.482 101.5,130C 100.975,120.522 105.475,115.355 115,114.5C 118.655,115.051 121.989,116.385 125,118.5C 134.591,138.683 143.924,159.017 153,179.5C 188.54,154.737 228.04,143.904 271.5,147C 273.037,148.11 273.703,149.61 273.5,151.5 Z"/></g>
<g><path style="opacity:1" fill="#3a384b" d="M 442.5,298.5 C 429.715,307.403 417.049,316.57 404.5,326C 398.258,326.923 396.258,324.423 398.5,318.5C 407.716,312.065 416.716,305.399 425.5,298.5C 428.166,297.158 430.499,295.325 432.5,293C 427.955,285.621 421.955,279.788 414.5,275.5C 404.452,270.318 393.952,266.652 383,264.5C 382.828,257.987 382.328,251.653 381.5,245.5C 381.075,240.923 380.075,236.59 378.5,232.5C 376.562,223.952 372.562,216.618 366.5,210.5C 366.631,209.761 366.464,209.094 366,208.5C 362.633,204.797 358.966,201.464 355,198.5C 354.83,188.991 354.33,179.658 353.5,170.5C 353.825,162.648 353.492,154.982 352.5,147.5C 352.83,141.132 352.496,134.798 351.5,128.5C 349.958,127.253 348.458,127.253 347,128.5C 342.651,141.376 338.818,154.376 335.5,167.5C 332.898,174.564 330.898,181.897 329.5,189.5C 328.444,193.703 325.778,195.203 321.5,194C 320.619,193.292 319.953,192.458 319.5,191.5C 320.539,184.679 322.205,178.012 324.5,171.5C 324.167,170.833 323.833,170.167 323.5,169.5C 312.954,164.539 301.954,161.206 290.5,159.5C 290.155,168.172 289.655,176.838 289,185.5C 286.633,188.932 283.966,189.265 281,186.5C 280.502,183.518 280.335,180.518 280.5,177.5C 280.505,173.466 280.838,169.466 281.5,165.5C 281.739,161.158 282.073,156.824 282.5,152.5C 282.762,142.787 283.595,133.121 285,123.5C 288,120.833 291,120.833 294,123.5C 294.374,132.217 293.874,140.884 292.5,149.5C 304.533,151.623 316.2,154.956 327.5,159.5C 330.776,146.505 334.943,133.838 340,121.5C 346.333,116.167 352.667,116.167 359,121.5C 360.846,124.569 361.846,127.902 362,131.5C 362.44,152.559 363.607,173.559 365.5,194.5C 383.994,211.281 392.994,232.281 392.5,257.5C 412.563,260.528 428.563,270.194 440.5,286.5C 444.361,283.472 448.361,280.639 452.5,278C 459,276.5 461.5,279 460,285.5C 454.226,289.964 448.393,294.298 442.5,298.5 Z"/></g>
<g><path style="opacity:1" fill="#f6b47c" d="M 135.5,165.5 C 129.25,167.459 122.584,168.126 115.5,167.5C 113.973,155.363 112.64,143.197 111.5,131C 110.742,124.452 113.075,122.952 118.5,126.5C 124.454,139.405 130.121,152.405 135.5,165.5 Z"/></g>
<g><path style="opacity:1" fill="#f5b37c" d="M 352.5,147.5 C 352.5,154.167 352.5,160.833 352.5,167.5C 346.833,167.5 341.167,167.5 335.5,167.5C 338.818,154.376 342.651,141.376 347,128.5C 348.458,127.253 349.958,127.253 351.5,128.5C 352.496,134.798 352.83,141.132 352.5,147.5 Z"/></g>
<g><path style="opacity:1" fill="#f4b17b" d="M 273.5,151.5 C 276.57,151.368 279.57,151.701 282.5,152.5C 282.073,156.824 281.739,161.158 281.5,165.5C 267.888,166.816 254.055,167.483 240,167.5C 226.329,167.5 212.829,167.167 199.5,166.5C 209.418,162.601 219.751,159.768 230.5,158C 244.105,156.191 257.772,155.191 271.5,155C 272.305,153.887 272.972,152.721 273.5,151.5 Z"/></g>
<g><path style="opacity:1" fill="#f8ae7c" d="M 281.5,165.5 C 280.838,169.466 280.505,173.466 280.5,177.5C 245.663,177.832 210.996,177.498 176.5,176.5C 183.748,172.38 191.415,169.047 199.5,166.5C 212.829,167.167 226.329,167.5 240,167.5C 254.055,167.483 267.888,166.816 281.5,165.5 Z"/></g>
<g><path style="opacity:1" fill="#38384b" d="M 430.5,174.5 C 445.043,172.72 453.043,179.053 454.5,193.5C 453.123,212.379 443.123,220.213 424.5,217C 418.666,213.339 415.666,208.006 415.5,201C 415.757,189.304 420.757,180.47 430.5,174.5 Z"/></g>
<g><path style="opacity:1" fill="#f8ad80" d="M 135.5,165.5 C 140.013,173.863 144.013,182.529 147.5,191.5C 137.833,191.5 128.167,191.5 118.5,191.5C 117.645,183.468 116.645,175.468 115.5,167.5C 122.584,168.126 129.25,167.459 135.5,165.5 Z"/></g>
<g><path style="opacity:1" fill="#f8ae81" d="M 319.5,191.5 C 295.604,192.141 271.937,191.474 248.5,189.5C 247.201,185.682 244.534,184.182 240.5,185C 238.859,186.129 237.859,187.629 237.5,189.5C 211.394,191.477 185.06,192.144 158.5,191.5C 157.733,190.828 157.066,189.995 156.5,189C 162.69,184.072 169.357,179.905 176.5,176.5C 210.996,177.498 245.663,177.832 280.5,177.5C 280.335,180.518 280.502,183.518 281,186.5C 283.966,189.265 286.633,188.932 289,185.5C 289.655,176.838 290.155,168.172 290.5,159.5C 301.954,161.206 312.954,164.539 323.5,169.5C 323.833,170.167 324.167,170.833 324.5,171.5C 322.205,178.012 320.539,184.679 319.5,191.5 Z"/></g>
<g><path style="opacity:1" fill="#f6ac80" d="M 352.5,147.5 C 353.492,154.982 353.825,162.648 353.5,170.5C 353.5,177.5 353.5,184.5 353.5,191.5C 345.097,192.134 337.097,191.467 329.5,189.5C 330.898,181.897 332.898,174.564 335.5,167.5C 341.167,167.5 346.833,167.5 352.5,167.5C 352.5,160.833 352.5,154.167 352.5,147.5 Z"/></g>
<g><path style="opacity:1" fill="#3d3a4c" d="M 248.5,189.5 C 246.658,196.104 243.158,197.104 238,192.5C 237.517,191.552 237.351,190.552 237.5,189.5C 237.859,187.629 238.859,186.129 240.5,185C 244.534,184.182 247.201,185.682 248.5,189.5 Z"/></g>
<g><path style="opacity:1" fill="#f9a782" d="M 118.5,191.5 C 128.167,191.5 137.833,191.5 147.5,191.5C 151.046,197.925 154.046,204.592 156.5,211.5C 143.833,211.5 131.167,211.5 118.5,211.5C 119.783,204.826 119.783,198.159 118.5,191.5 Z"/></g>
<g><path style="opacity:1" fill="#f9a782" d="M 353.5,170.5 C 354.33,179.658 354.83,188.991 355,198.5C 358.966,201.464 362.633,204.797 366,208.5C 366.464,209.094 366.631,209.761 366.5,210.5C 353.344,211.496 340.01,211.829 326.5,211.5C 322.833,211.5 319.167,211.5 315.5,211.5C 266.167,211.5 216.833,211.5 167.5,211.5C 163.954,205.075 160.954,198.408 158.5,191.5C 185.06,192.144 211.394,191.477 237.5,189.5C 237.351,190.552 237.517,191.552 238,192.5C 243.158,197.104 246.658,196.104 248.5,189.5C 271.937,191.474 295.604,192.141 319.5,191.5C 319.953,192.458 320.619,193.292 321.5,194C 325.778,195.203 328.444,193.703 329.5,189.5C 337.097,191.467 345.097,192.134 353.5,191.5C 353.5,184.5 353.5,177.5 353.5,170.5 Z"/></g>
<g><path style="opacity:1" fill="#f4a581" d="M 432.5,184.5 C 444.45,184.459 447.95,190.126 443,201.5C 439.064,208.155 433.73,209.821 427,206.5C 424.214,198.024 426.047,190.69 432.5,184.5 Z"/></g>
<g><path style="opacity:1" fill="#f7a082" d="M 366.5,210.5 C 372.562,216.618 376.562,223.952 378.5,232.5C 368.167,232.5 357.833,232.5 347.5,232.5C 344.125,221.792 337.125,214.792 326.5,211.5C 340.01,211.829 353.344,211.496 366.5,210.5 Z"/></g>
<g><path style="opacity:1" fill="#f8a182" d="M 118.5,211.5 C 131.167,211.5 143.833,211.5 156.5,211.5C 160.615,218.067 163.949,225.067 166.5,232.5C 146.326,232.83 126.326,232.497 106.5,231.5C 111.506,225.497 115.506,218.83 118.5,211.5 Z"/></g>
<g><path style="opacity:1" fill="#f9a182" d="M 167.5,211.5 C 216.833,211.5 266.167,211.5 315.5,211.5C 307.933,214.738 303.266,220.404 301.5,228.5C 300.566,229.568 300.232,230.901 300.5,232.5C 284.167,232.5 267.833,232.5 251.5,232.5C 251.412,227.464 250.912,222.464 250,217.5C 247.333,214.833 244.667,214.833 242,217.5C 241.502,220.817 241.335,224.15 241.5,227.5C 241.5,229.167 241.5,230.833 241.5,232.5C 220.167,232.5 198.833,232.5 177.5,232.5C 173.894,225.621 170.561,218.621 167.5,211.5 Z"/></g>
<g><path style="opacity:1" fill="#3c3a4d" d="M 315.5,211.5 C 319.167,211.5 322.833,211.5 326.5,211.5C 337.125,214.792 344.125,221.792 347.5,232.5C 346.971,244.029 340.971,250.363 329.5,251.5C 327.833,251.5 326.167,251.5 324.5,251.5C 314.895,250.455 307.729,245.789 303,237.5C 301.851,234.607 301.351,231.607 301.5,228.5C 303.266,220.404 307.933,214.738 315.5,211.5 Z"/></g>
<g><path style="opacity:1" fill="#3b3a4c" d="M 251.5,232.5 C 252.383,237.103 252.717,241.77 252.5,246.5C 252.5,247.833 252.5,249.167 252.5,250.5C 254.415,250.784 256.081,250.451 257.5,249.5C 267.329,249.132 276.995,250.132 286.5,252.5C 307.615,259.435 324.281,272.269 336.5,291C 337.5,291.667 338.5,291.667 339.5,291C 344.198,285.12 349.864,280.62 356.5,277.5C 370.087,278.022 374.754,284.688 370.5,297.5C 367.77,304.023 365.437,310.69 363.5,317.5C 365.725,321.235 368.558,324.568 372,327.5C 374.193,331.23 376.36,334.897 378.5,338.5C 379.365,346.466 379.698,354.466 379.5,362.5C 377.912,364.527 377.412,366.861 378,369.5C 384.623,373.301 390.456,377.968 395.5,383.5C 400.227,389.623 403.893,396.29 406.5,403.5C 408.219,411.387 408.886,419.387 408.5,427.5C 407.853,434.787 405.519,441.453 401.5,447.5C 396.272,454.226 389.938,459.726 382.5,464C 407.5,464.667 432.5,464.667 457.5,464C 465.399,459.677 466.399,454.177 460.5,447.5C 459.287,444.775 457.454,442.441 455,440.5C 454.833,439.5 454.667,438.5 454.5,437.5C 456.037,432.89 457.37,428.224 458.5,423.5C 460.126,417.072 460.793,410.405 460.5,403.5C 460.94,396.04 459.607,389.04 456.5,382.5C 453.833,375.833 451.167,369.167 448.5,362.5C 447.614,355.543 447.28,348.543 447.5,341.5C 446.98,332.544 445.646,323.71 443.5,315C 443.685,312.624 444.685,310.791 446.5,309.5C 450.107,309.379 452.273,311.045 453,314.5C 456.634,328.938 458.301,343.605 458,358.5C 461.327,367.157 464.66,375.823 468,384.5C 471.948,401.908 471.115,419.075 465.5,436C 468.382,439.894 470.882,444.061 473,448.5C 475.616,459.422 472.116,467.589 462.5,473C 324.889,474.662 187.222,474.995 49.5,474C 37.236,469.124 34.0693,460.624 40,448.5C 44.0318,445.295 47.8651,441.962 51.5,438.5C 44.9444,421.108 44.1111,403.441 49,385.5C 52.0911,376.156 55.5911,366.989 59.5,358C 56.0864,349.004 52.253,340.171 48,331.5C 46.1344,317.03 52.301,311.197 66.5,314C 69.2487,315.123 71.7487,316.623 74,318.5C 73.2596,302.125 74.7596,285.958 78.5,270C 69.4647,261.963 60.7981,253.63 52.5,245C 53.4078,240.414 56.0745,238.748 60.5,240C 69.0002,247.002 77.3336,254.169 85.5,261.5C 90.5944,267.204 96.2611,272.204 102.5,276.5C 105.832,280.664 109.665,284.331 114,287.5C 114.5,292.333 112.333,294.5 107.5,294C 100.981,287.98 94.3147,282.147 87.5,276.5C 85.9413,282.037 84.7747,287.704 84,293.5C 83.1777,301.345 83.3443,309.011 84.5,316.5C 84.5,316.833 84.5,317.167 84.5,317.5C 84.7659,320.666 85.0992,323.833 85.5,327C 85.9113,332.257 83.578,334.257 78.5,333C 73.8333,330 69.1667,327 64.5,324C 60.9458,321.555 58.2791,322.221 56.5,326C 58.3774,330.254 60.3774,334.421 62.5,338.5C 64.6519,343.474 66.8186,348.474 69,353.5C 69.498,356.482 69.6646,359.482 69.5,362.5C 66.596,367.201 64.2627,372.201 62.5,377.5C 56.5871,390.305 54.5871,403.639 56.5,417.5C 57.6138,425.843 59.9471,433.843 63.5,441.5C 62.8805,444.447 61.2139,446.447 58.5,447.5C 53.9201,449.584 50.0868,452.584 47,456.5C 46.2946,459.815 47.4613,462.315 50.5,464C 78.8333,464.667 107.167,464.667 135.5,464C 130.508,459.182 126.508,453.682 123.5,447.5C 117.508,433.421 115.841,418.755 118.5,403.5C 120.601,394.94 123.601,386.607 127.5,378.5C 131.46,373.205 135.793,368.205 140.5,363.5C 153.848,352.714 169.182,347.048 186.5,346.5C 186.167,343.833 185.833,341.167 185.5,338.5C 184.271,331.559 183.604,324.559 183.5,317.5C 184.371,302.212 189.371,288.545 198.5,276.5C 205.861,268.821 214.527,263.154 224.5,259.5C 226.355,259.34 227.688,260.007 228.5,261.5C 228.896,264.044 228.229,266.211 226.5,268C 199.888,281.724 189.055,303.558 194,333.5C 194.62,337.221 195.453,340.888 196.5,344.5C 206.808,339.67 217.642,336.67 229,335.5C 234.754,335.261 236.754,337.928 235,343.5C 221.471,344.76 208.638,348.594 196.5,355C 183.009,363.802 175.509,376.302 174,392.5C 172.762,397.637 170.095,398.637 166,395.5C 165.07,380.521 169.904,367.688 180.5,357C 157.637,359.021 141.47,370.521 132,391.5C 125.403,410.488 126.069,429.155 134,447.5C 138.82,454.496 144.987,459.996 152.5,464C 220.167,464.667 287.833,464.667 355.5,464C 369.745,461.295 381.912,454.795 392,444.5C 404.696,420.757 400.862,399.924 380.5,382C 378.833,381.167 377.167,380.333 375.5,379.5C 375.513,385.377 375.346,391.377 375,397.5C 372.523,402.368 369.523,402.701 366,398.5C 367.908,385.233 364.408,373.733 355.5,364C 352.582,362.291 349.748,360.458 347,358.5C 346.217,354.771 347.717,352.437 351.5,351.5C 358.602,353.766 364.102,358.099 368,364.5C 373.783,346.72 368.783,332.72 353,322.5C 352.833,321.667 352.667,320.833 352.5,320C 356.431,309.54 359.931,299.04 363,288.5C 361.534,286.675 359.701,286.175 357.5,287C 351.167,292.667 344.833,298.333 338.5,304C 336.833,304.667 335.167,304.667 333.5,304C 320.539,279.043 300.205,264.043 272.5,259C 266.463,258.303 260.463,258.47 254.5,259.5C 255.333,268.489 255.499,277.489 255,286.5C 251.606,288.275 248.94,287.608 247,284.5C 246.024,275.172 245.191,265.838 244.5,256.5C 244.795,254.265 244.461,252.265 243.5,250.5C 243.333,242.643 242.666,234.977 241.5,227.5C 241.335,224.15 241.502,220.817 242,217.5C 244.667,214.833 247.333,214.833 250,217.5C 250.912,222.464 251.412,227.464 251.5,232.5 Z"/></g>
<g><path style="opacity:1" fill="#f4f4f5" d="M 318.5,220.5 C 328.458,220.128 334.792,224.628 337.5,234C 337.68,238.31 335.68,240.976 331.5,242C 323.571,243.245 317.071,240.745 312,234.5C 310.046,228.067 312.213,223.4 318.5,220.5 Z"/></g>
<g><path style="opacity:1" fill="#f99b82" d="M 241.5,227.5 C 242.666,234.977 243.333,242.643 243.5,250.5C 219.009,251.833 194.176,252.5 169,252.5C 143.998,252.5 119.164,252.167 94.5,251.5C 98.0115,244.466 102.012,237.799 106.5,231.5C 126.326,232.497 146.326,232.83 166.5,232.5C 168.559,235.611 170.392,238.944 172,242.5C 174.132,243.78 176.298,243.78 178.5,242.5C 179.854,238.979 179.52,235.646 177.5,232.5C 198.833,232.5 220.167,232.5 241.5,232.5C 241.5,230.833 241.5,229.167 241.5,227.5 Z"/></g>
<g><path style="opacity:1" fill="#f89b82" d="M 301.5,228.5 C 301.351,231.607 301.851,234.607 303,237.5C 307.729,245.789 314.895,250.455 324.5,251.5C 312.011,252.495 299.344,252.829 286.5,252.5C 276.995,250.132 267.329,249.132 257.5,249.5C 256.167,249.5 254.833,249.5 253.5,249.5C 253.737,248.209 253.404,247.209 252.5,246.5C 252.717,241.77 252.383,237.103 251.5,232.5C 267.833,232.5 284.167,232.5 300.5,232.5C 300.232,230.901 300.566,229.568 301.5,228.5 Z"/></g>
<g><path style="opacity:1" fill="#f89b82" d="M 347.5,232.5 C 357.833,232.5 368.167,232.5 378.5,232.5C 380.075,236.59 381.075,240.923 381.5,245.5C 381.5,247.833 381.5,250.167 381.5,252.5C 363.992,252.83 346.659,252.497 329.5,251.5C 340.971,250.363 346.971,244.029 347.5,232.5 Z"/></g>
<g><path style="opacity:1" fill="#9b6a69" d="M 252.5,246.5 C 253.404,247.209 253.737,248.209 253.5,249.5C 254.833,249.5 256.167,249.5 257.5,249.5C 256.081,250.451 254.415,250.784 252.5,250.5C 252.5,249.167 252.5,247.833 252.5,246.5 Z"/></g>
<g><path style="opacity:1" fill="#f89582" d="M 243.5,250.5 C 244.461,252.265 244.795,254.265 244.5,256.5C 239.167,258.167 233.833,259.833 228.5,261.5C 227.688,260.007 226.355,259.34 224.5,259.5C 214.527,263.154 205.861,268.821 198.5,276.5C 193.073,276.782 187.74,276.449 182.5,275.5C 179.202,263.872 171.536,257.206 159.5,255.5C 147.065,257.268 139.398,264.268 136.5,276.5C 125.167,276.5 113.833,276.5 102.5,276.5C 96.2611,272.204 90.5944,267.204 85.5,261.5C 86.6376,258.087 87.9709,254.754 89.5,251.5C 91.1667,251.5 92.8333,251.5 94.5,251.5C 119.164,252.167 143.998,252.5 169,252.5C 194.176,252.5 219.009,251.833 243.5,250.5 Z"/></g>
<g><path style="opacity:1" fill="#f89482" d="M 381.5,245.5 C 382.328,251.653 382.828,257.987 383,264.5C 393.952,266.652 404.452,270.318 414.5,275.5C 395.167,276.167 375.833,276.833 356.5,277.5C 349.864,280.62 344.198,285.12 339.5,291C 338.5,291.667 337.5,291.667 336.5,291C 324.281,272.269 307.615,259.435 286.5,252.5C 299.344,252.829 312.011,252.495 324.5,251.5C 326.167,251.5 327.833,251.5 329.5,251.5C 346.659,252.497 363.992,252.83 381.5,252.5C 381.5,250.167 381.5,247.833 381.5,245.5 Z"/></g>
<g><path style="opacity:1" fill="#3c3a4d" d="M 182.5,275.5 C 182.62,292.803 173.953,301.803 156.5,302.5C 151.615,302.222 147.281,300.556 143.5,297.5C 137.803,291.743 135.47,284.743 136.5,276.5C 139.398,264.268 147.065,257.268 159.5,255.5C 171.536,257.206 179.202,263.872 182.5,275.5 Z"/></g>
<g><path style="opacity:1" fill="#f9f9f9" d="M 244.5,256.5 C 245.191,265.838 246.024,275.172 247,284.5C 248.94,287.608 251.606,288.275 255,286.5C 255.499,277.489 255.333,268.489 254.5,259.5C 260.463,258.47 266.463,258.303 272.5,259C 300.205,264.043 320.539,279.043 333.5,304C 335.167,304.667 336.833,304.667 338.5,304C 344.833,298.333 351.167,292.667 357.5,287C 359.701,286.175 361.534,286.675 363,288.5C 359.931,299.04 356.431,309.54 352.5,320C 352.667,320.833 352.833,321.667 353,322.5C 368.783,332.72 373.783,346.72 368,364.5C 364.102,358.099 358.602,353.766 351.5,351.5C 347.717,352.437 346.217,354.771 347,358.5C 349.748,360.458 352.582,362.291 355.5,364C 364.408,373.733 367.908,385.233 366,398.5C 369.523,402.701 372.523,402.368 375,397.5C 375.346,391.377 375.513,385.377 375.5,379.5C 377.167,380.333 378.833,381.167 380.5,382C 400.862,399.924 404.696,420.757 392,444.5C 381.912,454.795 369.745,461.295 355.5,464C 287.833,464.667 220.167,464.667 152.5,464C 144.987,459.996 138.82,454.496 134,447.5C 126.069,429.155 125.403,410.488 132,391.5C 141.47,370.521 157.637,359.021 180.5,357C 169.904,367.688 165.07,380.521 166,395.5C 170.095,398.637 172.762,397.637 174,392.5C 175.509,376.302 183.009,363.802 196.5,355C 208.638,348.594 221.471,344.76 235,343.5C 236.754,337.928 234.754,335.261 229,335.5C 217.642,336.67 206.808,339.67 196.5,344.5C 195.453,340.888 194.62,337.221 194,333.5C 189.055,303.558 199.888,281.724 226.5,268C 228.229,266.211 228.896,264.044 228.5,261.5C 233.833,259.833 239.167,258.167 244.5,256.5 Z"/></g>
<g><path style="opacity:1" fill="#f5f5f6" d="M 155.5,265.5 C 169.322,265.478 174.822,272.145 172,285.5C 166.397,291.925 159.564,294.092 151.5,292C 144.559,285.633 143.725,278.466 149,270.5C 150.965,268.45 153.132,266.783 155.5,265.5 Z"/></g>
<g><path style="opacity:1" fill="#f58c81" d="M 102.5,276.5 C 113.833,276.5 125.167,276.5 136.5,276.5C 135.47,284.743 137.803,291.743 143.5,297.5C 123.833,297.5 104.167,297.5 84.5,297.5C 84.5,303.833 84.5,310.167 84.5,316.5C 83.3443,309.011 83.1777,301.345 84,293.5C 84.7747,287.704 85.9413,282.037 87.5,276.5C 94.3147,282.147 100.981,287.98 107.5,294C 112.333,294.5 114.5,292.333 114,287.5C 109.665,284.331 105.832,280.664 102.5,276.5 Z"/></g>
<g><path style="opacity:1" fill="#f88e82" d="M 414.5,275.5 C 421.955,279.788 427.955,285.621 432.5,293C 430.499,295.325 428.166,297.158 425.5,298.5C 407.341,297.503 389.008,297.17 370.5,297.5C 374.754,284.688 370.087,278.022 356.5,277.5C 375.833,276.833 395.167,276.167 414.5,275.5 Z"/></g>
<g><path style="opacity:1" fill="#f88982" d="M 182.5,275.5 C 187.74,276.449 193.073,276.782 198.5,276.5C 189.371,288.545 184.371,302.212 183.5,317.5C 150.5,317.5 117.5,317.5 84.5,317.5C 84.5,317.167 84.5,316.833 84.5,316.5C 84.5,310.167 84.5,303.833 84.5,297.5C 104.167,297.5 123.833,297.5 143.5,297.5C 147.281,300.556 151.615,302.222 156.5,302.5C 173.953,301.803 182.62,292.803 182.5,275.5 Z"/></g>
<g><path style="opacity:1" fill="#f88882" d="M 370.5,297.5 C 389.008,297.17 407.341,297.503 425.5,298.5C 416.716,305.399 407.716,312.065 398.5,318.5C 387.012,317.505 375.345,317.172 363.5,317.5C 365.437,310.69 367.77,304.023 370.5,297.5 Z"/></g>
<g><path style="opacity:1" fill="#403b4d" d="M 125.5,302.5 C 133.605,301.56 135.938,304.727 132.5,312C 127.439,314.789 124.439,313.289 123.5,307.5C 123.902,305.7 124.569,304.033 125.5,302.5 Z"/></g>
<g><path style="opacity:1" fill="#f98282" d="M 84.5,317.5 C 117.5,317.5 150.5,317.5 183.5,317.5C 183.604,324.559 184.271,331.559 185.5,338.5C 144.5,338.5 103.5,338.5 62.5,338.5C 60.3774,334.421 58.3774,330.254 56.5,326C 58.2791,322.221 60.9458,321.555 64.5,324C 69.1667,327 73.8333,330 78.5,333C 83.578,334.257 85.9113,332.257 85.5,327C 85.0992,323.833 84.7659,320.666 84.5,317.5 Z"/></g>
<g><path style="opacity:1" fill="#f88382" d="M 442.5,298.5 C 443.835,302.172 445.168,305.838 446.5,309.5C 444.685,310.791 443.685,312.624 443.5,315C 445.646,323.71 446.98,332.544 447.5,341.5C 446.596,340.791 446.263,339.791 446.5,338.5C 423.833,338.5 401.167,338.5 378.5,338.5C 376.36,334.897 374.193,331.23 372,327.5C 368.558,324.568 365.725,321.235 363.5,317.5C 375.345,317.172 387.012,317.505 398.5,318.5C 396.258,324.423 398.258,326.923 404.5,326C 417.049,316.57 429.715,307.403 442.5,298.5 Z"/></g>
<g><path style="opacity:1" fill="#f97c82" d="M 62.5,338.5 C 103.5,338.5 144.5,338.5 185.5,338.5C 185.833,341.167 186.167,343.833 186.5,346.5C 169.182,347.048 153.848,352.714 140.5,363.5C 117.006,362.502 93.3392,362.169 69.5,362.5C 69.6646,359.482 69.498,356.482 69,353.5C 66.8186,348.474 64.6519,343.474 62.5,338.5 Z"/></g>
<g><path style="opacity:1" fill="#f97c82" d="M 378.5,338.5 C 401.167,338.5 423.833,338.5 446.5,338.5C 446.263,339.791 446.596,340.791 447.5,341.5C 447.28,348.543 447.614,355.543 448.5,362.5C 425.5,362.5 402.5,362.5 379.5,362.5C 379.698,354.466 379.365,346.466 378.5,338.5 Z"/></g>
<g><path style="opacity:1" fill="#f97582" d="M 69.5,362.5 C 93.3392,362.169 117.006,362.502 140.5,363.5C 135.793,368.205 131.46,373.205 127.5,378.5C 105.66,378.831 83.9936,378.497 62.5,377.5C 64.2627,372.201 66.596,367.201 69.5,362.5 Z"/></g>
<g><path style="opacity:1" fill="#f87583" d="M 379.5,362.5 C 402.5,362.5 425.5,362.5 448.5,362.5C 451.167,369.167 453.833,375.833 456.5,382.5C 435.993,382.17 415.66,382.503 395.5,383.5C 390.456,377.968 384.623,373.301 378,369.5C 377.412,366.861 377.912,364.527 379.5,362.5 Z"/></g>
<g><path style="opacity:1" fill="#f66f87" d="M 62.5,377.5 C 83.9936,378.497 105.66,378.831 127.5,378.5C 123.601,386.607 120.601,394.94 118.5,403.5C 114.833,403.5 111.167,403.5 107.5,403.5C 107.737,404.791 107.404,405.791 106.5,406.5C 107.167,390.333 99.5004,382.833 83.5,384C 75.1817,387.827 70.515,394.327 69.5,403.5C 65.1667,403.5 60.8333,403.5 56.5,403.5C 56.5,408.167 56.5,412.833 56.5,417.5C 54.5871,403.639 56.5871,390.305 62.5,377.5 Z"/></g>
<g><path style="opacity:1" fill="#f96f88" d="M 456.5,382.5 C 459.607,389.04 460.94,396.04 460.5,403.5C 442.5,403.5 424.5,403.5 406.5,403.5C 403.893,396.29 400.227,389.623 395.5,383.5C 415.66,382.503 435.993,382.17 456.5,382.5 Z"/></g>
<g><path style="opacity:1" fill="#3c3a4c" d="M 106.5,406.5 C 102.544,419.647 93.8777,424.147 80.5,420C 73.8625,416.521 70.1958,411.021 69.5,403.5C 70.515,394.327 75.1817,387.827 83.5,384C 99.5004,382.833 107.167,390.333 106.5,406.5 Z"/></g>
<g><path style="opacity:1" fill="#f1f1f2" d="M 84.5,393.5 C 94.5022,392.154 98.6689,396.487 97,406.5C 94.4059,411.711 90.2393,413.544 84.5,412C 78.8886,409.282 77.3886,405.116 80,399.5C 81.332,397.34 82.832,395.34 84.5,393.5 Z"/></g>
<g><path style="opacity:1" fill="#f86988" d="M 406.5,403.5 C 424.5,403.5 442.5,403.5 460.5,403.5C 460.793,410.405 460.126,417.072 458.5,423.5C 442.167,423.5 425.833,423.5 409.5,423.5C 409.768,425.099 409.434,426.432 408.5,427.5C 408.886,419.387 408.219,411.387 406.5,403.5 Z"/></g>
<g><path style="opacity:1" fill="#f86588" d="M 69.5,403.5 C 70.1958,411.021 73.8625,416.521 80.5,420C 93.8777,424.147 102.544,419.647 106.5,406.5C 107.404,405.791 107.737,404.791 107.5,403.5C 111.167,403.5 114.833,403.5 118.5,403.5C 115.841,418.755 117.508,433.421 123.5,447.5C 101.833,447.5 80.1667,447.5 58.5,447.5C 61.2139,446.447 62.8805,444.447 63.5,441.5C 59.9471,433.843 57.6138,425.843 56.5,417.5C 56.5,412.833 56.5,408.167 56.5,403.5C 60.8333,403.5 65.1667,403.5 69.5,403.5 Z"/></g>
<g><path style="opacity:1" fill="#f96388" d="M 458.5,423.5 C 457.37,428.224 456.037,432.89 454.5,437.5C 454.667,438.5 454.833,439.5 455,440.5C 457.454,442.441 459.287,444.775 460.5,447.5C 440.833,447.5 421.167,447.5 401.5,447.5C 405.519,441.453 407.853,434.787 408.5,427.5C 409.434,426.432 409.768,425.099 409.5,423.5C 425.833,423.5 442.167,423.5 458.5,423.5 Z"/></g>
<g><path style="opacity:1" fill="#f95c88" d="M 58.5,447.5 C 80.1667,447.5 101.833,447.5 123.5,447.5C 126.508,453.682 130.508,459.182 135.5,464C 107.167,464.667 78.8333,464.667 50.5,464C 47.4613,462.315 46.2946,459.815 47,456.5C 50.0868,452.584 53.9201,449.584 58.5,447.5 Z"/></g>
<g><path style="opacity:1" fill="#f85c88" d="M 401.5,447.5 C 421.167,447.5 440.833,447.5 460.5,447.5C 466.399,454.177 465.399,459.677 457.5,464C 432.5,464.667 407.5,464.667 382.5,464C 389.938,459.726 396.272,454.226 401.5,447.5 Z"/></g>
</svg>
