<?xml version="1.0" encoding="UTF-8"?>
<!DOCTYPE svg PUBLIC "-//W3C//DTD SVG 1.1//EN" "http://www.w3.org/Graphics/SVG/1.1/DTD/svg11.dtd">
<svg xmlns="http://www.w3.org/2000/svg" version="1.1" width="512px" height="512px" style="shape-rendering:geometricPrecision; text-rendering:geometricPrecision; image-rendering:optimizeQuality; fill-rule:evenodd; clip-rule:evenodd" xmlns:xlink="http://www.w3.org/1999/xlink">
<g><path style="opacity:1" fill="#38384c" d="M 66.5,35.5 C 71.777,34.9312 76.777,35.7645 81.5,38C 88.4066,44.2362 94.5733,51.0695 100,58.5C 100.405,62.2128 100.405,65.8794 100,69.5C 167,136.5 234,203.5 301,270.5C 314.333,257.167 327.667,243.833 341,230.5C 340.206,226.754 339.373,222.92 338.5,219C 338.865,215.237 340.032,211.737 342,208.5C 350.5,200 359,191.5 367.5,183C 370.303,182.245 372.97,182.578 375.5,184C 408.333,216.833 441.167,249.667 474,282.5C 475.373,284.695 475.706,287.029 475,289.5C 465.833,298.667 456.667,307.833 447.5,317C 444.689,317.911 441.856,318.744 439,319.5C 435.099,318.521 431.266,317.688 427.5,317C 390.167,354.333 352.833,391.667 315.5,429C 319.291,435.384 319.458,441.884 316,448.5C 307.167,457.333 298.333,466.167 289.5,475C 287.5,475.667 285.5,475.667 283.5,475C 250,441.5 216.5,408 183,374.5C 181,372.167 181,369.833 183,367.5C 191.863,358.303 201.03,349.469 210.5,341C 216.956,338.618 223.123,339.118 229,342.5C 242.833,328.667 256.667,314.833 270.5,301C 203.5,234 136.5,167 69.5,100C 63.9777,101.18 58.6444,100.513 53.5,98C 48.3333,92.8333 43.1667,87.6667 38,82.5C 33.3333,75.8333 33.3333,69.1667 38,62.5C 47.0933,52.9023 56.5933,43.9023 66.5,35.5 Z"/></g>
<g><path style="opacity:1" fill="#adbef9" d="M 72.5,45.5 C 67.7823,59.269 62.7823,72.9357 57.5,86.5C 53.2022,82.7036 49.0356,78.7036 45,74.5C 44.3333,73.1667 44.3333,71.8333 45,70.5C 53.1667,62.3333 61.3333,54.1667 69.5,46C 70.448,45.5172 71.448,45.3505 72.5,45.5 Z"/></g>
<g><path style="opacity:1" fill="#adc6f8" d="M 72.5,45.5 C 76.0204,46.3528 78.6871,48.3528 80.5,51.5C 75.5955,62.8718 71.2622,74.5384 67.5,86.5C 64.1667,91.8333 60.8333,91.8333 57.5,86.5C 62.7823,72.9357 67.7823,59.269 72.5,45.5 Z"/></g>
<g><path style="opacity:1" fill="#afc9f3" d="M 80.5,51.5 C 83.4639,53.9619 86.2972,56.6286 89,59.5C 90.1871,61.0444 90.5205,62.7111 90,64.5C 82.6316,72.0358 75.1316,79.3692 67.5,86.5C 71.2622,74.5384 75.5955,62.8718 80.5,51.5 Z"/></g>
<g><path style="opacity:1" fill="#878da0" d="M 132.5,117.5 C 126.833,122.167 121.167,126.833 115.5,131.5C 102.035,118.535 88.7015,105.369 75.5,92C 80.5,87 85.5,82 90.5,77C 91.1667,76.3333 91.8333,76.3333 92.5,77C 106.035,90.3682 119.369,103.868 132.5,117.5 Z"/></g>
<g><path style="opacity:1" fill="#8387a0" d="M 132.5,117.5 C 137.167,121.5 141.5,125.833 145.5,130.5C 139.773,135.224 134.773,140.558 130.5,146.5C 125.167,141.833 120.167,136.833 115.5,131.5C 121.167,126.833 126.833,122.167 132.5,117.5 Z"/></g>
<g><path style="opacity:1" fill="#82879b" d="M 145.5,130.5 C 149.5,133.833 153.167,137.5 156.5,141.5C 151.776,147.227 146.442,152.227 140.5,156.5C 136.833,153.5 133.5,150.167 130.5,146.5C 134.773,140.558 139.773,135.224 145.5,130.5 Z"/></g>
<g><path style="opacity:1" fill="#7d8299" d="M 156.5,141.5 C 164.833,149.167 172.833,157.167 180.5,165.5C 176.177,171.489 171.177,176.822 165.5,181.5C 156.833,173.5 148.5,165.167 140.5,156.5C 146.442,152.227 151.776,147.227 156.5,141.5 Z"/></g>
<g><path style="opacity:1" fill="#767c93" d="M 180.5,165.5 C 190.5,174.833 200.167,184.5 209.5,194.5C 205.227,200.442 200.227,205.776 194.5,210.5C 184.5,201.167 174.833,191.5 165.5,181.5C 171.177,176.822 176.177,171.489 180.5,165.5 Z"/></g>
<g><path style="opacity:1" fill="#70758c" d="M 209.5,194.5 C 218.167,202.5 226.5,210.833 234.5,219.5C 229.81,225.186 225.143,230.853 220.5,236.5C 211.5,228.167 202.833,219.5 194.5,210.5C 200.227,205.776 205.227,200.442 209.5,194.5 Z"/></g>
<g><path style="opacity:1" fill="#c2e6f8" d="M 382.5,206.5 C 378.784,218.252 373.784,229.252 367.5,239.5C 361.202,233.703 355.035,227.703 349,221.5C 348.333,219.833 348.333,218.167 349,216.5C 356.333,209.167 363.667,201.833 371,194.5C 375.037,198.369 378.87,202.369 382.5,206.5 Z"/></g>
<g><path style="opacity:1" fill="#bae0f9" d="M 382.5,206.5 C 385.167,208.5 387.5,210.833 389.5,213.5C 385.915,224.012 381.749,234.345 377,244.5C 376.583,245.756 375.75,246.423 374.5,246.5C 371.833,244.5 369.5,242.167 367.5,239.5C 373.784,229.252 378.784,218.252 382.5,206.5 Z"/></g>
<g><path style="opacity:1" fill="#b6d5f9" d="M 389.5,213.5 C 394.167,217.5 398.5,221.833 402.5,226.5C 397.678,237.657 392.678,248.657 387.5,259.5C 382.833,255.5 378.5,251.167 374.5,246.5C 375.75,246.423 376.583,245.756 377,244.5C 381.749,234.345 385.915,224.012 389.5,213.5 Z"/></g>
<g><path style="opacity:1" fill="#6a6f86" d="M 234.5,219.5 C 243.167,227.5 251.5,235.833 259.5,244.5C 254.776,250.227 249.442,255.227 243.5,259.5C 235.5,252.167 227.833,244.5 220.5,236.5C 225.143,230.853 229.81,225.186 234.5,219.5 Z"/></g>
<g><path style="opacity:1" fill="#b2ccf9" d="M 402.5,226.5 C 407.167,230.5 411.5,234.833 415.5,239.5C 407.167,247.167 399.167,255.167 391.5,263.5C 389.833,262.5 388.5,261.167 387.5,259.5C 392.678,248.657 397.678,237.657 402.5,226.5 Z"/></g>
<g><path style="opacity:1" fill="#eff9f9" d="M 415.5,239.5 C 417.167,240.5 418.5,241.833 419.5,243.5C 415.29,254.915 410.29,265.915 404.5,276.5C 399.833,272.5 395.5,268.167 391.5,263.5C 399.167,255.167 407.167,247.167 415.5,239.5 Z"/></g>
<g><path style="opacity:1" fill="#dff2f9" d="M 419.5,243.5 C 422.833,246.167 425.833,249.167 428.5,252.5C 424.436,261.851 420.269,271.184 416,280.5C 415.502,282.544 414.335,283.878 412.5,284.5C 409.5,282.167 406.833,279.5 404.5,276.5C 410.29,265.915 415.29,254.915 419.5,243.5 Z"/></g>
<g><path style="opacity:1" fill="#8895ba" d="M 398.5,285.5 C 395.805,288.526 393.138,291.526 390.5,294.5C 362.144,291.247 333.811,287.747 305.5,284C 304.584,283.722 303.918,283.222 303.5,282.5C 318.479,266.854 333.812,251.521 349.5,236.5C 366.188,252.521 382.521,268.854 398.5,285.5 Z"/></g>
<g><path style="opacity:1" fill="#63677f" d="M 259.5,244.5 C 271.146,255.479 282.479,266.812 293.5,278.5C 289.015,283.485 284.349,288.319 279.5,293C 278.5,293.667 277.5,293.667 276.5,293C 265.298,281.965 254.298,270.798 243.5,259.5C 249.442,255.227 254.776,250.227 259.5,244.5 Z"/></g>
<g><path style="opacity:1" fill="#ceecf9" d="M 428.5,252.5 C 431.5,254.833 434.167,257.5 436.5,260.5C 432.83,272.168 427.83,283.168 421.5,293.5C 418.167,290.833 415.167,287.833 412.5,284.5C 414.335,283.878 415.502,282.544 416,280.5C 420.269,271.184 424.436,261.851 428.5,252.5 Z"/></g>
<g><path style="opacity:1" fill="#bfe4f9" d="M 436.5,260.5 C 440.833,264.167 444.833,268.167 448.5,272.5C 444.086,283.818 438.753,294.485 432.5,304.5C 428.5,301.167 424.833,297.5 421.5,293.5C 427.83,283.168 432.83,272.168 436.5,260.5 Z"/></g>
<g><path style="opacity:1" fill="#b5d4f8" d="M 448.5,272.5 C 451.167,274.5 453.5,276.833 455.5,279.5C 451.278,287.942 447.612,296.609 444.5,305.5C 443.488,307.876 441.655,308.876 439,308.5C 435.938,308.602 433.771,307.269 432.5,304.5C 438.753,294.485 444.086,283.818 448.5,272.5 Z"/></g>
<g><path style="opacity:1" fill="#afc8f5" d="M 455.5,279.5 C 458.297,281.795 460.964,284.295 463.5,287C 457.298,293.369 450.965,299.536 444.5,305.5C 447.612,296.609 451.278,287.942 455.5,279.5 Z"/></g>
<g><path style="opacity:1" fill="#828eb4" d="M 303.5,282.5 C 303.918,283.222 304.584,283.722 305.5,284C 333.811,287.747 362.144,291.247 390.5,294.5C 385.167,300.833 379.833,307.167 374.5,313.5C 371.5,315.833 368.833,318.5 366.5,321.5C 364.833,322.833 363.167,324.167 361.5,325.5C 332.018,321.105 302.352,317.105 272.5,313.5C 282.5,302.833 292.833,292.5 303.5,282.5 Z"/></g>
<g><path style="opacity:1" fill="#636f95" d="M 398.5,285.5 C 406.298,292.798 413.965,300.298 421.5,308C 419.297,310.372 416.963,312.539 414.5,314.5C 401.156,314.512 387.823,314.179 374.5,313.5C 379.833,307.167 385.167,300.833 390.5,294.5C 393.138,291.526 395.805,288.526 398.5,285.5 Z"/></g>
<g><path style="opacity:1" fill="#38384b" d="M 115.5,296.5 C 118.652,295.959 121.152,296.959 123,299.5C 132.695,316.889 141.861,334.556 150.5,352.5C 149.132,357.078 146.132,358.578 141.5,357C 131.998,351.081 122.331,345.414 112.5,340C 100.516,330.395 98.349,318.895 106,305.5C 109.062,302.268 112.229,299.268 115.5,296.5 Z"/></g>
<g><path style="opacity:1" fill="#f17392" d="M 115.5,309.5 C 116.885,310.574 118.051,311.907 119,313.5C 123.422,322.343 127.755,331.01 132,339.5C 125.484,336.244 119.484,332.244 114,327.5C 110.323,321.094 110.823,315.094 115.5,309.5 Z"/></g>
<g><path style="opacity:1" fill="#646a96" d="M 374.5,313.5 C 387.823,314.179 401.156,314.512 414.5,314.5C 411.833,317.5 409.167,320.5 406.5,323.5C 392.964,323.802 379.631,323.135 366.5,321.5C 368.833,318.5 371.5,315.833 374.5,313.5 Z"/></g>
<g><path style="opacity:1" fill="#7d88af" d="M 272.5,313.5 C 302.352,317.105 332.018,321.105 361.5,325.5C 352.059,335.713 341.059,343.713 328.5,349.5C 322.091,351.06 315.591,352.06 309,352.5C 299.604,352.025 290.437,350.358 281.5,347.5C 272.037,342.936 263.037,337.603 254.5,331.5C 260.167,325.167 266.167,319.167 272.5,313.5 Z"/></g>
<g><path style="opacity:1" fill="#5d698e" d="M 366.5,321.5 C 379.631,323.135 392.964,323.802 406.5,323.5C 397.068,333.055 387.401,342.388 377.5,351.5C 361.189,350.59 344.855,349.923 328.5,349.5C 341.059,343.713 352.059,335.713 361.5,325.5C 363.167,324.167 364.833,322.833 366.5,321.5 Z"/></g>
<g><path style="opacity:1" fill="#39384b" d="M 461.5,327.5 C 472.999,327.171 479.332,332.671 480.5,344C 480.309,355.199 474.976,362.865 464.5,367C 450.167,371.333 435.833,375.667 421.5,380C 415.667,380.833 413.167,378.333 414,372.5C 425.167,359.333 436.333,346.167 447.5,333C 452.017,330.445 456.684,328.612 461.5,327.5 Z"/></g>
<g><path style="opacity:1" fill="#5c698e" d="M 254.5,331.5 C 263.037,337.603 272.037,342.936 281.5,347.5C 267.489,347.534 253.489,347.201 239.5,346.5C 244.167,341.167 249.167,336.167 254.5,331.5 Z"/></g>
<g><path style="opacity:1" fill="#f57595" d="M 458.5,338.5 C 471.055,337.594 473.889,342.594 467,353.5C 465.421,355.041 463.587,356.208 461.5,357C 452.142,360.002 442.809,362.669 433.5,365C 439.646,357.353 445.979,349.853 452.5,342.5C 454.29,340.684 456.29,339.351 458.5,338.5 Z"/></g>
<g><path style="opacity:1" fill="#5c638e" d="M 239.5,346.5 C 253.489,347.201 267.489,347.534 281.5,347.5C 290.437,350.358 299.604,352.025 309,352.5C 315.591,352.06 322.091,351.06 328.5,349.5C 344.855,349.923 361.189,350.59 377.5,351.5C 373.167,356.167 368.833,360.833 364.5,365.5C 325.832,364.544 287.166,363.544 248.5,362.5C 244.036,358.537 239.702,354.37 235.5,350C 236.705,348.624 238.038,347.458 239.5,346.5 Z"/></g>
<g><path style="opacity:1" fill="#b8dcf7" d="M 226.5,354.5 C 225.503,354.47 224.836,354.97 224.5,356C 219.924,366.571 215.257,377.071 210.5,387.5C 207.833,385.5 205.5,383.167 203.5,380.5C 207.494,370.511 211.494,360.511 215.5,350.5C 220.169,348.654 223.836,349.987 226.5,354.5 Z"/></g>
<g><path style="opacity:1" fill="#b2cff7" d="M 215.5,350.5 C 211.494,360.511 207.494,370.511 203.5,380.5C 200.188,377.854 197.188,374.854 194.5,371.5C 201.188,364.146 208.188,357.146 215.5,350.5 Z"/></g>
<g><path style="opacity:1" fill="#c0e4f7" d="M 226.5,354.5 C 229.167,356.5 231.5,358.833 233.5,361.5C 227.989,372.53 222.989,383.863 218.5,395.5C 215.5,393.167 212.833,390.5 210.5,387.5C 215.257,377.071 219.924,366.571 224.5,356C 224.836,354.97 225.503,354.47 226.5,354.5 Z"/></g>
<g><path style="opacity:1" fill="#566388" d="M 248.5,362.5 C 287.166,363.544 325.832,364.544 364.5,365.5C 345.548,384.118 326.548,402.785 307.5,421.5C 287.479,402.146 267.812,382.479 248.5,362.5 Z"/></g>
<g><path style="opacity:1" fill="#cfeaf7" d="M 233.5,361.5 C 236.833,364.167 239.833,367.167 242.5,370.5C 236.989,381.53 231.989,392.863 227.5,404.5C 224.167,401.833 221.167,398.833 218.5,395.5C 222.989,383.863 227.989,372.53 233.5,361.5 Z"/></g>
<g><path style="opacity:1" fill="#ddf0f7" d="M 242.5,370.5 C 245.833,373.167 248.833,376.167 251.5,379.5C 245.746,390.402 240.746,401.735 236.5,413.5C 233.167,410.833 230.167,407.833 227.5,404.5C 231.989,392.863 236.989,381.53 242.5,370.5 Z"/></g>
<g><path style="opacity:1" fill="#39384b" d="M 161.5,381.5 C 163.527,381.338 165.527,381.505 167.5,382C 194.014,409.547 220.181,437.38 246,465.5C 248.841,468.626 249.007,471.793 246.5,475C 174.833,475.667 103.167,475.667 31.5,475C 28.8333,472 28.8333,469 31.5,466C 49.3029,454.363 66.9695,442.529 84.5,430.5C 77.5323,418.369 70.3656,406.369 63,394.5C 62.0561,391.653 62.5561,389.153 64.5,387C 68.6818,386.389 72.6818,387.056 76.5,389C 102.59,398.697 128.757,408.197 155,417.5C 155.772,417.355 156.439,417.022 157,416.5C 157.714,407.504 158.381,398.504 159,389.5C 159.097,386.518 159.93,383.851 161.5,381.5 Z"/></g>
<g><path style="opacity:1" fill="#eaf7f7" d="M 251.5,379.5 C 255.833,383.167 259.833,387.167 263.5,391.5C 256.222,400.446 248.222,408.779 239.5,416.5C 238.167,415.833 237.167,414.833 236.5,413.5C 240.746,401.735 245.746,390.402 251.5,379.5 Z"/></g>
<g><path style="opacity:1" fill="#39384b" d="M 397.5,389.5 C 401.352,389.424 403.685,391.257 404.5,395C 402.401,408.139 401.401,421.305 401.5,434.5C 427.46,445.098 453.46,455.598 479.5,466C 482.167,469 482.167,472 479.5,475C 425.5,475.667 371.5,475.667 317.5,475C 315.556,472.847 315.056,470.347 316,467.5C 342.759,440.904 369.926,414.904 397.5,389.5 Z"/></g>
<g><path style="opacity:1" fill="#adc5f7" d="M 263.5,391.5 C 267.5,394.833 271.167,398.5 274.5,402.5C 264.303,408.429 254.636,415.096 245.5,422.5C 243.167,420.833 241.167,418.833 239.5,416.5C 248.222,408.779 256.222,400.446 263.5,391.5 Z"/></g>
<g><path style="opacity:1" fill="#f86382" d="M 186.5,417.5 C 185.414,417.62 184.747,418.287 184.5,419.5C 180.827,434.873 177.16,450.207 173.5,465.5C 167.5,465.5 161.5,465.5 155.5,465.5C 158.01,453.793 160.677,442.127 163.5,430.5C 164.469,429.691 165.302,428.691 166,427.5C 166.736,417.791 167.736,408.124 169,398.5C 175.306,404.486 181.14,410.819 186.5,417.5 Z"/></g>
<g><path style="opacity:1" fill="#f87696" d="M 120.5,416.5 C 116.365,432.707 112.699,449.041 109.5,465.5C 90.1667,465.5 70.8333,465.5 51.5,465.5C 66.1813,455.399 81.0147,445.399 96,435.5C 96.6667,433.5 96.6667,431.5 96,429.5C 90.6667,420.833 85.3333,412.167 80,403.5C 79.3123,402.668 79.479,402.002 80.5,401.5C 93.9321,406.529 107.265,411.529 120.5,416.5 Z"/></g>
<g><path style="opacity:1" fill="#b2cff7" d="M 274.5,402.5 C 278.5,405.833 282.167,409.5 285.5,413.5C 276.381,419.446 267.381,425.613 258.5,432C 257.748,432.671 257.414,433.504 257.5,434.5C 253.167,430.833 249.167,426.833 245.5,422.5C 254.636,415.096 264.303,408.429 274.5,402.5 Z"/></g>
<g><path style="opacity:1" fill="#b7d7f7" d="M 285.5,413.5 C 287.833,415.167 289.833,417.167 291.5,419.5C 281.303,425.429 271.636,432.096 262.5,439.5C 260.5,438.167 258.833,436.5 257.5,434.5C 257.414,433.504 257.748,432.671 258.5,432C 267.381,425.613 276.381,419.446 285.5,413.5 Z"/></g>
<g><path style="opacity:1" fill="#f96e8e" d="M 120.5,416.5 C 128.126,418.595 135.459,421.262 142.5,424.5C 138.409,437.867 135.076,451.533 132.5,465.5C 124.833,465.5 117.167,465.5 109.5,465.5C 112.699,449.041 116.365,432.707 120.5,416.5 Z"/></g>
<g><path style="opacity:1" fill="#f85e7e" d="M 449.5,464.5 C 431.341,465.497 413.008,465.83 394.5,465.5C 386.307,453.768 377.64,442.435 368.5,431.5C 375.969,423.505 383.802,415.838 392,408.5C 391.575,417.498 390.742,426.498 389.5,435.5C 389.365,437.808 390.031,439.808 391.5,441.5C 410.63,449.734 429.963,457.4 449.5,464.5 Z"/></g>
<g><path style="opacity:1" fill="#f95a7c" d="M 186.5,417.5 C 201.139,433.14 215.805,448.807 230.5,464.5C 211.674,465.497 192.674,465.83 173.5,465.5C 177.16,450.207 180.827,434.873 184.5,419.5C 184.747,418.287 185.414,417.62 186.5,417.5 Z"/></g>
<g><path style="opacity:1" fill="#f96888" d="M 142.5,424.5 C 149.398,426.911 156.398,428.911 163.5,430.5C 160.677,442.127 158.01,453.793 155.5,465.5C 147.833,465.5 140.167,465.5 132.5,465.5C 135.076,451.533 138.409,437.867 142.5,424.5 Z"/></g>
<g><path style="opacity:1" fill="#bce2f7" d="M 291.5,419.5 C 296.5,423.833 301.167,428.5 305.5,433.5C 295.535,439.818 286.201,446.818 277.5,454.5C 272.167,449.833 267.167,444.833 262.5,439.5C 271.636,432.096 281.303,425.429 291.5,419.5 Z"/></g>
<g><path style="opacity:1" fill="#f9577c" d="M 368.5,431.5 C 377.64,442.435 386.307,453.768 394.5,465.5C 390.833,465.5 387.167,465.5 383.5,465.5C 376.975,455.771 369.975,446.437 362.5,437.5C 364.167,435.167 366.167,433.167 368.5,431.5 Z"/></g>
<g><path style="opacity:1" fill="#c5e5f7" d="M 305.5,433.5 C 308.761,436.32 309.261,439.654 307,443.5C 300.5,450 294,456.5 287.5,463C 283.519,461.206 280.186,458.373 277.5,454.5C 286.201,446.818 295.535,439.818 305.5,433.5 Z"/></g>
<g><path style="opacity:1" fill="#f85274" d="M 362.5,437.5 C 369.975,446.437 376.975,455.771 383.5,465.5C 366.658,465.83 349.992,465.497 333.5,464.5C 342.866,455.133 352.532,446.133 362.5,437.5 Z"/></g>
<g><path style="opacity:1" fill="#6a455b" d="M 230.5,464.5 C 231.043,464.56 231.376,464.893 231.5,465.5C 201.333,465.833 171.167,466.167 141,466.5C 110.429,466.504 80.5957,466.17 51.5,465.5C 70.8333,465.5 90.1667,465.5 109.5,465.5C 117.167,465.5 124.833,465.5 132.5,465.5C 140.167,465.5 147.833,465.5 155.5,465.5C 161.5,465.5 167.5,465.5 173.5,465.5C 192.674,465.83 211.674,465.497 230.5,464.5 Z"/></g>
<g><path style="opacity:1" fill="#694259" d="M 333.5,464.5 C 349.992,465.497 366.658,465.83 383.5,465.5C 387.167,465.5 390.833,465.5 394.5,465.5C 413.008,465.83 431.341,465.497 449.5,464.5C 450.289,464.783 450.956,465.283 451.5,466C 411.829,466.833 372.162,466.667 332.5,465.5C 332.624,464.893 332.957,464.56 333.5,464.5 Z"/></g>
</svg>
