<?xml version="1.0" encoding="UTF-8"?>
<!DOCTYPE svg PUBLIC "-//W3C//DTD SVG 1.1//EN" "http://www.w3.org/Graphics/SVG/1.1/DTD/svg11.dtd">
<svg xmlns="http://www.w3.org/2000/svg" version="1.1" width="512px" height="512px" style="shape-rendering:geometricPrecision; text-rendering:geometricPrecision; image-rendering:optimizeQuality; fill-rule:evenodd; clip-rule:evenodd" xmlns:xlink="http://www.w3.org/1999/xlink">
<g><path style="opacity:1" fill="#9ba6fa" d="M 263.5,58.5 C 256.662,61.1689 250.162,64.5022 244,68.5C 243.601,68.2716 243.435,67.9382 243.5,67.5C 246.915,57.251 250.915,47.251 255.5,37.5C 258.563,44.358 261.23,51.358 263.5,58.5 Z"/></g>
<g><path style="opacity:1" fill="#a0b3fa" d="M 263.5,58.5 C 266.063,64.2974 268.063,70.2974 269.5,76.5C 268.85,76.1961 268.183,75.8627 267.5,75.5C 256.14,81.5127 244.806,87.5127 233.5,93.5C 236.263,84.5346 239.596,75.868 243.5,67.5C 243.435,67.9382 243.601,68.2716 244,68.5C 250.162,64.5022 256.662,61.1689 263.5,58.5 Z"/></g>
<g><path style="opacity:1" fill="#a2bbfa" d="M 269.5,76.5 C 271.065,78.5093 272.065,80.8427 272.5,83.5C 271.883,83.3893 271.383,83.056 271,82.5C 257.74,90.2146 244.24,97.5479 230.5,104.5C 229.893,104.376 229.56,104.043 229.5,103.5C 230.263,99.8632 231.597,96.5299 233.5,93.5C 244.806,87.5127 256.14,81.5127 267.5,75.5C 268.183,75.8627 268.85,76.1961 269.5,76.5 Z"/></g>
<g><path style="opacity:1" fill="#a7c1fa" d="M 272.5,83.5 C 273.566,85.7014 274.233,88.0347 274.5,90.5C 257.948,99.0265 241.448,107.693 225,116.5C 224.601,116.272 224.435,115.938 224.5,115.5C 225.655,111.203 227.321,107.203 229.5,103.5C 229.56,104.043 229.893,104.376 230.5,104.5C 244.24,97.5479 257.74,90.2146 271,82.5C 271.383,83.056 271.883,83.3893 272.5,83.5 Z"/></g>
<g><path style="opacity:1" fill="#b6dbfa" d="M 379.5,95.5 C 373.167,95.5 366.833,95.5 360.5,95.5C 363.136,89.5648 366.302,83.8982 370,78.5C 373.686,83.8709 376.852,89.5376 379.5,95.5 Z"/></g>
<g><path style="opacity:1" fill="#a8c8fa" d="M 274.5,90.5 C 276.267,92.7916 277.267,95.4582 277.5,98.5C 257.995,109.753 238.328,120.753 218.5,131.5C 219.929,125.871 221.929,120.537 224.5,115.5C 224.435,115.938 224.601,116.272 225,116.5C 241.448,107.693 257.948,99.0265 274.5,90.5 Z"/></g>
<g><path style="opacity:1" fill="#aecffa" d="M 360.5,95.5 C 366.833,95.5 373.167,95.5 379.5,95.5C 381.267,97.9384 382.601,100.605 383.5,103.5C 374.5,103.5 365.5,103.5 356.5,103.5C 357.326,100.515 358.659,97.8485 360.5,95.5 Z"/></g>
<g><path style="opacity:1" fill="#aecefa" d="M 277.5,98.5 C 279.346,101.54 280.679,104.873 281.5,108.5C 280.85,108.196 280.183,107.863 279.5,107.5C 258.254,118.706 237.087,130.039 216,141.5C 215.617,140.944 215.117,140.611 214.5,140.5C 215.463,137.256 216.796,134.256 218.5,131.5C 238.328,120.753 257.995,109.753 277.5,98.5 Z"/></g>
<g><path style="opacity:1" fill="#afd4fa" d="M 281.5,108.5 C 282.363,110.421 283.029,112.421 283.5,114.5C 258.816,127.529 234.15,140.529 209.5,153.5C 210.892,149.051 212.559,144.718 214.5,140.5C 215.117,140.611 215.617,140.944 216,141.5C 237.087,130.039 258.254,118.706 279.5,107.5C 280.183,107.863 280.85,108.196 281.5,108.5 Z"/></g>
<g><path style="opacity:1" fill="#a9c4fa" d="M 356.5,103.5 C 365.5,103.5 374.5,103.5 383.5,103.5C 384.267,104.172 384.934,105.005 385.5,106C 384.534,108.769 383.201,111.269 381.5,113.5C 378.232,112.178 374.565,111.511 370.5,111.5C 366.419,111.532 362.419,111.865 358.5,112.5C 356.618,110.761 355.285,108.594 354.5,106C 354.639,104.699 355.305,103.866 356.5,103.5 Z"/></g>
<g><path style="opacity:1" fill="#7883d4" d="M 142.5,118.5 C 132.418,118.193 122.418,118.526 112.5,119.5C 116.943,107.945 121.943,96.6112 127.5,85.5C 133.282,96.0698 138.282,107.07 142.5,118.5 Z"/></g>
<g><path style="opacity:1" fill="#a0b2fa" d="M 381.5,113.5 C 378.705,120.423 375.372,127.09 371.5,133.5C 366.778,126.77 362.445,119.77 358.5,112.5C 362.419,111.865 366.419,111.532 370.5,111.5C 374.565,111.511 378.232,112.178 381.5,113.5 Z"/></g>
<g><path style="opacity:1" fill="#b4dafa" d="M 283.5,114.5 C 285.363,118.755 287.03,123.088 288.5,127.5C 260.266,143.202 231.766,158.536 203,173.5C 202.536,172.906 202.369,172.239 202.5,171.5C 204.462,165.267 206.796,159.267 209.5,153.5C 234.15,140.529 258.816,127.529 283.5,114.5 Z"/></g>
<g><path style="opacity:1" fill="#727ccf" d="M 142.5,118.5 C 144.147,121.729 145.814,125.063 147.5,128.5C 145.531,134.757 143.198,140.757 140.5,146.5C 132.5,145.167 124.5,145.167 116.5,146.5C 113.332,140.821 110.665,134.821 108.5,128.5C 109.606,125.297 110.939,122.297 112.5,119.5C 122.418,118.526 132.418,118.193 142.5,118.5 Z"/></g>
<g><path style="opacity:1" fill="#c0e0fa" d="M 288.5,127.5 C 290.832,134.162 293.165,140.828 295.5,147.5C 294.883,147.389 294.383,147.056 294,146.5C 267.246,160.794 240.412,174.961 213.5,189C 212.619,189.708 211.953,190.542 211.5,191.5C 206.992,188.747 202.659,185.747 198.5,182.5C 199.065,178.463 200.399,174.797 202.5,171.5C 202.369,172.239 202.536,172.906 203,173.5C 231.766,158.536 260.266,143.202 288.5,127.5 Z"/></g>
<g><path style="opacity:1" fill="#6d75cc" d="M 140.5,146.5 C 137.506,157.315 134.006,167.982 130,178.5C 124.672,168.177 120.172,157.511 116.5,146.5C 124.5,145.167 132.5,145.167 140.5,146.5 Z"/></g>
<g><path style="opacity:1" fill="#cde6fa" d="M 295.5,147.5 C 297.559,152.01 299.226,156.677 300.5,161.5C 276.194,174.321 251.86,187.154 227.5,200C 226.619,200.708 225.953,201.542 225.5,202.5C 224.833,202.167 224.167,201.833 223.5,201.5C 219.5,198.167 215.5,194.833 211.5,191.5C 211.953,190.542 212.619,189.708 213.5,189C 240.412,174.961 267.246,160.794 294,146.5C 294.383,147.056 294.883,147.389 295.5,147.5 Z"/></g>
<g><path style="opacity:1" fill="#d9ecfa" d="M 300.5,161.5 C 302.697,166.756 304.697,172.089 306.5,177.5C 284.887,188.641 263.22,199.807 241.5,211C 240.748,211.671 240.414,212.504 240.5,213.5C 235.238,210.244 230.238,206.578 225.5,202.5C 225.953,201.542 226.619,200.708 227.5,200C 251.86,187.154 276.194,174.321 300.5,161.5 Z"/></g>
<g><path style="opacity:1" fill="#e3f1f9" d="M 306.5,177.5 C 307.899,180.699 308.899,184.032 309.5,187.5C 293.217,198.452 277.217,209.785 261.5,221.5C 259.999,222.752 258.332,223.752 256.5,224.5C 255.448,224.649 254.448,224.483 253.5,224C 249.617,220.902 245.617,218.068 241.5,215.5C 241.167,214.833 240.833,214.167 240.5,213.5C 240.414,212.504 240.748,211.671 241.5,211C 263.22,199.807 284.887,188.641 306.5,177.5 Z"/></g>
<g><path style="opacity:1" fill="#6970c8" d="M 368.5,218.5 C 359.5,219.833 350.5,219.833 341.5,218.5C 346.065,209.036 350.899,199.703 356,190.5C 360.439,199.711 364.605,209.044 368.5,218.5 Z"/></g>
<g><path style="opacity:1" fill="#a5bffa" d="M 198.5,182.5 C 202.659,185.747 206.992,188.747 211.5,191.5C 215.5,194.833 219.5,198.167 223.5,201.5C 218.988,203.512 214.155,204.845 209,205.5C 208.098,205.257 207.265,204.923 206.5,204.5C 203.313,197.44 200.646,190.106 198.5,182.5 Z"/></g>
<g><path style="opacity:1" fill="#acccfa" d="M 223.5,201.5 C 224.167,201.833 224.833,202.167 225.5,202.5C 230.238,206.578 235.238,210.244 240.5,213.5C 240.833,214.167 241.167,214.833 241.5,215.5C 241.389,216.117 241.056,216.617 240.5,217C 231.228,218.955 221.895,220.455 212.5,221.5C 210.224,215.945 208.224,210.278 206.5,204.5C 207.265,204.923 208.098,205.257 209,205.5C 214.155,204.845 218.988,203.512 223.5,201.5 Z"/></g>
<g><path style="opacity:1" fill="#6c74cb" d="M 309.5,187.5 C 304.206,202.394 298.539,217.061 292.5,231.5C 283.099,228.396 273.433,225.73 263.5,223.5C 262.287,223.253 261.62,222.586 261.5,221.5C 277.217,209.785 293.217,198.452 309.5,187.5 Z"/></g>
<g><path style="opacity:1" fill="#6a75c9" d="M 341.5,218.5 C 350.5,219.833 359.5,219.833 368.5,218.5C 370.096,221.314 370.596,224.314 370,227.5C 365.532,239.099 360.532,250.432 355,261.5C 350.275,249.717 345.275,238.051 340,226.5C 339.282,223.593 339.782,220.926 341.5,218.5 Z"/></g>
<g><path style="opacity:1" fill="#6c75cc" d="M 454.5,203.5 C 467.705,203.505 473.205,210.172 471,223.5C 467.34,232.745 460.84,235.578 451.5,232C 444.931,225.055 443.764,217.222 448,208.5C 449.805,206.174 451.972,204.508 454.5,203.5 Z"/></g>
<g><path style="opacity:1" fill="#b2d7f9" d="M 241.5,215.5 C 245.617,218.068 249.617,220.902 253.5,224C 254.448,224.483 255.448,224.649 256.5,224.5C 255.522,236.086 255.189,247.753 255.5,259.5C 255.802,262.059 255.468,264.393 254.5,266.5C 254.5,262.833 254.5,259.167 254.5,255.5C 254.83,249.132 254.496,242.798 253.5,236.5C 242.56,238.823 231.56,240.823 220.5,242.5C 217.598,235.678 214.931,228.678 212.5,221.5C 221.895,220.455 231.228,218.955 240.5,217C 241.056,216.617 241.389,216.117 241.5,215.5 Z"/></g>
<g><path style="opacity:1" fill="#6f77ce" d="M 48.5,229.5 C 62.5176,229.465 68.0176,236.465 65,250.5C 60.4781,259.673 53.6448,261.84 44.5,257C 38.5575,249.517 38.0575,241.684 43,233.5C 44.8121,232.023 46.6455,230.69 48.5,229.5 Z"/></g>
<g><path style="opacity:1" fill="#c0e1fa" d="M 254.5,255.5 C 245.167,257.167 235.833,258.833 226.5,260.5C 224.302,254.574 222.302,248.574 220.5,242.5C 231.56,240.823 242.56,238.823 253.5,236.5C 254.496,242.798 254.83,249.132 254.5,255.5 Z"/></g>
<g><path style="opacity:1" fill="#b8dcfa" d="M 188.5,254.5 C 176.803,253.854 165.136,253.187 153.5,252.5C 158.648,242.203 164.315,232.203 170.5,222.5C 177.003,232.835 183.003,243.502 188.5,254.5 Z"/></g>
<g><path style="opacity:1" fill="#7780d3" d="M 261.5,221.5 C 261.62,222.586 262.287,223.253 263.5,223.5C 273.433,225.73 283.099,228.396 292.5,231.5C 288.362,243.249 284.029,254.915 279.5,266.5C 271.84,263.424 263.84,261.091 255.5,259.5C 255.189,247.753 255.522,236.086 256.5,224.5C 258.332,223.752 259.999,222.752 261.5,221.5 Z"/></g>
<g><path style="opacity:1" fill="#aed0fa" d="M 153.5,252.5 C 165.136,253.187 176.803,253.854 188.5,254.5C 189.593,258.672 188.593,262.339 185.5,265.5C 175.652,265.173 165.986,265.506 156.5,266.5C 154.363,263.507 152.363,260.34 150.5,257C 151.386,255.385 152.386,253.885 153.5,252.5 Z"/></g>
<g><path style="opacity:1" fill="#818bdc" d="M 255.5,259.5 C 263.84,261.091 271.84,263.424 279.5,266.5C 275.777,276.944 271.777,287.278 267.5,297.5C 263.279,296.122 258.946,295.122 254.5,294.5C 254.5,292.167 254.5,289.833 254.5,287.5C 254.5,280.5 254.5,273.5 254.5,266.5C 255.468,264.393 255.802,262.059 255.5,259.5 Z"/></g>
<g><path style="opacity:1" fill="#d1e8fa" d="M 254.5,255.5 C 254.5,259.167 254.5,262.833 254.5,266.5C 254.5,273.5 254.5,280.5 254.5,287.5C 250.187,288.331 245.853,289.164 241.5,290C 240.027,290.71 239.36,291.876 239.5,293.5C 234.99,282.65 230.657,271.65 226.5,260.5C 235.833,258.833 245.167,257.167 254.5,255.5 Z"/></g>
<g><path style="opacity:1" fill="#a8c6fa" d="M 185.5,265.5 C 183.771,269.958 181.771,274.291 179.5,278.5C 174.167,278.5 168.833,278.5 163.5,278.5C 160.665,274.836 158.332,270.836 156.5,266.5C 165.986,265.506 175.652,265.173 185.5,265.5 Z"/></g>
<g><path style="opacity:1" fill="#a2b9fa" d="M 163.5,278.5 C 168.833,278.5 174.167,278.5 179.5,278.5C 177.267,283.299 174.767,287.965 172,292.5C 168.904,287.972 166.071,283.305 163.5,278.5 Z"/></g>
<g><path style="opacity:1" fill="#8996e1" d="M 254.5,294.5 C 258.946,295.122 263.279,296.122 267.5,297.5C 263.5,308.5 259.5,319.5 255.5,330.5C 254.506,320.681 254.173,310.681 254.5,300.5C 254.5,298.5 254.5,296.5 254.5,294.5 Z"/></g>
<g><path style="opacity:1" fill="#e5f3fa" d="M 254.5,287.5 C 254.5,289.833 254.5,292.167 254.5,294.5C 254.5,296.5 254.5,298.5 254.5,300.5C 253.506,310.653 253.172,320.986 253.5,331.5C 248.262,319.127 243.595,306.461 239.5,293.5C 239.36,291.876 240.027,290.71 241.5,290C 245.853,289.164 250.187,288.331 254.5,287.5 Z"/></g>
<g><path style="opacity:1" fill="#9ba2f3" d="M 133.5,344.5 C 103.338,343.502 73.0046,343.169 42.5,343.5C 42.3334,328.163 42.5001,312.83 43,297.5C 45.9188,291.975 50.4188,290.142 56.5,292C 59.3807,293.251 61.214,295.417 62,298.5C 62.2549,310.114 64.9216,321.114 70,331.5C 76.2043,337.046 83.0377,337.88 90.5,334C 100.242,330.586 106.075,323.752 108,313.5C 109.515,307.925 110.515,302.258 111,296.5C 113.897,291.845 118.063,290.345 123.5,292C 124.667,293.167 125.833,294.333 127,295.5C 128.039,301.656 129.706,307.656 132,313.5C 133.938,316.106 136.438,317.939 139.5,319C 158.786,317.611 178.119,317.278 197.5,318C 208.173,318.66 211.339,323.826 207,333.5C 205.055,334.863 202.888,335.697 200.5,336C 177.892,336.784 155.559,339.618 133.5,344.5 Z"/></g>
<g><path style="opacity:1" fill="#9ba2f3" d="M 471.5,347.5 C 470.566,346.432 470.232,345.099 470.5,343.5C 439.995,343.169 409.662,343.502 379.5,344.5C 356.4,339.529 333.067,336.363 309.5,335C 302.848,329.715 302.848,324.381 309.5,319C 318.629,317.948 327.795,317.448 337,317.5C 349.218,317.594 361.384,318.094 373.5,319C 377.066,318.3 379.9,316.467 382,313.5C 384.175,307.289 385.842,300.956 387,294.5C 393.492,289.725 398.825,290.725 403,297.5C 403.528,308.289 406.528,318.289 412,327.5C 419.196,333.358 427.362,336.191 436.5,336C 443.962,332.595 448.128,326.762 449,318.5C 450.244,310.782 451.578,303.115 453,295.5C 457.2,291.286 462.034,290.452 467.5,293C 469.487,294.319 470.654,296.152 471,298.5C 471.5,314.83 471.667,331.163 471.5,347.5 Z"/></g>
<g><path style="opacity:1" fill="#c1ccf1" d="M 254.5,300.5 C 254.173,310.681 254.506,320.681 255.5,330.5C 254.994,332.105 254.327,332.439 253.5,331.5C 253.172,320.986 253.506,310.653 254.5,300.5 Z"/></g>
<g><path style="opacity:1" fill="#969cee" d="M 42.5,343.5 C 73.0046,343.169 103.338,343.502 133.5,344.5C 120.854,348.221 108.521,353.055 96.5,359C 88.8951,364.717 84.2284,372.217 82.5,381.5C 69.1667,381.5 55.8333,381.5 42.5,381.5C 42.5,368.833 42.5,356.167 42.5,343.5 Z"/></g>
<g><path style="opacity:1" fill="#959cee" d="M 379.5,344.5 C 409.662,343.502 439.995,343.169 470.5,343.5C 470.232,345.099 470.566,346.432 471.5,347.5C 471.5,359.167 471.5,370.833 471.5,382.5C 458.167,381.167 444.833,381.167 431.5,382.5C 430.149,373.3 425.815,365.8 418.5,360C 406.169,353.167 393.169,348 379.5,344.5 Z"/></g>
<g><path style="opacity:1" fill="#cdd3fa" d="M 347.5,364.5 C 335.322,364.172 323.322,364.505 311.5,365.5C 285.945,362.286 260.279,360.786 234.5,361C 231.833,358 231.833,355 234.5,352C 265.106,349.991 295.44,351.991 325.5,358C 333.134,359.57 340.467,361.737 347.5,364.5 Z"/></g>
<g><path style="opacity:1" fill="#cfd5fa" d="M 209.5,353.5 C 212.518,353.335 215.518,353.502 218.5,354C 220.751,362.904 217.418,365.737 208.5,362.5C 205.983,359.194 206.317,356.194 209.5,353.5 Z"/></g>
<g><path style="opacity:1" fill="#c7cdfa" d="M 137.5,396.5 C 133.833,396.5 130.167,396.5 126.5,396.5C 126.904,385.209 132.237,377.043 142.5,372C 157.329,364.335 172.996,359.168 189.5,356.5C 194.706,358.376 195.706,361.543 192.5,366C 176.475,369.342 161.142,374.675 146.5,382C 141.706,384.793 138.372,388.793 136.5,394C 136.743,394.902 137.077,395.735 137.5,396.5 Z"/></g>
<g><path style="opacity:1" fill="#c5cbfa" d="M 347.5,364.5 C 358.93,367.463 368.763,373.129 377,381.5C 381.999,388.481 382.666,395.814 379,403.5C 376,406.167 373,406.167 370,403.5C 370.093,399.174 370.093,394.841 370,390.5C 367.433,386.3 363.933,383.133 359.5,381C 344.087,373.654 328.087,368.488 311.5,365.5C 323.322,364.505 335.322,364.172 347.5,364.5 Z"/></g>
<g><path style="opacity:1" fill="#b8bef9" d="M 126.5,396.5 C 130.167,396.5 133.833,396.5 137.5,396.5C 142.419,403.742 149.085,408.742 157.5,411.5C 157.192,415.36 156.525,419.026 155.5,422.5C 145.6,418.964 137.1,413.298 130,405.5C 128.336,402.673 127.17,399.673 126.5,396.5 Z"/></g>
<g><path style="opacity:1" fill="#8e96e8" d="M 42.5,381.5 C 55.8333,381.5 69.1667,381.5 82.5,381.5C 80.6506,396.648 85.6506,409.148 97.5,419C 100.567,421.188 103.567,423.355 106.5,425.5C 90.9909,425.17 75.6576,425.504 60.5,426.5C 47.5935,414.341 41.5935,399.341 42.5,381.5 Z"/></g>
<g><path style="opacity:1" fill="#8e96e7" d="M 178.5,418.5 C 178.674,420.861 179.007,423.194 179.5,425.5C 171.5,425.5 163.5,425.5 155.5,425.5C 155.5,424.5 155.5,423.5 155.5,422.5C 156.525,419.026 157.192,415.36 157.5,411.5C 157.45,405.68 158.284,400.014 160,394.5C 163.05,390.87 166.883,389.703 171.5,391C 174,392.167 175.833,394 177,396.5C 177.316,403.858 177.816,411.191 178.5,418.5 Z"/></g>
<g><path style="opacity:1" fill="#8e96e7" d="M 358.5,427.5 C 350.772,425.582 342.772,424.915 334.5,425.5C 334.448,423.097 334.781,420.764 335.5,418.5C 335.837,410.407 336.671,402.407 338,394.5C 341.822,390.279 346.322,389.446 351.5,392C 353.487,393.319 354.654,395.152 355,397.5C 356.332,407.489 357.499,417.489 358.5,427.5 Z"/></g>
<g><path style="opacity:1" fill="#8e96e8" d="M 471.5,382.5 C 471.808,399.541 465.808,413.875 453.5,425.5C 438.167,425.5 422.833,425.5 407.5,425.5C 411.098,422.687 414.765,419.853 418.5,417C 428.672,407.644 433.006,396.144 431.5,382.5C 444.833,381.167 458.167,381.167 471.5,382.5 Z"/></g>
<g><path style="opacity:1" fill="#afb5f9" d="M 178.5,418.5 C 230.801,429.099 283.135,429.099 335.5,418.5C 334.781,420.764 334.448,423.097 334.5,425.5C 333.857,427.076 332.857,428.41 331.5,429.5C 281.935,439.686 232.269,440.019 182.5,430.5C 181.065,429.087 180.065,427.42 179.5,425.5C 179.007,423.194 178.674,420.861 178.5,418.5 Z"/></g>
<g><path style="opacity:1" fill="#898fe7" d="M 106.5,425.5 C 118.444,432.47 131.111,437.803 144.5,441.5C 152.578,439.378 156.245,434.045 155.5,425.5C 163.5,425.5 171.5,425.5 179.5,425.5C 180.065,427.42 181.065,429.087 182.5,430.5C 184.671,436.328 187.671,441.662 191.5,446.5C 157.004,447.498 122.337,447.832 87.5,447.5C 77.1945,442.18 68.1945,435.18 60.5,426.5C 75.6576,425.504 90.9909,425.17 106.5,425.5 Z"/></g>
<g><path style="opacity:1" fill="#898fe7" d="M 334.5,425.5 C 342.772,424.915 350.772,425.582 358.5,427.5C 358.977,431.379 360.143,435.046 362,438.5C 364.224,440.195 366.724,441.195 369.5,441.5C 382.889,437.803 395.556,432.47 407.5,425.5C 422.833,425.5 438.167,425.5 453.5,425.5C 446.099,435.211 436.766,442.545 425.5,447.5C 390.833,447.5 356.167,447.5 321.5,447.5C 324.313,443.224 327.146,438.89 330,434.5C 330.608,432.846 331.108,431.179 331.5,429.5C 332.857,428.41 333.857,427.076 334.5,425.5 Z"/></g>
<g><path style="opacity:1" fill="#858fe1" d="M 191.5,446.5 C 194.944,450.061 198.944,452.894 203.5,455C 213.156,456.033 222.823,457.033 232.5,458C 233.71,459.039 234.71,460.206 235.5,461.5C 199.402,462.16 163.402,462.827 127.5,463.5C 113.237,460.305 99.9037,454.972 87.5,447.5C 122.337,447.832 157.004,447.498 191.5,446.5 Z"/></g>
<g><path style="opacity:1" fill="#858fe1" d="M 321.5,447.5 C 356.167,447.5 390.833,447.5 425.5,447.5C 414.41,454.427 402.41,459.427 389.5,462.5C 352.5,462.5 315.5,462.5 278.5,462.5C 278.859,460.629 279.859,459.129 281.5,458C 289.772,456.796 298.106,456.129 306.5,456C 312.113,454.195 317.113,451.362 321.5,447.5 Z"/></g>
<g><path style="opacity:1" fill="#8389e1" d="M 235.5,461.5 C 237.248,466.423 235.915,470.256 231.5,473C 196.273,475.271 161.606,472.104 127.5,463.5C 163.402,462.827 199.402,462.16 235.5,461.5 Z"/></g>
<g><path style="opacity:1" fill="#8389e1" d="M 278.5,462.5 C 315.5,462.5 352.5,462.5 389.5,462.5C 361.68,470.353 333.18,474.02 304,473.5C 296.833,473.333 289.667,473.167 282.5,473C 277.872,470.601 276.539,467.101 278.5,462.5 Z"/></g>
</svg>
