<?xml version="1.0" encoding="UTF-8"?>
<!DOCTYPE svg PUBLIC "-//W3C//DTD SVG 1.1//EN" "http://www.w3.org/Graphics/SVG/1.1/DTD/svg11.dtd">
<svg xmlns="http://www.w3.org/2000/svg" version="1.1" width="512px" height="512px" style="shape-rendering:geometricPrecision; text-rendering:geometricPrecision; image-rendering:optimizeQuality; fill-rule:evenodd; clip-rule:evenodd" xmlns:xlink="http://www.w3.org/1999/xlink">
<g><path style="opacity:1" fill="#fabd58" d="M 114.5,34.5 C 114.5,34.1667 114.5,33.8333 114.5,33.5C 132.5,33.5 150.5,33.5 168.5,33.5C 169.568,34.4345 170.901,34.7678 172.5,34.5C 174.378,44.5552 176.378,54.5552 178.5,64.5C 163.353,67.1888 148.02,69.5222 132.5,71.5C 133.718,70.8386 135.051,70.1719 136.5,69.5C 134.039,57.8594 131.705,46.1927 129.5,34.5C 124.5,34.5 119.5,34.5 114.5,34.5 Z"/></g>
<g><path style="opacity:1" fill="#fac765" d="M 168.5,33.5 C 178.167,33.5 187.833,33.5 197.5,33.5C 199.167,42.8333 200.833,52.1667 202.5,61.5C 194.552,62.8735 186.552,63.8735 178.5,64.5C 176.378,54.5552 174.378,44.5552 172.5,34.5C 170.901,34.7678 169.568,34.4345 168.5,33.5 Z"/></g>
<g><path style="opacity:1" fill="#facf71" d="M 197.5,33.5 C 208.167,33.5 218.833,33.5 229.5,33.5C 230.209,34.404 231.209,34.7373 232.5,34.5C 233.962,41.8088 235.295,49.1421 236.5,56.5C 225.206,58.3516 213.872,60.0183 202.5,61.5C 200.833,52.1667 199.167,42.8333 197.5,33.5 Z"/></g>
<g><path style="opacity:1" fill="#fae189" d="M 251.5,33.5 C 266.412,33.176 281.245,33.5094 296,34.5C 296.52,36.2889 296.187,37.9556 295,39.5C 287.218,48.3039 277.385,52.6372 265.5,52.5C 264.242,46.5448 263.242,40.5448 262.5,34.5C 258.629,34.815 254.962,34.4816 251.5,33.5 Z"/></g>
<g><path style="opacity:1" fill="#faa043" d="M 63.5,33.5 C 66.3731,49.1986 69.3731,64.8652 72.5,80.5C 62.1748,81.8321 51.8414,83.1654 41.5,84.5C 37.8203,85.2347 35.3203,83.9013 34,80.5C 33.034,65.7399 33.3674,51.0733 35,36.5C 35.9025,35.2986 37.0692,34.4652 38.5,34C 46.8267,33.5003 55.16,33.3336 63.5,33.5 Z"/></g>
<g><path style="opacity:1" fill="#faa743" d="M 63.5,33.5 C 72.1667,33.5 80.8333,33.5 89.5,33.5C 87.7354,34.4614 85.7354,34.7947 83.5,34.5C 86.4236,48.7848 89.0903,63.1181 91.5,77.5C 85.1438,78.4079 78.8104,79.4079 72.5,80.5C 69.3731,64.8652 66.3731,49.1986 63.5,33.5 Z"/></g>
<g><path style="opacity:1" fill="#faae45" d="M 89.5,33.5 C 97.8333,33.5 106.167,33.5 114.5,33.5C 114.5,33.8333 114.5,34.1667 114.5,34.5C 112.143,34.3367 109.81,34.5034 107.5,35C 110.198,48.0039 113.198,60.8372 116.5,73.5C 108.355,75.1896 100.022,76.5229 91.5,77.5C 89.0903,63.1181 86.4236,48.7848 83.5,34.5C 85.7354,34.7947 87.7354,34.4614 89.5,33.5 Z"/></g>
<g><path style="opacity:1" fill="#fab54c" d="M 114.5,34.5 C 119.5,34.5 124.5,34.5 129.5,34.5C 131.705,46.1927 134.039,57.8594 136.5,69.5C 135.051,70.1719 133.718,70.8386 132.5,71.5C 127.24,72.6321 121.907,73.2988 116.5,73.5C 113.198,60.8372 110.198,48.0039 107.5,35C 109.81,34.5034 112.143,34.3367 114.5,34.5 Z"/></g>
<g><path style="opacity:1" fill="#fad880" d="M 229.5,33.5 C 236.833,33.5 244.167,33.5 251.5,33.5C 254.962,34.4816 258.629,34.815 262.5,34.5C 263.242,40.5448 264.242,46.5448 265.5,52.5C 255.863,54.0195 246.197,55.3528 236.5,56.5C 235.295,49.1421 233.962,41.8088 232.5,34.5C 231.209,34.7373 230.209,34.404 229.5,33.5 Z"/></g>
<g><path style="opacity:1" fill="#fadc85" d="M 412.5,81.5 C 422.991,83.6621 431.491,88.9955 438,97.5C 438.667,98.8333 438.667,100.167 438,101.5C 435.699,102.867 433.199,103.534 430.5,103.5C 429.928,101.745 429.094,100.078 428,98.5C 422.236,93.2422 417.069,87.5755 412.5,81.5 Z"/></g>
<g><path style="opacity:1" fill="#fad072" d="M 412.5,81.5 C 417.069,87.5755 422.236,93.2422 428,98.5C 429.094,100.078 429.928,101.745 430.5,103.5C 424.724,105.554 419.057,107.888 413.5,110.5C 404.881,102.548 396.548,94.2147 388.5,85.5C 391.804,83.5829 395.471,82.4162 399.5,82C 403.821,81.501 408.154,81.3343 412.5,81.5 Z"/></g>
<g><path style="opacity:1" fill="#8989ae" d="M 380.5,88.5 C 378.405,91.8756 377.071,95.5422 376.5,99.5C 374.428,111.773 375.594,123.773 380,135.5C 380.377,136.942 381.21,137.942 382.5,138.5C 374.083,152.336 365.416,166.002 356.5,179.5C 355.448,179.649 354.448,179.483 353.5,179C 337.877,164.199 321.877,150.032 305.5,136.5C 322.09,138.239 331.756,130.906 334.5,114.5C 334.61,112.626 333.944,111.126 332.5,110C 327.034,110.483 321.7,111.816 316.5,114C 308.357,117.24 300.357,120.74 292.5,124.5C 286.03,118.199 279.363,112.033 272.5,106C 273.056,105.617 273.389,105.117 273.5,104.5C 307.553,89.1454 343.22,83.8121 380.5,88.5 Z"/></g>
<g><path style="opacity:1" fill="#f9c361" d="M 388.5,85.5 C 396.548,94.2147 404.881,102.548 413.5,110.5C 408.871,113.821 404.204,117.154 399.5,120.5C 391.914,113.746 384.747,106.412 378,98.5C 377.617,99.056 377.117,99.3893 376.5,99.5C 377.071,95.5422 378.405,91.8756 380.5,88.5C 382.89,86.9802 385.557,85.9802 388.5,85.5 Z"/></g>
<g><path style="opacity:1" fill="#8383a8" d="M 273.5,104.5 C 273.389,105.117 273.056,105.617 272.5,106C 279.363,112.033 286.03,118.199 292.5,124.5C 289.527,125.987 286.527,127.487 283.5,129C 282.167,130.333 282.167,131.667 283.5,133C 290.716,134.803 298.049,135.969 305.5,136.5C 321.877,150.032 337.877,164.199 353.5,179C 354.448,179.483 355.448,179.649 356.5,179.5C 343.19,199.466 329.524,219.132 315.5,238.5C 280.47,206.802 245.136,175.468 209.5,144.5C 208.531,141.754 207.864,138.921 207.5,136C 207.354,133.966 208.02,132.299 209.5,131C 230.493,121.282 251.827,112.448 273.5,104.5 Z"/></g>
<g><path style="opacity:1" fill="#fabc58" d="M 149.5,132.5 C 148.5,132.5 147.5,132.5 146.5,132.5C 145.838,124.843 144.171,117.51 141.5,110.5C 155.814,107.838 170.147,105.171 184.5,102.5C 186.319,102.342 187.652,103.009 188.5,104.5C 184.794,111.376 180.127,117.542 174.5,123C 166.482,127.061 158.149,130.227 149.5,132.5 Z"/></g>
<g><path style="opacity:1" fill="#f7f7f8" d="M 305.5,136.5 C 298.049,135.969 290.716,134.803 283.5,133C 282.167,131.667 282.167,130.333 283.5,129C 286.527,127.487 289.527,125.987 292.5,124.5C 300.357,120.74 308.357,117.24 316.5,114C 321.7,111.816 327.034,110.483 332.5,110C 333.944,111.126 334.61,112.626 334.5,114.5C 331.756,130.906 322.09,138.239 305.5,136.5 Z"/></g>
<g><path style="opacity:1" fill="#f9b54f" d="M 399.5,120.5 C 393.833,126.5 388.167,132.5 382.5,138.5C 381.21,137.942 380.377,136.942 380,135.5C 375.594,123.773 374.428,111.773 376.5,99.5C 377.117,99.3893 377.617,99.056 378,98.5C 384.747,106.412 391.914,113.746 399.5,120.5 Z"/></g>
<g><path style="opacity:1" fill="#fab047" d="M 141.5,110.5 C 144.171,117.51 145.838,124.843 146.5,132.5C 147.5,132.5 148.5,132.5 149.5,132.5C 134.809,138.734 119.809,144.401 104.5,149.5C 102.704,139.186 101.037,128.853 99.5,118.5C 113.296,115.42 127.296,112.753 141.5,110.5 Z"/></g>
<g><path style="opacity:1" fill="#faa443" d="M 99.5,118.5 C 101.037,128.853 102.704,139.186 104.5,149.5C 93.1282,154.404 81.4616,158.738 69.5,162.5C 68.8826,162.389 68.3826,162.056 68,161.5C 65.7048,150.358 63.5382,139.191 61.5,128C 61.6483,126.744 61.9816,125.577 62.5,124.5C 74.7928,122.241 87.1262,120.241 99.5,118.5 Z"/></g>
<g><path style="opacity:1" fill="#fa9a43" d="M 62.5,124.5 C 61.9816,125.577 61.6483,126.744 61.5,128C 63.5382,139.191 65.7048,150.358 68,161.5C 68.3826,162.056 68.8826,162.389 69.5,162.5C 60.0268,166.392 50.3601,170.059 40.5,173.5C 37.3121,173.144 35.1455,171.477 34,168.5C 33.0409,156.071 33.3743,143.737 35,131.5C 35.9025,130.299 37.0692,129.465 38.5,129C 46.5399,127.605 54.5399,126.105 62.5,124.5 Z"/></g>
<g><path style="opacity:1" fill="#8282a2" d="M 209.5,144.5 C 245.136,175.468 280.47,206.802 315.5,238.5C 314.876,240.754 313.543,242.421 311.5,243.5C 277.141,212.805 242.808,182.138 208.5,151.5C 208.993,149.194 209.326,146.861 209.5,144.5 Z"/></g>
<g><path style="opacity:1" fill="#7d7da1" d="M 208.5,151.5 C 242.808,182.138 277.141,212.805 311.5,243.5C 303.089,255.979 294.422,268.313 285.5,280.5C 280.512,285.492 275.846,290.825 271.5,296.5C 232.326,260.495 192.659,224.995 152.5,190C 151.748,189.329 151.414,188.496 151.5,187.5C 168.145,177.173 185.145,167.34 202.5,158C 204.734,155.937 206.734,153.771 208.5,151.5 Z"/></g>
<g><path style="opacity:1" fill="#7c7c9b" d="M 151.5,187.5 C 151.414,188.496 151.748,189.329 152.5,190C 192.659,224.995 232.326,260.495 271.5,296.5C 267.654,302.862 263.321,308.862 258.5,314.5C 257.078,314.291 255.745,313.791 254.5,313C 214.131,276.296 173.465,239.963 132.5,204C 131.177,203.184 130.511,202.017 130.5,200.5C 137.296,195.93 144.296,191.597 151.5,187.5 Z"/></g>
<g><path style="opacity:1" fill="#fad67b" d="M 477.5,227.5 C 476.512,222.36 476.179,217.026 476.5,211.5C 469.833,211.5 463.167,211.5 456.5,211.5C 457.872,194.778 459.706,178.111 462,161.5C 464.018,154.954 467.852,149.787 473.5,146C 474.635,145.251 475.635,145.417 476.5,146.5C 477.491,173.456 477.824,200.456 477.5,227.5 Z"/></g>
<g><path style="opacity:1" fill="#75759b" d="M 130.5,200.5 C 130.511,202.017 131.177,203.184 132.5,204C 173.465,239.963 214.131,276.296 254.5,313C 255.745,313.791 257.078,314.291 258.5,314.5C 256.588,316.657 254.921,318.991 253.5,321.5C 247.787,328.548 242.454,335.881 237.5,343.5C 234.46,346.539 231.794,349.873 229.5,353.5C 228.833,353.833 228.167,354.167 227.5,354.5C 181.101,311.765 134.101,269.765 86.5,228.5C 100.792,218.681 115.458,209.348 130.5,200.5 Z"/></g>
<g><path style="opacity:1" fill="#757595" d="M 86.5,228.5 C 134.101,269.765 181.101,311.765 227.5,354.5C 221.754,361.582 215.087,367.582 207.5,372.5C 158.844,329.842 110.51,286.842 62.5,243.5C 70.1917,237.988 78.1917,232.988 86.5,228.5 Z"/></g>
<g><path style="opacity:1" fill="#fac968" d="M 456.5,211.5 C 463.167,211.5 469.833,211.5 476.5,211.5C 476.179,217.026 476.512,222.36 477.5,227.5C 477.5,237.167 477.5,246.833 477.5,256.5C 476.523,259.287 476.19,262.287 476.5,265.5C 468.195,264.668 459.862,264.335 451.5,264.5C 452.837,246.798 454.504,229.132 456.5,211.5 Z"/></g>
<g><path style="opacity:1" fill="#6f6f95" d="M 62.5,243.5 C 110.51,286.842 158.844,329.842 207.5,372.5C 205.167,374.5 202.833,376.5 200.5,378.5C 192.167,384.5 183.833,390.5 175.5,396.5C 167.462,402.512 159.462,408.512 151.5,414.5C 146.993,418.168 142.327,421.668 137.5,425C 136.216,425.684 135.049,425.517 134,424.5C 133.575,420.131 133.908,415.797 135,411.5C 137.069,403.056 138.902,394.556 140.5,386C 140.441,384.564 140.108,383.231 139.5,382C 137.311,381.678 135.311,382.178 133.5,383.5C 100.862,353.699 68.0284,324.032 35,294.5C 34.8288,286.989 34.3288,279.655 33.5,272.5C 33.9154,266.169 36.582,261.003 41.5,257C 48.5283,252.489 55.5283,247.989 62.5,243.5 Z"/></g>
<g><path style="opacity:1" fill="#6f6f8e" d="M 33.5,272.5 C 34.3288,279.655 34.8288,286.989 35,294.5C 68.0284,324.032 100.862,353.699 133.5,383.5C 128.108,387.553 122.441,391.22 116.5,394.5C 89.2042,370.374 62.0376,346.041 35,321.5C 34.8316,338.672 34.3316,355.672 33.5,372.5C 33.5,339.167 33.5,305.833 33.5,272.5 Z"/></g>
<g><path style="opacity:1" fill="#575782" d="M 285.5,280.5 C 281.584,302.807 281.584,325.141 285.5,347.5C 274.538,339.205 263.871,330.539 253.5,321.5C 254.921,318.991 256.588,316.657 258.5,314.5C 263.321,308.862 267.654,302.862 271.5,296.5C 275.846,290.825 280.512,285.492 285.5,280.5 Z"/></g>
<g><path style="opacity:1" fill="#fabd58" d="M 477.5,256.5 C 477.5,275.833 477.5,295.167 477.5,314.5C 467.167,314.5 456.833,314.5 446.5,314.5C 447.586,297.729 449.253,281.063 451.5,264.5C 459.862,264.335 468.195,264.668 476.5,265.5C 476.19,262.287 476.523,259.287 477.5,256.5 Z"/></g>
<g><path style="opacity:1" fill="#fabd59" d="M 408.5,315.5 C 400.994,314.653 393.328,313.986 385.5,313.5C 391.435,293.862 398.269,274.528 406,255.5C 409.54,250.783 414.04,247.45 419.5,245.5C 421.266,245.434 422.266,246.268 422.5,248C 417.873,270.642 413.206,293.142 408.5,315.5 Z"/></g>
<g><path style="opacity:1" fill="#69698e" d="M 116.5,394.5 C 105.167,402.167 93.8333,409.833 82.5,417.5C 81.2905,417.932 80.2905,418.599 79.5,419.5C 77.1667,420.833 74.8333,422.167 72.5,423.5C 71.448,423.649 70.448,423.483 69.5,423C 58.2842,412.15 46.7842,401.65 35,391.5C 34.1712,410.338 34.3378,429.005 35.5,447.5C 35.1583,448.338 34.4916,448.672 33.5,448.5C 33.5,423.167 33.5,397.833 33.5,372.5C 34.3316,355.672 34.8316,338.672 35,321.5C 62.0376,346.041 89.2042,370.374 116.5,394.5 Z"/></g>
<g><path style="opacity:1" fill="#57577d" d="M 253.5,321.5 C 263.871,330.539 274.538,339.205 285.5,347.5C 287.705,358.835 287.372,370.168 284.5,381.5C 268.833,368.833 253.167,356.167 237.5,343.5C 242.454,335.881 247.787,328.548 253.5,321.5 Z"/></g>
<g><path style="opacity:1" fill="#fab44d" d="M 446.5,314.5 C 456.833,314.5 467.167,314.5 477.5,314.5C 477.5,324.167 477.5,333.833 477.5,343.5C 476.566,342.432 476.232,341.099 476.5,339.5C 465.5,339.5 454.5,339.5 443.5,339.5C 444.182,330.989 445.182,322.655 446.5,314.5 Z"/></g>
<g><path style="opacity:1" fill="#51517d" d="M 237.5,343.5 C 253.167,356.167 268.833,368.833 284.5,381.5C 283.833,386.167 283.167,390.833 282.5,395.5C 264.252,382.255 246.586,368.255 229.5,353.5C 231.794,349.873 234.46,346.539 237.5,343.5 Z"/></g>
<g><path style="opacity:1" fill="#fab047" d="M 385.5,313.5 C 393.328,313.986 400.994,314.653 408.5,315.5C 405.551,332.912 402.218,350.246 398.5,367.5C 387.86,366.625 377.194,366.291 366.5,366.5C 372.265,348.53 378.599,330.864 385.5,313.5 Z"/></g>
<g><path style="opacity:1" fill="#faae45" d="M 443.5,339.5 C 454.5,339.5 465.5,339.5 476.5,339.5C 476.232,341.099 476.566,342.432 477.5,343.5C 477.5,352.833 477.5,362.167 477.5,371.5C 476.566,370.432 476.232,369.099 476.5,367.5C 464.5,367.5 452.5,367.5 440.5,367.5C 441.631,358.188 442.631,348.854 443.5,339.5 Z"/></g>
<g><path style="opacity:1" fill="#515075" d="M 229.5,353.5 C 246.586,368.255 264.252,382.255 282.5,395.5C 279.751,409.171 276.084,422.504 271.5,435.5C 248.016,416.26 224.349,397.26 200.5,378.5C 202.833,376.5 205.167,374.5 207.5,372.5C 215.087,367.582 221.754,361.582 227.5,354.5C 228.167,354.167 228.833,353.833 229.5,353.5 Z"/></g>
<g><path style="opacity:1" fill="#faa843" d="M 366.5,366.5 C 377.194,366.291 387.86,366.625 398.5,367.5C 397.294,374.198 395.96,380.865 394.5,387.5C 382.751,389.447 370.751,390.114 358.5,389.5C 360.774,381.678 363.44,374.012 366.5,366.5 Z"/></g>
<g><path style="opacity:1" fill="#faa844" d="M 440.5,367.5 C 452.5,367.5 464.5,367.5 476.5,367.5C 476.232,369.099 476.566,370.432 477.5,371.5C 477.5,380.5 477.5,389.5 477.5,398.5C 476.527,396.052 476.194,393.385 476.5,390.5C 463.754,390.813 451.087,390.48 438.5,389.5C 439.299,382.181 439.965,374.847 440.5,367.5 Z"/></g>
<g><path style="opacity:1" fill="#4b4b6f" d="M 200.5,378.5 C 224.349,397.26 248.016,416.26 271.5,435.5C 270.851,439.951 269.684,444.284 268,448.5C 265.649,455.191 262.815,461.524 259.5,467.5C 258.797,465.284 257.464,463.451 255.5,462C 228.354,440.681 201.687,418.847 175.5,396.5C 183.833,390.5 192.167,384.5 200.5,378.5 Z"/></g>
<g><path style="opacity:1" fill="#faa244" d="M 394.5,387.5 C 393.212,395.938 391.546,404.271 389.5,412.5C 376.5,412.5 363.5,412.5 350.5,412.5C 352.774,404.678 355.44,397.012 358.5,389.5C 370.751,390.114 382.751,389.447 394.5,387.5 Z"/></g>
<g><path style="opacity:1" fill="#faa244" d="M 438.5,389.5 C 451.087,390.48 463.754,390.813 476.5,390.5C 476.194,393.385 476.527,396.052 477.5,398.5C 477.5,407.5 477.5,416.5 477.5,425.5C 477.167,425.5 476.833,425.5 476.5,425.5C 476.5,421.5 476.5,417.5 476.5,413.5C 463.087,413.814 449.754,413.481 436.5,412.5C 436.969,404.814 437.635,397.147 438.5,389.5 Z"/></g>
<g><path style="opacity:1" fill="#696988" d="M 72.5,423.5 C 65.9931,427.586 59.6598,431.92 53.5,436.5C 47.5174,440.14 41.5174,443.806 35.5,447.5C 34.3378,429.005 34.1712,410.338 35,391.5C 46.7842,401.65 58.2842,412.15 69.5,423C 70.448,423.483 71.448,423.649 72.5,423.5 Z"/></g>
<g><path style="opacity:1" fill="#444465" d="M 151.5,414.5 C 177.322,434.264 202.655,454.764 227.5,476C 214.66,476.169 201.993,476.669 189.5,477.5C 176.167,477.5 162.833,477.5 149.5,477.5C 151.631,476.686 153.964,476.186 156.5,476C 132.543,457.045 108.876,437.712 85.5,418C 84.552,417.517 83.552,417.351 82.5,417.5C 93.8333,409.833 105.167,402.167 116.5,394.5C 122.441,391.22 128.108,387.553 133.5,383.5C 135.311,382.178 137.311,381.678 139.5,382C 140.108,383.231 140.441,384.564 140.5,386C 138.902,394.556 137.069,403.056 135,411.5C 133.908,415.797 133.575,420.131 134,424.5C 135.049,425.517 136.216,425.684 137.5,425C 142.327,421.668 146.993,418.168 151.5,414.5 Z"/></g>
<g><path style="opacity:1" fill="#4b4b69" d="M 175.5,396.5 C 201.687,418.847 228.354,440.681 255.5,462C 257.464,463.451 258.797,465.284 259.5,467.5C 256.801,473.364 252.134,476.531 245.5,477C 226.836,477.5 208.17,477.667 189.5,477.5C 201.993,476.669 214.66,476.169 227.5,476C 202.655,454.764 177.322,434.264 151.5,414.5C 159.462,408.512 167.462,402.512 175.5,396.5 Z"/></g>
<g><path style="opacity:1" fill="#fa9b44" d="M 350.5,412.5 C 363.5,412.5 376.5,412.5 389.5,412.5C 388.323,420.723 386.656,428.723 384.5,436.5C 370.677,435.504 356.677,435.171 342.5,435.5C 344.792,427.62 347.459,419.954 350.5,412.5 Z"/></g>
<g><path style="opacity:1" fill="#fa9b43" d="M 436.5,412.5 C 449.754,413.481 463.087,413.814 476.5,413.5C 476.5,417.5 476.5,421.5 476.5,425.5C 476.5,429.167 476.5,432.833 476.5,436.5C 462.167,436.5 447.833,436.5 433.5,436.5C 434.5,428.5 435.5,420.5 436.5,412.5 Z"/></g>
<g><path style="opacity:1" fill="#3e3e5d" d="M 79.5,419.5 C 102.626,438.121 125.626,456.954 148.5,476C 133.167,476.667 117.833,476.667 102.5,476C 86.1361,462.825 69.8028,449.658 53.5,436.5C 59.6598,431.92 65.9931,427.586 72.5,423.5C 74.8333,422.167 77.1667,420.833 79.5,419.5 Z"/></g>
<g><path style="opacity:1" fill="#fa9443" d="M 476.5,425.5 C 476.833,425.5 477.167,425.5 477.5,425.5C 477.667,441.17 477.5,456.837 477,472.5C 476.167,474.667 474.667,476.167 472.5,477C 460.167,477.667 447.833,477.667 435.5,477C 431.44,475.728 429.773,472.895 430.5,468.5C 431.765,457.852 432.765,447.185 433.5,436.5C 447.833,436.5 462.167,436.5 476.5,436.5C 476.5,432.833 476.5,429.167 476.5,425.5 Z"/></g>
<g><path style="opacity:1" fill="#fa9443" d="M 342.5,435.5 C 356.677,435.171 370.677,435.504 384.5,436.5C 382.579,449.273 380.079,461.94 377,474.5C 376.097,475.701 374.931,476.535 373.5,477C 360.833,477.667 348.167,477.667 335.5,477C 330.782,475.551 329.282,472.385 331,467.5C 334.371,456.545 338.204,445.878 342.5,435.5 Z"/></g>
<g><path style="opacity:1" fill="#3f3f59" d="M 82.5,417.5 C 83.552,417.351 84.552,417.517 85.5,418C 108.876,437.712 132.543,457.045 156.5,476C 153.964,476.186 151.631,476.686 149.5,477.5C 110.833,477.5 72.1667,477.5 33.5,477.5C 33.5,467.833 33.5,458.167 33.5,448.5C 34.4916,448.672 35.1583,448.338 35.5,447.5C 41.5174,443.806 47.5174,440.14 53.5,436.5C 69.8028,449.658 86.1361,462.825 102.5,476C 117.833,476.667 133.167,476.667 148.5,476C 125.626,456.954 102.626,438.121 79.5,419.5C 80.2905,418.599 81.2905,417.932 82.5,417.5 Z"/></g>
</svg>
