<?xml version="1.0" encoding="UTF-8"?>
<!DOCTYPE svg PUBLIC "-//W3C//DTD SVG 1.1//EN" "http://www.w3.org/Graphics/SVG/1.1/DTD/svg11.dtd">
<svg xmlns="http://www.w3.org/2000/svg" version="1.1" width="512px" height="512px" style="shape-rendering:geometricPrecision; text-rendering:geometricPrecision; image-rendering:optimizeQuality; fill-rule:evenodd; clip-rule:evenodd" xmlns:xlink="http://www.w3.org/1999/xlink">
<g><path style="opacity:1" fill="#39384c" d="M 222.5,36.5 C 224.989,36.2978 227.323,36.7978 229.5,38C 266.773,62.4703 306.44,82.4703 348.5,98C 361.06,102.779 373.726,107.279 386.5,111.5C 397.427,102.077 407.094,91.5765 415.5,80C 421.813,77.8277 424.813,79.9944 424.5,86.5C 421.586,138.896 413.92,190.562 401.5,241.5C 402,241.833 402.5,242.167 403,242.5C 413.943,238.777 424.443,234.111 434.5,228.5C 439.9,208.401 444.9,188.235 449.5,168C 451.833,167.333 454.167,167.333 456.5,168C 466.366,193.294 472.199,219.461 474,246.5C 425.289,282.369 381.122,323.369 341.5,369.5C 339.232,370.544 336.899,370.711 334.5,370C 314.229,352.065 295.729,332.565 279,311.5C 277.964,309.13 277.464,306.63 277.5,304C 278.874,290.816 278.708,277.649 277,264.5C 274.303,255.61 271.47,246.777 268.5,238C 268.354,235.966 269.02,234.299 270.5,233C 274.045,232.429 277.378,233.096 280.5,235C 292.097,240.603 302.597,247.77 312,256.5C 315.333,253.833 318.667,251.167 322,248.5C 322.766,226.49 320.432,204.823 315,183.5C 299.287,172.227 282.121,164.06 263.5,159C 230.222,194.206 205.889,234.873 190.5,281C 179.113,283.31 167.78,285.81 156.5,288.5C 151.923,287.079 150.423,284.079 152,279.5C 168.633,267.24 175.633,250.907 173,230.5C 122.839,258.159 114.839,295.159 149,341.5C 158.907,353.409 170.074,363.909 182.5,373C 201.54,370.487 219.54,364.654 236.5,355.5C 237.931,355.977 239.264,356.643 240.5,357.5C 250.351,369.518 261.351,380.351 273.5,390C 288.604,390.205 303.271,387.705 317.5,382.5C 322.025,384.214 323.192,387.214 321,391.5C 302.974,409.93 281.14,420.43 255.5,423C 250.784,415.284 244.45,409.284 236.5,405C 226.313,401.765 216.646,403.098 207.5,409C 202.546,412.285 197.88,415.952 193.5,420C 215.121,428.089 237.455,431.422 260.5,430C 271.208,428.994 281.874,427.994 292.5,427C 301.657,431.412 310.657,436.078 319.5,441C 326.167,441.333 332.833,441.667 339.5,442C 342.966,444.661 343.299,447.661 340.5,451C 318.307,451.503 296.307,453.836 274.5,458C 256.644,462.953 238.644,467.286 220.5,471C 204.91,473.376 189.244,474.376 173.5,474C 162.178,462.825 151.678,450.991 142,438.5C 135.96,431.896 128.46,428.063 119.5,427C 104.648,427.012 90.3146,424.345 76.5,419C 57.3784,408.916 49.8784,393.083 54,371.5C 56.3911,359.72 60.7245,348.72 67,338.5C 70.2686,328.745 71.2686,318.745 70,308.5C 68.7256,302.142 67.7256,295.809 67,289.5C 107.197,236.948 143.864,181.948 177,124.5C 182.558,114.552 187.724,104.385 192.5,94C 189.533,90.3486 185.866,89.6819 181.5,92C 164.334,102.16 156.501,117.327 158,137.5C 155.847,139.444 153.347,139.944 150.5,139C 145.667,132.833 140.167,127.333 134,122.5C 134.036,110.104 135.036,97.7712 137,85.5C 162.465,63.8678 190.965,47.5345 222.5,36.5 Z M 92.5,361.5 C 97.971,371.768 103.971,381.768 110.5,391.5C 103.219,391.682 96.7193,389.348 91,384.5C 89.8694,382.275 89.0361,379.942 88.5,377.5C 89.6355,372.098 90.9688,366.765 92.5,361.5 Z"/></g>
<g><path style="opacity:1" fill="#b388c7" d="M 227.5,49.5 C 227.12,76.8708 234.953,101.871 251,124.5C 258.685,134.014 266.852,143.014 275.5,151.5C 270.54,149.842 265.54,148.675 260.5,148C 253.937,154.395 247.603,160.895 241.5,167.5C 238.996,162.482 235.496,158.149 231,154.5C 218.252,138.339 208.085,120.672 200.5,101.5C 201.64,99.2198 202.807,96.8864 204,94.5C 204.667,93.1667 204.667,91.8333 204,90.5C 201.271,87.6007 198.438,84.934 195.5,82.5C 194.56,75.8563 193.726,69.1896 193,62.5C 192.329,61.7476 191.496,61.4142 190.5,61.5C 200.794,55.1905 211.794,50.1905 223.5,46.5C 225.261,47.0351 226.594,48.0351 227.5,49.5 Z"/></g>
<g><path style="opacity:1" fill="#ae82c7" d="M 227.5,49.5 C 231.025,50.7589 234.025,52.7589 236.5,55.5C 241.537,106.02 267.203,141.52 313.5,162C 344.627,173.494 375.627,173.327 406.5,161.5C 406.384,164.86 406.051,168.193 405.5,171.5C 390.856,177.499 375.523,180.499 359.5,180.5C 346.965,180.219 334.632,178.552 322.5,175.5C 307.586,166.209 291.92,158.209 275.5,151.5C 266.852,143.014 258.685,134.014 251,124.5C 234.953,101.871 227.12,76.8708 227.5,49.5 Z"/></g>
<g><path style="opacity:1" fill="#ae82c0" d="M 236.5,55.5 C 241.5,57.6643 246.167,60.331 250.5,63.5C 256.563,99.8186 275.563,126.985 307.5,145C 336.997,159.328 367.33,161.328 398.5,151C 401.855,149.882 405.022,148.382 408,146.5C 408.399,146.728 408.565,147.062 408.5,147.5C 408.265,152.241 407.598,156.908 406.5,161.5C 375.627,173.327 344.627,173.494 313.5,162C 267.203,141.52 241.537,106.02 236.5,55.5 Z"/></g>
<g><path style="opacity:1" fill="#a782c0" d="M 250.5,63.5 C 261.343,69.422 272.343,75.0886 283.5,80.5C 283.196,81.1499 282.863,81.8165 282.5,82.5C 301.421,117.967 331.087,134.134 371.5,131C 386.044,128.64 399.211,123.14 411,114.5C 411.494,116.134 411.66,117.801 411.5,119.5C 411.156,129.048 410.156,138.381 408.5,147.5C 408.565,147.062 408.399,146.728 408,146.5C 405.022,148.382 401.855,149.882 398.5,151C 367.33,161.328 336.997,159.328 307.5,145C 275.563,126.985 256.563,99.8186 250.5,63.5 Z"/></g>
<g><path style="opacity:1" fill="#bc8bc9" d="M 190.5,61.5 C 191.496,61.4142 192.329,61.7476 193,62.5C 193.726,69.1896 194.56,75.8563 195.5,82.5C 191.289,80.9222 186.956,80.4222 182.5,81C 163.384,88.3895 152.218,102.223 149,122.5C 147.333,120.833 145.667,119.167 144,117.5C 143.837,108.792 144.504,100.126 146,91.5C 159.941,80.1175 174.774,70.1175 190.5,61.5 Z"/></g>
<g><path style="opacity:1" fill="#a081bf" d="M 283.5,80.5 C 286.696,81.9287 289.696,83.5954 292.5,85.5C 304.216,106.882 322.216,119.715 346.5,124C 357.222,125.929 367.889,125.595 378.5,123C 380.32,122.8 381.653,121.966 382.5,120.5C 385.001,121.946 387.667,122.446 390.5,122C 398.365,114.47 405.865,106.636 413,98.5C 413.539,105.707 413.039,112.707 411.5,119.5C 411.66,117.801 411.494,116.134 411,114.5C 399.211,123.14 386.044,128.64 371.5,131C 331.087,134.134 301.421,117.967 282.5,82.5C 282.863,81.8165 283.196,81.1499 283.5,80.5 Z"/></g>
<g><path style="opacity:1" fill="#a17cc0" d="M 292.5,85.5 C 295.833,86.8333 299.167,88.1667 302.5,89.5C 309.256,100.91 318.922,109.077 331.5,114C 345.423,119.33 359.756,120.83 374.5,118.5C 377.221,118.963 379.888,119.629 382.5,120.5C 381.653,121.966 380.32,122.8 378.5,123C 367.889,125.595 357.222,125.929 346.5,124C 322.216,119.715 304.216,106.882 292.5,85.5 Z"/></g>
<g><path style="opacity:1" fill="#a07cb9" d="M 302.5,89.5 C 326.251,99.9682 350.251,109.635 374.5,118.5C 359.756,120.83 345.423,119.33 331.5,114C 318.922,109.077 309.256,100.91 302.5,89.5 Z"/></g>
<g><path style="opacity:1" fill="#38384b" d="M 443.5,120.5 C 462.26,120.377 468.427,129.044 462,146.5C 452.346,156.123 443.012,155.79 434,145.5C 429.435,134.075 432.601,125.741 443.5,120.5 Z"/></g>
<g><path style="opacity:1" fill="#be8ccb" d="M 200.5,101.5 C 208.085,120.672 218.252,138.339 231,154.5C 235.496,158.149 238.996,162.482 241.5,167.5C 230.997,181.186 220.997,195.186 211.5,209.5C 195.091,193.957 181.091,176.624 169.5,157.5C 180.329,139.182 190.662,120.516 200.5,101.5 Z"/></g>
<g><path style="opacity:1" fill="#a97fc0" d="M 444.5,130.5 C 450.183,129.169 453.849,131.169 455.5,136.5C 453.205,144.014 449.039,145.348 443,140.5C 440.925,136.794 441.425,133.461 444.5,130.5 Z"/></g>
<g><path style="opacity:1" fill="#c78ece" d="M 169.5,157.5 C 181.091,176.624 195.091,193.957 211.5,209.5C 208.337,216.496 204.671,223.162 200.5,229.5C 191.916,220.745 183.416,211.745 175,202.5C 168.532,194.545 162.699,186.212 157.5,177.5C 161,170.494 165,163.827 169.5,157.5 Z"/></g>
<g><path style="opacity:1" fill="#38384b" d="M 131.5,159.5 C 136.824,160.33 138.658,163.33 137,168.5C 114.702,205.918 88.8686,240.751 59.5,273C 56.9699,274.422 54.3033,274.755 51.5,274C 39.9133,256.905 35.08,238.072 37,217.5C 37.7246,215.051 38.7246,212.717 40,210.5C 46.2217,204.644 52.7217,199.144 59.5,194C 61.8333,193.333 64.1667,193.333 66.5,194C 68.1208,198.624 71.2875,201.457 76,202.5C 79.6618,201.42 83.1618,199.92 86.5,198C 101.986,185.676 116.986,172.843 131.5,159.5 Z"/></g>
<g><path style="opacity:1" fill="#c996d3" d="M 157.5,177.5 C 162.699,186.212 168.532,194.545 175,202.5C 183.416,211.745 191.916,220.745 200.5,229.5C 193.997,243.336 188.664,257.67 184.5,272.5C 181.154,273.036 177.82,273.703 174.5,274.5C 173.833,274.167 173.167,273.833 172.5,273.5C 183.906,256.041 186.573,237.541 180.5,218C 175.796,217.837 171.463,219.17 167.5,222C 158.07,227.606 149.07,233.773 140.5,240.5C 136.311,237.134 132.811,233.134 130,228.5C 128.871,226.859 127.371,225.859 125.5,225.5C 135.808,209.205 146.474,193.205 157.5,177.5 Z"/></g>
<g><path style="opacity:1" fill="#b388c7" d="M 405.5,171.5 C 403.379,185.386 400.712,199.052 397.5,212.5C 397.38,211.414 396.713,210.747 395.5,210.5C 373.955,214.967 352.288,215.634 330.5,212.5C 330.003,199.651 327.336,187.318 322.5,175.5C 334.632,178.552 346.965,180.219 359.5,180.5C 375.523,180.499 390.856,177.499 405.5,171.5 Z"/></g>
<g><path style="opacity:1" fill="#d7adde" d="M 59.5,207.5 C 64.6485,217.797 70.3151,227.797 76.5,237.5C 70.2515,245.922 63.4181,253.922 56,261.5C 50.0236,250.268 46.5236,238.268 45.5,225.5C 45.2952,222.205 46.1285,219.205 48,216.5C 51.7088,213.285 55.5421,210.285 59.5,207.5 Z"/></g>
<g><path style="opacity:1" fill="#d1a3d8" d="M 76.5,237.5 C 70.3151,227.797 64.6485,217.797 59.5,207.5C 59.811,206.522 60.4777,205.855 61.5,205.5C 69.2152,213.381 77.8818,214.548 87.5,209C 94.9516,203.883 102.118,198.383 109,192.5C 99.6307,208.398 88.7973,223.398 76.5,237.5 Z"/></g>
<g><path style="opacity:1" fill="#bd8ccb" d="M 462.5,242.5 C 462.44,241.957 462.107,241.624 461.5,241.5C 416.953,264.293 369.953,271.626 320.5,263.5C 323.499,259.668 326.999,256.335 331,253.5C 331.74,239.812 331.573,226.145 330.5,212.5C 352.288,215.634 373.955,214.967 395.5,210.5C 396.713,210.747 397.38,211.414 397.5,212.5C 395.63,223.978 393.13,235.311 390,246.5C 389.333,248.833 389.333,251.167 390,253.5C 390.804,254.804 391.971,255.471 393.5,255.5C 410.815,251.174 427.148,244.508 442.5,235.5C 446.629,221.275 450.462,206.942 454,192.5C 459.381,208.465 462.715,224.798 464,241.5C 463.617,242.056 463.117,242.389 462.5,242.5 Z"/></g>
<g><path style="opacity:1" fill="#38384b" d="M 251.5,213.5 C 258.091,214.682 259.925,218.349 257,224.5C 248.142,227.643 245.142,224.643 248,215.5C 249.302,214.915 250.469,214.249 251.5,213.5 Z"/></g>
<g><path style="opacity:1" fill="#c78ecd" d="M 462.5,242.5 C 449.167,253.167 435.833,263.833 422.5,274.5C 422.44,273.957 422.107,273.624 421.5,273.5C 391.277,281.483 360.61,283.65 329.5,280C 315.651,277.954 301.985,275.12 288.5,271.5C 287.418,263.346 285.584,255.346 283,247.5C 292.97,253.237 302.137,260.071 310.5,268C 311.833,268.667 313.167,268.667 314.5,268C 316.114,265.873 318.114,264.373 320.5,263.5C 369.953,271.626 416.953,264.293 461.5,241.5C 462.107,241.624 462.44,241.957 462.5,242.5 Z"/></g>
<g><path style="opacity:1" fill="#d4a4db" d="M 125.5,225.5 C 127.371,225.859 128.871,226.859 130,228.5C 132.811,233.134 136.311,237.134 140.5,240.5C 127.271,252.959 119.938,268.293 118.5,286.5C 114.933,284.443 111.766,281.777 109,278.5C 106.705,275.203 104.038,272.203 101,269.5C 99.9055,267.922 99.0722,266.255 98.5,264.5C 107.117,251.219 116.117,238.219 125.5,225.5 Z"/></g>
<g><path style="opacity:1" fill="#d8addf" d="M 98.5,264.5 C 99.0722,266.255 99.9055,267.922 101,269.5C 104.038,272.203 106.705,275.203 109,278.5C 111.766,281.777 114.933,284.443 118.5,286.5C 117.484,298.439 119.651,309.772 125,320.5C 127.937,326.712 131.104,332.712 134.5,338.5C 114.945,323.615 96.9448,306.949 80.5,288.5C 86.1467,280.193 92.1467,272.193 98.5,264.5 Z"/></g>
<g><path style="opacity:1" fill="#c78ed3" d="M 288.5,271.5 C 301.985,275.12 315.651,277.954 329.5,280C 360.61,283.65 391.277,281.483 421.5,273.5C 422.107,273.624 422.44,273.957 422.5,274.5C 419.729,277.392 416.729,280.058 413.5,282.5C 371.394,291.574 329.727,289.908 288.5,277.5C 288.5,275.5 288.5,273.5 288.5,271.5 Z"/></g>
<g><path style="opacity:1" fill="#deb3df" d="M 80.5,288.5 C 96.9448,306.949 114.945,323.615 134.5,338.5C 140.423,346.268 146.59,353.934 153,361.5C 160.105,368.449 167.605,374.783 175.5,380.5C 169.619,378.226 163.952,375.393 158.5,372C 130.084,353.938 104.084,332.771 80.5,308.5C 79.757,303.785 78.757,299.119 77.5,294.5C 77.4672,291.898 78.4672,289.898 80.5,288.5 Z"/></g>
<g><path style="opacity:1" fill="#cb95d3" d="M 288.5,277.5 C 329.727,289.908 371.394,291.574 413.5,282.5C 401.193,293.805 388.859,305.138 376.5,316.5C 355.227,316.836 333.894,315.336 312.5,312C 304.835,310.709 297.335,308.875 290,306.5C 289.617,307.056 289.117,307.389 288.5,307.5C 288.158,297.587 288.158,287.587 288.5,277.5 Z"/></g>
<g><path style="opacity:1" fill="#39384c" d="M 179.5,298.5 C 190.037,296.914 198.537,300.248 205,308.5C 209.981,320.292 214.814,332.125 219.5,344C 218.606,348.568 215.939,350.235 211.5,349C 206.659,346.079 201.659,343.412 196.5,341C 190.521,341.33 184.521,341.33 178.5,341C 166.063,335.291 161.229,325.791 164,312.5C 167.049,305.407 172.215,300.74 179.5,298.5 Z"/></g>
<g><path style="opacity:1" fill="#e0b4e5" d="M 80.5,308.5 C 104.084,332.771 130.084,353.938 158.5,372C 163.952,375.393 169.619,378.226 175.5,380.5C 177.638,381.975 179.971,382.975 182.5,383.5C 188.423,381.982 194.423,380.982 200.5,380.5C 210.135,384.314 219.802,388.147 229.5,392C 226.964,392.186 224.631,392.686 222.5,393.5C 218.681,393.605 215.014,394.438 211.5,396C 205.954,398.604 200.621,401.437 195.5,404.5C 152.479,384.144 114.146,357.144 80.5,323.5C 80.5,318.5 80.5,313.5 80.5,308.5 Z"/></g>
<g><path style="opacity:1" fill="#d1a5d8" d="M 180.5,308.5 C 187.258,307.251 192.758,309.251 197,314.5C 199.402,320.541 201.902,326.541 204.5,332.5C 204.167,332.833 203.833,333.167 203.5,333.5C 200.054,331.722 196.388,330.722 192.5,330.5C 179.872,334.013 173.372,329.346 173,316.5C 174.69,312.979 177.19,310.312 180.5,308.5 Z"/></g>
<g><path style="opacity:1" fill="#e0bae6" d="M 80.5,323.5 C 114.146,357.144 152.479,384.144 195.5,404.5C 190.229,409.269 185.062,414.269 180,419.5C 179.517,420.448 179.351,421.448 179.5,422.5C 160.913,413.875 143.247,403.709 126.5,392C 125.563,391.308 124.897,391.475 124.5,392.5C 113.159,379.178 104.326,364.178 98,347.5C 95,343.5 92,343.5 89,347.5C 85.1737,354.152 82.1737,361.152 80,368.5C 79.3466,374.862 79.5133,381.195 80.5,387.5C 75.0993,382.759 69.4326,378.426 63.5,374.5C 64.0359,369.69 65.2025,365.023 67,360.5C 74.3466,349.152 78.8466,336.819 80.5,323.5 Z"/></g>
<g><path style="opacity:1" fill="#cd9cd6" d="M 376.5,316.5 C 362.759,329.904 349.759,343.904 337.5,358.5C 319.407,343.076 303.074,326.076 288.5,307.5C 289.117,307.389 289.617,307.056 290,306.5C 297.335,308.875 304.835,310.709 312.5,312C 333.894,315.336 355.227,316.836 376.5,316.5 Z"/></g>
<g><path style="opacity:1" fill="#3a3a4d" d="M 124.5,392.5 C 126.461,394.292 127.795,396.458 128.5,399C 128.485,401.842 127.152,403.675 124.5,404.5C 114.616,404.019 104.95,402.353 95.5,399.5C 89.5482,396.691 84.5482,392.691 80.5,387.5C 79.5133,381.195 79.3466,374.862 80,368.5C 82.1737,361.152 85.1737,354.152 89,347.5C 92,343.5 95,343.5 98,347.5C 104.326,364.178 113.159,379.178 124.5,392.5 Z M 92.5,361.5 C 90.9688,366.765 89.6355,372.098 88.5,377.5C 89.0361,379.942 89.8694,382.275 91,384.5C 96.7193,389.348 103.219,391.682 110.5,391.5C 103.971,381.768 97.971,371.768 92.5,361.5 Z"/></g>
<g><path style="opacity:1" fill="#d6addd" d="M 222.5,393.5 C 224.631,392.686 226.964,392.186 229.5,392C 219.802,388.147 210.135,384.314 200.5,380.5C 212.162,376.886 223.662,372.553 235,367.5C 245.499,378.664 256.665,389.164 268.5,399C 270.87,400.036 273.37,400.536 276,400.5C 282.829,399.541 289.662,399.041 296.5,399C 285.463,405.292 273.796,410.125 261.5,413.5C 254.981,404.149 246.314,397.649 235.5,394C 231.179,393.501 226.846,393.334 222.5,393.5 Z"/></g>
<g><path style="opacity:1" fill="#e5c6ea" d="M 63.5,374.5 C 69.4326,378.426 75.0993,382.759 80.5,387.5C 84.5482,392.691 89.5482,396.691 95.5,399.5C 103.345,404.923 111.011,410.589 118.5,416.5C 101.741,417.977 86.4073,414.144 72.5,405C 64.3797,396.462 61.3797,386.295 63.5,374.5 Z"/></g>
<g><path style="opacity:1" fill="#39384c" d="M 420.5,377.5 C 429.506,377.334 438.506,377.5 447.5,378C 449.444,380.153 449.944,382.653 449,385.5C 433.067,393.433 422.067,405.766 416,422.5C 410.637,429.29 403.637,431.957 395,430.5C 383.944,430.922 373.444,428.755 363.5,424C 354.073,415.789 352.073,406.123 357.5,395C 366.883,394.853 376.217,394.187 385.5,393C 388.446,392.194 391.112,390.861 393.5,389C 395.5,385.667 397.5,382.333 399.5,379C 406.679,378.829 413.679,378.329 420.5,377.5 Z"/></g>
<g><path style="opacity:1" fill="#9a7ea5" d="M 405.5,388.5 C 412.655,387.345 419.988,387.178 427.5,388C 426.956,388.717 426.289,389.217 425.5,389.5C 419.021,388.509 412.354,388.176 405.5,388.5 Z"/></g>
<g><path style="opacity:1" fill="#d8aedf" d="M 405.5,388.5 C 412.354,388.176 419.021,388.509 425.5,389.5C 417.673,397.142 411.839,406.142 408,416.5C 406.786,418.049 405.286,419.215 403.5,420C 392.577,421.354 381.91,420.354 371.5,417C 366.173,414.513 363.84,410.347 364.5,404.5C 377.132,406.228 388.799,403.728 399.5,397C 401.879,394.401 403.879,391.567 405.5,388.5 Z"/></g>
<g><path style="opacity:1" fill="#e5c0e6" d="M 179.5,422.5 C 182.93,425.726 186.93,428.226 191.5,430C 199.516,432.841 207.516,435.341 215.5,437.5C 229.301,442.767 243.301,447.434 257.5,451.5C 249.88,453.66 242.214,455.993 234.5,458.5C 234.611,457.883 234.944,457.383 235.5,457C 195.772,444.798 158.772,427.298 124.5,404.5C 127.152,403.675 128.485,401.842 128.5,399C 127.795,396.458 126.461,394.292 124.5,392.5C 124.897,391.475 125.563,391.308 126.5,392C 143.247,403.709 160.913,413.875 179.5,422.5 Z"/></g>
<g><path style="opacity:1" fill="#e5c0eb" d="M 95.5,399.5 C 104.95,402.353 114.616,404.019 124.5,404.5C 158.772,427.298 195.772,444.798 235.5,457C 234.944,457.383 234.611,457.883 234.5,458.5C 226.178,459.915 217.845,461.248 209.5,462.5C 208.942,461.21 207.942,460.377 206.5,460C 188.796,453.313 171.462,445.813 154.5,437.5C 145.439,425.435 133.439,418.435 118.5,416.5C 111.011,410.589 103.345,404.923 95.5,399.5 Z"/></g>
<g><path style="opacity:1" fill="#e4c5ea" d="M 154.5,437.5 C 171.462,445.813 188.796,453.313 206.5,460C 207.942,460.377 208.942,461.21 209.5,462.5C 198.846,463.523 188.179,464.023 177.5,464C 171.301,458.136 165.468,451.969 160,445.5C 157.92,442.935 156.087,440.268 154.5,437.5 Z"/></g>
<g><path style="opacity:1" fill="#ddb8e3" d="M 257.5,451.5 C 243.301,447.434 229.301,442.767 215.5,437.5C 227.461,438.896 239.461,439.896 251.5,440.5C 264.248,439.549 276.914,438.383 289.5,437C 293.5,439 297.5,441 301.5,443C 286.759,445.515 272.092,448.348 257.5,451.5 Z"/></g>
</svg>
