<?xml version="1.0" encoding="UTF-8"?>
<!DOCTYPE svg PUBLIC "-//W3C//DTD SVG 1.1//EN" "http://www.w3.org/Graphics/SVG/1.1/DTD/svg11.dtd">
<svg xmlns="http://www.w3.org/2000/svg" version="1.1" width="512px" height="512px" style="shape-rendering:geometricPrecision; text-rendering:geometricPrecision; image-rendering:optimizeQuality; fill-rule:evenodd; clip-rule:evenodd" xmlns:xlink="http://www.w3.org/1999/xlink">
<g><path style="opacity:1" fill="#3a394b" d="M 187.5,40.5 C 190.561,40.4443 192.728,41.7776 194,44.5C 194.923,48.7901 195.423,53.1234 195.5,57.5C 206.097,55.7006 216.764,54.3673 227.5,53.5C 236.499,53.7496 245.165,55.5829 253.5,59C 267.473,66.487 281.806,73.1537 296.5,79C 301.038,80.5408 305.704,81.3742 310.5,81.5C 318.574,81.1294 326.574,80.296 334.5,79C 341.968,71.1934 350.301,64.5267 359.5,59C 362.347,58.0561 364.847,58.5561 367,60.5C 367.206,63.6229 367.873,66.6229 369,69.5C 376.088,67.5396 382.588,64.3729 388.5,60C 391.308,59.0799 393.475,59.9133 395,62.5C 397.075,69.0942 396.908,75.5942 394.5,82C 396.996,83.0804 399.33,84.4138 401.5,86C 417.721,100.887 433.221,116.387 448,132.5C 448.667,134.167 448.667,135.833 448,137.5C 438.177,175.791 428.511,214.124 419,252.5C 417.542,254.96 415.709,257.127 413.5,259C 387.467,279.354 361.8,300.188 336.5,321.5C 325.729,365.086 314.729,408.586 303.5,452C 301.167,452.667 298.833,452.667 296.5,452C 284.875,433.918 273.375,415.751 262,397.5C 259.581,382.396 256.748,367.396 253.5,352.5C 247.575,347.953 241.742,343.287 236,338.5C 235.667,348.833 235.333,359.167 235,369.5C 232.293,371.886 229.46,372.052 226.5,370C 194.299,340.131 161.799,310.631 129,281.5C 127.397,272.612 126.397,263.612 126,254.5C 112.5,243 99,231.5 85.5,220C 83.6217,218.457 82.1217,216.624 81,214.5C 79.5309,200.142 77.8642,185.808 76,171.5C 67.9481,148.545 64.4481,124.879 65.5,100.5C 65.3906,95.7222 65.8906,91.0555 67,86.5C 73.893,83.3154 81.0597,80.8154 88.5,79C 104.14,75.0065 119.807,71.1731 135.5,67.5C 141.118,57.2511 148.784,48.9178 158.5,42.5C 160.059,43.0736 161.559,43.7402 163,44.5C 163.988,47.4245 164.654,50.4245 165,53.5C 172.023,48.2418 179.523,43.9085 187.5,40.5 Z"/></g>
<g><path style="opacity:1" fill="#d2df7c" d="M 408.5,107.5 C 367.003,108.499 325.337,108.832 283.5,108.5C 282.143,107.315 280.643,106.315 279,105.5C 276.105,106.409 273.272,107.409 270.5,108.5C 241.167,108.5 211.833,108.5 182.5,108.5C 179.258,104.673 175.925,104.673 172.5,108.5C 144.833,108.5 117.167,108.5 89.5,108.5C 84.6175,103.618 80.9508,97.9513 78.5,91.5C 95.0743,87.1899 111.741,83.1899 128.5,79.5C 130.688,79.3073 132.355,80.1406 133.5,82C 134.833,82.6667 136.167,82.6667 137.5,82C 142.724,73.7204 148.558,65.8871 155,58.5C 155.822,60.7885 156.489,63.1218 157,65.5C 157.956,66.8941 159.289,67.5607 161,67.5C 168.769,62.274 176.769,57.274 185,52.5C 185.309,59.231 183.809,65.5643 180.5,71.5C 181.437,75.2831 183.771,76.7831 187.5,76C 189.417,73.5015 191.084,70.8349 192.5,68C 205.998,64.7706 219.665,63.4373 233.5,64C 238.005,64.2625 242.339,65.2625 246.5,67C 264.465,76.6492 283.131,84.6492 302.5,91C 314.533,91.1647 326.533,90.4981 338.5,89C 344.824,83.0687 351.324,77.2354 358,71.5C 357.404,76.1118 359.238,79.1118 363.5,80.5C 371.14,79.0908 378.473,76.7575 385.5,73.5C 385.833,74 386.167,74.5 386.5,75C 384.602,79.0078 383.768,83.1745 384,87.5C 393.784,92.1113 401.951,98.7779 408.5,107.5 Z"/></g>
<g><path style="opacity:1" fill="#3b3b4c" d="M 182.5,108.5 C 182.789,114.591 182.455,120.591 181.5,126.5C 180.301,130.258 178.801,133.925 177,137.5C 172.958,143.167 169.791,142.834 167.5,136.5C 168.997,132.838 170.497,129.172 172,125.5C 172.667,124.167 172.667,122.833 172,121.5C 164.33,127.837 155.664,130.504 146,129.5C 145.167,127.5 144.333,125.5 143.5,123.5C 140.534,126.091 138.034,129.091 136,132.5C 130.757,135.469 127.924,133.803 127.5,127.5C 131.974,120.86 137.641,115.36 144.5,111C 146.92,110.313 149.087,110.813 151,112.5C 152.079,115.063 152.579,117.729 152.5,120.5C 160.458,118.526 167.124,114.526 172.5,108.5C 175.925,104.673 179.258,104.673 182.5,108.5 Z"/></g>
<g><path style="opacity:1" fill="#3c3c4c" d="M 283.5,108.5 C 283.921,112.2 284.588,115.867 285.5,119.5C 289.968,116.863 294.302,114.03 298.5,111C 302.615,110.429 305.115,112.263 306,116.5C 306.498,119.482 306.665,122.482 306.5,125.5C 310.027,125.496 313.527,125.163 317,124.5C 319.178,124.395 321.012,125.061 322.5,126.5C 322.753,128.827 322.086,130.827 320.5,132.5C 313.361,135.761 306.028,136.261 298.5,134C 294.921,131.354 294.588,128.354 297.5,125C 297.167,124.5 296.833,124 296.5,123.5C 289.838,128.341 282.505,131.174 274.5,132C 273.57,130.806 272.903,129.473 272.5,128C 274.58,124.643 275.247,121.143 274.5,117.5C 266.16,121.346 259.16,126.846 253.5,134C 248.178,134.493 246.178,131.993 247.5,126.5C 253.996,119.004 261.662,113.004 270.5,108.5C 273.272,107.409 276.105,106.409 279,105.5C 280.643,106.315 282.143,107.315 283.5,108.5 Z"/></g>
<g><path style="opacity:1" fill="#cdd87c" d="M 408.5,107.5 C 415.798,113.131 422.465,119.464 428.5,126.5C 400.833,126.5 373.167,126.5 345.5,126.5C 345.511,122.511 343.511,120.511 339.5,120.5C 335.674,120.662 334.007,122.662 334.5,126.5C 330.5,126.5 326.5,126.5 322.5,126.5C 321.012,125.061 319.178,124.395 317,124.5C 313.527,125.163 310.027,125.496 306.5,125.5C 306.665,122.482 306.498,119.482 306,116.5C 305.115,112.263 302.615,110.429 298.5,111C 294.302,114.03 289.968,116.863 285.5,119.5C 284.588,115.867 283.921,112.2 283.5,108.5C 325.337,108.832 367.003,108.499 408.5,107.5 Z"/></g>
<g><path style="opacity:1" fill="#ad636f" d="M 117.5,165.5 C 106.833,165.5 96.1667,165.5 85.5,165.5C 77.6882,146.707 74.5216,127.041 76,106.5C 89.843,126.196 103.676,145.862 117.5,165.5 Z"/></g>
<g><path style="opacity:1" fill="#ccd87c" d="M 89.5,108.5 C 117.167,108.5 144.833,108.5 172.5,108.5C 167.124,114.526 160.458,118.526 152.5,120.5C 152.579,117.729 152.079,115.063 151,112.5C 149.087,110.813 146.92,110.313 144.5,111C 137.641,115.36 131.974,120.86 127.5,127.5C 119.167,126.167 110.833,126.167 102.5,127.5C 97.7833,121.446 93.45,115.113 89.5,108.5 Z"/></g>
<g><path style="opacity:1" fill="#cdd97c" d="M 182.5,108.5 C 211.833,108.5 241.167,108.5 270.5,108.5C 261.662,113.004 253.996,119.004 247.5,126.5C 225.5,126.5 203.5,126.5 181.5,126.5C 182.455,120.591 182.789,114.591 182.5,108.5 Z"/></g>
<g><path style="opacity:1" fill="#3f3e4d" d="M 345.5,126.5 C 341.736,133.034 338.069,133.034 334.5,126.5C 334.007,122.662 335.674,120.662 339.5,120.5C 343.511,120.511 345.511,122.511 345.5,126.5 Z"/></g>
<g><path style="opacity:1" fill="#ccd975" d="M 322.5,126.5 C 326.5,126.5 330.5,126.5 334.5,126.5C 338.069,133.034 341.736,133.034 345.5,126.5C 373.167,126.5 400.833,126.5 428.5,126.5C 430.63,128.127 432.63,129.96 434.5,132C 411.946,141.187 389.28,150.187 366.5,159C 364.787,162.676 363.454,166.509 362.5,170.5C 360.37,169.533 358.37,168.366 356.5,167C 354.5,166.333 352.5,166.333 350.5,167C 344.637,170.764 338.637,174.264 332.5,177.5C 306.167,176.167 279.833,176.167 253.5,177.5C 246.387,173.56 239.387,169.393 232.5,165C 197.495,164.833 162.495,164.333 127.5,163.5C 119.141,151.482 110.808,139.482 102.5,127.5C 110.833,126.167 119.167,126.167 127.5,127.5C 127.924,133.803 130.757,135.469 136,132.5C 138.034,129.091 140.534,126.091 143.5,123.5C 144.333,125.5 145.167,127.5 146,129.5C 155.664,130.504 164.33,127.837 172,121.5C 172.667,122.833 172.667,124.167 172,125.5C 170.497,129.172 168.997,132.838 167.5,136.5C 169.791,142.834 172.958,143.167 177,137.5C 178.801,133.925 180.301,130.258 181.5,126.5C 203.5,126.5 225.5,126.5 247.5,126.5C 246.178,131.993 248.178,134.493 253.5,134C 259.16,126.846 266.16,121.346 274.5,117.5C 275.247,121.143 274.58,124.643 272.5,128C 272.903,129.473 273.57,130.806 274.5,132C 282.505,131.174 289.838,128.341 296.5,123.5C 296.833,124 297.167,124.5 297.5,125C 294.588,128.354 294.921,131.354 298.5,134C 306.028,136.261 313.361,135.761 320.5,132.5C 322.086,130.827 322.753,128.827 322.5,126.5 Z"/></g>
<g><path style="opacity:1" fill="#ac636f" d="M 429.5,167.5 C 412.198,165.514 394.532,164.847 376.5,165.5C 396.21,157.424 416.044,149.424 436,141.5C 434.451,150.362 432.285,159.028 429.5,167.5 Z"/></g>
<g><path style="opacity:1" fill="#ae696f" d="M 85.5,165.5 C 96.1667,165.5 106.833,165.5 117.5,165.5C 118.836,167.01 120.003,168.677 121,170.5C 122.107,176.787 122.607,183.12 122.5,189.5C 111.167,189.5 99.8333,189.5 88.5,189.5C 87.6914,181.616 86.6914,173.616 85.5,165.5 Z"/></g>
<g><path style="opacity:1" fill="#ae696f" d="M 376.5,165.5 C 394.532,164.847 412.198,165.514 429.5,167.5C 427.835,174.827 426.168,182.16 424.5,189.5C 405.659,189.83 386.993,189.497 368.5,188.5C 369.68,181.778 371.18,175.111 373,168.5C 373.422,166.574 374.589,165.574 376.5,165.5 Z"/></g>
<g><path style="opacity:1" fill="#ae696f" d="M 225.5,189.5 C 194.5,189.5 163.5,189.5 132.5,189.5C 131.577,185.936 131.244,182.269 131.5,178.5C 131.5,177.167 131.5,175.833 131.5,174.5C 162.833,174.5 194.167,174.5 225.5,174.5C 225.5,179.5 225.5,184.5 225.5,189.5 Z"/></g>
<g><path style="opacity:1" fill="#c6d86f" d="M 332.5,177.5 C 319.518,185.661 306.185,193.328 292.5,200.5C 279.224,193.207 266.224,185.54 253.5,177.5C 279.833,176.167 306.167,176.167 332.5,177.5 Z"/></g>
<g><path style="opacity:1" fill="#5d4a57" d="M 236.5,178.5 C 235.167,209.833 235.167,241.167 236.5,272.5C 236.44,273.043 236.107,273.376 235.5,273.5C 234.167,241.5 234.167,209.5 235.5,177.5C 236.107,177.624 236.44,177.957 236.5,178.5 Z"/></g>
<g><path style="opacity:1" fill="#b16a76" d="M 132.5,189.5 C 163.5,189.5 194.5,189.5 225.5,189.5C 225.5,191.5 225.5,193.5 225.5,195.5C 194.82,196.475 164.154,197.808 133.5,199.5C 133.5,200.833 133.5,202.167 133.5,203.5C 132.514,199.03 132.181,194.363 132.5,189.5 Z"/></g>
<g><path style="opacity:1" fill="#b26975" d="M 88.5,189.5 C 99.8333,189.5 111.167,189.5 122.5,189.5C 123.997,206.465 124.831,223.465 125,240.5C 113.648,230.313 102.148,220.313 90.5,210.5C 89.529,203.548 88.8623,196.548 88.5,189.5 Z"/></g>
<g><path style="opacity:1" fill="#b46a75" d="M 236.5,178.5 C 252.806,188.322 269.139,198.155 285.5,208C 268.794,229.26 252.46,250.76 236.5,272.5C 235.167,241.167 235.167,209.833 236.5,178.5 Z"/></g>
<g><path style="opacity:1" fill="#b36975" d="M 350.5,220.5 C 325.323,225.343 299.99,231.01 274.5,237.5C 281.37,228.273 288.37,219.107 295.5,210C 314.772,198.447 334.272,187.28 354,176.5C 356.441,177.635 358.608,179.135 360.5,181C 357.211,194.311 353.878,207.478 350.5,220.5 Z"/></g>
<g><path style="opacity:1" fill="#b36975" d="M 368.5,188.5 C 386.993,189.497 405.659,189.83 424.5,189.5C 420.5,204.833 416.5,220.167 412.5,235.5C 393.803,236.154 375.47,235.487 357.5,233.5C 361.037,218.355 364.704,203.355 368.5,188.5 Z"/></g>
<g><path style="opacity:1" fill="#d97582" d="M 225.5,195.5 C 225.5,200.833 225.5,206.167 225.5,211.5C 194.833,211.5 164.167,211.5 133.5,211.5C 133.5,208.833 133.5,206.167 133.5,203.5C 133.5,202.167 133.5,200.833 133.5,199.5C 164.154,197.808 194.82,196.475 225.5,195.5 Z"/></g>
<g><path style="opacity:1" fill="#d97c88" d="M 133.5,211.5 C 164.167,211.5 194.833,211.5 225.5,211.5C 225.5,214.5 225.5,217.5 225.5,220.5C 195.167,220.5 164.833,220.5 134.5,220.5C 133.841,217.545 133.508,214.545 133.5,211.5 Z"/></g>
<g><path style="opacity:1" fill="#38384b" d="M 59.5,218.5 C 67.5794,219.09 69.5794,222.924 65.5,230C 58.6724,231.824 55.5058,229.324 56,222.5C 56.6897,220.65 57.8564,219.316 59.5,218.5 Z"/></g>
<g><path style="opacity:1" fill="#e07c8a" d="M 134.5,220.5 C 164.833,220.5 195.167,220.5 225.5,220.5C 225.5,225.167 225.5,229.833 225.5,234.5C 195.5,234.5 165.5,234.5 135.5,234.5C 135.737,233.209 135.404,232.209 134.5,231.5C 134.5,227.833 134.5,224.167 134.5,220.5 Z"/></g>
<g><path style="opacity:1" fill="#e0828e" d="M 134.5,231.5 C 135.404,232.209 135.737,233.209 135.5,234.5C 165.5,234.5 195.5,234.5 225.5,234.5C 225.5,239.5 225.5,244.5 225.5,249.5C 195.833,249.5 166.167,249.5 136.5,249.5C 135.585,243.669 134.918,237.669 134.5,231.5 Z"/></g>
<g><path style="opacity:1" fill="#e0818e" d="M 350.5,220.5 C 348.569,231.153 345.902,241.486 342.5,251.5C 316.5,251.5 290.5,251.5 264.5,251.5C 267.42,246.573 270.754,241.906 274.5,237.5C 299.99,231.01 325.323,225.343 350.5,220.5 Z"/></g>
<g><path style="opacity:1" fill="#b96f75" d="M 357.5,233.5 C 375.47,235.487 393.803,236.154 412.5,235.5C 411.65,240.232 410.484,244.899 409,249.5C 405.291,252.715 401.458,255.715 397.5,258.5C 381.991,258.83 366.658,258.496 351.5,257.5C 352.897,249.245 354.897,241.245 357.5,233.5 Z"/></g>
<g><path style="opacity:1" fill="#37374b" d="M 447.5,242.5 C 456.024,242.345 458.358,246.011 454.5,253.5C 447.202,255.701 444.036,253.034 445,245.5C 446.045,244.627 446.878,243.627 447.5,242.5 Z"/></g>
<g><path style="opacity:1" fill="#e28796" d="M 136.5,249.5 C 166.167,249.5 195.833,249.5 225.5,249.5C 225.5,257.833 225.5,266.167 225.5,274.5C 196.167,274.5 166.833,274.5 137.5,274.5C 136.876,266.181 136.543,257.848 136.5,249.5 Z"/></g>
<g><path style="opacity:1" fill="#e18796" d="M 264.5,251.5 C 290.5,251.5 316.5,251.5 342.5,251.5C 340.969,259.958 338.969,268.291 336.5,276.5C 306.167,276.5 275.833,276.5 245.5,276.5C 251.457,267.877 257.79,259.544 264.5,251.5 Z"/></g>
<g><path style="opacity:1" fill="#ba6f7c" d="M 351.5,257.5 C 366.658,258.496 381.991,258.83 397.5,258.5C 378.679,274.507 359.512,290.173 340,305.5C 343.218,289.296 347.052,273.296 351.5,257.5 Z"/></g>
<g><path style="opacity:1" fill="#39384b" d="M 59.5,271.5 C 62.8607,272.684 65.8607,274.517 68.5,277C 78.3303,285.83 87.8303,294.997 97,304.5C 97.6667,306.5 97.6667,308.5 97,310.5C 89.1667,319.667 81.3333,328.833 73.5,338C 71.5,338.667 69.5,338.667 67.5,338C 58.9305,330.1 51.0972,321.6 44,312.5C 43.3333,310.833 43.3333,309.167 44,307.5C 47.6667,297.167 51.3333,286.833 55,276.5C 55.7404,274.03 57.2404,272.363 59.5,271.5 Z"/></g>
<g><path style="opacity:1" fill="#e68e9c" d="M 137.5,274.5 C 166.833,274.5 196.167,274.5 225.5,274.5C 225.5,280.833 225.5,287.167 225.5,293.5C 202.994,293.169 180.66,293.503 158.5,294.5C 150.795,288.459 143.795,281.792 137.5,274.5 Z"/></g>
<g><path style="opacity:1" fill="#e68e9c" d="M 245.5,276.5 C 275.833,276.5 306.167,276.5 336.5,276.5C 335.749,283.506 334.082,290.172 331.5,296.5C 299.5,296.5 267.5,296.5 235.5,296.5C 235.335,293.482 235.502,290.482 236,287.5C 239.032,283.641 242.198,279.974 245.5,276.5 Z"/></g>
<g><path style="opacity:1" fill="#745464" d="M 224.5,354.5 C 225.493,345.682 225.827,336.682 225.5,327.5C 225.5,316.167 225.5,304.833 225.5,293.5C 225.5,287.167 225.5,280.833 225.5,274.5C 225.5,266.167 225.5,257.833 225.5,249.5C 225.5,244.5 225.5,239.5 225.5,234.5C 225.5,229.833 225.5,225.167 225.5,220.5C 225.5,217.5 225.5,214.5 225.5,211.5C 225.5,206.167 225.5,200.833 225.5,195.5C 225.5,193.5 225.5,191.5 225.5,189.5C 225.5,184.5 225.5,179.5 225.5,174.5C 194.167,174.5 162.833,174.5 131.5,174.5C 131.5,175.833 131.5,177.167 131.5,178.5C 130.549,177.081 130.216,175.415 130.5,173.5C 162.5,173.5 194.5,173.5 226.5,173.5C 226.833,234.17 226.5,294.837 225.5,355.5C 224.893,355.376 224.56,355.043 224.5,354.5 Z"/></g>
<g><path style="opacity:1" fill="#38384b" d="M 429.5,290.5 C 431.199,290.34 432.866,290.506 434.5,291C 444.833,299.333 455.167,307.667 465.5,316C 467.886,318.707 468.052,321.54 466,324.5C 457.5,333 449,341.5 440.5,350C 439.667,350.167 438.833,350.333 438,350.5C 431.15,347.323 424.65,343.489 418.5,339C 416.588,337.8 415.255,336.133 414.5,334C 418.584,320.505 422.75,307.005 427,293.5C 427.698,292.309 428.531,291.309 429.5,290.5 Z"/></g>
<g><path style="opacity:1" fill="#e896a3" d="M 225.5,293.5 C 225.5,304.833 225.5,316.167 225.5,327.5C 215.652,327.173 205.986,327.506 196.5,328.5C 183.51,317.509 170.843,306.175 158.5,294.5C 180.66,293.503 202.994,293.169 225.5,293.5 Z"/></g>
<g><path style="opacity:1" fill="#e695a1" d="M 235.5,296.5 C 267.5,296.5 299.5,296.5 331.5,296.5C 330.77,302.085 329.437,307.418 327.5,312.5C 296.833,312.5 266.167,312.5 235.5,312.5C 235.5,307.167 235.5,301.833 235.5,296.5 Z"/></g>
<g><path style="opacity:1" fill="#e593a1" d="M 61.5,285.5 C 69.7855,292.449 77.7855,299.783 85.5,307.5C 80.901,314.269 75.7343,320.602 70,326.5C 64.6154,320.621 59.4487,314.621 54.5,308.5C 57.0422,300.875 59.3755,293.208 61.5,285.5 Z"/></g>
<g><path style="opacity:1" fill="#ec95a7" d="M 235.5,312.5 C 266.167,312.5 296.833,312.5 327.5,312.5C 327.435,315.428 326.768,318.095 325.5,320.5C 295.5,320.5 265.5,320.5 235.5,320.5C 235.5,317.833 235.5,315.167 235.5,312.5 Z"/></g>
<g><path style="opacity:1" fill="#ec9ba7" d="M 235.5,320.5 C 265.5,320.5 295.5,320.5 325.5,320.5C 324.833,324.5 324.167,328.5 323.5,332.5C 297.069,331.173 270.736,331.173 244.5,332.5C 239.098,330.123 236.098,326.123 235.5,320.5 Z"/></g>
<g><path style="opacity:1" fill="#de8695" d="M 433.5,304.5 C 441.221,309.374 448.554,314.874 455.5,321C 449.333,327.167 443.167,333.333 437,339.5C 433.047,336.779 429.214,333.946 425.5,331C 428.275,322.178 430.941,313.345 433.5,304.5 Z"/></g>
<g><path style="opacity:1" fill="#eb9cad" d="M 225.5,327.5 C 225.827,336.682 225.493,345.682 224.5,354.5C 214.866,346.201 205.532,337.534 196.5,328.5C 205.986,327.506 215.652,327.173 225.5,327.5 Z"/></g>
<g><path style="opacity:1" fill="#ed9faf" d="M 323.5,332.5 C 321.166,341.834 318.833,351.167 316.5,360.5C 299.833,360.5 283.167,360.5 266.5,360.5C 265.361,356.699 264.528,352.699 264,348.5C 257.311,343.302 250.811,337.969 244.5,332.5C 270.736,331.173 297.069,331.173 323.5,332.5 Z"/></g>
<g><path style="opacity:1" fill="#37374a" d="M 134.5,342.5 C 142.744,342.228 145.078,345.728 141.5,353C 134.243,355.746 131.077,353.246 132,345.5C 132.698,344.309 133.531,343.309 134.5,342.5 Z"/></g>
<g><path style="opacity:1" fill="#f2a7b6" d="M 266.5,360.5 C 283.167,360.5 299.833,360.5 316.5,360.5C 314.525,367.067 312.858,373.733 311.5,380.5C 297.5,380.5 283.5,380.5 269.5,380.5C 267.639,373.998 266.639,367.331 266.5,360.5 Z"/></g>
<g><path style="opacity:1" fill="#373749" d="M 383.5,360.5 C 392.487,359.665 394.82,363.165 390.5,371C 385.436,373.259 382.102,371.759 380.5,366.5C 380.984,364.199 381.984,362.199 383.5,360.5 Z"/></g>
<g><path style="opacity:1" fill="#f4afbe" d="M 269.5,380.5 C 283.5,380.5 297.5,380.5 311.5,380.5C 307.123,398.811 302.623,417.145 298,435.5C 289.333,422.167 280.667,408.833 272,395.5C 270.597,390.617 269.764,385.617 269.5,380.5 Z"/></g>
<g><path style="opacity:1" fill="#39384b" d="M 207.5,391.5 C 220.296,393.71 232.796,397.043 245,401.5C 246.126,407.563 246.626,413.729 246.5,420C 246.333,425.5 246.167,431 246,436.5C 245.626,437.416 245.126,438.25 244.5,439C 242.167,439.667 239.833,439.667 237.5,439C 226.666,436.278 216.166,432.778 206,428.5C 205.333,416.833 205.333,405.167 206,393.5C 206.717,392.956 207.217,392.289 207.5,391.5 Z"/></g>
<g><path style="opacity:1" fill="#38384b" d="M 388.5,406.5 C 390.199,406.34 391.866,406.506 393.5,407C 403.748,412.707 413.915,418.54 424,424.5C 426.104,427.758 425.77,430.758 423,433.5C 414.833,441.667 406.667,449.833 398.5,458C 396.029,458.706 393.695,458.373 391.5,457C 385.5,453 379.5,449 373.5,445C 372.282,443.562 371.615,441.895 371.5,440C 376.256,428.321 381.923,417.154 388.5,406.5 Z"/></g>
<g><path style="opacity:1" fill="#af6871" d="M 215.5,403.5 C 222.548,405.012 229.548,406.679 236.5,408.5C 236.83,415.2 236.497,421.866 235.5,428.5C 229.167,426.5 222.833,424.5 216.5,422.5C 215.504,416.202 215.17,409.868 215.5,403.5 Z"/></g>
<g><path style="opacity:1" fill="#39384b" d="M 90.5,410.5 C 92.9363,410.317 95.103,410.984 97,412.5C 102.72,422.607 107.887,432.94 112.5,443.5C 112.333,444.5 112.167,445.5 112,446.5C 105.958,452.873 100.292,459.54 95,466.5C 93.3805,468.726 91.2138,470.06 88.5,470.5C 85.2566,468.765 82.4233,466.432 80,463.5C 75.9029,458.313 71.5695,453.313 67,448.5C 65,445.167 65,441.833 67,438.5C 75.074,429.269 82.9073,419.935 90.5,410.5 Z"/></g>
<g><path style="opacity:1" fill="#b16974" d="M 392.5,418.5 C 399.531,421.341 405.864,425.175 411.5,430C 406.379,436.123 400.879,441.957 395,447.5C 390.745,444.623 386.578,441.623 382.5,438.5C 386.267,432.062 389.601,425.395 392.5,418.5 Z"/></g>
<g><path style="opacity:1" fill="#df8492" d="M 91.5,424.5 C 95.3127,430.115 98.646,436.115 101.5,442.5C 97.511,447.821 93.1777,452.821 88.5,457.5C 84.1256,453.128 80.1256,448.461 76.5,443.5C 81.2676,436.955 86.2676,430.621 91.5,424.5 Z"/></g>
<g><path style="opacity:1" fill="#38374b" d="M 187.5,447.5 C 195.489,447.319 197.822,450.819 194.5,458C 187.243,460.746 184.077,458.246 185,450.5C 185.698,449.309 186.531,448.309 187.5,447.5 Z"/></g>
</svg>
