<?xml version="1.0" encoding="UTF-8"?>
<!DOCTYPE svg PUBLIC "-//W3C//DTD SVG 1.1//EN" "http://www.w3.org/Graphics/SVG/1.1/DTD/svg11.dtd">
<svg xmlns="http://www.w3.org/2000/svg" version="1.1" width="512px" height="512px" style="shape-rendering:geometricPrecision; text-rendering:geometricPrecision; image-rendering:optimizeQuality; fill-rule:evenodd; clip-rule:evenodd" xmlns:xlink="http://www.w3.org/1999/xlink">
<g><path style="opacity:1" fill="#cebbed" d="M 298.5,25.5 C 290.269,35.9058 281.436,45.9058 272,55.5C 270.644,56.3802 269.144,56.7135 267.5,56.5C 216.232,54.3693 170.565,69.036 130.5,100.5C 130.062,100.565 129.728,100.399 129.5,100C 150.132,77.0327 171.132,54.366 192.5,32C 191.944,31.6174 191.611,31.1174 191.5,30.5C 226.824,21.3075 262.49,19.6408 298.5,25.5 Z"/></g>
<g><path style="opacity:1" fill="#cec1ed" d="M 298.5,25.5 C 310.667,28.2086 322.667,31.542 334.5,35.5C 326.173,45.1603 317.506,54.4936 308.5,63.5C 294.866,60.1726 281.199,57.8392 267.5,56.5C 269.144,56.7135 270.644,56.3802 272,55.5C 281.436,45.9058 290.269,35.9058 298.5,25.5 Z"/></g>
<g><path style="opacity:1" fill="#cebbe7" d="M 191.5,30.5 C 191.611,31.1174 191.944,31.6174 192.5,32C 171.132,54.366 150.132,77.0327 129.5,100C 129.728,100.399 130.062,100.565 130.5,100.5C 129.452,102.534 127.786,103.867 125.5,104.5C 121.812,101.479 118.479,98.1456 115.5,94.5C 133.46,76.8705 150.793,58.5372 167.5,39.5C 175.228,35.9777 183.228,32.9777 191.5,30.5 Z"/></g>
<g><path style="opacity:1" fill="#d4c1ed" d="M 334.5,35.5 C 352.815,41.8231 369.815,50.4897 385.5,61.5C 377.528,69.8068 369.528,78.1402 361.5,86.5C 344.632,76.8973 326.966,69.2306 308.5,63.5C 317.506,54.4936 326.173,45.1603 334.5,35.5 Z"/></g>
<g><path style="opacity:1" fill="#c9b5e7" d="M 167.5,39.5 C 150.793,58.5372 133.46,76.8705 115.5,94.5C 110.5,90.1667 105.833,85.5 101.5,80.5C 114.592,67.924 129.259,57.424 145.5,49C 152.746,45.5326 160.079,42.3659 167.5,39.5 Z"/></g>
<g><path style="opacity:1" fill="#f9f9f9" d="M 267.5,56.5 C 281.199,57.8392 294.866,60.1726 308.5,63.5C 326.966,69.2306 344.632,76.8973 361.5,86.5C 369.869,92.4507 378.036,98.784 386,105.5C 394.369,97.2983 402.536,88.965 410.5,80.5C 417.5,86.8333 424.167,93.5 430.5,100.5C 422.549,108.786 414.549,117.12 406.5,125.5C 415.34,136.658 423.34,148.325 430.5,160.5C 446.977,192.411 454.977,226.411 454.5,262.5C 453.364,272.863 452.03,283.196 450.5,293.5C 443.861,328.107 429.195,358.774 406.5,385.5C 414.549,393.88 422.549,402.214 430.5,410.5C 424.167,417.5 417.5,424.167 410.5,430.5C 402.536,422.035 394.369,413.702 386,405.5C 362.998,425.92 336.498,439.92 306.5,447.5C 296.151,450.055 285.817,452.055 275.5,453.5C 239.924,456.849 205.924,451.183 173.5,436.5C 156.188,428.505 140.188,418.505 125.5,406.5C 117.146,414.188 109.146,422.188 101.5,430.5C 93.8886,424.557 86.8886,417.891 80.5,410.5C 88.965,402.536 97.2983,394.369 105.5,386C 101.591,381.601 97.924,377.101 94.5,372.5C 83.7194,356.939 75.0528,340.272 68.5,322.5C 64.0692,310.442 60.7358,298.108 58.5,285.5C 51.6186,232.209 63.2853,183.542 93.5,139.5C 97.6007,134.829 101.601,129.996 105.5,125C 102.297,121.629 98.9641,118.462 95.5,115.5C 90.8333,110.167 85.8333,105.167 80.5,100.5C 86.8886,93.1094 93.8886,86.4427 101.5,80.5C 105.833,85.5 110.5,90.1667 115.5,94.5C 118.479,98.1456 121.812,101.479 125.5,104.5C 127.786,103.867 129.452,102.534 130.5,100.5C 170.565,69.036 216.232,54.3693 267.5,56.5 Z"/></g>
<g><path style="opacity:1" fill="#d4c8ee" d="M 385.5,61.5 C 394.117,67.4496 402.451,73.7829 410.5,80.5C 402.536,88.965 394.369,97.2983 386,105.5C 378.036,98.784 369.869,92.4507 361.5,86.5C 369.528,78.1402 377.528,69.8068 385.5,61.5 Z"/></g>
<g><path style="opacity:1" fill="#9c96d4" d="M 283.5,83.5 C 276.833,94.8333 270.167,106.167 263.5,117.5C 261.981,114.979 260.314,112.479 258.5,110C 255.975,109.104 253.808,109.604 252,111.5C 238.879,134.913 225.379,158.079 211.5,181C 203.507,181.5 195.507,181.666 187.5,181.5C 185.708,180.691 183.708,180.191 181.5,180C 200.719,147.057 220.052,114.223 239.5,81.5C 254.398,79.8552 269.065,80.5219 283.5,83.5 Z"/></g>
<g><path style="opacity:1" fill="#9c9cda" d="M 234.5,82.5 C 215.727,115.113 196.727,147.613 177.5,180C 165.819,180.833 154.152,180.666 142.5,179.5C 159.443,150.608 176.11,121.608 192.5,92.5C 206.035,87.2592 220.035,83.9259 234.5,82.5 Z"/></g>
<g><path style="opacity:1" fill="#988fd4" d="M 283.5,83.5 C 290.062,84.3109 296.395,85.6442 302.5,87.5C 293.322,103.868 283.655,119.868 273.5,135.5C 270.167,129.5 266.833,123.5 263.5,117.5C 270.167,106.167 276.833,94.8333 283.5,83.5 Z"/></g>
<g><path style="opacity:1" fill="#968fce" d="M 302.5,87.5 C 307.715,88.5718 312.715,90.2384 317.5,92.5C 305.902,112.031 294.569,131.697 283.5,151.5C 280.181,146.203 276.847,140.869 273.5,135.5C 283.655,119.868 293.322,103.868 302.5,87.5 Z"/></g>
<g><path style="opacity:1" fill="#9689ce" d="M 317.5,92.5 C 328.376,95.9378 338.376,100.938 347.5,107.5C 333.727,131.779 319.727,155.946 305.5,180C 309.821,180.499 314.154,180.666 318.5,180.5C 318.5,180.833 318.5,181.167 318.5,181.5C 312.491,181.666 306.491,181.499 300.5,181C 294.578,171.261 288.912,161.428 283.5,151.5C 294.569,131.697 305.902,112.031 317.5,92.5 Z"/></g>
<g><path style="opacity:1" fill="#9ca2da" d="M 239.5,81.5 C 220.052,114.223 200.719,147.057 181.5,180C 183.708,180.191 185.708,180.691 187.5,181.5C 168.497,181.333 149.497,181.5 130.5,182C 128.604,183.808 128.104,185.975 129,188.5C 130.765,191.032 132.265,193.699 133.5,196.5C 116.08,224.332 99.4136,252.665 83.5,281.5C 74.6254,206.417 101.625,147.917 164.5,106C 173.458,100.687 182.792,96.1873 192.5,92.5C 176.11,121.608 159.443,150.608 142.5,179.5C 154.152,180.666 165.819,180.833 177.5,180C 196.727,147.613 215.727,115.113 234.5,82.5C 236.042,81.6993 237.708,81.366 239.5,81.5 Z"/></g>
<g><path style="opacity:1" fill="#c9b5e7" d="M 80.5,100.5 C 85.8333,105.167 90.8333,110.167 95.5,115.5C 94.2498,117.932 92.7498,120.266 91,122.5C 71.9668,143.031 52.8002,163.364 33.5,183.5C 43.2442,152.33 58.9108,124.664 80.5,100.5 Z"/></g>
<g><path style="opacity:1" fill="#9683ce" d="M 347.5,107.5 C 351.392,109.062 354.725,111.395 357.5,114.5C 344.989,136.865 331.989,158.865 318.5,180.5C 314.154,180.666 309.821,180.499 305.5,180C 319.727,155.946 333.727,131.779 347.5,107.5 Z"/></g>
<g><path style="opacity:1" fill="#d9c8f3" d="M 430.5,100.5 C 440.07,111.316 448.403,122.982 455.5,135.5C 446.881,143.452 438.548,151.785 430.5,160.5C 423.34,148.325 415.34,136.658 406.5,125.5C 414.549,117.12 422.549,108.786 430.5,100.5 Z"/></g>
<g><path style="opacity:1" fill="#f9f9f9" d="M 263.5,117.5 C 266.833,123.5 270.167,129.5 273.5,135.5C 276.847,140.869 280.181,146.203 283.5,151.5C 288.912,161.428 294.578,171.261 300.5,181C 306.491,181.499 312.491,181.666 318.5,181.5C 338.833,181.5 359.167,181.5 379.5,181.5C 383.146,182.462 384.313,184.795 383,188.5C 369.645,210.544 356.812,232.878 344.5,255.5C 344.543,256.416 344.876,257.083 345.5,257.5C 346.901,260.634 348.568,263.634 350.5,266.5C 355.263,275.035 360.263,283.368 365.5,291.5C 370.137,300.771 375.304,309.771 381,318.5C 382.707,320.909 383.54,323.575 383.5,326.5C 382.833,327.5 382.167,328.5 381.5,329.5C 380.833,329.5 380.167,329.5 379.5,329.5C 353.165,329.333 326.831,329.5 300.5,330C 286.955,352.254 273.788,374.754 261,397.5C 259.2,401.075 256.533,402.075 253,400.5C 246.807,390.103 240.641,379.77 234.5,369.5C 230.656,361.801 226.322,354.468 221.5,347.5C 219.766,343.7 217.766,340.034 215.5,336.5C 214.052,334.445 212.719,332.278 211.5,330C 204.842,329.5 198.175,329.334 191.5,329.5C 171.164,329.667 150.831,329.5 130.5,329C 127.979,325.518 128.145,322.018 131,318.5C 143.252,298.331 155.252,277.998 167,257.5C 167.667,256.167 167.667,254.833 167,253.5C 162.488,245.806 157.988,238.139 153.5,230.5C 146.833,219.167 140.167,207.833 133.5,196.5C 132.265,193.699 130.765,191.032 129,188.5C 128.104,185.975 128.604,183.808 130.5,182C 149.497,181.5 168.497,181.333 187.5,181.5C 195.507,181.666 203.507,181.5 211.5,181C 225.379,158.079 238.879,134.913 252,111.5C 253.808,109.604 255.975,109.104 258.5,110C 260.314,112.479 261.981,114.979 263.5,117.5 Z"/></g>
<g><path style="opacity:1" fill="#9683c8" d="M 357.5,114.5 C 364.096,117.974 369.762,122.641 374.5,128.5C 364.638,145.721 354.638,162.888 344.5,180C 356.341,180.169 368.007,180.669 379.5,181.5C 359.167,181.5 338.833,181.5 318.5,181.5C 318.5,181.167 318.5,180.833 318.5,180.5C 331.989,158.865 344.989,136.865 357.5,114.5 Z"/></g>
<g><path style="opacity:1" fill="#cebbe7" d="M 95.5,115.5 C 98.9641,118.462 102.297,121.629 105.5,125C 101.601,129.996 97.6007,134.829 93.5,139.5C 93.5654,139.062 93.3988,138.728 93,138.5C 73.6317,158.867 54.6317,179.533 36,200.5C 33.2337,203.777 30.067,206.443 26.5,208.5C 28.3884,199.934 30.7217,191.601 33.5,183.5C 52.8002,163.364 71.9668,143.031 91,122.5C 92.7498,120.266 94.2498,117.932 95.5,115.5 Z"/></g>
<g><path style="opacity:1" fill="#967dc8" d="M 374.5,128.5 C 385.464,138.08 394.797,149.08 402.5,161.5C 382.801,192.916 363.801,224.916 345.5,257.5C 344.876,257.083 344.543,256.416 344.5,255.5C 356.812,232.878 369.645,210.544 383,188.5C 384.313,184.795 383.146,182.462 379.5,181.5C 368.007,180.669 356.341,180.169 344.5,180C 354.638,162.888 364.638,145.721 374.5,128.5 Z"/></g>
<g><path style="opacity:1" fill="#dacef3" d="M 455.5,135.5 C 472.901,163.674 483.567,194.341 487.5,227.5C 476.866,239.469 465.866,251.135 454.5,262.5C 454.977,226.411 446.977,192.411 430.5,160.5C 438.548,151.785 446.881,143.452 455.5,135.5 Z"/></g>
<g><path style="opacity:1" fill="#cebbed" d="M 93.5,139.5 C 63.2853,183.542 51.6186,232.209 58.5,285.5C 48.8333,295.5 39.1667,305.5 29.5,315.5C 20.6222,280.04 19.6222,244.374 26.5,208.5C 30.067,206.443 33.2337,203.777 36,200.5C 54.6317,179.533 73.6317,158.867 93,138.5C 93.3988,138.728 93.5654,139.062 93.5,139.5 Z"/></g>
<g><path style="opacity:1" fill="#988fd2" d="M 255.5,140.5 C 263.977,153.438 271.977,166.772 279.5,180.5C 263.833,181.833 248.167,181.833 232.5,180.5C 240.178,167.139 247.845,153.806 255.5,140.5 Z"/></g>
<g><path style="opacity:1" fill="#9676c8" d="M 402.5,161.5 C 404.56,164.24 406.226,167.24 407.5,170.5C 388.989,202.866 369.989,234.866 350.5,266.5C 348.568,263.634 346.901,260.634 345.5,257.5C 363.801,224.916 382.801,192.916 402.5,161.5 Z"/></g>
<g><path style="opacity:1" fill="#9676c1" d="M 407.5,170.5 C 412.601,179.038 416.934,188.038 420.5,197.5C 401.161,228.168 382.828,259.502 365.5,291.5C 360.263,283.368 355.263,275.035 350.5,266.5C 369.989,234.866 388.989,202.866 407.5,170.5 Z"/></g>
<g><path style="opacity:1" fill="#9c9cd9" d="M 133.5,196.5 C 140.167,207.833 146.833,219.167 153.5,230.5C 151.926,230.937 150.759,231.937 150,233.5C 132.143,264.555 114.31,295.555 96.5,326.5C 89.5507,312.312 85.2174,297.312 83.5,281.5C 99.4136,252.665 116.08,224.332 133.5,196.5 Z"/></g>
<g><path style="opacity:1" fill="#c7c8e6" d="M 200.5,199.5 C 185.657,199.171 170.99,199.504 156.5,200.5C 155.957,200.44 155.624,200.107 155.5,199.5C 170.661,198.174 185.661,198.174 200.5,199.5 Z"/></g>
<g><path style="opacity:1" fill="#c8bae1" d="M 311.5,199.5 C 326.339,198.174 341.339,198.174 356.5,199.5C 356.376,200.107 356.043,200.44 355.5,200.5C 341.01,199.504 326.343,199.171 311.5,199.5 Z"/></g>
<g><path style="opacity:1" fill="#9c97d4" d="M 200.5,199.5 C 193.625,212.541 186.125,225.207 178,237.5C 170.822,225.139 163.655,212.806 156.5,200.5C 170.99,199.504 185.657,199.171 200.5,199.5 Z"/></g>
<g><path style="opacity:1" fill="#988fd4" d="M 221.5,199.5 C 226.544,199.173 231.544,199.506 236.5,200.5C 223.503,223.466 210.169,246.133 196.5,268.5C 193.608,264.398 190.941,260.065 188.5,255.5C 199.526,236.77 210.526,218.104 221.5,199.5 Z"/></g>
<g><path style="opacity:1" fill="#9891cf" d="M 221.5,199.5 C 244.5,198.167 267.5,198.167 290.5,199.5C 278.482,199.168 266.482,199.501 254.5,200.5C 238.392,228.395 222.059,256.061 205.5,283.5C 202.11,278.767 199.11,273.767 196.5,268.5C 210.169,246.133 223.503,223.466 236.5,200.5C 231.544,199.506 226.544,199.173 221.5,199.5 Z"/></g>
<g><path style="opacity:1" fill="#9689ce" d="M 290.5,199.5 C 291.674,200.514 292.34,201.847 292.5,203.5C 271.274,238.939 250.274,274.606 229.5,310.5C 233.783,311.492 238.116,311.826 242.5,311.5C 251.167,311.5 259.833,311.5 268.5,311.5C 275.833,311.5 283.167,311.5 290.5,311.5C 267.67,312.663 244.67,312.83 221.5,312C 215.763,302.688 210.429,293.188 205.5,283.5C 222.059,256.061 238.392,228.395 254.5,200.5C 266.482,199.501 278.482,199.168 290.5,199.5 Z"/></g>
<g><path style="opacity:1" fill="#977fc8" d="M 311.5,199.5 C 326.343,199.171 341.01,199.504 355.5,200.5C 348.43,212.971 341.097,225.304 333.5,237.5C 325.712,225.058 318.379,212.391 311.5,199.5 Z"/></g>
<g><path style="opacity:1" fill="#9683ce" d="M 292.5,203.5 C 295,206.494 297,209.827 298.5,213.5C 298.245,216.016 297.411,218.35 296,220.5C 278.155,250.861 260.322,281.194 242.5,311.5C 238.116,311.826 233.783,311.492 229.5,310.5C 250.274,274.606 271.274,238.939 292.5,203.5 Z"/></g>
<g><path style="opacity:1" fill="#9070c1" d="M 420.5,197.5 C 428.113,220.038 431.113,243.038 429.5,266.5C 429.5,262.5 429.5,258.5 429.5,254.5C 429.662,252.473 429.495,250.473 429,248.5C 413.541,274.431 398.374,300.431 383.5,326.5C 383.54,323.575 382.707,320.909 381,318.5C 375.304,309.771 370.137,300.771 365.5,291.5C 382.828,259.502 401.161,228.168 420.5,197.5 Z"/></g>
<g><path style="opacity:1" fill="#9683c8" d="M 298.5,213.5 C 303.403,220.964 308.07,228.631 312.5,236.5C 297.08,260.999 282.413,285.999 268.5,311.5C 259.833,311.5 251.167,311.5 242.5,311.5C 260.322,281.194 278.155,250.861 296,220.5C 297.411,218.35 298.245,216.016 298.5,213.5 Z"/></g>
<g><path style="opacity:1" fill="#9b95d3" d="M 153.5,230.5 C 157.988,238.139 162.488,245.806 167,253.5C 167.667,254.833 167.667,256.167 167,257.5C 155.252,277.998 143.252,298.331 131,318.5C 128.145,322.018 127.979,325.518 130.5,329C 150.831,329.5 171.164,329.667 191.5,329.5C 187.101,330.191 182.601,330.858 178,331.5C 166.303,350.896 155.137,370.563 144.5,390.5C 140.141,386.472 135.807,382.472 131.5,378.5C 133.433,377.358 134.933,375.692 136,373.5C 144.04,359.252 152.207,345.085 160.5,331C 153.5,330.333 146.5,330.333 139.5,331C 132.696,342.112 126.029,353.278 119.5,364.5C 109.813,353.139 102.147,340.473 96.5,326.5C 114.31,295.555 132.143,264.555 150,233.5C 150.759,231.937 151.926,230.937 153.5,230.5 Z"/></g>
<g><path style="opacity:1" fill="#e0d4f3" d="M 487.5,227.5 C 488.057,235.862 488.723,244.195 489.5,252.5C 476.184,265.817 463.184,279.484 450.5,293.5C 452.03,283.196 453.364,272.863 454.5,262.5C 465.866,251.135 476.866,239.469 487.5,227.5 Z"/></g>
<g><path style="opacity:1" fill="#967dc8" d="M 312.5,236.5 C 316.408,242.642 320.074,248.976 323.5,255.5C 312.474,274.23 301.474,292.896 290.5,311.5C 283.167,311.5 275.833,311.5 268.5,311.5C 282.413,285.999 297.08,260.999 312.5,236.5 Z"/></g>
<g><path style="opacity:1" fill="#8f6ac1" d="M 429.5,254.5 C 399.442,305.236 369.775,356.236 340.5,407.5C 339.71,408.401 338.71,409.068 337.5,409.5C 335.972,409.483 335.472,408.816 336,407.5C 351.431,381.637 366.597,355.637 381.5,329.5C 382.167,328.5 382.833,327.5 383.5,326.5C 398.374,300.431 413.541,274.431 429,248.5C 429.495,250.473 429.662,252.473 429.5,254.5 Z"/></g>
<g><path style="opacity:1" fill="#e1d4f9" d="M 489.5,252.5 C 489.125,312.654 469.458,365.32 430.5,410.5C 422.549,402.214 414.549,393.88 406.5,385.5C 429.195,358.774 443.861,328.107 450.5,293.5C 463.184,279.484 476.184,265.817 489.5,252.5 Z"/></g>
<g><path style="opacity:1" fill="#8f6abb" d="M 429.5,254.5 C 429.5,258.5 429.5,262.5 429.5,266.5C 424.293,329.308 394.627,376.308 340.5,407.5C 369.775,356.236 399.442,305.236 429.5,254.5 Z"/></g>
<g><path style="opacity:1" fill="#988fd2" d="M 200.5,311.5 C 185.657,311.829 170.99,311.496 156.5,310.5C 163.655,298.194 170.822,285.861 178,273.5C 186.125,285.793 193.625,298.459 200.5,311.5 Z"/></g>
<g><path style="opacity:1" fill="#cec1ed" d="M 58.5,285.5 C 60.7358,298.108 64.0692,310.442 68.5,322.5C 59.8666,331.302 51.3666,340.302 43,349.5C 42.5831,348.244 41.7498,347.577 40.5,347.5C 36.2619,337.025 32.5952,326.358 29.5,315.5C 39.1667,305.5 48.8333,295.5 58.5,285.5 Z"/></g>
<g><path style="opacity:1" fill="#9677c3" d="M 355.5,310.5 C 341.01,311.496 326.343,311.829 311.5,311.5C 318.379,298.609 325.712,285.942 333.5,273.5C 341.097,285.696 348.43,298.029 355.5,310.5 Z"/></g>
<g><path style="opacity:1" fill="#c7c1e6" d="M 156.5,310.5 C 170.99,311.496 185.657,311.829 200.5,311.5C 185.661,312.826 170.661,312.826 155.5,311.5C 155.624,310.893 155.957,310.56 156.5,310.5 Z"/></g>
<g><path style="opacity:1" fill="#c3b5e0" d="M 355.5,310.5 C 356.043,310.56 356.376,310.893 356.5,311.5C 348.833,311.833 341.167,312.167 333.5,312.5C 325.422,312.516 318.089,312.183 311.5,311.5C 326.343,311.829 341.01,311.496 355.5,310.5 Z"/></g>
<g><path style="opacity:1" fill="#d4c1ed" d="M 68.5,322.5 C 75.0528,340.272 83.7194,356.939 94.5,372.5C 89.543,378.628 84.3763,384.628 79,390.5C 76.5644,393.447 73.7311,395.78 70.5,397.5C 58.4891,382.163 48.4891,365.496 40.5,347.5C 41.7498,347.577 42.5831,348.244 43,349.5C 51.3666,340.302 59.8666,331.302 68.5,322.5 Z"/></g>
<g><path style="opacity:1" fill="#9683c8" d="M 257.5,329.5 C 252.702,336.764 248.702,344.43 245.5,352.5C 241.193,345.23 236.86,337.897 232.5,330.5C 240.807,329.502 249.14,329.169 257.5,329.5 Z"/></g>
<g><path style="opacity:1" fill="#967ec8" d="M 257.5,329.5 C 264.863,329.169 272.197,329.503 279.5,330.5C 271.919,343.998 264.085,357.331 256,370.5C 252.236,364.637 248.736,358.637 245.5,352.5C 248.702,344.43 252.702,336.764 257.5,329.5 Z"/></g>
<g><path style="opacity:1" fill="#9070c1" d="M 379.5,329.5 C 380.167,329.5 380.833,329.5 381.5,329.5C 366.597,355.637 351.431,381.637 336,407.5C 335.472,408.816 335.972,409.483 337.5,409.5C 321.845,417.941 305.178,423.608 287.5,426.5C 286.535,425.279 286.702,423.946 288,422.5C 306.097,391.97 323.931,361.303 341.5,330.5C 354.344,330.829 367.011,330.495 379.5,329.5 Z"/></g>
<g><path style="opacity:1" fill="#988fd4" d="M 131.5,378.5 C 127.155,374.153 123.155,369.486 119.5,364.5C 126.029,353.278 132.696,342.112 139.5,331C 146.5,330.333 153.5,330.333 160.5,331C 152.207,345.085 144.04,359.252 136,373.5C 134.933,375.692 133.433,377.358 131.5,378.5 Z"/></g>
<g><path style="opacity:1" fill="#9689ce" d="M 191.5,329.5 C 198.175,329.334 204.842,329.5 211.5,330C 212.719,332.278 214.052,334.445 215.5,336.5C 200.694,359.861 186.361,383.694 172.5,408C 173.056,408.383 173.389,408.883 173.5,409.5C 163.04,404.372 153.373,398.039 144.5,390.5C 155.137,370.563 166.303,350.896 178,331.5C 182.601,330.858 187.101,330.191 191.5,329.5 Z"/></g>
<g><path style="opacity:1" fill="#977ec8" d="M 379.5,329.5 C 367.011,330.495 354.344,330.829 341.5,330.5C 332.167,330.5 322.833,330.5 313.5,330.5C 309.563,330.207 305.73,330.54 302,331.5C 283.167,363.833 264.333,396.167 245.5,428.5C 249.107,429.489 252.774,429.823 256.5,429.5C 260.167,429.5 263.833,429.5 267.5,429.5C 246.155,431.464 225.155,429.131 204.5,422.5C 213.725,404.382 223.725,386.715 234.5,369.5C 240.641,379.77 246.807,390.103 253,400.5C 256.533,402.075 259.2,401.075 261,397.5C 273.788,374.754 286.955,352.254 300.5,330C 326.831,329.5 353.165,329.333 379.5,329.5 Z"/></g>
<g><path style="opacity:1" fill="#9576c8" d="M 313.5,330.5 C 294.764,363.636 275.764,396.636 256.5,429.5C 252.774,429.823 249.107,429.489 245.5,428.5C 264.333,396.167 283.167,363.833 302,331.5C 305.73,330.54 309.563,330.207 313.5,330.5 Z"/></g>
<g><path style="opacity:1" fill="#9676c1" d="M 313.5,330.5 C 322.833,330.5 332.167,330.5 341.5,330.5C 323.931,361.303 306.097,391.97 288,422.5C 286.702,423.946 286.535,425.279 287.5,426.5C 281.076,428.219 274.409,429.219 267.5,429.5C 263.833,429.5 260.167,429.5 256.5,429.5C 275.764,396.636 294.764,363.636 313.5,330.5 Z"/></g>
<g><path style="opacity:1" fill="#9683ce" d="M 215.5,336.5 C 217.766,340.034 219.766,343.7 221.5,347.5C 209.012,369.139 196.512,390.806 184,412.5C 183.329,413.252 182.496,413.586 181.5,413.5C 178.55,412.692 175.883,411.358 173.5,409.5C 173.389,408.883 173.056,408.383 172.5,408C 186.361,383.694 200.694,359.861 215.5,336.5 Z"/></g>
<g><path style="opacity:1" fill="#9683c8" d="M 221.5,347.5 C 226.322,354.468 230.656,361.801 234.5,369.5C 223.725,386.715 213.725,404.382 204.5,422.5C 196.441,420.296 188.774,417.296 181.5,413.5C 182.496,413.586 183.329,413.252 184,412.5C 196.512,390.806 209.012,369.139 221.5,347.5 Z"/></g>
<g><path style="opacity:1" fill="#d4c8ed" d="M 94.5,372.5 C 97.924,377.101 101.591,381.601 105.5,386C 97.2983,394.369 88.965,402.536 80.5,410.5C 76.4401,406.708 73.1068,402.374 70.5,397.5C 73.7311,395.78 76.5644,393.447 79,390.5C 84.3763,384.628 89.543,378.628 94.5,372.5 Z"/></g>
<g><path style="opacity:1" fill="#e1d4f9" d="M 410.5,430.5 C 370.902,465.383 324.569,484.716 271.5,488.5C 271.389,487.883 271.056,487.383 270.5,487C 282.337,473.664 294.337,460.497 306.5,447.5C 336.498,439.92 362.998,425.92 386,405.5C 394.369,413.702 402.536,422.035 410.5,430.5 Z"/></g>
<g><path style="opacity:1" fill="#d8c8f3" d="M 173.5,436.5 C 165.5,445.5 157.5,454.5 149.5,463.5C 131.753,454.966 115.753,443.966 101.5,430.5C 109.146,422.188 117.146,414.188 125.5,406.5C 140.188,418.505 156.188,428.505 173.5,436.5 Z"/></g>
<g><path style="opacity:1" fill="#dacef3" d="M 173.5,436.5 C 205.924,451.183 239.924,456.849 275.5,453.5C 275.938,453.435 276.272,453.601 276.5,454C 265.589,465.073 255.256,476.573 245.5,488.5C 211.521,487.34 179.521,479.006 149.5,463.5C 157.5,454.5 165.5,445.5 173.5,436.5 Z"/></g>
<g><path style="opacity:1" fill="#e0d4f3" d="M 306.5,447.5 C 294.337,460.497 282.337,473.664 270.5,487C 271.056,487.383 271.389,487.883 271.5,488.5C 262.811,489.339 254.144,489.339 245.5,488.5C 255.256,476.573 265.589,465.073 276.5,454C 276.272,453.601 275.938,453.435 275.5,453.5C 285.817,452.055 296.151,450.055 306.5,447.5 Z"/></g>
</svg>
