<?xml version="1.0" encoding="UTF-8"?>
<!DOCTYPE svg PUBLIC "-//W3C//DTD SVG 1.1//EN" "http://www.w3.org/Graphics/SVG/1.1/DTD/svg11.dtd">
<svg xmlns="http://www.w3.org/2000/svg" version="1.1" width="512px" height="512px" style="shape-rendering:geometricPrecision; text-rendering:geometricPrecision; image-rendering:optimizeQuality; fill-rule:evenodd; clip-rule:evenodd" xmlns:xlink="http://www.w3.org/1999/xlink">
<g><path style="opacity:1" fill="#39384c" d="M 242.5,38.5 C 291.409,34.1921 326.576,53.8588 348,97.5C 352.551,109.589 355.051,122.089 355.5,135C 351.665,177.515 345.498,219.682 337,261.5C 334.305,277.089 329.138,291.756 321.5,305.5C 327.126,310.323 332.793,315.157 338.5,320C 339.784,320.684 340.951,320.517 342,319.5C 350.002,307.5 357.502,295.166 364.5,282.5C 359.381,278.434 354.048,274.6 348.5,271C 347.299,270.097 346.465,268.931 346,267.5C 345.698,251.872 349.531,237.372 357.5,224C 359.5,223.333 361.5,223.333 363.5,224C 372.833,230.333 382.167,236.667 391.5,243C 392.635,243.749 393.635,243.583 394.5,242.5C 402.948,223.657 410.115,204.324 416,184.5C 423.637,156.617 430.637,128.617 437,100.5C 442.565,94.0666 449.398,92.2333 457.5,95C 473.424,102.604 481.757,115.271 482.5,133C 474.921,182.069 459.921,228.736 437.5,273C 445.973,279.837 454.806,286.337 464,292.5C 462.253,309.141 454.42,322.308 440.5,332C 437.983,332.257 435.65,331.59 433.5,330C 428.97,326.638 424.303,323.471 419.5,320.5C 413.624,329.752 407.624,338.919 401.5,348C 413.349,352.865 423.849,359.699 433,368.5C 437.896,373.946 440.229,380.28 440,387.5C 412.03,409.582 381.53,427.749 348.5,442C 322.233,453.63 295.233,463.296 267.5,471C 261.224,472.424 254.891,472.758 248.5,472C 187.432,456.292 131.098,430.625 79.5,395C 76.3699,392.872 73.5366,390.372 71,387.5C 70.7707,380.28 73.104,373.946 78,368.5C 80.8688,365.296 84.0354,362.463 87.5,360C 94.5356,355.819 101.536,351.652 108.5,347.5C 102.583,338.669 96.9166,329.669 91.5,320.5C 86.6965,323.471 82.0298,326.638 77.5,330C 75.3502,331.59 73.0168,332.257 70.5,332C 56.5799,322.308 48.7466,309.141 47,292.5C 55.5,286.667 64,280.833 72.5,275C 73.0219,274.439 73.3552,273.772 73.5,273C 51.0788,228.736 36.0788,182.069 28.5,133C 29.4876,111.858 40.1542,98.6911 60.5,93.5C 66.1787,93.5892 70.6787,95.9225 74,100.5C 80.3626,128.617 87.3626,156.617 95,184.5C 100.885,204.324 108.052,223.657 116.5,242.5C 117.365,243.583 118.365,243.749 119.5,243C 128.833,236.667 138.167,230.333 147.5,224C 152.596,222.42 155.763,224.254 157,229.5C 162.485,241.594 165.152,254.261 165,267.5C 164.215,269.286 163.049,270.786 161.5,272C 156.15,275.008 151.15,278.508 146.5,282.5C 153.355,296.231 161.689,308.898 171.5,320.5C 177.909,315.966 183.909,310.966 189.5,305.5C 184.394,296.679 180.56,287.346 178,277.5C 167.008,230.393 159.508,182.726 155.5,134.5C 157.446,94.4017 176.113,65.235 211.5,47C 221.658,43.0468 231.991,40.2135 242.5,38.5 Z"/></g>
<g><path style="opacity:1" fill="#8a8bbc" d="M 292.5,55.5 C 273.833,56.1667 255.167,56.8333 236.5,57.5C 234.086,56.0892 232.419,54.0892 231.5,51.5C 252.205,46.6388 272.538,47.9721 292.5,55.5 Z"/></g>
<g><path style="opacity:1" fill="#5c6395" d="M 231.5,51.5 C 232.419,54.0892 234.086,56.0892 236.5,57.5C 238.5,60.1667 240.833,62.5 243.5,64.5C 258.514,77.6865 275.514,87.8532 294.5,95C 299.328,95.6288 303.995,94.9621 308.5,93C 312.833,91.3333 317.167,89.6667 321.5,88C 324.177,87.1864 326.177,85.6864 327.5,83.5C 330.356,86.0265 332.356,89.1932 333.5,93C 324.418,99.8769 314.418,105.21 303.5,109C 275.35,117.623 246.517,121.457 217,120.5C 200.747,120.647 184.58,119.647 168.5,117.5C 169.321,110.707 171.321,104.374 174.5,98.5C 199.823,103.191 225.49,104.691 251.5,103C 252.416,102.722 253.082,102.222 253.5,101.5C 258.649,104.824 264.149,107.491 270,109.5C 274.206,108.472 275.539,105.805 274,101.5C 252.13,90.6364 232.797,76.3031 216,58.5C 215.544,57.2559 216.044,56.4226 217.5,56C 222.04,53.9863 226.706,52.4863 231.5,51.5 Z"/></g>
<g><path style="opacity:1" fill="#8888c0" d="M 292.5,55.5 C 297.528,57.6762 302.194,60.3429 306.5,63.5C 285.673,64.4973 264.673,64.8306 243.5,64.5C 240.833,62.5 238.5,60.1667 236.5,57.5C 255.167,56.8333 273.833,56.1667 292.5,55.5 Z"/></g>
<g><path style="opacity:1" fill="#8788ba" d="M 306.5,63.5 C 314.769,68.7679 321.769,75.4346 327.5,83.5C 326.177,85.6864 324.177,87.1864 321.5,88C 317.167,89.6667 312.833,91.3333 308.5,93C 303.995,94.9621 299.328,95.6288 294.5,95C 275.514,87.8532 258.514,77.6865 243.5,64.5C 264.673,64.8306 285.673,64.4973 306.5,63.5 Z"/></g>
<g><path style="opacity:1" fill="#8388ba" d="M 238.5,92.5 C 218.326,92.8305 198.326,92.4971 178.5,91.5C 185.062,79.4365 194.228,69.7698 206,62.5C 216.108,73.4472 226.941,83.4472 238.5,92.5 Z"/></g>
<g><path style="opacity:1" fill="#8282b4" d="M 178.5,91.5 C 198.326,92.4971 218.326,92.8305 238.5,92.5C 243.638,95.2371 248.638,98.2371 253.5,101.5C 253.082,102.222 252.416,102.722 251.5,103C 225.49,104.691 199.823,103.191 174.5,98.5C 175.079,95.6689 176.412,93.3356 178.5,91.5 Z"/></g>
<g><path style="opacity:1" fill="#7b81b0" d="M 344.5,126.5 C 319.575,127.49 294.575,127.823 269.5,127.5C 293.73,124.089 316.396,116.089 337.5,103.5C 339.843,105.995 341.343,108.995 342,112.5C 343.029,117.144 343.862,121.81 344.5,126.5 Z"/></g>
<g><path style="opacity:1" fill="#7c7cad" d="M 344.5,126.5 C 344.5,129.5 344.5,132.5 344.5,135.5C 285.167,135.5 225.833,135.5 166.5,135.5C 166.5,132.833 166.5,130.167 166.5,127.5C 200.841,131.471 235.175,131.471 269.5,127.5C 294.575,127.823 319.575,127.49 344.5,126.5 Z"/></g>
<g><path style="opacity:1" fill="#7c7eae" d="M 75.5,151.5 C 64.5813,152.477 53.5813,152.81 42.5,152.5C 40.0322,143.322 39.1988,133.989 40,124.5C 43.4115,114.254 50.2448,107.588 60.5,104.5C 62.9116,104.406 64.745,105.406 66,107.5C 68.978,122.225 72.1447,136.892 75.5,151.5 Z"/></g>
<g><path style="opacity:1" fill="#7c7eae" d="M 468.5,152.5 C 457.5,152.5 446.5,152.5 435.5,152.5C 438.731,137.51 441.898,122.51 445,107.5C 446.255,105.406 448.088,104.406 450.5,104.5C 463.869,108.537 470.869,117.537 471.5,131.5C 470.885,138.571 469.885,145.571 468.5,152.5 Z"/></g>
<g><path style="opacity:1" fill="#757cae" d="M 166.5,135.5 C 225.833,135.5 285.167,135.5 344.5,135.5C 344.409,143.223 343.743,150.889 342.5,158.5C 284.5,158.5 226.5,158.5 168.5,158.5C 167.248,150.895 166.581,143.228 166.5,135.5 Z"/></g>
<g><path style="opacity:1" fill="#6e73a2" d="M 75.5,151.5 C 78.3891,165.391 82.0558,179.058 86.5,192.5C 75.4019,191.181 64.4019,191.181 53.5,192.5C 48.7282,179.578 45.0616,166.245 42.5,152.5C 53.5813,152.81 64.5813,152.477 75.5,151.5 Z"/></g>
<g><path style="opacity:1" fill="#6e73a2" d="M 435.5,152.5 C 446.5,152.5 457.5,152.5 468.5,152.5C 465.925,166.263 462.258,179.597 457.5,192.5C 446.598,191.181 435.598,191.181 424.5,192.5C 428.792,179.333 432.458,166 435.5,152.5 Z"/></g>
<g><path style="opacity:1" fill="#707ca7" d="M 168.5,158.5 C 226.5,158.5 284.5,158.5 342.5,158.5C 342.762,159.978 342.429,161.311 341.5,162.5C 325.366,170.08 308.366,174.247 290.5,175C 269.186,176.462 247.852,176.796 226.5,176C 214.695,175.207 203.028,173.541 191.5,171C 183.762,169.253 176.429,166.42 169.5,162.5C 168.571,161.311 168.238,159.978 168.5,158.5 Z"/></g>
<g><path style="opacity:1" fill="#f6d1cd" d="M 338.5,191.5 C 283.167,192.833 227.833,192.833 172.5,191.5C 171.345,185.808 171.012,180.141 171.5,174.5C 177.52,177.562 183.853,179.729 190.5,181C 235.216,188.526 279.883,188.193 324.5,180C 329.604,178.465 334.604,176.632 339.5,174.5C 339.988,180.141 339.655,185.808 338.5,191.5 Z"/></g>
<g><path style="opacity:1" fill="#f9cdcd" d="M 172.5,191.5 C 227.833,192.833 283.167,192.833 338.5,191.5C 338.167,192.833 337.833,194.167 337.5,195.5C 282.833,195.5 228.167,195.5 173.5,195.5C 173.167,194.167 172.833,192.833 172.5,191.5 Z"/></g>
<g><path style="opacity:1" fill="#f9cdc8" d="M 173.5,195.5 C 228.167,195.5 282.833,195.5 337.5,195.5C 337.5,196.5 337.5,197.5 337.5,198.5C 282.833,198.5 228.167,198.5 173.5,198.5C 173.5,197.5 173.5,196.5 173.5,195.5 Z"/></g>
<g><path style="opacity:1" fill="#626996" d="M 86.5,192.5 C 88.7775,198.728 90.7775,205.061 92.5,211.5C 81.5,211.5 70.5,211.5 59.5,211.5C 56.7017,205.438 54.7017,199.104 53.5,192.5C 64.4019,191.181 75.4019,191.181 86.5,192.5 Z"/></g>
<g><path style="opacity:1" fill="#626996" d="M 457.5,192.5 C 456.27,199.184 454.27,205.518 451.5,211.5C 440.5,211.5 429.5,211.5 418.5,211.5C 420.223,205.06 422.223,198.727 424.5,192.5C 435.598,191.181 446.598,191.181 457.5,192.5 Z"/></g>
<g><path style="opacity:1" fill="#f9c7c6" d="M 173.5,198.5 C 228.167,198.5 282.833,198.5 337.5,198.5C 337.037,201.33 336.371,203.997 335.5,206.5C 327.833,206.5 320.167,206.5 312.5,206.5C 312.884,204.335 312.217,202.668 310.5,201.5C 306.447,203.527 302.447,205.527 298.5,207.5C 269.671,206.502 240.671,206.169 211.5,206.5C 207.736,205.119 204.069,203.453 200.5,201.5C 198.783,202.668 198.116,204.335 198.5,206.5C 190.414,206.801 182.414,206.467 174.5,205.5C 174.702,203.05 174.369,200.717 173.5,198.5 Z"/></g>
<g><path style="opacity:1" fill="#faf8f8" d="M 211.5,206.5 C 219.637,211.405 227.97,216.071 236.5,220.5C 228.577,229.814 218.91,231.981 207.5,227C 204.283,225.285 201.95,222.785 200.5,219.5C 198.72,215.404 198.054,211.071 198.5,206.5C 198.116,204.335 198.783,202.668 200.5,201.5C 204.069,203.453 207.736,205.119 211.5,206.5 Z"/></g>
<g><path style="opacity:1" fill="#faf8f8" d="M 312.5,206.5 C 312.946,211.071 312.28,215.404 310.5,219.5C 306.306,226.586 299.973,229.919 291.5,229.5C 284.268,229.385 278.602,226.385 274.5,220.5C 282.535,216.151 290.535,211.817 298.5,207.5C 302.447,205.527 306.447,203.527 310.5,201.5C 312.217,202.668 312.884,204.335 312.5,206.5 Z"/></g>
<g><path style="opacity:1" fill="#5c6395" d="M 59.5,211.5 C 70.5,211.5 81.5,211.5 92.5,211.5C 97.435,224.632 102.768,237.632 108.5,250.5C 100.484,256.344 92.3172,262.01 84,267.5C 73.9572,249.739 65.7906,231.072 59.5,211.5 Z"/></g>
<g><path style="opacity:1" fill="#5c6395" d="M 418.5,211.5 C 429.5,211.5 440.5,211.5 451.5,211.5C 445.203,231.083 437.037,249.75 427,267.5C 418.683,262.01 410.516,256.344 402.5,250.5C 408.25,237.561 413.584,224.561 418.5,211.5 Z"/></g>
<g><path style="opacity:1" fill="#f9bcbc" d="M 174.5,205.5 C 182.414,206.467 190.414,206.801 198.5,206.5C 198.054,211.071 198.72,215.404 200.5,219.5C 192.833,219.5 185.167,219.5 177.5,219.5C 176.509,214.952 175.509,210.285 174.5,205.5 Z"/></g>
<g><path style="opacity:1" fill="#fabdbd" d="M 211.5,206.5 C 240.671,206.169 269.671,206.502 298.5,207.5C 290.535,211.817 282.535,216.151 274.5,220.5C 261.833,219.167 249.167,219.167 236.5,220.5C 227.97,216.071 219.637,211.405 211.5,206.5 Z"/></g>
<g><path style="opacity:1" fill="#f9bcbc" d="M 312.5,206.5 C 320.167,206.5 327.833,206.5 335.5,206.5C 335.376,211.049 334.709,215.382 333.5,219.5C 325.833,219.5 318.167,219.5 310.5,219.5C 312.28,215.404 312.946,211.071 312.5,206.5 Z"/></g>
<g><path style="opacity:1" fill="#f9b1b2" d="M 177.5,219.5 C 185.167,219.5 192.833,219.5 200.5,219.5C 201.95,222.785 204.283,225.285 207.5,227C 218.91,231.981 228.577,229.814 236.5,220.5C 249.167,219.167 261.833,219.167 274.5,220.5C 278.602,226.385 284.268,229.385 291.5,229.5C 299.973,229.919 306.306,226.586 310.5,219.5C 318.167,219.5 325.833,219.5 333.5,219.5C 333.857,223.664 332.19,226.831 328.5,229C 325.941,230.777 323.274,232.277 320.5,233.5C 277.167,233.5 233.833,233.5 190.5,233.5C 185.775,231.377 181.608,228.377 178,224.5C 177.506,222.866 177.34,221.199 177.5,219.5 Z"/></g>
<g><path style="opacity:1" fill="#f6a4aa" d="M 190.5,233.5 C 233.833,233.5 277.167,233.5 320.5,233.5C 311.117,240.52 300.45,243.853 288.5,243.5C 280.857,243.471 273.524,241.971 266.5,239C 254.798,237.483 243.464,238.816 232.5,243C 216.968,245.864 202.968,242.698 190.5,233.5 Z"/></g>
<g><path style="opacity:1" fill="#f3d5a6" d="M 153.5,253.5 C 144.765,251.572 135.765,250.905 126.5,251.5C 133.338,246.153 140.505,241.153 148,236.5C 151.13,241.723 152.963,247.389 153.5,253.5 Z"/></g>
<g><path style="opacity:1" fill="#747ca7" d="M 324.5,268.5 C 278.664,268.168 232.997,268.501 187.5,269.5C 184.551,260.788 182.217,251.788 180.5,242.5C 180.833,241.833 181.167,241.167 181.5,240.5C 201.953,254.573 223.953,257.407 247.5,249C 253.167,248.333 258.833,248.333 264.5,249C 287.674,257.267 309.34,254.433 329.5,240.5C 329.833,240.833 330.167,241.167 330.5,241.5C 328.497,250.507 326.497,259.507 324.5,268.5 Z"/></g>
<g><path style="opacity:1" fill="#f7d6a0" d="M 406.5,266.5 C 391.657,266.171 376.99,266.504 362.5,267.5C 358.332,266.17 356.332,263.336 356.5,259C 357.044,250.984 359.211,243.484 363,236.5C 377.679,246.363 392.179,256.363 406.5,266.5 Z"/></g>
<g><path style="opacity:1" fill="#f7d39d" d="M 126.5,251.5 C 135.765,250.905 144.765,251.572 153.5,253.5C 156.116,259.878 154.449,264.545 148.5,267.5C 134.01,266.504 119.343,266.171 104.5,266.5C 111.449,261.018 118.783,256.018 126.5,251.5 Z"/></g>
<g><path style="opacity:1" fill="#f8d295" d="M 104.5,266.5 C 119.343,266.171 134.01,266.504 148.5,267.5C 144.777,270.551 140.777,273.218 136.5,275.5C 122.167,274.833 107.833,274.167 93.5,273.5C 96.9974,270.917 100.664,268.584 104.5,266.5 Z"/></g>
<g><path style="opacity:1" fill="#f8d295" d="M 406.5,266.5 C 410.308,268.573 413.974,270.906 417.5,273.5C 403.167,274.167 388.833,274.833 374.5,275.5C 370.205,273.192 366.205,270.526 362.5,267.5C 376.99,266.504 391.657,266.171 406.5,266.5 Z"/></g>
<g><path style="opacity:1" fill="#6e75a2" d="M 324.5,268.5 C 323.077,274.769 321.077,280.769 318.5,286.5C 276.67,285.501 234.67,285.168 192.5,285.5C 190.057,280.5 188.39,275.166 187.5,269.5C 232.997,268.501 278.664,268.168 324.5,268.5 Z"/></g>
<g><path style="opacity:1" fill="#f7cc8e" d="M 93.5,273.5 C 107.833,274.167 122.167,274.833 136.5,275.5C 132.447,278.883 128.114,281.883 123.5,284.5C 109.01,283.504 94.3428,283.171 79.5,283.5C 83.8648,279.811 88.5315,276.478 93.5,273.5 Z"/></g>
<g><path style="opacity:1" fill="#f7cc8e" d="M 417.5,273.5 C 422.469,276.478 427.135,279.811 431.5,283.5C 416.657,283.171 401.99,283.504 387.5,284.5C 382.886,281.883 378.553,278.883 374.5,275.5C 388.833,274.833 403.167,274.167 417.5,273.5 Z"/></g>
<g><path style="opacity:1" fill="#686f9c" d="M 192.5,285.5 C 234.67,285.168 276.67,285.501 318.5,286.5C 316.784,292.935 313.784,298.602 309.5,303.5C 273.671,302.502 237.671,302.168 201.5,302.5C 197.267,297.57 194.267,291.903 192.5,285.5 Z"/></g>
<g><path style="opacity:1" fill="#5c6395" d="M 135.5,288.5 C 136.496,288.414 137.329,288.748 138,289.5C 145.296,302.598 153.463,315.098 162.5,327C 149.163,335.44 134.83,341.107 119.5,344C 112.411,334.49 106.077,324.49 100.5,314C 111.849,304.999 123.516,296.499 135.5,288.5 Z"/></g>
<g><path style="opacity:1" fill="#5c6395" d="M 373.5,288.5 C 374.922,288.709 376.255,289.209 377.5,290C 388.708,297.765 399.708,305.765 410.5,314C 404.591,325.007 397.591,335.174 389.5,344.5C 375.036,341.098 361.703,335.265 349.5,327C 358.387,314.727 366.387,301.893 373.5,288.5 Z"/></g>
<g><path style="opacity:1" fill="#f7c782" d="M 79.5,283.5 C 94.3428,283.171 109.01,283.504 123.5,284.5C 112.467,292.856 101.134,300.856 89.5,308.5C 80.6822,307.507 71.6822,307.173 62.5,307.5C 60.1647,304.5 58.6647,301.166 58,297.5C 65.1098,292.698 72.2764,288.032 79.5,283.5 Z"/></g>
<g><path style="opacity:1" fill="#f8c782" d="M 431.5,283.5 C 438.724,288.032 445.89,292.698 453,297.5C 452.335,301.166 450.835,304.5 448.5,307.5C 439.318,307.173 430.318,307.507 421.5,308.5C 409.866,300.856 398.533,292.856 387.5,284.5C 401.99,283.504 416.657,283.171 431.5,283.5 Z"/></g>
<g><path style="opacity:1" fill="#626996" d="M 201.5,302.5 C 237.671,302.168 273.671,302.502 309.5,303.5C 306.31,310.026 301.976,315.692 296.5,320.5C 269.5,319.167 242.5,319.167 215.5,320.5C 209.694,315.364 205.027,309.364 201.5,302.5 Z"/></g>
<g><path style="opacity:1" fill="#f6be74" d="M 62.5,307.5 C 71.6822,307.173 80.6822,307.507 89.5,308.5C 83.8514,312.475 78.1848,316.475 72.5,320.5C 68.3766,316.718 65.0433,312.385 62.5,307.5 Z"/></g>
<g><path style="opacity:1" fill="#f6be74" d="M 421.5,308.5 C 430.318,307.507 439.318,307.173 448.5,307.5C 446.256,312.579 442.756,316.579 438,319.5C 432.357,316.019 426.857,312.352 421.5,308.5 Z"/></g>
<g><path style="opacity:1" fill="#5c6395" d="M 396.5,404.5 C 302.5,404.5 208.5,404.5 114.5,404.5C 103.131,397.976 92.1306,390.809 81.5,383C 87.653,373.18 95.9863,365.846 106.5,361C 123.377,355.228 140.044,348.895 156.5,342C 168.856,335.158 180.523,327.325 191.5,318.5C 192.333,333.822 192.833,349.156 193,364.5C 196.294,367.311 199.294,366.978 202,363.5C 202.333,350.167 202.667,336.833 203,323.5C 217.435,339.137 234.935,349.803 255.5,355.5C 276.065,349.803 293.565,339.137 308,323.5C 308.333,336.833 308.667,350.167 309,363.5C 312.333,367.5 315.667,367.5 319,363.5C 319.333,348.5 319.667,333.5 320,318.5C 343.153,338.162 369.653,351.662 399.5,359C 412.054,363.753 422.054,371.587 429.5,382.5C 419.008,390.67 408.008,398.003 396.5,404.5 Z"/></g>
<g><path style="opacity:1" fill="#5c6395" d="M 296.5,320.5 C 284.924,332.625 270.924,340.625 254.5,344.5C 239.435,339.803 226.435,331.803 215.5,320.5C 242.5,319.167 269.5,319.167 296.5,320.5 Z"/></g>
<g><path style="opacity:1" fill="#5c6995" d="M 114.5,404.5 C 208.5,404.5 302.5,404.5 396.5,404.5C 395.101,405.89 393.434,406.89 391.5,407.5C 300.998,407.167 210.665,407.501 120.5,408.5C 118.118,407.649 116.118,406.316 114.5,404.5 Z"/></g>
<g><path style="opacity:1" fill="#636995" d="M 120.5,408.5 C 210.665,407.501 300.998,407.167 391.5,407.5C 384.698,411.738 377.698,415.738 370.5,419.5C 293.833,418.167 217.167,418.167 140.5,419.5C 133.833,415.833 127.167,412.167 120.5,408.5 Z"/></g>
<g><path style="opacity:1" fill="#63699b" d="M 140.5,419.5 C 217.167,418.167 293.833,418.167 370.5,419.5C 366.291,421.771 361.958,423.771 357.5,425.5C 289.5,425.5 221.5,425.5 153.5,425.5C 149.042,423.771 144.709,421.771 140.5,419.5 Z"/></g>
<g><path style="opacity:1" fill="#696f9b" d="M 153.5,425.5 C 221.5,425.5 289.5,425.5 357.5,425.5C 349.142,430.01 340.475,434.01 331.5,437.5C 280.5,436.167 229.5,436.167 178.5,437.5C 169.98,433.739 161.647,429.739 153.5,425.5 Z"/></g>
<g><path style="opacity:1" fill="#6b6fa1" d="M 178.5,437.5 C 229.5,436.167 280.5,436.167 331.5,437.5C 324.167,440.5 316.833,443.5 309.5,446.5C 273.833,445.167 238.167,445.167 202.5,446.5C 194.345,443.893 186.345,440.893 178.5,437.5 Z"/></g>
<g><path style="opacity:1" fill="#6f75a2" d="M 309.5,446.5 C 296.683,451.161 283.683,455.328 270.5,459C 261.24,461.738 251.907,462.072 242.5,460C 228.91,455.97 215.577,451.47 202.5,446.5C 238.167,445.167 273.833,445.167 309.5,446.5 Z"/></g>
</svg>
