<?xml version="1.0" encoding="UTF-8"?>
<!DOCTYPE svg PUBLIC "-//W3C//DTD SVG 1.1//EN" "http://www.w3.org/Graphics/SVG/1.1/DTD/svg11.dtd">
<svg xmlns="http://www.w3.org/2000/svg" version="1.1" width="512px" height="512px" style="shape-rendering:geometricPrecision; text-rendering:geometricPrecision; image-rendering:optimizeQuality; fill-rule:evenodd; clip-rule:evenodd" xmlns:xlink="http://www.w3.org/1999/xlink">
<g><path style="opacity:1" fill="#39394c" d="M 252.5,34.5 C 258.048,33.5434 261.215,35.8768 262,41.5C 279.476,90.0961 296.642,138.763 313.5,187.5C 295.725,237.323 277.058,286.823 257.5,336C 252.661,337.716 249.494,336.216 248,331.5C 229.972,281.946 211.806,232.446 193.5,183C 212.508,133.163 232.175,83.6634 252.5,34.5 Z"/></g>
<g><path style="opacity:1" fill="#a4b5f4" d="M 262.5,73.5 C 256.554,77.306 250.221,80.306 243.5,82.5C 247.229,72.8175 251.062,63.1508 255,53.5C 258.188,59.8973 260.688,66.564 262.5,73.5 Z"/></g>
<g><path style="opacity:1" fill="#38384b" d="M 365.5,75.5 C 368.119,75.2317 370.619,75.565 373,76.5C 378.72,86.6068 383.887,96.9401 388.5,107.5C 384.391,117.72 379.725,127.72 374.5,137.5C 372.417,139.604 370.083,139.938 367.5,138.5C 360.615,128.631 354.615,118.297 349.5,107.5C 354.293,96.5802 359.627,85.9136 365.5,75.5 Z"/></g>
<g><path style="opacity:1" fill="#abbff7" d="M 262.5,73.5 C 263.871,75.936 264.871,78.6027 265.5,81.5C 256.37,85.8986 247.37,90.5653 238.5,95.5C 239.972,91.0834 241.638,86.7501 243.5,82.5C 250.221,80.306 256.554,77.306 262.5,73.5 Z"/></g>
<g><path style="opacity:1" fill="#38384c" d="M 127.5,81.5 C 129.582,81.472 131.416,82.1387 133,83.5C 139.798,98.734 146.298,114.067 152.5,129.5C 147.439,147.853 141.106,165.686 133.5,183C 129.199,184.266 126.366,182.766 125,178.5C 118.164,162.162 111.33,145.828 104.5,129.5C 110.664,115.172 116.83,100.838 123,86.5C 124.025,84.313 125.525,82.6464 127.5,81.5 Z"/></g>
<g><path style="opacity:1" fill="#adc6f7" d="M 265.5,81.5 C 267.072,84.2154 268.072,87.2154 268.5,90.5C 256.703,96.2317 245.037,102.232 233.5,108.5C 234.892,104.051 236.559,99.7181 238.5,95.5C 247.37,90.5653 256.37,85.8986 265.5,81.5 Z"/></g>
<g><path style="opacity:1" fill="#b2d0f8" d="M 268.5,90.5 C 271.068,95.5254 273.068,100.859 274.5,106.5C 257.592,114.287 240.925,122.621 224.5,131.5C 227.264,123.654 230.264,115.988 233.5,108.5C 245.037,102.232 256.703,96.2317 268.5,90.5 Z"/></g>
<g><path style="opacity:1" fill="#b2d3f6" d="M 377.5,106.5 C 371.833,107.833 366.167,107.833 360.5,106.5C 363.053,101.062 365.887,95.7287 369,90.5C 372.113,95.7287 374.947,101.062 377.5,106.5 Z"/></g>
<g><path style="opacity:1" fill="#b4d8f8" d="M 274.5,106.5 C 275.871,108.936 276.871,111.603 277.5,114.5C 276.883,114.389 276.383,114.056 276,113.5C 257.061,123.385 238.227,133.385 219.5,143.5C 220.796,139.261 222.462,135.261 224.5,131.5C 240.925,122.621 257.592,114.287 274.5,106.5 Z"/></g>
<g><path style="opacity:1" fill="#aac4f3" d="M 360.5,106.5 C 366.167,107.833 371.833,107.833 377.5,106.5C 378.043,106.56 378.376,106.893 378.5,107.5C 375.921,112.992 373.088,118.325 370,123.5C 366.419,118.672 363.085,113.672 360,108.5C 359.308,107.563 359.475,106.897 360.5,106.5 Z"/></g>
<g><path style="opacity:1" fill="#bae0f8" d="M 277.5,114.5 C 279.109,118.054 280.442,121.721 281.5,125.5C 280.883,125.389 280.383,125.056 280,124.5C 258.017,136.574 235.85,148.241 213.5,159.5C 215.301,154.096 217.301,148.763 219.5,143.5C 238.227,133.385 257.061,123.385 276,113.5C 276.383,114.056 276.883,114.389 277.5,114.5 Z"/></g>
<g><path style="opacity:1" fill="#7d86d9" d="M 128.5,99.5 C 133.802,109.277 138.469,119.444 142.5,130C 138.53,141.576 134.364,153.076 130,164.5C 124.872,152.949 120.039,141.282 115.5,129.5C 119.45,119.312 123.783,109.312 128.5,99.5 Z"/></g>
<g><path style="opacity:1" fill="#c5e6f9" d="M 281.5,125.5 C 283.893,131.011 285.893,136.677 287.5,142.5C 260.73,155.385 234.397,169.051 208.5,183.5C 206.8,182.984 205.467,181.984 204.5,180.5C 207.33,173.317 210.33,166.317 213.5,159.5C 235.85,148.241 258.017,136.574 280,124.5C 280.383,125.056 280.883,125.389 281.5,125.5 Z"/></g>
<g><path style="opacity:1" fill="#d2ecf9" d="M 287.5,142.5 C 289.896,148.022 291.896,153.689 293.5,159.5C 270.062,170.718 247.062,182.718 224.5,195.5C 218.8,191.984 213.467,187.984 208.5,183.5C 234.397,169.051 260.73,155.385 287.5,142.5 Z"/></g>
<g><path style="opacity:1" fill="#def2f9" d="M 293.5,159.5 C 295.875,164.953 297.875,170.619 299.5,176.5C 279.952,186.039 260.619,196.039 241.5,206.5C 240.702,206.957 240.369,207.624 240.5,208.5C 235.127,204.156 229.794,199.823 224.5,195.5C 247.062,182.718 270.062,170.718 293.5,159.5 Z"/></g>
<g><path style="opacity:1" fill="#e9f7f7" d="M 299.5,176.5 C 301.442,179.504 302.275,182.838 302,186.5C 287.167,197.333 272.333,208.167 257.5,219C 255.711,219.52 254.044,219.187 252.5,218C 248.625,214.619 244.625,211.453 240.5,208.5C 240.369,207.624 240.702,206.957 241.5,206.5C 260.619,196.039 279.952,186.039 299.5,176.5 Z"/></g>
<g><path style="opacity:1" fill="#38384b" d="M 354.5,185.5 C 356.679,185.84 358.512,186.84 360,188.5C 365.4,200.63 370.234,212.964 374.5,225.5C 370.289,236.925 365.789,248.259 361,259.5C 359.579,265.168 356.246,266.834 351,264.5C 344.889,251.279 339.056,237.945 333.5,224.5C 338.997,212.838 344.497,201.172 350,189.5C 351.196,187.714 352.696,186.381 354.5,185.5 Z"/></g>
<g><path style="opacity:1" fill="#38384b" d="M 450.5,199.5 C 467.575,198.408 475.408,206.408 474,223.5C 469.832,237.449 460.998,241.615 447.5,236C 437.741,227.179 436.241,217.013 443,205.5C 445.478,203.361 447.978,201.361 450.5,199.5 Z"/></g>
<g><path style="opacity:1" fill="#b0cdf4" d="M 231.5,213.5 C 227.223,214.522 222.889,215.355 218.5,216C 217.944,216.383 217.611,216.883 217.5,217.5C 213.909,210.894 211.409,203.894 210,196.5C 217.066,202.411 224.233,208.078 231.5,213.5 Z"/></g>
<g><path style="opacity:1" fill="#737bcf" d="M 454.5,208.5 C 462.847,209.505 466.014,214.172 464,222.5C 462.496,228.057 458.996,229.89 453.5,228C 446.631,221.07 446.965,214.57 454.5,208.5 Z"/></g>
<g><path style="opacity:1" fill="#747bd0" d="M 354.5,202.5 C 358.198,209.9 361.532,217.567 364.5,225.5C 360.781,232.938 357.614,240.605 355,248.5C 351.239,240.642 347.739,232.642 344.5,224.5C 347.842,217.15 351.176,209.817 354.5,202.5 Z"/></g>
<g><path style="opacity:1" fill="#38384c" d="M 169.5,217.5 C 172.325,217.081 174.491,218.081 176,220.5C 182.862,232.722 189.028,245.222 194.5,258C 194.333,259.167 194.167,260.333 194,261.5C 188.078,272.343 182.411,283.343 177,294.5C 174,297.167 171,297.167 168,294.5C 161.667,283.833 155.333,273.167 149,262.5C 147.543,259.634 147.21,256.634 148,253.5C 153.254,244.661 158.254,235.661 163,226.5C 164.711,223.041 166.877,220.041 169.5,217.5 Z"/></g>
<g><path style="opacity:1" fill="#b8ddf8" d="M 231.5,213.5 C 237.137,217.657 242.804,221.824 248.5,226C 250.037,227.11 250.703,228.61 250.5,230.5C 241.485,231.725 232.485,233.058 223.5,234.5C 220.731,229.199 218.731,223.532 217.5,217.5C 217.611,216.883 217.944,216.383 218.5,216C 222.889,215.355 227.223,214.522 231.5,213.5 Z"/></g>
<g><path style="opacity:1" fill="#787fd3" d="M 284.5,237.5 C 276.555,235.889 268.722,233.889 261,231.5C 260.83,242.674 260.33,253.674 259.5,264.5C 259.333,252.495 259.5,240.495 260,228.5C 272.667,219.167 285.333,209.833 298,200.5C 293.824,212.854 289.324,225.187 284.5,237.5 Z"/></g>
<g><path style="opacity:1" fill="#38384b" d="M 50.5,224.5 C 65.392,224.893 72.5587,232.56 72,247.5C 67.3946,264.144 57.5613,268.31 42.5,260C 34.5,249.667 34.5,239.333 42.5,229C 45.0993,227.205 47.7659,225.705 50.5,224.5 Z"/></g>
<g><path style="opacity:1" fill="#c3e4f6" d="M 250.5,230.5 C 250.829,245.01 250.496,259.343 249.5,273.5C 249.5,271.167 249.5,268.833 249.5,266.5C 249.5,260.5 249.5,254.5 249.5,248.5C 244.125,249.007 238.792,249.84 233.5,251C 231.881,251.236 230.881,252.069 230.5,253.5C 227.932,247.342 225.598,241.009 223.5,234.5C 232.485,233.058 241.485,231.725 250.5,230.5 Z"/></g>
<g><path style="opacity:1" fill="#7a81d6" d="M 51.5,234.5 C 62.2551,236.009 65.0884,241.676 60,251.5C 55.6146,255.756 51.6146,255.423 48,250.5C 45.2477,244.236 46.4144,238.903 51.5,234.5 Z"/></g>
<g><path style="opacity:1" fill="#badff6" d="M 183.5,256.5 C 175.35,257.493 167.017,257.826 158.5,257.5C 161.7,249.446 165.867,241.446 171,233.5C 175.7,240.901 179.866,248.568 183.5,256.5 Z"/></g>
<g><path style="opacity:1" fill="#d1ecf9" d="M 249.5,266.5 C 244.778,266.374 240.445,267.374 236.5,269.5C 233.987,264.453 231.987,259.12 230.5,253.5C 230.881,252.069 231.881,251.236 233.5,251C 238.792,249.84 244.125,249.007 249.5,248.5C 249.5,254.5 249.5,260.5 249.5,266.5 Z"/></g>
<g><path style="opacity:1" fill="#b3d6f8" d="M 183.5,256.5 C 184.043,256.56 184.376,256.893 184.5,257.5C 182.487,261.527 180.487,265.527 178.5,269.5C 174.167,269.5 169.833,269.5 165.5,269.5C 162.665,265.836 160.332,261.836 158.5,257.5C 167.017,257.826 175.35,257.493 183.5,256.5 Z"/></g>
<g><path style="opacity:1" fill="#858ee0" d="M 284.5,237.5 C 276.303,258.756 268.303,280.089 260.5,301.5C 259.513,296.695 259.179,291.695 259.5,286.5C 259.5,279.167 259.5,271.833 259.5,264.5C 260.33,253.674 260.83,242.674 261,231.5C 268.722,233.889 276.555,235.889 284.5,237.5 Z"/></g>
<g><path style="opacity:1" fill="#abc7f3" d="M 165.5,269.5 C 169.833,269.5 174.167,269.5 178.5,269.5C 176.6,273.633 174.433,277.633 172,281.5C 169.554,277.606 167.388,273.606 165.5,269.5 Z"/></g>
<g><path style="opacity:1" fill="#e0f2f7" d="M 249.5,266.5 C 249.5,268.833 249.5,271.167 249.5,273.5C 249.667,284.172 249.5,294.839 249,305.5C 244.723,293.502 240.557,281.502 236.5,269.5C 240.445,267.374 244.778,266.374 249.5,266.5 Z"/></g>
<g><path style="opacity:1" fill="#39394c" d="M 49.5,286.5 C 58.1979,285.264 64.3646,288.597 68,296.5C 68.5545,305.718 70.2211,314.718 73,323.5C 74.506,328.175 77.6727,330.842 82.5,331.5C 88.5855,329.623 94.2522,326.956 99.5,323.5C 101.473,320.754 102.973,317.754 104,314.5C 105.505,307.105 107.172,299.772 109,292.5C 116.621,284.509 124.287,284.509 132,292.5C 133.701,297.732 135.034,303.066 136,308.5C 137.167,311 139,312.833 141.5,314C 161.101,312.542 180.767,312.209 200.5,313C 212.994,315.501 216.827,322.667 212,334.5C 210.442,336.359 208.609,337.859 206.5,339C 179.727,340.138 153.394,344.138 127.5,351C 118.179,353.885 109.179,357.551 100.5,362C 86.5422,374.124 84.0422,388.291 93,404.5C 101.9,414.88 112.734,422.713 125.5,428C 132.604,431.369 139.937,433.703 147.5,435C 149.886,433.113 151.053,430.613 151,427.5C 151.821,424.446 151.655,421.446 150.5,418.5C 142.23,414.955 135.397,409.622 130,402.5C 125.347,391.451 127.847,382.284 137.5,375C 154.647,363.727 173.314,357.727 193.5,357C 194.833,359.667 194.833,362.333 193.5,365C 177.414,368.188 162.081,373.521 147.5,381C 135.999,387.22 134.999,394.554 144.5,403C 147.005,404.753 149.671,406.253 152.5,407.5C 153.805,402.536 154.971,397.536 156,392.5C 161.223,384.819 168.057,382.985 176.5,387C 179.135,388.961 180.969,391.461 182,394.5C 180.864,410.961 184.864,425.961 194,439.5C 197.938,444.88 203.104,448.38 209.5,450C 216.833,450.333 224.167,450.667 231.5,451C 237.537,452.866 240.871,457.033 241.5,463.5C 240.817,469.377 237.817,473.543 232.5,476C 195.977,478.153 159.977,474.82 124.5,466C 101.703,459.771 81.3701,449.104 63.5,434C 51.9702,423.444 44.1368,410.61 40,395.5C 39.3333,362.5 39.3333,329.5 40,296.5C 42.0223,291.98 45.189,288.647 49.5,286.5 Z"/></g>
<g><path style="opacity:1" fill="#38384c" d="M 389.5,286.5 C 395.816,285.576 400.983,287.576 405,292.5C 406.293,303.339 409.293,313.673 414,323.5C 419.202,327.124 424.868,329.791 431,331.5C 435.044,330.984 438.044,328.984 440,325.5C 443.381,316.129 445.381,306.462 446,296.5C 450.824,286.447 458.324,283.947 468.5,289C 470.378,290.543 471.878,292.376 473,294.5C 474.645,327.773 474.979,361.106 474,394.5C 468.817,412.353 458.984,427.186 444.5,439C 424.155,454.014 401.488,464.014 376.5,469C 345.144,475.454 313.477,477.787 281.5,476C 272.724,471.338 270.558,464.504 275,455.5C 276.952,453.106 279.452,451.606 282.5,451C 302.658,454.921 316.991,447.755 325.5,429.5C 325.167,429.167 324.833,428.833 324.5,428.5C 301.296,433.606 277.796,435.939 254,435.5C 236.732,435.761 219.566,434.595 202.5,432C 198.943,429.419 198.61,426.419 201.5,423C 224.447,424.862 247.447,425.529 270.5,425C 289.571,424.262 308.405,421.762 327,417.5C 328.326,417.245 329.326,416.578 330,415.5C 330.718,407.419 331.718,399.419 333,391.5C 339.04,383.894 346.206,382.727 354.5,388C 356.041,389.579 357.208,391.413 358,393.5C 360.156,405.415 361.823,417.415 363,429.5C 363.346,431.848 364.513,433.681 366.5,435C 385.535,430.899 402.369,422.399 417,409.5C 430.212,393.205 429.379,377.705 414.5,363C 393.78,352.317 371.78,345.65 348.5,343C 334.826,341.556 321.159,340.223 307.5,339C 297.744,331.786 297.077,323.786 305.5,315C 308.101,314.08 310.768,313.413 313.5,313C 332.396,312.005 351.229,312.505 370,314.5C 373.814,314.019 376.48,312.019 378,308.5C 379,303.5 380,298.5 381,293.5C 383.217,290.323 386.05,287.989 389.5,286.5 Z"/></g>
<g><path style="opacity:1" fill="#606492" d="M 259.5,286.5 C 259.179,291.695 259.513,296.695 260.5,301.5C 260.539,302.756 260.039,303.756 259,304.5C 258.181,298.319 258.347,292.319 259.5,286.5 Z"/></g>
<g><path style="opacity:1" fill="#a0aaef" d="M 181.5,330.5 C 156.81,331.157 132.477,330.49 108.5,328.5C 113.359,319.103 116.193,309.103 117,298.5C 119.333,295.833 121.667,295.833 124,298.5C 124.532,304.832 126.199,310.832 129,316.5C 131.264,319.433 134.098,321.6 137.5,323C 150.991,322.696 164.491,322.196 178,321.5C 186.198,321.528 194.365,322.028 202.5,323C 205.167,325.333 205.167,327.667 202.5,330C 195.508,330.5 188.508,330.666 181.5,330.5 Z"/></g>
<g><path style="opacity:1" fill="#a0aaef" d="M 405.5,329.5 C 380.005,330.498 354.339,330.831 328.5,330.5C 322.824,330.666 317.157,330.499 311.5,330C 308.833,327.667 308.833,325.333 311.5,323C 330.506,321.078 349.506,321.244 368.5,323.5C 377.37,324.317 383.536,320.651 387,312.5C 388,307.833 389,303.167 390,298.5C 392.333,295.833 394.667,295.833 397,298.5C 397.5,309.493 400.334,319.826 405.5,329.5 Z"/></g>
<g><path style="opacity:1" fill="#a1a7f2" d="M 108.5,328.5 C 132.477,330.49 156.81,331.157 181.5,330.5C 159.49,332.767 137.823,337.267 116.5,344C 101.556,347.822 89.889,355.988 81.5,368.5C 71.0131,367.506 60.3464,367.172 49.5,367.5C 49.3334,344.498 49.5,321.498 50,298.5C 52.6667,295.833 55.3333,295.833 58,298.5C 59.0758,309.467 61.4092,320.134 65,330.5C 69.8832,338.692 77.0498,342.192 86.5,341C 91.9161,338.861 97.2495,336.528 102.5,334C 105.023,332.64 107.023,330.807 108.5,328.5 Z"/></g>
<g><path style="opacity:1" fill="#a0a7f1" d="M 464.5,367.5 C 453.448,366.857 442.781,367.524 432.5,369.5C 424.904,357.007 413.904,348.841 399.5,345C 376.222,337.57 352.555,332.736 328.5,330.5C 354.339,330.831 380.005,330.498 405.5,329.5C 413.862,336.683 423.529,340.516 434.5,341C 441.331,339.67 446.164,335.837 449,329.5C 452.672,319.823 454.672,309.823 455,299.5C 457.706,296.022 460.706,295.689 464,298.5C 464.5,321.498 464.667,344.498 464.5,367.5 Z"/></g>
<g><path style="opacity:1" fill="#38374b" d="M 235.5,350.5 C 269.631,348.907 303.298,352.074 336.5,360C 351.601,363.299 364.768,370.132 376,380.5C 381.61,388.011 381.776,395.511 376.5,403C 372.327,404.914 369.66,403.581 368.5,399C 370.742,392.986 369.408,387.986 364.5,384C 347.898,373.909 329.898,367.576 310.5,365C 285.293,361.508 259.959,359.841 234.5,360C 231.636,356.376 231.969,353.209 235.5,350.5 Z"/></g>
<g><path style="opacity:1" fill="#37374a" d="M 210.5,352.5 C 218.486,351.998 220.486,355.165 216.5,362C 208.424,362.805 206.424,359.638 210.5,352.5 Z"/></g>
<g><path style="opacity:1" fill="#9aa1f1" d="M 49.5,367.5 C 60.3464,367.172 71.0131,367.506 81.5,368.5C 76.0183,381.316 76.3517,393.983 82.5,406.5C 73.25,405.528 63.9167,405.195 54.5,405.5C 52.7401,402.311 51.2401,398.978 50,395.5C 49.5002,386.173 49.3335,376.839 49.5,367.5 Z"/></g>
<g><path style="opacity:1" fill="#9aa1f0" d="M 464.5,367.5 C 464.666,376.173 464.5,384.84 464,393.5C 463.213,398.371 461.379,402.705 458.5,406.5C 449.682,405.507 440.682,405.173 431.5,405.5C 436.389,393.621 436.722,381.621 432.5,369.5C 442.781,367.524 453.448,366.857 464.5,367.5 Z"/></g>
<g><path style="opacity:1" fill="#949aeb" d="M 54.5,405.5 C 63.9167,405.195 73.25,405.528 82.5,406.5C 86.5483,413.387 91.8817,419.221 98.5,424C 108.956,430.894 119.956,436.728 131.5,441.5C 119.5,442.167 107.5,442.833 95.5,443.5C 78.0111,435.013 64.3444,422.346 54.5,405.5 Z"/></g>
<g><path style="opacity:1" fill="#949ae9" d="M 183.5,441.5 C 173.916,442.473 164.25,442.806 154.5,442.5C 156.893,440.264 158.727,437.597 160,434.5C 161.449,421.806 163.116,409.139 165,396.5C 167.333,393.833 169.667,393.833 172,396.5C 171.624,412.666 175.458,427.666 183.5,441.5 Z"/></g>
<g><path style="opacity:1" fill="#939ae9" d="M 357.5,441.5 C 348.682,442.493 339.682,442.827 330.5,442.5C 338.451,428.625 341.951,413.625 341,397.5C 343.367,394.068 346.034,393.735 349,396.5C 350.301,409.211 351.968,421.877 354,434.5C 354.959,436.953 356.126,439.286 357.5,441.5 Z"/></g>
<g><path style="opacity:1" fill="#949aea" d="M 431.5,405.5 C 440.682,405.173 449.682,405.507 458.5,406.5C 449.028,422.97 435.695,435.304 418.5,443.5C 405.677,442.505 392.677,442.171 379.5,442.5C 396.57,436.715 411.736,427.715 425,415.5C 427.426,412.309 429.593,408.975 431.5,405.5 Z"/></g>
<g><path style="opacity:1" fill="#8d94ea" d="M 131.5,441.5 C 135.859,443.26 140.359,444.593 145,445.5C 148.415,445.194 151.582,444.194 154.5,442.5C 164.25,442.806 173.916,442.473 183.5,441.5C 194.52,457.618 209.854,464.118 229.5,461C 231.527,462.396 231.86,464.062 230.5,466C 187.524,469.587 145.857,463.92 105.5,449C 101.944,447.392 98.6106,445.559 95.5,443.5C 107.5,442.833 119.5,442.167 131.5,441.5 Z"/></g>
<g><path style="opacity:1" fill="#8e95eb" d="M 357.5,441.5 C 360.577,443.368 363.91,444.701 367.5,445.5C 371.512,444.495 375.512,443.495 379.5,442.5C 392.677,442.171 405.677,442.505 418.5,443.5C 396.079,454.472 372.412,461.305 347.5,464C 326.219,466.291 304.886,466.958 283.5,466C 282.167,464.333 282.167,462.667 283.5,461C 290.833,460.667 298.167,460.333 305.5,460C 310.529,458.771 315.196,456.771 319.5,454C 323.398,450.271 327.065,446.438 330.5,442.5C 339.682,442.827 348.682,442.493 357.5,441.5 Z"/></g>
</svg>
