<?xml version="1.0" encoding="UTF-8"?>
<!DOCTYPE svg PUBLIC "-//W3C//DTD SVG 1.1//EN" "http://www.w3.org/Graphics/SVG/1.1/DTD/svg11.dtd">
<svg xmlns="http://www.w3.org/2000/svg" version="1.1" width="512px" height="512px" style="shape-rendering:geometricPrecision; text-rendering:geometricPrecision; image-rendering:optimizeQuality; fill-rule:evenodd; clip-rule:evenodd" xmlns:xlink="http://www.w3.org/1999/xlink">
<g><path style="opacity:1" fill="#39394c" d="M 244.5,176.5 C 245.028,175.279 245.695,174.113 246.5,173C 263.428,173.02 279.095,168.854 293.5,160.5C 314.087,149.02 328.92,132.353 338,110.5C 346.47,90.7144 350.637,70.0477 350.5,48.5C 315.632,47.6325 283.298,55.9659 253.5,73.5C 245.019,77.6432 237.686,83.3099 231.5,90.5C 217.724,105.829 211.724,123.829 213.5,144.5C 225.345,133.107 237.678,122.44 250.5,112.5C 258.508,107.164 266.508,101.83 274.5,96.5C 288.875,87.6445 303.875,79.8111 319.5,73C 323.021,72.3439 325.021,73.8439 325.5,77.5C 324.441,80.0682 322.774,82.2349 320.5,84C 301.417,98.5821 283.417,114.415 266.5,131.5C 251.745,144.919 238.078,159.252 225.5,174.5C 216.49,184.015 207.99,194.015 200,204.5C 193.863,211.553 186.363,213.386 177.5,210C 171.402,204.338 169.902,197.505 173,189.5C 181.542,177.285 191.209,165.951 202,155.5C 199.755,123.21 210.255,96.0435 233.5,74C 268.684,49.8297 307.684,38.1631 350.5,39C 353.903,39.1004 357.07,39.9337 360,41.5C 362.201,77.882 352.867,110.882 332,140.5C 310.21,168.481 281.71,181.981 246.5,181C 244.963,179.89 244.297,178.39 244.5,176.5 Z"/></g>
<g><path style="opacity:1" fill="#b2deb7" d="M 293.5,160.5 C 291.61,160.703 290.11,160.037 289,158.5C 281.289,149.627 273.789,140.627 266.5,131.5C 283.417,114.415 301.417,98.5821 320.5,84C 322.774,82.2349 324.441,80.0682 325.5,77.5C 325.021,73.8439 323.021,72.3439 319.5,73C 303.875,79.8111 288.875,87.6445 274.5,96.5C 266.501,89.8299 259.501,82.1633 253.5,73.5C 283.298,55.9659 315.632,47.6325 350.5,48.5C 350.637,70.0477 346.47,90.7144 338,110.5C 328.92,132.353 314.087,149.02 293.5,160.5 Z"/></g>
<g><path style="opacity:1" fill="#aed8b3" d="M 253.5,73.5 C 259.501,82.1633 266.501,89.8299 274.5,96.5C 266.508,101.83 258.508,107.164 250.5,112.5C 243.448,105.782 237.115,98.4487 231.5,90.5C 237.686,83.3099 245.019,77.6432 253.5,73.5 Z"/></g>
<g><path style="opacity:1" fill="#39394c" d="M 155.5,87.5 C 174.532,86.356 182.366,95.0226 179,113.5C 176.183,120.302 172.016,126.135 166.5,131C 154.243,136.087 142.243,141.754 130.5,148C 122.372,153.794 115.205,160.627 109,168.5C 99.6388,189.078 104.139,205.911 122.5,219C 142.975,228.229 164.475,232.729 187,232.5C 231.656,231.629 273.156,219.795 311.5,197C 321.838,191.166 331.838,184.833 341.5,178C 357.206,171.547 366.54,176.547 369.5,193C 368.87,195.89 368.037,198.724 367,201.5C 315.189,245.868 254.856,268.534 186,269.5C 149.69,270.039 115.19,262.539 82.5,247C 65,238.833 52.1667,226 44,208.5C 35.821,185.246 38.821,163.58 53,143.5C 79.6783,111.406 113.845,92.7391 155.5,87.5 Z"/></g>
<g><path style="opacity:1" fill="#a5d0ac" d="M 231.5,90.5 C 237.115,98.4487 243.448,105.782 250.5,112.5C 237.678,122.44 225.345,133.107 213.5,144.5C 211.724,123.829 217.724,105.829 231.5,90.5 Z"/></g>
<g><path style="opacity:1" fill="#def7c6" d="M 270.5,245.5 C 214.833,244.167 159.167,244.167 103.5,245.5C 83.8833,238.794 68.05,227.127 56,210.5C 44.8103,186.481 47.8103,164.481 65,144.5C 91.4053,115.381 124.239,99.8806 163.5,98C 165.931,98.2949 167.764,99.4616 169,101.5C 170.396,111.875 166.563,119.708 157.5,125C 135.672,130.848 117.506,142.348 103,159.5C 93.6029,173.914 91.9362,189.247 98,205.5C 103.229,217.728 112.062,226.228 124.5,231C 144.507,239.196 165.34,242.696 187,241.5C 229.436,241.599 269.269,231.433 306.5,211C 320.667,203.42 334.333,195.087 347.5,186C 352.212,184.557 356.045,185.723 359,189.5C 359.706,191.971 359.373,194.305 358,196.5C 332.252,218.632 303.086,234.965 270.5,245.5 Z"/></g>
<g><path style="opacity:1" fill="#39394c" d="M 397.5,120.5 C 419.696,123.345 437.862,133.345 452,150.5C 463.467,167.438 465.967,185.605 459.5,205C 471.01,222.212 474.51,241.045 470,261.5C 469.316,267.408 467.483,272.908 464.5,278C 478.935,314.495 471.269,345.495 441.5,371C 435.844,375.496 429.844,379.496 423.5,383C 413.879,385.108 407.379,381.608 404,372.5C 403.348,369.406 403.682,366.406 405,363.5C 416.895,350.379 423.895,335.046 426,317.5C 419.918,320.429 414.084,319.929 408.5,316C 404.388,311.996 402.888,307.163 404,301.5C 409.391,294.441 414.391,287.107 419,279.5C 422.037,273.395 424.037,267.062 425,260.5C 395.019,288.739 359.519,306.239 318.5,313C 283.718,319.278 248.718,320.945 213.5,318C 206.001,314.501 203.167,308.667 205,300.5C 207.066,295.374 210.9,292.541 216.5,292C 253.083,287.951 288.75,279.951 323.5,268C 349.646,258.182 372.146,243.015 391,222.5C 410.862,196.717 408.528,173.05 384,151.5C 377.114,135.954 381.614,125.62 397.5,120.5 Z"/></g>
<g><path style="opacity:1" fill="#def8c6" d="M 456.5,272.5 C 448.734,271.863 441.067,271.196 433.5,270.5C 434.116,266.137 434.95,261.803 436,257.5C 436.667,253.167 436.667,248.833 436,244.5C 435.424,242.148 433.924,241.148 431.5,241.5C 429.045,241.628 427.045,242.628 425.5,244.5C 411.5,244.5 397.5,244.5 383.5,244.5C 392.627,236.21 400.46,226.877 407,216.5C 419.922,189.112 414.922,165.445 392,145.5C 388.994,137.314 391.828,132.314 400.5,130.5C 425.165,135.403 442.332,149.403 452,172.5C 452.884,176.113 453.384,179.78 453.5,183.5C 452.311,192.228 451.144,200.894 450,209.5C 460.864,222.963 464.531,238.296 461,255.5C 459.999,261.329 458.499,266.996 456.5,272.5 Z"/></g>
<g><path style="opacity:1" fill="#a5d1ac" d="M 266.5,131.5 C 273.789,140.627 281.289,149.627 289,158.5C 290.11,160.037 291.61,160.703 293.5,160.5C 279.095,168.854 263.428,173.02 246.5,173C 245.695,174.113 245.028,175.279 244.5,176.5C 238.104,176.378 231.771,175.711 225.5,174.5C 238.078,159.252 251.745,144.919 266.5,131.5 Z"/></g>
<g><path style="opacity:1" fill="#749a81" d="M 216.5,168.5 C 213.833,166.833 211.167,165.167 208.5,163.5C 229.54,139.92 253.54,120.42 280.5,105C 270.833,114 261.167,123 251.5,132C 239.966,144.365 228.3,156.532 216.5,168.5 Z"/></g>
<g><path style="opacity:1" fill="#6f9281" d="M 208.5,163.5 C 211.167,165.167 213.833,166.833 216.5,168.5C 207.294,179.728 197.96,190.895 188.5,202C 182.667,202.833 180.167,200.333 181,194.5C 189.289,183.378 198.456,173.045 208.5,163.5 Z"/></g>
<g><path style="opacity:1" fill="#d6f5c5" d="M 103.5,245.5 C 159.167,244.167 214.833,244.167 270.5,245.5C 223.209,261.064 175.209,263.564 126.5,253C 118.66,250.958 110.993,248.458 103.5,245.5 Z"/></g>
<g><path style="opacity:1" fill="#d7f8c6" d="M 383.5,244.5 C 397.5,244.5 411.5,244.5 425.5,244.5C 417.347,255.658 407.347,264.658 395.5,271.5C 377.659,271.83 359.992,271.497 342.5,270.5C 357.012,263.082 370.679,254.416 383.5,244.5 Z"/></g>
<g><path style="opacity:1" fill="#39394c" d="M 67.5,265.5 C 77.4477,264.56 85.6144,267.893 92,275.5C 94.5372,283.971 97.5372,292.304 101,300.5C 112.003,315.438 126.503,325.604 144.5,331C 208.058,349.656 271.392,348.823 334.5,328.5C 343.092,329.591 347.758,334.424 348.5,343C 347.637,346.726 345.971,350.059 343.5,353C 305.432,379.276 263.098,392.109 216.5,391.5C 196.779,391.178 177.279,389.178 158,385.5C 162.123,396.312 169.289,404.812 179.5,411C 222.599,432.657 265.932,432.991 309.5,412C 322.193,407.743 329.527,412.076 331.5,425C 331.671,428.129 330.838,430.963 329,433.5C 304.965,457.593 275.798,470.426 241.5,472C 198.093,474.056 157.76,464.056 120.5,442C 91.0124,420.853 77.1791,392.02 79,355.5C 54.8587,336.558 44.5254,311.891 48,281.5C 51.7905,272.709 58.2905,267.376 67.5,265.5 Z"/></g>
<g><path style="opacity:1" fill="#cfefc5" d="M 433.5,270.5 C 441.067,271.196 448.734,271.863 456.5,272.5C 447.772,288.895 435.105,301.228 418.5,309.5C 414.844,309.021 413.344,307.021 414,303.5C 422.85,293.833 429.35,282.833 433.5,270.5 Z"/></g>
<g><path style="opacity:1" fill="#38384b" d="M 154.5,281.5 C 172.692,283.898 178.525,293.565 172,310.5C 163.389,318.309 153.889,319.476 143.5,314C 133.866,303.899 134.199,294.232 144.5,285C 147.776,283.308 151.109,282.141 154.5,281.5 Z"/></g>
<g><path style="opacity:1" fill="#cbf0c6" d="M 461.5,315.5 C 453.167,315.5 444.833,315.5 436.5,315.5C 436.338,313.473 436.505,311.473 437,309.5C 444.667,303.167 451.667,296.167 458,288.5C 459.453,291.298 460.453,294.298 461,297.5C 461.499,303.491 461.666,309.491 461.5,315.5 Z"/></g>
<g><path style="opacity:1" fill="#ccf0c6" d="M 99.5,315.5 C 86.5,315.5 73.5,315.5 60.5,315.5C 57.1613,306.468 55.6613,297.134 56,287.5C 59.7301,278.098 66.5635,274.265 76.5,276C 79.5616,277.061 82.0616,278.894 84,281.5C 85.8934,287.831 87.8934,294.164 90,300.5C 92.9956,305.651 96.1623,310.651 99.5,315.5 Z"/></g>
<g><path style="opacity:1" fill="#cdefc5" d="M 342.5,270.5 C 359.992,271.497 377.659,271.83 395.5,271.5C 385.846,278.333 375.512,284.166 364.5,289C 316.068,307.058 266.234,313.225 215,307.5C 214.137,305.251 214.637,303.418 216.5,302C 250.404,297.686 283.737,290.686 316.5,281C 325.316,277.786 333.982,274.286 342.5,270.5 Z"/></g>
<g><path style="opacity:1" fill="#c8ebc3" d="M 153.5,291.5 C 159.873,291.172 163.873,294.006 165.5,300C 163.718,306.729 159.385,309.062 152.5,307C 144.23,301.204 144.563,296.037 153.5,291.5 Z"/></g>
<g><path style="opacity:1" fill="#c6ebc6" d="M 60.5,315.5 C 73.5,315.5 86.5,315.5 99.5,315.5C 109.006,323.75 119.339,330.75 130.5,336.5C 111.833,336.5 93.1667,336.5 74.5,336.5C 68.298,330.612 63.6314,323.612 60.5,315.5 Z"/></g>
<g><path style="opacity:1" fill="#c6ebc6" d="M 436.5,315.5 C 444.833,315.5 453.167,315.5 461.5,315.5C 461.301,323.415 459.301,330.749 455.5,337.5C 448.018,336.508 440.352,336.175 432.5,336.5C 434.572,329.668 435.906,322.668 436.5,315.5 Z"/></g>
<g><path style="opacity:1" fill="#bfeabf" d="M 74.5,336.5 C 93.1667,336.5 111.833,336.5 130.5,336.5C 179.547,353.964 229.88,358.797 281.5,351C 299.288,348.011 316.788,343.845 334,338.5C 338.183,339.086 339.35,341.253 337.5,345C 329.767,350.867 321.433,355.7 312.5,359.5C 242.167,359.5 171.833,359.5 101.5,359.5C 94.0558,354.264 86.7225,348.764 79.5,343C 77.2101,341.223 75.5434,339.056 74.5,336.5 Z"/></g>
<g><path style="opacity:1" fill="#bee8bf" d="M 432.5,336.5 C 440.352,336.175 448.018,336.508 455.5,337.5C 450.98,347.539 444.313,356.039 435.5,363C 430.415,367.538 424.748,371.038 418.5,373.5C 414.5,373.337 413,371.337 414,367.5C 422.084,358.263 428.251,347.93 432.5,336.5 Z"/></g>
<g><path style="opacity:1" fill="#b9e4bf" d="M 101.5,359.5 C 171.833,359.5 242.167,359.5 312.5,359.5C 285.69,373.436 257.023,380.603 226.5,381C 191.866,382.008 157.866,377.841 124.5,368.5C 122.971,368.529 121.804,369.196 121,370.5C 120.242,372.769 120.409,374.936 121.5,377C 130.201,379.081 138.534,381.581 146.5,384.5C 128.136,383.847 110.136,384.513 92.5,386.5C 90.507,381.132 89.507,375.466 89.5,369.5C 89.1984,366.941 89.5318,364.607 90.5,362.5C 93.0072,365.036 96.0072,365.869 99.5,365C 101.155,363.556 101.822,361.722 101.5,359.5 Z"/></g>
<g><path style="opacity:1" fill="#677775" d="M 90.5,362.5 C 89.5318,364.607 89.1984,366.941 89.5,369.5C 88.1997,366.976 88.1997,364.309 89.5,361.5C 90.1067,361.624 90.44,361.957 90.5,362.5 Z"/></g>
<g><path style="opacity:1" fill="#b4e6c0" d="M 146.5,384.5 C 148.364,390.56 151.03,396.226 154.5,401.5C 136.007,402.497 117.341,402.83 98.5,402.5C 95.9469,397.39 93.9469,392.057 92.5,386.5C 110.136,384.513 128.136,383.847 146.5,384.5 Z"/></g>
<g><path style="opacity:1" fill="#aedfc0" d="M 154.5,401.5 C 168.675,417.256 186.008,427.923 206.5,433.5C 180.328,433.169 154.328,433.502 128.5,434.5C 115.783,426.414 105.783,415.748 98.5,402.5C 117.341,402.83 136.007,402.497 154.5,401.5 Z"/></g>
<g><path style="opacity:1" fill="#a7dfc0" d="M 276.5,454.5 C 242.5,454.5 208.5,454.5 174.5,454.5C 157.859,450.505 142.526,443.839 128.5,434.5C 154.328,433.502 180.328,433.169 206.5,433.5C 243.627,441.801 279.293,437.634 313.5,421C 319.493,419.332 321.993,421.498 321,427.5C 308.581,440.46 293.748,449.46 276.5,454.5 Z"/></g>
<g><path style="opacity:1" fill="#9fd3bc" d="M 174.5,454.5 C 208.5,454.5 242.5,454.5 276.5,454.5C 270.903,457.239 264.903,459.072 258.5,460C 229.916,464.536 201.916,462.703 174.5,454.5 Z"/></g>
</svg>
