<?xml version="1.0" encoding="UTF-8"?>
<!DOCTYPE svg PUBLIC "-//W3C//DTD SVG 1.1//EN" "http://www.w3.org/Graphics/SVG/1.1/DTD/svg11.dtd">
<svg xmlns="http://www.w3.org/2000/svg" version="1.1" width="512px" height="512px" style="shape-rendering:geometricPrecision; text-rendering:geometricPrecision; image-rendering:optimizeQuality; fill-rule:evenodd; clip-rule:evenodd" xmlns:xlink="http://www.w3.org/1999/xlink">
<g><path style="opacity:1" fill="#39384b" d="M 41.5,21.5 C 60.7981,20.3013 71.2981,29.3013 73,48.5C 88.8333,61 104.667,73.5 120.5,86C 128.266,82.8493 136.266,79.8493 144.5,77C 158.654,73.6963 172.988,72.6963 187.5,74C 194.402,74.7798 201.069,76.4464 207.5,79C 208.167,80.3333 208.833,81.6667 209.5,83C 205.172,93.4897 200.172,103.656 194.5,113.5C 186.895,113.634 179.229,113.801 171.5,114C 169.392,114.36 167.392,115.027 165.5,116C 183.167,133.667 200.833,151.333 218.5,169C 220.01,169.85 221.51,170.683 223,171.5C 236.915,168.654 250.748,168.988 264.5,172.5C 263.538,154.797 267.704,138.464 277,123.5C 292.546,107.62 305.379,89.787 315.5,70C 321.525,69.3254 326.358,71.4921 330,76.5C 334.584,82.7526 337.084,89.7526 337.5,97.5C 365.061,90.8159 391.061,94.6492 415.5,109C 426.6,113.674 437.934,114.507 449.5,111.5C 451.059,112.074 452.559,112.74 454,113.5C 455.265,121.708 453.265,129.042 448,135.5C 445.1,138.4 442.267,141.233 439.5,144C 453.636,161.705 458.802,181.872 455,204.5C 453.139,214.942 450.806,225.276 448,235.5C 445.723,245.274 446.056,254.941 449,264.5C 451.799,270.825 456.632,274.659 463.5,276C 469.799,277.665 476.132,277.998 482.5,277C 485.29,279.21 486.123,282.044 485,285.5C 458.611,321.892 426.111,328.725 387.5,306C 377.873,296.912 372.373,285.746 371,272.5C 370.333,266.167 370.333,259.833 371,253.5C 372.719,241.741 374.885,230.075 377.5,218.5C 376.649,199.809 366.982,191.309 348.5,193C 337.79,198.514 326.79,203.347 315.5,207.5C 324.907,222.548 331.074,238.882 334,256.5C 335.498,266.156 336.832,275.822 338,285.5C 386.387,333.221 434.72,380.888 483,428.5C 485.563,433.522 486.896,438.855 487,444.5C 487.771,456.671 488.604,468.838 489.5,481C 490.333,487.5 487.5,490.333 481,489.5C 468.838,488.604 456.671,487.771 444.5,487C 438.837,486.918 433.504,485.584 428.5,483C 398.693,453.526 369.193,423.693 340,393.5C 337.894,398.147 334.394,401.314 329.5,403C 254.217,410.08 187.217,437.08 128.5,484C 124.405,486.22 120.072,486.887 115.5,486C 110.878,484.573 106.545,482.573 102.5,480C 100.911,477.569 99.9114,474.903 99.5,472C 102.103,464.962 104.27,457.795 106,450.5C 107.213,435.201 107.88,419.868 108,404.5C 108.771,395.125 112.604,387.292 119.5,381C 123.344,378.578 127.01,375.911 130.5,373C 142.614,367.444 154.281,361.11 165.5,354C 186.498,338.483 197.832,317.65 199.5,291.5C 199,291.167 198.5,290.833 198,290.5C 172.016,299.828 146.516,310.328 121.5,322C 116.345,323.677 113.345,321.844 112.5,316.5C 114,301.841 115.5,287.174 117,272.5C 121.056,244.876 133.556,222.042 154.5,204C 141.667,191.167 128.833,178.333 116,165.5C 115.027,167.392 114.36,169.392 114,171.5C 113.801,179.229 113.634,186.895 113.5,194.5C 104.779,199.527 95.7788,204.027 86.5,208C 83.9009,208.769 81.4009,208.602 79,207.5C 76.4464,201.069 74.7798,194.402 74,187.5C 71.1152,164.8 75.1152,143.467 86,123.5C 86.6667,122.5 86.6667,121.5 86,120.5C 73.5,104.667 61,88.8333 48.5,73C 29.1411,71.3105 20.3077,60.8105 22,41.5C 24.6821,30.9858 31.1821,24.3191 41.5,21.5 Z"/></g>
<g><path style="opacity:1" fill="#ec6e57" d="M 60.5,40.5 C 51.2129,42.4241 41.8796,44.0907 32.5,45.5C 32.5,46.8333 32.5,48.1667 32.5,49.5C 31.3677,40.9738 35.0343,35.1404 43.5,32C 51.0967,31.1316 56.7633,33.9649 60.5,40.5 Z"/></g>
<g><path style="opacity:1" fill="#ef684f" d="M 60.5,40.5 C 63.4497,50.7657 59.783,57.9323 49.5,62C 40.2069,62.6927 34.5402,58.5261 32.5,49.5C 32.5,48.1667 32.5,46.8333 32.5,45.5C 41.8796,44.0907 51.2129,42.4241 60.5,40.5 Z"/></g>
<g><path style="opacity:1" fill="#636390" d="M 93.5,78.5 C 85.3198,79.1482 77.3198,80.1482 69.5,81.5C 65.6986,77.5268 62.0319,73.3602 58.5,69C 62.6667,66.1667 66.1667,62.6667 69,58.5C 77.0652,65.4092 85.2319,72.0759 93.5,78.5 Z"/></g>
<g><path style="opacity:1" fill="#585886" d="M 93.5,78.5 C 99.9848,83.2505 106.318,88.2505 112.5,93.5C 105.509,98.8246 99.1759,104.825 93.5,111.5C 85.0218,101.874 77.0218,91.8738 69.5,81.5C 77.3198,80.1482 85.3198,79.1482 93.5,78.5 Z"/></g>
<g><path style="opacity:1" fill="#f6567c" d="M 327.5,107.5 C 326.683,105.031 326.183,102.365 326,99.5C 309.724,123.74 293.224,147.74 276.5,171.5C 273.735,156.16 276.901,142.16 286,129.5C 299.648,115.856 310.981,100.523 320,83.5C 320.667,82.1667 321.333,82.1667 322,83.5C 326.658,90.8015 328.491,98.8015 327.5,107.5 Z"/></g>
<g><path style="opacity:1" fill="#f5bc7e" d="M 179.5,84.5 C 177.712,84.2148 176.045,84.5481 174.5,85.5C 175.167,91.1965 175.834,96.8631 176.5,102.5C 172.167,103.167 167.833,103.833 163.5,104.5C 162.172,97.973 161.172,91.3063 160.5,84.5C 166.963,83.2299 173.296,83.2299 179.5,84.5 Z"/></g>
<g><path style="opacity:1" fill="#f5b46e" d="M 179.5,84.5 C 185.399,84.2823 191.066,85.1157 196.5,87C 193.706,92.0883 191.039,97.2549 188.5,102.5C 184.63,102.751 180.63,102.751 176.5,102.5C 175.834,96.8631 175.167,91.1965 174.5,85.5C 176.045,84.5481 177.712,84.2148 179.5,84.5 Z"/></g>
<g><path style="opacity:1" fill="#f7c48b" d="M 160.5,84.5 C 161.172,91.3063 162.172,97.973 163.5,104.5C 159.571,106.148 155.571,107.815 151.5,109.5C 150.778,109.082 150.278,108.416 150,107.5C 149.748,101.47 149.248,95.4704 148.5,89.5C 148.685,88.4163 149.018,87.4163 149.5,86.5C 153.071,85.3578 156.738,84.6911 160.5,84.5 Z"/></g>
<g><path style="opacity:1" fill="#f7ca98" d="M 149.5,86.5 C 149.018,87.4163 148.685,88.4163 148.5,89.5C 149.248,95.4704 149.748,101.47 150,107.5C 150.278,108.416 150.778,109.082 151.5,109.5C 146.342,112.245 141.342,115.245 136.5,118.5C 135.956,109.419 135.956,100.419 136.5,91.5C 140.522,89.2661 144.856,87.5995 149.5,86.5 Z"/></g>
<g><path style="opacity:1" fill="#f8d2a7" d="M 136.5,91.5 C 135.956,100.419 135.956,109.419 136.5,118.5C 133.729,121.392 130.729,124.058 127.5,126.5C 121.5,120.833 115.5,115.167 109.5,109.5C 117.287,101.767 126.287,95.7666 136.5,91.5 Z"/></g>
<g><path style="opacity:1" fill="#f95682" d="M 327.5,107.5 C 328.249,109.246 329.583,110.246 331.5,110.5C 343.112,106.116 355.112,104.449 367.5,105.5C 347.5,135.833 327.5,166.167 307.5,196.5C 298.745,188.944 289.079,182.611 278.5,177.5C 277.523,175.589 276.857,173.589 276.5,171.5C 293.224,147.74 309.724,123.74 326,99.5C 326.183,102.365 326.683,105.031 327.5,107.5 Z"/></g>
<g><path style="opacity:1" fill="#f95c88" d="M 367.5,105.5 C 381.619,105.404 394.619,109.07 406.5,116.5C 393.5,136.5 380.5,156.5 367.5,176.5C 362.739,176.794 358.072,177.627 353.5,179C 343.52,183.631 333.52,188.298 323.5,193C 318.292,194.802 312.959,195.969 307.5,196.5C 327.5,166.167 347.5,135.833 367.5,105.5 Z"/></g>
<g><path style="opacity:1" fill="#f95c8e" d="M 406.5,116.5 C 413.717,120.222 421.384,122.556 429.5,123.5C 417.496,141.013 405.663,158.679 394,176.5C 393.241,178.063 392.074,179.063 390.5,179.5C 383.007,177.307 375.34,176.307 367.5,176.5C 380.5,156.5 393.5,136.5 406.5,116.5 Z"/></g>
<g><path style="opacity:1" fill="#8d4969" d="M 430.5,123.5 C 434.555,123.176 438.555,123.509 442.5,124.5C 442.376,125.107 442.043,125.44 441.5,125.5C 437.833,124.833 434.167,124.167 430.5,123.5 Z"/></g>
<g><path style="opacity:1" fill="#ec603e" d="M 109.5,109.5 C 115.5,115.167 121.5,120.833 127.5,126.5C 122.451,132.214 117.785,138.214 113.5,144.5C 106.314,141.406 99.3139,138.072 92.5,134.5C 96.4383,124.946 102.105,116.612 109.5,109.5 Z"/></g>
<g><path style="opacity:1" fill="#9cacdf" d="M 188.5,154.5 C 170.684,159.037 153.017,164.037 135.5,169.5C 130.535,165.037 125.702,160.37 121,155.5C 120.333,154.167 120.333,152.833 121,151.5C 128.73,138.103 139.397,127.77 153,120.5C 165.626,130.959 177.46,142.292 188.5,154.5 Z"/></g>
<g><path style="opacity:1" fill="#f8638e" d="M 429.5,123.5 C 429.833,123.5 430.167,123.5 430.5,123.5C 434.167,124.167 437.833,124.833 441.5,125.5C 438.173,132.008 432.84,135.841 425.5,137C 422.913,138.525 422.08,140.692 423,143.5C 425.755,146.083 428.255,148.749 430.5,151.5C 421.833,163.833 413.167,176.167 404.5,188.5C 400.103,184.975 395.437,181.975 390.5,179.5C 392.074,179.063 393.241,178.063 394,176.5C 405.663,158.679 417.496,141.013 429.5,123.5 Z"/></g>
<g><path style="opacity:1" fill="#f16a50" d="M 92.5,134.5 C 99.3139,138.072 106.314,141.406 113.5,144.5C 109.872,150.044 107.205,156.044 105.5,162.5C 99.3782,160.569 93.3782,158.236 87.5,155.5C 86.5713,154.311 86.238,152.978 86.5,151.5C 87.3317,145.334 89.3317,139.667 92.5,134.5 Z"/></g>
<g><path style="opacity:1" fill="#f86496" d="M 430.5,151.5 C 438.478,159.455 443.311,169.122 445,180.5C 445.645,189.199 445.312,197.865 444,206.5C 441.514,216.111 439.181,225.778 437,235.5C 436.223,244.548 436.389,253.548 437.5,262.5C 418.231,268.266 406.231,261.266 401.5,241.5C 402.096,232.834 402.262,224.168 402,215.5C 400.588,209.108 399.088,202.775 397.5,196.5C 403.706,201.422 407.206,200.089 408,192.5C 406.624,191.295 405.458,189.962 404.5,188.5C 413.167,176.167 421.833,163.833 430.5,151.5 Z"/></g>
<g><path style="opacity:1" fill="#ebf1f8" d="M 188.5,154.5 C 195.48,161.145 202.48,167.812 209.5,174.5C 193.056,180.055 177.723,187.722 163.5,197.5C 153.812,188.479 144.479,179.146 135.5,169.5C 153.017,164.037 170.684,159.037 188.5,154.5 Z"/></g>
<g><path style="opacity:1" fill="#f77664" d="M 86.5,151.5 C 86.238,152.978 86.5713,154.311 87.5,155.5C 93.3782,158.236 99.3782,160.569 105.5,162.5C 103.019,169.241 102.019,176.241 102.5,183.5C 96.7406,181.456 91.0739,179.122 85.5,176.5C 84.5078,172.217 84.1744,167.884 84.5,163.5C 84.1977,159.21 84.8643,155.21 86.5,151.5 Z"/></g>
<g><path style="opacity:1" fill="#f17b70" d="M 84.5,163.5 C 84.1744,167.884 84.5078,172.217 85.5,176.5C 91.0739,179.122 96.7406,181.456 102.5,183.5C 103.434,185.239 103.434,186.905 102.5,188.5C 97.2549,191.039 92.0883,193.706 87,196.5C 86.6667,196.167 86.3333,195.833 86,195.5C 83.6792,184.752 83.1792,174.086 84.5,163.5 Z"/></g>
<g><path style="opacity:1" fill="#f8ebc7" d="M 324.5,264.5 C 324.66,266.199 324.494,267.866 324,269.5C 280.521,243.851 237.354,217.851 194.5,191.5C 218.876,179.45 244.209,177.283 270.5,185C 287.572,191.611 300.739,202.778 310,218.5C 317.754,232.928 322.588,248.262 324.5,264.5 Z"/></g>
<g><path style="opacity:1" fill="#f9e6c7" d="M 194.5,191.5 C 237.354,217.851 280.521,243.851 324,269.5C 324.494,267.866 324.66,266.199 324.5,264.5C 325.314,266.631 325.814,268.964 326,271.5C 326.5,282.161 326.667,292.828 326.5,303.5C 273.737,272.587 221.071,241.421 168.5,210C 167.748,209.329 167.414,208.496 167.5,207.5C 175.451,200.582 184.451,195.248 194.5,191.5 Z"/></g>
<g><path style="opacity:1" fill="#bf0a57" d="M 397.5,196.5 C 399.088,202.775 400.588,209.108 402,215.5C 402.262,224.168 402.096,232.834 401.5,241.5C 400.9,238.375 399.733,238.042 398,240.5C 392.42,247.992 387.087,255.659 382,263.5C 381.503,265.81 381.337,268.143 381.5,270.5C 380.248,255.968 382.081,241.635 387,227.5C 390.631,210.805 385.798,197.305 372.5,187C 382.346,186.335 390.679,189.502 397.5,196.5 Z"/></g>
<g><path style="opacity:1" fill="#f9e0c1" d="M 167.5,207.5 C 167.414,208.496 167.748,209.329 168.5,210C 221.071,241.421 273.737,272.587 326.5,303.5C 326.434,315.959 325.434,328.292 323.5,340.5C 293.22,322.726 263.053,304.726 233,286.5C 232.517,285.552 232.351,284.552 232.5,283.5C 232.666,279.486 232.499,275.486 232,271.5C 229.847,269.556 227.347,269.056 224.5,270C 220.846,271.274 217.18,272.44 213.5,273.5C 212.127,273.657 210.793,273.49 209.5,273C 187.269,259.726 165.269,246.226 143.5,232.5C 150.126,222.874 158.126,214.54 167.5,207.5 Z"/></g>
<g><path style="opacity:1" fill="#f9d9bb" d="M 143.5,232.5 C 165.269,246.226 187.269,259.726 209.5,273C 210.793,273.49 212.127,273.657 213.5,273.5C 201.456,278.405 189.122,282.738 176.5,286.5C 162.063,277.441 147.396,268.608 132.5,260C 131.748,259.329 131.414,258.496 131.5,257.5C 134.184,248.468 138.184,240.135 143.5,232.5 Z"/></g>
<g><path style="opacity:1" fill="#bf0751" d="M 401.5,241.5 C 406.231,261.266 418.231,268.266 437.5,262.5C 439.115,268.396 441.781,273.729 445.5,278.5C 437.822,287.998 430.489,297.831 423.5,308C 426.482,308.498 429.482,308.665 432.5,308.5C 418.63,310.053 405.964,306.553 394.5,298C 386.263,290.692 381.929,281.525 381.5,270.5C 381.337,268.143 381.503,265.81 382,263.5C 387.087,255.659 392.42,247.992 398,240.5C 399.733,238.042 400.9,238.375 401.5,241.5 Z"/></g>
<g><path style="opacity:1" fill="#f7d1b5" d="M 131.5,257.5 C 131.414,258.496 131.748,259.329 132.5,260C 147.396,268.608 162.063,277.441 176.5,286.5C 159.473,293.507 142.473,300.84 125.5,308.5C 125.167,306.333 124.833,304.167 124.5,302C 125.407,292.84 126.24,283.674 127,274.5C 127.745,268.512 129.245,262.845 131.5,257.5 Z"/></g>
<g><path style="opacity:1" fill="#be064b" d="M 445.5,278.5 C 452.465,284.103 460.465,287.27 469.5,288C 459.733,299.549 447.399,306.382 432.5,308.5C 429.482,308.665 426.482,308.498 423.5,308C 430.489,297.831 437.822,287.998 445.5,278.5 Z"/></g>
<g><path style="opacity:1" fill="#f8d9bb" d="M 232.5,283.5 C 232.351,284.552 232.517,285.552 233,286.5C 263.053,304.726 293.22,322.726 323.5,340.5C 323.334,347.841 323.5,355.174 324,362.5C 325.514,366.855 327.014,371.188 328.5,375.5C 328.565,375.938 328.399,376.272 328,376.5C 293.687,355.933 259.52,335.267 225.5,314.5C 228.332,304.181 230.665,293.848 232.5,283.5 Z"/></g>
<g><path style="opacity:1" fill="#dde9f6" d="M 357.5,320.5 C 350.768,334.296 343.768,347.963 336.5,361.5C 336.043,362.298 335.376,362.631 334.5,362.5C 333.327,358.966 332.66,355.299 332.5,351.5C 335.387,334.297 336.887,316.964 337,299.5C 344.036,306.368 350.869,313.368 357.5,320.5 Z"/></g>
<g><path style="opacity:1" fill="#a35a64" d="M 220.5,281.5 C 221.586,281.62 222.253,282.287 222.5,283.5C 220.18,302.461 213.68,319.794 203,335.5C 199.584,339.587 195.584,342.92 191,345.5C 197.852,335.118 203.185,323.785 207,311.5C 208.101,302.822 209.268,294.155 210.5,285.5C 214.013,284.336 217.346,283.002 220.5,281.5 Z"/></g>
<g><path style="opacity:1" fill="#f9d3ba" d="M 225.5,314.5 C 259.52,335.267 293.687,355.933 328,376.5C 328.399,376.272 328.565,375.938 328.5,375.5C 330.25,378.133 331.25,381.133 331.5,384.5C 331.564,386.557 330.898,388.223 329.5,389.5C 293.868,367.345 257.868,345.678 221.5,324.5C 222.321,320.873 223.654,317.54 225.5,314.5 Z"/></g>
<g><path style="opacity:1" fill="#e0e6f9" d="M 357.5,320.5 C 364.798,326.131 371.465,332.464 377.5,339.5C 368.91,356.346 360.577,373.346 352.5,390.5C 348.536,387.037 344.702,383.37 341,379.5C 339.316,373.609 337.149,367.943 334.5,362.5C 335.376,362.631 336.043,362.298 336.5,361.5C 343.768,347.963 350.768,334.296 357.5,320.5 Z"/></g>
<g><path style="opacity:1" fill="#f9d3b4" d="M 221.5,324.5 C 257.868,345.678 293.868,367.345 329.5,389.5C 328.657,391.173 327.324,392.34 325.5,393C 318.209,394.223 310.876,395.057 303.5,395.5C 274.229,377.19 244.562,359.356 214.5,342C 213.619,341.292 212.953,340.458 212.5,339.5C 215.766,334.63 218.766,329.63 221.5,324.5 Z"/></g>
<g><path style="opacity:1" fill="#f9cdb4" d="M 212.5,339.5 C 212.953,340.458 213.619,341.292 214.5,342C 244.562,359.356 274.229,377.19 303.5,395.5C 295.484,396.74 287.484,398.074 279.5,399.5C 253.135,383.317 226.468,367.651 199.5,352.5C 204.167,348.5 208.5,344.167 212.5,339.5 Z"/></g>
<g><path style="opacity:1" fill="#d9e6f9" d="M 377.5,339.5 C 386.5,347.833 395.167,356.5 403.5,365.5C 394.5,382.167 385.5,398.833 376.5,415.5C 368.279,407.401 360.279,399.067 352.5,390.5C 360.577,373.346 368.91,356.346 377.5,339.5 Z"/></g>
<g><path style="opacity:1" fill="#f3cdae" d="M 199.5,352.5 C 226.468,367.651 253.135,383.317 279.5,399.5C 273.711,401.249 267.711,402.582 261.5,403.5C 236.999,388.751 212.666,373.751 188.5,358.5C 192.034,356.234 195.7,354.234 199.5,352.5 Z"/></g>
<g><path style="opacity:1" fill="#f2c7ad" d="M 188.5,358.5 C 212.666,373.751 236.999,388.751 261.5,403.5C 247.919,408.139 234.252,412.806 220.5,417.5C 198.563,403.523 176.229,390.023 153.5,377C 152.748,376.329 152.414,375.496 152.5,374.5C 164.672,369.752 176.672,364.418 188.5,358.5 Z"/></g>
<g><path style="opacity:1" fill="#f2c0a7" d="M 152.5,374.5 C 152.414,375.496 152.748,376.329 153.5,377C 176.229,390.023 198.563,403.523 220.5,417.5C 210.564,422.132 200.564,426.799 190.5,431.5C 169.071,419.254 147.738,406.754 126.5,394C 125.619,393.292 124.953,392.458 124.5,391.5C 132.526,383.814 141.859,378.148 152.5,374.5 Z"/></g>
<g><path style="opacity:1" fill="#d4e0f9" d="M 403.5,365.5 C 421.803,382.136 439.47,399.47 456.5,417.5C 447.353,433.791 438.686,450.458 430.5,467.5C 430.043,468.298 429.376,468.631 428.5,468.5C 411.194,450.86 393.861,433.193 376.5,415.5C 385.5,398.833 394.5,382.167 403.5,365.5 Z"/></g>
<g><path style="opacity:1" fill="#f2baa2" d="M 124.5,391.5 C 124.953,392.458 125.619,393.292 126.5,394C 147.738,406.754 169.071,419.254 190.5,431.5C 180.855,436.797 171.189,442.13 161.5,447.5C 147.517,439.194 133.517,430.861 119.5,422.5C 118.505,416.872 118.171,411.206 118.5,405.5C 118.879,400.082 120.879,395.415 124.5,391.5 Z"/></g>
<g><path style="opacity:1" fill="#cdd8f8" d="M 456.5,417.5 C 461.164,421.996 465.998,426.33 471,430.5C 473.062,432.901 474.729,435.567 476,438.5C 476.985,451.829 477.818,465.162 478.5,478.5C 465.174,477.62 451.841,476.786 438.5,476C 434.561,474.209 431.228,471.709 428.5,468.5C 429.376,468.631 430.043,468.298 430.5,467.5C 438.686,450.458 447.353,433.791 456.5,417.5 Z"/></g>
<g><path style="opacity:1" fill="#efb19b" d="M 118.5,405.5 C 118.171,411.206 118.505,416.872 119.5,422.5C 133.517,430.861 147.517,439.194 161.5,447.5C 149.04,455.241 137.04,463.741 125.5,473C 119.128,474.977 114.795,472.977 112.5,467C 114.8,460.706 116.3,454.206 117,447.5C 117.169,433.327 117.669,419.327 118.5,405.5 Z"/></g>
</svg>
