<?xml version="1.0" encoding="UTF-8"?>
<!DOCTYPE svg PUBLIC "-//W3C//DTD SVG 1.1//EN" "http://www.w3.org/Graphics/SVG/1.1/DTD/svg11.dtd">
<svg xmlns="http://www.w3.org/2000/svg" version="1.1" width="512px" height="512px" style="shape-rendering:geometricPrecision; text-rendering:geometricPrecision; image-rendering:optimizeQuality; fill-rule:evenodd; clip-rule:evenodd" xmlns:xlink="http://www.w3.org/1999/xlink">
<g><path style="opacity:1" fill="#6fae9c" d="M 347.5,36.5 C 353.33,36.1605 355.83,38.8272 355,44.5C 352.459,49.0685 348.625,50.5685 343.5,49C 340.141,43.2788 341.474,39.1122 347.5,36.5 Z"/></g>
<g><path style="opacity:1" fill="#6aa795" d="M 61.5,87.5 C 58.8405,91.1614 56.1738,94.8281 53.5,98.5C 48.3434,88.5571 43.8434,78.2237 40,67.5C 37.7313,57.625 40.8979,50.125 49.5,45C 58.8109,41.9048 67.1442,43.5714 74.5,50C 78.3333,53.1667 82.1667,56.3333 86,59.5C 88.7463,66.7566 86.2463,69.9232 78.5,69C 72.2004,63.3599 65.3671,58.5266 58,54.5C 52.1473,56.0278 50.1473,59.6945 52,65.5C 54.9062,72.9757 58.0729,80.309 61.5,87.5 Z"/></g>
<g><path style="opacity:1" fill="#94ceb5" d="M 440.5,101.5 C 425.326,84.0891 407.993,69.2557 388.5,57C 387.748,56.3292 387.414,55.4959 387.5,54.5C 401.81,46.4497 417.144,42.6164 433.5,43C 441.973,44.8064 447.14,49.9731 449,58.5C 450.954,73.8974 448.12,88.2307 440.5,101.5 Z"/></g>
<g><path style="opacity:1" fill="#9cd4b5" d="M 387.5,54.5 C 387.414,55.4959 387.748,56.3292 388.5,57C 407.993,69.2557 425.326,84.0891 440.5,101.5C 434.454,114.865 426.454,126.865 416.5,137.5C 415.504,137.586 414.671,137.252 414,136.5C 410.045,130.877 405.712,125.543 401,120.5C 400.617,121.056 400.117,121.389 399.5,121.5C 400.172,117.812 401.005,114.145 402,110.5C 404.789,101.067 401.622,95.067 392.5,92.5C 389.69,89.8644 386.69,87.3644 383.5,85C 375.769,80.142 368.102,75.3086 360.5,70.5C 369.005,64.411 378.005,59.0776 387.5,54.5 Z"/></g>
<g><path style="opacity:1" fill="#77b4a0" d="M 212.5,78.5 C 208.4,79.1916 204.4,80.1916 200.5,81.5C 194.83,73.6554 189.33,65.6554 184,57.5C 182.729,50.4403 185.562,47.9403 192.5,50C 200.038,58.9164 206.704,68.4164 212.5,78.5 Z"/></g>
<g><path style="opacity:1" fill="#7ebca4" d="M 212.5,78.5 C 220.316,89.4462 227.149,101.113 233,113.5C 234.324,120.505 231.49,123.005 224.5,121C 216.672,107.684 208.672,94.5177 200.5,81.5C 204.4,80.1916 208.4,79.1916 212.5,78.5 Z"/></g>
<g><path style="opacity:1" fill="#a6d8b8" d="M 196.5,109.5 C 192.813,112.01 188.813,114.01 184.5,115.5C 175.702,107.202 167.035,98.7023 158.5,90C 150.333,83.1667 142.167,76.3333 134,69.5C 131.231,56.9457 136.065,52.779 148.5,57C 170.797,68.775 186.797,86.275 196.5,109.5 Z"/></g>
<g><path style="opacity:1" fill="#7ebba4" d="M 312.5,63.5 C 320.281,63.2469 322.614,66.5802 319.5,73.5C 298.548,92.6147 279.214,113.115 261.5,135C 254.017,136.689 251.183,133.856 253,126.5C 271.265,104.067 291.098,83.0674 312.5,63.5 Z"/></g>
<g><path style="opacity:1" fill="#a0d4b5" d="M 130.5,94.5 C 119.833,103.167 110.167,112.833 101.5,123.5C 95.9777,114.617 91.6444,105.117 88.5,95C 91.7323,80.8837 100.066,76.5504 113.5,82C 119.59,85.6995 125.257,89.8661 130.5,94.5 Z"/></g>
<g><path style="opacity:1" fill="#a5d8b8" d="M 360.5,70.5 C 368.102,75.3086 375.769,80.142 383.5,85C 386.69,87.3644 389.69,89.8644 392.5,92.5C 376.548,97.9764 361.548,105.31 347.5,114.5C 339.641,108.906 330.974,104.906 321.5,102.5C 333.312,90.3514 346.312,79.6848 360.5,70.5 Z"/></g>
<g><path style="opacity:1" fill="#a3dab5" d="M 130.5,94.5 C 132.777,95.4486 134.777,96.7819 136.5,98.5C 136.511,100.017 137.177,101.184 138.5,102C 126.71,110.624 116.043,120.457 106.5,131.5C 104.347,129.206 102.68,126.54 101.5,123.5C 110.167,112.833 119.833,103.167 130.5,94.5 Z"/></g>
<g><path style="opacity:1" fill="#71ae9a" d="M 61.5,87.5 C 67.3089,99.7848 73.6422,111.785 80.5,123.5C 78.9379,127.392 76.6046,130.725 73.5,133.5C 65.5723,122.656 58.9057,110.989 53.5,98.5C 56.1738,94.8281 58.8405,91.1614 61.5,87.5 Z"/></g>
<g><path style="opacity:1" fill="#aadaba" d="M 136.5,98.5 C 150.306,109.139 162.639,121.306 173.5,135C 173.046,136.622 172.046,137.788 170.5,138.5C 164.167,134.667 157.833,130.833 151.5,127C 146.868,125.422 143.868,126.922 142.5,131.5C 143.65,135.134 145.317,138.467 147.5,141.5C 140.492,148.508 133.826,155.842 127.5,163.5C 119.495,153.489 112.495,142.823 106.5,131.5C 116.043,120.457 126.71,110.624 138.5,102C 137.177,101.184 136.511,100.017 136.5,98.5 Z"/></g>
<g><path style="opacity:1" fill="#afdabb" d="M 321.5,102.5 C 330.974,104.906 339.641,108.906 347.5,114.5C 343.378,117.734 339.045,120.734 334.5,123.5C 326.851,118.613 318.518,115.28 309.5,113.5C 312.874,109.124 316.874,105.458 321.5,102.5 Z"/></g>
<g><path style="opacity:1" fill="#b0e1ba" d="M 196.5,109.5 C 200.61,116.731 203.944,124.398 206.5,132.5C 205.904,135.246 204.237,136.08 201.5,135C 195.624,128.628 189.958,122.128 184.5,115.5C 188.813,114.01 192.813,112.01 196.5,109.5 Z"/></g>
<g><path style="opacity:1" fill="#71af9b" d="M 418.5,184.5 C 417.105,180.71 415.438,177.043 413.5,173.5C 434.854,149.488 451.688,122.488 464,92.5C 467.663,89.6667 470.996,90 474,93.5C 474.469,98.4391 473.469,103.106 471,107.5C 457.937,136.361 440.437,162.027 418.5,184.5 Z"/></g>
<g><path style="opacity:1" fill="#b4e1bb" d="M 309.5,113.5 C 318.518,115.28 326.851,118.613 334.5,123.5C 321.378,132.782 308.378,142.282 295.5,152C 293.833,152.667 292.167,152.667 290.5,152C 286.216,150.346 281.882,148.846 277.5,147.5C 287.257,135.329 297.923,123.995 309.5,113.5 Z"/></g>
<g><path style="opacity:1" fill="#a9dab9" d="M 416.5,137.5 C 407.076,149.759 396.41,160.926 384.5,171C 380.333,172.167 378.833,170.667 380,166.5C 387.781,151.969 394.281,136.969 399.5,121.5C 400.117,121.389 400.617,121.056 401,120.5C 405.712,125.543 410.045,130.877 414,136.5C 414.671,137.252 415.504,137.586 416.5,137.5 Z"/></g>
<g><path style="opacity:1" fill="#78b6a0" d="M 80.5,123.5 C 89.0259,136.874 98.1925,149.874 108,162.5C 108.563,170.422 105.229,172.755 98,169.5C 89.0713,157.962 80.9047,145.962 73.5,133.5C 76.6046,130.725 78.9379,127.392 80.5,123.5 Z"/></g>
<g><path style="opacity:1" fill="#81bfa7" d="M 320.5,163.5 C 318.599,161.204 316.266,159.371 313.5,158C 312.748,157.329 312.414,156.496 312.5,155.5C 325.427,144.755 339.094,134.921 353.5,126C 366.673,122.842 372.84,128.008 372,141.5C 368.645,149.713 364.145,157.213 358.5,164C 351.244,166.626 348.078,164.126 349,156.5C 353.414,151.344 357.081,145.677 360,139.5C 360.749,138.365 360.583,137.365 359.5,136.5C 346.189,145.161 333.189,154.161 320.5,163.5 Z"/></g>
<g><path style="opacity:1" fill="#9fd4b5" d="M 73.5,165.5 C 69.3768,174.203 66.0434,183.203 63.5,192.5C 54.792,182.776 47.292,172.109 41,160.5C 37.9173,152.755 36.9173,144.755 38,136.5C 41.4362,131.173 45.9362,130.173 51.5,133.5C 58.8432,144.196 66.1766,154.862 73.5,165.5 Z"/></g>
<g><path style="opacity:1" fill="#b3e1ba" d="M 147.5,141.5 C 154.801,151.81 162.134,162.143 169.5,172.5C 167.983,172.511 166.816,173.177 166,174.5C 161.252,180.401 156.752,186.401 152.5,192.5C 143.467,183.433 135.134,173.767 127.5,163.5C 133.826,155.842 140.492,148.508 147.5,141.5 Z"/></g>
<g><path style="opacity:1" fill="#bae1ba" d="M 274.5,157.5 C 247.018,158.24 225.018,169.574 208.5,191.5C 204.539,186.418 201.206,180.918 198.5,175C 198.667,174.167 198.833,173.333 199,172.5C 218.654,158.795 240.487,153.295 264.5,156C 267.854,156.455 271.187,156.955 274.5,157.5 Z"/></g>
<g><path style="opacity:1" fill="#8bc9b0" d="M 312.5,155.5 C 312.414,156.496 312.748,157.329 313.5,158C 316.266,159.371 318.599,161.204 320.5,163.5C 316.833,166.833 313.167,170.167 309.5,173.5C 303.246,177.418 297.579,182.085 292.5,187.5C 288.766,190.231 285.766,193.564 283.5,197.5C 280.582,199.877 277.415,201.877 274,203.5C 268.253,200.965 267.086,196.965 270.5,191.5C 272.932,190.25 275.266,188.75 277.5,187C 284.65,180.136 291.65,173.302 298.5,166.5C 303.167,162.833 307.833,159.167 312.5,155.5 Z"/></g>
<g><path style="opacity:1" fill="#c0e6ba" d="M 274.5,157.5 C 282.919,159.376 290.919,162.376 298.5,166.5C 291.65,173.302 284.65,180.136 277.5,187C 275.266,188.75 272.932,190.25 270.5,191.5C 251.697,186.79 234.031,189.457 217.5,199.5C 213.237,198.236 210.237,195.569 208.5,191.5C 225.018,169.574 247.018,158.24 274.5,157.5 Z"/></g>
<g><path style="opacity:1" fill="#a3dab5" d="M 73.5,165.5 C 76.4086,168.981 79.0753,172.648 81.5,176.5C 80.6236,176.369 79.9569,176.702 79.5,177.5C 76.2288,185.314 73.5621,193.314 71.5,201.5C 68.6082,198.729 65.9416,195.729 63.5,192.5C 66.0434,183.203 69.3768,174.203 73.5,165.5 Z"/></g>
<g><path style="opacity:1" fill="#bbe1bb" d="M 169.5,172.5 C 172.833,177.167 176.167,181.833 179.5,186.5C 173.659,192.18 169.326,198.847 166.5,206.5C 161.5,202.167 156.833,197.5 152.5,192.5C 156.752,186.401 161.252,180.401 166,174.5C 166.816,173.177 167.983,172.511 169.5,172.5 Z"/></g>
<g><path style="opacity:1" fill="#c0e7ba" d="M 309.5,173.5 C 332.593,189.817 346.093,212.151 350,240.5C 350.499,246.491 350.666,252.491 350.5,258.5C 343.637,280.2 330.303,296.7 310.5,308C 314.5,310.667 318.5,313.333 322.5,316C 318.938,319.732 315.271,323.232 311.5,326.5C 298.557,316.558 286.891,305.225 276.5,292.5C 277.693,290.616 279.359,290.116 281.5,291C 286.298,293.635 290.965,296.468 295.5,299.5C 303.727,292.691 309.727,284.358 313.5,274.5C 331.983,250.37 332.15,226.036 314,201.5C 308.181,194.679 301.014,190.013 292.5,187.5C 297.579,182.085 303.246,177.418 309.5,173.5 Z"/></g>
<g><path style="opacity:1" fill="#7dbba2" d="M 413.5,173.5 C 415.438,177.043 417.105,180.71 418.5,184.5C 415.371,188.131 412.037,191.631 408.5,195C 400.874,195.922 398.374,192.756 401,185.5C 405.036,181.296 409.202,177.296 413.5,173.5 Z"/></g>
<g><path style="opacity:1" fill="#a8daba" d="M 81.5,176.5 C 86.8727,181.575 91.5394,187.241 95.5,193.5C 93.0042,201.654 90.3376,209.654 87.5,217.5C 81.8333,212.5 76.5,207.167 71.5,201.5C 73.5621,193.314 76.2288,185.314 79.5,177.5C 79.9569,176.702 80.6236,176.369 81.5,176.5 Z"/></g>
<g><path style="opacity:1" fill="#80bda8" d="M 114.5,179.5 C 120.02,178.684 123.353,181.017 124.5,186.5C 123.944,190.2 121.778,191.867 118,191.5C 113.879,191.379 111.712,189.212 111.5,185C 111.863,182.808 112.863,180.974 114.5,179.5 Z"/></g>
<g><path style="opacity:1" fill="#77b4a0" d="M 428.5,209.5 C 426.194,205.915 424.861,201.915 424.5,197.5C 433.997,187.169 443.33,176.669 452.5,166C 459.677,163.395 462.844,165.895 462,173.5C 451.978,186.526 440.811,198.526 428.5,209.5 Z"/></g>
<g><path style="opacity:1" fill="#c8e7ba" d="M 292.5,187.5 C 301.014,190.013 308.181,194.679 314,201.5C 332.15,226.036 331.983,250.37 313.5,274.5C 321.45,247.132 315.117,223.632 294.5,204C 291.108,201.306 287.441,199.14 283.5,197.5C 285.766,193.564 288.766,190.231 292.5,187.5 Z"/></g>
<g><path style="opacity:1" fill="#c1e6ba" d="M 179.5,186.5 C 189.094,198.767 199.094,210.767 209.5,222.5C 206.666,227.168 204.666,232.168 203.5,237.5C 200.211,235.384 197.044,233.051 194,230.5C 190.995,237.862 189.495,245.529 189.5,253.5C 184.248,248.853 178.914,244.186 173.5,239.5C 169.79,235.792 166.457,231.792 163.5,227.5C 169.367,217.802 177.367,210.302 187.5,205C 183.946,200.953 180.613,196.787 177.5,192.5C 173.33,197.515 169.663,202.848 166.5,208.5C 166.5,207.833 166.5,207.167 166.5,206.5C 169.326,198.847 173.659,192.18 179.5,186.5 Z"/></g>
<g><path style="opacity:1" fill="#afdabb" d="M 95.5,193.5 C 100.189,197.222 104.189,201.555 107.5,206.5C 105.322,214.216 103.322,221.882 101.5,229.5C 96.5137,225.845 91.847,221.845 87.5,217.5C 90.3376,209.654 93.0042,201.654 95.5,193.5 Z"/></g>
<g><path style="opacity:1" fill="#bae1bb" d="M 163.5,227.5 C 161.738,226.738 160.738,225.404 160.5,223.5C 162.11,218.336 164.11,213.336 166.5,208.5C 169.663,202.848 173.33,197.515 177.5,192.5C 180.613,196.787 183.946,200.953 187.5,205C 177.367,210.302 169.367,217.802 163.5,227.5 Z"/></g>
<g><path style="opacity:1" fill="#7fbca5" d="M 424.5,197.5 C 424.861,201.915 426.194,205.915 428.5,209.5C 415.239,222.928 400.906,235.094 385.5,246C 380.287,247.806 376.953,246.139 375.5,241C 376.104,238.532 377.438,236.532 379.5,235C 395.27,223.445 410.27,210.945 424.5,197.5 Z"/></g>
<g><path style="opacity:1" fill="#88c7ae" d="M 160.5,223.5 C 160.738,225.404 161.738,226.738 163.5,227.5C 166.457,231.792 169.79,235.792 173.5,239.5C 172.994,243.561 172.327,247.561 171.5,251.5C 166.776,246.771 161.776,242.437 156.5,238.5C 147.836,229.001 139.336,219.335 131,209.5C 129.167,202 132,199.167 139.5,201C 146.366,208.697 153.366,216.197 160.5,223.5 Z"/></g>
<g><path style="opacity:1" fill="#b3e1bb" d="M 107.5,206.5 C 116.495,215.328 125.662,223.995 135,232.5C 138.07,242.101 134.57,246.267 124.5,245C 116.422,240.306 108.756,235.139 101.5,229.5C 103.322,221.882 105.322,214.216 107.5,206.5 Z"/></g>
<g><path style="opacity:1" fill="#cdedbb" d="M 209.5,222.5 C 219.404,233.907 229.904,244.907 241,255.5C 241.494,257.134 241.66,258.801 241.5,260.5C 238.206,260.741 235.206,259.908 232.5,258C 222.416,251.636 212.749,244.803 203.5,237.5C 204.666,232.168 206.666,227.168 209.5,222.5 Z"/></g>
<g><path style="opacity:1" fill="#c0e7bb" d="M 156.5,238.5 C 161.776,242.437 166.776,246.771 171.5,251.5C 172.5,252.833 173.5,254.167 174.5,255.5C 168.543,283.42 178.543,303.587 204.5,316C 215.298,319.077 226.132,319.244 237,316.5C 238.03,316.164 238.53,315.497 238.5,314.5C 238.833,314.5 239.167,314.5 239.5,314.5C 239.5,315.167 239.833,315.5 240.5,315.5C 247.425,319.752 254.092,324.419 260.5,329.5C 256.181,333.332 251.181,336.165 245.5,338C 235.532,340.643 225.532,342.143 215.5,342.5C 177.722,324.827 157.722,294.993 155.5,253C 156.285,248.197 156.618,243.363 156.5,238.5 Z"/></g>
<g><path style="opacity:1" fill="#8fceb4" d="M 173.5,239.5 C 178.914,244.186 184.248,248.853 189.5,253.5C 196.496,260.328 203.663,266.995 211,273.5C 212.805,278.69 211.138,282.024 206,283.5C 201.893,281.199 198.059,278.532 194.5,275.5C 194.5,274.833 194.167,274.5 193.5,274.5C 191.212,270.544 188.212,267.211 184.5,264.5C 181.167,261.5 177.833,258.5 174.5,255.5C 173.5,254.167 172.5,252.833 171.5,251.5C 172.327,247.561 172.994,243.561 173.5,239.5 Z"/></g>
<g><path style="opacity:1" fill="#c8e7ba" d="M 174.5,255.5 C 177.833,258.5 181.167,261.5 184.5,264.5C 183.202,285.381 192.535,299.215 212.5,306C 214.473,306.495 216.473,306.662 218.5,306.5C 224.746,310.139 231.413,312.806 238.5,314.5C 238.53,315.497 238.03,316.164 237,316.5C 226.132,319.244 215.298,319.077 204.5,316C 178.543,303.587 168.543,283.42 174.5,255.5 Z"/></g>
<g><path style="opacity:1" fill="#bae1ba" d="M 350.5,258.5 C 349.098,280.384 341.431,299.717 327.5,316.5C 331.034,318.766 334.7,320.766 338.5,322.5C 335.251,328.417 330.918,333.417 325.5,337.5C 320.431,334.305 315.765,330.638 311.5,326.5C 315.271,323.232 318.938,319.732 322.5,316C 318.5,313.333 314.5,310.667 310.5,308C 330.303,296.7 343.637,280.2 350.5,258.5 Z"/></g>
<g><path style="opacity:1" fill="#c7ecba" d="M 184.5,264.5 C 188.212,267.211 191.212,270.544 193.5,274.5C 194.167,274.5 194.5,274.833 194.5,275.5C 199.378,288.26 207.378,298.593 218.5,306.5C 216.473,306.662 214.473,306.495 212.5,306C 192.535,299.215 183.202,285.381 184.5,264.5 Z"/></g>
<g><path style="opacity:1" fill="#83c2a9" d="M 108.5,307.5 C 108.007,303.524 107.007,299.69 105.5,296C 106.252,295.329 106.586,294.496 106.5,293.5C 115.31,284.523 125.144,276.857 136,270.5C 141.139,271.953 142.806,275.287 141,280.5C 130.001,289.335 119.168,298.335 108.5,307.5 Z"/></g>
<g><path style="opacity:1" fill="#b4e1bb" d="M 132.5,301.5 C 147.812,301.652 151.979,308.652 145,322.5C 140.426,327.15 134.926,328.65 128.5,327C 123.751,323.767 121.918,319.267 123,313.5C 124.194,307.819 127.36,303.819 132.5,301.5 Z"/></g>
<g><path style="opacity:1" fill="#7dbba4" d="M 106.5,293.5 C 106.586,294.496 106.252,295.329 105.5,296C 107.007,299.69 108.007,303.524 108.5,307.5C 100.193,315.472 91.8598,323.472 83.5,331.5C 81.6005,327.698 80.2672,323.698 79.5,319.5C 87.8663,310.133 96.8663,301.466 106.5,293.5 Z"/></g>
<g><path style="opacity:1" fill="#aadabb" d="M 425.5,317.5 C 422.833,324.167 420.167,330.833 417.5,337.5C 409.428,324.376 400.595,311.709 391,299.5C 388.73,293.569 390.563,292.069 396.5,295C 406.614,301.951 416.281,309.451 425.5,317.5 Z"/></g>
<g><path style="opacity:1" fill="#a3d9b5" d="M 425.5,317.5 C 428.5,319.833 431.167,322.5 433.5,325.5C 425.045,346.587 413.045,365.253 397.5,381.5C 394.378,380.439 391.378,379.105 388.5,377.5C 395.898,369.675 402.565,361.342 408.5,352.5C 415.82,350.207 418.82,345.207 417.5,337.5C 420.167,330.833 422.833,324.167 425.5,317.5 Z"/></g>
<g><path style="opacity:1" fill="#b3e1bb" d="M 338.5,322.5 C 349.347,328.09 360.347,333.423 371.5,338.5C 371.657,339.873 371.49,341.207 371,342.5C 365.934,348.059 361.1,353.725 356.5,359.5C 345.602,352.891 335.269,345.558 325.5,337.5C 330.918,333.417 335.251,328.417 338.5,322.5 Z"/></g>
<g><path style="opacity:1" fill="#75b39f" d="M 79.5,319.5 C 80.2672,323.698 81.6005,327.698 83.5,331.5C 70.3385,346.639 58.0052,362.473 46.5,379C 39.2434,381.746 36.0768,379.246 37,371.5C 49.5178,352.816 63.6845,335.483 79.5,319.5 Z"/></g>
<g><path style="opacity:1" fill="#a2d4b5" d="M 433.5,325.5 C 439.167,329.167 443.833,333.833 447.5,339.5C 441.814,348.51 436.314,357.843 431,367.5C 425.589,374.731 420.422,382.064 415.5,389.5C 409.185,387.401 403.185,384.734 397.5,381.5C 413.045,365.253 425.045,346.587 433.5,325.5 Z"/></g>
<g><path style="opacity:1" fill="#b9e1bb" d="M 260.5,329.5 C 267.872,335.178 275.205,340.845 282.5,346.5C 259.667,352.717 237.333,351.384 215.5,342.5C 225.532,342.143 235.532,340.643 245.5,338C 251.181,336.165 256.181,333.332 260.5,329.5 Z"/></g>
<g><path style="opacity:1" fill="#8bcab0" d="M 315.5,354.5 C 313.747,356.223 311.747,357.723 309.5,359C 307.975,360.009 306.308,360.509 304.5,360.5C 296.917,356.255 289.583,351.588 282.5,346.5C 275.205,340.845 267.872,335.178 260.5,329.5C 254.092,324.419 247.425,319.752 240.5,315.5C 239.833,315.5 239.5,315.167 239.5,314.5C 235.922,312.098 234.755,308.765 236,304.5C 239.273,300.689 242.773,300.522 246.5,304C 268.84,321.856 291.84,338.689 315.5,354.5 Z"/></g>
<g><path style="opacity:1" fill="#9bd4b5" d="M 447.5,339.5 C 455.216,346.882 462.216,354.882 468.5,363.5C 468.19,364.738 467.69,364.738 467,363.5C 460.497,375.846 452.997,387.513 444.5,398.5C 443.675,399.386 442.675,399.719 441.5,399.5C 432.378,397.13 423.711,393.796 415.5,389.5C 420.422,382.064 425.589,374.731 431,367.5C 436.314,357.843 441.814,348.51 447.5,339.5 Z"/></g>
<g><path style="opacity:1" fill="#84c2aa" d="M 149.5,367.5 C 146.5,365.167 143.833,362.5 141.5,359.5C 150.938,350.563 160.272,341.396 169.5,332C 176.814,329.979 179.648,332.813 178,340.5C 168.933,350.07 159.433,359.07 149.5,367.5 Z"/></g>
<g><path style="opacity:1" fill="#aadaba" d="M 371.5,338.5 C 383.305,344.569 395.638,349.236 408.5,352.5C 402.565,361.342 395.898,369.675 388.5,377.5C 377.51,372.007 366.843,366.007 356.5,359.5C 361.1,353.725 365.934,348.059 371,342.5C 371.49,341.207 371.657,339.873 371.5,338.5 Z"/></g>
<g><path style="opacity:1" fill="#7dbba3" d="M 141.5,359.5 C 143.833,362.5 146.5,365.167 149.5,367.5C 143.445,373.372 136.778,378.539 129.5,383C 119.645,385.087 113.978,381.254 112.5,371.5C 113.047,366.412 114.713,361.745 117.5,357.5C 122.746,355.18 126.08,356.68 127.5,362C 126.647,364.875 125.647,367.708 124.5,370.5C 124.833,370.833 125.167,371.167 125.5,371.5C 131.135,367.86 136.468,363.86 141.5,359.5 Z"/></g>
<g><path style="opacity:1" fill="#a4d6b6" d="M 87.5,389.5 C 82.2803,383.418 77.7803,376.751 74,369.5C 73.3292,370.252 72.4959,370.586 71.5,370.5C 79.9053,361.429 89.2386,353.429 99.5,346.5C 101.942,347.384 102.775,349.051 102,351.5C 95.4819,363.559 90.6486,376.225 87.5,389.5 Z"/></g>
<g><path style="opacity:1" fill="#b5e1ba" d="M 174.5,396.5 C 174.586,395.504 174.252,394.671 173.5,394C 167.08,390.732 161.08,386.899 155.5,382.5C 167.938,370.563 180.272,358.396 192.5,346C 193.609,345.362 194.775,344.862 196,344.5C 200.007,345.576 203.174,347.742 205.5,351C 196.477,367.167 186.143,382.333 174.5,396.5 Z"/></g>
<g><path style="opacity:1" fill="#96ceb5" d="M 468.5,363.5 C 476.305,373.577 476.471,383.91 469,394.5C 460.766,402.183 451.599,403.849 441.5,399.5C 442.675,399.719 443.675,399.386 444.5,398.5C 452.997,387.513 460.497,375.846 467,363.5C 467.69,364.738 468.19,364.738 468.5,363.5 Z"/></g>
<g><path style="opacity:1" fill="#9cd4b5" d="M 87.5,389.5 C 85.5002,397.529 86.3335,405.195 90,412.5C 94.6386,417.495 100.139,418.995 106.5,417C 112.685,414.075 118.685,410.909 124.5,407.5C 131.013,415.329 139.013,421.329 148.5,425.5C 137.936,436.737 125.936,446.07 112.5,453.5C 113.317,451.692 112.65,450.192 110.5,449C 89.4951,433.332 71.9951,414.499 58,392.5C 57.3292,391.748 56.4959,391.414 55.5,391.5C 60.0661,383.931 65.3995,376.931 71.5,370.5C 72.4959,370.586 73.3292,370.252 74,369.5C 77.7803,376.751 82.2803,383.418 87.5,389.5 Z"/></g>
<g><path style="opacity:1" fill="#85c3ab" d="M 225.5,359.5 C 231.82,359.32 234.32,362.32 233,368.5C 229.877,374.582 226.377,380.415 222.5,386C 215.017,387.689 212.183,384.856 214,377.5C 217.123,370.89 220.956,364.89 225.5,359.5 Z"/></g>
<g><path style="opacity:1" fill="#80bda6" d="M 315.5,354.5 C 335.677,366.755 356.01,378.755 376.5,390.5C 372.865,393.659 369.198,396.826 365.5,400C 366.416,400.278 367.082,400.778 367.5,401.5C 348.414,399.324 329.414,396.491 310.5,393C 297.792,389.644 285.792,384.644 274.5,378C 270.959,372.462 272.293,368.962 278.5,367.5C 290.346,373.417 302.679,378.25 315.5,382C 325.036,384.535 334.703,385.868 344.5,386C 330.725,378.032 317.391,369.532 304.5,360.5C 306.308,360.509 307.975,360.009 309.5,359C 311.747,357.723 313.747,356.223 315.5,354.5 Z"/></g>
<g><path style="opacity:1" fill="#96cdb4" d="M 55.5,391.5 C 56.4959,391.414 57.3292,391.748 58,392.5C 71.9951,414.499 89.4951,433.332 110.5,449C 112.65,450.192 113.317,451.692 112.5,453.5C 107.097,457.535 101.097,460.535 94.5,462.5C 76.0541,447.057 59.7207,429.724 45.5,410.5C 48.0539,403.724 51.3873,397.391 55.5,391.5 Z"/></g>
<g><path style="opacity:1" fill="#aadabb" d="M 155.5,382.5 C 161.08,386.899 167.08,390.732 173.5,394C 174.252,394.671 174.586,395.504 174.5,396.5C 168.551,404.783 161.884,412.45 154.5,419.5C 146.21,414.533 138.21,409.2 130.5,403.5C 139.101,396.906 147.435,389.906 155.5,382.5 Z"/></g>
<g><path style="opacity:1" fill="#7fbca7" d="M 201.5,399.5 C 208.463,399.765 210.63,403.098 208,409.5C 202.88,415.171 199.046,414.504 196.5,407.5C 196.672,403.807 198.339,401.141 201.5,399.5 Z"/></g>
<g><path style="opacity:1" fill="#a3d9b5" d="M 130.5,403.5 C 138.21,409.2 146.21,414.533 154.5,419.5C 152.833,421.833 150.833,423.833 148.5,425.5C 139.013,421.329 131.013,415.329 124.5,407.5C 126.205,405.808 128.205,404.475 130.5,403.5 Z"/></g>
<g><path style="opacity:1" fill="#8fceb5" d="M 45.5,410.5 C 59.7207,429.724 76.0541,447.057 94.5,462.5C 86.7572,466.518 78.4239,468.518 69.5,468.5C 58.7724,457.776 48.4391,446.776 38.5,435.5C 40.0563,426.941 42.3896,418.607 45.5,410.5 Z"/></g>
<g><path style="opacity:1" fill="#73b09c" d="M 376.5,390.5 C 396.145,399.989 415.811,409.489 435.5,419C 437.973,421.752 437.973,424.586 435.5,427.5C 432.7,429.902 429.7,430.068 426.5,428C 412.044,421.272 397.711,414.272 383.5,407C 378.239,404.858 372.906,403.025 367.5,401.5C 367.082,400.778 366.416,400.278 365.5,400C 369.198,396.826 372.865,393.659 376.5,390.5 Z"/></g>
<g><path style="opacity:1" fill="#75b39f" d="M 182.5,422.5 C 190,421.166 192.833,424.166 191,431.5C 177.58,447.13 162.747,461.297 146.5,474C 140.219,474.635 137.719,471.801 139,465.5C 154.671,452.329 169.171,437.996 182.5,422.5 Z"/></g>
<g><path style="opacity:1" fill="#8ac8b5" d="M 38.5,435.5 C 48.4391,446.776 58.7724,457.776 69.5,468.5C 47.8047,468.139 37.4714,457.139 38.5,435.5 Z"/></g>
</svg>
