<?xml version="1.0" encoding="UTF-8"?>
<!DOCTYPE svg PUBLIC "-//W3C//DTD SVG 1.1//EN" "http://www.w3.org/Graphics/SVG/1.1/DTD/svg11.dtd">
<svg xmlns="http://www.w3.org/2000/svg" version="1.1" width="512px" height="512px" style="shape-rendering:geometricPrecision; text-rendering:geometricPrecision; image-rendering:optimizeQuality; fill-rule:evenodd; clip-rule:evenodd" xmlns:xlink="http://www.w3.org/1999/xlink">
<g><path style="opacity:1" fill="#acbced" d="M 254.5,27.5 C 254.5,51.1667 254.5,74.8333 254.5,98.5C 254.5,114.833 254.5,131.167 254.5,147.5C 254.5,166.833 254.5,186.167 254.5,205.5C 254.5,212.5 254.5,219.5 254.5,226.5C 254.167,226.5 253.833,226.5 253.5,226.5C 253.5,201.5 253.5,176.5 253.5,151.5C 253.5,128.167 253.5,104.833 253.5,81.5C 245.51,82.0231 237.51,82.3564 229.5,82.5C 229.334,73.8269 229.5,65.1603 230,56.5C 235.619,44.5963 243.619,34.5963 254,26.5C 254.399,26.7284 254.565,27.0618 254.5,27.5 Z"/></g>
<g><path style="opacity:1" fill="#e3edfa" d="M 254.5,27.5 C 260.387,30.5486 265.221,34.8819 269,40.5C 272.507,45.5095 275.507,50.8428 278,56.5C 278.5,69.8292 278.667,83.1625 278.5,96.5C 270.506,97.2267 262.506,97.8934 254.5,98.5C 254.5,74.8333 254.5,51.1667 254.5,27.5 Z"/></g>
<g><path style="opacity:1" fill="#a2b0e3" d="M 253.5,151.5 C 245.514,152.099 237.514,152.432 229.5,152.5C 229.5,129.167 229.5,105.833 229.5,82.5C 237.51,82.3564 245.51,82.0231 253.5,81.5C 253.5,104.833 253.5,128.167 253.5,151.5 Z"/></g>
<g><path style="opacity:1" fill="#dce7f9" d="M 278.5,96.5 C 278.5,112.833 278.5,129.167 278.5,145.5C 270.567,146.706 262.567,147.373 254.5,147.5C 254.5,131.167 254.5,114.833 254.5,98.5C 262.506,97.8934 270.506,97.2267 278.5,96.5 Z"/></g>
<g><path style="opacity:1" fill="#fa83a2" d="M 113.5,168.5 C 90.1667,168.5 66.8333,168.5 43.5,168.5C 38.3515,157.533 32.1849,147.199 25,137.5C 23.9277,134.447 24.9277,132.447 28,131.5C 59.6904,136.94 88.1904,149.273 113.5,168.5 Z"/></g>
<g><path style="opacity:1" fill="#fa83a0" d="M 462.5,180.5 C 436.328,180.831 410.328,180.498 384.5,179.5C 413.428,154.04 447.095,138.873 485.5,134C 486.554,135.388 486.72,136.888 486,138.5C 476.843,151.818 469.01,165.818 462.5,180.5 Z"/></g>
<g><path style="opacity:1" fill="#fa839c" d="M 43.5,168.5 C 66.8333,168.5 90.1667,168.5 113.5,168.5C 118.746,171.411 123.413,175.078 127.5,179.5C 101.167,179.5 74.8333,179.5 48.5,179.5C 46.5944,176.017 44.9278,172.35 43.5,168.5 Z"/></g>
<g><path style="opacity:1" fill="#d5e1f9" d="M 278.5,145.5 C 278.5,164.833 278.5,184.167 278.5,203.5C 270.5,204.167 262.5,204.833 254.5,205.5C 254.5,186.167 254.5,166.833 254.5,147.5C 262.567,147.373 270.567,146.706 278.5,145.5 Z"/></g>
<g><path style="opacity:1" fill="#fa7d9c" d="M 48.5,179.5 C 74.8333,179.5 101.167,179.5 127.5,179.5C 131.771,182.101 135.437,185.434 138.5,189.5C 109.671,190.498 80.6715,190.831 51.5,190.5C 50.3028,186.905 49.3028,183.239 48.5,179.5 Z"/></g>
<g><path style="opacity:1" fill="#fa7d9a" d="M 384.5,179.5 C 410.328,180.498 436.328,180.831 462.5,180.5C 460.834,187.166 459.167,193.833 457.5,200.5C 425.996,200.832 394.662,200.498 363.5,199.5C 369.868,192.131 376.868,185.464 384.5,179.5 Z"/></g>
<g><path style="opacity:1" fill="#94a2d8" d="M 253.5,151.5 C 253.5,176.5 253.5,201.5 253.5,226.5C 253.5,230.833 253.5,235.167 253.5,239.5C 245.483,239.501 237.483,239.834 229.5,240.5C 229.5,211.167 229.5,181.833 229.5,152.5C 237.514,152.432 245.514,152.099 253.5,151.5 Z"/></g>
<g><path style="opacity:1" fill="#fa7d96" d="M 138.5,189.5 C 142.478,191.478 145.478,194.478 147.5,198.5C 116.338,199.498 85.0044,199.832 53.5,199.5C 52.6766,196.539 52.01,193.539 51.5,190.5C 80.6715,190.831 109.671,190.498 138.5,189.5 Z"/></g>
<g><path style="opacity:1" fill="#f87595" d="M 147.5,198.5 C 153.1,203.044 157.766,208.377 161.5,214.5C 126.294,215.846 90.961,217.179 55.5,218.5C 55.1253,212.128 54.4586,205.795 53.5,199.5C 85.0044,199.832 116.338,199.498 147.5,198.5 Z"/></g>
<g><path style="opacity:1" fill="#f87596" d="M 363.5,199.5 C 394.662,200.498 425.996,200.832 457.5,200.5C 456.833,205.833 456.167,211.167 455.5,216.5C 419.833,217.833 384.167,217.833 348.5,216.5C 353.157,210.511 358.157,204.844 363.5,199.5 Z"/></g>
<g><path style="opacity:1" fill="#cfdaf9" d="M 278.5,203.5 C 278.5,219.833 278.5,236.167 278.5,252.5C 270.567,253.706 262.567,254.373 254.5,254.5C 254.5,245.167 254.5,235.833 254.5,226.5C 254.5,219.5 254.5,212.5 254.5,205.5C 262.5,204.833 270.5,204.167 278.5,203.5 Z"/></g>
<g><path style="opacity:1" fill="#f3708f" d="M 161.5,214.5 C 165.975,219.437 169.975,224.77 173.5,230.5C 154.178,231.833 134.512,232.5 114.5,232.5C 94.4282,232.494 74.4282,232.161 54.5,231.5C 55.2949,227.215 55.6282,222.881 55.5,218.5C 90.961,217.179 126.294,215.846 161.5,214.5 Z"/></g>
<g><path style="opacity:1" fill="#f36d8d" d="M 348.5,216.5 C 384.167,217.833 419.833,217.833 455.5,216.5C 455.446,228.018 456.78,239.351 459.5,250.5C 415.761,250.172 372.094,250.506 328.5,251.5C 327.702,247.669 328.535,244.002 331,240.5C 336.31,232.038 342.143,224.038 348.5,216.5 Z"/></g>
<g><path style="opacity:1" fill="#f26788" d="M 173.5,230.5 C 176.557,234.258 179.39,238.258 182,242.5C 182.273,244.101 182.773,245.601 183.5,247C 179.531,254.447 175.198,261.614 170.5,268.5C 149.572,269.161 128.572,269.495 107.5,269.5C 86.489,269.5 65.8224,268.833 45.5,267.5C 50.1382,255.917 53.1382,243.917 54.5,231.5C 74.4282,232.161 94.4282,232.494 114.5,232.5C 134.512,232.5 154.178,231.833 173.5,230.5 Z"/></g>
<g><path style="opacity:1" fill="#f36389" d="M 459.5,250.5 C 460.703,254.11 461.703,257.777 462.5,261.5C 420.167,261.5 377.833,261.5 335.5,261.5C 333.199,258.19 330.866,254.857 328.5,251.5C 372.094,250.506 415.761,250.172 459.5,250.5 Z"/></g>
<g><path style="opacity:1" fill="#c7d2f9" d="M 278.5,252.5 C 278.5,274.833 278.5,297.167 278.5,319.5C 270.5,322.5 262.5,325.5 254.5,328.5C 254.5,303.833 254.5,279.167 254.5,254.5C 262.567,254.373 270.567,253.706 278.5,252.5 Z"/></g>
<g><path style="opacity:1" fill="#ee6383" d="M 335.5,261.5 C 377.833,261.5 420.167,261.5 462.5,261.5C 464.07,264.314 465.403,267.314 466.5,270.5C 424.167,270.5 381.833,270.5 339.5,270.5C 338.167,267.5 336.833,264.5 335.5,261.5 Z"/></g>
<g><path style="opacity:1" fill="#ed5d82" d="M 45.5,267.5 C 65.8224,268.833 86.489,269.5 107.5,269.5C 128.572,269.495 149.572,269.161 170.5,268.5C 168.871,273.735 166.871,278.735 164.5,283.5C 122.031,282.509 79.6979,282.175 37.5,282.5C 39.9283,277.307 42.595,272.307 45.5,267.5 Z"/></g>
<g><path style="opacity:1" fill="#ed5c83" d="M 339.5,270.5 C 381.833,270.5 424.167,270.5 466.5,270.5C 468.992,274.151 470.992,278.151 472.5,282.5C 429.99,282.835 387.657,283.835 345.5,285.5C 343.821,280.46 341.821,275.46 339.5,270.5 Z"/></g>
<g><path style="opacity:1" fill="#8798cc" d="M 253.5,226.5 C 253.833,226.5 254.167,226.5 254.5,226.5C 254.5,235.833 254.5,245.167 254.5,254.5C 254.5,279.167 254.5,303.833 254.5,328.5C 253.504,314.677 253.171,300.677 253.5,286.5C 245.483,286.501 237.483,286.834 229.5,287.5C 229.5,271.833 229.5,256.167 229.5,240.5C 237.483,239.834 245.483,239.501 253.5,239.5C 253.5,235.167 253.5,230.833 253.5,226.5 Z"/></g>
<g><path style="opacity:1" fill="#ec557b" d="M 37.5,282.5 C 79.6979,282.175 122.031,282.509 164.5,283.5C 160.568,295.163 158.568,307.163 158.5,319.5C 125.996,319.168 93.6624,319.502 61.5,320.5C 49.7749,314.142 37.4416,309.142 24.5,305.5C 23.3691,303.926 23.2025,302.259 24,300.5C 28.764,294.611 33.264,288.611 37.5,282.5 Z"/></g>
<g><path style="opacity:1" fill="#ec557b" d="M 472.5,282.5 C 476.828,289.125 481.661,295.458 487,301.5C 487.667,303.167 487.667,304.833 487,306.5C 474.275,310.239 462.108,315.239 450.5,321.5C 417.338,320.502 384.004,320.168 350.5,320.5C 350.737,321.791 350.404,322.791 349.5,323.5C 349.695,310.669 348.361,298.002 345.5,285.5C 387.657,283.835 429.99,282.835 472.5,282.5 Z"/></g>
<g><path style="opacity:1" fill="#7c89c2" d="M 254.5,328.5 C 262.5,325.5 270.5,322.5 278.5,319.5C 278.5,332.833 278.5,346.167 278.5,359.5C 270.945,362.741 262.945,364.074 254.5,363.5C 245.77,364.286 237.436,362.953 229.5,359.5C 229.5,335.5 229.5,311.5 229.5,287.5C 237.483,286.834 245.483,286.501 253.5,286.5C 253.171,300.677 253.504,314.677 254.5,328.5 Z"/></g>
<g><path style="opacity:1" fill="#e74b75" d="M 450.5,321.5 C 445.992,324.253 441.659,327.253 437.5,330.5C 408.167,330.5 378.833,330.5 349.5,330.5C 349.5,328.167 349.5,325.833 349.5,323.5C 350.404,322.791 350.737,321.791 350.5,320.5C 384.004,320.168 417.338,320.502 450.5,321.5 Z"/></g>
<g><path style="opacity:1" fill="#e74a6f" d="M 349.5,330.5 C 378.833,330.5 408.167,330.5 437.5,330.5C 434.124,333.842 430.791,337.175 427.5,340.5C 400.833,340.5 374.167,340.5 347.5,340.5C 347.753,336.96 348.419,333.627 349.5,330.5 Z"/></g>
<g><path style="opacity:1" fill="#e74771" d="M 158.5,319.5 C 158.832,330.494 160.832,341.161 164.5,351.5C 141.47,351.354 118.137,351.521 94.5,352C 95.7383,352.69 95.7383,353.19 94.5,353.5C 85.8333,340.167 74.8333,329.167 61.5,320.5C 93.6624,319.502 125.996,319.168 158.5,319.5 Z"/></g>
<g><path style="opacity:1" fill="#f17564" d="M 311.5,374.5 C 310.624,374.631 309.957,374.298 309.5,373.5C 305.98,365.784 301.98,358.451 297.5,351.5C 305.446,346.852 313.113,341.685 320.5,336C 322.367,335.289 323.867,335.789 325,337.5C 327.707,342.416 330.541,347.249 333.5,352C 328.002,361.331 320.669,368.831 311.5,374.5 Z"/></g>
<g><path style="opacity:1" fill="#fab26c" d="M 207.5,349.5 C 204.404,357.914 200.07,365.581 194.5,372.5C 186.606,367.106 180.273,360.273 175.5,352C 178.12,347.261 180.62,342.427 183,337.5C 184.133,335.789 185.633,335.289 187.5,336C 194.023,340.758 200.689,345.258 207.5,349.5 Z"/></g>
<g><path style="opacity:1" fill="#fabc82" d="M 207.5,349.5 C 213.046,352.44 218.713,355.106 224.5,357.5C 219.971,365.388 215.304,373.222 210.5,381C 211.056,381.383 211.389,381.883 211.5,382.5C 205.308,379.956 199.641,376.623 194.5,372.5C 200.07,365.581 204.404,357.914 207.5,349.5 Z"/></g>
<g><path style="opacity:1" fill="#ed674f" d="M 297.5,351.5 C 301.98,358.451 305.98,365.784 309.5,373.5C 309.957,374.298 310.624,374.631 311.5,374.5C 306.316,378.26 300.65,381.26 294.5,383.5C 290.422,375.009 286.088,366.676 281.5,358.5C 286.829,356.169 292.162,353.836 297.5,351.5 Z"/></g>
<g><path style="opacity:1" fill="#e5406b" d="M 347.5,340.5 C 374.167,340.5 400.833,340.5 427.5,340.5C 418.969,350.897 411.969,362.231 406.5,374.5C 381.092,374.823 355.759,374.49 330.5,373.5C 338.036,363.427 343.703,352.427 347.5,340.5 Z"/></g>
<g><path style="opacity:1" fill="#e75b3b" d="M 281.5,358.5 C 286.088,366.676 290.422,375.009 294.5,383.5C 289.059,385.871 283.392,387.871 277.5,389.5C 269.886,390.689 262.219,391.355 254.5,391.5C 254.5,382.167 254.5,372.833 254.5,363.5C 262.945,364.074 270.945,362.741 278.5,359.5C 279.391,358.89 280.391,358.557 281.5,358.5 Z"/></g>
<g><path style="opacity:1" fill="#f9c99e" d="M 224.5,357.5 C 226.167,358.167 227.833,358.833 229.5,359.5C 237.436,362.953 245.77,364.286 254.5,363.5C 254.5,372.833 254.5,382.167 254.5,391.5C 246.752,391.648 239.085,390.981 231.5,389.5C 224.468,387.935 217.802,385.602 211.5,382.5C 211.389,381.883 211.056,381.383 210.5,381C 215.304,373.222 219.971,365.388 224.5,357.5 Z"/></g>
<g><path style="opacity:1" fill="#e23a66" d="M 164.5,351.5 C 171.257,366.328 180.924,378.995 193.5,389.5C 165.5,389.5 137.5,389.5 109.5,389.5C 105.685,377.067 100.685,365.067 94.5,353.5C 95.7383,353.19 95.7383,352.69 94.5,352C 118.137,351.521 141.47,351.354 164.5,351.5 Z"/></g>
<g><path style="opacity:1" fill="#e13163" d="M 109.5,389.5 C 137.5,389.5 165.5,389.5 193.5,389.5C 201.421,395.088 207.087,402.421 210.5,411.5C 210.594,413.912 209.594,415.745 207.5,417C 175.941,414.899 145.774,420.399 117,433.5C 115.893,433.415 114.893,433.081 114,432.5C 113.369,418.062 111.869,403.729 109.5,389.5 Z"/></g>
<g><path style="opacity:1" fill="#e13363" d="M 330.5,373.5 C 355.759,374.49 381.092,374.823 406.5,374.5C 400.524,393.688 397.358,413.355 397,433.5C 396.107,434.081 395.107,434.415 394,434.5C 376.23,426.765 357.73,421.599 338.5,419C 326.633,418.197 314.8,418.364 303,419.5C 299.5,418.667 297.333,416.5 296.5,413C 298.359,408.113 300.859,403.613 304,399.5C 313.365,391.301 322.198,382.634 330.5,373.5 Z"/></g>
<g><path style="opacity:1" fill="#5a5e91" d="M 231.5,389.5 C 239.085,390.981 246.752,391.648 254.5,391.5C 262.219,391.355 269.886,390.689 277.5,389.5C 275.817,394.917 274.151,400.25 272.5,405.5C 260.79,409.066 249.457,413.4 238.5,418.5C 236.353,408.906 234.019,399.239 231.5,389.5 Z"/></g>
<g><path style="opacity:1" fill="#4b5083" d="M 272.5,405.5 C 269.849,419.376 268.182,433.376 267.5,447.5C 263.363,446.346 259.196,445.346 255,444.5C 250.028,444.928 245.194,445.928 240.5,447.5C 240.164,437.809 239.497,428.142 238.5,418.5C 249.457,413.4 260.79,409.066 272.5,405.5 Z"/></g>
<g><path style="opacity:1" fill="#f7c797" d="M 267.5,447.5 C 269.23,448.026 270.564,449.026 271.5,450.5C 257.716,456.225 244.049,462.225 230.5,468.5C 228.635,459.222 231.969,452.222 240.5,447.5C 245.194,445.928 250.028,444.928 255,444.5C 259.196,445.346 263.363,446.346 267.5,447.5 Z"/></g>
<g><path style="opacity:1" fill="#fabf89" d="M 271.5,450.5 C 275.595,453.017 277.928,456.684 278.5,461.5C 264.752,466.971 251.086,472.638 237.5,478.5C 235.983,478.489 234.816,477.823 234,476.5C 232.007,474.182 230.841,471.516 230.5,468.5C 244.049,462.225 257.716,456.225 271.5,450.5 Z"/></g>
<g><path style="opacity:1" fill="#fab677" d="M 278.5,461.5 C 279.109,471.446 274.775,478.279 265.5,482C 255.405,485.905 246.072,484.738 237.5,478.5C 251.086,472.638 264.752,466.971 278.5,461.5 Z"/></g>
</svg>
