<?xml version="1.0" encoding="UTF-8"?>
<!DOCTYPE svg PUBLIC "-//W3C//DTD SVG 1.1//EN" "http://www.w3.org/Graphics/SVG/1.1/DTD/svg11.dtd">
<svg xmlns="http://www.w3.org/2000/svg" version="1.1" width="512px" height="512px" style="shape-rendering:geometricPrecision; text-rendering:geometricPrecision; image-rendering:optimizeQuality; fill-rule:evenodd; clip-rule:evenodd" xmlns:xlink="http://www.w3.org/1999/xlink">
<g><path style="opacity:1" fill="#39384b" d="M 397.5,36.5 C 400.044,36.1043 402.211,36.771 404,38.5C 404.906,43.1262 406.573,47.4596 409,51.5C 449.108,96.7484 471.441,149.748 476,210.5C 479.863,268.517 468.863,323.517 443,375.5C 407.887,432.504 356.72,464.338 289.5,471C 236.049,477.209 183.049,474.542 130.5,463C 81.5036,446.337 51.0036,412.837 39,362.5C 38.1696,357.857 37.5029,353.19 37,348.5C 36.6667,334.833 36.3333,321.167 36,307.5C 32.4307,291.007 37.4307,288.007 51,298.5C 54.2505,272.501 65.0838,250.334 83.5,232C 85.7693,230.276 88.1026,230.276 90.5,232C 91.1159,233.4 91.4493,234.9 91.5,236.5C 87.6031,249.714 85.2697,263.214 84.5,277C 84.8599,303.217 95.1932,324.384 115.5,340.5C 117.447,330.403 122.447,322.236 130.5,316C 133.68,314.964 136.18,315.797 138,318.5C 140.126,345.624 154.293,362.791 180.5,370C 197.325,375.748 213.325,374.082 228.5,365C 238.645,356.92 240.812,347.087 235,335.5C 230.493,328.669 224.16,324.669 216,323.5C 199.319,329.145 183.819,326.978 169.5,317C 158.771,305.271 154.604,291.438 157,275.5C 157.206,272.377 157.873,269.377 159,266.5C 160.599,264.964 162.433,264.464 164.5,265C 167.149,268.914 170.482,272.247 174.5,275C 186.913,278.455 194.246,273.788 196.5,261C 193.628,251.089 188.795,242.255 182,234.5C 135.955,178.79 90.2882,122.79 45,66.5C 37.8461,52.1448 42.0128,43.1448 57.5,39.5C 61.0743,39.9693 64.4076,41.1359 67.5,43C 113.977,86.8187 161.644,129.152 210.5,170C 224.5,180.667 238.5,191.333 252.5,202C 257.82,204.702 261.987,203.535 265,198.5C 267.692,189.097 267.859,179.597 265.5,170C 265.305,167.648 265.972,165.648 267.5,164C 283.36,165.5 294.527,173.666 301,188.5C 303.317,197.326 304.651,206.326 305,215.5C 311.26,236.795 324.76,242.962 345.5,234C 358.491,225.731 363.324,213.897 360,198.5C 359.202,195.107 358.202,191.774 357,188.5C 351.433,181.029 347.766,172.696 346,163.5C 345.333,160.167 345.333,156.833 346,153.5C 348.288,150.222 351.121,149.722 354.5,152C 357.856,157.451 362.522,159.118 368.5,157C 371.316,154.868 372.649,152.035 372.5,148.5C 368.369,126.752 356.369,110.918 336.5,101C 316.75,92.2288 296.083,86.8955 274.5,85C 270.556,81.4572 270.889,78.1238 275.5,75C 309.889,54.6714 345.556,52.1714 382.5,67.5C 382.323,54.8497 387.323,44.5164 397.5,36.5 Z"/></g>
<g><path style="opacity:1" fill="#f89582" d="M 425.5,88.5 C 410.523,103.476 395.189,118.143 379.5,132.5C 374.993,122.825 368.993,114.159 361.5,106.5C 365.998,102.17 370.665,98.0035 375.5,94C 380.102,89.9063 384.102,85.4063 387.5,80.5C 390.212,81.9874 392.379,81.3207 394,78.5C 393.921,73.995 393.421,69.495 392.5,65C 392.544,59.9822 394.044,55.4822 397,51.5C 402.578,59.7493 408.912,67.416 416,74.5C 419.388,79.0477 422.555,83.7144 425.5,88.5 Z"/></g>
<g><path style="opacity:1" fill="#f6c77c" d="M 100.5,87.5 C 95.8594,91.8052 91.1927,96.1386 86.5,100.5C 75.1137,87.4225 63.947,74.0892 53,60.5C 50.6355,56.5262 51.1355,53.0262 54.5,50C 56.9712,49.2937 59.3046,49.627 61.5,51C 74.3958,63.3997 87.3958,75.5663 100.5,87.5 Z"/></g>
<g><path style="opacity:1" fill="#f5a081" d="M 360.5,70.5 C 353.472,77.5296 346.138,84.1963 338.5,90.5C 323.626,84.6143 308.293,80.281 292.5,77.5C 314.286,66.9863 336.953,64.653 360.5,70.5 Z"/></g>
<g><path style="opacity:1" fill="#f89b82" d="M 360.5,70.5 C 369.811,72.9887 378.811,76.322 387.5,80.5C 384.102,85.4063 380.102,89.9063 375.5,94C 370.665,98.0035 365.998,102.17 361.5,106.5C 354.362,100.355 346.695,95.0213 338.5,90.5C 346.138,84.1963 353.472,77.5296 360.5,70.5 Z"/></g>
<g><path style="opacity:1" fill="#f7bf7c" d="M 100.5,87.5 C 107.491,93.1584 114.157,99.1584 120.5,105.5C 115.448,111.519 109.781,116.852 103.5,121.5C 97.4611,114.795 91.7944,107.795 86.5,100.5C 91.1927,96.1386 95.8594,91.8052 100.5,87.5 Z"/></g>
<g><path style="opacity:1" fill="#f88e82" d="M 425.5,88.5 C 430.927,96.3484 435.594,104.682 439.5,113.5C 414.833,136.5 390.167,159.5 365.5,182.5C 362.355,178.222 359.688,173.555 357.5,168.5C 372.481,169.832 380.814,163.166 382.5,148.5C 381.518,143.188 380.518,137.855 379.5,132.5C 395.189,118.143 410.523,103.476 425.5,88.5 Z"/></g>
<g><path style="opacity:1" fill="#f8b97c" d="M 120.5,105.5 C 127.491,111.158 134.157,117.158 140.5,123.5C 134.465,130.536 127.798,136.869 120.5,142.5C 114.461,135.795 108.794,128.795 103.5,121.5C 109.781,116.852 115.448,111.519 120.5,105.5 Z"/></g>
<g><path style="opacity:1" fill="#38384a" d="M 311.5,106.5 C 332.786,108.295 342.953,119.961 342,141.5C 341.692,142.308 341.192,142.975 340.5,143.5C 326.591,146.289 314.424,142.956 304,133.5C 299.358,127.242 297.358,120.242 298,112.5C 298.465,111.069 299.299,109.903 300.5,109C 304.312,108.205 307.979,107.371 311.5,106.5 Z"/></g>
<g><path style="opacity:1" fill="#39384b" d="M 214.5,113.5 C 218.105,113.799 221.439,114.965 224.5,117C 231.833,118 239.167,119 246.5,120C 262.334,126.171 267.501,137.337 262,153.5C 261.044,154.894 259.711,155.561 258,155.5C 248.952,151.491 239.452,149.657 229.5,150C 215.595,145.082 209.428,135.249 211,120.5C 211.133,117.596 212.3,115.262 214.5,113.5 Z"/></g>
<g><path style="opacity:1" fill="#f98882" d="M 439.5,113.5 C 443.945,121.835 447.612,130.502 450.5,139.5C 423.473,165.528 396.473,191.528 369.5,217.5C 371.75,205.387 370.417,193.72 365.5,182.5C 390.167,159.5 414.833,136.5 439.5,113.5 Z"/></g>
<g><path style="opacity:1" fill="#f19780" d="M 308.5,116.5 C 322.091,115.112 329.758,121.112 331.5,134.5C 322.435,135.049 315.268,131.715 310,124.5C 308.921,121.937 308.421,119.271 308.5,116.5 Z"/></g>
<g><path style="opacity:1" fill="#f8b37c" d="M 140.5,123.5 C 147.192,129.196 153.858,134.863 160.5,140.5C 153.854,149.146 146.188,156.812 137.5,163.5C 131.461,156.795 125.794,149.795 120.5,142.5C 127.798,136.869 134.465,130.536 140.5,123.5 Z"/></g>
<g><path style="opacity:1" fill="#f4a381" d="M 220.5,126.5 C 227.398,127.994 234.398,128.827 241.5,129C 247.113,130.282 251.28,133.449 254,138.5C 255.115,143.372 253.615,144.539 249.5,142C 243.833,141.667 238.167,141.333 232.5,141C 225.36,138.699 221.36,133.866 220.5,126.5 Z"/></g>
<g><path style="opacity:1" fill="#f98282" d="M 450.5,139.5 C 454.681,149.053 457.681,159.053 459.5,169.5C 415.37,210.462 371.37,251.628 327.5,293C 326.177,293.816 325.511,294.983 325.5,296.5C 317.176,290.839 308.176,286.505 298.5,283.5C 311.183,272.483 323.183,260.817 334.5,248.5C 352.749,245.584 364.415,235.251 369.5,217.5C 396.473,191.528 423.473,165.528 450.5,139.5 Z"/></g>
<g><path style="opacity:1" fill="#f8ae80" d="M 160.5,140.5 C 168.525,147.529 176.525,154.529 184.5,161.5C 176.778,169.724 168.778,177.891 160.5,186C 159.255,186.791 157.922,187.291 156.5,187.5C 149.696,179.903 143.363,171.903 137.5,163.5C 146.188,156.812 153.854,149.146 160.5,140.5 Z"/></g>
<g><path style="opacity:1" fill="#f8a782" d="M 184.5,161.5 C 191.79,166.788 198.79,172.454 205.5,178.5C 205.631,179.239 205.464,179.906 205,180.5C 195.53,188.969 186.363,197.803 177.5,207C 176.255,207.791 174.922,208.291 173.5,208.5C 167.604,201.723 161.938,194.723 156.5,187.5C 157.922,187.291 159.255,186.791 160.5,186C 168.778,177.891 176.778,169.724 184.5,161.5 Z"/></g>
<g><path style="opacity:1" fill="#f87c82" d="M 459.5,169.5 C 463.455,183.772 465.789,198.439 466.5,213.5C 465.686,211.369 465.186,209.036 465,206.5C 455.696,214.803 446.696,223.469 438,232.5C 437.536,233.094 437.369,233.761 437.5,234.5C 434.056,230.939 430.056,228.106 425.5,226C 423.833,225.333 422.167,225.333 420.5,226C 414.737,235.301 412.07,245.467 412.5,256.5C 404.807,263.861 397.14,271.194 389.5,278.5C 386.19,275.197 382.69,274.864 379,277.5C 379.604,284.985 379.438,292.319 378.5,299.5C 378.665,295.818 378.499,292.152 378,288.5C 368.267,298.736 358.1,308.403 347.5,317.5C 340.825,309.826 333.492,302.826 325.5,296.5C 325.511,294.983 326.177,293.816 327.5,293C 371.37,251.628 415.37,210.462 459.5,169.5 Z"/></g>
<g><path style="opacity:1" fill="#f7a082" d="M 205.5,178.5 C 213.149,184.152 220.482,190.152 227.5,196.5C 222.833,200.833 218.167,205.167 213.5,209.5C 209.739,208.453 206.406,206.619 203.5,204C 198,202.833 195.833,205 197,210.5C 199.062,213.723 200.896,217.057 202.5,220.5C 199.369,223.129 196.369,225.962 193.5,229C 192.552,229.483 191.552,229.649 190.5,229.5C 184.594,222.683 178.927,215.683 173.5,208.5C 174.922,208.291 176.255,207.791 177.5,207C 186.363,197.803 195.53,188.969 205,180.5C 205.464,179.906 205.631,179.239 205.5,178.5 Z"/></g>
<g><path style="opacity:1" fill="#f79682" d="M 294.5,213.5 C 264.338,242.161 234.005,270.661 203.5,299C 197.902,304.091 192.902,309.591 188.5,315.5C 172.698,310.252 165.698,299.252 167.5,282.5C 183.072,290.304 195.239,286.637 204,271.5C 206.838,265.295 207.171,258.962 205,252.5C 201.156,244.13 196.322,236.464 190.5,229.5C 191.552,229.649 192.552,229.483 193.5,229C 196.369,225.962 199.369,223.129 202.5,220.5C 208.636,230.832 214.636,241.332 220.5,252C 228.053,257.232 236.053,257.898 244.5,254C 253.528,246.143 254.694,237.31 248,227.5C 244.448,224.281 240.615,221.448 236.5,219C 228.744,215.781 221.078,212.614 213.5,209.5C 218.167,205.167 222.833,200.833 227.5,196.5C 235.433,202.476 243.767,207.976 252.5,213C 265.089,214.288 272.922,208.788 276,196.5C 276.169,189.809 276.669,183.142 277.5,176.5C 290.986,185.144 296.653,197.478 294.5,213.5 Z"/></g>
<g><path style="opacity:1" fill="#3b3a4c" d="M 213.5,209.5 C 221.078,212.614 228.744,215.781 236.5,219C 240.615,221.448 244.448,224.281 248,227.5C 254.694,237.31 253.528,246.143 244.5,254C 236.053,257.898 228.053,257.232 220.5,252C 214.636,241.332 208.636,230.832 202.5,220.5C 200.896,217.057 199.062,213.723 197,210.5C 195.833,205 198,202.833 203.5,204C 206.406,206.619 209.739,208.453 213.5,209.5 Z"/></g>
<g><path style="opacity:1" fill="#f97583" d="M 466.5,213.5 C 466.5,215.5 466.5,217.5 466.5,219.5C 466.666,227.174 466.5,234.841 466,242.5C 459.93,249.074 453.43,255.074 446.5,260.5C 447.78,250.258 444.78,241.592 437.5,234.5C 437.369,233.761 437.536,233.094 438,232.5C 446.696,223.469 455.696,214.803 465,206.5C 465.186,209.036 465.686,211.369 466.5,213.5 Z"/></g>
<g><path style="opacity:1" fill="#f88e82" d="M 294.5,213.5 C 295.845,223.215 299.511,231.882 305.5,239.5C 294.828,250.172 283.828,260.505 272.5,270.5C 269.495,267.682 266.828,264.516 264.5,261C 261.692,260.08 259.525,260.913 258,263.5C 257.28,270.536 257.447,277.536 258.5,284.5C 247.807,294.861 237.14,305.194 226.5,315.5C 213.746,314.877 201.079,314.877 188.5,315.5C 192.902,309.591 197.902,304.091 203.5,299C 234.005,270.661 264.338,242.161 294.5,213.5 Z"/></g>
<g><path style="opacity:1" fill="#f3f3f4" d="M 213.5,221.5 C 222.881,222.478 231.548,225.978 239.5,232C 245.274,237.895 244.607,242.895 237.5,247C 232.265,248.466 228.099,246.966 225,242.5C 221.661,235.149 217.827,228.149 213.5,221.5 Z"/></g>
<g><path style="opacity:1" fill="#3c3a4d" d="M 437.5,234.5 C 444.78,241.592 447.78,250.258 446.5,260.5C 444.755,269.413 441.088,277.413 435.5,284.5C 433.568,285.52 431.568,285.687 429.5,285C 428.211,283.198 426.544,282.031 424.5,281.5C 418.108,274.381 414.108,266.048 412.5,256.5C 412.07,245.467 414.737,235.301 420.5,226C 422.167,225.333 423.833,225.333 425.5,226C 430.056,228.106 434.056,230.939 437.5,234.5 Z"/></g>
<g><path style="opacity:1" fill="#38384b" d="M 108.5,236.5 C 125.118,238.608 136.285,247.608 142,263.5C 145.257,275.468 143.257,286.468 136,296.5C 118.159,305.824 108.326,300.324 106.5,280C 107.464,271.826 108.464,263.659 109.5,255.5C 109.325,250.646 108.325,245.98 106.5,241.5C 106.437,239.486 107.103,237.819 108.5,236.5 Z"/></g>
<g><path style="opacity:1" fill="#f2f2f3" d="M 424.5,237.5 C 434.068,241.624 438.235,248.957 437,259.5C 436.042,264.545 434.209,269.212 431.5,273.5C 423.569,266.627 420.402,257.96 422,247.5C 422.533,244.071 423.367,240.738 424.5,237.5 Z"/></g>
<g><path style="opacity:1" fill="#f88882" d="M 305.5,239.5 C 314.042,245.902 323.709,248.902 334.5,248.5C 323.183,260.817 311.183,272.483 298.5,283.5C 290.623,282.061 283.289,279.227 276.5,275C 274.959,273.629 273.625,272.129 272.5,270.5C 283.828,260.505 294.828,250.172 305.5,239.5 Z"/></g>
<g><path style="opacity:1" fill="#f76f88" d="M 466.5,219.5 C 468.059,242.038 466.393,264.372 461.5,286.5C 461.631,285.761 461.464,285.094 461,284.5C 446.297,298.705 431.464,312.705 416.5,326.5C 414.502,317.174 411.502,308.174 407.5,299.5C 407.369,298.761 407.536,298.094 408,297.5C 414.003,292.663 419.503,287.33 424.5,281.5C 426.544,282.031 428.211,283.198 429.5,285C 431.568,285.687 433.568,285.52 435.5,284.5C 441.088,277.413 444.755,269.413 446.5,260.5C 453.43,255.074 459.93,249.074 466,242.5C 466.5,234.841 466.666,227.174 466.5,219.5 Z"/></g>
<g><path style="opacity:1" fill="#f59f81" d="M 119.5,250.5 C 132.707,258.97 136.54,270.636 131,285.5C 126.137,293.436 121.47,293.436 117,285.5C 116.953,273.777 117.786,262.111 119.5,250.5 Z"/></g>
<g><path style="opacity:1" fill="#f87583" d="M 412.5,256.5 C 414.108,266.048 418.108,274.381 424.5,281.5C 419.503,287.33 414.003,292.663 408,297.5C 407.536,298.094 407.369,298.761 407.5,299.5C 402.674,291.529 396.674,284.529 389.5,278.5C 397.14,271.194 404.807,263.861 412.5,256.5 Z"/></g>
<g><path style="opacity:1" fill="#3c3a4d" d="M 272.5,270.5 C 273.625,272.129 274.959,273.629 276.5,275C 283.289,279.227 290.623,282.061 298.5,283.5C 308.176,286.505 317.176,290.839 325.5,296.5C 333.492,302.826 340.825,309.826 347.5,317.5C 353.5,324.942 360.834,326.442 369.5,322C 375.53,315.749 378.53,308.249 378.5,299.5C 379.438,292.319 379.604,284.985 379,277.5C 382.69,274.864 386.19,275.197 389.5,278.5C 396.674,284.529 402.674,291.529 407.5,299.5C 411.502,308.174 414.502,317.174 416.5,326.5C 417.479,340.651 415.479,354.318 410.5,367.5C 397.963,397.372 376.63,418.039 346.5,429.5C 332.749,432.941 318.749,434.274 304.5,433.5C 294.802,431.039 285.468,427.373 276.5,422.5C 269.167,417.167 262.833,410.833 257.5,403.5C 252.153,391.513 255.487,388.18 267.5,393.5C 279.083,399.316 290.416,398.816 301.5,392C 309.036,382.786 311.536,372.286 309,360.5C 308.802,358.618 308.302,356.952 307.5,355.5C 304.566,344.96 299.566,335.627 292.5,327.5C 286.465,320.464 279.798,314.131 272.5,308.5C 265.783,301.738 261.116,293.738 258.5,284.5C 257.447,277.536 257.28,270.536 258,263.5C 259.525,260.913 261.692,260.08 264.5,261C 266.828,264.516 269.495,267.682 272.5,270.5 Z"/></g>
<g><path style="opacity:1" fill="#f2a380" d="M 77.5,300.5 C 72.1264,307.247 66.1264,312.581 59.5,316.5C 59.7603,295.018 65.2603,275.018 76,256.5C 74.9678,271.2 75.4678,285.867 77.5,300.5 Z"/></g>
<g><path style="opacity:1" fill="#f8f8f8" d="M 267.5,280.5 C 271.111,282.644 274.778,284.81 278.5,287C 295.815,290.54 311.482,297.54 325.5,308C 332.865,315.03 339.865,322.364 346.5,330C 365.754,338.295 378.921,332.462 386,312.5C 387.652,305.256 388.652,297.923 389,290.5C 411.38,318.273 413.38,347.606 395,378.5C 373.71,411.645 343.377,426.645 304,423.5C 291.212,421.191 280.379,415.358 271.5,406C 279.127,406.522 286.794,406.522 294.5,406C 311.821,399.382 319.821,386.715 318.5,368C 318.644,355.112 315.144,343.279 308,332.5C 299.149,319.472 288.483,308.139 276,298.5C 271.54,293.295 268.706,287.295 267.5,280.5 Z"/></g>
<g><path style="opacity:1" fill="#f88882" d="M 258.5,284.5 C 261.116,293.738 265.783,301.738 272.5,308.5C 263.801,317.201 254.801,325.534 245.5,333.5C 241.113,325.446 234.779,319.446 226.5,315.5C 237.14,305.194 247.807,294.861 258.5,284.5 Z"/></g>
<g><path style="opacity:1" fill="#f86988" d="M 461.5,286.5 C 459.262,302.716 455.262,318.383 449.5,333.5C 436.89,344.94 424.39,356.606 412,368.5C 411.617,367.944 411.117,367.611 410.5,367.5C 415.479,354.318 417.479,340.651 416.5,326.5C 431.464,312.705 446.297,298.705 461,284.5C 461.464,285.094 461.631,285.761 461.5,286.5 Z"/></g>
<g><path style="opacity:1" fill="#f87582" d="M 378.5,299.5 C 378.53,308.249 375.53,315.749 369.5,322C 360.834,326.442 353.5,324.942 347.5,317.5C 358.1,308.403 368.267,298.736 378,288.5C 378.499,292.152 378.665,295.818 378.5,299.5 Z"/></g>
<g><path style="opacity:1" fill="#f8a182" d="M 77.5,300.5 C 80.0209,309.554 83.6876,318.221 88.5,326.5C 87.4566,329.056 85.7899,331.223 83.5,333C 72.574,343.767 61.2407,353.933 49.5,363.5C 46.6096,345.325 45.7763,326.992 47,308.5C 48.9733,311.617 50.8067,314.784 52.5,318C 55.171,318.833 57.5043,318.333 59.5,316.5C 66.1264,312.581 72.1264,307.247 77.5,300.5 Z"/></g>
<g><path style="opacity:1" fill="#f88282" d="M 272.5,308.5 C 279.798,314.131 286.465,320.464 292.5,327.5C 260.859,356.473 229.526,385.806 198.5,415.5C 196.18,416.418 194.013,417.752 192,419.5C 191.51,420.793 191.343,422.127 191.5,423.5C 188.062,425.759 184.729,428.259 181.5,431C 172.605,440.063 163.605,448.896 154.5,457.5C 143.547,456.846 133.214,454.179 123.5,449.5C 143.636,430.2 163.969,411.033 184.5,392C 187.777,389.234 190.443,386.067 192.5,382.5C 209.534,384.243 224.868,380.077 238.5,370C 247.652,359.232 249.985,347.065 245.5,333.5C 254.801,325.534 263.801,317.201 272.5,308.5 Z"/></g>
<g><path style="opacity:1" fill="#f99b82" d="M 88.5,326.5 C 93.4179,334.087 99.4179,340.754 106.5,346.5C 105.118,349.394 103.118,351.894 100.5,354C 87.9755,365.435 75.6422,377.102 63.5,389C 62.255,389.791 60.9217,390.291 59.5,390.5C 55.0023,382.015 51.669,373.015 49.5,363.5C 61.2407,353.933 72.574,343.767 83.5,333C 85.7899,331.223 87.4566,329.056 88.5,326.5 Z"/></g>
<g><path style="opacity:1" fill="#f97c82" d="M 292.5,327.5 C 299.566,335.627 304.566,344.96 307.5,355.5C 294.167,368.167 280.833,380.833 267.5,393.5C 255.487,388.18 252.153,391.513 257.5,403.5C 250.147,409.856 242.814,416.189 235.5,422.5C 224.425,413.702 212.092,411.368 198.5,415.5C 229.526,385.806 260.859,356.473 292.5,327.5 Z"/></g>
<g><path style="opacity:1" fill="#f89582" d="M 141.5,357.5 C 120.196,377.47 99.196,397.803 78.5,418.5C 70.6851,410.214 64.3518,400.88 59.5,390.5C 60.9217,390.291 62.255,389.791 63.5,389C 75.6422,377.102 87.9755,365.435 100.5,354C 103.118,351.894 105.118,349.394 106.5,346.5C 110.343,349.503 114.343,352.336 118.5,355C 122.805,356.539 125.472,355.206 126.5,351C 124.516,343.982 125.516,337.482 129.5,331.5C 132.162,340.837 136.162,349.504 141.5,357.5 Z"/></g>
<g><path style="opacity:1" fill="#f76388" d="M 449.5,333.5 C 432.871,387.3 398.537,425.134 346.5,447C 338.309,450.009 329.975,452.509 321.5,454.5C 329.527,445.806 337.86,437.473 346.5,429.5C 376.63,418.039 397.963,397.372 410.5,367.5C 411.117,367.611 411.617,367.944 412,368.5C 424.39,356.606 436.89,344.94 449.5,333.5 Z"/></g>
<g><path style="opacity:1" fill="#f77582" d="M 307.5,355.5 C 308.302,356.952 308.802,358.618 309,360.5C 311.536,372.286 309.036,382.786 301.5,392C 290.416,398.816 279.083,399.316 267.5,393.5C 280.833,380.833 294.167,368.167 307.5,355.5 Z"/></g>
<g><path style="opacity:1" fill="#f98e82" d="M 141.5,357.5 C 147.931,363.601 154.931,368.934 162.5,373.5C 158.767,378.74 154.434,383.574 149.5,388C 131.999,403.668 114.999,419.835 98.5,436.5C 91.0375,431.427 84.3708,425.427 78.5,418.5C 99.196,397.803 120.196,377.47 141.5,357.5 Z"/></g>
<g><path style="opacity:1" fill="#f98882" d="M 162.5,373.5 C 171.972,378.234 181.972,381.234 192.5,382.5C 190.443,386.067 187.777,389.234 184.5,392C 163.969,411.033 143.636,430.2 123.5,449.5C 114.449,446.475 106.116,442.142 98.5,436.5C 114.999,419.835 131.999,403.668 149.5,388C 154.434,383.574 158.767,378.74 162.5,373.5 Z"/></g>
<g><path style="opacity:1" fill="#f77583" d="M 257.5,403.5 C 262.833,410.833 269.167,417.167 276.5,422.5C 261.504,436.163 246.837,450.163 232.5,464.5C 221.813,464.646 211.146,464.312 200.5,463.5C 198.708,462.691 196.708,462.191 194.5,462C 200.003,457.663 205.003,452.83 209.5,447.5C 222.758,452.55 234.925,450.55 246,441.5C 246.667,439.833 246.667,438.167 246,436.5C 243.221,431.267 239.721,426.6 235.5,422.5C 242.814,416.189 250.147,409.856 257.5,403.5 Z"/></g>
<g><path style="opacity:1" fill="#3c3a4d" d="M 235.5,422.5 C 239.721,426.6 243.221,431.267 246,436.5C 246.667,438.167 246.667,439.833 246,441.5C 234.925,450.55 222.758,452.55 209.5,447.5C 200.878,441.534 194.878,433.534 191.5,423.5C 191.343,422.127 191.51,420.793 192,419.5C 194.013,417.752 196.18,416.418 198.5,415.5C 212.092,411.368 224.425,413.702 235.5,422.5 Z"/></g>
<g><path style="opacity:1" fill="#f96f88" d="M 276.5,422.5 C 285.468,427.373 294.802,431.039 304.5,433.5C 293.839,442.828 283.506,452.495 273.5,462.5C 259.883,464.026 246.217,464.692 232.5,464.5C 246.837,450.163 261.504,436.163 276.5,422.5 Z"/></g>
<g><path style="opacity:1" fill="#f77c82" d="M 191.5,423.5 C 194.878,433.534 200.878,441.534 209.5,447.5C 205.003,452.83 200.003,457.663 194.5,462C 196.708,462.191 198.708,462.691 200.5,463.5C 184.947,462.149 169.614,460.149 154.5,457.5C 163.605,448.896 172.605,440.063 181.5,431C 184.729,428.259 188.062,425.759 191.5,423.5 Z"/></g>
<g><path style="opacity:1" fill="#f3f3f3" d="M 207.5,422.5 C 219.488,422.326 228.821,427.16 235.5,437C 220.463,445.16 209.463,441.327 202.5,425.5C 203.947,424.065 205.614,423.065 207.5,422.5 Z"/></g>
<g><path style="opacity:1" fill="#f86988" d="M 346.5,429.5 C 337.86,437.473 329.527,445.806 321.5,454.5C 305.754,458.458 289.754,461.124 273.5,462.5C 283.506,452.495 293.839,442.828 304.5,433.5C 318.749,434.274 332.749,432.941 346.5,429.5 Z"/></g>
</svg>
