<?xml version="1.0" encoding="UTF-8"?>
<!DOCTYPE svg PUBLIC "-//W3C//DTD SVG 1.1//EN" "http://www.w3.org/Graphics/SVG/1.1/DTD/svg11.dtd">
<svg xmlns="http://www.w3.org/2000/svg" version="1.1" width="512px" height="512px" style="shape-rendering:geometricPrecision; text-rendering:geometricPrecision; image-rendering:optimizeQuality; fill-rule:evenodd; clip-rule:evenodd" xmlns:xlink="http://www.w3.org/1999/xlink">
<g><path style="opacity:1" fill="#a7c7ae" d="M 455.5,117.5 C 450.5,116.833 445.5,116.167 440.5,115.5C 435.103,113.557 429.436,113.057 423.5,114C 419.607,115.759 416.94,118.592 415.5,122.5C 412.323,133.809 414.156,144.476 421,154.5C 427.684,163.785 436.184,165.952 446.5,161C 452.392,155.601 458.392,150.434 464.5,145.5C 468.919,152.92 470.752,160.92 470,169.5C 467.297,172.371 464.464,175.038 461.5,177.5C 455.35,180.161 449.016,182.328 442.5,184C 436.157,184.18 429.824,184.18 423.5,184C 422.667,184.833 421.833,185.667 421,186.5C 420.589,201.855 415.756,215.521 406.5,227.5C 393.41,241.88 377.077,250.213 357.5,252.5C 348.447,250.426 339.78,247.26 331.5,243C 327.5,238.333 327.5,233.667 331.5,229C 351.806,224.45 367.64,213.617 379,196.5C 382.707,176.027 380.874,156.027 373.5,136.5C 369.506,125.669 362.173,117.835 351.5,113C 338.046,113.189 325.046,115.855 312.5,121C 288.846,132.166 267.846,146.999 249.5,165.5C 241.571,159.908 234.238,153.574 227.5,146.5C 235.685,138.618 239.352,128.951 238.5,117.5C 238.256,112.933 237.09,108.599 235,104.5C 229.251,97.9242 223.417,91.5909 217.5,85.5C 222.478,83.011 227.478,80.511 232.5,78C 241.246,77.4227 249.913,77.756 258.5,79C 282.503,64.498 307.503,51.8313 333.5,41C 336.525,40.6393 339.525,40.1393 342.5,39.5C 368.449,42.8249 394.116,47.6582 419.5,54C 429.763,57.2598 437.263,63.7598 442,73.5C 447.621,87.8616 452.121,102.528 455.5,117.5 Z"/></g>
<g><path style="opacity:1" fill="#f9e3d1" d="M 217.5,85.5 C 223.417,91.5909 229.251,97.9242 235,104.5C 237.09,108.599 238.256,112.933 238.5,117.5C 234.154,125.76 227.321,130.427 218,131.5C 214.871,131.671 212.037,130.838 209.5,129C 196.612,117.972 187.612,104.472 182.5,88.5C 182.335,79.4631 182.835,70.4631 184,61.5C 186.153,59.5561 188.653,59.0561 191.5,60C 200.035,68.7023 208.702,77.2023 217.5,85.5 Z"/></g>
<g><path style="opacity:1" fill="#76967d" d="M 373.5,136.5 C 361.465,135.288 350.132,137.455 339.5,143C 320.093,155.195 303.427,170.362 289.5,188.5C 274.311,182.992 258.978,177.658 243.5,172.5C 245.5,170.167 247.5,167.833 249.5,165.5C 267.846,146.999 288.846,132.166 312.5,121C 325.046,115.855 338.046,113.189 351.5,113C 362.173,117.835 369.506,125.669 373.5,136.5 Z"/></g>
<g><path style="opacity:1" fill="#f9dec9" d="M 440.5,115.5 C 438.582,123.336 436.582,131.17 434.5,139C 434.743,139.902 435.077,140.735 435.5,141.5C 429.174,139.584 423.674,136.251 419,131.5C 417.259,128.691 416.092,125.691 415.5,122.5C 416.94,118.592 419.607,115.759 423.5,114C 429.436,113.057 435.103,113.557 440.5,115.5 Z"/></g>
<g><path style="opacity:1" fill="#f9ebde" d="M 440.5,115.5 C 445.5,116.167 450.5,116.833 455.5,117.5C 462.799,119.66 470.132,121.826 477.5,124C 481.546,125.471 482.379,127.971 480,131.5C 476.748,134.863 473.248,137.863 469.5,140.5C 461.388,141.868 453.222,142.868 445,143.5C 441.523,143.672 438.356,143.006 435.5,141.5C 435.077,140.735 434.743,139.902 434.5,139C 436.582,131.17 438.582,123.336 440.5,115.5 Z"/></g>
<g><path style="opacity:1" fill="#c9a287" d="M 182.5,88.5 C 187.612,104.472 196.612,117.972 209.5,129C 212.037,130.838 214.871,131.671 218,131.5C 227.321,130.427 234.154,125.76 238.5,117.5C 239.352,128.951 235.685,138.618 227.5,146.5C 223.046,149.229 218.38,151.729 213.5,154C 207.577,155.304 201.577,155.804 195.5,155.5C 190.309,153.48 186.809,149.813 185,144.5C 183.362,133.061 182.195,121.728 181.5,110.5C 181.274,103.124 181.608,95.7906 182.5,88.5 Z"/></g>
<g><path style="opacity:1" fill="#c9a286" d="M 415.5,122.5 C 416.092,125.691 417.259,128.691 419,131.5C 423.674,136.251 429.174,139.584 435.5,141.5C 438.356,143.006 441.523,143.672 445,143.5C 453.222,142.868 461.388,141.868 469.5,140.5C 468.167,142.5 466.5,144.167 464.5,145.5C 458.392,150.434 452.392,155.601 446.5,161C 436.184,165.952 427.684,163.785 421,154.5C 414.156,144.476 412.323,133.809 415.5,122.5 Z"/></g>
<g><path style="opacity:1" fill="#a1c0a8" d="M 181.5,110.5 C 182.195,121.728 183.362,133.061 185,144.5C 186.809,149.813 190.309,153.48 195.5,155.5C 195.062,155.435 194.728,155.601 194.5,156C 205.821,166.976 217.488,177.476 229.5,187.5C 224.843,194.138 220.176,200.804 215.5,207.5C 213.745,206.928 212.078,206.094 210.5,205C 203.025,197.436 195.358,190.103 187.5,183C 188.056,182.617 188.389,182.117 188.5,181.5C 189.708,180.766 191.041,180.433 192.5,180.5C 192.67,179.178 192.337,178.011 191.5,177C 183.133,177.655 175.466,175.655 168.5,171C 166.19,169.363 164.69,167.196 164,164.5C 163.501,160.179 163.334,155.846 163.5,151.5C 163.104,143.747 163.604,136.08 165,128.5C 166,126.5 167,124.5 168,122.5C 172.478,118.365 176.978,114.365 181.5,110.5 Z"/></g>
<g><path style="opacity:1" fill="#a2c0ae" d="M 227.5,146.5 C 234.238,153.574 241.571,159.908 249.5,165.5C 247.5,167.833 245.5,170.167 243.5,172.5C 239.155,176.847 235.155,181.514 231.5,186.5C 230.833,186.833 230.167,187.167 229.5,187.5C 217.488,177.476 205.821,166.976 194.5,156C 194.728,155.601 195.062,155.435 195.5,155.5C 201.577,155.804 207.577,155.304 213.5,154C 218.38,151.729 223.046,149.229 227.5,146.5 Z"/></g>
<g><path style="opacity:1" fill="#718f77" d="M 163.5,151.5 C 163.334,155.846 163.501,160.179 164,164.5C 164.69,167.196 166.19,169.363 168.5,171C 175.466,175.655 183.133,177.655 191.5,177C 192.337,178.011 192.67,179.178 192.5,180.5C 191.041,180.433 189.708,180.766 188.5,181.5C 178.208,183.857 167.875,184.024 157.5,182C 151.824,178.825 148.491,173.992 147.5,167.5C 152.5,161.833 157.833,156.5 163.5,151.5 Z"/></g>
<g><path style="opacity:1" fill="#9bbaa7" d="M 147.5,167.5 C 148.491,173.992 151.824,178.825 157.5,182C 167.875,184.024 178.208,183.857 188.5,181.5C 188.389,182.117 188.056,182.617 187.5,183C 195.358,190.103 203.025,197.436 210.5,205C 212.078,206.094 213.745,206.928 215.5,207.5C 209.467,216.523 203.467,225.523 197.5,234.5C 177.474,216.138 157.474,197.805 137.5,179.5C 140.359,175.122 143.692,171.122 147.5,167.5 Z"/></g>
<g><path style="opacity:1" fill="#748f7d" d="M 243.5,172.5 C 258.978,177.658 274.311,182.992 289.5,188.5C 285.919,193.328 282.585,198.328 279.5,203.5C 263.43,197.812 247.43,192.145 231.5,186.5C 235.155,181.514 239.155,176.847 243.5,172.5 Z"/></g>
<g><path style="opacity:1" fill="#f9eadc" d="M 118.5,192.5 C 116.01,196.138 113.51,199.805 111,203.5C 107.529,207.989 103.029,209.822 97.5,209C 92.4684,207.146 87.4684,205.313 82.5,203.5C 78.8964,195.867 77.063,187.867 77,179.5C 78.1939,178.57 79.5272,177.903 81,177.5C 93.6483,182.214 106.148,187.214 118.5,192.5 Z"/></g>
<g><path style="opacity:1" fill="#76967d" d="M 461.5,177.5 C 462.159,193.865 457.993,208.865 449,222.5C 445.956,227.045 442.123,230.711 437.5,233.5C 436.5,234.167 435.5,234.833 434.5,235.5C 425.114,233.038 415.781,230.372 406.5,227.5C 415.756,215.521 420.589,201.855 421,186.5C 421.833,185.667 422.667,184.833 423.5,184C 429.824,184.18 436.157,184.18 442.5,184C 449.016,182.328 455.35,180.161 461.5,177.5 Z"/></g>
<g><path style="opacity:1" fill="#9bbaa1" d="M 137.5,179.5 C 157.474,197.805 177.474,216.138 197.5,234.5C 195.167,239.833 192.833,245.167 190.5,250.5C 189.13,252.25 188.13,254.25 187.5,256.5C 166.466,236.797 145.132,217.464 123.5,198.5C 124.6,197.395 125.267,196.062 125.5,194.5C 128.79,188.913 132.79,183.913 137.5,179.5 Z"/></g>
<g><path style="opacity:1" fill="#708f76" d="M 231.5,186.5 C 247.43,192.145 263.43,197.812 279.5,203.5C 265.782,223.324 259.115,245.324 259.5,269.5C 258.778,269.918 258.278,270.584 258,271.5C 236.157,264.275 214.324,256.941 192.5,249.5C 191.817,249.863 191.15,250.196 190.5,250.5C 192.833,245.167 195.167,239.833 197.5,234.5C 203.467,225.523 209.467,216.523 215.5,207.5C 220.176,200.804 224.843,194.138 229.5,187.5C 230.167,187.167 230.833,186.833 231.5,186.5 Z"/></g>
<g><path style="opacity:1" fill="#caa489" d="M 118.5,192.5 C 120.746,193.455 123.079,194.122 125.5,194.5C 125.267,196.062 124.6,197.395 123.5,198.5C 117.32,207.528 111.653,216.862 106.5,226.5C 103.775,230.268 101.275,234.268 99,238.5C 98.6174,237.944 98.1174,237.611 97.5,237.5C 91.9505,226.402 86.9505,215.068 82.5,203.5C 87.4684,205.313 92.4684,207.146 97.5,209C 103.029,209.822 107.529,207.989 111,203.5C 113.51,199.805 116.01,196.138 118.5,192.5 Z"/></g>
<g><path style="opacity:1" fill="#96b4a1" d="M 123.5,198.5 C 145.132,217.464 166.466,236.797 187.5,256.5C 183.127,267.896 178.794,279.229 174.5,290.5C 151.531,269.533 128.865,248.199 106.5,226.5C 111.653,216.862 117.32,207.528 123.5,198.5 Z"/></g>
<g><path style="opacity:1" fill="#96b49b" d="M 106.5,226.5 C 128.865,248.199 151.531,269.533 174.5,290.5C 174.5,291.5 174.5,292.5 174.5,293.5C 172.493,299.907 170.493,306.241 168.5,312.5C 143.492,290.49 119.159,267.823 95.5,244.5C 96.4552,242.254 97.1218,239.921 97.5,237.5C 98.1174,237.611 98.6174,237.944 99,238.5C 101.275,234.268 103.775,230.268 106.5,226.5 Z"/></g>
<g><path style="opacity:1" fill="#748f7b" d="M 406.5,227.5 C 415.781,230.372 425.114,233.038 434.5,235.5C 425.524,241.821 415.857,246.821 405.5,250.5C 395.379,253.353 385.045,255.02 374.5,255.5C 368.534,255.451 362.867,254.451 357.5,252.5C 377.077,250.213 393.41,241.88 406.5,227.5 Z"/></g>
<g><path style="opacity:1" fill="#bba885" d="M 437.5,233.5 C 436.121,247.183 432.788,260.35 427.5,273C 425.319,275.078 423.319,274.911 421.5,272.5C 416.145,265.099 410.812,257.766 405.5,250.5C 415.857,246.821 425.524,241.821 434.5,235.5C 435.5,234.833 436.5,234.167 437.5,233.5 Z"/></g>
<g><path style="opacity:1" fill="#90ae9b" d="M 95.5,244.5 C 119.159,267.823 143.492,290.49 168.5,312.5C 166.519,319.759 164.852,327.093 163.5,334.5C 162.151,340.253 160.485,345.92 158.5,351.5C 131.833,327.167 105.167,302.833 78.5,278.5C 83.6588,266.849 89.3255,255.516 95.5,244.5 Z"/></g>
<g><path style="opacity:1" fill="#6c8976" d="M 259.5,269.5 C 258.059,286.908 258.725,304.241 261.5,321.5C 260.167,321.167 258.833,320.833 257.5,320.5C 245.807,314.321 233.807,308.655 221.5,303.5C 215.324,299.998 208.99,299.665 202.5,302.5C 193.167,299.5 183.833,296.5 174.5,293.5C 174.5,292.5 174.5,291.5 174.5,290.5C 178.794,279.229 183.127,267.896 187.5,256.5C 188.13,254.25 189.13,252.25 190.5,250.5C 191.15,250.196 191.817,249.863 192.5,249.5C 214.324,256.941 236.157,264.275 258,271.5C 258.278,270.584 258.778,269.918 259.5,269.5 Z"/></g>
<g><path style="opacity:1" fill="#8eae95" d="M 78.5,278.5 C 105.167,302.833 131.833,327.167 158.5,351.5C 157.074,371.773 151.074,390.44 140.5,407.5C 137.791,410.208 135.458,413.208 133.5,416.5C 113.922,433.81 90.9221,442.476 64.5,442.5C 53.6734,442.26 43.0068,440.927 32.5,438.5C 39.5623,382.662 54.8956,329.329 78.5,278.5 Z"/></g>
<g><path style="opacity:1" fill="#6a8970" d="M 174.5,293.5 C 183.833,296.5 193.167,299.5 202.5,302.5C 193.702,311.765 188.368,322.765 186.5,335.5C 185.566,336.568 185.232,337.901 185.5,339.5C 184.735,339.923 183.902,340.257 183,340.5C 176.572,338.19 170.072,336.19 163.5,334.5C 164.852,327.093 166.519,319.759 168.5,312.5C 170.493,306.241 172.493,299.907 174.5,293.5 Z"/></g>
<g><path style="opacity:1" fill="#f9d8c1" d="M 221.5,303.5 C 221.179,324.513 220.512,345.513 219.5,366.5C 214.425,365.962 209.759,364.295 205.5,361.5C 195.731,355.276 189.398,346.61 186.5,335.5C 188.368,322.765 193.702,311.765 202.5,302.5C 208.99,299.665 215.324,299.998 221.5,303.5 Z"/></g>
<g><path style="opacity:1" fill="#f9e1ce" d="M 221.5,303.5 C 233.807,308.655 245.807,314.321 257.5,320.5C 256.897,333.666 256.231,346.833 255.5,360C 255.506,362.033 255.839,363.866 256.5,365.5C 244.226,368.872 231.893,369.205 219.5,366.5C 220.512,345.513 221.179,324.513 221.5,303.5 Z"/></g>
<g><path style="opacity:1" fill="#f9ebde" d="M 257.5,320.5 C 258.833,320.833 260.167,321.167 261.5,321.5C 274.543,327.438 287.376,333.771 300,340.5C 302,342.833 302,345.167 300,347.5C 295.559,350.964 291.059,354.298 286.5,357.5C 276.767,361.1 266.767,363.767 256.5,365.5C 255.839,363.866 255.506,362.033 255.5,360C 256.231,346.833 256.897,333.666 257.5,320.5 Z"/></g>
<g><path style="opacity:1" fill="#c59c80" d="M 186.5,335.5 C 189.398,346.61 195.731,355.276 205.5,361.5C 210.107,375.657 215.107,389.657 220.5,403.5C 218.473,403.662 216.473,403.495 214.5,403C 198.642,392.813 189.142,378.313 186,359.5C 185.5,352.842 185.334,346.175 185.5,339.5C 185.232,337.901 185.566,336.568 186.5,335.5 Z"/></g>
<g><path style="opacity:1" fill="#caa488" d="M 286.5,357.5 C 281.123,362.21 275.457,366.543 269.5,370.5C 256.375,380.452 243.375,390.619 230.5,401C 227.392,402.759 224.059,403.592 220.5,403.5C 215.107,389.657 210.107,375.657 205.5,361.5C 209.759,364.295 214.425,365.962 219.5,366.5C 231.893,369.205 244.226,368.872 256.5,365.5C 266.767,363.767 276.767,361.1 286.5,357.5 Z"/></g>
<g><path style="opacity:1" fill="#658370" d="M 163.5,334.5 C 170.072,336.19 176.572,338.19 183,340.5C 183.902,340.257 184.735,339.923 185.5,339.5C 185.334,346.175 185.5,352.842 186,359.5C 189.142,378.313 198.642,392.813 214.5,403C 216.473,403.495 218.473,403.662 220.5,403.5C 224.059,403.592 227.392,402.759 230.5,401C 243.375,390.619 256.375,380.452 269.5,370.5C 271.857,378.652 272.69,386.986 272,395.5C 268.667,402.167 265.333,408.833 262,415.5C 261.567,426.173 261.734,436.84 262.5,447.5C 222.035,433.567 181.369,420.234 140.5,407.5C 151.074,390.44 157.074,371.773 158.5,351.5C 160.485,345.92 162.151,340.253 163.5,334.5 Z"/></g>
<g><path style="opacity:1" fill="#64836a" d="M 140.5,407.5 C 181.369,420.234 222.035,433.567 262.5,447.5C 262.395,451.548 262.728,455.548 263.5,459.5C 220.61,446.262 177.61,432.429 134.5,418C 133.944,417.617 133.611,417.117 133.5,416.5C 135.458,413.208 137.791,410.208 140.5,407.5 Z"/></g>
<g><path style="opacity:1" fill="#637d6a" d="M 133.5,416.5 C 133.611,417.117 133.944,417.617 134.5,418C 177.61,432.429 220.61,446.262 263.5,459.5C 263.477,465.73 260.477,469.563 254.5,471C 182.5,471.667 110.5,471.667 38.5,471C 32.84,469.836 29.84,466.336 29.5,460.5C 30.3696,453.131 31.3696,445.798 32.5,438.5C 43.0068,440.927 53.6734,442.26 64.5,442.5C 90.9221,442.476 113.922,433.81 133.5,416.5 Z"/></g>
</svg>
