<?xml version="1.0" encoding="UTF-8"?>
<!DOCTYPE svg PUBLIC "-//W3C//DTD SVG 1.1//EN" "http://www.w3.org/Graphics/SVG/1.1/DTD/svg11.dtd">
<svg xmlns="http://www.w3.org/2000/svg" version="1.1" width="512px" height="512px" style="shape-rendering:geometricPrecision; text-rendering:geometricPrecision; image-rendering:optimizeQuality; fill-rule:evenodd; clip-rule:evenodd" xmlns:xlink="http://www.w3.org/1999/xlink">
<g><path style="opacity:1" fill="#faf3da" d="M 416.5,146.5 C 416.565,146.938 416.399,147.272 416,147.5C 381.18,127.507 346.014,108.174 310.5,89.5C 319.469,86.5012 328.803,84.6679 338.5,84C 351.198,83.208 363.865,83.5413 376.5,85C 390.975,104.789 404.308,125.289 416.5,146.5 Z"/></g>
<g><path style="opacity:1" fill="#faecd3" d="M 310.5,89.5 C 346.014,108.174 381.18,127.507 416,147.5C 416.399,147.272 416.565,146.938 416.5,146.5C 424.172,157.167 430.838,168.5 436.5,180.5C 408.074,165.257 379.741,149.757 351.5,134C 349.19,133.503 346.857,133.337 344.5,133.5C 350.427,132.913 356.427,132.08 362.5,131C 364.275,127.606 363.608,124.94 360.5,123C 348.591,122.614 336.925,124.114 325.5,127.5C 309.948,120.056 294.615,112.056 279.5,103.5C 278.702,103.043 278.369,102.376 278.5,101.5C 288.531,95.8187 299.197,91.8187 310.5,89.5 Z"/></g>
<g><path style="opacity:1" fill="#fae6ce" d="M 278.5,101.5 C 278.369,102.376 278.702,103.043 279.5,103.5C 294.615,112.056 309.948,120.056 325.5,127.5C 320.232,130.134 314.899,132.801 309.5,135.5C 294.696,126.929 279.696,118.595 264.5,110.5C 269.13,107.514 273.797,104.514 278.5,101.5 Z"/></g>
<g><path style="opacity:1" fill="#fae6c7" d="M 264.5,110.5 C 279.696,118.595 294.696,126.929 309.5,135.5C 305.5,138.5 301.5,141.5 297.5,144.5C 282.315,136.959 267.648,128.626 253.5,119.5C 256.851,116.152 260.518,113.152 264.5,110.5 Z"/></g>
<g><path style="opacity:1" fill="#faab9d" d="M 344.5,133.5 C 342.265,133.205 340.265,133.539 338.5,134.5C 331.579,135.471 325.246,137.804 319.5,141.5C 314.657,143.418 310.323,146.084 306.5,149.5C 304.37,151.127 302.37,152.96 300.5,155C 296.771,155.783 294.437,154.283 293.5,150.5C 294.432,148.235 295.765,146.235 297.5,144.5C 301.5,141.5 305.5,138.5 309.5,135.5C 314.899,132.801 320.232,130.134 325.5,127.5C 336.925,124.114 348.591,122.614 360.5,123C 363.608,124.94 364.275,127.606 362.5,131C 356.427,132.08 350.427,132.913 344.5,133.5 Z"/></g>
<g><path style="opacity:1" fill="#fae0c0" d="M 244.5,127.5 C 272.739,143.45 301.073,159.117 329.5,174.5C 322.134,178.182 315.467,182.848 309.5,188.5C 282.833,173.833 256.167,159.167 229.5,144.5C 233.804,138.229 238.804,132.563 244.5,127.5 Z"/></g>
<g><path style="opacity:1" fill="#faeccd" d="M 344.5,133.5 C 346.857,133.337 349.19,133.503 351.5,134C 379.741,149.757 408.074,165.257 436.5,180.5C 439.593,184.347 441.926,188.68 443.5,193.5C 422.833,182.5 402.167,171.5 381.5,160.5C 381.167,160.5 380.833,160.5 380.5,160.5C 368.893,152.462 356.56,145.295 343.5,139C 341.308,137.933 339.642,136.433 338.5,134.5C 340.265,133.539 342.265,133.205 344.5,133.5 Z"/></g>
<g><path style="opacity:1" fill="#fae6c7" d="M 319.5,141.5 C 364.383,166.107 409.383,190.441 454.5,214.5C 456.76,218.687 458.76,223.021 460.5,227.5C 456.722,229.255 452.722,229.922 448.5,229.5C 434.555,220.855 420.221,212.688 405.5,205C 404.619,204.292 403.953,203.458 403.5,202.5C 403.919,199.675 402.919,197.509 400.5,196C 397.525,195.956 394.525,196.123 391.5,196.5C 378.006,189.923 365.006,182.59 352.5,174.5C 352.919,171.675 351.919,169.509 349.5,168C 346.314,167.404 343.314,167.904 340.5,169.5C 329.167,162.833 317.833,156.167 306.5,149.5C 310.323,146.084 314.657,143.418 319.5,141.5 Z"/></g>
<g><path style="opacity:1" fill="#fadabb" d="M 229.5,144.5 C 256.167,159.167 282.833,173.833 309.5,188.5C 304.697,193.63 300.697,199.297 297.5,205.5C 277.748,194.292 257.748,183.625 237.5,173.5C 232.598,166.709 227.932,159.709 223.5,152.5C 225.5,149.833 227.5,147.167 229.5,144.5 Z"/></g>
<g><path style="opacity:1" fill="#faecd2" d="M 178.5,145.5 C 187.833,157.167 197.167,168.833 206.5,180.5C 191.755,178.884 177.089,179.217 162.5,181.5C 154.407,170.984 146.073,160.65 137.5,150.5C 150.919,146.948 164.586,145.281 178.5,145.5 Z"/></g>
<g><path style="opacity:1" fill="#faf2d9" d="M 178.5,145.5 C 193.906,145.346 208.906,147.679 223.5,152.5C 227.932,159.709 232.598,166.709 237.5,173.5C 240.143,178.132 243.143,182.465 246.5,186.5C 250.665,194.836 255.332,202.836 260.5,210.5C 275.384,236.268 288.717,262.935 300.5,290.5C 300.565,290.938 300.399,291.272 300,291.5C 272,258.167 244,224.833 216,191.5C 215.098,189.073 214.264,186.74 213.5,184.5C 213.047,183.542 212.381,182.708 211.5,182C 209.618,181.802 207.952,181.302 206.5,180.5C 197.167,168.833 187.833,157.167 178.5,145.5 Z"/></g>
<g><path style="opacity:1" fill="#fae6cd" d="M 137.5,150.5 C 146.073,160.65 154.407,170.984 162.5,181.5C 157.032,182.882 151.698,184.882 146.5,187.5C 137.833,177.167 129.167,166.833 120.5,156.5C 125.8,153.732 131.467,151.732 137.5,150.5 Z"/></g>
<g><path style="opacity:1" fill="#fae0c7" d="M 253.5,119.5 C 267.648,128.626 282.315,136.959 297.5,144.5C 295.765,146.235 294.432,148.235 293.5,150.5C 294.437,154.283 296.771,155.783 300.5,155C 302.37,152.96 304.37,151.127 306.5,149.5C 317.833,156.167 329.167,162.833 340.5,169.5C 336.714,170.893 333.048,172.559 329.5,174.5C 301.073,159.117 272.739,143.45 244.5,127.5C 246.9,124.097 249.9,121.43 253.5,119.5 Z"/></g>
<g><path style="opacity:1" fill="#fae6c7" d="M 120.5,156.5 C 129.167,166.833 137.833,177.167 146.5,187.5C 142.992,188.504 139.826,190.171 137,192.5C 136.217,196.229 137.717,198.563 141.5,199.5C 145.075,197.878 148.741,196.544 152.5,195.5C 161.011,204.516 169.011,214.016 176.5,224C 175.944,224.383 175.611,224.883 175.5,225.5C 170.035,226.766 164.701,228.433 159.5,230.5C 140.844,209.171 122.51,187.504 104.5,165.5C 103.675,164.614 102.675,164.281 101.5,164.5C 107.28,160.68 113.613,158.013 120.5,156.5 Z"/></g>
<g><path style="opacity:1" fill="#fae6cd" d="M 338.5,134.5 C 339.642,136.433 341.308,137.933 343.5,139C 356.56,145.295 368.893,152.462 380.5,160.5C 377.552,160.223 374.719,160.556 372,161.5C 370.676,168.505 373.51,171.005 380.5,169C 384.014,166.468 384.347,163.635 381.5,160.5C 402.167,171.5 422.833,182.5 443.5,193.5C 447.93,200.024 451.597,207.024 454.5,214.5C 409.383,190.441 364.383,166.107 319.5,141.5C 325.246,137.804 331.579,135.471 338.5,134.5 Z"/></g>
<g><path style="opacity:1" fill="#faa091" d="M 380.5,160.5 C 380.833,160.5 381.167,160.5 381.5,160.5C 384.347,163.635 384.014,166.468 380.5,169C 373.51,171.005 370.676,168.505 372,161.5C 374.719,160.556 377.552,160.223 380.5,160.5 Z"/></g>
<g><path style="opacity:1" fill="#fae0c7" d="M 101.5,164.5 C 102.675,164.281 103.675,164.614 104.5,165.5C 122.51,187.504 140.844,209.171 159.5,230.5C 155.074,232.548 150.74,234.882 146.5,237.5C 145.588,235.405 144.421,233.405 143,231.5C 125.587,210.987 108.42,190.32 91.5,169.5C 94.5154,167.326 97.8487,165.659 101.5,164.5 Z"/></g>
<g><path style="opacity:1" fill="#faa290" d="M 352.5,174.5 C 340.475,178.678 329.475,184.678 319.5,192.5C 313.776,197.891 308.776,203.891 304.5,210.5C 300.187,211.513 297.854,209.846 297.5,205.5C 300.697,199.297 304.697,193.63 309.5,188.5C 315.467,182.848 322.134,178.182 329.5,174.5C 333.048,172.559 336.714,170.893 340.5,169.5C 343.314,167.904 346.314,167.404 349.5,168C 351.919,169.509 352.919,171.675 352.5,174.5 Z"/></g>
<g><path style="opacity:1" fill="#fae0c1" d="M 91.5,169.5 C 108.42,190.32 125.587,210.987 143,231.5C 144.421,233.405 145.588,235.405 146.5,237.5C 140.923,240.543 135.757,244.21 131,248.5C 129.584,252.508 130.918,254.841 135,255.5C 141.795,251.393 148.628,247.227 155.5,243C 159.188,241.487 162.855,239.987 166.5,238.5C 175.129,249.796 184.129,260.796 193.5,271.5C 180.09,275.747 167.757,282.08 156.5,290.5C 126.833,255.167 97.1667,219.833 67.5,184.5C 74.9631,178.716 82.9631,173.716 91.5,169.5 Z"/></g>
<g><path style="opacity:1" fill="#fad9b5" d="M 237.5,173.5 C 257.748,183.625 277.748,194.292 297.5,205.5C 297.854,209.846 300.187,211.513 304.5,210.5C 315.279,215.389 325.613,221.056 335.5,227.5C 334.5,229.167 333.167,230.5 331.5,231.5C 303.19,216.592 275.024,201.259 247,185.5C 246.601,185.728 246.435,186.062 246.5,186.5C 243.143,182.465 240.143,178.132 237.5,173.5 Z"/></g>
<g><path style="opacity:1" fill="#fab1a2" d="M 206.5,180.5 C 207.952,181.302 209.618,181.802 211.5,182C 212.381,182.708 213.047,183.542 213.5,184.5C 213.822,186.722 213.155,188.556 211.5,190C 203.215,189.315 194.882,188.815 186.5,188.5C 180.902,188.276 175.569,188.943 170.5,190.5C 164.07,190.982 158.07,192.649 152.5,195.5C 148.741,196.544 145.075,197.878 141.5,199.5C 137.717,198.563 136.217,196.229 137,192.5C 139.826,190.171 142.992,188.504 146.5,187.5C 151.698,184.882 157.032,182.882 162.5,181.5C 177.089,179.217 191.755,178.884 206.5,180.5 Z"/></g>
<g><path style="opacity:1" fill="#fae0c2" d="M 352.5,174.5 C 365.006,182.59 378.006,189.923 391.5,196.5C 378.557,200.265 366.223,205.598 354.5,212.5C 343.772,207.302 333.106,201.802 322.5,196C 320.937,195.241 319.937,194.074 319.5,192.5C 329.475,184.678 340.475,178.678 352.5,174.5 Z"/></g>
<g><path style="opacity:1" fill="#fad9ba" d="M 67.5,184.5 C 97.1667,219.833 126.833,255.167 156.5,290.5C 154.099,298.095 156.432,300.428 163.5,297.5C 164.072,299.255 164.906,300.922 166,302.5C 175.09,312.416 183.59,322.749 191.5,333.5C 185.534,336.483 179.534,339.483 173.5,342.5C 171.95,343.441 170.284,344.107 168.5,344.5C 144.596,317.019 120.93,289.353 97.5,261.5C 89.1667,244.833 80.8333,228.167 72.5,211.5C 68.7029,204.072 65.0362,196.572 61.5,189C 63.3509,187.248 65.3509,185.748 67.5,184.5 Z"/></g>
<g><path style="opacity:1" fill="#fad4b5" d="M 331.5,231.5 C 328.514,235.817 325.18,239.817 321.5,243.5C 301.171,231.683 280.838,220.683 260.5,210.5C 255.332,202.836 250.665,194.836 246.5,186.5C 246.435,186.062 246.601,185.728 247,185.5C 275.024,201.259 303.19,216.592 331.5,231.5 Z"/></g>
<g><path style="opacity:1" fill="#faecd2" d="M 213.5,184.5 C 214.264,186.74 215.098,189.073 216,191.5C 244,224.833 272,258.167 300,291.5C 300.399,291.272 300.565,290.938 300.5,290.5C 308.08,305.841 314.747,321.674 320.5,338C 320.43,338.765 320.097,339.265 319.5,339.5C 318.833,339.5 318.167,339.5 317.5,339.5C 306.957,333.353 295.624,329.02 283.5,326.5C 271.922,311.415 259.755,296.748 247,282.5C 246.472,281.184 246.972,280.517 248.5,280.5C 252.499,281.338 256.499,281.838 260.5,282C 264.701,278.477 264.368,275.477 259.5,273C 252.161,271.299 244.828,269.799 237.5,268.5C 235.333,267.802 233.5,266.469 232,264.5C 223.355,253.688 214.522,243.021 205.5,232.5C 209.445,231.509 213.445,231.176 217.5,231.5C 223.184,232.176 228.851,232.676 234.5,233C 238.701,229.477 238.368,226.477 233.5,224C 220.912,221.988 208.246,221.155 195.5,221.5C 187.569,210.896 179.236,200.563 170.5,190.5C 175.569,188.943 180.902,188.276 186.5,188.5C 194.882,188.815 203.215,189.315 211.5,190C 213.155,188.556 213.822,186.722 213.5,184.5 Z"/></g>
<g><path style="opacity:1" fill="#fae6cd" d="M 170.5,190.5 C 179.236,200.563 187.569,210.896 195.5,221.5C 188.644,222.022 181.977,223.355 175.5,225.5C 175.611,224.883 175.944,224.383 176.5,224C 169.011,214.016 161.011,204.516 152.5,195.5C 158.07,192.649 164.07,190.982 170.5,190.5 Z"/></g>
<g><path style="opacity:1" fill="#fad9ba" d="M 319.5,192.5 C 319.937,194.074 320.937,195.241 322.5,196C 333.106,201.802 343.772,207.302 354.5,212.5C 347.904,217.088 341.57,222.088 335.5,227.5C 325.613,221.056 315.279,215.389 304.5,210.5C 308.776,203.891 313.776,197.891 319.5,192.5 Z"/></g>
<g><path style="opacity:1" fill="#fa9785" d="M 403.5,202.5 C 402.317,203.504 400.984,204.338 399.5,205C 386.847,207.268 375.18,211.768 364.5,218.5C 355.681,222.98 348.015,228.98 341.5,236.5C 337.124,239.874 333.458,243.874 330.5,248.5C 328.384,251.789 326.051,254.956 323.5,258C 319.771,258.783 317.437,257.283 316.5,253.5C 318.175,250.15 319.842,246.816 321.5,243.5C 325.18,239.817 328.514,235.817 331.5,231.5C 333.167,230.5 334.5,229.167 335.5,227.5C 341.57,222.088 347.904,217.088 354.5,212.5C 366.223,205.598 378.557,200.265 391.5,196.5C 394.525,196.123 397.525,195.956 400.5,196C 402.919,197.509 403.919,199.675 403.5,202.5 Z"/></g>
<g><path style="opacity:1" fill="#fae0c2" d="M 403.5,202.5 C 403.953,203.458 404.619,204.292 405.5,205C 420.221,212.688 434.555,220.855 448.5,229.5C 447.081,230.451 445.415,230.784 443.5,230.5C 431.05,233.094 419.05,237.094 407.5,242.5C 392.97,234.738 378.637,226.738 364.5,218.5C 375.18,211.768 386.847,207.268 399.5,205C 400.984,204.338 402.317,203.504 403.5,202.5 Z"/></g>
<g><path style="opacity:1" fill="#fad3af" d="M 321.5,243.5 C 319.842,246.816 318.175,250.15 316.5,253.5C 317.437,257.283 319.771,258.783 323.5,258C 326.051,254.956 328.384,251.789 330.5,248.5C 343.529,255.343 356.196,262.677 368.5,270.5C 349.003,290.152 334.003,312.818 323.5,338.5C 322.844,339.278 322.011,339.944 321,340.5C 320.235,340.43 319.735,340.097 319.5,339.5C 320.097,339.265 320.43,338.765 320.5,338C 314.747,321.674 308.08,305.841 300.5,290.5C 288.717,262.935 275.384,236.268 260.5,210.5C 280.838,220.683 301.171,231.683 321.5,243.5 Z"/></g>
<g><path style="opacity:1" fill="#fad9b9" d="M 364.5,218.5 C 378.637,226.738 392.97,234.738 407.5,242.5C 399.984,246.422 392.984,251.089 386.5,256.5C 384.668,257.248 383.001,258.248 381.5,259.5C 369.742,253.592 358.075,247.426 346.5,241C 344.308,239.933 342.642,238.433 341.5,236.5C 348.015,228.98 355.681,222.98 364.5,218.5 Z"/></g>
<g><path style="opacity:1" fill="#faa897" d="M 195.5,221.5 C 208.246,221.155 220.912,221.988 233.5,224C 238.368,226.477 238.701,229.477 234.5,233C 228.851,232.676 223.184,232.176 217.5,231.5C 206.06,229.972 194.727,230.639 183.5,233.5C 177.678,234.659 172.011,236.326 166.5,238.5C 162.855,239.987 159.188,241.487 155.5,243C 148.628,247.227 141.795,251.393 135,255.5C 130.918,254.841 129.584,252.508 131,248.5C 135.757,244.21 140.923,240.543 146.5,237.5C 150.74,234.882 155.074,232.548 159.5,230.5C 164.701,228.433 170.035,226.766 175.5,225.5C 181.977,223.355 188.644,222.022 195.5,221.5 Z"/></g>
<g><path style="opacity:1" fill="#fae6cd" d="M 217.5,231.5 C 213.445,231.176 209.445,231.509 205.5,232.5C 214.522,243.021 223.355,253.688 232,264.5C 233.5,266.469 235.333,267.802 237.5,268.5C 229.534,267.635 221.534,267.302 213.5,267.5C 203.821,255.825 193.821,244.491 183.5,233.5C 194.727,230.639 206.06,229.972 217.5,231.5 Z"/></g>
<g><path style="opacity:1" fill="#fac89c" d="M 443.5,230.5 C 451.43,243.363 459.097,256.363 466.5,269.5C 463.57,268.701 460.57,268.368 457.5,268.5C 433.452,267.092 409.786,263.092 386.5,256.5C 392.984,251.089 399.984,246.422 407.5,242.5C 419.05,237.094 431.05,233.094 443.5,230.5 Z"/></g>
<g><path style="opacity:1" fill="#fabc90" d="M 72.5,211.5 C 80.8333,228.167 89.1667,244.833 97.5,261.5C 101.169,269.504 104.836,277.504 108.5,285.5C 94.4582,282.758 80.4582,279.758 66.5,276.5C 65.5836,276.543 64.9169,276.876 64.5,277.5C 56.9404,261.514 49.9404,245.18 43.5,228.5C 52.7012,222.065 62.3679,216.398 72.5,211.5 Z"/></g>
<g><path style="opacity:1" fill="#fae6c7" d="M 183.5,233.5 C 193.821,244.491 203.821,255.825 213.5,267.5C 206.931,268.68 200.264,270.014 193.5,271.5C 184.129,260.796 175.129,249.796 166.5,238.5C 172.011,236.326 177.678,234.659 183.5,233.5 Z"/></g>
<g><path style="opacity:1" fill="#fad3b4" d="M 341.5,236.5 C 342.642,238.433 344.308,239.933 346.5,241C 358.075,247.426 369.742,253.592 381.5,259.5C 377.021,262.919 372.688,266.586 368.5,270.5C 356.196,262.677 343.529,255.343 330.5,248.5C 333.458,243.874 337.124,239.874 341.5,236.5 Z"/></g>
<g><path style="opacity:1" fill="#f9bf94" d="M 386.5,256.5 C 409.786,263.092 433.452,267.092 457.5,268.5C 431.64,266.902 407.973,273.235 386.5,287.5C 371.728,295.608 358.395,305.608 346.5,317.5C 338.554,324.109 330.887,331.109 323.5,338.5C 334.003,312.818 349.003,290.152 368.5,270.5C 372.688,266.586 377.021,262.919 381.5,259.5C 383.001,258.248 384.668,257.248 386.5,256.5 Z"/></g>
<g><path style="opacity:1" fill="#fad9b4" d="M 97.5,261.5 C 120.93,289.353 144.596,317.019 168.5,344.5C 166.178,346.664 163.511,348.331 160.5,349.5C 144.47,330.475 128.47,311.475 112.5,292.5C 110.929,290.365 109.596,288.032 108.5,285.5C 104.836,277.504 101.169,269.504 97.5,261.5 Z"/></g>
<g><path style="opacity:1" fill="#fa9d8b" d="M 213.5,267.5 C 221.534,267.302 229.534,267.635 237.5,268.5C 244.828,269.799 252.161,271.299 259.5,273C 264.368,275.477 264.701,278.477 260.5,282C 256.499,281.838 252.499,281.338 248.5,280.5C 239.812,277.971 230.812,276.971 221.5,277.5C 214.725,277.286 208.058,277.953 201.5,279.5C 196.465,280.398 191.799,282.065 187.5,284.5C 178.577,287.292 170.577,291.626 163.5,297.5C 156.432,300.428 154.099,298.095 156.5,290.5C 167.757,282.08 180.09,275.747 193.5,271.5C 200.264,270.014 206.931,268.68 213.5,267.5 Z"/></g>
<g><path style="opacity:1" fill="#ee8f70" d="M 457.5,268.5 C 460.57,268.368 463.57,268.701 466.5,269.5C 464.872,279.452 461.872,289.285 457.5,299C 448.059,300.388 438.726,302.222 429.5,304.5C 415.333,298.661 400.999,292.995 386.5,287.5C 407.973,273.235 431.64,266.902 457.5,268.5 Z"/></g>
<g><path style="opacity:1" fill="#fab589" d="M 108.5,285.5 C 109.596,288.032 110.929,290.365 112.5,292.5C 118.556,306.28 124.89,319.947 131.5,333.5C 116.118,330.757 100.785,327.757 85.5,324.5C 77.6791,309.192 70.6791,293.526 64.5,277.5C 64.9169,276.876 65.5836,276.543 66.5,276.5C 80.4582,279.758 94.4582,282.758 108.5,285.5 Z"/></g>
<g><path style="opacity:1" fill="#fae6c7" d="M 221.5,277.5 C 234.211,292.209 246.544,307.209 258.5,322.5C 251.167,322.5 243.833,322.5 236.5,322.5C 224.365,308.859 212.365,295.026 200.5,281C 201.056,280.617 201.389,280.117 201.5,279.5C 208.058,277.953 214.725,277.286 221.5,277.5 Z"/></g>
<g><path style="opacity:1" fill="#fae6cd" d="M 221.5,277.5 C 230.812,276.971 239.812,277.971 248.5,280.5C 246.972,280.517 246.472,281.184 247,282.5C 259.755,296.748 271.922,311.415 283.5,326.5C 275.193,325.06 266.86,323.727 258.5,322.5C 246.544,307.209 234.211,292.209 221.5,277.5 Z"/></g>
<g><path style="opacity:1" fill="#fae0c7" d="M 201.5,279.5 C 201.389,280.117 201.056,280.617 200.5,281C 212.365,295.026 224.365,308.859 236.5,322.5C 231.694,323.593 226.694,324.259 221.5,324.5C 209.246,312.021 197.913,298.688 187.5,284.5C 191.799,282.065 196.465,280.398 201.5,279.5 Z"/></g>
<g><path style="opacity:1" fill="#fae0c0" d="M 187.5,284.5 C 197.913,298.688 209.246,312.021 221.5,324.5C 211.547,327.235 201.547,330.235 191.5,333.5C 183.59,322.749 175.09,312.416 166,302.5C 164.906,300.922 164.072,299.255 163.5,297.5C 170.577,291.626 178.577,287.292 187.5,284.5 Z"/></g>
<g><path style="opacity:1" fill="#fad3b4" d="M 112.5,292.5 C 128.47,311.475 144.47,330.475 160.5,349.5C 155.312,353.359 150.145,357.359 145,361.5C 140.214,352.262 135.714,342.929 131.5,333.5C 124.89,319.947 118.556,306.28 112.5,292.5 Z"/></g>
<g><path style="opacity:1" fill="#ed896b" d="M 386.5,287.5 C 400.999,292.995 415.333,298.661 429.5,304.5C 408.82,309.677 389.153,317.344 370.5,327.5C 362.203,324.679 354.203,321.345 346.5,317.5C 358.395,305.608 371.728,295.608 386.5,287.5 Z"/></g>
<g><path style="opacity:1" fill="#ed836a" d="M 346.5,317.5 C 354.203,321.345 362.203,324.679 370.5,327.5C 355.616,336.121 341.95,346.454 329.5,358.5C 311.833,351.167 294.167,343.833 276.5,336.5C 290.286,336.027 303.953,337.027 317.5,339.5C 318.167,339.5 318.833,339.5 319.5,339.5C 319.735,340.097 320.235,340.43 321,340.5C 322.011,339.944 322.844,339.278 323.5,338.5C 330.887,331.109 338.554,324.109 346.5,317.5 Z"/></g>
<g><path style="opacity:1" fill="#f9b589" d="M 236.5,322.5 C 243.833,322.5 251.167,322.5 258.5,322.5C 266.86,323.727 275.193,325.06 283.5,326.5C 295.624,329.02 306.957,333.353 317.5,339.5C 303.953,337.027 290.286,336.027 276.5,336.5C 254.05,337.59 232.383,342.257 211.5,350.5C 198.586,348.434 185.919,345.767 173.5,342.5C 179.534,339.483 185.534,336.483 191.5,333.5C 201.547,330.235 211.547,327.235 221.5,324.5C 226.694,324.259 231.694,323.593 236.5,322.5 Z"/></g>
<g><path style="opacity:1" fill="#f9ae81" d="M 85.5,324.5 C 100.785,327.757 116.118,330.757 131.5,333.5C 135.714,342.929 140.214,352.262 145,361.5C 150.145,357.359 155.312,353.359 160.5,349.5C 163.511,348.331 166.178,346.664 168.5,344.5C 170.284,344.107 171.95,343.441 173.5,342.5C 185.919,345.767 198.586,348.434 211.5,350.5C 205.875,352.979 200.542,355.979 195.5,359.5C 181.402,366.883 168.735,376.217 157.5,387.5C 148.992,394.886 141.659,403.22 135.5,412.5C 133.926,412.063 132.759,411.063 132,409.5C 114.444,382.394 98.9435,354.061 85.5,324.5 Z"/></g>
<g><path style="opacity:1" fill="#e97d64" d="M 276.5,336.5 C 294.167,343.833 311.833,351.167 329.5,358.5C 295.734,356.309 263.067,361.642 231.5,374.5C 219.797,368.988 207.797,363.988 195.5,359.5C 200.542,355.979 205.875,352.979 211.5,350.5C 232.383,342.257 254.05,337.59 276.5,336.5 Z"/></g>
<g><path style="opacity:1" fill="#e77664" d="M 195.5,359.5 C 207.797,363.988 219.797,368.988 231.5,374.5C 217.18,381.659 203.847,390.326 191.5,400.5C 179.808,396.939 168.475,392.605 157.5,387.5C 168.735,376.217 181.402,366.883 195.5,359.5 Z"/></g>
<g><path style="opacity:1" fill="#e7705d" d="M 157.5,387.5 C 168.475,392.605 179.808,396.939 191.5,400.5C 182.14,408.693 173.64,417.693 166,427.5C 155.434,423.133 145.267,418.133 135.5,412.5C 141.659,403.22 148.992,394.886 157.5,387.5 Z"/></g>
</svg>
