<?xml version="1.0" encoding="UTF-8"?>
<!DOCTYPE svg PUBLIC "-//W3C//DTD SVG 1.1//EN" "http://www.w3.org/Graphics/SVG/1.1/DTD/svg11.dtd">
<svg xmlns="http://www.w3.org/2000/svg" version="1.1" width="512px" height="512px" style="shape-rendering:geometricPrecision; text-rendering:geometricPrecision; image-rendering:optimizeQuality; fill-rule:evenodd; clip-rule:evenodd" xmlns:xlink="http://www.w3.org/1999/xlink">
<g><path style="opacity:1" fill="#39384b" d="M 361.5,39.5 C 377.483,40.2537 388.983,47.9204 396,62.5C 398.691,77.4735 392.524,83.3068 377.5,80C 369.221,73.0529 362.387,64.8863 357,55.5C 353.975,48.7419 355.475,43.4085 361.5,39.5 Z"/></g>
<g><path style="opacity:1" fill="#f05b85" d="M 366.5,50.5 C 375.224,53.3887 382.058,58.722 387,66.5C 387.398,71.6453 385.231,72.812 380.5,70C 374.386,64.41 369.72,57.91 366.5,50.5 Z"/></g>
<g><path style="opacity:1" fill="#39384b" d="M 258.5,51.5 C 287.052,49.9677 313.052,57.1344 336.5,73C 342.671,78.8381 348.504,85.0048 354,91.5C 360.512,103.19 366.512,115.19 372,127.5C 374.45,132.284 377.95,136.117 382.5,139C 387.805,140.432 391.305,138.599 393,133.5C 393.667,129.5 393.667,125.5 393,121.5C 391.392,115.513 389.892,109.513 388.5,103.5C 388.84,96.9955 392.34,93.6622 399,93.5C 402.716,94.0423 406.216,95.2089 409.5,97C 432.112,115.38 444.945,139.213 448,168.5C 453.726,209.023 448.393,248.023 432,285.5C 428.586,291.997 424.919,298.33 421,304.5C 414.221,312.558 408.055,321.058 402.5,330C 403.025,330.692 403.692,331.192 404.5,331.5C 413.193,327.973 419.86,322.139 424.5,314C 431.615,308.83 437.781,309.664 443,316.5C 444.402,330.628 440.735,343.295 432,354.5C 395.053,398.257 348.887,412.424 293.5,397C 270.896,390.62 251.729,378.787 236,361.5C 223.217,345.046 217.884,326.38 220,305.5C 222.078,277.019 233.078,252.686 253,232.5C 255.335,228.845 254.835,225.679 251.5,223C 239.988,221.837 230.822,226.003 224,235.5C 216.917,247.335 209.583,259.002 202,270.5C 195.721,276.289 189.721,282.289 184,288.5C 182.789,291.552 181.955,294.719 181.5,298C 183.091,309.263 182.591,320.429 180,331.5C 176.434,337.364 171.267,339.53 164.5,338C 162.413,337.208 160.579,336.041 159,334.5C 149.493,320.312 144.159,304.645 143,287.5C 136.039,302.963 135.706,318.63 142,334.5C 154.47,355.442 164.803,377.442 173,400.5C 178.787,413.265 187.287,423.765 198.5,432C 207.422,435.736 216.755,437.736 226.5,438C 232.238,440.789 235.238,445.456 235.5,452C 235.073,457.529 232.406,461.529 227.5,464C 210.254,468.262 192.921,468.595 175.5,465C 159.386,462.806 144.052,458.139 129.5,451C 119.008,443.835 112.508,434.002 110,421.5C 108.118,409.274 105.951,397.108 103.5,385C 99.9427,374.877 93.9427,366.543 85.5,360C 84.1268,359.125 82.6268,358.625 81,358.5C 76.5245,361.451 71.6912,363.784 66.5,365.5C 60.2694,365.307 56.1028,362.307 54,356.5C 30.8197,288.747 36.4863,223.414 71,160.5C 75.5682,153.855 79.7348,147.021 83.5,140C 83.2451,138.674 82.5784,137.674 81.5,137C 72.5306,136.71 63.864,135.043 55.5,132C 49.2975,127.719 46.7975,121.886 48,114.5C 55.2583,112.288 62.0917,109.121 68.5,105C 76.5,94.3333 85.8333,85 96.5,77C 108.895,69.9009 122.228,65.9009 136.5,65C 155.19,64.8366 173.857,64.1699 192.5,63C 214.553,58.6034 236.553,54.7701 258.5,51.5 Z"/></g>
<g><path style="opacity:1" fill="#f85c88" d="M 364.5,135.5 C 298.753,116.096 232.753,96.2624 166.5,76C 169.365,75.8171 172.031,75.3171 174.5,74.5C 181.482,73.876 188.482,73.376 195.5,73C 214.038,68.6925 232.704,65.0258 251.5,62C 276.063,59.8579 299.396,64.1912 321.5,75C 331.957,81.7899 340.79,90.2899 348,100.5C 353.528,112.219 359.028,123.886 364.5,135.5 Z"/></g>
<g><path style="opacity:1" fill="#f96388" d="M 174.5,74.5 C 172.031,75.3171 169.365,75.8171 166.5,76C 232.753,96.2624 298.753,116.096 364.5,135.5C 368.738,141.233 374.071,145.733 380.5,149C 386.169,150.068 391.503,149.235 396.5,146.5C 409.552,149.962 422.552,153.628 435.5,157.5C 438.121,165.499 439.454,173.832 439.5,182.5C 439.5,182.833 439.5,183.167 439.5,183.5C 415.879,176.345 392.212,169.345 368.5,162.5C 363.431,158.799 357.765,157.132 351.5,157.5C 270.454,132.655 189.454,107.655 108.5,82.5C 116.246,78.44 124.579,75.94 133.5,75C 147.163,74.5001 160.829,74.3334 174.5,74.5 Z"/></g>
<g><path style="opacity:1" fill="#f96988" d="M 108.5,82.5 C 189.454,107.655 270.454,132.655 351.5,157.5C 345.064,162.549 343.73,168.882 347.5,176.5C 339.833,174.5 332.167,172.5 324.5,170.5C 320.345,163.528 316.178,156.528 312,149.5C 304.461,142.346 297.795,143.013 292,151.5C 291.503,154.146 291.336,156.813 291.5,159.5C 223.498,139.608 155.831,118.941 88.5,97.5C 94.03,90.9681 100.697,85.9681 108.5,82.5 Z"/></g>
<g><path style="opacity:1" fill="#f86f88" d="M 88.5,97.5 C 155.831,118.941 223.498,139.608 291.5,159.5C 293.503,166.815 295.836,174.148 298.5,181.5C 298.631,182.239 298.464,182.906 298,183.5C 271.34,175.382 244.84,167.049 218.5,158.5C 222.218,150.094 219.884,143.928 211.5,140C 205.615,141.119 199.615,141.452 193.5,141C 185.55,137.293 177.217,135.127 168.5,134.5C 162.198,134.576 156.198,135.909 150.5,138.5C 125.581,130.685 100.581,123.018 75.5,115.5C 74.2867,115.253 73.62,114.586 73.5,113.5C 78.9636,108.548 83.9636,103.215 88.5,97.5 Z"/></g>
<g><path style="opacity:1" fill="#f75c88" d="M 435.5,157.5 C 422.552,153.628 409.552,149.962 396.5,146.5C 401.576,140.894 403.91,134.228 403.5,126.5C 402.725,118.625 401.059,110.959 398.5,103.5C 400.308,103.491 401.975,103.991 403.5,105C 419.678,119.197 430.344,136.697 435.5,157.5 Z"/></g>
<g><path style="opacity:1" fill="#f87583" d="M 73.5,113.5 C 73.62,114.586 74.2867,115.253 75.5,115.5C 100.581,123.018 125.581,130.685 150.5,138.5C 144.083,143.373 138.083,148.707 132.5,154.5C 119.716,150.13 106.716,146.13 93.5,142.5C 94.8051,134.31 91.4717,129.144 83.5,127C 75.5318,127.22 67.8651,125.886 60.5,123C 59.6634,121.989 59.33,120.822 59.5,119.5C 64.6552,118.588 69.3218,116.588 73.5,113.5 Z"/></g>
<g><path style="opacity:1" fill="#3c3a4d" d="M 218.5,158.5 C 217.038,159.458 215.705,160.624 214.5,162C 206.954,165.275 199.621,168.775 192.5,172.5C 182.299,175.433 173.965,181.1 167.5,189.5C 161.744,193.92 157.078,199.253 153.5,205.5C 148.689,211.109 144.356,217.109 140.5,223.5C 135.901,229.438 130.901,235.105 125.5,240.5C 120.874,243.766 115.708,245.766 110,246.5C 104.473,246.336 100.973,243.669 99.5,238.5C 99.0014,229.611 100.001,220.945 102.5,212.5C 103.934,206.302 105.934,200.302 108.5,194.5C 111.763,188.208 115.096,181.875 118.5,175.5C 123.159,168.505 127.826,161.505 132.5,154.5C 138.083,148.707 144.083,143.373 150.5,138.5C 156.198,135.909 162.198,134.576 168.5,134.5C 177.217,135.127 185.55,137.293 193.5,141C 199.615,141.452 205.615,141.119 211.5,140C 219.884,143.928 222.218,150.094 218.5,158.5 Z"/></g>
<g><path style="opacity:1" fill="#f87c82" d="M 93.5,142.5 C 106.716,146.13 119.716,150.13 132.5,154.5C 127.826,161.505 123.159,168.505 118.5,175.5C 107.176,171.004 95.5098,167.17 83.5,164C 82.944,163.617 82.6107,163.117 82.5,162.5C 86.1544,155.86 89.8211,149.194 93.5,142.5 Z"/></g>
<g><path style="opacity:1" fill="#f7f7f7" d="M 161.5,143.5 C 165.514,143.334 169.514,143.501 173.5,144C 179.5,146 185.5,148 191.5,150C 197.856,150.594 204.189,150.427 210.5,149.5C 210.714,151.144 210.38,152.644 209.5,154C 199.083,158.473 188.749,163.139 178.5,168C 168.216,174.895 159.05,183.062 151,192.5C 141.587,206.814 131.087,220.314 119.5,233C 116.453,236.126 112.953,236.959 109,235.5C 107.801,223.622 109.801,212.289 115,201.5C 123.711,182.132 135.545,164.965 150.5,150C 154.096,147.539 157.763,145.373 161.5,143.5 Z"/></g>
<g><path style="opacity:1" fill="#3c3a4d" d="M 324.5,170.5 C 331.723,182.952 340.39,194.285 350.5,204.5C 357.861,212.193 365.194,219.86 372.5,227.5C 379.093,237.015 383.759,247.348 386.5,258.5C 386.5,265.167 386.5,271.833 386.5,278.5C 385.995,284.853 385.328,291.187 384.5,297.5C 382.194,304.081 379.86,310.748 377.5,317.5C 373.338,324.479 368.672,331.146 363.5,337.5C 356.62,343.714 348.954,348.714 340.5,352.5C 313.906,360.524 292.239,353.524 275.5,331.5C 271.978,325.267 269.644,318.601 268.5,311.5C 267.145,302.445 267.478,293.445 269.5,284.5C 272.035,277.763 275.369,271.43 279.5,265.5C 283.295,262.431 287.295,259.597 291.5,257C 296.973,254.362 301.473,255.528 305,260.5C 305.131,265.694 306.131,270.694 308,275.5C 311.943,278.366 315.61,278.032 319,274.5C 321.45,264.45 321.95,254.45 320.5,244.5C 320.736,241.391 320.403,238.391 319.5,235.5C 317.734,225.198 314.4,215.531 309.5,206.5C 306.07,197.981 302.403,189.648 298.5,181.5C 295.836,174.148 293.503,166.815 291.5,159.5C 291.336,156.813 291.503,154.146 292,151.5C 297.795,143.013 304.461,142.346 312,149.5C 316.178,156.528 320.345,163.528 324.5,170.5 Z"/></g>
<g><path style="opacity:1" fill="#f8f8f8" d="M 300.5,154.5 C 302.903,154.393 304.736,155.393 306,157.5C 314.003,172.179 323.003,186.179 333,199.5C 343.667,210.833 354.333,222.167 365,233.5C 376.238,248.672 380.238,265.672 377,284.5C 375.246,300.437 369.58,314.77 360,327.5C 340.211,348.566 318.045,351.733 293.5,337C 277.917,322.572 273.084,305.072 279,284.5C 281.364,278.271 284.864,272.771 289.5,268C 291.212,266.249 293.212,265.582 295.5,266C 297.091,271.165 298.924,276.331 301,281.5C 308.613,289.142 316.613,289.475 325,282.5C 327.435,277.764 329.101,272.764 330,267.5C 331.29,253.32 330.29,239.32 327,225.5C 321.437,209.041 314.771,193.041 307,177.5C 304.116,170.019 301.95,162.352 300.5,154.5 Z"/></g>
<g><path style="opacity:1" fill="#3c3a4d" d="M 351.5,157.5 C 357.765,157.132 363.431,158.799 368.5,162.5C 376.713,170.067 383.046,179.067 387.5,189.5C 389.712,200.791 385.045,205.957 373.5,205C 364.436,200.603 357.269,194.103 352,185.5C 350.487,182.473 348.987,179.473 347.5,176.5C 343.73,168.882 345.064,162.549 351.5,157.5 Z"/></g>
<g><path style="opacity:1" fill="#f97583" d="M 218.5,158.5 C 244.84,167.049 271.34,175.382 298,183.5C 298.464,182.906 298.631,182.239 298.5,181.5C 302.403,189.648 306.07,197.981 309.5,206.5C 309.265,207.097 308.765,207.43 308,207.5C 269.512,195.726 231.012,184.059 192.5,172.5C 199.621,168.775 206.954,165.275 214.5,162C 215.705,160.624 217.038,159.458 218.5,158.5 Z"/></g>
<g><path style="opacity:1" fill="#f96988" d="M 368.5,162.5 C 392.212,169.345 415.879,176.345 439.5,183.5C 439.5,190.5 439.5,197.5 439.5,204.5C 422.167,199.5 404.833,194.5 387.5,189.5C 383.046,179.067 376.713,170.067 368.5,162.5 Z"/></g>
<g><path style="opacity:1" fill="#f88282" d="M 82.5,162.5 C 82.6107,163.117 82.944,163.617 83.5,164C 95.5098,167.17 107.176,171.004 118.5,175.5C 115.096,181.875 111.763,188.208 108.5,194.5C 108.53,193.503 108.03,192.836 107,192.5C 95.3371,188.444 83.5037,185.111 71.5,182.5C 74.155,175.183 77.8216,168.516 82.5,162.5 Z"/></g>
<g><path style="opacity:1" fill="#f2f2f2" d="M 354.5,166.5 C 360.85,168.327 366.016,171.994 370,177.5C 373.252,182.334 376.252,187.334 379,192.5C 379.557,194.586 378.724,195.919 376.5,196.5C 364.849,189.537 357.516,179.537 354.5,166.5 Z"/></g>
<g><path style="opacity:1" fill="#f97c82" d="M 192.5,172.5 C 231.012,184.059 269.512,195.726 308,207.5C 308.765,207.43 309.265,207.097 309.5,206.5C 314.4,215.531 317.734,225.198 319.5,235.5C 300.726,230.242 282.059,224.576 263.5,218.5C 262.893,218.624 262.56,218.957 262.5,219.5C 256.865,213.399 249.865,211.066 241.5,212.5C 217.026,204.543 192.36,196.876 167.5,189.5C 173.965,181.1 182.299,175.433 192.5,172.5 Z"/></g>
<g><path style="opacity:1" fill="#f98882" d="M 71.5,182.5 C 83.5037,185.111 95.3371,188.444 107,192.5C 108.03,192.836 108.53,193.503 108.5,194.5C 105.934,200.302 103.934,206.302 102.5,212.5C 89.6367,208.101 76.6367,204.101 63.5,200.5C 65.6557,194.196 68.3224,188.196 71.5,182.5 Z"/></g>
<g><path style="opacity:1" fill="#f98282" d="M 167.5,189.5 C 192.36,196.876 217.026,204.543 241.5,212.5C 231.928,214.954 223.928,219.954 217.5,227.5C 217.53,226.503 217.03,225.836 216,225.5C 194.827,219.496 173.993,212.83 153.5,205.5C 157.078,199.253 161.744,193.92 167.5,189.5 Z"/></g>
<g><path style="opacity:1" fill="#f86f88" d="M 324.5,170.5 C 332.167,172.5 339.833,174.5 347.5,176.5C 348.987,179.473 350.487,182.473 352,185.5C 357.269,194.103 364.436,200.603 373.5,205C 385.045,205.957 389.712,200.791 387.5,189.5C 404.833,194.5 422.167,199.5 439.5,204.5C 439.5,197.5 439.5,190.5 439.5,183.5C 439.5,183.167 439.5,182.833 439.5,182.5C 441.155,198.159 440.488,213.826 437.5,229.5C 409.048,220.739 380.548,212.072 352,203.5C 351.235,203.57 350.735,203.903 350.5,204.5C 340.39,194.285 331.723,182.952 324.5,170.5 Z"/></g>
<g><path style="opacity:1" fill="#f88e82" d="M 63.5,200.5 C 76.6367,204.101 89.6367,208.101 102.5,212.5C 100.001,220.945 99.0014,229.611 99.5,238.5C 98.7839,236.444 98.1172,234.277 97.5,232C 84.1317,227.827 70.7983,223.66 57.5,219.5C 59.1016,213.029 61.1016,206.696 63.5,200.5 Z"/></g>
<g><path style="opacity:1" fill="#f97582" d="M 437.5,229.5 C 437.008,234.959 436.008,240.292 434.5,245.5C 413.833,239.5 393.167,233.5 372.5,227.5C 365.194,219.86 357.861,212.193 350.5,204.5C 350.735,203.903 351.235,203.57 352,203.5C 380.548,212.072 409.048,220.739 437.5,229.5 Z"/></g>
<g><path style="opacity:1" fill="#f98882" d="M 153.5,205.5 C 173.993,212.83 194.827,219.496 216,225.5C 217.03,225.836 217.53,226.503 217.5,227.5C 213.821,232.871 210.154,238.204 206.5,243.5C 184.392,237.14 162.392,230.474 140.5,223.5C 144.356,217.109 148.689,211.109 153.5,205.5 Z"/></g>
<g><path style="opacity:1" fill="#f98282" d="M 319.5,235.5 C 320.403,238.391 320.736,241.391 320.5,244.5C 320.666,248.846 320.499,253.179 320,257.5C 300.279,251.535 280.779,245.202 261.5,238.5C 265.002,232.324 265.335,225.99 262.5,219.5C 262.56,218.957 262.893,218.624 263.5,218.5C 282.059,224.576 300.726,230.242 319.5,235.5 Z"/></g>
<g><path style="opacity:1" fill="#f99582" d="M 57.5,219.5 C 70.7983,223.66 84.1317,227.827 97.5,232C 98.1172,234.277 98.7839,236.444 99.5,238.5C 100.973,243.669 104.473,246.336 110,246.5C 115.708,245.766 120.874,243.766 125.5,240.5C 148.893,247.089 171.893,254.422 194.5,262.5C 194.631,263.239 194.464,263.906 194,264.5C 187.636,269.698 181.803,275.365 176.5,281.5C 169.796,278.599 162.796,276.265 155.5,274.5C 157.282,270.451 156.615,266.951 153.5,264C 151.365,263.365 149.365,263.699 147.5,265C 145.63,267.04 143.63,268.873 141.5,270.5C 112.108,260.928 82.4415,251.928 52.5,243.5C 53.5256,235.34 55.1922,227.34 57.5,219.5 Z"/></g>
<g><path style="opacity:1" fill="#f98e82" d="M 140.5,223.5 C 162.392,230.474 184.392,237.14 206.5,243.5C 203.746,250.686 199.746,257.019 194.5,262.5C 171.893,254.422 148.893,247.089 125.5,240.5C 130.901,235.105 135.901,229.438 140.5,223.5 Z"/></g>
<g><path style="opacity:1" fill="#f97c82" d="M 372.5,227.5 C 393.167,233.5 413.833,239.5 434.5,245.5C 433.143,253.563 430.81,261.229 427.5,268.5C 414.329,264.581 401.162,260.581 388,256.5C 386.97,256.836 386.47,257.503 386.5,258.5C 383.759,247.348 379.093,237.015 372.5,227.5 Z"/></g>
<g><path style="opacity:1" fill="#f78782" d="M 261.5,238.5 C 280.779,245.202 300.279,251.535 320,257.5C 320.499,253.179 320.666,248.846 320.5,244.5C 321.95,254.45 321.45,264.45 319,274.5C 315.61,278.032 311.943,278.366 308,275.5C 306.131,270.694 305.131,265.694 305,260.5C 301.473,255.528 296.973,254.362 291.5,257C 287.295,259.597 283.295,262.431 279.5,265.5C 268.462,262.657 257.462,259.657 246.5,256.5C 250.557,249.721 255.557,243.721 261.5,238.5 Z"/></g>
<g><path style="opacity:1" fill="#f79a82" d="M 52.5,243.5 C 82.4415,251.928 112.108,260.928 141.5,270.5C 137.645,276.21 134.312,282.21 131.5,288.5C 123.909,285.97 116.243,283.637 108.5,281.5C 103.798,276.574 98.1315,274.908 91.5,276.5C 78.117,272.096 64.617,267.762 51,263.5C 50.5003,270.826 50.3337,278.159 50.5,285.5C 50.5,288.167 50.5,290.833 50.5,293.5C 48.8461,276.749 49.5127,260.083 52.5,243.5 Z"/></g>
<g><path style="opacity:1" fill="#f88e82" d="M 246.5,256.5 C 257.462,259.657 268.462,262.657 279.5,265.5C 275.369,271.43 272.035,277.763 269.5,284.5C 258.91,280.97 248.243,277.637 237.5,274.5C 239.46,267.914 242.46,261.914 246.5,256.5 Z"/></g>
<g><path style="opacity:1" fill="#f98282" d="M 427.5,268.5 C 425.559,275.71 422.559,282.376 418.5,288.5C 418.38,287.414 417.713,286.747 416.5,286.5C 406.881,283.793 397.381,280.793 388,277.5C 387.617,278.056 387.117,278.389 386.5,278.5C 386.5,271.833 386.5,265.167 386.5,258.5C 386.47,257.503 386.97,256.836 388,256.5C 401.162,260.581 414.329,264.581 427.5,268.5 Z"/></g>
<g><path style="opacity:1" fill="#f9a182" d="M 91.5,276.5 C 85.2857,280.592 81.2857,286.259 79.5,293.5C 69.9416,290.425 60.2749,287.758 50.5,285.5C 50.3337,278.159 50.5003,270.826 51,263.5C 64.617,267.762 78.117,272.096 91.5,276.5 Z"/></g>
<g><path style="opacity:1" fill="#38384b" d="M 453.5,271.5 C 466.271,272.104 472.104,278.771 471,291.5C 466.92,304.759 458.42,308.593 445.5,303C 439.367,294.968 438.867,286.468 444,277.5C 446.551,274.319 449.718,272.319 453.5,271.5 Z"/></g>
<g><path style="opacity:1" fill="#f69a81" d="M 155.5,274.5 C 162.796,276.265 169.796,278.599 176.5,281.5C 172.813,288.653 171.48,296.32 172.5,304.5C 171.839,303.282 171.172,301.949 170.5,300.5C 165.276,298.425 159.943,296.758 154.5,295.5C 153.039,288.519 153.372,281.519 155.5,274.5 Z"/></g>
<g><path style="opacity:1" fill="#f89582" d="M 237.5,274.5 C 248.243,277.637 258.91,280.97 269.5,284.5C 267.478,293.445 267.145,302.445 268.5,311.5C 267.751,310.469 267.085,309.302 266.5,308C 255.07,304.801 243.737,301.301 232.5,297.5C 231.817,297.863 231.15,298.196 230.5,298.5C 231.611,290.039 233.945,282.039 237.5,274.5 Z"/></g>
<g><path style="opacity:1" fill="#3d3b4d" d="M 108.5,281.5 C 110.823,289.025 111.156,296.692 109.5,304.5C 104.697,314.908 97.0304,318.075 86.5,314C 80.6913,308.408 78.358,301.575 79.5,293.5C 81.2857,286.259 85.2857,280.592 91.5,276.5C 98.1315,274.908 103.798,276.574 108.5,281.5 Z"/></g>
<g><path style="opacity:1" fill="#f88882" d="M 418.5,288.5 C 415.27,294.727 411.27,300.393 406.5,305.5C 399.243,302.636 391.91,299.97 384.5,297.5C 385.328,291.187 385.995,284.853 386.5,278.5C 387.117,278.389 387.617,278.056 388,277.5C 397.381,280.793 406.881,283.793 416.5,286.5C 417.713,286.747 418.38,287.414 418.5,288.5 Z"/></g>
<g><path style="opacity:1" fill="#f49f81" d="M 108.5,281.5 C 116.243,283.637 123.909,285.97 131.5,288.5C 130.577,290.767 129.744,293.1 129,295.5C 128.5,302.158 128.334,308.825 128.5,315.5C 127.79,313.107 127.123,310.607 126.5,308C 121.606,306.702 116.773,305.202 112,303.5C 111.098,303.743 110.265,304.077 109.5,304.5C 111.156,296.692 110.823,289.025 108.5,281.5 Z"/></g>
<g><path style="opacity:1" fill="#f17f80" d="M 453.5,281.5 C 459.765,281.363 462.265,284.363 461,290.5C 459.923,295.115 457.09,296.615 452.5,295C 449.729,290.318 450.062,285.818 453.5,281.5 Z"/></g>
<g><path style="opacity:1" fill="#f8a782" d="M 50.5,285.5 C 60.2749,287.758 69.9416,290.425 79.5,293.5C 78.358,301.575 80.6913,308.408 86.5,314C 97.0304,318.075 104.697,314.908 109.5,304.5C 110.265,304.077 111.098,303.743 112,303.5C 116.773,305.202 121.606,306.702 126.5,308C 127.123,310.607 127.79,313.107 128.5,315.5C 128.84,320.89 129.507,326.223 130.5,331.5C 104.82,322.885 78.987,314.552 53,306.5C 52.5357,307.094 52.369,307.761 52.5,308.5C 51.4074,303.694 50.7407,298.694 50.5,293.5C 50.5,290.833 50.5,288.167 50.5,285.5 Z"/></g>
<g><path style="opacity:1" fill="#f0f0f1" d="M 95.5,284.5 C 100.597,285.285 102.597,288.285 101.5,293.5C 101.439,296.903 100.939,300.236 100,303.5C 97.2671,308.507 93.9338,308.84 90,304.5C 88.0204,296.625 89.8538,289.959 95.5,284.5 Z"/></g>
<g><path style="opacity:1" fill="#f7a182" d="M 154.5,295.5 C 159.943,296.758 165.276,298.425 170.5,300.5C 171.172,301.949 171.839,303.282 172.5,304.5C 172.8,311.896 172.3,319.229 171,326.5C 168.724,329.064 166.724,328.73 165,325.5C 159.016,316.38 155.516,306.38 154.5,295.5 Z"/></g>
<g><path style="opacity:1" fill="#f89b82" d="M 268.5,311.5 C 269.644,318.601 271.978,325.267 275.5,331.5C 260.734,327.579 246.067,323.245 231.5,318.5C 230.702,318.957 230.369,319.624 230.5,320.5C 229.257,313.308 229.257,305.975 230.5,298.5C 231.15,298.196 231.817,297.863 232.5,297.5C 243.737,301.301 255.07,304.801 266.5,308C 267.085,309.302 267.751,310.469 268.5,311.5 Z"/></g>
<g><path style="opacity:1" fill="#f78d82" d="M 384.5,297.5 C 391.91,299.97 399.243,302.636 406.5,305.5C 402.743,311.35 398.743,317.017 394.5,322.5C 388.907,320.636 383.241,318.97 377.5,317.5C 379.86,310.748 382.194,304.081 384.5,297.5 Z"/></g>
<g><path style="opacity:1" fill="#f9ae82" d="M 130.5,331.5 C 132.221,336.608 134.221,341.608 136.5,346.5C 109.031,338.565 81.6972,330.232 54.5,321.5C 53.4371,317.361 52.7704,313.028 52.5,308.5C 52.369,307.761 52.5357,307.094 53,306.5C 78.987,314.552 104.82,322.885 130.5,331.5 Z"/></g>
<g><path style="opacity:1" fill="#f79482" d="M 377.5,317.5 C 383.241,318.97 388.907,320.636 394.5,322.5C 393.62,325.262 392.454,327.929 391,330.5C 389.167,337.839 392,341.839 399.5,342.5C 413.677,339.835 424.844,332.502 433,320.5C 433.53,334.44 428.363,345.773 417.5,354.5C 399.584,348.849 381.584,343.182 363.5,337.5C 368.672,331.146 373.338,324.479 377.5,317.5 Z"/></g>
<g><path style="opacity:1" fill="#f8a182" d="M 275.5,331.5 C 292.239,353.524 313.906,360.524 340.5,352.5C 360.5,358.167 380.5,363.833 400.5,369.5C 393.518,375.998 385.518,380.998 376.5,384.5C 330.026,369.876 283.359,355.543 236.5,341.5C 232.507,335.173 230.507,328.173 230.5,320.5C 230.369,319.624 230.702,318.957 231.5,318.5C 246.067,323.245 260.734,327.579 275.5,331.5 Z"/></g>
<g><path style="opacity:1" fill="#f9ae7c" d="M 54.5,321.5 C 81.6972,330.232 109.031,338.565 136.5,346.5C 139.952,350.299 142.618,354.632 144.5,359.5C 116.048,350.739 87.5478,342.072 59,333.5C 57.9701,333.836 57.4701,334.503 57.5,335.5C 55.3022,331.203 54.3022,326.536 54.5,321.5 Z"/></g>
<g><path style="opacity:1" fill="#f8b47c" d="M 144.5,359.5 C 148.953,367.413 152.619,375.746 155.5,384.5C 139.738,378.991 124.072,374.325 108.5,370.5C 104.407,365.231 100.074,360.065 95.5,355C 89.6878,350.091 83.0212,348.091 75.5,349C 72.2677,350.23 69.6011,352.23 67.5,355C 66.365,355.749 65.365,355.583 64.5,354.5C 61.1725,348.516 58.8392,342.183 57.5,335.5C 57.4701,334.503 57.9701,333.836 59,333.5C 87.5478,342.072 116.048,350.739 144.5,359.5 Z"/></g>
<g><path style="opacity:1" fill="#f99b82" d="M 363.5,337.5 C 381.584,343.182 399.584,348.849 417.5,354.5C 412.729,360.61 407.062,365.61 400.5,369.5C 380.5,363.833 360.5,358.167 340.5,352.5C 348.954,348.714 356.62,343.714 363.5,337.5 Z"/></g>
<g><path style="opacity:1" fill="#f8a782" d="M 236.5,341.5 C 283.359,355.543 330.026,369.876 376.5,384.5C 333.287,399.446 292.954,393.612 255.5,367C 247.077,359.957 240.744,351.457 236.5,341.5 Z"/></g>
<g><path style="opacity:1" fill="#f8b97c" d="M 155.5,384.5 C 159.345,392.203 162.679,400.203 165.5,408.5C 149.528,403.51 133.528,398.51 117.5,393.5C 116.702,393.957 116.369,394.624 116.5,395.5C 114.844,386.935 112.177,378.602 108.5,370.5C 124.072,374.325 139.738,378.991 155.5,384.5 Z"/></g>
<g><path style="opacity:1" fill="#39384b" d="M 69.5,379.5 C 83.6912,378.185 91.3579,384.685 92.5,399C 91.0472,409.668 84.8805,415.502 74,416.5C 60.4802,414.142 54.8135,406.142 57,392.5C 59.3531,386.315 63.5198,381.982 69.5,379.5 Z"/></g>
<g><path style="opacity:1" fill="#f4be7b" d="M 70.5,389.5 C 77.6804,388.068 81.347,390.901 81.5,398C 82.0942,403.334 79.7609,406.168 74.5,406.5C 67.414,405.011 64.914,400.677 67,393.5C 68.3756,392.295 69.5423,390.962 70.5,389.5 Z"/></g>
<g><path style="opacity:1" fill="#f9c07c" d="M 165.5,408.5 C 171.303,418.444 178.303,427.444 186.5,435.5C 164.175,429.336 142.008,422.669 120,415.5C 119.601,415.728 119.435,416.062 119.5,416.5C 117.785,409.739 116.785,402.739 116.5,395.5C 116.369,394.624 116.702,393.957 117.5,393.5C 133.528,398.51 149.528,403.51 165.5,408.5 Z"/></g>
<g><path style="opacity:1" fill="#3a394b" d="M 220.5,399.5 C 244.19,398.538 267.19,402.038 289.5,410C 296.299,413.809 303.299,417.143 310.5,420C 322.759,422.456 335.093,424.456 347.5,426C 354.512,427.587 360.345,431.087 365,436.5C 368.395,444.873 366.228,451.373 358.5,456C 341.143,463.174 323.143,468.174 304.5,471C 290.034,473.685 276.701,471.018 264.5,463C 256.144,455.642 248.144,447.976 240.5,440C 233.167,436.333 225.833,432.667 218.5,429C 207.539,422.482 205.206,413.816 211.5,403C 214.571,401.704 217.571,400.538 220.5,399.5 Z"/></g>
<g><path style="opacity:1" fill="#f8b97c" d="M 243.5,409.5 C 243.62,410.586 244.287,411.253 245.5,411.5C 263.459,417.043 281.459,422.376 299.5,427.5C 313.818,431.792 328.485,434.292 343.5,435C 348.301,435.984 352.468,438.15 356,441.5C 355.432,445.752 352.932,448.586 348.5,450C 339.977,452.797 331.31,454.964 322.5,456.5C 299.142,449.112 275.642,441.778 252,434.5C 251.235,434.57 250.735,434.903 250.5,435.5C 242.636,429.397 233.969,424.564 224.5,421C 222.29,419.491 220.457,417.658 219,415.5C 218.257,413.559 218.424,411.726 219.5,410C 227.493,409.5 235.493,409.334 243.5,409.5 Z"/></g>
<g><path style="opacity:1" fill="#f1af7b" d="M 243.5,409.5 C 260.204,411.05 276.204,415.217 291.5,422C 294.407,423.609 297.073,425.442 299.5,427.5C 281.459,422.376 263.459,417.043 245.5,411.5C 244.287,411.253 243.62,410.586 243.5,409.5 Z"/></g>
<g><path style="opacity:1" fill="#f7c67c" d="M 186.5,435.5 C 196.843,444.225 208.843,448.058 222.5,447C 225.553,448.581 226.22,450.914 224.5,454C 217.451,456.786 210.117,457.953 202.5,457.5C 182.266,457.153 162.599,453.653 143.5,447C 129.332,441.668 121.332,431.501 119.5,416.5C 119.435,416.062 119.601,415.728 120,415.5C 142.008,422.669 164.175,429.336 186.5,435.5 Z"/></g>
<g><path style="opacity:1" fill="#39384b" d="M 399.5,417.5 C 412.297,416.815 419.963,422.648 422.5,435C 420.814,446.518 414.147,452.685 402.5,453.5C 384.472,452.339 378.305,443.339 384,426.5C 388.141,421.483 393.308,418.483 399.5,417.5 Z"/></g>
<g><path style="opacity:1" fill="#f2ab7b" d="M 398.5,427.5 C 403.032,427.074 407.199,428.074 411,430.5C 413.279,434.27 412.779,437.604 409.5,440.5C 403.367,444.74 397.534,444.407 392,439.5C 391.333,437.167 391.333,434.833 392,432.5C 393.965,430.45 396.132,428.783 398.5,427.5 Z"/></g>
<g><path style="opacity:1" fill="#f7bf7c" d="M 250.5,435.5 C 250.735,434.903 251.235,434.57 252,434.5C 275.642,441.778 299.142,449.112 322.5,456.5C 309.67,461.162 296.336,462.662 282.5,461C 278.221,459.527 274.221,457.527 270.5,455C 263.722,448.607 257.055,442.107 250.5,435.5 Z"/></g>
</svg>
