<?xml version="1.0" encoding="UTF-8"?>
<svg xmlns="http://www.w3.org/2000/svg" viewBox="0 0 512 512" role="img" aria-label="Hư Thiên Đỉnh">
  <defs>
    <linearGradient id="dingBody" x1="0" y1="0" x2="0" y2="1">
      <stop offset="0%" stop-color="#3e4a6f"/>
      <stop offset="55%" stop-color="#2f3a5a"/>
      <stop offset="100%" stop-color="#222a44"/>
    </linearGradient>
    <linearGradient id="dingLid" x1="0" y1="0" x2="0" y2="1">
      <stop offset="0%" stop-color="#536388"/>
      <stop offset="100%" stop-color="#313d60"/>
    </linearGradient>
    <filter id="glow" x="-40%" y="-40%" width="180%" height="180%">
      <feGaussianBlur stdDeviation="6" result="blur"/>
      <feMerge>
        <feMergeNode in="blur"/>
        <feMergeNode in="SourceGraphic"/>
      </feMerge>
    </filter>
  </defs>

  <g fill="none" stroke="#89f3ff" stroke-width="8" opacity="0.22" filter="url(#glow)">
    <ellipse cx="256" cy="258" rx="146" ry="145"/>
  </g>

  <g stroke="#c3eefd" stroke-linejoin="round" stroke-linecap="round">
    <path d="M171 119 Q256 74 341 119 Q319 150 256 154 Q193 150 171 119Z" fill="url(#dingLid)" stroke-width="8"/>
    <circle cx="256" cy="93" r="13" fill="#dff9ff" stroke="#c3eefd" stroke-width="7"/>

    <path d="M145 153 Q256 129 367 153 L359 178 Q256 203 153 178 Z" fill="#324166" stroke-width="7"/>

    <path d="M148 176 Q256 153 364 176 Q389 280 332 349 Q256 392 180 349 Q123 280 148 176Z" fill="url(#dingBody)" stroke-width="8"/>

    <path d="M116 196 Q85 201 83 238 Q86 273 120 272 Q148 257 141 224 Q134 199 116 196Z" fill="#2d3858" stroke-width="7"/>
    <path d="M396 196 Q427 201 429 238 Q426 273 392 272 Q364 257 371 224 Q378 199 396 196Z" fill="#2d3858" stroke-width="7"/>

    <path d="M209 350 L199 422 Q209 437 224 422 L228 350Z" fill="#2c3552" stroke-width="7"/>
    <path d="M247 357 L240 441 Q256 456 272 441 L265 357Z" fill="#2c3552" stroke-width="7"/>
    <path d="M284 350 L288 422 Q303 437 313 422 L303 350Z" fill="#2c3552" stroke-width="7"/>
  </g>

  <g stroke="#7fe9f9" stroke-width="7" stroke-linecap="round" stroke-linejoin="round" fill="none" filter="url(#glow)">
    <path d="M188 223 Q255 199 324 223"/>
    <path d="M193 277 Q256 304 319 277"/>
    <path d="M206 168 Q256 178 306 168"/>
    <path d="M229 120 Q256 109 283 120"/>
  </g>
</svg>
