<?xml version="1.0" encoding="UTF-8"?>
<!DOCTYPE svg PUBLIC "-//W3C//DTD SVG 1.1//EN" "http://www.w3.org/Graphics/SVG/1.1/DTD/svg11.dtd">
<svg xmlns="http://www.w3.org/2000/svg" version="1.1" width="512px" height="512px" style="shape-rendering:geometricPrecision; text-rendering:geometricPrecision; image-rendering:optimizeQuality; fill-rule:evenodd; clip-rule:evenodd" xmlns:xlink="http://www.w3.org/1999/xlink">
<g><path style="opacity:1" fill="#282638" d="M 177.5,20.5 C 179.792,20.2436 181.959,20.5769 184,21.5C 183.875,26.1964 183.542,30.8631 183,35.5C 184.23,38.7323 186.23,41.3989 189,43.5C 194.451,55.1934 191.951,65.0268 181.5,73C 177.814,75.4546 173.814,76.4546 169.5,76C 168.874,75.2496 168.374,74.4162 168,73.5C 168.953,69.6028 169.287,65.6028 169,61.5C 167.444,56.7202 165.111,52.3869 162,48.5C 159.796,41.9794 160.796,35.9794 165,30.5C 169.066,26.9228 173.232,23.5894 177.5,20.5 Z"/></g>
<g><path style="opacity:1" fill="#ec9773" d="M 173.5,33.5 C 174.831,39.8158 177.998,45.1491 183,49.5C 184.473,55.5519 182.807,60.5519 178,64.5C 177.253,57.3407 174.586,51.0073 170,45.5C 168.593,40.6427 169.76,36.6427 173.5,33.5 Z"/></g>
<g><path style="opacity:1" fill="#282739" d="M 244.5,60.5 C 252.222,59.8891 259.388,61.5558 266,65.5C 277.472,63.4357 287.139,66.769 295,75.5C 297.917,84.18 301.584,92.5134 306,100.5C 308.099,112.427 307.599,124.26 304.5,136C 303.997,141.036 305.997,144.536 310.5,146.5C 314.324,144.17 317.658,141.337 320.5,138C 322.367,137.289 323.867,137.789 325,139.5C 326.472,159.201 317.305,169.868 297.5,171.5C 294.188,171.519 291.021,170.852 288,169.5C 284.795,175.38 280.795,180.713 276,185.5C 275.394,195.348 276.061,205.015 278,214.5C 283.734,206.192 291.234,204.025 300.5,208C 304.982,211.647 309.315,215.481 313.5,219.5C 328.134,217.579 336.968,223.912 340,238.5C 346.896,245.559 352.396,253.559 356.5,262.5C 366.523,259.083 374.69,261.749 381,270.5C 384.204,277.202 386.704,284.036 388.5,291C 411.69,298.089 434.857,305.256 458,312.5C 463.501,305.323 470.668,300.49 479.5,298C 491.13,295.899 499.63,300.065 505,310.5C 507.68,318.698 506.68,326.365 502,333.5C 495.31,339.262 488.144,339.928 480.5,335.5C 479.104,337.972 478.27,340.638 478,343.5C 477.667,360.167 477.333,376.833 477,393.5C 475.923,404.981 472.756,415.815 467.5,426C 471.299,428.797 474.799,431.964 478,435.5C 481.296,445.609 478.296,453.276 469,458.5C 467.167,465.667 462.667,470.167 455.5,472C 454.167,474.667 452.167,476.667 449.5,478C 445.375,478.854 441.375,478.52 437.5,477C 433.966,472.469 430.132,468.303 426,464.5C 383.199,480.138 347.865,470.138 320,434.5C 312.029,421.59 307.029,407.59 305,392.5C 304.029,401.879 302.863,411.213 301.5,420.5C 306.057,421.853 309.557,424.52 312,428.5C 314.101,435.7 315.601,443.033 316.5,450.5C 322.25,454.755 325.75,460.422 327,467.5C 327.81,474.082 327.643,480.582 326.5,487C 297.07,488.364 268.07,485.031 239.5,477C 228.714,473.94 218.381,469.773 208.5,464.5C 208.167,465 207.833,465.5 207.5,466C 209.379,473.435 210.545,480.935 211,488.5C 208.503,490.478 205.669,490.978 202.5,490C 178.079,483.393 159.579,469.226 147,447.5C 145.848,438.187 144.848,428.854 144,419.5C 124.413,409.084 110.247,393.75 101.5,373.5C 106.629,339.143 116.629,306.31 131.5,275C 86.4614,246.701 72.628,207.201 90,156.5C 109.007,115.407 141.174,96.5733 186.5,100C 191.855,100.465 197.022,101.631 202,103.5C 203,102.5 204,101.5 205,100.5C 204.712,88.5737 209.545,79.407 219.5,73C 227.64,68.2631 235.974,64.0964 244.5,60.5 Z M 380.5,313.5 C 384.453,314.761 388.453,315.928 392.5,317C 385.292,338.334 378.625,359.834 372.5,381.5C 369.123,381.041 365.789,380.374 362.5,379.5C 364.367,372.298 365.367,364.964 365.5,357.5C 365.099,350.783 364.599,344.117 364,337.5C 370.251,329.993 375.751,321.993 380.5,313.5 Z M 400.5,319.5 C 403.894,320.089 406.894,321.422 409.5,323.5C 402.487,347.218 395.321,370.885 388,394.5C 385.318,391.65 382.484,388.984 379.5,386.5C 386.706,364.215 393.706,341.882 400.5,319.5 Z M 417.5,325.5 C 420.877,325.959 424.211,326.626 427.5,327.5C 425.976,335.262 423.976,342.928 421.5,350.5C 421.925,353.347 423.591,355.014 426.5,355.5C 428.134,355.032 429.3,354.032 430,352.5C 432.333,345.167 434.667,337.833 437,330.5C 441.447,332.072 445.947,333.572 450.5,335C 448.036,347.331 446.536,359.831 446,372.5C 444.519,383.761 441.186,394.427 436,404.5C 433.403,409.266 429.903,413.266 425.5,416.5C 421.167,414.667 416.833,412.833 412.5,411C 415.049,403.977 417.215,396.81 419,389.5C 420.654,382.192 418.321,380.192 412,383.5C 409.52,391.275 406.853,398.942 404,406.5C 401.252,404.542 398.418,402.709 395.5,401C 403.221,375.949 410.554,350.783 417.5,325.5 Z"/></g>
<g><path style="opacity:1" fill="#262538" d="M 59.5,70.5 C 66.3914,69.9013 73.058,70.7346 79.5,73C 82.1059,74.9384 83.9392,77.4384 85,80.5C 85.0559,90.3012 89.3893,97.3012 98,101.5C 98.6667,103.5 98.6667,105.5 98,107.5C 88.1161,112.887 78.2827,112.72 68.5,107C 63.379,101.915 61.2123,95.7478 62,88.5C 60.0493,83.7635 56.5493,80.7635 51.5,79.5C 49.9934,77.0314 50.3268,74.8647 52.5,73C 54.9269,72.0977 57.2603,71.2644 59.5,70.5 Z"/></g>
<g><path style="opacity:1" fill="#f4b883" d="M 263.5,94.5 C 257.773,94.2598 252.106,94.5931 246.5,95.5C 245.081,87.1626 241.415,79.9959 235.5,74C 242.297,67.8998 249.63,67.0664 257.5,71.5C 256.333,73.8333 255.167,76.1667 254,78.5C 252.209,84.8767 254.375,86.8767 260.5,84.5C 261.231,80.539 262.897,77.039 265.5,74C 276.452,71.3075 284.786,74.6408 290.5,84C 279.371,82.5122 270.371,86.0122 263.5,94.5 Z"/></g>
<g><path style="opacity:1" fill="#f5be88" d="M 238.5,95.5 C 234.443,98.3742 230.11,101.041 225.5,103.5C 221.698,101.601 217.698,100.267 213.5,99.5C 213.386,89.0553 218.219,82.0553 228,78.5C 231.347,80.835 234.014,83.835 236,87.5C 237.341,90.022 238.174,92.6887 238.5,95.5 Z"/></g>
<g><path style="opacity:1" fill="#e4a877" d="M 66.5,78.5 C 70.8027,77.7962 74.3027,79.1295 77,82.5C 77.8007,90.2345 80.6341,97.0678 85.5,103C 73.4082,103.566 68.2415,97.7324 70,85.5C 68.8068,83.1136 67.6401,80.7802 66.5,78.5 Z"/></g>
<g><path style="opacity:1" fill="#f3a877" d="M 297.5,126.5 C 293.19,120.563 289.357,114.23 286,107.5C 282.181,102.833 277.681,99.1663 272.5,96.5C 275.581,92.9097 279.581,91.243 284.5,91.5C 293.342,91.8399 298.176,96.5066 299,105.5C 299.885,112.741 299.385,119.741 297.5,126.5 Z"/></g>
<g><path style="opacity:1" fill="#e96f50" d="M 263.5,94.5 C 261.428,97.248 259.761,100.248 258.5,103.5C 254.893,104.489 251.226,104.823 247.5,104.5C 247.736,101.391 247.403,98.3915 246.5,95.5C 252.106,94.5931 257.773,94.2598 263.5,94.5 Z"/></g>
<g><path style="opacity:1" fill="#e56e50" d="M 238.5,95.5 C 239.482,98.9619 239.815,102.629 239.5,106.5C 236.819,106.462 234.319,107.129 232,108.5C 229.659,106.984 227.492,105.317 225.5,103.5C 230.11,101.041 234.443,98.3742 238.5,95.5 Z"/></g>
<g><path style="opacity:1" fill="#f17c6f" d="M 177.5,107.5 C 148.873,131.156 120.206,154.823 91.5,178.5C 92.1873,172.448 93.854,166.782 96.5,161.5C 118.023,143.583 139.689,125.917 161.5,108.5C 166.74,107.551 172.073,107.218 177.5,107.5 Z"/></g>
<g><path style="opacity:1" fill="#f27569" d="M 177.5,107.5 C 181.548,107.395 185.548,107.728 189.5,108.5C 157.348,135.839 124.848,162.839 92,189.5C 91.6174,188.944 91.1174,188.611 90.5,188.5C 90.2529,185.061 90.5863,181.728 91.5,178.5C 120.206,154.823 148.873,131.156 177.5,107.5 Z"/></g>
<g><path style="opacity:1" fill="#e26e50" d="M 272.5,96.5 C 277.681,99.1663 282.181,102.833 286,107.5C 289.357,114.23 293.19,120.563 297.5,126.5C 295.664,134.465 296.497,142.131 300,149.5C 304.316,154.111 309.483,155.611 315.5,154C 309.904,161.091 302.571,164.091 293.5,163C 291.413,162.208 289.579,161.041 288,159.5C 288.522,147.189 288.856,134.856 289,122.5C 284.655,112.664 277.155,106.664 266.5,104.5C 267.548,101.048 269.548,98.3815 272.5,96.5 Z"/></g>
<g><path style="opacity:1" fill="#ef816e" d="M 161.5,108.5 C 139.689,125.917 118.023,143.583 96.5,161.5C 108.844,132.498 130.51,114.831 161.5,108.5 Z"/></g>
<g><path style="opacity:1" fill="#f66f69" d="M 189.5,108.5 C 191.806,108.993 194.139,109.326 196.5,109.5C 195.09,113.704 194.423,118.037 194.5,122.5C 193.698,121.048 193.198,119.382 193,117.5C 159.293,145.379 125.459,173.046 91.5,200.5C 90.5701,196.6 90.2367,192.6 90.5,188.5C 91.1174,188.611 91.6174,188.944 92,189.5C 124.848,162.839 157.348,135.839 189.5,108.5 Z"/></g>
<g><path style="opacity:1" fill="#f8b882" d="M 219.5,109.5 C 216.197,116.065 214.697,123.065 215,130.5C 214.208,133.106 212.708,135.106 210.5,136.5C 203.768,130.684 201.268,123.351 203,114.5C 206.846,107.386 212.346,105.72 219.5,109.5 Z"/></g>
<g><path style="opacity:1" fill="#f09f9b" d="M 280.5,123.5 C 263.09,123.181 245.756,123.515 228.5,124.5C 230.951,118.091 235.618,114.258 242.5,113C 250.833,112.333 259.167,112.333 267.5,113C 271.869,114.267 275.703,116.433 279,119.5C 279.791,120.745 280.291,122.078 280.5,123.5 Z"/></g>
<g><path style="opacity:1" fill="#f96969" d="M 194.5,122.5 C 195.038,124.117 195.371,125.784 195.5,127.5C 193.405,128.412 191.405,129.579 189.5,131C 158.124,157.378 126.458,183.378 94.5,209C 93.6198,210.356 93.2865,211.856 93.5,213.5C 92.2911,209.382 91.6245,205.049 91.5,200.5C 125.459,173.046 159.293,145.379 193,117.5C 193.198,119.382 193.698,121.048 194.5,122.5 Z"/></g>
<g><path style="opacity:1" fill="#e06d50" d="M 219.5,109.5 C 222.089,110.419 224.089,112.086 225.5,114.5C 222.576,118.178 220.91,122.345 220.5,127C 221.843,138.808 222.343,150.642 222,162.5C 213.527,169.539 205.694,169.039 198.5,161C 210.267,160.9 215.1,155.067 213,143.5C 212.153,141.146 211.32,138.812 210.5,136.5C 212.708,135.106 214.208,133.106 215,130.5C 214.697,123.065 216.197,116.065 219.5,109.5 Z"/></g>
<g><path style="opacity:1" fill="#f2a7a3" d="M 280.5,123.5 C 281.473,125.948 281.806,128.615 281.5,131.5C 263.833,131.5 246.167,131.5 228.5,131.5C 228.5,129.167 228.5,126.833 228.5,124.5C 245.756,123.515 263.09,123.181 280.5,123.5 Z"/></g>
<g><path style="opacity:1" fill="#f96369" d="M 195.5,127.5 C 197.18,130.86 198.847,134.193 200.5,137.5C 199.883,137.389 199.383,137.056 199,136.5C 166.167,163.333 133.333,190.167 100.5,217C 98.5359,218.451 97.2026,220.284 96.5,222.5C 94.9281,219.785 93.9281,216.785 93.5,213.5C 93.2865,211.856 93.6198,210.356 94.5,209C 126.458,183.378 158.124,157.378 189.5,131C 191.405,129.579 193.405,128.412 195.5,127.5 Z"/></g>
<g><path style="opacity:1" fill="#f0aeab" d="M 228.5,131.5 C 246.167,131.5 263.833,131.5 281.5,131.5C 281.093,138.67 280.426,145.67 279.5,152.5C 273.5,151.833 267.5,151.167 261.5,150.5C 265.263,150.143 268.93,149.31 272.5,148C 275.446,144.509 274.612,142.342 270,141.5C 266.442,141.875 263.109,142.875 260,144.5C 259.51,145.793 259.343,147.127 259.5,148.5C 256.5,148.5 253.5,148.5 250.5,148.5C 250.714,146.856 250.38,145.356 249.5,144C 246.448,142.789 243.281,141.955 240,141.5C 235.274,142.512 234.441,144.845 237.5,148.5C 235.167,148.5 232.833,148.5 230.5,148.5C 230.5,151.833 230.5,155.167 230.5,158.5C 229.685,149.658 229.018,140.658 228.5,131.5 Z"/></g>
<g><path style="opacity:1" fill="#f85c63" d="M 200.5,137.5 C 204.522,140.88 206.355,145.213 206,150.5C 204.527,152.007 202.693,152.674 200.5,152.5C 197.165,151.647 193.832,151.147 190.5,151C 188.845,152.444 188.178,154.278 188.5,156.5C 158.518,180.485 128.851,204.819 99.5,229.5C 97.7073,227.574 96.7073,225.241 96.5,222.5C 97.2026,220.284 98.5359,218.451 100.5,217C 133.333,190.167 166.167,163.333 199,136.5C 199.383,137.056 199.883,137.389 200.5,137.5 Z"/></g>
<g><path style="opacity:1" fill="#2d2a3c" d="M 250.5,148.5 C 249.508,150.026 248.008,150.693 246,150.5C 243.04,150.218 240.207,149.551 237.5,148.5C 234.441,144.845 235.274,142.512 240,141.5C 243.281,141.955 246.448,142.789 249.5,144C 250.38,145.356 250.714,146.856 250.5,148.5 Z"/></g>
<g><path style="opacity:1" fill="#2a283a" d="M 261.5,150.5 C 260.5,150.167 259.833,149.5 259.5,148.5C 259.343,147.127 259.51,145.793 260,144.5C 263.109,142.875 266.442,141.875 270,141.5C 274.612,142.342 275.446,144.509 272.5,148C 268.93,149.31 265.263,150.143 261.5,150.5 Z"/></g>
<g><path style="opacity:1" fill="#f9bebb" d="M 237.5,148.5 C 240.207,149.551 243.04,150.218 246,150.5C 248.008,150.693 249.508,150.026 250.5,148.5C 253.5,148.5 256.5,148.5 259.5,148.5C 259.833,149.5 260.5,150.167 261.5,150.5C 267.5,151.167 273.5,151.833 279.5,152.5C 279.819,157.363 279.486,162.03 278.5,166.5C 278.5,165.5 278.5,164.5 278.5,163.5C 262.833,163.5 247.167,163.5 231.5,163.5C 231.5,164.5 231.5,165.5 231.5,166.5C 230.527,164.052 230.194,161.385 230.5,158.5C 230.5,155.167 230.5,151.833 230.5,148.5C 232.833,148.5 235.167,148.5 237.5,148.5 Z"/></g>
<g><path style="opacity:1" fill="#f95663" d="M 188.5,156.5 C 189.786,159.756 191.12,163.089 192.5,166.5C 191.577,165.697 190.577,165.53 189.5,166C 160.935,190.075 132.269,213.908 103.5,237.5C 101.659,235.151 100.326,232.485 99.5,229.5C 128.851,204.819 158.518,180.485 188.5,156.5 Z"/></g>
<g><path style="opacity:1" fill="#f95063" d="M 192.5,166.5 C 194.5,167.833 196.167,169.5 197.5,171.5C 167.518,195.485 137.851,219.819 108.5,244.5C 106.478,242.469 104.811,240.135 103.5,237.5C 132.269,213.908 160.935,190.075 189.5,166C 190.577,165.53 191.577,165.697 192.5,166.5 Z"/></g>
<g><path style="opacity:1" fill="#f84a63" d="M 197.5,171.5 C 203.892,174.589 210.559,175.255 217.5,173.5C 217.5,174.833 216.833,175.5 215.5,175.5C 212.482,175.335 209.482,175.502 206.5,176C 176.5,200.667 146.5,225.333 116.5,250C 115.748,250.671 115.414,251.504 115.5,252.5C 112.705,250.249 110.372,247.582 108.5,244.5C 137.851,219.819 167.518,195.485 197.5,171.5 Z"/></g>
<g><path style="opacity:1" fill="#f84261" d="M 215.5,175.5 C 200.024,188.802 184.357,201.969 168.5,215C 168.728,215.399 169.062,215.565 169.5,215.5C 160.379,220.384 155.212,228.051 154,238.5C 146.921,247.654 140.587,257.32 135,267.5C 127.8,263.327 121.3,258.327 115.5,252.5C 115.414,251.504 115.748,250.671 116.5,250C 146.5,225.333 176.5,200.667 206.5,176C 209.482,175.502 212.482,175.335 215.5,175.5 Z"/></g>
<g><path style="opacity:1" fill="#f7cac8" d="M 278.5,166.5 C 274.748,177.741 266.915,184.074 255,185.5C 246.536,184.1 239.536,180.1 234,173.5C 232.589,171.35 231.755,169.016 231.5,166.5C 231.5,165.5 231.5,164.5 231.5,163.5C 247.167,163.5 262.833,163.5 278.5,163.5C 278.5,164.5 278.5,165.5 278.5,166.5 Z"/></g>
<g><path style="opacity:1" fill="#272538" d="M 23.5,176.5 C 26.6074,176.351 29.6074,176.851 32.5,178C 36.3869,181.111 40.7202,183.444 45.5,185C 49.8964,185.082 54.2298,184.749 58.5,184C 60.8998,187.778 60.7331,191.612 58,195.5C 46.4096,210.945 33.5763,212.111 19.5,199C 14.8631,199.542 10.1964,199.875 5.5,200C 4.40857,197.936 4.2419,195.769 5,193.5C 8.86572,185.126 15.0324,179.46 23.5,176.5 Z"/></g>
<g><path style="opacity:1" fill="#f73a5c" d="M 169.5,215.5 C 169.062,215.565 168.728,215.399 168.5,215C 184.357,201.969 200.024,188.802 215.5,175.5C 216.833,175.5 217.5,174.833 217.5,173.5C 219.84,172.914 222.007,171.914 224,170.5C 226.34,175.836 229.674,180.503 234,184.5C 234.5,191.492 234.666,198.492 234.5,205.5C 229.953,204.324 225.453,204.324 221,205.5C 217.158,198.547 211.325,196.047 203.5,198C 194.46,201.048 187.127,206.381 181.5,214C 177.452,214.304 173.452,214.804 169.5,215.5 Z"/></g>
<g><path style="opacity:1" fill="#ec876e" d="M 23.5,184.5 C 25.1992,184.34 26.8659,184.506 28.5,185C 32.1667,187.333 35.8333,189.667 39.5,192C 50.4665,192.202 51.1331,194.536 41.5,199C 38.8333,199.667 36.1667,199.667 33.5,199C 29.3559,193.927 24.0226,190.927 17.5,190C 19.3962,187.932 21.3962,186.099 23.5,184.5 Z"/></g>
<g><path style="opacity:1" fill="#d97683" d="M 267.5,205.5 C 258.641,204.436 250.307,201.769 242.5,197.5C 242.5,195.167 242.5,192.833 242.5,190.5C 246.208,191.934 250.041,192.934 254,193.5C 258.65,193.045 263.15,192.045 267.5,190.5C 267.5,195.5 267.5,200.5 267.5,205.5 Z"/></g>
<g><path style="opacity:1" fill="#f6cac9" d="M 242.5,197.5 C 250.307,201.769 258.641,204.436 267.5,205.5C 268.377,209.322 269.044,213.322 269.5,217.5C 269.38,220.064 268.047,221.564 265.5,222C 256.089,223.53 248.255,220.696 242,213.5C 241.831,208.172 241.998,202.838 242.5,197.5 Z"/></g>
<g><path style="opacity:1" fill="#f3f4f5" d="M 221.5,228.5 C 221.5,229.167 221.5,229.833 221.5,230.5C 216.337,234.83 211.67,239.664 207.5,245C 206.906,245.464 206.239,245.631 205.5,245.5C 204.685,244.571 203.852,243.571 203,242.5C 203.936,230.872 199.436,222.039 189.5,216C 195.178,209.62 202.178,205.953 210.5,205C 214.821,212.477 218.487,220.31 221.5,228.5 Z"/></g>
<g><path style="opacity:1" fill="#dee3f7" d="M 284.5,219.5 C 291.819,221.479 297.819,225.479 302.5,231.5C 300.159,235.165 297.493,238.499 294.5,241.5C 294.336,235.512 291.836,234.179 287,237.5C 280.453,252.674 269.62,257.007 254.5,250.5C 257.056,249.457 259.223,247.79 261,245.5C 266.5,239.333 272,233.167 277.5,227C 276.906,226.536 276.239,226.369 275.5,226.5C 278.762,224.58 281.762,222.246 284.5,219.5 Z"/></g>
<g><path style="opacity:1" fill="#f1b17b" d="M 193.5,231.5 C 192.965,233.446 191.632,234.446 189.5,234.5C 185.509,226.561 179.509,224.727 171.5,229C 168.9,231.984 167.9,235.484 168.5,239.5C 166.716,239.893 165.05,240.559 163.5,241.5C 162.171,227.331 168.838,220.831 183.5,222C 188.674,223.343 192.008,226.51 193.5,231.5 Z"/></g>
<g><path style="opacity:1" fill="#e7ebf6" d="M 275.5,226.5 C 276.239,226.369 276.906,226.536 277.5,227C 272,233.167 266.5,239.333 261,245.5C 259.223,247.79 257.056,249.457 254.5,250.5C 248.085,247.865 242.585,243.865 238,238.5C 232.278,230.894 227.445,222.728 223.5,214C 224.962,211.799 226.962,211.133 229.5,212C 233.167,215.667 236.833,219.333 240.5,223C 251.56,230.193 263.227,231.36 275.5,226.5 Z"/></g>
<g><path style="opacity:1" fill="#e76b4c" d="M 189.5,234.5 C 189.271,246.201 183.604,250.035 172.5,246C 170.779,244.056 169.446,241.89 168.5,239.5C 167.9,235.484 168.9,231.984 171.5,229C 179.509,224.727 185.509,226.561 189.5,234.5 Z"/></g>
<g><path style="opacity:1" fill="#eceff8" d="M 221.5,230.5 C 224.246,244.352 231.246,255.352 242.5,263.5C 240.931,268.071 237.931,271.405 233.5,273.5C 222.5,265.833 213.167,256.5 205.5,245.5C 206.239,245.631 206.906,245.464 207.5,245C 211.67,239.664 216.337,234.83 221.5,230.5 Z"/></g>
<g><path style="opacity:1" fill="#7f8dbe" d="M 256.5,309.5 C 259.85,309.665 263.183,309.498 266.5,309C 271.5,303.333 276.5,297.667 281.5,292C 281.272,291.601 280.938,291.435 280.5,291.5C 284.653,289.833 288.486,287.5 292,284.5C 292.748,282.16 292.248,280.16 290.5,278.5C 293.533,276.984 296.2,274.984 298.5,272.5C 303.323,272.673 305.323,270.339 304.5,265.5C 306.292,262.454 307.292,259.121 307.5,255.5C 309.144,255.714 310.644,255.38 312,254.5C 315.897,245.558 317.397,236.225 316.5,226.5C 323.131,226.567 327.964,229.567 331,235.5C 335.014,268.313 321.847,291.146 291.5,304C 286.757,305.47 282.091,307.136 277.5,309C 270.355,310.356 263.355,310.522 256.5,309.5 Z"/></g>
<g><path style="opacity:1" fill="#f39e6d" d="M 193.5,231.5 C 197.159,240.4 194.826,247.567 186.5,253C 174.615,257.059 166.949,253.225 163.5,241.5C 165.05,240.559 166.716,239.893 168.5,239.5C 169.446,241.89 170.779,244.056 172.5,246C 183.604,250.035 189.271,246.201 189.5,234.5C 191.632,234.446 192.965,233.446 193.5,231.5 Z"/></g>
<g><path style="opacity:1" fill="#9facdd" d="M 150.5,310.5 C 148.015,312.714 145.015,313.881 141.5,314C 140.915,315.302 140.249,316.469 139.5,317.5C 143.632,299.05 148.299,280.717 153.5,262.5C 152.999,260.164 151.999,258.164 150.5,256.5C 152.122,253.545 154.122,250.878 156.5,248.5C 158.752,250.504 160.086,253.004 160.5,256C 155.927,273.941 152.593,292.107 150.5,310.5 Z"/></g>
<g><path style="opacity:1" fill="#d57481" d="M 326.5,321.5 C 331.89,316.392 337.056,311.058 342,305.5C 340.208,296.692 339.208,287.692 339,278.5C 331.604,284.898 325.27,292.231 320,300.5C 307.483,316.172 291.317,325.172 271.5,327.5C 271.211,323.894 271.544,320.394 272.5,317C 301.508,312.983 322.341,297.816 335,271.5C 337.294,264.99 338.961,258.323 340,251.5C 345.186,256.861 347.853,263.194 348,270.5C 339.96,282.552 340.793,293.886 350.5,304.5C 341.624,311.365 333.457,319.031 326,327.5C 325.51,325.455 325.677,323.455 326.5,321.5 Z"/></g>
<g><path style="opacity:1" fill="#a1addf" d="M 184.5,281.5 C 177.339,279.586 170.672,276.586 164.5,272.5C 165.456,268.079 166.623,263.746 168,259.5C 173.851,262.687 180.018,263.354 186.5,261.5C 186.111,268.339 185.444,275.006 184.5,281.5 Z"/></g>
<g><path style="opacity:1" fill="#8d9bcc" d="M 305.5,252.5 C 287.456,273.042 266.456,276.709 242.5,263.5C 231.246,255.352 224.246,244.352 221.5,230.5C 221.5,229.833 221.5,229.167 221.5,228.5C 227.768,238.842 235.768,247.676 245.5,255C 266.579,266.155 282.912,261.655 294.5,241.5C 297.493,238.499 300.159,235.165 302.5,231.5C 297.819,225.479 291.819,221.479 284.5,219.5C 286.819,214.894 290.485,213.394 295.5,215C 299.967,218.465 304.133,222.298 308,226.5C 308.667,231.5 308.667,236.5 308,241.5C 306.85,245.112 306.017,248.778 305.5,252.5 Z"/></g>
<g><path style="opacity:1" fill="#2c2d41" d="M 304.5,265.5 C 305.323,270.339 303.323,272.673 298.5,272.5C 294.653,265.343 296.653,263.009 304.5,265.5 Z"/></g>
<g><path style="opacity:1" fill="#99a7d9" d="M 223.5,276.5 C 219.5,280.5 215.5,284.5 211.5,288.5C 204.5,283.666 198.666,277.666 194,270.5C 193.55,264.078 194.884,258.078 198,252.5C 198.718,251.549 199.551,251.383 200.5,252C 207.328,260.994 214.995,269.16 223.5,276.5 Z"/></g>
<g><path style="opacity:1" fill="#d6def6" d="M 305.5,252.5 C 305.427,254.027 306.094,255.027 307.5,255.5C 307.292,259.121 306.292,262.454 304.5,265.5C 296.653,263.009 294.653,265.343 298.5,272.5C 296.2,274.984 293.533,276.984 290.5,278.5C 284.453,281.516 278.119,284.016 271.5,286C 256.969,287.221 244.302,283.055 233.5,273.5C 237.931,271.405 240.931,268.071 242.5,263.5C 266.456,276.709 287.456,273.042 305.5,252.5 Z"/></g>
<g><path style="opacity:1" fill="#262537" d="M 85.5,270.5 C 87.5273,270.338 89.5273,270.505 91.5,271C 96.8362,280.856 96.6695,290.69 91,300.5C 85.9561,305.627 79.7895,307.794 72.5,307C 71.1667,307.667 69.8333,308.333 68.5,309C 66.5539,311.675 64.8873,314.508 63.5,317.5C 58.4105,319.103 55.7438,317.103 55.5,311.5C 53.8123,303.981 54.3123,296.648 57,289.5C 58.9384,286.894 61.4384,285.061 64.5,284C 74.5408,283.993 81.5408,279.493 85.5,270.5 Z"/></g>
<g><path style="opacity:1" fill="#f4f6f7" d="M 164.5,272.5 C 170.672,276.586 177.339,279.586 184.5,281.5C 184.5,284.833 184.5,288.167 184.5,291.5C 177.008,293.582 169.341,294.916 161.5,295.5C 161.5,293.833 161.5,292.167 161.5,290.5C 162.129,284.428 163.129,278.428 164.5,272.5 Z"/></g>
<g><path style="opacity:1" fill="#d57481" d="M 263.5,328.5 C 243.376,326.603 225.376,319.436 209.5,307C 203.774,304.096 199.274,305.262 196,310.5C 195.5,317.826 195.334,325.159 195.5,332.5C 194.356,330.9 193.189,329.233 192,327.5C 191.141,312.134 191.475,296.801 193,281.5C 211.904,302.587 235.404,314.587 263.5,317.5C 263.5,321.167 263.5,324.833 263.5,328.5 Z"/></g>
<g><path style="opacity:1" fill="#f2415d" d="M 86.5,283.5 C 87.6404,295.514 81.9738,300.681 69.5,299C 66.8976,299.883 64.7309,301.383 63,303.5C 61.703,298.883 62.8697,295.05 66.5,292C 70.4648,290.874 74.4648,289.874 78.5,289C 81.7556,287.884 84.4223,286.051 86.5,283.5 Z"/></g>
<g><path style="opacity:1" fill="#8896c7" d="M 223.5,276.5 C 231.965,283.108 241.299,288.275 251.5,292C 261.226,294.093 270.892,293.926 280.5,291.5C 280.938,291.435 281.272,291.601 281.5,292C 276.5,297.667 271.5,303.333 266.5,309C 263.183,309.498 259.85,309.665 256.5,309.5C 239.798,305.98 224.798,298.98 211.5,288.5C 215.5,284.5 219.5,280.5 223.5,276.5 Z"/></g>
<g><path style="opacity:1" fill="#e0e5f6" d="M 150.5,256.5 C 151.999,258.164 152.999,260.164 153.5,262.5C 148.299,280.717 143.632,299.05 139.5,317.5C 139.5,317.833 139.5,318.167 139.5,318.5C 135.476,318.503 131.476,318.836 127.5,319.5C 125.667,319.415 124.334,318.748 123.5,317.5C 129.989,296.023 138.989,275.69 150.5,256.5 Z"/></g>
<g><path style="opacity:1" fill="#d9614a" d="M 384.5,298.5 C 408.241,305.691 431.908,313.191 455.5,321C 454.139,322.584 453.472,324.418 453.5,326.5C 430.325,320.387 407.325,313.554 384.5,306C 383.864,303.606 383.864,301.106 384.5,298.5 Z"/></g>
<g><path style="opacity:1" fill="#f5bf83" d="M 353.5,336.5 C 343.927,339.191 334.427,342.191 325,345.5C 324.235,345.43 323.735,345.097 323.5,344.5C 331.575,330.923 342.242,319.757 355.5,311C 365.159,303.685 368.659,294.185 366,282.5C 363.969,278.479 361.303,277.813 358,280.5C 358.132,283.508 358.632,286.508 359.5,289.5C 358.628,300.587 355.795,301.253 351,291.5C 348.996,282.351 351.83,275.184 359.5,270C 370.267,268.752 376.434,273.585 378,284.5C 378.716,296.959 375.383,308.293 368,318.5C 363.867,325.119 359.034,331.119 353.5,336.5 Z"/></g>
<g><path style="opacity:1" fill="#edf1f8" d="M 161.5,290.5 C 161.5,292.167 161.5,293.833 161.5,295.5C 169.341,294.916 177.008,293.582 184.5,291.5C 184.5,292.167 184.5,292.833 184.5,293.5C 183.505,304.321 183.172,315.321 183.5,326.5C 174.481,327.725 165.481,329.059 156.5,330.5C 156.5,329.5 156.5,328.5 156.5,327.5C 157.32,314.924 158.987,302.59 161.5,290.5 Z"/></g>
<g><path style="opacity:1" fill="#f3b17a" d="M 469.5,356.5 C 468.527,354.052 468.194,351.385 468.5,348.5C 464.5,349.5 460.5,350.5 456.5,351.5C 456.737,352.791 456.404,353.791 455.5,354.5C 455.769,340.419 459.602,327.419 467,315.5C 472.34,308.078 479.507,304.911 488.5,306C 499.217,311.42 501.217,319.086 494.5,329C 491.154,331.261 488.154,330.927 485.5,328C 487.241,326.38 489.075,324.88 491,323.5C 491.72,321.888 491.554,320.388 490.5,319C 488.5,318.333 486.5,318.333 484.5,319C 476.325,323.834 471.491,331 470,340.5C 469.501,345.823 469.334,351.156 469.5,356.5 Z"/></g>
<g><path style="opacity:1" fill="#d5ddf7" d="M 123.5,317.5 C 124.334,318.748 125.667,319.415 127.5,319.5C 131.476,318.836 135.476,318.503 139.5,318.5C 137.51,328.771 135.844,339.104 134.5,349.5C 127.814,349.527 121.148,349.861 114.5,350.5C 116.52,339.126 119.52,328.126 123.5,317.5 Z"/></g>
<g><path style="opacity:1" fill="#f7b3af" d="M 263.5,328.5 C 262.833,332.167 262.167,335.833 261.5,339.5C 241.5,339.5 221.5,339.5 201.5,339.5C 198.781,337.781 196.781,335.447 195.5,332.5C 195.334,325.159 195.5,317.826 196,310.5C 199.274,305.262 203.774,304.096 209.5,307C 225.376,319.436 243.376,326.603 263.5,328.5 Z"/></g>
<g><path style="opacity:1" fill="#f4b2af" d="M 326.5,321.5 C 327.511,317.801 327.511,314.134 326.5,310.5C 324.5,309.167 322.5,309.167 320.5,310.5C 319.935,320.374 317.435,329.707 313,338.5C 310.292,342.104 306.792,344.604 302.5,346C 292.167,346.667 281.833,346.667 271.5,346C 270.02,344.701 269.354,343.034 269.5,341C 270.363,336.52 271.03,332.02 271.5,327.5C 291.317,325.172 307.483,316.172 320,300.5C 325.27,292.231 331.604,284.898 339,278.5C 339.208,287.692 340.208,296.692 342,305.5C 337.056,311.058 331.89,316.392 326.5,321.5 Z"/></g>
<g><path style="opacity:1" fill="#2a283a" d="M 218.5,330.5 C 221.187,330.336 223.854,330.503 226.5,331C 227.576,332.726 227.743,334.559 227,336.5C 224.263,337.61 221.429,337.777 218.5,337C 215.939,334.844 215.939,332.677 218.5,330.5 Z"/></g>
<g><path style="opacity:1" fill="#2b293b" d="M 291.5,330.5 C 294.518,330.335 297.518,330.502 300.5,331C 301.576,332.726 301.743,334.559 301,336.5C 298.263,337.61 295.429,337.777 292.5,337C 290.166,335.158 289.832,332.991 291.5,330.5 Z"/></g>
<g><path style="opacity:1" fill="#f8b77f" d="M 353.5,336.5 C 341.139,350.953 336.472,367.619 339.5,386.5C 339.5,388.167 339.5,389.833 339.5,391.5C 331.218,394.039 322.885,396.372 314.5,398.5C 310.763,379.234 313.763,361.234 323.5,344.5C 323.735,345.097 324.235,345.43 325,345.5C 334.427,342.191 343.927,339.191 353.5,336.5 Z"/></g>
<g><path style="opacity:1" fill="#e5e9f6" d="M 184.5,293.5 C 184.351,313.511 184.685,333.511 185.5,353.5C 185.5,355.833 185.5,358.167 185.5,360.5C 174.823,361.739 164.157,363.073 153.5,364.5C 153.5,362.5 153.5,360.5 153.5,358.5C 153.137,347.888 154.137,337.555 156.5,327.5C 156.5,328.5 156.5,329.5 156.5,330.5C 165.481,329.059 174.481,327.725 183.5,326.5C 183.172,315.321 183.505,304.321 184.5,293.5 Z"/></g>
<g><path style="opacity:1" fill="#ecaaa9" d="M 201.5,339.5 C 221.5,339.5 241.5,339.5 261.5,339.5C 261.099,345.49 263.432,349.99 268.5,353C 280.167,353.667 291.833,353.667 303.5,353C 306,352.625 308.333,351.792 310.5,350.5C 310.833,350.833 311.167,351.167 311.5,351.5C 310.487,353.527 309.487,355.527 308.5,357.5C 283.994,357.169 259.661,357.502 235.5,358.5C 222.917,358.296 213.25,363.63 206.5,374.5C 204.167,374.5 201.833,374.5 199.5,374.5C 197.589,365.405 196.589,356.072 196.5,346.5C 200.723,349.442 205.39,351.609 210.5,353C 223.742,353.822 236.909,353.655 250,352.5C 250.825,350.299 250.325,348.466 248.5,347C 237.5,346.667 226.5,346.333 215.5,346C 210.034,345.248 205.367,343.082 201.5,339.5 Z"/></g>
<g><path style="opacity:1" fill="#909ed0" d="M 150.5,310.5 C 147.452,327.357 145.786,344.357 145.5,361.5C 144.839,362.718 144.172,364.051 143.5,365.5C 140.243,366.551 136.91,367.218 133.5,367.5C 133.81,370.713 133.477,373.713 132.5,376.5C 132.76,367.458 133.426,358.458 134.5,349.5C 135.844,339.104 137.51,328.771 139.5,318.5C 139.5,318.167 139.5,317.833 139.5,317.5C 140.249,316.469 140.915,315.302 141.5,314C 145.015,313.881 148.015,312.714 150.5,310.5 Z"/></g>
<g><path style="opacity:1" fill="#d67481" d="M 196.5,346.5 C 196.589,356.072 197.589,365.405 199.5,374.5C 199.179,385.728 202.179,395.895 208.5,405C 220.953,413.539 234.619,419.039 249.5,421.5C 249.559,423.722 250.725,424.722 253,424.5C 255.209,424.443 256.709,423.443 257.5,421.5C 260.695,423.03 264.195,423.696 268,423.5C 276.581,423.047 285.081,422.047 293.5,420.5C 293.719,421.675 293.386,422.675 292.5,423.5C 270.007,434.031 246.674,436.198 222.5,430C 215.048,428.126 207.715,425.959 200.5,423.5C 196.788,396.592 194.288,369.592 193,342.5C 194.376,343.705 195.542,345.038 196.5,346.5 Z"/></g>
<g><path style="opacity:1" fill="#d47380" d="M 355.5,346.5 C 357.03,349.695 357.696,353.195 357.5,357C 356.38,366.623 354.88,376.123 353,385.5C 353.5,386 354,386.5 354.5,387C 357.833,387.333 361.167,387.667 364.5,388C 366.555,388.687 368.221,389.854 369.5,391.5C 366.898,398.807 364.398,406.14 362,413.5C 349.599,399.919 344.599,383.919 347,365.5C 348.761,358.647 351.595,352.314 355.5,346.5 Z"/></g>
<g><path style="opacity:1" fill="#f7ad76" d="M 469.5,356.5 C 469.5,363.167 469.5,369.833 469.5,376.5C 464.304,378.565 458.97,380.232 453.5,381.5C 454.714,372.547 455.38,363.547 455.5,354.5C 456.404,353.791 456.737,352.791 456.5,351.5C 460.5,350.5 464.5,349.5 468.5,348.5C 468.194,351.385 468.527,354.052 469.5,356.5 Z"/></g>
<g><path style="opacity:1" fill="#2c293b" d="M 235.5,358.5 C 237.035,364.144 234.701,366.644 228.5,366C 224.106,367.582 220.439,370.082 217.5,373.5C 214.117,376.564 211.45,380.231 209.5,384.5C 207.579,385.641 205.579,385.808 203.5,385C 202.535,381.056 203.535,377.556 206.5,374.5C 213.25,363.63 222.917,358.296 235.5,358.5 Z"/></g>
<g><path style="opacity:1" fill="#efaca6" d="M 308.5,357.5 C 307.671,364.475 305.171,370.808 301,376.5C 294.461,366.486 285.295,360.986 273.5,360C 270.833,362 270.833,364 273.5,366C 278.674,367.751 283.341,370.251 287.5,373.5C 278.682,374.493 269.682,374.827 260.5,374.5C 260.038,368.9 257.538,364.566 253,361.5C 250.942,362.058 249.775,363.391 249.5,365.5C 250.51,368.183 251.51,370.849 252.5,373.5C 240.735,374.819 229.069,374.819 217.5,373.5C 220.439,370.082 224.106,367.582 228.5,366C 234.701,366.644 237.035,364.144 235.5,358.5C 259.661,357.502 283.994,357.169 308.5,357.5 Z"/></g>
<g><path style="opacity:1" fill="#cbd6f7" d="M 134.5,349.5 C 133.426,358.458 132.76,367.458 132.5,376.5C 132.5,384.833 132.5,393.167 132.5,401.5C 122.648,394.138 115.148,384.805 110,373.5C 110.552,365.576 112.052,357.909 114.5,350.5C 121.148,349.861 127.814,349.527 134.5,349.5 Z"/></g>
<g><path style="opacity:1" fill="#2b283a" d="M 260.5,374.5 C 260.644,381.088 259.977,387.588 258.5,394C 260.056,403.258 259.723,412.425 257.5,421.5C 256.709,423.443 255.209,424.443 253,424.5C 250.725,424.722 249.559,423.722 249.5,421.5C 250.224,418.157 251.057,414.824 252,411.5C 252.667,408.167 252.667,404.833 252,401.5C 245.952,401.492 239.785,401.325 233.5,401C 229.698,400.44 227.032,398.44 225.5,395C 226.058,392.942 227.391,391.775 229.5,391.5C 247.837,399.163 255.504,393.163 252.5,373.5C 251.51,370.849 250.51,368.183 249.5,365.5C 249.775,363.391 250.942,362.058 253,361.5C 257.538,364.566 260.038,368.9 260.5,374.5 Z"/></g>
<g><path style="opacity:1" fill="#242437" d="M 418.5,363.5 C 425.676,362.985 427.342,365.818 423.5,372C 416.416,372.475 414.749,369.642 418.5,363.5 Z"/></g>
<g><path style="opacity:1" fill="#dfe4f7" d="M 185.5,353.5 C 186.898,364.651 187.898,375.985 188.5,387.5C 188.5,389.5 188.5,391.5 188.5,393.5C 176.528,395.353 164.528,397.02 152.5,398.5C 152.171,384.99 152.504,371.656 153.5,358.5C 153.5,360.5 153.5,362.5 153.5,364.5C 164.157,363.073 174.823,361.739 185.5,360.5C 185.5,358.167 185.5,355.833 185.5,353.5 Z"/></g>
<g><path style="opacity:1" fill="#8492c3" d="M 145.5,361.5 C 144.967,377.499 144.3,393.499 143.5,409.5C 139.234,407.546 135.567,404.879 132.5,401.5C 132.5,393.167 132.5,384.833 132.5,376.5C 133.477,373.713 133.81,370.713 133.5,367.5C 136.91,367.218 140.243,366.551 143.5,365.5C 144.172,364.051 144.839,362.718 145.5,361.5 Z"/></g>
<g><path style="opacity:1" fill="#efa4a1" d="M 217.5,373.5 C 229.069,374.819 240.735,374.819 252.5,373.5C 255.504,393.163 247.837,399.163 229.5,391.5C 227.391,391.775 226.058,392.942 225.5,395C 227.032,398.44 229.698,400.44 233.5,401C 239.785,401.325 245.952,401.492 252,401.5C 252.667,404.833 252.667,408.167 252,411.5C 251.057,414.824 250.224,418.157 249.5,421.5C 234.619,419.039 220.953,413.539 208.5,405C 202.179,395.895 199.179,385.728 199.5,374.5C 201.833,374.5 204.167,374.5 206.5,374.5C 203.535,377.556 202.535,381.056 203.5,385C 205.579,385.808 207.579,385.641 209.5,384.5C 211.45,380.231 214.117,376.564 217.5,373.5 Z"/></g>
<g><path style="opacity:1" fill="#efa3a0" d="M 287.5,373.5 C 291.617,376.124 294.45,379.79 296,384.5C 296.16,396.576 295.327,408.576 293.5,420.5C 285.081,422.047 276.581,423.047 268,423.5C 264.195,423.696 260.695,423.03 257.5,421.5C 259.723,412.425 260.056,403.258 258.5,394C 259.977,387.588 260.644,381.088 260.5,374.5C 269.682,374.827 278.682,374.493 287.5,373.5 Z"/></g>
<g><path style="opacity:1" fill="#2d293b" d="M 265.5,391.5 C 272.166,392.722 278.833,392.722 285.5,391.5C 289.923,392.342 290.59,394.508 287.5,398C 279.933,401.356 272.433,401.189 265,397.5C 264.322,395.402 264.489,393.402 265.5,391.5 Z"/></g>
<g><path style="opacity:1" fill="#f7a671" d="M 469.5,376.5 C 469.582,385.76 468.582,394.76 466.5,403.5C 458.927,405.524 451.427,407.857 444,410.5C 443.235,410.43 442.735,410.097 442.5,409.5C 447.335,400.517 451.002,391.183 453.5,381.5C 458.97,380.232 464.304,378.565 469.5,376.5 Z"/></g>
<g><path style="opacity:1" fill="#d7dff8" d="M 188.5,387.5 C 189.934,401.062 191.601,414.729 193.5,428.5C 193.5,429.833 193.5,431.167 193.5,432.5C 180.511,434.26 167.511,435.927 154.5,437.5C 152.924,424.7 152.257,411.7 152.5,398.5C 164.528,397.02 176.528,395.353 188.5,393.5C 188.5,391.5 188.5,389.5 188.5,387.5 Z"/></g>
<g><path style="opacity:1" fill="#d47380" d="M 375.5,395.5 C 379.638,397.805 382.972,400.971 385.5,405C 383.921,410.814 382.421,416.648 381,422.5C 380.481,423.516 379.647,424.182 378.5,424.5C 374.693,423.432 371.36,421.599 368.5,419C 371.225,411.262 373.559,403.428 375.5,395.5 Z"/></g>
<g><path style="opacity:1" fill="#f7ad76" d="M 339.5,386.5 C 341.562,396.297 345.562,405.297 351.5,413.5C 351.5,414.5 351.5,415.5 351.5,416.5C 342.5,419.167 333.5,421.833 324.5,424.5C 319.531,416.546 316.198,407.88 314.5,398.5C 322.885,396.372 331.218,394.039 339.5,391.5C 339.5,389.833 339.5,388.167 339.5,386.5 Z"/></g>
<g><path style="opacity:1" fill="#f79f6e" d="M 466.5,403.5 C 465.568,409.569 463.568,415.236 460.5,420.5C 453.718,415.953 447.551,416.619 442,422.5C 440.991,424.025 440.491,425.692 440.5,427.5C 435.324,428.338 431.99,431.338 430.5,436.5C 423.409,439.572 420.075,444.905 420.5,452.5C 393.285,461.634 367.618,458.634 343.5,443.5C 354.784,440.405 365.784,436.739 376.5,432.5C 404.154,440.285 426.154,432.619 442.5,409.5C 442.735,410.097 443.235,410.43 444,410.5C 451.427,407.857 458.927,405.524 466.5,403.5 Z"/></g>
<g><path style="opacity:1" fill="#d3727f" d="M 392.5,409.5 C 396.317,410.91 399.651,413.076 402.5,416C 401.106,419.745 400.106,423.578 399.5,427.5C 395.5,427.5 391.5,427.5 387.5,427.5C 388.767,421.37 390.433,415.37 392.5,409.5 Z"/></g>
<g><path style="opacity:1" fill="#f8a673" d="M 351.5,413.5 C 358.139,421.994 366.472,428.328 376.5,432.5C 365.784,436.739 354.784,440.405 343.5,443.5C 340.139,441.489 336.806,439.489 333.5,437.5C 329.76,433.689 326.76,429.356 324.5,424.5C 333.5,421.833 342.5,419.167 351.5,416.5C 351.5,415.5 351.5,414.5 351.5,413.5 Z"/></g>
<g><path style="opacity:1" fill="#cb6f7c" d="M 409.5,419.5 C 412.721,420.111 415.721,421.278 418.5,423C 415.388,424.306 412.221,425.472 409,426.5C 408.5,426.167 408,425.833 407.5,425.5C 408.172,423.47 408.838,421.47 409.5,419.5 Z"/></g>
<g><path style="opacity:1" fill="#f1b2b0" d="M 467.5,437.5 C 466.709,441.29 464.376,443.29 460.5,443.5C 456.912,438.407 452.745,433.74 448,429.5C 448.715,424.815 451.215,423.648 455.5,426C 459.395,430.065 463.395,433.898 467.5,437.5 Z"/></g>
<g><path style="opacity:1" fill="#9caadb" d="M 269.5,448.5 C 278.962,448.41 288.295,447.244 297.5,445C 298.867,440.752 298.534,436.586 296.5,432.5C 296.043,431.702 295.376,431.369 294.5,431.5C 298.158,428.721 301.658,429.054 305,432.5C 306.351,438.072 306.851,443.738 306.5,449.5C 293.989,449.829 281.655,449.495 269.5,448.5 Z"/></g>
<g><path style="opacity:1" fill="#d77581" d="M 467.5,437.5 C 472.668,441.114 472.668,444.947 467.5,449C 465.413,449.792 463.579,450.959 462,452.5C 461.309,460.193 457.143,464.026 449.5,464C 448.056,465.763 447.056,467.763 446.5,470C 443.187,470.864 440.854,469.698 439.5,466.5C 444.538,464.344 445.538,461.011 442.5,456.5C 444.514,456.608 446.18,455.942 447.5,454.5C 453.625,456.387 456.625,454.054 456.5,447.5C 458.5,446.833 459.833,445.5 460.5,443.5C 464.376,443.29 466.709,441.29 467.5,437.5 Z"/></g>
<g><path style="opacity:1" fill="#e0e4f1" d="M 294.5,431.5 C 295.376,431.369 296.043,431.702 296.5,432.5C 298.534,436.586 298.867,440.752 297.5,445C 288.295,447.244 278.962,448.41 269.5,448.5C 257.167,447.133 245.167,444.3 233.5,440C 254.669,442.809 275.002,439.976 294.5,431.5 Z"/></g>
<g><path style="opacity:1" fill="#f2b2af" d="M 456.5,447.5 C 456.625,454.054 453.625,456.387 447.5,454.5C 445.461,449.434 442.627,444.767 439,440.5C 437.885,436.979 439.051,435.146 442.5,435C 446.76,439.768 451.427,443.934 456.5,447.5 Z"/></g>
<g><path style="opacity:1" fill="#d55c44" d="M 333.5,437.5 C 336.806,439.489 340.139,441.489 343.5,443.5C 367.618,458.634 393.285,461.634 420.5,452.5C 421.666,454.166 421.666,455.833 420.5,457.5C 386.813,470.434 357.813,463.767 333.5,437.5 Z"/></g>
<g><path style="opacity:1" fill="#ccd6f6" d="M 193.5,428.5 C 196.524,445.647 199.19,462.981 201.5,480.5C 181.59,474.764 166.09,463.098 155,445.5C 154.503,442.854 154.336,440.187 154.5,437.5C 167.511,435.927 180.511,434.26 193.5,432.5C 193.5,431.167 193.5,429.833 193.5,428.5 Z"/></g>
<g><path style="opacity:1" fill="#8795c5" d="M 255.5,454.5 C 254.163,455.315 253.163,456.482 252.5,458C 251.552,458.483 250.552,458.649 249.5,458.5C 248.833,458.5 248.167,458.5 247.5,458.5C 238.227,456.308 229.393,452.974 221,448.5C 222.582,453.673 224.749,458.673 227.5,463.5C 219.693,461.264 212.359,457.931 205.5,453.5C 204.609,447.983 203.609,442.483 202.5,437C 202.833,436.167 203.167,435.333 203.5,434.5C 219.957,443.758 237.291,450.425 255.5,454.5 Z"/></g>
<g><path style="opacity:1" fill="#eff1f7" d="M 247.5,458.5 C 245.913,461.268 244.08,463.935 242,466.5C 240.989,467.337 239.822,467.67 238.5,467.5C 234.463,466.935 230.797,465.601 227.5,463.5C 224.749,458.673 222.582,453.673 221,448.5C 229.393,452.974 238.227,456.308 247.5,458.5 Z"/></g>
<g><path style="opacity:1" fill="#9eabdc" d="M 255.5,454.5 C 274.066,457.455 292.733,458.289 311.5,457C 318.223,462.998 320.889,470.498 319.5,479.5C 311.316,479.826 303.316,479.492 295.5,478.5C 298.5,478.5 301.5,478.5 304.5,478.5C 304.876,472.665 304.21,466.998 302.5,461.5C 292.524,462.332 282.524,462.666 272.5,462.5C 264.624,461.688 256.957,460.355 249.5,458.5C 250.552,458.649 251.552,458.483 252.5,458C 253.163,456.482 254.163,455.315 255.5,454.5 Z"/></g>
<g><path style="opacity:1" fill="#efafad" d="M 442.5,456.5 C 445.538,461.011 444.538,464.344 439.5,466.5C 434.962,461.451 430.962,455.951 427.5,450C 428.506,446.969 430.506,445.635 433.5,446C 436.365,449.692 439.365,453.192 442.5,456.5 Z"/></g>
<g><path style="opacity:1" fill="#dfe4f5" d="M 247.5,458.5 C 248.167,458.5 248.833,458.5 249.5,458.5C 256.957,460.355 264.624,461.688 272.5,462.5C 274.969,463.317 277.635,463.817 280.5,464C 277.262,467.728 274.262,471.561 271.5,475.5C 260.052,474.221 249.052,471.554 238.5,467.5C 239.822,467.67 240.989,467.337 242,466.5C 244.08,463.935 245.913,461.268 247.5,458.5 Z"/></g>
<g><path style="opacity:1" fill="#d4dcf7" d="M 295.5,478.5 C 287.426,477.811 279.426,476.811 271.5,475.5C 274.262,471.561 277.262,467.728 280.5,464C 277.635,463.817 274.969,463.317 272.5,462.5C 282.524,462.666 292.524,462.332 302.5,461.5C 304.21,466.998 304.876,472.665 304.5,478.5C 301.5,478.5 298.5,478.5 295.5,478.5 Z"/></g>
</svg>
