<?xml version="1.0" encoding="UTF-8"?>
<!DOCTYPE svg PUBLIC "-//W3C//DTD SVG 1.1//EN" "http://www.w3.org/Graphics/SVG/1.1/DTD/svg11.dtd">
<svg xmlns="http://www.w3.org/2000/svg" version="1.1" width="512px" height="512px" style="shape-rendering:geometricPrecision; text-rendering:geometricPrecision; image-rendering:optimizeQuality; fill-rule:evenodd; clip-rule:evenodd" xmlns:xlink="http://www.w3.org/1999/xlink">
<g><path style="opacity:1" fill="#282638" d="M 234.5,12.5 C 255.173,10.4485 273.506,15.9485 289.5,29C 300.737,38.2302 309.737,49.2302 316.5,62C 315.167,65 313.833,68 312.5,71C 315.026,70.0956 317.692,69.7623 320.5,70C 327.12,84.9522 336.453,97.9522 348.5,109C 360.689,118.464 374.355,121.797 389.5,119C 397.14,116.238 398.973,111.404 395,104.5C 392.872,101.37 390.372,98.5366 387.5,96C 380.747,93.8604 374.08,91.5271 367.5,89C 357.275,79.4566 355.775,68.6233 363,56.5C 368.265,51.6125 374.432,49.1125 381.5,49C 383.396,50.8083 383.896,52.975 383,55.5C 379.121,57.1889 375.288,59.0223 371.5,61C 364.457,68.7719 365.123,75.7719 373.5,82C 383.272,85.0542 392.939,88.3876 402.5,92C 416.578,102.234 421.078,115.734 416,132.5C 405.098,155.052 386.931,166.052 361.5,165.5C 355.794,165.431 350.127,164.931 344.5,164C 334.482,161.121 324.316,158.954 314,157.5C 309.856,158.164 305.689,158.664 301.5,159C 299.817,164.928 298.817,171.095 298.5,177.5C 306.442,178.87 313.942,181.537 321,185.5C 328.723,179.224 337.556,175.557 347.5,174.5C 355.255,174.918 362.255,177.418 368.5,182C 377.471,188.634 384.638,196.801 390,206.5C 391.125,211.399 390.291,215.899 387.5,220C 393.106,226.47 396.606,233.97 398,242.5C 406.786,250.446 414.62,259.112 421.5,268.5C 438.132,254.175 456.465,242.341 476.5,233C 479.738,231.632 483.072,231.299 486.5,232C 489.667,239.816 491.5,247.982 492,256.5C 496.6,329.363 475.6,393.696 429,449.5C 410.716,469.855 389.55,486.188 365.5,498.5C 363.42,498.314 361.92,497.314 361,495.5C 356.463,485.221 353.129,474.554 351,463.5C 345.089,462.141 339.255,460.474 333.5,458.5C 329.806,471.367 322.14,481.201 310.5,488C 300.495,488.25 291.995,484.75 285,477.5C 279.242,487.922 270.575,494.589 259,497.5C 246.726,494.23 237.726,486.897 232,475.5C 224.274,481.951 215.441,485.451 205.5,486C 199.76,476.281 196.093,465.781 194.5,454.5C 188.638,458.862 182.638,463.028 176.5,467C 172.82,467.682 170.32,466.182 169,462.5C 160.484,445.336 157.984,427.669 161.5,409.5C 155.657,412.226 149.657,414.559 143.5,416.5C 139.688,422.146 135.021,426.979 129.5,431C 117.731,436.812 105.564,441.646 93,445.5C 89.5599,450.779 84.7266,453.779 78.5,454.5C 78.6664,463.173 78.4998,471.84 78,480.5C 76.8951,483.937 74.7284,486.437 71.5,488C 64.8333,488.667 58.1667,488.667 51.5,488C 47.6667,486.833 45.1667,484.333 44,480.5C 43.5003,473.174 43.3337,465.841 43.5,458.5C 30.8572,459.025 25.3572,453.025 27,440.5C 27.7348,438.129 28.5682,435.795 29.5,433.5C 22.6649,425.83 21.3316,417.33 25.5,408C 22.523,401.992 22.023,395.825 24,389.5C 24.911,386.424 26.7443,384.091 29.5,382.5C 23.2376,377.652 19.2376,371.319 17.5,363.5C 23.2629,354.552 28.4296,345.218 33,335.5C 41.0399,315.221 44.0399,294.221 42,272.5C 36.5416,250.333 31.875,228 28,205.5C 19.3013,145.352 29.468,88.6852 58.5,35.5C 60.9492,34.0903 63.1159,34.4237 65,36.5C 95.0758,94.3631 104.076,155.363 92,219.5C 88.6488,235.572 84.9821,251.572 81,267.5C 77.4392,291.68 80.4392,315.013 90,337.5C 92.0944,342.702 94.9277,347.369 98.5,351.5C 103.127,349.569 107.794,347.735 112.5,346C 118.573,337.09 126.573,330.59 136.5,326.5C 126.056,304.261 126.389,282.095 137.5,260C 123.83,258.518 118.663,251.018 122,237.5C 127.141,224.359 136.308,215.192 149.5,210C 153.232,200.602 159.899,194.269 169.5,191C 175.222,191.758 179.056,189.591 181,184.5C 187.187,178.767 194.354,177.1 202.5,179.5C 203.331,173.193 203.831,166.859 204,160.5C 208.162,154.024 208.495,147.357 205,140.5C 203.014,125.799 206.348,112.465 215,100.5C 212.616,73.0094 216.283,46.3427 226,20.5C 227.479,16.1818 230.312,13.5151 234.5,12.5 Z M 350.5,319.5 C 358.233,323.299 366.233,326.299 374.5,328.5C 367.439,343.855 361.273,359.522 356,375.5C 346.061,369.461 340.561,360.628 339.5,349C 345.556,340.055 349.223,330.221 350.5,319.5 Z"/></g>
<g><path style="opacity:1" fill="#de5687" d="M 272.5,56.5 C 270.134,62.6029 268.134,68.9362 266.5,75.5C 273.936,81.598 280.27,88.598 285.5,96.5C 264.254,94.5404 247.421,102.207 235,119.5C 231.705,85.9689 238.372,54.6355 255,25.5C 256.117,23.8757 257.617,22.8757 259.5,22.5C 269.228,25.5282 277.894,30.3615 285.5,37C 280.127,42.8609 275.793,49.3609 272.5,56.5 Z"/></g>
<g><path style="opacity:1" fill="#9f374f" d="M 233.5,52.5 C 231.473,52.6621 229.473,52.4955 227.5,52C 226.748,51.3292 226.414,50.4959 226.5,49.5C 228.016,39.7845 230.849,30.4512 235,21.5C 239.45,20.1999 243.95,20.1999 248.5,21.5C 242.53,31.4348 237.53,41.7681 233.5,52.5 Z"/></g>
<g><path style="opacity:1" fill="#252437" d="M 408.5,39.5 C 414.191,39.548 415.857,42.2147 413.5,47.5C 410.182,49.8184 407.016,49.8184 404,47.5C 402.797,43.2223 404.297,40.5556 408.5,39.5 Z"/></g>
<g><path style="opacity:1" fill="#df5182" d="M 309.5,82.5 C 307.302,94.9459 303.968,107.279 299.5,119.5C 299.093,111.44 296.426,104.273 291.5,98C 289.414,97.6847 287.414,97.1847 285.5,96.5C 280.27,88.598 273.936,81.598 266.5,75.5C 268.134,68.9362 270.134,62.6029 272.5,56.5C 272.164,61.0001 274.164,62.8334 278.5,62C 281.274,56.2872 284.44,50.7872 288,45.5C 289.113,43.6707 290.613,42.8374 292.5,43C 298.105,49.0492 303.105,55.5492 307.5,62.5C 303.842,68.7839 301.676,75.4505 301,82.5C 301.739,83.5742 302.739,84.2409 304,84.5C 305.8,83.6805 307.634,83.0138 309.5,82.5 Z"/></g>
<g><path style="opacity:1" fill="#262639" d="M 139.5,46.5 C 153.694,45.0135 164.527,50.3469 172,62.5C 179.419,75.9307 182.086,90.264 180,105.5C 177.333,108.167 174.667,108.167 172,105.5C 168.706,98.406 164.54,91.906 159.5,86C 155.014,83.4168 151.848,84.5835 150,89.5C 149.133,103.7 150.467,117.7 154,131.5C 157.849,145.383 162.682,158.883 168.5,172C 168.297,174.703 166.797,176.203 164,176.5C 141.738,155.996 127.738,130.662 122,100.5C 119.877,88.1027 120.21,75.7693 123,63.5C 125.684,54.984 131.184,49.3173 139.5,46.5 Z"/></g>
<g><path style="opacity:1" fill="#882f45" d="M 226.5,49.5 C 226.414,50.4959 226.748,51.3292 227.5,52C 229.473,52.4955 231.473,52.6621 233.5,52.5C 228.91,70.5334 226.41,88.8667 226,107.5C 221.225,87.9708 221.391,68.6375 226.5,49.5 Z"/></g>
<g><path style="opacity:1" fill="#9fa6f7" d="M 161.5,63.5 C 151.185,69.6597 140.518,75.3263 129.5,80.5C 128.65,72.9238 130.15,65.9238 134,59.5C 139.672,54.2715 146.172,53.1049 153.5,56C 156.692,58.0282 159.359,60.5282 161.5,63.5 Z"/></g>
<g><path style="opacity:1" fill="#252437" d="M 191.5,56.5 C 194.044,56.1043 196.211,56.771 198,58.5C 201.075,69.1172 202.908,79.9505 203.5,91C 203.693,94.2426 203.027,97.2426 201.5,100C 198.975,100.896 196.808,100.396 195,98.5C 194.893,85.5811 193.059,72.9145 189.5,60.5C 189.752,58.9271 190.418,57.5938 191.5,56.5 Z"/></g>
<g><path style="opacity:1" fill="#b3bacd" d="M 57.5,124.5 C 56.8333,102.833 56.1667,81.1667 55.5,59.5C 55.9867,58.5266 56.4867,57.5266 57,56.5C 57.5,79.1642 57.6666,101.831 57.5,124.5 Z"/></g>
<g><path style="opacity:1" fill="#8f94a2" d="M 66.5,58.5 C 65.8333,80.8333 65.1667,103.167 64.5,125.5C 64.3334,102.498 64.5,79.4976 65,56.5C 65.7172,57.0442 66.2172,57.7109 66.5,58.5 Z"/></g>
<g><path style="opacity:1" fill="#a2adf6" d="M 161.5,63.5 C 168.204,70.4344 171.704,78.7678 172,88.5C 168.786,83.6184 164.619,79.7851 159.5,77C 151.184,75.5751 145.35,78.7418 142,86.5C 141.485,96.8434 141.651,107.177 142.5,117.5C 140.181,117.992 138.181,118.992 136.5,120.5C 130.915,107.871 128.582,94.5374 129.5,80.5C 140.518,75.3263 151.185,69.6597 161.5,63.5 Z"/></g>
<g><path style="opacity:1" fill="#d84b7c" d="M 352.5,121.5 C 350.044,132.491 347.044,143.324 343.5,154C 344.056,154.383 344.389,154.883 344.5,155.5C 335.956,153.154 327.289,151.32 318.5,150C 312.15,149.476 305.816,149.642 299.5,150.5C 299.5,140.167 299.5,129.833 299.5,119.5C 303.968,107.279 307.302,94.9459 309.5,82.5C 311.935,80.5992 314.602,79.9325 317.5,80.5C 324.527,98.1888 336.194,111.855 352.5,121.5 Z"/></g>
<g><path style="opacity:1" fill="#262639" d="M 462.5,99.5 C 484.129,99.3016 491.962,109.635 486,130.5C 479.063,152.108 465.563,168.274 445.5,179C 432.834,185.863 419.5,190.029 405.5,191.5C 403.469,189.751 403.135,187.751 404.5,185.5C 420.899,176.606 435.066,164.94 447,150.5C 450.252,145.666 453.252,140.666 456,135.5C 457.14,131.611 456.307,128.278 453.5,125.5C 445.654,123.775 438.154,124.775 431,128.5C 427.119,126.762 426.119,124.095 428,120.5C 437.746,110.547 449.246,103.547 462.5,99.5 Z"/></g>
<g><path style="opacity:1" fill="#ea7051" d="M 280.5,189.5 C 281.486,185.557 282.152,181.557 282.5,177.5C 282.5,164.5 282.5,151.5 282.5,138.5C 285.558,125.985 281.891,116.151 271.5,109C 267.94,107.763 264.273,107.263 260.5,107.5C 269.133,103.097 278.133,102.431 287.5,105.5C 288.942,108.05 290.108,110.716 291,113.5C 291.667,133.5 291.667,153.5 291,173.5C 289.28,180.044 285.78,185.377 280.5,189.5 Z"/></g>
<g><path style="opacity:1" fill="#a3acf4" d="M 463.5,153.5 C 461.871,152.375 460.371,151.041 459,149.5C 458.617,150.056 458.117,150.389 457.5,150.5C 459.64,146.22 461.807,141.886 464,137.5C 466.396,124.883 461.23,117.383 448.5,115C 456.3,108.836 464.967,106.836 474.5,109C 479.231,111.956 481.064,116.122 480,121.5C 477.358,133.787 471.858,144.454 463.5,153.5 Z"/></g>
<g><path style="opacity:1" fill="#dbe5f7" d="M 66.5,58.5 C 76.28,79.8419 82.6133,102.175 85.5,125.5C 85.4226,126.75 84.756,127.583 83.5,128C 67.9851,130.78 52.4851,133.614 37,136.5C 36.2352,136.43 35.7352,136.097 35.5,135.5C 37.7939,108.99 44.4606,83.6565 55.5,59.5C 56.1667,81.1667 56.8333,102.833 57.5,124.5C 57.5587,126.722 58.7253,127.722 61,127.5C 62.6991,127.613 63.8658,126.947 64.5,125.5C 65.1667,103.167 65.8333,80.8333 66.5,58.5 Z"/></g>
<g><path style="opacity:1" fill="#a6b1ec" d="M 142.5,117.5 C 144.746,127.091 146.913,136.757 149,146.5C 143.486,138.472 139.319,129.805 136.5,120.5C 138.181,118.992 140.181,117.992 142.5,117.5 Z"/></g>
<g><path style="opacity:1" fill="#d84574" d="M 344.5,155.5 C 344.389,154.883 344.056,154.383 343.5,154C 347.044,143.324 350.044,132.491 352.5,121.5C 358.634,124.156 364.968,126.323 371.5,128C 380.941,129.44 389.941,128.106 398.5,124C 404.819,119.212 406.986,113.046 405,105.5C 406.829,107.156 408.163,109.156 409,111.5C 411.03,131.265 402.863,145.098 384.5,153C 371.262,157.661 357.929,158.494 344.5,155.5 Z"/></g>
<g><path style="opacity:1" fill="#f7d49c" d="M 260.5,107.5 C 264.273,107.263 267.94,107.763 271.5,109C 281.891,116.151 285.558,125.985 282.5,138.5C 278.167,138.5 273.833,138.5 269.5,138.5C 269.737,137.209 269.404,136.209 268.5,135.5C 268.586,134.504 268.252,133.671 267.5,133C 265.833,132.333 264.167,132.333 262.5,133C 260.63,135.04 258.63,136.873 256.5,138.5C 242.167,138.5 227.833,138.5 213.5,138.5C 211.466,128.546 213.132,119.212 218.5,110.5C 221.159,119.488 224.659,128.154 229,136.5C 231.267,137.935 233.267,137.602 235,135.5C 240.237,123.1 248.737,113.767 260.5,107.5 Z"/></g>
<g><path style="opacity:1" fill="#252437" d="M 109.5,137.5 C 111.722,137.178 113.556,137.845 115,139.5C 120.634,153.136 129.301,164.47 141,173.5C 143.434,178.473 141.934,180.973 136.5,181C 122.964,171.435 113.131,158.935 107,143.5C 106.034,140.66 106.867,138.66 109.5,137.5 Z"/></g>
<g><path style="opacity:1" fill="#f6ca98" d="M 213.5,138.5 C 227.833,138.5 242.167,138.5 256.5,138.5C 249.208,148.146 239.541,152.98 227.5,153C 220.554,150.223 215.887,145.39 213.5,138.5 Z"/></g>
<g><path style="opacity:1" fill="#aab4f0" d="M 463.5,153.5 C 455.909,162.954 446.576,169.787 435.5,174C 444.111,167.227 451.444,159.394 457.5,150.5C 458.117,150.389 458.617,150.056 459,149.5C 460.371,151.041 461.871,152.375 463.5,153.5 Z"/></g>
<g><path style="opacity:1" fill="#d5e0f8" d="M 85.5,125.5 C 86.9843,130.253 87.8177,135.253 88,140.5C 88.4999,153.829 88.6666,167.163 88.5,180.5C 87.7326,181.172 87.0659,182.005 86.5,183C 79.5258,184.385 72.5258,185.551 65.5,186.5C 65.8195,181.637 65.4861,176.97 64.5,172.5C 62.2581,168.543 59.9248,168.543 57.5,172.5C 56.5119,177.64 56.1786,182.974 56.5,188.5C 49.1205,189.619 41.7872,190.952 34.5,192.5C 33.9836,182.845 33.6502,173.178 33.5,163.5C 33.2982,153.948 33.9649,144.615 35.5,135.5C 35.7352,136.097 36.2352,136.43 37,136.5C 52.4851,133.614 67.9851,130.78 83.5,128C 84.756,127.583 85.4226,126.75 85.5,125.5 Z"/></g>
<g><path style="opacity:1" fill="#2f2f42" d="M 59.5,145.5 C 66.678,147.515 67.178,150.515 61,154.5C 56.9673,152.164 56.4673,149.164 59.5,145.5 Z"/></g>
<g><path style="opacity:1" fill="#423d5b" d="M 240.5,180.5 C 236.6,181.43 232.6,181.763 228.5,181.5C 228.795,179.265 228.461,177.265 227.5,175.5C 221.288,172.294 216.288,167.627 212.5,161.5C 213.651,159.227 214.651,156.894 215.5,154.5C 222.503,160.215 230.503,162.048 239.5,160C 247.657,156.421 254.99,151.588 261.5,145.5C 262.89,150.584 262.723,155.584 261,160.5C 256.346,167.489 250.179,172.656 242.5,176C 240.963,177.11 240.297,178.61 240.5,180.5 Z"/></g>
<g><path style="opacity:1" fill="#f8c391" d="M 268.5,135.5 C 269.404,136.209 269.737,137.209 269.5,138.5C 273.833,138.5 278.167,138.5 282.5,138.5C 282.5,151.5 282.5,164.5 282.5,177.5C 274.067,176.861 265.734,176.194 257.5,175.5C 270.657,165.011 274.324,151.678 268.5,135.5 Z"/></g>
<g><path style="opacity:1" fill="#e96e50" d="M 213.5,175.5 C 215.5,176.833 217.5,178.167 219.5,179.5C 219.825,187.019 219.492,194.352 218.5,201.5C 214.601,197.353 212.601,192.353 212.5,186.5C 212.185,182.629 212.518,178.962 213.5,175.5 Z"/></g>
<g><path style="opacity:1" fill="#784441" d="M 213.5,175.5 C 212.518,178.962 212.185,182.629 212.5,186.5C 211.191,182.649 211.191,178.649 212.5,174.5C 213.107,174.624 213.44,174.957 213.5,175.5 Z"/></g>
<g><path style="opacity:1" fill="#a65649" d="M 219.5,179.5 C 220.656,187.323 220.823,195.323 220,203.5C 219.283,202.956 218.783,202.289 218.5,201.5C 219.492,194.352 219.825,187.019 219.5,179.5 Z"/></g>
<g><path style="opacity:1" fill="#f5c494" d="M 336.5,186.5 C 337.609,186.557 338.609,186.89 339.5,187.5C 327.213,202.959 314.713,218.293 302,233.5C 301.153,235.193 300.32,236.86 299.5,238.5C 297.615,236.205 297.115,233.538 298,230.5C 304.451,215.44 313.951,202.607 326.5,192C 329.727,189.888 333.06,188.055 336.5,186.5 Z"/></g>
<g><path style="opacity:1" fill="#d34979" d="M 203.5,189.5 C 203.025,195.196 203.692,200.696 205.5,206C 205.272,206.399 204.938,206.565 204.5,206.5C 198.025,202.185 192.025,197.352 186.5,192C 189.052,187.061 193.052,185.395 198.5,187C 200.491,187.374 202.158,188.207 203.5,189.5 Z"/></g>
<g><path style="opacity:1" fill="#f7b488" d="M 257.5,175.5 C 265.734,176.194 274.067,176.861 282.5,177.5C 282.152,181.557 281.486,185.557 280.5,189.5C 275.926,194.566 270.593,198.733 264.5,202C 259.486,205.009 254.152,207.176 248.5,208.5C 247.521,205.375 247.187,202.042 247.5,198.5C 247.171,192.794 247.505,187.128 248.5,181.5C 251.701,179.738 254.701,177.738 257.5,175.5 Z"/></g>
<g><path style="opacity:1" fill="#7e2b3f" d="M 306.5,201.5 C 300.757,199.879 295.09,200.379 289.5,203C 281.602,209.531 273.436,215.698 265,221.5C 264.503,223.81 264.337,226.143 264.5,228.5C 262.563,229.931 260.73,231.598 259,233.5C 255.625,227.915 252.125,222.415 248.5,217C 266.226,211.815 280.892,202.148 292.5,188C 299.839,186.768 306.839,187.768 313.5,191C 314.451,191.718 314.617,192.551 314,193.5C 311.267,196.062 308.767,198.729 306.5,201.5 Z"/></g>
<g><path style="opacity:1" fill="#f9bc8d" d="M 339.5,187.5 C 344.09,189.762 348.09,192.762 351.5,196.5C 338.928,213.084 325.928,229.417 312.5,245.5C 311.675,246.386 310.675,246.719 309.5,246.5C 305.762,244.303 302.429,241.636 299.5,238.5C 300.32,236.86 301.153,235.193 302,233.5C 314.713,218.293 327.213,202.959 339.5,187.5 Z"/></g>
<g><path style="opacity:1" fill="#35314b" d="M 227.5,175.5 C 228.461,177.265 228.795,179.265 228.5,181.5C 232.6,181.763 236.6,181.43 240.5,180.5C 240.176,190.505 239.676,200.505 239,210.5C 236.23,211.325 233.563,211.659 231,211.5C 229.615,210.449 228.615,209.116 228,207.5C 227.5,196.839 227.333,186.172 227.5,175.5 Z"/></g>
<g><path style="opacity:1" fill="#ced8f8" d="M 88.5,180.5 C 87.1482,197.316 84.8148,213.983 81.5,230.5C 76.3581,232.463 71.0248,233.797 65.5,234.5C 65.5,218.5 65.5,202.5 65.5,186.5C 72.5258,185.551 79.5258,184.385 86.5,183C 87.0659,182.005 87.7326,181.172 88.5,180.5 Z"/></g>
<g><path style="opacity:1" fill="#f9b488" d="M 351.5,196.5 C 353.833,198.167 355.833,200.167 357.5,202.5C 346.247,216.653 334.747,230.653 323,244.5C 322.53,245.577 322.697,246.577 323.5,247.5C 318.61,250.306 313.944,249.972 309.5,246.5C 310.675,246.719 311.675,246.386 312.5,245.5C 325.928,229.417 338.928,213.084 351.5,196.5 Z"/></g>
<g><path style="opacity:1" fill="#e66f51" d="M 367.5,219.5 C 365.426,213.007 362.092,207.34 357.5,202.5C 355.833,200.167 353.833,198.167 351.5,196.5C 348.09,192.762 344.09,189.762 339.5,187.5C 338.609,186.89 337.609,186.557 336.5,186.5C 341.898,182.24 347.898,181.407 354.5,184C 365.852,189.684 375.019,197.85 382,208.5C 382.667,210.167 382.667,211.833 382,213.5C 377.396,215.981 372.562,217.981 367.5,219.5 Z"/></g>
<g><path style="opacity:1" fill="#de5182" d="M 168.5,200.5 C 169.496,216.658 169.83,232.991 169.5,249.5C 158.239,248.997 147.073,249.663 136,251.5C 131.088,250.866 128.922,248.033 129.5,243C 130.84,235.668 134.506,229.668 140.5,225C 145.542,221.479 150.875,218.479 156.5,216C 158.246,208.972 162.246,203.805 168.5,200.5 Z"/></g>
<g><path style="opacity:1" fill="#252538" d="M 472.5,200.5 C 478.263,200.783 479.93,203.616 477.5,209C 469.184,209.838 467.517,207.004 472.5,200.5 Z"/></g>
<g><path style="opacity:1" fill="#ced8f8" d="M 56.5,188.5 C 56.5,204.5 56.5,220.5 56.5,236.5C 51.7732,236.779 47.1065,237.446 42.5,238.5C 39.1869,223.288 36.5202,207.955 34.5,192.5C 41.7872,190.952 49.1205,189.619 56.5,188.5 Z"/></g>
<g><path style="opacity:1" fill="#d44777" d="M 306.5,201.5 C 300.59,209.643 295.423,218.309 291,227.5C 290.501,231.152 290.335,234.818 290.5,238.5C 284.939,236.72 279.605,234.387 274.5,231.5C 281.405,226.094 287.071,219.594 291.5,212C 290.13,208.621 287.797,207.788 284.5,209.5C 279.102,217.233 272.435,223.566 264.5,228.5C 264.337,226.143 264.503,223.81 265,221.5C 273.436,215.698 281.602,209.531 289.5,203C 295.09,200.379 300.757,199.879 306.5,201.5 Z"/></g>
<g><path style="opacity:1" fill="#f7ab82" d="M 357.5,202.5 C 362.092,207.34 365.426,213.007 367.5,219.5C 351.174,226.324 336.507,235.657 323.5,247.5C 322.697,246.577 322.53,245.577 323,244.5C 334.747,230.653 346.247,216.653 357.5,202.5 Z"/></g>
<g><path style="opacity:1" fill="#6d5450" d="M 247.5,198.5 C 247.187,202.042 247.521,205.375 248.5,208.5C 248.44,209.043 248.107,209.376 247.5,209.5C 246.192,205.685 246.192,202.019 247.5,198.5 Z"/></g>
<g><path style="opacity:1" fill="#93324a" d="M 203.5,189.5 C 206.129,197.574 210.463,204.74 216.5,211C 219.659,214.082 223.325,216.416 227.5,218C 231.833,218.333 236.167,218.667 240.5,219C 242.636,222.11 244.636,225.277 246.5,228.5C 237.592,229.136 228.925,228.136 220.5,225.5C 220.66,223.801 220.494,222.134 220,220.5C 215.232,215.231 210.066,210.565 204.5,206.5C 204.938,206.565 205.272,206.399 205.5,206C 203.692,200.696 203.025,195.196 203.5,189.5 Z"/></g>
<g><path style="opacity:1" fill="#252537" d="M 450.5,213.5 C 455.317,214.237 456.65,216.904 454.5,221.5C 442.408,228.218 429.575,230.884 416,229.5C 415.242,227.231 415.409,225.064 416.5,223C 428.56,221.988 439.893,218.822 450.5,213.5 Z"/></g>
<g><path style="opacity:1" fill="#e26c4f" d="M 382.5,244.5 C 378.969,236.899 373.302,234.566 365.5,237.5C 361.895,237.799 358.561,238.965 355.5,241C 350.77,244.029 346.437,247.529 342.5,251.5C 340.521,250.188 338.855,248.521 337.5,246.5C 349.88,236.389 363.713,228.723 379,223.5C 384.007,228.17 387.507,233.837 389.5,240.5C 388.531,243.987 386.198,245.32 382.5,244.5 Z"/></g>
<g><path style="opacity:1" fill="#2b2639" d="M 209.5,239.5 C 216.1,244.254 222.6,249.254 229,254.5C 230.695,251.305 233.195,248.972 236.5,247.5C 233.299,244.136 230.299,240.636 227.5,237C 228.229,233.641 230.229,232.308 233.5,233C 240.754,240.25 247.254,248.083 253,256.5C 255.364,267.792 250.864,273.292 239.5,273C 237.275,272.439 235.275,271.439 233.5,270C 226.866,262.193 219.199,255.693 210.5,250.5C 200.398,243.449 189.398,237.949 177.5,234C 174.167,229 175.5,226.667 181.5,227C 191.017,230.889 200.351,235.056 209.5,239.5 Z"/></g>
<g><path style="opacity:1" fill="#d44371" d="M 210.5,222.5 C 212.792,223.624 214.958,224.957 217,226.5C 218.138,226.011 219.305,225.678 220.5,225.5C 228.925,228.136 237.592,229.136 246.5,228.5C 252.956,238.67 257.789,249.67 261,261.5C 262.188,276.312 255.355,283.145 240.5,282C 230.444,274.646 220.111,267.813 209.5,261.5C 209.185,257.629 209.518,253.962 210.5,250.5C 219.199,255.693 226.866,262.193 233.5,270C 235.275,271.439 237.275,272.439 239.5,273C 250.864,273.292 255.364,267.792 253,256.5C 247.254,248.083 240.754,240.25 233.5,233C 230.229,232.308 228.229,233.641 227.5,237C 230.299,240.636 233.299,244.136 236.5,247.5C 233.195,248.972 230.695,251.305 229,254.5C 222.6,249.254 216.1,244.254 209.5,239.5C 209.178,233.642 209.511,227.975 210.5,222.5 Z"/></g>
<g><path style="opacity:1" fill="#d74b7b" d="M 210.5,222.5 C 209.511,227.975 209.178,233.642 209.5,239.5C 200.351,235.056 191.017,230.889 181.5,227C 175.5,226.667 174.167,229 177.5,234C 189.398,237.949 200.398,243.449 210.5,250.5C 209.518,253.962 209.185,257.629 209.5,261.5C 196.811,255.328 183.478,251.328 169.5,249.5C 169.83,232.991 169.496,216.658 168.5,200.5C 172.531,198.561 176.864,198.061 181.5,199C 191.935,205.94 201.601,213.773 210.5,222.5 Z"/></g>
<g><path style="opacity:1" fill="#d73f6f" d="M 274.5,231.5 C 279.605,234.387 284.939,236.72 290.5,238.5C 291.304,240.189 292.304,241.855 293.5,243.5C 286.873,247.149 280.206,250.815 273.5,254.5C 271.67,248.322 270.004,241.989 268.5,235.5C 270.5,234.167 272.5,232.833 274.5,231.5 Z"/></g>
<g><path style="opacity:1" fill="#8a3145" d="M 268.5,235.5 C 270.004,241.989 271.67,248.322 273.5,254.5C 271.97,256.346 269.97,257.346 267.5,257.5C 266.172,252.512 264.838,247.512 263.5,242.5C 263.981,239.348 265.647,237.015 268.5,235.5 Z"/></g>
<g><path style="opacity:1" fill="#f6b589" d="M 382.5,244.5 C 376.751,246.873 371.084,249.54 365.5,252.5C 365.5,247.5 365.5,242.5 365.5,237.5C 373.302,234.566 378.969,236.899 382.5,244.5 Z"/></g>
<g><path style="opacity:1" fill="#c4cef3" d="M 81.5,230.5 C 78.342,243.489 75.1753,256.489 72,269.5C 70.5354,286.727 71.7021,303.727 75.5,320.5C 75.44,321.043 75.1067,321.376 74.5,321.5C 71.8333,320.5 69.1667,319.5 66.5,318.5C 65.5002,290.508 65.1669,262.508 65.5,234.5C 71.0248,233.797 76.3581,232.463 81.5,230.5 Z"/></g>
<g><path style="opacity:1" fill="#f7c593" d="M 365.5,237.5 C 365.5,242.5 365.5,247.5 365.5,252.5C 362.164,256.168 358.164,258.834 353.5,260.5C 348.979,258.655 345.312,255.655 342.5,251.5C 346.437,247.529 350.77,244.029 355.5,241C 358.561,238.965 361.895,237.799 365.5,237.5 Z"/></g>
<g><path style="opacity:1" fill="#bdc7ea" d="M 57.5,172.5 C 57.5,219.833 57.5,267.167 57.5,314.5C 52.2122,314.889 49.5455,312.556 49.5,307.5C 50.5155,294.85 50.6822,282.183 50,269.5C 47.6588,259.135 45.1588,248.802 42.5,238.5C 47.1065,237.446 51.7732,236.779 56.5,236.5C 56.5,220.5 56.5,204.5 56.5,188.5C 56.1786,182.974 56.5119,177.64 57.5,172.5 Z"/></g>
<g><path style="opacity:1" fill="#f5aa81" d="M 470.5,266.5 C 464.5,263.167 458.5,259.833 452.5,256.5C 461.119,250.182 470.452,244.849 480.5,240.5C 483.158,246.563 483.992,252.896 483,259.5C 478.725,261.719 474.559,264.052 470.5,266.5 Z"/></g>
<g><path style="opacity:1" fill="#e3694b" d="M 330.5,314.5 C 329.926,309.401 327.426,305.401 323,302.5C 321.787,300.075 320.621,297.741 319.5,295.5C 318.89,287.036 318.224,278.703 317.5,270.5C 316.748,266.16 314.414,262.993 310.5,261C 294.055,260.469 280.555,266.636 270,279.5C 266.096,284.642 263.262,290.309 261.5,296.5C 260.298,301.689 260.298,307.023 261.5,312.5C 252.526,307.568 247.86,299.902 247.5,289.5C 260.56,287.94 267.727,280.607 269,267.5C 278.377,260.131 288.71,254.464 300,250.5C 303.514,251.676 306.681,253.509 309.5,256C 317.454,258.76 324.454,257.26 330.5,251.5C 330.833,251.667 331.167,251.833 331.5,252C 325.011,265 323.845,278.5 328,292.5C 329.598,297.532 332.098,302.032 335.5,306C 334.45,309.276 332.784,312.11 330.5,314.5 Z"/></g>
<g><path style="opacity:1" fill="#d87582" d="M 404.5,285.5 C 403.407,283.651 402.074,281.984 400.5,280.5C 397.522,274.188 392.855,269.522 386.5,266.5C 376.931,265.265 368.598,268.099 361.5,275C 350.276,280.776 341.276,278.276 334.5,267.5C 334.506,264.15 335.506,261.15 337.5,258.5C 341.069,262.238 345.069,265.404 349.5,268C 353.738,268.823 357.738,268.156 361.5,266C 370.43,257.868 380.764,252.368 392.5,249.5C 401.433,256.929 409.1,265.429 415.5,275C 411.964,278.704 408.298,282.204 404.5,285.5 Z"/></g>
<g><path style="opacity:1" fill="#a13750" d="M 237.5,255.5 C 242.284,255.108 245.284,257.275 246.5,262C 243.788,266.402 240.622,266.569 237,262.5C 236.297,260.071 236.463,257.738 237.5,255.5 Z"/></g>
<g><path style="opacity:1" fill="#975965" d="M 147.5,257.5 C 152.015,256.188 156.682,256.188 161.5,257.5C 161.376,258.107 161.043,258.44 160.5,258.5C 156.366,257.515 152.032,257.182 147.5,257.5 Z"/></g>
<g><path style="opacity:1" fill="#d77783" d="M 147.5,257.5 C 152.032,257.182 156.366,257.515 160.5,258.5C 160.073,261.01 159.407,263.343 158.5,265.5C 157.129,264.213 155.295,263.547 153,263.5C 150.135,263.684 147.302,264.018 144.5,264.5C 145.227,262.046 146.227,259.713 147.5,257.5 Z"/></g>
<g><path style="opacity:1" fill="#e36a4c" d="M 229.5,307.5 C 231.875,299.744 230.208,293.077 224.5,287.5C 222.5,284.833 220.167,282.5 217.5,280.5C 202.872,269.33 186.205,263.663 167.5,263.5C 167.367,260.412 168.7,258.412 171.5,257.5C 194.253,261.378 214.253,270.878 231.5,286C 234.309,287.741 237.309,288.908 240.5,289.5C 240.014,294.984 241.014,300.15 243.5,305C 238.695,305.217 234.028,306.051 229.5,307.5 Z"/></g>
<g><path style="opacity:1" fill="#f9c290" d="M 317.5,270.5 C 317.714,272.144 317.38,273.644 316.5,275C 298.459,282.736 280.459,290.569 262.5,298.5C 261.702,298.043 261.369,297.376 261.5,296.5C 263.262,290.309 266.096,284.642 270,279.5C 280.555,266.636 294.055,260.469 310.5,261C 314.414,262.993 316.748,266.16 317.5,270.5 Z"/></g>
<g><path style="opacity:1" fill="#f8bbb8" d="M 386.5,266.5 C 386.586,267.496 386.252,268.329 385.5,269C 370.266,279.083 354.932,288.917 339.5,298.5C 336.617,294.706 334.784,290.373 334,285.5C 333.181,279.319 333.347,273.319 334.5,267.5C 341.276,278.276 350.276,280.776 361.5,275C 368.598,268.099 376.931,265.265 386.5,266.5 Z"/></g>
<g><path style="opacity:1" fill="#f6b68a" d="M 452.5,256.5 C 458.5,259.833 464.5,263.167 470.5,266.5C 463.138,271.51 455.805,276.51 448.5,281.5C 442.844,278.005 436.844,275.005 430.5,272.5C 437.116,266.191 444.45,260.857 452.5,256.5 Z"/></g>
<g><path style="opacity:1" fill="#9298f3" d="M 483.5,299.5 C 473.922,295.711 464.589,291.378 455.5,286.5C 464.246,278.947 473.913,272.614 484.5,267.5C 485.941,278.249 485.607,288.915 483.5,299.5 Z"/></g>
<g><path style="opacity:1" fill="#f5b2ae" d="M 386.5,266.5 C 392.855,269.522 397.522,274.188 400.5,280.5C 386.357,289.408 372.357,298.574 358.5,308C 356.593,309.122 354.593,309.955 352.5,310.5C 346.908,307.909 342.574,303.909 339.5,298.5C 354.932,288.917 370.266,279.083 385.5,269C 386.252,268.329 386.586,267.496 386.5,266.5 Z"/></g>
<g><path style="opacity:1" fill="#f9d49d" d="M 167.5,263.5 C 186.205,263.663 202.872,269.33 217.5,280.5C 202.231,287.465 186.898,294.465 171.5,301.5C 165.232,289.26 163.898,276.593 167.5,263.5 Z"/></g>
<g><path style="opacity:1" fill="#f7c492" d="M 430.5,272.5 C 436.844,275.005 442.844,278.005 448.5,281.5C 442.193,287.472 435.86,293.472 429.5,299.5C 423.57,296.039 417.236,293.373 410.5,291.5C 416.535,284.464 423.202,278.131 430.5,272.5 Z"/></g>
<g><path style="opacity:1" fill="#f0a4a0" d="M 400.5,280.5 C 402.074,281.984 403.407,283.651 404.5,285.5C 395.661,295.991 387.661,307.158 380.5,319C 370.052,319.559 360.719,316.725 352.5,310.5C 354.593,309.955 356.593,309.122 358.5,308C 372.357,298.574 386.357,289.408 400.5,280.5 Z"/></g>
<g><path style="opacity:1" fill="#f9cd97" d="M 217.5,280.5 C 220.167,282.5 222.5,284.833 224.5,287.5C 223.781,289.888 222.115,291.388 219.5,292C 205.85,297.937 192.184,303.77 178.5,309.5C 175.705,307.249 173.372,304.582 171.5,301.5C 186.898,294.465 202.231,287.465 217.5,280.5 Z"/></g>
<g><path style="opacity:1" fill="#f9b68a" d="M 317.5,270.5 C 318.224,278.703 318.89,287.036 319.5,295.5C 318.177,297.686 316.177,299.186 313.5,300C 299.812,305.846 286.145,311.679 272.5,317.5C 268.71,316.105 265.043,314.438 261.5,312.5C 260.298,307.023 260.298,301.689 261.5,296.5C 261.369,297.376 261.702,298.043 262.5,298.5C 280.459,290.569 298.459,282.736 316.5,275C 317.38,273.644 317.714,272.144 317.5,270.5 Z"/></g>
<g><path style="opacity:1" fill="#f7c493" d="M 224.5,287.5 C 230.208,293.077 231.875,299.744 229.5,307.5C 219.363,312.368 208.697,315.368 197.5,316.5C 190.154,316.65 183.82,314.317 178.5,309.5C 192.184,303.77 205.85,297.937 219.5,292C 222.115,291.388 223.781,289.888 224.5,287.5 Z"/></g>
<g><path style="opacity:1" fill="#9ba2f8" d="M 455.5,286.5 C 464.589,291.378 473.922,295.711 483.5,299.5C 483.657,300.873 483.49,302.207 483,303.5C 476.002,309.001 469.168,314.668 462.5,320.5C 453.591,315.311 444.591,310.311 435.5,305.5C 441.535,298.464 448.202,292.131 455.5,286.5 Z"/></g>
<g><path style="opacity:1" fill="#f7c1be" d="M 158.5,265.5 C 157.022,275.958 157.689,286.292 160.5,296.5C 160.5,297.5 160.5,298.5 160.5,299.5C 152.827,298.899 145.16,298.233 137.5,297.5C 137.5,294.5 137.5,291.5 137.5,288.5C 138.219,280.01 140.553,272.01 144.5,264.5C 147.302,264.018 150.135,263.684 153,263.5C 155.295,263.547 157.129,264.213 158.5,265.5 Z"/></g>
<g><path style="opacity:1" fill="#f6aa82" d="M 319.5,295.5 C 320.621,297.741 321.787,300.075 323,302.5C 327.426,305.401 329.926,309.401 330.5,314.5C 324.533,322.722 316.367,326.389 306,325.5C 294.152,325.168 282.985,322.502 272.5,317.5C 286.145,311.679 299.812,305.846 313.5,300C 316.177,299.186 318.177,297.686 319.5,295.5 Z"/></g>
<g><path style="opacity:1" fill="#f7cf99" d="M 410.5,291.5 C 417.236,293.373 423.57,296.039 429.5,299.5C 424.73,306.054 419.73,312.387 414.5,318.5C 409.19,314.511 403.19,311.511 396.5,309.5C 400.203,302.768 404.869,296.768 410.5,291.5 Z"/></g>
<g><path style="opacity:1" fill="#d77581" d="M 161.5,298.5 C 166.007,308.512 173.174,316.178 183,321.5C 183.693,332.591 187.693,342.257 195,350.5C 195.812,360.228 193.645,369.228 188.5,377.5C 180.685,383.481 173.685,390.315 167.5,398C 160.62,401.127 153.62,403.96 146.5,406.5C 148.05,393.133 145.716,380.466 139.5,368.5C 142.917,372.096 146.25,375.929 149.5,380C 157.328,382.896 164.328,381.563 170.5,376C 174.712,373.289 178.046,369.789 180.5,365.5C 183.112,362.454 185.112,358.954 186.5,355C 185.318,352.995 183.985,351.162 182.5,349.5C 179.859,343.589 177.859,337.589 176.5,331.5C 176.664,328.813 176.497,326.146 176,323.5C 167.564,317.3 162.731,308.967 161.5,298.5 Z"/></g>
<g><path style="opacity:1" fill="#2a2a3f" d="M 449.5,303.5 C 454.984,303.481 456.65,305.981 454.5,311C 447.745,311.756 446.078,309.256 449.5,303.5 Z"/></g>
<g><path style="opacity:1" fill="#f7d7a0" d="M 396.5,309.5 C 403.19,311.511 409.19,314.511 414.5,318.5C 400.721,338.728 390.721,360.728 384.5,384.5C 378.565,377.634 373.898,369.967 370.5,361.5C 376.017,342.465 384.684,325.132 396.5,309.5 Z"/></g>
<g><path style="opacity:1" fill="#a6aff8" d="M 435.5,305.5 C 444.591,310.311 453.591,315.311 462.5,320.5C 455.923,327.352 449.59,334.352 443.5,341.5C 434.6,338.051 425.933,334.051 417.5,329.5C 422.353,320.646 428.353,312.646 435.5,305.5 Z"/></g>
<g><path style="opacity:1" fill="#f6b4b2" d="M 137.5,288.5 C 137.5,291.5 137.5,294.5 137.5,297.5C 145.16,298.233 152.827,298.899 160.5,299.5C 160.5,298.5 160.5,297.5 160.5,296.5C 161.338,296.842 161.672,297.508 161.5,298.5C 162.731,308.967 167.564,317.3 176,323.5C 176.497,326.146 176.664,328.813 176.5,331.5C 169.833,331.167 163.167,330.833 156.5,330.5C 153.101,329.366 149.768,328.033 146.5,326.5C 138.143,314.981 135.143,302.314 137.5,288.5 Z"/></g>
<g><path style="opacity:1" fill="#f8d29b" d="M 254.5,327.5 C 248.189,334.814 241.856,342.147 235.5,349.5C 213.432,357.464 198.766,350.464 191.5,328.5C 198.052,330.299 204.719,330.799 211.5,330C 221.227,327.756 230.727,324.923 240,321.5C 245.615,321.728 250.449,323.728 254.5,327.5 Z"/></g>
<g><path style="opacity:1" fill="#884841" d="M 202.5,323.5 C 198.833,324.167 195.167,324.833 191.5,325.5C 190.957,325.44 190.624,325.107 190.5,324.5C 194.445,323.509 198.445,323.176 202.5,323.5 Z"/></g>
<g><path style="opacity:1" fill="#de664b" d="M 321.5,352.5 C 322.204,348.197 320.87,344.697 317.5,342C 312.628,340.612 307.628,340.112 302.5,340.5C 293.698,340.588 285.032,339.588 276.5,337.5C 268.993,334.75 261.66,331.417 254.5,327.5C 250.449,323.728 245.615,321.728 240,321.5C 230.727,324.923 221.227,327.756 211.5,330C 204.719,330.799 198.052,330.299 191.5,328.5C 191.5,327.5 191.5,326.5 191.5,325.5C 195.167,324.833 198.833,324.167 202.5,323.5C 215.493,320.667 228.326,317.334 241,313.5C 245.01,313.503 248.844,314.336 252.5,316C 272.618,329.057 294.618,334.39 318.5,332C 328.74,328.597 336.407,322.097 341.5,312.5C 342.783,329.933 336.117,343.267 321.5,352.5 Z"/></g>
<g><path style="opacity:1" fill="#f5c593" d="M 473.5,349.5 C 467.286,346.56 460.953,343.893 454.5,341.5C 462.146,331.854 470.812,323.188 480.5,315.5C 480.383,327.299 478.05,338.633 473.5,349.5 Z"/></g>
<g><path style="opacity:1" fill="#f8c190" d="M 254.5,327.5 C 261.66,331.417 268.993,334.75 276.5,337.5C 272.479,343.521 267.479,348.521 261.5,352.5C 252.959,350.459 244.292,349.459 235.5,349.5C 241.856,342.147 248.189,334.814 254.5,327.5 Z"/></g>
<g><path style="opacity:1" fill="#f0aca8" d="M 156.5,330.5 C 163.167,330.833 169.833,331.167 176.5,331.5C 177.859,337.589 179.859,343.589 182.5,349.5C 181.903,350.139 181.07,350.472 180,350.5C 162.852,348.521 145.686,346.687 128.5,345C 127.584,344.722 126.918,344.222 126.5,343.5C 133.82,333.811 142.82,331.978 153.5,338C 156.167,340.667 158.833,343.333 161.5,346C 166.569,345.679 167.736,343.179 165,338.5C 162.271,335.601 159.438,332.934 156.5,330.5 Z"/></g>
<g><path style="opacity:1" fill="#7275a7" d="M 64.5,172.5 C 65.4861,176.97 65.8195,181.637 65.5,186.5C 65.5,202.5 65.5,218.5 65.5,234.5C 65.1669,262.508 65.5002,290.508 66.5,318.5C 69.1667,319.5 71.8333,320.5 74.5,321.5C 75.1067,321.376 75.44,321.043 75.5,320.5C 78.0107,329.687 81.344,338.687 85.5,347.5C 79.7081,353.228 72.7081,356.561 64.5,357.5C 64.5,295.833 64.5,234.167 64.5,172.5 Z"/></g>
<g><path style="opacity:1" fill="#f7b489" d="M 276.5,337.5 C 285.032,339.588 293.698,340.588 302.5,340.5C 296.974,346.858 291.64,353.358 286.5,360C 287.737,360.232 288.737,360.732 289.5,361.5C 279.82,359.272 270.486,356.272 261.5,352.5C 267.479,348.521 272.479,343.521 276.5,337.5 Z"/></g>
<g><path style="opacity:1" fill="#f9ac82" d="M 302.5,340.5 C 307.628,340.112 312.628,340.612 317.5,342C 320.87,344.697 322.204,348.197 321.5,352.5C 317.333,356.406 312.333,358.906 306.5,360C 300.899,361.217 295.232,361.717 289.5,361.5C 288.737,360.732 287.737,360.232 286.5,360C 291.64,353.358 296.974,346.858 302.5,340.5 Z"/></g>
<g><path style="opacity:1" fill="#b1bdf8" d="M 417.5,329.5 C 425.933,334.051 434.6,338.051 443.5,341.5C 438.492,349.505 433.492,357.505 428.5,365.5C 424.653,362.407 420.32,360.074 415.5,358.5C 414.009,355.909 411.675,354.909 408.5,355.5C 407.104,353.627 405.437,353.294 403.5,354.5C 406.903,345.35 411.57,337.017 417.5,329.5 Z"/></g>
<g><path style="opacity:1" fill="#7375ab" d="M 49.5,307.5 C 49.5455,312.556 52.2122,314.889 57.5,314.5C 57.5,328.833 57.5,343.167 57.5,357.5C 49.3167,356.574 42.3167,353.241 36.5,347.5C 42.4788,334.567 46.8121,321.234 49.5,307.5 Z"/></g>
<g><path style="opacity:1" fill="#f2a7a3" d="M 126.5,343.5 C 126.918,344.222 127.584,344.722 128.5,345C 145.686,346.687 162.852,348.521 180,350.5C 181.07,350.472 181.903,350.139 182.5,349.5C 183.985,351.162 185.318,352.995 186.5,355C 185.112,358.954 183.112,362.454 180.5,365.5C 165.518,363.968 150.518,362.635 135.5,361.5C 131.169,357.337 126.669,353.337 122,349.5C 122.427,346.879 123.927,344.879 126.5,343.5 Z"/></g>
<g><path style="opacity:1" fill="#2f3045" d="M 408.5,355.5 C 411.675,354.909 414.009,355.909 415.5,358.5C 414.805,362.516 412.472,364.016 408.5,363C 405.914,360.506 405.914,358.006 408.5,355.5 Z"/></g>
<g><path style="opacity:1" fill="#f8bb8d" d="M 454.5,341.5 C 460.953,343.893 467.286,346.56 473.5,349.5C 470.857,360.773 466.857,371.44 461.5,381.5C 452.489,377.661 443.822,373.328 435.5,368.5C 440.616,358.586 446.949,349.586 454.5,341.5 Z"/></g>
<g><path style="opacity:1" fill="#e07a50" d="M 36.5,376.5 C 42.837,375.164 48.5036,372.497 53.5,368.5C 67.6767,369.609 79.8434,365.276 90,355.5C 93.0894,358.667 94.756,362.334 95,366.5C 92.1667,372 88,376.167 82.5,379C 68.2913,375.958 53.958,375.791 39.5,378.5C 37.9623,378.547 36.9623,377.88 36.5,376.5 Z"/></g>
<g><path style="opacity:1" fill="#dd634a" d="M 330.5,355.5 C 331.376,355.369 332.043,355.702 332.5,356.5C 334.401,363.471 337.734,369.637 342.5,375C 328.535,389.148 311.868,397.648 292.5,400.5C 297.046,390.314 299.38,379.648 299.5,368.5C 311.5,367.842 321.833,363.509 330.5,355.5 Z"/></g>
<g><path style="opacity:1" fill="#dd644b" d="M 214.5,372.5 C 210.016,370.757 205.683,368.757 201.5,366.5C 201.888,363.121 202.555,359.788 203.5,356.5C 207.351,358.129 211.351,359.129 215.5,359.5C 214.705,363.785 214.372,368.119 214.5,372.5 Z"/></g>
<g><path style="opacity:1" fill="#dd634b" d="M 286.5,393.5 C 286.11,389.382 284.776,385.715 282.5,382.5C 278.53,376.211 272.863,372.211 265.5,370.5C 257.184,367.073 248.517,365.906 239.5,367C 230.869,369.799 225.535,375.632 223.5,384.5C 222.345,377.679 222.179,370.679 223,363.5C 223.199,361.598 224.033,360.098 225.5,359C 233.792,357.595 242.125,357.262 250.5,358C 261.34,360.752 272.006,364.085 282.5,368C 285.482,368.498 288.482,368.665 291.5,368.5C 292.18,377.426 290.513,385.759 286.5,393.5 Z"/></g>
<g><path style="opacity:1" fill="#f5c392" d="M 53.5,368.5 C 48.5036,372.497 42.837,375.164 36.5,376.5C 31.7661,373.718 28.4328,369.718 26.5,364.5C 27.7551,360.986 29.7551,357.986 32.5,355.5C 38.7862,361.146 45.7862,365.48 53.5,368.5 Z"/></g>
<g><path style="opacity:1" fill="#f5c694" d="M 130.5,368.5 C 129.848,369.725 128.681,370.392 127,370.5C 118.87,369.337 110.704,368.67 102.5,368.5C 103.324,365.11 103.658,361.776 103.5,358.5C 106.613,356.61 109.946,355.277 113.5,354.5C 120.564,357.524 126.23,362.19 130.5,368.5 Z"/></g>
<g><path style="opacity:1" fill="#db624a" d="M 370.5,361.5 C 373.898,369.967 378.565,377.634 384.5,384.5C 379.408,404.154 377.408,424.154 378.5,444.5C 377.676,440.688 377.176,436.688 377,432.5C 370.162,433.467 363.328,434.467 356.5,435.5C 356.438,409.783 361.105,385.117 370.5,361.5 Z"/></g>
<g><path style="opacity:1" fill="#f2a09d" d="M 135.5,361.5 C 150.518,362.635 165.518,363.968 180.5,365.5C 178.046,369.789 174.712,373.289 170.5,376C 164.328,381.563 157.328,382.896 149.5,380C 146.25,375.929 142.917,372.096 139.5,368.5C 138.139,366.15 136.806,363.816 135.5,361.5 Z"/></g>
<g><path style="opacity:1" fill="#f9c290" d="M 265.5,370.5 C 255.155,383.872 244.822,397.205 234.5,410.5C 227.736,403.227 224.07,394.56 223.5,384.5C 225.535,375.632 230.869,369.799 239.5,367C 248.517,365.906 257.184,367.073 265.5,370.5 Z"/></g>
<g><path style="opacity:1" fill="#bdcaf7" d="M 408.5,355.5 C 405.914,358.006 405.914,360.506 408.5,363C 412.472,364.016 414.805,362.516 415.5,358.5C 420.32,360.074 424.653,362.407 428.5,365.5C 421.208,379.666 416.541,394.666 414.5,410.5C 405.388,405.948 397.388,399.948 390.5,392.5C 392.867,379.064 397.2,366.397 403.5,354.5C 405.437,353.294 407.104,353.627 408.5,355.5 Z"/></g>
<g><path style="opacity:1" fill="#f7b387" d="M 435.5,368.5 C 443.822,373.328 452.489,377.661 461.5,381.5C 459.956,386.919 457.622,391.919 454.5,396.5C 445.525,393.01 436.858,389.01 428.5,384.5C 430.316,378.875 432.649,373.541 435.5,368.5 Z"/></g>
<g><path style="opacity:1" fill="#f3cd98" d="M 201.5,366.5 C 205.683,368.757 210.016,370.757 214.5,372.5C 214.641,377.867 214.808,383.201 215,388.5C 209.662,384.662 203.996,381.329 198,378.5C 198.636,374.418 199.802,370.418 201.5,366.5 Z"/></g>
<g><path style="opacity:1" fill="#f7ba8c" d="M 102.5,368.5 C 110.704,368.67 118.87,369.337 127,370.5C 128.681,370.392 129.848,369.725 130.5,368.5C 134.146,372.797 136.48,377.797 137.5,383.5C 137.167,383.5 136.833,383.5 136.5,383.5C 124.827,382.566 113.16,381.566 101.5,380.5C 99.5767,380.205 97.9101,379.372 96.5,378C 99.1194,375.216 101.119,372.049 102.5,368.5 Z"/></g>
<g><path style="opacity:1" fill="#f9b689" d="M 265.5,370.5 C 272.863,372.211 278.53,376.211 282.5,382.5C 273.602,395.411 264.268,408.078 254.5,420.5C 253.311,421.429 251.978,421.762 250.5,421.5C 244.091,419.428 238.757,415.762 234.5,410.5C 244.822,397.205 255.155,383.872 265.5,370.5 Z"/></g>
<g><path style="opacity:1" fill="#de634a" d="M 136.5,383.5 C 136.833,383.5 137.167,383.5 137.5,383.5C 139.129,392.913 138.629,402.247 136,411.5C 133.54,417.592 129.373,422.092 123.5,425C 113.886,429.426 104.053,433.26 94,436.5C 93.433,433.832 92.933,431.166 92.5,428.5C 100.91,428.6 106.41,424.6 109,416.5C 109.499,410.843 109.666,405.176 109.5,399.5C 119.59,395.957 128.59,390.623 136.5,383.5 Z"/></g>
<g><path style="opacity:1" fill="#f1c1c0" d="M 74.5,385.5 C 75.6567,389.216 75.6567,392.883 74.5,396.5C 68.4908,396.334 62.4908,396.501 56.5,397C 53.3337,397.322 50.667,398.489 48.5,400.5C 43.8333,402.833 39.1667,405.167 34.5,407.5C 27.2715,395.513 30.6048,388.013 44.5,385C 54.5988,382.862 64.5988,383.029 74.5,385.5 Z"/></g>
<g><path style="opacity:1" fill="#a13750" d="M 210.5,395.5 C 197.918,414.33 185.584,433.33 173.5,452.5C 166.095,434.362 166.929,416.695 176,399.5C 180.156,393.172 185.656,388.505 192.5,385.5C 199.462,387.309 205.462,390.643 210.5,395.5 Z"/></g>
<g><path style="opacity:1" fill="#f6ac82" d="M 282.5,382.5 C 284.776,385.715 286.11,389.382 286.5,393.5C 282.236,406.596 273.903,416.096 261.5,422C 257.642,422.81 253.976,422.643 250.5,421.5C 251.978,421.762 253.311,421.429 254.5,420.5C 264.268,408.078 273.602,395.411 282.5,382.5 Z"/></g>
<g><path style="opacity:1" fill="#d57481" d="M 74.5,385.5 C 81.3099,386.643 84.3099,390.643 83.5,397.5C 80.4824,397.296 77.4824,396.963 74.5,396.5C 75.6567,392.883 75.6567,389.216 74.5,385.5 Z"/></g>
<g><path style="opacity:1" fill="#d37380" d="M 89.5,385.5 C 95.0305,385.177 98.8639,387.51 101,392.5C 101.667,400.167 101.667,407.833 101,415.5C 99.1481,420.007 95.9815,421.674 91.5,420.5C 92.8516,414.476 92.1849,408.643 89.5,403C 92.1087,397.159 92.1087,391.326 89.5,385.5 Z"/></g>
<g><path style="opacity:1" fill="#f7ab82" d="M 428.5,384.5 C 436.858,389.01 445.525,393.01 454.5,396.5C 450.956,404.36 446.622,411.693 441.5,418.5C 434.995,417.957 428.662,416.624 422.5,414.5C 422.402,403.958 424.402,393.958 428.5,384.5 Z"/></g>
<g><path style="opacity:1" fill="#f7ad83" d="M 101.5,380.5 C 113.16,381.566 124.827,382.566 136.5,383.5C 128.59,390.623 119.59,395.957 109.5,399.5C 109.904,391.963 107.237,385.63 101.5,380.5 Z"/></g>
<g><path style="opacity:1" fill="#2e2639" d="M 189.5,401.5 C 193.976,401.822 195.476,404.156 194,408.5C 190.456,411.32 187.956,410.486 186.5,406C 186.957,404.06 187.957,402.56 189.5,401.5 Z"/></g>
<g><path style="opacity:1" fill="#f8bbb7" d="M 48.5,400.5 C 48.2965,402.39 48.9632,403.89 50.5,405C 53.8004,404.954 57.1337,404.788 60.5,404.5C 64.5138,404.334 68.5138,404.501 72.5,405C 59.9445,412.395 47.2778,419.561 34.5,426.5C 32.2729,424.191 31.2729,421.358 31.5,418C 31.8079,414.241 32.8079,410.741 34.5,407.5C 39.1667,405.167 43.8333,402.833 48.5,400.5 Z"/></g>
<g><path style="opacity:1" fill="#f3b0ad" d="M 60.5,404.5 C 65.5,403.167 70.5,403.167 75.5,404.5C 76.709,409.121 76.709,413.787 75.5,418.5C 67.5845,418.153 59.9178,419.32 52.5,422C 50.3985,423.733 50.0652,425.733 51.5,428C 55.1703,428.279 58.837,428.112 62.5,427.5C 64.1992,427.34 65.8659,427.506 67.5,428C 57.1667,433.833 46.8333,439.667 36.5,445.5C 35.5713,444.311 35.238,442.978 35.5,441.5C 36.5665,438.368 37.8999,435.368 39.5,432.5C 38.5351,429.872 36.8685,427.872 34.5,426.5C 47.2778,419.561 59.9445,412.395 72.5,405C 68.5138,404.501 64.5138,404.334 60.5,404.5 Z"/></g>
<g><path style="opacity:1" fill="#d57481" d="M 75.5,404.5 C 79.9677,404.257 82.8011,406.257 84,410.5C 84.498,413.482 84.6646,416.482 84.5,419.5C 81.4824,419.296 78.4824,418.963 75.5,418.5C 76.709,413.787 76.709,409.121 75.5,404.5 Z"/></g>
<g><path style="opacity:1" fill="#832b43" d="M 314.5,410.5 C 302.202,415.136 290.869,421.47 280.5,429.5C 278.941,427.392 277.608,425.059 276.5,422.5C 286.294,411.934 298.294,406.268 312.5,405.5C 313.456,407.075 314.123,408.742 314.5,410.5 Z"/></g>
<g><path style="opacity:1" fill="#93324a" d="M 242.5,434.5 C 240.031,433.431 237.698,432.098 235.5,430.5C 228.087,423.425 221.42,415.758 215.5,407.5C 216.348,405.493 217.682,404.326 219.5,404C 226.702,413.701 235.035,422.201 244.5,429.5C 244.199,431.422 243.533,433.088 242.5,434.5 Z"/></g>
<g><path style="opacity:1" fill="#d54a7a" d="M 215.5,407.5 C 221.42,415.758 228.087,423.425 235.5,430.5C 235.389,431.117 235.056,431.617 234.5,432C 231.305,432.181 228.305,432.681 225.5,433.5C 220.852,428.939 218.185,429.939 217.5,436.5C 216.732,435.737 216.232,434.737 216,433.5C 211.895,434.347 207.728,435.013 203.5,435.5C 205.35,425.145 209.35,415.812 215.5,407.5 Z"/></g>
<g><path style="opacity:1" fill="#5f64c6" d="M 390.5,392.5 C 397.388,399.948 405.388,405.948 414.5,410.5C 414.5,412.5 414.5,414.5 414.5,416.5C 413.835,418.369 413.169,420.369 412.5,422.5C 409.553,423.423 406.553,424.089 403.5,424.5C 400.712,421.925 398.045,421.925 395.5,424.5C 392.951,426.561 389.951,427.561 386.5,427.5C 386.5,424.167 386.5,420.833 386.5,417.5C 386.854,408.879 388.188,400.546 390.5,392.5 Z"/></g>
<g><path style="opacity:1" fill="#76273b" d="M 347.5,380.5 C 350.867,381.342 353.2,383.342 354.5,386.5C 349.558,408.945 348.225,431.611 350.5,454.5C 344.767,453.978 339.6,451.978 335,448.5C 333.03,431.923 327.863,416.423 319.5,402C 319.645,401.228 319.978,400.561 320.5,400C 330.982,395.438 339.982,388.938 347.5,380.5 Z"/></g>
<g><path style="opacity:1" fill="#2a2538" d="M 337.5,403.5 C 344.004,403.138 345.671,405.638 342.5,411C 336.785,411.401 335.119,408.901 337.5,403.5 Z"/></g>
<g><path style="opacity:1" fill="#d75d49" d="M 422.5,414.5 C 428.662,416.624 434.995,417.957 441.5,418.5C 436.748,426.31 431.248,433.644 425,440.5C 422.861,431.998 422.028,423.332 422.5,414.5 Z"/></g>
<g><path style="opacity:1" fill="#99374c" d="M 210.5,395.5 C 211.473,395.987 212.473,396.487 213.5,397C 202.523,410.132 196.357,425.299 195,442.5C 188.667,447.5 182.333,452.5 176,457.5C 175.153,455.807 174.32,454.14 173.5,452.5C 185.584,433.33 197.918,414.33 210.5,395.5 Z"/></g>
<g><path style="opacity:1" fill="#d77581" d="M 74.5,426.5 C 82.7418,424.121 86.4085,427.121 85.5,435.5C 85.3912,443.272 81.3912,446.939 73.5,446.5C 75.6719,439.93 76.0052,433.264 74.5,426.5 Z"/></g>
<g><path style="opacity:1" fill="#2c263a" d="M 225.5,433.5 C 225.178,437.976 222.844,439.476 218.5,438C 217.944,437.617 217.611,437.117 217.5,436.5C 218.185,429.939 220.852,428.939 225.5,433.5 Z"/></g>
<g><path style="opacity:1" fill="#d75c43" d="M 378.5,444.5 C 379.352,455.907 380.519,467.24 382,478.5C 377.428,482.204 372.594,485.537 367.5,488.5C 360.64,471.536 356.974,453.87 356.5,435.5C 363.328,434.467 370.162,433.467 377,432.5C 377.176,436.688 377.676,440.688 378.5,444.5 Z"/></g>
<g><path style="opacity:1" fill="#eda09d" d="M 62.5,427.5 C 66.2984,426.517 70.2984,426.183 74.5,426.5C 76.0052,433.264 75.6719,439.93 73.5,446.5C 61.7127,448.645 49.7127,449.812 37.5,450C 34.5198,447.586 33.8532,444.752 35.5,441.5C 35.238,442.978 35.5713,444.311 36.5,445.5C 46.8333,439.667 57.1667,433.833 67.5,428C 65.8659,427.506 64.1992,427.34 62.5,427.5 Z"/></g>
<g><path style="opacity:1" fill="#d74677" d="M 314.5,410.5 C 322.512,422.882 326.512,436.548 326.5,451.5C 312.248,453.493 297.915,455.159 283.5,456.5C 284.097,447.285 283.097,438.285 280.5,429.5C 290.869,421.47 302.202,415.136 314.5,410.5 Z"/></g>
<g><path style="opacity:1" fill="#2e273a" d="M 300.5,429.5 C 306.02,430.044 307.354,432.544 304.5,437C 300.798,438.393 298.798,437.226 298.5,433.5C 298.803,431.886 299.47,430.552 300.5,429.5 Z"/></g>
<g><path style="opacity:1" fill="#d74473" d="M 235.5,430.5 C 237.698,432.098 240.031,433.431 242.5,434.5C 241.027,444.751 237.861,454.417 233,463.5C 227.141,470.433 219.808,475.099 211,477.5C 203.438,464.468 200.938,450.468 203.5,435.5C 207.728,435.013 211.895,434.347 216,433.5C 216.232,434.737 216.732,435.737 217.5,436.5C 217.611,437.117 217.944,437.617 218.5,438C 222.844,439.476 225.178,437.976 225.5,433.5C 228.305,432.681 231.305,432.181 234.5,432C 235.056,431.617 235.389,431.117 235.5,430.5 Z"/></g>
<g><path style="opacity:1" fill="#842c43" d="M 266.5,427.5 C 268.144,427.286 269.644,427.62 271,428.5C 272.608,431.382 273.941,434.382 275,437.5C 275.333,445.5 275.667,453.5 276,461.5C 277.015,464.558 278.181,467.558 279.5,470.5C 265.428,494.665 251.761,494.332 238.5,469.5C 240.587,466.327 242.421,462.994 244,459.5C 246.822,449.877 249.489,440.211 252,430.5C 257.036,430.008 261.869,429.008 266.5,427.5 Z"/></g>
<g><path style="opacity:1" fill="#282538" d="M 259.5,444.5 C 265.488,444.664 266.821,447.164 263.5,452C 257.403,452.147 256.07,449.647 259.5,444.5 Z"/></g>
<g><path style="opacity:1" fill="#4e58bb" d="M 414.5,416.5 C 413.808,427.106 415.141,437.439 418.5,447.5C 410.074,457.43 400.574,466.096 390,473.5C 385.673,454.878 384.506,436.211 386.5,417.5C 386.5,420.833 386.5,424.167 386.5,427.5C 389.951,427.561 392.951,426.561 395.5,424.5C 395.664,430.488 398.164,431.821 403,428.5C 403.49,427.207 403.657,425.873 403.5,424.5C 406.553,424.089 409.553,423.423 412.5,422.5C 413.169,420.369 413.835,418.369 414.5,416.5 Z"/></g>
<g><path style="opacity:1" fill="#28283e" d="M 403.5,424.5 C 403.657,425.873 403.49,427.207 403,428.5C 398.164,431.821 395.664,430.488 395.5,424.5C 398.045,421.925 400.712,421.925 403.5,424.5 Z"/></g>
<g><path style="opacity:1" fill="#d73f6f" d="M 326.5,451.5 C 324.116,464.255 317.282,473.921 306,480.5C 295.817,477.307 288.484,470.974 284,461.5C 283.506,459.866 283.34,458.199 283.5,456.5C 297.915,455.159 312.248,453.493 326.5,451.5 Z"/></g>
<g><path style="opacity:1" fill="#35304a" d="M 68.5,454.5 C 69.1174,454.611 69.6174,454.944 70,455.5C 70.6667,463.167 70.6667,470.833 70,478.5C 69.5,479 69,479.5 68.5,480C 63.5,480.667 58.5,480.667 53.5,480C 53,479.5 52.5,479 52,478.5C 51.1687,471.144 51.3354,463.811 52.5,456.5C 56.0494,456.547 59.5494,456.547 63,456.5C 65.0299,456.046 66.8632,455.38 68.5,454.5 Z"/></g>
</svg>
