<?xml version="1.0" encoding="UTF-8"?>
<!DOCTYPE svg PUBLIC "-//W3C//DTD SVG 1.1//EN" "http://www.w3.org/Graphics/SVG/1.1/DTD/svg11.dtd">
<svg xmlns="http://www.w3.org/2000/svg" version="1.1" width="512px" height="512px" style="shape-rendering:geometricPrecision; text-rendering:geometricPrecision; image-rendering:optimizeQuality; fill-rule:evenodd; clip-rule:evenodd" xmlns:xlink="http://www.w3.org/1999/xlink">
<g><path style="opacity:1" fill="#272639" d="M 193.5,501.5 C 186.14,460.701 178.14,420.034 169.5,379.5C 167.253,380.374 164.92,380.708 162.5,380.5C 169.69,421.079 176.69,461.412 183.5,501.5C 180.833,501.5 178.167,501.5 175.5,501.5C 171.11,476.827 166.61,452.16 162,427.5C 158.194,436.446 153.861,445.112 149,453.5C 139.325,469.085 125.492,474.918 107.5,471C 73.4138,461.247 50.7472,439.58 39.5,406C 40.1587,401.918 42.492,400.584 46.5,402C 59.8133,416.723 76.4799,423.556 96.5,422.5C 110.275,423.967 121.442,419.3 130,408.5C 136.025,399.282 140.859,389.449 144.5,379C 142.581,373.404 140.414,367.904 138,362.5C 137.223,359.571 137.39,356.737 138.5,354C 130.219,342.946 132.219,334.446 144.5,328.5C 141.561,313.868 138.728,299.202 136,284.5C 126.673,280.042 116.84,277.209 106.5,276C 90.1667,275.667 73.8333,275.333 57.5,275C 42.4756,273.237 29.6422,267.07 19,256.5C 8.01164,239.825 7.67831,222.825 18,205.5C 23.2408,198.202 29.0742,191.368 35.5,185C 61.1685,166.004 85.0018,144.837 107,121.5C 105.909,109.889 102.576,98.8888 97,88.5C 93.288,83.1207 88.6213,78.7873 83,75.5C 83.5127,53.7553 86.846,32.422 93,11.5C 96.1558,8.60117 98.8225,8.9345 101,12.5C 109.777,42.9411 117.61,73.6078 124.5,104.5C 132.195,104.023 136.362,107.689 137,115.5C 138.257,122.969 136.757,129.803 132.5,136C 140.127,175.138 147.627,214.304 155,253.5C 174.023,262.209 185.357,276.876 189,297.5C 189.792,306.369 189.625,315.202 188.5,324C 190.571,327.788 191.904,331.788 192.5,336C 198.859,336.831 205.193,336.664 211.5,335.5C 207.133,328.295 202.967,320.962 199,313.5C 193.584,291.081 199.751,272.581 217.5,258C 209.358,256.358 203.358,251.858 199.5,244.5C 200.903,240.746 203.57,239.579 207.5,241C 213.377,249.697 221.043,251.697 230.5,247C 238.917,240.592 242.584,232.092 241.5,221.5C 239.828,205.868 239.328,190.202 240,174.5C 242.102,165.292 245.602,156.625 250.5,148.5C 245.366,139.328 245.199,129.995 250,120.5C 250.833,119.667 251.667,118.833 252.5,118C 255.971,116.964 259.471,116.131 263,115.5C 268.112,103.164 265.279,92.9977 254.5,85C 241.679,75.8741 227.345,71.2074 211.5,71C 209.604,69.1917 209.104,67.025 210,64.5C 226.92,48.2868 246.753,37.1202 269.5,31C 307.278,25.1458 336.778,37.9791 358,69.5C 366.075,84.4654 370.075,100.465 370,117.5C 371.652,134.152 380.819,142.986 397.5,144C 399.841,148.344 398.841,152.011 394.5,155C 373.846,164.253 354.679,161.753 337,147.5C 335.256,173.874 347.089,190.374 372.5,197C 378.129,198.079 383.795,198.912 389.5,199.5C 401.511,197.829 413.511,196.162 425.5,194.5C 434.445,194.322 442.778,196.489 450.5,201C 454.595,204.592 454.428,207.758 450,210.5C 436.179,202.959 421.679,201.459 406.5,206C 430.98,212.836 450.813,226.336 466,246.5C 477.318,265.099 480.651,285.099 476,306.5C 473.546,317.531 469.713,328.031 464.5,338C 496.589,382.526 507.089,431.693 496,485.5C 494.887,489.508 493.387,493.341 491.5,497C 489.167,497.667 486.833,497.667 484.5,497C 469.187,491.017 455.52,482.517 443.5,471.5C 437.685,478.765 430.685,480.265 422.5,476C 417.484,471.264 412.651,466.43 408,461.5C 407.007,458.592 406.507,455.592 406.5,452.5C 407.518,444.979 409.018,437.646 411,430.5C 407.811,422.784 403.144,416.117 397,410.5C 387.077,418.176 380.244,428.01 376.5,440C 381.398,452.592 384.731,465.592 386.5,479C 386.695,481.352 386.028,483.352 384.5,485C 321.299,489.15 264.965,471.816 215.5,433C 206.425,425.998 199.925,417.165 196,406.5C 192.78,393.659 195.613,382.325 204.5,372.5C 196.916,370.934 189.25,370.268 181.5,370.5C 180.393,373.231 179.393,376.064 178.5,379C 186.362,419.809 194.029,460.643 201.5,501.5C 198.833,501.5 196.167,501.5 193.5,501.5 Z M 111.5,154.5 C 117.8,184.836 123.8,215.336 129.5,246C 111.439,244.988 93.4395,245.821 75.5,248.5C 67.2332,248.466 59.7332,246.132 53,241.5C 52.4197,234.482 53.753,227.815 57,221.5C 71.653,196.343 89.8197,174.01 111.5,154.5 Z"/></g>
<g><path style="opacity:1" fill="#d54f91" d="M 249.5,46.5 C 251.932,47.7502 254.266,49.2502 256.5,51C 267.722,62.0648 275.389,75.2315 279.5,90.5C 276.102,90.8204 272.768,90.487 269.5,89.5C 263.583,81.7 256.25,75.5333 247.5,71C 239.764,67.631 231.764,65.131 223.5,63.5C 231.667,56.9869 240.334,51.3202 249.5,46.5 Z"/></g>
<g><path style="opacity:1" fill="#d74b8d" d="M 321.5,96.5 C 317.832,95.4445 314.165,94.2778 310.5,93C 309.594,91.3005 309.261,89.4672 309.5,87.5C 310.526,71.3233 308.193,55.6566 302.5,40.5C 312.188,41.6559 321.188,45.1559 329.5,51C 334.394,67.3775 331.727,82.5441 321.5,96.5 Z"/></g>
<g><path style="opacity:1" fill="#d64d8f" d="M 300.5,89.5 C 296.143,89.4135 291.81,89.0802 287.5,88.5C 282.001,70.6664 272.334,55.4998 258.5,43C 269.692,37.8225 281.359,36.3225 293.5,38.5C 300.619,54.9904 302.952,71.9904 300.5,89.5 Z"/></g>
<g><path style="opacity:1" fill="#c9d9f1" d="M 113.5,92.5 C 113.539,95.089 112.539,97.089 110.5,98.5C 107.209,86.9138 100.709,77.5805 91,70.5C 91.7692,56.6849 93.7692,43.0183 97,29.5C 103.283,50.2986 108.783,71.2986 113.5,92.5 Z"/></g>
<g><path style="opacity:1" fill="#d14486" d="M 336.5,114.5 C 334.696,109.358 331.696,105.025 327.5,101.5C 336.014,89.2857 340.348,75.619 340.5,60.5C 350.059,70.1091 356.392,81.6091 359.5,95C 356.607,107.056 348.94,113.556 336.5,114.5 Z"/></g>
<g><path style="opacity:1" fill="#9f3864" d="M 287.5,88.5 C 291.81,89.0802 296.143,89.4135 300.5,89.5C 300.5,92.1667 300.5,94.8333 300.5,97.5C 296.687,96.8404 293.021,95.6738 289.5,94C 288.536,92.2745 287.869,90.4412 287.5,88.5 Z"/></g>
<g><path style="opacity:1" fill="#93345c" d="M 309.5,87.5 C 309.261,89.4672 309.594,91.3005 310.5,93C 314.165,94.2778 317.832,95.4445 321.5,96.5C 318.809,100.19 315.476,103.19 311.5,105.5C 309.354,104.444 307.688,102.944 306.5,101C 307.354,96.3361 308.354,91.8361 309.5,87.5 Z"/></g>
<g><path style="opacity:1" fill="#8a98c1" d="M 113.5,92.5 C 115.571,98.2448 116.738,104.245 117,110.5C 116.558,112.679 115.558,113.345 114,112.5C 113.108,107.731 111.941,103.065 110.5,98.5C 112.539,97.089 113.539,95.089 113.5,92.5 Z"/></g>
<g><path style="opacity:1" fill="#f3c594" d="M 290.5,102.5 C 287.795,106.526 284.795,110.192 281.5,113.5C 278.794,113.425 276.127,113.092 273.5,112.5C 273.5,107.833 273.5,103.167 273.5,98.5C 279.469,98.6019 285.136,99.9352 290.5,102.5 Z"/></g>
<g><path style="opacity:1" fill="#f6ba8c" d="M 290.5,102.5 C 293.485,103.326 296.151,104.659 298.5,106.5C 296.772,110.643 294.106,113.976 290.5,116.5C 287.254,115.946 284.254,114.946 281.5,113.5C 284.795,110.192 287.795,106.526 290.5,102.5 Z"/></g>
<g><path style="opacity:1" fill="#883156" d="M 327.5,101.5 C 331.696,105.025 334.696,109.358 336.5,114.5C 331.187,115.735 325.853,115.735 320.5,114.5C 319.687,113.186 318.687,112.019 317.5,111C 321.361,108.304 324.694,105.137 327.5,101.5 Z"/></g>
<g><path style="opacity:1" fill="#f7ab82" d="M 298.5,106.5 C 306.736,110.735 313.402,116.735 318.5,124.5C 315.15,124.665 311.817,124.498 308.5,124C 302.555,121.19 296.555,118.69 290.5,116.5C 294.106,113.976 296.772,110.643 298.5,106.5 Z"/></g>
<g><path style="opacity:1" fill="#cd3d80" d="M 346.5,134.5 C 343.341,131.002 341.008,127.002 339.5,122.5C 347.505,120.329 354.505,116.329 360.5,110.5C 361.752,117.76 363.418,124.927 365.5,132C 364.318,133.735 362.651,134.735 360.5,135C 355.78,135.717 351.114,135.55 346.5,134.5 Z"/></g>
<g><path style="opacity:1" fill="#e0694d" d="M 273.5,112.5 C 276.127,113.092 278.794,113.425 281.5,113.5C 284.254,114.946 287.254,115.946 290.5,116.5C 296.555,118.69 302.555,121.19 308.5,124C 311.817,124.498 315.15,124.665 318.5,124.5C 323.016,130.893 325.849,137.893 327,145.5C 311.623,130.306 293.123,121.306 271.5,118.5C 271.595,116.214 272.262,114.214 273.5,112.5 Z"/></g>
<g><path style="opacity:1" fill="#792a50" d="M 339.5,122.5 C 341.008,127.002 343.341,131.002 346.5,134.5C 340.325,133.911 334.658,131.911 329.5,128.5C 328.833,127.167 328.167,125.833 327.5,124.5C 331.355,122.997 335.355,122.33 339.5,122.5 Z"/></g>
<g><path style="opacity:1" fill="#f8cb97" d="M 279.5,127.5 C 279.804,128.15 280.137,128.817 280.5,129.5C 278,133.167 275.5,136.833 273,140.5C 271.644,141.38 270.144,141.714 268.5,141.5C 264.116,141.826 259.783,141.492 255.5,140.5C 254.136,135.795 254.303,131.128 256,126.5C 257.299,125.02 258.966,124.354 261,124.5C 267.22,125.269 273.386,126.269 279.5,127.5 Z"/></g>
<g><path style="opacity:1" fill="#f4ba8c" d="M 279.5,127.5 C 283.505,128.834 287.505,130.168 291.5,131.5C 289.822,136.197 287.156,140.197 283.5,143.5C 278.29,143.392 273.29,142.725 268.5,141.5C 270.144,141.714 271.644,141.38 273,140.5C 275.5,136.833 278,133.167 280.5,129.5C 280.137,128.817 279.804,128.15 279.5,127.5 Z"/></g>
<g><path style="opacity:1" fill="#d45193" d="M 93.5,159.5 C 90.0058,159.468 87.3392,158.135 85.5,155.5C 99.5378,141.464 113.204,127.13 126.5,112.5C 128.556,114.487 129.556,116.987 129.5,120C 129.135,123.763 127.968,127.263 126,130.5C 115.041,140.057 104.207,149.724 93.5,159.5 Z"/></g>
<g><path style="opacity:1" fill="#f3a680" d="M 291.5,131.5 C 299.23,133.864 306.23,137.531 312.5,142.5C 312.606,145.615 311.606,148.281 309.5,150.5C 300.939,147.394 292.272,145.061 283.5,143.5C 287.156,140.197 289.822,136.197 291.5,131.5 Z"/></g>
<g><path style="opacity:1" fill="#6c254a" d="M 366.5,140.5 C 367.873,140.343 369.207,140.51 370.5,141C 374.382,145.214 379.048,148.214 384.5,150C 376.631,152.895 368.631,153.228 360.5,151C 354.888,148.861 349.554,146.194 344.5,143C 349.797,143.438 355.13,143.438 360.5,143C 362.611,142.155 364.611,141.322 366.5,140.5 Z"/></g>
<g><path style="opacity:1" fill="#d66049" d="M 312.5,142.5 C 317.851,146.851 322.517,151.851 326.5,157.5C 326.167,157.833 325.833,158.167 325.5,158.5C 320.419,155.293 315.086,152.626 309.5,150.5C 311.606,148.281 312.606,145.615 312.5,142.5 Z"/></g>
<g><path style="opacity:1" fill="#d1737f" d="M 280.5,176.5 C 278.062,170.619 275.895,164.619 274,158.5C 271.016,155.9 267.516,154.9 263.5,155.5C 263.869,153.559 264.536,151.725 265.5,150C 269.848,149.585 274.181,149.751 278.5,150.5C 277.967,158.557 278.967,166.391 281.5,174C 281.472,175.07 281.139,175.903 280.5,176.5 Z"/></g>
<g><path style="opacity:1" fill="#552f48" d="M 316.5,162.5 C 306.629,160.059 296.629,158.392 286.5,157.5C 286.5,158.5 286.5,159.5 286.5,160.5C 285.742,158.019 285.742,155.352 286.5,152.5C 297.188,154.063 307.188,157.396 316.5,162.5 Z"/></g>
<g><path style="opacity:1" fill="#ad6887" d="M 316.5,162.5 C 326.539,166.372 333.372,173.372 337,183.5C 339.001,186.331 341.167,188.997 343.5,191.5C 331.364,192.984 319.031,193.65 306.5,193.5C 294.877,185.536 288.211,174.536 286.5,160.5C 286.5,159.5 286.5,158.5 286.5,157.5C 296.629,158.392 306.629,160.059 316.5,162.5 Z"/></g>
<g><path style="opacity:1" fill="#5b3150" d="M 253.5,160.5 C 253.443,171.295 253.609,182.295 254,193.5C 257.122,201.951 261.122,209.951 266,217.5C 268.767,224.059 269.1,230.725 267,237.5C 262.258,240.312 258.925,244.312 257,249.5C 255.848,255.77 255.182,262.103 255,268.5C 241.788,277.007 235.788,289.007 237,304.5C 240.106,312.605 245.606,318.439 253.5,322C 248.11,327.543 241.776,331.876 234.5,335C 229.924,336.476 225.257,336.81 220.5,336C 216.671,327.178 212.171,318.678 207,310.5C 203.784,302.191 203.784,293.858 207,285.5C 209.748,280.334 212.748,275.334 216,270.5C 222.04,264.791 228.374,259.457 235,254.5C 234.279,257.623 232.946,260.623 231,263.5C 214.001,280.829 211.335,300.162 223,321.5C 228.71,326.284 231.044,324.95 230,317.5C 221.377,303.806 221.377,290.139 230,276.5C 243.804,261.982 250.304,244.649 249.5,224.5C 247.878,208.205 247.378,191.872 248,175.5C 249.605,170.403 251.438,165.403 253.5,160.5 Z"/></g>
<g><path style="opacity:1" fill="#f3b3b0" d="M 263.5,155.5 C 267.516,154.9 271.016,155.9 274,158.5C 275.895,164.619 278.062,170.619 280.5,176.5C 277.703,176.967 276.369,178.633 276.5,181.5C 274.544,179.852 272.211,179.185 269.5,179.5C 269.737,180.791 269.404,181.791 268.5,182.5C 268.714,180.856 268.38,179.356 267.5,178C 265.187,177.338 262.854,176.838 260.5,176.5C 260.662,169.364 261.662,162.364 263.5,155.5 Z"/></g>
<g><path style="opacity:1" fill="#f6cbcb" d="M 276.5,181.5 C 276.414,182.496 276.748,183.329 277.5,184C 280.486,183.872 283.486,183.872 286.5,184C 290.634,190.3 295.634,195.8 301.5,200.5C 296.698,207.167 290.198,211.5 282,213.5C 268.935,208.261 261.769,198.594 260.5,184.5C 262.857,184.663 265.19,184.497 267.5,184C 268.056,183.617 268.389,183.117 268.5,182.5C 269.404,181.791 269.737,180.791 269.5,179.5C 272.211,179.185 274.544,179.852 276.5,181.5 Z"/></g>
<g><path style="opacity:1" fill="#d44689" d="M 85.5,155.5 C 87.3392,158.135 90.0058,159.468 93.5,159.5C 84.5431,170.294 75.3764,180.961 66,191.5C 59.8469,199.806 54.3469,208.472 49.5,217.5C 42.5313,213.61 35.1979,210.277 27.5,207.5C 32.1889,200.3 37.8556,193.8 44.5,188C 58.6361,177.69 72.3028,166.857 85.5,155.5 Z"/></g>
<g><path style="opacity:1" fill="#a36280" d="M 343.5,191.5 C 349.14,196.327 355.473,200.16 362.5,203C 380.369,207.241 398.036,212.241 415.5,218C 425.566,222.02 434.566,227.52 442.5,234.5C 431.839,234.981 421.172,235.314 410.5,235.5C 398.889,227.193 386.222,220.693 372.5,216C 352.807,212.995 333.807,207.661 315.5,200C 312.079,198.301 309.079,196.135 306.5,193.5C 319.031,193.65 331.364,192.984 343.5,191.5 Z"/></g>
<g><path style="opacity:1" fill="#474162" d="M 124.5,142.5 C 128.64,160.305 132.473,178.305 136,196.5C 144.344,239.744 152.178,283.078 159.5,326.5C 156.833,326.833 154.167,327.167 151.5,327.5C 141.698,267.356 131.031,207.356 119.5,147.5C 121.006,145.599 122.673,143.932 124.5,142.5 Z"/></g>
<g><path style="opacity:1" fill="#d27380" d="M 311.5,217.5 C 307.277,219.444 302.944,221.111 298.5,222.5C 298.183,219.428 298.516,216.428 299.5,213.5C 302.818,210.683 305.985,207.683 309,204.5C 309.414,204.957 309.914,205.291 310.5,205.5C 311.491,209.445 311.824,213.445 311.5,217.5 Z"/></g>
<g><path style="opacity:1" fill="#5c3150" d="M 319.5,210.5 C 338.662,216.103 357.996,221.269 377.5,226C 398.565,233.401 414.398,246.901 425,266.5C 429.238,277.464 430.572,288.797 429,300.5C 422.92,296.21 416.753,292.043 410.5,288C 407.97,286.578 405.303,286.245 402.5,287C 395.46,300.644 390.96,315.144 389,330.5C 385.387,313.116 378.887,296.95 369.5,282C 381.008,280.489 385.841,273.989 384,262.5C 378.957,244.457 367.457,232.623 349.5,227C 342.852,225.62 337.019,227.12 332,231.5C 330.441,233.217 329.608,235.217 329.5,237.5C 326.255,236.96 323.755,235.294 322,232.5C 319.972,225.314 319.139,217.98 319.5,210.5 Z"/></g>
<g><path style="opacity:1" fill="#252437" d="M 461.5,215.5 C 468.285,214.626 470.285,217.126 467.5,223C 463.301,225.401 460.634,224.234 459.5,219.5C 459.752,217.927 460.418,216.594 461.5,215.5 Z"/></g>
<g><path style="opacity:1" fill="#5b3150" d="M 274.5,218.5 C 279.641,220.792 284.975,221.125 290.5,219.5C 292.278,227.217 289.945,233.217 283.5,237.5C 281.057,235.945 278.39,235.278 275.5,235.5C 275.687,229.788 275.354,224.121 274.5,218.5 Z"/></g>
<g><path style="opacity:1" fill="#d03f81" d="M 27.5,207.5 C 35.1979,210.277 42.5313,213.61 49.5,217.5C 43.1067,230.435 42.94,243.435 49,256.5C 51.4626,259.965 54.2959,263.131 57.5,266C 40.0903,265.22 27.5903,257.053 20,241.5C 16.6442,228.765 19.1442,217.432 27.5,207.5 Z"/></g>
<g><path style="opacity:1" fill="#f1c6c3" d="M 311.5,217.5 C 311.507,220.038 311.841,222.538 312.5,225C 312.245,226.326 311.578,227.326 310.5,228C 307.167,228.667 303.833,228.667 300.5,228C 298.808,226.599 298.141,224.766 298.5,222.5C 302.944,221.111 307.277,219.444 311.5,217.5 Z"/></g>
<g><path style="opacity:1" fill="#f2c191" d="M 296.5,235.5 C 302.537,235.171 308.537,235.504 314.5,236.5C 315.779,239.112 317.445,241.445 319.5,243.5C 313.019,248.715 305.686,250.549 297.5,249C 295.024,247.691 293.024,245.858 291.5,243.5C 294.175,241.487 295.842,238.82 296.5,235.5 Z"/></g>
<g><path style="opacity:1" fill="#f7cc98" d="M 360.5,241.5 C 357.855,246.782 354.688,251.782 351,256.5C 350.184,257.823 349.017,258.489 347.5,258.5C 340.573,252.314 337.907,244.647 339.5,235.5C 347.502,233.383 354.502,235.383 360.5,241.5 Z"/></g>
<g><path style="opacity:1" fill="#f8bb8d" d="M 360.5,241.5 C 363.109,242.443 365.109,244.11 366.5,246.5C 362.5,252.167 358.5,257.833 354.5,263.5C 351.63,262.567 349.296,260.9 347.5,258.5C 349.017,258.489 350.184,257.823 351,256.5C 354.688,251.782 357.855,246.782 360.5,241.5 Z"/></g>
<g><path style="opacity:1" fill="#9c5c7c" d="M 442.5,234.5 C 455.269,243.356 463.602,255.356 467.5,270.5C 456.825,270.623 446.159,270.957 435.5,271.5C 430.161,257.513 421.828,245.513 410.5,235.5C 421.172,235.314 431.839,234.981 442.5,234.5 Z"/></g>
<g><path style="opacity:1" fill="#d0727f" d="M 311.5,266.5 C 306.187,264.51 301.52,261.51 297.5,257.5C 309.123,257.683 319.29,254.016 328,246.5C 328.667,247.5 328.667,248.5 328,249.5C 322.996,255.67 317.496,261.337 311.5,266.5 Z"/></g>
<g><path style="opacity:1" fill="#f7ad83" d="M 366.5,246.5 C 369.579,249.257 371.912,252.59 373.5,256.5C 369.115,264.168 362.782,266.502 354.5,263.5C 358.5,257.833 362.5,252.167 366.5,246.5 Z"/></g>
<g><path style="opacity:1" fill="#f7bab8" d="M 297.5,257.5 C 301.52,261.51 306.187,264.51 311.5,266.5C 311.5,267.167 311.167,267.5 310.5,267.5C 297.837,267.04 285.171,266.707 272.5,266.5C 272.197,260.425 269.53,259.091 264.5,262.5C 262.278,247.886 268.278,242.052 282.5,245C 286.343,250.584 291.343,254.75 297.5,257.5 Z"/></g>
<g><path style="opacity:1" fill="#6d254a" d="M 56.5,254.5 C 56.56,253.957 56.8933,253.624 57.5,253.5C 63.2729,255.788 69.2729,256.788 75.5,256.5C 86.7621,254.843 98.0955,253.843 109.5,253.5C 116.259,253.349 122.926,254.016 129.5,255.5C 130.647,255.818 131.481,256.484 132,257.5C 133.168,263.151 133.835,268.818 134,274.5C 126.099,271.431 117.933,269.264 109.5,268C 97.8333,267.667 86.1667,267.333 74.5,267C 67.2141,264.526 61.2141,260.359 56.5,254.5 Z"/></g>
<g><path style="opacity:1" fill="#7575a2" d="M 327.5,264.5 C 327.672,263.508 327.338,262.842 326.5,262.5C 327.793,260.704 329.293,259.037 331,257.5C 330.915,260.336 329.749,262.669 327.5,264.5 Z"/></g>
<g><path style="opacity:1" fill="#d75f47" d="M 339.5,235.5 C 337.907,244.647 340.573,252.314 347.5,258.5C 349.296,260.9 351.63,262.567 354.5,263.5C 362.782,266.502 369.115,264.168 373.5,256.5C 380.688,271.451 376.021,277.285 359.5,274C 344.109,267.615 336.276,256.115 336,239.5C 336.66,237.676 337.827,236.343 339.5,235.5 Z"/></g>
<g><path style="opacity:1" fill="#e9eaeb" d="M 326.5,262.5 C 327.338,262.842 327.672,263.508 327.5,264.5C 320.667,275.674 312.334,285.674 302.5,294.5C 299.572,294.435 296.905,293.768 294.5,292.5C 305.442,282.894 316.109,272.894 326.5,262.5 Z"/></g>
<g><path style="opacity:1" fill="#7576a4" d="M 334.5,274.5 C 333.5,274.167 332.833,273.5 332.5,272.5C 333.33,270.176 334.663,268.176 336.5,266.5C 337.067,269.398 336.401,272.065 334.5,274.5 Z"/></g>
<g><path style="opacity:1" fill="#f4b0ae" d="M 272.5,266.5 C 285.171,266.707 297.837,267.04 310.5,267.5C 302.77,275.53 294.437,282.863 285.5,289.5C 283.877,285.6 281.711,281.933 279,278.5C 277.989,277.663 276.822,277.33 275.5,277.5C 275.5,282.167 275.5,286.833 275.5,291.5C 269.455,285.808 262.455,281.641 254.5,279C 260.355,274.577 266.355,270.41 272.5,266.5 Z"/></g>
<g><path style="opacity:1" fill="#767cac" d="M 350.5,289.5 C 347.106,286.779 343.439,284.446 339.5,282.5C 341.06,280.046 342.06,277.38 342.5,274.5C 346.896,276.534 351.229,278.867 355.5,281.5C 353.808,284.231 352.142,286.898 350.5,289.5 Z"/></g>
<g><path style="opacity:1" fill="#7c2a51" d="M 156.5,263.5 C 178.565,277.574 185.898,296.908 178.5,321.5C 174.87,322.426 171.203,323.093 167.5,323.5C 164.016,303.435 160.349,283.435 156.5,263.5 Z"/></g>
<g><path style="opacity:1" fill="#935674" d="M 467.5,270.5 C 471.931,291.489 468.931,311.489 458.5,330.5C 451.883,322.381 444.717,314.715 437,307.5C 438.02,295.458 437.52,283.458 435.5,271.5C 446.159,270.957 456.825,270.623 467.5,270.5 Z"/></g>
<g><path style="opacity:1" fill="#d87682" d="M 285.5,289.5 C 283.211,291.448 280.878,293.448 278.5,295.5C 276.712,294.717 275.712,293.384 275.5,291.5C 275.5,286.833 275.5,282.167 275.5,277.5C 276.822,277.33 277.989,277.663 279,278.5C 281.711,281.933 283.877,285.6 285.5,289.5 Z"/></g>
<g><path style="opacity:1" fill="#d57481" d="M 367.5,293.5 C 363.302,299.369 359.968,305.702 357.5,312.5C 355.218,309.878 352.885,307.212 350.5,304.5C 353.75,297.66 357.75,291.327 362.5,285.5C 364.193,288.184 365.86,290.851 367.5,293.5 Z"/></g>
<g><path style="opacity:1" fill="#f7c894" d="M 270.5,298.5 C 261.552,304.136 252.885,303.803 244.5,297.5C 243.936,292.299 245.77,288.299 250,285.5C 258.562,287.25 265.395,291.583 270.5,298.5 Z"/></g>
<g><path style="opacity:1" fill="#f5d49d" d="M 410.5,340.5 C 409.837,342.042 409.17,343.709 408.5,345.5C 404.917,347.36 401.251,349.027 397.5,350.5C 396.505,344.872 396.171,339.206 396.5,333.5C 397.341,319.98 401.008,307.313 407.5,295.5C 411.597,297.44 415.263,299.94 418.5,303C 413.865,315.073 411.199,327.573 410.5,340.5 Z"/></g>
<g><path style="opacity:1" fill="#de634a" d="M 244.5,297.5 C 252.885,303.803 261.552,304.136 270.5,298.5C 271.412,299.738 271.579,301.072 271,302.5C 266.878,307.3 262.212,311.3 257,314.5C 248.8,311.8 244.633,306.133 244.5,297.5 Z"/></g>
<g><path style="opacity:1" fill="#eea09d" d="M 367.5,293.5 C 371.993,302.155 375.66,311.155 378.5,320.5C 374.905,321.697 371.239,322.697 367.5,323.5C 367.5,324.5 367.5,325.5 367.5,326.5C 364.587,321.578 361.254,316.912 357.5,312.5C 359.968,305.702 363.302,299.369 367.5,293.5 Z"/></g>
<g><path style="opacity:1" fill="#eceff4" d="M 332.5,272.5 C 332.833,273.5 333.5,274.167 334.5,274.5C 329.129,287.185 321.795,298.518 312.5,308.5C 308.989,308.101 305.656,307.434 302.5,306.5C 312.901,295.438 322.901,284.105 332.5,272.5 Z"/></g>
<g><path style="opacity:1" fill="#e6eaf6" d="M 294.5,292.5 C 296.905,293.768 299.572,294.435 302.5,294.5C 294.472,302.86 286.472,311.193 278.5,319.5C 274.511,319.884 270.845,319.217 267.5,317.5C 275.572,308.092 284.572,299.759 294.5,292.5 Z"/></g>
<g><path style="opacity:1" fill="#e9ecf6" d="M 339.5,282.5 C 343.439,284.446 347.106,286.779 350.5,289.5C 343.707,300.086 337.707,311.086 332.5,322.5C 325.938,322.663 319.605,321.996 313.5,320.5C 323.339,308.657 332.005,295.99 339.5,282.5 Z"/></g>
<g><path style="opacity:1" fill="#5c3150" d="M 345.5,312.5 C 348.394,313.882 350.894,315.882 353,318.5C 356.252,323.334 359.252,328.334 362,333.5C 364.093,342.483 366.093,351.483 368,360.5C 369.589,365.602 371.755,370.435 374.5,375C 373.7,379.08 373.2,383.247 373,387.5C 367.205,392.63 360.872,396.963 354,400.5C 347.675,392.531 341.342,384.531 335,376.5C 334.766,372.686 333.932,369.019 332.5,365.5C 334.968,362.528 336.802,359.194 338,355.5C 338.087,348.452 337.754,341.452 337,334.5C 339.569,327.034 342.402,319.701 345.5,312.5 Z"/></g>
<g><path style="opacity:1" fill="#f2b1af" d="M 378.5,320.5 C 381.089,330.603 384.089,340.603 387.5,350.5C 384.983,355.708 381.983,360.708 378.5,365.5C 374.779,357.282 372.612,348.615 372,339.5C 370.591,335.106 369.091,330.772 367.5,326.5C 367.5,325.5 367.5,324.5 367.5,323.5C 371.239,322.697 374.905,321.697 378.5,320.5 Z"/></g>
<g><path style="opacity:1" fill="#ce707d" d="M 175.5,329.5 C 178.365,329.055 180.865,329.722 183,331.5C 184.499,336.478 184.666,341.478 183.5,346.5C 182.28,347.711 181.113,347.711 180,346.5C 179.192,340.617 177.692,334.95 175.5,329.5 Z"/></g>
<g><path style="opacity:1" fill="#d4dcf5" d="M 267.5,317.5 C 270.845,319.217 274.511,319.884 278.5,319.5C 272.211,326.403 267.711,334.403 265,343.5C 263.93,349.144 264.764,354.477 267.5,359.5C 260.397,361.264 254.563,359.264 250,353.5C 248.543,350.634 248.21,347.634 249,344.5C 253.707,334.392 259.874,325.392 267.5,317.5 Z"/></g>
<g><path style="opacity:1" fill="#dae1f7" d="M 302.5,306.5 C 305.656,307.434 308.989,308.101 312.5,308.5C 303.33,319.176 297.664,331.509 295.5,345.5C 294.566,346.568 294.232,347.901 294.5,349.5C 287.535,348.659 280.535,348.326 273.5,348.5C 273.5,346.833 273.5,345.167 273.5,343.5C 274.929,337.975 277.429,332.975 281,328.5C 287.671,320.662 294.838,313.329 302.5,306.5 Z"/></g>
<g><path style="opacity:1" fill="#d9e1f8" d="M 313.5,320.5 C 319.605,321.996 325.938,322.663 332.5,322.5C 330.383,327.969 329.05,333.636 328.5,339.5C 329.173,343.507 329.839,347.507 330.5,351.5C 321.477,350.989 312.477,350.322 303.5,349.5C 303.5,347.833 303.5,346.167 303.5,344.5C 304.657,335.528 307.991,327.528 313.5,320.5 Z"/></g>
<g><path style="opacity:1" fill="#225e79" d="M 443.5,353.5 C 442.521,350.375 442.187,347.042 442.5,343.5C 434.5,344.5 426.5,345.5 418.5,346.5C 418.784,348.415 418.451,350.081 417.5,351.5C 417.716,336.432 420.216,321.765 425,307.5C 431.302,312.801 437.302,318.468 443,324.5C 443.5,334.161 443.666,343.828 443.5,353.5 Z"/></g>
<g><path style="opacity:1" fill="#25283b" d="M 429.5,331.5 C 434.708,331.369 436.375,333.702 434.5,338.5C 427.369,340.27 425.703,337.936 429.5,331.5 Z"/></g>
<g><path style="opacity:1" fill="#f2bfbd" d="M 155.5,360.5 C 152.866,362.54 152.866,364.707 155.5,367C 161.447,366.401 167.447,365.901 173.5,365.5C 173.5,366.5 173.5,367.5 173.5,368.5C 173.426,370.411 172.426,371.578 170.5,372C 164.187,373.221 157.854,373.888 151.5,374C 151.607,368.93 149.774,364.763 146,361.5C 145.253,358.147 145.753,354.98 147.5,352C 144.886,349.22 142.886,346.053 141.5,342.5C 141.876,340.617 142.876,339.117 144.5,338C 151.778,335.68 159.111,334.013 166.5,333C 169.594,334.346 170.594,336.513 169.5,339.5C 164.477,340.506 159.477,341.672 154.5,343C 150.234,346.77 150.901,349.27 156.5,350.5C 161.719,348.692 167.052,347.859 172.5,348C 173.591,350.064 173.758,352.231 173,354.5C 168.186,355.578 163.353,356.745 158.5,358C 157.058,358.377 156.058,359.21 155.5,360.5 Z"/></g>
<g><path style="opacity:1" fill="#f4c794" d="M 240.5,350.5 C 238.5,350.5 236.5,350.5 234.5,350.5C 234.682,348.409 234.348,346.409 233.5,344.5C 236.251,342.707 239.084,341.041 242,339.5C 241.084,343.015 240.584,346.682 240.5,350.5 Z"/></g>
<g><path style="opacity:1" fill="#d47380" d="M 195.5,344.5 C 195.645,347.474 196.978,349.641 199.5,351C 208.494,351.5 217.494,351.666 226.5,351.5C 226.5,350.5 226.5,349.5 226.5,348.5C 227.93,353.476 227.597,358.476 225.5,363.5C 223,363.833 220.5,364.167 218,364.5C 205.846,363.545 193.679,362.879 181.5,362.5C 181.5,359.833 181.5,357.167 181.5,354.5C 187.705,353.961 191.372,350.628 192.5,344.5C 193.5,344.5 194.5,344.5 195.5,344.5 Z"/></g>
<g><path style="opacity:1" fill="#f5b1ae" d="M 195.5,344.5 C 205.506,344.334 215.506,344.5 225.5,345C 226.337,346.011 226.67,347.178 226.5,348.5C 226.5,349.5 226.5,350.5 226.5,351.5C 217.494,351.666 208.494,351.5 199.5,351C 196.978,349.641 195.645,347.474 195.5,344.5 Z"/></g>
<g><path style="opacity:1" fill="#de6b4e" d="M 234.5,350.5 C 236.5,350.5 238.5,350.5 240.5,350.5C 242.065,356.902 245.731,361.735 251.5,365C 245.509,365.499 239.509,365.666 233.5,365.5C 234.329,360.547 234.663,355.547 234.5,350.5 Z"/></g>
<g><path style="opacity:1" fill="#cad4f3" d="M 273.5,343.5 C 273.5,345.167 273.5,346.833 273.5,348.5C 280.535,348.326 287.535,348.659 294.5,349.5C 294.232,347.901 294.566,346.568 295.5,345.5C 295.5,350.833 295.5,356.167 295.5,361.5C 289.132,361.83 282.798,361.496 276.5,360.5C 272.805,355.176 271.805,349.509 273.5,343.5 Z"/></g>
<g><path style="opacity:1" fill="#f4cb96" d="M 467.5,358.5 C 462.685,361.072 457.685,363.406 452.5,365.5C 450.366,355.28 450.033,344.947 451.5,334.5C 457.846,341.869 463.18,349.869 467.5,358.5 Z"/></g>
<g><path style="opacity:1" fill="#cbd4f3" d="M 303.5,344.5 C 303.5,346.167 303.5,347.833 303.5,349.5C 312.477,350.322 321.477,350.989 330.5,351.5C 330.747,354.505 329.747,357.005 327.5,359C 320.169,359.91 312.836,360.743 305.5,361.5C 304.353,361.182 303.519,360.516 303,359.5C 302.184,354.316 302.35,349.316 303.5,344.5 Z"/></g>
<g><path style="opacity:1" fill="#286d86" d="M 443.5,353.5 C 443.552,357.198 443.886,360.865 444.5,364.5C 437.801,365.005 431.135,365.838 424.5,367C 422.256,367.05 420.589,367.883 419.5,369.5C 418.054,363.726 417.388,357.726 417.5,351.5C 418.451,350.081 418.784,348.415 418.5,346.5C 426.5,345.5 434.5,344.5 442.5,343.5C 442.187,347.042 442.521,350.375 443.5,353.5 Z"/></g>
<g><path style="opacity:1" fill="#cd7480" d="M 155.5,360.5 C 154.755,363.93 156.089,365.597 159.5,365.5C 164.481,364.338 169.481,363.338 174.5,362.5C 174.795,364.735 174.461,366.735 173.5,368.5C 173.5,367.5 173.5,366.5 173.5,365.5C 167.447,365.901 161.447,366.401 155.5,367C 152.866,364.707 152.866,362.54 155.5,360.5 Z"/></g>
<g><path style="opacity:1" fill="#de6b4f" d="M 387.5,364.5 C 389.54,376.327 392.373,387.994 396,399.5C 391.366,395.868 387.033,391.868 383,387.5C 381.888,385.61 381.054,383.61 380.5,381.5C 382.032,375.444 384.366,369.778 387.5,364.5 Z"/></g>
<g><path style="opacity:1" fill="#f1c392" d="M 396.5,333.5 C 396.171,339.206 396.505,344.872 397.5,350.5C 401.251,349.027 404.917,347.36 408.5,345.5C 409.17,343.709 409.837,342.042 410.5,340.5C 409.885,355.3 410.885,369.966 413.5,384.5C 410.443,387.544 406.777,389.877 402.5,391.5C 396.415,372.467 394.415,353.134 396.5,333.5 Z"/></g>
<g><path style="opacity:1" fill="#ce5a44" d="M 307.5,375.5 C 309.025,373.784 310.025,371.784 310.5,369.5C 315.425,368.379 320.425,367.879 325.5,368C 326.423,370.041 326.756,372.208 326.5,374.5C 320.143,374.476 313.81,374.81 307.5,375.5 Z"/></g>
<g><path style="opacity:1" fill="#f1c794" d="M 288.5,369.5 C 287.639,371.386 286.639,373.22 285.5,375C 282.183,375.498 278.85,375.665 275.5,375.5C 270.146,375.431 264.813,375.098 259.5,374.5C 259.5,372.167 259.5,369.833 259.5,367.5C 269.155,368.309 278.821,368.975 288.5,369.5 Z"/></g>
<g><path style="opacity:1" fill="#eaaf85" d="M 288.5,369.5 C 295.833,369.5 303.167,369.5 310.5,369.5C 310.025,371.784 309.025,373.784 307.5,375.5C 296.679,376.691 286.012,376.691 275.5,375.5C 278.85,375.665 282.183,375.498 285.5,375C 286.639,373.22 287.639,371.386 288.5,369.5 Z"/></g>
<g><path style="opacity:1" fill="#f6c090" d="M 467.5,358.5 C 471.26,363.684 474.26,369.35 476.5,375.5C 476.5,376.5 476.5,377.5 476.5,378.5C 470.102,380.633 463.768,382.966 457.5,385.5C 454.919,379.176 453.252,372.509 452.5,365.5C 457.685,363.406 462.685,361.072 467.5,358.5 Z"/></g>
<g><path style="opacity:1" fill="#5c3150" d="M 213.5,372.5 C 226.192,372.348 238.859,372.848 251.5,374C 241.945,381.898 235.111,391.731 231,403.5C 228.669,411.817 226.335,420.15 224,428.5C 213.977,421.815 206.977,412.815 203,401.5C 202.133,396.303 202.8,391.303 205,386.5C 208.483,382.193 211.317,377.527 213.5,372.5 Z"/></g>
<g><path style="opacity:1" fill="#2f7a93" d="M 444.5,364.5 C 446.098,375.894 449.098,386.894 453.5,397.5C 452.092,396.939 450.592,396.605 449,396.5C 441.862,397.773 434.695,398.773 427.5,399.5C 423.035,390.086 420.369,380.086 419.5,369.5C 420.589,367.883 422.256,367.05 424.5,367C 431.135,365.838 437.801,365.005 444.5,364.5 Z"/></g>
<g><path style="opacity:1" fill="#757bac" d="M 336.5,391.5 C 332.202,392.2 327.869,392.533 323.5,392.5C 321.363,389.507 319.363,386.34 317.5,383C 321.428,381.675 325.428,381.342 329.5,382C 332.051,385.044 334.384,388.211 336.5,391.5 Z"/></g>
<g><path style="opacity:1" fill="#7e7ead" d="M 289.5,392.5 C 289.5,391.5 289.5,390.5 289.5,389.5C 284.924,388.19 280.257,387.19 275.5,386.5C 275.804,385.85 276.137,385.183 276.5,384.5C 281.456,383.506 286.456,383.173 291.5,383.5C 291.142,386.689 290.475,389.689 289.5,392.5 Z"/></g>
<g><path style="opacity:1" fill="#777cad" d="M 313.5,392.5 C 308.482,392.387 303.482,392.053 298.5,391.5C 298.337,389.143 298.503,386.81 299,384.5C 307.007,381.586 311.84,384.253 313.5,392.5 Z"/></g>
<g><path style="opacity:1" fill="#f7b589" d="M 476.5,375.5 C 479.6,381.121 481.933,387.121 483.5,393.5C 483.586,394.496 483.252,395.329 482.5,396C 477.023,398.742 471.356,400.908 465.5,402.5C 462.051,397.265 459.384,391.598 457.5,385.5C 463.768,382.966 470.102,380.633 476.5,378.5C 476.5,377.5 476.5,376.5 476.5,375.5 Z"/></g>
<g><path style="opacity:1" fill="#262a3d" d="M 435.5,388.5 C 441.704,388.314 443.037,390.814 439.5,396C 435.979,396.656 433.979,395.156 433.5,391.5C 433.942,390.261 434.609,389.261 435.5,388.5 Z"/></g>
<g><path style="opacity:1" fill="#93315c" d="M 155.5,420.5 C 132.066,430.718 109.066,441.718 86.5,453.5C 73.6645,445.498 63.3312,434.998 55.5,422C 59.8341,423.32 64.1674,424.987 68.5,427C 84.7397,431.258 101.073,431.592 117.5,428C 128.943,422.89 137.443,414.724 143,403.5C 146.243,396.014 149.743,388.681 153.5,381.5C 156.08,390.451 158.08,399.618 159.5,409C 159.056,413.167 157.722,417.001 155.5,420.5 Z"/></g>
<g><path style="opacity:1" fill="#e0e5f7" d="M 275.5,386.5 C 280.257,387.19 284.924,388.19 289.5,389.5C 289.5,390.5 289.5,391.5 289.5,392.5C 288.986,398.822 288.653,405.155 288.5,411.5C 281.282,413.055 273.948,414.055 266.5,414.5C 266.5,412.833 266.5,411.167 266.5,409.5C 267.598,400.989 270.598,393.323 275.5,386.5 Z"/></g>
<g><path style="opacity:1" fill="#7b4863" d="M 377.5,393.5 C 381.802,397.326 386.135,401.159 390.5,405C 382.159,411.677 375.659,419.844 371,429.5C 366.7,422.399 362.534,415.232 358.5,408C 365.231,403.641 371.564,398.807 377.5,393.5 Z"/></g>
<g><path style="opacity:1" fill="#f5aa81" d="M 483.5,393.5 C 486.146,398.782 487.813,404.448 488.5,410.5C 486.355,413.919 483.688,416.919 480.5,419.5C 474.471,414.801 469.471,409.134 465.5,402.5C 471.356,400.908 477.023,398.742 482.5,396C 483.252,395.329 483.586,394.496 483.5,393.5 Z"/></g>
<g><path style="opacity:1" fill="#e1e6f7" d="M 257.5,416.5 C 250.139,417.313 242.806,418.313 235.5,419.5C 235.5,418.5 235.5,417.5 235.5,416.5C 237.864,403.605 243.531,392.438 252.5,383C 257.485,381.377 262.485,381.544 267.5,383.5C 261.74,393.778 258.407,404.778 257.5,416.5 Z"/></g>
<g><path style="opacity:1" fill="#f5b78a" d="M 413.5,384.5 C 418.05,401.934 426.05,417.6 437.5,431.5C 430.966,431.059 424.632,429.726 418.5,427.5C 412.085,416.002 406.752,404.002 402.5,391.5C 406.777,389.877 410.443,387.544 413.5,384.5 Z"/></g>
<g><path style="opacity:1" fill="#d8dff7" d="M 336.5,391.5 C 344.667,401.008 351.667,411.341 357.5,422.5C 357.082,423.222 356.416,423.722 355.5,424C 349.813,424.789 344.147,425.622 338.5,426.5C 333.503,415.171 328.503,403.838 323.5,392.5C 327.869,392.533 332.202,392.2 336.5,391.5 Z"/></g>
<g><path style="opacity:1" fill="#d8dff7" d="M 298.5,391.5 C 303.482,392.053 308.482,392.387 313.5,392.5C 320.425,403.02 325.758,414.353 329.5,426.5C 329.389,427.117 329.056,427.617 328.5,428C 318.457,429.363 308.457,430.863 298.5,432.5C 295.95,418.682 295.95,405.015 298.5,391.5 Z"/></g>
<g><path style="opacity:1" fill="#378ea5" d="M 453.5,397.5 C 458.355,407.193 464.688,415.86 472.5,423.5C 465.159,427.947 457.159,430.614 448.5,431.5C 439.149,422.462 432.149,411.796 427.5,399.5C 434.695,398.773 441.862,397.773 449,396.5C 450.592,396.605 452.092,396.939 453.5,397.5 Z"/></g>
<g><path style="opacity:1" fill="#d5ddf6" d="M 266.5,409.5 C 266.5,411.167 266.5,412.833 266.5,414.5C 273.948,414.055 281.282,413.055 288.5,411.5C 288.767,417.838 289.1,424.171 289.5,430.5C 289.5,431.5 289.5,432.5 289.5,433.5C 281.552,434.873 273.552,435.873 265.5,436.5C 264.116,427.451 264.45,418.451 266.5,409.5 Z"/></g>
<g><path style="opacity:1" fill="#d7624a" d="M 488.5,410.5 C 490.045,414.916 491.045,419.583 491.5,424.5C 491.167,425.5 490.833,426.5 490.5,427.5C 486.835,425.159 483.501,422.493 480.5,419.5C 483.688,416.919 486.355,413.919 488.5,410.5 Z"/></g>
<g><path style="opacity:1" fill="#d3dbf5" d="M 235.5,416.5 C 235.5,417.5 235.5,418.5 235.5,419.5C 242.806,418.313 250.139,417.313 257.5,416.5C 256.985,427.599 257.651,438.599 259.5,449.5C 259.167,450.167 258.833,450.833 258.5,451.5C 249.073,446.706 240.239,441.04 232,434.5C 231.963,428.189 233.129,422.189 235.5,416.5 Z"/></g>
<g><path style="opacity:1" fill="#9a375c" d="M 155.5,420.5 C 153.702,425.22 151.702,429.886 149.5,434.5C 131.725,442.22 114.059,450.22 96.5,458.5C 92.8487,457.341 89.5154,455.674 86.5,453.5C 109.066,441.718 132.066,430.718 155.5,420.5 Z"/></g>
<g><path style="opacity:1" fill="#9a3763" d="M 149.5,434.5 C 145.546,443.578 140.212,451.744 133.5,459C 121.045,464.918 108.711,464.751 96.5,458.5C 114.059,450.22 131.725,442.22 149.5,434.5 Z"/></g>
<g><path style="opacity:1" fill="#023c53" d="M 472.5,423.5 C 478.284,428.565 484.617,432.898 491.5,436.5C 492.665,445.482 492.832,454.482 492,463.5C 491.586,463.957 491.086,464.291 490.5,464.5C 474.615,455.892 460.615,444.892 448.5,431.5C 457.159,430.614 465.159,427.947 472.5,423.5 Z"/></g>
<g><path style="opacity:1" fill="#ced8f8" d="M 329.5,426.5 C 332.798,432.385 335.131,438.718 336.5,445.5C 325.167,447.167 313.833,448.833 302.5,450.5C 300.852,444.575 299.519,438.575 298.5,432.5C 308.457,430.863 318.457,429.363 328.5,428C 329.056,427.617 329.389,427.117 329.5,426.5 Z"/></g>
<g><path style="opacity:1" fill="#232639" d="M 470.5,435.5 C 476.704,435.314 478.037,437.814 474.5,443C 468.403,443.147 467.07,440.647 470.5,435.5 Z"/></g>
<g><path style="opacity:1" fill="#cbd5f6" d="M 289.5,430.5 C 292.341,442.857 295.675,455.19 299.5,467.5C 288.689,465.229 278.356,461.563 268.5,456.5C 266.94,449.916 265.94,443.25 265.5,436.5C 273.552,435.873 281.552,434.873 289.5,433.5C 289.5,432.5 289.5,431.5 289.5,430.5 Z"/></g>
<g><path style="opacity:1" fill="#d47380" d="M 417.5,440.5 C 423.385,448.562 429.885,456.229 437,463.5C 436.454,466.093 434.954,468.26 432.5,470C 431.167,470.667 429.833,470.667 428.5,470C 424.238,466.283 420.072,462.45 416,458.5C 413.79,452.271 414.29,446.271 417.5,440.5 Z"/></g>
<g><path style="opacity:1" fill="#e26a4c" d="M 418.5,427.5 C 424.632,429.726 430.966,431.059 437.5,431.5C 444.527,439.194 451.86,446.527 459.5,453.5C 455.738,456.929 452.738,460.929 450.5,465.5C 443.894,460.729 438.061,455.063 433,448.5C 427.946,441.62 423.113,434.62 418.5,427.5 Z"/></g>
<g><path style="opacity:1" fill="#c8d3f7" d="M 357.5,422.5 C 368.122,439.364 374.789,457.697 377.5,477.5C 369.5,477.5 361.5,477.5 353.5,477.5C 349.915,460.079 344.915,443.079 338.5,426.5C 344.147,425.622 349.813,424.789 355.5,424C 356.416,423.722 357.082,423.222 357.5,422.5 Z"/></g>
<g><path style="opacity:1" fill="#c5d0f6" d="M 336.5,445.5 C 340.568,455.425 343.568,465.758 345.5,476.5C 333.647,475.896 321.981,474.063 310.5,471C 306.946,464.503 304.279,457.669 302.5,450.5C 313.833,448.833 325.167,447.167 336.5,445.5 Z"/></g>
<g><path style="opacity:1" fill="#3a3652" d="M 193.5,501.5 C 190.167,501.5 186.833,501.5 183.5,501.5C 176.69,461.412 169.69,421.079 162.5,380.5C 164.92,380.708 167.253,380.374 169.5,379.5C 178.14,420.034 186.14,460.701 193.5,501.5 Z"/></g>
<g><path style="opacity:1" fill="#d85e46" d="M 459.5,453.5 C 469.635,460.405 479.968,467.072 490.5,473.5C 489.359,478.696 487.693,483.696 485.5,488.5C 472.26,483.059 460.594,475.392 450.5,465.5C 452.738,460.929 455.738,456.929 459.5,453.5 Z"/></g>
</svg>
