<?xml version="1.0" encoding="UTF-8"?>
<!DOCTYPE svg PUBLIC "-//W3C//DTD SVG 1.1//EN" "http://www.w3.org/Graphics/SVG/1.1/DTD/svg11.dtd">
<svg xmlns="http://www.w3.org/2000/svg" version="1.1" width="512px" height="512px" style="shape-rendering:geometricPrecision; text-rendering:geometricPrecision; image-rendering:optimizeQuality; fill-rule:evenodd; clip-rule:evenodd" xmlns:xlink="http://www.w3.org/1999/xlink">
<g><path style="opacity:1" fill="#282639" d="M 366.5,8.5 C 371.05,7.88432 375.05,9.05098 378.5,12C 382.8,15.2981 386.8,18.9648 390.5,23C 397.5,23.6667 404.5,23.6667 411.5,23C 415.212,17.6207 419.879,13.2873 425.5,10C 427.5,9.33333 429.5,9.33333 431.5,10C 435.948,16.1712 438.948,23.0045 440.5,30.5C 449.448,34.9724 456.781,41.3057 462.5,49.5C 471.933,53.0476 480.599,57.8809 488.5,64C 490.85,66.3728 491.017,68.8728 489,71.5C 482.787,78.3807 475.454,83.714 467,87.5C 464.066,101.371 457.066,112.705 446,121.5C 446.478,129.136 446.478,136.803 446,144.5C 445.837,146.676 445.004,148.509 443.5,150C 432.233,149.411 421.899,145.911 412.5,139.5C 399.436,143.456 386.102,146.122 372.5,147.5C 369.167,154.167 364.167,159.167 357.5,162.5C 351.338,158.504 346.338,153.337 342.5,147C 325.282,147.508 308.282,149.841 291.5,154C 294.542,156.875 298.209,158.208 302.5,158C 314.5,158.333 326.5,158.667 338.5,159C 342.295,159.793 345.295,161.793 347.5,165C 366.42,165.273 384.753,168.606 402.5,175C 418.241,182.744 429.074,194.91 435,211.5C 443.765,233.131 450.099,255.465 454,278.5C 459.437,298.59 470.937,314.09 488.5,325C 506.213,338.819 510.38,355.985 501,376.5C 491.606,394.753 478.772,410.253 462.5,423C 440.553,435.942 422.053,452.775 407,473.5C 395.002,488.747 379.502,498.247 360.5,502C 285.167,502.667 209.833,502.667 134.5,502C 122.548,495.728 119.048,486.228 124,473.5C 124.667,472.833 125.333,472.167 126,471.5C 125.337,463.472 127.171,456.138 131.5,449.5C 125.603,441.474 124.937,432.974 129.5,424C 127.8,420.768 125.966,417.601 124,414.5C 119.869,419.268 116.369,424.435 113.5,430C 111.833,430.667 110.167,430.667 108.5,430C 102.391,420.811 99.5577,410.644 100,399.5C 93.1758,403.99 88.1758,409.99 85,417.5C 81.7856,422.382 77.6189,426.215 72.5,429C 51.5387,429.935 34.7054,422.102 22,405.5C 18.2829,398.299 16.2829,390.632 16,382.5C 6.64989,363.922 4.98323,344.589 11,324.5C 14.5475,311.408 19.2142,298.741 25,286.5C 32.3601,264.964 34.3601,242.964 31,220.5C 21.58,211.674 13.58,201.674 7,190.5C 3.9425,176.78 8.4425,166.28 20.5,159C 24.8333,158.667 29.1667,158.333 33.5,158C 36.5273,153.639 40.1939,149.973 44.5,147C 49.8402,145.129 55.0069,145.629 60,148.5C 63.1336,145.694 65.967,142.528 68.5,139C 78.499,134.389 86.1657,136.889 91.5,146.5C 92.723,147.614 94.0563,147.781 95.5,147C 120.243,138.197 144.91,129.197 169.5,120C 171.571,116.539 173.905,113.206 176.5,110C 179.608,108.241 182.941,107.408 186.5,107.5C 183.46,79.3849 195.46,61.5516 222.5,54C 245.854,49.778 264.687,56.9446 279,75.5C 289.46,70.9377 299.46,65.6044 309,59.5C 309.337,53.4611 310.003,47.4611 311,41.5C 311.759,39.3651 313.259,38.0318 315.5,37.5C 322.255,38.3617 328.422,40.695 334,44.5C 342.15,39.5083 350.65,35.1749 359.5,31.5C 360.827,23.5188 363.161,15.8521 366.5,8.5 Z M 355.5,306.5 C 359.637,311.469 364.304,315.969 369.5,320C 378.162,325.228 387.162,329.894 396.5,334C 402.416,337.454 407.749,341.62 412.5,346.5C 398.104,357.077 387.604,370.743 381,387.5C 378.092,394.891 375.592,402.391 373.5,410C 364.263,408.323 354.93,408.156 345.5,409.5C 341.711,395.932 339.378,382.099 338.5,368C 338.876,356.912 340.709,346.079 344,335.5C 348.4,326.037 352.234,316.37 355.5,306.5 Z"/></g>
<g><path style="opacity:1" fill="#7b80b2" d="M 371.5,17.5 C 375.254,19.7476 378.588,22.581 381.5,26C 377.154,26.6273 372.988,27.794 369,29.5C 368.683,25.2783 369.516,21.2783 371.5,17.5 Z"/></g>
<g><path style="opacity:1" fill="#f87c82" d="M 451.5,49.5 C 450.871,61.7513 446.204,72.0847 437.5,80.5C 432.357,73.7158 425.691,71.7158 417.5,74.5C 409.009,60.1886 400.009,46.1886 390.5,32.5C 396.409,31.5447 402.409,31.2114 408.5,31.5C 409.899,44.722 417.233,49.8887 430.5,47C 434.275,45.5579 437.108,43.0579 439,39.5C 444.058,41.7716 448.225,45.1049 451.5,49.5 Z"/></g>
<g><path style="opacity:1" fill="#cbd4f1" d="M 425.5,19.5 C 426.675,19.281 427.675,19.6143 428.5,20.5C 430.527,24.4393 431.86,28.6059 432.5,33C 430.614,40.1079 426.281,42.1079 419.5,39C 416.114,35.6269 415.614,31.7936 418,27.5C 420.705,24.9638 423.205,22.2971 425.5,19.5 Z"/></g>
<g><path style="opacity:1" fill="#ef7677" d="M 390.5,32.5 C 400.009,46.1886 409.009,60.1886 417.5,74.5C 407.308,80.5684 404.975,88.9017 410.5,99.5C 402.46,102.846 394.127,105.179 385.5,106.5C 384.862,99.8682 381.528,95.2016 375.5,92.5C 376.239,92.631 376.906,92.4643 377.5,92C 367.709,77.586 358.043,63.086 348.5,48.5C 347.675,47.6143 346.675,47.281 345.5,47.5C 359.425,39.5249 374.425,34.5249 390.5,32.5 Z"/></g>
<g><path style="opacity:1" fill="#2b293b" d="M 382.5,40.5 C 384.199,40.3398 385.866,40.5065 387.5,41C 393.135,45.6287 397.635,51.1287 401,57.5C 401.697,74.8042 393.863,80.6376 377.5,75C 372.865,70.4293 371.032,64.9293 372,58.5C 374.755,51.9801 378.255,45.9801 382.5,40.5 Z"/></g>
<g><path style="opacity:1" fill="#e96e6e" d="M 345.5,47.5 C 346.675,47.281 347.675,47.6143 348.5,48.5C 358.043,63.086 367.709,77.586 377.5,92C 376.906,92.4643 376.239,92.631 375.5,92.5C 368.703,90.1148 362.87,91.4482 358,96.5C 356.293,98.9088 355.46,101.575 355.5,104.5C 354.532,106.607 354.198,108.941 354.5,111.5C 352.5,111.5 350.5,111.5 348.5,111.5C 340.72,100.115 333.053,88.6146 325.5,77C 327.058,76.79 328.391,76.29 329.5,75.5C 342.786,71.1392 346.453,62.6392 340.5,50C 342.193,49.1534 343.86,48.3201 345.5,47.5 Z"/></g>
<g><path style="opacity:1" fill="#d04a50" d="M 451.5,49.5 C 456.135,53.7648 458.968,59.0981 460,65.5C 462.383,86.6916 455.216,103.858 438.5,117C 434.948,120.273 430.948,122.773 426.5,124.5C 422.356,117.706 418.689,110.706 415.5,103.5C 416.473,103.987 417.473,104.487 418.5,105C 426.167,105.667 433.833,105.667 441.5,105C 442.416,104.626 443.25,104.126 444,103.5C 444.38,95.138 442.214,87.4713 437.5,80.5C 446.204,72.0847 450.871,61.7513 451.5,49.5 Z"/></g>
<g><path style="opacity:1" fill="#d1dbf0" d="M 332.5,53.5 C 328.485,57.5126 324.152,61.1793 319.5,64.5C 318.778,64.0825 318.278,63.4158 318,62.5C 317.501,57.1771 317.334,51.8437 317.5,46.5C 323.175,47.5058 328.175,49.8391 332.5,53.5 Z"/></g>
<g><path style="opacity:1" fill="#d2dbf5" d="M 384.5,50.5 C 391.291,53.7488 394.124,59.0821 393,66.5C 390.091,69.3939 386.591,70.2272 382.5,69C 379.806,66.3466 378.973,63.1799 380,59.5C 381.513,56.4734 383.013,53.4734 384.5,50.5 Z"/></g>
<g><path style="opacity:1" fill="#c6d0f3" d="M 332.5,53.5 C 334.922,54.6923 335.922,56.6923 335.5,59.5C 334.785,65.2084 331.452,68.2084 325.5,68.5C 322.699,68.3654 320.699,67.0321 319.5,64.5C 324.152,61.1793 328.485,57.5126 332.5,53.5 Z"/></g>
<g><path style="opacity:1" fill="#7478ad" d="M 466.5,60.5 C 470.423,61.7951 474.09,63.6284 477.5,66C 478.357,66.6891 479.023,67.5224 479.5,68.5C 476.571,71.6363 473.238,74.303 469.5,76.5C 468.761,71.0963 467.761,65.763 466.5,60.5 Z"/></g>
<g><path style="opacity:1" fill="#f1a5a2" d="M 272.5,84.5 C 247.575,83.51 222.575,83.1767 197.5,83.5C 205.086,68.5249 217.419,60.8583 234.5,60.5C 248.232,61.117 259.732,66.4503 269,76.5C 270.454,79.0711 271.62,81.7378 272.5,84.5 Z"/></g>
<g><path style="opacity:1" fill="#dd6462" d="M 329.5,75.5 C 328.391,76.29 327.058,76.79 325.5,77C 333.053,88.6146 340.72,100.115 348.5,111.5C 343.065,112.123 337.732,112.79 332.5,113.5C 320.777,113.96 309.11,114.96 297.5,116.5C 295.063,112.731 291.729,110.064 287.5,108.5C 286.432,107.566 285.099,107.232 283.5,107.5C 283.819,102.637 283.486,97.97 282.5,93.5C 281.966,89.8976 281.966,86.3976 282.5,83C 292.453,78.3571 302.119,73.1904 311.5,67.5C 315.531,74.5141 321.531,77.1807 329.5,75.5 Z"/></g>
<g><path style="opacity:1" fill="#2a2739" d="M 437.5,80.5 C 442.214,87.4713 444.38,95.138 444,103.5C 443.25,104.126 442.416,104.626 441.5,105C 433.833,105.667 426.167,105.667 418.5,105C 417.473,104.487 416.473,103.987 415.5,103.5C 413.833,102.167 412.167,100.833 410.5,99.5C 404.975,88.9017 407.308,80.5684 417.5,74.5C 425.691,71.7158 432.357,73.7158 437.5,80.5 Z"/></g>
<g><path style="opacity:1" fill="#efada9" d="M 197.5,83.5 C 222.575,83.1767 247.575,83.51 272.5,84.5C 274.733,88.7816 275.733,93.4483 275.5,98.5C 275.391,103.716 274.724,108.716 273.5,113.5C 266.576,111.537 259.243,110.87 251.5,111.5C 256.152,107.771 261.486,105.271 267.5,104C 269.325,102.534 269.825,100.701 269,98.5C 261.83,95.502 254.664,92.3353 247.5,89C 239.477,87.0805 231.477,87.0805 223.5,89C 216.784,92.5648 209.951,95.7314 203,98.5C 202.175,100.701 202.675,102.534 204.5,104C 210.526,105.274 215.859,107.774 220.5,111.5C 212.167,111.5 203.833,111.5 195.5,111.5C 194.345,104.345 194.178,97.0118 195,89.5C 195.566,87.2774 196.4,85.2774 197.5,83.5 Z"/></g>
<g><path style="opacity:1" fill="#29283a" d="M 251.5,111.5 C 241.131,114.059 230.798,114.059 220.5,111.5C 215.859,107.774 210.526,105.274 204.5,104C 202.675,102.534 202.175,100.701 203,98.5C 209.951,95.7314 216.784,92.5648 223.5,89C 231.477,87.0805 239.477,87.0805 247.5,89C 254.664,92.3353 261.83,95.502 269,98.5C 269.825,100.701 269.325,102.534 267.5,104C 261.486,105.271 256.152,107.771 251.5,111.5 Z"/></g>
<g><path style="opacity:1" fill="#d1dbf6" d="M 435.5,95.5 C 431.627,97.4302 427.294,98.0969 422.5,97.5C 415.789,95.3987 413.955,91.0654 417,84.5C 421.667,79.1667 426.333,79.1667 431,84.5C 433.072,87.9712 434.572,91.6379 435.5,95.5 Z"/></g>
<g><path style="opacity:1" fill="#292739" d="M 375.5,92.5 C 381.528,95.2016 384.862,99.8682 385.5,106.5C 382.835,114.67 377.501,120.503 369.5,124C 365.907,125.942 362.241,126.442 358.5,125.5C 356.018,118.737 355.018,111.737 355.5,104.5C 355.46,101.575 356.293,98.9088 358,96.5C 362.87,91.4482 368.703,90.1148 375.5,92.5 Z"/></g>
<g><path style="opacity:1" fill="#eeeeef" d="M 230.5,94.5 C 238.894,93.8481 246.56,95.8481 253.5,100.5C 249.879,103.976 245.546,105.809 240.5,106C 232.249,107.604 224.915,105.771 218.5,100.5C 222.324,97.9214 226.324,95.9214 230.5,94.5 Z"/></g>
<g><path style="opacity:1" fill="#a0a4b8" d="M 435.5,95.5 C 436.404,96.209 436.737,97.209 436.5,98.5C 431.637,98.8195 426.97,98.4861 422.5,97.5C 427.294,98.0969 431.627,97.4302 435.5,95.5 Z"/></g>
<g><path style="opacity:1" fill="#d3dcf0" d="M 366.5,98.5 C 378.906,100.397 380.573,105.564 371.5,114C 368.89,115.481 366.223,116.648 363.5,117.5C 362.519,112.871 362.352,108.204 363,103.5C 363.997,101.677 365.164,100.01 366.5,98.5 Z"/></g>
<g><path style="opacity:1" fill="#994b4e" d="M 282.5,93.5 C 283.486,97.97 283.819,102.637 283.5,107.5C 285.099,107.232 286.432,107.566 287.5,108.5C 285.833,108.5 284.167,108.5 282.5,108.5C 282.5,103.5 282.5,98.5 282.5,93.5 Z"/></g>
<g><path style="opacity:1" fill="#c94549" d="M 410.5,99.5 C 412.167,100.833 413.833,102.167 415.5,103.5C 418.689,110.706 422.356,117.706 426.5,124.5C 422.701,127.504 418.368,129.67 413.5,131C 402.399,134.443 391.066,136.609 379.5,137.5C 374.156,137.666 368.823,137.499 363.5,137C 361.626,133.419 359.626,129.919 357.5,126.5C 357.624,125.893 357.957,125.56 358.5,125.5C 362.241,126.442 365.907,125.942 369.5,124C 377.501,120.503 382.835,114.67 385.5,106.5C 394.127,105.179 402.46,102.846 410.5,99.5 Z"/></g>
<g><path style="opacity:1" fill="#be3e44" d="M 355.5,104.5 C 355.018,111.737 356.018,118.737 358.5,125.5C 357.957,125.56 357.624,125.893 357.5,126.5C 359.626,129.919 361.626,133.419 363.5,137C 368.823,137.499 374.156,137.666 379.5,137.5C 367.011,138.495 354.344,138.829 341.5,138.5C 343.042,137.837 344.709,137.17 346.5,136.5C 342.059,128.603 337.392,120.936 332.5,113.5C 337.732,112.79 343.065,112.123 348.5,111.5C 350.5,111.5 352.5,111.5 354.5,111.5C 354.198,108.941 354.532,106.607 355.5,104.5 Z"/></g>
<g><path style="opacity:1" fill="#bb3a3d" d="M 332.5,113.5 C 337.392,120.936 342.059,128.603 346.5,136.5C 344.709,137.17 343.042,137.837 341.5,138.5C 334.803,138.548 328.136,139.048 321.5,140C 309.463,142.194 297.463,144.194 285.5,146C 294.477,142.176 298.81,135.343 298.5,125.5C 298.331,122.467 297.998,119.467 297.5,116.5C 309.11,114.96 320.777,113.96 332.5,113.5 Z"/></g>
<g><path style="opacity:1" fill="#d37380" d="M 182.5,115.5 C 186.857,115.099 189.357,117.099 190,121.5C 192.06,127.322 192.893,133.322 192.5,139.5C 181.198,138.279 176.698,131.946 179,120.5C 179.997,118.677 181.164,117.01 182.5,115.5 Z"/></g>
<g><path style="opacity:1" fill="#f7bbb9" d="M 195.5,111.5 C 203.833,111.5 212.167,111.5 220.5,111.5C 230.798,114.059 241.131,114.059 251.5,111.5C 259.243,110.87 266.576,111.537 273.5,113.5C 272.657,118.206 271.49,122.872 270,127.5C 269.502,130.482 269.335,133.482 269.5,136.5C 267.167,136.5 264.833,136.5 262.5,136.5C 260.517,131.867 258.017,127.534 255,123.5C 252.577,121.006 250.244,121.006 248,123.5C 246.824,130.346 244.658,136.846 241.5,143C 236.798,143.828 232.131,143.662 227.5,142.5C 224.955,136.366 223.122,130.033 222,123.5C 218.4,120.646 215.4,121.313 213,125.5C 210.536,129.434 208.369,133.434 206.5,137.5C 204.735,136.539 202.735,136.205 200.5,136.5C 200.664,133.813 200.497,131.146 200,128.5C 198.026,122.938 196.526,117.271 195.5,111.5 Z"/></g>
<g><path style="opacity:1" fill="#d37280" d="M 283.5,115.5 C 288.061,115.56 290.561,117.893 291,122.5C 292.582,133.079 288.082,138.745 277.5,139.5C 276.912,131.883 278.079,124.55 281,117.5C 281.995,116.934 282.828,116.267 283.5,115.5 Z"/></g>
<g><path style="opacity:1" fill="#2b2a3b" d="M 262.5,136.5 C 262.666,140.514 262.499,144.514 262,148.5C 261.626,149.416 261.126,150.25 260.5,151C 243.5,151.667 226.5,151.667 209.5,151C 208.667,150.167 207.833,149.333 207,148.5C 206.501,144.848 206.335,141.182 206.5,137.5C 208.369,133.434 210.536,129.434 213,125.5C 215.4,121.313 218.4,120.646 222,123.5C 223.122,130.033 224.955,136.366 227.5,142.5C 232.131,143.662 236.798,143.828 241.5,143C 244.658,136.846 246.824,130.346 248,123.5C 250.244,121.006 252.577,121.006 255,123.5C 258.017,127.534 260.517,131.867 262.5,136.5 Z"/></g>
<g><path style="opacity:1" fill="#a02525" d="M 156.5,167.5 C 151.932,158.699 147.099,150.033 142,141.5C 141.329,140.748 140.496,140.414 139.5,140.5C 149.577,136.136 159.91,132.136 170.5,128.5C 172.702,139.036 179.035,145.703 189.5,148.5C 186.895,154.951 183.228,160.785 178.5,166C 171.142,166.316 163.809,166.816 156.5,167.5 Z"/></g>
<g><path style="opacity:1" fill="#8389b9" d="M 436.5,127.5 C 438.436,131.715 439.103,136.381 438.5,141.5C 432.948,140.891 427.948,138.891 423.5,135.5C 428.39,133.564 432.724,130.897 436.5,127.5 Z"/></g>
<g><path style="opacity:1" fill="#e0dfe1" d="M 252.5,135.5 C 254.982,137.503 255.982,140.169 255.5,143.5C 253.833,143.5 252.167,143.5 250.5,143.5C 250.963,140.779 251.629,138.112 252.5,135.5 Z"/></g>
<g><path style="opacity:1" fill="#e1e1e3" d="M 215.5,135.5 C 217.555,137.234 218.888,139.567 219.5,142.5C 217.955,143.452 216.288,143.785 214.5,143.5C 214.401,140.763 214.735,138.096 215.5,135.5 Z"/></g>
<g><path style="opacity:1" fill="#981f1d" d="M 139.5,140.5 C 140.496,140.414 141.329,140.748 142,141.5C 147.099,150.033 151.932,158.699 156.5,167.5C 136.345,170.496 117.512,177.162 100,187.5C 98.328,177.634 96.4946,167.801 94.5,158C 94.8333,157.167 95.1667,156.333 95.5,155.5C 110.053,150.094 124.719,145.094 139.5,140.5 Z"/></g>
<g><path style="opacity:1" fill="#7a80ad" d="M 352.5,145.5 C 356.226,145.177 359.893,145.511 363.5,146.5C 361.833,148.833 359.833,150.833 357.5,152.5C 355.427,150.432 353.761,148.099 352.5,145.5 Z"/></g>
<g><path style="opacity:1" fill="#f1aeab" d="M 86.5,159.5 C 62.7862,166.293 39.1195,173.293 15.5,180.5C 14.7025,180.043 14.3691,179.376 14.5,178.5C 16.5313,174.289 19.198,170.456 22.5,167C 27.5055,166.918 32.5055,166.918 37.5,167C 40.2567,162.821 43.2567,158.821 46.5,155C 52.8652,155.457 59.1985,156.124 65.5,157C 74.8339,139.703 81.8339,140.537 86.5,159.5 Z"/></g>
<g><path style="opacity:1" fill="#f7cbca" d="M 200.5,136.5 C 202.735,136.205 204.735,136.539 206.5,137.5C 206.335,141.182 206.501,144.848 207,148.5C 207.833,149.333 208.667,150.167 209.5,151C 226.5,151.667 243.5,151.667 260.5,151C 261.126,150.25 261.626,149.416 262,148.5C 262.499,144.514 262.666,140.514 262.5,136.5C 264.833,136.5 267.167,136.5 269.5,136.5C 270.69,143.04 272.023,149.54 273.5,156C 273.643,160.219 272.476,164.052 270,167.5C 246.005,186.477 222.338,186.144 199,166.5C 197.032,163.263 195.865,159.763 195.5,156C 197.251,149.495 198.918,142.995 200.5,136.5 Z"/></g>
<g><path style="opacity:1" fill="#d77481" d="M 288.5,162.5 C 285.149,178.698 275.483,189.532 259.5,195C 258.119,197.364 257.119,199.864 256.5,202.5C 253.742,200.952 251.242,201.285 249,203.5C 246.887,208.284 245.554,213.284 245,218.5C 238.226,209.958 232.726,200.624 228.5,190.5C 242.371,189.598 255.371,185.765 267.5,179C 275.98,173.88 280.813,166.38 282,156.5C 284.063,158.734 286.229,160.734 288.5,162.5 Z"/></g>
<g><path style="opacity:1" fill="#f5bab9" d="M 86.5,159.5 C 88.7081,165.873 90.0414,172.54 90.5,179.5C 90.5557,185.342 87.5557,188.342 81.5,188.5C 79.6699,182.179 77.5032,175.846 75,169.5C 71.813,166.589 69.313,167.089 67.5,171C 70.4165,177.581 72.4165,184.414 73.5,191.5C 71.22,193.223 68.5533,193.889 65.5,193.5C 62.9414,185.891 58.9414,179.058 53.5,173C 49.0233,172.835 47.5233,175.002 49,179.5C 53.4316,184.363 56.2649,190.03 57.5,196.5C 54.5091,199.389 50.8424,200.722 46.5,200.5C 43.1653,193.679 39.1653,187.179 34.5,181C 29.8996,179.417 28.0663,180.917 29,185.5C 32.6978,190.898 35.8645,196.565 38.5,202.5C 37.3026,206.354 34.6359,208.354 30.5,208.5C 25.6869,202.235 20.8536,195.902 16,189.5C 13.56,185.932 13.06,182.265 14.5,178.5C 14.3691,179.376 14.7025,180.043 15.5,180.5C 39.1195,173.293 62.7862,166.293 86.5,159.5 Z"/></g>
<g><path style="opacity:1" fill="#f6c8c8" d="M 288.5,162.5 C 291.515,168.018 293.349,174.018 294,180.5C 294.5,187.158 294.666,193.825 294.5,200.5C 281.338,202.163 269.838,207.496 260,216.5C 259.635,219.494 260.969,221.494 264,222.5C 272.097,215.95 281.097,210.95 291,207.5C 291.5,207.833 292,208.167 292.5,208.5C 290.332,214.826 287.666,220.826 284.5,226.5C 274.144,227.28 263.811,228.28 253.5,229.5C 253.756,222.456 254.422,215.456 255.5,208.5C 256.15,206.565 256.483,204.565 256.5,202.5C 257.119,199.864 258.119,197.364 259.5,195C 275.483,189.532 285.149,178.698 288.5,162.5 Z"/></g>
<g><path style="opacity:1" fill="#d87683" d="M 222.5,196.5 C 210.167,195.251 200.001,189.917 192,180.5C 189.798,176.394 188.298,172.061 187.5,167.5C 187.783,166.711 188.283,166.044 189,165.5C 195.856,175.859 205.356,182.693 217.5,186C 219.565,189.298 221.232,192.798 222.5,196.5 Z"/></g>
<g><path style="opacity:1" fill="#cb9494" d="M 357.5,205.5 C 357.44,206.043 357.107,206.376 356.5,206.5C 338.261,197.546 319.928,188.88 301.5,180.5C 300.98,175.871 299.98,171.371 298.5,167C 311.167,166.333 323.833,166.333 336.5,167C 341.445,169.946 344.945,174.112 347,179.5C 351.39,187.843 354.89,196.509 357.5,205.5 Z"/></g>
<g><path style="opacity:1" fill="#f7cccb" d="M 187.5,167.5 C 188.298,172.061 189.798,176.394 192,180.5C 200.001,189.917 210.167,195.251 222.5,196.5C 224.9,201.632 227.566,206.632 230.5,211.5C 230.167,211.833 229.833,212.167 229.5,212.5C 212.916,205.283 195.583,202.117 177.5,203C 161.396,205.628 148.563,213.462 139,226.5C 138.51,227.793 138.343,229.127 138.5,230.5C 123.235,232.715 107.902,234.715 92.5,236.5C 92.0639,232.089 92.0639,227.756 92.5,223.5C 102.956,221.886 107.456,215.886 106,205.5C 104.932,202.129 103.765,198.796 102.5,195.5C 110.629,189.436 119.629,184.936 129.5,182C 143.42,176.958 157.753,174.624 172.5,175C 168.988,177.828 167.655,181.328 168.5,185.5C 170.074,186.631 171.741,186.798 173.5,186C 178.414,179.933 183.081,173.766 187.5,167.5 Z"/></g>
<g><path style="opacity:1" fill="#d87582" d="M 360.5,174.5 C 370.33,190.831 377.997,208.165 383.5,226.5C 385.308,230.599 387.975,234.099 391.5,237C 406.381,245.048 417.715,256.548 425.5,271.5C 433.053,285.587 435.553,300.587 433,316.5C 432.39,319.827 431.89,323.161 431.5,326.5C 430.33,328.65 429.33,330.984 428.5,333.5C 434.177,334.279 439.844,335.112 445.5,336C 448.291,338.777 447.625,340.277 443.5,340.5C 442.012,339.061 440.178,338.395 438,338.5C 432.079,340.036 426.246,341.536 420.5,343C 408.506,330.996 394.506,321.996 378.5,316C 370.285,310.786 363.785,303.952 359,295.5C 361.577,283.277 363.911,270.944 366,258.5C 367.857,240.805 367.857,223.138 366,205.5C 362.667,195.166 358.501,185.166 353.5,175.5C 355.743,174.526 358.076,174.192 360.5,174.5 Z"/></g>
<g><path style="opacity:1" fill="#f8cccb" d="M 360.5,174.5 C 380.532,174.326 398.365,180.326 414,192.5C 422.536,203.238 428.703,215.238 432.5,228.5C 432.083,229.124 431.416,229.457 430.5,229.5C 414.85,228.325 399.183,227.325 383.5,226.5C 377.997,208.165 370.33,190.831 360.5,174.5 Z"/></g>
<g><path style="opacity:1" fill="#cd8e95" d="M 301.5,180.5 C 319.928,188.88 338.261,197.546 356.5,206.5C 357.107,206.376 357.44,206.043 357.5,205.5C 359.118,208.171 359.785,211.171 359.5,214.5C 359.666,220.176 359.499,225.843 359,231.5C 340.111,222.594 321.278,213.594 302.5,204.5C 302.61,196.475 302.276,188.475 301.5,180.5 Z"/></g>
<g><path style="opacity:1" fill="#d47581" d="M 90.5,179.5 C 91.6507,184.65 91.8174,189.984 91,195.5C 88.8038,198.125 85.9705,199.125 82.5,198.5C 82.3841,195.14 82.0508,191.807 81.5,188.5C 87.5557,188.342 90.5557,185.342 90.5,179.5 Z"/></g>
<g><path style="opacity:1" fill="#d17380" d="M 73.5,191.5 C 77.7432,198.672 75.7432,202.338 67.5,202.5C 66.8333,199.5 66.1667,196.5 65.5,193.5C 68.5533,193.889 71.22,193.223 73.5,191.5 Z"/></g>
<g><path style="opacity:1" fill="#d1727f" d="M 57.5,196.5 C 61.1016,201.96 59.7683,205.794 53.5,208C 52.0563,208.781 50.723,208.614 49.5,207.5C 48.2122,205.261 47.2122,202.928 46.5,200.5C 50.8424,200.722 54.5091,199.389 57.5,196.5 Z"/></g>
<g><path style="opacity:1" fill="#d3727f" d="M 95.5,201.5 C 97.548,203.456 98.548,205.956 98.5,209C 98.6464,211.034 97.9797,212.701 96.5,214C 86.6132,215.962 77.1132,219.129 68,223.5C 65.4266,222.192 64.2599,220.026 64.5,217C 64.5651,214.474 65.2317,212.141 66.5,210C 74.2779,208.839 81.9446,207.506 89.5,206C 92.1064,205.208 94.1064,203.708 95.5,201.5 Z"/></g>
<g><path style="opacity:1" fill="#ce727f" d="M 38.5,202.5 C 39.7874,205.075 41.1207,207.741 42.5,210.5C 37.8081,214.666 33.8081,213.999 30.5,208.5C 34.6359,208.354 37.3026,206.354 38.5,202.5 Z"/></g>
<g><path style="opacity:1" fill="#c68e8e" d="M 302.5,204.5 C 321.278,213.594 340.111,222.594 359,231.5C 359.499,225.843 359.666,220.176 359.5,214.5C 362.476,234.319 359.476,253.319 350.5,271.5C 336.5,265.167 322.5,258.833 308.5,252.5C 307.972,244.303 306.972,236.303 305.5,228.5C 304.828,220.454 303.828,212.454 302.5,204.5 Z"/></g>
<g><path style="opacity:1" fill="#f4c9ca" d="M 215.5,215.5 C 194.693,218.592 173.693,221.259 152.5,223.5C 164.341,212.613 178.341,208.446 194.5,211C 201.788,211.743 208.788,213.243 215.5,215.5 Z"/></g>
<g><path style="opacity:1" fill="#f4c9c8" d="M 85.5,244.5 C 70.9215,244.824 56.4215,244.49 42,243.5C 41.7679,244.737 41.2679,245.737 40.5,246.5C 40.5,237.5 40.5,228.5 40.5,219.5C 43.3576,219.405 45.6909,218.238 47.5,216C 50.557,215.744 53.557,215.244 56.5,214.5C 56.1004,221.033 58.4337,226.2 63.5,230C 66.1667,230.667 68.8333,230.667 71.5,230C 75.6529,227.921 79.9862,226.421 84.5,225.5C 84.5572,231.851 84.8905,238.185 85.5,244.5 Z"/></g>
<g><path style="opacity:1" fill="#f8cdc7" d="M 215.5,215.5 C 219.901,216.406 223.901,218.072 227.5,220.5C 201.993,223.376 176.493,226.376 151,229.5C 149.615,229.486 148.449,229.152 147.5,228.5C 148.833,226.5 150.5,224.833 152.5,223.5C 173.693,221.259 194.693,218.592 215.5,215.5 Z"/></g>
<g><path style="opacity:1" fill="#f9c7c7" d="M 227.5,220.5 C 234.11,222.803 240.11,226.137 245.5,230.5C 194.983,236.44 144.649,242.773 94.5,249.5C 93.4371,245.361 92.7704,241.028 92.5,236.5C 107.902,234.715 123.235,232.715 138.5,230.5C 142.29,233.47 145.29,232.803 147.5,228.5C 148.449,229.152 149.615,229.486 151,229.5C 176.493,226.376 201.993,223.376 227.5,220.5 Z"/></g>
<g><path style="opacity:1" fill="#865260" d="M 255.5,208.5 C 254.422,215.456 253.756,222.456 253.5,229.5C 253.5,230.167 253.167,230.5 252.5,230.5C 252.334,225.821 252.501,221.155 253,216.5C 253.279,213.543 254.113,210.877 255.5,208.5 Z"/></g>
<g><path style="opacity:1" fill="#f9c7c0" d="M 284.5,226.5 C 284.396,228.703 283.73,230.703 282.5,232.5C 219.88,240.199 157.214,247.532 94.5,254.5C 94.5,252.833 94.5,251.167 94.5,249.5C 144.649,242.773 194.983,236.44 245.5,230.5C 247.962,233.053 250.295,233.053 252.5,230.5C 253.167,230.5 253.5,230.167 253.5,229.5C 263.811,228.28 274.144,227.28 284.5,226.5 Z"/></g>
<g><path style="opacity:1" fill="#f8c6c5" d="M 383.5,226.5 C 399.183,227.325 414.85,228.325 430.5,229.5C 431.416,229.457 432.083,229.124 432.5,228.5C 437.71,242.001 441.376,256.001 443.5,270.5C 437.69,271.49 431.69,271.823 425.5,271.5C 417.715,256.548 406.381,245.048 391.5,237C 387.975,234.099 385.308,230.599 383.5,226.5 Z"/></g>
<g><path style="opacity:1" fill="#f9bfbf" d="M 282.5,232.5 C 275.855,247.132 267.688,260.799 258,273.5C 257.948,262.406 256.948,251.406 255,240.5C 252.667,237.833 250.333,237.833 248,240.5C 247.825,243.157 247.992,245.824 248.5,248.5C 247.121,247.391 245.455,246.724 243.5,246.5C 194.504,252.37 145.504,258.203 96.5,264C 95.944,264.383 95.6107,264.883 95.5,265.5C 94.5184,262.038 94.185,258.371 94.5,254.5C 157.214,247.532 219.88,240.199 282.5,232.5 Z"/></g>
<g><path style="opacity:1" fill="#f9c7c7" d="M 85.5,244.5 C 86.254,249.463 86.5874,254.463 86.5,259.5C 86.5,260.5 86.5,261.5 86.5,262.5C 70.7835,261.881 55.1168,261.214 39.5,260.5C 40.3136,255.881 40.6469,251.214 40.5,246.5C 41.2679,245.737 41.7679,244.737 42,243.5C 56.4215,244.49 70.9215,244.824 85.5,244.5 Z"/></g>
<g><path style="opacity:1" fill="#f9beb9" d="M 248.5,248.5 C 248.5,249.167 248.5,249.833 248.5,250.5C 248.423,251.75 247.756,252.583 246.5,253C 211.501,257.25 176.501,261.417 141.5,265.5C 139.33,264.232 137.163,264.232 135,265.5C 134.523,270.262 135.023,274.929 136.5,279.5C 136.5,280.5 136.5,281.5 136.5,282.5C 123.083,283.844 109.75,285.51 96.5,287.5C 95.5084,280.352 95.175,273.019 95.5,265.5C 95.6107,264.883 95.944,264.383 96.5,264C 145.504,258.203 194.504,252.37 243.5,246.5C 245.455,246.724 247.121,247.391 248.5,248.5 Z"/></g>
<g><path style="opacity:1" fill="#f9baba" d="M 248.5,250.5 C 249.482,253.962 249.815,257.629 249.5,261.5C 214.185,265.664 178.851,269.664 143.5,273.5C 142.469,271.039 141.802,268.373 141.5,265.5C 176.501,261.417 211.501,257.25 246.5,253C 247.756,252.583 248.423,251.75 248.5,250.5 Z"/></g>
<g><path style="opacity:1" fill="#c7888d" d="M 308.5,252.5 C 322.5,258.833 336.5,265.167 350.5,271.5C 341.641,290.579 330.307,307.912 316.5,323.5C 306.907,320.704 298.241,316.37 290.5,310.5C 293.913,300.084 296.413,289.418 298,278.5C 301.505,278.085 304.172,276.419 306,273.5C 307.883,266.625 308.716,259.625 308.5,252.5 Z"/></g>
<g><path style="opacity:1" fill="#2b283a" d="M 422.5,320.5 C 419.275,296.531 407.275,277.864 386.5,264.5C 384.313,262.718 383.98,260.552 385.5,258C 387.971,257.294 390.305,257.627 392.5,259C 409.846,270.666 421.346,286.499 427,306.5C 427.667,310.167 427.667,313.833 427,317.5C 426.082,319.376 424.582,320.376 422.5,320.5 Z"/></g>
<g><path style="opacity:1" fill="#f9c7c0" d="M 39.5,260.5 C 55.1168,261.214 70.7835,261.881 86.5,262.5C 86.5,265.167 86.5,267.833 86.5,270.5C 70.4855,270.657 54.4855,270.324 38.5,269.5C 38.5079,266.455 38.8413,263.455 39.5,260.5 Z"/></g>
<g><path style="opacity:1" fill="#f9bab4" d="M 249.5,261.5 C 249.5,263.833 249.5,266.167 249.5,268.5C 214.861,272.831 180.194,277.164 145.5,281.5C 144.226,279.007 143.56,276.341 143.5,273.5C 178.851,269.664 214.185,265.664 249.5,261.5 Z"/></g>
<g><path style="opacity:1" fill="#f8b4b2" d="M 249.5,268.5 C 249.791,274.303 249.125,279.969 247.5,285.5C 230.317,287.294 213.15,289.294 196,291.5C 194.213,291.241 192.713,290.575 191.5,289.5C 188.898,287.899 186.064,286.565 183,285.5C 179.568,286.893 178.734,289.226 180.5,292.5C 173.073,294.291 165.407,295.291 157.5,295.5C 152.406,291.742 148.406,287.075 145.5,281.5C 180.194,277.164 214.861,272.831 249.5,268.5 Z"/></g>
<g><path style="opacity:1" fill="#f4dde4" d="M 245.5,318.5 C 240.777,317.63 236.444,315.964 232.5,313.5C 261.433,286.996 282.933,255.329 297,218.5C 298.527,230.123 298.861,241.79 298,253.5C 297.692,254.308 297.192,254.975 296.5,255.5C 293.96,254.598 291.46,253.598 289,252.5C 287.739,252.759 286.739,253.426 286,254.5C 285.35,269.734 283.183,284.734 279.5,299.5C 279.167,299.833 278.833,300.167 278.5,300.5C 273.906,298.287 269.406,295.953 265,293.5C 264.127,293.735 263.293,294.069 262.5,294.5C 257.553,303.097 251.886,311.097 245.5,318.5 Z"/></g>
<g><path style="opacity:1" fill="#f8bfbc" d="M 86.5,259.5 C 87.4902,265.645 87.8235,271.978 87.5,278.5C 87.5,283.167 87.5,287.833 87.5,292.5C 71.8298,292.667 56.1631,292.5 40.5,292C 37.6353,291.817 34.9686,291.317 32.5,290.5C 34.8059,283.564 36.8059,276.564 38.5,269.5C 54.4855,270.324 70.4855,270.657 86.5,270.5C 86.5,267.833 86.5,265.167 86.5,262.5C 86.5,261.5 86.5,260.5 86.5,259.5 Z"/></g>
<g><path style="opacity:1" fill="#efacaa" d="M 247.5,285.5 C 241.137,294.372 233.804,302.539 225.5,310C 205.006,313.242 185.339,310.575 166.5,302C 163.079,300.301 160.079,298.135 157.5,295.5C 165.407,295.291 173.073,294.291 180.5,292.5C 182.852,293.786 185.352,294.786 188,295.5C 190.909,294.571 192.075,292.571 191.5,289.5C 192.713,290.575 194.213,291.241 196,291.5C 213.15,289.294 230.317,287.294 247.5,285.5 Z"/></g>
<g><path style="opacity:1" fill="#2f2c3d" d="M 191.5,289.5 C 192.075,292.571 190.909,294.571 188,295.5C 185.352,294.786 182.852,293.786 180.5,292.5C 178.734,289.226 179.568,286.893 183,285.5C 186.064,286.565 188.898,287.899 191.5,289.5 Z"/></g>
<g><path style="opacity:1" fill="#f5b0ac" d="M 136.5,279.5 C 137.954,282.408 139.454,285.408 141,288.5C 141.301,291.507 141.135,294.507 140.5,297.5C 136.493,311.341 129.493,323.508 119.5,334C 114.027,336.638 109.527,335.472 106,330.5C 103.276,317.272 100.109,304.272 96.5,291.5C 96.5,290.167 96.5,288.833 96.5,287.5C 109.75,285.51 123.083,283.844 136.5,282.5C 136.5,281.5 136.5,280.5 136.5,279.5 Z"/></g>
<g><path style="opacity:1" fill="#f8bebb" d="M 386.5,264.5 C 407.275,277.864 419.275,296.531 422.5,320.5C 422.216,323.254 421.549,325.92 420.5,328.5C 420.167,328.333 419.833,328.167 419.5,328C 408.96,318.458 398.127,309.291 387,300.5C 385.227,296.848 384.06,293.015 383.5,289C 385.318,280.926 386.318,272.76 386.5,264.5 Z"/></g>
<g><path style="opacity:1" fill="#d77582" d="M 96.5,291.5 C 100.109,304.272 103.276,317.272 106,330.5C 109.527,335.472 114.027,336.638 119.5,334C 129.493,323.508 136.493,311.341 140.5,297.5C 138.128,327.464 127.628,354.131 109,377.5C 107.667,380.167 106.333,382.833 105,385.5C 96.7309,390.77 89.3976,397.104 83,404.5C 82.5006,399.177 82.334,393.844 82.5,388.5C 83.3091,390.292 83.8091,392.292 84,394.5C 87.1855,392.161 89.3522,389.161 90.5,385.5C 94.9991,378.987 96.6658,371.653 95.5,363.5C 95.5,361.167 95.5,358.833 95.5,356.5C 97.0174,356.489 98.1841,355.823 99,354.5C 99.1667,352.5 99.3333,350.5 99.5,348.5C 97.8911,329.528 96.8911,310.528 96.5,291.5 Z"/></g>
<g><path style="opacity:1" fill="#d77481" d="M 195.5,332.5 C 191.548,333.272 187.548,333.605 183.5,333.5C 185.348,331.484 187.015,329.317 188.5,327C 187.942,324.942 186.609,323.775 184.5,323.5C 182.394,324.43 180.394,325.596 178.5,327C 177.002,329.664 175.002,331.83 172.5,333.5C 168.689,332.355 164.689,332.188 160.5,333C 157.606,335.909 156.773,339.409 158,343.5C 158.685,346.579 159.519,349.579 160.5,352.5C 154.57,355.961 148.236,358.627 141.5,360.5C 140.534,351.852 140.368,343.186 141,334.5C 144.638,322.623 147.305,310.623 149,298.5C 161.542,310.017 176.375,316.517 193.5,318C 200.5,318.333 207.5,318.667 214.5,319C 208.547,324.133 202.214,328.633 195.5,332.5 Z"/></g>
<g><path style="opacity:1" fill="#f8b9b6" d="M 87.5,278.5 C 88.4446,290.664 89.1113,302.997 89.5,315.5C 67.4974,314.861 45.4974,314.194 23.5,313.5C 25.7034,305.442 28.7034,297.775 32.5,290.5C 34.9686,291.317 37.6353,291.817 40.5,292C 56.1631,292.5 71.8298,292.667 87.5,292.5C 87.5,287.833 87.5,283.167 87.5,278.5 Z"/></g>
<g><path style="opacity:1" fill="#863f4c" d="M 305.5,228.5 C 306.972,236.303 307.972,244.303 308.5,252.5C 308.716,259.625 307.883,266.625 306,273.5C 304.172,276.419 301.505,278.085 298,278.5C 296.413,289.418 293.913,300.084 290.5,310.5C 289.352,314.399 287.352,317.899 284.5,321C 279.262,320.474 274.429,318.64 270,315.5C 265.075,322.765 259.742,329.765 254,336.5C 247.304,342.366 240.804,348.366 234.5,354.5C 227.625,361.238 221.959,368.905 217.5,377.5C 216.677,380.48 215.343,383.147 213.5,385.5C 211.999,384.248 210.332,383.248 208.5,382.5C 213.859,370.115 220.026,358.115 227,346.5C 230.603,340.896 235.437,336.729 241.5,334C 251.02,325.154 259.02,315.154 265.5,304C 270.549,304.851 275.215,306.851 279.5,310C 281.259,310.798 282.926,310.631 284.5,309.5C 286.616,305.04 288.116,300.373 289,295.5C 290.415,284.518 291.581,273.518 292.5,262.5C 295.028,263.011 297.528,263.678 300,264.5C 301.711,264.561 303.044,263.894 304,262.5C 305.326,251.21 305.826,239.877 305.5,228.5 Z"/></g>
<g><path style="opacity:1" fill="#f8bbba" d="M 443.5,270.5 C 448.091,294.743 460.091,314.409 479.5,329.5C 463.49,328.57 447.49,327.57 431.5,326.5C 431.89,323.161 432.39,319.827 433,316.5C 435.553,300.587 433.053,285.587 425.5,271.5C 431.69,271.823 437.69,271.49 443.5,270.5 Z"/></g>
<g><path style="opacity:1" fill="#c08288" d="M 290.5,310.5 C 298.241,316.37 306.907,320.704 316.5,323.5C 307.473,334.181 297.973,344.514 288,354.5C 287.51,355.793 287.343,357.127 287.5,358.5C 284.126,362.876 280.126,366.542 275.5,369.5C 275.389,368.883 275.056,368.383 274.5,368C 269.801,366.287 267.468,367.787 267.5,372.5C 266.751,371.469 266.085,370.302 265.5,369C 255.145,364.155 244.812,359.322 234.5,354.5C 240.804,348.366 247.304,342.366 254,336.5C 259.742,329.765 265.075,322.765 270,315.5C 274.429,318.64 279.262,320.474 284.5,321C 287.352,317.899 289.352,314.399 290.5,310.5 Z"/></g>
<g><path style="opacity:1" fill="#f7b3b3" d="M 23.5,313.5 C 45.4974,314.194 67.4974,314.861 89.5,315.5C 90.4299,319.4 90.7633,323.4 90.5,327.5C 66.9237,325.848 43.257,324.848 19.5,324.5C 20.3891,320.569 21.7225,316.902 23.5,313.5 Z"/></g>
<g><path style="opacity:1" fill="#f4b1ad" d="M 19.5,324.5 C 43.257,324.848 66.9237,325.848 90.5,327.5C 90.7151,336.513 91.2151,345.513 92,354.5C 92.8159,355.823 93.9826,356.489 95.5,356.5C 95.5,358.833 95.5,361.167 95.5,363.5C 79.5068,362.9 63.5068,362.567 47.5,362.5C 47.5,359.167 47.5,355.833 47.5,352.5C 47.2964,346.24 47.9631,340.073 49.5,334C 49.0305,330.178 47.5305,329.678 45,332.5C 42.9429,338.281 40.6096,343.947 38,349.5C 32.9421,354.383 27.6087,354.716 22,350.5C 18.9421,345.601 17.4421,340.268 17.5,334.5C 17.5399,331.012 18.2066,327.679 19.5,324.5 Z"/></g>
<g><path style="opacity:1" fill="#f9bab4" d="M 431.5,326.5 C 447.49,327.57 463.49,328.57 479.5,329.5C 486.07,332.947 491.07,337.947 494.5,344.5C 491.742,345.818 488.576,346.485 485,346.5C 470.838,345.676 456.671,345.009 442.5,344.5C 443.234,343.292 443.567,341.959 443.5,340.5C 447.625,340.277 448.291,338.777 445.5,336C 439.844,335.112 434.177,334.279 428.5,333.5C 429.33,330.984 430.33,328.65 431.5,326.5 Z"/></g>
<g><path style="opacity:1" fill="#f6d6df" d="M 232.5,313.5 C 236.444,315.964 240.777,317.63 245.5,318.5C 240.462,325.031 234.296,330.364 227,334.5C 221.411,341.348 216.577,348.681 212.5,356.5C 205.345,354.504 198.345,352.004 191.5,349C 190.244,348.583 189.577,347.75 189.5,346.5C 204.664,336.68 218.997,325.68 232.5,313.5 Z"/></g>
<g><path style="opacity:1" fill="#bf8288" d="M 301.5,386.5 C 298.507,384.337 295.173,382.67 291.5,381.5C 290.702,381.043 290.369,380.376 290.5,379.5C 300.968,366.226 309.635,351.892 316.5,336.5C 330.128,319.935 342.295,302.268 353,283.5C 351.616,291.691 349.282,299.691 346,307.5C 334.727,336.068 319.894,362.402 301.5,386.5 Z"/></g>
<g><path style="opacity:1" fill="#d87582" d="M 47.5,352.5 C 46.5058,362.653 46.1724,372.986 46.5,383.5C 50.6432,397.253 59.9765,402.919 74.5,400.5C 74.4632,406.535 73.9632,412.535 73,418.5C 69.6621,421.318 65.8288,422.151 61.5,421C 50.5382,418.936 41.0382,414.103 33,406.5C 26.8103,398.598 23.8103,389.598 24,379.5C 15.7277,365.22 13.561,350.22 17.5,334.5C 17.4421,340.268 18.9421,345.601 22,350.5C 27.6087,354.716 32.9421,354.383 38,349.5C 40.6096,343.947 42.9429,338.281 45,332.5C 47.5305,329.678 49.0305,330.178 49.5,334C 47.9631,340.073 47.2964,346.24 47.5,352.5 Z"/></g>
<g><path style="opacity:1" fill="#e59895" d="M 195.5,332.5 C 189.239,337.307 182.573,341.641 175.5,345.5C 175.167,345.333 174.833,345.167 174.5,345C 176.982,340.693 179.982,336.86 183.5,333.5C 187.548,333.605 191.548,333.272 195.5,332.5 Z"/></g>
<g><path style="opacity:1" fill="#ef9e9a" d="M 172.5,333.5 C 169.166,338.835 166.333,344.501 164,350.5C 163.184,351.823 162.017,352.489 160.5,352.5C 159.519,349.579 158.685,346.579 158,343.5C 156.773,339.409 157.606,335.909 160.5,333C 164.689,332.188 168.689,332.355 172.5,333.5 Z"/></g>
<g><path style="opacity:1" fill="#f8b4b4" d="M 442.5,344.5 C 456.671,345.009 470.838,345.676 485,346.5C 488.576,346.485 491.742,345.818 494.5,344.5C 496.914,348.021 497.914,352.021 497.5,356.5C 497.685,360.141 497.019,363.474 495.5,366.5C 492.742,365.182 489.576,364.515 486,364.5C 460.497,363.149 434.997,361.816 409.5,360.5C 413.912,355.781 419.245,352.281 425.5,350C 431.185,348.049 436.852,346.216 442.5,344.5 Z"/></g>
<g><path style="opacity:1" fill="#f6d0dd" d="M 189.5,346.5 C 189.577,347.75 190.244,348.583 191.5,349C 198.345,352.004 205.345,354.504 212.5,356.5C 207.446,366.11 202.779,375.943 198.5,386C 195.431,384.861 192.598,383.028 190,380.5C 187.797,377.142 185.963,373.642 184.5,370C 183.167,369.333 181.833,369.333 180.5,370C 169.191,380.975 160.691,393.809 155,408.5C 150.149,400.933 148.149,392.6 149,383.5C 147.89,381.963 146.39,381.297 144.5,381.5C 140.016,379.33 135.35,377.33 130.5,375.5C 129.702,375.043 129.369,374.376 129.5,373.5C 150.505,366.663 170.505,357.663 189.5,346.5 Z"/></g>
<g><path style="opacity:1" fill="#cf717e" d="M 132.5,355.5 C 133.693,357.97 134.193,360.636 134,363.5C 131.985,364.842 129.818,365.342 127.5,365C 129.307,361.885 130.973,358.719 132.5,355.5 Z"/></g>
<g><path style="opacity:1" fill="#be8187" d="M 334.5,399.5 C 334.631,400.239 334.464,400.906 334,401.5C 326.242,397.705 318.409,394.038 310.5,390.5C 309.817,390.863 309.15,391.196 308.5,391.5C 315.895,380.392 323.062,369.059 330,357.5C 330.133,371.658 331.633,385.658 334.5,399.5 Z"/></g>
<g><path style="opacity:1" fill="#f8b4ae" d="M 409.5,360.5 C 434.997,361.816 460.497,363.149 486,364.5C 489.576,364.515 492.742,365.182 495.5,366.5C 494.833,368.5 494.167,370.5 493.5,372.5C 489.854,375.479 486.521,378.812 483.5,382.5C 454.836,381.018 426.17,379.518 397.5,378C 396.944,377.617 396.611,377.117 396.5,376.5C 399.398,370.058 403.731,364.725 409.5,360.5 Z"/></g>
<g><path style="opacity:1" fill="#c07c84" d="M 234.5,354.5 C 244.812,359.322 255.145,364.155 265.5,369C 266.085,370.302 266.751,371.469 267.5,372.5C 268.167,373.5 268.833,374.5 269.5,375.5C 265.518,378.152 261.851,381.152 258.5,384.5C 256.473,384.338 254.473,384.505 252.5,385C 250.266,386.75 247.932,388.25 245.5,389.5C 236.392,384.946 227.059,380.946 217.5,377.5C 221.959,368.905 227.625,361.238 234.5,354.5 Z"/></g>
<g><path style="opacity:1" fill="#2d283a" d="M 275.5,369.5 C 275.833,373.833 273.833,375.833 269.5,375.5C 268.833,374.5 268.167,373.5 267.5,372.5C 267.468,367.787 269.801,366.287 274.5,368C 275.056,368.383 275.389,368.883 275.5,369.5 Z"/></g>
<g><path style="opacity:1" fill="#f2a7a3" d="M 47.5,352.5 C 47.5,355.833 47.5,359.167 47.5,362.5C 63.5068,362.567 79.5068,362.9 95.5,363.5C 96.6658,371.653 94.9991,378.987 90.5,385.5C 75.7451,385.496 61.0784,384.829 46.5,383.5C 46.1724,372.986 46.5058,362.653 47.5,352.5 Z"/></g>
<g><path style="opacity:1" fill="#f6cad7" d="M 129.5,373.5 C 129.369,374.376 129.702,375.043 130.5,375.5C 135.35,377.33 140.016,379.33 144.5,381.5C 138.407,392.094 130.074,400.594 119.5,407C 115.908,409.921 113.075,413.421 111,417.5C 105.31,401.583 108.477,387.75 120.5,376C 123.474,375.007 126.474,374.174 129.5,373.5 Z"/></g>
<g><path style="opacity:1" fill="#b97b81" d="M 217.5,377.5 C 227.059,380.946 236.392,384.946 245.5,389.5C 232.039,400.402 217.705,410.069 202.5,418.5C 192.711,414.439 183.044,410.105 173.5,405.5C 175.271,400.052 177.937,395.052 181.5,390.5C 185.934,397.769 191.601,403.935 198.5,409C 202.062,409.637 204.895,408.47 207,405.5C 209.278,398.835 211.444,392.168 213.5,385.5C 215.343,383.147 216.677,380.48 217.5,377.5 Z"/></g>
<g><path style="opacity:1" fill="#f2aeae" d="M 396.5,376.5 C 396.611,377.117 396.944,377.617 397.5,378C 426.17,379.518 454.836,381.018 483.5,382.5C 475.869,391.801 466.536,398.801 455.5,403.5C 432.139,402.387 408.806,401.054 385.5,399.5C 387.856,391.125 391.522,383.458 396.5,376.5 Z"/></g>
<g><path style="opacity:1" fill="#d87582" d="M 493.5,372.5 C 484.939,388.734 473.606,402.901 459.5,415C 442.598,424.885 427.432,437.052 414,451.5C 405.886,462.614 396.72,472.78 386.5,482C 373.094,492.08 358.094,495.913 341.5,493.5C 344.257,489.191 345.091,484.525 344,479.5C 342.676,475.518 340.842,471.851 338.5,468.5C 340.61,458.922 339.61,449.755 335.5,441C 339.309,434.216 342.142,427.049 344,419.5C 347.801,417.074 351.968,416.074 356.5,416.5C 352.92,421.572 350.92,427.239 350.5,433.5C 350.511,440.251 351.178,446.918 352.5,453.5C 353.403,459.619 355.736,465.119 359.5,470C 372.224,470.971 382.557,466.471 390.5,456.5C 397.427,450.629 403.427,443.963 408.5,436.5C 413.86,431.472 419.193,426.472 424.5,421.5C 434.382,414.726 444.715,408.726 455.5,403.5C 466.536,398.801 475.869,391.801 483.5,382.5C 486.521,378.812 489.854,375.479 493.5,372.5 Z"/></g>
<g><path style="opacity:1" fill="#f1a09f" d="M 46.5,383.5 C 61.0784,384.829 75.7451,385.496 90.5,385.5C 89.3522,389.161 87.1855,392.161 84,394.5C 83.8091,392.292 83.3091,390.292 82.5,388.5C 80.46,385.866 78.2933,385.866 76,388.5C 75.3583,392.491 74.8583,396.491 74.5,400.5C 59.9765,402.919 50.6432,397.253 46.5,383.5 Z"/></g>
<g><path style="opacity:1" fill="#7f3746" d="M 316.5,336.5 C 309.635,351.892 300.968,366.226 290.5,379.5C 277.531,394.635 263.364,408.635 248,421.5C 246.176,425.426 246.01,429.426 247.5,433.5C 238.316,428.654 229.649,422.987 221.5,416.5C 233.597,408.252 245.597,399.752 257.5,391C 259.684,389.102 260.017,386.936 258.5,384.5C 261.851,381.152 265.518,378.152 269.5,375.5C 273.833,375.833 275.833,373.833 275.5,369.5C 280.126,366.542 284.126,362.876 287.5,358.5C 289.16,360.248 291.16,360.748 293.5,360C 301.396,352.272 309.063,344.438 316.5,336.5 Z"/></g>
<g><path style="opacity:1" fill="#bf7c87" d="M 334.5,399.5 C 337.388,405.276 338.055,411.276 336.5,417.5C 325.301,411.068 313.634,405.402 301.5,400.5C 303.482,397.19 305.815,394.19 308.5,391.5C 309.15,391.196 309.817,390.863 310.5,390.5C 318.409,394.038 326.242,397.705 334,401.5C 334.464,400.906 334.631,400.239 334.5,399.5 Z"/></g>
<g><path style="opacity:1" fill="#77323f" d="M 208.5,382.5 C 210.332,383.248 211.999,384.248 213.5,385.5C 211.444,392.168 209.278,398.835 207,405.5C 204.895,408.47 202.062,409.637 198.5,409C 191.601,403.935 185.934,397.769 181.5,390.5C 177.937,395.052 175.271,400.052 173.5,405.5C 168.32,414.189 169.987,421.356 178.5,427C 180.74,427.977 183.073,428.477 185.5,428.5C 181.818,431.008 177.818,433.008 173.5,434.5C 160.086,425.081 146.42,416.081 132.5,407.5C 135.785,404.882 138.785,401.882 141.5,398.5C 144.022,407.039 148.689,414.206 155.5,420C 156.833,420.667 158.167,420.667 159.5,420C 163.154,404.989 170.321,391.823 181,380.5C 185.639,387.823 191.973,392.823 200,395.5C 201.167,395.167 202.333,394.833 203.5,394.5C 205.174,390.471 206.841,386.471 208.5,382.5 Z"/></g>
<g><path style="opacity:1" fill="#f1aea7" d="M 385.5,399.5 C 408.806,401.054 432.139,402.387 455.5,403.5C 444.715,408.726 434.382,414.726 424.5,421.5C 414.166,421.088 403.833,420.588 393.5,420C 392.473,419.487 391.473,418.987 390.5,418.5C 388.522,415.988 385.855,414.488 382.5,414C 382.117,409.011 383.117,404.178 385.5,399.5 Z"/></g>
<g><path style="opacity:1" fill="#bb7b82" d="M 290.5,379.5 C 290.369,380.376 290.702,381.043 291.5,381.5C 295.173,382.67 298.507,384.337 301.5,386.5C 288.358,406.981 272.025,424.647 252.5,439.5C 250.833,437.5 249.167,435.5 247.5,433.5C 246.01,429.426 246.176,425.426 248,421.5C 263.364,408.635 277.531,394.635 290.5,379.5 Z"/></g>
<g><path style="opacity:1" fill="#b97481" d="M 173.5,405.5 C 183.044,410.105 192.711,414.439 202.5,418.5C 197.033,422.071 191.367,425.404 185.5,428.5C 183.073,428.477 180.74,427.977 178.5,427C 169.987,421.356 168.32,414.189 173.5,405.5 Z"/></g>
<g><path style="opacity:1" fill="#752b3c" d="M 132.5,407.5 C 146.42,416.081 160.086,425.081 173.5,434.5C 166.386,438.559 159.052,442.392 151.5,446C 148.649,447.608 145.649,448.274 142.5,448C 136.891,444.283 134.391,439.117 135,432.5C 136.658,429.691 137.825,426.691 138.5,423.5C 136.605,419.377 134.438,415.377 132,411.5C 131.235,409.934 131.402,408.601 132.5,407.5 Z"/></g>
<g><path style="opacity:1" fill="#bb7c82" d="M 301.5,400.5 C 313.634,405.402 325.301,411.068 336.5,417.5C 334.661,427.013 330.328,435.179 323.5,442C 311.437,445.713 299.103,448.213 286.5,449.5C 279.803,448.327 273.136,446.827 266.5,445C 264.68,444.8 263.347,443.966 262.5,442.5C 276.97,429.703 289.97,415.703 301.5,400.5 Z"/></g>
<g><path style="opacity:1" fill="#7c323e" d="M 221.5,416.5 C 229.649,422.987 238.316,428.654 247.5,433.5C 249.167,435.5 250.833,437.5 252.5,439.5C 247.082,444.576 241.082,448.909 234.5,452.5C 224.067,445.915 213.733,439.082 203.5,432C 202.177,431.184 201.511,430.017 201.5,428.5C 208.167,424.5 214.833,420.5 221.5,416.5 Z"/></g>
<g><path style="opacity:1" fill="#f2a7a7" d="M 356.5,416.5 C 366.539,417.468 376.373,419.468 386,422.5C 388.873,422.605 390.373,421.272 390.5,418.5C 391.473,418.987 392.473,419.487 393.5,420C 403.833,420.588 414.166,421.088 424.5,421.5C 419.193,426.472 413.86,431.472 408.5,436.5C 390.149,435.014 371.649,433.681 353,432.5C 352.098,432.743 351.265,433.077 350.5,433.5C 350.92,427.239 352.92,421.572 356.5,416.5 Z"/></g>
<g><path style="opacity:1" fill="#75313d" d="M 201.5,428.5 C 201.511,430.017 202.177,431.184 203.5,432C 213.733,439.082 224.067,445.915 234.5,452.5C 232.9,453.644 231.233,454.811 229.5,456C 221.173,456.5 212.84,456.666 204.5,456.5C 196.852,450.673 188.852,445.34 180.5,440.5C 187.302,436.262 194.302,432.262 201.5,428.5 Z"/></g>
<g><path style="opacity:1" fill="#f2a7a1" d="M 408.5,436.5 C 403.427,443.963 397.427,450.629 390.5,456.5C 377.931,455.503 365.264,454.503 352.5,453.5C 351.178,446.918 350.511,440.251 350.5,433.5C 351.265,433.077 352.098,432.743 353,432.5C 371.649,433.681 390.149,435.014 408.5,436.5 Z"/></g>
<g><path style="opacity:1" fill="#732b3d" d="M 180.5,440.5 C 188.852,445.34 196.852,450.673 204.5,456.5C 188.288,456.983 172.288,455.483 156.5,452C 164.674,448.412 172.674,444.579 180.5,440.5 Z"/></g>
<g><path style="opacity:1" fill="#7a323f" d="M 262.5,442.5 C 263.347,443.966 264.68,444.8 266.5,445C 273.136,446.827 279.803,448.327 286.5,449.5C 273.829,452.8 260.829,454.3 247.5,454C 252.661,450.334 257.661,446.501 262.5,442.5 Z"/></g>
<g><path style="opacity:1" fill="#7f3847" d="M 276.5,476.5 C 270.233,472.022 263.9,467.522 257.5,463C 256.207,462.51 254.873,462.343 253.5,462.5C 274.109,459.864 294.776,456.697 315.5,453C 320.275,451.744 324.775,449.911 329,447.5C 331.53,450.082 332.697,453.249 332.5,457C 332.339,460.469 331.673,463.803 330.5,467C 312.811,471.961 294.811,475.128 276.5,476.5 Z"/></g>
<g><path style="opacity:1" fill="#f2a1a1" d="M 352.5,453.5 C 365.264,454.503 377.931,455.503 390.5,456.5C 382.557,466.471 372.224,470.971 359.5,470C 355.736,465.119 353.403,459.619 352.5,453.5 Z"/></g>
<g><path style="opacity:1" fill="#742c39" d="M 253.5,462.5 C 254.873,462.343 256.207,462.51 257.5,463C 263.9,467.522 270.233,472.022 276.5,476.5C 229.624,480.314 183.124,477.648 137,468.5C 136.055,468.095 135.388,467.428 135,466.5C 133.525,461.674 134.859,458.008 139,455.5C 154.631,461.159 170.798,463.992 187.5,464C 209.529,464.704 231.529,464.204 253.5,462.5 Z"/></g>
<g><path style="opacity:1" fill="#752b38" d="M 256.5,485.5 C 260.5,488.5 264.5,491.5 268.5,494.5C 223.748,494.99 179.082,494.49 134.5,493C 129.611,488.52 128.611,483.354 131.5,477.5C 132.333,477.167 133.167,476.833 134,476.5C 158.618,481.177 183.451,484.01 208.5,485C 224.497,485.5 240.497,485.667 256.5,485.5 Z"/></g>
<g><path style="opacity:1" fill="#7b3542" d="M 268.5,494.5 C 264.5,491.5 260.5,488.5 256.5,485.5C 278.391,484.889 300.057,482.389 321.5,478C 333.711,472.137 338.211,475.971 335,489.5C 333.457,491.378 331.624,492.878 329.5,494C 309.169,494.5 288.836,494.667 268.5,494.5 Z"/></g>
</svg>
