<?xml version="1.0" encoding="UTF-8"?>
<!DOCTYPE svg PUBLIC "-//W3C//DTD SVG 1.1//EN" "http://www.w3.org/Graphics/SVG/1.1/DTD/svg11.dtd">
<svg xmlns="http://www.w3.org/2000/svg" version="1.1" width="512px" height="512px" style="shape-rendering:geometricPrecision; text-rendering:geometricPrecision; image-rendering:optimizeQuality; fill-rule:evenodd; clip-rule:evenodd" xmlns:xlink="http://www.w3.org/1999/xlink">
<g><path style="opacity:1" fill="#272537" d="M 160.5,16.5 C 166.883,15.4763 172.383,17.143 177,21.5C 189.629,12.9652 199.296,15.6318 206,29.5C 208.814,39.0905 206.314,46.9239 198.5,53C 190.307,56.5952 183.974,62.2619 179.5,70C 177.833,70.6667 176.167,70.6667 174.5,70C 168.692,61.856 161.359,55.5227 152.5,51C 143.993,39.5278 144.993,28.8612 155.5,19C 157.315,18.2432 158.981,17.4098 160.5,16.5 Z"/></g>
<g><path style="opacity:1" fill="#272639" d="M 291.5,32.5 C 304.242,32.0155 312.575,37.6821 316.5,49.5C 324.329,49.9974 330.162,53.664 334,60.5C 335.986,66.3165 336.986,72.3165 337,78.5C 343.079,87.7454 342.912,96.912 336.5,106C 340.515,118.872 336.182,127.038 323.5,130.5C 323.592,143.056 317.592,150.39 305.5,152.5C 305.334,161.506 305.5,170.506 306,179.5C 306.376,182.975 307.709,185.975 310,188.5C 317.723,173.215 329.556,162.381 345.5,156C 382.992,141.6 416.992,121.6 447.5,96C 458.5,86.3333 469.5,76.6667 480.5,67C 495.208,63.3736 501.208,69.0403 498.5,84C 506.179,94.7993 504.846,104.466 494.5,113C 502.881,119.035 504.381,126.535 499,135.5C 494.801,140.034 490.301,144.201 485.5,148C 491.046,151.732 492.879,156.899 491,163.5C 487.783,169.886 483.283,175.22 477.5,179.5C 480.511,188.259 478.178,195.426 470.5,201C 468.167,202.5 465.833,204 463.5,205.5C 466.071,211.579 465.238,217.246 461,222.5C 456.334,227.917 450.501,231.417 443.5,233C 442.603,237.026 440.937,240.693 438.5,244C 432.797,247.18 426.797,249.68 420.5,251.5C 419.635,257.199 416.635,261.366 411.5,264C 406.246,265.271 400.913,265.771 395.5,265.5C 394.173,274.988 388.673,279.655 379,279.5C 376.775,279.435 374.608,279.102 372.5,278.5C 372.167,279 371.833,279.5 371.5,280C 372.955,286.741 375.121,293.241 378,299.5C 384.099,310.363 389.099,321.697 393,333.5C 395.618,346.924 398.618,360.258 402,373.5C 404.921,378.797 409.254,380.797 415,379.5C 418.295,362.69 421.462,345.856 424.5,329C 420.978,318.451 416.478,308.285 411,298.5C 409.546,283.959 416.046,276.792 430.5,277C 433.011,278.848 435.511,280.681 438,282.5C 447.861,277.938 454.861,280.605 459,290.5C 459.888,295.618 459.555,300.618 458,305.5C 449.697,312.802 441.697,320.469 434,328.5C 430.5,346.002 427,363.502 423.5,381C 425.934,383.434 428.434,385.934 431,388.5C 433.452,397.682 434.452,407.016 434,416.5C 432.895,419.937 430.728,422.437 427.5,424C 423.514,424.499 419.514,424.666 415.5,424.5C 412.609,440.175 409.609,455.842 406.5,471.5C 407.035,473.916 408.035,474.083 409.5,472C 414.986,470.175 417.486,472.008 417,477.5C 410.308,481.359 405.141,486.692 401.5,493.5C 399.902,494.485 398.235,494.651 396.5,494C 394.517,488.135 393.351,481.968 393,475.5C 391.894,470.85 390.394,466.35 388.5,462C 389.823,457.166 392.49,456.333 396.5,459.5C 397.333,461.167 398.167,462.833 399,464.5C 401.934,450.228 404.434,435.894 406.5,421.5C 397.506,419.252 390.006,414.585 384,407.5C 371.532,383.563 359.865,359.229 349,334.5C 347.259,329.946 345.926,325.279 345,320.5C 344.299,312.452 343.299,304.452 342,296.5C 337.724,286.948 333.724,277.281 330,267.5C 324.343,276.818 320.343,286.818 318,297.5C 316.772,311.136 318.272,324.47 322.5,337.5C 322.423,339.299 321.923,340.966 321,342.5C 303.075,361.275 281.242,373.109 255.5,378C 242.306,380.919 228.973,382.253 215.5,382C 215,381.5 214.5,381 214,380.5C 212.945,368.53 212.445,356.53 212.5,344.5C 212.63,327.466 213.13,310.466 214,293.5C 207.444,301.056 203.111,309.722 201,319.5C 200.328,327.219 199.328,334.886 198,342.5C 189.393,360.714 181.059,379.048 173,397.5C 171.75,400.077 171.416,402.743 172,405.5C 174.923,411.015 177.59,416.682 180,422.5C 180.814,427.174 180.314,431.674 178.5,436C 202.782,446.405 228.115,453.071 254.5,456C 279.447,458.389 304.447,459.056 329.5,458C 288.762,436.882 248.262,415.382 208,393.5C 206.624,388.545 208.458,386.379 213.5,387C 267.467,414.315 320.801,442.648 373.5,472C 376.446,475.55 375.779,478.216 371.5,480C 310.237,486.903 249.904,482.236 190.5,466C 182.497,463.555 174.664,460.722 167,457.5C 160.334,463.744 153.5,463.91 146.5,458C 140.712,453.413 136.378,447.746 133.5,441C 119.035,432.539 105.702,422.539 93.5,411C 58.0177,376.181 29.5177,336.348 8,291.5C 7.33333,289.167 7.33333,286.833 8,284.5C 9.06171,283.903 10.2284,283.57 11.5,283.5C 15.3252,284.164 18.9919,285.331 22.5,287C 64.8333,309.167 107.167,331.333 149.5,353.5C 157.632,323.404 168.965,294.57 183.5,267C 172.691,266.69 167.025,261.19 166.5,250.5C 156.335,252 148.835,248.334 144,239.5C 143.505,237.527 143.338,235.527 143.5,233.5C 135.387,232.531 128.887,228.864 124,222.5C 122.881,219.943 122.715,217.443 123.5,215C 111.75,211.756 104.75,204.256 102.5,192.5C 102.353,189.747 103.02,187.247 104.5,185C 95.4136,179.646 90.9136,171.813 91,161.5C 91.2735,159.671 92.1068,158.171 93.5,157C 82.9107,150.997 79.0773,142.164 82,130.5C 83.6837,128.649 85.5171,126.982 87.5,125.5C 82.1098,120.602 77.6098,114.935 74,108.5C 71.96,100.422 74.46,94.2554 81.5,90C 74.1537,82.5045 72.6537,74.0045 77,64.5C 78.214,62.9512 79.714,61.7845 81.5,61C 78.1729,50.8033 81.8396,44.6366 92.5,42.5C 94.9417,43.0361 97.2751,43.8694 99.5,45C 128.56,78.0778 161.226,106.744 197.5,131C 212.325,138.576 226.658,146.909 240.5,156C 251.412,164.991 257.745,176.491 259.5,190.5C 261.722,190.822 263.556,190.155 265,188.5C 267.263,182.602 268.097,176.602 267.5,170.5C 251.892,164.725 243.226,153.558 241.5,137C 242.605,130.872 242.772,124.706 242,118.5C 236.231,114.732 231.898,109.732 229,103.5C 228.032,98.6402 228.532,93.9735 230.5,89.5C 224.912,76.0414 228.412,66.0414 241,59.5C 246.976,40.093 259.81,33.093 279.5,38.5C 283.061,35.386 287.061,33.386 291.5,32.5 Z M 44.5,309.5 C 78.8486,326.758 113.015,344.425 147,362.5C 143.811,379.26 139.978,395.927 135.5,412.5C 96.9672,385.307 66.6338,350.974 44.5,309.5 Z"/></g>
<g><path style="opacity:1" fill="#d73b5e" d="M 162.5,24.5 C 168.362,24.189 172.196,26.8557 174,32.5C 174.725,33.0585 175.558,33.3918 176.5,33.5C 179.61,30.5691 182.943,27.7358 186.5,25C 191.958,24.1487 195.791,26.3153 198,31.5C 198.854,35.6251 198.52,39.6251 197,43.5C 189.421,47.6317 182.754,52.965 177,59.5C 171.98,53.1403 165.813,48.307 158.5,45C 152.452,36.7975 153.785,29.9641 162.5,24.5 Z"/></g>
<g><path style="opacity:1" fill="#f8ca66" d="M 291.5,41.5 C 292.5,41.5 293.5,41.5 294.5,41.5C 294.5,57.8333 294.5,74.1667 294.5,90.5C 286.965,88.3939 281.299,83.8939 277.5,77C 273.972,77.2471 270.639,78.4138 267.5,80.5C 267.5,68.8333 267.5,57.1667 267.5,45.5C 266.167,45.5 264.833,45.5 263.5,45.5C 269.538,43.6786 275.205,44.6786 280.5,48.5C 283.679,45.4099 287.346,43.0766 291.5,41.5 Z"/></g>
<g><path style="opacity:1" fill="#f8d46c" d="M 263.5,45.5 C 264.833,45.5 266.167,45.5 267.5,45.5C 267.5,57.1667 267.5,68.8333 267.5,80.5C 259.058,83.3018 250.391,84.1351 241.5,83C 239.548,82.6339 237.882,81.8005 236.5,80.5C 236.336,77.8127 236.503,75.146 237,72.5C 240.18,69.3044 243.847,66.9711 248,65.5C 248.992,55.3674 254.159,48.7008 263.5,45.5 Z"/></g>
<g><path style="opacity:1" fill="#f8bb5c" d="M 291.5,41.5 C 302.681,40.4521 309.014,45.6187 310.5,57C 313.695,57.1805 316.695,57.6805 319.5,58.5C 318.504,73.6576 318.17,88.9909 318.5,104.5C 311.658,103.329 307.325,99.3288 305.5,92.5C 301.687,91.8329 298.021,91.1663 294.5,90.5C 294.5,74.1667 294.5,57.8333 294.5,41.5C 293.5,41.5 292.5,41.5 291.5,41.5 Z"/></g>
<g><path style="opacity:1" fill="#f6b256" d="M 319.5,58.5 C 325.676,61.0286 328.676,65.6953 328.5,72.5C 327.992,75.8491 327.825,79.1825 328,82.5C 333.604,86.2353 334.938,91.2353 332,97.5C 330.421,99.0412 328.587,100.208 326.5,101C 325.177,101.816 324.511,102.983 324.5,104.5C 322.5,104.5 320.5,104.5 318.5,104.5C 318.17,88.9909 318.504,73.6576 319.5,58.5 Z"/></g>
<g><path style="opacity:1" fill="#dce9f5" d="M 127.5,86.5 C 124.904,88.7529 122.237,91.0863 119.5,93.5C 107.697,82.8651 97.5299,70.8651 89,57.5C 87.5,52.3333 89.3333,50.5 94.5,52C 105.339,63.6721 116.339,75.1721 127.5,86.5 Z"/></g>
<g><path style="opacity:1" fill="#8aa8f3" d="M 84.5,68.5 C 85.552,68.3505 86.552,68.5172 87.5,69C 103.911,89.9129 122.244,109.08 142.5,126.5C 140.833,128.5 139.167,130.5 137.5,132.5C 115.478,117.978 97.311,99.6444 83,77.5C 82.068,74.1769 82.568,71.1769 84.5,68.5 Z"/></g>
<g><path style="opacity:1" fill="#272538" d="M 370.5,70.5 C 374.936,70.2101 379.27,70.7101 383.5,72C 386.893,74.2981 389.726,77.1314 392,80.5C 403.969,77.8205 411.303,82.4871 414,94.5C 415.391,102.778 412.891,109.611 406.5,115C 399.289,117.366 391.955,119.366 384.5,121C 381.339,122.413 378.339,124.08 375.5,126C 373.299,126.825 371.466,126.325 370,124.5C 367.788,114.743 363.455,106.076 357,98.5C 353.401,85.082 357.901,75.7487 370.5,70.5 Z"/></g>
<g><path style="opacity:1" fill="#db3e62" d="M 372.5,78.5 C 380.374,77.8732 384.208,81.5398 384,89.5C 385.185,91.8437 387.018,92.6771 389.5,92C 398.42,84.6532 404.086,86.6532 406.5,98C 406.167,102 404.5,105.333 401.5,108C 392.528,109.604 383.861,112.104 375.5,115.5C 373.548,108.041 370.048,101.374 365,95.5C 362.567,87.6966 365.067,82.0299 372.5,78.5 Z"/></g>
<g><path style="opacity:1" fill="#dbe9f4" d="M 461.5,109.5 C 458.45,107.451 456.117,104.784 454.5,101.5C 463.937,93.2349 473.27,84.7349 482.5,76C 484.838,73.5806 487.505,73.0806 490.5,74.5C 491.614,75.723 491.781,77.0563 491,78.5C 482.705,90.2952 472.872,100.629 461.5,109.5 Z"/></g>
<g><path style="opacity:1" fill="#df654b" d="M 294.5,90.5 C 298.021,91.1663 301.687,91.8329 305.5,92.5C 307.325,99.3288 311.658,103.329 318.5,104.5C 320.5,104.5 322.5,104.5 324.5,104.5C 325.3,106.682 326.8,108.349 329,109.5C 329.817,112.964 329.483,116.298 328,119.5C 327.25,120.126 326.416,120.626 325.5,121C 321.167,121.333 316.833,121.667 312.5,122C 310.919,122.707 309.419,123.54 308,124.5C 305.744,119.59 302.744,115.257 299,111.5C 298.907,107.159 298.907,102.826 299,98.5C 290.173,98.0133 283.673,93.8466 279.5,86C 278.667,85.8333 277.833,85.6667 277,85.5C 274.095,88.3611 270.595,90.5278 266.5,92C 252.838,89.3415 245.005,94.8415 243,108.5C 235.844,103.232 234.677,96.8984 239.5,89.5C 238.296,86.5559 237.296,83.5559 236.5,80.5C 237.882,81.8005 239.548,82.6339 241.5,83C 250.391,84.1351 259.058,83.3018 267.5,80.5C 270.639,78.4138 273.972,77.2471 277.5,77C 281.299,83.8939 286.965,88.3939 294.5,90.5 Z"/></g>
<g><path style="opacity:1" fill="#86a2f3" d="M 491.5,90.5 C 495.168,92.3919 496.335,95.3919 495,99.5C 480.676,118.158 463.509,133.658 443.5,146C 440.702,147.914 437.702,148.914 434.5,149C 433.547,147.045 432.213,145.378 430.5,144C 452.805,128.536 473.138,110.703 491.5,90.5 Z"/></g>
<g><path style="opacity:1" fill="#ccdef5" d="M 127.5,86.5 C 141.248,99.2527 155.582,111.253 170.5,122.5C 168.978,126.564 166.311,129.564 162.5,131.5C 146.354,120.92 132.021,108.254 119.5,93.5C 122.237,91.0863 124.904,88.7529 127.5,86.5 Z"/></g>
<g><path style="opacity:1" fill="#8aa6f4" d="M 124.5,133.5 C 121.733,133.87 119.733,135.204 118.5,137.5C 106.188,130.414 95.0215,121.747 85,111.5C 80.7612,106.992 80.5945,102.492 84.5,98C 85.8333,97.3333 87.1667,97.3333 88.5,98C 99.0666,111.401 111.067,123.234 124.5,133.5 Z"/></g>
<g><path style="opacity:1" fill="#f5b2b0" d="M 300.5,130.5 C 295.833,130.5 291.167,130.5 286.5,130.5C 288.521,126.249 287.187,123.916 282.5,123.5C 274.833,122.167 267.167,122.167 259.5,123.5C 254.813,123.916 253.479,126.249 255.5,130.5C 253.833,130.5 252.167,130.5 250.5,130.5C 250.334,122.826 250.5,115.159 251,107.5C 251.606,104.452 253.106,101.952 255.5,100C 263.12,101.505 270.12,100.005 276.5,95.5C 280.11,100.103 284.776,103.103 290.5,104.5C 289.574,112.569 292.408,118.902 299,123.5C 300.202,125.677 300.702,128.011 300.5,130.5 Z"/></g>
<g><path style="opacity:1" fill="#ccdef5" d="M 454.5,101.5 C 456.117,104.784 458.45,107.451 461.5,109.5C 447.58,122.755 432.246,134.088 415.5,143.5C 412.791,140.792 410.458,137.792 408.5,134.5C 424.178,123.993 439.511,112.993 454.5,101.5 Z"/></g>
<g><path style="opacity:1" fill="#312d3f" d="M 259.5,123.5 C 264.501,122.671 266.668,124.671 266,129.5C 262.731,131.762 259.231,132.095 255.5,130.5C 253.479,126.249 254.813,123.916 259.5,123.5 Z"/></g>
<g><path style="opacity:1" fill="#322d3f" d="M 282.5,123.5 C 287.187,123.916 288.521,126.249 286.5,130.5C 282.769,132.095 279.269,131.762 276,129.5C 275.332,124.671 277.499,122.671 282.5,123.5 Z"/></g>
<g><path style="opacity:1" fill="#859ff3" d="M 118.5,137.5 C 119.733,135.204 121.733,133.87 124.5,133.5C 127.806,135.489 131.139,137.489 134.5,139.5C 135.691,146.591 139.025,152.425 144.5,157C 143.789,158.255 142.956,159.421 142,160.5C 141.824,163.882 141.324,167.215 140.5,170.5C 127.474,165.488 114.808,159.654 102.5,153C 98.0841,150.588 94.2508,147.422 91,143.5C 86.6353,135.873 88.802,132.373 97.5,133C 106.712,140.109 116.712,145.942 127.5,150.5C 130.433,148.841 131.1,146.507 129.5,143.5C 125.646,141.742 121.979,139.742 118.5,137.5 Z"/></g>
<g><path style="opacity:1" fill="#f8c4c2" d="M 259.5,123.5 C 267.167,122.167 274.833,122.167 282.5,123.5C 277.499,122.671 275.332,124.671 276,129.5C 279.269,131.762 282.769,132.095 286.5,130.5C 291.167,130.5 295.833,130.5 300.5,130.5C 300.367,133.588 301.7,135.588 304.5,136.5C 307.782,134.393 310.949,132.06 314,129.5C 315.562,141.167 310.395,146.334 298.5,145C 297.837,146.518 296.837,147.685 295.5,148.5C 281.5,147.167 267.5,147.167 253.5,148.5C 252.073,146.852 251.24,144.852 251,142.5C 250.501,138.514 250.334,134.514 250.5,130.5C 252.167,130.5 253.833,130.5 255.5,130.5C 259.231,132.095 262.731,131.762 266,129.5C 266.668,124.671 264.501,122.671 259.5,123.5 Z"/></g>
<g><path style="opacity:1" fill="#bbd2f6" d="M 170.5,122.5 C 185.195,133.181 200.528,142.847 216.5,151.5C 210.19,159.481 203.857,167.481 197.5,175.5C 196.675,176.386 195.675,176.719 194.5,176.5C 192.983,176.489 191.816,175.823 191,174.5C 186.744,167.692 187.744,162.025 194,157.5C 194.667,155.833 194.667,154.167 194,152.5C 183.051,146.029 172.551,139.029 162.5,131.5C 166.311,129.564 168.978,126.564 170.5,122.5 Z"/></g>
<g><path style="opacity:1" fill="#f6cac9" d="M 295.5,148.5 C 291.593,156.9 285.093,162.233 276,164.5C 266.227,162.211 258.727,156.878 253.5,148.5C 267.5,147.167 281.5,147.167 295.5,148.5 Z"/></g>
<g><path style="opacity:1" fill="#bbd1f5" d="M 408.5,134.5 C 410.458,137.792 412.791,140.792 415.5,143.5C 412.921,146.135 409.921,148.301 406.5,150C 396.714,155.309 386.881,160.476 377,165.5C 376.82,169.042 378.153,172.042 381,174.5C 381.722,177.261 381.555,179.927 380.5,182.5C 373.407,175.563 366.741,168.063 360.5,160C 361.056,159.617 361.389,159.117 361.5,158.5C 377.912,151.795 393.579,143.795 408.5,134.5 Z"/></g>
<g><path style="opacity:1" fill="#bdd2f5" d="M 147.5,132.5 C 151.724,133.522 155.391,135.689 158.5,139C 166.998,144.75 175.664,150.25 184.5,155.5C 180.294,164.044 180.794,172.377 186,180.5C 187.41,181.787 188.91,182.954 190.5,184C 188.979,188.654 187.979,193.487 187.5,198.5C 178.432,201.744 169.766,200.911 161.5,196C 157.523,192.746 156.189,188.746 157.5,184C 163.5,183.667 169.5,183.333 175.5,183C 177.418,181.23 177.918,179.063 177,176.5C 170.247,175.686 163.414,175.186 156.5,175C 150.671,173.196 148.171,169.363 149,163.5C 149.689,162.643 150.522,161.977 151.5,161.5C 157.464,164.742 163.797,165.908 170.5,165C 171.833,163 171.833,161 170.5,159C 161.758,157.977 153.925,154.811 147,149.5C 142.291,143.522 142.458,137.855 147.5,132.5 Z"/></g>
<g><path style="opacity:1" fill="#b2cbf8" d="M 216.5,151.5 C 234.458,158.454 246.124,171.121 251.5,189.5C 245.507,188.835 239.507,188.168 233.5,187.5C 225.684,187.658 219.184,190.658 214,196.5C 210.97,200.698 208.137,205.032 205.5,209.5C 198.054,204 195.22,196.667 197,187.5C 197.615,185.884 198.615,184.551 200,183.5C 200.667,181.833 200.667,180.167 200,178.5C 198.052,177.891 196.218,177.224 194.5,176.5C 195.675,176.719 196.675,176.386 197.5,175.5C 203.857,167.481 210.19,159.481 216.5,151.5 Z"/></g>
<g><path style="opacity:1" fill="#829cf0" d="M 487.5,119.5 C 491.075,120.077 493.409,122.077 494.5,125.5C 493.049,129.563 490.716,133.063 487.5,136C 473.907,146.968 458.907,155.634 442.5,162C 440.38,163.523 440.047,165.356 441.5,167.5C 443.074,168.631 444.741,168.798 446.5,168C 457.082,164.119 467.249,159.619 477,154.5C 482.313,154.14 484.313,156.473 483,161.5C 478.978,168.17 473.145,172.67 465.5,175C 453.677,179.663 441.677,183.83 429.5,187.5C 428.957,183.025 427.957,178.692 426.5,174.5C 428.483,172.016 430.65,169.683 433,167.5C 434.599,164.199 436.099,160.865 437.5,157.5C 456.766,148.232 473.432,135.565 487.5,119.5 Z"/></g>
<g><path style="opacity:1" fill="#d47481" d="M 297.5,172.5 C 291.237,177.032 284.237,179.365 276.5,179.5C 276.5,176.833 276.5,174.167 276.5,171.5C 284.578,170.427 291.245,166.76 296.5,160.5C 297.491,164.445 297.824,168.445 297.5,172.5 Z"/></g>
<g><path style="opacity:1" fill="#b4ccf8" d="M 361.5,158.5 C 361.389,159.117 361.056,159.617 360.5,160C 366.741,168.063 373.407,175.563 380.5,182.5C 379.639,184.386 378.639,186.22 377.5,188C 374.133,188.8 370.966,189.966 368,191.5C 369.117,195.096 370.284,198.763 371.5,202.5C 371.436,205.35 370.77,208.017 369.5,210.5C 357.926,198.204 346.926,185.37 336.5,172C 337.056,171.617 337.389,171.117 337.5,170.5C 344.903,165.465 352.903,161.465 361.5,158.5 Z"/></g>
<g><path style="opacity:1" fill="#ccdef5" d="M 398.5,176.5 C 397.849,177.091 397.182,177.757 396.5,178.5C 393.798,176.78 391.132,175.113 388.5,173.5C 388.249,171.83 387.582,170.33 386.5,169C 398.73,162.635 410.897,156.135 423,149.5C 428.138,150.976 429.805,154.31 428,159.5C 426.444,164.876 422.944,168.376 417.5,170C 411.663,171.974 405.663,173.307 399.5,174C 398.748,174.671 398.414,175.504 398.5,176.5 Z"/></g>
<g><path style="opacity:1" fill="#8099ed" d="M 99.5,161.5 C 107.803,164.148 115.803,167.648 123.5,172C 131.692,175.397 140.025,178.397 148.5,181C 149.423,183.041 149.756,185.208 149.5,187.5C 134.657,187.456 120.657,183.956 107.5,177C 101.457,173.411 98.7902,168.244 99.5,161.5 Z"/></g>
<g><path style="opacity:1" fill="#acc4f6" d="M 337.5,170.5 C 337.389,171.117 337.056,171.617 336.5,172C 346.926,185.37 357.926,198.204 369.5,210.5C 367.924,213.312 366.09,215.978 364,218.5C 358.515,193.827 343.349,184.494 318.5,190.5C 322.825,181.844 329.158,175.177 337.5,170.5 Z"/></g>
<g><path style="opacity:1" fill="#f7cac9" d="M 297.5,172.5 C 297.122,179.988 298.789,186.988 302.5,193.5C 299.407,193.998 296.574,194.998 294,196.5C 293.175,198.701 293.675,200.534 295.5,202C 310.051,200.169 324.718,199.002 339.5,198.5C 346.618,200.109 351.451,204.443 354,211.5C 355.202,214.774 356.202,218.107 357,221.5C 358.962,236.123 360.462,250.789 361.5,265.5C 361.5,267.833 361.5,270.167 361.5,272.5C 354.5,272.5 347.5,272.5 340.5,272.5C 336.543,261.099 333.543,249.432 331.5,237.5C 326.132,234.367 323.799,236.034 324.5,242.5C 321.641,251.425 317.641,259.758 312.5,267.5C 309.134,265.836 305.467,265.003 301.5,265C 293.5,264.667 285.5,264.333 277.5,264C 275.714,263.215 274.214,262.049 273,260.5C 270.595,248.066 271.762,235.899 276.5,224C 274.687,220.089 272.187,219.589 269,222.5C 264.762,235.173 263.429,248.173 265,261.5C 267.053,266.387 270.553,269.721 275.5,271.5C 259.167,272.833 242.833,272.833 226.5,271.5C 226.5,270.5 226.5,269.5 226.5,268.5C 237.819,270.818 249.153,270.985 260.5,269C 261.935,266.733 261.602,264.733 259.5,263C 250.833,262.667 242.167,262.333 233.5,262C 228.706,261.537 226.372,258.87 226.5,254C 228.17,242.157 231.17,230.657 235.5,219.5C 233.706,214.631 231.206,214.298 228,218.5C 223.755,230.23 220.588,242.23 218.5,254.5C 218.481,257.188 219.148,259.688 220.5,262C 219.274,265.402 218.607,268.902 218.5,272.5C 208.985,272.827 199.652,272.494 190.5,271.5C 198.744,252.94 205.91,233.94 212,214.5C 214.71,206.23 219.877,200.063 227.5,196C 229.833,195.833 232.167,195.667 234.5,195.5C 246.969,197.305 259.469,198.972 272,200.5C 276.405,200.25 277.572,198.083 275.5,194C 274.552,193.517 273.552,193.351 272.5,193.5C 273.544,188.645 274.877,183.978 276.5,179.5C 284.237,179.365 291.237,177.032 297.5,172.5 Z"/></g>
<g><path style="opacity:1" fill="#7d96eb" d="M 467.5,181.5 C 468.496,181.414 469.329,181.748 470,182.5C 471.064,187.878 469.231,192.044 464.5,195C 455.513,200 445.847,203 435.5,204C 429.843,204.499 424.176,204.666 418.5,204.5C 418.042,201.606 418.709,199.106 420.5,197C 437.039,194.098 452.706,188.931 467.5,181.5 Z"/></g>
<g><path style="opacity:1" fill="#bed2f4" d="M 388.5,173.5 C 391.132,175.113 393.798,176.78 396.5,178.5C 397.182,177.757 397.849,177.091 398.5,176.5C 398.539,177.583 398.873,178.583 399.5,179.5C 406.022,180.881 412.355,180.214 418.5,177.5C 422.549,181.543 422.215,185.376 417.5,189C 415.5,189.667 413.5,190.333 411.5,191C 405.074,191.505 398.74,191.172 392.5,190C 389.833,192.333 389.833,194.667 392.5,197C 398.451,198.032 404.451,198.865 410.5,199.5C 411.562,205.333 409.229,209.499 403.5,212C 397.693,214.318 391.693,214.984 385.5,214C 382.966,213.484 380.8,212.317 379,210.5C 379.622,205.993 379.456,201.493 378.5,197C 386.346,191.137 389.679,183.303 388.5,173.5 Z"/></g>
<g><path style="opacity:1" fill="#7c95ee" d="M 112.5,188.5 C 125.084,193.062 138.084,195.562 151.5,196C 154.699,199.698 158.365,202.865 162.5,205.5C 155.191,207.685 147.691,208.685 140,208.5C 129.267,209.625 120.267,206.292 113,198.5C 110.138,195.147 109.971,191.813 112.5,188.5 Z"/></g>
<g><path style="opacity:1" fill="#aec7f3" d="M 189.5,205.5 C 190.822,205.33 191.989,205.663 193,206.5C 195.797,210.962 198.964,215.128 202.5,219C 202.181,223.319 199.848,225.652 195.5,226C 182.795,226.993 176.462,221.16 176.5,208.5C 181.092,208.118 185.425,207.118 189.5,205.5 Z"/></g>
<g><path style="opacity:1" fill="#7b93ed" d="M 450.5,208.5 C 455.327,207.848 457.16,209.848 456,214.5C 452.957,219.877 448.457,223.377 442.5,225C 434.167,225.667 425.833,225.667 417.5,225C 412.491,224.417 407.824,222.917 403.5,220.5C 407.851,218.992 411.517,216.492 414.5,213C 426.783,212.631 438.783,211.131 450.5,208.5 Z"/></g>
<g><path style="opacity:1" fill="#464e7a" d="M 151.5,215.5 C 144.605,215.85 137.938,216.85 131.5,218.5C 130.596,217.791 130.263,216.791 130.5,215.5C 137.5,215.5 144.5,215.5 151.5,215.5 Z"/></g>
<g><path style="opacity:1" fill="#afc7f4" d="M 374.5,217.5 C 378.783,220.094 383.45,221.594 388.5,222C 389.444,232.568 384.444,238.068 373.5,238.5C 371.142,238.247 368.808,237.914 366.5,237.5C 366.212,234.134 366.046,230.8 366,227.5C 369.419,224.588 372.252,221.254 374.5,217.5 Z"/></g>
<g><path style="opacity:1" fill="#2d2b3d" d="M 312.5,267.5 C 312.833,271.833 310.833,273.833 306.5,273.5C 296.112,273.288 285.779,272.622 275.5,271.5C 270.553,269.721 267.053,266.387 265,261.5C 263.429,248.173 264.762,235.173 269,222.5C 272.187,219.589 274.687,220.089 276.5,224C 271.762,235.899 270.595,248.066 273,260.5C 274.214,262.049 275.714,263.215 277.5,264C 285.5,264.333 293.5,264.667 301.5,265C 305.467,265.003 309.134,265.836 312.5,267.5 Z"/></g>
<g><path style="opacity:1" fill="#768ee7" d="M 131.5,218.5 C 137.938,216.85 144.605,215.85 151.5,215.5C 157.54,214.715 163.54,213.715 169.5,212.5C 169.679,221.18 173.679,227.514 181.5,231.5C 182.583,232.365 182.749,233.365 182,234.5C 174.579,242.405 165.745,244.571 155.5,241C 153.077,239.429 151.744,237.263 151.5,234.5C 156.08,234.887 160.414,234.053 164.5,232C 165.935,229.733 165.602,227.733 163.5,226C 154.228,227.441 145.228,226.441 136.5,223C 134.382,221.951 132.716,220.451 131.5,218.5 Z"/></g>
<g><path style="opacity:1" fill="#768de7" d="M 396.5,226.5 C 408.665,231.399 421.331,233.732 434.5,233.5C 434.703,235.39 434.037,236.89 432.5,238C 429.326,239.725 425.993,241.058 422.5,242C 415.038,242.741 407.704,242.407 400.5,241C 397.833,243.333 397.833,245.667 400.5,248C 404.014,249.562 407.681,250.395 411.5,250.5C 411.607,252.903 410.607,254.736 408.5,256C 396.749,259.459 387.416,256.126 380.5,246C 390.066,242.937 395.4,236.437 396.5,226.5 Z"/></g>
<g><path style="opacity:1" fill="#7387e7" d="M 191.5,233.5 C 193.604,233.201 195.604,233.534 197.5,234.5C 194.333,242.167 191.167,249.833 188,257.5C 179.368,260.367 175.035,257.367 175,248.5C 182.27,245.395 187.77,240.395 191.5,233.5 Z"/></g>
<g><path style="opacity:1" fill="#d67582" d="M 324.5,242.5 C 326.842,247.306 327.009,252.306 325,257.5C 322.135,265.562 318.469,273.229 314,280.5C 309.855,292.501 308.522,304.834 310,317.5C 311.532,324.477 312.532,331.477 313,338.5C 309.621,342.38 305.788,345.713 301.5,348.5C 303.029,341.768 304.029,334.935 304.5,328C 304.436,323.166 303.436,318.666 301.5,314.5C 299.518,300.377 301.184,286.71 306.5,273.5C 310.833,273.833 312.833,271.833 312.5,267.5C 317.641,259.758 321.641,251.425 324.5,242.5 Z"/></g>
<g><path style="opacity:1" fill="#2a283b" d="M 237.5,248.5 C 241.007,247.994 244.174,248.66 247,250.5C 247.667,251.833 247.667,253.167 247,254.5C 243.927,255.617 240.76,255.784 237.5,255C 236.232,252.837 236.232,250.67 237.5,248.5 Z"/></g>
<g><path style="opacity:1" fill="#7387e6" d="M 367.5,245.5 C 371.825,245.102 374.325,247.102 375,251.5C 378.39,255.393 382.223,258.727 386.5,261.5C 388.064,267.955 385.398,271.288 378.5,271.5C 375.678,271.448 373.011,270.781 370.5,269.5C 368.841,261.595 367.841,253.595 367.5,245.5 Z"/></g>
<g><path style="opacity:1" fill="#302c3e" d="M 297.5,251.5 C 299.92,251.292 302.253,251.626 304.5,252.5C 306.031,258.466 303.698,260.632 297.5,259C 294.914,256.506 294.914,254.006 297.5,251.5 Z"/></g>
<g><path style="opacity:1" fill="#f6bbba" d="M 226.5,271.5 C 242.833,272.833 259.167,272.833 275.5,271.5C 285.779,272.622 296.112,273.288 306.5,273.5C 301.184,286.71 299.518,300.377 301.5,314.5C 296.36,315.488 291.026,315.821 285.5,315.5C 285.182,313.182 283.848,311.848 281.5,311.5C 277.153,312.047 272.819,312.714 268.5,313.5C 268.137,314.183 267.804,314.85 267.5,315.5C 265.5,315.5 263.5,315.5 261.5,315.5C 261.768,313.901 261.434,312.568 260.5,311.5C 260.302,305.468 260.635,299.468 261.5,293.5C 260.382,289.293 258.215,288.627 255,291.5C 252.778,298.296 251.945,305.296 252.5,312.5C 248.278,312.737 244.111,312.404 240,311.5C 238.358,311.978 237.191,312.978 236.5,314.5C 233.92,315.116 231.253,315.449 228.5,315.5C 225.731,315.471 223.397,314.805 221.5,313.5C 221.616,299.177 223.283,285.177 226.5,271.5 Z"/></g>
<g><path style="opacity:1" fill="#f6bcba" d="M 361.5,265.5 C 362.737,282.44 367.404,298.44 375.5,313.5C 368.24,315.465 360.573,316.132 352.5,315.5C 352.739,309.435 352.239,303.435 351,297.5C 347.59,289.097 344.09,280.764 340.5,272.5C 347.5,272.5 354.5,272.5 361.5,272.5C 361.5,270.167 361.5,267.833 361.5,265.5 Z"/></g>
<g><path style="opacity:1" fill="#2a293b" d="M 270.5,277.5 C 272.199,277.34 273.866,277.506 275.5,278C 280.746,282.575 285.246,287.742 289,293.5C 289.833,298 288,299.833 283.5,299C 279.378,293.209 274.878,287.709 270,282.5C 269.616,280.803 269.782,279.137 270.5,277.5 Z"/></g>
<g><path style="opacity:1" fill="#2b293b" d="M 244.5,278.5 C 249.675,277.507 251.509,279.507 250,284.5C 244.455,288.378 239.955,293.211 236.5,299C 231.667,300.167 229.834,298.333 231,293.5C 234.654,287.682 239.154,282.682 244.5,278.5 Z"/></g>
<g><path style="opacity:1" fill="#dc4a6e" d="M 424.5,284.5 C 426.582,284.472 428.416,285.139 430,286.5C 431.127,289.377 431.794,292.377 432,295.5C 433.194,296.43 434.527,297.097 436,297.5C 438.358,294.673 440.858,291.839 443.5,289C 447.166,287.729 449.666,288.896 451,292.5C 451.667,295.167 451.667,297.833 451,300.5C 444.599,307.07 438.099,313.403 431.5,319.5C 427.364,311.9 423.197,304.233 419,296.5C 418.312,291.352 420.145,287.352 424.5,284.5 Z"/></g>
<g><path style="opacity:1" fill="#29273a" d="M 260.5,311.5 C 260.415,315.849 260.082,320.182 259.5,324.5C 260.553,329.138 261.053,333.805 261,338.5C 259.186,339.76 257.353,339.76 255.5,338.5C 253.879,335.348 252.879,332.015 252.5,328.5C 252.5,325.5 252.5,322.5 252.5,319.5C 248.833,319.5 245.167,319.5 241.5,319.5C 238.167,319.5 236.5,317.833 236.5,314.5C 237.191,312.978 238.358,311.978 240,311.5C 244.111,312.404 248.278,312.737 252.5,312.5C 251.945,305.296 252.778,298.296 255,291.5C 258.215,288.627 260.382,289.293 261.5,293.5C 260.635,299.468 260.302,305.468 260.5,311.5 Z"/></g>
<g><path style="opacity:1" fill="#db7776" d="M 19.5,295.5 C 24.06,297.037 27.8933,299.704 31,303.5C 50.1097,340.62 75.2764,373.12 106.5,401C 115.384,408.218 124.551,415.052 134,421.5C 134.158,424.553 133.658,427.553 132.5,430.5C 110.086,415.931 90.2531,398.264 73,377.5C 51.9107,352.33 34.0773,324.996 19.5,295.5 Z"/></g>
<g><path style="opacity:1" fill="#f7bbb7" d="M 190.5,271.5 C 199.652,272.494 208.985,272.827 218.5,272.5C 218.649,273.552 218.483,274.552 218,275.5C 210.939,283.294 204.605,291.628 199,300.5C 196.316,304.863 194.482,309.53 193.5,314.5C 189.749,315.133 185.915,315.467 182,315.5C 178.098,315.488 174.598,314.821 171.5,313.5C 177.323,299.194 183.656,285.194 190.5,271.5 Z"/></g>
<g><path style="opacity:1" fill="#322d3f" d="M 285.5,315.5 C 285.489,317.017 284.823,318.184 283.5,319C 279.259,320.457 274.926,320.791 270.5,320C 268.859,318.871 267.859,317.371 267.5,315.5C 267.804,314.85 268.137,314.183 268.5,313.5C 272.819,312.714 277.153,312.047 281.5,311.5C 283.848,311.848 285.182,313.182 285.5,315.5 Z"/></g>
<g><path style="opacity:1" fill="#f3b0ad" d="M 171.5,313.5 C 174.598,314.821 178.098,315.488 182,315.5C 185.915,315.467 189.749,315.133 193.5,314.5C 192.774,323.202 191.607,331.869 190,340.5C 186.821,347.522 183.655,354.522 180.5,361.5C 172.427,362.132 164.76,361.465 157.5,359.5C 160.944,343.705 165.611,328.371 171.5,313.5 Z"/></g>
<g><path style="opacity:1" fill="#f4b0ad" d="M 375.5,313.5 C 383.704,327.295 388.371,342.295 389.5,358.5C 389.5,359.5 389.5,360.5 389.5,361.5C 383.167,361.5 376.833,361.5 370.5,361.5C 362.727,346.844 356.727,331.51 352.5,315.5C 360.573,316.132 368.24,315.465 375.5,313.5 Z"/></g>
<g><path style="opacity:1" fill="#f2afac" d="M 260.5,311.5 C 261.434,312.568 261.768,313.901 261.5,315.5C 263.5,315.5 265.5,315.5 267.5,315.5C 267.859,317.371 268.859,318.871 270.5,320C 274.926,320.791 279.259,320.457 283.5,319C 284.823,318.184 285.489,317.017 285.5,315.5C 291.026,315.821 296.36,315.488 301.5,314.5C 303.436,318.666 304.436,323.166 304.5,328C 304.029,334.935 303.029,341.768 301.5,348.5C 298.158,351.268 294.658,353.934 291,356.5C 291.499,353.482 291.332,350.482 290.5,347.5C 289.232,346.572 287.899,346.405 286.5,347C 284.255,351.515 282.255,356.182 280.5,361C 270.379,366.153 259.712,369.153 248.5,370C 245.5,366.333 242.5,362.667 239.5,359C 234.9,357.417 233.066,358.917 234,363.5C 236.045,366.423 238.212,369.257 240.5,372C 236.187,372.735 231.853,373.235 227.5,373.5C 225.5,373.5 223.5,373.5 221.5,373.5C 221.819,368.637 221.486,363.97 220.5,359.5C 220.17,343.991 220.504,328.658 221.5,313.5C 223.397,314.805 225.731,315.471 228.5,315.5C 231.253,315.449 233.92,315.116 236.5,314.5C 236.5,317.833 238.167,319.5 241.5,319.5C 244.625,320.479 247.958,320.813 251.5,320.5C 251.194,323.385 251.527,326.052 252.5,328.5C 252.879,332.015 253.879,335.348 255.5,338.5C 257.353,339.76 259.186,339.76 261,338.5C 261.053,333.805 260.553,329.138 259.5,324.5C 260.082,320.182 260.415,315.849 260.5,311.5 Z"/></g>
<g><path style="opacity:1" fill="#a07a7f" d="M 241.5,319.5 C 245.167,319.5 248.833,319.5 252.5,319.5C 252.5,322.5 252.5,325.5 252.5,328.5C 251.527,326.052 251.194,323.385 251.5,320.5C 247.958,320.813 244.625,320.479 241.5,319.5 Z"/></g>
<g><path style="opacity:1" fill="#f0a4a0" d="M 157.5,359.5 C 164.76,361.465 172.427,362.132 180.5,361.5C 173.15,374.86 167.483,388.86 163.5,403.5C 158.167,403.5 152.833,403.5 147.5,403.5C 147.5,402.5 147.5,401.5 147.5,400.5C 150.077,386.527 153.411,372.86 157.5,359.5 Z"/></g>
<g><path style="opacity:1" fill="#87636a" d="M 220.5,359.5 C 221.486,363.97 221.819,368.637 221.5,373.5C 223.5,373.5 225.5,373.5 227.5,373.5C 225.393,374.468 223.059,374.802 220.5,374.5C 220.5,369.5 220.5,364.5 220.5,359.5 Z"/></g>
<g><path style="opacity:1" fill="#252437" d="M 192.5,377.5 C 199.486,377.331 201.153,380.164 197.5,386C 190.421,386.527 188.754,383.694 192.5,377.5 Z"/></g>
<g><path style="opacity:1" fill="#f0a09c" d="M 389.5,358.5 C 390.901,366.403 393.401,374.069 397,381.5C 399.234,383.7 401.734,385.533 404.5,387C 410.184,388.226 415.851,389.559 421.5,391C 422.333,391.833 423.167,392.667 424,393.5C 425.281,399.063 426.114,404.729 426.5,410.5C 426.674,412.693 426.007,414.527 424.5,416C 412.127,416.542 401.293,412.709 392,404.5C 384.293,390.419 377.126,376.086 370.5,361.5C 376.833,361.5 383.167,361.5 389.5,361.5C 389.5,360.5 389.5,359.5 389.5,358.5 Z"/></g>
<g><path style="opacity:1" fill="#ef9995" d="M 147.5,400.5 C 147.5,401.5 147.5,402.5 147.5,403.5C 152.833,403.5 158.167,403.5 163.5,403.5C 165.823,411.637 168.823,419.471 172.5,427C 169.623,435.589 165.789,443.756 161,451.5C 158.373,453.988 155.54,454.155 152.5,452C 146.659,447.837 142.825,442.337 141,435.5C 140.333,432.833 140.333,430.167 141,427.5C 142.995,418.334 145.162,409.334 147.5,400.5 Z"/></g>
<g><path style="opacity:1" fill="#c3655f" d="M 262.5,465.5 C 259.708,466.392 258.375,468.392 258.5,471.5C 228.995,468.166 200.329,461.333 172.5,451C 171.044,450.577 170.544,449.744 171,448.5C 171.899,446.673 173.233,445.34 175,444.5C 203.292,455.699 232.459,462.699 262.5,465.5 Z"/></g>
<g><path style="opacity:1" fill="#b55952" d="M 262.5,465.5 C 290.164,466.576 317.83,466.743 345.5,466C 350.28,467.556 354.613,469.889 358.5,473C 325.109,475.277 291.776,474.777 258.5,471.5C 258.375,468.392 259.708,466.392 262.5,465.5 Z"/></g>
</svg>
