<?xml version="1.0" encoding="UTF-8"?>
<!DOCTYPE svg PUBLIC "-//W3C//DTD SVG 1.1//EN" "http://www.w3.org/Graphics/SVG/1.1/DTD/svg11.dtd">
<svg xmlns="http://www.w3.org/2000/svg" version="1.1" width="512px" height="512px" style="shape-rendering:geometricPrecision; text-rendering:geometricPrecision; image-rendering:optimizeQuality; fill-rule:evenodd; clip-rule:evenodd" xmlns:xlink="http://www.w3.org/1999/xlink">
<g><path style="opacity:1" fill="#272538" d="M 96.5,7.5 C 128.52,5.42571 153.02,17.759 170,44.5C 177.221,61.7867 177.221,79.1201 170,96.5C 165.861,106.283 160.528,115.283 154,123.5C 149.084,133.162 147.584,143.329 149.5,154C 148.277,162.781 143.277,166.448 134.5,165C 129.901,163.153 126.901,159.82 125.5,155C 124.004,154.493 122.837,154.993 122,156.5C 119.731,161.64 118.065,166.973 117,172.5C 115.414,182.862 113.747,193.195 112,203.5C 107.914,209.118 102.414,210.951 95.5,209C 91.6667,207.833 89.1667,205.333 88,201.5C 86.5588,193.853 85.2254,186.186 84,178.5C 83.5814,177.328 82.9147,176.328 82,175.5C 78.551,182.474 73.051,184.974 65.5,183C 62.4522,182.394 59.9522,180.894 58,178.5C 57.6838,165.152 55.3505,152.152 51,139.5C 44.8282,129.982 39.4948,119.982 35,109.5C 25.9996,79.509 30.9996,52.1757 50,27.5C 63.3187,15.6745 78.8187,9.00779 96.5,7.5 Z"/></g>
<g><path style="opacity:1" fill="#272639" d="M 487.5,8.5 C 489.792,8.24358 491.959,8.57692 494,9.5C 494.578,24.9371 487.745,35.7705 473.5,42C 469.855,45.453 467.355,49.6197 466,54.5C 465.034,60.1298 464.367,65.7964 464,71.5C 460.626,79.4088 455.459,85.9088 448.5,91C 439.665,96.5852 430.665,101.919 421.5,107C 413.784,113.177 411.617,120.677 415,129.5C 419.369,135.274 424.869,136.774 431.5,134C 439.172,129.833 446.505,125.166 453.5,120C 457.128,118.684 459.461,119.851 460.5,123.5C 455.566,131.801 451.899,140.634 449.5,150C 451.805,155.444 453.972,160.944 456,166.5C 458.589,179.483 454.422,189.65 443.5,197C 436.005,201.052 428.339,204.719 420.5,208C 411.532,215.226 409.365,224.059 414,234.5C 419.385,239.309 425.218,239.809 431.5,236C 435.336,233.916 439.003,231.583 442.5,229C 444.701,228.175 446.534,228.675 448,230.5C 449.088,238.113 448.088,245.446 445,252.5C 441.966,258.186 438.966,263.853 436,269.5C 434.532,275.86 435.865,281.526 440,286.5C 462.263,299.289 469.597,317.956 462,342.5C 458.766,350.21 454.932,357.544 450.5,364.5C 454.557,376.608 455.723,388.941 454,401.5C 452.941,404.618 451.608,407.618 450,410.5C 401.304,460.581 341.804,485.581 271.5,485.5C 226.788,485.238 183.788,476.571 142.5,459.5C 137.524,471.596 131.69,483.263 125,494.5C 120.342,499.746 114.508,502.746 107.5,503.5C 57.6347,491.444 32.3014,459.61 31.5,408C 31.637,377.241 41.8037,350.408 62,327.5C 62.6667,320.167 62.6667,312.833 62,305.5C 61.6824,303.939 60.8491,302.772 59.5,302C 51.002,299.793 42.6687,297.127 34.5,294C 24.0962,289.593 18.2629,281.76 17,270.5C 16.1097,263.086 16.443,255.753 18,248.5C 20.0639,247.409 22.2305,247.242 24.5,248C 28.5972,255.094 33.7639,261.261 40,266.5C 44.7629,252.226 46.7629,237.56 46,222.5C 49.368,221.17 52.5347,221.67 55.5,224C 60.6484,228.466 64.1484,233.966 66,240.5C 66.6398,248.68 66.4731,256.847 65.5,265C 64.9615,268.833 66.1282,272 69,274.5C 70.6762,255.129 75.1762,236.463 82.5,218.5C 84.8978,217.276 87.2311,217.442 89.5,219C 94.0042,222.84 96.8376,227.673 98,233.5C 98.476,247.208 98.1427,260.875 97,274.5C 101,273.167 103.667,270.5 105,266.5C 106.711,258.27 107.711,249.937 108,241.5C 109.212,236.486 112.045,235.319 116.5,238C 126.889,246.833 130.723,257.999 128,271.5C 127.162,282.858 121.995,291.524 112.5,297.5C 111.289,300.876 111.456,304.209 113,307.5C 140.131,269.565 175.964,243.232 220.5,228.5C 222.625,218.577 227.959,210.91 236.5,205.5C 237.702,201.135 237.535,196.802 236,192.5C 232,187.167 228,181.833 224,176.5C 211.706,153.196 213.373,130.863 229,109.5C 247.52,90.6549 263.353,69.8216 276.5,47C 279.528,45.8603 281.695,46.6936 283,49.5C 282.857,56.983 282.357,64.483 281.5,72C 282.616,78.6304 285.116,79.1304 289,73.5C 304.696,44.9965 328.863,29.6632 361.5,27.5C 370.705,27.7756 379.705,29.2756 388.5,32C 394.928,32.7498 400.928,31.4165 406.5,28C 410.049,24.9426 413.716,22.1093 417.5,19.5C 419.029,19.5288 420.196,20.1955 421,21.5C 421.113,29.8334 418.78,37.5001 414,44.5C 411.207,47.4532 409.04,50.7865 407.5,54.5C 408.399,57.7104 410.566,59.3771 414,59.5C 419.933,58.0345 424.933,55.0345 429,50.5C 433.362,45.113 436.695,39.113 439,32.5C 443.399,27.0534 448.899,23.2201 455.5,21C 462.724,19.2311 470.057,18.2311 477.5,18C 481.993,16.0062 485.326,12.8396 487.5,8.5 Z"/></g>
<g><path style="opacity:1" fill="#bd4f93" d="M 150.5,33.5 C 122.82,30.98 95.1529,28.3133 67.5,25.5C 80.2254,17.3215 94.2254,14.1549 109.5,16C 122.084,17.4166 133.751,21.4166 144.5,28C 146.763,29.617 148.763,31.4503 150.5,33.5 Z"/></g>
<g><path style="opacity:1" fill="#262537" d="M 284.5,23.5 C 290.989,23.1563 292.989,25.9896 290.5,32C 282.749,33.0913 280.749,30.258 284.5,23.5 Z"/></g>
<g><path style="opacity:1" fill="#c75094" d="M 67.5,25.5 C 95.1529,28.3133 122.82,30.98 150.5,33.5C 163.554,44.8162 169.054,59.1495 167,76.5C 165.916,82.5352 164.083,88.2019 161.5,93.5C 158.482,93.6646 155.482,93.498 152.5,93C 151.944,92.6174 151.611,92.1174 151.5,91.5C 155.683,66.8315 145.683,51.8315 121.5,46.5C 113.178,46.9835 108.011,51.3169 106,59.5C 103.869,68.9646 104.369,78.298 107.5,87.5C 107.44,88.0431 107.107,88.3764 106.5,88.5C 102.889,87.7382 99.2222,87.2382 95.5,87C 94.944,86.6174 94.6107,86.1174 94.5,85.5C 98.4162,74.0818 95.4162,64.9151 85.5,58C 69.833,52.7483 58.9996,57.915 53,73.5C 52.0069,76.4741 51.1736,79.4741 50.5,82.5C 46.9009,81.6561 43.2343,81.3227 39.5,81.5C 39.5,84.8333 39.5,88.1667 39.5,91.5C 35.708,66.2387 43.3747,45.0721 62.5,28C 64.0779,26.9055 65.7446,26.0722 67.5,25.5 Z"/></g>
<g><path style="opacity:1" fill="#bd4b93" d="M 443.5,83.5 C 438.577,76.2402 432.91,69.5736 426.5,63.5C 436.277,55.5469 443.611,45.7135 448.5,34C 458.552,27.4271 469.552,24.7605 481.5,26C 478.866,29.3181 475.533,31.6515 471.5,33C 459.985,43.1976 454.485,56.0309 455,71.5C 452.337,76.6618 448.504,80.6618 443.5,83.5 Z"/></g>
<g><path style="opacity:1" fill="#c65095" d="M 426.5,63.5 C 432.91,69.5736 438.577,76.2402 443.5,83.5C 435.902,89.6436 427.569,94.8103 418.5,99C 415.631,102.038 412.631,104.871 409.5,107.5C 389.04,84.5372 368.374,61.7039 347.5,39C 346.207,38.51 344.873,38.3433 343.5,38.5C 348.884,36.626 354.551,35.626 360.5,35.5C 371.014,36.2709 381.348,37.9375 391.5,40.5C 397.151,40.4207 402.484,39.0874 407.5,36.5C 408.521,37.0016 408.688,37.6683 408,38.5C 405.089,41.9895 402.422,45.6562 400,49.5C 397.961,60.4264 402.461,66.4264 413.5,67.5C 418.104,67.0302 422.438,65.6969 426.5,63.5 Z"/></g>
<g><path style="opacity:1" fill="#cd5095" d="M 343.5,38.5 C 344.873,38.3433 346.207,38.51 347.5,39C 368.374,61.7039 389.04,84.5372 409.5,107.5C 400.447,122.879 403.78,134.713 419.5,143C 428.338,143.999 436.338,141.833 443.5,136.5C 443.833,136.833 444.167,137.167 444.5,137.5C 442.991,140.859 441.991,144.359 441.5,148C 442.662,155.152 444.828,161.985 448,168.5C 448.762,172.587 448.596,176.587 447.5,180.5C 444.606,179.118 442.106,177.118 440,174.5C 404.036,134.201 367.703,94.2009 331,54.5C 328.92,51.9348 327.087,49.2682 325.5,46.5C 330.97,42.7673 336.97,40.1006 343.5,38.5 Z"/></g>
<g><path style="opacity:1" fill="#2a273b" d="M 151.5,91.5 C 147.874,102.284 140.374,108.618 129,110.5C 123.208,109.269 118.541,106.269 115,101.5C 112.202,96.899 109.702,92.2324 107.5,87.5C 104.369,78.298 103.869,68.9646 106,59.5C 108.011,51.3169 113.178,46.9835 121.5,46.5C 145.683,51.8315 155.683,66.8315 151.5,91.5 Z"/></g>
<g><path style="opacity:1" fill="#cd5695" d="M 325.5,46.5 C 327.087,49.2682 328.92,51.9348 331,54.5C 367.703,94.2009 404.036,134.201 440,174.5C 442.106,177.118 444.606,179.118 447.5,180.5C 444.833,185.167 441.167,188.833 436.5,191.5C 432.954,185.775 428.787,180.441 424,175.5C 387.251,135.258 350.417,95.2576 313.5,55.5C 316.929,51.7376 320.929,48.7376 325.5,46.5 Z"/></g>
<g><path style="opacity:1" fill="#f6f6f6" d="M 119.5,53.5 C 142.805,59.1091 149.972,73.1091 141,95.5C 135.485,103.255 129.152,104.255 122,98.5C 113.982,87.7621 110.982,75.7621 113,62.5C 114.222,58.6856 116.389,55.6856 119.5,53.5 Z"/></g>
<g><path style="opacity:1" fill="#d35695" d="M 313.5,55.5 C 350.417,95.2576 387.251,135.258 424,175.5C 428.787,180.441 432.954,185.775 436.5,191.5C 430.136,194.181 423.803,197.014 417.5,200C 412.927,203.07 409.261,206.904 406.5,211.5C 387.902,189.232 368.569,167.565 348.5,146.5C 351.587,142.846 350.92,140.18 346.5,138.5C 344.927,138.752 343.594,139.418 342.5,140.5C 325.864,121.196 308.864,102.196 291.5,83.5C 296.238,77.0348 300.738,70.3681 305,63.5C 307.703,60.6286 310.536,57.9619 313.5,55.5 Z"/></g>
<g><path style="opacity:1" fill="#2b283b" d="M 94.5,85.5 C 88.183,96.8151 78.8497,104.482 66.5,108.5C 57.7365,106.232 52.5698,100.565 51,91.5C 50.502,88.5184 50.3354,85.5184 50.5,82.5C 51.1736,79.4741 52.0069,76.4741 53,73.5C 58.9996,57.915 69.833,52.7483 85.5,58C 95.4162,64.9151 98.4162,74.0818 94.5,85.5 Z"/></g>
<g><path style="opacity:1" fill="#f6f6f7" d="M 70.5,63.5 C 84.5306,62.6862 90.0306,69.0196 87,82.5C 82.181,90.6574 75.5143,96.6574 67,100.5C 63.7784,99.617 61.4451,97.617 60,94.5C 56.2376,81.6194 59.7376,71.2861 70.5,63.5 Z"/></g>
<g><path style="opacity:1" fill="#d95795" d="M 291.5,83.5 C 308.864,102.196 325.864,121.196 342.5,140.5C 339.855,147.86 341.855,149.86 348.5,146.5C 368.569,167.565 387.902,189.232 406.5,211.5C 401.757,222.278 402.757,232.445 409.5,242C 419.116,247.849 428.782,247.683 438.5,241.5C 438.833,241.833 439.167,242.167 439.5,242.5C 436.469,250.896 432.635,258.896 428,266.5C 427.51,267.793 427.343,269.127 427.5,270.5C 426.698,271.952 426.198,273.618 426,275.5C 393.996,239.997 361.829,204.664 329.5,169.5C 332.104,167.4 334.604,165.067 337,162.5C 338.477,158.002 336.977,155.835 332.5,156C 325.81,163.24 317.643,168.073 308,170.5C 304.55,164.439 300.717,158.606 296.5,153C 307.704,144.994 315.871,134.827 321,122.5C 319.116,120.424 316.949,120.09 314.5,121.5C 310.422,126.657 306.588,131.99 303,137.5C 299.01,141.323 294.676,144.656 290,147.5C 287.38,146.519 284.88,145.353 282.5,144C 288.625,139.544 294.458,134.711 300,129.5C 301.404,127.606 302.57,125.606 303.5,123.5C 302.857,120.025 300.857,118.859 297.5,120C 295.667,122.998 293.334,125.498 290.5,127.5C 279.842,114.843 268.842,102.51 257.5,90.5C 262.447,83.0462 267.614,75.7128 273,68.5C 272.362,82.3869 278.529,87.3869 291.5,83.5 Z"/></g>
<g><path style="opacity:1" fill="#d05694" d="M 50.5,82.5 C 50.3354,85.5184 50.502,88.5184 51,91.5C 52.5698,100.565 57.7365,106.232 66.5,108.5C 78.8497,104.482 88.183,96.8151 94.5,85.5C 94.6107,86.1174 94.944,86.6174 95.5,87C 99.2222,87.2382 102.889,87.7382 106.5,88.5C 107.107,88.3764 107.44,88.0431 107.5,87.5C 109.702,92.2324 112.202,96.899 115,101.5C 118.541,106.269 123.208,109.269 129,110.5C 140.374,108.618 147.874,102.284 151.5,91.5C 151.611,92.1174 151.944,92.6174 152.5,93C 155.482,93.498 158.482,93.6646 161.5,93.5C 160.572,97.3621 159.072,101.029 157,104.5C 149.053,113.935 143.553,124.602 140.5,136.5C 131.734,135.153 123.067,134.487 114.5,134.5C 116.263,126.263 114.763,118.597 110,111.5C 98.3015,104.142 90.3015,107.142 86,120.5C 84.9571,123.757 84.4571,127.09 84.5,130.5C 75.4984,129.574 66.4984,128.574 57.5,127.5C 56.2739,127.52 55.2739,127.853 54.5,128.5C 46.5741,117.397 41.5741,105.064 39.5,91.5C 39.5,88.1667 39.5,84.8333 39.5,81.5C 43.2343,81.3227 46.9009,81.6561 50.5,82.5 Z"/></g>
<g><path style="opacity:1" fill="#de5c95" d="M 257.5,90.5 C 268.842,102.51 279.842,114.843 290.5,127.5C 285.064,131.76 279.731,136.26 274.5,141C 259.5,140.917 249,147.75 243,161.5C 241.144,168.051 239.811,174.717 239,181.5C 220.687,162.146 218.687,141.146 233,118.5C 241.032,108.974 249.198,99.6402 257.5,90.5 Z"/></g>
<g><path style="opacity:1" fill="#262437" d="M 471.5,98.5 C 475.198,97.6798 477.531,99.0131 478.5,102.5C 476.804,107.387 473.471,109.554 468.5,109C 466.016,106.716 465.849,104.216 468,101.5C 469.518,100.837 470.685,99.8366 471.5,98.5 Z"/></g>
<g><path style="opacity:1" fill="#2b273b" d="M 114.5,134.5 C 111.083,143.209 104.75,146.709 95.5,145C 89.5435,141.927 85.8768,137.094 84.5,130.5C 84.4571,127.09 84.9571,123.757 86,120.5C 90.3015,107.142 98.3015,104.142 110,111.5C 114.763,118.597 116.263,126.263 114.5,134.5 Z"/></g>
<g><path style="opacity:1" fill="#f2f2f2" d="M 97.5,115.5 C 99.5273,115.338 101.527,115.505 103.5,116C 108.322,122.686 108.655,129.519 104.5,136.5C 98.8711,139.443 95.0377,137.777 93,131.5C 91.7763,125.345 93.2763,120.012 97.5,115.5 Z"/></g>
<g><path style="opacity:1" fill="#d85695" d="M 84.5,130.5 C 85.8768,137.094 89.5435,141.927 95.5,145C 104.75,146.709 111.083,143.209 114.5,134.5C 123.067,134.487 131.734,135.153 140.5,136.5C 140.812,143.422 140.479,150.256 139.5,157C 138.5,157.667 137.5,157.667 136.5,157C 133.356,148.095 127.356,145.095 118.5,148C 115.141,151.561 112.808,155.727 111.5,160.5C 97.171,159.038 82.8376,157.538 68.5,156C 66.4971,155.665 64.8304,154.832 63.5,153.5C 61.9132,144.659 58.9132,136.326 54.5,128.5C 55.2739,127.853 56.2739,127.52 57.5,127.5C 66.4984,128.574 75.4984,129.574 84.5,130.5 Z"/></g>
<g><path style="opacity:1" fill="#2c273a" d="M 348.5,146.5 C 341.855,149.86 339.855,147.86 342.5,140.5C 343.594,139.418 344.927,138.752 346.5,138.5C 350.92,140.18 351.587,142.846 348.5,146.5 Z"/></g>
<g><path style="opacity:1" fill="#272538" d="M 28.5,152.5 C 38.4052,150.896 44.9052,154.896 48,164.5C 51.939,181.895 45.1057,188.728 27.5,185C 25,183.833 23.1667,182 22,179.5C 19.7228,172.004 20.0562,164.67 23,157.5C 24.7297,155.598 26.563,153.931 28.5,152.5 Z"/></g>
<g><path style="opacity:1" fill="#dc5b93" d="M 31.5,160.5 C 37.9785,161.66 41.3118,165.66 41.5,172.5C 41.6102,174.374 40.9436,175.874 39.5,177C 36.5,177.667 33.5,177.667 30.5,177C 28.5044,172.729 28.0044,168.229 29,163.5C 29.6979,162.309 30.5313,161.309 31.5,160.5 Z"/></g>
<g><path style="opacity:1" fill="#dc5c94" d="M 63.5,153.5 C 64.8304,154.832 66.4971,155.665 68.5,156C 82.8376,157.538 97.171,159.038 111.5,160.5C 107.825,173.214 105.659,186.214 105,199.5C 101.528,202.418 98.5281,202.085 96,198.5C 94.7746,190.814 93.4412,183.147 92,175.5C 88.8261,168.495 83.6594,166.328 76.5,169C 74.4565,170.708 72.7899,172.708 71.5,175C 68.975,175.896 66.8083,175.396 65,173.5C 64.6653,166.809 64.1653,160.143 63.5,153.5 Z"/></g>
<g><path style="opacity:1" fill="#d95c95" d="M 329.5,169.5 C 361.829,204.664 393.996,239.997 426,275.5C 426.198,273.618 426.698,271.952 427.5,270.5C 426.691,277.368 428.024,283.702 431.5,289.5C 430.504,289.586 429.671,289.252 429,288.5C 394.33,249.664 359.496,210.997 324.5,172.5C 325.965,171.263 327.632,170.263 329.5,169.5 Z"/></g>
<g><path style="opacity:1" fill="#f3b0ae" d="M 290.5,183.5 C 285.695,182.513 280.695,182.179 275.5,182.5C 279.388,181.314 280.388,178.814 278.5,175C 274.493,174.287 270.66,174.787 267,176.5C 266.322,178.598 266.489,180.598 267.5,182.5C 263.167,182.5 258.833,182.5 254.5,182.5C 256.819,176.803 254.819,174.136 248.5,174.5C 248.494,161.191 254.828,152.857 267.5,149.5C 266.507,154.675 268.507,156.509 273.5,155C 274.313,153.197 275.48,151.697 277,150.5C 288.995,154.329 296.829,162.329 300.5,174.5C 297.172,177.494 293.839,180.494 290.5,183.5 Z"/></g>
<g><path style="opacity:1" fill="#de5c95" d="M 324.5,172.5 C 359.496,210.997 394.33,249.664 429,288.5C 429.671,289.252 430.504,289.586 431.5,289.5C 437.795,294.624 443.961,299.957 450,305.5C 456.154,314.196 458.154,323.863 456,334.5C 453.871,341.426 450.704,347.759 446.5,353.5C 434.869,325.041 416.703,301.708 392,283.5C 392.777,280.369 394.777,278.036 398,276.5C 400.951,271.064 399.451,268.897 393.5,270C 390.948,272.853 388.115,275.353 385,277.5C 383.017,276.234 382.017,274.568 382,272.5C 387.086,267.483 392.086,262.483 397,257.5C 397.025,253.865 395.191,252.365 391.5,253C 386.548,258.917 380.881,263.584 374.5,267C 351.246,244.762 331.412,219.929 315,192.5C 313.5,188 312,183.5 310.5,179C 314.539,175.593 319.205,173.426 324.5,172.5 Z"/></g>
<g><path style="opacity:1" fill="#2a283b" d="M 275.5,182.5 C 272.833,182.5 270.167,182.5 267.5,182.5C 266.489,180.598 266.322,178.598 267,176.5C 270.66,174.787 274.493,174.287 278.5,175C 280.388,178.814 279.388,181.314 275.5,182.5 Z"/></g>
<g><path style="opacity:1" fill="#262538" d="M 141.5,183.5 C 150.342,182.499 156.175,186.166 159,194.5C 160.95,202.455 159.117,209.289 153.5,215C 142.459,219.991 134.959,216.824 131,205.5C 128.959,195.254 132.459,187.921 141.5,183.5 Z"/></g>
<g><path style="opacity:1" fill="#d95a92" d="M 142.5,191.5 C 148.445,191.444 151.445,194.444 151.5,200.5C 151.773,205.558 149.439,208.558 144.5,209.5C 140.222,207.899 138.222,204.732 138.5,200C 138.635,196.564 139.969,193.731 142.5,191.5 Z"/></g>
<g><path style="opacity:1" fill="#f5c4c2" d="M 254.5,182.5 C 258.833,182.5 263.167,182.5 267.5,182.5C 270.167,182.5 272.833,182.5 275.5,182.5C 280.695,182.179 285.695,182.513 290.5,183.5C 287.064,188.723 288.398,191.223 294.5,191C 297.333,188.167 300.167,185.333 303,182.5C 305.651,186.453 306.651,190.786 306,195.5C 303.472,201.237 299.972,206.237 295.5,210.5C 284.751,202.977 272.751,199.477 259.5,200C 258.446,198.612 258.28,197.112 259,195.5C 260.828,193.919 262.828,192.585 265,191.5C 265.825,189.299 265.325,187.466 263.5,186C 257.246,185.629 253.246,188.462 251.5,194.5C 250.732,196.715 250.065,199.048 249.5,201.5C 248.178,201.33 247.011,201.663 246,202.5C 245.435,195.482 245.601,188.482 246.5,181.5C 249.127,182.092 251.794,182.425 254.5,182.5 Z"/></g>
<g><path style="opacity:1" fill="#937a80" d="M 251.5,194.5 C 252.01,197.388 251.344,199.721 249.5,201.5C 250.065,199.048 250.732,196.715 251.5,194.5 Z"/></g>
<g><path style="opacity:1" fill="#262437" d="M 460.5,209.5 C 467.707,210.085 469.04,213.252 464.5,219C 460.324,221.632 457.658,220.632 456.5,216C 457.205,213.458 458.539,211.292 460.5,209.5 Z"/></g>
<g><path style="opacity:1" fill="#424357" d="M 331.5,244.5 C 304.726,242.522 277.726,241.856 250.5,242.5C 255.021,239.31 259.521,235.976 264,232.5C 267.586,236.287 271.753,238.953 276.5,240.5C 278.634,240.485 280.634,239.985 282.5,239C 284.293,237.22 285.96,235.387 287.5,233.5C 291.995,237.546 296.995,238.38 302.5,236C 304.871,234.257 306.205,231.923 306.5,229C 305.533,224.564 303.866,220.397 301.5,216.5C 305,211.5 308.5,206.5 312,201.5C 316.333,208.833 320.667,216.167 325,223.5C 328.267,230.135 330.433,237.135 331.5,244.5 Z"/></g>
<g><path style="opacity:1" fill="#3e4154" d="M 256.5,207.5 C 268.336,206.638 279.336,209.138 289.5,215C 294.125,218.415 297.125,222.915 298.5,228.5C 294.992,229.066 291.659,228.233 288.5,226C 286.833,225.333 285.167,225.333 283.5,226C 281.506,228.827 279.172,231.327 276.5,233.5C 272.755,229.583 268.588,226.25 264,223.5C 258.587,226.793 253.42,230.459 248.5,234.5C 245.072,231.707 241.572,229.04 238,226.5C 235.38,227.206 232.88,228.206 230.5,229.5C 230.167,228.833 229.833,228.167 229.5,227.5C 231.045,221.451 234.379,216.618 239.5,213C 245.061,210.468 250.728,208.634 256.5,207.5 Z"/></g>
<g><path style="opacity:1" fill="#f0c0bf" d="M 89.5,253.5 C 86.9966,254.084 84.4966,254.751 82,255.5C 80.9701,255.164 80.4701,254.497 80.5,253.5C 82.1927,245.063 84.3594,236.73 87,228.5C 88.5272,230.221 89.5272,232.221 90,234.5C 90.7511,240.884 90.5844,247.217 89.5,253.5 Z"/></g>
<g><path style="opacity:1" fill="#434a5c" d="M 250.5,242.5 C 277.726,241.856 304.726,242.522 331.5,244.5C 331.5,244.833 331.5,245.167 331.5,245.5C 331.5,246.833 331.5,248.167 331.5,249.5C 297.833,249.5 264.167,249.5 230.5,249.5C 231.224,246.157 232.057,242.824 233,239.5C 233.481,237.522 234.647,236.189 236.5,235.5C 239.615,237.439 242.615,239.606 245.5,242C 247.134,242.494 248.801,242.66 250.5,242.5 Z"/></g>
<g><path style="opacity:1" fill="#4a4a5c" d="M 331.5,245.5 C 332.99,250.077 333.656,254.91 333.5,260C 333.498,263.352 333.165,266.518 332.5,269.5C 332.5,268.5 332.5,267.5 332.5,266.5C 296.612,265.85 260.945,266.517 225.5,268.5C 226.589,261.918 228.256,255.585 230.5,249.5C 264.167,249.5 297.833,249.5 331.5,249.5C 331.5,248.167 331.5,246.833 331.5,245.5 Z"/></g>
<g><path style="opacity:1" fill="#eeeff4" d="M 217.5,272.5 C 216.517,276.298 216.183,280.298 216.5,284.5C 210.974,284.821 205.64,284.488 200.5,283.5C 202.693,268.893 206.36,254.727 211.5,241C 216.364,238.316 221.364,236.816 226.5,236.5C 221.932,248.105 218.932,260.105 217.5,272.5 Z"/></g>
<g><path style="opacity:1" fill="#edb6b5" d="M 57.5,271.5 C 55.0383,273.691 52.0383,275.024 48.5,275.5C 48.5,273.167 48.5,270.833 48.5,268.5C 51.289,257.338 53.1223,246.005 54,234.5C 55.7658,236.596 57.0991,238.929 58,241.5C 58.1673,251.497 58.0006,261.497 57.5,271.5 Z"/></g>
<g><path style="opacity:1" fill="#d0717e" d="M 24.5,263.5 C 29.2084,268.375 34.375,272.708 40,276.5C 40.4925,280.631 41.1591,284.631 42,288.5C 36.7765,285.943 32.1098,282.609 28,278.5C 26.0455,273.682 24.8788,268.682 24.5,263.5 Z"/></g>
<g><path style="opacity:1" fill="#4a4b63" d="M 332.5,269.5 C 331.869,279.903 328.035,288.903 321,296.5C 320.879,292.184 321.045,287.85 321.5,283.5C 321.933,279.218 320.933,275.385 318.5,272C 314.075,271.044 312.408,272.877 313.5,277.5C 283.76,277.175 254.093,277.508 224.5,278.5C 224.253,275.061 224.586,271.728 225.5,268.5C 260.945,266.517 296.612,265.85 332.5,266.5C 332.5,267.5 332.5,268.5 332.5,269.5 Z"/></g>
<g><path style="opacity:1" fill="#8f89a8" d="M 190.5,290.5 C 173.341,289.503 156.008,289.17 138.5,289.5C 156.179,269.863 177.179,255.53 201.5,246.5C 197.178,261.122 193.511,275.789 190.5,290.5 Z"/></g>
<g><path style="opacity:1" fill="#eca3a0" d="M 114.5,283.5 C 104.074,284.483 93.5742,286.483 83,289.5C 82.2352,289.43 81.7352,289.097 81.5,288.5C 81.4535,285.072 80.2868,282.072 78,279.5C 76.9321,270.511 77.7655,261.845 80.5,253.5C 80.4701,254.497 80.9701,255.164 82,255.5C 84.4966,254.751 86.9966,254.084 89.5,253.5C 89.3297,261.704 88.663,269.87 87.5,278C 87.2592,281.592 88.9259,283.425 92.5,283.5C 103.085,282.809 109.918,277.476 113,267.5C 114.279,261.55 115.279,255.55 116,249.5C 118.106,251.377 119.439,253.71 120,256.5C 120.861,263.975 120.194,271.309 118,278.5C 117.303,280.584 116.136,282.251 114.5,283.5 Z"/></g>
<g><path style="opacity:1" fill="#6770a5" d="M 352.5,277.5 C 349.433,285.305 345.099,292.305 339.5,298.5C 337.175,290.079 337.341,281.746 340,273.5C 340.852,262.042 340.519,250.709 339,239.5C 342,243.167 345,246.833 348,250.5C 349.831,259.492 351.331,268.492 352.5,277.5 Z"/></g>
<g><path style="opacity:1" fill="#ec9894" d="M 114.5,283.5 C 113.073,286.764 110.739,289.264 107.5,291C 95.712,296.243 83.3786,297.909 70.5,296C 66.9101,295.689 63.5767,294.856 60.5,293.5C 66.0909,293.523 71.0909,292.19 75.5,289.5C 77.7508,290.865 79.7508,290.531 81.5,288.5C 81.7352,289.097 82.2352,289.43 83,289.5C 93.5742,286.483 104.074,284.483 114.5,283.5 Z"/></g>
<g><path style="opacity:1" fill="#4f5063" d="M 313.5,277.5 C 313.666,282.511 313.499,287.511 313,292.5C 312.902,295.522 312.068,298.189 310.5,300.5C 284.672,299.502 258.672,299.169 232.5,299.5C 227.105,293.663 224.438,286.663 224.5,278.5C 254.093,277.508 283.76,277.175 313.5,277.5 Z"/></g>
<g><path style="opacity:1" fill="#eea39f" d="M 48.5,268.5 C 48.5,270.833 48.5,273.167 48.5,275.5C 52.0383,275.024 55.0383,273.691 57.5,271.5C 58.2172,273.953 59.3838,276.287 61,278.5C 64.2557,280.879 67.7557,282.879 71.5,284.5C 72.8569,286.186 74.1902,287.852 75.5,289.5C 71.0909,292.19 66.0909,293.523 60.5,293.5C 51.4874,290.501 47.1541,284.168 47.5,274.5C 47.5046,272.304 47.838,270.304 48.5,268.5 Z"/></g>
<g><path style="opacity:1" fill="#8882a2" d="M 138.5,289.5 C 156.008,289.17 173.341,289.503 190.5,290.5C 189.592,297.521 188.592,304.521 187.5,311.5C 165.167,311.5 142.833,311.5 120.5,311.5C 125.554,303.392 131.554,296.059 138.5,289.5 Z"/></g>
<g><path style="opacity:1" fill="#e3e7f4" d="M 217.5,272.5 C 217.666,277.844 217.499,283.177 217,288.5C 215.6,295.469 214.433,302.469 213.5,309.5C 207.833,309.5 202.167,309.5 196.5,309.5C 196.5,308.167 196.5,306.833 196.5,305.5C 196.958,297.888 198.291,290.554 200.5,283.5C 205.64,284.488 210.974,284.821 216.5,284.5C 216.183,280.298 216.517,276.298 217.5,272.5 Z"/></g>
<g><path style="opacity:1" fill="#d67481" d="M 327.5,376.5 C 327.817,372.298 327.483,368.298 326.5,364.5C 325.982,351.71 324.482,339.043 322,326.5C 313.218,342.949 300.718,355.782 284.5,365C 280.149,366.945 275.816,368.779 271.5,370.5C 271.665,367.482 271.498,364.482 271,361.5C 269.116,359.424 266.949,359.09 264.5,360.5C 263.607,363.084 263.274,365.751 263.5,368.5C 258.642,367.404 254.309,365.238 250.5,362C 241.04,353.713 233.707,343.88 228.5,332.5C 225.104,346.052 223.771,359.719 224.5,373.5C 221.492,372.58 218.659,371.246 216,369.5C 216.23,345.971 218.563,322.638 223,299.5C 228.201,312.906 235.201,325.24 244,336.5C 251.36,344.098 259.86,350.098 269.5,354.5C 289.699,344.969 305.032,330.302 315.5,310.5C 321.48,306.354 326.646,301.354 331,295.5C 334.068,319.728 335.402,344.061 335,368.5C 333.653,372.344 331.153,375.011 327.5,376.5 Z"/></g>
<g><path style="opacity:1" fill="#505069" d="M 232.5,299.5 C 258.672,299.169 284.672,299.502 310.5,300.5C 310.293,303.241 309.293,305.574 307.5,307.5C 283.5,307.5 259.5,307.5 235.5,307.5C 233.98,305.11 232.98,302.443 232.5,299.5 Z"/></g>
<g><path style="opacity:1" fill="#d87582" d="M 112.5,334.5 C 97.0903,334.485 83.0903,330.151 70.5,321.5C 70.1707,315.463 70.5041,309.463 71.5,303.5C 82.2846,305.049 92.9513,304.382 103.5,301.5C 104.672,313.014 107.672,324.014 112.5,334.5 Z"/></g>
<g><path style="opacity:1" fill="#8983a3" d="M 417.5,318.5 C 416.833,322.5 416.167,326.5 415.5,330.5C 398.833,330.5 382.167,330.5 365.5,330.5C 363.72,307.753 361.554,285.087 359,262.5C 362.349,265.682 365.516,269.015 368.5,272.5C 365.494,274.357 364.828,276.857 366.5,280C 369.672,280.425 372.672,280.091 375.5,279C 383.248,286.752 391.581,293.752 400.5,300C 406.741,305.737 412.408,311.903 417.5,318.5 Z"/></g>
<g><path style="opacity:1" fill="#dce2f5" d="M 196.5,305.5 C 196.5,306.833 196.5,308.167 196.5,309.5C 202.167,309.5 207.833,309.5 213.5,309.5C 212.686,317.529 211.686,325.529 210.5,333.5C 204.074,334.12 198.074,333.453 192.5,331.5C 192.825,322.549 194.158,313.883 196.5,305.5 Z"/></g>
<g><path style="opacity:1" fill="#514b64" d="M 118.5,314.5 C 130.879,320.684 142.212,328.351 152.5,337.5C 143.983,337.174 135.65,337.507 127.5,338.5C 122.338,334.164 118.505,328.831 116,322.5C 115.411,319.354 116.245,316.688 118.5,314.5 Z"/></g>
<g><path style="opacity:1" fill="#807a9a" d="M 120.5,311.5 C 142.833,311.5 165.167,311.5 187.5,311.5C 184.66,330.054 182.66,348.72 181.5,367.5C 176.538,361.203 171.205,355.203 165.5,349.5C 161.193,345.528 156.859,341.528 152.5,337.5C 142.212,328.351 130.879,320.684 118.5,314.5C 119.167,313.5 119.833,312.5 120.5,311.5 Z"/></g>
<g><path style="opacity:1" fill="#e5eaf5" d="M 352.5,277.5 C 355.482,294.676 357.149,312.01 357.5,329.5C 352.5,329.5 347.5,329.5 342.5,329.5C 341.135,319.21 340.135,308.877 339.5,298.5C 345.099,292.305 349.433,285.305 352.5,277.5 Z"/></g>
<g><path style="opacity:1" fill="#545669" d="M 235.5,307.5 C 259.5,307.5 283.5,307.5 307.5,307.5C 298.93,324.405 286.263,337.405 269.5,346.5C 253.759,337.357 242.426,324.357 235.5,307.5 Z"/></g>
<g><path style="opacity:1" fill="#817c9b" d="M 365.5,330.5 C 382.167,330.5 398.833,330.5 415.5,330.5C 413.366,341.235 410.033,351.569 405.5,361.5C 392.5,361.5 379.5,361.5 366.5,361.5C 366.76,351.128 366.427,340.794 365.5,330.5 Z"/></g>
<g><path style="opacity:1" fill="#f8c7c2" d="M 70.5,321.5 C 83.0903,330.151 97.0903,334.485 112.5,334.5C 113.11,335.391 113.443,336.391 113.5,337.5C 99.0053,340.733 84.3387,343.733 69.5,346.5C 68.8933,346.376 68.56,346.043 68.5,345.5C 69.2175,337.506 69.8842,329.506 70.5,321.5 Z"/></g>
<g><path style="opacity:1" fill="#d5ddf6" d="M 192.5,331.5 C 198.074,333.453 204.074,334.12 210.5,333.5C 209.44,343.161 208.44,352.827 207.5,362.5C 201.5,362.5 195.5,362.5 189.5,362.5C 189.611,351.937 190.611,341.604 192.5,331.5 Z"/></g>
<g><path style="opacity:1" fill="#4b4463" d="M 152.5,337.5 C 156.859,341.528 161.193,345.528 165.5,349.5C 155.681,350.494 145.681,350.827 135.5,350.5C 132.846,346.537 130.18,342.537 127.5,338.5C 135.65,337.507 143.983,337.174 152.5,337.5 Z"/></g>
<g><path style="opacity:1" fill="#f8bebc" d="M 113.5,337.5 C 116.743,344.556 119.409,351.889 121.5,359.5C 103.185,362.608 84.8521,365.608 66.5,368.5C 66.5,365.167 66.5,361.833 66.5,358.5C 66.2796,353.9 66.9462,349.567 68.5,345.5C 68.56,346.043 68.8933,346.376 69.5,346.5C 84.3387,343.733 99.0053,340.733 113.5,337.5 Z"/></g>
<g><path style="opacity:1" fill="#4a435c" d="M 165.5,349.5 C 171.205,355.203 176.538,361.203 181.5,367.5C 181.407,373.516 181.074,379.516 180.5,385.5C 169.986,385.172 159.653,385.506 149.5,386.5C 146.634,373.919 141.967,361.919 135.5,350.5C 145.681,350.827 155.681,350.494 165.5,349.5 Z"/></g>
<g><path style="opacity:1" fill="#4b445e" d="M 417.5,318.5 C 433.593,338.312 443.26,360.979 446.5,386.5C 428.577,385.514 410.577,385.181 392.5,385.5C 397.863,378.112 402.196,370.112 405.5,361.5C 410.033,351.569 413.366,341.235 415.5,330.5C 416.167,326.5 416.833,322.5 417.5,318.5 Z"/></g>
<g><path style="opacity:1" fill="#dae1f8" d="M 342.5,329.5 C 347.5,329.5 352.5,329.5 357.5,329.5C 358.484,345.422 358.817,361.422 358.5,377.5C 353.5,377.5 348.5,377.5 343.5,377.5C 343.825,369.648 343.492,361.982 342.5,354.5C 342.5,346.167 342.5,337.833 342.5,329.5 Z"/></g>
<g><path style="opacity:1" fill="#f9c1be" d="M 326.5,364.5 C 326.5,368.167 326.5,371.833 326.5,375.5C 307.803,376.154 289.47,375.487 271.5,373.5C 271.5,372.5 271.5,371.5 271.5,370.5C 275.816,368.779 280.149,366.945 284.5,365C 300.718,355.782 313.218,342.949 322,326.5C 324.482,339.043 325.982,351.71 326.5,364.5 Z"/></g>
<g><path style="opacity:1" fill="#f9bab4" d="M 121.5,359.5 C 122.15,361.435 122.483,363.435 122.5,365.5C 103.903,369.044 85.2365,372.378 66.5,375.5C 66.5,373.167 66.5,370.833 66.5,368.5C 84.8521,365.608 103.185,362.608 121.5,359.5 Z"/></g>
<g><path style="opacity:1" fill="#353041" d="M 312.5,360.5 C 317.501,359.671 319.668,361.671 319,366.5C 315.823,368.783 312.323,369.617 308.5,369C 306.789,367.867 306.289,366.367 307,364.5C 308.456,362.535 310.29,361.201 312.5,360.5 Z"/></g>
<g><path style="opacity:1" fill="#7a7493" d="M 366.5,361.5 C 379.5,361.5 392.5,361.5 405.5,361.5C 402.196,370.112 397.863,378.112 392.5,385.5C 384.606,396.231 375.44,405.898 365,414.5C 364.506,412.866 364.34,411.199 364.5,409.5C 365.597,393.52 366.264,377.52 366.5,361.5 Z"/></g>
<g><path style="opacity:1" fill="#f6bdba" d="M 263.5,368.5 C 263.124,378.876 257.791,382.709 247.5,380C 239.637,378.394 231.97,376.227 224.5,373.5C 223.771,359.719 225.104,346.052 228.5,332.5C 233.707,343.88 241.04,353.713 250.5,362C 254.309,365.238 258.642,367.404 263.5,368.5 Z"/></g>
<g><path style="opacity:1" fill="#2c2a3c" d="M 230.5,360.5 C 233.568,361.022 236.568,361.855 239.5,363C 241.35,366.747 240.183,368.914 236,369.5C 229.096,369.154 227.262,366.154 230.5,360.5 Z"/></g>
<g><path style="opacity:1" fill="#f8b4af" d="M 67.5,389.5 C 67.5,387.833 67.5,386.167 67.5,384.5C 68.2297,382.955 69.563,382.122 71.5,382C 88.7377,378.989 105.904,375.822 123,372.5C 123.497,375.146 123.664,377.813 123.5,380.5C 104.833,383.5 86.1667,386.5 67.5,389.5 Z"/></g>
<g><path style="opacity:1" fill="#cbd5f7" d="M 189.5,362.5 C 195.5,362.5 201.5,362.5 207.5,362.5C 207.351,372.841 207.018,383.174 206.5,393.5C 205.673,398.651 205.173,403.984 205,409.5C 200.504,398.502 195.004,388.169 188.5,378.5C 188.833,373.167 189.167,367.833 189.5,362.5 Z"/></g>
<g><path style="opacity:1" fill="#d67581" d="M 222.5,381.5 C 221.225,387.966 220.392,394.632 220,401.5C 219.5,414.829 219.333,428.163 219.5,441.5C 219.391,448.196 219.724,454.863 220.5,461.5C 220.646,465.519 220.979,469.519 221.5,473.5C 219.738,473.643 218.071,473.309 216.5,472.5C 213.347,440.867 212.847,409.2 215,377.5C 217.514,379.004 220.014,380.338 222.5,381.5 Z"/></g>
<g><path style="opacity:1" fill="#f1aeae" d="M 66.5,358.5 C 66.5,361.833 66.5,365.167 66.5,368.5C 66.5,370.833 66.5,373.167 66.5,375.5C 85.2365,372.378 103.903,369.044 122.5,365.5C 123.954,370.423 124.621,375.589 124.5,381C 124.498,384.352 124.165,387.518 123.5,390.5C 122.903,389.861 122.07,389.528 121,389.5C 104.843,392.387 88.6763,395.221 72.5,398C 71.5842,398.278 70.9175,398.778 70.5,399.5C 69.257,396.323 68.257,392.99 67.5,389.5C 86.1667,386.5 104.833,383.5 123.5,380.5C 123.664,377.813 123.497,375.146 123,372.5C 105.904,375.822 88.7377,378.989 71.5,382C 69.563,382.122 68.2297,382.955 67.5,384.5C 65.4654,375.882 65.1321,367.216 66.5,358.5 Z"/></g>
<g><path style="opacity:1" fill="#d87683" d="M 317.5,473.5 C 318.5,469.499 319.5,465.499 320.5,461.5C 322.262,454.93 323.595,448.263 324.5,441.5C 327.033,422.945 328.033,404.278 327.5,385.5C 329.396,384.519 331.396,383.519 333.5,382.5C 333.935,412.821 330.935,442.821 324.5,472.5C 322.097,472.448 319.764,472.781 317.5,473.5 Z"/></g>
<g><path style="opacity:1" fill="#f5b7b4" d="M 326.5,364.5 C 327.483,368.298 327.817,372.298 327.5,376.5C 324.058,377.748 320.392,378.581 316.5,379C 304.793,379.578 293.126,379.578 281.5,379C 278.833,381.333 278.833,383.667 281.5,386C 290.844,385.345 298.51,388.512 304.5,395.5C 294.833,395.5 285.167,395.5 275.5,395.5C 274.5,395.5 273.5,395.5 272.5,395.5C 263.318,395.827 254.318,395.493 245.5,394.5C 246.716,392.549 248.382,391.049 250.5,390C 255.113,388.209 259.78,386.543 264.5,385C 268.021,381.775 270.354,377.942 271.5,373.5C 289.47,375.487 307.803,376.154 326.5,375.5C 326.5,371.833 326.5,368.167 326.5,364.5 Z"/></g>
<g><path style="opacity:1" fill="#f2aea7" d="M 123.5,390.5 C 123.599,393.237 123.265,395.904 122.5,398.5C 121.584,398.018 120.584,397.685 119.5,397.5C 103.878,400.492 88.2118,403.159 72.5,405.5C 71.2616,403.786 70.595,401.786 70.5,399.5C 70.9175,398.778 71.5842,398.278 72.5,398C 88.6763,395.221 104.843,392.387 121,389.5C 122.07,389.528 122.903,389.861 123.5,390.5 Z"/></g>
<g><path style="opacity:1" fill="#443d56" d="M 180.5,385.5 C 180.377,400.847 180.71,416.18 181.5,431.5C 170.5,432.833 159.5,432.833 148.5,431.5C 150.752,416.596 151.085,401.596 149.5,386.5C 159.653,385.506 169.986,385.172 180.5,385.5 Z"/></g>
<g><path style="opacity:1" fill="#807b9a" d="M 48.5,417.5 C 45.3457,418.967 42.3457,418.634 39.5,416.5C 37.9497,389.718 44.783,365.385 60,343.5C 60.1141,346.833 59.7808,350.166 59,353.5C 49.6904,373.827 46.1904,395.16 48.5,417.5 Z"/></g>
<g><path style="opacity:1" fill="#827c9b" d="M 142.5,398.5 C 142.5,403.167 142.5,407.833 142.5,412.5C 139.167,412.5 135.833,412.5 132.5,412.5C 132.5,411.167 132.5,409.833 132.5,408.5C 133.434,398.181 133.601,387.847 133,377.5C 131.622,369.338 129.955,361.338 128,353.5C 136.744,367.232 141.577,382.232 142.5,398.5 Z"/></g>
<g><path style="opacity:1" fill="#443e56" d="M 392.5,385.5 C 410.577,385.181 428.577,385.514 446.5,386.5C 447.601,393.837 446.101,400.503 442,406.5C 433.436,416.684 423.603,425.351 412.5,432.5C 395.5,432.5 378.5,432.5 361.5,432.5C 362.207,424.664 363.207,416.997 364.5,409.5C 364.34,411.199 364.506,412.866 365,414.5C 375.44,405.898 384.606,396.231 392.5,385.5 Z"/></g>
<g><path style="opacity:1" fill="#2c293b" d="M 272.5,395.5 C 273.5,395.5 274.5,395.5 275.5,395.5C 276.815,396.667 277.481,398.167 277.5,400C 272.301,409.183 271.301,418.85 274.5,429C 272.987,432.704 271.987,436.538 271.5,440.5C 270.353,444.646 270.186,448.98 271,453.5C 272.341,456.022 273.174,458.689 273.5,461.5C 272.872,464.955 270.872,466.122 267.5,465C 266.269,462.834 265.269,460.667 264.5,458.5C 263.587,452.559 263.254,446.559 263.5,440.5C 263.357,438.738 263.691,437.071 264.5,435.5C 257.858,434.669 251.191,434.169 244.5,434C 240.777,432.741 239.777,430.408 241.5,427C 249.493,426.5 257.493,426.334 265.5,426.5C 262.958,415.005 265.292,404.672 272.5,395.5 Z"/></g>
<g><path style="opacity:1" fill="#f2a7a3" d="M 122.5,398.5 C 120.843,403.152 119.176,407.819 117.5,412.5C 104.763,414.622 92.0962,416.956 79.5,419.5C 76.1091,415.385 73.7757,410.718 72.5,405.5C 88.2118,403.159 103.878,400.492 119.5,397.5C 120.584,397.685 121.584,398.018 122.5,398.5 Z"/></g>
<g><path style="opacity:1" fill="#636ea4" d="M 188.5,378.5 C 195.004,388.169 200.504,398.502 205,409.5C 205.173,403.984 205.673,398.651 206.5,393.5C 206.333,404.003 206,414.503 205.5,425C 206.527,440.152 207.193,455.319 207.5,470.5C 203.137,469.884 198.803,469.05 194.5,468C 193.151,467.228 192.318,466.061 192,464.5C 188.937,435.922 187.771,407.255 188.5,378.5 Z"/></g>
<g><path style="opacity:1" fill="#c5cff3" d="M 342.5,354.5 C 343.492,361.982 343.825,369.648 343.5,377.5C 348.5,377.5 353.5,377.5 358.5,377.5C 358.578,392.443 357.245,407.109 354.5,421.5C 349.632,424.434 344.632,427.1 339.5,429.5C 342.029,404.57 343.029,379.57 342.5,354.5 Z"/></g>
<g><path style="opacity:1" fill="#f3b0ae" d="M 222.5,381.5 C 228.77,383.485 235.103,385.318 241.5,387C 232.951,394.596 227.951,404.096 226.5,415.5C 226.973,421.933 229.473,422.933 234,418.5C 234.387,408.729 238.221,400.729 245.5,394.5C 254.318,395.493 263.318,395.827 272.5,395.5C 265.292,404.672 262.958,415.005 265.5,426.5C 257.493,426.334 249.493,426.5 241.5,427C 239.777,430.408 240.777,432.741 244.5,434C 251.191,434.169 257.858,434.669 264.5,435.5C 263.691,437.071 263.357,438.738 263.5,440.5C 248.912,441.483 234.245,441.816 219.5,441.5C 219.333,428.163 219.5,414.829 220,401.5C 220.392,394.632 221.225,387.966 222.5,381.5 Z"/></g>
<g><path style="opacity:1" fill="#f3b0ad" d="M 327.5,385.5 C 328.033,404.278 327.033,422.945 324.5,441.5C 306.659,441.83 288.992,441.497 271.5,440.5C 271.987,436.538 272.987,432.704 274.5,429C 271.301,418.85 272.301,409.183 277.5,400C 277.481,398.167 276.815,396.667 275.5,395.5C 285.167,395.5 294.833,395.5 304.5,395.5C 310.617,401.415 313.783,408.748 314,417.5C 318.821,420.823 321.321,419.49 321.5,413.5C 320.206,403.265 315.872,394.598 308.5,387.5C 314.815,386.597 321.149,385.93 327.5,385.5 Z"/></g>
<g><path style="opacity:1" fill="#ee9e9b" d="M 117.5,412.5 C 114.18,419.138 110.347,425.471 106,431.5C 101.994,436.166 97.4944,436.666 92.5,433C 87.2902,429.291 82.9569,424.791 79.5,419.5C 92.0962,416.956 104.763,414.622 117.5,412.5 Z"/></g>
<g><path style="opacity:1" fill="#3e374b" d="M 57.5,380.5 C 59.5319,387.959 61.3652,395.625 63,403.5C 67.9697,418.47 76.803,430.637 89.5,440C 96.4038,443.583 103.07,443.25 109.5,439C 114.875,432.423 119.375,425.256 123,417.5C 120.413,432.591 115.413,446.925 108,460.5C 105.058,465.153 100.891,466.653 95.5,465C 71.9509,454.417 58.7843,436.25 56,410.5C 55.1709,400.416 55.6709,390.416 57.5,380.5 Z"/></g>
<g><path style="opacity:1" fill="#2f2b3d" d="M 297.5,427.5 C 303.113,426.079 305.28,428.079 304,433.5C 297.81,436.312 291.31,437.146 284.5,436C 281.828,433.321 282.162,430.988 285.5,429C 289.688,428.824 293.688,428.324 297.5,427.5 Z"/></g>
<g><path style="opacity:1" fill="#3f3750" d="M 148.5,431.5 C 159.5,432.833 170.5,432.833 181.5,431.5C 181.693,442.455 182.693,453.288 184.5,464C 171.044,461.547 158.044,457.38 145.5,451.5C 145.167,450.833 144.833,450.167 144.5,449.5C 145.839,443.48 147.172,437.48 148.5,431.5 Z"/></g>
<g><path style="opacity:1" fill="#3f3750" d="M 361.5,432.5 C 378.5,432.5 395.5,432.5 412.5,432.5C 395.14,445.349 376.14,455.349 355.5,462.5C 357.5,452.504 359.5,442.504 361.5,432.5 Z"/></g>
<g><path style="opacity:1" fill="#5d699f" d="M 354.5,421.5 C 353.08,436.749 350.413,451.749 346.5,466.5C 342.03,467.368 337.696,468.701 333.5,470.5C 334.944,456.905 336.944,443.239 339.5,429.5C 344.632,427.1 349.632,424.434 354.5,421.5 Z"/></g>
<g><path style="opacity:1" fill="#f1a7a2" d="M 263.5,440.5 C 263.254,446.559 263.587,452.559 264.5,458.5C 264.5,459.5 264.5,460.5 264.5,461.5C 249.833,461.5 235.167,461.5 220.5,461.5C 219.724,454.863 219.391,448.196 219.5,441.5C 234.245,441.816 248.912,441.483 263.5,440.5 Z"/></g>
<g><path style="opacity:1" fill="#f2a7a3" d="M 271.5,440.5 C 288.992,441.497 306.659,441.83 324.5,441.5C 323.595,448.263 322.262,454.93 320.5,461.5C 304.833,461.5 289.167,461.5 273.5,461.5C 273.174,458.689 272.341,456.022 271,453.5C 270.186,448.98 270.353,444.646 271.5,440.5 Z"/></g>
<g><path style="opacity:1" fill="#f0a09f" d="M 264.5,458.5 C 265.269,460.667 266.269,462.834 267.5,465C 270.872,466.122 272.872,464.955 273.5,461.5C 289.167,461.5 304.833,461.5 320.5,461.5C 319.5,465.499 318.5,469.499 317.5,473.5C 285.51,477.397 253.51,477.397 221.5,473.5C 220.979,469.519 220.646,465.519 220.5,461.5C 235.167,461.5 249.833,461.5 264.5,461.5C 264.5,460.5 264.5,459.5 264.5,458.5 Z"/></g>
<g><path style="opacity:1" fill="#716c8a" d="M 142.5,398.5 C 143.706,429.344 136.54,458.344 121,485.5C 116.96,492.845 110.793,496.011 102.5,495C 64.7429,482.398 43.7429,456.231 39.5,416.5C 42.3457,418.634 45.3457,418.967 48.5,417.5C 54.4136,443.599 69.747,462.099 94.5,473C 103.682,474.825 110.516,471.658 115,463.5C 123.788,445.986 129.621,427.653 132.5,408.5C 132.5,409.833 132.5,411.167 132.5,412.5C 135.833,412.5 139.167,412.5 142.5,412.5C 142.5,407.833 142.5,403.167 142.5,398.5 Z"/></g>
</svg>
