<?xml version="1.0" encoding="UTF-8"?>
<!DOCTYPE svg PUBLIC "-//W3C//DTD SVG 1.1//EN" "http://www.w3.org/Graphics/SVG/1.1/DTD/svg11.dtd">
<svg xmlns="http://www.w3.org/2000/svg" version="1.1" width="512px" height="512px" style="shape-rendering:geometricPrecision; text-rendering:geometricPrecision; image-rendering:optimizeQuality; fill-rule:evenodd; clip-rule:evenodd" xmlns:xlink="http://www.w3.org/1999/xlink">
<g><path style="opacity:1" fill="#282639" d="M 332.5,7.5 C 335.785,7.73574 338.785,8.73574 341.5,10.5C 346.142,16.9755 350.975,23.3089 356,29.5C 366.687,17.7393 379.853,11.2393 395.5,10C 398.249,11.1227 400.749,12.6227 403,14.5C 407.483,11.0924 412.483,8.7591 418,7.5C 427.972,9.43057 431.972,15.4306 430,25.5C 426.454,30.7134 421.954,34.88 416.5,38C 440.651,62.1802 458.318,90.5135 469.5,123C 468.998,126.197 467.998,129.197 466.5,132C 473.713,150.154 476.546,168.987 475,188.5C 472.032,193.48 469.032,198.48 466,203.5C 456.446,233.143 439.613,257.643 415.5,277C 416.531,282.135 416.698,287.302 416,292.5C 438.526,317.605 445.86,346.605 438,379.5C 434.728,383.758 430.562,385.091 425.5,383.5C 424.522,383.977 423.689,384.643 423,385.5C 414.872,401.423 404.539,415.756 392,428.5C 391.242,430.769 391.409,432.936 392.5,435C 407.167,435.333 421.833,435.667 436.5,436C 444.567,436.689 451.9,439.355 458.5,444C 464.62,449.153 470.453,454.653 476,460.5C 478,462.5 478,464.5 476,466.5C 468.036,474.803 459.203,481.97 449.5,488C 445.339,489.737 441.005,490.737 436.5,491C 339.167,491.5 241.834,491.667 144.5,491.5C 144.062,495.072 143.396,498.572 142.5,502C 135.943,503.586 129.276,503.92 122.5,503C 117.126,502.318 113.126,499.652 110.5,495C 107.333,495.078 104.166,495.578 101,496.5C 96.4071,496.189 92.4071,494.522 89,491.5C 80.65,495.665 72.4834,495.332 64.5,490.5C 55.9724,494.76 48.139,493.76 41,487.5C 39.5611,485.725 38.5611,483.725 38,481.5C 37.0762,469.08 37.7429,456.746 40,444.5C 41.9342,436.065 47.1009,430.732 55.5,428.5C 64.7679,402.114 79.4345,379.281 99.5,360C 102.417,358.472 105.417,357.139 108.5,356C 90.7827,355.64 76.4494,348.64 65.5,335C 61.6972,335.776 57.8639,335.61 54,334.5C 51.7995,333.038 51.1328,331.038 52,328.5C 54.2428,327.029 56.7428,326.029 59.5,325.5C 58.5428,323.082 57.2095,320.916 55.5,319C 49.4265,318.847 43.5931,317.68 38,315.5C 37.2419,313.231 37.4086,311.064 38.5,309C 43.4702,308.393 48.3035,308.893 53,310.5C 46.4726,287.037 47.1392,263.703 55,240.5C 56.9904,237.278 59.4904,236.778 62.5,239C 64.495,246.659 67.8283,253.659 72.5,260C 82.2067,263.569 89.0401,260.403 93,250.5C 93.853,240.194 91.1864,230.861 85,222.5C 76.9905,214.156 69.3238,205.489 62,196.5C 51.3323,181.169 44.9989,164.169 43,145.5C 39.3564,142.371 36.8564,138.538 35.5,134C 36.6868,129.245 39.1868,128.411 43,131.5C 43.9907,130.57 44.4907,129.404 44.5,128C 42.7447,123.657 40.578,119.491 38,115.5C 36.2088,109.123 38.3755,107.123 44.5,109.5C 45.5312,110.7 46.3645,112.034 47,113.5C 53.2278,92.7154 61.8945,73.0487 73,54.5C 76.9837,52.4762 79.6504,53.4762 81,57.5C 82.4446,77.3099 88.7779,95.3099 100,111.5C 110.915,122.236 123.415,124.403 137.5,118C 145.141,115.359 149.474,110.026 150.5,102C 146.53,88.226 139.363,76.3926 129,66.5C 128.333,65.1667 128.333,63.8333 129,62.5C 132.361,59.7365 136.195,57.9032 140.5,57C 177.235,51.4516 205.068,64.6183 224,96.5C 232.037,105.366 240.37,105.699 249,97.5C 249.985,95.6341 250.485,93.6341 250.5,91.5C 249.993,87.8056 249.326,84.1389 248.5,80.5C 248.57,79.2284 248.903,78.0617 249.5,77C 256.473,76.7678 262.806,78.7678 268.5,83C 284.42,96.3427 292.753,113.509 293.5,134.5C 298.893,135.193 303.893,137.027 308.5,140C 319.572,148.66 328.405,159.16 335,171.5C 340.951,182.063 345.784,193.063 349.5,204.5C 352.428,204.852 355.262,205.518 358,206.5C 363.336,189.637 373.169,176.137 387.5,166C 392.525,162.985 397.858,160.818 403.5,159.5C 403.664,156.813 403.497,154.146 403,151.5C 399.535,149.023 397.202,145.69 396,141.5C 397.178,122.06 393.678,103.56 385.5,86C 385.167,85.8333 384.833,85.6667 384.5,85.5C 383.669,92.8108 383.169,100.144 383,107.5C 382.529,109.246 381.862,110.913 381,112.5C 368.639,123.599 355.139,133.099 340.5,141C 331.406,143.2 323.906,140.7 318,133.5C 305.667,117.167 293.333,100.833 281,84.5C 279.566,80.5935 279.233,76.5935 280,72.5C 281.17,63.143 282.503,53.8097 284,44.5C 284.725,42.0506 285.725,39.7173 287,37.5C 301.28,26.0349 316.446,16.0349 332.5,7.5 Z M 173.5,396.5 C 174.117,396.611 174.617,396.944 175,397.5C 176.523,405.579 179.69,412.913 184.5,419.5C 186.192,420.969 188.192,421.635 190.5,421.5C 193.57,420.939 196.57,420.439 199.5,420C 205.187,426.188 211.854,431.021 219.5,434.5C 195.509,435.5 171.509,435.833 147.5,435.5C 147.671,430.804 148.171,426.137 149,421.5C 153.366,416.799 158.033,412.466 163,408.5C 164.444,405.945 165.611,403.279 166.5,400.5C 169.059,399.392 171.392,398.059 173.5,396.5 Z"/></g>
<g><path style="opacity:1" fill="#dc797b" d="M 388.5,17.5 C 392.95,17.1416 396.45,18.8083 399,22.5C 400.667,25.8333 402.333,29.1667 404,32.5C 404.79,35.634 404.457,38.634 403,41.5C 399.172,44.4148 395.172,47.0814 391,49.5C 390.226,45.9513 388.893,42.618 387,39.5C 385.883,37.8757 384.383,36.8757 382.5,36.5C 375.344,39.8173 368.844,44.1507 363,49.5C 360.154,45.9616 359.154,41.9616 360,37.5C 367.939,28.4609 377.439,21.7942 388.5,17.5 Z"/></g>
<g><path style="opacity:1" fill="#3b3c4f" d="M 414.5,16.5 C 420.934,15.169 423.267,17.5023 421.5,23.5C 418.455,26.5466 415.122,29.2133 411.5,31.5C 410.241,28.2928 408.908,25.1261 407.5,22C 409.903,20.147 412.236,18.3137 414.5,16.5 Z"/></g>
<g><path style="opacity:1" fill="#252437" d="M 142.5,21.5 C 144.527,21.3379 146.527,21.5045 148.5,22C 152.293,25.0623 154.126,28.8957 154,33.5C 152.192,35.3959 150.025,35.8959 147.5,35C 144.644,32.1519 142.644,28.8185 141.5,25C 141.648,23.7441 141.982,22.5774 142.5,21.5 Z"/></g>
<g><path style="opacity:1" fill="#dde5f7" d="M 333.5,49.5 C 320.921,46.6076 308.587,43.2742 296.5,39.5C 308.102,32.0242 319.769,24.5242 331.5,17C 333.134,16.5065 334.801,16.3398 336.5,16.5C 336.729,27.6581 335.729,38.6581 333.5,49.5 Z"/></g>
<g><path style="opacity:1" fill="#252437" d="M 35.5,43.5 C 38.0444,43.1043 40.2111,43.771 42,45.5C 44.7533,50.0076 47.7533,54.3409 51,58.5C 52.4236,63.6622 50.5903,65.8288 45.5,65C 40.1331,60.1281 36.1331,54.2947 33.5,47.5C 34.1799,46.1401 34.8466,44.8068 35.5,43.5 Z"/></g>
<g><path style="opacity:1" fill="#d4dff8" d="M 296.5,39.5 C 308.587,43.2742 320.921,46.6076 333.5,49.5C 333.882,54.3669 333.215,59.0335 331.5,63.5C 318.727,59.5548 305.727,56.0548 292.5,53C 291.944,52.6174 291.611,52.1174 291.5,51.5C 290.999,46.5129 292.665,42.5129 296.5,39.5 Z"/></g>
<g><path style="opacity:1" fill="#262437" d="M 235.5,52.5 C 240.734,52.6928 243.734,55.5261 244.5,61C 243.774,65.2707 241.441,66.4374 237.5,64.5C 233.316,60.9348 232.649,56.9348 235.5,52.5 Z"/></g>
<g><path style="opacity:1" fill="#cad5f6" d="M 291.5,51.5 C 291.611,52.1174 291.944,52.6174 292.5,53C 305.727,56.0548 318.727,59.5548 331.5,63.5C 329.454,66.3659 326.787,68.5325 323.5,70C 314.833,74.3333 306.167,78.6667 297.5,83C 291.372,85.0293 288.038,82.8627 287.5,76.5C 288.292,67.941 289.625,59.6076 291.5,51.5 Z"/></g>
<g><path style="opacity:1" fill="#d16d72" d="M 402.5,59.5 C 405.74,58.2578 409.074,58.4245 412.5,60C 419.223,67.2843 424.556,75.4509 428.5,84.5C 419.287,89.6016 409.621,93.9349 399.5,97.5C 397.3,91.4074 394.8,85.4074 392,79.5C 379.431,77.9713 370.931,71.3046 366.5,59.5C 367.15,56.3449 368.817,53.8449 371.5,52C 374.927,50.204 378.094,48.0373 381,45.5C 382.046,46.772 382.546,48.272 382.5,50C 382.128,52.7429 381.461,55.4096 380.5,58C 380.585,59.1074 380.919,60.1074 381.5,61C 385.167,61.3333 388.833,61.6667 392.5,62C 394.777,63.9585 397.277,65.4585 400,66.5C 403.609,65.3896 404.442,63.0563 402.5,59.5 Z"/></g>
<g><path style="opacity:1" fill="#858cbd" d="M 362.5,70.5 C 357.244,72.1473 351.911,73.4807 346.5,74.5C 344.35,72.2404 342.183,69.9071 340,67.5C 339.833,66.5 339.667,65.5 339.5,64.5C 341.507,52.5555 343.007,40.5555 344,28.5C 349.32,33.4464 352.32,39.4464 353,46.5C 354.223,50.6153 356.223,54.282 359,57.5C 359.113,62.1515 360.28,66.4848 362.5,70.5 Z"/></g>
<g><path style="opacity:1" fill="#e47bbd" d="M 190.5,73.5 C 177.935,76.7202 165.602,80.3869 153.5,84.5C 149.583,78.7348 145.416,73.0681 141,67.5C 140.544,66.2559 141.044,65.4226 142.5,65C 159.745,61.351 175.745,64.1843 190.5,73.5 Z"/></g>
<g><path style="opacity:1" fill="#8b4653" d="M 441.5,83.5 C 439.025,86.2411 436.025,88.2411 432.5,89.5C 431.407,87.6508 430.074,85.9842 428.5,84.5C 424.556,75.4509 419.223,67.2843 412.5,60C 409.074,58.4245 405.74,58.2578 402.5,59.5C 400.66,57.832 398.66,56.332 396.5,55C 402.595,52.7089 407.429,48.8756 411,43.5C 422.533,55.8568 432.7,69.1901 441.5,83.5 Z"/></g>
<g><path style="opacity:1" fill="#7b7fb5" d="M 342.5,83.5 C 333.912,95.0198 325.578,106.687 317.5,118.5C 311.02,110.236 304.52,101.902 298,93.5C 297.517,92.552 297.351,91.552 297.5,90.5C 310.025,85.571 322.025,79.571 333.5,72.5C 337.215,75.6067 340.215,79.2733 342.5,83.5 Z"/></g>
<g><path style="opacity:1" fill="#e775b6" d="M 190.5,73.5 C 197.418,77.7481 203.418,83.0814 208.5,89.5C 191.833,93.8333 175.167,98.1667 158.5,102.5C 158.052,96.157 156.385,90.157 153.5,84.5C 165.602,80.3869 177.935,76.7202 190.5,73.5 Z"/></g>
<g><path style="opacity:1" fill="#767ab0" d="M 362.5,70.5 C 365.854,75.0165 370.021,78.6832 375,81.5C 375.667,89.8333 375.667,98.1667 375,106.5C 372.46,107.876 370.46,107.21 369,104.5C 361.239,94.6194 353.739,84.6194 346.5,74.5C 351.911,73.4807 357.244,72.1473 362.5,70.5 Z"/></g>
<g><path style="opacity:1" fill="#e17bbd" d="M 84.5,102.5 C 75.4098,104.085 66.4098,106.085 57.5,108.5C 61.8847,95.0598 67.3847,82.0598 74,69.5C 76.4247,80.873 79.9247,91.873 84.5,102.5 Z"/></g>
<g><path style="opacity:1" fill="#eb6fae" d="M 208.5,89.5 C 212.521,94.1955 216.188,99.1955 219.5,104.5C 194.593,111.927 169.593,118.261 144.5,123.5C 153.147,119.181 157.813,112.181 158.5,102.5C 175.167,98.1667 191.833,93.8333 208.5,89.5 Z"/></g>
<g><path style="opacity:1" fill="#eb6aa7" d="M 275.5,103.5 C 202.14,123.591 128.474,142.924 54.5,161.5C 53.3445,158.78 53.0111,156.114 53.5,153.5C 56.0962,156.234 59.0962,156.9 62.5,155.5C 63.6309,153.926 63.7975,152.259 63,150.5C 61.3484,149.601 59.8484,148.601 58.5,147.5C 79.0453,141.696 99.7119,136.196 120.5,131C 118.942,130.79 117.609,130.29 116.5,129.5C 126.53,130.598 135.863,128.598 144.5,123.5C 169.593,118.261 194.593,111.927 219.5,104.5C 232.594,114.619 244.76,113.619 256,101.5C 257.884,97.0497 259.05,92.383 259.5,87.5C 266.543,91.2096 271.876,96.543 275.5,103.5 Z"/></g>
<g><path style="opacity:1" fill="#878dbf" d="M 342.5,83.5 C 351.344,93.2457 359.177,103.579 366,114.5C 356.548,122.968 345.881,129.301 334,133.5C 332.033,133.458 330.199,132.958 328.5,132C 324.226,127.928 320.56,123.428 317.5,118.5C 325.578,106.687 333.912,95.0198 342.5,83.5 Z"/></g>
<g><path style="opacity:1" fill="#c96368" d="M 428.5,84.5 C 430.074,85.9842 431.407,87.6508 432.5,89.5C 434.777,94.3873 436.777,99.3873 438.5,104.5C 437.878,106.335 436.544,107.502 434.5,108C 424.263,112.466 413.929,116.633 403.5,120.5C 402.706,112.737 401.373,105.07 399.5,97.5C 409.621,93.9349 419.287,89.6016 428.5,84.5 Z"/></g>
<g><path style="opacity:1" fill="#ec69a1" d="M 275.5,103.5 C 277.924,106.008 279.59,109.008 280.5,112.5C 279.735,112.077 278.902,111.743 278,111.5C 204.46,130.76 130.96,150.093 57.5,169.5C 56.2051,167.021 55.2051,164.354 54.5,161.5C 128.474,142.924 202.14,123.591 275.5,103.5 Z"/></g>
<g><path style="opacity:1" fill="#7e3f4c" d="M 441.5,83.5 C 449.285,95.9043 455.618,109.071 460.5,123C 460.561,125.261 459.894,127.261 458.5,129C 454.492,132.199 450.159,134.699 445.5,136.5C 447.248,124.905 444.915,114.239 438.5,104.5C 436.777,99.3873 434.777,94.3873 432.5,89.5C 436.025,88.2411 439.025,86.2411 441.5,83.5 Z"/></g>
<g><path style="opacity:1" fill="#e575b5" d="M 84.5,102.5 C 87.7498,108.655 91.7498,114.322 96.5,119.5C 83.7664,121.765 71.433,125.098 59.5,129.5C 56.772,127.773 54.772,125.44 53.5,122.5C 54.6433,117.742 55.9767,113.075 57.5,108.5C 66.4098,106.085 75.4098,104.085 84.5,102.5 Z"/></g>
<g><path style="opacity:1" fill="#ec63a1" d="M 280.5,112.5 C 281.404,113.209 281.737,114.209 281.5,115.5C 207.772,135.767 133.772,155.434 59.5,174.5C 58.0687,173.22 57.4021,171.553 57.5,169.5C 130.96,150.093 204.46,130.76 278,111.5C 278.902,111.743 279.735,112.077 280.5,112.5 Z"/></g>
<g><path style="opacity:1" fill="#eb639a" d="M 281.5,115.5 C 284.071,122.138 285.071,129.138 284.5,136.5C 279.43,137.738 274.93,140.071 271,143.5C 263.812,139.58 256.312,138.747 248.5,141C 243.611,143.605 238.945,146.438 234.5,149.5C 234.265,148.903 233.765,148.57 233,148.5C 217.478,152.589 201.978,156.755 186.5,161C 187.056,161.383 187.389,161.883 187.5,162.5C 179.202,161.426 170.868,161.26 162.5,162C 158.26,162.256 156.26,164.422 156.5,168.5C 147.399,169.354 138.399,171.354 129.5,174.5C 128.759,169.195 126.259,167.861 122,170.5C 120.787,172.925 119.621,175.259 118.5,177.5C 104.441,180.681 90.4409,184.181 76.5,188C 73.6021,188.436 71.2688,189.603 69.5,191.5C 64.9098,186.665 61.5765,180.998 59.5,174.5C 133.772,155.434 207.772,135.767 281.5,115.5 Z"/></g>
<g><path style="opacity:1" fill="#c15a62" d="M 438.5,104.5 C 444.915,114.239 447.248,124.905 445.5,136.5C 444.942,137.79 443.942,138.623 442.5,139C 431.549,143.324 420.216,145.324 408.5,145C 406.333,144.167 404.833,142.667 404,140.5C 403.5,133.842 403.334,127.175 403.5,120.5C 413.929,116.633 424.263,112.466 434.5,108C 436.544,107.502 437.878,106.335 438.5,104.5 Z"/></g>
<g><path style="opacity:1" fill="#eb6fae" d="M 96.5,119.5 C 102.073,124.953 108.74,128.287 116.5,129.5C 117.609,130.29 118.942,130.79 120.5,131C 99.7119,136.196 79.0453,141.696 58.5,147.5C 51.921,144.996 49.7543,140.33 52,133.5C 55.2031,137.688 59.3697,139.521 64.5,139C 66.2112,137.867 66.7112,136.367 66,134.5C 63.6744,132.934 61.5078,131.268 59.5,129.5C 71.433,125.098 83.7664,121.765 96.5,119.5 Z"/></g>
<g><path style="opacity:1" fill="#d77582" d="M 372.5,408.5 C 372.5,406.5 372.5,404.5 372.5,402.5C 372.537,392.561 373.537,382.728 375.5,373C 375.606,368.573 374.94,364.406 373.5,360.5C 373.552,358.097 373.219,355.764 372.5,353.5C 371.139,348.722 369.472,344.056 367.5,339.5C 382.811,326.884 391.311,310.551 393,290.5C 393.726,283.131 393.559,275.798 392.5,268.5C 408.952,263.39 421.619,253.39 430.5,238.5C 432.596,235.738 434.262,232.738 435.5,229.5C 442.288,218.335 447.455,206.335 451,193.5C 458.299,184.88 460.632,174.88 458,163.5C 457.163,159.286 455.83,155.286 454,151.5C 440.804,157.839 426.971,159.839 412.5,157.5C 412.5,156.167 412.5,154.833 412.5,153.5C 429.318,152.393 444.818,147.393 459,138.5C 459.945,138.905 460.612,139.572 461,140.5C 466.368,155.042 468.368,170.042 467,185.5C 464.032,190.48 461.032,195.48 458,200.5C 448.724,229.748 432.057,253.748 408,272.5C 408.406,278.472 408.406,284.472 408,290.5C 406.749,294.082 405.749,297.749 405,301.5C 399.438,313.395 393.438,325.061 387,336.5C 387.918,344.254 388.418,352.087 388.5,360C 389.071,378.256 383.737,394.422 372.5,408.5 Z"/></g>
<g><path style="opacity:1" fill="#565669" d="M 286.5,142.5 C 296.73,142.199 305.23,145.866 312,153.5C 324.632,168.319 334.132,184.985 340.5,203.5C 328.484,203.39 316.484,203.723 304.5,204.5C 304.631,193.787 302.131,183.787 297,174.5C 284.102,160.489 269.268,157.989 252.5,167C 246.205,171.766 242.038,177.932 240,185.5C 238.006,195.807 236.173,206.14 234.5,216.5C 226.868,219.825 219.201,223.158 211.5,226.5C 213.406,198.513 223.739,174.013 242.5,153C 247.938,148.079 254.271,146.412 261.5,148C 265.172,149.503 268.838,151.003 272.5,152.5C 276.905,148.756 281.572,145.422 286.5,142.5 Z"/></g>
<g><path style="opacity:1" fill="#f05c93" d="M 234.5,149.5 C 227.013,158.338 220.68,168.004 215.5,178.5C 207.959,170.062 198.626,164.729 187.5,162.5C 187.389,161.883 187.056,161.383 186.5,161C 201.978,156.755 217.478,152.589 233,148.5C 233.765,148.57 234.265,148.903 234.5,149.5 Z"/></g>
<g><path style="opacity:1" fill="#f9cdcd" d="M 435.5,229.5 C 402.5,236.267 369.5,243.1 336.5,250C 335.244,250.417 334.577,251.25 334.5,252.5C 330.619,237.735 324.285,224.068 315.5,211.5C 324.839,211.334 334.173,211.5 343.5,212C 350.271,212.892 356.938,213.892 363.5,215C 366.584,204.331 371.418,194.498 378,185.5C 385.398,176.601 394.565,170.268 405.5,166.5C 409.116,173.453 414.283,178.787 421,182.5C 424.072,181.553 425.072,179.553 424,176.5C 420.527,173.939 417.527,170.939 415,167.5C 412.994,164.464 412.16,161.131 412.5,157.5C 426.971,159.839 440.804,157.839 454,151.5C 455.83,155.286 457.163,159.286 458,163.5C 460.632,174.88 458.299,184.88 451,193.5C 447.455,206.335 442.288,218.335 435.5,229.5 Z"/></g>
<g><path style="opacity:1" fill="#f7f7f7" d="M 168.5,168.5 C 184.947,167.257 198.78,172.59 210,184.5C 210.781,185.729 211.281,187.062 211.5,188.5C 206.907,202.536 203.74,216.87 202,231.5C 196.076,235.879 190.243,240.379 184.5,245C 178.961,251.369 173.294,257.535 167.5,263.5C 131.614,251.394 117.114,226.727 124,189.5C 131.33,216.257 147.163,223.424 171.5,211C 179.227,202.81 181.393,193.31 178,182.5C 175.336,177.364 172.169,172.697 168.5,168.5 Z"/></g>
<g><path style="opacity:1" fill="#efa3a1" d="M 291.5,180.5 C 277.833,180.5 264.167,180.5 250.5,180.5C 257.259,170.637 266.593,167.137 278.5,170C 284.082,172.103 288.416,175.603 291.5,180.5 Z"/></g>
<g><path style="opacity:1" fill="#f15b90" d="M 156.5,168.5 C 160.104,171.602 163.604,174.935 167,178.5C 169.324,181.48 170.824,184.813 171.5,188.5C 160.373,191.952 149.039,195.119 137.5,198C 136.944,198.383 136.611,198.883 136.5,199.5C 132.164,191.836 129.831,183.503 129.5,174.5C 138.399,171.354 147.399,169.354 156.5,168.5 Z"/></g>
<g><path style="opacity:1" fill="#f05c95" d="M 118.5,177.5 C 116.818,183.547 115.485,189.547 114.5,195.5C 114.5,193.833 114.5,192.167 114.5,190.5C 101.731,193.525 89.0648,196.859 76.5,200.5C 73.7915,197.792 71.4581,194.792 69.5,191.5C 71.2688,189.603 73.6021,188.436 76.5,188C 90.4409,184.181 104.441,180.681 118.5,177.5 Z"/></g>
<g><path style="opacity:1" fill="#f1b1ad" d="M 250.5,180.5 C 264.167,180.5 277.833,180.5 291.5,180.5C 294.026,184.415 295.359,188.748 295.5,193.5C 286.235,192.905 277.235,193.572 268.5,195.5C 268.231,187.73 264.231,183.897 256.5,184C 253.353,188.048 254.353,190.715 259.5,192C 260.258,195.95 259.592,199.783 257.5,203.5C 253.047,205.226 248.714,207.226 244.5,209.5C 244.231,199.468 246.231,189.801 250.5,180.5 Z"/></g>
<g><path style="opacity:1" fill="#2f2b3d" d="M 280.5,182.5 C 284.487,182.652 285.987,184.652 285,188.5C 281.696,192.369 278.03,193.036 274,190.5C 273.333,189.167 273.333,187.833 274,186.5C 276.314,185.267 278.481,183.933 280.5,182.5 Z"/></g>
<g><path style="opacity:1" fill="#ee5586" d="M 171.5,188.5 C 171.962,203.863 164.295,211.03 148.5,210C 143.07,208.066 139.07,204.566 136.5,199.5C 136.611,198.883 136.944,198.383 137.5,198C 149.039,195.119 160.373,191.952 171.5,188.5 Z"/></g>
<g><path style="opacity:1" fill="#f25b8e" d="M 114.5,195.5 C 114.037,198.482 113.704,201.482 113.5,204.5C 104.648,206.544 95.9814,208.878 87.5,211.5C 83.5,208.167 79.8333,204.5 76.5,200.5C 89.0648,196.859 101.731,193.525 114.5,190.5C 114.5,192.167 114.5,193.833 114.5,195.5 Z"/></g>
<g><path style="opacity:1" fill="#f4bab8" d="M 295.5,193.5 C 296.895,197.591 297.562,201.924 297.5,206.5C 293.069,205.268 288.569,204.268 284,203.5C 282.833,203.833 281.667,204.167 280.5,204.5C 277.978,210.18 273.644,212.346 267.5,211C 266.316,209.82 265.649,208.32 265.5,206.5C 265.898,202.643 266.898,198.977 268.5,195.5C 277.235,193.572 286.235,192.905 295.5,193.5 Z"/></g>
<g><path style="opacity:1" fill="#252437" d="M 41.5,202.5 C 46.6373,202.458 49.9706,204.958 51.5,210C 49.0914,215.227 45.9247,215.727 42,211.5C 41.1502,209.99 40.3169,208.49 39.5,207C 40.0439,205.415 40.7106,203.915 41.5,202.5 Z"/></g>
<g><path style="opacity:1" fill="#555669" d="M 319.5,276.5 C 284.5,277.167 249.5,277.833 214.5,278.5C 214.005,246.458 228.339,224.124 257.5,211.5C 263.172,219.585 270.505,221.418 279.5,217C 282.033,215.122 284.533,213.289 287,211.5C 300.133,215.963 309.466,224.629 315,237.5C 319.869,250.118 321.369,263.118 319.5,276.5 Z"/></g>
<g><path style="opacity:1" fill="#d67582" d="M 315.5,211.5 C 324.285,224.068 330.619,237.735 334.5,252.5C 334.5,253.833 334.5,255.167 334.5,256.5C 335.796,263.82 335.796,271.154 334.5,278.5C 332.973,287.423 330.306,296.09 326.5,304.5C 324.562,308.192 322.229,311.692 319.5,315C 315.812,315.413 312.646,314.246 310,311.5C 307.628,314.91 305.795,318.577 304.5,322.5C 301.931,325.961 299.597,329.628 297.5,333.5C 295.937,334.945 294.604,336.611 293.5,338.5C 291.892,335.062 291.058,331.396 291,327.5C 297.621,319.766 303.121,311.266 307.5,302C 309.821,302.887 312.321,303.72 315,304.5C 316.107,304.415 317.107,304.081 318,303.5C 330.666,277.846 330.666,252.179 318,226.5C 314.917,221.412 311.083,216.912 306.5,213C 309.393,211.851 312.393,211.351 315.5,211.5 Z"/></g>
<g><path style="opacity:1" fill="#f05182" d="M 113.5,204.5 C 113.832,219.163 118.166,232.496 126.5,244.5C 118.122,246.678 109.789,249.011 101.5,251.5C 101.876,244.673 101.043,238.006 99,231.5C 95.913,224.316 92.0797,217.649 87.5,211.5C 95.9814,208.878 104.648,206.544 113.5,204.5 Z"/></g>
<g><path style="opacity:1" fill="#f9cdc7" d="M 435.5,229.5 C 434.262,232.738 432.596,235.738 430.5,238.5C 399.266,244.433 368.099,250.766 337,257.5C 336.098,257.257 335.265,256.923 334.5,256.5C 334.5,255.167 334.5,253.833 334.5,252.5C 334.577,251.25 335.244,250.417 336.5,250C 369.5,243.1 402.5,236.267 435.5,229.5 Z"/></g>
<g><path style="opacity:1" fill="#f7cbca" d="M 207.5,270.5 C 206.834,275.017 206.167,279.683 205.5,284.5C 190.896,287.818 176.229,290.818 161.5,293.5C 172.735,265.696 191.735,245.03 218.5,231.5C 218.833,231.833 219.167,232.167 219.5,232.5C 211.863,244.021 207.863,256.688 207.5,270.5 Z"/></g>
<g><path style="opacity:1" fill="#f9c7c6" d="M 430.5,238.5 C 421.619,253.39 408.952,263.39 392.5,268.5C 392.579,265.729 392.079,263.063 391,260.5C 388.925,258.352 386.592,258.018 384,259.5C 383.956,262.475 384.123,265.475 384.5,268.5C 384.773,270.451 384.107,271.951 382.5,273C 366.548,276.49 350.548,279.657 334.5,282.5C 334.5,281.167 334.5,279.833 334.5,278.5C 335.796,271.154 335.796,263.82 334.5,256.5C 335.265,256.923 336.098,257.257 337,257.5C 368.099,250.766 399.266,244.433 430.5,238.5 Z"/></g>
<g><path style="opacity:1" fill="#f84671" d="M 126.5,244.5 C 133.265,252.933 141.265,259.933 150.5,265.5C 122.704,273.284 94.7041,280.784 66.5,288C 63.4278,288.578 60.7612,289.745 58.5,291.5C 57.834,286.678 57.5007,281.678 57.5,276.5C 57.302,269.392 57.9687,262.392 59.5,255.5C 70.3631,274.058 83.1964,275.392 98,259.5C 99.4563,256.924 100.623,254.258 101.5,251.5C 109.789,249.011 118.122,246.678 126.5,244.5 Z"/></g>
<g><path style="opacity:1" fill="#f94069" d="M 150.5,265.5 C 154.62,267.263 158.786,268.929 163,270.5C 162.915,273.336 161.749,275.669 159.5,277.5C 126.543,286.323 93.5432,294.989 60.5,303.5C 59.1971,299.618 58.5304,295.618 58.5,291.5C 60.7612,289.745 63.4278,288.578 66.5,288C 94.7041,280.784 122.704,273.284 150.5,265.5 Z"/></g>
<g><path style="opacity:1" fill="#f93d63" d="M 159.5,277.5 C 157.344,283.804 154.678,289.804 151.5,295.5C 128.445,301.68 105.445,308.014 82.5,314.5C 82.7135,312.856 82.3802,311.356 81.5,310C 74.8623,310.211 68.1956,310.378 61.5,310.5C 61.552,308.097 61.2186,305.764 60.5,303.5C 93.5432,294.989 126.543,286.323 159.5,277.5 Z"/></g>
<g><path style="opacity:1" fill="#505068" d="M 319.5,276.5 C 318.402,283.236 316.236,289.57 313,295.5C 311.982,293.102 310.815,290.769 309.5,288.5C 307.833,287.334 306.166,287.334 304.5,288.5C 281.167,288.5 257.833,288.5 234.5,288.5C 231.742,286.952 229.242,287.285 227,289.5C 227.568,292.996 228.402,296.496 229.5,300C 228.642,302.882 227.142,305.382 225,307.5C 217.69,299.287 214.19,289.621 214.5,278.5C 249.5,277.833 284.5,277.167 319.5,276.5 Z"/></g>
<g><path style="opacity:1" fill="#f6c5c5" d="M 207.5,270.5 C 206.953,280.685 207.953,290.685 210.5,300.5C 191.882,304.424 173.215,308.09 154.5,311.5C 156.07,305.109 158.404,299.109 161.5,293.5C 176.229,290.818 190.896,287.818 205.5,284.5C 206.167,279.683 206.834,275.017 207.5,270.5 Z"/></g>
<g><path style="opacity:1" fill="#f9c0bc" d="M 384.5,268.5 C 385.759,277.025 385.759,285.692 384.5,294.5C 365.161,297.801 345.994,301.801 327,306.5C 326.536,305.906 326.369,305.239 326.5,304.5C 330.306,296.09 332.973,287.423 334.5,278.5C 334.5,279.833 334.5,281.167 334.5,282.5C 350.548,279.657 366.548,276.49 382.5,273C 384.107,271.951 384.773,270.451 384.5,268.5 Z"/></g>
<g><path style="opacity:1" fill="#4f5063" d="M 234.5,288.5 C 257.833,288.5 281.167,288.5 304.5,288.5C 301.04,298.759 296.04,308.093 289.5,316.5C 275.5,316.5 261.5,316.5 247.5,316.5C 240.115,308.721 235.782,299.387 234.5,288.5 Z"/></g>
<g><path style="opacity:1" fill="#f9baba" d="M 384.5,294.5 C 384.086,298.657 383.086,302.657 381.5,306.5C 355.707,311.366 330.041,316.699 304.5,322.5C 305.795,318.577 307.628,314.91 310,311.5C 312.646,314.246 315.812,315.413 319.5,315C 322.229,311.692 324.562,308.192 326.5,304.5C 326.369,305.239 326.536,305.906 327,306.5C 345.994,301.801 365.161,297.801 384.5,294.5 Z"/></g>
<g><path style="opacity:1" fill="#f7375c" d="M 151.5,295.5 C 151.607,297.903 150.607,299.736 148.5,301C 130.639,311.212 118.306,326.045 111.5,345.5C 97.3299,348.388 85.3299,344.554 75.5,334C 79.3879,332.622 83.3879,331.622 87.5,331C 90.5018,327.507 89.8351,325.007 85.5,323.5C 80.2539,325.185 74.9205,326.018 69.5,326C 68.1667,323.667 66.8333,321.333 65.5,319C 70.4535,318.005 75.4535,317.338 80.5,317C 81.3805,316.292 82.0472,315.458 82.5,314.5C 105.445,308.014 128.445,301.68 151.5,295.5 Z"/></g>
<g><path style="opacity:1" fill="#f8c7c0" d="M 210.5,300.5 C 210.575,303.206 210.908,305.873 211.5,308.5C 186.157,313.702 160.824,319.035 135.5,324.5C 134.584,324.457 133.917,324.124 133.5,323.5C 137.164,319.003 141.331,315.003 146,311.5C 144.108,316.812 145.941,319.312 151.5,319C 152.991,316.692 153.991,314.192 154.5,311.5C 173.215,308.09 191.882,304.424 210.5,300.5 Z"/></g>
<g><path style="opacity:1" fill="#d77582" d="M 210.5,300.5 C 212.862,305.043 215.862,309.21 219.5,313C 224.72,316.691 229.22,315.857 233,310.5C 241.205,324.705 253.038,334.538 268.5,340C 274.816,341.426 279.983,339.593 284,334.5C 284.558,337.934 285.391,341.267 286.5,344.5C 282.597,348.136 277.93,349.802 272.5,349.5C 256.894,345.407 244.394,336.74 235,323.5C 232.13,328.675 228.297,329.675 223.5,326.5C 220.833,324.5 218.5,322.167 216.5,319.5C 214.64,315.917 212.973,312.251 211.5,308.5C 210.908,305.873 210.575,303.206 210.5,300.5 Z"/></g>
<g><path style="opacity:1" fill="#f9bab4" d="M 381.5,306.5 C 380.618,310.593 378.951,314.26 376.5,317.5C 367.835,319.166 359.168,320.833 350.5,322.5C 346.173,321.633 342.173,322.633 338.5,325.5C 324.802,328.008 311.135,330.675 297.5,333.5C 299.597,329.628 301.931,325.961 304.5,322.5C 330.041,316.699 355.707,311.366 381.5,306.5 Z"/></g>
<g><path style="opacity:1" fill="#f9c0c0" d="M 211.5,308.5 C 212.973,312.251 214.64,315.917 216.5,319.5C 185.657,326.469 154.657,332.802 123.5,338.5C 126.056,332.951 129.39,327.951 133.5,323.5C 133.917,324.124 134.584,324.457 135.5,324.5C 160.824,319.035 186.157,313.702 211.5,308.5 Z"/></g>
<g><path style="opacity:1" fill="#4a4a63" d="M 247.5,316.5 C 261.5,316.5 275.5,316.5 289.5,316.5C 285.555,323.785 279.888,329.118 272.5,332.5C 262.084,330.417 253.751,325.084 247.5,316.5 Z"/></g>
<g><path style="opacity:1" fill="#f7b3b1" d="M 376.5,317.5 C 368.365,329.792 357.365,338.625 343.5,344C 330.914,349.064 317.914,352.064 304.5,353C 298.043,350.241 294.377,345.408 293.5,338.5C 294.604,336.611 295.937,334.945 297.5,333.5C 311.135,330.675 324.802,328.008 338.5,325.5C 337.267,330.429 339.267,332.262 344.5,331C 350.044,330.331 352.044,327.498 350.5,322.5C 359.168,320.833 367.835,319.166 376.5,317.5 Z"/></g>
<g><path style="opacity:1" fill="#f9c0ba" d="M 216.5,319.5 C 218.5,322.167 220.833,324.5 223.5,326.5C 223.082,327.222 222.416,327.722 221.5,328C 187.575,334.918 153.742,342.085 120,349.5C 119.536,348.906 119.369,348.239 119.5,347.5C 120.075,344.088 121.408,341.088 123.5,338.5C 154.657,332.802 185.657,326.469 216.5,319.5 Z"/></g>
<g><path style="opacity:1" fill="#2e2b3c" d="M 350.5,322.5 C 352.044,327.498 350.044,330.331 344.5,331C 339.267,332.262 337.267,330.429 338.5,325.5C 342.173,322.633 346.173,321.633 350.5,322.5 Z"/></g>
<g><path style="opacity:1" fill="#f8b8b6" d="M 272.5,349.5 C 263.157,351.369 253.824,353.369 244.5,355.5C 243.261,355.942 242.261,356.609 241.5,357.5C 241.67,356.178 241.337,355.011 240.5,354C 236.775,353.24 233.108,353.407 229.5,354.5C 228.295,355.577 227.628,356.91 227.5,358.5C 219.278,360.645 210.944,362.479 202.5,364C 201.944,364.383 201.611,364.883 201.5,365.5C 195.126,361.104 190.96,355.104 189,347.5C 183.667,345.167 181.667,346.833 183,352.5C 184.206,357.916 186.706,362.582 190.5,366.5C 183.543,371.477 175.876,375.144 167.5,377.5C 158.204,371.849 148.537,366.682 138.5,362C 131.353,359.546 124.02,358.046 116.5,357.5C 116.899,353.884 117.899,350.55 119.5,347.5C 119.369,348.239 119.536,348.906 120,349.5C 153.742,342.085 187.575,334.918 221.5,328C 222.416,327.722 223.082,327.222 223.5,326.5C 228.297,329.675 232.13,328.675 235,323.5C 244.394,336.74 256.894,345.407 272.5,349.5 Z"/></g>
<g><path style="opacity:1" fill="#494a5e" d="M 432.5,347.5 C 432.5,352.167 432.5,356.833 432.5,361.5C 420.833,361.5 409.167,361.5 397.5,361.5C 397.737,362.791 397.404,363.791 396.5,364.5C 396.564,355.088 396.064,345.755 395,336.5C 401.974,325.548 408.141,314.215 413.5,302.5C 425.028,315.231 431.361,330.231 432.5,347.5 Z"/></g>
<g><path style="opacity:1" fill="#ecaaaa" d="M 367.5,339.5 C 369.472,344.056 371.139,348.722 372.5,353.5C 322.532,362.959 272.865,373.293 223.5,384.5C 222.549,383.081 222.216,381.415 222.5,379.5C 245.106,378.931 266.606,373.931 287,364.5C 287.956,360.075 286.123,358.408 281.5,359.5C 285.373,357.792 289.373,356.458 293.5,355.5C 301.808,360.851 310.808,362.018 320.5,359C 337.519,355.501 353.186,349.001 367.5,339.5 Z"/></g>
<g><path style="opacity:1" fill="#2e2a3c" d="M 241.5,357.5 C 239.241,360.17 236.241,361.503 232.5,361.5C 230.058,361.714 228.392,360.714 227.5,358.5C 227.628,356.91 228.295,355.577 229.5,354.5C 233.108,353.407 236.775,353.24 240.5,354C 241.337,355.011 241.67,356.178 241.5,357.5 Z"/></g>
<g><path style="opacity:1" fill="#f2b2ad" d="M 286.5,344.5 C 288.57,348.3 290.903,351.966 293.5,355.5C 289.373,356.458 285.373,357.792 281.5,359.5C 260.6,367.642 238.933,371.475 216.5,371C 211.042,370.238 206.042,368.405 201.5,365.5C 201.611,364.883 201.944,364.383 202.5,364C 210.944,362.479 219.278,360.645 227.5,358.5C 228.392,360.714 230.058,361.714 232.5,361.5C 236.241,361.503 239.241,360.17 241.5,357.5C 242.261,356.609 243.261,355.942 244.5,355.5C 253.824,353.369 263.157,351.369 272.5,349.5C 277.93,349.802 282.597,348.136 286.5,344.5 Z"/></g>
<g><path style="opacity:1" fill="#f1ada6" d="M 372.5,353.5 C 373.219,355.764 373.552,358.097 373.5,360.5C 373.5,361.833 373.5,363.167 373.5,364.5C 358.215,367.757 342.882,370.757 327.5,373.5C 322.629,371.233 317.629,369.233 312.5,367.5C 309.025,368.143 307.859,370.143 309,373.5C 309.816,374.823 310.983,375.489 312.5,375.5C 312.38,376.586 311.713,377.253 310.5,377.5C 306.556,378.556 302.556,379.223 298.5,379.5C 299.493,374.325 297.493,372.491 292.5,374C 291.119,376.364 290.119,378.864 289.5,381.5C 284.926,382.809 280.26,383.809 275.5,384.5C 278.198,382.799 280.198,380.466 281.5,377.5C 281.225,375.391 280.058,374.058 278,373.5C 271.414,376.922 265.914,381.589 261.5,387.5C 249.601,390.346 237.601,392.68 225.5,394.5C 224.207,391.321 223.54,387.988 223.5,384.5C 272.865,373.293 322.532,362.959 372.5,353.5 Z"/></g>
<g><path style="opacity:1" fill="#d67581" d="M 116.5,357.5 C 124.02,358.046 131.353,359.546 138.5,362C 148.537,366.682 158.204,371.849 167.5,377.5C 175.876,375.144 183.543,371.477 190.5,366.5C 191.812,367.145 192.812,368.145 193.5,369.5C 185.865,379.966 176.032,387.633 164,392.5C 159.786,384.899 154.286,378.399 147.5,373C 137.535,366.684 127.202,361.517 116.5,357.5 Z"/></g>
<g><path style="opacity:1" fill="#424256" d="M 432.5,347.5 C 433.763,356.762 433.263,366.096 431,375.5C 427.942,375.763 424.775,375.93 421.5,376C 419.91,377.046 418.41,378.213 417,379.5C 409.816,393.208 401.149,405.875 391,417.5C 389.888,411.552 389.054,405.552 388.5,399.5C 393.207,388.301 395.873,376.634 396.5,364.5C 397.404,363.791 397.737,362.791 397.5,361.5C 409.167,361.5 420.833,361.5 432.5,361.5C 432.5,356.833 432.5,352.167 432.5,347.5 Z"/></g>
<g><path style="opacity:1" fill="#cd666c" d="M 144.5,380.5 C 141.967,389.582 136.967,396.916 129.5,402.5C 119.5,392.5 109.5,382.5 99.5,372.5C 101.294,370.203 103.294,368.037 105.5,366C 119.97,366.769 132.97,371.602 144.5,380.5 Z"/></g>
<g><path style="opacity:1" fill="#2c293b" d="M 327.5,373.5 C 335.48,379.613 341.147,387.447 344.5,397C 344.667,399.5 343.5,400.667 341,400.5C 339.893,400.415 338.893,400.081 338,399.5C 333.188,387.52 324.688,379.52 312.5,375.5C 310.983,375.489 309.816,374.823 309,373.5C 307.859,370.143 309.025,368.143 312.5,367.5C 317.629,369.233 322.629,371.233 327.5,373.5 Z"/></g>
<g><path style="opacity:1" fill="#2c293b" d="M 298.5,379.5 C 297.17,387.882 297.503,396.215 299.5,404.5C 298.457,410.569 298.457,416.569 299.5,422.5C 300.265,425.096 300.599,427.763 300.5,430.5C 298.5,431.833 296.5,431.833 294.5,430.5C 290.644,423.569 289.644,416.235 291.5,408.5C 287.204,407.672 282.871,407.172 278.5,407C 274.05,406.224 272.55,403.724 274,399.5C 274.725,398.941 275.558,398.608 276.5,398.5C 281.122,399.385 285.789,399.718 290.5,399.5C 289.693,393.536 289.36,387.536 289.5,381.5C 290.119,378.864 291.119,376.364 292.5,374C 297.493,372.491 299.493,374.325 298.5,379.5 Z"/></g>
<g><path style="opacity:1" fill="#d77582" d="M 222.5,379.5 C 222.216,381.415 222.549,383.081 223.5,384.5C 223.54,387.988 224.207,391.321 225.5,394.5C 228.123,400.457 232.456,404.79 238.5,407.5C 239.429,408.689 239.762,410.022 239.5,411.5C 230.451,407.808 221.785,403.308 213.5,398C 205.834,391.844 202.167,384.011 202.5,374.5C 208.939,377.11 215.606,378.776 222.5,379.5 Z"/></g>
<g><path style="opacity:1" fill="#2b283a" d="M 275.5,384.5 C 265.613,392.273 260.447,402.606 260,415.5C 258.267,417.602 256.267,417.935 254,416.5C 252.594,405.791 255.094,396.124 261.5,387.5C 265.914,381.589 271.414,376.922 278,373.5C 280.058,374.058 281.225,375.391 281.5,377.5C 280.198,380.466 278.198,382.799 275.5,384.5 Z"/></g>
<g><path style="opacity:1" fill="#d67176" d="M 99.5,372.5 C 109.5,382.5 119.5,392.5 129.5,402.5C 122.187,410.328 113.187,415.328 102.5,417.5C 101.588,415.405 100.421,413.405 99,411.5C 92.9032,405.909 87.4032,399.909 82.5,393.5C 87.0598,385.607 92.7264,378.607 99.5,372.5 Z"/></g>
<g><path style="opacity:1" fill="#de7b7b" d="M 82.5,393.5 C 87.4032,399.909 92.9032,405.909 99,411.5C 100.421,413.405 101.588,415.405 102.5,417.5C 100.302,417.875 98.3024,418.542 96.5,419.5C 88.4931,419.666 80.4931,419.5 72.5,419C 70.8807,418.764 69.8807,417.931 69.5,416.5C 73.0773,408.339 77.4106,400.672 82.5,393.5 Z"/></g>
<g><path style="opacity:1" fill="#f1a39f" d="M 373.5,360.5 C 374.94,364.406 375.606,368.573 375.5,373C 373.537,382.728 372.537,392.561 372.5,402.5C 371.776,404.218 371.109,406.052 370.5,408C 346.831,412.9 323.165,417.734 299.5,422.5C 298.457,416.569 298.457,410.569 299.5,404.5C 297.503,396.215 297.17,387.882 298.5,379.5C 302.556,379.223 306.556,378.556 310.5,377.5C 311.713,377.253 312.38,376.586 312.5,375.5C 324.688,379.52 333.188,387.52 338,399.5C 338.893,400.081 339.893,400.415 341,400.5C 343.5,400.667 344.667,399.5 344.5,397C 341.147,387.447 335.48,379.613 327.5,373.5C 342.882,370.757 358.215,367.757 373.5,364.5C 373.5,363.167 373.5,361.833 373.5,360.5 Z"/></g>
<g><path style="opacity:1" fill="#2a283a" d="M 318.5,398.5 C 324.662,397.156 326.662,399.322 324.5,405C 318.663,407.486 312.663,407.986 306.5,406.5C 305.047,404.356 305.38,402.523 307.5,401C 311.465,400.892 315.132,400.059 318.5,398.5 Z"/></g>
<g><path style="opacity:1" fill="#3d3e51" d="M 192.5,381.5 C 193.376,381.369 194.043,381.702 194.5,382.5C 199.162,396.122 208.162,405.789 221.5,411.5C 221.833,413.5 222.167,415.5 222.5,417.5C 222.709,420.454 222.042,423.121 220.5,425.5C 213.815,421.99 207.815,417.49 202.5,412C 198.41,411.046 194.577,411.546 191,413.5C 190.228,413.355 189.561,413.022 189,412.5C 185.352,405.565 183.352,398.231 183,390.5C 186.667,387.999 189.834,384.999 192.5,381.5 Z"/></g>
<g><path style="opacity:1" fill="#8a4552" d="M 144.5,380.5 C 152.367,385.836 156.533,393.169 157,402.5C 150.531,407.968 144.364,413.801 138.5,420C 132.17,419.934 125.837,419.934 119.5,420C 115.7,421.642 112.7,424.142 110.5,427.5C 105.798,424.818 101.131,422.151 96.5,419.5C 98.3024,418.542 100.302,417.875 102.5,417.5C 113.187,415.328 122.187,410.328 129.5,402.5C 136.967,396.916 141.967,389.582 144.5,380.5 Z"/></g>
<g><path style="opacity:1" fill="#f29b99" d="M 372.5,402.5 C 372.5,404.5 372.5,406.5 372.5,408.5C 371.412,411.429 370.079,414.263 368.5,417C 368.978,418.642 369.978,419.809 371.5,420.5C 371.5,421.833 371.5,423.167 371.5,424.5C 347.834,426.433 324.167,428.433 300.5,430.5C 300.599,427.763 300.265,425.096 299.5,422.5C 323.165,417.734 346.831,412.9 370.5,408C 371.109,406.052 371.776,404.218 372.5,402.5 Z"/></g>
<g><path style="opacity:1" fill="#f0a29e" d="M 289.5,381.5 C 289.36,387.536 289.693,393.536 290.5,399.5C 285.789,399.718 281.122,399.385 276.5,398.5C 275.558,398.608 274.725,398.941 274,399.5C 272.55,403.724 274.05,406.224 278.5,407C 282.871,407.172 287.204,407.672 291.5,408.5C 289.644,416.235 290.644,423.569 294.5,430.5C 275.875,432.129 257.208,432.795 238.5,432.5C 238.5,427.5 238.5,422.5 238.5,417.5C 239.341,415.621 239.675,413.621 239.5,411.5C 239.762,410.022 239.429,408.689 238.5,407.5C 232.456,404.79 228.123,400.457 225.5,394.5C 237.601,392.68 249.601,390.346 261.5,387.5C 255.094,396.124 252.594,405.791 254,416.5C 256.267,417.935 258.267,417.602 260,415.5C 260.447,402.606 265.613,392.273 275.5,384.5C 280.26,383.809 284.926,382.809 289.5,381.5 Z"/></g>
<g><path style="opacity:1" fill="#d57381" d="M 238.5,417.5 C 238.5,422.5 238.5,427.5 238.5,432.5C 257.208,432.795 275.875,432.129 294.5,430.5C 296.5,431.833 298.5,431.833 300.5,430.5C 324.167,428.433 347.834,426.433 371.5,424.5C 371.5,423.167 371.5,421.833 371.5,420.5C 373.903,420.607 375.736,419.607 377,417.5C 378.271,414.567 379.938,411.901 382,409.5C 383.165,418.463 383.665,427.463 383.5,436.5C 331.833,436.5 280.167,436.5 228.5,436.5C 228.566,429.444 229.232,422.444 230.5,415.5C 233.021,416.785 235.687,417.452 238.5,417.5 Z"/></g>
<g><path style="opacity:1" fill="#7b3e4b" d="M 69.5,416.5 C 69.8807,417.931 70.8807,418.764 72.5,419C 80.4931,419.5 88.4931,419.666 96.5,419.5C 101.131,422.151 105.798,424.818 110.5,427.5C 110.143,429.589 109.477,431.589 108.5,433.5C 102.987,431.236 97.3207,430.903 91.5,432.5C 87.4487,430.982 83.282,429.982 79,429.5C 74.4229,430.371 69.9229,431.204 65.5,432C 64.6919,431.692 64.0253,431.192 63.5,430.5C 65.0007,425.511 67.0007,420.845 69.5,416.5 Z"/></g>
<g><path style="opacity:1" fill="#f7ba80" d="M 138.5,437.5 C 131.436,437.706 124.436,438.373 117.5,439.5C 117.5,437.167 117.5,434.833 117.5,432.5C 117.859,430.629 118.859,429.129 120.5,428C 126.825,427.5 133.158,427.334 139.5,427.5C 139.813,431.042 139.479,434.375 138.5,437.5 Z"/></g>
<g><path style="opacity:1" fill="#d87577" d="M 108.5,445.5 C 108.5,445.833 108.5,446.167 108.5,446.5C 88.1387,447.155 68.1387,446.488 48.5,444.5C 50.3394,439.148 54.0061,436.982 59.5,438C 62.505,439.17 65.505,440.336 68.5,441.5C 70.556,440.952 72.2226,439.786 73.5,438C 80.1157,436.778 86.2824,437.945 92,441.5C 96.9805,437.506 101.98,437.506 107,441.5C 107.791,442.745 108.291,444.078 108.5,445.5 Z"/></g>
<g><path style="opacity:1" fill="#787db4" d="M 176.5,444.5 C 178.212,448.927 180.212,453.26 182.5,457.5C 205.824,458.5 229.157,458.833 252.5,458.5C 253.5,458.5 254.5,458.5 255.5,458.5C 255.46,461.881 255.793,465.214 256.5,468.5C 255.5,468.5 254.5,468.5 253.5,468.5C 231.49,468.167 209.49,468.5 187.5,469.5C 189.457,473.744 191.124,478.077 192.5,482.5C 176.5,482.5 160.5,482.5 144.5,482.5C 144.798,469.808 145.464,457.141 146.5,444.5C 156.5,444.5 166.5,444.5 176.5,444.5 Z"/></g>
<g><path style="opacity:1" fill="#b8c3e5" d="M 437.5,444.5 C 412.5,444.5 387.5,444.5 362.5,444.5C 351.5,444.5 340.5,444.5 329.5,444.5C 316.5,444.5 303.5,444.5 290.5,444.5C 279.5,444.5 268.5,444.5 257.5,444.5C 258.295,448.785 258.628,453.119 258.5,457.5C 256.265,457.205 254.265,457.539 252.5,458.5C 229.157,458.833 205.824,458.5 182.5,457.5C 180.212,453.26 178.212,448.927 176.5,444.5C 263.5,443.167 350.5,443.167 437.5,444.5 Z"/></g>
<g><path style="opacity:1" fill="#ced8f8" d="M 290.5,444.5 C 291.08,448.81 291.414,453.143 291.5,457.5C 302.679,457.172 313.679,457.505 324.5,458.5C 301.5,458.5 278.5,458.5 255.5,458.5C 254.5,458.5 253.5,458.5 252.5,458.5C 254.265,457.539 256.265,457.205 258.5,457.5C 258.628,453.119 258.295,448.785 257.5,444.5C 268.5,444.5 279.5,444.5 290.5,444.5 Z"/></g>
<g><path style="opacity:1" fill="#d7e0f9" d="M 290.5,444.5 C 303.5,444.5 316.5,444.5 329.5,444.5C 329.5,448.833 329.5,453.167 329.5,457.5C 337.019,457.175 344.352,457.508 351.5,458.5C 342.5,458.5 333.5,458.5 324.5,458.5C 313.679,457.505 302.679,457.172 291.5,457.5C 291.414,453.143 291.08,448.81 290.5,444.5 Z"/></g>
<g><path style="opacity:1" fill="#dee6f8" d="M 329.5,444.5 C 340.5,444.5 351.5,444.5 362.5,444.5C 362.5,448.833 362.5,453.167 362.5,457.5C 389.339,457.169 416.005,457.502 442.5,458.5C 413.833,458.5 385.167,458.5 356.5,458.5C 354.833,458.5 353.167,458.5 351.5,458.5C 344.352,457.508 337.019,457.175 329.5,457.5C 329.5,453.167 329.5,448.833 329.5,444.5 Z"/></g>
<g><path style="opacity:1" fill="#e0ecf9" d="M 362.5,444.5 C 387.5,444.5 412.5,444.5 437.5,444.5C 449.509,447.162 459.176,453.495 466.5,463.5C 459.293,473.052 449.96,479.385 438.5,482.5C 413.5,482.5 388.5,482.5 363.5,482.5C 363.5,478.167 363.5,473.833 363.5,469.5C 390.005,469.831 416.339,469.498 442.5,468.5C 447.833,465.167 447.833,461.833 442.5,458.5C 416.005,457.502 389.339,457.169 362.5,457.5C 362.5,453.167 362.5,448.833 362.5,444.5 Z"/></g>
<g><path style="opacity:1" fill="#fab079" d="M 138.5,437.5 C 138.5,441.833 138.5,446.167 138.5,450.5C 131.827,452.74 124.827,453.74 117.5,453.5C 117.5,448.833 117.5,444.167 117.5,439.5C 124.436,438.373 131.436,437.706 138.5,437.5 Z"/></g>
<g><path style="opacity:1" fill="#ce696e" d="M 48.5,444.5 C 68.1387,446.488 88.1387,447.155 108.5,446.5C 108.832,455.857 108.498,465.19 107.5,474.5C 102.823,476.048 98.3234,475.715 94,473.5C 93.5006,467.843 93.3339,462.176 93.5,456.5C 93.336,450.512 90.836,449.179 86,452.5C 85.5004,459.158 85.3337,465.825 85.5,472.5C 81.1194,474.904 76.4528,475.737 71.5,475C 69.6787,472.544 69.012,469.711 69.5,466.5C 69.6658,461.821 69.4992,457.155 69,452.5C 67.6124,451.446 66.1124,451.28 64.5,452C 62.8787,454.166 62.0454,456.666 62,459.5C 61.5012,463.486 61.3345,467.486 61.5,471.5C 56.301,474.866 50.9677,475.199 45.5,472.5C 45.2038,462.888 46.2038,453.555 48.5,444.5 Z"/></g>
<g><path style="opacity:1" fill="#f9a370" d="M 138.5,450.5 C 137.671,455.453 137.337,460.453 137.5,465.5C 130.85,466.298 124.183,466.965 117.5,467.5C 117.5,462.833 117.5,458.167 117.5,453.5C 124.827,453.74 131.827,452.74 138.5,450.5 Z"/></g>
<g><path style="opacity:1" fill="#868cbf" d="M 255.5,458.5 C 278.5,458.5 301.5,458.5 324.5,458.5C 333.5,458.5 342.5,458.5 351.5,458.5C 353.167,458.5 354.833,458.5 356.5,458.5C 357.076,461.876 357.743,465.209 358.5,468.5C 356.5,468.5 354.5,468.5 352.5,468.5C 343.167,468.5 333.833,468.5 324.5,468.5C 301.833,468.5 279.167,468.5 256.5,468.5C 255.793,465.214 255.46,461.881 255.5,458.5 Z"/></g>
<g><path style="opacity:1" fill="#8f97c7" d="M 356.5,458.5 C 385.167,458.5 413.833,458.5 442.5,458.5C 447.833,461.833 447.833,465.167 442.5,468.5C 414.5,468.5 386.5,468.5 358.5,468.5C 357.743,465.209 357.076,461.876 356.5,458.5 Z"/></g>
<g><path style="opacity:1" fill="#ed9366" d="M 117.5,432.5 C 117.5,434.833 117.5,437.167 117.5,439.5C 117.5,444.167 117.5,448.833 117.5,453.5C 117.5,458.167 117.5,462.833 117.5,467.5C 124.183,466.965 130.85,466.298 137.5,465.5C 137.628,469.881 137.295,474.215 136.5,478.5C 130.203,477.68 123.869,477.347 117.5,477.5C 117.5,481.5 117.5,485.5 117.5,489.5C 116.167,470.5 116.167,451.5 117.5,432.5 Z"/></g>
<g><path style="opacity:1" fill="#b8c2e4" d="M 253.5,468.5 C 255.218,469.224 257.052,469.891 259,470.5C 259.499,474.486 259.666,478.486 259.5,482.5C 270.5,482.5 281.5,482.5 292.5,482.5C 305.167,482.5 317.833,482.5 330.5,482.5C 341.5,482.5 352.5,482.5 363.5,482.5C 388.5,482.5 413.5,482.5 438.5,482.5C 356.598,483.831 274.598,483.831 192.5,482.5C 191.124,478.077 189.457,473.744 187.5,469.5C 209.49,468.5 231.49,468.167 253.5,468.5 Z"/></g>
<g><path style="opacity:1" fill="#ced8f8" d="M 253.5,468.5 C 254.5,468.5 255.5,468.5 256.5,468.5C 279.167,468.5 301.833,468.5 324.5,468.5C 313.679,469.495 302.679,469.828 291.5,469.5C 292.295,473.785 292.628,478.119 292.5,482.5C 281.5,482.5 270.5,482.5 259.5,482.5C 259.666,478.486 259.499,474.486 259,470.5C 257.052,469.891 255.218,469.224 253.5,468.5 Z"/></g>
<g><path style="opacity:1" fill="#d7e0f9" d="M 324.5,468.5 C 333.833,468.5 343.167,468.5 352.5,468.5C 345.352,469.492 338.019,469.825 330.5,469.5C 330.5,473.833 330.5,478.167 330.5,482.5C 317.833,482.5 305.167,482.5 292.5,482.5C 292.628,478.119 292.295,473.785 291.5,469.5C 302.679,469.828 313.679,469.495 324.5,468.5 Z"/></g>
<g><path style="opacity:1" fill="#dee6f8" d="M 352.5,468.5 C 354.5,468.5 356.5,468.5 358.5,468.5C 386.5,468.5 414.5,468.5 442.5,468.5C 416.339,469.498 390.005,469.831 363.5,469.5C 363.5,473.833 363.5,478.167 363.5,482.5C 352.5,482.5 341.5,482.5 330.5,482.5C 330.5,478.167 330.5,473.833 330.5,469.5C 338.019,469.825 345.352,469.492 352.5,468.5 Z"/></g>
<g><path style="opacity:1" fill="#7a3d4a" d="M 61.5,471.5 C 64.402,482.43 60.402,486.597 49.5,484C 46.2902,480.873 44.9569,477.039 45.5,472.5C 50.9677,475.199 56.301,474.866 61.5,471.5 Z"/></g>
<g><path style="opacity:1" fill="#783d4a" d="M 69.5,466.5 C 69.012,469.711 69.6787,472.544 71.5,475C 76.4528,475.737 81.1194,474.904 85.5,472.5C 88.9028,483.91 84.9028,488.41 73.5,486C 71.9194,485.293 70.4194,484.46 69,483.5C 68.1816,477.651 68.3483,471.985 69.5,466.5 Z"/></g>
<g><path style="opacity:1" fill="#7e404d" d="M 108.5,445.5 C 109.66,457.66 109.827,469.993 109,482.5C 104.998,487.882 99.9975,488.882 94,485.5C 92.2968,475.711 92.1301,466.044 93.5,456.5C 93.3339,462.176 93.5006,467.843 94,473.5C 98.3234,475.715 102.823,476.048 107.5,474.5C 108.498,465.19 108.832,455.857 108.5,446.5C 108.5,446.167 108.5,445.833 108.5,445.5 Z"/></g>
<g><path style="opacity:1" fill="#e1664b" d="M 136.5,478.5 C 136.02,483.822 135.687,489.155 135.5,494.5C 130.489,494.666 125.489,494.499 120.5,494C 118.859,492.871 117.859,491.371 117.5,489.5C 117.5,485.5 117.5,481.5 117.5,477.5C 123.869,477.347 130.203,477.68 136.5,478.5 Z"/></g>
</svg>
