<?xml version="1.0" encoding="UTF-8"?>
<!DOCTYPE svg PUBLIC "-//W3C//DTD SVG 1.1//EN" "http://www.w3.org/Graphics/SVG/1.1/DTD/svg11.dtd">
<svg xmlns="http://www.w3.org/2000/svg" version="1.1" width="512px" height="512px" style="shape-rendering:geometricPrecision; text-rendering:geometricPrecision; image-rendering:optimizeQuality; fill-rule:evenodd; clip-rule:evenodd" xmlns:xlink="http://www.w3.org/1999/xlink">
<g><path style="opacity:1" fill="#262739" d="M 136.5,7.5 C 152.076,6.86817 163.242,13.5348 170,27.5C 172.367,42.1887 170.867,56.522 165.5,70.5C 165.667,70.8333 165.833,71.1667 166,71.5C 168.833,68.6667 171.667,65.8333 174.5,63C 178.181,61.6862 180.514,62.8529 181.5,66.5C 175.872,73.6429 170.372,80.9762 165,88.5C 157.421,101.813 153.421,116.146 153,131.5C 150.53,133.731 148.197,133.731 146,131.5C 141.501,123.164 136.501,115.164 131,107.5C 118.14,88.7792 110.64,68.1125 108.5,45.5C 108.489,25.5613 117.822,12.8946 136.5,7.5 Z"/></g>
<g><path style="opacity:1" fill="#a3eed6" d="M 160.5,28.5 C 157.522,33.4685 154.189,38.1352 150.5,42.5C 148.572,35.3621 143.905,32.5287 136.5,34C 133.272,35.5629 131.105,38.0629 130,41.5C 127.796,51.6436 128.296,61.6436 131.5,71.5C 129.5,74.1667 127.5,76.8333 125.5,79.5C 118.576,65.625 116.076,50.9584 118,35.5C 123.832,17.9996 135.332,12.4996 152.5,19C 156.47,21.1314 159.137,24.298 160.5,28.5 Z"/></g>
<g><path style="opacity:1" fill="#9de7d6" d="M 160.5,28.5 C 161.558,29.6002 162.392,30.9336 163,32.5C 163.667,36.5 163.667,40.5 163,44.5C 157.651,67.8958 151.984,91.2291 146,114.5C 138.11,103.445 131.277,91.7787 125.5,79.5C 127.5,76.8333 129.5,74.1667 131.5,71.5C 132.976,73.7686 134.476,76.1019 136,78.5C 137.466,80.3249 139.299,80.8249 141.5,80C 151.808,69.2664 154.808,56.7664 150.5,42.5C 154.189,38.1352 157.522,33.4685 160.5,28.5 Z"/></g>
<g><path style="opacity:1" fill="#28283c" d="M 150.5,42.5 C 154.808,56.7664 151.808,69.2664 141.5,80C 139.299,80.8249 137.466,80.3249 136,78.5C 134.476,76.1019 132.976,73.7686 131.5,71.5C 128.296,61.6436 127.796,51.6436 130,41.5C 131.105,38.0629 133.272,35.5629 136.5,34C 143.905,32.5287 148.572,35.3621 150.5,42.5 Z"/></g>
<g><path style="opacity:1" fill="#7854d7" d="M 138.5,41.5 C 140.451,41.2267 141.951,41.8934 143,43.5C 144.536,49.7494 144.87,56.0828 144,62.5C 143.222,65.1838 141.889,67.5172 140,69.5C 134.787,60.3822 134.287,51.0489 138.5,41.5 Z"/></g>
<g><path style="opacity:1" fill="#262639" d="M 225.5,41.5 C 244.171,40.3348 255.004,49.0015 258,67.5C 258.667,75.5 258.667,83.5 258,91.5C 256.783,100.679 255.116,109.679 253,118.5C 262.01,107.809 267.177,95.476 268.5,81.5C 271.042,78.9647 273.542,78.9647 276,81.5C 276.598,93.4388 273.598,104.439 267,114.5C 259.823,122.684 253.823,131.684 249,141.5C 248.012,144.424 247.346,147.424 247,150.5C 246.667,158.167 246.333,165.833 246,173.5C 243.925,175.648 241.592,175.982 239,174.5C 236.716,166.76 232.55,160.26 226.5,155C 218.836,149.499 210.836,144.499 202.5,140C 192.053,131.66 188.053,121.16 190.5,108.5C 192.575,107.238 194.575,107.405 196.5,109C 197.106,121.716 203.106,130.883 214.5,136.5C 214.833,136.167 215.167,135.833 215.5,135.5C 200.939,112.47 197.106,87.8036 204,61.5C 208.205,51.4558 215.371,44.7891 225.5,41.5 Z"/></g>
<g><path style="opacity:1" fill="#91d1d6" d="M 245.5,57.5 C 242.975,61.8962 239.975,65.8962 236.5,69.5C 231.416,66.5741 226.583,66.9075 222,70.5C 217.661,78.7498 216.494,87.4165 218.5,96.5C 216.646,100.221 214.313,103.554 211.5,106.5C 208.807,95.321 207.974,83.9877 209,72.5C 210.864,66.4402 213.53,60.7736 217,55.5C 227.196,47.0474 236.696,47.714 245.5,57.5 Z"/></g>
<g><path style="opacity:1" fill="#27283b" d="M 236.5,69.5 C 240.679,74.8855 242.345,81.0522 241.5,88C 242.023,97.0989 239.356,105.099 233.5,112C 230.422,115.477 227.589,115.31 225,111.5C 222.226,106.633 220.059,101.633 218.5,96.5C 216.494,87.4165 217.661,78.7498 222,70.5C 226.583,66.9075 231.416,66.5741 236.5,69.5 Z"/></g>
<g><path style="opacity:1" fill="#714fd2" d="M 228.5,74.5 C 229.822,74.33 230.989,74.6634 232,75.5C 235.747,85.1916 235.081,94.525 230,103.5C 224.66,94.0785 224.16,84.4118 228.5,74.5 Z"/></g>
<g><path style="opacity:1" fill="#272639" d="M 316.5,180.5 C 312.625,169.416 311.625,158.083 313.5,146.5C 314.392,142.21 315.725,138.043 317.5,134C 316.015,131.844 314.515,129.677 313,127.5C 312.819,124.305 312.319,121.305 311.5,118.5C 311.306,109.382 315.306,102.882 323.5,99C 328.867,93.9682 333.867,88.6349 338.5,83C 342.894,80.6261 347.56,79.9595 352.5,81C 369.667,89.999 386.833,98.8323 404,107.5C 421.047,85.6913 441.547,81.858 465.5,96C 477.221,106.626 481.721,119.793 479,135.5C 472.528,157.663 457.695,168.496 434.5,168C 429.751,186.422 418.751,199.755 401.5,208C 400.042,210.46 398.209,212.627 396,214.5C 395.333,227.167 395.333,239.833 396,252.5C 396.536,254.869 397.703,256.869 399.5,258.5C 407.688,254.128 414.688,255.628 420.5,263C 427.948,263.786 435.281,265.119 442.5,267C 447.382,270.214 451.215,274.381 454,279.5C 455.965,293.422 457.299,307.422 458,321.5C 459.264,331.558 461.931,341.225 466,350.5C 493.371,394.651 505.704,442.651 503,494.5C 502.5,496.333 501.333,497.5 499.5,498C 453.094,511.758 416.428,498.758 389.5,459C 378.112,451.389 365.945,445.222 353,440.5C 351.5,441 350,441.5 348.5,442C 345.993,446.682 342.993,451.015 339.5,455C 337.913,455.862 336.246,456.529 334.5,457C 326.833,457.667 319.167,457.667 311.5,457C 306.316,455.647 302.983,452.481 301.5,447.5C 294.43,447.956 287.43,448.956 280.5,450.5C 267.679,448.511 261.013,441.011 260.5,428C 262.202,415.559 265.535,403.559 270.5,392C 270.167,391.5 269.833,391 269.5,390.5C 244.296,397.59 218.629,400.757 192.5,400C 175.267,397.753 162.767,388.92 155,373.5C 150.642,354.373 158.142,343.706 177.5,341.5C 183.365,341.706 189.031,342.873 194.5,345C 205.977,350.41 217.311,355.743 228.5,361C 224.948,357.781 221.115,354.948 217,352.5C 215.67,347.502 217.504,345.336 222.5,346C 226.165,347.497 229.498,349.497 232.5,352C 238.167,358.333 243.833,364.667 249.5,371C 257.748,375.138 266.414,377.972 275.5,379.5C 276.523,374.929 277.856,370.429 279.5,366C 276.184,362.701 274.184,358.701 273.5,354C 275.249,347.505 276.915,341.005 278.5,334.5C 269.331,331.452 260.665,332.619 252.5,338C 248.905,339.073 246.905,337.739 246.5,334C 246.439,332.289 247.106,330.956 248.5,330C 222.416,327.539 200.25,317.039 182,298.5C 174.215,287.525 173.549,276.191 180,264.5C 188.361,255.827 198.195,253.66 209.5,258C 217.825,261.996 225.325,267.162 232,273.5C 240.333,284.167 248.667,294.833 257,305.5C 256.68,302.54 256.68,299.54 257,296.5C 258.972,294.558 261.139,294.224 263.5,295.5C 266.654,309.149 273.821,320.149 285,328.5C 287.228,326.887 289.728,326.22 292.5,326.5C 295.319,315.556 297.986,304.556 300.5,293.5C 290.269,287.712 279.936,281.878 269.5,276C 249.728,264.568 236.228,248.068 229,226.5C 225.704,214.026 227.37,202.36 234,191.5C 246.521,178.756 259.188,178.422 272,190.5C 279.272,204.58 283.606,219.58 285,235.5C 286.298,232.249 287.965,229.249 290,226.5C 292.393,225.519 294.393,226.185 296,228.5C 295.023,234.432 294.023,240.432 293,246.5C 291.059,260.079 294.392,272.079 303,282.5C 307.264,271.277 315.43,265.277 327.5,264.5C 330.464,265.472 333.464,265.638 336.5,265C 341.447,254.906 348.947,252.406 359,257.5C 360.735,256.318 361.735,254.651 362,252.5C 362.828,247.798 362.662,243.131 361.5,238.5C 345.793,243.085 333.293,238.418 324,224.5C 320.622,219.32 318.622,213.653 318,207.5C 317.83,198.324 317.33,189.324 316.5,180.5 Z M 431.5,375.5 C 432.496,389.99 432.829,404.657 432.5,419.5C 426.546,417.96 420.546,416.627 414.5,415.5C 414.23,404.93 415.563,394.596 418.5,384.5C 423.772,382.71 428.106,379.71 431.5,375.5 Z M 316.5,383.5 C 319.607,384.688 322.773,385.688 326,386.5C 326.915,392.155 327.749,397.821 328.5,403.5C 328.314,405.58 327.314,407.08 325.5,408C 319.786,408.296 314.119,407.796 308.5,406.5C 311.176,398.805 313.842,391.138 316.5,383.5 Z"/></g>
<g><path style="opacity:1" fill="#88c5d6" d="M 245.5,57.5 C 247.656,60.4374 249.156,63.7708 250,67.5C 250.667,74.8333 250.667,82.1667 250,89.5C 247.32,103.556 244.32,117.556 241,131.5C 240.079,138.475 239.412,145.475 239,152.5C 238.333,153.833 237.667,153.833 237,152.5C 230.752,143.672 224.752,134.672 219,125.5C 215.924,119.355 213.424,113.022 211.5,106.5C 214.313,103.554 216.646,100.221 218.5,96.5C 220.059,101.633 222.226,106.633 225,111.5C 227.589,115.31 230.422,115.477 233.5,112C 239.356,105.099 242.023,97.0989 241.5,88C 242.345,81.0522 240.679,74.8855 236.5,69.5C 239.975,65.8962 242.975,61.8962 245.5,57.5 Z"/></g>
<g><path style="opacity:1" fill="#f6cc97" d="M 358.5,94.5 C 358.631,95.3764 358.298,96.0431 357.5,96.5C 348.075,101.213 338.741,105.879 329.5,110.5C 328.685,111.837 327.518,112.837 326,113.5C 325.51,114.793 325.343,116.127 325.5,117.5C 323.97,118.067 322.47,118.733 321,119.5C 320.505,117.527 320.338,115.527 320.5,113.5C 320.369,112.761 320.536,112.094 321,111.5C 329.796,105.038 337.629,97.5383 344.5,89C 346.5,88.3333 348.5,88.3333 350.5,89C 353.07,91.0869 355.737,92.9202 358.5,94.5 Z"/></g>
<g><path style="opacity:1" fill="#4f2a43" d="M 434.5,95.5 C 438.308,95.1632 441.974,95.6632 445.5,97C 433.732,100.278 424.732,107.111 418.5,117.5C 417.998,118.521 417.332,118.688 416.5,118C 414.649,116.316 412.982,114.483 411.5,112.5C 416.912,103.642 424.578,97.9755 434.5,95.5 Z"/></g>
<g><path style="opacity:1" fill="#f8c191" d="M 358.5,94.5 C 362.362,96.2619 366.028,98.2619 369.5,100.5C 360.025,105.403 350.358,110.07 340.5,114.5C 337.595,111.22 333.929,109.887 329.5,110.5C 338.741,105.879 348.075,101.213 357.5,96.5C 358.298,96.0431 358.631,95.3764 358.5,94.5 Z"/></g>
<g><path style="opacity:1" fill="#f6b186" d="M 369.5,100.5 C 373.383,101.459 377.05,102.792 380.5,104.5C 383.167,117.833 377.833,123.167 364.5,120.5C 364.325,115.648 366.492,114.315 371,116.5C 374.379,115.13 375.212,112.797 373.5,109.5C 365.499,105.835 360.166,108.169 357.5,116.5C 356.566,117.568 356.232,118.901 356.5,120.5C 351.833,120.5 347.167,120.5 342.5,120.5C 342.396,118.297 341.73,116.297 340.5,114.5C 350.358,110.07 360.025,105.403 369.5,100.5 Z"/></g>
<g><path style="opacity:1" fill="#502b43" d="M 448.5,103.5 C 452.846,103.334 457.179,103.501 461.5,104C 465.01,105.907 466.176,108.74 465,112.5C 459.809,130.186 447.975,138.853 429.5,138.5C 428.188,133.707 426.188,129.207 423.5,125C 428.668,114.092 437.002,106.926 448.5,103.5 Z"/></g>
<g><path style="opacity:1" fill="#e46f51" d="M 380.5,104.5 C 381.794,105.29 382.961,106.29 384,107.5C 384.667,112.833 384.667,118.167 384,123.5C 382.745,125.594 380.912,126.594 378.5,126.5C 375.174,125.953 371.84,125.453 368.5,125C 366.249,124.252 364.916,122.752 364.5,120.5C 377.833,123.167 383.167,117.833 380.5,104.5 Z"/></g>
<g><path style="opacity:1" fill="#262638" d="M 70.5,111.5 C 82.1111,110.562 91.9445,114.228 100,122.5C 107.858,133.883 113.858,146.216 118,159.5C 118.758,154.422 119.758,149.422 121,144.5C 123.592,143.018 125.925,143.352 128,145.5C 127.496,157.478 127.496,169.478 128,181.5C 128.697,187.321 130.031,192.987 132,198.5C 142.268,220.054 155.268,239.72 171,257.5C 172.044,264.58 169.211,266.413 162.5,263C 147.433,252.938 132.1,243.271 116.5,234C 102.099,230.978 88.4326,225.978 75.5,219C 72.6667,216.833 69.8333,214.667 67,212.5C 65.1667,206.333 67.3333,204.167 73.5,206C 81.1667,212.5 89.8334,216.833 99.5,219C 81.6919,204.848 66.5252,188.348 54,169.5C 47.255,159.105 44.5884,147.772 46,135.5C 49.4488,122.55 57.6155,114.55 70.5,111.5 Z"/></g>
<g><path style="opacity:1" fill="#262639" d="M 308.5,117.5 C 308.067,120.259 306.4,121.592 303.5,121.5C 291.076,120.403 283.576,126.07 281,138.5C 278.903,153.749 281.403,168.082 288.5,181.5C 291.186,189.207 294.686,196.54 299,203.5C 300.418,198.656 302.418,193.99 305,189.5C 306.789,187.771 308.956,187.104 311.5,187.5C 312.018,188.577 312.352,189.744 312.5,191C 309.282,197.991 307.282,205.324 306.5,213C 307.839,226.029 314.172,235.695 325.5,242C 328.614,246.157 327.614,248.991 322.5,250.5C 308.872,244.036 300.705,233.369 298,218.5C 289.005,203.509 281.338,187.842 275,171.5C 269.899,154.615 271.232,138.282 279,122.5C 286.353,113.802 295.519,110.969 306.5,114C 307.823,114.816 308.489,115.983 308.5,117.5 Z"/></g>
<g><path style="opacity:1" fill="#79aad5" d="M 308.5,117.5 C 309.609,117.557 310.609,117.89 311.5,118.5C 312.319,121.305 312.819,124.305 313,127.5C 314.515,129.677 316.015,131.844 317.5,134C 315.725,138.043 314.392,142.21 313.5,146.5C 312.272,147.306 311.272,148.306 310.5,149.5C 311.905,143.389 309.905,139.055 304.5,136.5C 301.57,135.701 298.57,135.368 295.5,135.5C 299.319,131.834 302.652,127.668 305.5,123C 304.584,122.722 303.918,122.222 303.5,121.5C 306.4,121.592 308.067,120.259 308.5,117.5 Z"/></g>
<g><path style="opacity:1" fill="#eab387" d="M 320.5,113.5 C 320.338,115.527 320.505,117.527 321,119.5C 322.47,118.733 323.97,118.067 325.5,117.5C 328.2,119.767 331.2,120.1 334.5,118.5C 334.5,119.5 334.5,120.5 334.5,121.5C 329.833,122.167 325.167,122.833 320.5,123.5C 319.167,120.167 319.167,116.833 320.5,113.5 Z"/></g>
<g><path style="opacity:1" fill="#a3eed6" d="M 92.5,127.5 C 90.6778,130.472 88.8445,133.472 87,136.5C 85.8904,138.037 84.3904,138.703 82.5,138.5C 74.7566,136.56 70.09,139.56 68.5,147.5C 69.1705,150.846 69.8372,154.179 70.5,157.5C 70.5086,159.308 70.0086,160.975 69,162.5C 67.6181,165.043 65.7848,167.043 63.5,168.5C 56.3076,159.071 53.141,148.404 54,136.5C 59.8663,121.482 70.3663,116.649 85.5,122C 88.2661,123.371 90.5994,125.204 92.5,127.5 Z"/></g>
<g><path style="opacity:1" fill="#ec7151" d="M 342.5,120.5 C 347.167,120.5 351.833,120.5 356.5,120.5C 356.5,121.5 356.5,122.5 356.5,123.5C 352.958,123.187 349.625,123.521 346.5,124.5C 345.167,124.5 343.833,124.5 342.5,124.5C 342.5,123.167 342.5,121.833 342.5,120.5 Z"/></g>
<g><path style="opacity:1" fill="#e26f51" d="M 334.5,121.5 C 334.586,122.496 334.252,123.329 333.5,124C 329.547,126.536 325.381,127.369 321,126.5C 320.517,125.552 320.351,124.552 320.5,123.5C 325.167,122.833 329.833,122.167 334.5,121.5 Z"/></g>
<g><path style="opacity:1" fill="#935371" d="M 400.5,146.5 C 387.167,146.833 373.833,147.167 360.5,147.5C 364.307,136.594 371.973,131.761 383.5,133C 386.102,132.117 388.269,130.617 390,128.5C 391.213,122.847 392.379,117.18 393.5,111.5C 401.173,114.685 407.506,119.518 412.5,126C 410.133,133.917 406.133,140.75 400.5,146.5 Z"/></g>
<g><path style="opacity:1" fill="#925449" d="M 357.5,116.5 C 357.5,119.167 357.5,121.833 357.5,124.5C 353.833,124.5 350.167,124.5 346.5,124.5C 349.625,123.521 352.958,123.187 356.5,123.5C 356.5,122.5 356.5,121.5 356.5,120.5C 356.232,118.901 356.566,117.568 357.5,116.5 Z"/></g>
<g><path style="opacity:1" fill="#502b43" d="M 470.5,120.5 C 473.063,137.206 466.729,149.372 451.5,157C 446.012,159.016 440.345,159.849 434.5,159.5C 434.621,155.175 433.954,151.009 432.5,147C 450.607,145.793 463.274,136.96 470.5,120.5 Z"/></g>
<g><path style="opacity:1" fill="#26263a" d="M 295.5,135.5 C 298.57,135.368 301.57,135.701 304.5,136.5C 308.108,140.055 309.774,144.388 309.5,149.5C 307.576,157.768 304.743,165.768 301,173.5C 298.586,174.856 296.419,174.522 294.5,172.5C 292.641,166.09 290.474,159.757 288,153.5C 285.426,145.179 287.926,139.179 295.5,135.5 Z"/></g>
<g><path style="opacity:1" fill="#252538" d="M 163.5,136.5 C 176.498,134.886 186.998,139.219 195,149.5C 202.152,161.284 207.152,173.95 210,187.5C 210.848,184.302 212.348,181.469 214.5,179C 218.128,177.684 220.461,178.851 221.5,182.5C 213.48,200.515 213.646,218.515 222,236.5C 229.13,254.63 241.463,267.964 259,276.5C 260.33,281.498 258.496,283.664 253.5,283C 241.018,276.848 230.685,268.181 222.5,257C 189.479,243.64 164.313,221.473 147,190.5C 142.201,181.035 140.201,171.035 141,160.5C 143.579,147.758 151.079,139.758 163.5,136.5 Z"/></g>
<g><path style="opacity:1" fill="#8c4e6c" d="M 345.5,131.5 C 350.844,131.334 356.177,131.501 361.5,132C 355.038,138.092 351.705,145.592 351.5,154.5C 346.621,153.31 341.787,153.31 337,154.5C 336.449,145.598 339.283,137.931 345.5,131.5 Z"/></g>
<g><path style="opacity:1" fill="#28283c" d="M 82.5,138.5 C 97.126,148.444 102.293,162.11 98,179.5C 95.9361,180.591 93.7695,180.758 91.5,180C 81.8392,174.844 74.8392,167.344 70.5,157.5C 69.8372,154.179 69.1705,150.846 68.5,147.5C 70.09,139.56 74.7566,136.56 82.5,138.5 Z"/></g>
<g><path style="opacity:1" fill="#8fced5" d="M 192.5,162.5 C 191.937,166.311 189.937,168.977 186.5,170.5C 183.644,164.659 179.311,160.159 173.5,157C 168.481,156.259 164.647,158.092 162,162.5C 160.84,174.186 164.007,184.52 171.5,193.5C 170.872,196.09 169.705,198.423 168,200.5C 167.184,201.823 166.017,202.489 164.5,202.5C 154.568,190.295 149.401,176.295 149,160.5C 155.485,145.007 166.319,140.84 181.5,148C 186.521,151.907 190.187,156.74 192.5,162.5 Z"/></g>
<g><path style="opacity:1" fill="#6047c6" d="M 296.5,142.5 C 298.39,142.297 299.89,142.963 301,144.5C 302.133,149.863 301.299,154.863 298.5,159.5C 294.43,154.112 293.763,148.446 296.5,142.5 Z"/></g>
<g><path style="opacity:1" fill="#6a66cf" d="M 304.5,136.5 C 309.905,139.055 311.905,143.389 310.5,149.5C 310.167,149.5 309.833,149.5 309.5,149.5C 309.774,144.388 308.108,140.055 304.5,136.5 Z"/></g>
<g><path style="opacity:1" fill="#74a4d6" d="M 313.5,146.5 C 311.625,158.083 312.625,169.416 316.5,180.5C 314.478,182.531 312.811,184.865 311.5,187.5C 308.956,187.104 306.789,187.771 305,189.5C 302.418,193.99 300.418,198.656 299,203.5C 294.686,196.54 291.186,189.207 288.5,181.5C 290.735,178.709 292.735,175.709 294.5,172.5C 296.419,174.522 298.586,174.856 301,173.5C 304.743,165.768 307.576,157.768 309.5,149.5C 309.833,149.5 310.167,149.5 310.5,149.5C 311.272,148.306 312.272,147.306 313.5,146.5 Z"/></g>
<g><path style="opacity:1" fill="#874a68" d="M 400.5,146.5 C 390.552,158.099 377.885,163.599 362.5,163C 357.87,158.462 357.203,153.295 360.5,147.5C 373.833,147.167 387.167,146.833 400.5,146.5 Z"/></g>
<g><path style="opacity:1" fill="#7250d3" d="M 76.5,145.5 C 81.6018,146.757 85.4351,149.757 88,154.5C 94.78,173.493 92.1133,175.16 80,159.5C 77.3469,155.197 76.1803,150.531 76.5,145.5 Z"/></g>
<g><path style="opacity:1" fill="#884c6a" d="M 328.5,133.5 C 330.527,133.338 332.527,133.505 334.5,134C 329.925,141.461 327.759,149.628 328,158.5C 324.744,160.336 322.411,163.003 321,166.5C 319.408,155.691 320.908,145.357 325.5,135.5C 326.602,134.824 327.602,134.158 328.5,133.5 Z"/></g>
<g><path style="opacity:1" fill="#7aadd5" d="M 303.5,121.5 C 303.918,122.222 304.584,122.722 305.5,123C 302.652,127.668 299.319,131.834 295.5,135.5C 287.926,139.179 285.426,145.179 288,153.5C 290.474,159.757 292.641,166.09 294.5,172.5C 292.735,175.709 290.735,178.709 288.5,181.5C 281.403,168.082 278.903,153.749 281,138.5C 283.576,126.07 291.076,120.403 303.5,121.5 Z"/></g>
<g><path style="opacity:1" fill="#27283b" d="M 186.5,170.5 C 190.153,180.122 190.32,189.788 187,199.5C 185.534,201.325 183.701,201.825 181.5,201C 177.958,198.734 174.625,196.234 171.5,193.5C 164.007,184.52 160.84,174.186 162,162.5C 164.647,158.092 168.481,156.259 173.5,157C 179.311,160.159 183.644,164.659 186.5,170.5 Z"/></g>
<g><path style="opacity:1" fill="#4f2a43" d="M 425.5,160.5 C 426.147,161.274 426.48,162.274 426.5,163.5C 424.002,177.675 416.668,188.675 404.5,196.5C 403.656,192.799 402.323,189.299 400.5,186C 411.738,180.263 420.071,171.763 425.5,160.5 Z"/></g>
<g><path style="opacity:1" fill="#86c3d5" d="M 192.5,162.5 C 196.532,169.595 199.199,177.262 200.5,185.5C 193.944,197.049 186.61,208.049 178.5,218.5C 172.722,214.06 168.055,208.727 164.5,202.5C 166.017,202.489 167.184,201.823 168,200.5C 169.705,198.423 170.872,196.09 171.5,193.5C 174.625,196.234 177.958,198.734 181.5,201C 183.701,201.825 185.534,201.325 187,199.5C 190.32,189.788 190.153,180.122 186.5,170.5C 189.937,168.977 191.937,166.311 192.5,162.5 Z"/></g>
<g><path style="opacity:1" fill="#efa4a1" d="M 359.5,173.5 C 348.5,173.5 337.5,173.5 326.5,173.5C 331.823,161.686 340.49,158.519 352.5,164C 355.939,166.388 358.272,169.555 359.5,173.5 Z"/></g>
<g><path style="opacity:1" fill="#6749cb" d="M 169.5,164.5 C 172.263,164.744 174.429,166.077 176,168.5C 181.336,175.35 183.169,183.017 181.5,191.5C 172.798,184.442 168.798,175.442 169.5,164.5 Z"/></g>
<g><path style="opacity:1" fill="#7f4563" d="M 387.5,181.5 C 381.677,181.877 376.011,181.21 370.5,179.5C 368.013,177.22 367.347,174.553 368.5,171.5C 391.817,167.516 408.483,154.849 418.5,133.5C 421.064,136.125 422.731,139.292 423.5,143C 420.916,157.524 413.583,168.857 401.5,177C 397.1,179.368 392.434,180.868 387.5,181.5 Z"/></g>
<g><path style="opacity:1" fill="#98e1d7" d="M 92.5,127.5 C 97.8928,133.261 102.059,139.927 105,147.5C 110.072,159.882 114.239,172.549 117.5,185.5C 112.219,193.448 106.552,201.115 100.5,208.5C 86.0446,197.048 73.7113,183.715 63.5,168.5C 65.7848,167.043 67.6181,165.043 69,162.5C 70.0086,160.975 70.5086,159.308 70.5,157.5C 74.8392,167.344 81.8392,174.844 91.5,180C 93.7695,180.758 95.9361,180.591 98,179.5C 102.293,162.11 97.126,148.444 82.5,138.5C 84.3904,138.703 85.8904,138.037 87,136.5C 88.8445,133.472 90.6778,130.472 92.5,127.5 Z"/></g>
<g><path style="opacity:1" fill="#f4b0ae" d="M 326.5,173.5 C 337.5,173.5 348.5,173.5 359.5,173.5C 360.898,178.31 362.898,182.977 365.5,187.5C 352.5,187.5 339.5,187.5 326.5,187.5C 326.5,182.833 326.5,178.167 326.5,173.5 Z"/></g>
<g><path style="opacity:1" fill="#502c44" d="M 370.5,179.5 C 376.011,181.21 381.677,181.877 387.5,181.5C 383.672,183.071 380.672,185.738 378.5,189.5C 374.7,187.037 372.033,183.704 370.5,179.5 Z"/></g>
<g><path style="opacity:1" fill="#94d7d7" d="M 117.5,185.5 C 120.208,191.279 122.541,197.279 124.5,203.5C 121.607,209.388 117.94,214.722 113.5,219.5C 108.848,216.179 104.515,212.513 100.5,208.5C 106.552,201.115 112.219,193.448 117.5,185.5 Z"/></g>
<g><path style="opacity:1" fill="#79add4" d="M 270.5,207.5 C 269.876,209.754 268.543,211.421 266.5,212.5C 264.019,203.09 258.019,199.59 248.5,202C 241.93,205.655 239.763,211.155 242,218.5C 243.792,224.751 246.626,230.418 250.5,235.5C 249.921,238.331 248.588,240.664 246.5,242.5C 237.888,231.731 234.388,219.398 236,205.5C 239.313,194.839 246.479,189.672 257.5,190C 264.877,193.593 269.21,199.426 270.5,207.5 Z"/></g>
<g><path style="opacity:1" fill="#f3bab8" d="M 326.5,187.5 C 339.5,187.5 352.5,187.5 365.5,187.5C 369.308,192.995 374.475,196.662 381,198.5C 382.107,198.415 383.107,198.081 384,197.5C 384.765,194.804 385.932,192.304 387.5,190C 393.576,188.409 396.243,190.742 395.5,197C 395.494,199.033 395.161,200.866 394.5,202.5C 372.006,201.503 349.339,201.169 326.5,201.5C 326.5,203.5 326.5,205.5 326.5,207.5C 325.527,205.052 325.194,202.385 325.5,199.5C 327.857,199.663 330.19,199.497 332.5,199C 334.602,197.267 334.935,195.267 333.5,193C 329.106,193.497 326.772,191.664 326.5,187.5 Z"/></g>
<g><path style="opacity:1" fill="#2f2b3d" d="M 348.5,190.5 C 354.113,189.079 356.28,191.079 355,196.5C 351.716,198.356 348.216,199.189 344.5,199C 342.675,197.534 342.175,195.701 343,193.5C 344.719,192.131 346.552,191.131 348.5,190.5 Z"/></g>
<g><path style="opacity:1" fill="#84bfd8" d="M 200.5,185.5 C 202.355,192.277 203.688,199.277 204.5,206.5C 204.702,208.989 204.202,211.323 203,213.5C 198.916,218.735 195.083,224.069 191.5,229.5C 186.57,226.535 182.237,222.869 178.5,218.5C 186.61,208.049 193.944,197.049 200.5,185.5 Z"/></g>
<g><path style="opacity:1" fill="#27273b" d="M 266.5,212.5 C 268.108,222.568 267.608,232.568 265,242.5C 263.534,244.325 261.701,244.825 259.5,244C 256.631,240.962 253.631,238.129 250.5,235.5C 246.626,230.418 243.792,224.751 242,218.5C 239.763,211.155 241.93,205.655 248.5,202C 258.019,199.59 264.019,203.09 266.5,212.5 Z"/></g>
<g><path style="opacity:1" fill="#73a3d4" d="M 270.5,207.5 C 273.628,215.79 275.628,224.456 276.5,233.5C 275.732,232.737 275.232,231.737 275,230.5C 269.637,239.25 263.804,247.583 257.5,255.5C 252.713,252.052 249.046,247.719 246.5,242.5C 248.588,240.664 249.921,238.331 250.5,235.5C 253.631,238.129 256.631,240.962 259.5,244C 261.701,244.825 263.534,244.325 265,242.5C 267.608,232.568 268.108,222.568 266.5,212.5C 268.543,211.421 269.876,209.754 270.5,207.5 Z"/></g>
<g><path style="opacity:1" fill="#8eced6" d="M 124.5,203.5 C 132.213,217.619 140.38,231.285 149,244.5C 136.71,236.693 124.876,228.359 113.5,219.5C 117.94,214.722 121.607,209.388 124.5,203.5 Z"/></g>
<g><path style="opacity:1" fill="#7fb5d4" d="M 204.5,206.5 C 207.66,218.983 211.66,231.316 216.5,243.5C 216.167,243.833 215.833,244.167 215.5,244.5C 206.763,240.476 198.763,235.476 191.5,229.5C 195.083,224.069 198.916,218.735 203,213.5C 204.202,211.323 204.702,208.989 204.5,206.5 Z"/></g>
<g><path style="opacity:1" fill="#f7cac9" d="M 394.5,202.5 C 393.797,204.716 392.464,206.549 390.5,208C 386.389,209.891 382.056,210.891 377.5,211C 372.27,223.067 363.27,230.567 350.5,233.5C 337.257,229.593 329.257,220.927 326.5,207.5C 326.5,205.5 326.5,203.5 326.5,201.5C 349.339,201.169 372.006,201.503 394.5,202.5 Z"/></g>
<g><path style="opacity:1" fill="#5c42c6" d="M 251.5,208.5 C 255.42,208.043 257.92,209.709 259,213.5C 261,219.833 261,226.167 259,232.5C 252.107,226.72 249.107,219.386 250,210.5C 250.717,209.956 251.217,209.289 251.5,208.5 Z"/></g>
<g><path style="opacity:1" fill="#d77582" d="M 386.5,236.5 C 381.524,240.987 376.191,244.987 370.5,248.5C 370.334,243.156 370.501,237.823 371,232.5C 375.975,228.53 379.809,223.697 382.5,218C 383.793,217.51 385.127,217.343 386.5,217.5C 386.5,223.833 386.5,230.167 386.5,236.5 Z"/></g>
<g><path style="opacity:1" fill="#719dd6" d="M 276.5,233.5 C 278.299,248.358 281.799,262.692 287,276.5C 276.152,270.801 266.318,263.801 257.5,255.5C 263.804,247.583 269.637,239.25 275,230.5C 275.232,231.737 275.732,232.737 276.5,233.5 Z"/></g>
<g><path style="opacity:1" fill="#f6cac9" d="M 386.5,236.5 C 385.554,245.303 387.054,253.636 391,261.5C 392.041,263.585 393.541,265.252 395.5,266.5C 390.981,274.872 385.481,282.539 379,289.5C 371.497,283.677 366.33,276.177 363.5,267C 368.086,261.751 370.419,255.584 370.5,248.5C 376.191,244.987 381.524,240.987 386.5,236.5 Z"/></g>
<g><path style="opacity:1" fill="#262639" d="M 24.5,241.5 C 34.9006,240.701 43.9006,243.868 51.5,251C 55.7016,254.867 59.5349,259.033 63,263.5C 63.3333,258.5 63.6667,253.5 64,248.5C 65.7702,246.582 67.9369,246.082 70.5,247C 72.7064,249.209 73.0398,251.709 71.5,254.5C 72.0323,262.663 73.5323,270.663 76,278.5C 77.0804,280.996 78.4138,283.33 80,285.5C 80.1091,280.386 80.7758,275.386 82,270.5C 84.5918,269.018 86.9251,269.352 89,271.5C 86.2058,292.729 93.3725,309.562 110.5,322C 122.341,331.252 135.674,337.252 150.5,340C 153.097,343.677 152.264,346.511 148,348.5C 129.238,346.337 110.404,344.337 91.5,342.5C 82.2186,343.939 72.8853,344.939 63.5,345.5C 56.6788,345.43 50.0122,344.43 43.5,342.5C 41.5768,338.632 42.5768,335.966 46.5,334.5C 52.3915,336.233 58.3915,336.733 64.5,336C 43.5169,328.02 27.0169,314.52 15,295.5C 8.23361,285.103 5.56694,273.769 7,261.5C 9.52464,251.816 15.358,245.15 24.5,241.5 Z"/></g>
<g><path style="opacity:1" fill="#262638" d="M 112.5,248.5 C 122.221,248.694 130.554,252.194 137.5,259C 149.417,271.58 160.584,284.746 171,298.5C 182.381,310.891 195.214,321.391 209.5,330C 216.903,332.845 224.57,334.512 232.5,335C 235.487,338.881 234.653,341.715 230,343.5C 220.768,342.984 211.935,340.817 203.5,337C 170.1,335.977 139.766,325.977 112.5,307C 95.3787,293.314 91.2121,276.481 100,256.5C 103.378,252.406 107.545,249.739 112.5,248.5 Z"/></g>
<g><path style="opacity:1" fill="#9ae3d6" d="M 44.5,256.5 C 42.7155,261.619 39.3822,264.952 34.5,266.5C 28.0734,268.907 25.7401,273.574 27.5,280.5C 26.2768,284.049 24.2768,287.049 21.5,289.5C 13.8886,279.157 12.7219,268.157 18,256.5C 26.6964,247.43 35.5297,247.43 44.5,256.5 Z"/></g>
<g><path style="opacity:1" fill="#8cc9d5" d="M 125.5,260.5 C 124.601,263.395 123.267,266.062 121.5,268.5C 117.025,268.979 114.025,271.312 112.5,275.5C 111.683,277.969 111.183,280.635 111,283.5C 110.051,285.093 108.885,286.426 107.5,287.5C 105.837,285.507 104.67,283.174 104,280.5C 101.742,271.606 103.908,264.106 110.5,258C 115.859,256.163 120.859,256.996 125.5,260.5 Z"/></g>
<g><path style="opacity:1" fill="#7bb2d7" d="M 206.5,266.5 C 205.167,268.833 203.833,271.167 202.5,273.5C 198.283,274.05 195.616,276.383 194.5,280.5C 193.982,284.883 192.315,288.883 189.5,292.5C 183.984,287.776 182.15,281.776 184,274.5C 188.897,264.409 196.397,261.742 206.5,266.5 Z"/></g>
<g><path style="opacity:1" fill="#f1cc98" d="M 356.5,271.5 C 354.523,274.468 351.856,276.802 348.5,278.5C 346.876,275.394 345.543,272.061 344.5,268.5C 345.698,263.234 348.698,261.734 353.5,264C 355.377,266.126 356.377,268.626 356.5,271.5 Z"/></g>
<g><path style="opacity:1" fill="#e9eaf1" d="M 405.5,264.5 C 408.961,263.889 411.628,265.056 413.5,268C 404.037,292.14 387.037,307.807 362.5,315C 381.051,301.626 395.385,284.793 405.5,264.5 Z"/></g>
<g><path style="opacity:1" fill="#27283b" d="M 34.5,266.5 C 41.752,266.552 47.5854,269.552 52,275.5C 58.8324,283.985 61.4991,293.652 60,304.5C 59.101,306.368 57.601,307.368 55.5,307.5C 42.1846,302.516 32.8512,293.516 27.5,280.5C 25.7401,273.574 28.0734,268.907 34.5,266.5 Z"/></g>
<g><path style="opacity:1" fill="#27273b" d="M 121.5,268.5 C 134.157,272.82 141.824,281.487 144.5,294.5C 144.663,296.857 144.497,299.19 144,301.5C 142.644,302.38 141.144,302.714 139.5,302.5C 124.047,299.714 115.047,290.714 112.5,275.5C 114.025,271.312 117.025,268.979 121.5,268.5 Z"/></g>
<g><path style="opacity:1" fill="#bfccf7" d="M 448.5,303.5 C 432.642,303.667 416.975,303 401.5,301.5C 408.723,293.095 414.556,283.761 419,273.5C 433.769,269.067 443.435,274.067 448,288.5C 448.499,293.489 448.666,298.489 448.5,303.5 Z"/></g>
<g><path style="opacity:1" fill="#27273b" d="M 202.5,273.5 C 210.876,275.781 217.709,280.448 223,287.5C 224.942,291.069 227.108,294.402 229.5,297.5C 229.833,301.833 227.833,303.833 223.5,303.5C 212.648,303.324 203.814,298.991 197,290.5C 194.994,287.464 194.16,284.131 194.5,280.5C 195.616,276.383 198.283,274.05 202.5,273.5 Z"/></g>
<g><path style="opacity:1" fill="#74a5d3" d="M 206.5,266.5 C 218.557,271.217 227.891,279.217 234.5,290.5C 232.6,292.619 230.934,294.953 229.5,297.5C 227.108,294.402 224.942,291.069 223,287.5C 217.709,280.448 210.876,275.781 202.5,273.5C 203.833,271.167 205.167,268.833 206.5,266.5 Z"/></g>
<g><path style="opacity:1" fill="#6249cc" d="M 35.5,273.5 C 43.8778,276.717 49.3778,282.717 52,291.5C 52.8077,293.579 52.641,295.579 51.5,297.5C 43.6899,293.239 38.1899,286.906 35,278.5C 34.3603,276.735 34.5269,275.068 35.5,273.5 Z"/></g>
<g><path style="opacity:1" fill="#82bdd3" d="M 125.5,260.5 C 135.207,267.873 143.54,276.54 150.5,286.5C 149.85,290.14 148.35,293.473 146,296.5C 145.722,295.584 145.222,294.918 144.5,294.5C 141.824,281.487 134.157,272.82 121.5,268.5C 123.267,266.062 124.601,263.395 125.5,260.5 Z"/></g>
<g><path style="opacity:1" fill="#f8ccc9" d="M 344.5,288.5 C 332.457,293.576 320.29,298.576 308,303.5C 307.517,302.552 307.351,301.552 307.5,300.5C 307.682,279.643 318.016,270.643 338.5,273.5C 340.114,278.681 342.114,283.681 344.5,288.5 Z"/></g>
<g><path style="opacity:1" fill="#5d43c6" d="M 119.5,276.5 C 128.833,278.5 134.5,284.167 136.5,293.5C 127.833,290.833 122.167,285.167 119.5,276.5 Z"/></g>
<g><path style="opacity:1" fill="#5440bf" d="M 201.5,281.5 C 209.891,283.251 215.224,287.918 217.5,295.5C 209.603,293.581 204.27,288.915 201.5,281.5 Z"/></g>
<g><path style="opacity:1" fill="#f4b588" d="M 356.5,271.5 C 359.466,278.761 363.466,285.428 368.5,291.5C 366.833,293.5 365.167,295.5 363.5,297.5C 356.816,292.447 351.816,286.114 348.5,278.5C 351.856,276.802 354.523,274.468 356.5,271.5 Z"/></g>
<g><path style="opacity:1" fill="#81b8d7" d="M 150.5,286.5 C 154.47,291.476 158.47,296.476 162.5,301.5C 159.677,305.805 156.844,310.138 154,314.5C 152.871,316.141 151.371,317.141 149.5,317.5C 144.081,315.956 139.081,313.622 134.5,310.5C 137.038,308.999 139.038,306.832 140.5,304C 139.944,303.617 139.611,303.117 139.5,302.5C 141.144,302.714 142.644,302.38 144,301.5C 144.497,299.19 144.663,296.857 144.5,294.5C 145.222,294.918 145.722,295.584 146,296.5C 148.35,293.473 149.85,290.14 150.5,286.5 Z"/></g>
<g><path style="opacity:1" fill="#f6c4c3" d="M 344.5,288.5 C 345.906,288.973 346.573,289.973 346.5,291.5C 346.755,294.016 347.589,296.35 349,298.5C 351.52,302.224 354.02,305.891 356.5,309.5C 351.32,313.818 345.487,317.151 339,319.5C 338.5,319.167 338,318.833 337.5,318.5C 340.188,313.814 341.021,308.814 340,303.5C 338.867,301.789 337.367,301.289 335.5,302C 333.551,307.501 331.384,313.001 329,318.5C 322.999,323.327 316.832,327.994 310.5,332.5C 307.452,331.654 304.452,330.654 301.5,329.5C 301.167,328.667 300.833,327.833 300.5,327C 303.039,318.105 305.372,309.272 307.5,300.5C 307.351,301.552 307.517,302.552 308,303.5C 320.29,298.576 332.457,293.576 344.5,288.5 Z"/></g>
<g><path style="opacity:1" fill="#91d4d7" d="M 44.5,256.5 C 58.0296,269.358 69.6963,283.692 79.5,299.5C 73.8573,308.465 67.8573,317.132 61.5,325.5C 44.6722,317.337 31.3388,305.337 21.5,289.5C 24.2768,287.049 26.2768,284.049 27.5,280.5C 32.8512,293.516 42.1846,302.516 55.5,307.5C 57.601,307.368 59.101,306.368 60,304.5C 61.4991,293.652 58.8324,283.985 52,275.5C 47.5854,269.552 41.752,266.552 34.5,266.5C 39.3822,264.952 42.7155,261.619 44.5,256.5 Z"/></g>
<g><path style="opacity:1" fill="#d6624b" d="M 368.5,291.5 C 371.348,292.17 372.848,293.837 373,296.5C 371.027,297.64 369.193,298.973 367.5,300.5C 365.739,299.965 364.406,298.965 363.5,297.5C 365.167,295.5 366.833,293.5 368.5,291.5 Z"/></g>
<g><path style="opacity:1" fill="#d47581" d="M 346.5,291.5 C 350.97,296.802 355.97,301.636 361.5,306C 359.804,307.176 358.138,308.343 356.5,309.5C 354.02,305.891 351.52,302.224 349,298.5C 347.589,296.35 346.755,294.016 346.5,291.5 Z"/></g>
<g><path style="opacity:1" fill="#6f9dd5" d="M 234.5,290.5 C 242.54,302.047 251.874,312.547 262.5,322C 252.81,321.59 243.144,320.59 233.5,319C 227.781,317.958 222.448,316.125 217.5,313.5C 219.969,310.856 222.302,308.023 224.5,305C 223.944,304.617 223.611,304.117 223.5,303.5C 227.833,303.833 229.833,301.833 229.5,297.5C 230.934,294.953 232.6,292.619 234.5,290.5 Z"/></g>
<g><path style="opacity:1" fill="#75a6d5" d="M 194.5,280.5 C 194.16,284.131 194.994,287.464 197,290.5C 203.814,298.991 212.648,303.324 223.5,303.5C 223.611,304.117 223.944,304.617 224.5,305C 222.302,308.023 219.969,310.856 217.5,313.5C 205.903,309.384 196.57,302.384 189.5,292.5C 192.315,288.883 193.982,284.883 194.5,280.5 Z"/></g>
<g><path style="opacity:1" fill="#8dccd8" d="M 79.5,299.5 C 82.8211,304.129 86.1544,308.796 89.5,313.5C 86.8546,318.782 83.688,323.782 80,328.5C 79.1841,329.823 78.0174,330.489 76.5,330.5C 70.9563,330.208 65.9563,328.541 61.5,325.5C 67.8573,317.132 73.8573,308.465 79.5,299.5 Z"/></g>
<g><path style="opacity:1" fill="#83bed5" d="M 112.5,275.5 C 115.047,290.714 124.047,299.714 139.5,302.5C 139.611,303.117 139.944,303.617 140.5,304C 139.038,306.832 137.038,308.999 134.5,310.5C 122.729,306.06 113.729,298.394 107.5,287.5C 108.885,286.426 110.051,285.093 111,283.5C 111.183,280.635 111.683,277.969 112.5,275.5 Z"/></g>
<g><path style="opacity:1" fill="#7bafd5" d="M 162.5,301.5 C 170.672,310.837 179.672,319.337 189.5,327C 175.432,326.649 162.099,323.482 149.5,317.5C 151.371,317.141 152.871,316.141 154,314.5C 156.844,310.138 159.677,305.805 162.5,301.5 Z"/></g>
<g><path style="opacity:1" fill="#b9c6f7" d="M 401.5,301.5 C 416.975,303 432.642,303.667 448.5,303.5C 449.001,312.191 449.668,320.857 450.5,329.5C 442.903,331.467 434.903,332.134 426.5,331.5C 423.473,326.935 421.306,321.935 420,316.5C 417.936,315.409 415.769,315.242 413.5,316C 412.941,316.725 412.608,317.558 412.5,318.5C 414.037,322.444 415.37,326.444 416.5,330.5C 409.341,331.166 402.008,331.5 394.5,331.5C 372.661,331.172 350.995,330.505 329.5,329.5C 344.237,326.897 358.904,323.73 373.5,320C 384.051,315.605 393.384,309.438 401.5,301.5 Z"/></g>
<g><path style="opacity:1" fill="#85c1d4" d="M 89.5,313.5 C 97.4085,322.236 106.408,329.736 116.5,336C 102.768,336.252 89.4351,334.419 76.5,330.5C 78.0174,330.489 79.1841,329.823 80,328.5C 83.688,323.782 86.8546,318.782 89.5,313.5 Z"/></g>
<g><path style="opacity:1" fill="#b4c0f9" d="M 329.5,329.5 C 350.995,330.505 372.661,331.172 394.5,331.5C 402.008,331.5 409.341,331.166 416.5,330.5C 419.978,335.434 423.478,340.434 427,345.5C 428.727,348.618 429.561,351.951 429.5,355.5C 389.16,355.685 348.827,355.352 308.5,354.5C 310.755,342.24 317.755,333.906 329.5,329.5 Z"/></g>
<g><path style="opacity:1" fill="#b3bef7" d="M 450.5,329.5 C 452.864,338.591 455.864,347.591 459.5,356.5C 452.49,356.332 445.49,355.999 438.5,355.5C 436.586,346.407 432.586,338.407 426.5,331.5C 434.903,332.134 442.903,331.467 450.5,329.5 Z"/></g>
<g><path style="opacity:1" fill="#d55d45" d="M 302.5,338.5 C 303.675,338.281 304.675,338.614 305.5,339.5C 301.435,346.955 299.435,354.955 299.5,363.5C 294.081,361.971 288.748,360.138 283.5,358C 282.62,356.644 282.286,355.144 282.5,353.5C 285.193,353.572 287.86,353.905 290.5,354.5C 292.299,354.423 293.966,353.923 295.5,353C 298.118,348.319 300.451,343.485 302.5,338.5 Z"/></g>
<g><path style="opacity:1" fill="#f6bb8d" d="M 302.5,338.5 C 300.451,343.485 298.118,348.319 295.5,353C 293.966,353.923 292.299,354.423 290.5,354.5C 287.86,353.905 285.193,353.572 282.5,353.5C 283.143,348.399 284.309,343.399 286,338.5C 287.711,335.42 290.211,334.254 293.5,335C 296.718,335.9 299.718,337.067 302.5,338.5 Z"/></g>
<g><path style="opacity:1" fill="#74a5d6" d="M 190.5,352.5 C 189.758,354.98 188.758,357.313 187.5,359.5C 176.25,359.01 172.583,364.01 176.5,374.5C 175.066,377.047 173.4,379.381 171.5,381.5C 162.832,375.667 159.999,367.667 163,357.5C 167.536,350.156 174.036,347.656 182.5,350C 185.154,350.941 187.821,351.774 190.5,352.5 Z"/></g>
<g><path style="opacity:1" fill="#262538" d="M 71.5,352.5 C 77.7365,352.647 83.4031,354.481 88.5,358C 102.125,368.622 115.458,379.622 128.5,391C 144.351,402.068 161.684,410.068 180.5,415C 192.087,416.998 202.92,415.165 213,409.5C 216.739,409.905 218.073,411.905 217,415.5C 212.897,419.72 207.897,422.387 202,423.5C 194.81,424.78 187.643,424.78 180.5,423.5C 168.96,425.838 157.293,427.338 145.5,428C 133.504,432.331 121.504,436.664 109.5,441C 104.428,441.751 99.4285,441.418 94.5,440C 93.2203,437.868 93.2203,435.702 94.5,433.5C 103.588,433.488 112.254,431.655 120.5,428C 105.001,426.459 90.334,422.125 76.5,415C 64.3334,407.16 56.1667,396.327 52,382.5C 49.3081,366.162 55.8081,356.162 71.5,352.5 Z"/></g>
<g><path style="opacity:1" fill="#aeb9f8" d="M 308.5,354.5 C 348.827,355.352 389.16,355.685 429.5,355.5C 430.518,365.3 426.518,372.134 417.5,376C 411.833,376.667 406.167,376.667 400.5,376C 394.172,373.799 388.506,370.632 383.5,366.5C 379.824,367.205 378.824,369.205 380.5,372.5C 370.751,367.636 362.084,369.136 354.5,377C 351.89,378.481 349.223,379.648 346.5,380.5C 348.481,378.697 350.648,377.03 353,375.5C 354.477,371.002 352.977,368.835 348.5,369C 338.711,378.323 327.711,379.989 315.5,374C 309.14,369.001 306.807,362.501 308.5,354.5 Z"/></g>
<g><path style="opacity:1" fill="#26273b" d="M 187.5,359.5 C 198.64,362.408 207.307,368.741 213.5,378.5C 212.8,381.2 211.134,382.867 208.5,383.5C 196.281,385.45 185.615,382.45 176.5,374.5C 172.583,364.01 176.25,359.01 187.5,359.5 Z"/></g>
<g><path style="opacity:1" fill="#aeb9f8" d="M 438.5,355.5 C 445.49,355.999 452.49,356.332 459.5,356.5C 464.923,364.341 469.59,372.674 473.5,381.5C 462.325,381.158 451.325,380.158 440.5,378.5C 439.899,370.827 439.233,363.16 438.5,355.5 Z"/></g>
<g><path style="opacity:1" fill="#6e99d4" d="M 190.5,352.5 C 201.231,356.699 211.564,361.699 221.5,367.5C 219.555,371.736 216.888,375.403 213.5,378.5C 207.307,368.741 198.64,362.408 187.5,359.5C 188.758,357.313 189.758,354.98 190.5,352.5 Z"/></g>
<g><path style="opacity:1" fill="#86c3d5" d="M 79.5,362.5 C 78.1667,365.167 76.8333,367.833 75.5,370.5C 71.2857,373.047 68.619,376.713 67.5,381.5C 65.8333,383.5 64.1667,385.5 62.5,387.5C 58.7954,380.584 58.6288,373.584 62,366.5C 66.8873,361.484 72.7206,360.15 79.5,362.5 Z"/></g>
<g><path style="opacity:1" fill="#543dc4" d="M 182.5,367.5 C 189.84,367.834 196.173,370.5 201.5,375.5C 197.016,376.742 192.683,376.242 188.5,374C 185.591,372.594 183.591,370.428 182.5,367.5 Z"/></g>
<g><path style="opacity:1" fill="#d77582" d="M 304.5,391.5 C 297.658,387.578 290.658,383.912 283.5,380.5C 284.535,376.561 285.869,372.728 287.5,369C 296.541,368.748 303.874,372.082 309.5,379C 307.928,383.218 306.261,387.385 304.5,391.5 Z"/></g>
<g><path style="opacity:1" fill="#6993d7" d="M 221.5,367.5 C 233.068,374.616 245.402,380.116 258.5,384C 241.1,388.462 223.434,391.295 205.5,392.5C 206.765,389.475 208.432,386.642 210.5,384C 209.906,383.536 209.239,383.369 208.5,383.5C 211.134,382.867 212.8,381.2 213.5,378.5C 216.888,375.403 219.555,371.736 221.5,367.5 Z"/></g>
<g><path style="opacity:1" fill="#27283c" d="M 75.5,370.5 C 80.9251,370.378 85.5918,372.212 89.5,376C 93.7905,380.757 97.4571,385.923 100.5,391.5C 106.645,401.505 103.978,405.505 92.5,403.5C 83.1428,401.397 75.6428,396.397 70,388.5C 68.8638,386.257 68.0305,383.924 67.5,381.5C 68.619,376.713 71.2857,373.047 75.5,370.5 Z"/></g>
<g><path style="opacity:1" fill="#80b7d4" d="M 79.5,362.5 C 89.3825,368.385 98.3825,375.385 106.5,383.5C 104.488,386.205 102.488,388.872 100.5,391.5C 97.4571,385.923 93.7905,380.757 89.5,376C 85.5918,372.212 80.9251,370.378 75.5,370.5C 76.8333,367.833 78.1667,365.167 79.5,362.5 Z"/></g>
<g><path style="opacity:1" fill="#543dc4" d="M 76.5,378.5 C 79.2257,378.264 81.559,379.097 83.5,381C 87.4117,385.077 90.745,389.577 93.5,394.5C 85.8824,394.088 80.0491,390.421 76,383.5C 75.3603,381.735 75.5269,380.068 76.5,378.5 Z"/></g>
<g><path style="opacity:1" fill="#6e99d4" d="M 176.5,374.5 C 185.615,382.45 196.281,385.45 208.5,383.5C 209.239,383.369 209.906,383.536 210.5,384C 208.432,386.642 206.765,389.475 205.5,392.5C 195.193,393.116 185.526,390.95 176.5,386C 174.382,384.951 172.716,383.451 171.5,381.5C 173.4,379.381 175.066,377.047 176.5,374.5 Z"/></g>
<g><path style="opacity:1" fill="#545dc1" d="M 380.5,372.5 C 388.144,380.319 397.477,384.319 408.5,384.5C 408.093,390.199 407.427,395.866 406.5,401.5C 382.783,399.244 359.116,396.577 335.5,393.5C 334.565,390.887 334.398,388.221 335,385.5C 338.969,384.122 342.803,382.456 346.5,380.5C 349.223,379.648 351.89,378.481 354.5,377C 362.084,369.136 370.751,367.636 380.5,372.5 Z"/></g>
<g><path style="opacity:1" fill="#a9b4f8" d="M 440.5,378.5 C 451.325,380.158 462.325,381.158 473.5,381.5C 477.596,389.439 480.929,397.772 483.5,406.5C 482.527,406.013 481.527,405.513 480.5,405C 467.504,404.5 454.504,404.333 441.5,404.5C 441.711,395.8 441.377,387.133 440.5,378.5 Z"/></g>
<g><path style="opacity:1" fill="#7baed7" d="M 106.5,383.5 C 115.118,391.473 124.451,398.473 134.5,404.5C 132.529,409.329 129.862,413.829 126.5,418C 123.518,418.498 120.518,418.665 117.5,418.5C 106.497,418.063 96.1634,415.396 86.5,410.5C 89.1666,408.827 91.1666,406.493 92.5,403.5C 103.978,405.505 106.645,401.505 100.5,391.5C 102.488,388.872 104.488,386.205 106.5,383.5 Z"/></g>
<g><path style="opacity:1" fill="#80b7d4" d="M 67.5,381.5 C 68.0305,383.924 68.8638,386.257 70,388.5C 75.6428,396.397 83.1428,401.397 92.5,403.5C 91.1666,406.493 89.1666,408.827 86.5,410.5C 75.9099,405.577 67.9099,397.911 62.5,387.5C 64.1667,385.5 65.8333,383.5 67.5,381.5 Z"/></g>
<g><path style="opacity:1" fill="#a3acf4" d="M 335.5,393.5 C 359.116,396.577 382.783,399.244 406.5,401.5C 406.5,405.833 406.5,410.167 406.5,414.5C 396.933,412.882 387.266,412.049 377.5,412C 363.947,408.323 350.281,405.49 336.5,403.5C 335.949,400.193 335.616,396.86 335.5,393.5 Z"/></g>
<g><path style="opacity:1" fill="#a5adf8" d="M 441.5,404.5 C 454.504,404.333 467.504,404.5 480.5,405C 481.527,405.513 482.527,406.013 483.5,406.5C 486.612,415.281 488.945,424.281 490.5,433.5C 479.654,433.172 468.987,433.506 458.5,434.5C 455.529,432.343 452.529,430.176 449.5,428C 454.563,427.62 459.563,428.12 464.5,429.5C 466.739,429.426 467.739,428.259 467.5,426C 467.415,424.893 467.081,423.893 466.5,423C 463.321,421.539 459.988,420.705 456.5,420.5C 451.695,419.513 446.695,419.179 441.5,419.5C 441.5,414.833 441.5,410.167 441.5,405.5C 441.5,405.167 441.5,404.833 441.5,404.5 Z"/></g>
<g><path style="opacity:1" fill="#73a3d4" d="M 134.5,404.5 C 143.195,409.514 152.195,414.014 161.5,418C 146.698,419.713 132.031,419.88 117.5,418.5C 120.518,418.665 123.518,418.498 126.5,418C 129.862,413.829 132.529,409.329 134.5,404.5 Z"/></g>
<g><path style="opacity:1" fill="#f2afac" d="M 283.5,380.5 C 290.658,383.912 297.658,387.578 304.5,391.5C 302.774,397.18 300.94,402.846 299,408.5C 298.333,410.5 298.333,412.5 299,414.5C 304.116,415.144 309.282,415.811 314.5,416.5C 306.556,421.723 302.223,429.057 301.5,438.5C 296.486,439.169 291.486,440.003 286.5,441C 278.964,443.365 273.464,441.198 270,434.5C 269.333,429.167 269.333,423.833 270,418.5C 274.013,405.627 278.513,392.96 283.5,380.5 Z"/></g>
<g><path style="opacity:1" fill="#f7bdbb" d="M 342.5,411.5 C 347.933,412.525 353.267,413.858 358.5,415.5C 357.628,421.191 356.628,426.858 355.5,432.5C 350.186,431.99 345.52,433.49 341.5,437C 339.583,440.307 337.583,443.473 335.5,446.5C 337.365,434.713 339.698,423.046 342.5,411.5 Z"/></g>
<g><path style="opacity:1" fill="#252538" d="M 246.5,412.5 C 248.582,412.472 250.416,413.139 252,414.5C 252.571,418.045 251.904,421.378 250,424.5C 246.496,430.844 242.496,436.844 238,442.5C 234.583,451.75 230.583,460.75 226,469.5C 222.522,474.279 218.689,478.779 214.5,483C 208.601,485.765 206.101,483.932 207,477.5C 213.359,472.715 217.692,466.715 220,459.5C 207.406,470.738 192.906,478.572 176.5,483C 160.844,486.59 150.011,481.09 144,466.5C 141.86,447.961 150.027,437.128 168.5,434C 183.874,432.606 199.207,430.939 214.5,429C 225.949,424.777 236.616,419.277 246.5,412.5 Z"/></g>
<g><path style="opacity:1" fill="#f6c9c8" d="M 342.5,411.5 C 339.698,423.046 337.365,434.713 335.5,446.5C 334.942,447.79 333.942,448.623 332.5,449C 325.833,449.667 319.167,449.667 312.5,449C 310.667,448.5 309.5,447.333 309,445.5C 307.849,437.601 310.016,430.767 315.5,425C 321.342,421.246 327.009,417.246 332.5,413C 335.688,411.684 339.022,411.184 342.5,411.5 Z"/></g>
<g><path style="opacity:1" fill="#f0ada9" d="M 358.5,415.5 C 364.153,416.665 369.82,417.832 375.5,419C 376.38,420.356 376.714,421.856 376.5,423.5C 376.5,429.5 376.5,435.5 376.5,441.5C 369.616,438.225 362.616,435.225 355.5,432.5C 356.628,426.858 357.628,421.191 358.5,415.5 Z"/></g>
<g><path style="opacity:1" fill="#7175a8" d="M 441.5,405.5 C 441.5,410.167 441.5,414.833 441.5,419.5C 446.695,419.179 451.695,419.513 456.5,420.5C 451.167,420.5 445.833,420.5 440.5,420.5C 440.179,415.305 440.513,410.305 441.5,405.5 Z"/></g>
<g><path style="opacity:1" fill="#a0acf6" d="M 440.5,432.5 C 423.02,432.645 405.353,432.645 387.5,432.5C 386.377,428.465 385.044,424.465 383.5,420.5C 403.509,419.921 422.509,423.921 440.5,432.5 Z"/></g>
<g><path style="opacity:1" fill="#cb707d" d="M 376.5,423.5 C 379.301,431.07 381.801,438.737 384,446.5C 381.521,444.686 379.021,443.019 376.5,441.5C 376.5,435.5 376.5,429.5 376.5,423.5 Z"/></g>
<g><path style="opacity:1" fill="#638ad5" d="M 172.5,475.5 C 172.975,473.216 173.975,471.216 175.5,469.5C 183.634,466.343 190.468,461.343 196,454.5C 197.393,449.72 195.559,447.386 190.5,447.5C 192.279,445.454 193.946,443.287 195.5,441C 191.514,440.501 187.514,440.334 183.5,440.5C 202.911,440.985 221.245,436.818 238.5,428C 221.957,451.436 199.957,467.27 172.5,475.5 Z"/></g>
<g><path style="opacity:1" fill="#6a94d3" d="M 183.5,440.5 C 187.514,440.334 191.514,440.501 195.5,441C 193.946,443.287 192.279,445.454 190.5,447.5C 183.825,447.334 177.158,447.5 170.5,448C 161.172,450.156 158.339,455.656 162,464.5C 165.6,468.548 170.1,470.215 175.5,469.5C 173.975,471.216 172.975,473.216 172.5,475.5C 157.17,476.857 150.337,469.857 152,454.5C 154.634,448.536 159.134,444.703 165.5,443C 171.37,441.199 177.37,440.365 183.5,440.5 Z"/></g>
<g><path style="opacity:1" fill="#9da7f8" d="M 387.5,432.5 C 405.353,432.645 423.02,432.645 440.5,432.5C 443.589,433.739 446.589,435.239 449.5,437C 455.037,441.875 460.537,446.709 466,451.5C 469.072,450.553 470.072,448.553 469,445.5C 465.998,441.332 462.498,437.665 458.5,434.5C 468.987,433.506 479.654,433.172 490.5,433.5C 492.915,441.647 494.581,449.98 495.5,458.5C 463.736,457.172 432.069,457.172 400.5,458.5C 394.605,450.709 390.271,442.043 387.5,432.5 Z"/></g>
<g><path style="opacity:1" fill="#26273b" d="M 190.5,447.5 C 195.559,447.386 197.393,449.72 196,454.5C 190.468,461.343 183.634,466.343 175.5,469.5C 170.1,470.215 165.6,468.548 162,464.5C 158.339,455.656 161.172,450.156 170.5,448C 177.158,447.5 183.825,447.334 190.5,447.5 Z"/></g>
<g><path style="opacity:1" fill="#523cc0" d="M 173.5,454.5 C 177.182,454.335 180.848,454.501 184.5,455C 181.31,458.696 177.31,460.863 172.5,461.5C 170.275,461.695 168.609,460.861 167.5,459C 168.973,456.767 170.973,455.267 173.5,454.5 Z"/></g>
<g><path style="opacity:1" fill="#9aa1f9" d="M 495.5,458.5 C 496.689,467.319 496.689,475.986 495.5,484.5C 485.884,482.687 475.884,481.854 465.5,482C 451.327,481.173 437.327,481.339 423.5,482.5C 413.763,476.431 406.096,468.431 400.5,458.5C 432.069,457.172 463.736,457.172 495.5,458.5 Z"/></g>
<g><path style="opacity:1" fill="#9399f5" d="M 423.5,482.5 C 437.327,481.339 451.327,481.173 465.5,482C 475.884,481.854 485.884,482.687 495.5,484.5C 495.756,486.792 495.423,488.959 494.5,491C 469.424,499.206 445.757,496.373 423.5,482.5 Z"/></g>
</svg>
