<?xml version="1.0" encoding="UTF-8"?>
<!DOCTYPE svg PUBLIC "-//W3C//DTD SVG 1.1//EN" "http://www.w3.org/Graphics/SVG/1.1/DTD/svg11.dtd">
<svg xmlns="http://www.w3.org/2000/svg" version="1.1" width="512px" height="512px" style="shape-rendering:geometricPrecision; text-rendering:geometricPrecision; image-rendering:optimizeQuality; fill-rule:evenodd; clip-rule:evenodd" xmlns:xlink="http://www.w3.org/1999/xlink">
<g><path style="opacity:1" fill="#282639" d="M 492.5,26.5 C 495.808,25.9738 497.974,27.3072 499,30.5C 500.952,41.7607 497.452,50.9274 488.5,58C 482.725,60.9248 476.725,63.2581 470.5,65C 464.888,69.1756 463.055,74.6756 465,81.5C 468.333,86.1667 471.667,90.8333 475,95.5C 485.059,112.753 483.225,128.586 469.5,143C 466.661,144.92 463.661,146.587 460.5,148C 444.09,152.137 428.09,157.47 412.5,164C 399.167,172 388.5,182.667 380.5,196C 393.085,201.307 400.251,210.807 402,224.5C 423.882,251.264 444.049,279.264 462.5,308.5C 466.562,304.057 470.395,299.39 474,294.5C 475.857,291.063 477.191,287.396 478,283.5C 484.782,276.571 492.282,275.738 500.5,281C 506.845,291.454 504.679,299.62 494,305.5C 487.971,314.03 482.137,322.697 476.5,331.5C 480.228,339.117 480.395,346.783 477,354.5C 473.833,359 470.667,363.5 467.5,368C 462.249,371.084 456.915,371.251 451.5,368.5C 449.34,370.831 447.34,373.331 445.5,376C 453.366,380.759 456.033,387.593 453.5,396.5C 463.077,398.625 466.91,404.625 465,414.5C 464.293,416.081 463.46,417.581 462.5,419C 469.729,423.295 472.062,429.461 469.5,437.5C 475.27,444.78 474.603,451.28 467.5,457C 454.814,459.468 442.481,458.135 430.5,453C 421.965,451.469 417.298,446.469 416.5,438C 417.77,433.541 418.603,429.041 419,424.5C 410.716,431.255 401.883,432.088 392.5,427C 387.442,422.885 384.776,417.551 384.5,411C 388.811,398.339 386.478,397.006 377.5,407C 369.895,410.049 363.395,408.549 358,402.5C 350.674,393.833 345.007,384.166 341,373.5C 338.43,360.07 343.763,354.737 357,357.5C 364.211,352.211 371.211,352.544 378,358.5C 383.941,350.704 391.108,349.538 399.5,355C 400.787,356.41 401.954,357.91 403,359.5C 410.008,353.956 416.674,354.29 423,360.5C 426.923,356.313 430.089,351.646 432.5,346.5C 431.728,338.528 431.228,330.528 431,322.5C 425.54,314.706 419.04,307.873 411.5,302C 396.004,295.759 383.337,285.925 373.5,272.5C 371.587,273.373 369.753,274.373 368,275.5C 368.045,291.281 364.045,305.947 356,319.5C 345.058,333.109 334.891,347.276 325.5,362C 331.479,374.297 338.646,385.797 347,396.5C 347.667,398.5 347.667,400.5 347,402.5C 324.578,426.697 304.578,452.697 287,480.5C 284.03,485.249 280.697,485.582 277,481.5C 270,469.833 263,458.167 256,446.5C 246.033,439.252 239.533,429.585 236.5,417.5C 230.187,413.02 224.687,407.687 220,401.5C 209.587,420.662 198.92,439.662 188,458.5C 182.877,465.644 176.044,468.144 167.5,466C 138.716,451.109 110.383,435.442 82.5,419C 73.1531,417.384 63.8198,415.717 54.5,414C 37.745,406.25 22.9116,395.75 10,382.5C 7.43192,378.894 6.43192,374.894 7,370.5C 9.5806,365.111 11.2473,359.444 12,353.5C 14.0287,350.404 16.862,348.738 20.5,348.5C 23.5315,339.156 29.5315,336.656 38.5,341C 42.7565,344.045 46.9232,347.212 51,350.5C 52.7735,346.027 55.9402,344.194 60.5,345C 68.7578,351.38 76.9245,357.88 85,364.5C 86.8605,366.888 88.1939,369.554 89,372.5C 89.6021,376.883 90.4354,381.216 91.5,385.5C 96.0686,387.301 100.735,388.801 105.5,390C 119.262,392.204 132.928,394.87 146.5,398C 150.263,398.92 153.763,400.42 157,402.5C 160.747,391.593 165.08,380.926 170,370.5C 169.946,363.494 169.446,356.494 168.5,349.5C 168.613,338.096 171.447,327.429 177,317.5C 178.389,299.941 182.889,283.274 190.5,267.5C 181.949,265.1 173.616,265.934 165.5,270C 161.248,271.414 158.748,269.914 158,265.5C 155.976,256.735 153.642,248.068 151,239.5C 146.667,237.5 142.333,235.5 138,233.5C 137.333,231.5 137.333,229.5 138,227.5C 140.667,222.833 143.333,218.167 146,213.5C 146.201,202.966 146.701,192.466 147.5,182C 147.355,181.228 147.022,180.561 146.5,180C 141.5,179 136.5,178 131.5,177C 130.106,176.044 129.439,174.711 129.5,173C 142.915,140.77 167.248,124.77 202.5,125C 214.115,103.72 231.115,88.3863 253.5,79C 274.159,70.8896 295.159,64.2229 316.5,59C 317.191,60.0674 317.691,61.2341 318,62.5C 318.584,69.2444 318.584,75.911 318,82.5C 323.402,80.6063 328.902,78.9397 334.5,77.5C 336.601,77.6316 338.101,78.6316 339,80.5C 341.081,92.1734 338.747,102.84 332,112.5C 328.603,115.783 324.77,118.449 320.5,120.5C 315.945,135.21 305.945,143.71 290.5,146C 287.932,156.234 281.599,162.901 271.5,166C 267.5,166.833 263.5,167.667 259.5,168.5C 262.242,176.931 262.075,185.265 259,193.5C 256.767,195.733 254.6,197.9 252.5,200C 253.842,205.079 254.676,210.246 255,215.5C 266.965,209.734 279.465,205.567 292.5,203C 302.199,197.638 310.366,190.471 317,181.5C 323.389,167.207 331.889,154.374 342.5,143C 356.996,130.947 373.663,125.947 392.5,128C 401.078,129.986 409.745,130.653 418.5,130C 421.408,129.311 424.075,128.145 426.5,126.5C 427.977,121.267 428.977,115.934 429.5,110.5C 427.294,98.5436 425.294,86.5436 423.5,74.5C 423.03,58.2468 430.363,47.4135 445.5,42C 457.936,40.931 470.269,39.2644 482.5,37C 486.712,34.2889 490.046,30.7889 492.5,26.5 Z"/></g>
<g><path style="opacity:1" fill="#e1e6f4" d="M 442.5,83.5 C 439.277,81.6358 436.11,79.6358 433,77.5C 432.502,74.1832 432.335,70.8499 432.5,67.5C 434.341,56.8264 440.675,50.6598 451.5,49C 459.484,48.144 467.484,47.4773 475.5,47C 480.75,46.1062 485.75,44.7729 490.5,43C 488.753,46.8343 486.086,49.8343 482.5,52C 476.225,54.1527 469.892,56.1527 463.5,58C 454.961,61.6665 448.461,67.4998 444,75.5C 442.921,78.0627 442.421,80.7294 442.5,83.5 Z"/></g>
<g><path style="opacity:1" fill="#e66e50" d="M 307.5,68.5 C 308.5,68.5 309.5,68.5 310.5,68.5C 311.038,74.3149 310.038,79.8149 307.5,85C 287.908,88.6485 268.908,94.3152 250.5,102C 237.244,108.922 225.41,117.756 215,128.5C 213.605,128.22 212.438,127.553 211.5,126.5C 223.197,106.485 239.864,92.3184 261.5,84C 277.105,79.2986 292.439,74.132 307.5,68.5 Z"/></g>
<g><path style="opacity:1" fill="#d3dcf4" d="M 432.5,67.5 C 432.335,70.8499 432.502,74.1832 433,77.5C 436.11,79.6358 439.277,81.6358 442.5,83.5C 443.149,87.9512 444.316,92.2845 446,96.5C 448.988,100.808 451.155,105.475 452.5,110.5C 452.817,113.572 452.484,116.572 451.5,119.5C 447.056,116.378 442.39,113.711 437.5,111.5C 436.315,100.391 434.482,89.3911 432,78.5C 431.19,74.6425 431.357,70.9758 432.5,67.5 Z"/></g>
<g><path style="opacity:1" fill="#f5dd74" d="M 318.5,111.5 C 316.983,111.489 315.816,110.823 315,109.5C 311.547,104.379 307.714,99.5455 303.5,95C 304.737,94.7679 305.737,94.2679 306.5,93.5C 314.546,90.7625 322.879,88.7625 331.5,87.5C 331.644,95.7899 328.977,102.957 323.5,109C 321.922,110.094 320.255,110.928 318.5,111.5 Z"/></g>
<g><path style="opacity:1" fill="#d4dbf4" d="M 454.5,72.5 C 455.25,76.8064 456.417,81.1398 458,85.5C 462.667,92.8333 467.333,100.167 472,107.5C 475.873,125.582 469.039,137.082 451.5,142C 464.128,126.216 464.628,110.049 453,93.5C 449.175,86.0653 449.675,79.0653 454.5,72.5 Z"/></g>
<g><path style="opacity:1" fill="#f6d46d" d="M 306.5,93.5 C 305.737,94.2679 304.737,94.7679 303.5,95C 307.714,99.5455 311.547,104.379 315,109.5C 315.816,110.823 316.983,111.489 318.5,111.5C 318.082,112.222 317.416,112.722 316.5,113C 304.346,112.882 292.346,114.049 280.5,116.5C 278.629,116.141 277.129,115.141 276,113.5C 273.283,110.29 270.783,106.956 268.5,103.5C 280.898,99.2335 293.565,95.9001 306.5,93.5 Z"/></g>
<g><path style="opacity:1" fill="#cad3f4" d="M 452.5,110.5 C 454.688,124.317 450.021,135.484 438.5,144C 435.088,146.306 431.421,148.14 427.5,149.5C 427.167,149.167 426.833,148.833 426.5,148.5C 433.924,137.309 437.591,124.976 437.5,111.5C 442.39,113.711 447.056,116.378 451.5,119.5C 452.484,116.572 452.817,113.572 452.5,110.5 Z"/></g>
<g><path style="opacity:1" fill="#f6ca67" d="M 268.5,103.5 C 270.783,106.956 273.283,110.29 276,113.5C 277.129,115.141 278.629,116.141 280.5,116.5C 276.957,117.86 273.457,119.526 270,121.5C 269.175,123.701 269.675,125.534 271.5,127C 278.124,125.578 284.791,123.911 291.5,122C 298.192,121.169 304.858,121.336 311.5,122.5C 306.85,131.294 299.517,136.461 289.5,138C 281.401,138.344 273.401,139.344 265.5,141C 264.177,141.816 263.511,142.983 263.5,144.5C 261.139,144.674 258.806,145.007 256.5,145.5C 250.046,137.207 243.379,129.041 236.5,121C 237.056,120.617 237.389,120.117 237.5,119.5C 246.79,112.354 257.123,107.02 268.5,103.5 Z"/></g>
<g><path style="opacity:1" fill="#f5b85b" d="M 237.5,119.5 C 237.389,120.117 237.056,120.617 236.5,121C 243.379,129.041 250.046,137.207 256.5,145.5C 256.5,146.167 256.167,146.5 255.5,146.5C 249.35,137.787 241.85,136.454 233,142.5C 231.445,144.443 230.278,146.61 229.5,149C 230.058,151.058 231.391,152.225 233.5,152.5C 236.245,151.538 238.245,149.705 239.5,147C 247.195,145.491 250.028,148.658 248,156.5C 241.367,165.272 232.534,168.772 221.5,167C 211.26,164.015 207.76,157.515 211,147.5C 215.091,141.653 219.424,135.987 224,130.5C 228.103,126.218 232.603,122.551 237.5,119.5 Z"/></g>
<g><path style="opacity:1" fill="#f7d66e" d="M 187.5,134.5 C 187.833,134.5 188.167,134.5 188.5,134.5C 182.846,147.812 177.179,161.145 171.5,174.5C 169.955,175.452 168.288,175.785 166.5,175.5C 157.348,174.37 148.348,172.536 139.5,170C 149.248,149.634 165.248,137.801 187.5,134.5 Z"/></g>
<g><path style="opacity:1" fill="#f8cc68" d="M 188.5,134.5 C 191.572,134.183 194.572,134.516 197.5,135.5C 192,148.5 186.5,161.5 181,174.5C 180.578,176.426 179.411,177.426 177.5,177.5C 173.64,177.192 169.974,176.525 166.5,175.5C 168.288,175.785 169.955,175.452 171.5,174.5C 177.179,161.145 182.846,147.812 188.5,134.5 Z"/></g>
<g><path style="opacity:1" fill="#f6c362" d="M 187.5,134.5 C 195.045,133.173 202.712,133.34 210.5,135C 207.271,139.233 204.438,143.733 202,148.5C 200.932,154.169 201.765,159.503 204.5,164.5C 202.961,170.566 200.628,176.233 197.5,181.5C 190.589,180.785 183.923,179.451 177.5,177.5C 179.411,177.426 180.578,176.426 181,174.5C 186.5,161.5 192,148.5 197.5,135.5C 194.572,134.516 191.572,134.183 188.5,134.5C 188.167,134.5 187.833,134.5 187.5,134.5 Z"/></g>
<g><path style="opacity:1" fill="#6e74ac" d="M 403.5,159.5 C 390.023,153.596 377.023,146.929 364.5,139.5C 376.27,134.799 388.27,134.299 400.5,138C 407.704,138.781 414.871,138.614 422,137.5C 422.5,137.833 423,138.167 423.5,138.5C 419.457,148.205 412.791,155.205 403.5,159.5 Z"/></g>
<g><path style="opacity:1" fill="#6b75a7" d="M 364.5,139.5 C 377.023,146.929 390.023,153.596 403.5,159.5C 392.15,167.184 382.816,176.851 375.5,188.5C 361.5,181.833 347.5,175.167 333.5,168.5C 340.303,155.03 350.636,145.363 364.5,139.5 Z"/></g>
<g><path style="opacity:1" fill="#dd644a" d="M 263.5,144.5 C 263.818,146.818 265.152,148.152 267.5,148.5C 272.136,147.384 276.803,146.884 281.5,147C 279.553,151.28 276.553,154.613 272.5,157C 267.012,159.016 261.345,159.849 255.5,159.5C 256.695,155.12 256.695,150.787 255.5,146.5C 256.167,146.5 256.5,146.167 256.5,145.5C 258.806,145.007 261.139,144.674 263.5,144.5 Z"/></g>
<g><path style="opacity:1" fill="#f5b459" d="M 204.5,164.5 C 205.488,165.795 206.488,167.128 207.5,168.5C 210.129,171.631 212.962,174.631 216,177.5C 216.92,180.994 215.754,183.327 212.5,184.5C 207.256,184.118 202.256,183.118 197.5,181.5C 200.628,176.233 202.961,170.566 204.5,164.5 Z"/></g>
<g><path style="opacity:1" fill="#da624a" d="M 212.5,184.5 C 215.754,183.327 216.92,180.994 216,177.5C 212.962,174.631 210.129,171.631 207.5,168.5C 222.075,177.006 236.242,176.339 250,166.5C 253.194,172.777 254.194,179.443 253,186.5C 251.287,191.038 248.12,192.538 243.5,191C 233.049,188.744 222.715,186.578 212.5,184.5 Z"/></g>
<g><path style="opacity:1" fill="#d87582" d="M 183.5,194.5 C 174.245,192.583 164.911,190.916 155.5,189.5C 155.5,186.833 155.5,184.167 155.5,181.5C 164.52,183.059 173.52,184.726 182.5,186.5C 182.401,189.237 182.735,191.904 183.5,194.5 Z"/></g>
<g><path style="opacity:1" fill="#656fa6" d="M 333.5,168.5 C 347.5,175.167 361.5,181.833 375.5,188.5C 374.763,190.305 373.763,191.971 372.5,193.5C 355.31,193.714 338.976,197.548 323.5,205C 317.775,205.717 312.109,205.384 306.5,204C 318.723,194.611 327.723,182.778 333.5,168.5 Z"/></g>
<g><path style="opacity:1" fill="#35364b" d="M 210.5,192.5 C 220.855,194.137 231.189,195.971 241.5,198C 243,198.833 244.167,200 245,201.5C 248.482,218.059 243.482,231.392 230,241.5C 228.954,240.228 228.454,238.728 228.5,237C 230.183,232.463 232.017,227.963 234,223.5C 234.746,218.958 234.579,214.458 233.5,210C 230.081,204.981 225.414,203.314 219.5,205C 216.565,206.715 213.732,208.548 211,210.5C 209.775,210.138 208.609,209.638 207.5,209C 211.167,206.667 214.833,204.333 218.5,202C 216.351,200.836 214.185,199.67 212,198.5C 211.667,198.833 211.333,199.167 211,199.5C 210.503,197.19 210.337,194.857 210.5,192.5 Z"/></g>
<g><path style="opacity:1" fill="#f0a4a3" d="M 155.5,189.5 C 164.911,190.916 174.245,192.583 183.5,194.5C 184.786,197.756 186.12,201.089 187.5,204.5C 177,203.844 166.5,203.178 156,202.5C 155.821,206.025 155.321,209.359 154.5,212.5C 154.175,204.648 154.508,196.982 155.5,189.5 Z"/></g>
<g><path style="opacity:1" fill="#e6ebf7" d="M 352.5,230.5 C 344.842,224.174 337.508,217.508 330.5,210.5C 344.21,203.195 358.876,200.695 374.5,203C 383.801,205.466 389.468,211.299 391.5,220.5C 377.761,220.969 364.761,224.302 352.5,230.5 Z"/></g>
<g><path style="opacity:1" fill="#dfe5f8" d="M 330.5,210.5 C 337.508,217.508 344.842,224.174 352.5,230.5C 342.674,236.246 333.007,242.246 323.5,248.5C 318.362,243.532 313.029,238.699 307.5,234C 304.882,231.894 302.882,229.394 301.5,226.5C 310.065,219.38 319.731,214.046 330.5,210.5 Z"/></g>
<g><path style="opacity:1" fill="#d5ddf6" d="M 284.5,229.5 C 273.527,235.629 264.194,243.796 256.5,254C 251.504,254.664 249.67,252.498 251,247.5C 255,241.5 259,235.5 263,229.5C 264.474,226.244 265.64,222.911 266.5,219.5C 279.56,211.977 293.56,209.477 308.5,212C 300.061,217.278 292.061,223.111 284.5,229.5 Z"/></g>
<g><path style="opacity:1" fill="#f4b1af" d="M 187.5,204.5 C 194.355,214.094 203.688,218.594 215.5,218C 217.85,214.158 221.183,212.492 225.5,213C 228.109,216.541 228.109,220.041 225.5,223.5C 200.852,222.441 176.185,221.774 151.5,221.5C 152.696,218.579 153.696,215.579 154.5,212.5C 155.321,209.359 155.821,206.025 156,202.5C 166.5,203.178 177,203.844 187.5,204.5 Z"/></g>
<g><path style="opacity:1" fill="#312c3e" d="M 169.5,208.5 C 171.857,208.337 174.19,208.503 176.5,209C 177.935,211.267 177.602,213.267 175.5,215C 172.649,216.608 169.649,217.274 166.5,217C 164.675,215.534 164.175,213.701 165,211.5C 166.652,210.601 168.152,209.601 169.5,208.5 Z"/></g>
<g><path style="opacity:1" fill="#d7dff8" d="M 301.5,226.5 C 302.882,229.394 304.882,231.894 307.5,234C 313.029,238.699 318.362,243.532 323.5,248.5C 314.424,256.24 306.424,264.906 299.5,274.5C 298.078,274.291 296.745,273.791 295.5,273C 288.295,266.292 280.962,259.792 273.5,253.5C 272.833,253.5 272.5,253.167 272.5,252.5C 275.531,247.469 279.531,243.469 284.5,240.5C 289.585,235.078 295.251,230.411 301.5,226.5 Z"/></g>
<g><path style="opacity:1" fill="#f7bdbb" d="M 151.5,221.5 C 176.185,221.774 200.852,222.441 225.5,223.5C 225.067,226.195 223.734,228.362 221.5,230C 217.339,231.737 213.005,232.737 208.5,233C 207.269,235.166 206.269,237.333 205.5,239.5C 193.99,239.541 182.49,239.208 171,238.5C 167.098,238.512 163.598,239.179 160.5,240.5C 159.587,238.067 158.587,235.567 157.5,233C 154.244,231.526 150.911,230.36 147.5,229.5C 148.304,226.558 149.638,223.891 151.5,221.5 Z"/></g>
<g><path style="opacity:1" fill="#f8cac8" d="M 400.5,235.5 C 394.831,246.848 388.165,257.514 380.5,267.5C 378.806,263.278 376.472,259.445 373.5,256C 370.771,255.199 369.105,256.199 368.5,259C 369.45,261.235 369.45,263.402 368.5,265.5C 358.292,271.098 348.625,277.431 339.5,284.5C 328.203,284.906 323.703,279.573 326,268.5C 330.468,259.197 336.635,251.197 344.5,244.5C 359.778,233.797 376.778,228.63 395.5,229C 397.054,231.287 398.721,233.454 400.5,235.5 Z"/></g>
<g><path style="opacity:1" fill="#f8bfbe" d="M 400.5,235.5 C 405.518,241.19 410.185,247.19 414.5,253.5C 408.511,263.472 402.511,273.472 396.5,283.5C 389.521,279.855 384.188,274.522 380.5,267.5C 388.165,257.514 394.831,246.848 400.5,235.5 Z"/></g>
<g><path style="opacity:1" fill="#d57380" d="M 217.5,238.5 C 218.833,238.5 220.167,238.5 221.5,238.5C 222.025,246.55 225.025,253.55 230.5,259.5C 225.72,267.61 221.386,275.943 217.5,284.5C 212.159,273.159 203.826,264.826 192.5,259.5C 199.263,256.372 205.43,252.372 211,247.5C 212.707,245.091 213.54,242.425 213.5,239.5C 215.099,239.768 216.432,239.434 217.5,238.5 Z"/></g>
<g><path style="opacity:1" fill="#f7c7c5" d="M 205.5,239.5 C 205.572,242.522 204.238,244.688 201.5,246C 189.944,251.863 178.111,257.029 166,261.5C 164.002,254.506 162.169,247.506 160.5,240.5C 163.598,239.179 167.098,238.512 171,238.5C 182.49,239.208 193.99,239.541 205.5,239.5 Z"/></g>
<g><path style="opacity:1" fill="#8990c4" d="M 266.5,219.5 C 265.64,222.911 264.474,226.244 263,229.5C 259,235.5 255,241.5 251,247.5C 249.67,252.498 251.504,254.664 256.5,254C 264.194,243.796 273.527,235.629 284.5,229.5C 282.213,231.614 280.546,234.114 279.5,237C 279.743,240.003 281.41,241.17 284.5,240.5C 279.531,243.469 275.531,247.469 272.5,252.5C 265.375,250.673 263.708,253.007 267.5,259.5C 263.315,263.708 260.315,268.708 258.5,274.5C 256.278,274.178 254.444,274.845 253,276.5C 250.117,282.923 247.283,289.257 244.5,295.5C 244.719,294.325 244.386,293.325 243.5,292.5C 237.648,289.742 231.981,286.742 226.5,283.5C 230.568,275.031 234.901,266.698 239.5,258.5C 237.934,255.425 235.767,252.758 233,250.5C 236.792,245.693 241.126,241.027 246,236.5C 248.167,232.833 250.333,229.167 252.5,225.5C 256.956,222.937 261.623,220.937 266.5,219.5 Z"/></g>
<g><path style="opacity:1" fill="#d77582" d="M 344.5,244.5 C 336.635,251.197 330.468,259.197 326,268.5C 323.703,279.573 328.203,284.906 339.5,284.5C 329.573,294.293 317.573,299.459 303.5,300C 300.833,302.333 300.833,304.667 303.5,307C 307.537,307.607 311.537,307.44 315.5,306.5C 315.392,322.513 315.225,338.513 315,354.5C 316.818,362.618 319.818,370.285 324,377.5C 328.637,384.969 333.47,392.302 338.5,399.5C 335.812,402.854 332.812,405.854 329.5,408.5C 328.946,404.5 327.613,400.834 325.5,397.5C 320.901,388.621 315.568,380.288 309.5,372.5C 307.237,367.71 305.57,362.71 304.5,357.5C 306.476,346.772 308.143,335.939 309.5,325C 309.739,319.246 307.072,317.246 301.5,319C 297.74,320.461 294.907,322.961 293,326.5C 289.239,340.702 282.406,353.035 272.5,363.5C 269.784,363.322 267.117,362.822 264.5,362C 270.096,356.407 274.93,350.24 279,343.5C 284.793,321.782 293.126,301.116 304,281.5C 314.54,265.788 328.04,253.454 344.5,244.5 Z"/></g>
<g><path style="opacity:1" fill="#2c2c3f" d="M 272.5,252.5 C 272.5,253.167 272.833,253.5 273.5,253.5C 273.5,257.5 271.5,259.5 267.5,259.5C 263.708,253.007 265.375,250.673 272.5,252.5 Z"/></g>
<g><path style="opacity:1" fill="#f6b5b2" d="M 414.5,253.5 C 429.335,273.01 443.001,293.343 455.5,314.5C 450.941,322.611 446.107,330.611 441,338.5C 440.825,333.981 440.325,329.647 439.5,325.5C 439.741,322.206 438.908,319.206 437,316.5C 432.911,310.407 428.078,304.907 422.5,300C 414.076,294.036 405.409,288.536 396.5,283.5C 402.511,273.472 408.511,263.472 414.5,253.5 Z"/></g>
<g><path style="opacity:1" fill="#ced9f9" d="M 273.5,253.5 C 280.962,259.792 288.295,266.292 295.5,273C 296.745,273.791 298.078,274.291 299.5,274.5C 293.913,284.006 288.58,293.673 283.5,303.5C 276.861,298.829 270.528,293.662 264.5,288C 262.21,286.223 260.543,284.056 259.5,281.5C 261.063,278.868 260.73,276.535 258.5,274.5C 260.315,268.708 263.315,263.708 267.5,259.5C 271.5,259.5 273.5,257.5 273.5,253.5 Z"/></g>
<g><path style="opacity:1" fill="#504b65" d="M 487.5,285.5 C 494.162,284.997 496.662,287.997 495,294.5C 492.427,295.806 490.094,297.473 488,299.5C 482.722,307.778 477.055,315.778 471,323.5C 468.465,321.334 467.465,318.667 468,315.5C 473,309.167 478,302.833 483,296.5C 483.665,292.396 485.165,288.729 487.5,285.5 Z"/></g>
<g><path style="opacity:1" fill="#c6d1f7" d="M 259.5,281.5 C 260.543,284.056 262.21,286.223 264.5,288C 270.528,293.662 276.861,298.829 283.5,303.5C 275.43,318.404 264.097,330.238 249.5,339C 231.02,347.102 214.52,344.268 200,330.5C 197.676,327.52 196.176,324.187 195.5,320.5C 195.5,318.833 195.5,317.167 195.5,315.5C 197.199,315.34 198.866,315.506 200.5,316C 205.889,325.421 213.889,329.421 224.5,328C 228.439,326.209 231.772,323.709 234.5,320.5C 239.63,319.208 243.463,316.208 246,311.5C 250.426,301.356 254.926,291.356 259.5,281.5 Z"/></g>
<g><path style="opacity:1" fill="#7d87be" d="M 226.5,283.5 C 231.981,286.742 237.648,289.742 243.5,292.5C 244.386,293.325 244.719,294.325 244.5,295.5C 242.965,302.751 239.298,308.584 233.5,313C 224.456,313.616 220.456,309.283 221.5,300C 222.258,294.227 223.924,288.727 226.5,283.5 Z"/></g>
<g><path style="opacity:1" fill="#5768a0" d="M 357.5,280.5 C 358.376,280.369 359.043,280.702 359.5,281.5C 357.332,302.836 348.498,320.836 333,335.5C 329.419,340.328 326.085,345.328 323,350.5C 323.428,335.148 323.428,319.814 323,304.5C 335.486,297.836 346.986,289.836 357.5,280.5 Z"/></g>
<g><path style="opacity:1" fill="#7a87bb" d="M 234.5,320.5 C 231.772,323.709 228.439,326.209 224.5,328C 213.889,329.421 205.889,325.421 200.5,316C 198.866,315.506 197.199,315.34 195.5,315.5C 195.5,317.167 195.5,318.833 195.5,320.5C 187.947,304.01 188.947,288.01 198.5,272.5C 209.105,281.713 214.271,293.38 214,307.5C 217.317,317.309 224.151,321.642 234.5,320.5 Z"/></g>
<g><path style="opacity:1" fill="#eea4a1" d="M 455.5,314.5 C 461.143,322.434 466.309,330.767 471,339.5C 471.667,342.167 471.667,344.833 471,347.5C 468.227,352.604 465.06,357.437 461.5,362C 459.833,362.667 458.167,362.667 456.5,362C 452,358.167 447.5,354.333 443,350.5C 442,348.5 441,346.5 440,344.5C 439.5,338.175 439.334,331.842 439.5,325.5C 440.325,329.647 440.825,333.981 441,338.5C 446.107,330.611 450.941,322.611 455.5,314.5 Z"/></g>
<g><path style="opacity:1" fill="#d67481" d="M 197.5,423.5 C 193.914,405.067 187.581,387.734 178.5,371.5C 178.523,363.604 177.856,355.771 176.5,348C 176.457,343.338 177.291,338.838 179,334.5C 182.489,351.48 191.822,364.147 207,372.5C 208.742,378.725 211.075,384.725 214,390.5C 210.109,402.283 204.609,413.283 197.5,423.5 Z"/></g>
<g><path style="opacity:1" fill="#7080b7" d="M 185.5,318.5 C 190.78,335.849 202.447,346.349 220.5,350C 235.922,352.41 249.922,349.077 262.5,340C 267.301,336.201 271.801,332.034 276,327.5C 271.32,347.66 259.153,361.16 239.5,368C 212.785,371.938 195.285,361.104 187,335.5C 186.096,329.865 185.596,324.198 185.5,318.5 Z"/></g>
<g><path style="opacity:1" fill="#f9c1be" d="M 304.5,357.5 C 295.893,360.369 287.226,363.036 278.5,365.5C 276.214,365.405 274.214,364.738 272.5,363.5C 282.406,353.035 289.239,340.702 293,326.5C 294.907,322.961 297.74,320.461 301.5,319C 307.072,317.246 309.739,319.246 309.5,325C 308.143,335.939 306.476,346.772 304.5,357.5 Z"/></g>
<g><path style="opacity:1" fill="#e9a6a3" d="M 29.5,347.5 C 31.6547,347.372 33.6547,347.872 35.5,349C 40.963,352.631 45.963,356.798 50.5,361.5C 49.6459,365.433 47.6459,366.266 44.5,364C 40.4518,360.284 36.1185,356.95 31.5,354C 28.6793,352.379 28.0126,350.212 29.5,347.5 Z"/></g>
<g><path style="opacity:1" fill="#615c7c" d="M 436.5,356.5 C 439.86,357.52 442.527,359.52 444.5,362.5C 437.747,373.006 430.747,383.34 423.5,393.5C 420.714,390.38 417.38,388.046 413.5,386.5C 421.191,376.481 428.857,366.481 436.5,356.5 Z"/></g>
<g><path style="opacity:1" fill="#da634a" d="M 387.5,359.5 C 390.505,359.253 393.005,360.253 395,362.5C 396.372,365.618 397.538,368.784 398.5,372C 399.833,372.667 401.167,372.667 402.5,372C 405.186,368.46 408.519,365.96 412.5,364.5C 416.338,364.207 417.838,365.874 417,369.5C 414.063,373.721 410.896,377.721 407.5,381.5C 402.64,378.993 397.473,377.66 392,377.5C 384.833,378.013 378,379.513 371.5,382C 366.621,377.077 363.788,371.244 363,364.5C 365.153,362.556 367.653,362.056 370.5,363C 373.574,366.369 376.74,369.535 380,372.5C 381.261,372.241 382.261,371.574 383,370.5C 382.869,366.103 384.369,362.436 387.5,359.5 Z"/></g>
<g><path style="opacity:1" fill="#e9a5a2" d="M 19.5,356.5 C 20.8734,356.343 22.2068,356.51 23.5,357C 30.1667,362.333 36.8333,367.667 43.5,373C 42.2125,374.41 41.0458,375.91 40,377.5C 33.0779,372.622 26.2446,367.622 19.5,362.5C 18.4808,360.54 18.4808,358.54 19.5,356.5 Z"/></g>
<g><path style="opacity:1" fill="#f1afad" d="M 82.5,385.5 C 81.7321,384.737 81.2321,383.737 81,382.5C 77.2041,391.085 73.7041,399.752 70.5,408.5C 65.3249,408.728 60.3249,407.895 55.5,406C 40.9935,397.993 27.8268,388.16 16,376.5C 15.5045,374.527 15.3379,372.527 15.5,370.5C 16.552,370.351 17.552,370.517 18.5,371C 25.765,376.614 33.265,381.78 41,386.5C 42.7106,386.561 44.044,385.894 45,384.5C 47.9322,379.623 51.0988,374.957 54.5,370.5C 55.7481,371.04 56.9148,371.707 58,372.5C 57.9363,378.717 58.9363,384.717 61,390.5C 62.9066,394.01 65.7399,395.176 69.5,394C 70.5742,393.261 71.2409,392.261 71.5,391C 70.392,388.888 68.892,387.054 67,385.5C 66.0419,383.801 65.5419,381.967 65.5,380C 66.45,376.512 66.95,373.012 67,369.5C 63.1657,367.753 60.1657,365.086 58,361.5C 57.1487,358.947 57.482,356.614 59,354.5C 65.6667,359.833 72.3333,365.167 79,370.5C 82.0077,375.016 83.1744,380.016 82.5,385.5 Z"/></g>
<g><path style="opacity:1" fill="#d47480" d="M 264.5,370.5 C 257.672,376.408 249.672,379.908 240.5,381C 232.71,381.924 225.043,381.424 217.5,379.5C 216.972,378.279 216.305,377.113 215.5,376C 229.123,378.076 242.123,376.076 254.5,370C 258.027,369.192 261.36,369.359 264.5,370.5 Z"/></g>
<g><path style="opacity:1" fill="#f5b7b5" d="M 304.5,357.5 C 305.57,362.71 307.237,367.71 309.5,372.5C 290.475,379.997 271.142,386.997 251.5,393.5C 250.251,390.388 248.917,387.222 247.5,384C 245.299,383.175 243.466,383.675 242,385.5C 241.652,393.805 244.818,400.471 251.5,405.5C 249.109,409.193 245.776,411.026 241.5,411C 237.255,408.424 234.088,404.924 232,400.5C 232.259,395.078 232.926,389.745 234,384.5C 232.612,383.446 231.112,383.28 229.5,384C 227.187,386.425 225.52,389.258 224.5,392.5C 221.379,388.591 219.045,384.257 217.5,379.5C 225.043,381.424 232.71,381.924 240.5,381C 249.672,379.908 257.672,376.408 264.5,370.5C 269.803,371.659 275.137,372.492 280.5,373C 282.16,369.777 281.494,367.277 278.5,365.5C 287.226,363.036 295.893,360.369 304.5,357.5 Z"/></g>
<g><path style="opacity:1" fill="#f1d36e" d="M 363.5,385.5 C 363.614,388.216 362.614,390.216 360.5,391.5C 353.67,384.172 349.837,375.506 349,365.5C 350.667,364.167 352.333,364.167 354,365.5C 356.378,372.588 359.545,379.254 363.5,385.5 Z"/></g>
<g><path style="opacity:1" fill="#f8cbca" d="M 178.5,371.5 C 187.581,387.734 193.914,405.067 197.5,423.5C 191.945,434.273 186.112,444.939 180,455.5C 176.577,458.18 172.744,459.013 168.5,458C 150.275,448.059 132.275,437.892 114.5,427.5C 117.894,419.045 121.561,410.712 125.5,402.5C 139.992,403.495 152.992,408.329 164.5,417C 169.397,419.436 171.564,417.936 171,412.5C 168.438,410.654 166.271,408.487 164.5,406C 168.49,394.19 173.157,382.69 178.5,371.5 Z"/></g>
<g><path style="opacity:1" fill="#f3b0af" d="M 309.5,372.5 C 315.568,380.288 320.901,388.621 325.5,397.5C 308.227,403.424 290.894,409.258 273.5,415C 271.121,415.716 269.121,416.883 267.5,418.5C 264.355,413.946 261.855,408.946 260,403.5C 256.558,400.568 253.725,397.235 251.5,393.5C 271.142,386.997 290.475,379.997 309.5,372.5 Z"/></g>
<g><path style="opacity:1" fill="#2b293b" d="M 280.5,388.5 C 285.068,388.083 286.568,390.083 285,394.5C 280.125,400.519 273.959,403.686 266.5,404C 265.446,402.612 265.28,401.112 266,399.5C 271.351,396.42 276.184,392.753 280.5,388.5 Z"/></g>
<g><path style="opacity:1" fill="#db634a" d="M 440.5,383.5 C 443.486,384.486 445.486,386.486 446.5,389.5C 445.53,392.774 444.03,395.774 442,398.5C 441.175,400.701 441.675,402.534 443.5,404C 447.167,404.333 450.833,404.667 454.5,405C 457.207,406.864 458.041,409.364 457,412.5C 454.93,414.787 452.43,416.453 449.5,417.5C 447.828,422.679 449.828,425.179 455.5,425C 460.567,426.37 462.733,429.537 462,434.5C 461.5,435 461,435.5 460.5,436C 453.712,436.411 447.212,435.245 441,432.5C 443.423,419.007 439.923,407.34 430.5,397.5C 433.502,392.513 436.836,387.847 440.5,383.5 Z"/></g>
<g><path style="opacity:1" fill="#f1be60" d="M 363.5,385.5 C 365.94,388.114 368.773,390.114 372,391.5C 376.065,389.553 380.232,387.72 384.5,386C 390.558,385.261 396.558,385.594 402.5,387C 400.074,388.145 397.741,389.478 395.5,391C 387.166,390.331 380.166,392.998 374.5,399C 372.305,400.373 369.971,400.706 367.5,400C 364.577,397.584 362.243,394.75 360.5,391.5C 362.614,390.216 363.614,388.216 363.5,385.5 Z"/></g>
<g><path style="opacity:1" fill="#afbaf6" d="M 411.5,419.5 C 411.321,415.791 409.654,413.124 406.5,411.5C 407.537,409.262 407.703,406.929 407,404.5C 405.89,402.963 404.39,402.297 402.5,402.5C 401.248,400.999 400.248,399.332 399.5,397.5C 405.334,393.533 411.168,393.533 417,397.5C 421.399,406.375 419.565,413.708 411.5,419.5 Z"/></g>
<g><path style="opacity:1" fill="#f0aaa5" d="M 325.5,397.5 C 327.613,400.834 328.946,404.5 329.5,408.5C 322.857,416.814 316.19,425.148 309.5,433.5C 308.875,428.369 307.708,423.369 306,418.5C 302.794,414.298 300.294,414.631 298.5,419.5C 299.586,422.42 300.252,425.42 300.5,428.5C 300.739,430.467 300.406,432.301 299.5,434C 288.908,437.864 278.241,441.531 267.5,445C 266.944,445.383 266.611,445.883 266.5,446.5C 262.362,440.975 257.529,435.975 252,431.5C 249.637,428.107 247.804,424.44 246.5,420.5C 246.608,419.558 246.941,418.725 247.5,418C 250.249,416.877 252.749,415.377 255,413.5C 258.234,421.399 263.568,427.399 271,431.5C 274.072,430.553 275.072,428.553 274,425.5C 271.628,423.297 269.461,420.963 267.5,418.5C 269.121,416.883 271.121,415.716 273.5,415C 290.894,409.258 308.227,403.424 325.5,397.5 Z"/></g>
<g><path style="opacity:1" fill="#f7bdbb" d="M 82.5,385.5 C 82.7445,389.923 85.0778,392.756 89.5,394C 101.354,397.585 113.354,400.418 125.5,402.5C 121.561,410.712 117.894,419.045 114.5,427.5C 105.355,422.092 96.0214,416.925 86.5,412C 81.3261,410.082 75.9927,408.916 70.5,408.5C 73.7041,399.752 77.2041,391.085 81,382.5C 81.2321,383.737 81.7321,384.737 82.5,385.5 Z"/></g>
<g><path style="opacity:1" fill="#f7f7fa" d="M 402.5,402.5 C 404.39,402.297 405.89,402.963 407,404.5C 407.703,406.929 407.537,409.262 406.5,411.5C 403.227,414.476 400.394,414.143 398,410.5C 397.182,406.466 398.682,403.799 402.5,402.5 Z"/></g>
<g><path style="opacity:1" fill="#a4adf4" d="M 399.5,397.5 C 400.248,399.332 401.248,400.999 402.5,402.5C 398.682,403.799 397.182,406.466 398,410.5C 400.394,414.143 403.227,414.476 406.5,411.5C 409.654,413.124 411.321,415.791 411.5,419.5C 405.371,424.108 399.871,423.441 395,417.5C 391.895,409.648 393.395,402.981 399.5,397.5 Z"/></g>
<g><path style="opacity:1" fill="#efbe61" d="M 426.5,405.5 C 429.874,407.88 432.04,411.213 433,415.5C 433.223,422.567 433.389,429.567 433.5,436.5C 436.614,439.375 440.281,441.209 444.5,442C 450.814,442.847 457.147,443.513 463.5,444C 466.167,446 466.167,448 463.5,450C 449.548,451.137 436.715,447.97 425,440.5C 426.111,434.955 426.945,429.288 427.5,423.5C 427.656,419.818 426.99,416.318 425.5,413C 426.322,410.566 426.656,408.066 426.5,405.5 Z"/></g>
<g><path style="opacity:1" fill="#ef9e9b" d="M 300.5,428.5 C 301.741,434.046 301.574,439.713 300,445.5C 293.833,454.5 287.667,463.5 281.5,472.5C 275.971,464.105 270.971,455.439 266.5,446.5C 266.611,445.883 266.944,445.383 267.5,445C 278.241,441.531 288.908,437.864 299.5,434C 300.406,432.301 300.739,430.467 300.5,428.5 Z"/></g>
</svg>
