<?xml version="1.0" encoding="UTF-8"?>
<!DOCTYPE svg PUBLIC "-//W3C//DTD SVG 1.1//EN" "http://www.w3.org/Graphics/SVG/1.1/DTD/svg11.dtd">
<svg xmlns="http://www.w3.org/2000/svg" version="1.1" width="512px" height="512px" style="shape-rendering:geometricPrecision; text-rendering:geometricPrecision; image-rendering:optimizeQuality; fill-rule:evenodd; clip-rule:evenodd" xmlns:xlink="http://www.w3.org/1999/xlink">
<g><path style="opacity:1" fill="#282639" d="M 94.5,2.5 C 96.1992,2.33982 97.8659,2.50649 99.5,3C 107.521,15.8528 119.188,22.8528 134.5,24C 153.705,25.2908 172.705,27.9574 191.5,32C 203.161,35.9101 213.661,41.7435 223,49.5C 236.711,46.7264 248.878,40.8931 259.5,32C 264.868,30.9846 267.201,33.3179 266.5,39C 266.179,44.6126 264.845,49.9459 262.5,55C 274.483,57.9886 285.817,62.6553 296.5,69C 302.455,70.7744 308.288,72.6077 314,74.5C 314.667,76.1667 314.667,77.8333 314,79.5C 311.298,84.079 307.798,87.9124 303.5,91C 316.221,106.28 324.221,123.78 327.5,143.5C 372.124,153.291 396.291,180.958 400,226.5C 407.545,232.113 409.545,239.113 406,247.5C 404.442,249.359 402.609,250.859 400.5,252C 410.71,268.666 415.71,286.832 415.5,306.5C 414.15,318.474 413.65,330.474 414,342.5C 416.981,353.092 419.648,363.759 422,374.5C 437.275,376.925 451.775,381.758 465.5,389C 487.486,403.749 493.653,423.582 484,448.5C 476.42,465.75 463.586,476.916 445.5,482C 432.565,483.704 419.565,484.538 406.5,484.5C 405.615,496.282 399.282,501.449 387.5,500C 385.671,499.727 384.171,498.893 383,497.5C 377.305,503.736 370.638,505.069 363,501.5C 355.834,509.479 347.834,510.479 339,504.5C 330.359,510.545 322.692,509.545 316,501.5C 313.941,495.695 313.107,489.695 313.5,483.5C 302.448,482.883 291.448,481.716 280.5,480C 266.98,476.536 253.313,473.87 239.5,472C 216.184,470.665 192.851,470.498 169.5,471.5C 170.45,477.58 171.783,483.58 173.5,489.5C 172.968,491.741 171.635,493.241 169.5,494C 161.324,496.591 153.657,495.591 146.5,491C 138.833,490.667 131.167,490.333 123.5,490C 118.501,488.834 114.501,486.167 111.5,482C 101.799,483.323 93.6323,480.49 87,473.5C 83.7211,464.276 79.3878,455.609 74,447.5C 63.6667,435.833 53.3333,424.167 43,412.5C 23.4271,387.39 18.4271,359.724 28,329.5C 33.0691,324.595 38.5691,320.262 44.5,316.5C 54.4798,293.873 69.6465,275.539 90,261.5C 98.5696,221.768 123.07,199.102 163.5,193.5C 165.072,189.06 166.572,184.726 168,180.5C 145.587,179.581 123.087,179.581 100.5,180.5C 97.4137,196.083 87.9137,204.417 72,205.5C 50.7424,201.654 44.0757,189.654 52,169.5C 53.3635,166.637 55.5302,164.637 58.5,163.5C 60.7411,164.032 62.2411,165.365 63,167.5C 63.1904,171.188 64.0237,174.688 65.5,178C 71.4119,180.625 75.4119,178.792 77.5,172.5C 68.5652,163.647 66.0652,153.314 70,141.5C 74.179,136.211 79.679,133.377 86.5,133C 94.3702,129.126 101.037,123.792 106.5,117C 69.6598,105.316 49.6598,80.1496 46.5,41.5C 46.7579,38.3135 48.4246,36.3135 51.5,35.5C 59.6391,42.4034 68.3058,48.57 77.5,54C 94.1689,62.6004 111.836,65.9337 130.5,64C 99.2112,54.5699 87.2112,34.0699 94.5,2.5 Z M 139.5,337.5 C 142.145,345.127 145.645,352.46 150,359.5C 150.667,370.5 150.667,381.5 150,392.5C 147.626,396.75 145.126,400.916 142.5,405C 132.538,404.393 122.538,403.893 112.5,403.5C 112.699,388.795 109.365,374.962 102.5,362C 117.931,358.3 130.264,350.133 139.5,337.5 Z M 335.5,339.5 C 340.602,342.755 345.602,346.255 350.5,350C 343.292,361.455 338.959,373.955 337.5,387.5C 331.086,390.789 324.919,394.456 319,398.5C 319.122,388.155 319.788,377.822 321,367.5C 327.681,359.139 332.514,349.805 335.5,339.5 Z"/></g>
<g><path style="opacity:1" fill="#ecd3eb" d="M 158.5,34.5 C 159.501,35.7887 159.334,37.1221 158,38.5C 153.637,45.0138 149.137,51.3471 144.5,57.5C 121.193,57.1112 106.36,45.7779 100,23.5C 99.3333,21.5 99.3333,19.5 100,17.5C 110.264,26.9281 122.43,32.0947 136.5,33C 143.823,33.7214 151.156,34.2214 158.5,34.5 Z"/></g>
<g><path style="opacity:1" fill="#e0c8df" d="M 158.5,34.5 C 175.186,35.2542 190.853,39.5875 205.5,47.5C 198.347,60.4714 190.68,73.138 182.5,85.5C 179.095,77.8975 174.095,71.3975 167.5,66C 160.113,62.0824 152.446,59.2491 144.5,57.5C 149.137,51.3471 153.637,45.0138 158,38.5C 159.334,37.1221 159.501,35.7887 158.5,34.5 Z"/></g>
<g><path style="opacity:1" fill="#d6bed6" d="M 205.5,47.5 C 214.963,52.9611 221.963,60.6277 226.5,70.5C 225.232,80.8687 220.899,89.702 213.5,97C 204.35,102.59 195.017,102.923 185.5,98C 184.901,96.3775 184.234,94.8775 183.5,93.5C 183.167,90.8333 182.833,88.1667 182.5,85.5C 190.68,73.138 198.347,60.4714 205.5,47.5 Z"/></g>
<g><path style="opacity:1" fill="#4c4c6b" d="M 291.5,76.5 C 283.785,85.5463 276.452,94.8796 269.5,104.5C 260.128,98.4895 250.461,92.8228 240.5,87.5C 238.583,77.3387 234.75,68.0054 229,59.5C 228.333,58.5 228.333,57.5 229,56.5C 238.934,53.8654 248.267,49.8654 257,44.5C 257.667,45.5 257.667,46.5 257,47.5C 254.89,51.3857 253.057,55.3857 251.5,59.5C 251.529,61.0293 252.196,62.196 253.5,63C 267.528,63.8414 280.195,68.3414 291.5,76.5 Z"/></g>
<g><path style="opacity:1" fill="#ab8096" d="M 112.5,72.5 C 116.684,73.1664 121.018,73.8331 125.5,74.5C 119.871,86.1155 113.538,97.1155 106.5,107.5C 78.2004,99.0265 61.2004,80.1932 55.5,51C 55.8499,49.7425 56.5165,49.4092 57.5,50C 73.2911,63.5575 91.6245,71.0575 112.5,72.5 Z"/></g>
<g><path style="opacity:1" fill="#aa8095" d="M 226.5,70.5 C 229.191,74.7217 231.024,79.3884 232,84.5C 237.463,110.694 226.963,122.861 200.5,121C 187.269,116.587 181.602,107.42 183.5,93.5C 184.234,94.8775 184.901,96.3775 185.5,98C 195.017,102.923 204.35,102.59 213.5,97C 220.899,89.702 225.232,80.8687 226.5,70.5 Z"/></g>
<g><path style="opacity:1" fill="#9e7a91" d="M 106.5,107.5 C 113.538,97.1155 119.871,86.1155 125.5,74.5C 121.018,73.8331 116.684,73.1664 112.5,72.5C 129.166,71.9012 145.833,71.7345 162.5,72C 163.685,73.353 165.019,74.5197 166.5,75.5C 145.75,81.3744 128.416,92.5411 114.5,109C 111.636,109.193 108.97,108.693 106.5,107.5 Z"/></g>
<g><path style="opacity:1" fill="#f8b395" d="M 198.5,128.5 C 207.99,135.21 218.656,138.21 230.5,137.5C 218.167,152.671 206,168.004 194,183.5C 193.601,183.272 193.435,182.938 193.5,182.5C 194.396,172.532 194.729,162.532 194.5,152.5C 195.614,149.823 195.614,147.156 194.5,144.5C 193.583,143.873 192.583,143.539 191.5,143.5C 191.5,142.5 191.5,141.5 191.5,140.5C 189.61,140.297 188.11,140.963 187,142.5C 183.192,151.641 176.692,158.141 167.5,162C 164.211,162.882 160.877,163.548 157.5,164C 141.455,164.138 125.455,164.971 109.5,166.5C 106.415,166.456 103.415,166.122 100.5,165.5C 99.5889,163.084 98.5889,160.584 97.5,158C 100.495,150.954 100.161,144.121 96.5,137.5C 109.018,127.149 120.351,115.649 130.5,103C 142.582,92.2901 156.582,85.9568 172.5,84C 174.354,86.5429 175.521,89.3763 176,92.5C 173.669,110.868 181.169,122.868 198.5,128.5 Z"/></g>
<g><path style="opacity:1" fill="#484264" d="M 291.5,76.5 C 295.453,77.7613 299.453,78.928 303.5,80C 300.278,82.888 296.778,85.388 293,87.5C 292.333,89.1667 292.333,90.8333 293,92.5C 305.361,105.222 313.528,120.222 317.5,137.5C 313.254,137.915 309.254,138.748 305.5,140C 294.269,127.268 282.269,115.435 269.5,104.5C 276.452,94.8796 283.785,85.5463 291.5,76.5 Z"/></g>
<g><path style="opacity:1" fill="#df7c6a" d="M 262.5,110.5 C 259.319,117.675 254.985,124.175 249.5,130C 243.517,133.383 237.184,135.883 230.5,137.5C 218.656,138.21 207.99,135.21 198.5,128.5C 215.223,131.544 228.389,126.211 238,112.5C 239.637,107.271 240.803,101.938 241.5,96.5C 249.085,100.441 256.085,105.108 262.5,110.5 Z"/></g>
<g><path style="opacity:1" fill="#312c3c" d="M 148.5,108.5 C 153,108.164 154.833,110.164 154,114.5C 151.088,117.544 147.588,118.711 143.5,118C 142.446,116.612 142.28,115.112 143,113.5C 144.812,111.7 146.645,110.033 148.5,108.5 Z"/></g>
<g><path style="opacity:1" fill="#f9ae95" d="M 262.5,110.5 C 274.034,118.36 284.367,127.693 293.5,138.5C 291.284,139.203 289.451,140.536 288,142.5C 274.054,160.087 259.887,177.421 245.5,194.5C 243.437,191.027 240.937,190.694 238,193.5C 232.778,209.274 223.612,222.274 210.5,232.5C 199.504,219.503 193.17,204.503 191.5,187.5C 191.402,185.447 192.069,183.78 193.5,182.5C 193.435,182.938 193.601,183.272 194,183.5C 206,168.004 218.167,152.671 230.5,137.5C 237.184,135.883 243.517,133.383 249.5,130C 254.985,124.175 259.319,117.675 262.5,110.5 Z"/></g>
<g><path style="opacity:1" fill="#f8ad8e" d="M 293.5,138.5 C 295.063,139.945 296.396,141.611 297.5,143.5C 296.928,145.255 296.094,146.922 295,148.5C 273.217,174.438 252.05,200.771 231.5,227.5C 229.932,228.473 228.265,228.64 226.5,228C 235.036,218.095 241.37,206.928 245.5,194.5C 259.887,177.421 274.054,160.087 288,142.5C 289.451,140.536 291.284,139.203 293.5,138.5 Z"/></g>
<g><path style="opacity:1" fill="#494365" d="M 83.5,141.5 C 91.3225,141.274 93.6558,144.941 90.5,152.5C 85.4981,150.643 81.1647,151.643 77.5,155.5C 74.6154,148.407 76.6154,143.74 83.5,141.5 Z"/></g>
<g><path style="opacity:1" fill="#f7a68e" d="M 297.5,143.5 C 299.145,144.479 300.479,145.812 301.5,147.5C 296.257,162.463 295.091,177.796 298,193.5C 300.24,199.882 302.24,206.215 304,212.5C 269.949,241.551 238.949,273.551 211,308.5C 209.544,304.01 208.544,299.344 208,294.5C 207.333,285.167 207.333,275.833 208,266.5C 208.723,257.568 210.557,248.902 213.5,240.5C 229.678,234.86 246.344,232.36 263.5,233C 266.167,230.667 266.167,228.333 263.5,226C 252.742,225.187 242.076,225.687 231.5,227.5C 252.05,200.771 273.217,174.438 295,148.5C 296.094,146.922 296.928,145.255 297.5,143.5 Z"/></g>
<g><path style="opacity:1" fill="#dde7f6" d="M 376.5,182.5 C 369.914,187.804 362.914,192.638 355.5,197C 353.975,198.009 352.308,198.509 350.5,198.5C 352.357,194.92 351.357,192.586 347.5,191.5C 343.853,192.486 342.686,194.819 344,198.5C 344.671,199.252 345.504,199.586 346.5,199.5C 346.918,200.222 347.584,200.722 348.5,201C 345.98,202.697 343.647,204.53 341.5,206.5C 338.245,204.074 335.412,201.074 333,197.5C 326.242,183.041 324.742,168.041 328.5,152.5C 348.405,156.433 364.405,166.433 376.5,182.5 Z"/></g>
<g><path style="opacity:1" fill="#d17362" d="M 194.5,152.5 C 194.729,162.532 194.396,172.532 193.5,182.5C 192.069,183.78 191.402,185.447 191.5,187.5C 190.344,179.677 190.177,171.677 191,163.5C 191.724,159.573 192.891,155.906 194.5,152.5 Z"/></g>
<g><path style="opacity:1" fill="#d67664" d="M 191.5,143.5 C 190.542,143.953 189.708,144.619 189,145.5C 186.469,152.895 183.136,159.895 179,166.5C 172.98,171.593 165.98,173.926 158,173.5C 138.859,171.379 119.692,171.045 100.5,172.5C 100.5,170.167 100.5,167.833 100.5,165.5C 103.415,166.122 106.415,166.456 109.5,166.5C 125.455,164.971 141.455,164.138 157.5,164C 160.877,163.548 164.211,162.882 167.5,162C 176.692,158.141 183.192,151.641 187,142.5C 188.11,140.963 189.61,140.297 191.5,140.5C 191.5,141.5 191.5,142.5 191.5,143.5 Z"/></g>
<g><path style="opacity:1" fill="#f4cd69" d="M 92.5,177.5 C 90.2487,176.305 87.9154,175.305 85.5,174.5C 85.481,169.693 84.981,165.027 84,160.5C 88.3372,158.438 91.0038,159.771 92,164.5C 92.499,168.821 92.6657,173.154 92.5,177.5 Z"/></g>
<g><path style="opacity:1" fill="#8e96c5" d="M 320.5,187.5 C 320.489,189.017 319.823,190.184 318.5,191C 314.678,193.33 311.012,195.83 307.5,198.5C 303.36,182.488 303.526,166.488 308,150.5C 310.517,145.324 314.351,144.157 319.5,147C 320.574,147.739 321.241,148.739 321.5,150C 319.208,162.431 318.875,174.931 320.5,187.5 Z"/></g>
<g><path style="opacity:1" fill="#2a2a3c" d="M 335.5,165.5 C 342.004,165.138 343.671,167.638 340.5,173C 334.788,173.433 333.122,170.933 335.5,165.5 Z"/></g>
<g><path style="opacity:1" fill="#d6dff7" d="M 376.5,182.5 C 380.79,187.409 383.79,193.076 385.5,199.5C 383.516,202.164 380.849,203.831 377.5,204.5C 376.872,201.045 374.872,199.878 371.5,201C 369.163,203.194 368.83,205.694 370.5,208.5C 367.245,212.725 362.911,215.391 357.5,216.5C 351.486,214.165 346.152,210.831 341.5,206.5C 343.647,204.53 345.98,202.697 348.5,201C 347.584,200.722 346.918,200.222 346.5,199.5C 347.959,199.567 349.292,199.234 350.5,198.5C 352.308,198.509 353.975,198.009 355.5,197C 362.914,192.638 369.914,187.804 376.5,182.5 Z"/></g>
<g><path style="opacity:1" fill="#f1b459" d="M 85.5,174.5 C 87.9154,175.305 90.2487,176.305 92.5,177.5C 90.0213,192.773 81.0213,198.94 65.5,196C 58.7232,192.913 55.8898,187.746 57,180.5C 65.6347,189.772 74.3014,189.772 83,180.5C 83.5725,178.359 84.4058,176.359 85.5,174.5 Z"/></g>
<g><path style="opacity:1" fill="#c86757" d="M 184.5,195.5 C 183.5,195.833 182.833,196.5 182.5,197.5C 178.311,199.118 173.978,200.118 169.5,200.5C 172.068,191.363 176.235,183.03 182,175.5C 182.199,182.272 183.033,188.938 184.5,195.5 Z"/></g>
<g><path style="opacity:1" fill="#2c2c3f" d="M 350.5,198.5 C 349.292,199.234 347.959,199.567 346.5,199.5C 345.504,199.586 344.671,199.252 344,198.5C 342.686,194.819 343.853,192.486 347.5,191.5C 351.357,192.586 352.357,194.92 350.5,198.5 Z"/></g>
<g><path style="opacity:1" fill="#f7b394" d="M 182.5,197.5 C 165.834,217.669 149.334,238.003 133,258.5C 132.536,257.906 132.369,257.239 132.5,256.5C 133.454,250.803 135.121,245.303 137.5,240C 135.687,236.089 133.187,235.589 130,238.5C 125.942,247.399 123.775,256.732 123.5,266.5C 122.691,268.292 122.191,270.292 122,272.5C 114.548,280.773 107.714,289.44 101.5,298.5C 88.1176,310.296 72.451,315.962 54.5,315.5C 64.5689,294.934 79.0689,278.268 98,265.5C 101.585,237.518 116.418,218.018 142.5,207C 148.285,204.57 154.285,203.07 160.5,202.5C 159.995,205.841 159.828,209.174 160,212.5C 162,215.167 164,215.167 166,212.5C 167.174,208.465 168.341,204.465 169.5,200.5C 173.978,200.118 178.311,199.118 182.5,197.5 Z"/></g>
<g><path style="opacity:1" fill="#2f3043" d="M 377.5,204.5 C 377.67,205.822 377.337,206.989 376.5,208C 374.527,208.495 372.527,208.662 370.5,208.5C 368.83,205.694 369.163,203.194 371.5,201C 374.872,199.878 376.872,201.045 377.5,204.5 Z"/></g>
<g><path style="opacity:1" fill="#cbd5f5" d="M 385.5,199.5 C 388.39,205.051 390.057,211.051 390.5,217.5C 390.5,219.5 390.5,221.5 390.5,223.5C 387.5,223.5 384.5,223.5 381.5,223.5C 372.965,222.668 364.965,220.334 357.5,216.5C 362.911,215.391 367.245,212.725 370.5,208.5C 372.527,208.662 374.527,208.495 376.5,208C 377.337,206.989 377.67,205.822 377.5,204.5C 380.849,203.831 383.516,202.164 385.5,199.5 Z"/></g>
<g><path style="opacity:1" fill="#8187b9" d="M 320.5,187.5 C 323.235,198.12 328.902,206.953 337.5,214C 345.321,219.575 353.654,224.075 362.5,227.5C 358.385,229.775 354.385,232.275 350.5,235C 349.177,235.816 348.511,236.983 348.5,238.5C 328.875,231.208 315.209,217.875 307.5,198.5C 311.012,195.83 314.678,193.33 318.5,191C 319.823,190.184 320.489,189.017 320.5,187.5 Z"/></g>
<g><path style="opacity:1" fill="#8d92ac" d="M 390.5,217.5 C 391.468,219.607 391.802,221.941 391.5,224.5C 387.958,224.813 384.625,224.479 381.5,223.5C 384.5,223.5 387.5,223.5 390.5,223.5C 390.5,221.5 390.5,219.5 390.5,217.5 Z"/></g>
<g><path style="opacity:1" fill="#433d61" d="M 277.5,275.5 C 273.566,270.998 268.9,267.165 263.5,264C 262.748,263.329 262.414,262.496 262.5,261.5C 276.795,245.43 292.461,231.263 309.5,219C 312.631,223.133 316.131,226.966 320,230.5C 320.667,231.167 320.667,231.833 320,232.5C 305.604,246.728 291.438,261.062 277.5,275.5 Z"/></g>
<g><path style="opacity:1" fill="#f7ad94" d="M 184.5,195.5 C 187.366,208.102 192.366,219.769 199.5,230.5C 198.167,230.833 196.833,231.167 195.5,231.5C 183.269,229.175 170.936,228.342 158.5,229C 157.018,231.592 157.352,233.925 159.5,236C 174.669,235.974 189.669,237.474 204.5,240.5C 203.084,248.826 201.751,257.159 200.5,265.5C 190.595,276.982 180.928,288.649 171.5,300.5C 168.305,298.907 164.805,297.907 161,297.5C 157.089,299.313 156.589,301.813 159.5,305C 161.92,305.29 164.254,305.79 166.5,306.5C 164.474,309.518 162.474,312.518 160.5,315.5C 150.442,316.057 142.942,312.057 138,303.5C 131.034,288.268 129.201,272.601 132.5,256.5C 132.369,257.239 132.536,257.906 133,258.5C 149.334,238.003 165.834,217.669 182.5,197.5C 182.833,196.5 183.5,195.833 184.5,195.5 Z"/></g>
<g><path style="opacity:1" fill="#7679b0" d="M 362.5,227.5 C 372.944,230.519 383.611,232.352 394.5,233C 402.343,240.731 400.676,244.731 389.5,245C 375.254,246.227 361.587,244.061 348.5,238.5C 348.511,236.983 349.177,235.816 350.5,235C 354.385,232.275 358.385,229.775 362.5,227.5 Z"/></g>
<g><path style="opacity:1" fill="#cf6e5c" d="M 398.5,266.5 C 393.5,266.5 388.5,266.5 383.5,266.5C 365.205,265.788 348.039,261.121 332,252.5C 325.656,257.35 319.489,262.35 313.5,267.5C 313.167,268.5 312.5,269.167 311.5,269.5C 292.867,285.133 275.533,302.133 259.5,320.5C 255.772,320.205 252.105,319.539 248.5,318.5C 273.252,290.578 298.919,263.411 325.5,237C 326.5,236.333 327.5,236.333 328.5,237C 347.678,249.378 368.678,254.711 391.5,253C 394.518,257.203 396.851,261.703 398.5,266.5 Z"/></g>
<g><path style="opacity:1" fill="#f19a86" d="M 383.5,266.5 C 383.611,267.117 383.944,267.617 384.5,268C 379.636,274.355 374.636,280.522 369.5,286.5C 367.549,282.771 365.216,279.271 362.5,276C 359.143,274.859 357.143,276.025 356.5,279.5C 360.353,285.874 363.687,292.54 366.5,299.5C 366.974,306.915 365.474,313.915 362,320.5C 356.442,326.924 349.942,328.091 342.5,324C 336.523,320.529 331.19,316.362 326.5,311.5C 320.195,298.146 317.695,284.146 319,269.5C 317.556,267.845 315.722,267.178 313.5,267.5C 319.489,262.35 325.656,257.35 332,252.5C 348.039,261.121 365.205,265.788 383.5,266.5 Z"/></g>
<g><path style="opacity:1" fill="#4a4364" d="M 262.5,261.5 C 262.414,262.496 262.748,263.329 263.5,264C 268.9,267.165 273.566,270.998 277.5,275.5C 260.805,293.859 244.138,312.192 227.5,330.5C 221.903,327.696 216.57,324.362 211.5,320.5C 227.408,299.923 244.408,280.256 262.5,261.5 Z"/></g>
<g><path style="opacity:1" fill="#f6a58d" d="M 200.5,265.5 C 200.333,276.172 200.5,286.839 201,297.5C 201.612,303.785 202.778,309.951 204.5,316C 192.273,332.972 179.94,349.806 167.5,366.5C 168.613,358.261 167.113,350.595 163,343.5C 160.994,336.969 159.827,330.302 159.5,323.5C 170.246,324.969 180.912,324.469 191.5,322C 194.589,318.187 193.755,315.687 189,314.5C 179.403,316.557 169.903,316.891 160.5,315.5C 162.474,312.518 164.474,309.518 166.5,306.5C 170.314,306.349 171.981,304.349 171.5,300.5C 180.928,288.649 190.595,276.982 200.5,265.5 Z"/></g>
<g><path style="opacity:1" fill="#f09481" d="M 383.5,266.5 C 388.5,266.5 393.5,266.5 398.5,266.5C 400.481,269.128 401.981,272.128 403,275.5C 404.655,281.765 405.989,288.098 407,294.5C 406.667,310.833 406.333,327.167 406,343.5C 408.801,352.704 410.968,362.037 412.5,371.5C 405.726,373.151 398.726,374.151 391.5,374.5C 376.198,375.159 361.531,378.492 347.5,384.5C 347.167,383.833 346.833,383.167 346.5,382.5C 348.456,371.801 352.29,361.801 358,352.5C 363.423,344.655 369.089,336.989 375,329.5C 379.574,314.353 377.74,300.02 369.5,286.5C 374.636,280.522 379.636,274.355 384.5,268C 383.944,267.617 383.611,267.117 383.5,266.5 Z"/></g>
<g><path style="opacity:1" fill="#f8ad94" d="M 123.5,266.5 C 122.468,280.973 125.135,294.64 131.5,307.5C 127.788,322.389 118.788,332.889 104.5,339C 99.3443,340.962 94.011,341.795 88.5,341.5C 86.3702,339.873 84.3702,338.04 82.5,336C 77.3333,334.5 75.5,336.333 77,341.5C 82.4625,346.12 86.9625,351.454 90.5,357.5C 90.5858,358.496 90.2524,359.329 89.5,360C 84.5264,363.321 79.193,365.821 73.5,367.5C 69.2495,365.479 66.9162,366.813 66.5,371.5C 57.312,377.262 47.6453,382.262 37.5,386.5C 33.0711,377.022 31.0711,367.022 31.5,356.5C 46.0902,349.872 60.4235,342.705 74.5,335C 73.8333,334.333 73.1667,333.667 72.5,333C 76.1667,328.667 79.8333,324.333 83.5,320C 82.9056,319.536 82.2389,319.369 81.5,319.5C 91.6256,315.514 100.792,309.847 109,302.5C 109.711,300.633 109.211,299.133 107.5,298C 105.455,297.51 103.455,297.677 101.5,298.5C 107.714,289.44 114.548,280.773 122,272.5C 122.191,270.292 122.691,268.292 123.5,266.5 Z"/></g>
<g><path style="opacity:1" fill="#f29d87" d="M 311.5,269.5 C 310.712,281.755 312.045,293.755 315.5,305.5C 314.781,307.728 313.448,309.561 311.5,311C 306.002,314.748 300.002,317.415 293.5,319C 282.206,320.293 270.873,320.793 259.5,320.5C 275.533,302.133 292.867,285.133 311.5,269.5 Z"/></g>
<g><path style="opacity:1" fill="#2c293a" d="M 171.5,300.5 C 171.981,304.349 170.314,306.349 166.5,306.5C 164.254,305.79 161.92,305.29 159.5,305C 156.589,301.813 157.089,299.313 161,297.5C 164.805,297.907 168.305,298.907 171.5,300.5 Z"/></g>
<g><path style="opacity:1" fill="#2a2739" d="M 280.5,303.5 C 284.182,303.335 287.848,303.501 291.5,304C 292.76,305.814 292.76,307.647 291.5,309.5C 287.516,310.77 283.516,310.77 279.5,309.5C 278.15,307.217 278.483,305.217 280.5,303.5 Z"/></g>
<g><path style="opacity:1" fill="#f09b86" d="M 323.5,322.5 C 323.076,330.02 320.91,337.02 317,343.5C 311.667,349.5 306.333,355.5 301,361.5C 299.08,364.339 297.413,367.339 296,370.5C 295.435,378.509 294.769,386.509 294,394.5C 287.752,397.541 281.252,399.874 274.5,401.5C 274.5,399.167 274.5,396.833 274.5,394.5C 279.571,393.31 284.571,391.81 289.5,390C 291.475,386.261 290.475,384.094 286.5,383.5C 281.432,384.683 276.432,386.016 271.5,387.5C 270.617,383.772 269.784,380.105 269,376.5C 282.713,369.793 294.38,360.46 304,348.5C 305.5,343.333 303.667,341.5 298.5,343C 289.631,354.838 278.464,363.671 265,369.5C 258.974,360.465 251.807,352.298 243.5,345C 241.975,343.991 240.308,343.491 238.5,343.5C 242.833,338.167 247.167,332.833 251.5,327.5C 269.858,329.814 287.858,328.314 305.5,323C 310.59,321.042 315.09,318.208 319,314.5C 320.765,317.032 322.265,319.699 323.5,322.5 Z"/></g>
<g><path style="opacity:1" fill="#f6b294" d="M 81.5,319.5 C 82.2389,319.369 82.9056,319.536 83.5,320C 79.8333,324.333 76.1667,328.667 72.5,333C 73.1667,333.667 73.8333,334.333 74.5,335C 60.4235,342.705 46.0902,349.872 31.5,356.5C 31.334,351.156 31.5006,345.823 32,340.5C 33.3062,336.187 35.8062,332.687 39.5,330C 42.672,328.248 45.672,326.248 48.5,324C 59.7182,323.89 70.7182,322.39 81.5,319.5 Z"/></g>
<g><path style="opacity:1" fill="#4b4b6b" d="M 211.5,320.5 C 216.57,324.362 221.903,327.696 227.5,330.5C 213.12,347.382 199.287,364.715 186,382.5C 176.918,394.991 168.585,407.991 161,421.5C 159.644,422.38 158.144,422.714 156.5,422.5C 156.649,421.448 156.483,420.448 156,419.5C 153.64,416.64 151.473,413.64 149.5,410.5C 167.695,378.771 188.361,348.771 211.5,320.5 Z"/></g>
<g><path style="opacity:1" fill="#c46252" d="M 366.5,299.5 C 371.786,309.581 371.619,319.581 366,329.5C 362.31,333.853 358.643,338.187 355,342.5C 342.53,334.864 333.03,324.531 326.5,311.5C 331.19,316.362 336.523,320.529 342.5,324C 349.942,328.091 356.442,326.924 362,320.5C 365.474,313.915 366.974,306.915 366.5,299.5 Z"/></g>
<g><path style="opacity:1" fill="#c66455" d="M 131.5,307.5 C 133.408,310.28 135.575,312.947 138,315.5C 138.667,318.5 138.667,321.5 138,324.5C 129.388,340.102 116.388,350.102 99,354.5C 95.3611,350.353 91.8611,346.019 88.5,341.5C 94.011,341.795 99.3443,340.962 104.5,339C 118.788,332.889 127.788,322.389 131.5,307.5 Z"/></g>
<g><path style="opacity:1" fill="#c36252" d="M 251.5,327.5 C 247.167,332.833 242.833,338.167 238.5,343.5C 236.787,344.635 236.12,346.302 236.5,348.5C 235.778,348.082 235.278,347.416 235,346.5C 227.635,355.359 220.135,364.026 212.5,372.5C 212.471,367.339 213.305,362.339 215,357.5C 224.341,346.801 233.675,336.134 243,325.5C 245.835,326.233 248.668,326.9 251.5,327.5 Z"/></g>
<g><path style="opacity:1" fill="#c46252" d="M 159.5,323.5 C 159.827,330.302 160.994,336.969 163,343.5C 167.113,350.595 168.613,358.261 167.5,366.5C 164.94,371.277 162.107,375.944 159,380.5C 158.667,372.833 158.333,365.167 158,357.5C 151.051,346.488 147.218,334.488 146.5,321.5C 150.833,322.167 155.167,322.833 159.5,323.5 Z"/></g>
<g><path style="opacity:1" fill="#f4a188" d="M 236.5,348.5 C 240.167,352.5 243.833,356.5 247.5,360.5C 239.429,369.658 232.096,379.325 225.5,389.5C 221.785,389.577 218.119,389.244 214.5,388.5C 213.031,383.28 212.364,377.946 212.5,372.5C 220.135,364.026 227.635,355.359 235,346.5C 235.278,347.416 235.778,348.082 236.5,348.5 Z"/></g>
<g><path style="opacity:1" fill="#f5a48c" d="M 90.5,357.5 C 99.4683,370.357 103.968,384.69 104,400.5C 90.8537,392.19 80.687,381.19 73.5,367.5C 79.193,365.821 84.5264,363.321 89.5,360C 90.2524,359.329 90.5858,358.496 90.5,357.5 Z"/></g>
<g><path style="opacity:1" fill="#f19a87" d="M 247.5,360.5 C 259.558,372.964 265.891,387.964 266.5,405.5C 248.852,410.956 230.852,412.623 212.5,410.5C 212.2,405.901 212.533,401.401 213.5,397C 222.538,398.687 231.038,397.187 239,392.5C 240.141,389.143 238.975,387.143 235.5,386.5C 232.279,387.907 228.945,388.907 225.5,389.5C 232.096,379.325 239.429,369.658 247.5,360.5 Z"/></g>
<g><path style="opacity:1" fill="#be5c4d" d="M 323.5,322.5 C 326.055,325.25 328.388,328.25 330.5,331.5C 326.224,343.388 320.391,354.388 313,364.5C 308.425,368.985 303.925,373.318 299.5,377.5C 299.833,379.833 301.167,381.167 303.5,381.5C 306.391,380.468 308.891,378.801 311,376.5C 311.032,384.85 310.532,393.183 309.5,401.5C 297.771,401.779 286.438,404.113 275.5,408.5C 274.526,406.257 274.192,403.924 274.5,401.5C 281.252,399.874 287.752,397.541 294,394.5C 294.769,386.509 295.435,378.509 296,370.5C 297.413,367.339 299.08,364.339 301,361.5C 306.333,355.5 311.667,349.5 317,343.5C 320.91,337.02 323.076,330.02 323.5,322.5 Z"/></g>
<g><path style="opacity:1" fill="#f8a68e" d="M 66.5,371.5 C 70.7448,378.42 75.4115,385.087 80.5,391.5C 79.3583,393.433 77.6917,394.933 75.5,396C 66.9165,399.783 58.9165,404.283 51.5,409.5C 45.5666,402.639 40.9,394.972 37.5,386.5C 47.6453,382.262 57.312,377.262 66.5,371.5 Z"/></g>
<g><path style="opacity:1" fill="#a36963" d="M 412.5,371.5 C 413.404,372.209 413.737,373.209 413.5,374.5C 406.167,374.5 398.833,374.5 391.5,374.5C 398.726,374.151 405.726,373.151 412.5,371.5 Z"/></g>
<g><path style="opacity:1" fill="#bb5b4b" d="M 205.5,383.5 C 203.11,384.891 201.443,386.891 200.5,389.5C 197.587,388.759 194.587,388.259 191.5,388C 195.667,382.5 199.833,377 204,371.5C 204.233,375.585 204.733,379.585 205.5,383.5 Z"/></g>
<g><path style="opacity:1" fill="#f77c81" d="M 390.5,382.5 C 415.32,380.096 438.986,384.596 461.5,396C 469.679,401.197 475.346,408.364 478.5,417.5C 478.631,418.376 478.298,419.043 477.5,419.5C 465.34,412.332 452.34,409.998 438.5,412.5C 428.509,411.945 418.509,411.612 408.5,411.5C 405.908,402.056 402.908,392.723 399.5,383.5C 396.572,382.516 393.572,382.183 390.5,382.5 Z"/></g>
<g><path style="opacity:1" fill="#f59f87" d="M 205.5,383.5 C 206.094,385.41 206.427,387.41 206.5,389.5C 205.112,396.431 204.446,403.431 204.5,410.5C 197.464,410.545 190.464,410.712 183.5,411C 186.999,406.006 190.666,401.173 194.5,396.5C 199.385,396.616 201.385,394.283 200.5,389.5C 201.443,386.891 203.11,384.891 205.5,383.5 Z"/></g>
<g><path style="opacity:1" fill="#f27778" d="M 390.5,382.5 C 393.572,382.183 396.572,382.516 399.5,383.5C 402.908,392.723 405.908,402.056 408.5,411.5C 392.359,411.42 377.026,414.754 362.5,421.5C 359.244,412.232 356.077,402.899 353,393.5C 352.583,392.244 351.75,391.577 350.5,391.5C 363.095,385.712 376.428,382.712 390.5,382.5 Z"/></g>
<g><path style="opacity:1" fill="#e76f6e" d="M 350.5,391.5 C 351.75,391.577 352.583,392.244 353,393.5C 356.077,402.899 359.244,412.232 362.5,421.5C 355.245,426.08 348.245,431.08 341.5,436.5C 340.883,436.389 340.383,436.056 340,435.5C 336.431,424.289 332.598,413.289 328.5,402.5C 335.237,397.798 342.57,394.132 350.5,391.5 Z"/></g>
<g><path style="opacity:1" fill="#b8574b" d="M 194.5,396.5 C 190.666,401.173 186.999,406.006 183.5,411C 190.464,410.712 197.464,410.545 204.5,410.5C 205.306,411.997 205.972,413.664 206.5,415.5C 194.44,417.113 182.44,418.613 170.5,420C 175.002,411.992 180.002,404.325 185.5,397C 188.482,396.502 191.482,396.335 194.5,396.5 Z"/></g>
<g><path style="opacity:1" fill="#b9574b" d="M 266.5,405.5 C 266.799,407.604 266.466,409.604 265.5,411.5C 260.525,412.729 255.525,413.895 250.5,415C 238.5,415.667 226.5,415.667 214.5,415C 213.418,413.67 212.751,412.17 212.5,410.5C 230.852,412.623 248.852,410.956 266.5,405.5 Z"/></g>
<g><path style="opacity:1" fill="#f39c87" d="M 80.5,391.5 C 88.2241,399.718 97.2241,406.218 107.5,411C 117.164,411.711 126.83,412.378 136.5,413C 138.879,413.716 140.879,414.883 142.5,416.5C 140.747,418.223 138.747,419.723 136.5,421C 119.269,430.115 101.936,438.948 84.5,447.5C 74.2757,434.268 63.2757,421.601 51.5,409.5C 58.9165,404.283 66.9165,399.783 75.5,396C 77.6917,394.933 79.3583,393.433 80.5,391.5 Z"/></g>
<g><path style="opacity:1" fill="#e16867" d="M 328.5,402.5 C 332.598,413.289 336.431,424.289 340,435.5C 340.383,436.056 340.883,436.389 341.5,436.5C 337.126,440.872 333.126,445.539 329.5,450.5C 322.825,450.334 316.158,450.5 309.5,451C 303.397,451.824 297.397,452.824 291.5,454C 298.864,444.44 304.531,433.94 308.5,422.5C 312.143,417.852 315.81,413.185 319.5,408.5C 322.385,406.231 325.385,404.231 328.5,402.5 Z"/></g>
<g><path style="opacity:1" fill="#d6605f" d="M 297.5,425.5 C 295.906,428.764 293.573,431.431 290.5,433.5C 287.99,433.054 285.99,433.72 284.5,435.5C 283.837,437.042 283.17,438.709 282.5,440.5C 279.25,442.612 276.25,444.945 273.5,447.5C 272.292,446.766 270.959,446.433 269.5,446.5C 269.918,445.778 270.584,445.278 271.5,445C 268.574,436.713 265.574,428.546 262.5,420.5C 273.622,416.713 284.955,413.213 296.5,410C 300.779,408.756 305.112,408.423 309.5,409C 306.703,412.799 303.536,416.299 300,419.5C 298.441,421.217 297.608,423.217 297.5,425.5 Z"/></g>
<g><path style="opacity:1" fill="#cf4b51" d="M 478.5,417.5 C 479.904,424.736 479.737,432.069 478,439.5C 474.712,432.076 469.879,425.909 463.5,421C 455.302,417.435 446.969,414.601 438.5,412.5C 452.34,409.998 465.34,412.332 477.5,419.5C 478.298,419.043 478.631,418.376 478.5,417.5 Z"/></g>
<g><path style="opacity:1" fill="#f19582" d="M 142.5,416.5 C 144.371,416.859 145.871,417.859 147,419.5C 148.368,422.186 149.701,424.853 151,427.5C 154.197,443.584 157.697,459.584 161.5,475.5C 159.143,475.663 156.81,475.497 154.5,475C 149.833,472.333 145.167,469.667 140.5,467C 122.519,472.347 110.852,466.18 105.5,448.5C 104.311,447.571 102.978,447.238 101.5,447.5C 101.766,451.605 101.266,455.605 100,459.5C 97.4355,461.179 94.6021,461.846 91.5,461.5C 89.1534,456.807 86.8201,452.14 84.5,447.5C 101.936,438.948 119.269,430.115 136.5,421C 138.747,419.723 140.747,418.223 142.5,416.5 Z"/></g>
<g><path style="opacity:1" fill="#cd494e" d="M 406.5,419.5 C 423.473,418.039 440.14,420.206 456.5,426C 473.589,436.076 475.922,448.743 463.5,464C 455.554,470.136 446.554,473.802 436.5,475C 426.153,475.362 415.82,475.862 405.5,476.5C 405.793,470.107 405.46,463.773 404.5,457.5C 412.813,456.335 421.147,456.168 429.5,457C 434.418,457.878 438.918,459.711 443,462.5C 446.031,461.494 447.365,459.494 447,456.5C 441.218,452.238 434.718,449.738 427.5,449C 413.731,448.75 400.065,448.917 386.5,449.5C 386.314,445.279 385.314,441.279 383.5,437.5C 392.681,430.404 402.681,424.571 413.5,420C 411.19,419.503 408.857,419.337 406.5,419.5 Z"/></g>
<g><path style="opacity:1" fill="#ec7374" d="M 406.5,419.5 C 408.857,419.337 411.19,419.503 413.5,420C 402.681,424.571 392.681,430.404 383.5,437.5C 370.217,445.072 355.884,449.072 340.5,449.5C 357.71,429.233 379.71,419.233 406.5,419.5 Z"/></g>
<g><path style="opacity:1" fill="#c44f4a" d="M 189.5,450.5 C 185.694,450.98 182.361,449.98 179.5,447.5C 176.741,440.985 173.741,434.652 170.5,428.5C 188.533,424.908 206.866,423.408 225.5,424C 212.779,431.893 200.779,440.726 189.5,450.5 Z"/></g>
<g><path style="opacity:1" fill="#cc5652" d="M 262.5,420.5 C 265.574,428.546 268.574,436.713 271.5,445C 270.584,445.278 269.918,445.778 269.5,446.5C 265.983,448.424 262.316,450.091 258.5,451.5C 245.505,450.963 232.505,450.463 219.5,450C 217.224,449.126 215.89,447.459 215.5,445C 216.651,442.535 217.651,440.035 218.5,437.5C 231.608,427.952 246.275,422.285 262.5,420.5 Z"/></g>
<g><path style="opacity:1" fill="#a02525" d="M 170.5,428.5 C 173.741,434.652 176.741,440.985 179.5,447.5C 182.361,449.98 185.694,450.98 189.5,450.5C 185.704,454.798 181.704,458.964 177.5,463C 173.848,463.499 170.182,463.665 166.5,463.5C 164.641,453.063 162.308,442.73 159.5,432.5C 159.818,431.353 160.484,430.519 161.5,430C 164.432,429.047 167.432,428.547 170.5,428.5 Z"/></g>
<g><path style="opacity:1" fill="#2e2638" d="M 290.5,433.5 C 293.279,436.352 292.945,438.852 289.5,441C 285.535,441.525 283.869,439.691 284.5,435.5C 285.99,433.72 287.99,433.054 290.5,433.5 Z"/></g>
<g><path style="opacity:1" fill="#b53638" d="M 308.5,422.5 C 304.531,433.94 298.864,444.44 291.5,454C 297.397,452.824 303.397,451.824 309.5,451C 316.158,450.5 322.825,450.334 329.5,450.5C 323.236,458.092 318.236,466.425 314.5,475.5C 292.451,474.374 270.785,470.874 249.5,465C 257.081,461.876 264.414,458.209 271.5,454C 273.229,452.211 273.896,450.044 273.5,447.5C 276.25,444.945 279.25,442.612 282.5,440.5C 283.17,438.709 283.837,437.042 284.5,435.5C 283.869,439.691 285.535,441.525 289.5,441C 292.945,438.852 293.279,436.352 290.5,433.5C 293.573,431.431 295.906,428.764 297.5,425.5C 299.16,427.248 301.16,427.748 303.5,427C 305.037,425.293 306.704,423.793 308.5,422.5 Z"/></g>
<g><path style="opacity:1" fill="#a92c2d" d="M 218.5,437.5 C 217.651,440.035 216.651,442.535 215.5,445C 215.89,447.459 217.224,449.126 219.5,450C 232.505,450.463 245.505,450.963 258.5,451.5C 247.438,457.963 235.438,461.63 222.5,462.5C 211.321,462.828 200.321,462.495 189.5,461.5C 198.584,452.745 208.25,444.745 218.5,437.5 Z"/></g>
<g><path style="opacity:1" fill="#c03f41" d="M 383.5,437.5 C 385.314,441.279 386.314,445.279 386.5,449.5C 383.907,450.754 381.573,452.42 379.5,454.5C 367.937,449.026 359.937,452.359 355.5,464.5C 349.532,462.492 344.199,463.492 339.5,467.5C 336.591,465.644 333.591,463.977 330.5,462.5C 333.6,457.956 336.933,453.623 340.5,449.5C 355.884,449.072 370.217,445.072 383.5,437.5 Z"/></g>
<g><path style="opacity:1" fill="#e8907e" d="M 388.5,456.5 C 392.684,455.704 395.85,457.037 398,460.5C 398.667,469.5 398.667,478.5 398,487.5C 393.667,494.167 389.333,494.167 385,487.5C 384.333,478.5 384.333,469.5 385,460.5C 386.032,458.973 387.199,457.64 388.5,456.5 Z"/></g>
<g><path style="opacity:1" fill="#e9907f" d="M 367.5,459.5 C 371.684,458.704 374.85,460.037 377,463.5C 377.667,472.5 377.667,481.5 377,490.5C 372.667,497.167 368.333,497.167 364,490.5C 363.333,481.833 363.333,473.167 364,464.5C 364.997,462.677 366.164,461.01 367.5,459.5 Z"/></g>
<g><path style="opacity:1" fill="#5d2731" d="M 189.5,461.5 C 200.321,462.495 211.321,462.828 222.5,462.5C 211.326,463.824 199.993,463.824 188.5,462.5C 188.624,461.893 188.957,461.56 189.5,461.5 Z"/></g>
<g><path style="opacity:1" fill="#b14f40" d="M 161.5,475.5 C 162.179,479.22 163.179,482.886 164.5,486.5C 159.392,488.112 154.725,487.278 150.5,484C 147.333,479.5 144.167,475 141,470.5C 137.507,467.498 135.007,468.165 133.5,472.5C 134.871,476.043 136.871,479.21 139.5,482C 134.5,482.667 129.5,482.667 124.5,482C 122.246,480.623 120.08,479.123 118,477.5C 114.627,471.252 111.127,465.085 107.5,459C 104.447,457.928 102.447,458.928 101.5,462C 103.03,465.561 104.697,469.061 106.5,472.5C 97.8857,474.009 92.8857,470.342 91.5,461.5C 94.6021,461.846 97.4355,461.179 100,459.5C 101.266,455.605 101.766,451.605 101.5,447.5C 102.978,447.238 104.311,447.571 105.5,448.5C 110.852,466.18 122.519,472.347 140.5,467C 145.167,469.667 149.833,472.333 154.5,475C 156.81,475.497 159.143,475.663 161.5,475.5 Z"/></g>
<g><path style="opacity:1" fill="#ec9280" d="M 347.5,470.5 C 351.025,470.346 353.859,471.679 356,474.5C 356.667,481.5 356.667,488.5 356,495.5C 352.902,501.319 348.902,501.986 344,497.5C 343.333,489.833 343.333,482.167 344,474.5C 344.69,472.65 345.856,471.316 347.5,470.5 Z"/></g>
<g><path style="opacity:1" fill="#ed9481" d="M 326.5,470.5 C 330.025,470.346 332.859,471.679 335,474.5C 335.667,481.5 335.667,488.5 335,495.5C 331.902,501.319 327.902,501.986 323,497.5C 322.333,489.5 322.333,481.5 323,473.5C 324.145,472.364 325.312,471.364 326.5,470.5 Z"/></g>
</svg>
