<?xml version="1.0" encoding="UTF-8"?>
<!DOCTYPE svg PUBLIC "-//W3C//DTD SVG 1.1//EN" "http://www.w3.org/Graphics/SVG/1.1/DTD/svg11.dtd">
<svg xmlns="http://www.w3.org/2000/svg" version="1.1" width="512px" height="512px" style="shape-rendering:geometricPrecision; text-rendering:geometricPrecision; image-rendering:optimizeQuality; fill-rule:evenodd; clip-rule:evenodd" xmlns:xlink="http://www.w3.org/1999/xlink">
<g><path style="opacity:1" fill="#262639" d="M 450.5,4.5 C 470.44,3.04389 483.607,11.7106 490,30.5C 491.185,36.1302 492.185,41.7969 493,47.5C 505.339,59.434 506.173,71.934 495.5,85C 493.112,86.8605 490.446,88.1939 487.5,89C 459.167,89.6667 430.833,89.6667 402.5,89C 400.675,87.5341 400.175,85.7008 401,83.5C 403.251,81.6227 405.751,80.1227 408.5,79C 414.215,73.5542 419.215,67.5542 423.5,61C 426.312,59.4511 429.312,58.6178 432.5,58.5C 432.5,57.5 432.5,56.5 432.5,55.5C 405.165,55.6666 377.831,55.5 350.5,55C 348.604,53.1917 348.104,51.025 349,48.5C 365.437,43.5315 378.604,34.0315 388.5,20C 401.162,11.3788 413.829,11.5455 426.5,20.5C 432.922,12.6345 440.922,7.30115 450.5,4.5 Z"/></g>
<g><path style="opacity:1" fill="#8096d2" d="M 459.5,12.5 C 460.278,13.1556 460.944,13.9889 461.5,15C 458.979,22.3912 456.979,29.8912 455.5,37.5C 449.429,39.3709 444.096,42.5376 439.5,47C 417.167,47.6667 394.833,47.6667 372.5,47C 373.044,46.2828 373.711,45.7828 374.5,45.5C 385.321,46.4946 396.321,46.8279 407.5,46.5C 409.234,38.633 411.567,30.9664 414.5,23.5C 418.684,26.0923 423.017,28.4256 427.5,30.5C 432.98,24.8618 438.98,19.6952 445.5,15C 449.922,12.8964 454.588,12.0631 459.5,12.5 Z"/></g>
<g><path style="opacity:1" fill="#7492c9" d="M 459.5,12.5 C 474.298,15.9673 482.298,25.3007 483.5,40.5C 474.471,36.6646 465.138,35.6646 455.5,37.5C 456.979,29.8912 458.979,22.3912 461.5,15C 460.944,13.9889 460.278,13.1556 459.5,12.5 Z"/></g>
<g><path style="opacity:1" fill="#91a0d8" d="M 414.5,23.5 C 411.567,30.9664 409.234,38.633 407.5,46.5C 396.321,46.8279 385.321,46.4946 374.5,45.5C 382.956,40.2108 389.956,33.3775 395.5,25C 401.535,20.8766 407.869,20.3766 414.5,23.5 Z"/></g>
<g><path style="opacity:1" fill="#262639" d="M 78.5,46.5 C 92.6147,45.0184 105.948,47.5184 118.5,54C 125.535,58.8891 130.535,65.3891 133.5,73.5C 146.436,74.8809 156.936,80.5476 165,90.5C 169.846,98.0081 171.012,105.841 168.5,114C 147.167,114.333 125.833,114.667 104.5,115C 101.21,115.253 98.2104,116.253 95.5,118C 96.713,120.687 97.3797,123.52 97.5,126.5C 105.241,126.358 112.241,128.525 118.5,133C 121.926,137.848 125.592,142.515 129.5,147C 135.167,149.333 140.833,151.667 146.5,154C 149.737,156.419 150.07,159.085 147.5,162C 109.167,162.667 70.8333,162.667 32.5,162C 13.4527,155.741 6.61937,142.908 12,123.5C 14.367,116.967 18.867,112.633 25.5,110.5C 24.7398,94.6711 31.5732,83.6711 46,77.5C 51.2271,61.1023 62.0605,50.769 78.5,46.5 Z"/></g>
<g><path style="opacity:1" fill="#272639" d="M 298.5,47.5 C 331.482,46.7277 355.648,60.7277 371,89.5C 372.967,94.3703 374.467,99.3703 375.5,104.5C 385.729,106.949 389.229,113.282 386,123.5C 383.244,128.296 379.077,130.629 373.5,130.5C 373.5,146.833 373.5,163.167 373.5,179.5C 389.445,178.786 400.445,185.786 406.5,200.5C 410.122,201.659 413.789,201.825 417.5,201C 428.46,191.231 440.46,189.898 453.5,197C 464.289,204.412 468.622,214.578 466.5,227.5C 480.527,228.192 488.527,235.525 490.5,249.5C 489.81,254.242 488.143,258.576 485.5,262.5C 497.09,269.809 500.923,280.143 497,293.5C 494.439,302.28 491.606,310.947 488.5,319.5C 490.448,327.073 491.948,334.74 493,342.5C 495.508,385.157 497.842,427.823 500,470.5C 503.05,480.867 505.55,491.367 507.5,502C 507.561,503.711 506.894,505.044 505.5,506C 344.167,506.667 182.833,506.667 21.5,506C 9.19172,501.574 3.19172,492.741 3.5,479.5C 4.17349,469.822 7.84016,461.489 14.5,454.5C 18.2338,450.597 22.4005,447.263 27,444.5C 30.2896,431.043 38.7896,423.377 52.5,421.5C 52.6662,415.158 52.4995,408.825 52,402.5C 49.6524,395.626 47.819,388.626 46.5,381.5C 46.7043,375.599 48.7043,370.432 52.5,366C 47.5734,354.873 47.4067,343.706 52,332.5C 55.5461,327.287 60.0461,323.12 65.5,320C 62.8329,303.498 69.1663,291.998 84.5,285.5C 86.9243,273.932 93.2576,265.432 103.5,260C 107.104,258.846 110.771,258.013 114.5,257.5C 115.386,243.436 122.553,234.103 136,229.5C 139.166,218.972 145.333,210.805 154.5,205C 159.325,203.105 164.325,202.272 169.5,202.5C 169.832,190.482 169.499,178.482 168.5,166.5C 157.767,163.029 154.6,156.029 159,145.5C 161.252,142.971 163.752,140.804 166.5,139C 171.755,113.077 187.422,98.0774 213.5,94C 219.491,93.5005 225.491,93.3338 231.5,93.5C 238.157,74.6741 250.824,61.5074 269.5,54C 279.01,50.468 288.676,48.3014 298.5,47.5 Z M 276.5,131.5 C 283.313,130.509 290.313,130.175 297.5,130.5C 297.5,156.833 297.5,183.167 297.5,209.5C 290.167,209.5 282.833,209.5 275.5,209.5C 275.5,195.167 275.5,180.833 275.5,166.5C 286.985,163.53 290.485,156.53 286,145.5C 284.261,143.259 282.094,141.592 279.5,140.5C 278.616,137.344 277.616,134.344 276.5,131.5 Z M 326.5,130.5 C 332.5,130.5 338.5,130.5 344.5,130.5C 344.667,154.502 344.5,178.502 344,202.5C 341.833,204.667 339.667,206.833 337.5,209C 333.848,209.499 330.182,209.665 326.5,209.5C 326.5,183.167 326.5,156.833 326.5,130.5 Z M 193.5,166.5 C 199.167,166.5 204.833,166.5 210.5,166.5C 210.5,180.833 210.5,195.167 210.5,209.5C 204.833,209.5 199.167,209.5 193.5,209.5C 193.5,195.167 193.5,180.833 193.5,166.5 Z M 234.5,166.5 C 240.167,166.5 245.833,166.5 251.5,166.5C 251.5,180.833 251.5,195.167 251.5,209.5C 245.833,209.5 240.167,209.5 234.5,209.5C 234.5,195.167 234.5,180.833 234.5,166.5 Z"/></g>
<g><path style="opacity:1" fill="#889cd5" d="M 97.5,107.5 C 89.6916,90.5499 81.3583,73.8833 72.5,57.5C 85.9523,53.2514 99.2856,54.0847 112.5,60C 120.727,65.1175 125.727,72.4509 127.5,82C 140.612,81.4684 151.112,86.3018 159,96.5C 160.759,99.6076 161.592,102.941 161.5,106.5C 140.14,106.212 118.807,106.545 97.5,107.5 Z"/></g>
<g><path style="opacity:1" fill="#f9ed8f" d="M 339.5,66.5 C 321.288,75.4397 302.954,84.1064 284.5,92.5C 269.833,92.5 255.167,92.5 240.5,92.5C 250.306,72.5562 266.306,60.7229 288.5,57C 302.465,55.4836 316.131,56.8169 329.5,61C 333.056,62.6076 336.389,64.4409 339.5,66.5 Z"/></g>
<g><path style="opacity:1" fill="#7e95d2" d="M 72.5,57.5 C 81.3583,73.8833 89.6916,90.5499 97.5,107.5C 94.6623,108.17 92.1623,109.504 90,111.5C 85.5784,107.526 80.4117,105.192 74.5,104.5C 73.6016,103.842 72.6016,103.176 71.5,102.5C 66.7256,92.6152 61.7256,82.9485 56.5,73.5C 59.5219,65.8114 64.8553,60.478 72.5,57.5 Z"/></g>
<g><path style="opacity:1" fill="#cedff8" d="M 459.5,43.5 C 475.154,43.0746 486.654,49.7413 494,63.5C 495.833,71.6673 492.999,77.5006 485.5,81C 463.167,81.6667 440.833,81.6667 418.5,81C 421.993,77.0152 424.993,72.6819 427.5,68C 428.729,67.2189 430.062,66.7189 431.5,66.5C 433.473,67.3311 435.473,67.4978 437.5,67C 440.537,55.13 447.87,47.2967 459.5,43.5 Z"/></g>
<g><path style="opacity:1" fill="#f9e68a" d="M 339.5,66.5 C 343.732,68.4002 347.399,71.0669 350.5,74.5C 349.565,76.8614 348.232,79.0281 346.5,81C 338.569,87.1269 329.569,90.7936 319.5,92C 307.838,92.4999 296.171,92.6665 284.5,92.5C 302.954,84.1064 321.288,75.4397 339.5,66.5 Z"/></g>
<g><path style="opacity:1" fill="#f98470" d="M 350.5,74.5 C 358.733,82.0921 364.066,91.4254 366.5,102.5C 330.515,104.494 294.182,105.16 257.5,104.5C 252.253,101.044 246.586,98.3775 240.5,96.5C 239.218,95.0416 239.218,93.7082 240.5,92.5C 255.167,92.5 269.833,92.5 284.5,92.5C 296.171,92.6665 307.838,92.4999 319.5,92C 329.569,90.7936 338.569,87.1269 346.5,81C 348.232,79.0281 349.565,76.8614 350.5,74.5 Z"/></g>
<g><path style="opacity:1" fill="#7593cb" d="M 56.5,73.5 C 61.7256,82.9485 66.7256,92.6152 71.5,102.5C 72.6016,103.176 73.6016,103.842 74.5,104.5C 68.0427,103.883 61.876,104.883 56,107.5C 48.9296,104.919 41.9296,104.919 35,107.5C 34.1053,99.4491 36.9386,92.9491 43.5,88C 46.579,86.5894 49.579,85.0894 52.5,83.5C 53.3276,79.8619 54.661,76.5286 56.5,73.5 Z"/></g>
<g><path style="opacity:1" fill="#f8e98d" d="M 254.5,112.5 C 249.376,122.45 241.376,128.95 230.5,132C 212.537,133.4 194.537,133.9 176.5,133.5C 181.236,117.268 191.903,107.101 208.5,103C 223.259,99.9277 237.259,101.928 250.5,109C 252.093,109.949 253.426,111.115 254.5,112.5 Z"/></g>
<g><path style="opacity:1" fill="#46333e" d="M 366.5,102.5 C 367.404,103.209 367.737,104.209 367.5,105.5C 330.663,105.832 293.996,105.498 257.5,104.5C 294.182,105.16 330.515,104.494 366.5,102.5 Z"/></g>
<g><path style="opacity:1" fill="#d7e3f7" d="M 63.5,154.5 C 63.829,140.656 63.4957,126.99 62.5,113.5C 69.2363,110.705 75.903,111.205 82.5,115C 88.8132,119.973 91.1466,126.306 89.5,134C 97.626,133.647 105.293,135.314 112.5,139C 114.956,141.408 116.789,144.241 118,147.5C 120.205,150.04 122.705,152.207 125.5,154C 104.836,154.5 84.1694,154.667 63.5,154.5 Z"/></g>
<g><path style="opacity:1" fill="#f97e6b" d="M 266.5,113.5 C 302.998,112.336 339.664,112.169 376.5,113C 380.5,116 380.5,119 376.5,122C 341.829,122.833 307.162,122.667 272.5,121.5C 270.966,118.407 268.966,115.74 266.5,113.5 Z"/></g>
<g><path style="opacity:1" fill="#e1ebf8" d="M 62.5,113.5 C 63.4957,126.99 63.829,140.656 63.5,154.5C 52.4225,154.931 41.4225,154.431 30.5,153C 18.6436,146.101 15.477,136.267 21,123.5C 22.5429,121.622 24.3762,120.122 26.5,119C 31.6513,118.09 36.318,116.09 40.5,113C 43.5,112.333 46.5,112.333 49.5,113C 53.7394,116.151 58.0727,116.317 62.5,113.5 Z"/></g>
<g><path style="opacity:1" fill="#f9836f" d="M 254.5,112.5 C 262.25,118.273 267.25,125.94 269.5,135.5C 269.5,136.833 269.5,138.167 269.5,139.5C 237.816,140.159 206.482,139.493 175.5,137.5C 175.232,135.901 175.566,134.568 176.5,133.5C 194.537,133.9 212.537,133.4 230.5,132C 241.376,128.95 249.376,122.45 254.5,112.5 Z"/></g>
<g><path style="opacity:1" fill="#e57b66" d="M 317.5,209.5 C 317.667,191.83 317.5,174.164 317,156.5C 313.203,155.426 309.37,154.426 305.5,153.5C 305.5,145.833 305.5,138.167 305.5,130.5C 309.833,130.5 314.167,130.5 318.5,130.5C 318.831,157.005 318.498,183.339 317.5,209.5 Z"/></g>
<g><path style="opacity:1" fill="#ef7667" d="M 352.5,130.5 C 356.833,130.5 361.167,130.5 365.5,130.5C 365.667,148.17 365.5,165.836 365,183.5C 360.7,186.798 356.7,190.465 353,194.5C 352.5,173.169 352.333,151.836 352.5,130.5 Z"/></g>
<g><path style="opacity:1" fill="#be685c" d="M 269.5,135.5 C 270.451,136.919 270.784,138.585 270.5,140.5C 238.5,140.5 206.5,140.5 174.5,140.5C 174.263,139.209 174.596,138.209 175.5,137.5C 206.482,139.493 237.816,140.159 269.5,139.5C 269.5,138.167 269.5,136.833 269.5,135.5 Z"/></g>
<g><path style="opacity:1" fill="#f9e88b" d="M 168.5,148.5 C 177.167,148.5 185.833,148.5 194.5,148.5C 192.58,151.339 190.913,154.339 189.5,157.5C 182.5,157.5 175.5,157.5 168.5,157.5C 166.414,156.852 165.414,155.352 165.5,153C 165.522,150.817 166.522,149.317 168.5,148.5 Z"/></g>
<g><path style="opacity:1" fill="#fadc83" d="M 194.5,148.5 C 202.86,148.169 211.193,148.502 219.5,149.5C 218.167,151.833 216.833,154.167 215.5,156.5C 206.859,157.498 198.192,157.831 189.5,157.5C 190.913,154.339 192.58,151.339 194.5,148.5 Z"/></g>
<g><path style="opacity:1" fill="#e8bd72" d="M 168.5,148.5 C 204.331,147.336 240.331,147.169 276.5,148C 278.91,148.758 279.91,150.425 279.5,153C 279.91,155.575 278.91,157.242 276.5,158C 240.331,158.831 204.331,158.664 168.5,157.5C 175.5,157.5 182.5,157.5 189.5,157.5C 198.192,157.831 206.859,157.498 215.5,156.5C 216.833,154.167 218.167,151.833 219.5,149.5C 211.193,148.502 202.86,148.169 194.5,148.5C 185.833,148.5 177.167,148.5 168.5,148.5 Z"/></g>
<g><path style="opacity:1" fill="#f0806d" d="M 185.5,174.5 C 182.946,173.612 180.279,173.279 177.5,173.5C 177.5,170.833 177.5,168.167 177.5,165.5C 180.167,165.5 182.833,165.5 185.5,165.5C 185.5,168.5 185.5,171.5 185.5,174.5 Z"/></g>
<g><path style="opacity:1" fill="#f87c69" d="M 259.5,165.5 C 262.167,165.5 264.833,165.5 267.5,165.5C 267.5,180.167 267.5,194.833 267.5,209.5C 264.833,209.5 262.167,209.5 259.5,209.5C 259.5,194.833 259.5,180.167 259.5,165.5 Z"/></g>
<g><path style="opacity:1" fill="#f67c6a" d="M 226.5,181.5 C 223.763,181.599 221.096,181.265 218.5,180.5C 218.5,175.5 218.5,170.5 218.5,165.5C 221.167,165.5 223.833,165.5 226.5,165.5C 226.5,170.833 226.5,176.167 226.5,181.5 Z"/></g>
<g><path style="opacity:1" fill="#f6ca78" d="M 305.5,153.5 C 309.37,154.426 313.203,155.426 317,156.5C 317.5,174.164 317.667,191.83 317.5,209.5C 313.5,209.5 309.5,209.5 305.5,209.5C 305.5,190.833 305.5,172.167 305.5,153.5 Z"/></g>
<g><path style="opacity:1" fill="#f9da82" d="M 177.5,173.5 C 180.279,173.279 182.946,173.612 185.5,174.5C 185.667,186.171 185.5,197.838 185,209.5C 183.084,207.791 180.918,206.457 178.5,205.5C 177.501,194.854 177.168,184.187 177.5,173.5 Z"/></g>
<g><path style="opacity:1" fill="#fad47d" d="M 218.5,180.5 C 221.096,181.265 223.763,181.599 226.5,181.5C 226.5,190.833 226.5,200.167 226.5,209.5C 223.833,209.5 221.167,209.5 218.5,209.5C 218.5,199.833 218.5,190.167 218.5,180.5 Z"/></g>
<g><path style="opacity:1" fill="#bfc5ea" d="M 397.5,202.5 C 377.514,209.721 357.514,216.055 337.5,221.5C 347.298,211.202 357.298,201.035 367.5,191C 381.322,184.885 391.322,188.718 397.5,202.5 Z"/></g>
<g><path style="opacity:1" fill="#bec7e6" d="M 397.5,202.5 C 398.809,203.624 399.475,205.124 399.5,207C 398.216,212.643 396.549,218.143 394.5,223.5C 366.235,232.485 338.235,241.152 310.5,249.5C 319.528,240.14 328.528,230.807 337.5,221.5C 357.514,216.055 377.514,209.721 397.5,202.5 Z"/></g>
<g><path style="opacity:1" fill="#567567" d="M 465.5,236.5 C 466.552,236.351 467.552,236.517 468.5,237C 460.182,240.272 451.849,243.438 443.5,246.5C 438.897,241.395 434.064,236.395 429,231.5C 429.132,225.507 429.132,219.507 429,213.5C 427.999,210.827 426.499,208.493 424.5,206.5C 429.985,200.371 436.651,198.871 444.5,202C 454.01,205.518 458.677,212.352 458.5,222.5C 457.866,227.202 457.366,231.868 457,236.5C 459.749,238.953 462.583,238.953 465.5,236.5 Z"/></g>
<g><path style="opacity:1" fill="#50373e" d="M 275.5,217.5 C 247.995,217.169 220.662,217.502 193.5,218.5C 192.957,218.44 192.624,218.107 192.5,217.5C 220.33,216.171 247.997,216.171 275.5,217.5 Z"/></g>
<g><path style="opacity:1" fill="#51373e" d="M 286.5,217.5 C 301.005,216.174 315.672,216.174 330.5,217.5C 330.376,218.107 330.043,218.44 329.5,218.5C 315.343,217.504 301.01,217.171 286.5,217.5 Z"/></g>
<g><path style="opacity:1" fill="#f97564" d="M 275.5,217.5 C 279.254,218.828 280.421,221.494 279,225.5C 278.5,226 278,226.5 277.5,227C 250.502,227.5 223.502,227.667 196.5,227.5C 196.353,224.208 195.353,221.208 193.5,218.5C 220.662,217.502 247.995,217.169 275.5,217.5 Z"/></g>
<g><path style="opacity:1" fill="#f97564" d="M 286.5,217.5 C 301.01,217.171 315.343,217.504 329.5,218.5C 326.369,221.129 323.369,223.962 320.5,227C 309.152,227.832 297.819,227.666 286.5,226.5C 287.825,223.469 287.825,220.469 286.5,217.5 Z"/></g>
<g><path style="opacity:1" fill="#c2eaf6" d="M 416.5,244.5 C 408.5,244.5 400.5,244.5 392.5,244.5C 399.114,233.606 403.781,221.939 406.5,209.5C 420.019,208.137 424.852,214.137 421,227.5C 419.999,233.329 418.499,238.996 416.5,244.5 Z"/></g>
<g><path style="opacity:1" fill="#88a890" d="M 185.5,247.5 C 171.902,244.38 158.235,241.38 144.5,238.5C 143.287,238.253 142.62,237.586 142.5,236.5C 144.841,224.969 151.174,216.469 161.5,211C 172.916,209.624 181.75,213.791 188,223.5C 189.517,229.08 189.851,234.747 189,240.5C 188.33,243.174 187.163,245.507 185.5,247.5 Z"/></g>
<g><path style="opacity:1" fill="#b8bfe4" d="M 394.5,223.5 C 391.175,231.493 386.841,238.826 381.5,245.5C 370.98,253.26 359.98,260.26 348.5,266.5C 348.249,261.412 347.416,256.412 346,251.5C 341.917,249.428 339.75,250.595 339.5,255C 340.402,260.479 341.069,265.979 341.5,271.5C 330.47,278.695 320.136,286.861 310.5,296C 309.423,296.47 308.423,296.303 307.5,295.5C 305.734,283.971 303.734,272.471 301.5,261C 303.173,256.168 306.173,252.335 310.5,249.5C 338.235,241.152 366.235,232.485 394.5,223.5 Z"/></g>
<g><path style="opacity:1" fill="#676f92" d="M 293.5,235.5 C 299.842,235.334 306.175,235.5 312.5,236C 307.966,240.199 303.799,244.699 300,249.5C 298.079,244.661 295.912,239.994 293.5,235.5 Z"/></g>
<g><path style="opacity:1" fill="#4a675a" d="M 465.5,236.5 C 472.399,235.201 477.565,237.867 481,244.5C 482.585,252 480.252,258 474,262.5C 473.51,263.793 473.343,265.127 473.5,266.5C 469.739,268.538 465.739,270.204 461.5,271.5C 455.475,263.148 449.475,254.815 443.5,246.5C 451.849,243.438 460.182,240.272 468.5,237C 467.552,236.517 466.552,236.351 465.5,236.5 Z"/></g>
<g><path style="opacity:1" fill="#82a189" d="M 142.5,236.5 C 142.62,237.586 143.287,238.253 144.5,238.5C 158.235,241.38 171.902,244.38 185.5,247.5C 183.28,250.287 180.614,252.62 177.5,254.5C 176.607,257.084 176.274,259.751 176.5,262.5C 159.852,258.837 143.185,255.17 126.5,251.5C 125.287,251.253 124.62,250.586 124.5,249.5C 128.217,242.282 134.217,237.948 142.5,236.5 Z"/></g>
<g><path style="opacity:1" fill="#60688a" d="M 481.5,327.5 C 477.852,330.66 473.852,333.327 469.5,335.5C 467.965,329.031 465.965,322.697 463.5,316.5C 457.397,295.946 446.064,278.946 429.5,265.5C 421.853,276.958 416.853,289.458 414.5,303C 414.493,306.258 414.993,309.425 416,312.5C 418.765,318.375 422.265,323.709 426.5,328.5C 432.833,336.5 439.167,344.5 445.5,352.5C 439.5,356.167 433.5,359.833 427.5,363.5C 418.638,354.801 411.472,344.801 406,333.5C 404.972,317.841 404.639,302.175 405,286.5C 413.953,271.927 421.287,256.594 427,240.5C 446.785,262.293 463.452,286.293 477,312.5C 479.213,317.304 480.713,322.304 481.5,327.5 Z"/></g>
<g><path style="opacity:1" fill="#6d7596" d="M 293.5,260.5 C 291.064,262.017 288.898,261.684 287,259.5C 286.24,255.181 285.573,250.848 285,246.5C 284.167,245.667 283.333,244.833 282.5,244C 268.837,243.5 255.171,243.333 241.5,243.5C 237.589,259.494 232.923,275.161 227.5,290.5C 227.631,289.761 227.464,289.094 227,288.5C 224.31,290.027 222.143,292.027 220.5,294.5C 220.22,290.775 218.22,289.608 214.5,291C 212.729,294.174 211.063,297.34 209.5,300.5C 203.307,304.761 196.974,308.761 190.5,312.5C 196.746,304.008 201.413,294.675 204.5,284.5C 210.802,271.227 217.135,257.894 223.5,244.5C 217.863,243.337 212.196,243.17 206.5,244C 204.487,250.681 200.32,255.514 194,258.5C 192.038,271.088 186.871,282.088 178.5,291.5C 174.357,294.081 170.857,297.414 168,301.5C 158.304,317.34 148.47,333.006 138.5,348.5C 138.565,348.062 138.399,347.728 138,347.5C 135.287,349.72 132.454,351.72 129.5,353.5C 139.676,333.817 150.51,314.484 162,295.5C 165.222,292.612 168.722,290.112 172.5,288C 180.352,279.788 184.519,269.955 185,258.5C 192.806,252.893 196.972,245.227 197.5,235.5C 209.851,235.168 222.185,235.501 234.5,236.5C 231.15,242.833 229.317,249.499 229,256.5C 231.267,257.935 233.267,257.602 235,255.5C 237.5,249.167 240,242.833 242.5,236.5C 255.851,235.571 269.184,235.071 282.5,235C 289.584,242.003 293.25,250.503 293.5,260.5 Z"/></g>
<g><path style="opacity:1" fill="#636e8d" d="M 381.5,245.5 C 373.359,258.484 363.192,269.817 351,279.5C 350.209,275.113 349.375,270.779 348.5,266.5C 359.98,260.26 370.98,253.26 381.5,245.5 Z"/></g>
<g><path style="opacity:1" fill="#7a9882" d="M 124.5,249.5 C 124.62,250.586 125.287,251.253 126.5,251.5C 143.185,255.17 159.852,258.837 176.5,262.5C 175.647,274.05 169.98,282.217 159.5,287C 157.361,289.478 155.361,291.978 153.5,294.5C 143.5,292.167 133.5,289.833 123.5,287.5C 125.437,279.069 130.77,274.235 139.5,273C 142.589,269.187 141.755,266.687 137,265.5C 132.74,266.214 128.906,267.881 125.5,270.5C 123.092,266.906 122.092,262.906 122.5,258.5C 122.667,256.167 122.833,253.833 123,251.5C 123.278,250.584 123.778,249.918 124.5,249.5 Z"/></g>
<g><path style="opacity:1" fill="#292a3d" d="M 221.5,269.5 C 228.004,269.138 229.671,271.638 226.5,277C 220.593,277.746 218.927,275.246 221.5,269.5 Z"/></g>
<g><path style="opacity:1" fill="#636f8e" d="M 341.5,271.5 C 342.978,276.042 343.478,280.709 343,285.5C 331.956,292.871 321.79,301.371 312.5,311C 311.4,311.432 310.733,310.932 310.5,309.5C 309.283,304.86 308.283,300.193 307.5,295.5C 308.423,296.303 309.423,296.47 310.5,296C 320.136,286.861 330.47,278.695 341.5,271.5 Z"/></g>
<g><path style="opacity:1" fill="#bcc6e7" d="M 204.5,284.5 C 196.132,287.01 187.799,289.676 179.5,292.5C 178.893,292.376 178.56,292.043 178.5,291.5C 186.871,282.088 192.038,271.088 194,258.5C 200.32,255.514 204.487,250.681 206.5,244C 212.196,243.17 217.863,243.337 223.5,244.5C 217.135,257.894 210.802,271.227 204.5,284.5 Z"/></g>
<g><path style="opacity:1" fill="#b6dff6" d="M 392.5,244.5 C 400.5,244.5 408.5,244.5 416.5,244.5C 410.342,263.155 401.342,280.155 389.5,295.5C 382.313,295.825 375.313,295.491 368.5,294.5C 370.333,292.504 370.833,290.171 370,287.5C 369.107,286.919 368.107,286.585 367,286.5C 362.277,289.115 357.777,292.115 353.5,295.5C 349.958,295.813 346.625,295.479 343.5,294.5C 363.238,281.096 379.572,264.429 392.5,244.5 Z"/></g>
<g><path style="opacity:1" fill="#2a2b3d" d="M 386.5,264.5 C 391.327,263.848 393.16,265.848 392,270.5C 389.872,273.63 387.372,276.463 384.5,279C 380,279.833 378.167,278 379,273.5C 382.088,270.919 384.588,267.919 386.5,264.5 Z"/></g>
<g><path style="opacity:1" fill="#527064" d="M 123.5,312.5 C 111.842,307.006 100.509,301.006 89.5,294.5C 92.0984,287.299 95.2651,280.299 99,273.5C 103.136,269.264 108.136,266.598 114,265.5C 114.945,265.905 115.612,266.572 116,267.5C 116.393,270.633 117.226,273.633 118.5,276.5C 115.744,282.562 114.911,288.895 116,295.5C 117.974,301.444 120.474,307.11 123.5,312.5 Z"/></g>
<g><path style="opacity:1" fill="#adb5da" d="M 463.5,316.5 C 451.231,320.652 438.897,324.652 426.5,328.5C 422.265,323.709 418.765,318.375 416,312.5C 414.993,309.425 414.493,306.258 414.5,303C 416.853,289.458 421.853,276.958 429.5,265.5C 446.064,278.946 457.397,295.946 463.5,316.5 Z"/></g>
<g><path style="opacity:1" fill="#3b574c" d="M 473.5,266.5 C 476.514,268.595 479.847,270.095 483.5,271C 489.261,276.237 491.095,282.737 489,290.5C 487.982,296.556 485.982,302.223 483,307.5C 476.577,294.976 469.41,282.976 461.5,271.5C 465.739,270.204 469.739,268.538 473.5,266.5 Z"/></g>
<g><path style="opacity:1" fill="#2a2b3e" d="M 368.5,294.5 C 364.783,297.543 360.783,300.209 356.5,302.5C 355.558,302.392 354.725,302.059 354,301.5C 353.505,299.527 353.338,297.527 353.5,295.5C 357.777,292.115 362.277,289.115 367,286.5C 368.107,286.585 369.107,286.919 370,287.5C 370.833,290.171 370.333,292.504 368.5,294.5 Z"/></g>
<g><path style="opacity:1" fill="#696f94" d="M 227.5,290.5 C 224.833,299.501 222.166,308.501 219.5,317.5C 216.5,325.5 213.5,333.5 210.5,341.5C 210.631,340.761 210.464,340.094 210,339.5C 206.639,342.575 203.139,344.575 199.5,345.5C 206.306,328.414 213.306,311.414 220.5,294.5C 222.143,292.027 224.31,290.027 227,288.5C 227.464,289.094 227.631,289.761 227.5,290.5 Z"/></g>
<g><path style="opacity:1" fill="#b3b9df" d="M 298.5,290.5 C 300.011,293.544 300.678,296.878 300.5,300.5C 300.66,302.199 300.494,303.866 300,305.5C 289.314,315.686 279.147,326.353 269.5,337.5C 266.725,326.51 264.058,315.51 261.5,304.5C 273.451,300.572 285.451,296.739 297.5,293C 298.252,292.329 298.586,291.496 298.5,290.5 Z"/></g>
<g><path style="opacity:1" fill="#4a675a" d="M 89.5,294.5 C 100.509,301.006 111.842,307.006 123.5,312.5C 124.289,312.783 124.956,313.283 125.5,314C 118.366,324.443 111.366,334.943 104.5,345.5C 92.8423,340.006 81.509,334.006 70.5,327.5C 72.4726,326.837 74.6392,326.504 77,326.5C 82.8273,327.42 88.6606,327.92 94.5,328C 97.3333,321.167 102.167,316.333 109,313.5C 109.628,310.419 108.461,308.419 105.5,307.5C 98.3775,309.791 92.8775,314.124 89,320.5C 83.9431,318.994 78.7765,318.327 73.5,318.5C 71.8083,308.397 75.1416,300.563 83.5,295C 85.4727,294.505 87.4727,294.338 89.5,294.5 Z"/></g>
<g><path style="opacity:1" fill="#b8c0e2" d="M 293.5,260.5 C 296.011,270.231 297.677,280.231 298.5,290.5C 298.586,291.496 298.252,292.329 297.5,293C 285.451,296.739 273.451,300.572 261.5,304.5C 261.324,301.273 260.657,298.273 259.5,295.5C 260.133,283.502 260.3,271.502 260,259.5C 258.274,258.424 256.441,258.257 254.5,259C 253.231,270.108 252.064,281.275 251,292.5C 249.178,299.14 246.678,305.473 243.5,311.5C 242.883,311.389 242.383,311.056 242,310.5C 234.722,313.537 227.222,315.87 219.5,317.5C 222.166,308.501 224.833,299.501 227.5,290.5C 232.923,275.161 237.589,259.494 241.5,243.5C 255.171,243.333 268.837,243.5 282.5,244C 283.333,244.833 284.167,245.667 285,246.5C 285.573,250.848 286.24,255.181 287,259.5C 288.898,261.684 291.064,262.017 293.5,260.5 Z"/></g>
<g><path style="opacity:1" fill="#6f8c77" d="M 123.5,287.5 C 133.5,289.833 143.5,292.167 153.5,294.5C 148.863,303.771 143.696,312.771 138,321.5C 133.601,313.037 128.934,304.704 124,296.5C 123.502,293.518 123.335,290.518 123.5,287.5 Z"/></g>
<g><path style="opacity:1" fill="#696f95" d="M 209.5,300.5 C 209.313,302.564 208.813,304.564 208,306.5C 203.667,312.167 199.333,317.833 195,323.5C 176.333,341.5 157.667,359.5 139,377.5C 132.922,384.733 127.089,392.066 121.5,399.5C 106.367,408.278 91.3666,417.945 76.5,428.5C 71.8461,426.507 67.1794,424.507 62.5,422.5C 72.8564,407.101 83.1898,391.768 93.5,376.5C 100.167,372.5 106.833,368.5 113.5,364.5C 109.842,371.816 106.175,379.15 102.5,386.5C 103.143,389.975 105.143,391.141 108.5,390C 115.401,377.689 122.401,365.522 129.5,353.5C 132.454,351.72 135.287,349.72 138,347.5C 138.399,347.728 138.565,348.062 138.5,348.5C 137.312,352.377 135.979,356.211 134.5,360C 134.767,363.164 136.433,364.164 139.5,363C 156.476,345.856 173.476,329.023 190.5,312.5C 196.974,308.761 203.307,304.761 209.5,300.5 Z"/></g>
<g><path style="opacity:1" fill="#add6f5" d="M 343.5,294.5 C 346.625,295.479 349.958,295.813 353.5,295.5C 353.338,297.527 353.505,299.527 354,301.5C 354.725,302.059 355.558,302.392 356.5,302.5C 360.783,300.209 364.783,297.543 368.5,294.5C 375.313,295.491 382.313,295.825 389.5,295.5C 384.213,303.75 378.213,311.416 371.5,318.5C 361.572,319.1 351.905,318.433 342.5,316.5C 342.441,314.278 341.275,313.278 339,313.5C 336.114,314.546 333.614,316.213 331.5,318.5C 326.305,318.821 321.305,318.487 316.5,317.5C 324.593,308.738 333.593,301.071 343.5,294.5 Z"/></g>
<g><path style="opacity:1" fill="#2b2c3f" d="M 369.5,297.5 C 373.323,297.818 375.157,299.818 375,303.5C 371.167,307.333 367.333,311.167 363.5,315C 359.513,315.339 358.013,313.506 359,309.5C 362.336,305.332 365.836,301.332 369.5,297.5 Z"/></g>
<g><path style="opacity:1" fill="#646f8e" d="M 259.5,295.5 C 260.657,298.273 261.324,301.273 261.5,304.5C 264.058,315.51 266.725,326.51 269.5,337.5C 279.147,326.353 289.314,315.686 300,305.5C 300.494,303.866 300.66,302.199 300.5,300.5C 302.67,306.889 303.503,313.556 303,320.5C 298.634,325.695 294.134,330.695 289.5,335.5C 268.537,348.171 247.703,361.837 227,376.5C 226.536,375.906 226.369,375.239 226.5,374.5C 229.483,361.714 232.983,349.047 237,336.5C 240.582,328.997 244.915,321.997 250,315.5C 249.575,326.817 249.575,338.151 250,349.5C 252,352.167 254,352.167 256,349.5C 257.436,331.521 258.602,313.521 259.5,295.5 Z"/></g>
<g><path style="opacity:1" fill="#2a2b3e" d="M 342.5,316.5 C 342.649,317.552 342.483,318.552 342,319.5C 336.6,324.9 331.267,330.233 326,335.5C 322.795,334.202 321.795,331.868 323,328.5C 325.669,325 328.502,321.667 331.5,318.5C 333.614,316.213 336.114,314.546 339,313.5C 341.275,313.278 342.441,314.278 342.5,316.5 Z"/></g>
<g><path style="opacity:1" fill="#a6aed2" d="M 463.5,316.5 C 465.965,322.697 467.965,329.031 469.5,335.5C 473.384,353.658 474.384,371.991 472.5,390.5C 467.264,381.701 461.764,373.034 456,364.5C 452.635,360.307 449.135,356.307 445.5,352.5C 439.167,344.5 432.833,336.5 426.5,328.5C 438.897,324.652 451.231,320.652 463.5,316.5 Z"/></g>
<g><path style="opacity:1" fill="#b6bee1" d="M 204.5,284.5 C 201.413,294.675 196.746,304.008 190.5,312.5C 173.476,329.023 156.476,345.856 139.5,363C 136.433,364.164 134.767,363.164 134.5,360C 135.979,356.211 137.312,352.377 138.5,348.5C 148.47,333.006 158.304,317.34 168,301.5C 170.857,297.414 174.357,294.081 178.5,291.5C 178.56,292.043 178.893,292.376 179.5,292.5C 187.799,289.676 196.132,287.01 204.5,284.5 Z"/></g>
<g><path style="opacity:1" fill="#687393" d="M 113.5,364.5 C 106.833,368.5 100.167,372.5 93.5,376.5C 105.082,358.246 117.082,340.246 129.5,322.5C 130.192,323.025 130.692,323.692 131,324.5C 131.667,327.5 131.667,330.5 131,333.5C 125.646,344.22 119.812,354.553 113.5,364.5 Z"/></g>
<g><path style="opacity:1" fill="#2a2b3f" d="M 342.5,341.5 C 339.769,344.965 336.602,347.965 333,350.5C 329.404,348.798 328.57,346.132 330.5,342.5C 335.11,336.055 340.61,330.388 347,325.5C 349.167,326.333 350.667,327.833 351.5,330C 348.275,333.717 345.275,337.55 342.5,341.5 Z"/></g>
<g><path style="opacity:1" fill="#5e6988" d="M 398.5,344.5 C 398.896,347.044 398.229,349.211 396.5,351C 386.834,357.858 376.834,364.024 366.5,369.5C 364.937,359.543 364.104,349.543 364,339.5C 375.401,326.602 386.235,313.268 396.5,299.5C 397.232,314.513 397.898,329.513 398.5,344.5 Z"/></g>
<g><path style="opacity:1" fill="#a8d1f6" d="M 342.5,316.5 C 351.905,318.433 361.572,319.1 371.5,318.5C 364.427,326.233 357.76,334.233 351.5,342.5C 348.287,342.81 345.287,342.477 342.5,341.5C 345.275,337.55 348.275,333.717 351.5,330C 350.667,327.833 349.167,326.333 347,325.5C 340.61,330.388 335.11,336.055 330.5,342.5C 318.655,342.828 306.988,342.495 295.5,341.5C 301.784,332.882 308.784,324.882 316.5,317.5C 321.305,318.487 326.305,318.821 331.5,318.5C 328.502,321.667 325.669,325 323,328.5C 321.795,331.868 322.795,334.202 326,335.5C 331.267,330.233 336.6,324.9 342,319.5C 342.483,318.552 342.649,317.552 342.5,316.5 Z"/></g>
<g><path style="opacity:1" fill="#63698e" d="M 289.5,335.5 C 274.813,354.863 262.146,375.53 251.5,397.5C 234.332,407.916 217.332,418.583 200.5,429.5C 203.285,418.263 208.452,408.263 216,399.5C 220.601,391.502 224.101,383.169 226.5,374.5C 226.369,375.239 226.536,375.906 227,376.5C 247.703,361.837 268.537,348.171 289.5,335.5 Z"/></g>
<g><path style="opacity:1" fill="#c3ecf5" d="M 177.5,380.5 C 167.319,380.827 157.319,380.494 147.5,379.5C 163.104,365.066 178.604,350.399 194,335.5C 188.627,350.444 183.127,365.444 177.5,380.5 Z"/></g>
<g><path style="opacity:1" fill="#5a6285" d="M 398.5,344.5 C 400.799,354.73 404.132,364.73 408.5,374.5C 407.438,377.378 405.438,379.378 402.5,380.5C 399.066,373.055 395.9,365.388 393,357.5C 387.915,367.902 386.248,378.902 388,390.5C 392.236,409.638 398.736,427.972 407.5,445.5C 408.298,445.043 408.631,444.376 408.5,443.5C 415.426,440.032 422.093,436.032 428.5,431.5C 429.907,435.683 430.574,440.016 430.5,444.5C 430.586,445.496 430.252,446.329 429.5,447C 418.682,453.662 408.015,460.496 397.5,467.5C 395.948,455.293 393.448,443.293 390,431.5C 385.274,420.381 380.274,409.381 375,398.5C 371.072,389.118 368.239,379.451 366.5,369.5C 376.834,364.024 386.834,357.858 396.5,351C 398.229,349.211 398.896,347.044 398.5,344.5 Z"/></g>
<g><path style="opacity:1" fill="#3a574b" d="M 70.5,327.5 C 81.509,334.006 92.8423,340.006 104.5,345.5C 90.5061,367.483 76.0061,389.149 61,410.5C 60.6667,406.833 60.3333,403.167 60,399.5C 58.1428,393.269 56.3094,387.102 54.5,381C 54.5419,379.033 55.0419,377.199 56,375.5C 58.1047,372.936 59.938,370.269 61.5,367.5C 60.4373,363.144 59.2706,358.811 58,354.5C 54.6893,341.798 58.856,332.798 70.5,327.5 Z"/></g>
<g><path style="opacity:1" fill="#a1cbf7" d="M 295.5,341.5 C 306.988,342.495 318.655,342.828 330.5,342.5C 328.57,346.132 329.404,348.798 333,350.5C 336.602,347.965 339.769,344.965 342.5,341.5C 345.287,342.477 348.287,342.81 351.5,342.5C 347.258,349.982 343.258,357.649 339.5,365.5C 325.421,365.815 311.421,365.482 297.5,364.5C 296.866,363.053 295.699,362.387 294,362.5C 291.791,362.557 290.291,363.557 289.5,365.5C 285.833,365.5 282.167,365.5 278.5,365.5C 283.186,356.789 288.853,348.789 295.5,341.5 Z"/></g>
<g><path style="opacity:1" fill="#2c2e42" d="M 304.5,346.5 C 310.501,346.741 311.834,349.241 308.5,354C 302.202,354.495 300.868,351.995 304.5,346.5 Z"/></g>
<g><path style="opacity:1" fill="#596382" d="M 481.5,327.5 C 483.346,331.868 484.513,336.535 485,341.5C 486.129,358.489 486.962,375.489 487.5,392.5C 480.534,396.81 473.867,401.477 467.5,406.5C 455.608,390.937 442.274,376.603 427.5,363.5C 433.5,359.833 439.5,356.167 445.5,352.5C 449.135,356.307 452.635,360.307 456,364.5C 461.764,373.034 467.264,381.701 472.5,390.5C 474.384,371.991 473.384,353.658 469.5,335.5C 473.852,333.327 477.852,330.66 481.5,327.5 Z"/></g>
<g><path style="opacity:1" fill="#adb4d9" d="M 243.5,311.5 C 238.259,318.304 233.759,325.637 230,333.5C 224.841,350.471 219.841,367.471 215,384.5C 208.672,395.648 202.172,406.648 195.5,417.5C 192.032,421.141 188.698,424.974 185.5,429C 182.051,428.854 180.885,427.021 182,423.5C 184.793,416.251 187.293,408.918 189.5,401.5C 197.014,381.78 204.014,361.78 210.5,341.5C 213.5,333.5 216.5,325.5 219.5,317.5C 227.222,315.87 234.722,313.537 242,310.5C 242.383,311.056 242.883,311.389 243.5,311.5 Z"/></g>
<g><path style="opacity:1" fill="#646e8d" d="M 210.5,341.5 C 204.014,361.78 197.014,381.78 189.5,401.5C 184.522,403.991 179.855,406.991 175.5,410.5C 182.342,388.296 190.342,366.63 199.5,345.5C 203.139,344.575 206.639,342.575 210,339.5C 210.464,340.094 210.631,340.761 210.5,341.5 Z"/></g>
<g><path style="opacity:1" fill="#a6add2" d="M 402.5,380.5 C 406.227,391.513 410.06,402.513 414,413.5C 414.667,417.5 414.667,421.5 414,425.5C 412.261,431.548 410.428,437.548 408.5,443.5C 408.631,444.376 408.298,445.043 407.5,445.5C 398.736,427.972 392.236,409.638 388,390.5C 386.248,378.902 387.915,367.902 393,357.5C 395.9,365.388 399.066,373.055 402.5,380.5 Z"/></g>
<g><path style="opacity:1" fill="#28293c" d="M 297.5,364.5 C 297.657,365.873 297.49,367.207 297,368.5C 291.875,375.246 287.375,382.412 283.5,390C 278.333,391.5 276.5,389.667 278,384.5C 281.662,378.018 285.495,371.685 289.5,365.5C 290.291,363.557 291.791,362.557 294,362.5C 295.699,362.387 296.866,363.053 297.5,364.5 Z"/></g>
<g><path style="opacity:1" fill="#9bc4f6" d="M 297.5,364.5 C 311.421,365.482 325.421,365.815 339.5,365.5C 335.905,374.285 332.905,383.285 330.5,392.5C 325.833,392.5 321.167,392.5 316.5,392.5C 317.966,389.064 319.3,385.564 320.5,382C 319.658,377.388 317.491,376.554 314,379.5C 311.82,383.86 309.653,388.193 307.5,392.5C 304.287,392.81 301.287,392.477 298.5,391.5C 300.586,388.361 301.753,385.028 302,381.5C 299.667,378.833 297.333,378.833 295,381.5C 292.626,384.914 290.793,388.581 289.5,392.5C 280.435,393.136 271.769,392.47 263.5,390.5C 267.76,381.634 272.76,373.3 278.5,365.5C 282.167,365.5 285.833,365.5 289.5,365.5C 285.495,371.685 281.662,378.018 278,384.5C 276.5,389.667 278.333,391.5 283.5,390C 287.375,382.412 291.875,375.246 297,368.5C 297.49,367.207 297.657,365.873 297.5,364.5 Z"/></g>
<g><path style="opacity:1" fill="#292a3e" d="M 316.5,392.5 C 314.004,397.143 312.171,402.143 311,407.5C 307.507,410.502 305.007,409.835 303.5,405.5C 304.84,401.149 306.173,396.816 307.5,392.5C 309.653,388.193 311.82,383.86 314,379.5C 317.491,376.554 319.658,377.388 320.5,382C 319.3,385.564 317.966,389.064 316.5,392.5 Z"/></g>
<g><path style="opacity:1" fill="#292a3d" d="M 298.5,391.5 C 295.01,397.78 292.176,404.446 290,411.5C 286.509,414.446 284.342,413.612 283.5,409C 284.816,403.217 286.816,397.717 289.5,392.5C 290.793,388.581 292.626,384.914 295,381.5C 297.333,378.833 299.667,378.833 302,381.5C 301.753,385.028 300.586,388.361 298.5,391.5 Z"/></g>
<g><path style="opacity:1" fill="#bbe3f6" d="M 147.5,379.5 C 157.319,380.494 167.319,380.827 177.5,380.5C 176.698,383.574 175.698,386.574 174.5,389.5C 172.114,389.741 170.114,389.075 168.5,387.5C 164.592,383.282 161.592,383.949 159.5,389.5C 152.833,389.5 146.167,389.5 139.5,389.5C 141.794,385.873 144.46,382.539 147.5,379.5 Z"/></g>
<g><path style="opacity:1" fill="#292a3d" d="M 168.5,387.5 C 166.623,392.925 164.456,398.259 162,403.5C 158.813,406.411 156.313,405.911 154.5,402C 156.075,397.77 157.742,393.603 159.5,389.5C 161.592,383.949 164.592,383.282 168.5,387.5 Z"/></g>
<g><path style="opacity:1" fill="#b7e0f7" d="M 449.5,396.5 C 442.687,397.491 435.687,397.825 428.5,397.5C 423.635,386.768 418.469,376.102 413,365.5C 411.231,361.526 409.897,357.526 409,353.5C 412.955,359.123 417.288,364.457 422,369.5C 431.672,378.005 440.838,387.005 449.5,396.5 Z"/></g>
<g><path style="opacity:1" fill="#96bff7" d="M 263.5,390.5 C 271.769,392.47 280.435,393.136 289.5,392.5C 286.816,397.717 284.816,403.217 283.5,409C 284.342,413.612 286.509,414.446 290,411.5C 292.176,404.446 295.01,397.78 298.5,391.5C 301.287,392.477 304.287,392.81 307.5,392.5C 306.173,396.816 304.84,401.149 303.5,405.5C 305.007,409.835 307.507,410.502 311,407.5C 312.171,402.143 314.004,397.143 316.5,392.5C 321.167,392.5 325.833,392.5 330.5,392.5C 328.515,400.438 326.849,408.438 325.5,416.5C 300.81,417.157 276.477,416.49 252.5,414.5C 255.656,406.192 259.323,398.192 263.5,390.5 Z"/></g>
<g><path style="opacity:1" fill="#586382" d="M 408.5,374.5 C 419.512,391.864 426.179,410.864 428.5,431.5C 422.093,436.032 415.426,440.032 408.5,443.5C 410.428,437.548 412.261,431.548 414,425.5C 414.667,421.5 414.667,417.5 414,413.5C 410.06,402.513 406.227,391.513 402.5,380.5C 405.438,379.378 407.438,377.378 408.5,374.5 Z"/></g>
<g><path style="opacity:1" fill="#5c6384" d="M 378.5,424.5 C 362.662,434.585 346.995,444.918 331.5,455.5C 329.452,418.032 337.618,383.032 356,350.5C 358.556,376.738 366.056,401.404 378.5,424.5 Z"/></g>
<g><path style="opacity:1" fill="#afd8f5" d="M 168.5,387.5 C 170.114,389.075 172.114,389.741 174.5,389.5C 171.967,396.433 169.633,403.433 167.5,410.5C 153.735,409.85 140.068,409.183 126.5,408.5C 129.669,401.338 134.002,395.005 139.5,389.5C 146.167,389.5 152.833,389.5 159.5,389.5C 157.742,393.603 156.075,397.77 154.5,402C 156.313,405.911 158.813,406.411 162,403.5C 164.456,398.259 166.623,392.925 168.5,387.5 Z"/></g>
<g><path style="opacity:1" fill="#2a2c3f" d="M 145.5,391.5 C 147.199,391.34 148.866,391.506 150.5,392C 151.081,392.893 151.415,393.893 151.5,395C 150.146,398.877 148.646,402.71 147,406.5C 143.507,409.502 141.007,408.835 139.5,404.5C 141.238,400.026 143.238,395.692 145.5,391.5 Z"/></g>
<g><path style="opacity:1" fill="#545b7c" d="M 487.5,392.5 C 489.136,410.472 489.969,428.472 490,446.5C 483.769,432.362 476.269,419.028 467.5,406.5C 473.867,401.477 480.534,396.81 487.5,392.5 Z"/></g>
<g><path style="opacity:1" fill="#aad4f8" d="M 449.5,396.5 C 454.186,401.858 458.519,407.525 462.5,413.5C 453.225,415.473 443.558,416.14 433.5,415.5C 432.088,409.444 430.421,403.444 428.5,397.5C 435.687,397.825 442.687,397.491 449.5,396.5 Z"/></g>
<g><path style="opacity:1" fill="#a9d2f8" d="M 126.5,408.5 C 140.068,409.183 153.735,409.85 167.5,410.5C 166.195,413.053 165.195,415.72 164.5,418.5C 149.99,418.829 135.657,418.496 121.5,417.5C 122.41,414.008 124.076,411.008 126.5,408.5 Z"/></g>
<g><path style="opacity:1" fill="#9fc6f4" d="M 462.5,413.5 C 467.622,420.307 471.956,427.64 475.5,435.5C 473.052,436.473 470.385,436.806 467.5,436.5C 465.599,431.529 463.265,426.695 460.5,422C 457.447,420.928 455.447,421.928 454.5,425C 455.803,427.744 456.803,430.577 457.5,433.5C 457.5,434.5 457.5,435.5 457.5,436.5C 455.5,436.5 453.5,436.5 451.5,436.5C 450.401,431.173 449.234,425.84 448,420.5C 446.741,416.777 444.408,415.777 441,417.5C 440.833,418.833 440.667,420.167 440.5,421.5C 441.972,426.392 442.972,431.392 443.5,436.5C 441.5,436.5 439.5,436.5 437.5,436.5C 436.351,429.456 435.018,422.456 433.5,415.5C 443.558,416.14 453.225,415.473 462.5,413.5 Z"/></g>
<g><path style="opacity:1" fill="#292a3e" d="M 451.5,436.5 C 451.689,442.148 449.522,443.482 445,440.5C 444.79,438.942 444.29,437.609 443.5,436.5C 442.972,431.392 441.972,426.392 440.5,421.5C 440.667,420.167 440.833,418.833 441,417.5C 444.408,415.777 446.741,416.777 448,420.5C 449.234,425.84 450.401,431.173 451.5,436.5 Z"/></g>
<g><path style="opacity:1" fill="#656e8d" d="M 121.5,399.5 C 114.171,411.301 108.671,423.968 105,437.5C 104.077,441.79 103.577,446.123 103.5,450.5C 99.1083,450.243 94.775,449.576 90.5,448.5C 89.1939,444.554 87.3606,440.888 85,437.5C 81.9621,434.631 79.1288,431.631 76.5,428.5C 91.3666,417.945 106.367,408.278 121.5,399.5 Z"/></g>
<g><path style="opacity:1" fill="#282a3d" d="M 467.5,436.5 C 468.329,441.501 466.329,443.668 461.5,443C 460.083,439.778 458.749,436.612 457.5,433.5C 456.803,430.577 455.803,427.744 454.5,425C 455.447,421.928 457.447,420.928 460.5,422C 463.265,426.695 465.599,431.529 467.5,436.5 Z"/></g>
<g><path style="opacity:1" fill="#a0c9f7" d="M 121.5,417.5 C 135.657,418.496 149.99,418.829 164.5,418.5C 162.537,425.392 160.204,432.059 157.5,438.5C 155.167,438.5 152.833,438.5 150.5,438.5C 151.675,435.183 152.508,431.85 153,428.5C 150.984,426.392 148.817,426.058 146.5,427.5C 143.167,427.5 139.833,427.5 136.5,427.5C 134.856,427.286 133.356,427.62 132,428.5C 130.336,431.327 129.17,434.327 128.5,437.5C 123.93,438.441 119.263,438.774 114.5,438.5C 114.5,437.5 114.5,436.5 114.5,435.5C 115.759,428.997 118.093,422.997 121.5,417.5 Z"/></g>
<g><path style="opacity:1" fill="#566382" d="M 378.5,424.5 C 383.256,434.576 386.256,445.243 387.5,456.5C 387.719,457.675 387.386,458.675 386.5,459.5C 369.248,470.709 352.081,482.042 335,493.5C 334.617,492.944 334.117,492.611 333.5,492.5C 331.958,480.241 331.291,467.908 331.5,455.5C 346.995,444.918 362.662,434.585 378.5,424.5 Z"/></g>
<g><path style="opacity:1" fill="#90baf9" d="M 252.5,414.5 C 276.477,416.49 300.81,417.157 325.5,416.5C 324.767,424.16 324.101,431.827 323.5,439.5C 318.167,439.5 312.833,439.5 307.5,439.5C 305.833,438.167 304.167,438.167 302.5,439.5C 292.652,439.827 282.986,439.494 273.5,438.5C 274.167,436.181 274.334,433.847 274,431.5C 271.88,428.92 269.713,428.92 267.5,431.5C 266.531,434.769 265.198,437.769 263.5,440.5C 256.935,440.149 250.601,439.149 244.5,437.5C 246.398,429.47 249.064,421.803 252.5,414.5 Z"/></g>
<g><path style="opacity:1" fill="#2a2b3f" d="M 150.5,438.5 C 148.943,441.624 147.277,444.791 145.5,448C 141,448.833 139.167,447 140,442.5C 142.076,437.43 144.243,432.43 146.5,427.5C 148.817,426.058 150.984,426.392 153,428.5C 152.508,431.85 151.675,435.183 150.5,438.5 Z"/></g>
<g><path style="opacity:1" fill="#29293d" d="M 136.5,427.5 C 137.582,428.594 138.248,429.927 138.5,431.5C 137.433,434.534 136.266,437.534 135,440.5C 131.164,443.493 128.997,442.493 128.5,437.5C 129.17,434.327 130.336,431.327 132,428.5C 133.356,427.62 134.856,427.286 136.5,427.5 Z"/></g>
<g><path style="opacity:1" fill="#28293d" d="M 273.5,438.5 C 269.914,447.152 267.081,456.152 265,465.5C 260.978,467.324 258.812,465.991 258.5,461.5C 260.015,454.44 261.682,447.44 263.5,440.5C 265.198,437.769 266.531,434.769 267.5,431.5C 269.713,428.92 271.88,428.92 274,431.5C 274.334,433.847 274.167,436.181 273.5,438.5 Z"/></g>
<g><path style="opacity:1" fill="#5f6988" d="M 251.5,397.5 C 241.703,417.89 234.703,439.224 230.5,461.5C 216.567,470.251 202.734,479.251 189,488.5C 188.51,487.207 188.343,485.873 188.5,484.5C 191.762,465.898 195.762,447.565 200.5,429.5C 217.332,418.583 234.332,407.916 251.5,397.5 Z"/></g>
<g><path style="opacity:1" fill="#626989" d="M 189.5,401.5 C 187.293,408.918 184.793,416.251 182,423.5C 180.885,427.021 182.051,428.854 185.5,429C 188.698,424.974 192.032,421.141 195.5,417.5C 188.758,444.262 182.758,471.262 177.5,498.5C 165.659,497.511 157.659,491.344 153.5,480C 160.341,456.647 167.674,433.48 175.5,410.5C 179.855,406.991 184.522,403.991 189.5,401.5 Z"/></g>
<g><path style="opacity:1" fill="#26273a" d="M 307.5,439.5 C 308.043,440.742 308.377,442.075 308.5,443.5C 306.491,454.745 305.325,466.078 305,477.5C 303,480.167 301,480.167 299,477.5C 297.867,464.546 299.033,451.88 302.5,439.5C 304.167,438.167 305.833,438.167 307.5,439.5 Z"/></g>
<g><path style="opacity:1" fill="#555c7c" d="M 430.5,444.5 C 433.025,462.261 434.358,480.261 434.5,498.5C 423.167,498.5 411.833,498.5 400.5,498.5C 399.56,488.161 398.56,477.828 397.5,467.5C 408.015,460.496 418.682,453.662 429.5,447C 430.252,446.329 430.586,445.496 430.5,444.5 Z"/></g>
<g><path style="opacity:1" fill="#93bbf7" d="M 136.5,427.5 C 139.833,427.5 143.167,427.5 146.5,427.5C 144.243,432.43 142.076,437.43 140,442.5C 139.167,447 141,448.833 145.5,448C 147.277,444.791 148.943,441.624 150.5,438.5C 152.833,438.5 155.167,438.5 157.5,438.5C 156.236,444.624 154.569,450.624 152.5,456.5C 139.5,456.5 126.5,456.5 113.5,456.5C 111.078,455.308 110.078,453.308 110.5,450.5C 111.078,445.181 112.411,440.181 114.5,435.5C 114.5,436.5 114.5,437.5 114.5,438.5C 119.263,438.774 123.93,438.441 128.5,437.5C 128.997,442.493 131.164,443.493 135,440.5C 136.266,437.534 137.433,434.534 138.5,431.5C 138.248,429.927 137.582,428.594 136.5,427.5 Z"/></g>
<g><path style="opacity:1" fill="#91baf7" d="M 457.5,433.5 C 458.749,436.612 460.083,439.778 461.5,443C 466.329,443.668 468.329,441.501 467.5,436.5C 470.385,436.806 473.052,436.473 475.5,435.5C 479.288,441.412 482.288,447.745 484.5,454.5C 469.676,455.496 454.676,455.829 439.5,455.5C 439.208,449.123 438.541,442.79 437.5,436.5C 439.5,436.5 441.5,436.5 443.5,436.5C 444.29,437.609 444.79,438.942 445,440.5C 449.522,443.482 451.689,442.148 451.5,436.5C 453.5,436.5 455.5,436.5 457.5,436.5C 457.5,435.5 457.5,434.5 457.5,433.5 Z"/></g>
<g><path style="opacity:1" fill="#83a28a" d="M 147.5,486.5 C 146.903,487.139 146.07,487.472 145,487.5C 103.24,479.05 61.7401,470.05 20.5,460.5C 24.2201,456.456 28.5534,453.123 33.5,450.5C 36.063,435.737 44.7297,428.904 59.5,430C 73.5483,433.382 82.215,442.048 85.5,456C 93.7993,455.77 101.466,457.77 108.5,462C 112.842,465.851 115.176,470.685 115.5,476.5C 122.476,477.331 129.476,477.831 136.5,478C 141.726,478.933 145.393,481.766 147.5,486.5 Z"/></g>
<g><path style="opacity:1" fill="#84abf0" d="M 484.5,454.5 C 487.733,460.852 490.4,467.518 492.5,474.5C 489.985,474.769 487.985,475.769 486.5,477.5C 485.493,474.678 484.66,471.678 484,468.5C 482.267,466.398 480.267,466.065 478,467.5C 477.503,470.146 477.336,472.813 477.5,475.5C 475.5,475.5 473.5,475.5 471.5,475.5C 470.85,469.818 470.016,464.151 469,458.5C 465.146,455.513 462.979,456.513 462.5,461.5C 463.231,466.141 463.564,470.807 463.5,475.5C 461.833,475.5 460.167,475.5 458.5,475.5C 458.737,476.791 458.404,477.791 457.5,478.5C 457.757,472.102 457.257,465.769 456,459.5C 452.813,456.589 450.313,457.089 448.5,461C 450.096,466.722 450.763,472.555 450.5,478.5C 449.596,477.791 449.263,476.791 449.5,475.5C 446.833,475.5 444.167,475.5 441.5,475.5C 440.783,468.843 440.116,462.177 439.5,455.5C 454.676,455.829 469.676,455.496 484.5,454.5 Z"/></g>
<g><path style="opacity:1" fill="#27283c" d="M 471.5,475.5 C 471.665,478.85 471.498,482.183 471,485.5C 468.667,488.167 466.333,488.167 464,485.5C 463.502,482.183 463.335,478.85 463.5,475.5C 463.564,470.807 463.231,466.141 462.5,461.5C 462.979,456.513 465.146,455.513 469,458.5C 470.016,464.151 470.85,469.818 471.5,475.5 Z"/></g>
<g><path style="opacity:1" fill="#26263a" d="M 457.5,478.5 C 455.258,482.457 452.925,482.457 450.5,478.5C 450.763,472.555 450.096,466.722 448.5,461C 450.313,457.089 452.813,456.589 456,459.5C 457.257,465.769 457.757,472.102 457.5,478.5 Z"/></g>
<g><path style="opacity:1" fill="#565c80" d="M 387.5,456.5 C 389.975,470.262 391.641,484.262 392.5,498.5C 372.833,498.5 353.167,498.5 333.5,498.5C 333.5,496.5 333.5,494.5 333.5,492.5C 334.117,492.611 334.617,492.944 335,493.5C 352.081,482.042 369.248,470.709 386.5,459.5C 387.386,458.675 387.719,457.675 387.5,456.5 Z"/></g>
<g><path style="opacity:1" fill="#89b1f7" d="M 113.5,456.5 C 126.5,456.5 139.5,456.5 152.5,456.5C 150.972,462.584 149.139,468.584 147,474.5C 144.696,472.932 142.196,471.765 139.5,471C 133.514,470.091 127.514,469.257 121.5,468.5C 119.815,463.783 117.148,459.783 113.5,456.5 Z"/></g>
<g><path style="opacity:1" fill="#7c9b88" d="M 20.5,460.5 C 61.7401,470.05 103.24,479.05 145,487.5C 146.07,487.472 146.903,487.139 147.5,486.5C 149.745,489.32 151.745,492.32 153.5,495.5C 107.581,485.583 61.5811,475.916 15.5,466.5C 17.177,464.46 18.8437,462.46 20.5,460.5 Z"/></g>
<g><path style="opacity:1" fill="#5c6388" d="M 230.5,461.5 C 228.138,473.701 227.138,486.034 227.5,498.5C 213.5,498.5 199.5,498.5 185.5,498.5C 186.133,493.64 187.133,488.973 188.5,484.5C 188.343,485.873 188.51,487.207 189,488.5C 202.734,479.251 216.567,470.251 230.5,461.5 Z"/></g>
<g><path style="opacity:1" fill="#282a3f" d="M 486.5,477.5 C 487.19,481.49 487.357,485.49 487,489.5C 484.667,492.167 482.333,492.167 480,489.5C 479.782,484.678 478.949,480.012 477.5,475.5C 477.336,472.813 477.503,470.146 478,467.5C 480.267,466.065 482.267,466.398 484,468.5C 484.66,471.678 485.493,474.678 486.5,477.5 Z"/></g>
<g><path style="opacity:1" fill="#85aef6" d="M 244.5,437.5 C 250.601,439.149 256.935,440.149 263.5,440.5C 261.682,447.44 260.015,454.44 258.5,461.5C 258.812,465.991 260.978,467.324 265,465.5C 267.081,456.152 269.914,447.152 273.5,438.5C 282.986,439.494 292.652,439.827 302.5,439.5C 299.033,451.88 297.867,464.546 299,477.5C 301,480.167 303,480.167 305,477.5C 305.325,466.078 306.491,454.745 308.5,443.5C 308.377,442.075 308.043,440.742 307.5,439.5C 312.833,439.5 318.167,439.5 323.5,439.5C 323.265,456.545 323.931,473.545 325.5,490.5C 295.5,490.5 265.5,490.5 235.5,490.5C 235.387,472.175 238.387,454.508 244.5,437.5 Z"/></g>
<g><path style="opacity:1" fill="#292a3e" d="M 283.5,440.5 C 286.352,440.352 288.019,441.686 288.5,444.5C 284.493,456.545 281.993,468.878 281,481.5C 279.012,484.838 276.679,485.172 274,482.5C 273.333,478.833 273.333,475.167 274,471.5C 275.665,464.174 277.331,456.841 279,449.5C 279.663,445.965 281.163,442.965 283.5,440.5 Z"/></g>
<g><path style="opacity:1" fill="#799780" d="M 15.5,466.5 C 61.5811,475.916 107.581,485.583 153.5,495.5C 154.627,496.122 155.627,496.955 156.5,498C 112.167,498.667 67.8333,498.667 23.5,498C 17.1622,495.312 13.3289,490.478 12,483.5C 11.3139,477.43 12.4806,471.763 15.5,466.5 Z"/></g>
<g><path style="opacity:1" fill="#78a2f7" d="M 492.5,474.5 C 494.98,480.943 496.646,487.61 497.5,494.5C 479.167,494.5 460.833,494.5 442.5,494.5C 442.1,488.171 441.767,481.838 441.5,475.5C 444.167,475.5 446.833,475.5 449.5,475.5C 449.263,476.791 449.596,477.791 450.5,478.5C 452.925,482.457 455.258,482.457 457.5,478.5C 458.404,477.791 458.737,476.791 458.5,475.5C 460.167,475.5 461.833,475.5 463.5,475.5C 463.335,478.85 463.502,482.183 464,485.5C 466.333,488.167 468.667,488.167 471,485.5C 471.498,482.183 471.665,478.85 471.5,475.5C 473.5,475.5 475.5,475.5 477.5,475.5C 478.949,480.012 479.782,484.678 480,489.5C 482.333,492.167 484.667,492.167 487,489.5C 487.357,485.49 487.19,481.49 486.5,477.5C 487.985,475.769 489.985,474.769 492.5,474.5 Z"/></g>
<g><path style="opacity:1" fill="#7ea7f9" d="M 235.5,490.5 C 265.5,490.5 295.5,490.5 325.5,490.5C 325.833,493.167 326.167,495.833 326.5,498.5C 296.167,498.5 265.833,498.5 235.5,498.5C 235.5,495.833 235.5,493.167 235.5,490.5 Z"/></g>
<g><path style="opacity:1" fill="#759bf8" d="M 442.5,494.5 C 460.833,494.5 479.167,494.5 497.5,494.5C 498.434,495.568 498.768,496.901 498.5,498.5C 479.833,498.5 461.167,498.5 442.5,498.5C 442.5,497.167 442.5,495.833 442.5,494.5 Z"/></g>
</svg>
