<?xml version="1.0" encoding="UTF-8"?>
<!DOCTYPE svg PUBLIC "-//W3C//DTD SVG 1.1//EN" "http://www.w3.org/Graphics/SVG/1.1/DTD/svg11.dtd">
<svg xmlns="http://www.w3.org/2000/svg" version="1.1" width="512px" height="512px" style="shape-rendering:geometricPrecision; text-rendering:geometricPrecision; image-rendering:optimizeQuality; fill-rule:evenodd; clip-rule:evenodd" xmlns:xlink="http://www.w3.org/1999/xlink">
<g><path style="opacity:1" fill="#272638" d="M 132.5,498.5 C 134.159,477.11 131.159,456.444 123.5,436.5C 120.274,427.98 118.607,419.146 118.5,410C 122.502,383.268 123.336,356.434 121,329.5C 116.168,334.163 113.168,339.83 112,346.5C 110.865,358.134 110.199,369.801 110,381.5C 106.886,394.676 105.886,408.009 107,421.5C 108.368,427.107 110.201,432.441 112.5,437.5C 116.965,457.573 118.631,477.906 117.5,498.5C 114.482,498.665 111.482,498.498 108.5,498C 109.74,483.18 109.24,468.346 107,453.5C 103.996,441.158 100.996,428.825 98,416.5C 97.3333,412.833 97.3333,409.167 98,405.5C 99.3333,397.5 100.667,389.5 102,381.5C 102.667,374.167 102.667,366.833 102,359.5C 95.5389,354.045 90.2055,347.712 86,340.5C 85.0071,336.558 84.3404,332.558 84,328.5C 80.7928,326.295 78.7928,323.295 78,319.5C 77.6667,315.167 77.3333,310.833 77,306.5C 72.0627,298.961 73.2294,292.461 80.5,287C 78.4569,283.747 76.2902,280.58 74,277.5C 64.9645,268.796 55.6311,260.462 46,252.5C 36.4107,237.556 33.0774,221.222 36,203.5C 44.1275,202.712 51.1275,205.379 57,211.5C 58,213.167 59,214.833 60,216.5C 61,221.833 62,227.167 63,232.5C 64.4213,235.009 66.0879,237.343 68,239.5C 67.1329,229.487 67.4662,219.487 69,209.5C 70.9201,199.073 73.2535,188.74 76,178.5C 79.8383,159.012 74.3383,142.846 59.5,130C 54.2114,126.38 49.2114,122.38 44.5,118C 17.5957,111.924 2.92901,95.0903 0.5,67.5C 0.32621,65.3066 0.992877,63.4733 2.5,62C 23.6511,60.6583 38.1511,69.825 46,89.5C 48.4636,96.6516 49.9636,103.985 50.5,111.5C 53.5202,114.355 56.6868,117.021 60,119.5C 44.9402,80.8115 50.4402,45.3115 76.5,13C 78.5,12.3333 80.5,12.3333 82.5,13C 86.7147,21.0957 90.3814,29.429 93.5,38C 89.2967,45.5747 85.4633,53.408 82,61.5C 79.6553,69.6888 78.9887,78.0221 80,86.5C 85.4002,103.7 91.4002,120.7 98,137.5C 100.089,145.034 101.422,152.7 102,160.5C 103.574,159.016 104.907,157.349 106,155.5C 104.929,125.451 118.429,105.284 146.5,95C 148.769,94.2419 150.936,94.4086 153,95.5C 157.218,116.141 152.051,133.974 137.5,149C 130.767,154.532 123.101,158.199 114.5,160C 108.949,165.6 104.782,172.1 102,179.5C 92.1389,209.527 93.8056,238.86 107,267.5C 107.561,268.022 108.228,268.355 109,268.5C 114.16,265.501 119.66,263.501 125.5,262.5C 130.683,262.672 134.516,265.006 137,269.5C 140.335,278.006 143.169,286.673 145.5,295.5C 145.594,297.912 144.594,299.745 142.5,301C 139.562,303.257 136.229,304.424 132.5,304.5C 133.381,311.526 132.047,318.026 128.5,324C 129.161,326.464 129.661,328.964 130,331.5C 137,338.833 144,346.167 151,353.5C 152.714,340.742 157.214,329.075 164.5,318.5C 160.276,301.055 160.776,283.722 166,266.5C 172.904,247.631 186.404,237.964 206.5,237.5C 215.986,239.298 225.319,238.798 234.5,236C 239.626,232.525 242.792,227.691 244,221.5C 244.998,217.527 245.331,213.527 245,209.5C 214.657,202.811 202.324,184.144 208,153.5C 209.194,152.57 210.527,151.903 212,151.5C 214.581,152.417 216.914,153.751 219,155.5C 220.959,149.583 223.959,144.25 228,139.5C 228.333,135.167 228.667,130.833 229,126.5C 229.765,123.804 230.932,121.304 232.5,119C 230.781,109.831 226.781,101.831 220.5,95C 213.705,88.9531 207.205,89.1198 201,95.5C 198.922,103.849 200.922,111.182 207,117.5C 208.471,122.033 206.804,124.367 202,124.5C 183.899,121.398 173.565,110.731 171,92.5C 171.426,63.9042 185.926,48.2375 214.5,45.5C 245.19,48.8486 264.523,65.5152 272.5,95.5C 276.182,95.6653 279.848,95.4986 283.5,95C 288.858,77.3112 299.191,63.3112 314.5,53C 337.536,40.7053 358.369,43.5386 377,61.5C 385.012,72.2232 387.679,84.2232 385,97.5C 380.938,113.396 370.771,122.396 354.5,124.5C 349.987,124.105 348.487,121.771 350,117.5C 353.979,112.706 356.479,107.206 357.5,101C 353.418,89.5737 346.418,87.5737 336.5,95C 321.764,111.365 320.598,128.198 333,145.5C 333.988,148.424 334.654,151.424 335,154.5C 337.729,151.136 340.729,150.803 344,153.5C 349.996,182.994 338.496,201.661 309.5,209.5C 308.435,219.396 311.435,227.896 318.5,235C 320.957,236.562 323.624,237.562 326.5,238C 370.424,231.59 392.424,250.59 392.5,295C 392.512,302.561 391.845,310.061 390.5,317.5C 393.579,324 396.413,330.667 399,337.5C 400.645,343.392 401.645,349.392 402,355.5C 413.054,343.113 424.721,331.446 437,320.5C 438.753,316.781 438.753,313.114 437,309.5C 433,306.167 429,302.833 425,299.5C 420.761,288.442 422.595,278.442 430.5,269.5C 432.853,268.435 435.186,268.602 437.5,270C 443.206,274.761 446.04,280.928 446,288.5C 454.09,291.226 461.923,290.392 469.5,286C 472.202,283.597 473.869,280.597 474.5,277C 473,273.167 471.5,269.333 470,265.5C 469.333,261.5 469.333,257.5 470,253.5C 472.002,248.01 475.502,244.01 480.5,241.5C 482.029,241.529 483.196,242.196 484,243.5C 489,253.5 494,263.5 499,273.5C 499.667,275.833 499.667,278.167 499,280.5C 493.865,295.304 485.198,307.637 473,317.5C 466.111,333.946 459.778,350.613 454,367.5C 445.96,387.26 435.627,405.593 423,422.5C 406.725,444.377 389.725,445.043 372,424.5C 367.683,415.197 362.349,406.53 356,398.5C 351.76,390.788 348.093,382.788 345,374.5C 343.437,381.48 341.937,388.48 340.5,395.5C 341.794,404.884 344.96,413.551 350,421.5C 352.675,431.069 351.342,440.069 346,448.5C 327.78,471.562 304.947,488.229 277.5,498.5C 275.181,497.936 272.847,497.436 270.5,497C 248.647,484.483 229.147,468.983 212,450.5C 208.828,446.159 206.161,441.492 204,436.5C 202.675,432.572 202.342,428.572 203,424.5C 204.894,419.608 207.228,414.941 210,410.5C 211.955,405.679 213.122,400.679 213.5,395.5C 212.442,388.153 211.276,380.82 210,373.5C 205.058,387.39 198.058,400.057 189,411.5C 184.628,424.537 176.128,433.704 163.5,439C 154.061,440.519 145.894,438.019 139,431.5C 135.089,426.678 131.422,421.678 128,416.5C 127.333,418.5 127.333,420.5 128,422.5C 135.828,443.478 140.328,465.145 141.5,487.5C 141.221,491.18 140.888,494.847 140.5,498.5C 137.833,498.5 135.167,498.5 132.5,498.5 Z"/></g>
<g><path style="opacity:1" fill="#a2486b" d="M 93.5,171.5 C 90.9455,172.388 88.2788,172.721 85.5,172.5C 85.8168,168.298 85.4834,164.298 84.5,160.5C 83.9509,153.635 82.4509,146.969 80,140.5C 73.7821,127.398 68.1155,114.065 63,100.5C 55.4896,72.547 60.6563,47.2137 78.5,24.5C 81.2677,28.4656 83.2677,32.799 84.5,37.5C 70.5643,58.3416 67.731,80.6749 76,104.5C 84.2672,120.302 89.9339,136.969 93,154.5C 93.4994,160.157 93.6661,165.824 93.5,171.5 Z"/></g>
<g><path style="opacity:1" fill="#977b61" d="M 207.5,54.5 C 209.693,53.2031 212.027,53.2031 214.5,54.5C 214.376,55.1067 214.043,55.44 213.5,55.5C 211.735,54.5386 209.735,54.2053 207.5,54.5 Z"/></g>
<g><path style="opacity:1" fill="#f6bf83" d="M 207.5,54.5 C 209.735,54.2053 211.735,54.5386 213.5,55.5C 211.895,58.3777 210.561,61.3777 209.5,64.5C 203.361,65.544 197.195,66.544 191,67.5C 189.624,67.3158 188.791,66.6491 188.5,65.5C 193.427,59.5323 199.76,55.8657 207.5,54.5 Z"/></g>
<g><path style="opacity:1" fill="#f6b980" d="M 244.5,65.5 C 235.421,67.1102 226.254,68.7769 217,70.5C 216.517,69.552 216.351,68.552 216.5,67.5C 217.621,62.2466 220.455,58.2466 225,55.5C 232.614,56.8893 239.114,60.2226 244.5,65.5 Z"/></g>
<g><path style="opacity:1" fill="#f5b980" d="M 341.5,72.5 C 332.944,70.1952 324.278,68.1952 315.5,66.5C 314.287,66.2528 313.62,65.5862 313.5,64.5C 319.129,59.1846 325.796,56.3512 333.5,56C 338.178,60.5235 340.845,66.0235 341.5,72.5 Z"/></g>
<g><path style="opacity:1" fill="#f5bc82" d="M 362.5,81.5 C 358.581,78.9723 354.247,77.639 349.5,77.5C 349.785,69.022 347.451,61.3554 342.5,54.5C 352.967,53.9408 361.8,57.6075 369,65.5C 369.459,71.9692 367.292,77.3025 362.5,81.5 Z"/></g>
<g><path style="opacity:1" fill="#f6b07a" d="M 244.5,65.5 C 247.931,67.0952 250.598,69.5952 252.5,73C 245.306,75.0472 238.972,78.5472 233.5,83.5C 228.119,79.5949 222.119,77.2616 215.5,76.5C 215.19,73.2869 215.523,70.2869 216.5,67.5C 216.351,68.552 216.517,69.552 217,70.5C 226.254,68.7769 235.421,67.1102 244.5,65.5 Z"/></g>
<g><path style="opacity:1" fill="#f6b07a" d="M 313.5,64.5 C 313.62,65.5862 314.287,66.2528 315.5,66.5C 324.278,68.1952 332.944,70.1952 341.5,72.5C 341.5,74.1667 341.5,75.8333 341.5,77.5C 334.565,77.8042 328.898,80.4708 324.5,85.5C 318.903,79.5789 312.237,75.2456 304.5,72.5C 306.9,69.0969 309.9,66.4302 313.5,64.5 Z"/></g>
<g><path style="opacity:1" fill="#f7b57d" d="M 209.5,64.5 C 207.857,68.3005 207.19,72.3005 207.5,76.5C 202.622,76.7732 198.289,78.4399 194.5,81.5C 191.101,79.053 188.935,75.7197 188,71.5C 187.211,69.2884 187.378,67.2884 188.5,65.5C 188.791,66.6491 189.624,67.3158 191,67.5C 197.195,66.544 203.361,65.544 209.5,64.5 Z"/></g>
<g><path style="opacity:1" fill="#4fa991" d="M 9.5,70.5 C 27.5584,73.0585 37.7251,83.3918 40,101.5C 35.4575,96.2307 31.2908,90.7307 27.5,85C 24.6466,84.3414 22.9799,85.508 22.5,88.5C 24.8528,94.0385 27.8528,99.2052 31.5,104C 18.1672,97.1 10.8339,85.9333 9.5,70.5 Z"/></g>
<g><path style="opacity:1" fill="#dd654b" d="M 207.5,76.5 C 207.5,78.5 207.5,80.5 207.5,82.5C 205.095,82.8664 202.762,83.5331 200.5,84.5C 198.164,83.999 196.164,82.999 194.5,81.5C 198.289,78.4399 202.622,76.7732 207.5,76.5 Z"/></g>
<g><path style="opacity:1" fill="#db644b" d="M 215.5,76.5 C 222.119,77.2616 228.119,79.5949 233.5,83.5C 231.887,86.1318 230.22,88.7984 228.5,91.5C 225.278,87.9707 221.444,85.3041 217,83.5C 216.023,81.26 215.523,78.9267 215.5,76.5 Z"/></g>
<g><path style="opacity:1" fill="#db644b" d="M 341.5,77.5 C 341.643,79.2624 341.309,80.9291 340.5,82.5C 336.142,85.0134 332.142,88.0134 328.5,91.5C 327.156,89.4714 325.823,87.4714 324.5,85.5C 328.898,80.4708 334.565,77.8042 341.5,77.5 Z"/></g>
<g><path style="opacity:1" fill="#d8634b" d="M 349.5,77.5 C 354.247,77.639 358.581,78.9723 362.5,81.5C 357.738,85.4239 353.072,85.2572 348.5,81C 348.989,79.8615 349.322,78.6948 349.5,77.5 Z"/></g>
<g><path style="opacity:1" fill="#dd634a" d="M 239.5,89.5 C 247.356,91.4012 252.356,88.4012 254.5,80.5C 254.735,79.9033 255.235,79.5699 256,79.5C 261.491,84.9905 263.991,91.4905 263.5,99C 259.142,101.513 255.142,104.513 251.5,108C 247.205,108.898 243.372,110.731 240,113.5C 238.32,108.294 236.153,103.294 233.5,98.5C 235.275,95.2624 237.275,92.2624 239.5,89.5 Z"/></g>
<g><path style="opacity:1" fill="#dc634a" d="M 302.5,80.5 C 303.765,83.5248 305.432,86.3582 307.5,89C 310.688,90.3158 314.022,90.8158 317.5,90.5C 320.299,92.589 321.966,95.4223 322.5,99C 320.407,103.687 318.74,108.52 317.5,113.5C 317.167,113.833 316.833,114.167 316.5,114.5C 312.224,111.529 307.558,109.363 302.5,108C 298.921,104.41 295.255,101.077 291.5,98C 293.311,91.8765 295.811,86.0432 299,80.5C 300.145,79.3157 301.312,79.3157 302.5,80.5 Z"/></g>
<g><path style="opacity:1" fill="#f39d6d" d="M 302.5,80.5 C 307.361,81.6197 311.694,83.7864 315.5,87C 316.823,87.8159 317.489,88.9826 317.5,90.5C 314.022,90.8158 310.688,90.3158 307.5,89C 305.432,86.3582 303.765,83.5248 302.5,80.5 Z"/></g>
<g><path style="opacity:1" fill="#f19d6c" d="M 254.5,80.5 C 252.356,88.4012 247.356,91.4012 239.5,89.5C 243.374,84.7252 248.374,81.7252 254.5,80.5 Z"/></g>
<g><path style="opacity:1" fill="#f5ad77" d="M 377.5,93.5 C 373.686,92.9636 370.019,91.9636 366.5,90.5C 366.5,89.8333 366.5,89.1667 366.5,88.5C 370.455,85.2743 373.455,81.2743 375.5,76.5C 376.251,77.376 376.751,78.376 377,79.5C 377.499,84.1548 377.666,88.8215 377.5,93.5 Z"/></g>
<g><path style="opacity:1" fill="#da644b" d="M 366.5,88.5 C 366.5,89.1667 366.5,89.8333 366.5,90.5C 366.802,93.0593 366.468,95.3926 365.5,97.5C 364.914,95.1602 363.914,92.9935 362.5,91C 363.693,89.9054 365.027,89.072 366.5,88.5 Z"/></g>
<g><path style="opacity:1" fill="#d4664e" d="M 190.5,88.5 C 195.127,89.9752 195.46,92.3086 191.5,95.5C 191.5,94.8333 191.167,94.5 190.5,94.5C 190.5,92.5 190.5,90.5 190.5,88.5 Z"/></g>
<g><path style="opacity:1" fill="#f7a873" d="M 190.5,88.5 C 190.5,90.5 190.5,92.5 190.5,94.5C 186.865,95.1143 183.198,95.4476 179.5,95.5C 179.334,90.1563 179.501,84.8229 180,79.5C 180.249,78.376 180.749,77.376 181.5,76.5C 183.545,81.2743 186.545,85.2743 190.5,88.5 Z"/></g>
<g><path style="opacity:1" fill="#f59f6e" d="M 366.5,90.5 C 370.019,91.9636 373.686,92.9636 377.5,93.5C 376.289,102.589 371.622,109.256 363.5,113.5C 362.985,110.843 363.485,108.177 365,105.5C 365.497,102.854 365.664,100.187 365.5,97.5C 366.468,95.3926 366.802,93.0593 366.5,90.5 Z"/></g>
<g><path style="opacity:1" fill="#f4996a" d="M 190.5,94.5 C 191.167,94.5 191.5,94.8333 191.5,95.5C 190.919,101.657 191.919,107.49 194.5,113C 191.281,112.498 188.448,110.998 186,108.5C 182.76,104.687 180.594,100.354 179.5,95.5C 183.198,95.4476 186.865,95.1143 190.5,94.5 Z"/></g>
<g><path style="opacity:1" fill="#262638" d="M 399.5,99.5 C 400.873,99.3433 402.207,99.51 403.5,100C 407.372,106.902 411.872,113.402 417,119.5C 428.521,129.265 439.854,139.265 451,149.5C 455.438,155.375 459.105,161.708 462,168.5C 471.072,155.426 481.572,143.593 493.5,133C 496.674,129.806 500.341,128.973 504.5,130.5C 510.379,145.852 511.546,161.518 508,177.5C 504.264,187.129 498.431,195.295 490.5,202C 476.494,211.331 463.661,222.164 452,234.5C 448.91,240.348 446.077,246.348 443.5,252.5C 439.642,255.101 436.976,254.101 435.5,249.5C 442.409,237.921 443.243,225.921 438,213.5C 434.244,204.98 429.244,197.313 423,190.5C 415.333,183.5 407.667,176.5 400,169.5C 388.897,152.04 386.564,133.373 393,113.5C 394.377,108.416 396.543,103.749 399.5,99.5 Z"/></g>
<g><path style="opacity:1" fill="#4ba894" d="M 143.5,104.5 C 144.5,104.5 145.5,104.5 146.5,104.5C 146.956,120.648 141.289,134.148 129.5,145C 126.922,146.665 124.255,147.665 121.5,148C 125.667,142.5 129.833,137 134,131.5C 135.373,129.305 135.706,126.971 135,124.5C 133.612,123.446 132.112,123.28 130.5,124C 124.949,130.55 119.783,137.383 115,144.5C 115.462,131.741 120.629,121.241 130.5,113C 134.739,109.91 139.072,107.077 143.5,104.5 Z"/></g>
<g><path style="opacity:1" fill="#894a57" d="M 311.5,120.5 C 288.673,121.498 265.673,121.831 242.5,121.5C 245.823,118.317 249.823,116.15 254.5,115C 269.5,99.6667 284.5,99.6667 299.5,115C 303.905,116.037 307.905,117.871 311.5,120.5 Z"/></g>
<g><path style="opacity:1" fill="#55ab8c" d="M 434.5,145.5 C 422.647,146.759 410.647,146.759 398.5,145.5C 396.464,134.52 397.63,123.853 402,113.5C 411.401,125.735 422.234,136.401 434.5,145.5 Z"/></g>
<g><path style="opacity:1" fill="#7e4252" d="M 311.5,120.5 C 313.86,122.713 315.694,125.379 317,128.5C 317.176,132.688 317.676,136.688 318.5,140.5C 306.345,141.495 294.011,141.829 281.5,141.5C 279.958,140.699 278.292,140.366 276.5,140.5C 263.421,140.814 250.421,140.48 237.5,139.5C 234.997,132.221 236.664,126.221 242.5,121.5C 265.673,121.831 288.673,121.498 311.5,120.5 Z"/></g>
<g><path style="opacity:1" fill="#703a49" d="M 237.5,139.5 C 250.421,140.48 263.421,140.814 276.5,140.5C 272.083,148.207 265.417,151.374 256.5,150C 253.71,149.439 251.377,148.106 249.5,146C 244.333,144.5 242.5,146.333 244,151.5C 245.167,152.667 246.333,153.833 247.5,155C 242.874,161.085 240.041,167.919 239,175.5C 235.702,171.2 232.035,167.2 228,163.5C 227.178,154.951 230.178,147.951 237,142.5C 237.483,141.552 237.649,140.552 237.5,139.5 Z"/></g>
<g><path style="opacity:1" fill="#703a49" d="M 318.5,140.5 C 325.413,145.77 327.913,152.77 326,161.5C 321.325,165.009 317.159,169.009 313.5,173.5C 312.772,170.788 311.939,168.121 311,165.5C 307.428,163.931 304.428,161.598 302,158.5C 301.333,156.833 301.333,155.167 302,153.5C 305.069,151.487 306.735,148.82 307,145.5C 306.196,144.196 305.029,143.529 303.5,143.5C 300.626,145.197 297.626,146.697 294.5,148C 288.495,149.159 284.162,146.992 281.5,141.5C 294.011,141.829 306.345,141.495 318.5,140.5 Z"/></g>
<g><path style="opacity:1" fill="#50ab93" d="M 398.5,145.5 C 410.647,146.759 422.647,146.759 434.5,145.5C 453.019,159.889 459.519,178.555 454,201.5C 452.434,191.372 448.434,182.372 442,174.5C 434.461,166.63 427.294,158.463 420.5,150C 417.186,148.835 415.186,150.002 414.5,153.5C 422.433,164.27 430.933,174.603 440,184.5C 445.004,192.846 447.004,201.846 446,211.5C 442.688,203.54 438.355,196.206 433,189.5C 423.97,180.136 414.637,171.136 405,162.5C 401.744,157.228 399.577,151.562 398.5,145.5 Z"/></g>
<g><path style="opacity:1" fill="#4ea993" d="M 497.5,140.5 C 506.116,160.279 502.783,178.113 487.5,194C 478.309,201.358 468.976,208.525 459.5,215.5C 459.636,211.586 460.469,207.586 462,203.5C 476.675,194.306 487.509,181.806 494.5,166C 493.557,163.019 491.557,162.019 488.5,163C 482.159,174.342 473.992,184.175 464,192.5C 462.594,185.896 463.928,179.896 468,174.5C 476.208,161.746 486.041,150.413 497.5,140.5 Z"/></g>
<g><path style="opacity:1" fill="#efa4a1" d="M 299.5,167.5 C 282.833,167.5 266.167,167.5 249.5,167.5C 251.937,158.244 257.937,154.744 267.5,157C 271.446,155.694 275.112,153.861 278.5,151.5C 283.011,154.671 288.011,156.671 293.5,157.5C 294.492,161.492 296.492,164.826 299.5,167.5 Z"/></g>
<g><path style="opacity:1" fill="#f1aeac" d="M 249.5,167.5 C 266.167,167.5 282.833,167.5 299.5,167.5C 300.973,168.74 302.64,169.74 304.5,170.5C 305.495,175.792 305.828,181.125 305.5,186.5C 301.833,186.5 298.167,186.5 294.5,186.5C 296.523,182.268 295.19,179.935 290.5,179.5C 285.249,179.101 282.583,181.434 282.5,186.5C 278.833,186.5 275.167,186.5 271.5,186.5C 271.785,184.712 271.452,183.045 270.5,181.5C 267.874,180.708 265.208,180.041 262.5,179.5C 259.206,180.136 257.873,182.136 258.5,185.5C 254.833,186.167 251.167,186.833 247.5,187.5C 246.352,183.019 246.185,178.352 247,173.5C 247.566,171.277 248.4,169.277 249.5,167.5 Z"/></g>
<g><path style="opacity:1" fill="#332e40" d="M 271.5,186.5 C 267.054,188.955 262.721,188.621 258.5,185.5C 257.873,182.136 259.206,180.136 262.5,179.5C 265.208,180.041 267.874,180.708 270.5,181.5C 271.452,183.045 271.785,184.712 271.5,186.5 Z"/></g>
<g><path style="opacity:1" fill="#312d3e" d="M 294.5,186.5 C 291.852,187.162 289.185,187.829 286.5,188.5C 284.927,188.248 283.594,187.582 282.5,186.5C 282.583,181.434 285.249,179.101 290.5,179.5C 295.19,179.935 296.523,182.268 294.5,186.5 Z"/></g>
<g><path style="opacity:1" fill="#f1b1af" d="M 214.5,162.5 C 227.789,171.777 236.789,184.11 241.5,199.5C 222.179,194.829 213.179,182.496 214.5,162.5 Z"/></g>
<g><path style="opacity:1" fill="#f2b1af" d="M 336.5,162.5 C 338.764,175.188 334.764,185.688 324.5,194C 320.167,197.358 315.501,199.191 310.5,199.5C 311.9,190.365 315.734,182.365 322,175.5C 326.432,170.56 331.265,166.227 336.5,162.5 Z"/></g>
<g><path style="opacity:1" fill="#f8bebc" d="M 258.5,185.5 C 262.721,188.621 267.054,188.955 271.5,186.5C 275.167,186.5 278.833,186.5 282.5,186.5C 283.594,187.582 284.927,188.248 286.5,188.5C 289.185,187.829 291.852,187.162 294.5,186.5C 298.167,186.5 301.833,186.5 305.5,186.5C 304.809,191.598 303.642,196.598 302,201.5C 301.623,202.942 300.79,203.942 299.5,204.5C 283.833,203.167 268.167,203.167 252.5,204.5C 249.039,199.481 247.372,193.815 247.5,187.5C 251.167,186.833 254.833,186.167 258.5,185.5 Z"/></g>
<g><path style="opacity:1" fill="#f5c5c3" d="M 299.5,204.5 C 293.704,212.661 285.87,217.994 276,220.5C 266.13,217.994 258.296,212.661 252.5,204.5C 268.167,203.167 283.833,203.167 299.5,204.5 Z"/></g>
<g><path style="opacity:1" fill="#d77582" d="M 303.5,226.5 C 305.231,232.301 308.231,237.301 312.5,241.5C 310.746,249.008 307.413,255.675 302.5,261.5C 294.603,263.112 287.936,266.778 282.5,272.5C 270.953,273.387 261.62,269.387 254.5,260.5C 253.833,259.167 253.167,257.833 252.5,256.5C 251.916,253.715 252.916,252.048 255.5,251.5C 266.276,262.049 278.609,264.216 292.5,258C 297.709,254.077 300.709,248.91 301.5,242.5C 302.167,237.167 302.833,231.833 303.5,226.5 Z"/></g>
<g><path style="opacity:1" fill="#f5caca" d="M 255.5,251.5 C 252.916,252.048 251.916,253.715 252.5,256.5C 229.73,254.526 206.73,253.86 183.5,254.5C 187.302,250.424 191.969,247.591 197.5,246C 205.335,245.619 213.169,245.785 221,246.5C 234.668,247.418 244.502,241.751 250.5,229.5C 254.434,233.301 259.101,235.801 264.5,237C 265.935,239.267 265.602,241.267 263.5,243C 260.242,243.212 257.076,243.712 254,244.5C 253.167,247.171 253.667,249.504 255.5,251.5 Z"/></g>
<g><path style="opacity:1" fill="#763e4c" d="M 294.5,226.5 C 293.521,229.625 293.187,232.958 293.5,236.5C 286.5,236.5 279.5,236.5 272.5,236.5C 272.16,234.321 271.16,232.488 269.5,231C 264.416,229.428 259.916,226.928 256,223.5C 254.813,221.956 254.48,220.289 255,218.5C 267.499,229.651 280.499,230.318 294,220.5C 294.495,222.473 294.662,224.473 294.5,226.5 Z"/></g>
<g><path style="opacity:1" fill="#824f5c" d="M 303.5,226.5 C 302.833,231.833 302.167,237.167 301.5,242.5C 301.334,236.158 301.5,229.825 302,223.5C 303.039,224.244 303.539,225.244 303.5,226.5 Z"/></g>
<g><path style="opacity:1" fill="#8b3658" d="M 84.5,160.5 C 85.4834,164.298 85.8168,168.298 85.5,172.5C 88.2788,172.721 90.9455,172.388 93.5,171.5C 92.2506,182.916 90.4172,194.249 88,205.5C 85.8703,229.183 90.0369,251.683 100.5,273C 97.041,275.902 93.3743,278.568 89.5,281C 88.5,281.667 87.5,281.667 86.5,281C 83.3821,276.214 79.8821,271.714 76,267.5C 67.7038,260.873 59.7038,253.873 52,246.5C 45.5585,236.067 42.8919,224.734 44,212.5C 46.6855,213.676 49.0188,215.343 51,217.5C 52.7325,223.798 54.3992,230.131 56,236.5C 62.3381,248.253 72.1714,253.586 85.5,252.5C 86.6309,250.926 86.7975,249.259 86,247.5C 83.5071,245.664 80.6738,244.664 77.5,244.5C 76.5007,232.85 76.334,221.183 77,209.5C 79.1806,199.778 81.514,190.111 84,180.5C 84.4996,173.842 84.6663,167.175 84.5,160.5 Z"/></g>
<g><path style="opacity:1" fill="#673444" d="M 294.5,226.5 C 295.292,234.515 294.125,242.181 291,249.5C 282.953,254.62 274.787,254.787 266.5,250C 272.007,247.194 274.007,242.694 272.5,236.5C 279.5,236.5 286.5,236.5 293.5,236.5C 293.187,232.958 293.521,229.625 294.5,226.5 Z"/></g>
<g><path style="opacity:1" fill="#f9cdc7" d="M 183.5,254.5 C 206.73,253.86 229.73,254.526 252.5,256.5C 253.167,257.833 253.833,259.167 254.5,260.5C 229.339,261.498 204.005,261.831 178.5,261.5C 179.433,258.63 181.1,256.296 183.5,254.5 Z"/></g>
<g><path style="opacity:1" fill="#f8ccc8" d="M 312.5,241.5 C 315.907,243.473 319.574,244.973 323.5,246C 334.164,245.922 344.831,245.922 355.5,246C 364.144,247.804 370.81,252.304 375.5,259.5C 358.532,261.486 341.199,262.153 323.5,261.5C 323.389,260.883 323.056,260.383 322.5,260C 315.706,259.128 309.04,259.628 302.5,261.5C 307.413,255.675 310.746,249.008 312.5,241.5 Z"/></g>
<g><path style="opacity:1" fill="#2c2a3c" d="M 323.5,261.5 C 323.822,263.722 323.155,265.556 321.5,267C 310.289,266.449 299.956,269.116 290.5,275C 289.29,276.039 288.29,277.206 287.5,278.5C 285.833,278.5 284.167,278.5 282.5,278.5C 281.167,276.5 281.167,274.5 282.5,272.5C 287.936,266.778 294.603,263.112 302.5,261.5C 309.04,259.628 315.706,259.128 322.5,260C 323.056,260.383 323.389,260.883 323.5,261.5 Z"/></g>
<g><path style="opacity:1" fill="#f7c6c6" d="M 254.5,260.5 C 261.62,269.387 270.953,273.387 282.5,272.5C 281.167,274.5 281.167,276.5 282.5,278.5C 279.615,278.194 276.948,278.527 274.5,279.5C 265.557,271.447 255.057,266.447 243,264.5C 239.089,266.313 238.589,268.813 241.5,272C 247.855,273.504 253.855,275.671 259.5,278.5C 230.167,278.5 200.833,278.5 171.5,278.5C 172.489,272.181 174.822,266.514 178.5,261.5C 204.005,261.831 229.339,261.498 254.5,260.5 Z"/></g>
<g><path style="opacity:1" fill="#f8c6c6" d="M 375.5,259.5 C 379.927,266.109 382.594,273.442 383.5,281.5C 382.596,280.791 382.263,279.791 382.5,278.5C 350.833,278.5 319.167,278.5 287.5,278.5C 288.29,277.206 289.29,276.039 290.5,275C 299.956,269.116 310.289,266.449 321.5,267C 323.155,265.556 323.822,263.722 323.5,261.5C 341.199,262.153 358.532,261.486 375.5,259.5 Z"/></g>
<g><path style="opacity:1" fill="#d0717e" d="M 123.5,270.5 C 126.325,270.081 128.491,271.081 130,273.5C 132,279.5 134,285.5 136,291.5C 136.563,295.502 134.73,297.169 130.5,296.5C 130.075,292.393 128.575,288.726 126,285.5C 126.13,280.613 124.964,276.113 122.5,272C 123.056,271.617 123.389,271.117 123.5,270.5 Z"/></g>
<g><path style="opacity:1" fill="#f8c7c0" d="M 171.5,278.5 C 200.833,278.5 230.167,278.5 259.5,278.5C 263.888,279.179 266.888,281.512 268.5,285.5C 246.673,286.497 224.673,286.831 202.5,286.5C 200.833,286.5 199.167,286.5 197.5,286.5C 188.5,286.5 179.5,286.5 170.5,286.5C 170.279,283.721 170.612,281.054 171.5,278.5 Z"/></g>
<g><path style="opacity:1" fill="#f9c7c0" d="M 282.5,278.5 C 284.167,278.5 285.833,278.5 287.5,278.5C 319.167,278.5 350.833,278.5 382.5,278.5C 382.263,279.791 382.596,280.791 383.5,281.5C 383.5,282.167 383.5,282.833 383.5,283.5C 383.5,284.5 383.5,285.5 383.5,286.5C 375.833,286.5 368.167,286.5 360.5,286.5C 359.167,286.5 357.833,286.5 356.5,286.5C 330.5,286.5 304.5,286.5 278.5,286.5C 277.235,284.209 275.902,281.875 274.5,279.5C 276.948,278.527 279.615,278.194 282.5,278.5 Z"/></g>
<g><path style="opacity:1" fill="#d57480" d="M 115.5,284.5 C 108.126,288.279 101.292,292.945 95,298.5C 94.6155,300.197 94.7822,301.863 95.5,303.5C 94.1667,304.5 92.8333,305.5 91.5,306.5C 86.844,309.004 86.344,312.337 90,316.5C 93.557,320.52 97.3903,321.186 101.5,318.5C 103.402,319.511 105.402,319.678 107.5,319C 111.97,313.006 117.636,308.839 124.5,306.5C 124.699,309.941 124.199,313.274 123,316.5C 112.372,325.094 105.872,336.094 103.5,349.5C 100.85,346.349 98.0162,343.349 95,340.5C 92.9869,335.388 91.9869,330.055 92,324.5C 86.1007,319.234 83.7673,312.568 85,304.5C 82.7124,301.597 82.2124,298.597 83.5,295.5C 83.7377,297.645 84.7377,299.312 86.5,300.5C 93.9896,294.586 101.99,289.419 110.5,285C 112.134,284.506 113.801,284.34 115.5,284.5 Z"/></g>
<g><path style="opacity:1" fill="#f9c0be" d="M 268.5,285.5 C 269.558,286.6 270.392,287.934 271,289.5C 271.5,295.825 271.666,302.158 271.5,308.5C 250.167,308.5 228.833,308.5 207.5,308.5C 204.883,301.368 203.217,294.035 202.5,286.5C 224.673,286.831 246.673,286.497 268.5,285.5 Z"/></g>
<g><path style="opacity:1" fill="#f9c0be" d="M 278.5,286.5 C 304.5,286.5 330.5,286.5 356.5,286.5C 354.832,290.591 353.665,294.924 353,299.5C 351.96,302.823 350.46,305.823 348.5,308.5C 325.5,308.5 302.5,308.5 279.5,308.5C 279.726,301.124 279.392,293.791 278.5,286.5 Z"/></g>
<g><path style="opacity:1" fill="#f3bdbc" d="M 115.5,284.5 C 113.801,284.34 112.134,284.506 110.5,285C 101.99,289.419 93.9896,294.586 86.5,300.5C 84.7377,299.312 83.7377,297.645 83.5,295.5C 92.8214,286.678 103.488,280.178 115.5,276C 117.922,278.003 118.755,280.503 118,283.5C 117.329,284.252 116.496,284.586 115.5,284.5 Z"/></g>
<g><path style="opacity:1" fill="#f0afac" d="M 108.5,306.5 C 102.633,306.811 96.9664,306.811 91.5,306.5C 92.8333,305.5 94.1667,304.5 95.5,303.5C 97.1992,303.66 98.8659,303.494 100.5,303C 106.604,298.53 113.104,294.696 120,291.5C 122.475,293.375 122.975,295.709 121.5,298.5C 116.971,300.927 112.638,303.594 108.5,306.5 Z"/></g>
<g><path style="opacity:1" fill="#f3bebb" d="M 469.5,308.5 C 461.833,308.5 454.167,308.5 446.5,308.5C 442.136,302.399 436.97,297.066 431,292.5C 429.743,287.212 430.909,282.546 434.5,278.5C 435.584,279.665 436.417,280.998 437,282.5C 438.111,296.581 445.611,301.748 459.5,298C 470.889,296.923 478.389,291.09 482,280.5C 482.667,277.833 482.667,275.167 482,272.5C 478.549,267.286 477.215,261.619 478,255.5C 478.414,255.043 478.914,254.709 479.5,254.5C 483.755,262.009 487.755,269.676 491.5,277.5C 487.18,290.125 479.847,300.458 469.5,308.5 Z"/></g>
<g><path style="opacity:1" fill="#f7b6b4" d="M 446.5,308.5 C 454.167,308.5 461.833,308.5 469.5,308.5C 467.095,311.634 464.928,314.968 463,318.5C 458.903,329.638 454.736,340.638 450.5,351.5C 439.654,351.828 428.987,351.494 418.5,350.5C 425.973,342.835 433.807,335.502 442,328.5C 445.393,322.263 446.893,315.596 446.5,308.5 Z"/></g>
<g><path style="opacity:1" fill="#f0a09d" d="M 91.5,306.5 C 96.9664,306.811 102.633,306.811 108.5,306.5C 106.205,309.297 103.705,311.964 101,314.5C 100.421,315.928 100.588,317.262 101.5,318.5C 97.3903,321.186 93.557,320.52 90,316.5C 86.344,312.337 86.844,309.004 91.5,306.5 Z"/></g>
<g><path style="opacity:1" fill="#f7b8b5" d="M 279.5,308.5 C 302.5,308.5 325.5,308.5 348.5,308.5C 341.845,321.686 331.179,329.853 316.5,333C 308.881,334.429 301.215,334.762 293.5,334C 282.472,329.117 277.805,320.617 279.5,308.5 Z"/></g>
<g><path style="opacity:1" fill="#2d2a3c" d="M 315.5,312.5 C 320.983,311.807 322.983,313.974 321.5,319C 319,319.833 316.5,320.667 314,321.5C 310.928,320.553 309.928,318.553 311,315.5C 312.652,314.601 314.152,313.601 315.5,312.5 Z"/></g>
<g><path style="opacity:1" fill="#f8bbb8" d="M 170.5,286.5 C 179.5,286.5 188.5,286.5 197.5,286.5C 196.385,291.75 196.219,297.083 197,302.5C 200.337,311.166 204.17,319.5 208.5,327.5C 208.5,328.5 208.5,329.5 208.5,330.5C 194.791,331.148 181.458,330.481 168.5,328.5C 169.164,326.513 170.331,324.846 172,323.5C 172.167,322.167 172.333,320.833 172.5,319.5C 170.884,308.559 170.217,297.559 170.5,286.5 Z"/></g>
<g><path style="opacity:1" fill="#f7b9b5" d="M 207.5,308.5 C 228.833,308.5 250.167,308.5 271.5,308.5C 271.175,315.542 272.508,322.209 275.5,328.5C 271.427,330.135 267.094,331.135 262.5,331.5C 255.246,330.701 247.912,330.201 240.5,330C 225.765,328.315 214.765,321.148 207.5,308.5 Z"/></g>
<g><path style="opacity:1" fill="#302c3e" d="M 229.5,312.5 C 232.688,312.618 235.688,313.451 238.5,315C 240.35,318.747 239.183,320.914 235,321.5C 231.461,321.163 228.961,319.496 227.5,316.5C 227.752,314.927 228.418,313.594 229.5,312.5 Z"/></g>
<g><path style="opacity:1" fill="#f8bbb7" d="M 383.5,283.5 C 384.935,295.78 384.269,308.113 381.5,320.5C 382.909,323.651 384.575,326.651 386.5,329.5C 373.344,330.496 360.01,330.829 346.5,330.5C 346.5,329.167 346.5,327.833 346.5,326.5C 355.198,315.927 360.531,303.76 362.5,290C 362.138,288.566 361.472,287.399 360.5,286.5C 368.167,286.5 375.833,286.5 383.5,286.5C 383.5,285.5 383.5,284.5 383.5,283.5 Z"/></g>
<g><path style="opacity:1" fill="#d87582" d="M 253.5,338.5 C 252.426,339.885 251.093,341.051 249.5,342C 244.553,344.152 239.553,346.152 234.5,348C 232.291,349.873 230.458,352.04 229,354.5C 228.5,361.158 228.334,367.825 228.5,374.5C 229.369,382.583 230.702,390.583 232.5,398.5C 233.834,403.501 235.167,408.501 236.5,413.5C 230.464,407.786 225.631,401.119 222,393.5C 219.853,383.244 218.186,372.911 217,362.5C 216.236,351.774 216.736,341.108 218.5,330.5C 229.466,336.158 241.133,338.824 253.5,338.5 Z"/></g>
<g><path style="opacity:1" fill="#d57481" d="M 320.5,411.5 C 321.293,407.12 322.293,402.787 323.5,398.5C 325.298,390.583 326.631,382.583 327.5,374.5C 327.666,367.825 327.5,361.158 327,354.5C 325.542,352.04 323.709,349.873 321.5,348C 316.791,346.827 312.458,344.993 308.5,342.5C 318.467,340.898 327.967,337.565 337,332.5C 339.225,352.388 337.892,372.055 333,391.5C 330.072,399.04 325.906,405.706 320.5,411.5 Z"/></g>
<g><path style="opacity:1" fill="#f4b1ad" d="M 208.5,327.5 C 209.415,344.664 206.415,361.331 199.5,377.5C 188.833,377.5 178.167,377.5 167.5,377.5C 165.546,372.935 163.046,368.602 160,364.5C 158.463,351.331 161.296,339.331 168.5,328.5C 181.458,330.481 194.791,331.148 208.5,330.5C 208.5,329.5 208.5,328.5 208.5,327.5 Z"/></g>
<g><path style="opacity:1" fill="#f2afac" d="M 275.5,328.5 C 283.477,339.982 294.477,344.648 308.5,342.5C 312.458,344.993 316.791,346.827 321.5,348C 323.709,349.873 325.542,352.04 327,354.5C 327.5,361.158 327.666,367.825 327.5,374.5C 326.596,375.209 326.263,376.209 326.5,377.5C 325.209,377.737 324.209,377.404 323.5,376.5C 322.521,366.325 317.854,358.158 309.5,352C 305.638,349.07 301.305,347.236 296.5,346.5C 292.927,346.427 291.76,348.094 293,351.5C 301.814,354.986 308.814,360.653 314,368.5C 315.341,371.022 316.174,373.689 316.5,376.5C 304.678,377.495 292.678,377.828 280.5,377.5C 280.5,375.5 280.5,373.5 280.5,371.5C 281.197,366.941 282.863,362.774 285.5,359C 283.049,354.523 280.215,354.356 277,358.5C 274.798,362.606 273.298,366.94 272.5,371.5C 271.539,373.265 271.205,375.265 271.5,377.5C 262.435,378.136 253.769,377.47 245.5,375.5C 247.127,370.698 249.794,366.532 253.5,363C 258.583,359.708 263.75,356.541 269,353.5C 269.588,350.412 268.255,348.745 265,348.5C 252.569,352.595 243.569,360.595 238,372.5C 237.421,373.928 237.588,375.262 238.5,376.5C 235.713,377.477 232.713,377.81 229.5,377.5C 229.737,376.209 229.404,375.209 228.5,374.5C 228.334,367.825 228.5,361.158 229,354.5C 230.458,352.04 232.291,349.873 234.5,348C 239.553,346.152 244.553,344.152 249.5,342C 251.093,341.051 252.426,339.885 253.5,338.5C 256.579,338.74 259.579,338.407 262.5,337.5C 263.694,335.484 263.694,333.484 262.5,331.5C 267.094,331.135 271.427,330.135 275.5,328.5 Z"/></g>
<g><path style="opacity:1" fill="#f5b1ad" d="M 346.5,326.5 C 346.5,327.833 346.5,329.167 346.5,330.5C 360.01,330.829 373.344,330.496 386.5,329.5C 389.734,334.655 391.901,340.322 393,346.5C 393.667,354.5 393.667,362.5 393,370.5C 392.256,372.9 391.423,375.233 390.5,377.5C 378.833,377.5 367.167,377.5 355.5,377.5C 349.013,362.548 345.513,346.882 345,330.5C 345.21,328.942 345.71,327.609 346.5,326.5 Z"/></g>
<g><path style="opacity:1" fill="#2b293b" d="M 323.5,376.5 C 321.167,379.167 318.833,379.167 316.5,376.5C 316.174,373.689 315.341,371.022 314,368.5C 308.814,360.653 301.814,354.986 293,351.5C 291.76,348.094 292.927,346.427 296.5,346.5C 301.305,347.236 305.638,349.07 309.5,352C 317.854,358.158 322.521,366.325 323.5,376.5 Z"/></g>
<g><path style="opacity:1" fill="#2b293b" d="M 245.5,375.5 C 243.477,377.701 241.144,378.034 238.5,376.5C 237.588,375.262 237.421,373.928 238,372.5C 243.569,360.595 252.569,352.595 265,348.5C 268.255,348.745 269.588,350.412 269,353.5C 263.75,356.541 258.583,359.708 253.5,363C 249.794,366.532 247.127,370.698 245.5,375.5 Z"/></g>
<g><path style="opacity:1" fill="#f1adad" d="M 418.5,350.5 C 428.987,351.494 439.654,351.828 450.5,351.5C 449.208,356.382 447.541,361.048 445.5,365.5C 432.167,365.5 418.833,365.5 405.5,365.5C 408.719,359.609 413.052,354.609 418.5,350.5 Z"/></g>
<g><path style="opacity:1" fill="#2a283a" d="M 280.5,371.5 C 280.496,379.688 280.163,388.021 279.5,396.5C 278.839,398.134 278.506,399.967 278.5,402C 278.714,407.141 280.047,411.974 282.5,416.5C 280.646,420.098 278.146,420.432 275,417.5C 271.541,411.624 270.041,405.291 270.5,398.5C 271.694,396.127 272.027,393.793 271.5,391.5C 264.847,393.226 258.681,392.226 253,388.5C 251.897,382.549 254.064,381.049 259.5,384C 263.5,384.667 267.5,384.667 271.5,384C 272.464,379.934 272.797,375.767 272.5,371.5C 273.298,366.94 274.798,362.606 277,358.5C 280.215,354.356 283.049,354.523 285.5,359C 282.863,362.774 281.197,366.941 280.5,371.5 Z"/></g>
<g><path style="opacity:1" fill="#bb898b" d="M 131.5,345.5 C 130.833,354.167 130.167,362.833 129.5,371.5C 129.334,362.161 129.5,352.827 130,343.5C 130.717,344.044 131.217,344.711 131.5,345.5 Z"/></g>
<g><path style="opacity:1" fill="#f1ada8" d="M 131.5,345.5 C 137.77,352.271 144.27,358.938 151,365.5C 154.198,368.563 156.364,372.229 157.5,376.5C 148.348,377.494 139.015,377.827 129.5,377.5C 129.5,375.5 129.5,373.5 129.5,371.5C 130.167,362.833 130.833,354.167 131.5,345.5 Z"/></g>
<g><path style="opacity:1" fill="#f1aea7" d="M 405.5,365.5 C 418.833,365.5 432.167,365.5 445.5,365.5C 443.833,369.5 442.167,373.5 440.5,377.5C 426.656,377.829 412.99,377.496 399.5,376.5C 400.214,372.067 402.214,368.4 405.5,365.5 Z"/></g>
<g><path style="opacity:1" fill="#f1a6a2" d="M 157.5,376.5 C 159.163,378.493 160.33,380.826 161,383.5C 161.223,388.25 161.723,392.916 162.5,397.5C 151.346,398.495 140.012,398.828 128.5,398.5C 127.844,397.378 127.511,396.045 127.5,394.5C 128.495,388.865 129.162,383.198 129.5,377.5C 139.015,377.827 148.348,377.494 157.5,376.5 Z"/></g>
<g><path style="opacity:1" fill="#f0a6a2" d="M 167.5,377.5 C 178.167,377.5 188.833,377.5 199.5,377.5C 196.763,385.318 192.763,392.318 187.5,398.5C 180.978,398.823 174.645,398.49 168.5,397.5C 169.905,390.765 169.572,384.098 167.5,377.5 Z"/></g>
<g><path style="opacity:1" fill="#efa5a1" d="M 272.5,371.5 C 272.797,375.767 272.464,379.934 271.5,384C 267.5,384.667 263.5,384.667 259.5,384C 254.064,381.049 251.897,382.549 253,388.5C 258.681,392.226 264.847,393.226 271.5,391.5C 272.027,393.793 271.694,396.127 270.5,398.5C 257.833,398.5 245.167,398.5 232.5,398.5C 230.702,390.583 229.369,382.583 228.5,374.5C 229.404,375.209 229.737,376.209 229.5,377.5C 232.713,377.81 235.713,377.477 238.5,376.5C 241.144,378.034 243.477,377.701 245.5,375.5C 253.769,377.47 262.435,378.136 271.5,377.5C 271.205,375.265 271.539,373.265 272.5,371.5 Z"/></g>
<g><path style="opacity:1" fill="#f0a6a2" d="M 280.5,371.5 C 280.5,373.5 280.5,375.5 280.5,377.5C 292.678,377.828 304.678,377.495 316.5,376.5C 318.833,379.167 321.167,379.167 323.5,376.5C 324.209,377.404 325.209,377.737 326.5,377.5C 326.263,376.209 326.596,375.209 327.5,374.5C 326.631,382.583 325.298,390.583 323.5,398.5C 308.462,399.15 293.795,398.483 279.5,396.5C 280.163,388.021 280.496,379.688 280.5,371.5 Z"/></g>
<g><path style="opacity:1" fill="#2f2b3d" d="M 303.5,382.5 C 308.486,382.305 310.152,384.472 308.5,389C 303.746,391.273 298.746,392.773 293.5,393.5C 288.736,392.889 287.403,390.389 289.5,386C 294.618,386.097 299.285,384.93 303.5,382.5 Z"/></g>
<g><path style="opacity:1" fill="#f1a7a3" d="M 355.5,377.5 C 367.167,377.5 378.833,377.5 390.5,377.5C 388.817,383.699 388.151,390.032 388.5,396.5C 381.726,398.151 374.726,399.151 367.5,399.5C 361.965,393.104 357.965,385.771 355.5,377.5 Z"/></g>
<g><path style="opacity:1" fill="#f1a7a3" d="M 399.5,376.5 C 412.99,377.496 426.656,377.829 440.5,377.5C 436.738,384.698 432.738,391.698 428.5,398.5C 418.167,398.5 407.833,398.5 397.5,398.5C 395.713,390.82 396.379,383.486 399.5,376.5 Z"/></g>
<g><path style="opacity:1" fill="#712240" d="M 123.5,436.5 C 119.785,436.423 116.119,436.756 112.5,437.5C 110.201,432.441 108.368,427.107 107,421.5C 105.886,408.009 106.886,394.676 110,381.5C 110.199,369.801 110.865,358.134 112,346.5C 113.168,339.83 116.168,334.163 121,329.5C 123.336,356.434 122.502,383.268 118.5,410C 118.607,419.146 120.274,427.98 123.5,436.5 Z"/></g>
<g><path style="opacity:1" fill="#f19f9c" d="M 162.5,397.5 C 164.5,398.833 166.5,398.833 168.5,397.5C 174.645,398.49 180.978,398.823 187.5,398.5C 183.171,405.152 179.338,412.152 176,419.5C 173.167,422.333 170.333,425.167 167.5,428C 158.709,433.422 150.875,432.255 144,424.5C 137.552,416.605 132.385,407.938 128.5,398.5C 140.012,398.828 151.346,398.495 162.5,397.5 Z"/></g>
<g><path style="opacity:1" fill="#f09f9b" d="M 279.5,396.5 C 293.795,398.483 308.462,399.15 323.5,398.5C 322.293,402.787 321.293,407.12 320.5,411.5C 318.783,415.474 316.116,416.641 312.5,415C 309.833,414.333 307.167,414.333 304.5,415C 299.909,421.595 294.576,427.595 288.5,433C 285.148,435.533 281.481,437.366 277.5,438.5C 273.132,437.483 269.132,435.65 265.5,433C 260.356,427.702 255.689,422.035 251.5,416C 247.35,413.856 243.35,414.023 239.5,416.5C 238.145,415.812 237.145,414.812 236.5,413.5C 235.167,408.501 233.834,403.501 232.5,398.5C 245.167,398.5 257.833,398.5 270.5,398.5C 270.041,405.291 271.541,411.624 275,417.5C 278.146,420.432 280.646,420.098 282.5,416.5C 280.047,411.974 278.714,407.141 278.5,402C 278.506,399.967 278.839,398.134 279.5,396.5 Z"/></g>
<g><path style="opacity:1" fill="#f09f9c" d="M 388.5,396.5 C 389.365,399.549 391.199,401.883 394,403.5C 396.54,402.793 397.707,401.127 397.5,398.5C 407.833,398.5 418.167,398.5 428.5,398.5C 422.675,409.951 415.008,420.117 405.5,429C 399.833,432.333 394.167,432.333 388.5,429C 385.37,426.872 382.537,424.372 380,421.5C 376.074,413.977 371.908,406.644 367.5,399.5C 374.726,399.151 381.726,398.151 388.5,396.5 Z"/></g>
<g><path style="opacity:1" fill="#7c4251" d="M 340.5,439.5 C 325.5,438.833 310.5,438.167 295.5,437.5C 300.567,432.766 304.901,427.432 308.5,421.5C 309.941,422.865 311.274,424.365 312.5,426C 314.167,426.667 315.833,426.667 317.5,426C 323.375,419.793 328.875,413.293 334,406.5C 336.233,413.199 339.233,419.532 343,425.5C 344.086,430.632 343.252,435.299 340.5,439.5 Z"/></g>
<g><path style="opacity:1" fill="#7d4251" d="M 258.5,437.5 C 244.01,438.496 229.343,438.829 214.5,438.5C 212.191,435.478 210.858,431.978 210.5,428C 213.691,421.118 217.024,414.285 220.5,407.5C 225.586,414.091 231.253,420.257 237.5,426C 241.169,426.536 243.836,425.036 245.5,421.5C 249.827,426.828 254.16,432.161 258.5,437.5 Z"/></g>
<g><path style="opacity:1" fill="#743d4a" d="M 258.5,437.5 C 264.019,442.093 270.353,444.76 277.5,445.5C 284.184,444.494 290.184,441.827 295.5,437.5C 310.5,438.167 325.5,438.833 340.5,439.5C 339.502,443.505 337.502,446.839 334.5,449.5C 297.33,449.168 260.33,449.502 223.5,450.5C 219.762,447.09 216.762,443.09 214.5,438.5C 229.343,438.829 244.01,438.496 258.5,437.5 Z"/></g>
<g><path style="opacity:1" fill="#691938" d="M 123.5,436.5 C 131.159,456.444 134.159,477.11 132.5,498.5C 127.5,498.5 122.5,498.5 117.5,498.5C 118.631,477.906 116.965,457.573 112.5,437.5C 116.119,436.756 119.785,436.423 123.5,436.5 Z"/></g>
<g><path style="opacity:1" fill="#6f374a" d="M 334.5,449.5 C 332.167,452.5 329.5,455.167 326.5,457.5C 294.662,457.168 262.996,457.502 231.5,458.5C 228.5,456.167 225.833,453.5 223.5,450.5C 260.33,449.502 297.33,449.168 334.5,449.5 Z"/></g>
<g><path style="opacity:1" fill="#6a3743" d="M 326.5,457.5 C 324.12,460.881 321.12,463.547 317.5,465.5C 291.833,465.5 266.167,465.5 240.5,465.5C 237.19,463.518 234.19,461.185 231.5,458.5C 262.996,457.502 294.662,457.168 326.5,457.5 Z"/></g>
<g><path style="opacity:1" fill="#653143" d="M 240.5,465.5 C 266.167,465.5 291.833,465.5 317.5,465.5C 314.403,468.888 310.736,471.555 306.5,473.5C 287.833,473.5 269.167,473.5 250.5,473.5C 246.762,471.303 243.429,468.636 240.5,465.5 Z"/></g>
<g><path style="opacity:1" fill="#5e303d" d="M 250.5,473.5 C 269.167,473.5 287.833,473.5 306.5,473.5C 297.741,480.747 287.907,486.08 277,489.5C 267.19,485.842 258.357,480.509 250.5,473.5 Z"/></g>
</svg>
