<?xml version="1.0" encoding="UTF-8"?>
<!DOCTYPE svg PUBLIC "-//W3C//DTD SVG 1.1//EN" "http://www.w3.org/Graphics/SVG/1.1/DTD/svg11.dtd">
<svg xmlns="http://www.w3.org/2000/svg" version="1.1" width="512px" height="512px" style="shape-rendering:geometricPrecision; text-rendering:geometricPrecision; image-rendering:optimizeQuality; fill-rule:evenodd; clip-rule:evenodd" xmlns:xlink="http://www.w3.org/1999/xlink">
<g><path style="opacity:1" fill="#262539" d="M 84.5,23.5 C 97.2063,24.0349 104.373,30.7015 106,43.5C 106.595,53.4528 103.928,62.4528 98,70.5C 96.0636,73.8128 93.2303,74.9795 89.5,74C 78.4816,65.4673 73.3149,54.3006 74,40.5C 74.5165,32.7657 78.0165,27.099 84.5,23.5 Z"/></g>
<g><path style="opacity:1" fill="#262539" d="M 246.5,33.5 C 260.638,32.7903 269.138,39.457 272,53.5C 273.34,64.7996 271.34,75.4663 266,85.5C 258,93.5 250,101.5 242,109.5C 237.497,115.835 233.497,122.502 230,129.5C 224.37,135.964 218.703,135.964 213,129.5C 212.296,127.722 211.796,125.888 211.5,124C 214.764,100.248 219.264,76.7479 225,53.5C 229.196,43.4646 236.363,36.798 246.5,33.5 Z"/></g>
<g><path style="opacity:1" fill="#27263a" d="M 161.5,34.5 C 182.238,31.4481 196.738,39.4481 205,58.5C 207.331,65.9817 208.497,73.6483 208.5,81.5C 205.093,106.427 202.259,131.427 200,156.5C 199.292,178.673 199.458,200.84 200.5,223C 200.506,228.222 200.006,233.389 199,238.5C 197.023,245.905 192.523,248.072 185.5,245C 182.99,242.326 181.324,239.159 180.5,235.5C 179.726,234.289 178.893,234.289 178,235.5C 174.972,245.975 172.972,256.642 172,267.5C 171.5,281.508 170.833,295.508 170,309.5C 167.501,318.421 162.001,320.921 153.5,317C 151.106,315.048 149.606,312.548 149,309.5C 146.027,298.299 143.693,286.966 142,275.5C 139.845,253.769 137.178,232.102 134,210.5C 132.113,200.618 129.446,190.951 126,181.5C 116.986,163.459 110.986,144.459 108,124.5C 103.4,94.9791 111.233,69.4791 131.5,48C 140.485,41.003 150.485,36.503 161.5,34.5 Z"/></g>
<g><path style="opacity:1" fill="#6d73d5" d="M 86.5,31.5 C 91.6466,32.4734 95.1466,35.4734 97,40.5C 98.9672,49.4591 97.1339,57.4591 91.5,64.5C 84.6777,57.8684 81.5111,49.8684 82,40.5C 82.6558,37.0042 84.1558,34.0042 86.5,31.5 Z"/></g>
<g><path style="opacity:1" fill="#becbf7" d="M 196.5,113.5 C 191.26,114.449 185.927,114.782 180.5,114.5C 187.565,104.129 189.732,92.7956 187,80.5C 182.019,70.0725 174.853,68.0725 165.5,74.5C 151.323,74.8291 137.323,74.4958 123.5,73.5C 135.882,48.1434 155.882,38.6434 183.5,45C 192.61,51.1201 198.11,59.6201 200,70.5C 200.667,76.5 200.667,82.5 200,88.5C 198.598,96.8105 197.432,105.144 196.5,113.5 Z"/></g>
<g><path style="opacity:1" fill="#6d73d8" d="M 261.5,75.5 C 250.894,72.4103 240.56,68.7437 230.5,64.5C 231.93,53.8086 237.597,46.3086 247.5,42C 256.944,40.7609 262.444,44.9276 264,54.5C 264.665,61.6776 263.831,68.6776 261.5,75.5 Z"/></g>
<g><path style="opacity:1" fill="#282639" d="M 371.5,52.5 C 383.224,50.5789 393.557,53.4122 402.5,61C 423.209,61.0481 435.375,71.2148 439,91.5C 443.395,97.5664 447.395,103.9 451,110.5C 455.307,124.322 452.64,136.655 443,147.5C 442.304,150.478 441.804,153.478 441.5,156.5C 459.514,157.349 469.68,166.682 472,184.5C 480.107,189.273 486.107,195.94 490,204.5C 491.664,209.792 491.997,215.126 491,220.5C 495.093,225.281 498.427,230.614 501,236.5C 504.417,252.168 498.584,262.668 483.5,268C 479.176,268.87 474.842,269.703 470.5,270.5C 476.469,302.255 480.303,334.255 482,366.5C 478.039,375.154 471.539,377.987 462.5,375C 457.093,372.548 451.926,369.714 447,366.5C 449.829,375.331 452.495,384.331 455,393.5C 456.244,397.779 456.577,402.112 456,406.5C 443.998,432.169 425.498,451.669 400.5,465C 365.26,483.05 328.094,489.883 289,485.5C 290.644,454.567 300.977,426.9 320,402.5C 320.114,395.421 320.781,388.421 322,381.5C 328.644,374.524 335.644,367.857 343,361.5C 343.667,351.167 343.667,340.833 343,330.5C 339.365,328.514 335.698,326.514 332,324.5C 320.573,337.256 309.907,350.589 300,364.5C 277.996,388.232 252.829,407.732 224.5,423C 205.506,428.975 186.506,428.975 167.5,423C 159.937,420.029 156.271,414.529 156.5,406.5C 142.588,406.823 128.754,406.49 115,405.5C 114.173,382.261 114.34,359.094 115.5,336C 143.833,335.667 172.167,335.333 200.5,335C 218.833,316.667 237.167,298.333 255.5,280C 257.833,278 260.167,278 262.5,280C 266.667,284.167 270.833,288.333 275,292.5C 275.667,294.167 275.667,295.833 275,297.5C 255.29,317.711 235.123,337.378 214.5,356.5C 211.567,355.07 209.067,353.07 207,350.5C 206.167,366.51 206.334,382.51 207.5,398.5C 212.972,397.431 217.972,395.264 222.5,392C 229.686,386.237 236.686,380.237 243.5,374C 253.926,362.965 263.759,351.465 273,339.5C 279.188,334.401 285.188,329.068 291,323.5C 304.609,298.28 316.609,272.28 327,245.5C 330.981,235.697 336.814,227.197 344.5,220C 351.098,216.006 357.931,215.506 365,218.5C 368.705,215.763 372.871,214.097 377.5,213.5C 379.547,207.938 379.88,202.271 378.5,196.5C 372.472,197.558 366.806,196.391 361.5,193C 351.349,186.526 345.349,177.359 343.5,165.5C 342.924,157.164 342.257,148.831 341.5,140.5C 332.396,136.05 327.729,128.716 327.5,118.5C 329.79,109.691 330.957,100.691 331,91.5C 331.774,87.9513 333.107,84.618 335,81.5C 343.167,74.6667 350.667,67.1667 357.5,59C 361.877,55.9748 366.544,53.8081 371.5,52.5 Z M 441.5,314.5 C 439.692,314.509 438.025,314.009 436.5,313C 437.56,310.263 438.394,307.43 439,304.5C 440.15,307.768 440.984,311.101 441.5,314.5 Z"/></g>
<g><path style="opacity:1" fill="#874a68" d="M 394.5,66.5 C 394.829,79.3443 394.495,92.011 393.5,104.5C 386.851,105.38 380.184,105.546 373.5,105C 371.273,104.059 369.273,102.892 367.5,101.5C 367.186,88.4206 367.52,75.4206 368.5,62.5C 376.676,59.5695 384.676,60.0695 392.5,64C 393.381,64.7083 394.047,65.5416 394.5,66.5 Z"/></g>
<g><path style="opacity:1" fill="#262639" d="M 43.5,63.5 C 56.717,62.0717 67.217,66.7384 75,77.5C 80.2933,85.757 83.6266,94.757 85,104.5C 85.3333,114.5 85.6667,124.5 86,134.5C 85.1037,153.503 91.7704,169.169 106,181.5C 123.508,205.197 129.841,231.531 125,260.5C 119.221,264.231 113.388,264.397 107.5,261C 98.0524,245.875 86.7191,232.208 73.5,220C 62.0138,210.758 50.3472,201.758 38.5,193C 18.4959,175.651 8.49592,153.651 8.5,127C 8.92293,109.467 13.7563,93.2999 23,78.5C 26.1667,75.3333 29.3333,72.1667 32.5,69C 36.0167,66.6738 39.6834,64.8405 43.5,63.5 Z"/></g>
<g><path style="opacity:1" fill="#262639" d="M 297.5,64.5 C 311.835,66.1383 317.668,74.1383 315,88.5C 310.066,101.215 301.233,105.048 288.5,100C 280.57,91.8144 279.404,82.6477 285,72.5C 288.378,68.406 292.545,65.7393 297.5,64.5 Z"/></g>
<g><path style="opacity:1" fill="#90516f" d="M 368.5,62.5 C 367.52,75.4206 367.186,88.4206 367.5,101.5C 355.766,102.055 348.266,108.055 345,119.5C 344.058,123.468 343.225,127.468 342.5,131.5C 334.92,124.825 333.42,116.825 338,107.5C 338.333,102.5 338.667,97.5 339,92.5C 339.471,90.7536 340.138,89.087 341,87.5C 348.54,81.6274 355.04,74.7941 360.5,67C 363.059,65.2226 365.726,63.7226 368.5,62.5 Z"/></g>
<g><path style="opacity:1" fill="#767dd8" d="M 230.5,64.5 C 240.56,68.7437 250.894,72.4103 261.5,75.5C 259.612,79.5598 257.112,83.2265 254,86.5C 248.664,91.0039 243.497,95.6705 238.5,100.5C 234.356,97.5537 229.689,95.5537 224.5,94.5C 225.87,84.2594 227.87,74.2594 230.5,64.5 Z"/></g>
<g><path style="opacity:1" fill="#7d4362" d="M 394.5,66.5 C 397.024,67.9269 399.69,69.0936 402.5,70C 407.458,70.0291 412.124,70.8624 416.5,72.5C 416.5,92.5 416.5,112.5 416.5,132.5C 413.833,132.5 411.167,132.5 408.5,132.5C 404.792,128.8 401.292,124.8 398,120.5C 395.975,115.267 394.475,109.933 393.5,104.5C 394.495,92.011 394.829,79.3443 394.5,66.5 Z"/></g>
<g><path style="opacity:1" fill="#29293d" d="M 180.5,114.5 C 178.006,116.479 175.173,117.813 172,118.5C 168.537,117.863 165.704,116.197 163.5,113.5C 157.603,100.088 158.27,87.0875 165.5,74.5C 174.853,68.0725 182.019,70.0725 187,80.5C 189.732,92.7956 187.565,104.129 180.5,114.5 Z"/></g>
<g><path style="opacity:1" fill="#b7c4f5" d="M 295.5,73.5 C 302.971,71.9785 306.971,74.9785 307.5,82.5C 307.37,89.4625 303.87,93.4625 297,94.5C 291.719,93.1379 289.219,89.6379 289.5,84C 289.542,82.0326 290.042,80.1992 291,78.5C 292.707,76.9625 294.207,75.2959 295.5,73.5 Z"/></g>
<g><path style="opacity:1" fill="#753d5b" d="M 416.5,72.5 C 421.006,73.8374 424.506,76.504 427,80.5C 428.974,85.7284 430.641,91.0618 432,96.5C 434.615,100.783 437.615,104.783 441,108.5C 442.411,110.65 443.245,112.984 443.5,115.5C 436.246,128.798 424.913,134.798 409.5,133.5C 408.833,133.5 408.5,133.167 408.5,132.5C 411.167,132.5 413.833,132.5 416.5,132.5C 416.5,112.5 416.5,92.5 416.5,72.5 Z"/></g>
<g><path style="opacity:1" fill="#6367d7" d="M 73.5,93.5 C 70.6592,93.5597 67.9925,94.2264 65.5,95.5C 58.2509,86.2912 51.0842,86.2912 44,95.5C 42.4511,98.3117 41.6178,101.312 41.5,104.5C 34.1667,106.833 26.8333,109.167 19.5,111.5C 19.5,110.5 19.5,109.5 19.5,108.5C 21.5227,96.2875 26.8561,85.7875 35.5,77C 48.6992,68.3357 59.8659,70.5024 69,83.5C 70.7862,86.7365 72.2862,90.0698 73.5,93.5 Z"/></g>
<g><path style="opacity:1" fill="#b9c5f7" d="M 123.5,73.5 C 137.323,74.4958 151.323,74.8291 165.5,74.5C 158.27,87.0875 157.603,100.088 163.5,113.5C 159.601,114.791 155.601,114.791 151.5,113.5C 150.93,105.283 147.93,98.1164 142.5,92C 135.565,88.043 130.065,89.543 126,96.5C 124.228,100.313 123.395,104.313 123.5,108.5C 122.532,110.607 122.198,112.941 122.5,115.5C 120.167,115.5 117.833,115.5 115.5,115.5C 113.956,100.561 116.622,86.5612 123.5,73.5 Z"/></g>
<g><path style="opacity:1" fill="#f1f1f2" d="M 172.5,78.5 C 179.08,79.6142 181.746,83.6142 180.5,90.5C 180.537,95.7665 179.37,100.766 177,105.5C 175.987,107.846 174.321,109.513 172,110.5C 164.575,99.7791 164.742,89.1125 172.5,78.5 Z"/></g>
<g><path style="opacity:1" fill="#27273c" d="M 65.5,95.5 C 67.1542,98.6276 68.3208,101.961 69,105.5C 69.6667,112.167 69.6667,118.833 69,125.5C 67.1158,133.387 62.2825,136.22 54.5,134C 49.4223,130.359 45.9223,125.525 44,119.5C 42.3638,114.625 41.5305,109.625 41.5,104.5C 41.6178,101.312 42.4511,98.3117 44,95.5C 51.0842,86.2912 58.2509,86.2912 65.5,95.5 Z"/></g>
<g><path style="opacity:1" fill="#28283b" d="M 151.5,113.5 C 152.436,123.592 150.936,133.259 147,142.5C 137.324,148.009 130.657,145.343 127,134.5C 124.42,126.021 123.253,117.354 123.5,108.5C 123.395,104.313 124.228,100.313 126,96.5C 130.065,89.543 135.565,88.043 142.5,92C 147.93,98.1164 150.93,105.283 151.5,113.5 Z"/></g>
<g><path style="opacity:1" fill="#efeff0" d="M 52.5,96.5 C 57.3583,96.8542 60.1916,99.5209 61,104.5C 62.4245,110.776 62.7578,117.109 62,123.5C 59.6755,128.546 57.0088,128.546 54,123.5C 48.8115,114.594 48.3115,105.594 52.5,96.5 Z"/></g>
<g><path style="opacity:1" fill="#efeff0" d="M 134.5,97.5 C 135.552,97.3505 136.552,97.5172 137.5,98C 141.547,102.327 143.714,107.493 144,113.5C 144.553,120.2 144.22,126.867 143,133.5C 142.313,135.555 141.146,137.221 139.5,138.5C 136.725,136.972 134.892,134.639 134,131.5C 131.405,123.001 130.405,114.335 131,105.5C 131.696,102.562 132.862,99.8957 134.5,97.5 Z"/></g>
<g><path style="opacity:1" fill="#8088d6" d="M 224.5,94.5 C 229.689,95.5537 234.356,97.5537 238.5,100.5C 232.51,107.799 227.51,115.799 223.5,124.5C 222.675,125.386 221.675,125.719 220.5,125.5C 220.77,115.01 222.103,104.676 224.5,94.5 Z"/></g>
<g><path style="opacity:1" fill="#d67581" d="M 365.5,109.5 C 372.36,112.928 379.694,114.428 387.5,114C 388.6,117.963 390.1,121.797 392,125.5C 395.667,129.833 399.333,134.167 403,138.5C 403.494,140.134 403.66,141.801 403.5,143.5C 402.5,142.833 401.5,142.167 400.5,141.5C 395.205,137.54 390.205,133.207 385.5,128.5C 384.513,125.854 383.513,123.188 382.5,120.5C 375.701,119.865 370.201,116.865 366,111.5C 365.536,110.906 365.369,110.239 365.5,109.5 Z"/></g>
<g><path style="opacity:1" fill="#6c72d6" d="M 73.5,93.5 C 74.9695,96.9492 76.1362,100.616 77,104.5C 77.4998,114.494 77.6665,124.494 77.5,134.5C 68.743,137.079 60.4097,140.412 52.5,144.5C 49.603,139.106 45.2696,135.273 39.5,133C 32.6749,131.814 28.5082,134.647 27,141.5C 26.5499,145.188 26.7166,148.854 27.5,152.5C 25.5,153.167 23.5,153.833 21.5,154.5C 19.5538,149.713 18.3871,144.713 18,139.5C 17.3333,130.833 17.3333,122.167 18,113.5C 18.1981,111.618 18.6981,109.952 19.5,108.5C 19.5,109.5 19.5,110.5 19.5,111.5C 26.8333,109.167 34.1667,106.833 41.5,104.5C 41.5305,109.625 42.3638,114.625 44,119.5C 45.9223,125.525 49.4223,130.359 54.5,134C 62.2825,136.22 67.1158,133.387 69,125.5C 69.6667,118.833 69.6667,112.167 69,105.5C 68.3208,101.961 67.1542,98.6276 65.5,95.5C 67.9925,94.2264 70.6592,93.5597 73.5,93.5 Z"/></g>
<g><path style="opacity:1" fill="#b1bdf7" d="M 123.5,108.5 C 123.253,117.354 124.42,126.021 127,134.5C 130.657,145.343 137.324,148.009 147,142.5C 150.936,133.259 152.436,123.592 151.5,113.5C 155.601,114.791 159.601,114.791 163.5,113.5C 165.704,116.197 168.537,117.863 172,118.5C 175.173,117.813 178.006,116.479 180.5,114.5C 185.927,114.782 191.26,114.449 196.5,113.5C 193.694,130.368 192.027,147.368 191.5,164.5C 190.51,170.645 190.177,176.978 190.5,183.5C 187.5,183.5 184.5,183.5 181.5,183.5C 181.822,177.642 181.489,171.975 180.5,166.5C 180.605,159.455 179.105,152.789 176,146.5C 169.071,139.594 162.738,139.927 157,147.5C 151.388,158.832 148.888,170.832 149.5,183.5C 144.833,183.5 140.167,183.5 135.5,183.5C 130.046,169.974 124.879,156.307 120,142.5C 117.275,133.7 115.775,124.7 115.5,115.5C 117.833,115.5 120.167,115.5 122.5,115.5C 122.198,112.941 122.532,110.607 123.5,108.5 Z"/></g>
<g><path style="opacity:1" fill="#502b44" d="M 443.5,115.5 C 445.809,126.08 443.309,135.414 436,143.5C 434.365,150.276 432.365,156.943 430,163.5C 425.003,169.67 418.503,172.67 410.5,172.5C 411.4,160.844 411.566,149.178 411,137.5C 410.209,136.255 409.709,134.922 409.5,133.5C 424.913,134.798 436.246,128.798 443.5,115.5 Z"/></g>
<g><path style="opacity:1" fill="#262639" d="M 261.5,115.5 C 276.575,115.092 287.075,121.759 293,135.5C 305.651,175.866 296.817,210.699 266.5,240C 261.833,243.333 257.167,246.667 252.5,250C 225.984,261.593 203.984,278.926 186.5,302C 184.105,304.145 181.938,303.978 180,301.5C 179.718,292.667 181.718,284.334 186,276.5C 193.272,264.232 200.939,252.232 209,240.5C 215.583,229.751 219.583,218.084 221,205.5C 221.709,188.729 223.376,172.062 226,155.5C 228.86,143.273 234.694,132.773 243.5,124C 248.951,119.772 254.951,116.939 261.5,115.5 Z"/></g>
<g><path style="opacity:1" fill="#edaaa9" d="M 365.5,109.5 C 365.369,110.239 365.536,110.906 366,111.5C 370.201,116.865 375.701,119.865 382.5,120.5C 383.513,123.188 384.513,125.854 385.5,128.5C 374.167,128.5 362.833,128.5 351.5,128.5C 351.5,133.167 351.5,137.833 351.5,142.5C 351.5,143.5 351.5,144.5 351.5,145.5C 349.867,136.835 350.367,128.168 353,119.5C 355.3,113.688 359.466,110.354 365.5,109.5 Z"/></g>
<g><path style="opacity:1" fill="#6b71d7" d="M 288.5,185.5 C 285.339,184.087 282.339,182.42 279.5,180.5C 277.161,172.831 272.161,170.164 264.5,172.5C 263.25,170.846 261.916,169.179 260.5,167.5C 267.765,161.966 270.932,154.633 270,145.5C 265.63,138.3 259.797,136.8 252.5,141C 247.306,144.558 243.972,149.391 242.5,155.5C 241.85,155.804 241.183,156.137 240.5,156.5C 238.971,155.237 237.305,154.237 235.5,153.5C 238.151,142.358 244.151,133.524 253.5,127C 267.152,121.328 277.652,124.828 285,137.5C 290.891,153.163 292.058,169.163 288.5,185.5 Z"/></g>
<g><path style="opacity:1" fill="#28283c" d="M 52.5,144.5 C 55.2363,151.946 55.0696,159.28 52,166.5C 43.1605,171.606 36.1605,169.606 31,160.5C 29.9066,157.691 28.7399,155.024 27.5,152.5C 26.7166,148.854 26.5499,145.188 27,141.5C 28.5082,134.647 32.6749,131.814 39.5,133C 45.2696,135.273 49.603,139.106 52.5,144.5 Z"/></g>
<g><path style="opacity:1" fill="#f9b6b3" d="M 385.5,128.5 C 390.205,133.207 395.205,137.54 400.5,141.5C 384.342,142.496 368.009,142.83 351.5,142.5C 351.5,137.833 351.5,133.167 351.5,128.5C 362.833,128.5 374.167,128.5 385.5,128.5 Z"/></g>
<g><path style="opacity:1" fill="#29283c" d="M 260.5,167.5 C 256.487,171.09 251.82,172.257 246.5,171C 241.576,166.856 240.243,161.689 242.5,155.5C 243.972,149.391 247.306,144.558 252.5,141C 259.797,136.8 265.63,138.3 270,145.5C 270.932,154.633 267.765,161.966 260.5,167.5 Z"/></g>
<g><path style="opacity:1" fill="#f0f0f1" d="M 35.5,140.5 C 40.4885,140.318 43.6552,142.651 45,147.5C 46.4764,152.076 46.8098,156.743 46,161.5C 45.586,161.957 45.086,162.291 44.5,162.5C 36.027,157.416 33.027,150.083 35.5,140.5 Z"/></g>
<g><path style="opacity:1" fill="#29293d" d="M 180.5,166.5 C 180.667,177.172 180.5,187.839 180,198.5C 179.301,206.297 176.134,212.797 170.5,218C 164.733,220.7 159.9,219.533 156,214.5C 151.091,204.784 148.924,194.451 149.5,183.5C 148.888,170.832 151.388,158.832 157,147.5C 162.738,139.927 169.071,139.594 176,146.5C 179.105,152.789 180.605,159.455 180.5,166.5 Z"/></g>
<g><path style="opacity:1" fill="#f1f1f1" d="M 257.5,146.5 C 261.509,146.014 263.342,147.68 263,151.5C 260.771,158.238 256.271,162.238 249.5,163.5C 248.735,156.094 251.401,150.427 257.5,146.5 Z"/></g>
<g><path style="opacity:1" fill="#f2f2f3" d="M 164.5,149.5 C 169.019,149.515 171.519,151.848 172,156.5C 174.145,172.549 173.811,188.549 171,204.5C 170,206.5 169,208.5 168,210.5C 165.733,211.935 163.733,211.602 162,209.5C 158.13,201.281 156.63,192.615 157.5,183.5C 156.619,171.441 158.952,160.108 164.5,149.5 Z"/></g>
<g><path style="opacity:1" fill="#f5bcbb" d="M 400.5,141.5 C 401.5,142.167 402.5,142.833 403.5,143.5C 403.5,148.167 403.5,152.833 403.5,157.5C 386.167,157.5 368.833,157.5 351.5,157.5C 351.5,159.167 351.5,160.833 351.5,162.5C 350.523,159.713 350.19,156.713 350.5,153.5C 353.141,154.263 355.808,154.43 358.5,154C 360.186,148.167 357.853,145.334 351.5,145.5C 351.5,144.5 351.5,143.5 351.5,142.5C 368.009,142.83 384.342,142.496 400.5,141.5 Z"/></g>
<g><path style="opacity:1" fill="#2d2a3c" d="M 375.5,144.5 C 380.709,144.369 382.375,146.703 380.5,151.5C 376.789,152.54 373.122,153.373 369.5,154C 367.675,152.534 367.175,150.701 368,148.5C 370.255,146.501 372.755,145.168 375.5,144.5 Z"/></g>
<g><path style="opacity:1" fill="#737ad6" d="M 235.5,153.5 C 237.305,154.237 238.971,155.237 240.5,156.5C 241.183,156.137 241.85,155.804 242.5,155.5C 240.243,161.689 241.576,166.856 246.5,171C 251.82,172.257 256.487,171.09 260.5,167.5C 261.916,169.179 263.25,170.846 264.5,172.5C 258.509,177.427 253.175,183.093 248.5,189.5C 243.201,186.556 237.867,183.556 232.5,180.5C 231.548,178.955 231.215,177.288 231.5,175.5C 231.443,167.796 232.776,160.463 235.5,153.5 Z"/></g>
<g><path style="opacity:1" fill="#797fd8" d="M 77.5,134.5 C 77.599,149.691 81.599,163.691 89.5,176.5C 76.5784,181.696 63.5784,186.696 50.5,191.5C 36.6762,182.352 27.0095,170.019 21.5,154.5C 23.5,153.833 25.5,153.167 27.5,152.5C 28.7399,155.024 29.9066,157.691 31,160.5C 36.1605,169.606 43.1605,171.606 52,166.5C 55.0696,159.28 55.2363,151.946 52.5,144.5C 60.4097,140.412 68.743,137.079 77.5,134.5 Z"/></g>
<g><path style="opacity:1" fill="#502a43" d="M 437.5,164.5 C 446.214,164.46 453.714,167.46 460,173.5C 461.685,179.261 463.685,184.928 466,190.5C 470.853,194.263 475.52,198.263 480,202.5C 480.862,204.087 481.529,205.754 482,207.5C 482.138,213.581 482.804,219.581 484,225.5C 487,229.833 490,234.167 493,238.5C 495.28,250.112 490.78,257.612 479.5,261C 475.514,261.499 471.514,261.666 467.5,261.5C 464.408,243.97 455.741,229.97 441.5,219.5C 435.774,209.082 427.441,206.082 416.5,210.5C 412.574,200.959 410.574,190.959 410.5,180.5C 422.854,180.501 431.854,175.168 437.5,164.5 Z"/></g>
<g><path style="opacity:1" fill="#f7cac8" d="M 403.5,157.5 C 400.176,173.997 390.343,184.664 374,189.5C 360.853,185.206 353.353,176.206 351.5,162.5C 351.5,160.833 351.5,159.167 351.5,157.5C 368.833,157.5 386.167,157.5 403.5,157.5 Z"/></g>
<g><path style="opacity:1" fill="#28283b" d="M 279.5,180.5 C 279.537,189.559 277.037,197.892 272,205.5C 269.667,208.833 267.333,212.167 265,215.5C 255.636,223.442 248.636,221.775 244,210.5C 242.386,202.755 243.886,195.755 248.5,189.5C 253.175,183.093 258.509,177.427 264.5,172.5C 272.161,170.164 277.161,172.831 279.5,180.5 Z"/></g>
<g><path style="opacity:1" fill="#f2f2f3" d="M 267.5,179.5 C 270.585,179.418 272.252,180.918 272.5,184C 269.847,194.642 264.847,203.975 257.5,212C 252.83,212.501 250.497,210.334 250.5,205.5C 253.154,194.857 258.821,186.191 267.5,179.5 Z"/></g>
<g><path style="opacity:1" fill="#d27480" d="M 403.5,190.5 C 398.787,194.525 393.454,197.525 387.5,199.5C 387.187,196.753 387.52,194.086 388.5,191.5C 393.459,188.432 397.959,184.765 402,180.5C 402.455,183.854 402.955,187.187 403.5,190.5 Z"/></g>
<g><path style="opacity:1" fill="#8088d9" d="M 89.5,176.5 C 94.9154,181.579 99.582,187.246 103.5,193.5C 92.3742,198.062 81.0409,202.062 69.5,205.5C 63.1667,200.833 56.8333,196.167 50.5,191.5C 63.5784,186.696 76.5784,181.696 89.5,176.5 Z"/></g>
<g><path style="opacity:1" fill="#868ed8" d="M 103.5,193.5 C 108.118,199.067 111.452,205.4 113.5,212.5C 104.565,214.979 95.8985,217.979 87.5,221.5C 81.177,216.509 75.177,211.176 69.5,205.5C 81.0409,202.062 92.3742,198.062 103.5,193.5 Z"/></g>
<g><path style="opacity:1" fill="#f5c5c4" d="M 403.5,190.5 C 404.574,197.538 405.907,204.538 407.5,211.5C 401.021,212.491 394.354,212.824 387.5,212.5C 387.5,211.167 387.5,209.833 387.5,208.5C 387.5,205.5 387.5,202.5 387.5,199.5C 393.454,197.525 398.787,194.525 403.5,190.5 Z"/></g>
<g><path style="opacity:1" fill="#7b83d6" d="M 231.5,175.5 C 231.215,177.288 231.548,178.955 232.5,180.5C 237.867,183.556 243.201,186.556 248.5,189.5C 243.886,195.755 242.386,202.755 244,210.5C 248.636,221.775 255.636,223.442 265,215.5C 267.333,212.167 269.667,208.833 272,205.5C 277.037,197.892 279.537,189.559 279.5,180.5C 282.339,182.42 285.339,184.087 288.5,185.5C 283.388,209.745 270.388,228.412 249.5,241.5C 242.291,235.211 234.291,229.878 225.5,225.5C 228.919,208.89 230.919,192.223 231.5,175.5 Z"/></g>
<g><path style="opacity:1" fill="#f37a56" d="M 427.5,216.5 C 431.609,218.113 434.109,221.113 435,225.5C 437.033,253.447 435.199,281.114 429.5,308.5C 429.167,309.167 428.833,309.833 428.5,310.5C 420.324,307.673 413.491,303.006 408,296.5C 405.109,291.501 404.109,286.167 405,280.5C 410.492,266.194 414.658,251.527 417.5,236.5C 418.479,239.625 418.813,242.958 418.5,246.5C 417.958,259.964 416.291,273.297 413.5,286.5C 415.171,292.665 417.671,292.999 421,287.5C 425.438,266.727 427.271,245.727 426.5,224.5C 426.194,221.615 426.527,218.948 427.5,216.5 Z"/></g>
<g><path style="opacity:1" fill="#a4adf4" d="M 191.5,164.5 C 191.334,183.676 191.667,202.842 192.5,222C 192.549,227.233 192.049,232.4 191,237.5C 190.667,237.833 190.333,238.167 190,238.5C 189.364,228.529 184.198,224.695 174.5,227C 171.43,229.427 169.596,232.594 169,236.5C 167.496,243.846 165.996,251.18 164.5,258.5C 159.167,258.5 153.833,258.5 148.5,258.5C 147.017,232.945 142.684,207.945 135.5,183.5C 140.167,183.5 144.833,183.5 149.5,183.5C 148.924,194.451 151.091,204.784 156,214.5C 159.9,219.533 164.733,220.7 170.5,218C 176.134,212.797 179.301,206.297 180,198.5C 180.5,187.839 180.667,177.172 180.5,166.5C 181.489,171.975 181.822,177.642 181.5,183.5C 184.5,183.5 187.5,183.5 190.5,183.5C 190.177,176.978 190.51,170.645 191.5,164.5 Z"/></g>
<g><path style="opacity:1" fill="#262639" d="M 43.5,220.5 C 49.7351,220.641 55.4018,222.474 60.5,226C 64,229.5 67.5,233 71,236.5C 77.0492,247.323 82.7158,258.323 88,269.5C 97.6039,277.772 107.771,285.272 118.5,292C 125.161,297.162 129.995,303.662 133,311.5C 133.978,314.669 133.478,317.503 131.5,320C 130.167,320.667 128.833,320.667 127.5,320C 121.03,314.874 114.03,310.541 106.5,307C 88.6965,301.511 71.3631,294.844 54.5,287C 43.2287,280.396 34.7287,271.229 29,259.5C 26.27,248.322 27.6033,237.655 33,227.5C 35.7008,223.748 39.2008,221.415 43.5,220.5 Z"/></g>
<g><path style="opacity:1" fill="#f5b9b8" d="M 387.5,208.5 C 387.5,209.833 387.5,211.167 387.5,212.5C 394.354,212.824 401.021,212.491 407.5,211.5C 412.351,216.243 413.685,221.91 411.5,228.5C 406.579,229.142 401.579,229.475 396.5,229.5C 391.449,229.493 386.783,228.827 382.5,227.5C 384.308,221.093 385.975,214.759 387.5,208.5 Z"/></g>
<g><path style="opacity:1" fill="#804c44" d="M 427.5,216.5 C 426.527,218.948 426.194,221.615 426.5,224.5C 425.197,221.645 425.197,218.645 426.5,215.5C 427.107,215.624 427.44,215.957 427.5,216.5 Z"/></g>
<g><path style="opacity:1" fill="#8a93d6" d="M 113.5,212.5 C 118.405,226.329 120.072,240.496 118.5,255C 116.559,255.743 114.726,255.576 113,254.5C 105.459,242.748 96.959,231.748 87.5,221.5C 95.8985,217.979 104.565,214.979 113.5,212.5 Z"/></g>
<g><path style="opacity:1" fill="#858ed6" d="M 225.5,225.5 C 234.291,229.878 242.291,235.211 249.5,241.5C 229.042,250.818 210.875,263.485 195,279.5C 195.721,276.377 197.054,273.377 199,270.5C 209.399,256.36 218.233,241.36 225.5,225.5 Z"/></g>
<g><path style="opacity:1" fill="#f4c8c7" d="M 278.5,373.5 C 275.167,368.5 271.833,363.5 268.5,358.5C 270.783,355.044 273.283,351.71 276,348.5C 283,342.167 290,335.833 297,329.5C 310.88,304.738 322.88,279.071 333,252.5C 336.412,245.342 340.078,238.342 344,231.5C 348.078,225.782 353.411,223.782 360,225.5C 357.813,236.88 353.146,247.213 346,256.5C 335.339,266.496 327.005,278.163 321,291.5C 319.473,297.415 319.139,303.415 320,309.5C 320.806,312.446 322.139,315.112 324,317.5C 324.667,318.5 324.667,319.5 324,320.5C 313.57,332.26 303.904,344.593 295,357.5C 290.051,362.571 285.217,367.738 280.5,373C 279.906,373.464 279.239,373.631 278.5,373.5 Z"/></g>
<g><path style="opacity:1" fill="#f4afab" d="M 382.5,227.5 C 386.783,228.827 391.449,229.493 396.5,229.5C 401.579,229.475 406.579,229.142 411.5,228.5C 409.866,236.959 407.866,245.292 405.5,253.5C 399.866,254.188 394.199,254.688 388.5,255C 386.714,255.785 385.214,256.951 384,258.5C 380.555,252.658 379.055,246.324 379.5,239.5C 379.584,235.163 380.584,231.163 382.5,227.5 Z"/></g>
<g><path style="opacity:1" fill="#252437" d="M 296.5,238.5 C 301.494,238.329 303.328,240.662 302,245.5C 292.78,254.2 282.28,261.034 270.5,266C 257.335,271.278 244.335,276.944 231.5,283C 219.078,289.255 209.412,298.422 202.5,310.5C 197.038,312.208 194.872,310.208 196,304.5C 205.047,289.793 217.547,278.959 233.5,272C 248.618,265.608 263.618,258.941 278.5,252C 284.967,248.021 290.967,243.521 296.5,238.5 Z"/></g>
<g><path style="opacity:1" fill="#a1acf7" d="M 72.5,257.5 C 61.5,258.833 50.5,260.167 39.5,261.5C 34.3587,252.4 34.192,243.067 39,233.5C 43.6159,228.696 48.7826,228.196 54.5,232C 63.0876,238.676 69.0876,247.176 72.5,257.5 Z"/></g>
<g><path style="opacity:1" fill="#7c4b43" d="M 418.5,246.5 C 418.813,242.958 418.479,239.625 417.5,236.5C 417.491,234.692 417.991,233.025 419,231.5C 419.816,236.684 419.65,241.684 418.5,246.5 Z"/></g>
<g><path style="opacity:1" fill="#d57581" d="M 379.5,239.5 C 379.055,246.324 380.555,252.658 384,258.5C 385.214,256.951 386.714,255.785 388.5,255C 394.199,254.688 399.866,254.188 405.5,253.5C 404.399,258.167 403.232,262.834 402,267.5C 396.321,259.977 390.154,259.643 383.5,266.5C 376.918,258.251 375.584,249.251 379.5,239.5 Z"/></g>
<g><path style="opacity:1" fill="#9da4f6" d="M 148.5,258.5 C 153.833,258.5 159.167,258.5 164.5,258.5C 163.303,275.835 162.303,293.168 161.5,310.5C 160.178,310.67 159.011,310.337 158,309.5C 152.896,292.881 149.73,275.881 148.5,258.5 Z"/></g>
<g><path style="opacity:1" fill="#9ea5f6" d="M 72.5,257.5 C 75.0101,264.844 78.8434,271.511 84,277.5C 93.4118,284.456 102.912,291.289 112.5,298C 113.833,299.333 115.167,300.667 116.5,302C 101.698,296.508 86.698,291.174 71.5,286C 62.3377,282.258 54.0044,277.258 46.5,271C 43.9491,267.956 41.6158,264.789 39.5,261.5C 50.5,260.167 61.5,258.833 72.5,257.5 Z"/></g>
<g><path style="opacity:1" fill="#e0e5f6" d="M 361.5,279.5 C 351.924,281.935 342.424,284.602 333,287.5C 332.601,287.272 332.435,286.938 332.5,286.5C 334.055,283.06 335.888,279.727 338,276.5C 352.894,262.721 363.228,246.055 369,226.5C 370.571,224.077 372.737,222.744 375.5,222.5C 372.256,231.867 370.59,241.533 370.5,251.5C 362.252,251.915 358.418,256.249 359,264.5C 362.28,269.149 363.114,274.149 361.5,279.5 Z"/></g>
<g><path style="opacity:1" fill="#252437" d="M 22.5,273.5 C 28.9889,273.156 30.9889,275.99 28.5,282C 20.749,283.091 18.749,280.258 22.5,273.5 Z"/></g>
<g><path style="opacity:1" fill="#d6def7" d="M 361.5,279.5 C 361.386,285.376 362.386,291.042 364.5,296.5C 352.167,299.833 339.833,303.167 327.5,306.5C 325.851,299.095 327.517,292.428 332.5,286.5C 332.435,286.938 332.601,287.272 333,287.5C 342.424,284.602 351.924,281.935 361.5,279.5 Z"/></g>
<g><path style="opacity:1" fill="#f0ada9" d="M 418.5,314.5 C 414.21,316.79 410.877,320.123 408.5,324.5C 399.577,315.743 389.91,307.909 379.5,301C 375.053,297.743 372.053,293.576 370.5,288.5C 372.199,288.66 373.866,288.494 375.5,288C 376.081,287.107 376.415,286.107 376.5,285C 373.478,277.787 370.311,270.62 367,263.5C 366.955,259.176 368.621,258.51 372,261.5C 375.382,269.104 379.882,275.938 385.5,282C 387.701,282.825 389.534,282.325 391,280.5C 391.499,276.848 391.665,273.182 391.5,269.5C 394.05,269.561 395.55,270.894 396,273.5C 394.171,292.524 401.671,306.19 418.5,314.5 Z"/></g>
<g><path style="opacity:1" fill="#252437" d="M 35.5,289.5 C 40.5659,291.539 45.2325,294.373 49.5,298C 52.8333,299.667 56.1667,301.333 59.5,303C 74.9,306.747 90.2334,310.747 105.5,315C 108.667,316.833 111.833,318.667 115,320.5C 116.833,326.667 114.667,328.833 108.5,327C 103.615,323.703 98.2817,321.369 92.5,320C 76.019,317.964 60.3524,313.298 45.5,306C 40.3075,303.306 36.3075,299.472 33.5,294.5C 33.4365,292.486 34.1032,290.819 35.5,289.5 Z"/></g>
<g><path style="opacity:1" fill="#be4c5c" d="M 259.5,301.5 C 258.448,301.351 257.448,301.517 256.5,302C 242.206,316.47 227.206,329.97 211.5,342.5C 209.554,341.746 208.721,340.412 209,338.5C 225.667,321.833 242.333,305.167 259,288.5C 261.167,290.667 263.333,292.833 265.5,295C 263.294,297.037 261.294,299.203 259.5,301.5 Z"/></g>
<g><path style="opacity:1" fill="#a84658" d="M 259.5,301.5 C 244.854,316.812 229.854,331.812 214.5,346.5C 213.476,345.148 212.476,343.815 211.5,342.5C 227.206,329.97 242.206,316.47 256.5,302C 257.448,301.517 258.448,301.351 259.5,301.5 Z"/></g>
<g><path style="opacity:1" fill="#cbd5f7" d="M 364.5,296.5 C 365.906,296.973 366.573,297.973 366.5,299.5C 368.852,304.696 371.852,309.53 375.5,314C 369.042,323.958 361.042,332.458 351.5,339.5C 351.5,336.167 351.5,332.833 351.5,329.5C 354.187,329.664 356.854,329.497 359.5,329C 361.62,327.477 361.953,325.644 360.5,323.5C 349.614,323.815 339.781,320.815 331,314.5C 329.007,312.182 327.841,309.516 327.5,306.5C 339.833,303.167 352.167,299.833 364.5,296.5 Z"/></g>
<g><path style="opacity:1" fill="#ca4050" d="M 393.5,335.5 C 390.391,331.603 387.057,327.936 383.5,324.5C 384.786,321.883 386.453,319.55 388.5,317.5C 392.106,319.603 395.273,322.269 398,325.5C 397.867,329.434 396.367,332.767 393.5,335.5 Z"/></g>
<g><path style="opacity:1" fill="#f6c8c7" d="M 408.5,324.5 C 410.877,320.123 414.21,316.79 418.5,314.5C 428.141,318.652 437.807,322.819 447.5,327C 453.252,330.252 458.585,334.085 463.5,338.5C 465.717,337.783 467.051,336.283 467.5,334C 466.224,331.719 464.557,329.719 462.5,328C 458.912,325.623 455.412,323.123 452,320.5C 449.068,308.374 445.735,296.374 442,284.5C 442.928,266.875 443.595,249.208 444,231.5C 454.067,242.97 460.4,256.304 463,271.5C 467.657,301.04 471.49,330.706 474.5,360.5C 474.351,367.154 471.018,369.32 464.5,367C 443.377,356.041 424.711,341.874 408.5,324.5 Z"/></g>
<g><path style="opacity:1" fill="#7783b9" d="M 366.5,299.5 C 371.322,304.072 376.322,308.405 381.5,312.5C 373.381,326.952 363.715,340.286 352.5,352.5C 351.508,348.217 351.174,343.884 351.5,339.5C 361.042,332.458 369.042,323.958 375.5,314C 371.852,309.53 368.852,304.696 366.5,299.5 Z"/></g>
<g><path style="opacity:1" fill="#c63d50" d="M 412.5,353.5 C 408.167,349.5 403.833,345.5 399.5,341.5C 400.735,338.699 402.235,336.032 404,333.5C 404.718,332.549 405.551,332.383 406.5,333C 410.016,336.349 413.349,339.849 416.5,343.5C 415.151,346.859 413.818,350.192 412.5,353.5 Z"/></g>
<g><path style="opacity:1" fill="#cd5e6c" d="M 179.5,349.5 C 174.803,351.178 170.803,353.844 167.5,357.5C 165.967,355.645 164.3,353.812 162.5,352C 161.167,351.333 159.833,351.333 158.5,352C 154.124,357.264 150.124,362.764 146.5,368.5C 140.627,371.931 134.96,375.598 129.5,379.5C 127.167,379.5 124.833,379.5 122.5,379.5C 122.5,373.833 122.5,368.167 122.5,362.5C 135.833,363.167 142.167,356.833 141.5,343.5C 154.167,343.5 166.833,343.5 179.5,343.5C 179.5,345.5 179.5,347.5 179.5,349.5 Z"/></g>
<g><path style="opacity:1" fill="#f7d970" d="M 122.5,343.5 C 126.167,343.5 129.833,343.5 133.5,343.5C 134.833,352.167 131.167,355.833 122.5,354.5C 122.5,350.833 122.5,347.167 122.5,343.5 Z"/></g>
<g><path style="opacity:1" fill="#f8bb5c" d="M 187.5,343.5 C 191.167,343.5 194.833,343.5 198.5,343.5C 198.5,347.167 198.5,350.833 198.5,354.5C 189.833,355.833 186.167,352.167 187.5,343.5 Z"/></g>
<g><path style="opacity:1" fill="#bd3e4f" d="M 425.5,379.5 C 426.107,371.98 423.774,365.647 418.5,360.5C 419.502,356.33 421.002,352.33 423,348.5C 423.689,349.357 424.522,350.023 425.5,350.5C 426.823,360.325 426.823,369.992 425.5,379.5 Z"/></g>
<g><path style="opacity:1" fill="#f66f56" d="M 383.5,324.5 C 387.057,327.936 390.391,331.603 393.5,335.5C 377.804,362.026 356.304,382.693 329,397.5C 328.133,393.044 328.466,388.711 330,384.5C 350.895,367.112 368.728,347.112 383.5,324.5 Z"/></g>
<g><path style="opacity:1" fill="#292638" d="M 167.5,357.5 C 170.04,361.543 172.373,365.709 174.5,370C 171.28,377.102 167.28,383.769 162.5,390C 159.682,390.84 157.516,390.006 156,387.5C 153.584,382.999 150.917,378.666 148,374.5C 146.872,372.655 146.372,370.655 146.5,368.5C 150.124,362.764 154.124,357.264 158.5,352C 159.833,351.333 161.167,351.333 162.5,352C 164.3,353.812 165.967,355.645 167.5,357.5 Z"/></g>
<g><path style="opacity:1" fill="#f76f56" d="M 399.5,341.5 C 403.833,345.5 408.167,349.5 412.5,353.5C 407.062,368.376 400.062,382.376 391.5,395.5C 379.769,393.823 368.103,391.823 356.5,389.5C 373.684,375.987 388.017,359.987 399.5,341.5 Z"/></g>
<g><path style="opacity:1" fill="#eeb75c" d="M 159.5,362.5 C 160.496,362.414 161.329,362.748 162,363.5C 163.377,365.754 164.877,367.92 166.5,370C 164.698,373.3 162.698,376.467 160.5,379.5C 158.5,376.5 156.5,373.5 154.5,370.5C 156.178,367.805 157.844,365.139 159.5,362.5 Z"/></g>
<g><path style="opacity:1" fill="#6d3243" d="M 435.5,361.5 C 434.833,367.167 434.167,372.833 433.5,378.5C 433.334,372.158 433.5,365.825 434,359.5C 434.717,360.044 435.217,360.711 435.5,361.5 Z"/></g>
<g><path style="opacity:1" fill="#be4e5e" d="M 179.5,349.5 C 181.837,359.512 188.17,363.845 198.5,362.5C 198.5,368.167 198.5,373.833 198.5,379.5C 185.146,378.854 178.813,385.187 179.5,398.5C 166.833,398.5 154.167,398.5 141.5,398.5C 142.35,389.031 138.35,382.698 129.5,379.5C 134.96,375.598 140.627,371.931 146.5,368.5C 146.372,370.655 146.872,372.655 148,374.5C 150.917,378.666 153.584,382.999 156,387.5C 157.516,390.006 159.682,390.84 162.5,390C 167.28,383.769 171.28,377.102 174.5,370C 172.373,365.709 170.04,361.543 167.5,357.5C 170.803,353.844 174.803,351.178 179.5,349.5 Z"/></g>
<g><path style="opacity:1" fill="#f5b8b5" d="M 268.5,358.5 C 271.833,363.5 275.167,368.5 278.5,373.5C 261.02,390.586 241.353,404.752 219.5,416C 204.589,420.162 189.589,420.495 174.5,417C 171.088,415.545 167.921,413.712 165,411.5C 164.28,409.888 164.446,408.388 165.5,407C 180.167,406.667 194.833,406.333 209.5,406C 214.021,405.271 218.354,403.937 222.5,402C 239.621,389.378 254.955,374.878 268.5,358.5 Z"/></g>
<g><path style="opacity:1" fill="#f7ad50" d="M 190.5,387.5 C 193.167,387.5 195.833,387.5 198.5,387.5C 198.5,391.167 198.5,394.833 198.5,398.5C 194.833,398.5 191.167,398.5 187.5,398.5C 186.807,394.247 187.807,390.581 190.5,387.5 Z"/></g>
<g><path style="opacity:1" fill="#f7be5d" d="M 122.5,387.5 C 131.167,386.167 134.833,389.833 133.5,398.5C 129.833,398.5 126.167,398.5 122.5,398.5C 122.5,394.833 122.5,391.167 122.5,387.5 Z"/></g>
<g><path style="opacity:1" fill="#f86956" d="M 356.5,389.5 C 368.103,391.823 379.769,393.823 391.5,395.5C 373.07,429.438 347.737,457.272 315.5,479C 309.509,479.499 303.509,479.666 297.5,479.5C 300.565,451.877 310.899,427.377 328.5,406C 338.355,401.245 347.688,395.745 356.5,389.5 Z"/></g>
<g><path style="opacity:1" fill="#f76a56" d="M 418.5,360.5 C 423.774,365.647 426.107,371.98 425.5,379.5C 424.897,406.272 417.064,430.606 402,452.5C 400.167,454.333 398.333,456.167 396.5,458C 376.025,468.623 354.358,474.957 331.5,477C 370.577,445.673 399.577,406.839 418.5,360.5 Z"/></g>
<g><path style="opacity:1" fill="#b53a50" d="M 435.5,361.5 C 441.45,374.462 445.783,387.962 448.5,402C 446.211,407.413 443.544,412.58 440.5,417.5C 437.053,417.186 433.72,416.352 430.5,415C 429.62,413.644 429.286,412.144 429.5,410.5C 431.744,399.948 433.077,389.281 433.5,378.5C 434.167,372.833 434.833,367.167 435.5,361.5 Z"/></g>
<g><path style="opacity:1" fill="#a6374f" d="M 429.5,410.5 C 429.286,412.144 429.62,413.644 430.5,415C 433.72,416.352 437.053,417.186 440.5,417.5C 433.937,427.566 426.104,436.566 417,444.5C 422.041,433.548 426.208,422.215 429.5,410.5 Z"/></g>
</svg>
