<?xml version="1.0" encoding="UTF-8"?>
<!DOCTYPE svg PUBLIC "-//W3C//DTD SVG 1.1//EN" "http://www.w3.org/Graphics/SVG/1.1/DTD/svg11.dtd">
<svg xmlns="http://www.w3.org/2000/svg" version="1.1" width="512px" height="512px" style="shape-rendering:geometricPrecision; text-rendering:geometricPrecision; image-rendering:optimizeQuality; fill-rule:evenodd; clip-rule:evenodd" xmlns:xlink="http://www.w3.org/1999/xlink">
<g><path style="opacity:1" fill="#282638" d="M 107.5,8.5 C 119.732,8.48559 131.732,10.1523 143.5,13.5C 148.517,12.4397 153.517,11.273 158.5,10C 163.833,9.33333 169.167,9.33333 174.5,10C 176.396,11.8083 176.896,13.975 176,16.5C 171.833,19.3333 167.667,22.1667 163.5,25C 159.8,29.0352 155.8,32.7019 151.5,36C 145.321,37.6695 139.154,37.5028 133,35.5C 124.969,36.1901 119.969,40.5234 118,48.5C 117.2,55.2632 117.7,61.9299 119.5,68.5C 119.213,71.8655 118.046,74.8655 116,77.5C 112.638,79.35 109.638,81.6833 107,84.5C 101.011,101.084 89.1772,109.75 71.5,110.5C 71.6427,112.262 71.3094,113.929 70.5,115.5C 85.5176,115.878 92.5176,123.544 91.5,138.5C 91.8082,144.306 90.4749,149.64 87.5,154.5C 96.8159,164.983 106.316,175.317 116,185.5C 119.56,190.284 121.727,195.617 122.5,201.5C 142.912,199.177 161.912,203.177 179.5,213.5C 184.668,211.433 190.002,209.933 195.5,209C 198.128,205.853 201.462,204.02 205.5,203.5C 205.666,195.16 205.5,186.827 205,178.5C 200.475,173.948 197.975,168.448 197.5,162C 199.378,148.584 204.044,136.25 211.5,125C 214.742,124.014 217.408,124.848 219.5,127.5C 222.353,123.813 225.686,120.647 229.5,118C 239.048,113.392 248.715,109.059 258.5,105C 262.358,102.642 265.358,99.4752 267.5,95.5C 269.421,94.359 271.421,94.1923 273.5,95C 275.643,97.7578 276.81,100.924 277,104.5C 277.246,108.62 277.412,112.62 277.5,116.5C 284.999,117.916 291.332,121.416 296.5,127C 301.522,129.857 306.522,129.524 311.5,126C 313.5,124 315.5,122 317.5,120C 319.441,119.257 321.274,119.424 323,120.5C 325.822,130.39 324.655,139.723 319.5,148.5C 325.256,152.75 330.589,157.584 335.5,163C 337.167,163.667 338.833,163.667 340.5,163C 343.699,159.434 346.533,155.6 349,151.5C 354.674,139.132 360.341,126.799 366,114.5C 377.455,103.384 387.789,91.3845 397,78.5C 406.463,54.3836 421.963,35.2169 443.5,21C 460.031,11.2229 477.531,8.05625 496,11.5C 496.743,13.4406 496.576,15.2739 495.5,17C 467.756,28.5913 447.923,48.0913 436,75.5C 434.933,90.6352 438.933,104.302 448,116.5C 460.212,127.996 464.045,141.996 459.5,158.5C 458.647,163.245 457.48,167.912 456,172.5C 445.539,176.963 438.539,184.63 435,195.5C 430.869,205.224 429.535,215.224 431,225.5C 431.667,226.167 432.333,226.833 433,227.5C 444.597,222.574 453.764,214.74 460.5,204C 464.771,202.487 467.105,203.987 467.5,208.5C 464.323,227.228 460.823,245.895 457,264.5C 449.925,299.531 431.758,327.031 402.5,347C 408.06,356.4 411.226,366.567 412,377.5C 412.989,399.909 412.156,422.243 409.5,444.5C 416.791,459.281 418.291,474.614 414,490.5C 411.392,498.811 405.892,502.644 397.5,502C 391.828,499.305 389.828,494.971 391.5,489C 390.867,485.633 389.7,482.467 388,479.5C 383.122,484.767 378.122,484.767 373,479.5C 370.224,468.808 371.89,458.808 378,449.5C 378.667,447.5 378.667,445.5 378,443.5C 368.886,423.042 362.886,401.709 360,379.5C 354.92,375.091 350.586,370.091 347,364.5C 329.079,369.286 314.079,378.619 302,392.5C 301.501,396.486 301.334,400.486 301.5,404.5C 312.675,406.49 317.175,413.156 315,424.5C 304.758,449.409 287.591,467.909 263.5,480C 241.25,490.938 217.75,497.438 193,499.5C 178.334,495.819 170.501,486.319 169.5,471C 170.406,466.853 170.573,462.686 170,458.5C 163.798,449.347 164.131,440.347 171,431.5C 173.333,429.5 175.667,427.5 178,425.5C 178.667,416.833 178.667,408.167 178,399.5C 176.764,397.462 174.931,396.295 172.5,396C 167.523,390.912 165.19,384.746 165.5,377.5C 166.53,373.535 166.697,369.535 166,365.5C 162.567,360.403 159.567,355.069 157,349.5C 156.333,346.167 156.333,342.833 157,339.5C 158.449,336.268 159.616,332.935 160.5,329.5C 153.896,318.478 153.896,307.478 160.5,296.5C 157.333,288.336 152.333,281.502 145.5,276C 127.834,266.998 111.834,255.665 97.5,242C 86.9345,239.767 79.7678,233.6 76,223.5C 72.9511,214.401 69.6178,205.401 66,196.5C 64.2396,204.3 59.4063,207.466 51.5,206C 49.1523,205.654 47.3189,204.487 46,202.5C 44.2991,194.629 43.4657,186.629 43.5,178.5C 29.2811,178.424 23.9478,171.424 27.5,157.5C 24.6502,151.471 24.9836,145.638 28.5,140C 22.5812,126.506 26.9145,118.506 41.5,116C 40.8875,113.853 40.2208,111.686 39.5,109.5C 20.8283,103.499 13.495,90.832 17.5,71.5C 12.0846,57.1284 13.9179,43.795 23,31.5C 28.9818,24.1823 36.1485,18.3489 44.5,14C 51.0488,11.2512 57.7155,10.5845 64.5,12C 68.9659,15.0985 70.4659,19.2652 69,24.5C 62.374,32.2437 63.2073,39.077 71.5,45C 77.7468,47.9186 82.9135,46.752 87,41.5C 88.6323,36.9704 89.6323,32.3038 90,27.5C 92.6695,18.0987 98.5028,11.7654 107.5,8.5 Z"/></g>
<g><path style="opacity:1" fill="#252537" d="M 188.5,9.5 C 192.007,8.99353 195.174,9.66019 198,11.5C 199.411,16.2637 197.578,18.5971 192.5,18.5C 186.999,17.1747 185.666,14.1747 188.5,9.5 Z"/></g>
<g><path style="opacity:1" fill="#f6966f" d="M 108.5,17.5 C 111.518,17.3354 114.518,17.502 117.5,18C 120.769,21.7795 124.436,24.9461 128.5,27.5C 120.431,29.2345 114.764,33.9012 111.5,41.5C 106.555,38.1888 102.222,34.1888 98.5,29.5C 99.4917,23.5003 102.825,19.5003 108.5,17.5 Z"/></g>
<g><path style="opacity:1" fill="#ed9e6c" d="M 108.5,17.5 C 111.976,16.3567 115.642,16.1901 119.5,17C 127.489,18.6087 135.489,20.1087 143.5,21.5C 148.538,20.5332 153.538,19.6999 158.5,19C 154.5,22.3333 150.5,25.6667 146.5,29C 140.647,27.8456 134.647,27.3456 128.5,27.5C 124.436,24.9461 120.769,21.7795 117.5,18C 114.518,17.502 111.518,17.3354 108.5,17.5 Z"/></g>
<g><path style="opacity:1" fill="#f66856" d="M 413.5,184.5 C 405.541,178.38 397.708,172.046 390,165.5C 389.617,166.056 389.117,166.389 388.5,166.5C 393.31,156.153 394.977,145.486 393.5,134.5C 395.991,104.859 405.158,77.5256 421,52.5C 434.128,34.353 451.628,23.1863 473.5,19C 446.443,35.6154 429.609,59.4487 423,90.5C 417.634,121.832 414.467,153.165 413.5,184.5 Z"/></g>
<g><path style="opacity:1" fill="#f77d69" d="M 90.5,50.5 C 94.625,53.4526 98.625,56.6193 102.5,60C 106.214,62.8576 108.88,66.3576 110.5,70.5C 104.81,73.8583 100.477,78.525 97.5,84.5C 77.1291,66.127 56.4625,48.127 35.5,30.5C 42.283,22.567 50.9496,18.9003 61.5,19.5C 52.5495,34.4877 55.8829,45.9877 71.5,54C 78.4423,55.4904 84.7756,54.3237 90.5,50.5 Z"/></g>
<g><path style="opacity:1" fill="#f87569" d="M 35.5,30.5 C 56.4625,48.127 77.1291,66.127 97.5,84.5C 96.5043,88.5006 94.5043,91.8339 91.5,94.5C 90.1177,91.6057 88.1177,89.1057 85.5,87C 67.8333,71.3333 50.1667,55.6667 32.5,40C 31.255,39.2086 29.9217,38.7086 28.5,38.5C 30.8432,35.7928 33.1765,33.1261 35.5,30.5 Z"/></g>
<g><path style="opacity:1" fill="#f86e69" d="M 28.5,38.5 C 29.9217,38.7086 31.255,39.2086 32.5,40C 50.1667,55.6667 67.8333,71.3333 85.5,87C 88.1177,89.1057 90.1177,91.6057 91.5,94.5C 86.0599,99.0469 79.7266,101.714 72.5,102.5C 73.2525,92.9983 69.5858,85.9983 61.5,81.5C 63.8418,81.2252 63.8418,80.3919 61.5,79C 49.1351,68.1591 36.8018,57.3257 24.5,46.5C 25.3084,43.5498 26.6418,40.8831 28.5,38.5 Z"/></g>
<g><path style="opacity:1" fill="#f28769" d="M 98.5,29.5 C 102.222,34.1888 106.555,38.1888 111.5,41.5C 108.904,50.4361 108.904,59.4361 111.5,68.5C 111.457,69.4164 111.124,70.0831 110.5,70.5C 108.88,66.3576 106.214,62.8576 102.5,60C 98.625,56.6193 94.625,53.4526 90.5,50.5C 95.1513,44.2033 97.818,37.2033 98.5,29.5 Z"/></g>
<g><path style="opacity:1" fill="#f86769" d="M 24.5,46.5 C 36.8018,57.3257 49.1351,68.1591 61.5,79C 63.8418,80.3919 63.8418,81.2252 61.5,81.5C 53.0596,79.7199 46.3929,82.3865 41.5,89.5C 35.8394,85.1705 30.5061,80.5038 25.5,75.5C 25.6653,71.8183 25.4986,68.1516 25,64.5C 22.0353,58.4248 21.8687,52.4248 24.5,46.5 Z"/></g>
<g><path style="opacity:1" fill="#f55b68" d="M 25.5,75.5 C 30.5061,80.5038 35.8394,85.1705 41.5,89.5C 40.7564,93.1185 40.423,96.7852 40.5,100.5C 30.1252,98.2981 24.7919,91.7981 24.5,81C 24.5811,79.0762 24.9144,77.2429 25.5,75.5 Z"/></g>
<g><path style="opacity:1" fill="#f66856" d="M 378.5,157.5 C 378.141,155.629 377.141,154.129 375.5,153C 371.462,149.326 367.129,146.159 362.5,143.5C 364.782,135.494 367.948,127.827 372,120.5C 378.667,113.167 385.333,105.833 392,98.5C 389.559,111.045 387.226,123.712 385,136.5C 383.763,143.916 381.596,150.916 378.5,157.5 Z"/></g>
<g><path style="opacity:1" fill="#913e5f" d="M 53.5,88.5 C 57.6388,87.7042 60.8055,89.0375 63,92.5C 63.6217,100.852 63.455,109.186 62.5,117.5C 57.8333,117.5 53.1667,117.5 48.5,117.5C 48.3336,109.16 48.5003,100.827 49,92.5C 50.3968,90.9297 51.8968,89.5964 53.5,88.5 Z"/></g>
<g><path style="opacity:1" fill="#50506f" d="M 282.5,155.5 C 262.472,154.846 242.805,155.512 223.5,157.5C 219.504,144.476 222.837,133.643 233.5,125C 241.187,120.883 249.187,117.55 257.5,115C 261.513,112.994 265.18,110.494 268.5,107.5C 269.634,111.637 269.134,115.637 267,119.5C 259.517,124.648 253.85,131.315 250,139.5C 249.182,142.107 248.682,144.774 248.5,147.5C 248.679,153.49 251.179,154.823 256,151.5C 256.239,139.943 261.406,131.443 271.5,126C 279.31,124.381 285.644,126.714 290.5,133C 299.137,139.023 307.637,138.857 316,132.5C 316.268,137.804 314.435,142.304 310.5,146C 299.834,145.499 290.5,148.666 282.5,155.5 Z"/></g>
<g><path style="opacity:1" fill="#d27380" d="M 56.5,124.5 C 60.5839,124.043 64.4172,124.71 68,126.5C 69.818,134.38 66.6514,137.38 58.5,135.5C 60.099,131.428 59.4323,127.761 56.5,124.5 Z"/></g>
<g><path style="opacity:1" fill="#d0717e" d="M 75.5,124.5 C 78.6748,124.84 80.8415,126.507 82,129.5C 82.6667,135.833 82.6667,142.167 82,148.5C 80.5867,150.414 78.7534,151.747 76.5,152.5C 75.957,148.025 74.957,143.692 73.5,139.5C 76.2406,134.732 76.9072,129.732 75.5,124.5 Z"/></g>
<g><path style="opacity:1" fill="#df4450" d="M 431.5,183.5 C 429.02,182.088 426.687,180.422 424.5,178.5C 423.502,169.525 423.168,160.525 423.5,151.5C 424.319,133.982 426.486,116.649 430,99.5C 434.23,111.721 440.896,122.388 450,131.5C 452.431,137.949 453.098,144.615 452,151.5C 451.256,156.552 450.256,161.552 449,166.5C 441.339,170.328 435.506,175.995 431.5,183.5 Z"/></g>
<g><path style="opacity:1" fill="#f4bfbe" d="M 56.5,124.5 C 59.4323,127.761 60.099,131.428 58.5,135.5C 54.7307,135.244 51.0641,135.577 47.5,136.5C 43.1456,135.914 38.8122,135.248 34.5,134.5C 32.67,130.508 33.67,127.342 37.5,125C 43.8246,124.5 50.1579,124.334 56.5,124.5 Z"/></g>
<g><path style="opacity:1" fill="#f76e56" d="M 362.5,143.5 C 367.129,146.159 371.462,149.326 375.5,153C 377.141,154.129 378.141,155.629 378.5,157.5C 374.769,166.634 369.769,174.968 363.5,182.5C 360.833,185.833 357.833,188.833 354.5,191.5C 352.938,191.733 351.605,192.4 350.5,193.5C 345.095,195.879 339.428,196.879 333.5,196.5C 332.5,196.5 331.5,196.5 330.5,196.5C 329.859,195.518 329.193,194.518 328.5,193.5C 340.462,188.374 347.296,179.374 349,166.5C 354.031,159.099 358.531,151.432 362.5,143.5 Z"/></g>
<g><path style="opacity:1" fill="#d47480" d="M 60.5,143.5 C 67.8601,142.547 70.1934,145.547 67.5,152.5C 64.9135,153.48 62.2469,153.813 59.5,153.5C 61.6609,150.358 61.9942,147.025 60.5,143.5 Z"/></g>
<g><path style="opacity:1" fill="#f1adab" d="M 34.5,134.5 C 38.8122,135.248 43.1456,135.914 47.5,136.5C 45.9829,138.936 46.3162,141.102 48.5,143C 52.4862,143.499 56.4862,143.666 60.5,143.5C 61.9942,147.025 61.6609,150.358 59.5,153.5C 55.8183,153.335 52.1516,153.501 48.5,154C 46.8446,155.444 46.178,157.278 46.5,159.5C 43.3875,159.849 40.0542,159.849 36.5,159.5C 35.4278,156.106 34.4278,152.606 33.5,149C 34.4331,145.637 35.7664,142.471 37.5,139.5C 36.9076,137.577 35.9076,135.911 34.5,134.5 Z"/></g>
<g><path style="opacity:1" fill="#4b4b6d" d="M 213.5,137.5 C 214.586,137.62 215.253,138.287 215.5,139.5C 213.973,146.928 214.306,154.261 216.5,161.5C 216.333,162.167 216.167,162.833 216,163.5C 213.356,165.31 210.856,167.31 208.5,169.5C 206.516,164.7 206.016,159.7 207,154.5C 209.075,148.771 211.242,143.104 213.5,137.5 Z"/></g>
<g><path style="opacity:1" fill="#4b4a6f" d="M 328.5,168.5 C 306.673,169.497 284.673,169.831 262.5,169.5C 253.531,160.189 243.698,159.189 233,166.5C 230.913,165.206 228.746,164.039 226.5,163C 224.84,161.512 223.84,159.679 223.5,157.5C 242.805,155.512 262.472,154.846 282.5,155.5C 280.256,157.584 278.589,160.084 277.5,163C 278.447,166.072 280.447,167.072 283.5,166C 299.434,149.948 314.434,150.781 328.5,168.5 Z"/></g>
<g><path style="opacity:1" fill="#d47380" d="M 84.5,164.5 C 78.6635,174.346 75.6635,185.013 75.5,196.5C 72.7552,190.794 70.0885,184.96 67.5,179C 74.9411,174.611 77.6078,168.111 75.5,159.5C 79.6896,159.023 82.6896,160.689 84.5,164.5 Z"/></g>
<g><path style="opacity:1" fill="#ca707c" d="M 59.5,161.5 C 68.3956,159.714 70.7289,162.714 66.5,170.5C 60.7039,171.808 55.0373,171.808 49.5,170.5C 57.4765,172.367 60.8098,169.367 59.5,161.5 Z"/></g>
<g><path style="opacity:1" fill="#f19d9a" d="M 36.5,159.5 C 40.0542,159.849 43.3875,159.849 46.5,159.5C 50.5269,161.358 54.8602,162.025 59.5,161.5C 60.8098,169.367 57.4765,172.367 49.5,170.5C 45.4862,170.666 41.4862,170.499 37.5,170C 33.9947,166.666 33.6614,163.166 36.5,159.5 Z"/></g>
<g><path style="opacity:1" fill="#f96f56" d="M 413.5,184.5 C 406.734,209.599 391.401,227.266 367.5,237.5C 360.73,231.904 354.064,226.071 347.5,220C 346.255,219.209 344.922,218.709 343.5,218.5C 346.672,216.748 349.672,214.748 352.5,212.5C 369.281,200.953 381.281,185.619 388.5,166.5C 389.117,166.389 389.617,166.056 390,165.5C 397.708,172.046 405.541,178.38 413.5,184.5 Z"/></g>
<g><path style="opacity:1" fill="#4a4a69" d="M 328.5,168.5 C 331.668,171.056 335.334,172.056 339.5,171.5C 336.007,181.927 328.674,186.927 317.5,186.5C 313.522,186.61 309.688,185.943 306,184.5C 302.089,186.313 301.589,188.813 304.5,192C 309.334,193.731 314.334,194.731 319.5,195C 321.293,197.795 323.46,200.295 326,202.5C 325.505,205.505 323.672,207.505 320.5,208.5C 301.674,207.503 282.674,207.17 263.5,207.5C 271.772,194.491 271.439,181.824 262.5,169.5C 284.673,169.831 306.673,169.497 328.5,168.5 Z"/></g>
<g><path style="opacity:1" fill="#6c1e3c" d="M 52.5,178.5 C 54.5,178.5 56.5,178.5 58.5,178.5C 57.7935,184.8 57.2935,191.133 57,197.5C 55.6667,198.833 54.3333,198.833 53,197.5C 52.5005,191.175 52.3338,184.842 52.5,178.5 Z"/></g>
<g><path style="opacity:1" fill="#f1afac" d="M 260.5,195.5 C 250.554,193.525 240.221,192.858 229.5,193.5C 226.902,187.104 222.068,183.771 215,183.5C 212.838,174.339 216.338,170.173 225.5,171C 227.983,172.326 230.483,173.493 233,174.5C 237.502,172.658 242.002,170.992 246.5,169.5C 251.806,170.292 255.972,172.958 259,177.5C 262.985,183.342 263.485,189.342 260.5,195.5 Z"/></g>
<g><path style="opacity:1" fill="#29283a" d="M 239.5,184.5 C 241.857,184.337 244.19,184.503 246.5,185C 247.576,186.726 247.743,188.559 247,190.5C 243.34,192.213 239.507,192.713 235.5,192C 233.963,188.024 235.297,185.524 239.5,184.5 Z"/></g>
<g><path style="opacity:1" fill="#f7b7b5" d="M 84.5,164.5 C 92.1036,172.605 99.9369,180.605 108,188.5C 110.827,192.155 112.993,196.155 114.5,200.5C 113.883,200.389 113.383,200.056 113,199.5C 103.737,206.875 94.2373,213.875 84.5,220.5C 81.1288,212.73 78.1288,204.73 75.5,196.5C 75.6635,185.013 78.6635,174.346 84.5,164.5 Z"/></g>
<g><path style="opacity:1" fill="#352839" d="M 354.5,191.5 C 358.979,193.252 359.646,196.085 356.5,200C 351.671,200.668 349.671,198.501 350.5,193.5C 351.605,192.4 352.938,191.733 354.5,191.5 Z"/></g>
<g><path style="opacity:1" fill="#cc4051" d="M 393.5,134.5 C 394.977,145.486 393.31,156.153 388.5,166.5C 381.281,185.619 369.281,200.953 352.5,212.5C 346.73,206.388 340.396,201.055 333.5,196.5C 339.428,196.879 345.095,195.879 350.5,193.5C 349.671,198.501 351.671,200.668 356.5,200C 359.646,196.085 358.979,193.252 354.5,191.5C 357.833,188.833 360.833,185.833 363.5,182.5C 363.964,186.138 365.964,187.638 369.5,187C 382.28,171.612 390.28,154.112 393.5,134.5 Z"/></g>
<g><path style="opacity:1" fill="#7e6971" d="M 214.5,191.5 C 213.92,195.649 214.586,199.316 216.5,202.5C 215.791,203.404 214.791,203.737 213.5,203.5C 213.183,199.298 213.517,195.298 214.5,191.5 Z"/></g>
<g><path style="opacity:1" fill="#f3bdbc" d="M 214.5,191.5 C 220.555,191.052 222.721,193.719 221,199.5C 219.871,201.141 218.371,202.141 216.5,202.5C 214.586,199.316 213.92,195.649 214.5,191.5 Z"/></g>
<g><path style="opacity:1" fill="#f7c2c0" d="M 229.5,193.5 C 240.221,192.858 250.554,193.525 260.5,195.5C 258.915,200.319 256.082,204.319 252,207.5C 245.363,200.572 239.196,201.072 233.5,209C 230.132,210.205 227.798,209.205 226.5,206C 228.634,202.099 229.634,197.932 229.5,193.5 Z"/></g>
<g><path style="opacity:1" fill="#f6bebc" d="M 114.5,200.5 C 114.907,203.898 115.907,207.064 117.5,210C 121.17,210.279 124.837,210.112 128.5,209.5C 117.606,215.974 107.273,223.474 97.5,232C 98.4158,232.278 99.0825,232.778 99.5,233.5C 91.6981,232.363 86.6981,228.029 84.5,220.5C 94.2373,213.875 103.737,206.875 113,199.5C 113.383,200.056 113.883,200.389 114.5,200.5 Z"/></g>
<g><path style="opacity:1" fill="#f9c7c5" d="M 128.5,209.5 C 136.91,209.363 145.243,210.029 153.5,211.5C 153.489,213.017 152.823,214.184 151.5,215C 138.319,224.37 125.652,234.203 113.5,244.5C 108.833,240.833 104.167,237.167 99.5,233.5C 99.0825,232.778 98.4158,232.278 97.5,232C 107.273,223.474 117.606,215.974 128.5,209.5 Z"/></g>
<g><path style="opacity:1" fill="#bb3e50" d="M 330.5,196.5 C 331.5,196.5 332.5,196.5 333.5,196.5C 340.396,201.055 346.73,206.388 352.5,212.5C 349.672,214.748 346.672,216.748 343.5,218.5C 337.227,220.758 330.894,222.924 324.5,225C 326.737,228.869 329.903,231.702 334,233.5C 334.747,235.928 333.914,237.594 331.5,238.5C 330.167,236.5 328.5,234.833 326.5,233.5C 324.539,231.037 322.372,228.703 320,226.5C 317.901,224.026 317.401,221.359 318.5,218.5C 324.715,215.776 329.882,211.776 334,206.5C 334.667,204.5 334.667,202.5 334,200.5C 332.624,199.295 331.458,197.962 330.5,196.5 Z"/></g>
<g><path style="opacity:1" fill="#f8cccc" d="M 153.5,211.5 C 162.533,213.933 171.033,217.6 179,222.5C 182.741,220.695 186.574,219.528 190.5,219C 186.622,224.545 181.789,229.045 176,232.5C 175.333,234.167 175.333,235.833 176,237.5C 178.738,239.289 181.572,240.622 184.5,241.5C 181.834,241.933 179.168,242.433 176.5,243C 175.978,243.561 175.645,244.228 175.5,245C 178.203,247.774 181.369,249.941 185,251.5C 185.667,252.5 185.667,253.5 185,254.5C 177.039,265.563 166.206,270.897 152.5,270.5C 138.407,263.395 125.407,254.728 113.5,244.5C 125.652,234.203 138.319,224.37 151.5,215C 152.823,214.184 153.489,213.017 153.5,211.5 Z"/></g>
<g><path style="opacity:1" fill="#c73e50" d="M 423.5,151.5 C 423.168,160.525 423.502,169.525 424.5,178.5C 426.687,180.422 429.02,182.088 431.5,183.5C 424.243,195.862 421.076,209.196 422,223.5C 425.124,236.069 432.291,238.902 443.5,232C 447.951,229.217 452.117,226.05 456,222.5C 453.829,239.527 450.329,256.193 445.5,272.5C 427.543,259.534 410.21,245.868 393.5,231.5C 407.065,218.383 416.565,202.716 422,184.5C 422.17,173.326 422.67,162.326 423.5,151.5 Z"/></g>
<g><path style="opacity:1" fill="#f77456" d="M 343.5,218.5 C 344.922,218.709 346.255,219.209 347.5,220C 354.064,226.071 360.73,231.904 367.5,237.5C 348.175,245.661 329.175,254.661 310.5,264.5C 314.452,261.215 318.119,257.548 321.5,253.5C 317.996,251.582 314.663,249.416 311.5,247C 319.233,246.376 325.899,243.543 331.5,238.5C 333.914,237.594 334.747,235.928 334,233.5C 329.903,231.702 326.737,228.869 324.5,225C 330.894,222.924 337.227,220.758 343.5,218.5 Z"/></g>
<g><path style="opacity:1" fill="#494264" d="M 263.5,207.5 C 282.674,207.17 301.674,207.503 320.5,208.5C 316.685,210.424 312.852,212.424 309,214.5C 309.057,221.505 311.224,227.838 315.5,233.5C 309.91,235.925 304.244,236.092 298.5,234C 297.272,230.151 295.939,226.318 294.5,222.5C 292.629,221.233 290.796,221.233 289,222.5C 288.662,234.48 292.829,244.647 301.5,253C 293.554,254.84 285.554,254.84 277.5,253C 271.219,250.863 266.552,246.863 263.5,241C 261.633,240.289 260.133,240.789 259,242.5C 258.294,244.971 258.627,247.305 260,249.5C 262.682,252.35 265.516,255.016 268.5,257.5C 269.48,260.086 269.813,262.753 269.5,265.5C 260.698,265.202 254.865,260.869 252,252.5C 250.412,249.691 248.245,249.025 245.5,250.5C 244.54,259.258 243.04,267.925 241,276.5C 226.329,267.573 220.829,254.573 224.5,237.5C 222.993,233.165 220.493,232.498 217,235.5C 215.281,241.46 215.114,247.46 216.5,253.5C 214.172,258.163 211.839,262.83 209.5,267.5C 207.282,266.076 205.782,264.076 205,261.5C 202.705,255.003 202.039,248.336 203,241.5C 205.613,238.887 208.279,236.221 211,233.5C 211.588,230.412 210.255,228.745 207,228.5C 204.185,229.97 201.351,231.47 198.5,233C 188.313,235.198 186.813,233.365 194,227.5C 196.634,221.728 200.134,216.561 204.5,212C 209.411,210.508 214.411,210.174 219.5,211C 224.79,216.706 231.123,218.04 238.5,215C 240.017,213.315 241.684,211.815 243.5,210.5C 247.315,214.112 250.148,218.446 252,223.5C 255.493,226.502 257.993,225.835 259.5,221.5C 258.241,218.827 257.408,216.161 257,213.5C 259.037,211.294 261.203,209.294 263.5,207.5 Z"/></g>
<g><path style="opacity:1" fill="#c03d50" d="M 393.5,231.5 C 410.21,245.868 427.543,259.534 445.5,272.5C 444.335,279.665 442.002,286.331 438.5,292.5C 417.995,276.166 397.329,260 376.5,244C 377.056,243.617 377.389,243.117 377.5,242.5C 382.81,238.866 388.144,235.199 393.5,231.5 Z"/></g>
<g><path style="opacity:1" fill="#d77682" d="M 184.5,241.5 C 188.226,241.177 191.893,241.511 195.5,242.5C 194.77,245.109 194.27,247.776 194,250.5C 183.452,261.936 174.119,274.27 166,287.5C 162.428,281.095 157.928,275.428 152.5,270.5C 166.206,270.897 177.039,265.563 185,254.5C 185.667,253.5 185.667,252.5 185,251.5C 181.369,249.941 178.203,247.774 175.5,245C 175.645,244.228 175.978,243.561 176.5,243C 179.168,242.433 181.834,241.933 184.5,241.5 Z"/></g>
<g><path style="opacity:1" fill="#ac3950" d="M 326.5,233.5 C 328.5,234.833 330.167,236.5 331.5,238.5C 325.899,243.543 319.233,246.376 311.5,247C 314.663,249.416 317.996,251.582 321.5,253.5C 318.119,257.548 314.452,261.215 310.5,264.5C 310.158,265.338 309.492,265.672 308.5,265.5C 302.616,267.066 296.616,267.732 290.5,267.5C 289.167,265.833 287.833,264.167 286.5,262.5C 294.173,263.264 301.507,262.097 308.5,259C 312.01,257.093 313.176,254.26 312,250.5C 299.106,243.049 300.606,240.216 316.5,242C 318.717,240.725 321.051,239.725 323.5,239C 325.607,237.736 326.607,235.903 326.5,233.5 Z"/></g>
<g><path style="opacity:1" fill="#b93d50" d="M 377.5,242.5 C 377.389,243.117 377.056,243.617 376.5,244C 397.329,260 417.995,276.166 438.5,292.5C 436.177,299.153 432.844,305.153 428.5,310.5C 411.61,298.456 395.11,285.789 379,272.5C 378.601,272.728 378.435,273.062 378.5,273.5C 372.172,264.841 364.506,257.507 355.5,251.5C 362.848,248.496 370.181,245.496 377.5,242.5 Z"/></g>
<g><path style="opacity:1" fill="#d77582" d="M 373.5,281.5 C 360.32,272.143 345.987,269.976 330.5,275C 294.95,289.757 263.284,310.257 235.5,336.5C 234.127,336.657 232.793,336.49 231.5,336C 264.447,302.025 302.447,275.192 345.5,255.5C 358.318,260.549 367.652,269.216 373.5,281.5 Z"/></g>
<g><path style="opacity:1" fill="#9a3350" d="M 226.5,285.5 C 224.197,283.022 222.031,280.355 220,277.5C 218.498,281.699 216.998,285.866 215.5,290C 211.621,289.637 208.454,287.803 206,284.5C 205.722,285.416 205.222,286.082 204.5,286.5C 205.244,283.05 203.91,281.384 200.5,281.5C 200.611,280.883 200.944,280.383 201.5,280C 197.341,275.515 194.341,270.349 192.5,264.5C 192.926,262.042 194.259,260.876 196.5,261C 198.893,269.387 204.06,275.221 212,278.5C 212.833,278.167 213.667,277.833 214.5,277.5C 215.593,273.546 217.26,269.88 219.5,266.5C 223.047,271.62 227.047,276.286 231.5,280.5C 230.145,282.521 228.479,284.188 226.5,285.5 Z"/></g>
<g><path style="opacity:1" fill="#f57b56" d="M 192.5,264.5 C 194.341,270.349 197.341,275.515 201.5,280C 200.944,280.383 200.611,280.883 200.5,281.5C 196.609,284.886 192.776,288.553 189,292.5C 181.283,301.883 173.949,311.549 167,321.5C 163.814,317.702 162.814,313.368 164,308.5C 171,292.042 180.5,277.375 192.5,264.5 Z"/></g>
<g><path style="opacity:1" fill="#f67b56" d="M 308.5,265.5 C 256.396,297.436 213.23,338.769 179,389.5C 177.013,388.846 175.68,387.513 175,385.5C 174.333,380.5 174.333,375.5 175,370.5C 183.145,354.703 192.479,339.703 203,325.5C 204.333,319.833 202.333,318.167 197,320.5C 188.242,332.763 180.075,345.43 172.5,358.5C 163.229,350.671 162.062,341.671 169,331.5C 179.905,315.763 191.738,300.763 204.5,286.5C 205.222,286.082 205.722,285.416 206,284.5C 208.454,287.803 211.621,289.637 215.5,290C 216.998,285.866 218.498,281.699 220,277.5C 222.031,280.355 224.197,283.022 226.5,285.5C 222.503,289.665 218.67,293.998 215,298.5C 213.549,303.885 215.383,305.551 220.5,303.5C 224.521,298.812 228.854,294.479 233.5,290.5C 237.825,294.107 242.825,295.607 248.5,295C 251.778,289.171 254.278,283.004 256,276.5C 263.033,280.069 270.533,281.402 278.5,280.5C 279.807,275.934 280.474,271.267 280.5,266.5C 283.786,267.207 287.119,267.54 290.5,267.5C 296.616,267.732 302.616,267.066 308.5,265.5 Z"/></g>
<g><path style="opacity:1" fill="#9b3450" d="M 286.5,262.5 C 287.833,264.167 289.167,265.833 290.5,267.5C 287.119,267.54 283.786,267.207 280.5,266.5C 280.474,271.267 279.807,275.934 278.5,280.5C 270.533,281.402 263.033,280.069 256,276.5C 254.278,283.004 251.778,289.171 248.5,295C 242.825,295.607 237.825,294.107 233.5,290.5C 236.146,285.476 240.312,283.142 246,283.5C 248.522,278.06 250.355,272.394 251.5,266.5C 258.209,272.013 265.875,274.18 274.5,273C 275,272.5 275.5,272 276,271.5C 276.498,268.183 276.665,264.85 276.5,261.5C 279.833,261.833 283.167,262.167 286.5,262.5 Z"/></g>
<g><path style="opacity:1" fill="#f8cac9" d="M 373.5,281.5 C 376.257,285.416 378.257,289.75 379.5,294.5C 362.494,302.005 345.827,310.005 329.5,318.5C 324.193,313.904 320.36,308.237 318,301.5C 317.178,304.117 316.678,306.784 316.5,309.5C 315.926,307.212 314.926,305.045 313.5,303C 308.504,302.336 306.67,304.502 308,309.5C 309.011,314.033 310.511,318.367 312.5,322.5C 312.167,323.833 311.833,325.167 311.5,326.5C 304.177,329.494 296.844,332.494 289.5,335.5C 295.167,329.668 299.167,322.835 301.5,315C 300.658,310.388 298.491,309.554 295,312.5C 289.295,329.725 277.462,338.059 259.5,337.5C 251.497,337.166 243.497,336.833 235.5,336.5C 263.284,310.257 294.95,289.757 330.5,275C 345.987,269.976 360.32,272.143 373.5,281.5 Z"/></g>
<g><path style="opacity:1" fill="#b23750" d="M 428.5,310.5 C 420.167,322.333 410,332.333 398,340.5C 396.237,337.98 394.237,335.647 392,333.5C 393.473,312.067 388.973,292.067 378.5,273.5C 378.435,273.062 378.601,272.728 379,272.5C 395.11,285.789 411.61,298.456 428.5,310.5 Z"/></g>
<g><path style="opacity:1" fill="#f9c7c0" d="M 379.5,294.5 C 380.301,296.042 380.634,297.708 380.5,299.5C 380.719,300.675 380.386,301.675 379.5,302.5C 364.586,309.459 349.586,316.126 334.5,322.5C 332.246,321.876 330.579,320.543 329.5,318.5C 345.827,310.005 362.494,302.005 379.5,294.5 Z"/></g>
<g><path style="opacity:1" fill="#f7bdbb" d="M 380.5,299.5 C 382.714,304.824 383.881,310.491 384,316.5C 384.305,323.183 384.305,329.85 384,336.5C 385.045,337.373 385.878,338.373 386.5,339.5C 377.246,344.624 367.579,348.958 357.5,352.5C 355.174,345.373 353.674,338.04 353,330.5C 346.124,329.271 339.957,326.604 334.5,322.5C 349.586,316.126 364.586,309.459 379.5,302.5C 380.386,301.675 380.719,300.675 380.5,299.5 Z"/></g>
<g><path style="opacity:1" fill="#d77582" d="M 329.5,318.5 C 330.579,320.543 332.246,321.876 334.5,322.5C 339.957,326.604 346.124,329.271 353,330.5C 353.674,338.04 355.174,345.373 357.5,352.5C 360.22,361.261 365.387,368.261 373,373.5C 374.403,378.383 375.236,383.383 375.5,388.5C 376.518,394.573 377.852,400.573 379.5,406.5C 381.744,414.567 386.41,420.734 393.5,425C 396.482,425.498 399.482,425.665 402.5,425.5C 402.152,433.178 401.985,440.845 402,448.5C 409.183,462.031 410.183,476.031 405,490.5C 403.972,492.361 402.472,493.695 400.5,494.5C 400.006,484.345 396.339,475.512 389.5,468C 388.167,467.333 386.833,467.333 385.5,468C 383.623,470.251 382.123,472.751 381,475.5C 379.443,472.706 379.11,469.706 380,466.5C 382.657,460.026 385.157,453.526 387.5,447C 382.138,431.913 376.971,416.747 372,401.5C 369.692,392.653 368.359,383.653 368,374.5C 355.356,365.544 349.356,353.21 350,337.5C 341.861,334.783 334.028,331.283 326.5,327C 320.953,322.403 317.62,316.57 316.5,309.5C 316.678,306.784 317.178,304.117 318,301.5C 320.36,308.237 324.193,313.904 329.5,318.5 Z"/></g>
<g><path style="opacity:1" fill="#2e2b3d" d="M 260.5,322.5 C 262.857,322.337 265.19,322.503 267.5,323C 269.576,324.884 269.91,327.051 268.5,329.5C 265.5,330.833 262.5,330.833 259.5,329.5C 258.154,326.9 258.488,324.567 260.5,322.5 Z"/></g>
<g><path style="opacity:1" fill="#d77682" d="M 312.5,322.5 C 315.236,324.858 316.07,327.858 315,331.5C 311.036,347.603 302.87,361.103 290.5,372C 287.09,374.372 283.423,376.205 279.5,377.5C 281.334,372.822 284.5,369.156 289,366.5C 289.464,365.906 289.631,365.239 289.5,364.5C 299.887,353.742 307.221,341.075 311.5,326.5C 311.833,325.167 312.167,323.833 312.5,322.5 Z"/></g>
<g><path style="opacity:1" fill="#993250" d="M 321.5,333.5 C 328.027,337.343 335.027,340.01 342.5,341.5C 343.167,346.833 343.833,352.167 344.5,357.5C 328.573,361.131 314.573,368.464 302.5,379.5C 301.488,377.163 301.655,374.83 303,372.5C 307.584,365.668 311.917,358.668 316,351.5C 318.546,345.697 320.379,339.697 321.5,333.5 Z"/></g>
<g><path style="opacity:1" fill="#b7747e" d="M 237.5,344.5 C 233.486,344.334 229.486,344.501 225.5,345C 223.297,347.372 220.963,349.539 218.5,351.5C 219.882,348.606 221.882,346.106 224.5,344C 229.02,343.186 233.354,343.353 237.5,344.5 Z"/></g>
<g><path style="opacity:1" fill="#f7c2c0" d="M 311.5,326.5 C 307.221,341.075 299.887,353.742 289.5,364.5C 279.271,369.115 268.938,373.449 258.5,377.5C 254.385,367.552 247.385,360.385 237.5,356C 233.002,354.523 230.835,356.023 231,360.5C 240.741,364.74 247.575,371.74 251.5,381.5C 246.833,383.833 242.167,386.167 237.5,388.5C 233.215,389.208 228.882,389.708 224.5,390C 223.944,390.383 223.611,390.883 223.5,391.5C 222.865,394.706 220.865,396.706 217.5,397.5C 216.702,397.043 216.369,396.376 216.5,395.5C 215.319,384.823 215.319,374.323 216.5,364C 214.833,363.333 213.167,363.333 211.5,364C 209.932,366.304 208.765,368.804 208,371.5C 207.446,377.188 207.613,382.855 208.5,388.5C 204.453,388.695 200.453,388.362 196.5,387.5C 192.902,389.354 192.568,391.854 195.5,395C 199.395,396.266 203.395,396.766 207.5,396.5C 207.5,398.167 207.5,399.833 207.5,401.5C 200.712,405.211 193.712,408.544 186.5,411.5C 186.334,405.158 186.5,398.825 187,392.5C 196.598,378.078 207.098,364.411 218.5,351.5C 220.963,349.539 223.297,347.372 225.5,345C 229.486,344.501 233.486,344.334 237.5,344.5C 249.866,345.836 262.199,345.669 274.5,344C 280.145,342.181 285.145,339.348 289.5,335.5C 296.844,332.494 304.177,329.494 311.5,326.5 Z"/></g>
<g><path style="opacity:1" fill="#2b293b" d="M 258.5,377.5 C 261.359,381.353 262.026,385.52 260.5,390C 259.167,390.667 257.833,390.667 256.5,390C 254.92,387.067 253.254,384.233 251.5,381.5C 247.575,371.74 240.741,364.74 231,360.5C 230.835,356.023 233.002,354.523 237.5,356C 247.385,360.385 254.385,367.552 258.5,377.5 Z"/></g>
<g><path style="opacity:1" fill="#f3b0ad" d="M 386.5,339.5 C 396.728,349.63 402.395,361.963 403.5,376.5C 394.167,380.5 384.833,384.5 375.5,388.5C 375.236,383.383 374.403,378.383 373,373.5C 365.387,368.261 360.22,361.261 357.5,352.5C 367.579,348.958 377.246,344.624 386.5,339.5 Z"/></g>
<g><path style="opacity:1" fill="#2c2a3c" d="M 216.5,395.5 C 214.959,401.86 215.293,408.194 217.5,414.5C 216.374,420.152 213.874,420.819 210,416.5C 207.967,411.705 207.134,406.705 207.5,401.5C 207.5,399.833 207.5,398.167 207.5,396.5C 203.395,396.766 199.395,396.266 195.5,395C 192.568,391.854 192.902,389.354 196.5,387.5C 200.453,388.362 204.453,388.695 208.5,388.5C 207.613,382.855 207.446,377.188 208,371.5C 208.765,368.804 209.932,366.304 211.5,364C 213.167,363.333 214.833,363.333 216.5,364C 215.319,374.323 215.319,384.823 216.5,395.5 Z"/></g>
<g><path style="opacity:1" fill="#f7b8b5" d="M 289.5,364.5 C 289.631,365.239 289.464,365.906 289,366.5C 284.5,369.156 281.334,372.822 279.5,377.5C 278.232,379.67 278.232,381.837 279.5,384C 282.221,384.602 284.887,384.435 287.5,383.5C 287.586,384.496 287.252,385.329 286.5,386C 263.898,396.31 241.398,406.81 219,417.5C 218.768,416.263 218.268,415.263 217.5,414.5C 215.293,408.194 214.959,401.86 216.5,395.5C 216.369,396.376 216.702,397.043 217.5,397.5C 220.865,396.706 222.865,394.706 223.5,391.5C 223.297,393.39 223.963,394.89 225.5,396C 229.833,396.667 234.167,396.667 238.5,396C 241.553,394.419 242.22,392.086 240.5,389C 239.552,388.517 238.552,388.351 237.5,388.5C 242.167,386.167 246.833,383.833 251.5,381.5C 253.254,384.233 254.92,387.067 256.5,390C 257.833,390.667 259.167,390.667 260.5,390C 262.026,385.52 261.359,381.353 258.5,377.5C 268.938,373.449 279.271,369.115 289.5,364.5 Z"/></g>
<g><path style="opacity:1" fill="#d87582" d="M 245.5,432.5 C 258.629,427.348 270.462,420.014 281,410.5C 286.59,402.076 289.09,392.743 288.5,382.5C 289.885,381.386 291.385,380.386 293,379.5C 293.667,389.5 293.667,399.5 293,409.5C 280.462,423.684 264.628,431.351 245.5,432.5 Z"/></g>
<g><path style="opacity:1" fill="#f2a7a3" d="M 403.5,376.5 C 403.666,383.175 403.5,389.842 403,396.5C 395.423,400.541 387.59,403.875 379.5,406.5C 377.852,400.573 376.518,394.573 375.5,388.5C 384.833,384.5 394.167,380.5 403.5,376.5 Z"/></g>
<g><path style="opacity:1" fill="#282739" d="M 237.5,388.5 C 238.552,388.351 239.552,388.517 240.5,389C 242.22,392.086 241.553,394.419 238.5,396C 234.167,396.667 229.833,396.667 225.5,396C 223.963,394.89 223.297,393.39 223.5,391.5C 223.611,390.883 223.944,390.383 224.5,390C 228.882,389.708 233.215,389.208 237.5,388.5 Z"/></g>
<g><path style="opacity:1" fill="#f6b3b0" d="M 288.5,382.5 C 289.09,392.743 286.59,402.076 281,410.5C 270.462,420.014 258.629,427.348 245.5,432.5C 226.029,434.791 207.029,432.624 188.5,426C 186.593,421.482 185.926,416.648 186.5,411.5C 193.712,408.544 200.712,405.211 207.5,401.5C 207.134,406.705 207.967,411.705 210,416.5C 213.874,420.819 216.374,420.152 217.5,414.5C 218.268,415.263 218.768,416.263 219,417.5C 241.398,406.81 263.898,396.31 286.5,386C 287.252,385.329 287.586,384.496 287.5,383.5C 287.5,382.833 287.833,382.5 288.5,382.5 Z"/></g>
<g><path style="opacity:1" fill="#ef9f9c" d="M 403.5,376.5 C 404.847,392.761 404.513,409.095 402.5,425.5C 399.482,425.665 396.482,425.498 393.5,425C 386.41,420.734 381.744,414.567 379.5,406.5C 387.59,403.875 395.423,400.541 403,396.5C 403.5,389.842 403.666,383.175 403.5,376.5 Z"/></g>
<g><path style="opacity:1" fill="#df4550" d="M 294.5,443.5 C 289.488,439.487 285.155,434.821 281.5,429.5C 288.63,424.932 294.964,419.432 300.5,413C 305.937,413.662 308.104,416.828 307,422.5C 304.196,430.435 300.029,437.435 294.5,443.5 Z"/></g>
<g><path style="opacity:1" fill="#d54450" d="M 281.5,429.5 C 285.155,434.821 289.488,439.487 294.5,443.5C 290.812,449.188 286.145,453.855 280.5,457.5C 276.14,453.806 272.14,449.806 268.5,445.5C 271.256,441.983 272.923,437.983 273.5,433.5C 276.167,432.167 278.833,430.833 281.5,429.5 Z"/></g>
<g><path style="opacity:1" fill="#f86d56" d="M 222.5,440.5 C 224.369,441.165 226.369,441.831 228.5,442.5C 230.851,449.281 233.185,455.948 235.5,462.5C 232.5,463.167 229.5,463.833 226.5,464.5C 216.764,464.692 207.098,464.025 197.5,462.5C 189.281,460.307 181.781,456.64 175,451.5C 172.4,442.883 175.234,436.55 183.5,432.5C 196.059,437.205 209.059,439.872 222.5,440.5 Z"/></g>
<g><path style="opacity:1" fill="#f67556" d="M 273.5,433.5 C 272.923,437.983 271.256,441.983 268.5,445.5C 263.9,450.792 258.567,455.125 252.5,458.5C 247.023,460.619 241.357,461.952 235.5,462.5C 233.185,455.948 230.851,449.281 228.5,442.5C 226.369,441.831 224.369,441.165 222.5,440.5C 240.044,441.849 257.044,439.516 273.5,433.5 Z"/></g>
<g><path style="opacity:1" fill="#c93e50" d="M 268.5,445.5 C 272.14,449.806 276.14,453.806 280.5,457.5C 274.902,461.823 268.569,464.823 261.5,466.5C 257.287,465.292 254.287,462.625 252.5,458.5C 258.567,455.125 263.9,450.792 268.5,445.5 Z"/></g>
<g><path style="opacity:1" fill="#bd3f51" d="M 252.5,458.5 C 254.287,462.625 257.287,465.292 261.5,466.5C 252.881,469.426 243.881,470.759 234.5,470.5C 232.656,467.313 229.989,465.313 226.5,464.5C 229.5,463.833 232.5,463.167 235.5,462.5C 241.357,461.952 247.023,460.619 252.5,458.5 Z"/></g>
<g><path style="opacity:1" fill="#ac3850" d="M 197.5,462.5 C 207.098,464.025 216.764,464.692 226.5,464.5C 229.989,465.313 232.656,467.313 234.5,470.5C 221.501,470.369 209.168,467.702 197.5,462.5 Z"/></g>
<g><path style="opacity:1" fill="#9a3150" d="M 178.5,467.5 C 183.023,472.527 187.856,477.527 193,482.5C 194.243,485.576 196.077,488.243 198.5,490.5C 188.827,491.381 182.327,487.048 179,477.5C 178.502,474.183 178.335,470.85 178.5,467.5 Z"/></g>
<g><path style="opacity:1" fill="#a53750" d="M 198.5,490.5 C 196.077,488.243 194.243,485.576 193,482.5C 187.856,477.527 183.023,472.527 178.5,467.5C 178.238,466.022 178.571,464.689 179.5,463.5C 199.99,473.539 221.657,478.706 244.5,479C 229.708,485.075 214.375,488.908 198.5,490.5 Z"/></g>
</svg>
