<?xml version="1.0" encoding="UTF-8"?>
<!DOCTYPE svg PUBLIC "-//W3C//DTD SVG 1.1//EN" "http://www.w3.org/Graphics/SVG/1.1/DTD/svg11.dtd">
<svg xmlns="http://www.w3.org/2000/svg" version="1.1" width="512px" height="512px" style="shape-rendering:geometricPrecision; text-rendering:geometricPrecision; image-rendering:optimizeQuality; fill-rule:evenodd; clip-rule:evenodd" xmlns:xlink="http://www.w3.org/1999/xlink">
<g><path style="opacity:1" fill="#272639" d="M 350.5,6.5 C 359.399,4.73811 366.899,7.07145 373,13.5C 375.578,17.961 376.078,22.6276 374.5,27.5C 396.792,25.6179 419.125,25.1179 441.5,26C 450.279,31.0624 451.779,37.8958 446,46.5C 441.415,53.5799 434.915,57.5799 426.5,58.5C 425.335,71.6619 418.668,80.8286 406.5,86C 401.899,87.4836 397.232,88.6503 392.5,89.5C 391.772,105.042 384.272,115.709 370,121.5C 370.667,130.497 368.667,138.831 364,146.5C 359.599,151.07 355.099,155.404 350.5,159.5C 353.91,172.765 350.576,183.931 340.5,193C 336.126,195.181 332.126,197.848 328.5,201C 330.624,211.72 327.957,221.054 320.5,229C 310.223,235.611 300.223,242.611 290.5,250C 284.761,261.909 276.095,271.242 264.5,278C 270.665,293.172 266.665,304.838 252.5,313C 232.495,326.112 210.495,332.778 186.5,333C 188.5,336.333 191.167,339 194.5,341C 209.986,340.028 225.486,338.861 241,337.5C 260.909,339.482 280.742,341.982 300.5,345C 306.203,346.176 311.87,347.509 317.5,349C 330.776,353.537 344.109,357.87 357.5,362C 363.833,362.667 370.167,362.667 376.5,362C 392.436,358.275 398.936,348.442 396,332.5C 386.035,312.199 372.035,295.199 354,281.5C 341.123,263.957 339.79,245.624 350,226.5C 356.287,217.878 362.953,209.545 370,201.5C 368.548,194.473 369.548,187.806 373,181.5C 380.879,174.62 389.045,168.12 397.5,162C 404.639,154.707 411.305,147.041 417.5,139C 426.637,134.821 432.137,137.655 434,147.5C 435.693,161.237 432.193,173.403 423.5,184C 427.697,188.861 428.197,194.027 425,199.5C 417.549,209.46 407.715,215.46 395.5,217.5C 393.199,216.604 390.866,216.438 388.5,217C 379.262,225.976 373.595,236.81 371.5,249.5C 372.207,258.407 376.207,265.573 383.5,271C 400.667,281.5 414.5,295.333 425,312.5C 442.86,346.113 437.027,374.946 407.5,399C 388.112,410.624 367.112,415.29 344.5,413C 338.872,412.723 333.372,411.889 328,410.5C 327.73,413.224 327.23,415.891 326.5,418.5C 324.751,420.531 322.751,420.865 320.5,419.5C 319.271,436.647 311.438,449.647 297,458.5C 294.046,458.045 292.213,456.379 291.5,453.5C 290.328,453.919 289.328,454.585 288.5,455.5C 296.455,461.621 303.621,468.621 310,476.5C 313.693,488.947 309.526,497.447 297.5,502C 258.5,502.667 219.5,502.667 180.5,502C 178.255,499.104 177.922,495.937 179.5,492.5C 160.037,496.118 155.537,489.785 166,473.5C 173.367,464.942 182.201,458.609 192.5,454.5C 189.013,450.858 186.013,446.858 183.5,442.5C 181.836,446.036 179.169,447.536 175.5,447C 170.627,442.751 167.127,437.584 165,431.5C 161.291,447.67 156.957,463.67 152,479.5C 141.431,502.775 123.598,510.775 98.5,503.5C 96.2513,498.594 96.5846,493.761 99.5,489C 93.1667,488.667 86.8333,488.333 80.5,488C 78.363,477.919 81.363,469.586 89.5,463C 94.5545,459.806 99.8878,457.139 105.5,455C 107.333,453.833 108.833,452.333 110,450.5C 111.656,442.589 112.656,434.589 113,426.5C 113.35,408.127 113.516,389.794 113.5,371.5C 111.234,367.391 108.734,363.391 106,359.5C 99.3722,357.19 94.0388,353.19 90,347.5C 89.5172,346.552 89.3505,345.552 89.5,344.5C 71.4327,342.593 63.5994,332.593 66,314.5C 67.722,309.388 70.222,304.721 73.5,300.5C 70.5504,296.102 68.8837,291.269 68.5,286C 70.0571,278.995 72.2237,272.161 75,265.5C 77.109,258.967 77.7757,252.3 77,245.5C 71.84,241.176 68.1733,235.842 66,229.5C 63.838,218.894 63.338,208.227 64.5,197.5C 57.1723,174.33 62.8389,155.163 81.5,140C 98.5958,130.396 115.929,130.063 133.5,139C 145.561,146.605 153.061,157.439 156,171.5C 156.861,183.556 158.194,195.556 160,207.5C 167.124,192.311 169.791,176.311 168,159.5C 165.637,141.41 160.637,124.077 153,107.5C 152.228,102.096 152.561,96.7625 154,91.5C 158.672,80.6634 165.839,71.8301 175.5,65C 228.948,30.795 287.282,11.295 350.5,6.5 Z"/></g>
<g><path style="opacity:1" fill="#4a4a6f" d="M 344.5,31.5 C 341.68,31.7525 339.014,31.2525 336.5,30C 330.923,26.3902 325.59,22.5568 320.5,18.5C 335.457,15.3471 350.457,14.8471 365.5,17C 367.352,21.6917 366.352,25.6917 362.5,29C 356.472,29.7988 350.472,30.6321 344.5,31.5 Z"/></g>
<g><path style="opacity:1" fill="#4a4a69" d="M 320.5,18.5 C 325.59,22.5568 330.923,26.3902 336.5,30C 339.014,31.2525 341.68,31.7525 344.5,31.5C 310.047,36.6151 277.38,47.2818 246.5,63.5C 239.167,58.1667 231.833,52.8333 224.5,47.5C 255.01,32.9975 287.01,23.3309 320.5,18.5 Z"/></g>
<g><path style="opacity:1" fill="#b0abd5" d="M 388.5,34.5 C 396.339,41.408 405.006,46.7414 414.5,50.5C 403.167,50.5 391.833,50.5 380.5,50.5C 375.627,46.1423 370.294,42.309 364.5,39C 363.748,38.3292 363.414,37.4959 363.5,36.5C 371.784,35.3531 380.117,34.6864 388.5,34.5 Z"/></g>
<g><path style="opacity:1" fill="#b3b2d8" d="M 414.5,50.5 C 405.006,46.7414 396.339,41.408 388.5,34.5C 405.468,33.3759 422.468,33.2092 439.5,34C 441.978,35.938 442.145,38.1047 440,40.5C 433.861,49.347 425.361,52.6803 414.5,50.5 Z"/></g>
<g><path style="opacity:1" fill="#aca7cc" d="M 363.5,36.5 C 363.414,37.4959 363.748,38.3292 364.5,39C 370.294,42.309 375.627,46.1423 380.5,50.5C 365.515,52.2481 350.515,54.0814 335.5,56C 322.445,59.0139 309.445,62.1806 296.5,65.5C 292.167,62.1667 287.833,58.8333 283.5,55.5C 309.273,45.92 335.94,39.5867 363.5,36.5 Z"/></g>
<g><path style="opacity:1" fill="#4a4369" d="M 224.5,47.5 C 231.833,52.8333 239.167,58.1667 246.5,63.5C 239.235,67.4371 232.235,71.7704 225.5,76.5C 224.448,76.6495 223.448,76.4828 222.5,76C 214.768,70.8102 207.101,65.6436 199.5,60.5C 207.358,55.4029 215.692,51.0696 224.5,47.5 Z"/></g>
<g><path style="opacity:1" fill="#9c93b7" d="M 386.5,57.5 C 397.167,57.5 407.833,57.5 418.5,57.5C 417.686,65.9606 413.686,72.4606 406.5,77C 391.03,81.3277 375.363,84.8277 359.5,87.5C 359.5,86.1667 359.5,84.8333 359.5,83.5C 368.165,82.0826 374.999,77.7492 380,70.5C 382.092,66.0088 384.259,61.6755 386.5,57.5 Z"/></g>
<g><path style="opacity:1" fill="#4a4363" d="M 199.5,60.5 C 207.101,65.6436 214.768,70.8102 222.5,76C 223.448,76.4828 224.448,76.6495 225.5,76.5C 213.137,85.8781 205.304,98.2114 202,113.5C 201.831,129.005 201.331,144.339 200.5,159.5C 200.666,152.492 200.5,145.492 200,138.5C 188.992,130.255 177.492,122.921 165.5,116.5C 163.43,111.291 161.764,105.958 160.5,100.5C 160.901,95.7973 162.401,91.464 165,87.5C 174.34,75.6512 185.84,66.6512 199.5,60.5 Z"/></g>
<g><path style="opacity:1" fill="#a59fc5" d="M 325.5,113.5 C 320.397,108.775 314.731,104.775 308.5,101.5C 317.31,91.8102 320.31,80.4769 317.5,67.5C 332.688,64.2465 348.022,61.7465 363.5,60C 367.871,59.1725 372.205,59.3391 376.5,60.5C 374.09,67.076 369.756,71.9093 363.5,75C 354.922,77.0287 346.255,78.6953 337.5,80C 333.901,81.3094 330.401,82.8094 327,84.5C 325.859,87.8568 327.025,89.8568 330.5,90.5C 337.553,87.57 344.886,85.9033 352.5,85.5C 352.681,92.638 350.014,98.4713 344.5,103C 338.14,106.512 331.806,110.012 325.5,113.5 Z"/></g>
<g><path style="opacity:1" fill="#a6a0c6" d="M 272.5,143.5 C 265.167,139.167 257.833,134.833 250.5,130.5C 250.767,123.741 248.1,122.074 242.5,125.5C 239.017,122.261 235.35,119.261 231.5,116.5C 232.915,109.57 236.582,104.07 242.5,100C 263.1,86.1967 285.434,76.53 309.5,71C 312.147,80.7475 309.814,89.0808 302.5,96C 287.558,103.388 272.724,110.888 258,118.5C 257.28,120.112 257.446,121.612 258.5,123C 260.5,123.667 262.5,123.667 264.5,123C 271.712,119.227 279.045,115.727 286.5,112.5C 292.604,121.86 291.604,130.36 283.5,138C 280.09,140.372 276.423,142.205 272.5,143.5 Z"/></g>
<g><path style="opacity:1" fill="#a29cc1" d="M 283.5,55.5 C 287.833,58.8333 292.167,62.1667 296.5,65.5C 275.515,72.3261 255.848,81.8261 237.5,94C 234.268,97.0623 231.268,100.229 228.5,103.5C 225.003,100.917 221.336,98.5836 217.5,96.5C 222.64,89.1943 228.973,83.0277 236.5,78C 251.397,68.8848 267.064,61.3848 283.5,55.5 Z"/></g>
<g><path style="opacity:1" fill="#4a4968" d="M 376.5,91.5 C 378.833,91.5 381.167,91.5 383.5,91.5C 383.063,101.881 378.063,109.048 368.5,113C 357.76,116.746 347.093,120.579 336.5,124.5C 336.422,121.748 336.255,119.082 336,116.5C 341.25,113.459 346.417,110.292 351.5,107C 354.422,103.908 356.755,100.408 358.5,96.5C 364.616,94.8075 370.616,93.1408 376.5,91.5 Z"/></g>
<g><path style="opacity:1" fill="#9a90b3" d="M 217.5,96.5 C 221.336,98.5836 225.003,100.917 228.5,103.5C 226.124,107.587 224.291,111.92 223,116.5C 222.667,133.5 222.333,150.5 222,167.5C 221.563,174.678 220.397,181.678 218.5,188.5C 214.771,186.549 211.271,184.216 208,181.5C 207.503,179.19 207.337,176.857 207.5,174.5C 208.255,155.517 208.755,136.517 209,117.5C 210.225,109.734 213.058,102.734 217.5,96.5 Z"/></g>
<g><path style="opacity:1" fill="#433d63" d="M 165.5,116.5 C 177.492,122.921 188.992,130.255 200,138.5C 200.5,145.492 200.666,152.492 200.5,159.5C 200.321,169.942 199.155,180.275 197,190.5C 196.102,193.069 194.935,195.402 193.5,197.5C 187.148,193.993 181.148,189.993 175.5,185.5C 178.633,161.568 175.3,138.568 165.5,116.5 Z"/></g>
<g><path style="opacity:1" fill="#a199be" d="M 308.5,101.5 C 314.731,104.775 320.397,108.775 325.5,113.5C 321.019,116.242 316.353,118.742 311.5,121C 307.298,124.206 307.631,126.706 312.5,128.5C 318.022,126.489 323.189,123.822 328,120.5C 330.652,128.725 328.818,135.892 322.5,142C 314.328,146.92 305.995,151.587 297.5,156C 293.298,159.206 293.631,161.706 298.5,163.5C 304.138,160.633 309.805,158.133 315.5,156C 317.493,162.697 316.159,168.697 311.5,174C 298.827,182.005 285.827,189.505 272.5,196.5C 270.981,193.956 269.648,191.289 268.5,188.5C 273.158,184.675 277.324,180.342 281,175.5C 285.823,166.835 285.657,158.335 280.5,150C 284.727,146.627 288.894,143.127 293,139.5C 297.546,133.193 299.213,126.193 298,118.5C 296.361,115.258 295.361,111.924 295,108.5C 299.475,106.013 303.975,103.68 308.5,101.5 Z"/></g>
<g><path style="opacity:1" fill="#2c2c3f" d="M 250.5,130.5 C 245.265,132.86 242.598,131.194 242.5,125.5C 248.1,122.074 250.767,123.741 250.5,130.5 Z"/></g>
<g><path style="opacity:1" fill="#4a4467" d="M 357.5,124.5 C 358.833,124.5 360.167,124.5 361.5,124.5C 361.908,132.014 359.742,138.68 355,144.5C 345.584,151.128 335.75,157.128 325.5,162.5C 324.373,158.865 323.373,155.199 322.5,151.5C 329.635,146.919 334.635,140.585 337.5,132.5C 344.346,130.002 351.013,127.336 357.5,124.5 Z"/></g>
<g><path style="opacity:1" fill="#a29ac0" d="M 231.5,116.5 C 235.35,119.261 239.017,122.261 242.5,125.5C 242.598,131.194 245.265,132.86 250.5,130.5C 257.833,134.833 265.167,139.167 272.5,143.5C 266.803,146.462 260.803,148.962 254.5,151C 251.589,154.187 252.089,156.687 256,158.5C 261.557,156.453 267.057,154.619 272.5,153C 276.842,158.206 277.675,164.04 275,170.5C 272.167,174.667 268.667,178.167 264.5,181C 256.527,184.651 248.694,188.485 241,192.5C 240.333,194.167 240.333,195.833 241,197.5C 241.725,198.059 242.558,198.392 243.5,198.5C 249.276,196.446 254.942,194.113 260.5,191.5C 262.891,193.366 263.891,195.866 263.5,199C 264.025,206.807 260.692,211.974 253.5,214.5C 244.985,208.829 236.318,203.329 227.5,198C 225.963,196.89 225.297,195.39 225.5,193.5C 226.88,187.222 228.047,180.889 229,174.5C 229.955,155.013 230.788,135.68 231.5,116.5 Z"/></g>
<g><path style="opacity:1" fill="#4b4b6f" d="M 138.5,154.5 C 118.018,156.343 97.3514,157.676 76.5,158.5C 80.1442,150.695 86.1442,145.528 94.5,143C 111.641,137.775 126.308,141.608 138.5,154.5 Z"/></g>
<g><path style="opacity:1" fill="#4a4a69" d="M 138.5,154.5 C 146.211,163.303 149.544,173.636 148.5,185.5C 127.822,186.278 107.155,187.278 86.5,188.5C 83.6982,182.084 81.3649,175.584 79.5,169C 78.5,168.333 77.5,168.333 76.5,169C 73.9426,171.892 71.776,175.059 70,178.5C 69.4809,170.892 71.6475,164.225 76.5,158.5C 97.3514,157.676 118.018,156.343 138.5,154.5 Z"/></g>
<g><path style="opacity:1" fill="#4a4363" d="M 319.5,215.5 C 314.66,213.661 310.327,210.995 306.5,207.5C 306.632,200.715 306.132,194.048 305,187.5C 311.737,184.098 317.237,179.265 321.5,173C 328.371,169.061 335.371,165.728 342.5,163C 345.299,172.753 342.632,180.753 334.5,187C 329.584,189.707 324.751,192.541 320,195.5C 320.738,202.178 320.571,208.845 319.5,215.5 Z"/></g>
<g><path style="opacity:1" fill="#464061" d="M 417.5,194.5 C 410.003,189.863 402.336,185.363 394.5,181C 392.937,180.241 391.937,179.074 391.5,177.5C 403.639,168.861 413.972,158.361 422.5,146C 423.5,145.333 424.5,145.333 425.5,146C 427.442,156.981 425.275,167.147 419,176.5C 415.903,179.089 413.403,182.089 411.5,185.5C 412.458,188.635 414.625,190.302 418,190.5C 418.765,192.066 418.598,193.399 417.5,194.5 Z"/></g>
<g><path style="opacity:1" fill="#43375c" d="M 391.5,177.5 C 391.937,179.074 392.937,180.241 394.5,181C 402.336,185.363 410.003,189.863 417.5,194.5C 413.15,200.686 407.483,205.186 400.5,208C 392.185,209.594 385.352,207.094 380,200.5C 376.788,195.867 376.788,191.2 380,186.5C 383.41,182.888 387.244,179.888 391.5,177.5 Z"/></g>
<g><path style="opacity:1" fill="#9286ab" d="M 207.5,174.5 C 207.337,176.857 207.503,179.19 208,181.5C 211.271,184.216 214.771,186.549 218.5,188.5C 216.847,194.812 214.347,200.812 211,206.5C 201.429,217.969 193.095,230.303 186,243.5C 184.049,249.341 183.216,255.341 183.5,261.5C 176.295,263.908 173.795,268.908 176,276.5C 179.381,286.36 185.714,289.027 195,284.5C 195.825,282.299 195.325,280.466 193.5,279C 190.833,278.667 188.167,278.333 185.5,278C 181.633,274.582 181.633,271.249 185.5,268C 198.212,267.045 203.712,272.878 202,285.5C 200.813,289.709 198.313,292.876 194.5,295C 188.243,296.317 181.909,296.817 175.5,296.5C 175.11,287.5 172.61,279.166 168,271.5C 165.502,269.583 162.835,267.916 160,266.5C 160.622,260.288 162.289,254.288 165,248.5C 168.27,242.236 171.936,236.236 176,230.5C 183.295,221.536 190.962,212.87 199,204.5C 203.728,194.908 206.561,184.908 207.5,174.5 Z"/></g>
<g><path style="opacity:1" fill="#4a4369" d="M 148.5,185.5 C 148.704,188.518 149.037,191.518 149.5,194.5C 130.852,195.795 112.185,196.795 93.5,197.5C 90.8154,194.81 88.4821,191.81 86.5,188.5C 107.155,187.278 127.822,186.278 148.5,185.5 Z"/></g>
<g><path style="opacity:1" fill="#433d5c" d="M 175.5,185.5 C 181.148,189.993 187.148,193.993 193.5,197.5C 193.291,198.922 192.791,200.255 192,201.5C 183.296,210.536 174.962,219.869 167,229.5C 165.443,226.828 164.276,223.995 163.5,221C 169.395,209.815 173.395,197.981 175.5,185.5 Z"/></g>
<g><path style="opacity:1" fill="#4a4363" d="M 149.5,194.5 C 150.844,202.896 152.511,211.23 154.5,219.5C 143.535,220.498 132.535,221.165 121.5,221.5C 121.768,218.881 121.435,216.381 120.5,214C 111.17,211.502 102.837,207.169 95.5,201C 94.1772,200.184 93.5106,199.017 93.5,197.5C 112.185,196.795 130.852,195.795 149.5,194.5 Z"/></g>
<g><path style="opacity:1" fill="#a094b9" d="M 225.5,193.5 C 225.297,195.39 225.963,196.89 227.5,198C 236.318,203.329 244.985,208.829 253.5,214.5C 242.814,221.267 231.981,227.933 221,234.5C 220.199,237.229 221.199,238.895 224,239.5C 230.594,237.036 236.927,234.036 243,230.5C 244.261,230.759 245.261,231.426 246,232.5C 247.976,242.033 244.143,247.7 234.5,249.5C 224.862,243.344 215.195,237.177 205.5,231C 204.748,230.329 204.414,229.496 204.5,228.5C 213.587,218.081 220.587,206.414 225.5,193.5 Z"/></g>
<g><path style="opacity:1" fill="#ce717d" d="M 80.5,194.5 C 83.1268,198.208 86.1268,201.708 89.5,205C 88.255,205.791 86.9217,206.291 85.5,206.5C 83.2839,202.734 81.6172,198.734 80.5,194.5 Z"/></g>
<g><path style="opacity:1" fill="#f2b0af" d="M 80.5,194.5 C 81.6172,198.734 83.2839,202.734 85.5,206.5C 82.0136,211.539 83.3469,213.873 89.5,213.5C 84.0056,214.435 78.3389,215.102 72.5,215.5C 73.2297,213.955 74.563,213.122 76.5,213C 78.6015,211.267 78.9348,209.267 77.5,207C 75.9194,206.293 74.4194,205.46 73,204.5C 71.8057,197.479 72.8057,190.813 76,184.5C 77.9826,187.614 79.4826,190.947 80.5,194.5 Z"/></g>
<g><path style="opacity:1" fill="#433d62" d="M 306.5,207.5 C 310.327,210.995 314.66,213.661 319.5,215.5C 317.879,218.567 315.879,221.401 313.5,224C 305.326,229.253 297.326,234.753 289.5,240.5C 287.833,237.167 286.167,233.833 284.5,230.5C 289.5,226.5 294.5,222.5 299.5,218.5C 302.62,215.243 304.953,211.576 306.5,207.5 Z"/></g>
<g><path style="opacity:1" fill="#d77682" d="M 113.5,226.5 C 103.891,225.531 96.224,221.197 90.5,213.5C 92.5273,211.912 94.8606,211.412 97.5,212C 102.221,215.027 107.221,217.527 112.5,219.5C 113.474,221.743 113.808,224.076 113.5,226.5 Z"/></g>
<g><path style="opacity:1" fill="#4a4364" d="M 264.5,267.5 C 256.676,263.755 249.009,259.755 241.5,255.5C 251.694,250.783 255.86,242.783 254,231.5C 253.208,229.413 252.041,227.579 250.5,226C 255.001,223.584 259.334,220.917 263.5,218C 267.052,214.394 269.719,210.227 271.5,205.5C 279.167,201.333 286.833,197.167 294.5,193C 295.5,192.333 296.5,192.333 297.5,193C 300.916,202.872 298.249,210.872 289.5,217C 281.333,223.167 273.167,229.333 265,235.5C 264.333,237.167 264.333,238.833 265,240.5C 265.725,241.059 266.558,241.392 267.5,241.5C 271.307,239.596 274.974,237.763 278.5,236C 281.735,243.947 280.901,251.447 276,258.5C 272.291,261.715 268.458,264.715 264.5,267.5 Z"/></g>
<g><path style="opacity:1" fill="#433d63" d="M 154.5,219.5 C 156.476,225.621 159.143,231.454 162.5,237C 161.915,238.302 161.249,239.469 160.5,240.5C 149.193,241.462 137.86,242.128 126.5,242.5C 123.028,236.053 121.362,229.053 121.5,221.5C 132.535,221.165 143.535,220.498 154.5,219.5 Z"/></g>
<g><path style="opacity:1" fill="#f8c6c4" d="M 89.5,213.5 C 89.8333,213.5 90.1667,213.5 90.5,213.5C 96.224,221.197 103.891,225.531 113.5,226.5C 111.678,234.839 106.678,240.672 98.5,244C 81.4392,242.43 72.7725,232.93 72.5,215.5C 78.3389,215.102 84.0056,214.435 89.5,213.5 Z"/></g>
<g><path style="opacity:1" fill="#9a94b7" d="M 204.5,228.5 C 204.414,229.496 204.748,230.329 205.5,231C 215.195,237.177 224.862,243.344 234.5,249.5C 225.499,255.652 216.332,261.652 207,267.5C 202.373,263.103 196.873,260.769 190.5,260.5C 191.373,248.096 196.039,237.429 204.5,228.5 Z"/></g>
<g><path style="opacity:1" fill="#ac454a" d="M 395.5,291.5 C 384.271,286.552 372.938,280.886 361.5,274.5C 360.893,274.624 360.56,274.957 360.5,275.5C 352.232,266.102 349.399,255.102 352,242.5C 357.753,229.338 365.753,217.671 376,207.5C 377.558,209.359 379.391,210.859 381.5,212C 375.128,219.904 369.628,228.404 365,237.5C 361.73,249.003 363.397,259.67 370,269.5C 378.105,277.442 386.605,284.776 395.5,291.5 Z"/></g>
<g><path style="opacity:1" fill="#433c5c" d="M 160.5,240.5 C 158.666,245.007 156.666,249.507 154.5,254C 153.274,257.402 152.607,260.902 152.5,264.5C 139.923,261.933 131.256,254.599 126.5,242.5C 137.86,242.128 149.193,241.462 160.5,240.5 Z"/></g>
<g><path style="opacity:1" fill="#d67581" d="M 121.5,251.5 C 119.451,254.55 116.784,256.883 113.5,258.5C 113.745,253.946 113.412,249.446 112.5,245C 113.416,242.183 115.083,241.017 117.5,241.5C 118.846,244.855 120.18,248.188 121.5,251.5 Z"/></g>
<g><path style="opacity:1" fill="#f8cccb" d="M 121.5,251.5 C 130.792,265.255 143.792,273.088 160.5,275C 163.359,277.552 165.026,280.719 165.5,284.5C 165.5,286.167 165.5,287.833 165.5,289.5C 157.07,290.294 148.737,291.627 140.5,293.5C 141.245,290.07 139.911,288.403 136.5,288.5C 133.089,288.403 131.755,290.07 132.5,293.5C 124.063,287.575 115.729,281.409 107.5,275C 108.416,274.722 109.082,274.222 109.5,273.5C 110.458,273.047 111.292,272.381 112,271.5C 112.228,267.083 112.728,262.75 113.5,258.5C 116.784,256.883 119.451,254.55 121.5,251.5 Z"/></g>
<g><path style="opacity:1" fill="#433d63" d="M 241.5,255.5 C 249.009,259.755 256.676,263.755 264.5,267.5C 250.245,277.128 235.245,285.462 219.5,292.5C 217.028,290.38 214.194,288.714 211,287.5C 210.823,283.644 210.323,279.977 209.5,276.5C 219.132,268.011 229.798,261.011 241.5,255.5 Z"/></g>
<g><path style="opacity:1" fill="#43385c" d="M 103.5,249.5 C 104.649,249.791 105.316,250.624 105.5,252C 104.378,254.582 102.378,256.248 99.5,257C 96.8941,258.938 95.0608,261.438 94,264.5C 92.2314,271.715 91.2314,279.048 91,286.5C 87.6421,289.358 84.1421,292.025 80.5,294.5C 79.0295,293.619 78.1962,292.286 78,290.5C 77.3333,287.167 77.3333,283.833 78,280.5C 82.5858,271.003 85.0858,261.003 85.5,250.5C 88.4175,251.454 91.4175,252.121 94.5,252.5C 97.9263,252.469 100.926,251.469 103.5,249.5 Z"/></g>
<g><path style="opacity:1" fill="#d1727f" d="M 106.5,273.5 C 104.515,276.798 102.515,280.131 100.5,283.5C 100.167,283.5 99.8333,283.5 99.5,283.5C 98.9386,277.268 99.772,271.268 102,265.5C 102.667,264.833 103.333,264.167 104,263.5C 104.026,267.139 104.86,270.472 106.5,273.5 Z"/></g>
<g><path style="opacity:1" fill="#f9c7c5" d="M 106.5,273.5 C 107.5,273.5 108.5,273.5 109.5,273.5C 109.082,274.222 108.416,274.722 107.5,275C 115.729,281.409 124.063,287.575 132.5,293.5C 132.5,294.833 132.5,296.167 132.5,297.5C 131.781,299.764 131.448,302.097 131.5,304.5C 130.683,306.969 130.183,309.635 130,312.5C 123.957,307.617 117.79,302.95 111.5,298.5C 110.871,296.003 109.204,294.67 106.5,294.5C 104.645,292.967 102.812,291.3 101,289.5C 100.505,287.527 100.338,285.527 100.5,283.5C 102.515,280.131 104.515,276.798 106.5,273.5 Z"/></g>
<g><path style="opacity:1" fill="#ac4343" d="M 395.5,291.5 C 405.726,298.387 413.393,307.387 418.5,318.5C 409.021,312.925 399.355,307.592 389.5,302.5C 388.893,302.624 388.56,302.957 388.5,303.5C 385.531,300.358 382.698,297.025 380,293.5C 373.304,287.634 366.804,281.634 360.5,275.5C 360.56,274.957 360.893,274.624 361.5,274.5C 372.938,280.886 384.271,286.552 395.5,291.5 Z"/></g>
<g><path style="opacity:1" fill="#433d5d" d="M 209.5,276.5 C 210.323,279.977 210.823,283.644 211,287.5C 214.194,288.714 217.028,290.38 219.5,292.5C 217.281,294.065 216.948,296.065 218.5,298.5C 220.074,299.631 221.741,299.798 223.5,299C 234.707,294.147 245.541,288.647 256,282.5C 261.2,290.071 260.033,296.904 252.5,303C 241.643,310.428 229.977,316.262 217.5,320.5C 205.703,314.573 193.703,309.24 181.5,304.5C 194.165,305.624 203.332,300.624 209,289.5C 209.499,285.179 209.666,280.846 209.5,276.5 Z"/></g>
<g><path style="opacity:1" fill="#f5c4c3" d="M 165.5,284.5 C 167.453,290.556 168.453,296.889 168.5,303.5C 160.262,305.485 151.929,307.152 143.5,308.5C 141.712,303.678 140.712,298.678 140.5,293.5C 148.737,291.627 157.07,290.294 165.5,289.5C 165.5,287.833 165.5,286.167 165.5,284.5 Z"/></g>
<g><path style="opacity:1" fill="#f6bbb8" d="M 99.5,283.5 C 99.8333,283.5 100.167,283.5 100.5,283.5C 100.338,285.527 100.505,287.527 101,289.5C 102.812,291.3 104.645,292.967 106.5,294.5C 101.758,301.638 96.7577,308.638 91.5,315.5C 87.2458,313.251 83.2458,310.585 79.5,307.5C 84.9195,300.58 91.4195,294.913 99,290.5C 99.4966,288.19 99.6633,285.857 99.5,283.5 Z"/></g>
<g><path style="opacity:1" fill="#d57481" d="M 132.5,297.5 C 136.088,307.762 138.422,318.429 139.5,329.5C 134.149,347.003 122.482,353.836 104.5,350C 96.6876,344.705 93.6876,337.538 95.5,328.5C 103.113,337.76 112.446,339.927 123.5,335C 127.268,331.572 129.768,327.405 131,322.5C 131.499,316.509 131.666,310.509 131.5,304.5C 131.448,302.097 131.781,299.764 132.5,297.5 Z"/></g>
<g><path style="opacity:1" fill="#43375c" d="M 181.5,304.5 C 193.703,309.24 205.703,314.573 217.5,320.5C 212.513,321.665 207.513,322.832 202.5,324C 195.039,324.963 187.705,324.463 180.5,322.5C 177.08,316.977 175.746,310.977 176.5,304.5C 178.167,304.5 179.833,304.5 181.5,304.5 Z"/></g>
<g><path style="opacity:1" fill="#f8bab8" d="M 111.5,298.5 C 117.79,302.95 123.957,307.617 130,312.5C 130.183,309.635 130.683,306.969 131.5,304.5C 131.666,310.509 131.499,316.509 131,322.5C 129.768,327.405 127.268,331.572 123.5,335C 112.446,339.927 103.113,337.76 95.5,328.5C 95.5016,324.489 96.6683,320.822 99,317.5C 104.201,311.808 108.368,305.475 111.5,298.5 Z"/></g>
<g><path style="opacity:1" fill="#f5b2af" d="M 79.5,307.5 C 83.2458,310.585 87.2458,313.251 91.5,315.5C 89.3772,318.867 88.0439,322.534 87.5,326.5C 85.516,327.156 83.516,327.822 81.5,328.5C 79.0297,327.763 76.6964,326.763 74.5,325.5C 72.1421,318.345 73.8088,312.345 79.5,307.5 Z"/></g>
<g><path style="opacity:1" fill="#f9bcb8" d="M 168.5,303.5 C 168.5,312.167 168.5,320.833 168.5,329.5C 162.176,332.009 155.509,333.675 148.5,334.5C 147.096,325.884 145.429,317.217 143.5,308.5C 151.929,307.152 160.262,305.485 168.5,303.5 Z"/></g>
<g><path style="opacity:1" fill="#ce717e" d="M 74.5,325.5 C 76.6964,326.763 79.0297,327.763 81.5,328.5C 83.516,327.822 85.516,327.156 87.5,326.5C 87.8204,329.898 87.487,333.232 86.5,336.5C 79.8617,335.523 75.8617,331.856 74.5,325.5 Z"/></g>
<g><path style="opacity:1" fill="#a83d43" d="M 418.5,318.5 C 429.503,335.503 430.17,352.836 420.5,370.5C 413.698,366.262 406.698,362.262 399.5,358.5C 407.914,344.595 407.414,330.929 398,317.5C 395.071,312.631 391.904,307.965 388.5,303.5C 388.56,302.957 388.893,302.624 389.5,302.5C 399.355,307.592 409.021,312.925 418.5,318.5 Z"/></g>
<g><path style="opacity:1" fill="#d67481" d="M 175.5,331.5 C 178.535,336.717 182.202,341.55 186.5,346C 188.275,347.439 190.275,348.439 192.5,349C 198.167,349.333 203.833,349.667 209.5,350C 215.796,354.129 220.463,359.629 223.5,366.5C 209.465,366.842 196.132,370.009 183.5,376C 180.705,377.793 178.205,379.96 176,382.5C 175.882,373.408 175.049,364.408 173.5,355.5C 174.662,347.537 175.329,339.537 175.5,331.5 Z"/></g>
<g><path style="opacity:1" fill="#d67481" d="M 139.5,345.5 C 140.655,352.655 140.822,359.988 140,367.5C 138.248,370.672 136.248,373.672 134,376.5C 127.392,372.06 121.558,366.727 116.5,360.5C 120.677,358.383 125.01,356.549 129.5,355C 133.566,352.492 136.9,349.325 139.5,345.5 Z"/></g>
<g><path style="opacity:1" fill="#cf686f" d="M 266.5,348.5 C 260.095,355.242 253.095,361.242 245.5,366.5C 241.668,365.182 238.501,362.848 236,359.5C 232.945,354.966 229.779,350.633 226.5,346.5C 239.917,345.038 253.25,345.704 266.5,348.5 Z"/></g>
<g><path style="opacity:1" fill="#af494b" d="M 226.5,346.5 C 229.779,350.633 232.945,354.966 236,359.5C 238.501,362.848 241.668,365.182 245.5,366.5C 250.31,368.899 254.31,372.232 257.5,376.5C 249.807,373.103 241.807,370.603 233.5,369C 230.215,360.928 225.548,353.761 219.5,347.5C 221.743,346.526 224.076,346.192 226.5,346.5 Z"/></g>
<g><path style="opacity:1" fill="#ce636f" d="M 266.5,348.5 C 274.017,350.003 281.017,352.669 287.5,356.5C 278.453,363.891 269.453,371.224 260.5,378.5C 259.5,377.833 258.5,377.167 257.5,376.5C 254.31,372.232 250.31,368.899 245.5,366.5C 253.095,361.242 260.095,355.242 266.5,348.5 Z"/></g>
<g><path style="opacity:1" fill="#f2aeab" d="M 168.5,329.5 C 167.777,338.171 166.944,346.837 166,355.5C 163.688,358.646 161.188,361.646 158.5,364.5C 155.388,366.184 152.054,366.85 148.5,366.5C 148.5,355.833 148.5,345.167 148.5,334.5C 155.509,333.675 162.176,332.009 168.5,329.5 Z"/></g>
<g><path style="opacity:1" fill="#a1323d" d="M 372.5,370.5 C 370.031,371.317 367.365,371.817 364.5,372C 377.064,378.781 389.73,385.281 402.5,391.5C 391.334,399.779 378.667,404.112 364.5,404.5C 348.881,395.353 332.881,386.687 316.5,378.5C 315.893,378.624 315.56,378.957 315.5,379.5C 312.369,376.871 309.369,374.038 306.5,371C 310.408,368.952 311.241,366.119 309,362.5C 306.116,359.315 302.949,356.482 299.5,354C 300.167,353.833 300.833,353.667 301.5,353.5C 319.401,358.301 337.068,363.801 354.5,370C 360.491,370.499 366.491,370.666 372.5,370.5 Z"/></g>
<g><path style="opacity:1" fill="#cd6369" d="M 287.5,356.5 C 291.694,358.183 295.527,360.516 299,363.5C 299.667,364.167 299.667,364.833 299,365.5C 297.385,366.386 295.885,367.386 294.5,368.5C 262.514,395.155 230.848,422.155 199.5,449.5C 196.067,446.399 193.4,442.732 191.5,438.5C 212.475,420.529 233.475,402.529 254.5,384.5C 256.423,384.795 258.09,385.628 259.5,387C 263.998,388.477 266.165,386.977 266,382.5C 264.568,380.561 262.735,379.228 260.5,378.5C 269.453,371.224 278.453,363.891 287.5,356.5 Z"/></g>
<g><path style="opacity:1" fill="#a7373d" d="M 399.5,358.5 C 406.698,362.262 413.698,366.262 420.5,370.5C 415.909,378.754 409.909,385.754 402.5,391.5C 389.73,385.281 377.064,378.781 364.5,372C 367.365,371.817 370.031,371.317 372.5,370.5C 383.284,370.356 392.284,366.356 399.5,358.5 Z"/></g>
<g><path style="opacity:1" fill="#cd5c69" d="M 294.5,368.5 C 294.351,369.552 294.517,370.552 295,371.5C 297.063,373.734 299.229,375.734 301.5,377.5C 283.829,394.165 265.496,410.165 246.5,425.5C 244.661,424.492 243.328,422.992 242.5,421C 237.333,419.5 235.5,421.333 237,426.5C 238.095,427.693 238.928,429.027 239.5,430.5C 230.194,440.132 220.194,449.132 209.5,457.5C 205.793,455.312 202.46,452.645 199.5,449.5C 230.848,422.155 262.514,395.155 294.5,368.5 Z"/></g>
<g><path style="opacity:1" fill="#d1696f" d="M 236.5,377.5 C 234.692,377.491 233.025,377.991 231.5,379C 211.974,395.698 192.64,412.532 173.5,429.5C 165.889,400.91 176.555,383.077 205.5,376C 216.05,375.115 226.383,375.615 236.5,377.5 Z"/></g>
<g><path style="opacity:1" fill="#c75c69" d="M 301.5,377.5 C 305.167,379.167 307.833,381.833 309.5,385.5C 310.038,387.117 310.371,388.784 310.5,390.5C 293.46,405.542 276.127,420.209 258.5,434.5C 256.313,433.242 253.98,432.242 251.5,431.5C 249.11,430.109 247.443,428.109 246.5,425.5C 265.496,410.165 283.829,394.165 301.5,377.5 Z"/></g>
<g><path style="opacity:1" fill="#9e3138" d="M 364.5,404.5 C 351.552,405.931 338.552,405.264 325.5,402.5C 323.712,394.129 320.379,386.462 315.5,379.5C 315.56,378.957 315.893,378.624 316.5,378.5C 332.881,386.687 348.881,395.353 364.5,404.5 Z"/></g>
<g><path style="opacity:1" fill="#ce636f" d="M 236.5,377.5 C 243.037,378.675 249.037,381.008 254.5,384.5C 233.475,402.529 212.475,420.529 191.5,438.5C 189.734,435.812 188.067,432.979 186.5,430C 184.833,429.333 183.167,429.333 181.5,430C 179.877,432.08 178.377,434.246 177,436.5C 175.295,434.423 174.128,432.09 173.5,429.5C 192.64,412.532 211.974,395.698 231.5,379C 233.025,377.991 234.692,377.491 236.5,377.5 Z"/></g>
<g><path style="opacity:1" fill="#d16a71" d="M 161.5,411.5 C 154.455,408.261 147.122,405.594 139.5,403.5C 137.424,394.066 138.591,385.066 143,376.5C 145.297,373.279 148.297,372.612 152,374.5C 158.129,373.936 163.129,371.269 167,366.5C 168.655,382.061 166.822,397.061 161.5,411.5 Z"/></g>
<g><path style="opacity:1" fill="#c75663" d="M 310.5,390.5 C 312.344,394.397 312.677,398.397 311.5,402.5C 309.5,401.5 307.5,400.5 305.5,399.5C 305.167,399.833 304.833,400.167 304.5,400.5C 306.29,411.691 305.457,422.691 302,433.5C 300.594,429.017 298.428,425.017 295.5,421.5C 292.918,426.333 290.085,431 287,435.5C 282.426,440.15 276.926,441.65 270.5,440C 266.29,438.391 262.29,436.558 258.5,434.5C 276.127,420.209 293.46,405.542 310.5,390.5 Z"/></g>
<g><path style="opacity:1" fill="#a03239" d="M 309.5,385.5 C 315.256,392.366 318.256,400.366 318.5,409.5C 316.208,409.244 314.041,409.577 312,410.5C 312.879,422.119 310.212,432.786 304,442.5C 302.649,444.019 301.149,445.352 299.5,446.5C 298.825,441.647 296.158,439.813 291.5,441C 288.465,444.37 285.132,447.37 281.5,450C 280.167,450.667 278.833,450.667 277.5,450C 267.887,445.039 259.22,438.872 251.5,431.5C 253.98,432.242 256.313,433.242 258.5,434.5C 262.29,436.558 266.29,438.391 270.5,440C 276.926,441.65 282.426,440.15 287,435.5C 290.085,431 292.918,426.333 295.5,421.5C 298.428,425.017 300.594,429.017 302,433.5C 305.457,422.691 306.29,411.691 304.5,400.5C 304.833,400.167 305.167,399.833 305.5,399.5C 307.5,400.5 309.5,401.5 311.5,402.5C 312.677,398.397 312.344,394.397 310.5,390.5C 310.371,388.784 310.038,387.117 309.5,385.5 Z"/></g>
<g><path style="opacity:1" fill="#a93e44" d="M 131.5,434.5 C 128.167,434.5 124.833,434.5 121.5,434.5C 121.5,433.167 121.5,431.833 121.5,430.5C 121.333,412.83 121.5,395.164 122,377.5C 124.695,379.694 127.528,381.694 130.5,383.5C 131.499,400.487 131.833,417.487 131.5,434.5 Z"/></g>
<g><path style="opacity:1" fill="#cd626b" d="M 139.5,403.5 C 147.122,405.594 154.455,408.261 161.5,411.5C 158.291,424.213 154.958,436.88 151.5,449.5C 147.82,448.44 144.154,447.274 140.5,446C 139.577,443.959 139.244,441.792 139.5,439.5C 139.5,427.5 139.5,415.5 139.5,403.5 Z"/></g>
<g><path style="opacity:1" fill="#c65c69" d="M 239.5,430.5 C 243.167,433.5 246.5,436.833 249.5,440.5C 242.332,446.832 234.999,452.998 227.5,459C 225.536,460.451 224.203,462.284 223.5,464.5C 218.236,463.201 213.569,460.868 209.5,457.5C 220.194,449.132 230.194,440.132 239.5,430.5 Z"/></g>
<g><path style="opacity:1" fill="#c55663" d="M 249.5,440.5 C 257.351,446.922 265.684,452.588 274.5,457.5C 268.809,462.197 263.142,466.863 257.5,471.5C 246.317,468.397 234.984,466.063 223.5,464.5C 224.203,462.284 225.536,460.451 227.5,459C 234.999,452.998 242.332,446.832 249.5,440.5 Z"/></g>
<g><path style="opacity:1" fill="#9f3138" d="M 121.5,430.5 C 121.5,431.833 121.5,433.167 121.5,434.5C 124.833,434.5 128.167,434.5 131.5,434.5C 130.947,444.519 130.114,454.519 129,464.5C 128.333,465.833 127.667,467.167 127,468.5C 119.931,471.9 113.098,475.733 106.5,480C 100.509,480.499 94.5092,480.666 88.5,480.5C 89.139,475.736 91.4724,471.903 95.5,469C 100.554,465.806 105.888,463.139 111.5,461C 115.381,458.072 117.881,454.239 119,449.5C 119.691,443 120.524,436.666 121.5,430.5 Z"/></g>
<g><path style="opacity:1" fill="#c15463" d="M 139.5,439.5 C 139.244,441.792 139.577,443.959 140.5,446C 144.154,447.274 147.82,448.44 151.5,449.5C 149.719,463.68 144.886,476.68 137,488.5C 133.731,491.883 129.897,494.383 125.5,496C 118.842,496.5 112.175,496.666 105.5,496.5C 106.663,492.018 108.996,488.184 112.5,485C 117.412,481.579 122.746,478.912 128.5,477C 133.815,473.205 136.648,468.038 137,461.5C 137.513,453.981 138.347,446.648 139.5,439.5 Z"/></g>
<g><path style="opacity:1" fill="#c05063" d="M 274.5,457.5 C 284.862,463.274 294.028,470.607 302,479.5C 304.939,486.619 302.772,491.286 295.5,493.5C 274.833,493.5 254.167,493.5 233.5,493.5C 239.167,488.167 244.833,482.833 250.5,477.5C 255.18,478.893 259.846,480.393 264.5,482C 271.18,483.67 272.846,481.67 269.5,476C 265.654,473.997 261.654,472.497 257.5,471.5C 263.142,466.863 268.809,462.197 274.5,457.5 Z"/></g>
<g><path style="opacity:1" fill="#ae494a" d="M 195.5,462.5 C 200.561,461.665 204.895,462.999 208.5,466.5C 198.551,469.297 190.551,474.797 184.5,483C 179.798,483.828 175.131,483.662 170.5,482.5C 176.468,472.864 184.802,466.197 195.5,462.5 Z"/></g>
<g><path style="opacity:1" fill="#c65764" d="M 250.5,477.5 C 244.833,482.833 239.167,488.167 233.5,493.5C 218.324,493.829 203.324,493.496 188.5,492.5C 192.563,482.616 199.896,476.449 210.5,474C 224.064,472.203 237.398,473.37 250.5,477.5 Z"/></g>
<g><path style="opacity:1" fill="#9b4656" d="M 188.5,492.5 C 203.324,493.496 218.324,493.829 233.5,493.5C 254.167,493.5 274.833,493.5 295.5,493.5C 259.664,494.83 223.664,494.83 187.5,493.5C 187.624,492.893 187.957,492.56 188.5,492.5 Z"/></g>
</svg>
