<?xml version="1.0" encoding="UTF-8"?>
<!DOCTYPE svg PUBLIC "-//W3C//DTD SVG 1.1//EN" "http://www.w3.org/Graphics/SVG/1.1/DTD/svg11.dtd">
<svg xmlns="http://www.w3.org/2000/svg" version="1.1" width="512px" height="512px" style="shape-rendering:geometricPrecision; text-rendering:geometricPrecision; image-rendering:optimizeQuality; fill-rule:evenodd; clip-rule:evenodd" xmlns:xlink="http://www.w3.org/1999/xlink">
<g><path style="opacity:1" fill="#272639" d="M 418.5,29.5 C 421.187,29.3359 423.854,29.5026 426.5,30C 432.833,31.6667 439.167,33.3333 445.5,35C 448.806,38.112 450.639,41.9453 451,46.5C 451.667,52.1667 451.667,57.8333 451,63.5C 450.72,70.5818 447.22,75.0818 440.5,77C 435.177,77.4994 429.844,77.666 424.5,77.5C 424.333,94.8365 424.5,112.17 425,129.5C 435.567,134.678 438.567,142.678 434,153.5C 431.703,156.98 428.536,158.98 424.5,159.5C 424.168,170.52 424.501,181.52 425.5,192.5C 431.642,193.369 437.642,194.869 443.5,197C 450.668,201.083 457.668,205.416 464.5,210C 471.019,212.296 477.686,213.963 484.5,215C 492.042,221.298 492.375,227.964 485.5,235C 481.714,236.404 477.88,237.57 474,238.5C 466.46,258.286 458.627,277.953 450.5,297.5C 464.818,298.499 479.151,298.833 493.5,298.5C 487.806,281.921 481.806,265.421 475.5,249C 477.285,244.347 480.119,243.513 484,246.5C 490.47,264.244 497.137,281.911 504,299.5C 505.675,322.856 495.008,336.189 472,339.5C 448.484,336.988 437.817,323.988 440,300.5C 448.402,279.127 456.902,257.794 465.5,236.5C 456.113,231.474 446.447,226.974 436.5,223C 422.987,219.685 409.654,220.352 396.5,225C 387.319,230.256 377.652,234.423 367.5,237.5C 360.123,257.8 352.456,277.967 344.5,298C 359.167,298.667 373.833,298.667 388.5,298C 382.338,282.85 376.171,267.684 370,252.5C 368.265,246.112 370.432,243.779 376.5,245.5C 384.291,264.037 391.791,282.704 399,301.5C 400.515,324.988 389.515,337.654 366,339.5C 343.249,335.753 332.916,322.419 335,299.5C 342.704,278.597 350.537,257.764 358.5,237C 348.74,233.395 346.24,226.895 351,217.5C 352.579,215.959 354.413,214.792 356.5,214C 361.607,213.512 366.607,212.512 371.5,211C 380.339,205.746 389.339,200.746 398.5,196C 404.369,194.138 410.369,192.971 416.5,192.5C 416.5,181.5 416.5,170.5 416.5,159.5C 408.922,157.743 405.255,152.91 405.5,145C 405.406,137.423 408.906,132.256 416,129.5C 416.5,110.17 416.667,90.8362 416.5,71.5C 414.61,71.2965 413.11,71.9632 412,73.5C 403.667,105.832 393.334,137.499 381,168.5C 377.547,173.621 373.714,178.454 369.5,183C 354.128,196.763 338.295,209.929 322,222.5C 324.831,231.011 326.665,239.844 327.5,249C 326.125,269.54 315.791,283.373 296.5,290.5C 295.527,293.779 294.027,296.779 292,299.5C 288.613,302.887 285.279,306.221 282,309.5C 280.933,317.517 280.766,325.517 281.5,333.5C 285.796,336.686 287.63,341.019 287,346.5C 305.176,364.703 318.509,386.036 327,410.5C 334.353,430.578 339.186,451.244 341.5,472.5C 341.24,474.187 340.573,475.687 339.5,477C 300.837,484.707 263.17,481.373 226.5,467C 200.826,455.085 180.326,437.252 165,413.5C 169.005,388.484 179.005,366.151 195,346.5C 194.845,344.189 194.845,341.856 195,339.5C 196.305,336.702 197.805,334.035 199.5,331.5C 198.469,324.195 197.636,316.862 197,309.5C 191.931,307.965 187.264,305.632 183,302.5C 177.413,312.006 172.08,321.673 167,331.5C 158.736,342.562 147.903,350.062 134.5,354C 120.698,358.951 106.698,363.284 92.5,367C 89.2298,371.259 84.8965,373.093 79.5,372.5C 79.5883,378.642 76.5883,382.309 70.5,383.5C 69.7427,391.831 69.076,400.164 68.5,408.5C 71.0867,412.784 72.7534,417.45 73.5,422.5C 71.9979,435.762 64.6646,440.929 51.5,438C 42.3936,432.943 39.5603,425.443 43,415.5C 43.972,413.695 45.1387,412.028 46.5,410.5C 45.859,401.529 45.1923,392.529 44.5,383.5C 35.615,379.906 32.9483,373.739 36.5,365C 35.4489,362.631 34.7823,360.131 34.5,357.5C 35.4147,353.856 35.5813,350.19 35,346.5C 28.1323,345.227 21.299,343.394 14.5,341C 4.68888,331.229 4.02222,320.896 12.5,310C 21.1047,304.281 29.7714,304.114 38.5,309.5C 38.8333,306 39.1667,302.5 39.5,299C 37.0267,235.85 35.5267,172.683 35,109.5C 35.7726,87.8555 41.7726,67.8555 53,49.5C 57.6724,45.6301 61.339,46.6301 64,52.5C 75.607,74.5282 81.107,98.0282 80.5,123C 78.8156,184.505 77.3156,246.005 76,307.5C 88.4445,301.649 98.1111,304.649 105,316.5C 105.988,319.424 106.654,322.424 107,325.5C 117.925,322.703 127.925,318.036 137,311.5C 144.074,297.285 150.574,282.785 156.5,268C 142.161,242.547 145.161,219.38 165.5,198.5C 153.746,191.404 150.246,181.404 155,168.5C 155.893,167.919 156.893,167.585 158,167.5C 162.2,169.845 166.7,171.511 171.5,172.5C 173.029,172.471 174.196,171.804 175,170.5C 172.567,155.626 170.733,140.626 169.5,125.5C 169.638,114.86 171.472,104.527 175,94.5C 181.769,78.5212 193.935,71.3546 211.5,73C 221.537,62.3243 233.537,59.3243 247.5,64C 262.832,69.3325 272.665,79.8325 277,95.5C 279.164,106.476 280.164,117.476 280,128.5C 285.288,133.039 291.122,133.706 297.5,130.5C 301.254,131.903 302.421,134.57 301,138.5C 298.141,148.856 291.307,154.356 280.5,155C 284.933,167.37 291.766,178.204 301,187.5C 317.059,178.452 331.726,167.452 345,154.5C 361.769,116.292 379.102,78.2923 397,40.5C 402.578,33.4617 409.745,29.795 418.5,29.5 Z"/></g>
<g><path style="opacity:1" fill="#f2d39d" d="M 70.5,96.5 C 69.596,95.791 69.2627,94.791 69.5,93.5C 66.5,93.5 63.5,93.5 60.5,93.5C 60.5,92.8333 60.1667,92.5 59.5,92.5C 56.8518,89.7376 54.5185,90.0709 52.5,93.5C 50.1667,93.5 47.8333,93.5 45.5,93.5C 45.7373,94.791 45.404,95.791 44.5,96.5C 46.0735,82.8651 50.4068,70.1984 57.5,58.5C 64.2208,70.3285 68.5541,82.9951 70.5,96.5 Z"/></g>
<g><path style="opacity:1" fill="#edaca9" d="M 435.5,40.5 C 438.099,40.5494 440.266,41.5494 442,43.5C 442.667,51.1667 442.667,58.8333 442,66.5C 441.097,67.7014 439.931,68.5348 438.5,69C 434.167,69.6667 429.833,69.6667 425.5,69C 422.15,66.1235 421.15,62.6235 422.5,58.5C 426.848,60.0346 431.014,59.7013 435,57.5C 435.499,51.8431 435.666,46.1764 435.5,40.5 Z"/></g>
<g><path style="opacity:1" fill="#aa6684" d="M 262.5,84.5 C 248.591,87.1536 234.591,89.8203 220.5,92.5C 218.119,91.1697 215.786,91.3364 213.5,93C 203.612,101.439 197.612,112.106 195.5,125C 193.983,126.684 192.317,128.184 190.5,129.5C 190.44,128.957 190.107,128.624 189.5,128.5C 185.895,129.49 182.228,130.156 178.5,130.5C 176.9,117.135 179.067,104.468 185,92.5C 188.287,86.9331 193.121,83.4331 199.5,82C 204.535,81.5822 209.535,81.5822 214.5,82C 222.909,70.1593 233.909,67.1593 247.5,73C 253.825,75.1649 258.825,78.9983 262.5,84.5 Z"/></g>
<g><path style="opacity:1" fill="#f1adab" d="M 385.5,131.5 C 380.5,127.5 375.5,123.5 370.5,119.5C 380.648,94.8991 391.482,70.5657 403,46.5C 409.414,38.8405 417.58,36.3405 427.5,39C 428.464,43.0659 428.797,47.2325 428.5,51.5C 424.651,51.498 421.985,49.6647 420.5,46C 419.5,45.3333 418.5,45.3333 417.5,46C 415.595,47.8153 413.928,49.8153 412.5,52C 407.771,52.9962 406.438,55.6628 408.5,60C 410.235,60.6514 411.902,60.4847 413.5,59.5C 414.429,60.6888 414.762,62.0222 414.5,63.5C 410.066,64.4344 406.566,66.7677 404,70.5C 398.582,91.1984 392.415,111.532 385.5,131.5 Z"/></g>
<g><path style="opacity:1" fill="#a36180" d="M 262.5,84.5 C 266.226,89.1406 268.726,94.4739 270,100.5C 270.104,110.559 270.771,120.559 272,130.5C 273.382,133.305 275.216,135.639 277.5,137.5C 269.851,140.164 261.851,141.831 253.5,142.5C 253.666,137.489 253.499,132.489 253,127.5C 245.107,122.94 237.773,117.607 231,111.5C 226.459,105.751 222.959,99.4177 220.5,92.5C 234.591,89.8203 248.591,87.1536 262.5,84.5 Z"/></g>
<g><path style="opacity:1" fill="#f2906a" d="M 59.5,92.5 C 59.5,121.5 59.5,150.5 59.5,179.5C 57.5,179.833 55.5,180.167 53.5,180.5C 53.8313,208.672 53.498,236.672 52.5,264.5C 52.5,250.167 52.5,235.833 52.5,221.5C 52.5,205.167 52.5,188.833 52.5,172.5C 52.5,146.167 52.5,119.833 52.5,93.5C 54.5185,90.0709 56.8518,89.7376 59.5,92.5 Z"/></g>
<g><path style="opacity:1" fill="#d37480" d="M 217.5,105.5 C 222.887,113.726 229.554,120.892 237.5,127C 234.518,127.498 231.518,127.665 228.5,127.5C 222.21,121.525 218.543,114.192 217.5,105.5 Z"/></g>
<g><path style="opacity:1" fill="#efa9a4" d="M 217.5,105.5 C 218.543,114.192 222.21,121.525 228.5,127.5C 220.217,127.659 212.05,126.992 204,125.5C 204.624,116.252 208.458,108.585 215.5,102.5C 216.919,103.005 217.585,104.005 217.5,105.5 Z"/></g>
<g><path style="opacity:1" fill="#f5c996" d="M 52.5,93.5 C 52.5,119.833 52.5,146.167 52.5,172.5C 49.8333,172.5 47.1667,172.5 44.5,172.5C 44.8016,169.941 44.4682,167.607 43.5,165.5C 43.361,151.83 43.0277,138.163 42.5,124.5C 42.3838,115.092 43.0504,105.759 44.5,96.5C 45.404,95.791 45.7373,94.791 45.5,93.5C 47.8333,93.5 50.1667,93.5 52.5,93.5 Z"/></g>
<g><path style="opacity:1" fill="#f9cf98" d="M 60.5,93.5 C 63.5,93.5 66.5,93.5 69.5,93.5C 69.2627,94.791 69.596,95.791 70.5,96.5C 71.4686,111.785 71.8019,127.119 71.5,142.5C 67.8815,143.244 64.2148,143.577 60.5,143.5C 60.5,126.833 60.5,110.167 60.5,93.5 Z"/></g>
<g><path style="opacity:1" fill="#dce2f6" d="M 235.5,135.5 C 234.172,144.831 228.839,149.498 219.5,149.5C 212.568,148.204 205.902,146.037 199.5,143C 195.491,139.012 195.658,135.512 200,132.5C 211.704,134.915 223.537,135.915 235.5,135.5 Z"/></g>
<g><path style="opacity:1" fill="#777cad" d="M 245.5,134.5 C 245.5,140.5 245.5,146.5 245.5,152.5C 242.5,152.5 239.5,152.5 236.5,152.5C 230.511,152.633 224.844,151.633 219.5,149.5C 228.839,149.498 234.172,144.831 235.5,135.5C 238.807,134.949 242.14,134.616 245.5,134.5 Z"/></g>
<g><path style="opacity:1" fill="#f2be8f" d="M 417.5,137.5 C 425.775,136.706 428.942,140.373 427,148.5C 422.632,153.711 418.299,153.711 414,148.5C 412.662,143.96 413.829,140.293 417.5,137.5 Z"/></g>
<g><path style="opacity:1" fill="#905472" d="M 277.5,137.5 C 281.791,139.929 286.458,141.096 291.5,141C 290.122,142.713 288.455,144.047 286.5,145C 282.167,145.333 277.833,145.667 273.5,146C 272.374,155.33 274.208,164.164 279,172.5C 283.5,178.333 288,184.167 292.5,190C 283.803,192.516 275.803,196.349 268.5,201.5C 262.763,192.693 258.097,183.36 254.5,173.5C 254.672,163.143 254.339,152.81 253.5,142.5C 261.851,141.831 269.851,140.164 277.5,137.5 Z"/></g>
<g><path style="opacity:1" fill="#464664" d="M 245.5,134.5 C 246.49,140.645 246.823,146.978 246.5,153.5C 242.958,153.813 239.625,153.479 236.5,152.5C 239.5,152.5 242.5,152.5 245.5,152.5C 245.5,146.5 245.5,140.5 245.5,134.5 Z"/></g>
<g><path style="opacity:1" fill="#7478a9" d="M 199.5,151.5 C 210.558,155.598 221.891,158.765 233.5,161C 225.445,161.822 217.445,161.488 209.5,160C 204.727,158.718 201.394,155.884 199.5,151.5 Z"/></g>
<g><path style="opacity:1" fill="#925573" d="M 190.5,129.5 C 189.404,133.413 189.238,137.413 190,141.5C 191.383,146.08 192.383,150.747 193,155.5C 193.26,157.618 194.26,159.284 196,160.5C 196.097,168.682 198.93,175.682 204.5,181.5C 206.629,184.095 207.962,187.095 208.5,190.5C 208.5,192.167 208.5,193.833 208.5,195.5C 198.627,196.895 188.794,198.562 179,200.5C 178.235,200.43 177.735,200.097 177.5,199.5C 178.473,197.932 178.64,196.265 178,194.5C 172.099,192.98 167.099,189.98 163,185.5C 161.627,183.305 161.294,180.971 162,178.5C 177.887,183.729 184.887,178.062 183,161.5C 180.588,151.295 179.088,140.962 178.5,130.5C 182.228,130.156 185.895,129.49 189.5,128.5C 190.107,128.624 190.44,128.957 190.5,129.5 Z"/></g>
<g><path style="opacity:1" fill="#f7bcbb" d="M 370.5,119.5 C 375.5,123.5 380.5,127.5 385.5,131.5C 382.091,143.891 377.591,155.891 372,167.5C 367.626,173.375 362.459,178.375 356.5,182.5C 352.693,178.865 348.693,175.365 344.5,172C 343.255,171.209 341.922,170.709 340.5,170.5C 345.136,166.696 349.303,162.362 353,157.5C 358.759,144.689 364.592,132.022 370.5,119.5 Z"/></g>
<g><path style="opacity:1" fill="#d17581" d="M 244.5,168.5 C 231.597,174.623 218.597,174.956 205.5,169.5C 204.596,168.791 204.263,167.791 204.5,166.5C 217.6,170.331 230.766,170.331 244,166.5C 245.718,167.031 245.885,167.698 244.5,168.5 Z"/></g>
<g><path style="opacity:1" fill="#f5c08f" d="M 71.5,142.5 C 71.6496,159.513 71.3163,176.513 70.5,193.5C 69.596,194.209 69.2627,195.209 69.5,196.5C 66.5,196.5 63.5,196.5 60.5,196.5C 60.5,178.833 60.5,161.167 60.5,143.5C 64.2148,143.577 67.8815,143.244 71.5,142.5 Z"/></g>
<g><path style="opacity:1" fill="#f8bd8e" d="M 43.5,165.5 C 44.4682,167.607 44.8016,169.941 44.5,172.5C 47.1667,172.5 49.8333,172.5 52.5,172.5C 52.5,188.833 52.5,205.167 52.5,221.5C 50.1667,221.5 47.8333,221.5 45.5,221.5C 45.8222,215.642 45.4889,209.975 44.5,204.5C 44.6029,191.485 44.2696,178.485 43.5,165.5 Z"/></g>
<g><path style="opacity:1" fill="#f5c8c6" d="M 244.5,168.5 C 240.573,177.078 233.907,182.411 224.5,184.5C 216.35,181.616 210.017,176.616 205.5,169.5C 218.597,174.956 231.597,174.623 244.5,168.5 Z"/></g>
<g><path style="opacity:1" fill="#5c3251" d="M 254.5,173.5 C 258.097,183.36 262.763,192.693 268.5,201.5C 265.202,203.505 262.202,206.005 259.5,209C 257.866,209.494 256.199,209.66 254.5,209.5C 254.5,197.5 254.5,185.5 254.5,173.5 Z"/></g>
<g><path style="opacity:1" fill="#d67581" d="M 246.5,191.5 C 242.157,195.171 237.157,197.504 231.5,198.5C 231.183,195.428 231.516,192.428 232.5,189.5C 237.659,187.511 242.159,184.511 246,180.5C 246.499,184.152 246.665,187.818 246.5,191.5 Z"/></g>
<g><path style="opacity:1" fill="#5c3251" d="M 204.5,181.5 C 209.897,186.553 216.231,189.886 223.5,191.5C 224.197,198.009 223.197,204.175 220.5,210C 211.806,210.048 203.14,209.548 194.5,208.5C 197.641,207.679 200.975,207.179 204.5,207C 209.189,202.15 210.522,196.65 208.5,190.5C 207.962,187.095 206.629,184.095 204.5,181.5 Z"/></g>
<g><path style="opacity:1" fill="#f5caca" d="M 246.5,191.5 C 247.099,208.166 247.266,224.833 247,241.5C 246.194,246.013 244.861,250.346 243,254.5C 236.708,260.048 230.708,259.715 225,253.5C 219.571,238.485 220.905,224.152 229,210.5C 230.154,206.553 230.987,202.553 231.5,198.5C 237.157,197.504 242.157,195.171 246.5,191.5 Z"/></g>
<g><path style="opacity:1" fill="#f7cac9" d="M 340.5,170.5 C 341.922,170.709 343.255,171.209 344.5,172C 348.693,175.365 352.693,178.865 356.5,182.5C 337.427,199.538 317.76,215.872 297.5,231.5C 283.973,230.736 273.973,224.403 267.5,212.5C 272.442,207.747 278.109,203.914 284.5,201C 294.222,198.808 303.556,195.474 312.5,191C 321.992,184.335 331.325,177.502 340.5,170.5 Z"/></g>
<g><path style="opacity:1" fill="#f6c795" d="M 411.5,201.5 C 414.898,201.18 418.232,201.513 421.5,202.5C 419.964,205.778 418.631,209.111 417.5,212.5C 410.736,212.858 404.069,213.858 397.5,215.5C 399.153,212.193 400.82,208.86 402.5,205.5C 402.043,204.702 401.376,204.369 400.5,204.5C 403.799,202.517 407.466,201.517 411.5,201.5 Z"/></g>
<g><path style="opacity:1" fill="#ec845d" d="M 59.5,179.5 C 60.1161,214.163 60.4494,248.83 60.5,283.5C 59.5002,278.597 59.1668,272.93 59.5,266.5C 57.5328,266.261 55.6995,266.594 54,267.5C 53.8285,274.679 53.3285,281.679 52.5,288.5C 52.5,280.5 52.5,272.5 52.5,264.5C 53.498,236.672 53.8313,208.672 53.5,180.5C 55.5,180.167 57.5,179.833 59.5,179.5 Z"/></g>
<g><path style="opacity:1" fill="#f2b085" d="M 411.5,201.5 C 425.923,199.082 438.923,202.416 450.5,211.5C 450.13,214.267 448.796,216.267 446.5,217.5C 437.169,214.071 427.502,212.404 417.5,212.5C 418.631,209.111 419.964,205.778 421.5,202.5C 418.232,201.513 414.898,201.18 411.5,201.5 Z"/></g>
<g><path style="opacity:1" fill="#f1d19c" d="M 400.5,204.5 C 401.376,204.369 402.043,204.702 402.5,205.5C 400.82,208.86 399.153,212.193 397.5,215.5C 388.707,219.396 380.04,223.563 371.5,228C 366.798,228.828 362.131,228.662 357.5,227.5C 356.047,225.356 356.38,223.523 358.5,222C 370.575,220.979 381.242,216.645 390.5,209C 393.736,207.214 397.07,205.714 400.5,204.5 Z"/></g>
<g><path style="opacity:1" fill="#f2a37f" d="M 450.5,211.5 C 453.444,213.311 456.444,215.144 459.5,217C 462.748,218.46 466.081,219.626 469.5,220.5C 468.55,223.115 466.883,225.115 464.5,226.5C 458.193,224.013 452.193,221.013 446.5,217.5C 448.796,216.267 450.13,214.267 450.5,211.5 Z"/></g>
<g><path style="opacity:1" fill="#d77582" d="M 267.5,212.5 C 273.973,224.403 283.973,230.736 297.5,231.5C 292.016,238.458 287.016,245.791 282.5,253.5C 273.582,242.328 267.916,229.661 265.5,215.5C 265.453,213.962 266.12,212.962 267.5,212.5 Z"/></g>
<g><path style="opacity:1" fill="#f6c9c9" d="M 175.5,297.5 C 169.264,293.738 163.93,289.072 159.5,283.5C 168.121,262.49 177.621,241.823 188,221.5C 192.379,215.352 197.879,214.019 204.5,217.5C 201.238,225.548 199.071,233.881 198,242.5C 196.667,245.167 195.333,247.833 194,250.5C 178.875,262.734 172.709,278.401 175.5,297.5 Z"/></g>
<g><path style="opacity:1" fill="#834c69" d="M 208.5,190.5 C 210.522,196.65 209.189,202.15 204.5,207C 200.975,207.179 197.641,207.679 194.5,208.5C 189.191,209.296 185.025,211.962 182,216.5C 175.151,230.198 168.318,243.864 161.5,257.5C 152.83,241.534 153.996,226.2 165,211.5C 168.376,206.623 172.543,202.623 177.5,199.5C 177.735,200.097 178.235,200.43 179,200.5C 188.794,198.562 198.627,196.895 208.5,195.5C 208.5,193.833 208.5,192.167 208.5,190.5 Z"/></g>
<g><path style="opacity:1" fill="#f1f3f4" d="M 214.5,257.5 C 214.773,259.451 214.107,260.951 212.5,262C 204.46,265.069 196.46,268.235 188.5,271.5C 187.893,271.376 187.56,271.043 187.5,270.5C 188.072,268.745 188.906,267.078 190,265.5C 201.017,256.468 207.017,244.801 208,230.5C 209.113,226.492 210.613,222.659 212.5,219C 213.944,218.219 215.277,218.386 216.5,219.5C 213.527,232.037 212.861,244.704 214.5,257.5 Z"/></g>
<g><path style="opacity:1" fill="#f7b185" d="M 59.5,92.5 C 60.1667,92.5 60.5,92.8333 60.5,93.5C 60.5,110.167 60.5,126.833 60.5,143.5C 60.5,161.167 60.5,178.833 60.5,196.5C 63.5,196.5 66.5,196.5 69.5,196.5C 69.2627,195.209 69.596,194.209 70.5,193.5C 69.6271,222.232 68.6271,250.899 67.5,279.5C 65.3295,281.086 62.9962,282.42 60.5,283.5C 60.4494,248.83 60.1161,214.163 59.5,179.5C 59.5,150.5 59.5,121.5 59.5,92.5 Z"/></g>
<g><path style="opacity:1" fill="#e37750" d="M 469.5,220.5 C 473.177,221.085 476.843,221.752 480.5,222.5C 481.631,224.074 481.798,225.741 481,227.5C 476.252,228.635 471.419,228.802 466.5,228C 465.584,227.722 464.918,227.222 464.5,226.5C 466.883,225.115 468.55,223.115 469.5,220.5 Z"/></g>
<g><path style="opacity:1" fill="#7a7984" d="M 258.5,218.5 C 257.85,218.196 257.183,217.863 256.5,217.5C 255.833,223.988 255.167,230.321 254.5,236.5C 254.5,229.833 254.5,223.167 254.5,216.5C 256.483,216.157 257.817,216.824 258.5,218.5 Z"/></g>
<g><path style="opacity:1" fill="#7b4363" d="M 313.5,227.5 C 314.117,227.611 314.617,227.944 315,228.5C 318.766,238.953 319.433,249.62 317,260.5C 313.055,269.612 306.555,276.279 297.5,280.5C 294.625,273.918 291.625,267.418 288.5,261C 293.99,247.681 302.323,236.515 313.5,227.5 Z"/></g>
<g><path style="opacity:1" fill="#f0a981" d="M 44.5,204.5 C 45.4889,209.975 45.8222,215.642 45.5,221.5C 47.8333,221.5 50.1667,221.5 52.5,221.5C 52.5,235.833 52.5,250.167 52.5,264.5C 52.5,272.5 52.5,280.5 52.5,288.5C 51.0351,289.737 49.3684,290.737 47.5,291.5C 46.6506,262.654 45.6506,233.654 44.5,204.5 Z"/></g>
<g><path style="opacity:1" fill="#edf1f7" d="M 258.5,218.5 C 260.645,229.432 264.478,239.765 270,249.5C 274.433,255.384 278.599,261.384 282.5,267.5C 281.942,268.79 280.942,269.623 279.5,270C 266.479,274.847 253.479,279.68 240.5,284.5C 233.845,279.548 228.845,273.215 225.5,265.5C 226,265.167 226.5,264.833 227,264.5C 240.791,268.6 249.458,263.6 253,249.5C 253.735,245.187 254.235,240.853 254.5,236.5C 255.167,230.321 255.833,223.988 256.5,217.5C 257.183,217.863 257.85,218.196 258.5,218.5 Z"/></g>
<g><path style="opacity:1" fill="#e8eaf7" d="M 282.5,267.5 C 288.938,275.376 290.104,284.042 286,293.5C 278.191,302.584 268.357,305.751 256.5,303C 250.712,300.569 244.712,299.069 238.5,298.5C 229.167,299.833 219.833,301.167 210.5,302.5C 205.945,302.375 201.611,301.708 197.5,300.5C 209.462,296.738 221.128,292.404 232.5,287.5C 236.411,289.464 239.078,288.464 240.5,284.5C 253.479,279.68 266.479,274.847 279.5,270C 280.942,269.623 281.942,268.79 282.5,267.5 Z"/></g>
<g><path style="opacity:1" fill="#edf1f8" d="M 214.5,257.5 C 217.389,269.263 223.389,279.263 232.5,287.5C 221.128,292.404 209.462,296.738 197.5,300.5C 185.351,297.556 180.851,289.89 184,277.5C 184.67,274.826 185.837,272.493 187.5,270.5C 187.56,271.043 187.893,271.376 188.5,271.5C 196.46,268.235 204.46,265.069 212.5,262C 214.107,260.951 214.773,259.451 214.5,257.5 Z"/></g>
<g><path style="opacity:1" fill="#f6bcba" d="M 159.5,283.5 C 163.93,289.072 169.264,293.738 175.5,297.5C 170.935,306.964 166.101,316.297 161,325.5C 158.86,329.462 156.027,332.796 152.5,335.5C 149.278,331.878 145.612,328.712 141.5,326C 139.859,324.871 138.859,323.371 138.5,321.5C 141.498,318.333 144.331,315 147,311.5C 150.899,301.94 155.065,292.606 159.5,283.5 Z"/></g>
<g><path style="opacity:1" fill="#df7049" d="M 60.5,283.5 C 62.9962,282.42 65.3295,281.086 67.5,279.5C 67.6178,293.181 67.2844,306.848 66.5,320.5C 60.1667,320.5 53.8333,320.5 47.5,320.5C 47.5,310.833 47.5,301.167 47.5,291.5C 49.3684,290.737 51.0351,289.737 52.5,288.5C 53.3285,281.679 53.8285,274.679 54,267.5C 55.6995,266.594 57.5328,266.261 59.5,266.5C 59.1668,272.93 59.5002,278.597 60.5,283.5 Z"/></g>
<g><path style="opacity:1" fill="#a47964" d="M 342.5,307.5 C 358.658,306.504 374.991,306.17 391.5,306.5C 391.768,308.099 391.434,309.432 390.5,310.5C 390.5,309.5 390.5,308.5 390.5,307.5C 386.833,307.5 383.167,307.5 379.5,307.5C 376.5,307.5 373.5,307.5 370.5,307.5C 361.167,307.5 351.833,307.5 342.5,307.5 Z"/></g>
<g><path style="opacity:1" fill="#a47a64" d="M 447.5,307.5 C 463.658,306.504 479.991,306.17 496.5,306.5C 496.737,307.791 496.404,308.791 495.5,309.5C 492.663,307.598 489.329,306.931 485.5,307.5C 482.5,307.5 479.5,307.5 476.5,307.5C 466.833,307.5 457.167,307.5 447.5,307.5 Z"/></g>
<g><path style="opacity:1" fill="#f7be8f" d="M 342.5,307.5 C 351.833,307.5 361.167,307.5 370.5,307.5C 365.645,314.54 360.311,321.207 354.5,327.5C 347.472,322.798 343.472,316.131 342.5,307.5 Z"/></g>
<g><path style="opacity:1" fill="#f8af84" d="M 370.5,307.5 C 373.5,307.5 376.5,307.5 379.5,307.5C 379.42,317.331 375.42,324.998 367.5,330.5C 362.644,331.161 358.31,330.161 354.5,327.5C 360.311,321.207 365.645,314.54 370.5,307.5 Z"/></g>
<g><path style="opacity:1" fill="#f8bf8f" d="M 447.5,307.5 C 457.167,307.5 466.833,307.5 476.5,307.5C 471.502,314.824 465.835,321.491 459.5,327.5C 451.453,323.428 447.453,316.761 447.5,307.5 Z"/></g>
<g><path style="opacity:1" fill="#f8ae83" d="M 476.5,307.5 C 479.5,307.5 482.5,307.5 485.5,307.5C 484.885,317.067 480.885,324.734 473.5,330.5C 470.15,330.665 466.817,330.498 463.5,330C 461.934,329.392 460.6,328.558 459.5,327.5C 465.835,321.491 471.502,314.824 476.5,307.5 Z"/></g>
<g><path style="opacity:1" fill="#7e7fb0" d="M 224.5,318.5 C 218.505,317.501 212.505,316.501 206.5,315.5C 206.5,317.167 206.5,318.833 206.5,320.5C 205.518,317.038 205.185,313.371 205.5,309.5C 210.875,309.172 216.208,309.505 221.5,310.5C 222.508,313.195 223.508,315.862 224.5,318.5 Z"/></g>
<g><path style="opacity:1" fill="#757aac" d="M 246.5,322.5 C 243.519,321.837 240.519,321.17 237.5,320.5C 236.584,320.543 235.917,320.876 235.5,321.5C 232.941,317.388 230.608,313.054 228.5,308.5C 236.99,305.623 245.323,306.123 253.5,310C 260.152,311.652 266.819,311.818 273.5,310.5C 272.857,318.15 272.523,325.817 272.5,333.5C 269.206,333.741 266.206,332.908 263.5,331C 257.178,326.021 252.845,319.688 250.5,312C 248.559,311.257 246.726,311.424 245,312.5C 244.309,316.021 244.809,319.355 246.5,322.5 Z"/></g>
<g><path style="opacity:1" fill="#e57952" d="M 485.5,307.5 C 489.329,306.931 492.663,307.598 495.5,309.5C 493.364,321.969 486.031,328.969 473.5,330.5C 480.885,324.734 484.885,317.067 485.5,307.5 Z"/></g>
<g><path style="opacity:1" fill="#f5d19b" d="M 48.5,328.5 C 48.8333,328.5 49.1667,328.5 49.5,328.5C 47.4202,330.573 45.7536,332.907 44.5,335.5C 36.4931,335.666 28.4931,335.5 20.5,335C 12.1731,327.469 12.5065,320.469 21.5,314C 28.0902,312.303 33.0902,314.303 36.5,320C 33.1667,320.333 29.8333,320.667 26.5,321C 23.8333,323.333 23.8333,325.667 26.5,328C 33.8258,328.5 41.1591,328.666 48.5,328.5 Z"/></g>
<g><path style="opacity:1" fill="#e0e5f5" d="M 224.5,318.5 C 227.97,324.566 232.303,330.066 237.5,335C 227.448,335.58 217.448,335.08 207.5,333.5C 207.533,329.131 207.2,324.798 206.5,320.5C 206.5,318.833 206.5,317.167 206.5,315.5C 212.505,316.501 218.505,317.501 224.5,318.5 Z"/></g>
<g><path style="opacity:1" fill="#e69f7c" d="M 80.5,335.5 C 82.2789,333.454 83.9456,331.287 85.5,329C 73.5046,328.5 61.5046,328.333 49.5,328.5C 49.1667,328.5 48.8333,328.5 48.5,328.5C 61.3396,327.833 74.3396,327.167 87.5,326.5C 88.9535,324.356 88.6201,322.523 86.5,321C 83.1182,320.824 79.7848,320.324 76.5,319.5C 81.0687,311.959 87.0687,310.626 94.5,315.5C 99.6869,321.263 99.6869,327.096 94.5,333C 90.1156,335.208 85.449,336.041 80.5,335.5 Z"/></g>
<g><path style="opacity:1" fill="#d8def1" d="M 246.5,322.5 C 248.859,327.369 252.193,331.535 256.5,335C 252.29,336.02 248.623,335.02 245.5,332C 241.963,328.631 238.629,325.131 235.5,321.5C 235.917,320.876 236.584,320.543 237.5,320.5C 240.519,321.17 243.519,321.837 246.5,322.5 Z"/></g>
<g><path style="opacity:1" fill="#e2754e" d="M 379.5,307.5 C 383.167,307.5 386.833,307.5 390.5,307.5C 390.5,308.5 390.5,309.5 390.5,310.5C 388.441,323.556 380.775,330.222 367.5,330.5C 375.42,324.998 379.42,317.331 379.5,307.5 Z"/></g>
<g><path style="opacity:1" fill="#f1afac" d="M 138.5,321.5 C 138.859,323.371 139.859,324.871 141.5,326C 145.612,328.712 149.278,331.878 152.5,335.5C 134.098,345.971 114.431,353.304 93.5,357.5C 93.1718,352.125 93.5052,346.792 94.5,341.5C 97.6014,339.902 100.268,337.735 102.5,335C 115.05,331.764 127.05,327.264 138.5,321.5 Z"/></g>
<g><path style="opacity:1" fill="#fab488" d="M 49.5,328.5 C 61.5046,328.333 73.5046,328.5 85.5,329C 83.9456,331.287 82.2789,333.454 80.5,335.5C 68.5,335.5 56.5,335.5 44.5,335.5C 45.7536,332.907 47.4202,330.573 49.5,328.5 Z"/></g>
<g><path style="opacity:1" fill="#d57481" d="M 67.5,343.5 C 68.8333,343.5 70.1667,343.5 71.5,343.5C 71.745,346.865 71.0783,350.032 69.5,353C 72.9982,357.135 73.3316,361.469 70.5,366C 71.6315,369.063 71.6315,372.063 70.5,375C 62.1667,375.667 53.8333,375.667 45.5,375C 43.7769,374.225 42.7769,372.892 42.5,371C 44.0128,369.121 44.6795,366.954 44.5,364.5C 51.175,364.666 57.8417,364.5 64.5,364C 66.9305,361.695 67.9305,358.862 67.5,355.5C 61.1579,355.666 54.8246,355.5 48.5,355C 47.1667,353 47.1667,351 48.5,349C 54.1667,348.667 59.8333,348.333 65.5,348C 66.5822,346.67 67.2488,345.17 67.5,343.5 Z"/></g>
<g><path style="opacity:1" fill="#d1727f" d="M 79.5,343.5 C 81.8333,343.5 84.1667,343.5 86.5,343.5C 86.6662,349.509 86.4995,355.509 86,361.5C 84.5347,363.915 82.368,364.915 79.5,364.5C 78.712,357.469 78.712,350.469 79.5,343.5 Z"/></g>
<g><path style="opacity:1" fill="#e4ba8d" d="M 234.5,343.5 C 233.504,343.414 232.671,343.748 232,344.5C 231.691,345.766 231.191,346.933 230.5,348C 232.382,348.198 234.048,348.698 235.5,349.5C 224.614,348.656 213.947,346.656 203.5,343.5C 203.5,342.5 203.5,341.5 203.5,340.5C 213.993,341.345 224.326,342.345 234.5,343.5 Z"/></g>
<g><path style="opacity:1" fill="#f7b589" d="M 265.5,342.5 C 266.301,344.042 266.634,345.708 266.5,347.5C 256.236,349.075 245.903,349.742 235.5,349.5C 234.048,348.698 232.382,348.198 230.5,348C 231.191,346.933 231.691,345.766 232,344.5C 232.671,343.748 233.504,343.414 234.5,343.5C 244.85,343.56 255.183,343.226 265.5,342.5 Z"/></g>
<g><path style="opacity:1" fill="#dd7550" d="M 266.5,347.5 C 266.634,345.708 266.301,344.042 265.5,342.5C 268.483,341.612 271.65,340.946 275,340.5C 277.756,340.424 278.923,341.757 278.5,344.5C 274.4,345.192 270.4,346.192 266.5,347.5 Z"/></g>
<g><path style="opacity:1" fill="#f4b5b2" d="M 67.5,343.5 C 67.2488,345.17 66.5822,346.67 65.5,348C 59.8333,348.333 54.1667,348.667 48.5,349C 47.1667,351 47.1667,353 48.5,355C 54.8246,355.5 61.1579,355.666 67.5,355.5C 67.9305,358.862 66.9305,361.695 64.5,364C 57.8417,364.5 51.175,364.666 44.5,364.5C 44.1336,362.095 43.4669,359.762 42.5,357.5C 45.0633,353.142 45.0633,348.808 42.5,344.5C 50.8068,343.502 59.1401,343.169 67.5,343.5 Z"/></g>
<g><path style="opacity:1" fill="#777dae" d="M 208.5,361.5 C 205.319,359.408 202.319,357.075 199.5,354.5C 201.182,350.053 203.849,349.386 207.5,352.5C 208.484,355.428 208.817,358.428 208.5,361.5 Z"/></g>
<g><path style="opacity:1" fill="#7076ad" d="M 229.5,373.5 C 225.016,371.757 220.683,369.757 216.5,367.5C 216.174,363.116 216.508,358.783 217.5,354.5C 220.443,355.244 223.443,355.744 226.5,356C 228.483,361.525 229.483,367.358 229.5,373.5 Z"/></g>
<g><path style="opacity:1" fill="#6b74a7" d="M 267.5,383.5 C 257.665,382.333 247.998,380.333 238.5,377.5C 237.178,370.918 236.511,364.251 236.5,357.5C 241.844,357.334 247.177,357.501 252.5,358C 256.629,367.104 261.629,375.604 267.5,383.5 Z"/></g>
<g><path style="opacity:1" fill="#d7dff7" d="M 199.5,354.5 C 202.319,357.075 205.319,359.408 208.5,361.5C 208.682,374.505 209.015,387.505 209.5,400.5C 209.5,401.5 209.5,402.5 209.5,403.5C 198.354,407.104 187.354,411.104 176.5,415.5C 174.8,413.79 173.467,411.79 172.5,409.5C 177.006,394.153 183.173,379.486 191,365.5C 193.37,361.403 196.203,357.736 199.5,354.5 Z"/></g>
<g><path style="opacity:1" fill="#636ea4" d="M 278.5,351.5 C 285.812,356.646 291.979,362.979 297,370.5C 304.756,381.345 310.922,393.012 315.5,405.5C 289.373,398.047 271.04,381.713 260.5,356.5C 266.756,355.324 272.756,353.657 278.5,351.5 Z"/></g>
<g><path style="opacity:1" fill="#d4dcf6" d="M 216.5,367.5 C 220.683,369.757 225.016,371.757 229.5,373.5C 231.26,380.053 232.593,386.72 233.5,393.5C 228.249,395.695 222.916,397.695 217.5,399.5C 216.723,388.852 216.39,378.185 216.5,367.5 Z"/></g>
<g><path style="opacity:1" fill="#534f6a" d="M 53.5,382.5 C 56.1667,382.5 58.8333,382.5 61.5,382.5C 61.5,390.833 61.5,399.167 61.5,407.5C 58.8333,407.5 56.1667,407.5 53.5,407.5C 53.5,399.167 53.5,390.833 53.5,382.5 Z"/></g>
<g><path style="opacity:1" fill="#ced9f8" d="M 238.5,377.5 C 247.998,380.333 257.665,382.333 267.5,383.5C 274.377,391.914 282.377,398.914 291.5,404.5C 278.811,410.067 265.811,415.067 252.5,419.5C 245.662,406.32 240.995,392.32 238.5,377.5 Z"/></g>
<g><path style="opacity:1" fill="#cdd7f7" d="M 233.5,393.5 C 236.88,403.263 240.547,412.929 244.5,422.5C 237.72,425.541 230.72,428.208 223.5,430.5C 220.988,420.274 218.988,409.941 217.5,399.5C 222.916,397.695 228.249,395.695 233.5,393.5 Z"/></g>
<g><path style="opacity:1" fill="#c6d2f8" d="M 291.5,404.5 C 300.608,409.425 310.275,412.758 320.5,414.5C 326.71,432.675 330.71,451.341 332.5,470.5C 323.205,471.848 313.871,472.348 304.5,472C 295.301,467.57 286.967,461.903 279.5,455C 277.231,453.442 274.898,453.276 272.5,454.5C 271.572,455.768 271.405,457.101 272,458.5C 277.209,463.378 282.709,467.878 288.5,472C 273.124,472.259 258.124,469.926 243.5,465C 238.289,461.087 234.123,456.254 231,450.5C 227.805,444.081 225.305,437.414 223.5,430.5C 230.72,428.208 237.72,425.541 244.5,422.5C 247.363,427.477 250.363,427.644 253.5,423C 253.011,421.862 252.678,420.695 252.5,419.5C 265.811,415.067 278.811,410.067 291.5,404.5 Z"/></g>
<g><path style="opacity:1" fill="#f4bd8e" d="M 53.5,415.5 C 60.253,413.772 64.253,416.272 65.5,423C 64.008,429.418 60.008,431.751 53.5,430C 48.232,425.171 48.232,420.337 53.5,415.5 Z"/></g>
<g><path style="opacity:1" fill="#ccd5f6" d="M 209.5,400.5 C 212.091,420.565 217.425,439.565 225.5,457.5C 205.488,447.824 189.155,433.824 176.5,415.5C 187.354,411.104 198.354,407.104 209.5,403.5C 209.5,402.5 209.5,401.5 209.5,400.5 Z"/></g>
<g><path style="opacity:1" fill="#29293c" d="M 259.5,436.5 C 265.488,436.664 266.821,439.164 263.5,444C 257.403,444.147 256.07,441.647 259.5,436.5 Z"/></g>
</svg>
