<?xml version="1.0" encoding="UTF-8"?>
<!DOCTYPE svg PUBLIC "-//W3C//DTD SVG 1.1//EN" "http://www.w3.org/Graphics/SVG/1.1/DTD/svg11.dtd">
<svg xmlns="http://www.w3.org/2000/svg" version="1.1" width="512px" height="512px" style="shape-rendering:geometricPrecision; text-rendering:geometricPrecision; image-rendering:optimizeQuality; fill-rule:evenodd; clip-rule:evenodd" xmlns:xlink="http://www.w3.org/1999/xlink">
<g><path style="opacity:1" fill="#d9d99c" d="M 474.5,170.5 C 476.144,147.476 471.644,125.809 461,105.5C 459.147,103.097 457.314,100.764 455.5,98.5C 450.663,90.1631 443.996,83.6631 435.5,79C 429.405,77.7337 423.738,78.7337 418.5,82C 414.376,85.0545 410.709,88.5545 407.5,92.5C 397.685,95.468 387.685,96.3013 377.5,95C 371.705,95.5922 366.039,96.7589 360.5,98.5C 359.28,98.1131 358.613,97.2798 358.5,96C 363.321,88.6795 369.321,82.5128 376.5,77.5C 389.05,79.3507 401.05,77.184 412.5,71C 420.011,65.8197 424.345,58.6531 425.5,49.5C 424.448,49.3505 423.448,49.5172 422.5,50C 414.138,62.1477 402.471,68.6477 387.5,69.5C 386.508,69.3284 385.842,69.6618 385.5,70.5C 370.785,70.1833 356.118,70.5167 341.5,71.5C 340.713,70.7579 340.047,69.9246 339.5,69C 347.605,59.561 356.939,51.561 367.5,45C 371.446,41.613 374.28,37.4463 376,32.5C 379.507,27.3297 384.34,24.1631 390.5,23C 409.194,22.8719 427.861,22.2052 446.5,21C 450.209,20.3667 453.709,19.2001 457,17.5C 459.243,23.5676 458.743,29.4009 455.5,35C 465.298,37.3979 473.298,42.5645 479.5,50.5C 474.996,54.9242 469.663,58.0908 463.5,60C 478.952,90.1578 483.785,121.991 478,155.5C 477.386,160.758 476.219,165.758 474.5,170.5 Z"/></g>
<g><path style="opacity:1" fill="#7f866b" d="M 393.5,38.5 C 400.632,38.7891 402.298,41.9558 398.5,48C 391.229,51.5627 388.062,49.396 389,41.5C 390.652,40.6006 392.152,39.6006 393.5,38.5 Z"/></g>
<g><path style="opacity:1" fill="#80866b" d="M 376.5,77.5 C 379.72,75.3971 382.72,73.0638 385.5,70.5C 386.492,70.6716 387.158,70.3382 387.5,69.5C 402.471,68.6477 414.138,62.1477 422.5,50C 423.448,49.5172 424.448,49.3505 425.5,49.5C 424.345,58.6531 420.011,65.8197 412.5,71C 401.05,77.184 389.05,79.3507 376.5,77.5 Z"/></g>
<g><path style="opacity:1" fill="#e09c7d" d="M 455.5,98.5 C 462.579,114.51 464.412,131.176 461,148.5C 456.99,161.676 448.49,170.343 435.5,174.5C 441.811,152.225 438.978,131.225 427,111.5C 425.265,108.638 423.098,106.304 420.5,104.5C 416.793,99.7923 412.46,95.7923 407.5,92.5C 410.709,88.5545 414.376,85.0545 418.5,82C 423.738,78.7337 429.405,77.7337 435.5,79C 443.996,83.6631 450.663,90.1631 455.5,98.5 Z"/></g>
<g><path style="opacity:1" fill="#f9e6d8" d="M 455.5,98.5 C 457.314,100.764 459.147,103.097 461,105.5C 471.644,125.809 476.144,147.476 474.5,170.5C 471.942,192.537 463.942,212.204 450.5,229.5C 455.372,201.873 444.039,190.373 416.5,195C 425.139,190.864 431.139,184.364 434.5,175.5C 434.5,174.833 434.833,174.5 435.5,174.5C 448.49,170.343 456.99,161.676 461,148.5C 464.412,131.176 462.579,114.51 455.5,98.5 Z"/></g>
<g><path style="opacity:1" fill="#80866b" d="M 420.5,104.5 C 423.098,106.304 425.265,108.638 427,111.5C 438.978,131.225 441.811,152.225 435.5,174.5C 434.833,174.5 434.5,174.833 434.5,175.5C 429.156,175.666 423.823,175.499 418.5,175C 409.632,172.705 400.965,170.205 392.5,167.5C 406.806,167.43 416.64,160.764 422,147.5C 426.266,133.035 425.766,118.701 420.5,104.5 Z"/></g>
<g><path style="opacity:1" fill="#d9d99c" d="M 392.5,167.5 C 400.965,170.205 409.632,172.705 418.5,175C 423.823,175.499 429.156,175.666 434.5,175.5C 431.139,184.364 425.139,190.864 416.5,195C 444.039,190.373 455.372,201.873 450.5,229.5C 449.115,236.933 446.115,243.599 441.5,249.5C 427.592,267.458 409.258,277.625 386.5,280C 383.085,281.143 382.751,282.81 385.5,285C 387.833,285.167 390.167,285.333 392.5,285.5C 406.514,284.165 420.514,282.831 434.5,281.5C 446.575,282.178 458.575,283.511 470.5,285.5C 486.781,289.614 496.281,299.948 499,316.5C 501.909,342.951 497.243,367.951 485,391.5C 482.304,395.68 479.47,399.68 476.5,403.5C 481.051,386.967 481.551,370.301 478,353.5C 471.345,329.525 455.512,317.691 430.5,318C 423.464,312.324 415.464,310.324 406.5,312C 391.809,317.277 377.475,316.61 363.5,310C 349.637,298.382 345.47,283.882 351,266.5C 359.166,254.166 365.166,240.832 369,226.5C 369.788,220.15 370.621,213.817 371.5,207.5C 367.298,207.183 363.298,207.517 359.5,208.5C 352.689,208.202 346.022,208.869 339.5,210.5C 331.167,210.5 322.833,210.5 314.5,210.5C 294.609,211.78 275.942,217.28 258.5,227C 239.808,240.165 220.475,251.998 200.5,262.5C 200.167,262.5 199.833,262.5 199.5,262.5C 190.116,263.842 181.449,267.508 173.5,273.5C 161.696,279.967 151.363,288.3 142.5,298.5C 134.047,306.281 126.713,314.948 120.5,324.5C 117.484,327.52 114.817,330.854 112.5,334.5C 102.729,343.416 91.7293,350.582 79.5,356C 77.26,356.977 74.9267,357.477 72.5,357.5C 91.6295,301.079 128.629,261.246 183.5,238C 198.466,232.122 213.799,227.456 229.5,224C 240.13,211.341 253.463,202.674 269.5,198C 279.243,196.741 288.91,195.074 298.5,193C 310.833,186.667 323.167,180.333 335.5,174C 353.974,167.262 372.974,165.095 392.5,167.5 Z"/></g>
<g><path style="opacity:1" fill="#7c95cd" d="M 359.5,208.5 C 363.298,207.517 367.298,207.183 371.5,207.5C 370.621,213.817 369.788,220.15 369,226.5C 365.166,240.832 359.166,254.166 351,266.5C 345.47,283.882 349.637,298.382 363.5,310C 377.475,316.61 391.809,317.277 406.5,312C 415.464,310.324 423.464,312.324 430.5,318C 455.512,317.691 471.345,329.525 478,353.5C 481.551,370.301 481.051,386.967 476.5,403.5C 468.846,419.812 458.513,434.145 445.5,446.5C 441.675,449.477 437.675,452.311 433.5,455C 421.194,456.004 417.028,450.504 421,438.5C 423.039,434.255 425.206,430.088 427.5,426C 424.705,426.412 422.038,427.412 419.5,429C 412.155,430.828 407.822,427.994 406.5,420.5C 408.212,412.573 411.879,405.739 417.5,400C 413.898,400.691 410.232,401.524 406.5,402.5C 402.896,402.451 400.396,400.784 399,397.5C 398.937,386.773 402.437,377.273 409.5,369C 406.876,368.96 404.209,369.127 401.5,369.5C 394.142,369.449 390.975,365.782 392,358.5C 401.554,352.945 409.888,345.945 417,337.5C 417.667,336.5 417.667,335.5 417,334.5C 399.246,348.517 379.413,352.684 357.5,347C 349.573,342.986 345.906,336.486 346.5,327.5C 325.573,327.887 317.573,317.72 322.5,297C 314.485,284.278 316.152,273.112 327.5,263.5C 323.565,250.61 327.565,241.277 339.5,235.5C 340.354,221.295 347.687,212.461 361.5,209C 360.906,208.536 360.239,208.369 359.5,208.5 Z"/></g>
<g><path style="opacity:1" fill="#515d7e" d="M 359.5,208.5 C 360.239,208.369 360.906,208.536 361.5,209C 347.687,212.461 340.354,221.295 339.5,235.5C 327.565,241.277 323.565,250.61 327.5,263.5C 316.152,273.112 314.485,284.278 322.5,297C 317.573,317.72 325.573,327.887 346.5,327.5C 345.906,336.486 349.573,342.986 357.5,347C 379.413,352.684 399.246,348.517 417,334.5C 417.667,335.5 417.667,336.5 417,337.5C 409.888,345.945 401.554,352.945 392,358.5C 390.975,365.782 394.142,369.449 401.5,369.5C 404.209,369.127 406.876,368.96 409.5,369C 402.437,377.273 398.937,386.773 399,397.5C 400.396,400.784 402.896,402.451 406.5,402.5C 410.232,401.524 413.898,400.691 417.5,400C 411.879,405.739 408.212,412.573 406.5,420.5C 407.822,427.994 412.155,430.828 419.5,429C 422.038,427.412 424.705,426.412 427.5,426C 425.206,430.088 423.039,434.255 421,438.5C 417.028,450.504 421.194,456.004 433.5,455C 437.675,452.311 441.675,449.477 445.5,446.5C 439.754,453.582 433.087,459.582 425.5,464.5C 413.524,469.981 406.691,466.314 405,453.5C 395.988,460.508 386.321,466.508 376,471.5C 373.681,470.591 373.014,468.925 374,466.5C 382.97,458.531 391.637,450.197 400,441.5C 399.322,438.765 397.655,436.432 395,434.5C 393.964,431.247 393.297,427.914 393,424.5C 378.689,436.079 362.856,445.246 345.5,452C 341.176,452.045 340.51,450.379 343.5,447C 358.902,435.435 373.235,422.602 386.5,408.5C 384.488,403.016 383.988,397.35 385,391.5C 385.45,389.481 386.283,387.648 387.5,386C 383.514,387.512 379.848,389.845 376.5,393C 371.553,396.48 366.219,398.813 360.5,400C 360.043,399.586 359.709,399.086 359.5,398.5C 366.481,390.351 373.648,382.351 381,374.5C 380.572,372.254 380.072,369.921 379.5,367.5C 379.594,365.311 380.261,363.311 381.5,361.5C 373.577,361.481 365.577,361.315 357.5,361C 354.722,359.562 352.056,359.562 349.5,361C 345,365.5 340.5,370 336,374.5C 333.731,378.714 334.231,382.547 337.5,386C 341.548,386.434 345.548,386.434 349.5,386C 339.778,391.723 331.278,398.889 324,407.5C 323.505,410.531 323.671,413.531 324.5,416.5C 314.419,421.483 303.753,423.983 292.5,424C 286.828,421.232 284.994,416.732 287,410.5C 288.5,409 290,407.5 291.5,406C 285.219,406.535 278.885,406.535 272.5,406C 267.188,401.428 267.188,396.761 272.5,392C 291.035,384.959 305.035,372.793 314.5,355.5C 317.883,353.259 321.55,351.592 325.5,350.5C 325.156,354.966 326.323,358.966 329,362.5C 333.167,359 337.333,355.5 341.5,352C 338.376,347.669 336.709,342.836 336.5,337.5C 323.164,336 314.997,328.667 312,315.5C 312.375,306.178 311.042,297.178 308,288.5C 305.61,278.224 307.944,269.224 315,261.5C 313.851,247.583 318.851,236.583 330,228.5C 331.34,221.485 334.506,215.485 339.5,210.5C 346.022,208.869 352.689,208.202 359.5,208.5 Z"/></g>
<g><path style="opacity:1" fill="#7d95cd" d="M 314.5,210.5 C 322.833,210.5 331.167,210.5 339.5,210.5C 334.506,215.485 331.34,221.485 330,228.5C 318.851,236.583 313.851,247.583 315,261.5C 307.944,269.224 305.61,278.224 308,288.5C 311.042,297.178 312.375,306.178 312,315.5C 314.997,328.667 323.164,336 336.5,337.5C 336.709,342.836 338.376,347.669 341.5,352C 337.333,355.5 333.167,359 329,362.5C 326.323,358.966 325.156,354.966 325.5,350.5C 321.55,351.592 317.883,353.259 314.5,355.5C 308.651,355.99 303.318,354.657 298.5,351.5C 297.105,348.6 295.939,345.6 295,342.5C 294.259,339.438 294.425,336.438 295.5,333.5C 289.793,332.764 284.459,330.931 279.5,328C 276.864,325.227 274.864,322.06 273.5,318.5C 273.371,316.784 273.038,315.117 272.5,313.5C 273.589,306.226 277.589,301.06 284.5,298C 276.764,292.47 273.93,284.97 276,275.5C 280.25,268.43 286.417,263.764 294.5,261.5C 289.822,247.852 294.156,238.185 307.5,232.5C 303.841,224.636 305.175,217.97 311.5,212.5C 312.71,212.068 313.71,211.401 314.5,210.5 Z"/></g>
<g><path style="opacity:1" fill="#f9e6d9" d="M 314.5,210.5 C 313.71,211.401 312.71,212.068 311.5,212.5C 301.442,214.893 295.442,221.227 293.5,231.5C 282.179,237.149 278.179,246.149 281.5,258.5C 274.929,260.456 269.263,263.956 264.5,269C 250.695,277.971 236.028,279.804 220.5,274.5C 212.951,272.055 206.284,268.055 200.5,262.5C 220.475,251.998 239.808,240.165 258.5,227C 275.942,217.28 294.609,211.78 314.5,210.5 Z"/></g>
<g><path style="opacity:1" fill="#e09d7e" d="M 311.5,212.5 C 305.175,217.97 303.841,224.636 307.5,232.5C 294.156,238.185 289.822,247.852 294.5,261.5C 286.417,263.764 280.25,268.43 276,275.5C 273.93,284.97 276.764,292.47 284.5,298C 277.589,301.06 273.589,306.226 272.5,313.5C 256.046,313.96 241.38,309.126 228.5,299C 222.959,293.291 217.292,287.791 211.5,282.5C 213.9,279.097 216.9,276.43 220.5,274.5C 236.028,279.804 250.695,277.971 264.5,269C 269.263,263.956 274.929,260.456 281.5,258.5C 278.179,246.149 282.179,237.149 293.5,231.5C 295.442,221.227 301.442,214.893 311.5,212.5 Z"/></g>
<g><path style="opacity:1" fill="#7e846a" d="M 470.5,285.5 C 458.575,283.511 446.575,282.178 434.5,281.5C 420.514,282.831 406.514,284.165 392.5,285.5C 390.167,285.333 387.833,285.167 385.5,285C 382.751,282.81 383.085,281.143 386.5,280C 409.258,277.625 427.592,267.458 441.5,249.5C 468.783,247.127 478.45,259.127 470.5,285.5 Z"/></g>
<g><path style="opacity:1" fill="#7e846b" d="M 199.5,262.5 C 198.737,264.368 197.737,266.035 196.5,267.5C 188.956,278.287 179.623,287.287 168.5,294.5C 169.257,287.473 171.257,280.806 174.5,274.5C 174.376,273.893 174.043,273.56 173.5,273.5C 181.449,267.508 190.116,263.842 199.5,262.5 Z"/></g>
<g><path style="opacity:1" fill="#d8d89c" d="M 196.5,267.5 C 193.634,274.602 191.467,281.935 190,289.5C 189.186,300.157 188.519,310.824 188,321.5C 187.153,330.022 183.986,337.522 178.5,344C 174.985,346.783 170.985,348.283 166.5,348.5C 163.654,330.771 163.988,313.104 167.5,295.5C 168.167,295.5 168.5,295.167 168.5,294.5C 179.623,287.287 188.956,278.287 196.5,267.5 Z"/></g>
<g><path style="opacity:1" fill="#525e7d" d="M 173.5,273.5 C 174.043,273.56 174.376,273.893 174.5,274.5C 171.257,280.806 169.257,287.473 168.5,294.5C 168.5,295.167 168.167,295.5 167.5,295.5C 157.866,303.799 148.532,312.466 139.5,321.5C 140.434,313.826 141.434,306.159 142.5,298.5C 151.363,288.3 161.696,279.967 173.5,273.5 Z"/></g>
<g><path style="opacity:1" fill="#7d96cd" d="M 167.5,295.5 C 163.988,313.104 163.654,330.771 166.5,348.5C 167.585,357.993 166.085,366.993 162,375.5C 156.687,380.126 150.854,381.126 144.5,378.5C 141.011,360.034 139.344,341.368 139.5,322.5C 139.5,322.167 139.5,321.833 139.5,321.5C 148.532,312.466 157.866,303.799 167.5,295.5 Z"/></g>
<g><path style="opacity:1" fill="#7d836b" d="M 142.5,298.5 C 141.434,306.159 140.434,313.826 139.5,321.5C 139.5,321.833 139.5,322.167 139.5,322.5C 132.102,330.965 125.435,339.965 119.5,349.5C 119.427,341.146 119.76,332.812 120.5,324.5C 126.713,314.948 134.047,306.281 142.5,298.5 Z"/></g>
<g><path style="opacity:1" fill="#e09b7d" d="M 273.5,318.5 C 274.864,322.06 276.864,325.227 279.5,328C 284.459,330.931 289.793,332.764 295.5,333.5C 294.425,336.438 294.259,339.438 295,342.5C 295.939,345.6 297.105,348.6 298.5,351.5C 289.849,360.502 279.515,367.002 267.5,371C 259.381,373.362 251.381,376.029 243.5,379C 237.622,382.956 233.288,388.122 230.5,394.5C 223.167,394.5 215.833,394.5 208.5,394.5C 208.063,389.588 208.896,384.922 211,380.5C 225.828,368.344 238.495,354.344 249,338.5C 256.46,330.864 264.627,324.197 273.5,318.5 Z"/></g>
<g><path style="opacity:1" fill="#525d7d" d="M 120.5,324.5 C 119.76,332.812 119.427,341.146 119.5,349.5C 119.193,371.032 120.86,392.365 124.5,413.5C 124.7,425.24 123.866,436.906 122,448.5C 120.395,459.229 114.228,463.396 103.5,461C 100.642,459.306 98.309,457.139 96.5,454.5C 97.858,448.928 98.6913,443.262 99,437.5C 99.6162,418.495 99.4495,399.495 98.5,380.5C 98.525,373.131 99.025,365.798 100,358.5C 100.154,354.902 101.154,351.569 103,348.5C 106.388,343.952 109.555,339.286 112.5,334.5C 114.817,330.854 117.484,327.52 120.5,324.5 Z"/></g>
<g><path style="opacity:1" fill="#d8d99c" d="M 139.5,322.5 C 139.344,341.368 141.011,360.034 144.5,378.5C 145.376,385.298 146.042,392.131 146.5,399C 145.704,414.215 138.371,419.048 124.5,413.5C 120.86,392.365 119.193,371.032 119.5,349.5C 125.435,339.965 132.102,330.965 139.5,322.5 Z"/></g>
<g><path style="opacity:1" fill="#7c836a" d="M 112.5,334.5 C 109.555,339.286 106.388,343.952 103,348.5C 101.154,351.569 100.154,354.902 100,358.5C 99.025,365.798 98.525,373.131 98.5,380.5C 99.4495,399.495 99.6162,418.495 99,437.5C 98.6913,443.262 97.858,448.928 96.5,454.5C 95.3867,461.343 93.5534,468.01 91,474.5C 85.107,482.806 78.4404,483.472 71,476.5C 69.8638,474.257 69.0305,471.924 68.5,469.5C 75.1187,445.66 77.952,421.327 77,396.5C 72.6464,402.354 67.4797,407.354 61.5,411.5C 59.7501,430.502 54.5835,448.502 46,465.5C 42.2549,470.398 38.7549,475.398 35.5,480.5C 30.9269,485.078 25.5935,488.411 19.5,490.5C 12.7268,489.303 10.2268,485.303 12,478.5C 14.5509,474.065 16.5509,469.399 18,464.5C 20.0278,450.718 24.3611,437.718 31,425.5C 45.3707,414.132 56.3707,400.132 64,383.5C 66.8544,374.714 69.6877,366.048 72.5,357.5C 74.9267,357.477 77.26,356.977 79.5,356C 91.7293,350.582 102.729,343.416 112.5,334.5 Z"/></g>
<g><path style="opacity:1" fill="#7c95cd" d="M 425.5,464.5 C 409.361,477.567 391.028,486.401 370.5,491C 354.246,494.247 348.913,488.08 354.5,472.5C 354.167,472.167 353.833,471.833 353.5,471.5C 347.102,476.616 339.936,480.282 332,482.5C 322.376,480.082 319.21,474.249 322.5,465C 317.955,466.148 313.288,466.482 308.5,466C 302.458,462.252 300.958,457.085 304,450.5C 314.178,439.656 325.011,429.49 336.5,420C 334.965,419.504 333.465,419.67 332,420.5C 328.952,419.999 326.452,418.666 324.5,416.5C 323.671,413.531 323.505,410.531 324,407.5C 331.278,398.889 339.778,391.723 349.5,386C 345.548,386.434 341.548,386.434 337.5,386C 334.231,382.547 333.731,378.714 336,374.5C 340.5,370 345,365.5 349.5,361C 352.056,359.562 354.722,359.562 357.5,361C 365.577,361.315 373.577,361.481 381.5,361.5C 380.261,363.311 379.594,365.311 379.5,367.5C 380.072,369.921 380.572,372.254 381,374.5C 373.648,382.351 366.481,390.351 359.5,398.5C 359.709,399.086 360.043,399.586 360.5,400C 366.219,398.813 371.553,396.48 376.5,393C 379.848,389.845 383.514,387.512 387.5,386C 386.283,387.648 385.45,389.481 385,391.5C 383.988,397.35 384.488,403.016 386.5,408.5C 373.235,422.602 358.902,435.435 343.5,447C 340.51,450.379 341.176,452.045 345.5,452C 362.856,445.246 378.689,436.079 393,424.5C 393.297,427.914 393.964,431.247 395,434.5C 397.655,436.432 399.322,438.765 400,441.5C 391.637,450.197 382.97,458.531 374,466.5C 373.014,468.925 373.681,470.591 376,471.5C 386.321,466.508 395.988,460.508 405,453.5C 406.691,466.314 413.524,469.981 425.5,464.5 Z"/></g>
<g><path style="opacity:1" fill="#da6332" d="M 208.5,394.5 C 215.833,394.5 223.167,394.5 230.5,394.5C 230.333,409.837 230.5,425.17 231,440.5C 231.36,442.608 232.027,444.608 233,446.5C 238.501,453.365 244.334,459.865 250.5,466C 255.612,468.013 260.945,469.013 266.5,469C 275.971,471.998 279.971,478.498 278.5,488.5C 264.116,488.911 249.783,488.411 235.5,487C 229.896,483.397 225.729,478.563 223,472.5C 217.158,465.317 210.158,459.65 202,455.5C 200.578,452.97 200.245,450.303 201,447.5C 205.174,442.647 207.174,436.98 207,430.5C 208.205,418.53 208.705,406.53 208.5,394.5 Z"/></g>
<g><path style="opacity:1" fill="#515d7d" d="M 68.5,469.5 C 65.9633,474.569 63.13,479.569 60,484.5C 56.4727,489.264 51.8061,492.264 46,493.5C 39.2113,491.963 35.7113,487.63 35.5,480.5C 38.7549,475.398 42.2549,470.398 46,465.5C 54.5835,448.502 59.7501,430.502 61.5,411.5C 67.4797,407.354 72.6464,402.354 77,396.5C 77.952,421.327 75.1187,445.66 68.5,469.5 Z"/></g>
</svg>
