<?xml version="1.0" encoding="UTF-8"?>
<svg version="1.1" xmlns="http://www.w3.org/2000/svg" width="512" height="512">
<path d="M0 0 C7.54069403 5.46004559 10.84188304 11.81548203 12.6640625 20.78125 C13.73947857 25.9354964 15.2268172 28.22159841 19.22265625 31.609375 C19.85945313 32.1765625 20.49625 32.74375 21.15234375 33.328125 C23.94477073 35.81496563 26.74390798 38.24185867 29.7109375 40.51953125 C42.55007245 51.20217075 52.05021543 68.23293242 60.22265625 82.609375 C60.77735596 83.57302979 60.77735596 83.57302979 61.34326172 84.55615234 C77.89354878 113.54249025 86.69348944 145.44360825 86.53515625 178.796875 C86.5330011 179.61430176 86.53084595 180.43172852 86.52862549 181.27392578 C86.47784485 193.27576799 86.14530685 204.91089485 83.22265625 216.609375 C82.92464111 217.83503174 82.92464111 217.83503174 82.62060547 219.08544922 C76.51637312 243.56182056 66.21828209 274.12593919 47.578125 292.2043457 C44.00021217 295.72025974 42.8331603 298.14084194 42.55859375 303.19921875 C42.54910016 305.31512293 42.56312747 307.43123127 42.59765625 309.546875 C42.33518624 328.54365765 38.04091944 346.71419915 25.41015625 361.484375 C14.93743573 374.82806546 16.92520418 398.0126353 18.44970703 413.98876953 C20.55016419 430.10709249 27.95471039 444.11852599 38.5859375 456.1875 C40.53370576 459.06963919 40.99060936 461.15651727 41.22265625 464.609375 C40.09302749 467.70099055 39.28927253 469.88302142 36.52368164 471.76635742 C33.46736322 472.88608872 30.84673983 472.84877159 27.59375 472.84765625 C25.67079102 472.87182617 25.67079102 472.87182617 23.70898438 472.89648438 C21.67888403 472.91297725 19.64954706 472.92183819 17.61938477 472.91479492 C15.65241369 472.91217959 13.68548348 472.94197244 11.71875 472.97265625 C9.95809204 472.97712769 9.95809204 472.97712769 8.16186523 472.98168945 C5.03001133 473.3044232 5.03001133 473.3044232 3.50415039 476.02416992 C3.08125732 476.8772876 2.65836426 477.73040527 2.22265625 478.609375 C-2.70702238 481.89582742 -8.57265374 480.98124863 -14.34594727 480.97998047 C-16.57191262 480.98433988 -18.79587163 481.02062495 -21.02148438 481.05859375 C-22.44660784 481.06446518 -23.87174068 481.06843239 -25.296875 481.0703125 C-26.58698486 481.07853027 -27.87709473 481.08674805 -29.20629883 481.09521484 C-34.20942927 480.41454009 -37.31253588 478.27322258 -40.6171875 474.51953125 C-42.38242823 470.0915705 -42.26529734 465.77264154 -42.33984375 461.046875 C-42.89391669 443.87900897 -46.34091072 430.9314787 -55.18603516 416.15283203 C-57.77734375 411.80246902 -57.77734375 411.80246902 -57.77734375 409.609375 C-58.48117187 409.87492187 -59.185 410.14046875 -59.91015625 410.4140625 C-76.97710215 416.51894915 -96.84257038 417.59850389 -114.77734375 414.609375 C-115.43734375 414.279375 -116.09734375 413.949375 -116.77734375 413.609375 C-116.40075369 428.9930789 -115.53434028 444.02655367 -104.02734375 455.484375 C-101.54981586 458.26559986 -100.26468836 460.09671904 -100.08984375 463.859375 C-100.83534101 467.92572369 -101.49859687 469.19853171 -104.77734375 471.609375 C-108.47187731 473.45664178 -112.83548264 472.8804328 -116.90234375 472.921875 C-117.82789063 472.95087891 -118.7534375 472.97988281 -119.70703125 473.00976562 C-125.80208775 473.06572306 -130.80498476 472.3673221 -135.77734375 468.609375 C-138.97431615 464.31839779 -140.14610762 459.38317552 -141.58984375 454.296875 C-144.27086192 445.19830154 -149.38058344 437.55442906 -155.77734375 430.609375 C-156.43734375 430.279375 -157.09734375 429.949375 -157.77734375 429.609375 C-158.52188064 432.03160167 -159.25484401 434.45641159 -159.97265625 436.88671875 C-160.45199353 438.50855412 -160.94267115 440.12721083 -161.45703125 441.73828125 C-163.13173471 447.41621423 -163.44835871 453.15233595 -160.8125 458.60546875 C-160.45027344 459.24613281 -160.08804688 459.88679688 -159.71484375 460.546875 C-157.23129413 465.11222357 -156.73488034 469.51094049 -157.77734375 474.609375 C-159.96757293 477.43361788 -161.60751582 479.02446103 -164.77734375 480.609375 C-169.18808152 480.90845701 -173.60766805 480.88752519 -178.02734375 480.921875 C-179.25582031 480.95087891 -180.48429688 480.97988281 -181.75 481.00976562 C-193.22922945 481.09060527 -193.22922945 481.09060527 -197.77734375 476.609375 C-201.93127966 471.8046558 -202.42336561 468.06757015 -202.27734375 461.984375 C-202.26380859 461.15607178 -202.25027344 460.32776855 -202.23632812 459.47436523 C-201.68239545 442.35559114 -196.64834821 427.16164857 -189.77734375 411.609375 C-190.83308594 412.10566406 -191.88882813 412.60195313 -192.9765625 413.11328125 C-222.28027236 426.65977955 -253.43171731 433.55761901 -285.08984375 439.046875 C-286.08829315 439.22040497 -287.08674255 439.39393494 -288.115448 439.57272339 C-315.44443397 444.28694743 -345.11542133 448.15825596 -369.9296875 432.62890625 C-380.59532342 425.06493675 -389.1401321 413.69764557 -391.77734375 400.609375 C-393.15283547 382.15312195 -391.44256569 367.99876677 -379.0859375 353.64453125 C-370.14755784 344.16694539 -357.48246726 337.39476405 -344.36474609 336.43237305 C-319.23287974 335.81670855 -319.23287974 335.81670855 -308.83984375 344.421875 C-305.24958351 347.88966676 -302.69531252 350.98881387 -300.77734375 355.609375 C-301.02734375 358.546875 -301.02734375 358.546875 -301.77734375 360.609375 C-305.77191892 360.88413414 -307.9441074 360.25656184 -311.33984375 358.171875 C-318.22102079 353.98592501 -324.81891089 353.95764636 -332.77734375 354.609375 C-340.31873027 356.4551689 -347.70047745 360.41503985 -352.34765625 366.75 C-355.40367093 371.88410467 -357.46255096 376.67657109 -356.40234375 382.76171875 C-354.75598453 388.78121967 -351.61826069 393.64699483 -346.77734375 397.609375 C-340.86856717 400.89202865 -335.64601853 401.11693392 -328.96484375 401.046875 C-327.95164062 401.03930176 -326.9384375 401.03172852 -325.89453125 401.02392578 C-297.84429612 400.41969902 -272.93746812 386.84064287 -250.77734375 370.609375 C-250.20532227 370.19042969 -249.63330078 369.77148438 -249.04394531 369.33984375 C-233.05516345 357.52408706 -217.40126662 344.33241209 -204.27734375 329.375 C-162.32724523 282.96770351 -101.92997628 255.3268617 -39.77734375 250.609375 C-36.79343439 250.52101652 -33.81239046 250.4887703 -30.82739258 250.45996094 C-20.46558081 250.32209803 -14.39277258 249.19894499 -6.77734375 241.609375 C-5.94589844 240.92488281 -5.11445313 240.24039063 -4.2578125 239.53515625 C16.43771066 222.33657249 28.91789907 194.37559548 32.01171875 167.9375 C34.81434547 137.00480504 28.60749647 103.36239782 9.41015625 78.296875 C8.36223192 77.0552585 7.30105033 75.82462112 6.22265625 74.609375 C5.24125419 73.42372176 4.2618705 72.23639292 3.28515625 71.046875 C2.60453125 70.2425 1.92390625 69.438125 1.22265625 68.609375 C0.61164063 68.83753906 0.000625 69.06570312 -0.62890625 69.30078125 C-8.94103966 71.91149358 -16.41321798 71.64236742 -25.03369141 71.02954102 C-29.83307138 70.69374533 -34.03377555 70.58986183 -38.77734375 71.609375 C-46.22178819 72.47789352 -46.22178819 72.47789352 -49.65234375 70.5625 C-52.43553459 68.28777672 -54.45421345 66.34620035 -55.12109375 62.76171875 C-55.57434802 56.33683947 -53.59254752 53.67631506 -49.5234375 48.88671875 C-45.25218879 43.31594023 -44.74210632 36.50071011 -43.81445312 29.73657227 C-42.35981713 19.32556365 -40.40312963 9.57272838 -32.40234375 2.046875 C-22.84155679 -4.99900931 -10.39681467 -6.01831873 0 0 Z " fill="#9B9A90" transform="translate(408.77734375,17.390625)"/>
<path d="M0 0 C7.54069403 5.46004559 10.84188304 11.81548203 12.6640625 20.78125 C13.73947857 25.9354964 15.2268172 28.22159841 19.22265625 31.609375 C19.85945313 32.1765625 20.49625 32.74375 21.15234375 33.328125 C23.94477073 35.81496563 26.74390798 38.24185867 29.7109375 40.51953125 C42.55007245 51.20217075 52.05021543 68.23293242 60.22265625 82.609375 C60.59245605 83.25181152 60.96225586 83.89424805 61.34326172 84.55615234 C77.89354878 113.54249025 86.69348944 145.44360825 86.53515625 178.796875 C86.53192352 180.02301514 86.53192352 180.02301514 86.52862549 181.27392578 C86.47784485 193.27576799 86.14530685 204.91089485 83.22265625 216.609375 C82.92464111 217.83503174 82.92464111 217.83503174 82.62060547 219.08544922 C75.64282911 247.06450304 63.51860284 276.50742294 43.22265625 297.609375 C42.89265625 297.609375 42.56265625 297.609375 42.22265625 297.609375 C42.75958346 288.94613251 44.33454839 280.65863586 46.09765625 272.171875 C50.49166812 250.1463075 52.48197117 228.55770294 52.53515625 206.109375 C52.54080597 204.80086075 52.54080597 204.80086075 52.54656982 203.46591187 C52.58181628 187.39447477 51.80192975 171.17794845 48.41015625 155.421875 C48.23693848 154.59985596 48.0637207 153.77783691 47.88525391 152.9309082 C41.68074572 124.32674669 30.04504943 96.67601913 9.22265625 75.609375 C7.11237986 74.40194003 7.11237986 74.40194003 5.22265625 73.609375 C2.97265625 70.984375 2.97265625 70.984375 1.22265625 68.609375 C0.30613281 68.95162109 0.30613281 68.95162109 -0.62890625 69.30078125 C-8.94103966 71.91149358 -16.41321798 71.64236742 -25.03369141 71.02954102 C-29.83307138 70.69374533 -34.03377555 70.58986183 -38.77734375 71.609375 C-46.22178819 72.47789352 -46.22178819 72.47789352 -49.65234375 70.5625 C-52.43553459 68.28777672 -54.45421345 66.34620035 -55.12109375 62.76171875 C-55.57434802 56.33683947 -53.59254752 53.67631506 -49.5234375 48.88671875 C-45.25218879 43.31594023 -44.74210632 36.50071011 -43.81445312 29.73657227 C-42.35981713 19.32556365 -40.40312963 9.57272838 -32.40234375 2.046875 C-22.84155679 -4.99900931 -10.39681467 -6.01831873 0 0 Z " fill="#9A9A90" transform="translate(408.77734375,17.390625)"/>
<path d="M0 0 C0.33 0 0.66 0 1 0 C2.06893951 19.00336903 -3.30279298 38.24638495 -15.8125 52.875 C-26.28522052 66.21869046 -24.29745207 89.4032603 -22.77294922 105.37939453 C-20.67249206 121.49771749 -13.26794586 135.50915099 -2.63671875 147.578125 C-0.68895049 150.46026419 -0.23204689 152.54714227 0 156 C-1.12580064 159.0811386 -1.93585215 161.2648775 -4.67871094 163.15966797 C-7.84560309 164.30611757 -10.58844222 164.22382676 -13.953125 164.1953125 C-14.94345734 164.19106766 -14.94345734 164.19106766 -15.95379639 164.18673706 C-18.05271897 164.17558415 -20.15120742 164.15048946 -22.25 164.125 C-23.67707715 164.11496384 -25.10416102 164.1058391 -26.53125 164.09765625 C-30.02097328 164.07566111 -33.51044423 164.04116536 -37 164 C-37.309375 162.88939209 -37.61875 161.77878418 -37.9375 160.63452148 C-38.76842662 157.79214909 -39.57414991 155.6078652 -41 153.0625 C-44.09340409 147.04754759 -45.00866028 141.07694839 -45.875 134.4375 C-46.5576375 129.27918277 -47.65088172 124.4881256 -49.125 119.5 C-51.16465395 112.20577285 -51.52560219 105.53075925 -51 98 C-50.95407715 97.31687744 -50.9081543 96.63375488 -50.86083984 95.92993164 C-50.35220623 90.04716545 -48.90847429 84.76098608 -47 79.1875 C-46.69602295 78.28386719 -46.3920459 77.38023437 -46.07885742 76.44921875 C-43.53005984 69.08474718 -40.42794027 62.04925784 -37.14453125 54.98828125 C-30.90271298 41.46434166 -28.83234694 29.38908174 -28.9375 14.5625 C-28.94201172 13.35400391 -28.94652344 12.14550781 -28.95117188 10.90039062 C-28.96289855 7.93354211 -28.97931104 4.9667973 -29 2 C-24.90117896 4.77956487 -23.95796599 7.26290214 -23 12 C-22.84917969 12.84949219 -22.69835937 13.69898438 -22.54296875 14.57421875 C-22.38441406 15.45722656 -22.22585938 16.34023438 -22.0625 17.25 C-21.92972656 18.08015625 -21.79695313 18.9103125 -21.66015625 19.765625 C-20.90466802 22.32266208 -20.10290873 23.3879422 -18 25 C-14.87585686 25.31241431 -13.00174224 25.00058075 -10 24 C-8.92096814 21.75868584 -8.92096814 21.75868584 -8 19 C-6.49925216 15.74158282 -4.96942899 12.49776589 -3.4375 9.25390625 C-2.0916949 6.20755938 -0.99624575 3.17553334 0 0 Z " fill="#63605E" transform="translate(450,326)"/>
<path d="M0 0 C0.33 0 0.66 0 1 0 C1.75977643 5.43681701 2.16901013 10.72074271 2.203125 16.20703125 C2.21018463 16.9657402 2.21724426 17.72444916 2.22451782 18.50614929 C2.4523797 50.18117561 2.4523797 50.18117561 -1 64 C-1.29801514 65.22565674 -1.29801514 65.22565674 -1.60205078 66.47607422 C-8.57982714 94.45512804 -20.70405341 123.89804794 -41 145 C-41.33 145 -41.66 145 -42 145 C-41.46310171 136.33722399 -39.89102284 128.048403 -38.125 119.5625 C-34.592704 102.0998779 -32.11425925 84.49640436 -31.80175781 66.65722656 C-31.56827288 55.51603063 -31.56827288 55.51603063 -27.9375 52 C-27.3084375 51.53207031 -26.679375 51.06414062 -26.03125 50.58203125 C-21.78325045 47.27349314 -19.01120396 42.40860046 -16 38 C-15.48566406 37.27683594 -14.97132813 36.55367187 -14.44140625 35.80859375 C-7.48190994 25.26561696 -3.25859744 12.15323841 0 0 Z " fill="#63605E" transform="translate(493,170)"/>
<path d="M0 0 C0.495 0.99 0.495 0.99 1 2 C0.67 2.66 0.34 3.32 0 4 C0.04064417 7.32912695 0.12522734 10.64620695 0.30273438 13.97070312 C0.39705288 17.74693649 0.18936927 19.71955132 -1.94921875 22.88671875 C-2.62597656 23.58410156 -3.30273438 24.28148437 -4 25 C-5.15652302 27.31304604 -5.13374293 28.67957918 -5.125 31.25 C-5.12757813 31.99765625 -5.13015625 32.7453125 -5.1328125 33.515625 C-4.97882282 36.39613778 -4.51636934 39.16406679 -4 42 C-23.60180886 49.39555426 -46.80819388 50.56136405 -67.25390625 45.609375 C-71.16855473 44.74069056 -75.11267262 44.06323365 -79.0625 43.375 C-79.83803223 43.23980957 -80.61356445 43.10461914 -81.41259766 42.96533203 C-83.27479519 42.64199628 -85.13735985 42.32077614 -87 42 C-86.51789063 41.20335937 -86.03578125 40.40671875 -85.5390625 39.5859375 C-84.90742188 38.52632813 -84.27578125 37.46671875 -83.625 36.375 C-82.99851562 35.33085937 -82.37203125 34.28671875 -81.7265625 33.2109375 C-78.0301997 26.33670622 -77.61258077 20.29687899 -77.375 12.625 C-77.33632813 11.60277344 -77.29765625 10.58054687 -77.2578125 9.52734375 C-77.16402036 7.01840403 -77.07832121 4.50946236 -77 2 C-74.88922462 4.05443024 -73.06117812 5.90700926 -71.4375 8.375 C-65.3904539 14.8872035 -57.36477065 17.85419676 -48.6640625 18.23828125 C-31.44802662 18.61857577 -16.21486911 16.01351737 -3 4 C-1.23676495 1.87396815 -1.23676495 1.87396815 0 0 Z " fill="#E1A083" transform="translate(355,385)"/>
<path d="M0 0 C1.16208984 0.21462891 1.16208984 0.21462891 2.34765625 0.43359375 C4.23295579 0.78272329 6.11665939 1.14045316 8 1.5 C8.02578125 2.62535156 8.0515625 3.75070312 8.078125 4.91015625 C8.56240692 19.60272267 9.80685834 33.4786239 20.75 44.375 C23.22752789 47.15622486 24.51265539 48.98734404 24.6875 52.75 C23.94200274 56.81634869 23.27874688 58.08915671 20 60.5 C16.30546644 62.34726678 11.94186111 61.7710578 7.875 61.8125 C6.94945312 61.84150391 6.02390625 61.87050781 5.0703125 61.90039062 C-1.024744 61.95634806 -6.02764101 61.2579471 -11 57.5 C-14.1969724 53.20902279 -15.36876387 48.27380052 -16.8125 43.1875 C-19.3008633 34.76609793 -23.60428985 28.02035926 -29.5 21.5625 C-32 18.5 -32 18.5 -31.88671875 16.6484375 C-25.31648157 0.72936064 -15.70756249 -3.02173213 0 0 Z " fill="#63605E" transform="translate(284,428.5)"/>
<path d="M0 0 C4.10820169 1.56457214 6.51337421 4.52078353 9.25 7.8125 C9.73380127 8.39217529 10.21760254 8.97185059 10.71606445 9.5690918 C30.75810896 34.10177478 41.63284943 66.82106029 45 98 C45.10957031 98.92941406 45.21914063 99.85882813 45.33203125 100.81640625 C45.59349355 103.49029399 45.77071991 106.1527655 45.89013672 108.83642578 C45.97368381 110.48174659 46.08119925 112.12587025 46.19970703 113.76904297 C47.45718362 132.11769792 47.45718362 132.11769792 44.40234375 138.16015625 C41.76469168 140.65303153 39.17987758 142.23906093 36 144 C34.46089767 144.97614894 32.92744348 145.96123617 31.3984375 146.953125 C18.81284817 155 18.81284817 155 16 155 C16.72427292 150.55101693 17.53128173 146.12313238 18.375 141.6953125 C18.64073423 140.29298944 18.90635572 138.89064502 19.171875 137.48828125 C19.58544591 135.30723374 19.99974519 133.12633478 20.41601562 130.94580078 C20.82127668 128.82106125 21.22336603 126.69574023 21.625 124.5703125 C21.98464844 122.67949951 21.98464844 122.67949951 22.3515625 120.75048828 C23.31481506 115.17914575 24.15322257 109.66923516 24 104 C23.90090656 100.3335426 24.28062093 96.86935376 24.75976562 93.23583984 C28.2934513 60.34814326 19.65531313 26.60658241 0 0 Z " fill="#FAE0C9" transform="translate(416,92)"/>
<path d="M0 0 C4.63813297 3.84025479 8.17481063 7.6164472 10.4921875 13.19921875 C10.2421875 16.13671875 10.2421875 16.13671875 9.4921875 18.19921875 C5.49761233 18.47397789 3.32542385 17.84640559 -0.0703125 15.76171875 C-6.95148954 11.57576876 -13.54937964 11.54749011 -21.5078125 12.19921875 C-29.04919902 14.04501265 -36.4309462 18.0048836 -41.078125 24.33984375 C-44.13413968 29.47394842 -46.19301971 34.26641484 -45.1328125 40.3515625 C-43.62594989 45.86102893 -40.95300966 49.47480399 -37.03125 53.5703125 C-35.5078125 55.19921875 -35.5078125 55.19921875 -34.5078125 57.19921875 C-47.48344827 52.46611317 -55.83086653 43.16780285 -62.125 31.28515625 C-65.34215717 24.10562472 -65.65694316 15.91967434 -64.5078125 8.19921875 C-62.40123856 5.05944777 -59.88133876 3.78450182 -56.5078125 2.19921875 C-55.33412109 1.53212891 -55.33412109 1.53212891 -54.13671875 0.8515625 C-38.72923707 -7.60406345 -14.99985364 -10.77092294 0 0 Z " fill="#625F5D" transform="translate(97.5078125,359.80078125)"/>
<path d="M0 0 C0.33 0 0.66 0 1 0 C2.42374057 27.40700601 -1.29269852 59.87809555 -10 86 C-10.66 86 -11.32 86 -12 86 C-12.29132813 85.23816406 -12.58265625 84.47632813 -12.8828125 83.69140625 C-16.54691304 74.46202094 -20.54579168 67.25743516 -27.6875 60.3125 C-32.73736266 55.36465476 -35.10084431 51.85283149 -35.5 44.6875 C-34.68116432 25.32444458 -34.68116432 25.32444458 -28.17382812 19.31298828 C-23.77335691 16.15204374 -19.00635549 13.71053898 -14.20263672 11.22753906 C-8.95799659 8.30467821 -4.23670749 4.23670749 0 0 Z " fill="#E09F82" transform="translate(461,227)"/>
<path d="M0 0 C0.1572435 5.24145011 0.19932733 10.45786942 0.05859375 15.70019531 C0.00862242 17.66157012 0 19.62392622 0 21.5859375 C-0.36999269 25.18411643 -0.86275839 27.05846874 -3 30 C-7.91684924 33.42323217 -13.69000204 35.23869287 -19.32958984 37.11181641 C-21.84065941 37.94700301 -24.3194584 38.84253978 -26.80078125 39.76171875 C-46.4641427 46.86828704 -67.27362552 51.74935363 -87.8125 55.5625 C-89.16299438 55.81519653 -89.16299438 55.81519653 -90.54077148 56.07299805 C-96.61379709 57.1287343 -96.61379709 57.1287343 -100 56 C-99.42258057 55.77449463 -98.84516113 55.54898926 -98.25024414 55.31665039 C-79.63124774 47.99776392 -62.77720445 40.20129274 -47.07421875 27.6640625 C-35.33622041 18.39645235 -22.68326548 10.84875037 -9.5 3.8125 C-8.77586914 3.42570068 -8.05173828 3.03890137 -7.30566406 2.64038086 C-2.25513625 0 -2.25513625 0 0 0 Z " fill="#E1A083" transform="translate(223,399)"/>
<path d="M0 0 C10.1205813 7.32808347 12.14352532 16.89286068 14.22265625 28.609375 C13.43761719 28.13886719 12.65257812 27.66835938 11.84375 27.18359375 C-0.56569052 19.46595295 -0.56569052 19.46595295 -14.77734375 18.609375 C-20.6533422 20.51167666 -23.18607462 23.97719762 -26.02734375 29.296875 C-29.96330661 36.65186551 -35.19797165 40.66140034 -41.77734375 45.609375 C-43.44755649 46.93826361 -45.11543893 48.27011105 -46.77734375 49.609375 C-47.43734375 49.279375 -48.09734375 48.949375 -48.77734375 48.609375 C-48.52339844 47.96355469 -48.26945312 47.31773438 -48.0078125 46.65234375 C-45.61840947 40.11056991 -44.31302426 33.99158581 -43.40234375 27.109375 C-42.06463211 17.57923568 -39.64722309 8.86169301 -32.40234375 2.046875 C-22.84155679 -4.99900931 -10.39681467 -6.01831873 0 0 Z " fill="#63605E" transform="translate(408.77734375,17.390625)"/>
<path d="M0 0 C0.8125 2.125 0.8125 2.125 1 5 C-0.61594832 7.04119788 -2.2856382 9.04072937 -4 11 C-4.69115647 13.60899593 -4.69115647 13.60899593 -5 16 C-13.757643 19.50445778 -21.47522428 20.65127566 -30.875 20.5625 C-32.05835938 20.58634766 -33.24171875 20.61019531 -34.4609375 20.63476562 C-44.01723085 20.61862324 -44.01723085 20.61862324 -47.7578125 17.58984375 C-51.54676455 13.2134061 -51.09070471 10.62369193 -51 5 C-50.0409375 5.15855469 -49.081875 5.31710937 -48.09375 5.48046875 C-33.96147095 7.47757545 -18.6159187 7.06407341 -5.7734375 0.30078125 C-3 -1 -3 -1 0 0 Z " fill="#FAE0C9" transform="translate(346,397)"/>
<path d="M0 0 C1.32 0 2.64 0 4 0 C4.268125 1.02996094 4.53625 2.05992187 4.8125 3.12109375 C6.98255597 11.11015671 9.51810773 18.4733018 13.25 25.875 C16.44862973 32.24161564 18.25079072 37.74274358 18 45 C11.07330737 42.01435662 7.00135505 38.63066208 2.90625 32.3125 C1.53506851 28.81362309 1.24963613 25.21020547 0.875 21.5 C0.79008301 20.70352051 0.70516602 19.90704102 0.61767578 19.08642578 C-0.02068772 12.71435063 -0.22599841 6.40328833 0 0 Z " fill="#65625F" transform="translate(276,356)"/>
<path d="M0 0 C0.33 0 0.66 0 1 0 C1.62687863 13.51271717 -1.29973794 25.30018503 -10.47265625 35.5234375 C-12.44722485 37.43235549 -14.5493222 38.7746611 -17 40 C-17.36291363 34.40686053 -16.43268832 31.05251833 -13.8125 26.125 C-13.49369873 25.51567627 -13.17489746 24.90635254 -12.84643555 24.27856445 C-10.68685924 20.17705198 -8.41954119 16.13486948 -6.12890625 12.10546875 C-4.49907627 9.06575124 -3.14153711 5.92428433 -1.796875 2.75 C-1 1 -1 1 0 0 Z " fill="#666360" transform="translate(362,355)"/>
<path d="M0 0 C-1 3 -1 3 -2.8203125 4.17578125 C-3.58085937 4.55089844 -4.34140625 4.92601562 -5.125 5.3125 C-9.09494113 7.39561106 -12.29324049 9.74179033 -15.58984375 12.765625 C-17.93378766 14.81738754 -19.11493612 15.00867442 -22.3125 15.25 C-26.19655077 14.98667452 -27.94531404 14.33593632 -31 12 C-32.20272819 9.59454362 -32.10071472 8.05003047 -32.0625 5.375 C-32.05347656 4.55773437 -32.04445313 3.74046875 -32.03515625 2.8984375 C-32.02355469 2.27195312 -32.01195312 1.64546875 -32 1 C-31.01 1.845625 -30.02 2.69125 -29 3.5625 C-26.21770436 5.53142292 -24.42584544 6.39933528 -21 6.125 C-17.89261417 5.52376251 -16.05543046 4.4286273 -13.625 2.4375 C-9.42299955 -0.95529851 -5.16866768 -0.46798802 0 0 Z " fill="#656260" transform="translate(386,392)"/>
<path d="M0 0 C0.99 0 1.98 0 3 0 C5.80544503 4.80292189 5.64100394 9.58128065 5 15 C3.93458714 17.95999485 2.63757361 20.28776871 1 23 C0.01 23 -0.98 23 -2 23 C-4.1875 20.5 -4.1875 20.5 -6 18 C-5.071875 16.88625 -5.071875 16.88625 -4.125 15.75 C-0.94757408 11.08526833 -0.673541 5.47695181 0 0 Z " fill="#65625F" transform="translate(415,66)"/>
<path d="M0 0 C0.66 0.66 1.32 1.32 2 2 C1.8125 5.5 1.8125 5.5 1 9 C-2.45029042 11.30019361 -3.94554358 11.43132515 -8 11 C-10 8 -10 8 -9.8125 4.9375 C-8.33352414 -0.40956657 -4.94017031 -0.42044003 0 0 Z " fill="#64615F" transform="translate(401,49)"/>
<path d="M0 0 C0.33 0 0.66 0 1 0 C1.12036664 5.77759884 0.8320582 11.27959989 0 17 C-0.33 17 -0.66 17 -1 17 C-2.0748291 10.72532201 -1.88341198 6.09339169 0 0 Z " fill="#ACA89B" transform="translate(440,192)"/>
</svg>
