<?xml version="1.0" encoding="UTF-8"?>
<!DOCTYPE svg PUBLIC "-//W3C//DTD SVG 1.1//EN" "http://www.w3.org/Graphics/SVG/1.1/DTD/svg11.dtd">
<svg xmlns="http://www.w3.org/2000/svg" version="1.1" width="512px" height="512px" style="shape-rendering:geometricPrecision; text-rendering:geometricPrecision; image-rendering:optimizeQuality; fill-rule:evenodd; clip-rule:evenodd" xmlns:xlink="http://www.w3.org/1999/xlink">
<g><path style="opacity:1" fill="#445163" d="M 463.5,45.5 C 459.074,49.0462 454.074,51.5462 448.5,53C 438.833,53.6667 429.167,53.6667 419.5,53C 416.412,51.9817 413.412,50.815 410.5,49.5C 412.238,29.2832 423.238,20.4499 443.5,23C 454.192,26.861 460.859,34.361 463.5,45.5 Z"/></g>
<g><path style="opacity:1" fill="#899ba7" d="M 463.5,45.5 C 470.52,63.2178 477.853,80.8845 485.5,98.5C 484.029,106.972 483.029,115.639 482.5,124.5C 482.167,124.5 481.833,124.5 481.5,124.5C 475.192,109.205 466.859,95.2053 456.5,82.5C 457.043,82.44 457.376,82.1067 457.5,81.5C 455.281,76.3628 452.114,72.0295 448,68.5C 447.228,68.6448 446.561,68.9781 446,69.5C 445.19,73.3575 445.357,77.0242 446.5,80.5C 439.28,100.711 425.28,107.378 404.5,100.5C 393.759,97.2813 382.759,95.4479 371.5,95C 370.333,93.8333 369.167,92.6667 368,91.5C 366.255,84.436 367.755,78.2693 372.5,73C 381.209,70.6514 389.543,67.3181 397.5,63C 402.738,59.2644 407.071,54.7644 410.5,49.5C 413.412,50.815 416.412,51.9817 419.5,53C 429.167,53.6667 438.833,53.6667 448.5,53C 454.074,51.5462 459.074,49.0462 463.5,45.5 Z"/></g>
<g><path style="opacity:1" fill="#475366" d="M 414.5,63.5 C 422.486,62.998 424.486,66.1647 420.5,73C 413.412,75.5853 410.579,73.0853 412,65.5C 412.995,64.9341 413.828,64.2674 414.5,63.5 Z"/></g>
<g><path style="opacity:1" fill="#4d5769" d="M 456.5,82.5 C 453.772,78.1585 450.438,77.4918 446.5,80.5C 445.357,77.0242 445.19,73.3575 446,69.5C 446.561,68.9781 447.228,68.6448 448,68.5C 452.114,72.0295 455.281,76.3628 457.5,81.5C 457.376,82.1067 457.043,82.44 456.5,82.5 Z"/></g>
<g><path style="opacity:1" fill="#f9e0c7" d="M 456.5,82.5 C 466.859,95.2053 475.192,109.205 481.5,124.5C 480.004,141.556 471.004,148.389 454.5,145C 448.643,142.577 443.31,139.411 438.5,135.5C 434.833,131.5 431.167,127.5 427.5,123.5C 420.167,115.5 412.5,107.833 404.5,100.5C 425.28,107.378 439.28,100.711 446.5,80.5C 450.438,77.4918 453.772,78.1585 456.5,82.5 Z"/></g>
<g><path style="opacity:1" fill="#495567" d="M 485.5,98.5 C 493.046,118.154 495.546,138.487 493,159.5C 492.353,165.736 491.187,171.736 489.5,177.5C 492.055,159.169 489.722,141.502 482.5,124.5C 483.029,115.639 484.029,106.972 485.5,98.5 Z"/></g>
<g><path style="opacity:1" fill="#899ba7" d="M 427.5,123.5 C 431.167,127.5 434.833,131.5 438.5,135.5C 441.731,140.947 445.231,146.281 449,151.5C 449.49,152.793 449.657,154.127 449.5,155.5C 445.548,161.324 440.215,165.49 433.5,168C 427.68,170.163 421.68,171.496 415.5,172C 406.5,172.333 397.5,172.667 388.5,173C 383.75,174.807 383.417,177.14 387.5,180C 407.457,184.547 426.791,182.547 445.5,174C 447.833,172.333 450.167,170.667 452.5,169C 454.141,167.871 455.141,166.371 455.5,164.5C 460.624,172.767 464.124,181.767 466,191.5C 467.23,201.974 468.396,212.307 469.5,222.5C 468.07,235.468 467.57,248.468 468,261.5C 472.815,276.291 480.148,289.624 490,301.5C 499.356,315.817 502.022,331.15 498,347.5C 492.127,355.923 485.46,356.589 478,349.5C 474.667,341.17 473.001,332.504 473,323.5C 472.261,319.615 470.927,315.948 469,312.5C 460.054,300.914 450.887,289.58 441.5,278.5C 439.871,273.265 437.871,268.265 435.5,263.5C 435.5,254.833 435.5,246.167 435.5,237.5C 435.774,231.361 436.774,225.361 438.5,219.5C 434.369,219.631 430.202,219.297 426,218.5C 424.978,216.298 424.478,213.965 424.5,211.5C 424.944,207.837 425.278,204.171 425.5,200.5C 424.127,200.343 422.793,200.51 421.5,201C 415.69,207.749 412.19,215.582 411,224.5C 409.833,225.667 408.667,226.833 407.5,228C 400.211,231.311 393.211,235.144 386.5,239.5C 386.167,240.333 385.833,241.167 385.5,242C 387.09,248.299 388.757,254.466 390.5,260.5C 392.699,275.753 394.032,291.087 394.5,306.5C 395.368,328.682 393.868,350.682 390,372.5C 387.978,377.223 385.478,381.557 382.5,385.5C 377.089,383.764 371.422,382.764 365.5,382.5C 365.744,385.263 367.077,387.429 369.5,389C 372.561,391.035 375.895,392.201 379.5,392.5C 378.167,396.833 376.833,401.167 375.5,405.5C 369.526,404.615 363.526,403.949 357.5,403.5C 357.393,405.903 358.393,407.736 360.5,409C 364.653,411.327 368.987,413.16 373.5,414.5C 372.861,420.993 372.195,427.493 371.5,434C 371.684,440.892 374.017,446.892 378.5,452C 385.241,454.454 391.075,458.287 396,463.5C 398.269,467.714 397.769,471.547 394.5,475C 384.266,476.617 373.933,476.95 363.5,476C 358.288,474.983 354.455,472.149 352,467.5C 348.282,457.726 343.282,448.726 337,440.5C 334.353,432.306 334.019,423.973 336,415.5C 337.34,411.49 338.673,407.49 340,403.5C 340.333,392.167 340.667,380.833 341,369.5C 341.848,362.112 344.348,355.446 348.5,349.5C 353.215,354.122 358.882,355.622 365.5,354C 366.428,353.612 367.095,352.945 367.5,352C 360.952,347.285 355.619,341.452 351.5,334.5C 348.908,331.002 345.575,328.169 341.5,326C 337.964,322.296 334.298,318.796 330.5,315.5C 320.101,303.033 312.601,289.033 308,273.5C 317.07,283.577 327.57,291.744 339.5,298C 345.54,303.709 351.874,309.043 358.5,314C 368.491,315.502 374.491,311.335 376.5,301.5C 356.45,306.916 353.283,301.583 367,285.5C 367.617,284.551 367.451,283.718 366.5,283C 359.42,283.802 353.92,287.302 350,293.5C 346.285,291.48 344.952,288.48 346,284.5C 349.533,277.96 354.2,272.294 360,267.5C 360.684,266.216 360.517,265.049 359.5,264C 356.449,263.143 353.783,263.81 351.5,266C 345.426,271.035 339.926,276.535 335,282.5C 314.945,272.998 310.612,258.664 322,239.5C 326.593,232.405 331.76,225.738 337.5,219.5C 335.956,217.554 333.956,217.054 331.5,218C 318.934,225.575 310.434,236.408 306,250.5C 302.849,238.375 304.349,226.709 310.5,215.5C 308.477,214.959 306.477,215.459 304.5,217C 298.173,222.481 294.007,229.314 292,237.5C 288.93,251.785 288.763,266.118 291.5,280.5C 292.002,288.996 288.669,295.496 281.5,300C 254.308,308.046 234.308,324.546 221.5,349.5C 220.758,351.98 219.758,354.313 218.5,356.5C 201.272,389.396 177.605,416.729 147.5,438.5C 158.052,425.084 167.886,411.084 177,396.5C 188.512,374.81 199.512,352.81 210,330.5C 218.59,315.57 229.09,302.07 241.5,290C 242.833,289.333 244.167,289.333 245.5,290C 248.488,293.384 251.321,293.217 254,289.5C 253.995,282.504 250.329,279.171 243,279.5C 240.7,279.494 238.534,279.994 236.5,281C 224.555,292.279 214.055,304.779 205,318.5C 193.488,340.19 182.488,362.19 172,384.5C 154.787,416.216 131.954,443.216 103.5,465.5C 74.5204,479.412 43.8538,487.078 11.5,488.5C 11.4914,486.692 11.9914,485.025 13,483.5C 16.0422,480.067 19.5422,477.234 23.5,475C 56.6715,462.331 85.1715,442.831 109,416.5C 138.809,382.922 163.142,345.589 182,304.5C 200.095,273.067 223.262,245.9 251.5,223C 262.833,211.667 274.167,200.333 285.5,189C 302.945,172.936 322.945,160.936 345.5,153C 366.218,146.338 386.552,147.338 406.5,156C 418.206,158.063 426.706,153.896 432,143.5C 432.667,140.5 432.667,137.5 432,134.5C 430.487,130.812 428.987,127.145 427.5,123.5 Z"/></g>
<g><path style="opacity:1" fill="#e09d7e" d="M 481.5,124.5 C 481.833,124.5 482.167,124.5 482.5,124.5C 489.722,141.502 492.055,159.169 489.5,177.5C 486.89,194.379 480.224,209.379 469.5,222.5C 468.396,212.307 467.23,201.974 466,191.5C 464.124,181.767 460.624,172.767 455.5,164.5C 454.62,161.738 453.454,159.071 452,156.5C 451.329,155.748 450.496,155.414 449.5,155.5C 449.657,154.127 449.49,152.793 449,151.5C 445.231,146.281 441.731,140.947 438.5,135.5C 443.31,139.411 448.643,142.577 454.5,145C 471.004,148.389 480.004,141.556 481.5,124.5 Z"/></g>
<g><path style="opacity:1" fill="#f5b47e" d="M 449.5,155.5 C 450.496,155.414 451.329,155.748 452,156.5C 453.454,159.071 454.62,161.738 455.5,164.5C 455.141,166.371 454.141,167.871 452.5,169C 450.167,170.667 447.833,172.333 445.5,174C 426.791,182.547 407.457,184.547 387.5,180C 383.417,177.14 383.75,174.807 388.5,173C 397.5,172.667 406.5,172.333 415.5,172C 421.68,171.496 427.68,170.163 433.5,168C 440.215,165.49 445.548,161.324 449.5,155.5 Z"/></g>
<g><path style="opacity:1" fill="#f7b47d" d="M 358.5,171.5 C 362.182,171.335 365.848,171.501 369.5,172C 372.28,174.77 371.946,177.104 368.5,179C 364.5,179.667 360.5,179.667 356.5,179C 354.84,175.777 355.506,173.277 358.5,171.5 Z"/></g>
<g><path style="opacity:1" fill="#455264" d="M 435.5,237.5 C 417.848,240.159 402.848,247.825 390.5,260.5C 388.757,254.466 387.09,248.299 385.5,242C 385.833,241.167 386.167,240.333 386.5,239.5C 393.211,235.144 400.211,231.311 407.5,228C 408.667,226.833 409.833,225.667 411,224.5C 412.19,215.582 415.69,207.749 421.5,201C 422.793,200.51 424.127,200.343 425.5,200.5C 425.278,204.171 424.944,207.837 424.5,211.5C 424.478,213.965 424.978,216.298 426,218.5C 430.202,219.297 434.369,219.631 438.5,219.5C 436.774,225.361 435.774,231.361 435.5,237.5 Z"/></g>
<g><path style="opacity:1" fill="#455264" d="M 330.5,315.5 C 325.681,317.575 320.681,319.075 315.5,320C 301.184,319.405 286.85,319.072 272.5,319C 251.052,321.99 234.052,332.157 221.5,349.5C 234.308,324.546 254.308,308.046 281.5,300C 288.669,295.496 292.002,288.996 291.5,280.5C 288.763,266.118 288.93,251.785 292,237.5C 294.007,229.314 298.173,222.481 304.5,217C 306.477,215.459 308.477,214.959 310.5,215.5C 304.349,226.709 302.849,238.375 306,250.5C 310.434,236.408 318.934,225.575 331.5,218C 333.956,217.054 335.956,217.554 337.5,219.5C 331.76,225.738 326.593,232.405 322,239.5C 310.612,258.664 314.945,272.998 335,282.5C 339.926,276.535 345.426,271.035 351.5,266C 353.783,263.81 356.449,263.143 359.5,264C 360.517,265.049 360.684,266.216 360,267.5C 354.2,272.294 349.533,277.96 346,284.5C 344.952,288.48 346.285,291.48 350,293.5C 353.92,287.302 359.42,283.802 366.5,283C 367.451,283.718 367.617,284.551 367,285.5C 353.283,301.583 356.45,306.916 376.5,301.5C 374.491,311.335 368.491,315.502 358.5,314C 351.874,309.043 345.54,303.709 339.5,298C 327.57,291.744 317.07,283.577 308,273.5C 312.601,289.033 320.101,303.033 330.5,315.5 Z"/></g>
<g><path style="opacity:1" fill="#df9b7d" d="M 435.5,237.5 C 435.5,246.167 435.5,254.833 435.5,263.5C 431.375,266.453 427.375,269.619 423.5,273C 421.21,274.777 419.543,276.944 418.5,279.5C 409.757,287.905 401.757,296.905 394.5,306.5C 394.032,291.087 392.699,275.753 390.5,260.5C 402.848,247.825 417.848,240.159 435.5,237.5 Z"/></g>
<g><path style="opacity:1" fill="#465365" d="M 346.5,239.5 C 351.835,239.005 354.335,241.338 354,246.5C 348.467,251.698 343.3,257.198 338.5,263C 334.181,264.46 331.181,263.126 329.5,259C 333.929,251.406 339.595,244.906 346.5,239.5 Z"/></g>
<g><path style="opacity:1" fill="#f4b47e" d="M 268.5,253.5 C 274.61,253.104 278.276,255.937 279.5,262C 278.553,265.072 276.553,266.072 273.5,265C 268.366,262.574 266.7,258.741 268.5,253.5 Z"/></g>
<g><path style="opacity:1" fill="#f4b47e" d="M 255.5,261.5 C 263.996,262.814 267.663,267.648 266.5,276C 258.951,277.681 254.285,274.514 252.5,266.5C 253.092,264.577 254.092,262.911 255.5,261.5 Z"/></g>
<g><path style="opacity:1" fill="#445163" d="M 435.5,263.5 C 437.871,268.265 439.871,273.265 441.5,278.5C 442.305,290.864 443.305,303.198 444.5,315.5C 444.478,325.625 441.811,334.958 436.5,343.5C 430.974,348.527 425.308,348.694 419.5,344C 418.198,341.787 417.198,339.454 416.5,337C 422.261,318.04 422.927,298.874 418.5,279.5C 419.543,276.944 421.21,274.777 423.5,273C 427.375,269.619 431.375,266.453 435.5,263.5 Z"/></g>
<g><path style="opacity:1" fill="#f6b47d" d="M 147.5,438.5 C 134.178,449.504 119.512,458.504 103.5,465.5C 131.954,443.216 154.787,416.216 172,384.5C 182.488,362.19 193.488,340.19 205,318.5C 214.055,304.779 224.555,292.279 236.5,281C 238.534,279.994 240.7,279.494 243,279.5C 250.329,279.171 253.995,282.504 254,289.5C 251.321,293.217 248.488,293.384 245.5,290C 244.167,289.333 242.833,289.333 241.5,290C 229.09,302.07 218.59,315.57 210,330.5C 199.512,352.81 188.512,374.81 177,396.5C 167.886,411.084 158.052,425.084 147.5,438.5 Z"/></g>
<g><path style="opacity:1" fill="#df9b7d" d="M 330.5,315.5 C 334.298,318.796 337.964,322.296 341.5,326C 345.575,328.169 348.908,331.002 351.5,334.5C 351.736,337.609 351.403,340.609 350.5,343.5C 349.833,343.5 349.5,343.833 349.5,344.5C 334.145,355.255 317.145,359.255 298.5,356.5C 291.435,354.531 284.435,352.031 277.5,349C 270.548,347.603 263.548,347.27 256.5,348C 249.042,349.904 241.709,352.071 234.5,354.5C 229.263,355.817 223.93,356.483 218.5,356.5C 219.758,354.313 220.758,351.98 221.5,349.5C 234.052,332.157 251.052,321.99 272.5,319C 286.85,319.072 301.184,319.405 315.5,320C 320.681,319.075 325.681,317.575 330.5,315.5 Z"/></g>
<g><path style="opacity:1" fill="#475366" d="M 370.5,322.5 C 373.518,322.335 376.518,322.502 379.5,323C 381.094,327.001 379.76,329.668 375.5,331C 372.833,331.667 370.167,331.667 367.5,331C 365.789,329.867 365.289,328.367 366,326.5C 367.397,324.93 368.897,323.596 370.5,322.5 Z"/></g>
<g><path style="opacity:1" fill="#475466" d="M 351.5,334.5 C 355.619,341.452 360.952,347.285 367.5,352C 367.095,352.945 366.428,353.612 365.5,354C 358.882,355.622 353.215,354.122 348.5,349.5C 349.038,347.883 349.371,346.216 349.5,344.5C 350.167,344.5 350.5,344.167 350.5,343.5C 351.403,340.609 351.736,337.609 351.5,334.5 Z"/></g>
<g><path style="opacity:1" fill="#445063" d="M 298.5,356.5 C 281.937,368.894 267.103,383.227 254,399.5C 244.232,412.238 240.565,426.571 243,442.5C 245.126,448.295 248.46,453.295 253,457.5C 259.884,470.982 255.717,477.315 240.5,476.5C 232.08,477.695 225.246,475.028 220,468.5C 216.78,460.392 212.78,452.726 208,445.5C 206.533,441.63 205.699,437.63 205.5,433.5C 206.075,424.747 207.242,416.081 209,407.5C 215.906,396.028 222.572,384.362 229,372.5C 231.544,366.703 233.377,360.703 234.5,354.5C 241.709,352.071 249.042,349.904 256.5,348C 263.548,347.27 270.548,347.603 277.5,349C 284.435,352.031 291.435,354.531 298.5,356.5 Z"/></g>
<g><path style="opacity:1" fill="#465365" d="M 382.5,385.5 C 381.736,388.018 380.736,390.351 379.5,392.5C 375.895,392.201 372.561,391.035 369.5,389C 367.077,387.429 365.744,385.263 365.5,382.5C 371.422,382.764 377.089,383.764 382.5,385.5 Z"/></g>
<g><path style="opacity:1" fill="#465365" d="M 375.5,405.5 C 374.833,408.5 374.167,411.5 373.5,414.5C 368.987,413.16 364.653,411.327 360.5,409C 358.393,407.736 357.393,405.903 357.5,403.5C 363.526,403.949 369.526,404.615 375.5,405.5 Z"/></g>
</svg>
