<?xml version="1.0" encoding="UTF-8"?>
<!DOCTYPE svg PUBLIC "-//W3C//DTD SVG 1.1//EN" "http://www.w3.org/Graphics/SVG/1.1/DTD/svg11.dtd">
<svg xmlns="http://www.w3.org/2000/svg" version="1.1" width="512px" height="512px" style="shape-rendering:geometricPrecision; text-rendering:geometricPrecision; image-rendering:optimizeQuality; fill-rule:evenodd; clip-rule:evenodd" xmlns:xlink="http://www.w3.org/1999/xlink">
<g><path style="opacity:1" fill="#515d7d" d="M 104.5,117.5 C 120.992,111.827 133.158,101.16 141,85.5C 143.606,79.4112 145.106,73.0779 145.5,66.5C 158.662,55.0912 173.996,48.2579 191.5,46C 201.199,45.7446 210.865,45.0779 220.5,44C 230.467,41.5658 240.3,38.7324 250,35.5C 258.211,36.5683 261.545,41.2349 260,49.5C 251.363,65.5817 238.196,76.0817 220.5,81C 208.845,98.161 192.512,106.328 171.5,105.5C 164.483,115.407 154.817,119.74 142.5,118.5C 129.843,117.772 117.176,117.439 104.5,117.5 Z"/></g>
<g><path style="opacity:1" fill="#d9d99c" d="M 484.5,200.5 C 485.628,163.582 470.628,135.416 439.5,116C 435.88,115.159 432.546,115.826 429.5,118C 422.269,128.365 412.269,133.532 399.5,133.5C 392.992,132.79 386.658,131.29 380.5,129C 374.07,125.451 367.404,122.451 360.5,120C 348.781,118.328 337.114,116.328 325.5,114C 321.911,113.246 319.911,111.079 319.5,107.5C 322.512,105.498 325.845,104.331 329.5,104C 339.424,103.155 349.257,103.655 359,105.5C 365.169,105.028 371.336,104.528 377.5,104C 378.833,103 378.833,102 377.5,101C 374.899,100.08 372.232,99.413 369.5,99C 359.109,98.5862 348.776,97.5862 338.5,96C 332.021,95.0816 325.688,95.5816 319.5,97.5C 311.954,95.7954 308.454,91.1288 309,83.5C 311.476,73.0187 317.643,65.5187 327.5,61C 345.448,59.7205 363.448,59.0539 381.5,59C 386.279,58.0739 390.946,56.7405 395.5,55C 407.356,46.7144 420.523,42.2144 435,41.5C 436.973,41.3094 438.473,41.976 439.5,43.5C 438.708,47.7291 436.708,51.2291 433.5,54C 442.936,53.7921 452.269,55.1254 461.5,58C 466.238,58.1116 470.904,58.2783 475.5,58.5C 471.976,64.1909 467.309,68.6909 461.5,72C 463.246,72.4709 464.913,73.1376 466.5,74C 471.97,79.2912 476.97,84.9579 481.5,91C 484.5,93.1667 487.5,95.3333 490.5,97.5C 488.543,99.4848 486.21,100.985 483.5,102C 479.531,102.853 475.531,103.519 471.5,104C 487.913,134.67 492.246,166.837 484.5,200.5 Z"/></g>
<g><path style="opacity:1" fill="#7d836a" d="M 145.5,66.5 C 145.106,73.0779 143.606,79.4112 141,85.5C 133.158,101.16 120.992,111.827 104.5,117.5C 86.0881,123.025 74.4215,135.025 69.5,153.5C 71.3332,134.839 77.1666,117.506 87,101.5C 91.052,96.288 94.8854,90.9546 98.5,85.5C 115.888,83.2633 131.555,76.93 145.5,66.5 Z"/></g>
<g><path style="opacity:1" fill="#81876c" d="M 401.5,70.5 C 406.813,70.6438 408.979,73.3105 408,78.5C 403.838,83.0791 399.505,83.4125 395,79.5C 394.276,74.3928 396.443,71.3928 401.5,70.5 Z"/></g>
<g><path style="opacity:1" fill="#80866c" d="M 332.5,73.5 C 339.632,73.7891 341.298,76.9558 337.5,83C 329.03,83.531 327.364,80.3643 332.5,73.5 Z"/></g>
<g><path style="opacity:1" fill="#d9d99b" d="M 98.5,85.5 C 94.8854,90.9546 91.052,96.288 87,101.5C 77.1666,117.506 71.3332,134.839 69.5,153.5C 67.7346,184.122 81.7346,203.289 111.5,211C 121.493,213.215 131.493,213.548 141.5,212C 152.225,209.203 162.891,206.203 173.5,203C 181.483,201.693 189.483,200.526 197.5,199.5C 195.082,195.494 193.749,191.161 193.5,186.5C 205.956,184.354 217.622,186.521 228.5,193C 233.698,195.344 239.031,196.177 244.5,195.5C 242.886,190.98 242.22,186.313 242.5,181.5C 248.678,181.107 254.678,181.94 260.5,184C 267.167,187.667 273.833,191.333 280.5,195C 284.072,196.48 287.738,197.146 291.5,197C 286.865,192.429 285.032,186.929 286,180.5C 298.086,184.626 309.253,190.459 319.5,198C 341.249,207.08 363.249,207.746 385.5,200C 407.257,188.588 414.257,171.088 406.5,147.5C 414.243,156.568 421.576,165.902 428.5,175.5C 438.952,202.47 435.785,227.803 419,251.5C 414.241,258.348 408.574,264.348 402,269.5C 401.333,270.833 401.333,272.167 402,273.5C 405.029,277.562 407.529,281.895 409.5,286.5C 411.155,312.006 407.822,336.672 399.5,360.5C 396.869,340.974 390.702,322.64 381,305.5C 377.38,300.211 373.38,295.211 369,290.5C 358.804,274.942 360.638,261.108 374.5,249C 371.579,249.38 368.912,250.547 366.5,252.5C 361.588,252.063 356.922,252.896 352.5,255C 340.902,261.604 329.569,268.604 318.5,276C 311.426,279.08 304.093,281.247 296.5,282.5C 296.546,289.191 296.212,295.857 295.5,302.5C 290.868,319.097 283.535,334.431 273.5,348.5C 269.044,354.127 264.377,359.627 259.5,365C 250.791,372.339 241.791,379.173 232.5,385.5C 223.047,390.013 213.38,390.513 203.5,387C 196.895,382.864 189.895,379.531 182.5,377C 174.868,375.169 167.201,375.003 159.5,376.5C 148.257,369.925 140.257,360.592 135.5,348.5C 147.994,344.253 159.328,337.919 169.5,329.5C 179.541,321.959 188.041,312.959 195,302.5C 202.708,289.583 210.541,276.75 218.5,264C 223.781,259.677 229.781,256.677 236.5,255C 246.22,254.414 255.887,254.414 265.5,255C 260.023,249.502 253.356,246.502 245.5,246C 227.524,244.073 213.024,250.24 202,264.5C 196.062,277.869 187.562,289.369 176.5,299C 173.757,301.038 170.757,302.538 167.5,303.5C 166.833,303.5 166.5,303.833 166.5,304.5C 148.058,307.579 129.725,307.079 111.5,303C 106.722,301.444 102.055,299.61 97.5,297.5C 96.1667,296.833 96.1667,296.167 97.5,295.5C 101.66,293.588 105.66,291.421 109.5,289C 92.3641,289.397 77.6974,283.73 65.5,272C 72.5231,271.77 79.1897,270.104 85.5,267C 30.0857,242.667 10.2524,201.167 26,142.5C 39.2167,109.783 63.3834,90.7831 98.5,85.5 Z"/></g>
<g><path style="opacity:1" fill="#81876c" d="M 319.5,107.5 C 318.3,104.302 318.3,100.969 319.5,97.5C 325.688,95.5816 332.021,95.0816 338.5,96C 348.776,97.5862 359.109,98.5862 369.5,99C 372.232,99.413 374.899,100.08 377.5,101C 378.833,102 378.833,103 377.5,104C 371.336,104.528 365.169,105.028 359,105.5C 349.257,103.655 339.424,103.155 329.5,104C 325.845,104.331 322.512,105.498 319.5,107.5 Z"/></g>
<g><path style="opacity:1" fill="#f9e0c7" d="M 484.5,200.5 C 483.554,215.335 479.22,229.002 471.5,241.5C 467.688,240.676 463.688,240.176 459.5,240C 457.04,238.542 454.873,236.709 453,234.5C 448.417,213.228 440.251,193.561 428.5,175.5C 421.576,165.902 414.243,156.568 406.5,147.5C 404.167,142.833 401.833,138.167 399.5,133.5C 412.269,133.532 422.269,128.365 429.5,118C 432.546,115.826 435.88,115.159 439.5,116C 470.628,135.416 485.628,163.582 484.5,200.5 Z"/></g>
<g><path style="opacity:1" fill="#e19d7e" d="M 428.5,175.5 C 440.251,193.561 448.417,213.228 453,234.5C 454.873,236.709 457.04,238.542 459.5,240C 463.688,240.176 467.688,240.676 471.5,241.5C 462.709,258.805 450.709,273.638 435.5,286C 429.1,290.522 422.767,295.022 416.5,299.5C 413.982,295.293 411.649,290.959 409.5,286.5C 407.529,281.895 405.029,277.562 402,273.5C 401.333,272.167 401.333,270.833 402,269.5C 408.574,264.348 414.241,258.348 419,251.5C 435.785,227.803 438.952,202.47 428.5,175.5 Z"/></g>
<g><path style="opacity:1" fill="#7e856a" d="M 169.5,329.5 C 160.964,327.403 152.964,323.903 145.5,319C 149.175,318.443 152.508,317.11 155.5,315C 159.062,311.268 162.729,307.768 166.5,304.5C 167.167,304.5 167.5,304.167 167.5,303.5C 170.757,302.538 173.757,301.038 176.5,299C 187.562,289.369 196.062,277.869 202,264.5C 213.024,250.24 227.524,244.073 245.5,246C 253.356,246.502 260.023,249.502 265.5,255C 255.887,254.414 246.22,254.414 236.5,255C 229.781,256.677 223.781,259.677 218.5,264C 210.541,276.75 202.708,289.583 195,302.5C 188.041,312.959 179.541,321.959 169.5,329.5 Z"/></g>
<g><path style="opacity:1" fill="#7c95cc" d="M 399.5,360.5 C 399.5,360.833 399.5,361.167 399.5,361.5C 395.262,373.977 389.428,385.643 382,396.5C 374.084,401.768 368.584,399.935 365.5,391C 373.327,377.512 379.66,363.345 384.5,348.5C 382.278,348.178 380.444,348.845 379,350.5C 373.062,360.767 366.728,370.767 360,380.5C 357.894,378.623 356.561,376.29 356,373.5C 355.333,368.167 355.333,362.833 356,357.5C 363.297,345.24 369.797,332.574 375.5,319.5C 374.38,317.404 372.88,317.07 371,318.5C 364.956,327.421 358.79,336.254 352.5,345C 346.154,343.989 342.321,340.155 341,333.5C 340.333,330.833 340.333,328.167 341,325.5C 347.033,315.63 352.866,305.63 358.5,295.5C 357.725,293.525 356.391,292.691 354.5,293C 347.809,299.59 341.475,306.423 335.5,313.5C 332.939,311.393 331.106,308.726 330,305.5C 329.231,299.057 329.731,292.723 331.5,286.5C 340.573,272.426 352.24,261.092 366.5,252.5C 368.912,250.547 371.579,249.38 374.5,249C 360.638,261.108 358.804,274.942 369,290.5C 373.38,295.211 377.38,300.211 381,305.5C 390.702,322.64 396.869,340.974 399.5,360.5 Z"/></g>
<g><path style="opacity:1" fill="#7d846a" d="M 366.5,252.5 C 352.24,261.092 340.573,272.426 331.5,286.5C 327.76,290.967 324.76,295.967 322.5,301.5C 313.521,302.266 304.521,302.599 295.5,302.5C 296.212,295.857 296.546,289.191 296.5,282.5C 304.093,281.247 311.426,279.08 318.5,276C 329.569,268.604 340.902,261.604 352.5,255C 356.922,252.896 361.588,252.063 366.5,252.5 Z"/></g>
<g><path style="opacity:1" fill="#7d846a" d="M 409.5,286.5 C 411.649,290.959 413.982,295.293 416.5,299.5C 417.95,313.892 422.45,327.226 430,339.5C 436.716,348.448 445.549,354.281 456.5,357C 459.192,359.632 458.859,361.966 455.5,364C 442.726,371.355 430.059,371.189 417.5,363.5C 417.631,362.761 417.464,362.094 417,361.5C 411.127,368.067 405.293,368.067 399.5,361.5C 399.5,361.167 399.5,360.833 399.5,360.5C 407.822,336.672 411.155,312.006 409.5,286.5 Z"/></g>
<g><path style="opacity:1" fill="#444b70" d="M 331.5,286.5 C 329.731,292.723 329.231,299.057 330,305.5C 331.106,308.726 332.939,311.393 335.5,313.5C 341.475,306.423 347.809,299.59 354.5,293C 356.391,292.691 357.725,293.525 358.5,295.5C 352.866,305.63 347.033,315.63 341,325.5C 340.333,328.167 340.333,330.833 341,333.5C 342.321,340.155 346.154,343.989 352.5,345C 358.79,336.254 364.956,327.421 371,318.5C 372.88,317.07 374.38,317.404 375.5,319.5C 369.797,332.574 363.297,345.24 356,357.5C 355.333,362.833 355.333,368.167 356,373.5C 356.561,376.29 357.894,378.623 360,380.5C 366.728,370.767 373.062,360.767 379,350.5C 380.444,348.845 382.278,348.178 384.5,348.5C 379.66,363.345 373.327,377.512 365.5,391C 368.584,399.935 374.084,401.768 382,396.5C 389.428,385.643 395.262,373.977 399.5,361.5C 405.293,368.067 411.127,368.067 417,361.5C 417.464,362.094 417.631,362.761 417.5,363.5C 412.107,384.951 403.941,405.284 393,424.5C 386.893,433.607 379.726,441.773 371.5,449C 363.377,451.451 358.71,448.618 357.5,440.5C 358.882,435.174 360.715,430.174 363,425.5C 357.064,429.729 351.397,429.396 346,424.5C 345.296,422.722 344.796,420.888 344.5,419C 346.075,411.108 348.742,403.608 352.5,396.5C 337.644,398.456 331.811,391.789 335,376.5C 337.013,372.167 338.68,367.834 340,363.5C 329.203,369.349 322.369,366.349 319.5,354.5C 320.039,350.673 321.039,347.006 322.5,343.5C 325.408,337.683 328.242,332.017 331,326.5C 324.938,333.418 319.604,333.084 315,325.5C 315.77,317.02 318.27,309.02 322.5,301.5C 324.76,295.967 327.76,290.967 331.5,286.5 Z"/></g>
<g><path style="opacity:1" fill="#df9c7d" d="M 322.5,301.5 C 318.27,309.02 315.77,317.02 315,325.5C 319.604,333.084 324.938,333.418 331,326.5C 328.242,332.017 325.408,337.683 322.5,343.5C 321.833,343.5 321.167,343.5 320.5,343.5C 305.113,347.675 289.446,349.342 273.5,348.5C 283.535,334.431 290.868,319.097 295.5,302.5C 304.521,302.599 313.521,302.266 322.5,301.5 Z"/></g>
<g><path style="opacity:1" fill="#7d8369" d="M 320.5,343.5 C 308.984,365.35 292.651,382.683 271.5,395.5C 263.473,398.805 255.14,399.972 246.5,399C 243.333,397.311 240.333,395.478 237.5,393.5C 235.819,390.797 234.153,388.131 232.5,385.5C 241.791,379.173 250.791,372.339 259.5,365C 264.377,359.627 269.044,354.127 273.5,348.5C 289.446,349.342 305.113,347.675 320.5,343.5 Z"/></g>
<g><path style="opacity:1" fill="#f9a857" d="M 135.5,348.5 C 140.257,360.592 148.257,369.925 159.5,376.5C 143.015,387.773 133.349,403.44 130.5,423.5C 127.8,432.491 129.8,440.325 136.5,447C 137.793,447.49 139.127,447.657 140.5,447.5C 148.011,448.396 155.678,448.563 163.5,448C 173.251,451.63 177.918,458.796 177.5,469.5C 177.14,471.608 176.473,473.608 175.5,475.5C 164.626,465.932 151.959,462.099 137.5,464C 130.239,465.44 123.072,467.274 116,469.5C 105.246,467.745 98.7463,461.578 96.5,451C 112.53,429.568 118.697,405.401 115,378.5C 111.861,368.478 114.361,360.312 122.5,354C 126.635,351.597 130.968,349.763 135.5,348.5 Z"/></g>
<g><path style="opacity:1" fill="#da6331" d="M 237.5,393.5 C 240.333,395.478 243.333,397.311 246.5,399C 255.14,399.972 263.473,398.805 271.5,395.5C 272.382,409.982 276.216,423.649 283,436.5C 293.132,426.51 304.965,423.843 318.5,428.5C 319.833,429.167 319.833,429.833 318.5,430.5C 311.113,433.733 305.613,438.733 302,445.5C 324.087,440.98 336.92,449.98 340.5,472.5C 340.167,473.167 339.833,473.833 339.5,474.5C 331.968,465.376 322.301,461.876 310.5,464C 299.286,469.436 287.619,470.769 275.5,468C 274,466.5 272.5,465 271,463.5C 263.824,438.151 252.657,414.818 237.5,393.5 Z"/></g>
<g><path style="opacity:1" fill="#da6431" d="M 140.5,447.5 C 139.127,447.657 137.793,447.49 136.5,447C 129.8,440.325 127.8,432.491 130.5,423.5C 147.922,411.802 162.255,414.802 173.5,432.5C 164.704,431.612 156.371,433.445 148.5,438C 145.223,440.766 142.557,443.933 140.5,447.5 Z"/></g>
</svg>
