<?xml version="1.0" encoding="UTF-8"?>
<!DOCTYPE svg PUBLIC "-//W3C//DTD SVG 1.1//EN" "http://www.w3.org/Graphics/SVG/1.1/DTD/svg11.dtd">
<svg xmlns="http://www.w3.org/2000/svg" version="1.1" width="512px" height="512px" style="shape-rendering:geometricPrecision; text-rendering:geometricPrecision; image-rendering:optimizeQuality; fill-rule:evenodd; clip-rule:evenodd" xmlns:xlink="http://www.w3.org/1999/xlink">
<g><path style="opacity:1" fill="#5c323d" d="M 436.5,56.5 C 424.931,61.6723 414.264,60.1723 404.5,52C 394.658,51.83 384.991,51.33 375.5,50.5C 375.789,46.8936 375.456,43.3936 374.5,40C 374.959,34.0634 375.959,28.2301 377.5,22.5C 388.087,26.3736 397.253,32.3736 405,40.5C 407.404,32.2896 410.404,24.2896 414,16.5C 425.407,27.6475 432.907,40.9808 436.5,56.5 Z"/></g>
<g><path style="opacity:1" fill="#b55757" d="M 375.5,50.5 C 384.991,51.33 394.658,51.83 404.5,52C 414.264,60.1723 424.931,61.6723 436.5,56.5C 441.54,60.539 445.873,65.2056 449.5,70.5C 452.252,75.6737 455.252,80.6737 458.5,85.5C 460.564,90.0265 462.231,94.6932 463.5,99.5C 465.003,104.675 466.669,109.675 468.5,114.5C 472.983,141.747 473.65,169.08 470.5,196.5C 464.262,158.277 441.595,137.611 402.5,134.5C 399.432,134.547 396.432,135.047 393.5,136C 386.435,139.865 379.102,143.198 371.5,146C 359.124,149.696 348.291,147.196 339,138.5C 336.387,134.353 337.22,131.353 341.5,129.5C 345.57,129.568 349.237,128.568 352.5,126.5C 355.598,125.784 358.598,124.784 361.5,123.5C 365.209,123.321 367.876,121.654 369.5,118.5C 375.789,115.211 380.789,110.544 384.5,104.5C 389.913,104.229 395.246,104.729 400.5,106C 405.504,108.557 410.671,110.724 416,112.5C 417.28,112.387 418.113,111.72 418.5,110.5C 412.617,105.123 406.284,100.289 399.5,96C 395.5,95.3333 391.5,95.3333 387.5,96C 386.944,96.3826 386.611,96.8826 386.5,97.5C 383.14,97.6159 379.807,97.9492 376.5,98.5C 373.833,98.5 371.167,98.5 368.5,98.5C 364.833,98.5 361.167,98.5 357.5,98.5C 354.45,96.8993 351.116,95.8993 347.5,95.5C 345.139,95.3259 342.806,94.9926 340.5,94.5C 337.038,93.5184 333.371,93.185 329.5,93.5C 325.638,72.7588 333.971,59.2588 354.5,53C 361.421,51.4635 368.421,50.6302 375.5,50.5 Z"/></g>
<g><path style="opacity:1" fill="#60333e" d="M 391.5,67.5 C 399.592,66.7368 401.926,69.9034 398.5,77C 391.249,80.3794 387.749,78.2127 388,70.5C 389.145,69.3636 390.312,68.3636 391.5,67.5 Z"/></g>
<g><path style="opacity:1" fill="#5d323e" d="M 458.5,85.5 C 455.252,80.6737 452.252,75.6737 449.5,70.5C 454.863,69.4275 460.196,69.4275 465.5,70.5C 466.614,71.723 466.781,73.0563 466,74.5C 463.67,78.3216 461.17,81.9883 458.5,85.5 Z"/></g>
<g><path style="opacity:1" fill="#60343f" d="M 351.5,70.5 C 359.487,70.002 361.487,73.1686 357.5,80C 349.424,80.8047 347.424,77.638 351.5,70.5 Z"/></g>
<g><path style="opacity:1" fill="#d4e0f2" d="M 329.5,93.5 C 333.371,93.185 337.038,93.5184 340.5,94.5C 338.847,97.8068 337.18,101.14 335.5,104.5C 334.311,105.429 332.978,105.762 331.5,105.5C 331.048,101.454 330.381,97.4543 329.5,93.5 Z"/></g>
<g><path style="opacity:1" fill="#60333f" d="M 384.5,104.5 C 385.167,102.167 385.833,99.8333 386.5,97.5C 386.611,96.8826 386.944,96.3826 387.5,96C 391.5,95.3333 395.5,95.3333 399.5,96C 406.284,100.289 412.617,105.123 418.5,110.5C 418.113,111.72 417.28,112.387 416,112.5C 410.671,110.724 405.504,108.557 400.5,106C 395.246,104.729 389.913,104.229 384.5,104.5 Z"/></g>
<g><path style="opacity:1" fill="#9cacee" d="M 347.5,95.5 C 351.116,95.8993 354.45,96.8993 357.5,98.5C 355.867,102.429 353.867,106.096 351.5,109.5C 350.522,109.023 349.689,108.357 349,107.5C 348.767,103.415 348.267,99.4155 347.5,95.5 Z"/></g>
<g><path style="opacity:1" fill="#9caef3" d="M 368.5,98.5 C 371.167,98.5 373.833,98.5 376.5,98.5C 375.101,101.699 374.101,105.032 373.5,108.5C 372.178,108.67 371.011,108.337 370,107.5C 368.851,104.607 368.351,101.607 368.5,98.5 Z"/></g>
<g><path style="opacity:1" fill="#5d323e" d="M 463.5,99.5 C 481.431,99.5783 483.098,104.578 468.5,114.5C 466.669,109.675 465.003,104.675 463.5,99.5 Z"/></g>
<g><path style="opacity:1" fill="#9dadf0" d="M 369.5,118.5 C 367.876,121.654 365.209,123.321 361.5,123.5C 360.402,118.908 359.735,114.241 359.5,109.5C 360.978,109.238 362.311,109.571 363.5,110.5C 365.171,113.492 367.171,116.159 369.5,118.5 Z"/></g>
<g><path style="opacity:1" fill="#d4e0f2" d="M 352.5,126.5 C 349.237,128.568 345.57,129.568 341.5,129.5C 340.806,124.195 340.472,118.862 340.5,113.5C 342.39,113.297 343.89,113.963 345,115.5C 347.33,119.322 349.83,122.988 352.5,126.5 Z"/></g>
<g><path style="opacity:1" fill="#62343f" d="M 428.5,113.5 C 431.978,113.184 435.312,113.684 438.5,115C 441.545,118.526 440.711,120.36 436,120.5C 430.751,120.413 428.251,118.08 428.5,113.5 Z"/></g>
<g><path style="opacity:1" fill="#5d323e" d="M 75.5,229.5 C 55.5424,210.065 48.0424,186.398 53,158.5C 56.4408,147.627 60.9408,137.294 66.5,127.5C 83.6203,119.742 101.62,116.076 120.5,116.5C 120.762,117.978 120.429,119.311 119.5,120.5C 98.2478,130.919 82.0811,146.586 71,167.5C 69.2023,171.726 67.7023,176.06 66.5,180.5C 69.0323,182.947 71.3657,185.614 73.5,188.5C 73.3918,189.442 73.0585,190.275 72.5,191C 70.0448,192.312 67.5448,193.478 65,194.5C 64.5833,202.584 65.75,210.417 68.5,218C 71.7462,217.683 75.0795,217.517 78.5,217.5C 78.6737,221.811 77.6737,225.811 75.5,229.5 Z"/></g>
<g><path style="opacity:1" fill="#b45656" d="M 66.5,127.5 C 60.9408,137.294 56.4408,147.627 53,158.5C 48.0424,186.398 55.5424,210.065 75.5,229.5C 81.9259,236.718 89.9259,241.385 99.5,243.5C 101.026,245.13 103.026,245.963 105.5,246C 108.188,246.392 110.855,246.892 113.5,247.5C 114.416,247.457 115.083,247.124 115.5,246.5C 125.035,247.552 134.369,246.552 143.5,243.5C 146.647,243.263 149.647,242.43 152.5,241C 155.177,240.186 157.177,238.686 158.5,236.5C 163.353,233.907 168.353,231.574 173.5,229.5C 174.755,236.679 178.088,242.679 183.5,247.5C 184.881,247 185.547,246 185.5,244.5C 183.843,238.572 183.01,232.572 183,226.5C 186.132,225.531 188.966,224.198 191.5,222.5C 196.536,221.657 201.536,220.657 206.5,219.5C 211.847,218.927 217.18,218.26 222.5,217.5C 223.609,217.443 224.609,217.11 225.5,216.5C 224.829,224.798 225.995,232.798 229,240.5C 230,241.833 231,241.833 232,240.5C 232.564,232.388 233.73,224.388 235.5,216.5C 238.518,216.296 241.518,215.963 244.5,215.5C 249.5,216.833 254.5,216.833 259.5,215.5C 265.531,214.686 271.531,213.686 277.5,212.5C 281.571,211.644 285.571,210.477 289.5,209C 290.942,208.623 291.942,207.79 292.5,206.5C 297.484,204.674 302.151,202.341 306.5,199.5C 311.5,197.336 316.167,194.669 320.5,191.5C 324.93,188.952 329.597,186.952 334.5,185.5C 337.689,183.541 341.022,182.875 344.5,183.5C 345.882,193.684 348.049,203.684 351,213.5C 351.879,216.346 353.546,217.013 356,215.5C 356.013,202.746 356.846,190.08 358.5,177.5C 361.167,177.167 363.833,176.833 366.5,176.5C 371.927,176.782 377.26,176.449 382.5,175.5C 388.396,174.773 393.23,172.106 397,167.5C 400.69,161.792 403.523,155.792 405.5,149.5C 416.105,163.308 421.771,178.975 422.5,196.5C 422.527,211.942 418.861,226.442 411.5,240C 415.43,255.624 416.597,271.457 415,287.5C 415.576,291.566 417.743,294.233 421.5,295.5C 423.428,297.474 425.761,298.974 428.5,300C 448.471,304.966 459.471,317.632 461.5,338C 459.36,348.379 453.36,351.379 443.5,347C 430.846,330.833 415.179,318.667 396.5,310.5C 391.314,308.157 387.148,304.491 384,299.5C 382.87,290.861 382.037,282.194 381.5,273.5C 380.222,260.6 374.556,250.267 364.5,242.5C 362.5,242.5 361.5,243.5 361.5,245.5C 364.102,251.953 364.935,258.62 364,265.5C 362.878,267.624 361.378,269.457 359.5,271C 331.134,279.337 302.134,283.003 272.5,282C 274.531,287.654 275.865,293.487 276.5,299.5C 280.5,299.5 284.5,299.5 288.5,299.5C 284.647,300.166 280.647,300.833 276.5,301.5C 277.878,306.395 278.711,311.395 279,316.5C 279.5,327.495 279.667,338.495 279.5,349.5C 279.682,360.006 278.515,370.34 276,380.5C 274.171,384.828 271.838,388.828 269,392.5C 263.042,398.206 256.875,403.539 250.5,408.5C 242.432,412.867 234.099,416.7 225.5,420C 210.089,428.225 205.755,440.559 212.5,457C 213.083,459.499 214.416,461.499 216.5,463C 224.177,466.253 232.177,468.253 240.5,469C 250.431,473.473 253.265,480.639 249,490.5C 247.421,492.041 245.587,493.208 243.5,494C 230.5,494.667 217.5,494.667 204.5,494C 200.532,493.036 197.365,490.869 195,487.5C 190.817,479.647 185.484,472.647 179,466.5C 177.916,463.751 177.083,460.918 176.5,458C 179.484,444.33 181.317,430.497 182,416.5C 183.123,413.751 184.623,411.251 186.5,409C 193.363,405.073 200.03,400.906 206.5,396.5C 213.822,402.105 222.155,404.605 231.5,404C 232.517,402.951 232.684,401.784 232,400.5C 226.653,396.643 221.486,392.643 216.5,388.5C 232.21,375.027 233.543,360.36 220.5,344.5C 215.156,340.155 210.489,335.155 206.5,329.5C 213.884,329.128 221.217,328.295 228.5,327C 229.022,326.439 229.355,325.772 229.5,325C 218.173,320.503 207.173,315.337 196.5,309.5C 194.899,303.289 194.232,296.956 194.5,290.5C 195.094,273.415 203.094,261.249 218.5,254C 217.57,253.009 216.404,252.509 215,252.5C 209.12,253.689 203.62,255.856 198.5,259C 194.12,263.048 189.454,266.715 184.5,270C 176.349,271.194 168.182,272.36 160,273.5C 159.228,273.355 158.561,273.022 158,272.5C 156.786,267.886 155.786,263.22 155,258.5C 153.867,256.789 152.367,256.289 150.5,257C 149.475,259.071 148.642,261.238 148,263.5C 147.827,267.541 147.327,271.541 146.5,275.5C 133.446,278.072 121.112,282.405 109.5,288.5C 97.001,289.088 84.6677,288.088 72.5,285.5C 69.0185,276.518 67.6852,267.185 68.5,257.5C 67.1779,257.33 66.0113,257.663 65,258.5C 61.327,265.362 59.4937,272.696 59.5,280.5C 45.0273,271.857 34.194,259.857 27,244.5C 24.9932,239.98 23.4932,235.313 22.5,230.5C 26.4523,222.215 32.4523,215.881 40.5,211.5C 40.2907,210.914 39.9574,210.414 39.5,210C 32.08,208.44 25.4133,209.94 19.5,214.5C 16.8499,185.297 26.1832,160.464 47.5,140C 53.5194,135.326 59.8527,131.159 66.5,127.5 Z"/></g>
<g><path style="opacity:1" fill="#f9e0c7" d="M 402.5,134.5 C 441.595,137.611 464.262,158.277 470.5,196.5C 470.7,206.298 469.7,215.965 467.5,225.5C 452.597,233.066 440.431,230.066 431,216.5C 427.282,210.08 424.449,203.414 422.5,196.5C 421.771,178.975 416.105,163.308 405.5,149.5C 404.96,144.378 403.96,139.378 402.5,134.5 Z"/></g>
<g><path style="opacity:1" fill="#5f333f" d="M 382.5,175.5 C 377.26,176.449 371.927,176.782 366.5,176.5C 370.759,159.563 376.092,159.229 382.5,175.5 Z"/></g>
<g><path style="opacity:1" fill="#5e333e" d="M 358.5,177.5 C 356.846,190.08 356.013,202.746 356,215.5C 353.546,217.013 351.879,216.346 351,213.5C 348.049,203.684 345.882,193.684 344.5,183.5C 341.022,182.875 337.689,183.541 334.5,185.5C 334.15,180.485 334.817,175.652 336.5,171C 337.833,170.333 339.167,170.333 340.5,171C 344.011,173.847 347.511,176.68 351,179.5C 353.497,178.751 355.997,178.084 358.5,177.5 Z"/></g>
<g><path style="opacity:1" fill="#5d323e" d="M 320.5,191.5 C 316.167,194.669 311.5,197.336 306.5,199.5C 303.253,181.494 307.92,178.827 320.5,191.5 Z"/></g>
<g><path style="opacity:1" fill="#60333f" d="M 390.5,190.5 C 392.017,190.511 393.184,191.177 394,192.5C 395.572,198.882 397.738,205.049 400.5,211C 399.941,213.188 398.607,213.854 396.5,213C 388.331,207.16 386.331,199.66 390.5,190.5 Z"/></g>
<g><path style="opacity:1" fill="#5c313e" d="M 292.5,206.5 C 291.942,207.79 290.942,208.623 289.5,209C 285.571,210.477 281.571,211.644 277.5,212.5C 277.104,195.031 282.104,193.031 292.5,206.5 Z"/></g>
<g><path style="opacity:1" fill="#e09b7d" d="M 422.5,196.5 C 424.449,203.414 427.282,210.08 431,216.5C 440.431,230.066 452.597,233.066 467.5,225.5C 464.763,235.045 461.429,244.379 457.5,253.5C 451.198,262.143 444.865,270.81 438.5,279.5C 432.833,284.833 427.167,290.167 421.5,295.5C 417.743,294.233 415.576,291.566 415,287.5C 416.597,271.457 415.43,255.624 411.5,240C 418.861,226.442 422.527,211.942 422.5,196.5 Z"/></g>
<g><path style="opacity:1" fill="#5e323e" d="M 259.5,215.5 C 254.5,216.833 249.5,216.833 244.5,215.5C 244.646,210.214 246.646,205.88 250.5,202.5C 255.406,205.423 258.406,209.757 259.5,215.5 Z"/></g>
<g><path style="opacity:1" fill="#5b313d" d="M 222.5,217.5 C 217.18,218.26 211.847,218.927 206.5,219.5C 209.938,201.635 215.271,200.969 222.5,217.5 Z"/></g>
<g><path style="opacity:1" fill="#61343f" d="M 22.5,230.5 C 20.4964,225.475 19.4964,220.142 19.5,214.5C 25.4133,209.94 32.08,208.44 39.5,210C 39.9574,210.414 40.2907,210.914 40.5,211.5C 32.4523,215.881 26.4523,222.215 22.5,230.5 Z"/></g>
<g><path style="opacity:1" fill="#60333f" d="M 225.5,216.5 C 228.833,216.5 232.167,216.5 235.5,216.5C 233.73,224.388 232.564,232.388 232,240.5C 231,241.833 230,241.833 229,240.5C 225.995,232.798 224.829,224.798 225.5,216.5 Z"/></g>
<g><path style="opacity:1" fill="#5f333e" d="M 276.5,220.5 C 277.833,220.5 279.167,220.5 280.5,220.5C 279.905,235.171 282.238,249.338 287.5,263C 287.333,264.5 286.5,265.333 285,265.5C 278.244,261.006 274.244,254.672 273,246.5C 271.605,237.44 272.771,228.774 276.5,220.5 Z"/></g>
<g><path style="opacity:1" fill="#60333f" d="M 315.5,220.5 C 317.144,220.286 318.644,220.62 320,221.5C 322.171,237.827 328.171,252.494 338,265.5C 338.611,269.088 337.111,270.254 333.5,269C 322.413,262.664 315.913,253.164 314,240.5C 313.01,233.656 313.51,226.99 315.5,220.5 Z"/></g>
<g><path style="opacity:1" fill="#5f333f" d="M 191.5,222.5 C 188.966,224.198 186.132,225.531 183,226.5C 183.01,232.572 183.843,238.572 185.5,244.5C 185.547,246 184.881,247 183.5,247.5C 178.088,242.679 174.755,236.679 173.5,229.5C 176.709,228.974 177.376,227.308 175.5,224.5C 176.047,221.174 176.547,217.84 177,214.5C 177.519,213.484 178.353,212.818 179.5,212.5C 184.394,214.724 188.394,218.058 191.5,222.5 Z"/></g>
<g><path style="opacity:1" fill="#5d323e" d="M 158.5,236.5 C 157.177,238.686 155.177,240.186 152.5,241C 149.647,242.43 146.647,243.263 143.5,243.5C 143.334,238.821 143.501,234.155 144,229.5C 144.689,228.643 145.522,227.977 146.5,227.5C 151.084,229.755 155.084,232.755 158.5,236.5 Z"/></g>
<g><path style="opacity:1" fill="#60333f" d="M 58.5,231.5 C 62.6772,230.842 64.1772,232.508 63,236.5C 58.9229,240.742 55.4229,245.409 52.5,250.5C 51.635,251.583 50.635,251.749 49.5,251C 46.4625,241.583 49.4625,235.083 58.5,231.5 Z"/></g>
<g><path style="opacity:1" fill="#5c323e" d="M 115.5,246.5 C 115.083,247.124 114.416,247.457 113.5,247.5C 110.855,246.892 108.188,246.392 105.5,246C 103.026,245.963 101.026,245.13 99.5,243.5C 107.437,228.145 112.77,229.145 115.5,246.5 Z"/></g>
<g><path style="opacity:1" fill="#5e323e" d="M 381.5,273.5 C 364.176,285.002 345.176,292.502 324.5,296C 312.554,297.79 300.554,298.957 288.5,299.5C 284.5,299.5 280.5,299.5 276.5,299.5C 275.865,293.487 274.531,287.654 272.5,282C 302.134,283.003 331.134,279.337 359.5,271C 361.378,269.457 362.878,267.624 364,265.5C 364.935,258.62 364.102,251.953 361.5,245.5C 361.5,243.5 362.5,242.5 364.5,242.5C 374.556,250.267 380.222,260.6 381.5,273.5 Z"/></g>
<g><path style="opacity:1" fill="#5f333e" d="M 194.5,290.5 C 183.039,287.56 171.373,286.227 159.5,286.5C 142.843,287.452 126.176,288.118 109.5,288.5C 121.112,282.405 133.446,278.072 146.5,275.5C 147.327,271.541 147.827,267.541 148,263.5C 148.642,261.238 149.475,259.071 150.5,257C 152.367,256.289 153.867,256.789 155,258.5C 155.786,263.22 156.786,267.886 158,272.5C 158.561,273.022 159.228,273.355 160,273.5C 168.182,272.36 176.349,271.194 184.5,270C 189.454,266.715 194.12,263.048 198.5,259C 203.62,255.856 209.12,253.689 215,252.5C 216.404,252.509 217.57,253.009 218.5,254C 203.094,261.249 195.094,273.415 194.5,290.5 Z"/></g>
<g><path style="opacity:1" fill="#5d323e" d="M 457.5,253.5 C 465.346,255.737 472.68,259.237 479.5,264C 491.373,275.378 494.873,288.878 490,304.5C 485,308.5 480,308.5 475,304.5C 469.535,286.353 457.368,278.019 438.5,279.5C 444.865,270.81 451.198,262.143 457.5,253.5 Z"/></g>
<g><path style="opacity:1" fill="#61343f" d="M 72.5,285.5 C 69.5,284.833 66.5,284.167 63.5,283.5C 61.7697,282.974 60.4363,281.974 59.5,280.5C 59.4937,272.696 61.327,265.362 65,258.5C 66.0113,257.663 67.1779,257.33 68.5,257.5C 67.6852,267.185 69.0185,276.518 72.5,285.5 Z"/></g>
<g><path style="opacity:1" fill="#5f333e" d="M 105.5,257.5 C 106.5,257.5 107.5,257.5 108.5,257.5C 107.997,265.198 107.164,272.865 106,280.5C 105.586,280.957 105.086,281.291 104.5,281.5C 97.6231,273.269 97.9564,265.269 105.5,257.5 Z"/></g>
<g><path style="opacity:1" fill="#e09b7c" d="M 381.5,273.5 C 382.037,282.194 382.87,290.861 384,299.5C 387.148,304.491 391.314,308.157 396.5,310.5C 377.026,319.214 357.026,326.548 336.5,332.5C 323.755,336.693 311.088,341.193 298.5,346C 292.31,347.956 285.977,349.122 279.5,349.5C 279.667,338.495 279.5,327.495 279,316.5C 278.711,311.395 277.878,306.395 276.5,301.5C 280.647,300.833 284.647,300.166 288.5,299.5C 300.554,298.957 312.554,297.79 324.5,296C 345.176,292.502 364.176,285.002 381.5,273.5 Z"/></g>
<g><path style="opacity:1" fill="#e09b7c" d="M 63.5,283.5 C 66.5,284.167 69.5,284.833 72.5,285.5C 84.6677,288.088 97.001,289.088 109.5,288.5C 126.176,288.118 142.843,287.452 159.5,286.5C 171.373,286.227 183.039,287.56 194.5,290.5C 194.232,296.956 194.899,303.289 196.5,309.5C 198.796,316.759 202.129,323.426 206.5,329.5C 210.489,335.155 215.156,340.155 220.5,344.5C 199.83,337.109 179.164,329.609 158.5,322C 140.234,318.347 122.234,313.68 104.5,308C 89.3741,301.991 75.7074,293.824 63.5,283.5 Z"/></g>
<g><path style="opacity:1" fill="#5f333f" d="M 196.5,309.5 C 207.173,315.337 218.173,320.503 229.5,325C 229.355,325.772 229.022,326.439 228.5,327C 221.217,328.295 213.884,329.128 206.5,329.5C 202.129,323.426 198.796,316.759 196.5,309.5 Z"/></g>
<g><path style="opacity:1" fill="#62343f" d="M 249.5,318.5 C 252.909,318.249 256.242,318.583 259.5,319.5C 262.578,323.421 261.578,325.921 256.5,327C 253.167,327.667 249.833,327.667 246.5,327C 243.433,322.778 244.433,319.944 249.5,318.5 Z"/></g>
<g><path style="opacity:1" fill="#5d323e" d="M 336.5,332.5 C 338.009,349.782 334.843,366.116 327,381.5C 320.74,390.385 312.24,395.885 301.5,398C 282.227,405.716 275.727,419.549 282,439.5C 286.119,456.618 296.619,467.451 313.5,472C 323.482,477.57 324.816,484.57 317.5,493C 307.266,494.617 296.933,494.95 286.5,494C 283.098,492.6 280.264,490.433 278,487.5C 275.943,481.719 273.61,476.053 271,470.5C 265.405,460.974 259.071,451.974 252,443.5C 250.588,431.896 250.088,420.229 250.5,408.5C 256.875,403.539 263.042,398.206 269,392.5C 271.838,388.828 274.171,384.828 276,380.5C 278.515,370.34 279.682,360.006 279.5,349.5C 285.977,349.122 292.31,347.956 298.5,346C 311.088,341.193 323.755,336.693 336.5,332.5 Z"/></g>
<g><path style="opacity:1" fill="#5f333e" d="M 242.5,361.5 C 252.5,362.833 262.5,362.833 272.5,361.5C 272.677,363.981 271.677,365.814 269.5,367C 261.122,371.528 252.789,371.528 244.5,367C 241.918,365.662 241.251,363.829 242.5,361.5 Z"/></g>
<g><path style="opacity:1" fill="#61343f" d="M 216.5,388.5 C 221.486,392.643 226.653,396.643 232,400.5C 232.684,401.784 232.517,402.951 231.5,404C 222.155,404.605 213.822,402.105 206.5,396.5C 209.52,393.484 212.854,390.817 216.5,388.5 Z"/></g>
</svg>
