<?xml version="1.0" encoding="UTF-8"?>
<!DOCTYPE svg PUBLIC "-//W3C//DTD SVG 1.1//EN" "http://www.w3.org/Graphics/SVG/1.1/DTD/svg11.dtd">
<svg xmlns="http://www.w3.org/2000/svg" version="1.1" width="512px" height="512px" style="shape-rendering:geometricPrecision; text-rendering:geometricPrecision; image-rendering:optimizeQuality; fill-rule:evenodd; clip-rule:evenodd" xmlns:xlink="http://www.w3.org/1999/xlink">
<g><path style="opacity:1" fill="#7689b5" d="M 492.5,155.5 C 492.173,108.305 470.173,76.1379 426.5,59C 408.596,53.7787 390.93,54.4454 373.5,61C 358.675,67.8256 345.508,76.9923 334,88.5C 331.259,91.7289 328.759,95.0622 326.5,98.5C 298.612,121.996 267.612,140.663 233.5,154.5C 234.591,147.229 232.924,140.729 228.5,135C 227.552,134.517 226.552,134.351 225.5,134.5C 226.043,143.046 225.043,151.379 222.5,159.5C 217.014,171.152 208.347,179.652 196.5,185C 177.184,186.119 157.851,187.286 138.5,188.5C 126.017,186.842 121.183,179.842 124,167.5C 131.91,157.345 139.577,147.012 147,136.5C 160.002,120.166 177.002,111.833 198,111.5C 208.125,112.938 218.292,113.438 228.5,113C 232.984,112.129 237.317,110.796 241.5,109C 256.501,100.502 271.167,91.5018 285.5,82C 301.347,70.2424 317.013,58.2424 332.5,46C 368.349,27.2796 405.016,25.6129 442.5,41C 469.885,53.2504 486.718,74.0837 493,103.5C 496.454,121.017 496.287,138.35 492.5,155.5 Z"/></g>
<g><path style="opacity:1" fill="#cdd9f9" d="M 492.5,155.5 C 490.97,177.922 484.137,198.589 472,217.5C 464.586,228.066 457.419,238.733 450.5,249.5C 441.729,258.98 433.396,268.98 425.5,279.5C 424.651,265.237 422.318,251.07 418.5,237C 448.538,200.009 458.372,158.176 448,111.5C 442.797,98.3631 433.964,88.6964 421.5,82.5C 407.638,76.8095 393.305,75.3095 378.5,78C 359.923,81.7926 342.59,88.6259 326.5,98.5C 328.759,95.0622 331.259,91.7289 334,88.5C 345.508,76.9923 358.675,67.8256 373.5,61C 390.93,54.4454 408.596,53.7787 426.5,59C 470.173,76.1379 492.173,108.305 492.5,155.5 Z"/></g>
<g><path style="opacity:1" fill="#7589b4" d="M 421.5,82.5 C 433.964,88.6964 442.797,98.3631 448,111.5C 458.372,158.176 448.538,200.009 418.5,237C 422.318,251.07 424.651,265.237 425.5,279.5C 425.984,310.968 415.817,338.301 395,361.5C 393.906,363.078 393.072,364.745 392.5,366.5C 374.181,383.28 353.181,395.78 329.5,404C 323.912,405.928 320.578,404.095 319.5,398.5C 321.865,382.37 326.698,367.036 334,352.5C 339.344,345.143 344.178,337.476 348.5,329.5C 349.935,327.402 351.102,325.069 352,322.5C 354.571,308.951 359.404,296.284 366.5,284.5C 366.043,283.702 365.376,283.369 364.5,283.5C 373.632,273.864 383.132,264.197 393,254.5C 393.432,253.4 392.932,252.733 391.5,252.5C 382.709,257.063 374.042,261.897 365.5,267C 337.722,268.817 311.722,276.483 287.5,290C 270.448,302.41 252.448,313.077 233.5,322C 234.574,325.274 235.574,328.441 236.5,331.5C 238.006,342.442 238.672,353.442 238.5,364.5C 238.283,385.372 232.783,404.705 222,422.5C 214.96,429.871 208.294,437.538 202,445.5C 196.913,454.005 192.08,462.672 187.5,471.5C 184.709,473.04 182.209,472.706 180,470.5C 173.931,458.863 171.931,446.529 174,433.5C 176.393,426.807 176.893,420.14 175.5,413.5C 175.282,407.96 174.115,402.627 172,397.5C 171.05,387.73 171.55,378.063 173.5,368.5C 177.997,360.195 183.497,352.529 190,345.5C 190.707,343.919 191.54,342.419 192.5,341C 191.906,340.536 191.239,340.369 190.5,340.5C 191.398,339.842 192.398,339.176 193.5,338.5C 196.441,331.676 198.775,324.676 200.5,317.5C 200,317.167 199.5,316.833 199,316.5C 195.534,319.638 192.367,323.138 189.5,327C 161.197,325.408 134.197,330.408 108.5,342C 93.4122,349.588 81.7456,360.754 73.5,375.5C 73.6236,376.107 73.9569,376.44 74.5,376.5C 71.6644,379.513 69.3311,382.846 67.5,386.5C 54.3834,405.374 54.2168,424.374 67,443.5C 75.8741,453.69 87.0408,459.856 100.5,462C 107.446,463.373 114.446,464.373 121.5,465C 124.532,469.18 123.532,472.18 118.5,474C 90.1446,485.419 63.8113,482.086 39.5,464C 15.3189,439.113 9.3189,410.28 21.5,377.5C 25.463,380.82 29.7964,383.654 34.5,386C 38.1114,387.254 39.6114,386.088 39,382.5C 33.8352,377.476 29.6685,371.81 26.5,365.5C 33.3141,348.677 43.6474,334.344 57.5,322.5C 61.137,327.658 64.637,332.991 68,338.5C 69.5818,341.341 71.7485,342.341 74.5,341.5C 74.8333,340.833 75.1667,340.167 75.5,339.5C 72.392,330.741 70.392,321.741 69.5,312.5C 80.5154,303.986 92.5154,296.986 105.5,291.5C 107.448,300.021 111.114,307.687 116.5,314.5C 119.406,315.946 120.739,314.946 120.5,311.5C 119.009,303.211 118.009,294.878 117.5,286.5C 132.503,279.826 146.503,271.493 159.5,261.5C 162.725,271.118 167.392,279.952 173.5,288C 174.793,288.49 176.127,288.657 177.5,288.5C 176.019,275.953 174.019,263.619 171.5,251.5C 180.161,241.506 189.161,231.839 198.5,222.5C 203.077,238.654 210.077,253.654 219.5,267.5C 220.365,268.583 221.365,268.749 222.5,268C 223.591,265.936 223.758,263.769 223,261.5C 217.252,244.476 213.752,227.143 212.5,209.5C 222.942,199.774 234.609,191.774 247.5,185.5C 254.599,210.315 265.432,233.315 280,254.5C 281.444,256.155 283.278,256.822 285.5,256.5C 285.663,254.143 285.497,251.81 285,249.5C 276.289,225.567 271.123,200.901 269.5,175.5C 287.074,168.652 305.407,164.985 324.5,164.5C 325.204,179.018 327.204,193.352 330.5,207.5C 332.167,207.5 333.833,207.5 335.5,207.5C 336.904,192.667 339.238,178 342.5,163.5C 356.483,162.778 370.483,162.278 384.5,162C 386.813,161.338 389.146,160.838 391.5,160.5C 390.762,168.159 390.596,175.826 391,183.5C 392.049,184.517 393.216,184.684 394.5,184C 403.028,173.11 409.028,160.944 412.5,147.5C 418.066,143.435 423.232,138.769 428,133.5C 439.717,114.57 437.55,97.5697 421.5,82.5 Z"/></g>
<g><path style="opacity:1" fill="#455872" d="M 180.5,135.5 C 186.555,135.052 188.721,137.719 187,143.5C 182.798,148.091 178.464,148.424 174,144.5C 173.333,143.167 173.333,141.833 174,140.5C 175.965,138.45 178.132,136.783 180.5,135.5 Z"/></g>
<g><path style="opacity:1" fill="#465973" d="M 233.5,154.5 C 230.017,156.406 226.35,158.072 222.5,159.5C 225.043,151.379 226.043,143.046 225.5,134.5C 226.552,134.351 227.552,134.517 228.5,135C 232.924,140.729 234.591,147.229 233.5,154.5 Z"/></g>
<g><path style="opacity:1" fill="#445770" d="M 412.5,147.5 C 409.028,160.944 403.028,173.11 394.5,184C 393.216,184.684 392.049,184.517 391,183.5C 390.596,175.826 390.762,168.159 391.5,160.5C 399.295,157.355 406.295,153.022 412.5,147.5 Z"/></g>
<g><path style="opacity:1" fill="#445771" d="M 342.5,163.5 C 339.238,178 336.904,192.667 335.5,207.5C 333.833,207.5 332.167,207.5 330.5,207.5C 327.204,193.352 325.204,179.018 324.5,164.5C 330.441,163.587 336.441,163.254 342.5,163.5 Z"/></g>
<g><path style="opacity:1" fill="#455771" d="M 269.5,175.5 C 271.123,200.901 276.289,225.567 285,249.5C 285.497,251.81 285.663,254.143 285.5,256.5C 283.278,256.822 281.444,256.155 280,254.5C 265.432,233.315 254.599,210.315 247.5,185.5C 254.288,181.108 261.622,177.775 269.5,175.5 Z"/></g>
<g><path style="opacity:1" fill="#465973" d="M 386.5,199.5 C 390.894,199.054 392.56,201.054 391.5,205.5C 391.458,208.259 390.958,210.925 390,213.5C 388.397,217.085 386.231,217.418 383.5,214.5C 381.816,208.953 382.816,203.953 386.5,199.5 Z"/></g>
<g><path style="opacity:1" fill="#455771" d="M 212.5,209.5 C 213.752,227.143 217.252,244.476 223,261.5C 223.758,263.769 223.591,265.936 222.5,268C 221.365,268.749 220.365,268.583 219.5,267.5C 210.077,253.654 203.077,238.654 198.5,222.5C 202.539,217.46 207.206,213.127 212.5,209.5 Z"/></g>
<g><path style="opacity:1" fill="#475974" d="M 336.5,229.5 C 340.251,229.082 342.418,230.749 343,234.5C 343.667,237.5 343.667,240.5 343,243.5C 341.776,246.473 339.776,247.14 337,245.5C 334.146,240.103 333.979,234.77 336.5,229.5 Z"/></g>
<g><path style="opacity:1" fill="#445770" d="M 450.5,249.5 C 455.142,277.507 452.642,304.84 443,331.5C 431.218,353.063 422.218,375.73 416,399.5C 414.401,401.036 412.567,401.536 410.5,401C 404.277,397.777 399.777,392.943 397,386.5C 394.321,380.091 392.821,373.425 392.5,366.5C 393.072,364.745 393.906,363.078 395,361.5C 415.817,338.301 425.984,310.968 425.5,279.5C 433.396,268.98 441.729,258.98 450.5,249.5 Z"/></g>
<g><path style="opacity:1" fill="#455872" d="M 171.5,251.5 C 174.019,263.619 176.019,275.953 177.5,288.5C 176.127,288.657 174.793,288.49 173.5,288C 167.392,279.952 162.725,271.118 159.5,261.5C 163.183,257.82 167.183,254.486 171.5,251.5 Z"/></g>
<g><path style="opacity:1" fill="#455871" d="M 364.5,283.5 C 352.23,282.896 340.23,284.396 328.5,288C 318.927,291.786 309.593,296.12 300.5,301C 281.415,315.708 260.082,325.874 236.5,331.5C 235.574,328.441 234.574,325.274 233.5,322C 252.448,313.077 270.448,302.41 287.5,290C 311.722,276.483 337.722,268.817 365.5,267C 374.042,261.897 382.709,257.063 391.5,252.5C 392.932,252.733 393.432,253.4 393,254.5C 383.132,264.197 373.632,273.864 364.5,283.5 Z"/></g>
<g><path style="opacity:1" fill="#cdd9f9" d="M 364.5,283.5 C 365.376,283.369 366.043,283.702 366.5,284.5C 359.404,296.284 354.571,308.951 352,322.5C 351.102,325.069 349.935,327.402 348.5,329.5C 325.521,338.32 302.521,347.153 279.5,356C 266.101,360.18 252.434,363.013 238.5,364.5C 238.672,353.442 238.006,342.442 236.5,331.5C 260.082,325.874 281.415,315.708 300.5,301C 309.593,296.12 318.927,291.786 328.5,288C 340.23,284.396 352.23,282.896 364.5,283.5 Z"/></g>
<g><path style="opacity:1" fill="#455871" d="M 117.5,286.5 C 118.009,294.878 119.009,303.211 120.5,311.5C 120.739,314.946 119.406,315.946 116.5,314.5C 111.114,307.687 107.448,300.021 105.5,291.5C 109.333,289.444 113.333,287.778 117.5,286.5 Z"/></g>
<g><path style="opacity:1" fill="#455872" d="M 179.5,295.5 C 183.683,294.846 186.516,296.512 188,300.5C 189.687,303.624 189.854,306.791 188.5,310C 185.211,310.746 182.711,309.58 181,306.5C 178.725,302.986 178.225,299.319 179.5,295.5 Z"/></g>
<g><path style="opacity:1" fill="#455872" d="M 69.5,312.5 C 70.392,321.741 72.392,330.741 75.5,339.5C 75.1667,340.167 74.8333,340.833 74.5,341.5C 71.7485,342.341 69.5818,341.341 68,338.5C 64.637,332.991 61.137,327.658 57.5,322.5C 61.183,318.82 65.183,315.486 69.5,312.5 Z"/></g>
<g><path style="opacity:1" fill="#455872" d="M 190.5,340.5 C 172.867,342.087 155.201,343.253 137.5,344C 112.306,346.929 91.3055,357.762 74.5,376.5C 73.9569,376.44 73.6236,376.107 73.5,375.5C 81.7456,360.754 93.4122,349.588 108.5,342C 134.197,330.408 161.197,325.408 189.5,327C 192.367,323.138 195.534,319.638 199,316.5C 199.5,316.833 200,317.167 200.5,317.5C 198.775,324.676 196.441,331.676 193.5,338.5C 192.398,339.176 191.398,339.842 190.5,340.5 Z"/></g>
<g><path style="opacity:1" fill="#ccd8f8" d="M 190.5,340.5 C 191.239,340.369 191.906,340.536 192.5,341C 191.54,342.419 190.707,343.919 190,345.5C 183.497,352.529 177.997,360.195 173.5,368.5C 163.596,371.144 153.596,373.144 143.5,374.5C 133.485,374.63 123.485,374.296 113.5,373.5C 96.9598,373.8 81.6264,378.133 67.5,386.5C 69.3311,382.846 71.6644,379.513 74.5,376.5C 91.3055,357.762 112.306,346.929 137.5,344C 155.201,343.253 172.867,342.087 190.5,340.5 Z"/></g>
<g><path style="opacity:1" fill="#465972" d="M 26.5,365.5 C 29.6685,371.81 33.8352,377.476 39,382.5C 39.6114,386.088 38.1114,387.254 34.5,386C 29.7964,383.654 25.463,380.82 21.5,377.5C 22.4056,373.099 24.0723,369.099 26.5,365.5 Z"/></g>
<g><path style="opacity:1" fill="#445770" d="M 173.5,368.5 C 171.55,378.063 171.05,387.73 172,397.5C 174.115,402.627 175.282,407.96 175.5,413.5C 167.898,424.141 157.898,431.641 145.5,436C 142.901,436.769 140.401,436.602 138,435.5C 139.123,421.578 139.79,407.578 140,393.5C 140.592,387.042 141.759,380.709 143.5,374.5C 153.596,373.144 163.596,371.144 173.5,368.5 Z"/></g>
</svg>
