<?xml version="1.0" encoding="UTF-8"?>
<svg version="1.1" xmlns="http://www.w3.org/2000/svg" width="512" height="512">
<path d="M0 0 C1.30135391 0.04804338 1.30135391 0.04804338 2.6289978 0.09705734 C22.3031216 0.89254865 41.34478761 3.376452 60.0625 9.6875 C61.41828122 10.11433806 62.77509262 10.53792183 64.13305664 10.95776367 C67.81920199 12.12357772 71.47310616 13.35626116 75.125 14.625 C75.77240143 14.84827972 76.41980286 15.07155945 77.08682251 15.30160522 C88.78140918 19.34853547 100.28493103 23.84645521 111.75 28.5 C112.91210495 28.97129837 112.91210495 28.97129837 114.09768677 29.45211792 C127.16405919 34.76940873 140.04978449 40.07013571 151.9375 47.75 C167.0970812 57.30987358 182.68556968 66.02068382 198.58831787 74.27902222 C200.44005841 75.25134338 202.27727584 76.24751885 204.11376953 77.24829102 C210.03384967 80.42648127 215.62094398 82.9938082 222.21875 84.546875 C229.522519 86.49524134 235.46577926 88.39105246 240.0625 94.6875 C244.85465517 106.8039156 245.06388663 120.86062789 245.96018982 133.7134552 C246.47333254 140.23459539 247.34481245 146.52399629 248.72338867 152.90771484 C254.82091766 181.45618965 255.24544651 209.52129502 255.13210654 238.64890832 C255.1157207 244.06516736 255.16331689 249.47955528 255.22442919 254.89541912 C255.28909935 260.85485075 255.29730896 266.81348514 255.28384209 272.77328491 C255.28470707 275.26733847 255.30093568 277.76144181 255.3337574 280.25527954 C255.51302797 295.85293815 254.31261508 305.71058904 244.0625 317.6875 C242.96474041 319.3902393 241.8949526 321.11220327 240.8828125 322.8671875 C240.43454102 323.63740234 239.98626953 324.40761719 239.52441406 325.20117188 C237.53717917 328.71113094 235.57555299 332.23354413 233.64746094 335.77636719 C232.56327853 337.767709 231.46697013 339.7524837 230.36035156 341.73144531 C221.74673294 357.04172566 221.74673294 357.04172566 220.25 374.125 C221.39651848 387.29924148 214.11185341 396.61733735 207.20996094 407.29980469 C203.62045634 412.89884775 200.40787621 418.71806868 197.125 424.5 C195.87724716 426.65494855 194.6273414 428.80865234 193.375 430.9609375 C191.42155592 434.32239773 189.49680191 437.69404682 187.625 441.1015625 C186.95877113 442.27629006 186.29215592 443.45079868 185.625 444.625 C185.11066406 445.56214844 184.59632813 446.49929688 184.06640625 447.46484375 C181.21233862 450.63046652 178.02337805 451.47257996 174.0625 452.6875 C172.20578485 453.29990847 170.34908383 453.91235999 168.49256897 454.52537537 C165.66982607 455.44927479 162.83891488 456.34640127 160.00683594 457.24121094 C158.53536771 457.70812542 157.06531889 458.17953531 155.59667969 458.65527344 C153.45811422 459.34786083 151.31567517 460.02694092 149.171875 460.703125 C148.51765564 460.91761292 147.86343628 461.13210083 147.18939209 461.35308838 C141.3217755 463.17293223 141.3217755 463.17293223 138.0625 461.6875 C136.04753924 459.75418744 134.21266303 457.83922861 132.375 455.75 C131.84608154 455.1624292 131.31716309 454.5748584 130.7722168 453.96948242 C129.19511516 452.21510875 127.62874374 450.45156359 126.0625 448.6875 C124.5007213 446.95768183 122.93830304 445.22844069 121.375 443.5 C119.951875 441.911875 118.52875 440.32375 117.0625 438.6875 C114.0925 435.3875 111.1225 432.0875 108.0625 428.6875 C107.7325 440.8975 107.4025 453.1075 107.0625 465.6875 C89.48392909 465.95993851 71.90720104 466.18031932 54.32709503 466.30924606 C46.16162245 466.37073952 37.99756858 466.45433933 29.83300781 466.59277344 C22.70438476 466.71358356 15.57679021 466.79007613 8.44717169 466.81656194 C4.68250236 466.83201067 0.92077119 466.86744933 -2.84294128 466.95626068 C-21.75980568 467.38538873 -36.03194646 465.07818466 -52.54299068 455.04985905 C-55.98687342 453.09045769 -59.46726259 451.81338984 -63.2109375 450.5234375 C-79.17989125 444.99559746 -89.98788447 438.64275897 -101.16845703 425.65625 C-104.24148731 422.23630574 -107.74892362 419.51503629 -111.3828125 416.70703125 C-112.64738281 415.70736328 -112.64738281 415.70736328 -113.9375 414.6875 C-114.61844727 414.22899658 -115.29939453 413.77049316 -116.00097656 413.2980957 C-119.27589885 410.87663582 -121.58734856 409.12130749 -122.57861328 405.06225586 C-122.72387111 402.08649486 -122.63860273 399.22206628 -122.4375 396.25 C-122.40140625 395.23228516 -122.3653125 394.21457031 -122.328125 393.16601562 C-122.23434854 390.66921728 -122.10333025 388.18037512 -121.9375 385.6875 C-122.61329102 385.58727539 -123.28908203 385.48705078 -123.98535156 385.38378906 C-127.05558497 384.9186661 -130.1212851 384.42838745 -133.1875 383.9375 C-134.25097656 383.78023438 -135.31445312 383.62296875 -136.41015625 383.4609375 C-137.43496094 383.29335938 -138.45976562 383.12578125 -139.515625 382.953125 C-140.45825195 382.80649414 -141.40087891 382.65986328 -142.37207031 382.50878906 C-145.50107674 381.50707821 -146.85919986 380.20207237 -148.9375 377.6875 C-150.02557892 375.31403718 -150.97183704 373.00336324 -151.875 370.5625 C-159.84369982 350.28688465 -170.48684709 331.17727006 -181.9375 312.6875 C-182.79843262 311.2950708 -182.79843262 311.2950708 -183.67675781 309.87451172 C-185.44076711 307.03466129 -187.21684062 304.20286116 -189 301.375 C-189.5168335 300.55290039 -190.03366699 299.73080078 -190.56616211 298.88378906 C-191.09218018 298.05975586 -191.61819824 297.23572266 -192.16015625 296.38671875 C-192.71799805 295.48066895 -193.27583984 294.57461914 -193.85058594 293.64111328 C-195.50115627 291.30505808 -196.97079315 289.61665365 -198.98535156 287.65185547 C-211.75089189 274.22886548 -209.83333384 256.28944452 -209.61181641 238.95166016 C-209.55476908 234.36828271 -209.61594003 229.79513701 -209.70730686 225.21264744 C-210.04962251 205.25704566 -209.91739975 189.17921717 -195.72290039 173.68081665 C-193.31419419 170.991608 -191.23635906 168.10608762 -189.13502502 165.17445374 C-186.81539624 161.95139408 -184.3702126 158.82551585 -181.9375 155.6875 C-181.4724707 155.08357422 -181.00744141 154.47964844 -180.52832031 153.85742188 C-174.72627077 146.32978027 -168.72977785 138.9973778 -162.5546875 131.7734375 C-160.13058244 128.93144435 -157.78018601 126.03459935 -155.4375 123.125 C-151.31059794 118.05142507 -146.93647442 113.25008858 -142.4921875 108.45703125 C-140.43636278 106.22831607 -138.42133043 103.97982081 -136.4375 101.6875 C-132.17667325 96.77740442 -127.75821457 92.01186016 -123.35498047 87.22998047 C-122.0156119 85.77250017 -120.68146875 84.3102229 -119.34765625 82.84765625 C-111.51433251 74.26044873 -111.51433251 74.26044873 -107.66088867 70.32128906 C-101.43216151 63.90238361 -95.41877841 57.43696396 -89.96020508 50.34057617 C-64.36191596 17.11148125 -43.63105092 -1.7185024 0 0 Z " fill="#D38D74" transform="translate(232.9375,21.3125)"/>
<path d="M0 0 C0.33 0 0.66 0 1 0 C1.23464203 14.73466238 1.4104464 29.46907428 1.51812172 44.20523167 C1.56946941 51.04916267 1.63934046 57.89192633 1.75439453 64.73510742 C1.86553424 71.34867958 1.92297023 77.96136502 1.94877243 84.57591057 C1.96714129 87.08963959 2.00301143 89.60330818 2.05730057 92.11651802 C2.38419354 107.88759986 1.44463317 117.91259798 -9 130 C-10.098699 131.7021333 -11.16871275 133.4240317 -12.1796875 135.1796875 C-12.62795898 135.94990234 -13.07623047 136.72011719 -13.53808594 137.51367188 C-15.52532083 141.02363094 -17.48694701 144.54604413 -19.41503906 148.08886719 C-20.49922147 150.080209 -21.59552987 152.0649837 -22.70214844 154.04394531 C-31.31576706 169.35422566 -31.31576706 169.35422566 -32.8125 186.4375 C-31.66598152 199.61174148 -38.95064659 208.92983735 -45.85253906 219.61230469 C-49.44204366 225.21134775 -52.65462379 231.03056868 -55.9375 236.8125 C-57.18525284 238.96744855 -58.4351586 241.12115234 -59.6875 243.2734375 C-61.64094408 246.63489773 -63.56569809 250.00654682 -65.4375 253.4140625 C-66.10372887 254.58879006 -66.77034408 255.76329868 -67.4375 256.9375 C-67.95183594 257.87464844 -68.46617187 258.81179688 -68.99609375 259.77734375 C-71.85016138 262.94296652 -75.03912195 263.78507996 -79 265 C-80.85671515 265.61240847 -82.71341617 266.22485999 -84.56993103 266.83787537 C-87.39267393 267.76177479 -90.22358512 268.65890127 -93.05566406 269.55371094 C-94.52713229 270.02062542 -95.99718111 270.49203531 -97.46582031 270.96777344 C-99.60438578 271.66036083 -101.74682483 272.33944092 -103.890625 273.015625 C-104.54484436 273.23011292 -105.19906372 273.44460083 -105.87310791 273.66558838 C-111.7407245 275.48543223 -111.7407245 275.48543223 -115 274 C-117.01496076 272.06668744 -118.84983697 270.15172861 -120.6875 268.0625 C-121.21641846 267.4749292 -121.74533691 266.8873584 -122.2902832 266.28198242 C-123.86738484 264.52760875 -125.43375626 262.76406359 -127 261 C-128.5617787 259.27018183 -130.12419696 257.54094069 -131.6875 255.8125 C-133.110625 254.224375 -134.53375 252.63625 -136 251 C-138.97 247.7 -141.94 244.4 -145 241 C-145.33 253.21 -145.66 265.42 -146 278 C-163.57857091 278.27243851 -181.15529896 278.49281932 -198.73540497 278.62174606 C-206.90087755 278.68323952 -215.06493142 278.76683933 -223.22949219 278.90527344 C-230.35811524 279.02608356 -237.48570979 279.10257613 -244.61532831 279.12906194 C-248.37999764 279.14451067 -252.14172881 279.17994933 -255.90544128 279.26876068 C-274.82230568 279.69788873 -289.09444646 277.39068466 -305.60549068 267.36235905 C-309.04937342 265.40295769 -312.52976259 264.12588984 -316.2734375 262.8359375 C-332.24239125 257.30809746 -343.05038447 250.95525897 -354.23095703 237.96875 C-357.30398731 234.54880574 -360.81142362 231.82753629 -364.4453125 229.01953125 C-365.28835938 228.35308594 -366.13140625 227.68664062 -367 227 C-368.0214209 226.31224487 -368.0214209 226.31224487 -369.06347656 225.6105957 C-372.33839885 223.18913582 -374.64984856 221.43380749 -375.64111328 217.37475586 C-375.78688893 214.38838686 -375.70038406 211.54720283 -375.5 208.5625 C-375.335 205.076875 -375.17 201.59125 -375 198 C-382.59 196.68 -390.18 195.36 -398 194 C-398 164.63 -398 135.26 -398 105 C-394.34324236 106.21891921 -391.18861731 107.27949394 -387.78979492 108.90771484 C-387.01846725 109.2750473 -386.24713959 109.64237976 -385.45243835 110.02084351 C-384.63668839 110.41357452 -383.82093842 110.80630554 -382.98046875 111.2109375 C-382.1224617 111.62034576 -381.26445465 112.02975403 -380.38044739 112.4515686 C-377.64787735 113.75608796 -374.91758622 115.06529159 -372.1875 116.375 C-369.46775225 117.67676787 -366.74752201 118.9775129 -364.02668762 120.27700806 C-362.33854153 121.08359362 -360.65106659 121.89158602 -358.96440125 122.70126343 C-353.68308313 125.22858765 -348.36259594 127.65010121 -343 130 C-345.40813118 132.40813118 -346.44597342 132.41077828 -349.76171875 132.8515625 C-351.19354492 133.04492188 -351.19354492 133.04492188 -352.65429688 133.2421875 C-353.65525391 133.36851562 -354.65621094 133.49484375 -355.6875 133.625 C-357.15993164 133.82609375 -357.15993164 133.82609375 -358.66210938 134.03125 C-363.81962219 134.7092329 -368.79911453 135.16002725 -374 135 C-368.98253659 140.9040077 -363.70764566 146.55749366 -358.41333008 152.21142578 C-355.0808904 155.7708058 -351.75143507 159.33235961 -348.4543457 162.92456055 C-347.09227108 164.40513877 -345.71812889 165.87458635 -344.34375 167.34375 C-342 170 -342 170 -340.46875 172.34375 C-336.23260836 178.65089422 -330.72382126 179.4211081 -323.68969727 180.92089844 C-315.68858049 182.66827707 -308.15789089 185.30169507 -300.5 188.1875 C-298.7370459 188.84854736 -298.7370459 188.84854736 -296.93847656 189.52294922 C-288.4786427 192.73521606 -288.4786427 192.73521606 -286.10475159 194.04844666 C-283.78928422 195.09526412 -282.23716615 195.2643708 -279.70874023 195.29052734 C-278.85619156 195.30311584 -278.00364288 195.31570435 -277.1252594 195.32867432 C-276.19575974 195.33107117 -275.26626007 195.33346802 -274.30859375 195.3359375 C-272.82545937 195.34823395 -272.82545937 195.34823395 -271.31236267 195.36077881 C-268.02060608 195.3801676 -264.72930641 195.3797792 -261.4375 195.375 C-259.7393515 195.37617828 -259.7393515 195.37617828 -258.00689697 195.37738037 C-238.74101883 195.36156578 -219.58751382 194.4726209 -200.375 193.125 C-199.13249481 193.03804871 -197.88998962 192.95109741 -196.60983276 192.86151123 C-184.55997838 192.00288308 -172.52350502 191.08880253 -160.53231812 189.60305786 C-156.6619389 189.13132637 -152.89867509 188.91618188 -149 189 C-152.85296049 179.5369227 -157.01526511 170.23403229 -161.25 160.9375 C-162.20572893 158.83822357 -163.16088341 156.73869548 -164.11419678 154.63832092 C-164.70150187 153.34440258 -165.29017926 152.05110597 -165.88043213 150.75852966 C-167.04565545 148.19187889 -168.10763685 145.67708946 -169 143 C-165.48189807 144.34217971 -162.2010655 145.8883609 -158.89453125 147.6875 C-157.43225098 148.48099854 -157.43225098 148.48099854 -155.94042969 149.29052734 C-154.90821289 149.85465332 -153.87599609 150.4187793 -152.8125 151 C-151.74547852 151.58088379 -150.67845703 152.16176758 -149.57910156 152.76025391 C-143.87613713 155.86948758 -138.1783461 158.98835941 -132.49511719 162.13354492 C-131.00748631 162.95614203 -129.51726872 163.77407973 -128.02441406 164.5871582 C-124.84266287 166.33537714 -121.85985272 168.09960152 -118.89453125 170.20703125 C-110.68820054 175.94580321 -103.29670953 175.76355837 -93.69921875 174.29174805 C-91 174 -91 174 -87.67578125 174.20239258 C-83.43279269 174.21253633 -80.84482609 173.85074354 -77 172 C-71.81768099 166.21440548 -68.92612181 158.55585396 -65.75 151.5625 C-64.84345364 149.65846083 -63.9320284 147.75673656 -63.015625 145.85742188 C-61.2037752 142.09218924 -59.41790948 138.3161353 -57.64648438 134.53173828 C-54.74180972 128.38482087 -51.59238395 122.37885402 -48.36004639 116.39881897 C-45.65364942 111.36596455 -43.25275677 106.25153824 -41 101 C-46.7812794 94.00843407 -52.56286892 87.18703179 -59.125 80.90234375 C-61 79 -61 79 -62.4296875 76.75 C-63.87777505 74.7477286 -63.87777505 74.7477286 -66.3828125 74.72265625 C-79.34316779 76.32885413 -87.59954214 79.73679592 -96.0703125 89.9765625 C-98.49515869 92.51921498 -100.47628697 93.73580782 -103.9375 94.3359375 C-110.55922592 94.46134898 -117.11038007 93.0977871 -123 90 C-123.90625 87.921875 -123.90625 87.921875 -124 86 C-122.28471148 84.28471148 -119.84160116 84.50385268 -117.5 84.1875 C-106.0153193 82.28696182 -97.93378212 77.27118897 -90.4921875 68.15234375 C-86.5578101 63.35805752 -82.23329387 62.92377364 -76.21484375 62.234375 C-72.44304042 61.95939541 -68.77836789 61.85182871 -65 62 C-64.5986911 58.3727849 -64.77494789 55.45455308 -66 52 C-68.4830413 49.50633228 -70.92726556 47.4330729 -73.78222656 45.40087891 C-75.24693701 44.34430163 -76.63051354 43.17738655 -78 42 C-78 40.68 -78 39.36 -78 38 C-72.2306386 38.59585208 -67.38338464 40.76987597 -62.125 43.0625 C-60.80628906 43.62807617 -60.80628906 43.62807617 -59.4609375 44.20507812 C-57.30468436 45.13086072 -55.15123021 46.06261911 -53 47 C-52.66304138 49.72876308 -52.33031571 52.45793163 -52 55.1875 C-51.85691406 56.34088867 -51.85691406 56.34088867 -51.7109375 57.51757812 C-51.24807106 61.36928811 -50.87532532 65.11170851 -51 69 C-50.1646875 69.4021875 -50.1646875 69.4021875 -49.3125 69.8125 C-46.80287948 71.10122405 -44.41286505 72.53947638 -42 74 C-41.46596558 73.04468384 -41.46596558 73.04468384 -40.92114258 72.07006836 C-32.86916954 57.6697462 -24.78561671 43.28800969 -16.65722656 28.93066406 C-14.89087678 25.80702488 -13.12865538 22.68108206 -11.3671875 19.5546875 C-10.77236572 18.49975098 -10.17754395 17.44481445 -9.56469727 16.35791016 C-8.42107193 14.32943719 -7.27829208 12.30048725 -6.13647461 10.27099609 C-5.6235083 9.36172363 -5.11054199 8.45245117 -4.58203125 7.515625 C-4.13061768 6.71415039 -3.6792041 5.91267578 -3.21411133 5.08691406 C-2.20549166 3.35321591 -1.11258852 1.66888277 0 0 Z " fill="#D28C73" transform="translate(486,209)"/>
<path d="M0 0 C6.47369551 3.11392949 12.80806174 6.42463694 19.09106445 9.90356445 C29.58418798 15.71038252 40.21040141 21.20443834 50.9375 26.5625 C51.63508423 26.91165466 52.33266846 27.26080933 53.0513916 27.62054443 C61.21872567 31.88053287 61.21872567 31.88053287 69.80883789 35.09448242 C73 37 73 37 73.82237244 38.92811584 C74.38130368 41.57234461 74.70166661 44.16979812 74.96875 46.859375 C75.09544067 47.86033707 75.22213135 48.86129913 75.35266113 49.89259338 C75.76351273 53.17560374 76.13108887 56.46203792 76.5 59.75 C77.05784932 64.30271321 77.63840758 68.85245032 78.21875 73.40234375 C78.36175537 74.54692551 78.50476074 75.69150726 78.65209961 76.87077332 C80.24644135 89.41860075 82.54286524 101.81534556 84.95507812 114.22753906 C85.10037964 114.99259262 85.24568115 115.75764618 85.39538574 116.54588318 C85.78253625 118.5807885 86.18177963 120.61338294 86.58203125 122.64575195 C87.21584069 127.73214672 86.20500171 131.02763647 83.76953125 135.45703125 C83.30353516 136.30974609 82.83753906 137.16246094 82.35742188 138.04101562 C81.84759766 138.95560547 81.33777344 139.87019531 80.8125 140.8125 C80.28076172 141.77736328 79.74902344 142.74222656 79.20117188 143.73632812 C74.67585968 151.89870889 69.97224324 159.95356294 65.23608398 167.99487305 C60.61806979 175.86158045 56.20834045 183.82755762 51.90625 191.87109375 C49.46608693 196.41365721 46.9532163 200.77121609 44 205 C35 199 35 199 34.26953125 196.27734375 C33.38068782 189.78194945 32.77775261 183.55629799 33 177 C31.845 176.62875 30.69 176.2575 29.5 175.875 C22.25547551 173.4679108 15.13683139 170.70586614 8 168 C8.29204626 171.19060544 9.08173359 172.07694856 11.46875 174.32421875 C12.96921875 175.49404297 12.96921875 175.49404297 14.5 176.6875 C15.5003125 177.47511719 16.500625 178.26273438 17.53125 179.07421875 C18.3459375 179.70972656 19.160625 180.34523438 20 181 C21 182 21 182 21.09765625 184.28515625 C21.08025391 185.65994141 21.08025391 185.65994141 21.0625 187.0625 C21.05347656 187.98160156 21.04445313 188.90070313 21.03515625 189.84765625 C21.01775391 190.91306641 21.01775391 190.91306641 21 192 C20.1478894 192.03420044 20.1478894 192.03420044 19.27856445 192.0690918 C5.60975298 192.68104034 5.60975298 192.68104034 -5.67089844 199.609375 C-7.70868114 201.88786055 -9.69607119 204.20431534 -11.66259766 206.54443359 C-14.53160028 209.66692239 -18.13217498 211.41015781 -22 213 C-23.485 213.61875 -23.485 213.61875 -25 214.25 C-28.96992607 215.24248152 -32.92820068 215.65615917 -37 216 C-37 216.99 -37 217.98 -37 219 C-26.7809071 223.00162241 -26.7809071 223.00162241 -16 223 C-11.67999674 220.97224337 -9.15726017 218.07394548 -6.125 214.5 C0.32751441 207.07168001 7.37471404 205.0934555 17 204 C17.81726563 203.86464844 18.63453125 203.72929687 19.4765625 203.58984375 C23.38350722 204.22487346 25.23752333 206.93436035 27.6875 209.8125 C28.74083072 211.00525663 29.79421711 212.19796412 30.84765625 213.390625 C31.37246582 213.99455078 31.89727539 214.59847656 32.43798828 215.22070312 C33.91028774 216.89780823 35.41112727 218.54032858 36.93359375 220.171875 C44.90696397 228.73543663 44.90696397 228.73543663 46 232 C45.19238281 234.53930664 45.19238281 234.53930664 43.703125 237.41015625 C43.16171875 238.47242432 42.6203125 239.53469238 42.0625 240.62915039 C41.464375 241.76215576 40.86625 242.89516113 40.25 244.0625 C39.64671875 245.23482178 39.0434375 246.40714355 38.421875 247.61499023 C36.63415867 251.08700496 34.81859411 254.54405333 33 258 C32.11940322 259.68729733 31.23914767 261.37477283 30.359375 263.0625 C29.18866493 265.30253512 28.01260032 267.53894742 26.8203125 269.76757812 C24.36437446 274.35859778 22.00630161 278.98643382 19.703125 283.65625 C19.13078125 284.8002124 18.5584375 285.9441748 17.96875 287.12280273 C16.843449 289.37484333 15.73342449 291.63459793 14.640625 293.90258789 C13.8671875 295.43774048 13.8671875 295.43774048 13.078125 297.00390625 C12.62856445 297.91986572 12.17900391 298.8358252 11.71582031 299.77954102 C8.97748004 303.32325256 5.66552328 303.73749905 1.39453125 304.41064453 C0.11642578 304.52061768 0.11642578 304.52061768 -1.1875 304.6328125 C-2.60675781 304.75849609 -2.60675781 304.75849609 -4.0546875 304.88671875 C-5.02664063 304.96535156 -5.99859375 305.04398437 -7 305.125 C-8.45792969 305.25455078 -8.45792969 305.25455078 -9.9453125 305.38671875 C-12.6289595 305.61705902 -15.31318324 305.81114854 -18 306 C-19.06089844 306.10054688 -20.12179687 306.20109375 -21.21484375 306.3046875 C-25.20510198 305.86816556 -28.17965684 304.01740322 -31.5625 302 C-33.14892582 301.08582595 -34.73623206 300.17317875 -36.32421875 299.26171875 C-37.65332275 298.49287354 -37.65332275 298.49287354 -39.00927734 297.70849609 C-42.38966746 295.7773965 -45.79450168 293.89297837 -49.20703125 292.01953125 C-49.83704544 291.67356903 -50.46705963 291.32760681 -51.11616516 290.97116089 C-53.0355287 289.91782098 -54.95523122 288.86510111 -56.875 287.8125 C-65.65710702 282.99654785 -74.37458477 278.09233909 -83 273 C-82.56171875 273.84175781 -82.1234375 274.68351562 -81.671875 275.55078125 C-77.29534971 284.07441721 -73.23504611 292.73074399 -69.32189941 301.47616577 C-68.50538302 303.30047295 -67.68385941 305.1225363 -66.86230469 306.94458008 C-66.11062012 308.63683716 -66.11062012 308.63683716 -65.34375 310.36328125 C-64.89193359 311.37688721 -64.44011719 312.39049316 -63.97460938 313.43481445 C-63 316 -63 316 -63 319 C-98.76862283 323.88364745 -135.02645225 326.2746215 -171.12194824 326.70596313 C-173.29396214 326.73481163 -175.46585148 326.77662776 -177.6373291 326.83285522 C-191.98533359 327.17486997 -203.07061165 325.10893964 -216.06051636 318.91477966 C-221.71990044 316.24546637 -227.40505792 314.22835094 -233.578125 313.21484375 C-247.25577864 310.78022927 -253.90440189 305.69284924 -262.48535156 294.89746094 C-264.41227553 292.48352588 -266.47273519 290.2109804 -268.5625 287.9375 C-269.23410156 287.18210937 -269.90570313 286.42671875 -270.59765625 285.6484375 C-272.58162054 283.46123784 -274.59055153 281.30767315 -276.62109375 279.1640625 C-277.26038818 278.48738525 -277.89968262 277.81070801 -278.55834961 277.11352539 C-279.83242033 275.76768506 -281.11045757 274.42558638 -282.39282227 273.08764648 C-282.97475342 272.47219971 -283.55668457 271.85675293 -284.15625 271.22265625 C-284.68025391 270.67359619 -285.20425781 270.12453613 -285.74414062 269.55883789 C-287 268 -287 268 -288 265 C-244.47181112 257.98786015 -244.47181112 257.98786015 -232.59375 265.52734375 C-226.82865982 270.07215651 -223.79280288 275.46180396 -220.703125 282.046875 C-218.51126179 285.84744515 -215.90581 288.047095 -212 290 C-210.6197703 290.09537441 -209.23508193 290.1307347 -207.8515625 290.1328125 C-207.01592773 290.13474609 -206.18029297 290.13667969 -205.31933594 290.13867188 C-204.43020508 290.13416016 -203.54107422 290.12964844 -202.625 290.125 C-201.72555664 290.12306641 -200.82611328 290.12113281 -199.89941406 290.11914062 C-193.23020992 290.07603625 -186.63011964 289.75464776 -180 289 C-180 288.01 -180 287.02 -180 286 C-180.91495239 285.72119995 -180.91495239 285.72119995 -181.84838867 285.43676758 C-184.63335589 284.57812448 -187.41019758 283.69560538 -190.1875 282.8125 C-191.14720703 282.52052734 -192.10691406 282.22855469 -193.09570312 281.92773438 C-201.31930329 279.28138553 -205.21608038 275.65275182 -209.8125 268.3125 C-210.41707031 267.35988281 -211.02164063 266.40726562 -211.64453125 265.42578125 C-213 263 -213 263 -213 261 C-206.74814687 262.42179241 -200.51032903 263.85709721 -194.3125 265.5 C-176.90886598 269.78883329 -159.88780794 270.65401868 -142 271 C-141.94593994 271.89783203 -141.89187988 272.79566406 -141.83618164 273.72070312 C-141.75746826 274.89568359 -141.67875488 276.07066406 -141.59765625 277.28125 C-141.52297119 278.44720703 -141.44828613 279.61316406 -141.37133789 280.81445312 C-140.80248144 285.69442616 -139.15118606 288.28513942 -135.34375 291.3203125 C-128.86304213 295.75587895 -120.94608295 299.3865662 -113 299 C-114.16330969 295.51007094 -115.2750111 295.17217816 -118.23828125 293.28515625 C-122.86592026 289.90933977 -127.12602568 285.69451897 -128.0625 279.875 C-127.95989754 273.51364764 -127.95989754 273.51364764 -126 270 C-122.78515057 268.63951299 -119.43128716 268.18644156 -116 267.625 C-87.53251363 262.07841969 -62.21962927 245.23072696 -45.52319336 221.50683594 C-33.56839415 203.75599175 -28.16718881 185.22099848 -27.4140625 163.94140625 C-27.3725708 162.88473755 -27.3310791 161.82806885 -27.28833008 160.73937988 C-27.18768195 158.15972451 -27.09166768 155.57998743 -27 153 C-25.74212173 152.99120064 -25.74212173 152.99120064 -24.45883179 152.98222351 C-16.54322871 152.92424074 -8.62790612 152.85213207 -0.71257591 152.76428509 C3.35647208 152.71962022 7.42542086 152.68035574 11.49462891 152.65356445 C15.42407931 152.62749242 19.35314709 152.58706296 23.28236008 152.53681374 C24.77895715 152.52017127 26.27562037 152.50864068 27.77229691 152.50238609 C29.87415616 152.49271599 31.97504237 152.46462473 34.07666016 152.43237305 C35.27134918 152.42126999 36.46603821 152.41016693 37.69692993 152.39872742 C42.81737633 151.78061689 46.0278567 149.94953531 49.6875 146.375 C53.91229433 140.84188226 55.71872962 134.01301442 55.47265625 127.1015625 C49.78989958 89.81140714 24.10499925 54.7411515 -5 32 C-7.97749614 29.82946467 -11.00637796 27.74220699 -14.0859375 25.71875 C-15.03339844 24.86796875 -15.03339844 24.86796875 -16 24 C-16 19.71306989 -15.83726464 19.30764638 -13.26171875 16.25 C-12.68873047 15.5590625 -12.11574219 14.868125 -11.52539062 14.15625 C-10.61563477 13.08890625 -10.61563477 13.08890625 -9.6875 12 C-8.50342858 10.58373256 -7.31982015 9.16707787 -6.13671875 7.75 C-5.60780029 7.12609375 -5.07888184 6.5021875 -4.53393555 5.859375 C-2.95860814 3.94982645 -1.47044485 1.99106107 0 0 Z " fill="#FBE1CA" transform="translate(400,79)"/>
<path d="M0 0 C1.30135391 0.04804338 1.30135391 0.04804338 2.6289978 0.09705734 C22.3031216 0.89254865 41.34478761 3.376452 60.0625 9.6875 C61.41828122 10.11433806 62.77509262 10.53792183 64.13305664 10.95776367 C67.8191947 12.12357542 71.47306439 13.35640702 75.125 14.625 C75.77206909 14.84794739 76.41913818 15.07089478 77.08581543 15.30059814 C94.68643463 21.38457338 111.87705125 28.53067504 129.0625 35.6875 C130.30924302 36.20605895 131.55598774 36.72461381 132.80273438 37.24316406 C135.55665528 38.38969111 138.30997798 39.53761961 141.0625 40.6875 C140.4025 41.0175 139.7425 41.3475 139.0625 41.6875 C138.28086621 43.47746848 138.28086621 43.47746848 137.66796875 45.65234375 C136.10799371 50.60715433 134.27961766 55.41887169 132.375 60.25 C132.05466797 61.06791016 131.73433594 61.88582031 131.40429688 62.72851562 C130.62571746 64.71563622 129.84440155 66.70168427 129.0625 68.6875 C123.79671495 66.9876443 118.66123139 65.1595355 113.5625 63 C96.64397322 56.08767495 79.07184706 50.79197645 61.0625 47.6875 C59.87398438 47.46320313 58.68546875 47.23890625 57.4609375 47.0078125 C12.29927414 39.82523859 -36.09473548 50.14287813 -73.2109375 77.02734375 C-102.74734755 98.95954086 -126.23180577 130.94210797 -132.9375 167.6875 C-133.72116546 173.15358468 -134.08607358 178.43185955 -134.0703125 183.94921875 C-134.07174759 185.07974419 -134.07174759 185.07974419 -134.07321167 186.23310852 C-134.07388695 187.81206344 -134.0720786 189.39102124 -134.06787109 190.9699707 C-134.06249077 193.37913235 -134.06784986 195.78810951 -134.07421875 198.19726562 C-134.07355829 199.73958374 -134.0722778 201.28190174 -134.0703125 202.82421875 C-134.07334885 203.89623787 -134.07334885 203.89623787 -134.07644653 204.98991394 C-134.05914212 208.69286454 -133.75761734 212.08064131 -132.9375 215.6875 C-132.49655512 221.97096457 -132.49655512 221.97096457 -134.4375 225.125 C-134.9325 225.640625 -135.4275 226.15625 -135.9375 226.6875 C-141.18627935 224.75219588 -145.85343246 221.94274569 -150.68359375 219.1484375 C-154.29485523 217.5270548 -156.04425918 216.99636274 -159.9375 217.6875 C-162.65996585 219.18765758 -165.01971408 221.05510456 -167.4375 223 C-168.12585938 223.5352832 -168.81421875 224.07056641 -169.5234375 224.62207031 C-171.67207331 226.29749467 -173.80474868 227.99192371 -175.9375 229.6875 C-177.32178479 230.77097893 -178.70717092 231.85305248 -180.09375 232.93359375 C-183.3867107 235.50365947 -186.66572395 238.09052776 -189.9375 240.6875 C-194.3588228 239.05353288 -196.99581443 235.66364635 -200.0625 232.25 C-200.86880859 231.37118164 -200.86880859 231.37118164 -201.69140625 230.47460938 C-209.69548339 221.6821007 -209.30334326 212.04982367 -208.890625 200.59375 C-208.24235814 189.59584252 -202.71525539 182.16101704 -195.83154297 173.96142578 C-193.49271162 171.15350168 -191.36213157 168.22277046 -189.21948242 165.2644043 C-186.8552138 162.02340406 -184.39525567 158.85781952 -181.9375 155.6875 C-181.4724707 155.08357422 -181.00744141 154.47964844 -180.52832031 153.85742188 C-174.72627077 146.32978027 -168.72977785 138.9973778 -162.5546875 131.7734375 C-160.13058244 128.93144435 -157.78018601 126.03459935 -155.4375 123.125 C-151.31059794 118.05142507 -146.93647442 113.25008858 -142.4921875 108.45703125 C-140.43636278 106.22831607 -138.42133043 103.97982081 -136.4375 101.6875 C-132.17667325 96.77740442 -127.75821457 92.01186016 -123.35498047 87.22998047 C-122.0156119 85.77250017 -120.68146875 84.3102229 -119.34765625 82.84765625 C-111.51433251 74.26044873 -111.51433251 74.26044873 -107.66088867 70.32128906 C-101.43216151 63.90238361 -95.41877841 57.43696396 -89.96020508 50.34057617 C-64.36191596 17.11148125 -43.63105092 -1.7185024 0 0 Z " fill="#FBE1CA" transform="translate(232.9375,21.3125)"/>
<path d="M0 0 C21.67279814 1.58266335 46.74135958 7.82757305 65 20 C63.49980892 26.85453158 62.23083782 32.14279345 57 37 C53.29851208 38.83054832 50.35124343 39.23128149 46.24609375 39.203125 C45.14918213 39.21069824 44.05227051 39.21827148 42.92211914 39.22607422 C41.77219482 39.23396973 40.62227051 39.24186523 39.4375 39.25 C28.66929873 39.47691754 20.57352804 40.21759678 12.21484375 47.5703125 C10.78415749 48.94132622 10.78415749 48.94132622 11 51 C13.56628827 50.56006487 15.76311435 50.11593675 18.11157227 48.96655273 C22.13421123 47.62045962 25.81823838 47.81012117 30.02734375 47.91015625 C31.80663791 47.93057653 33.5859349 47.95075126 35.36523438 47.97070312 C38.15434023 48.01417928 40.94325258 48.06261106 43.73217773 48.11645508 C46.43472632 48.16488101 49.13701755 48.194652 51.83984375 48.22265625 C52.66814194 48.24441422 53.49644012 48.26617218 54.34983826 48.28858948 C60.18546494 48.33831099 64.24731885 47.26995627 68.87109375 43.45703125 C69.38800781 42.91433594 69.90492188 42.37164062 70.4375 41.8125 C71.015 41.20921875 71.5925 40.6059375 72.1875 39.984375 C75.18254136 36.70532109 78.114946 33.37612702 81 30 C87.25322296 34.03576801 93.186102 38.35437938 99 43 C96.18342487 51.68186071 87.7266012 57.86175729 80.3984375 62.84375 C79.93695313 63.2253125 79.47546875 63.606875 79 64 C79 64.66 79 65.32 79 66 C88.14888314 64.61630887 97.98606398 62.149085 105.5625 56.625 C108 55 108 55 109.80859375 55.02734375 C113.17314539 56.5207009 115.18979301 59.16812613 117.5 61.9375 C118.02045898 62.5557666 118.54091797 63.1740332 119.07714844 63.81103516 C130.28012101 77.41272228 143.72170026 95.05838952 146 113 C146.165 114.19625 146.33 115.3925 146.5 116.625 C145.80611379 121.30873193 143.43111478 123.85332997 140 127 C136.62254996 128.68872502 132.78575765 128.2450114 129.06640625 128.31640625 C127.70659889 128.3475779 127.70659889 128.3475779 126.31932068 128.37937927 C124.38667626 128.42272713 122.45397875 128.46375845 120.52124023 128.50268555 C117.63316104 128.5610715 114.74531643 128.62652262 111.85742188 128.69335938 C102.72375962 128.89745313 93.58897174 129.05084878 84.453125 129.10546875 C83.68275406 129.11429581 82.91238312 129.12312286 82.1186676 129.13221741 C73.1142002 129.15375634 67.32267521 127.05588417 60 122 C60.2165625 122.99515625 60.433125 123.9903125 60.65625 125.015625 C62.98431867 136.43740934 63.32475695 147.36888999 63 159 C46.19913898 163.13354517 29.48692315 158.41275214 14 152 C13.41487866 146.52586477 13.11171746 141.45427147 14 136 C16.29208642 133.5524426 18.32248261 132.57071078 21.375 131.2265625 C25.21000465 129.43461092 27.84025542 126.62591266 30 123 C30 122.01 30 121.02 30 120 C25.16962148 120.91951784 21.08887231 123.45763816 16.77734375 125.72265625 C14 127 14 127 11 127 C10.61328125 126.19175781 10.2265625 125.38351563 9.828125 124.55078125 C9.30734375 123.48214844 8.7865625 122.41351563 8.25 121.3125 C7.73953125 120.25675781 7.2290625 119.20101562 6.703125 118.11328125 C5.12699127 114.93279387 5.12699127 114.93279387 2.671875 112.48046875 C1.84429687 111.25263672 1.84429687 111.25263672 1 110 C1.6171875 107.05078125 1.6171875 107.05078125 3 104 C6.88803839 93.71230718 7.46717161 84.83578603 7 74 C21.56658114 79.37207248 35.65682663 88.20000283 45.1015625 100.8046875 C46.94446405 103.43734271 46.94446405 103.43734271 50.875 103.4375 C57.29660928 103.068442 63.65241576 101.99707629 70 101 C70.9796875 100.87882812 71.959375 100.75765625 72.96875 100.6328125 C82.49377951 99.35059699 92.38050913 96.30974543 101 92 C100.67 90.68 100.34 89.36 100 88 C93.13605518 88.44731326 86.4050308 89.38096579 79.625 90.5 C73.09131456 91.56487184 66.61260966 92.50683284 59.9921875 92.84375 C56.96182196 92.96457245 56.96182196 92.96457245 53.8203125 93.40625 C50.5943151 93.69586573 48.14577172 93.79203641 45 93 C41.60602616 90.09912282 39.17031073 86.89379278 37 83 C37 82.34 37 81.68 37 81 C39.62353518 79.99600476 42.24867795 78.99665555 44.875 78 C45.62136719 77.71382813 46.36773437 77.42765625 47.13671875 77.1328125 C52.7734375 75 52.7734375 75 55 75 C54.67 74.01 54.34 73.02 54 72 C51.56241807 71.97247398 49.12516534 71.95303869 46.6875 71.9375 C45.95418457 71.928396 45.22086914 71.91929199 44.46533203 71.90991211 C40.27011367 71.88829675 36.5013021 72.23352776 32.375 73.0625 C25.88720973 73.79310701 21.44979457 69.91592728 16.421875 66.359375 C9.5815839 61.52149314 1.99384971 58.739831 -6.1015625 56.7734375 C-7.04128906 56.39058594 -7.04128906 56.39058594 -8 56 C-9 53 -9 53 -8.14453125 50.828125 C-7.70496094 49.97734375 -7.26539063 49.1265625 -6.8125 48.25 C0.63605511 32.18775267 0.49369814 17.42564544 0 0 Z " fill="#FBE1CA" transform="translate(290,86)"/>
<path d="M0 0 C3.98921252 1.27678336 7.79581231 2.74442941 11.625 4.4375 C24.03706241 9.58767033 35.71472551 10.59699481 49 11 C46.03311139 32.11540937 31.71399119 47.80800739 16 61 C15.01 60.67 14.02 60.34 13 60 C12.296875 57.734375 12.296875 57.734375 11.75 54.75 C9.65230112 45.49804388 5.08540799 35.52603368 -2 29 C-4.71305777 28.49620971 -4.71305777 28.49620971 -7 29 C-8.5396759 32.91490761 -7.36370164 35.18610739 -5.75 38.9375 C-1.43471793 49.68363418 0.45689359 59.43325354 0 71 C-13.79537486 77.18140434 -27.01834011 81.80952832 -42 84 C-43.25296875 84.19207031 -44.5059375 84.38414062 -45.796875 84.58203125 C-51.30460298 85.23989496 -56.83564651 85.18415901 -62.375 85.1875 C-63.46683594 85.19974609 -64.55867188 85.21199219 -65.68359375 85.22460938 C-66.72386719 85.22654297 -67.76414063 85.22847656 -68.8359375 85.23046875 C-70.25205322 85.23663208 -70.25205322 85.23663208 -71.69677734 85.24291992 C-74 85 -74 85 -76 83 C-75.401875 81.88625 -74.80375 80.7725 -74.1875 79.625 C-70.83725828 72.22108502 -70.13590454 63.97714783 -69 56 C-70.32 56 -71.64 56 -73 56 C-73.495 57.85625 -73.495 57.85625 -74 59.75 C-76.68055622 67.81719775 -82.18616292 76.8430528 -89 82 C-91.91985689 81.8273031 -93.84422082 81.48470456 -96.5625 80.625 C-97.26052734 80.42745117 -97.95855469 80.22990234 -98.67773438 80.02636719 C-104.98027945 78.17589391 -111.03941489 75.75451282 -117 73 C-115.50078694 69.62290666 -113.51711429 67.1153358 -111.125 64.3125 C-104.10766342 55.67773738 -102.03081643 47.57145222 -101.4375 36.6875 C-101.39431641 35.94693359 -101.35113281 35.20636719 -101.30664062 34.44335938 C-101.20129568 32.62908536 -101.10021684 30.8145645 -101 29 C-100.14277344 29.40992188 -99.28554687 29.81984375 -98.40234375 30.2421875 C-85.65333109 36.25017768 -75.08248685 38.19274305 -61.125 38.125 C-60.16062012 38.12306641 -59.19624023 38.12113281 -58.20263672 38.11914062 C-51.7633419 38.07997614 -45.39004074 37.85608201 -39 37 C-36.94274783 41.38246576 -36.39304279 45.56094358 -35.875 50.3125 C-35.78863281 51.05306641 -35.70226562 51.79363281 -35.61328125 52.55664062 C-35.40265295 54.37038435 -35.20047014 56.18510543 -35 58 C-33.515 58.495 -33.515 58.495 -32 59 C-31.0197752 53.31160882 -30.88051199 47.82705667 -30.9375 42.0625 C-30.94201172 41.18787109 -30.94652344 40.31324219 -30.95117188 39.41210938 C-30.96285166 37.27470953 -30.98078311 35.13734537 -31 33 C-30.32195312 32.67128906 -29.64390625 32.34257812 -28.9453125 32.00390625 C-17.70624411 26.25983944 -9.77428981 19.27790978 -4 8 C-3.5875 7.20464844 -3.175 6.40929687 -2.75 5.58984375 C-1.80959843 3.73842816 -0.90084347 1.87098259 0 0 Z " fill="#FBE0C9" transform="translate(302,248)"/>
<path d="M0 0 C0.33 0 0.66 0 1 0 C1.23464203 14.73466238 1.4104464 29.46907428 1.51812172 44.20523167 C1.56946941 51.04916267 1.63934046 57.89192633 1.75439453 64.73510742 C1.86553424 71.34867958 1.92297023 77.96136502 1.94877243 84.57591057 C1.96714129 87.08963959 2.00301143 89.60330818 2.05730057 92.11651802 C2.38407922 107.88208452 1.44949403 117.91926111 -9 130 C-10.0866942 131.67881079 -11.14511653 133.37718558 -12.14453125 135.109375 C-12.8092041 136.25176636 -12.8092041 136.25176636 -13.48730469 137.41723633 C-13.92461914 138.18704834 -14.36193359 138.95686035 -14.8125 139.75 C-15.29750977 140.59908936 -15.78251953 141.44817871 -16.28222656 142.32299805 C-22.78067952 153.9103891 -28.37633164 165.9709898 -34 178 C-34.33 178 -34.66 178 -35 178 C-35.3911098 172.74823407 -35.78029499 167.49632968 -36.16775513 162.24429321 C-36.30566184 160.37657211 -36.44390521 158.50887582 -36.58248901 156.64120483 C-37.3000406 146.95914721 -38.00425311 137.27794659 -38.57421875 127.5859375 C-38.6168988 126.87182205 -38.65957886 126.1577066 -38.70355225 125.42195129 C-38.90108961 122.10582542 -39.0900801 118.7898404 -39.26513672 115.47241211 C-39.33361816 114.30202393 -39.40209961 113.13163574 -39.47265625 111.92578125 C-39.52687744 110.91942627 -39.58109863 109.91307129 -39.63696289 108.8762207 C-41.12487693 97.08797911 -50.6772525 89.0522345 -58.8359375 81.19140625 C-61 79 -61 79 -62.46875 76.7109375 C-63.88651962 74.74631882 -63.88651962 74.74631882 -66.3828125 74.72265625 C-79.34316779 76.32885413 -87.59954214 79.73679592 -96.0703125 89.9765625 C-98.49515869 92.51921498 -100.47628697 93.73580782 -103.9375 94.3359375 C-110.55922592 94.46134898 -117.11038007 93.0977871 -123 90 C-123.90625 87.921875 -123.90625 87.921875 -124 86 C-122.28471148 84.28471148 -119.84160116 84.50385268 -117.5 84.1875 C-106.0153193 82.28696182 -97.93378212 77.27118897 -90.4921875 68.15234375 C-86.5578101 63.35805752 -82.23329387 62.92377364 -76.21484375 62.234375 C-72.44304042 61.95939541 -68.77836789 61.85182871 -65 62 C-64.5986911 58.3727849 -64.77494789 55.45455308 -66 52 C-68.4830413 49.50633228 -70.92726556 47.4330729 -73.78222656 45.40087891 C-75.24693701 44.34430163 -76.63051354 43.17738655 -78 42 C-78 40.68 -78 39.36 -78 38 C-72.2306386 38.59585208 -67.38338464 40.76987597 -62.125 43.0625 C-60.80628906 43.62807617 -60.80628906 43.62807617 -59.4609375 44.20507812 C-57.30468436 45.13086072 -55.15123021 46.06261911 -53 47 C-52.66304138 49.72876308 -52.33031571 52.45793163 -52 55.1875 C-51.90460938 55.95642578 -51.80921875 56.72535156 -51.7109375 57.51757812 C-51.24807106 61.36928811 -50.87532532 65.11170851 -51 69 C-50.443125 69.268125 -49.88625 69.53625 -49.3125 69.8125 C-46.80287948 71.10122405 -44.41286505 72.53947638 -42 74 C-41.64397705 73.36312256 -41.2879541 72.72624512 -40.92114258 72.07006836 C-32.86916954 57.6697462 -24.78561671 43.28800969 -16.65722656 28.93066406 C-14.89087678 25.80702488 -13.12865538 22.68108206 -11.3671875 19.5546875 C-10.47495483 17.97228271 -10.47495483 17.97228271 -9.56469727 16.35791016 C-8.42107193 14.32943719 -7.27829208 12.30048725 -6.13647461 10.27099609 C-5.36702515 8.9070874 -5.36702515 8.9070874 -4.58203125 7.515625 C-4.13061768 6.71415039 -3.6792041 5.91267578 -3.21411133 5.08691406 C-2.20549166 3.35321591 -1.11258852 1.66888277 0 0 Z " fill="#9E594A" transform="translate(486,209)"/>
<path d="M0 0 C17.38065261 1.16138001 34.05748596 6.07905924 49.4375 14.1875 C50.07034912 14.52031982 50.70319824 14.85313965 51.35522461 15.19604492 C54.44899262 16.89883636 56.00247066 18.00370599 58 21 C57.49040585 23.67976233 56.90473451 26.09179757 56.125 28.6875 C55.073125 32.3071875 55.073125 32.3071875 54 36 C45.75 36 37.5 36 29 36 C28.67 37.32 28.34 38.64 28 40 C28.63164062 40.14695313 29.26328125 40.29390625 29.9140625 40.4453125 C32.97151863 41.21187931 35.97928288 42.09939176 39 43 C40.23492187 43.32097656 41.46984375 43.64195312 42.7421875 43.97265625 C46.72252408 45.25943866 49.68088866 46.43826977 53 49 C54.81549898 53.6441801 55.24196175 58.07319664 55.72070312 63.00195312 C57.05325267 72.53480753 63.34648989 83.86165053 70.4375 90.3125 C71.7059375 91.6428125 71.7059375 91.6428125 73 93 C72.76395696 97.38583188 70.65249696 100.95636864 68.5 104.6875 C68.14542725 105.30254395 67.79085449 105.91758789 67.42553711 106.55126953 C63.9606048 112.36629692 59.82343462 117.2501432 55 122 C54.19820312 122.80050781 53.39640625 123.60101563 52.5703125 124.42578125 C46.70527552 129.99275898 46.70527552 129.99275898 44.09765625 130.01953125 C41.02527477 128.52625087 38.704758 126.32718237 36.25 124 C35.7250293 123.51104248 35.20005859 123.02208496 34.65917969 122.51831055 C30.15077599 118.26428009 25.98582877 113.74782544 22 109 C24.45320733 106.48722251 26.95447654 104.20016983 29.6875 102 C35.28938936 97.16679094 40.67662591 90.64674817 44 84 C37.45402851 86.22563031 31.40980326 89.23091674 25.26953125 92.37890625 C17.96626506 96 17.96626506 96 13 96 C5.36476179 81.24106559 -0.30806838 67.44260934 -3 51 C-3.17273438 50.22245361 -3.34546875 49.44490723 -3.5234375 48.64379883 C-6.2980259 33.25137167 -4.94953136 14.84859407 0 0 Z " fill="#FBE1CA" transform="translate(121,178)"/>
<path d="M0 0 C8.11443592 6.72957219 12.0924211 17.96133694 14 28 C14.3306935 32.73937605 14.28731773 37.4397593 14.1875 42.1875 C14.16719727 44.0447168 14.16719727 44.0447168 14.14648438 45.93945312 C14.11149611 48.9601071 14.06240724 51.9798094 14 55 C12.97261719 55.42410156 11.94523437 55.84820312 10.88671875 56.28515625 C-9.02019725 64.64596459 -26.04901734 76.92409473 -37 96 C-38.01578125 95.41992188 -39.0315625 94.83984375 -40.078125 94.2421875 C-40.72072266 93.87577148 -41.36332031 93.50935547 -42.02539062 93.13183594 C-43.78832389 92.12133166 -45.54317934 91.0967647 -47.296875 90.0703125 C-62.23352482 81.65577448 -78.34620786 77.62502518 -95 74 C-93.59116247 69.16546278 -91.48045075 65.02774556 -88.875 60.75 C-88.28537476 59.77244751 -88.28537476 59.77244751 -87.68383789 58.77514648 C-84.22627415 53.15288332 -80.31496232 47.99689097 -76 43 C-71.65286348 44.31124623 -67.9656938 45.9993063 -64.0625 48.3125 C-63.02222656 48.92738281 -61.98195312 49.54226562 -60.91015625 50.17578125 C-58.49699526 51.68846069 -56.25203288 53.26355132 -54 55 C-51.28450846 57.30671915 -51.28450846 57.30671915 -48.8125 56.625 C-48.214375 56.41875 -47.61625 56.2125 -47 56 C-47.58081103 50.0985451 -50.91742427 47.92616036 -55.2109375 44.2265625 C-58.98073613 41.21705939 -62.89471846 38.52861544 -67 36 C-65.44958041 31.90042428 -62.50187342 29.61064035 -59.1875 26.9375 C-58.66607422 26.50373047 -58.14464844 26.06996094 -57.60742188 25.62304688 C-51.30310316 20.45208883 -51.30310316 20.45208883 -48 19 C-37.7097435 21.33288424 -29.45089416 33.56033054 -24 42 C-24 42.66 -24 43.32 -24 44 C-22.33388095 44.042721 -20.66617115 44.04063832 -19 44 C-17.78551648 42.98031871 -17.78551648 42.98031871 -17.65625 40.88671875 C-18.13965011 36.82725646 -20.20598234 34.07751066 -22.5 30.8125 C-22.94907715 30.15628662 -23.3981543 29.50007324 -23.86083984 28.82397461 C-27.65539745 23.3413821 -31.70365618 18.10040816 -36 13 C-33.2715211 10.8129506 -30.72665195 9.31640388 -27.48046875 8.02734375 C-26.62259766 7.68509766 -25.76472656 7.34285156 -24.88085938 6.99023438 C-23.54764648 6.46913086 -23.54764648 6.46913086 -22.1875 5.9375 C-21.31029297 5.58623047 -20.43308594 5.23496094 -19.52929688 4.87304688 C-4.55589152 -1.05135958 -4.55589152 -1.05135958 0 0 Z " fill="#FBE0C9" transform="translate(222,89)"/>
<path d="M0 0 C3.51810193 1.34217971 6.7989345 2.8883609 10.10546875 4.6875 C11.08032227 5.21649902 12.05517578 5.74549805 13.05957031 6.29052734 C14.09178711 6.85465332 15.12400391 7.4187793 16.1875 8 C17.25452148 8.58088379 18.32154297 9.16176758 19.42089844 9.76025391 C57.54579914 30.54579914 57.54579914 30.54579914 60 33 C60.04222192 34.73264121 60.00930588 36.46710507 59.94921875 38.19921875 C59.91119141 39.36283936 59.87316406 40.52645996 59.83398438 41.7253418 C59.78564453 43.032854 59.73730469 44.34036621 59.6875 45.6875 C59.6396293 47.07005647 59.59211504 48.45262532 59.54492188 49.83520508 C59.43498589 53.01527084 59.32094862 56.1951629 59.20458984 59.375 C59.05556805 63.45040224 58.91070175 67.5259317 58.76806641 71.6015625 C58.55847491 77.59008852 58.3454801 83.57848472 58.1300354 89.56680298 C58.04390422 91.9650337 57.95842601 94.36328797 57.87362671 96.76156616 C56.99361797 121.52076577 56.99361797 121.52076577 56 132 C53.04293214 129.66556773 50.35395797 127.45580568 47.9375 124.5625 C44.71336085 120.78807014 41.37831626 117.1356571 38 113.5 C34.06125503 109.25559964 30.17367085 104.98102099 26.40234375 100.5859375 C25.04976096 98.975039 25.04976096 98.975039 23.45703125 97.71704102 C19.04214976 92.51431623 21.0169748 82.07627123 21.24609375 75.52734375 C21.9876743 50.08818492 16.15395001 32.14538025 4 10 C0 2.39652174 0 2.39652174 0 0 Z " fill="#9E594A" transform="translate(317,352)"/>
<path d="M0 0 C2.37468673 1.4018312 4.49848738 2.92275012 6.671875 4.6171875 C10.05342825 6.9391874 12.06786203 7.83230897 16.171875 7.3671875 C17.5959282 7.09028827 19.01326449 6.77669921 20.421875 6.4296875 C22.08790512 6.09318707 23.75442811 5.75909571 25.421875 5.4296875 C25.89496094 6.62722656 26.36804688 7.82476562 26.85546875 9.05859375 C37.00508617 34.25315918 50.02877395 53.06993791 73.18359375 67.8984375 C74.29154297 68.65640625 74.29154297 68.65640625 75.421875 69.4296875 C75.421875 69.7596875 75.421875 70.0896875 75.421875 70.4296875 C22.83544362 72.86724331 22.83544362 72.86724331 5.17089844 57.46728516 C1.12841747 53.69196415 -2.51190819 49.68598965 -5.98754883 45.38818359 C-10.98777319 39.23134555 -16.38121816 33.41153775 -21.83398438 27.65625 C-24.2410219 25.06978492 -26.22533877 22.71390841 -27.578125 19.4296875 C-23.27956412 15.72044545 -18.94442511 12.05891123 -14.578125 8.4296875 C-14.01287109 7.95563477 -13.44761719 7.48158203 -12.86523438 6.99316406 C-11.28520202 5.68021903 -9.68635387 4.39534654 -8.078125 3.1171875 C-7.1396875 2.35792969 -6.20125 1.59867187 -5.234375 0.81640625 C-2.578125 -0.5703125 -2.578125 -0.5703125 0 0 Z " fill="#FBE0C9" transform="translate(80.578125,254.5703125)"/>
<path d="M0 0 C7.26079845 5.40843727 11.8457492 12.0917382 13.8125 20.9375 C14.09711766 23.90220986 14.14696379 26.83546526 14.125 29.8125 C14.11936035 30.61042969 14.1137207 31.40835938 14.10791016 32.23046875 C13.98977624 37.94768255 13.45635542 42.78999362 10.8125 47.9375 C10.4103125 48.76507813 10.008125 49.59265625 9.59375 50.4453125 C4.17477945 60.5306188 -4.47511776 66.28100686 -15.1875 69.9375 C-19.1934958 70.82978677 -23.10943117 71.40974992 -27.1875 71.9375 C-27.5175 65.9975 -27.8475 60.0575 -28.1875 53.9375 C-26.640625 53.36 -25.09375 52.7825 -23.5 52.1875 C-18.42641756 50.14516809 -14.89312531 47.99601331 -11.375 43.75 C-9.7429777 39.88468403 -9.39699166 36.07604367 -10.1875 31.9375 C-11.98029479 29.65947585 -12.75064969 29.02711032 -15.625 28.4375 C-19.28193002 29.15104732 -20.10881866 30.92005934 -22.1875 33.9375 C-25.96527778 38.82638889 -25.96527778 38.82638889 -28.1875 39.9375 C-33.71792052 40.44252343 -38.59780524 40.67557257 -43.6875 38.3125 C-48.32353469 33.90826705 -50.99429311 29.73899992 -51.4375 23.3125 C-51.22601729 14.39769049 -47.8332296 8.58356476 -41.734375 2.17578125 C-29.50761223 -8.56951793 -13.4066808 -8.59974683 0 0 Z " fill="#FBE0C9" transform="translate(277.1875,202.0625)"/>
<path d="M0 0 C6.44097165 -0.24204069 12.87168982 -0.2614721 19 2 C23.17200383 10.34400766 19.67714778 24.72952561 17 33 C12.77441124 33 11.17963553 32.25641302 7.4375 30.5 C-3.03331783 26.34003626 -16.21836768 26.08645206 -26.859375 30.01171875 C-31.50212243 32.15517696 -36.11666257 34.34370523 -39.9765625 37.73828125 C-42 39 -42 39 -44.21875 38.63671875 C-44.9715625 38.32347656 -45.724375 38.01023438 -46.5 37.6875 C-49.7818935 36.35563569 -51.30172094 36 -55 36 C-54.82479412 38.36527945 -54.33402514 39.68470033 -52.60205078 41.31958008 C-52.05532715 41.75681396 -51.50860352 42.19404785 -50.9453125 42.64453125 C-49.48738281 43.81048828 -49.48738281 43.81048828 -48 45 C-48.49371094 46.04800781 -48.98742187 47.09601563 -49.49609375 48.17578125 C-50.14331627 49.55464662 -50.79044689 50.93355512 -51.4375 52.3125 C-51.76298828 53.00279297 -52.08847656 53.69308594 -52.42382812 54.40429688 C-54.81899244 59.5156269 -56.13969825 63.57027676 -56.5625 69.1875 C-56.68818359 70.81751953 -56.68818359 70.81751953 -56.81640625 72.48046875 C-56.87699219 73.31191406 -56.93757813 74.14335937 -57 75 C-59.85836991 75.95278997 -61.6664456 76.12871126 -64.6328125 76.1328125 C-65.96505859 76.13474609 -65.96505859 76.13474609 -67.32421875 76.13671875 C-68.71060547 76.13091797 -68.71060547 76.13091797 -70.125 76.125 C-71.05699219 76.12886719 -71.98898438 76.13273437 -72.94921875 76.13671875 C-73.83480469 76.13542969 -74.72039062 76.13414062 -75.6328125 76.1328125 C-76.44637207 76.13168457 -77.25993164 76.13055664 -78.09814453 76.12939453 C-80 76 -80 76 -81 75 C-82.91500906 61.1554263 -76.93088119 45.39503549 -69.08203125 34.28515625 C-67.13125403 31.77593604 -65.11307787 29.37359432 -63 27 C-62.43410156 26.36320312 -61.86820313 25.72640625 -61.28515625 25.0703125 C-50.06850028 13.19385324 -32.9564664 4.30433637 -17 1 C-15.00077474 0.94433712 -12.99873325 0.92882849 -11 1 C-8.24614784 5.88182883 -7.02862785 10.55432314 -6 16 C-5.34 16 -4.68 16 -4 16 C-1.76108858 10.54873741 -0.52393706 5.86809507 0 0 Z " fill="#FBE0C9" transform="translate(268,155)"/>
<path d="M0 0 C3.65675764 1.21891921 6.81138269 2.27949394 10.21020508 3.90771484 C10.98153275 4.2750473 11.75286041 4.64237976 12.54756165 5.02084351 C13.7711866 5.60994003 13.7711866 5.60994003 15.01953125 6.2109375 C15.8775383 6.62034576 16.73554535 7.02975403 17.61955261 7.4515686 C20.35212265 8.75608796 23.08241378 10.06529159 25.8125 11.375 C28.53224775 12.67676787 31.25247799 13.9775129 33.97331238 15.27700806 C35.66145847 16.08359362 37.34893341 16.89158602 39.03559875 17.70126343 C44.31691687 20.22858765 49.63740406 22.65010121 55 25 C52.59882508 27.40117492 51.57748813 27.40908335 48.2734375 27.8515625 C47.32339844 27.98046875 46.37335938 28.109375 45.39453125 28.2421875 C44.39808594 28.36851562 43.40164062 28.49484375 42.375 28.625 C41.40175781 28.7590625 40.42851562 28.893125 39.42578125 29.03125 C33.81209764 29.77168202 28.74432135 30 23 30 C23 50.46 23 70.92 23 92 C16.08463868 95.45768066 7.5950577 90.44667766 0 89 C0 59.63 0 30.26 0 0 Z " fill="#9F5A4B" transform="translate(88,314)"/>
<path d="M0 0 C1.25619141 0.00451172 2.51238281 0.00902344 3.80664062 0.01367188 C6.89197663 0.02540319 9.97721316 0.041819 13.0625 0.0625 C20.25768499 18.87037889 19.40211497 36.04365509 13.0625 55.0625 C0.6875 55.5575 0.6875 55.5575 -11.9375 56.0625 C-11.6075 52.4325 -11.2775 48.8025 -10.9375 45.0625 C-9.98354826 28.8609589 -13.62440383 15.51805343 -20.9375 1.0625 C-13.98535719 -0.24941997 -7.05305097 -0.04808058 0 0 Z " fill="#FBE0C9" transform="translate(258.9375,83.9375)"/>
<path d="M0 0 C5.7693614 0.59585208 10.61661536 2.76987597 15.875 5.0625 C16.75414062 5.43955078 17.63328125 5.81660156 18.5390625 6.20507812 C20.69531564 7.13086072 22.84876979 8.06261911 25 9 C25.33695862 11.72876308 25.66968429 14.45793163 26 17.1875 C26.09539062 17.95642578 26.19078125 18.72535156 26.2890625 19.51757812 C26.75192894 23.36928811 27.12467468 27.11170851 27 31 C27.556875 31.226875 28.11375 31.45375 28.6875 31.6875 C31 33 31 33 36 38 C33.36 42.29 30.72 46.58 28 51 C23.98362938 47.72133011 20.79590131 44.75891125 17.75 40.5625 C15.63426472 38.07674824 14.68858226 37.10464776 11.4296875 36.609375 C0.29861408 37.41552516 -8.77261789 41.17585371 -16.125 49.625 C-17.08792969 50.78902344 -17.08792969 50.78902344 -18.0703125 51.9765625 C-20.49515869 54.51921498 -22.47628697 55.73580782 -25.9375 56.3359375 C-32.55922592 56.46134898 -39.11038007 55.0977871 -45 52 C-45.90625 49.921875 -45.90625 49.921875 -46 48 C-44.28471148 46.28471148 -41.84160116 46.50385268 -39.5 46.1875 C-28.0153193 44.28696182 -19.93378212 39.27118897 -12.4921875 30.15234375 C-8.5578101 25.35805752 -4.23329387 24.92377364 1.78515625 24.234375 C5.55695958 23.95939541 9.22163211 23.85182871 13 24 C13.4013089 20.3727849 13.22505211 17.45455308 12 14 C9.5169587 11.50633228 7.07273444 9.4330729 4.21777344 7.40087891 C2.75306299 6.34430163 1.36948646 5.17738655 0 4 C0 2.68 0 1.36 0 0 Z " fill="#D38D74" transform="translate(408,247)"/>
<path d="M0 0 C1.60546875 1.6796875 1.60546875 1.6796875 3.1875 3.875 C3.98220703 4.95394531 3.98220703 4.95394531 4.79296875 6.0546875 C6 8 6 8 6 10 C6.53625 10.268125 7.0725 10.53625 7.625 10.8125 C9.35032203 11.67516102 11.05656694 12.57630924 12.75 13.5 C16.49041844 15.22634697 19.98600245 16.10031089 24 17 C24.02725341 18.7290774 24.04650987 20.45828176 24.0625 22.1875 C24.07410156 23.15042969 24.08570313 24.11335938 24.09765625 25.10546875 C24.00486622 27.85576513 23.62111685 30.32479591 23 33 C9.1774135 33.93712451 -2.66488881 28.25410634 -13.25 19.75 C-17.52895101 15.86241646 -20.49567131 11.18889315 -23 6 C-23 5.34 -23 4.68 -23 4 C-21.72382813 3.79503906 -20.44765625 3.59007812 -19.1328125 3.37890625 C-17.46351379 3.10694185 -15.79424447 2.83479709 -14.125 2.5625 C-13.28324219 2.42779297 -12.44148437 2.29308594 -11.57421875 2.15429688 C-10.76855469 2.02216797 -9.96289062 1.89003906 -9.1328125 1.75390625 C-8.38918457 1.63345947 -7.64555664 1.5130127 -6.87939453 1.38891602 C-0.16760829 0 -0.16760829 0 0 0 Z " fill="#FADFC8" transform="translate(215,241)"/>
<path d="M0 0 C-0.47092988 4.78038256 -2.75888462 7.75308625 -5.6875 11.375 C-6.36534546 12.23109863 -6.36534546 12.23109863 -7.05688477 13.10449219 C-8.36152274 14.7444485 -9.67897253 16.37323711 -11 18 C-11.62390625 18.78117187 -12.2478125 19.56234375 -12.890625 20.3671875 C-16.5825 24.86083333 -16.5825 24.86083333 -20 26 C-22.2838517 26.08378628 -24.570101 26.10729915 -26.85546875 26.09765625 C-27.84792351 26.09553383 -27.84792351 26.09553383 -28.86042786 26.09336853 C-30.96949828 26.08777996 -33.07846177 26.07522965 -35.1875 26.0625 C-36.61913909 26.05748352 -38.05077985 26.05292087 -39.48242188 26.04882812 C-42.98831588 26.0378143 -46.4941475 26.02055755 -50 26 C-48.67285702 23.66289287 -47.3403568 21.32950053 -46 19 C-45.61457031 18.3296875 -45.22914062 17.659375 -44.83203125 16.96875 C-43.8125 15.5 -43.8125 15.5 -41 13 C-38.72178773 12.82510694 -36.7816968 13.14197838 -34.53515625 13.55078125 C-28.88432395 14.55208435 -23.20003376 15.03266891 -17.9375 12.5625 C-14.30680706 9.39529977 -10.70752183 6.19893309 -7.171875 2.92578125 C-4.4488496 0.5113001 -3.66993044 0 0 0 Z " fill="#D48F76" transform="translate(102,151)"/>
<path d="M0 0 C2.6635969 0.35994553 4.58183452 0.71161002 6.8125 2.25 C8.39364795 4.58011277 8.22337696 6.24501755 8 9 C6.3125 9.8125 6.3125 9.8125 4 10 C1.1875 7.875 1.1875 7.875 -1 5 C-0.8125 2.1875 -0.8125 2.1875 0 0 Z " fill="#D48F77" transform="translate(181,150)"/>
</svg>
