<?xml version="1.0" encoding="UTF-8"?>
<svg version="1.1" xmlns="http://www.w3.org/2000/svg" width="512" height="512">
<path d="M0 0 C8.26765765 7.03104219 15.06840755 15.03696569 21.3203125 23.875 C24.15288184 27.8050593 27.14005421 31.60117202 30.15551758 35.3918457 C32.57275634 38.43138514 34.95404893 41.48745676 37.26953125 44.60546875 C41.85640515 50.72662244 45.84278619 55.73188425 52.55859375 59.6484375 C56.24908792 61.93485592 58.0932891 64.7798673 59.4375 68.8125 C59.53205661 70.78984566 59.56739394 72.77040083 59.5625 74.75 C59.56507813 75.79027344 59.56765625 76.83054687 59.5703125 77.90234375 C59.4375 80.8125 59.4375 80.8125 58.83984375 82.79296875 C58.23717053 85.81803723 59.11083652 88.2191494 59.875 91.1875 C61.86530818 99.9247703 63.34882882 109.44443793 59.4375 117.8125 C58.1175 117.8125 56.7975 117.8125 55.4375 117.8125 C55.045625 116.575 54.65375 115.3375 54.25 114.0625 C52.29868823 108.18042078 49.87503821 102.50651218 47.4375 96.8125 C44.25259993 96.5351499 44.25259993 96.5351499 41.4375 98.8125 C41.18252431 101.28499731 41.11273981 103.50448053 41.1796875 105.97265625 C41.18630402 106.67772812 41.19292053 107.38279999 41.19973755 108.10923767 C41.22318087 110.3649319 41.26690836 112.61965371 41.3125 114.875 C41.34750528 117.13379992 41.37828731 119.39254748 41.40383911 121.651474 C41.4208817 123.05827208 41.44407643 124.46501098 41.47384644 125.87159729 C41.49918913 127.51841444 41.47344949 129.16588025 41.4375 130.8125 C40.4375 131.8125 40.4375 131.8125 37.875 131.875 C37.070625 131.854375 36.26625 131.83375 35.4375 131.8125 C34.90640625 130.78769531 34.3753125 129.76289063 33.828125 128.70703125 C33.1148651 127.34620644 32.40130762 125.98553758 31.6875 124.625 C31.33945312 123.95146484 30.99140625 123.27792969 30.6328125 122.58398438 C28.55894501 118.64747663 26.36068666 115.20313317 23.4375 111.8125 C21.4575 112.4725 19.4775 113.1325 17.4375 113.8125 C17.581875 115.03066406 17.72625 116.24882812 17.875 117.50390625 C18.06270796 119.12758014 18.2501963 120.75127943 18.4375 122.375 C18.58058594 123.57479492 18.58058594 123.57479492 18.7265625 124.79882812 C20.19778963 137.67206555 20.19778963 137.67206555 17.4375 141.8125 C14.8125 142 14.8125 142 12.4375 141.8125 C11.91800781 140.85988281 11.39851563 139.90726563 10.86328125 138.92578125 C10.15929634 137.65860841 9.45484428 136.39169502 8.75 135.125 C8.41033203 134.49916016 8.07066406 133.87332031 7.72070312 133.22851562 C5.44526491 129.16675209 3.12952803 125.76030821 -0.5625 122.8125 C-2.83773089 122.85747842 -2.83773089 122.85747842 -4.5625 123.8125 C-4.35753906 124.57433594 -4.15257812 125.33617187 -3.94140625 126.12109375 C-0.61241292 138.87958016 0.92540184 150.91972 -2.5625 163.8125 C-4.2125 163.8125 -5.8625 163.8125 -7.5625 163.8125 C-7.84222656 163.10867187 -8.12195313 162.40484375 -8.41015625 161.6796875 C-10.80960773 155.7697845 -13.36702918 149.96910018 -16.1875 144.25 C-16.75726563 143.09371094 -17.32703125 141.93742188 -17.9140625 140.74609375 C-19.77132045 137.34436841 -19.77132045 137.34436841 -22.5625 134.8125 C-24.63310488 134.66462983 -24.63310488 134.66462983 -26.75 135.125 C-28.008125 135.351875 -29.26625 135.57875 -30.5625 135.8125 C-30.40136719 136.5859375 -30.24023438 137.359375 -30.07421875 138.15625 C-29.41126519 142.89307847 -29.37833118 147.53558882 -29.375 152.3125 C-29.36275391 153.23675781 -29.35050781 154.16101563 -29.33789062 155.11328125 C-29.32721448 160.08836261 -29.59620735 164.14935537 -31.5625 168.8125 C-33.2125 168.4825 -34.8625 168.1525 -36.5625 167.8125 C-36.96082031 166.57113281 -37.35914063 165.32976562 -37.76953125 164.05078125 C-38.30436462 162.40874897 -38.83953885 160.76682768 -39.375 159.125 C-39.76655273 157.90006836 -39.76655273 157.90006836 -40.16601562 156.65039062 C-41.57044622 152.36774423 -43.00971776 148.57651225 -45.5625 144.8125 C-47.5425 145.1425 -49.5225 145.4725 -51.5625 145.8125 C-51.51609375 146.93785156 -51.4696875 148.06320313 -51.421875 149.22265625 C-51.07634179 161.40703781 -51.66971868 173.28570217 -58.5625 183.8125 C-61 183.4375 -61 183.4375 -63.5625 182.8125 C-65.12772661 179.68204678 -65.1387959 176.25497372 -65.5 172.8125 C-66.20889019 166.38843677 -67.15895843 160.12843709 -68.5625 153.8125 C-71.2025 154.4725 -73.8425 155.1325 -76.5625 155.8125 C-76.80484375 156.88628906 -77.0471875 157.96007812 -77.296875 159.06640625 C-77.63483609 160.5027409 -77.97341065 161.93893129 -78.3125 163.375 C-78.46976562 164.07947266 -78.62703125 164.78394531 -78.7890625 165.50976562 C-79.99376057 170.53706335 -81.81961736 174.42734518 -84.5625 178.8125 C-86.2125 178.4825 -87.8625 178.1525 -89.5625 177.8125 C-89.54509766 176.27529297 -89.54509766 176.27529297 -89.52734375 174.70703125 C-89.51795978 173.346356 -89.50886023 171.98567876 -89.5 170.625 C-89.49162109 169.95146484 -89.48324219 169.27792969 -89.47460938 168.58398438 C-89.45643462 164.85815869 -89.66950608 161.4336958 -90.5625 157.8125 C-93.2025 157.8125 -95.8425 157.8125 -98.5625 157.8125 C-98.6553125 159.42125 -98.6553125 159.42125 -98.75 161.0625 C-99.60174209 168.06432099 -102.67268617 174.97777926 -106.5625 180.8125 C-107.8825 180.4825 -109.2025 180.1525 -110.5625 179.8125 C-110.8925 173.5425 -111.2225 167.2725 -111.5625 160.8125 C-113.8725 160.8125 -116.1825 160.8125 -118.5625 160.8125 C-119.17738281 162.38451172 -119.17738281 162.38451172 -119.8046875 163.98828125 C-120.34877439 165.36726009 -120.89305538 166.74616236 -121.4375 168.125 C-121.70691406 168.81529297 -121.97632813 169.50558594 -122.25390625 170.21679688 C-123.48423667 173.32263099 -124.70238463 176.02232695 -126.5625 178.8125 C-127.8825 178.4825 -129.2025 178.1525 -130.5625 177.8125 C-130.8925 172.8625 -131.2225 167.9125 -131.5625 162.8125 C-163.29807456 168.28194071 -163.29807456 168.28194071 -191.9453125 182.0234375 C-205.85056028 191.52881583 -222.37348763 196.80443193 -238.5625 200.8125 C-237.91925781 200.98789307 -237.27601563 201.16328613 -236.61328125 201.34399414 C-201.18962177 211.09371212 -173.31548122 227.28203501 -150.5625 256.8125 C-147.16641666 254.03648805 -144.05787468 251.4827128 -141.4375 247.9375 C-139.5625 245.8125 -139.5625 245.8125 -136.8125 245.5 C-136.07 245.603125 -135.3275 245.70625 -134.5625 245.8125 C-134.80372377 253.04921318 -136.8161876 257.82648851 -140.3828125 264.11328125 C-141.75914678 266.66044709 -141.75914678 266.66044709 -141.33984375 269.00390625 C-140.30430359 271.41322833 -138.91890983 273.57147506 -137.5625 275.8125 C-137.5625 276.4725 -137.5625 277.1325 -137.5625 277.8125 C-132.41507873 274.92492222 -129.60890029 271.49505441 -126.2734375 266.640625 C-125.70882813 266.03734375 -125.14421875 265.4340625 -124.5625 264.8125 C-123.2425 264.8125 -121.9225 264.8125 -120.5625 264.8125 C-119.62048347 272.91384218 -123.11699307 281.1442396 -127.5625 287.8125 C-127.31554814 291.64025377 -125.22198013 293.25448598 -122.5625 295.8125 C-115.66233672 288.02485591 -111.22691728 279.02498856 -106.5625 269.8125 C-104.1875 269.625 -104.1875 269.625 -101.5625 269.8125 C-97.74824367 275.5338845 -99.74986579 284.37571543 -100.96289062 290.99853516 C-102.55830718 298.45795619 -104.62582042 305.76446901 -107.5625 312.8125 C-102.93210931 316.15199284 -102.93210931 316.15199284 -97.5625 317.8125 C-97.15644531 316.96945312 -97.15644531 316.96945312 -96.7421875 316.109375 C-95.49607732 313.68317371 -94.11561788 311.38596639 -92.6875 309.0625 C-90.07082749 304.73985963 -87.75393332 300.36393844 -85.5625 295.8125 C-83.9125 295.8125 -82.2625 295.8125 -80.5625 295.8125 C-80.27801028 304.80026773 -80.01721973 313.07059696 -82.90625 321.7109375 C-83.71153647 323.92283116 -83.71153647 323.92283116 -83.5625 326.8125 C-79.51406803 330.03814954 -79.51406803 330.03814954 -74.5625 330.8125 C-69.02103942 320.05172417 -69.02103942 320.05172417 -64.5625 308.8125 C-63.2425 308.8125 -61.9225 308.8125 -60.5625 308.8125 C-57.83897863 311.53602137 -58.47649335 318.16383662 -58.4375 321.8125 C-58.47505417 325.90590419 -58.86162214 329.78245229 -59.5625 333.8125 C-57.5825 334.1425 -55.6025 334.4725 -53.5625 334.8125 C-49.27195981 327.56296657 -47.96938065 319.99798742 -46.5625 311.8125 C-44.9125 311.4825 -43.2625 311.1525 -41.5625 310.8125 C-38.89828751 316.91012019 -38.16492399 321.69779891 -38.375 328.3125 C-38.39530273 329.54613281 -38.39530273 329.54613281 -38.41601562 330.8046875 C-38.45094984 332.80758221 -38.50473943 334.81013356 -38.5625 336.8125 C-36.12583466 336.62280017 -36.12583466 336.62280017 -33.5625 335.8125 C-32.16370058 334.07491383 -32.16370058 334.07491383 -31.375 331.8125 C-30.92060547 330.7296875 -30.92060547 330.7296875 -30.45703125 329.625 C-28.06876413 322.11603787 -27.12988382 314.64496833 -26.5 306.8125 C-26.34647133 304.93716627 -26.18913499 303.06213897 -26.02734375 301.1875 C-25.961521 300.37023437 -25.89569824 299.55296875 -25.82788086 298.7109375 C-25.5625 296.8125 -25.5625 296.8125 -24.5625 295.8125 C-22.89632885 295.77186168 -21.22861905 295.769779 -19.5625 295.8125 C-12.27538821 307.96764139 -9.68317248 321.76768544 -10.5625 335.8125 C-8.9125 335.8125 -7.2625 335.8125 -5.5625 335.8125 C-3.52354717 327.14374459 -2.03514953 318.71134984 -1.5625 309.8125 C-0.2425 309.4825 1.0775 309.1525 2.4375 308.8125 C7.6434324 316.53164115 9.71644358 325.53762594 9.4375 334.8125 C11.0875 334.8125 12.7375 334.8125 14.4375 334.8125 C15.95766163 326.39731953 16.71483386 318.3636272 16.4375 309.8125 C18.0875 309.4825 19.7375 309.1525 21.4375 308.8125 C28.84550135 324.44847232 28.84550135 324.44847232 28.4375 332.8125 C29.5821875 332.7196875 29.5821875 332.7196875 30.75 332.625 C33.4375 332.8125 33.4375 332.8125 35.25 333.8125 C38.08852954 338.59318134 36.42340384 344.54956973 35.3125 349.6875 C32.19158421 361.15975528 25.76778211 369.57017137 15.4609375 375.53515625 C2.28730986 382.05786483 -11.54635213 384.91239277 -25.921875 380.8671875 C-30.17967612 379.38578665 -34.34812512 377.72886956 -38.51171875 376.00585938 C-63.79375211 365.56540653 -91.84429505 357.86048001 -119.33203125 357.56640625 C-121.44637611 357.53512982 -123.56071514 357.50345821 -125.67504883 357.47143555 C-126.77023834 357.45607758 -127.86542786 357.4407196 -128.99380493 357.42489624 C-161.906016 356.93921128 -192.40334221 354.53431499 -224.32492065 346.3425293 C-233.60842037 343.96046993 -242.87522288 341.89052043 -252.3125 340.1875 C-270.06055366 336.93209173 -286.34564003 331.7229777 -302.5625 323.8125 C-303.21025391 323.50086914 -303.85800781 323.18923828 -304.52539062 322.86816406 C-331.7804276 309.60554308 -363.27055539 285.68705732 -374.5625 256.8125 C-375.12576656 254.23914495 -375.53540471 251.67711761 -375.93359375 249.07421875 C-376.87062135 245.70441142 -378.80644437 243.64506514 -381.22265625 241.1875 C-383.34807723 239.00630996 -383.56644622 237.77303776 -383.875 234.6875 C-383.36790014 228.39946169 -380.80314223 224.02255987 -376.5625 219.4375 C-370.66727827 212.80911618 -368.89215757 205.44008678 -369.25 196.6953125 C-370.33540602 186.68244198 -375.34124578 179.19279088 -383 172.75 C-384.2684375 171.7909375 -384.2684375 171.7909375 -385.5625 170.8125 C-385.9028125 171.43898437 -386.243125 172.06546875 -386.59375 172.7109375 C-391.0492382 180.22364899 -391.0492382 180.22364899 -395.625 181.5 C-401.3115085 181.9513102 -401.3115085 181.9513102 -404.5625 179.8125 C-416.03100069 167.91095464 -424.5414296 152.96234335 -425 136.25 C-424.51271577 120.95556265 -419.428006 109.51686625 -408.94555664 98.49731445 C-395.23580083 84.07823481 -384.53511997 67.64475 -375.93579102 49.75610352 C-372.6128704 43.06042707 -369.1882199 37.59162304 -361.97265625 34.81640625 C-361.19792969 34.67074219 -360.42320312 34.52507812 -359.625 34.375 C-353.90928191 32.90276958 -350.69985802 29.87244383 -346.5625 25.8125 C-345.32267962 24.6969152 -344.07313196 23.5920124 -342.8125 22.5 C-342.28140625 22.02949219 -341.7503125 21.55898437 -341.203125 21.07421875 C-336.21413752 17.23744981 -331.65885729 17.330721 -325.5625 17.8125 C-324.26124202 18.10616912 -322.96770409 18.43754483 -321.6875 18.8125 C-313.08126991 21.22707357 -304.24899152 19.70389 -295.6015625 18.26953125 C-285.6930083 16.77942734 -279.04443254 18.62909678 -270.5625 23.8125 C-265.04305349 25.48300733 -259.35469373 24.99858463 -253.6875 24.41015625 C-243.19692015 23.36230547 -236.36596482 24.60143577 -226.5625 28.8125 C-203.10668958 36.2219905 -169.69082572 22.30579947 -147.14013672 14.8671875 C-138.69149724 12.10509639 -130.40223055 10.59962523 -121.58007812 9.52124023 C-97.84733745 6.58279666 -76.67740195 -0.30826603 -54.55664062 -9.04589844 C-34.74793693 -16.59853204 -16.56272045 -12.96717189 0 0 Z " fill="#D1DEFE" transform="translate(437.5625,71.1875)"/>
<path d="M0 0 C20.87793087 -0.94301579 38.68925547 11.00641488 53.69140625 24.48046875 C58.40759486 28.79942861 62.82922438 33.20572824 66.96875 38.08203125 C85.63342527 59.45410997 116.78957841 78.36380334 144.71875 84.26953125 C144.98945313 83.7075 145.26015625 83.14546875 145.5390625 82.56640625 C146.78517268 80.14020496 148.16563212 77.84299764 149.59375 75.51953125 C152.21042251 71.19689088 154.52731668 66.82096969 156.71875 62.26953125 C158.36875 62.26953125 160.01875 62.26953125 161.71875 62.26953125 C162.00323972 71.25729898 162.26403027 79.52762821 159.375 88.16796875 C158.56971353 90.37986241 158.56971353 90.37986241 158.71875 93.26953125 C160.69008986 94.64488464 162.69556922 95.97164169 164.71875 97.26953125 C166.40691933 98.91441419 168.07228315 100.58290667 169.71875 102.26953125 C182.02588358 114.54340231 199.07637166 117.94408901 215.75488281 119.67480469 C220.63005385 120.1808351 220.63005385 120.1808351 221.71875 121.26953125 C221.84375 123.76953125 221.84375 123.76953125 221.71875 126.26953125 C219.78718248 128.20109877 216.28070218 127.50915551 213.65625 127.51953125 C193.28295181 127.48749776 176.18850166 120.57512203 158.69482422 110.67211914 C149.00799568 105.1919533 139.50745581 100.99530266 128.78125 98.01953125 C117.57503403 94.76178289 107.21360359 90.32993284 96.71875 85.26953125 C82.06350359 78.22064582 64.66220481 70.50766074 48.0546875 74.98828125 C43.76157014 76.81765085 40.12004003 79.31114381 36.40234375 82.1015625 C25.92365158 89.37100324 11.95960077 88.07508085 0.01171875 86.01953125 C-16.08556018 82.35324708 -27.62981662 73.40223643 -39.28125 62.26953125 C-49.34529071 52.72081793 -59.33200059 46.26661339 -72.28125 41.26953125 C-80.63923848 38.02503572 -88.83719929 34.71358196 -95.28125 28.26953125 C-94.74553571 24.73381696 -94.74553571 24.73381696 -93.28125 23.26953125 C-88.99199335 23.65079851 -84.99538335 24.58341714 -80.8359375 25.68359375 C-74.34639115 27.32264235 -67.8342201 28.40596728 -61.21875 29.39453125 C-59.01918931 29.72822256 -56.81995248 30.06405779 -54.62109375 30.40234375 C-53.66581787 30.54559082 -52.71054199 30.68883789 -51.72631836 30.83642578 C-49.28125 31.26953125 -49.28125 31.26953125 -46.28125 32.26953125 C-46.24 31.46515625 -46.19875 30.66078125 -46.15625 29.83203125 C-44.00258475 21.06353703 -37.43251956 14.44766089 -30.28125 9.26953125 C-20.48208322 3.51507263 -11.23092931 0.92254062 0 0 Z " fill="#6F85D3" transform="translate(195.28125,304.73046875)"/>
<path d="M0 0 C5.46458775 0.79809271 8.25376914 3.08727 12 7 C15.99516866 12.41280915 15.46764848 18.54285363 15 25 C14.80019531 25.6496875 14.60039062 26.299375 14.39453125 26.96875 C13.80586604 29.99950155 14.67237096 32.40289876 15.4375 35.375 C17.42780818 44.1122703 18.91132882 53.63193793 15 62 C13.68 62 12.36 62 11 62 C10.608125 60.7625 10.21625 59.525 9.8125 58.25 C7.86118823 52.36792078 5.43753821 46.69401218 3 41 C-0.18490007 40.7226499 -0.18490007 40.7226499 -3 43 C-3.25497569 45.47249731 -3.32476019 47.69198053 -3.2578125 50.16015625 C-3.25119598 50.86522812 -3.24457947 51.57029999 -3.23776245 52.29673767 C-3.21431913 54.5524319 -3.17059164 56.80715371 -3.125 59.0625 C-3.08999472 61.32129992 -3.05921269 63.58004748 -3.03366089 65.838974 C-3.0166183 67.24577208 -2.99342357 68.65251098 -2.96365356 70.05909729 C-2.93831087 71.70591444 -2.96405051 73.35338025 -3 75 C-4 76 -4 76 -6.5625 76.0625 C-7.366875 76.041875 -8.17125 76.02125 -9 76 C-9.53109375 74.97519531 -10.0621875 73.95039063 -10.609375 72.89453125 C-11.3226349 71.53370644 -12.03619238 70.17303758 -12.75 68.8125 C-13.27207031 67.80219727 -13.27207031 67.80219727 -13.8046875 66.77148438 C-15.87855499 62.83497663 -18.07681334 59.39063317 -21 56 C-23.97 56.99 -23.97 56.99 -27 58 C-26.7834375 59.82724609 -26.7834375 59.82724609 -26.5625 61.69140625 C-26.37479204 63.31508014 -26.1873037 64.93877943 -26 66.5625 C-25.85691406 67.76229492 -25.85691406 67.76229492 -25.7109375 68.98632812 C-24.23971037 81.85956555 -24.23971037 81.85956555 -27 86 C-29.625 86.1875 -29.625 86.1875 -32 86 C-32.51949219 85.04738281 -33.03898438 84.09476562 -33.57421875 83.11328125 C-34.27820366 81.84610841 -34.98265572 80.57919502 -35.6875 79.3125 C-36.02716797 78.68666016 -36.36683594 78.06082031 -36.71679688 77.41601562 C-38.99223509 73.35425209 -41.30797197 69.94780821 -45 67 C-47.27523089 67.04497842 -47.27523089 67.04497842 -49 68 C-48.79503906 68.76183594 -48.59007812 69.52367187 -48.37890625 70.30859375 C-45.04991292 83.06708016 -43.51209816 95.10722 -47 108 C-48.65 108 -50.3 108 -52 108 C-52.27972656 107.29617187 -52.55945313 106.59234375 -52.84765625 105.8671875 C-55.24710773 99.9572845 -57.80452918 94.15660018 -60.625 88.4375 C-61.19476563 87.28121094 -61.76453125 86.12492187 -62.3515625 84.93359375 C-64.20882045 81.53186841 -64.20882045 81.53186841 -67 79 C-69.07060488 78.85212983 -69.07060488 78.85212983 -71.1875 79.3125 C-72.445625 79.539375 -73.70375 79.76625 -75 80 C-74.83886719 80.7734375 -74.67773438 81.546875 -74.51171875 82.34375 C-73.84876519 87.08057847 -73.81583118 91.72308882 -73.8125 96.5 C-73.80025391 97.42425781 -73.78800781 98.34851563 -73.77539062 99.30078125 C-73.76471448 104.27586261 -74.03370735 108.33685537 -76 113 C-77.65 112.67 -79.3 112.34 -81 112 C-81.39832031 110.75863281 -81.79664063 109.51726562 -82.20703125 108.23828125 C-82.74186462 106.59624897 -83.27703885 104.95432768 -83.8125 103.3125 C-84.07353516 102.49587891 -84.33457031 101.67925781 -84.60351562 100.83789062 C-86.00794622 96.55524423 -87.44721776 92.76401225 -90 89 C-92.97 89.495 -92.97 89.495 -96 90 C-95.95359375 91.12535156 -95.9071875 92.25070313 -95.859375 93.41015625 C-95.51384179 105.59453781 -96.10721868 117.47320217 -103 128 C-105.4375 127.625 -105.4375 127.625 -108 127 C-109.56522661 123.86954678 -109.5762959 120.44247372 -109.9375 117 C-110.64639019 110.57593677 -111.59645843 104.31593709 -113 98 C-116.96 98.99 -116.96 98.99 -121 100 C-121.36351562 101.61068359 -121.36351562 101.61068359 -121.734375 103.25390625 C-122.07233609 104.6902409 -122.41091065 106.12643129 -122.75 107.5625 C-122.90726562 108.26697266 -123.06453125 108.97144531 -123.2265625 109.69726562 C-124.43126057 114.72456335 -126.25711736 118.61484518 -129 123 C-130.65 122.67 -132.3 122.34 -134 122 C-133.98839844 120.97519531 -133.97679687 119.95039063 -133.96484375 118.89453125 C-133.95545978 117.533856 -133.94636023 116.17317876 -133.9375 114.8125 C-133.92493164 113.80219727 -133.92493164 113.80219727 -133.91210938 112.77148438 C-133.89393462 109.04565869 -134.10700608 105.6211958 -135 102 C-137.64 102 -140.28 102 -143 102 C-143.0928125 103.60875 -143.0928125 103.60875 -143.1875 105.25 C-144.03924209 112.25182099 -147.11018617 119.16527926 -151 125 C-152.98 124.505 -152.98 124.505 -155 124 C-155.33 117.73 -155.66 111.46 -156 105 C-158.31 105 -160.62 105 -163 105 C-163.40992188 106.04800781 -163.81984375 107.09601563 -164.2421875 108.17578125 C-164.78627439 109.55476009 -165.33055538 110.93366236 -165.875 112.3125 C-166.14441406 113.00279297 -166.41382813 113.69308594 -166.69140625 114.40429688 C-167.92173667 117.51013099 -169.13988463 120.20982695 -171 123 C-172.32 122.67 -173.64 122.34 -175 122 C-175.495 114.575 -175.495 114.575 -176 107 C-193.10046783 110.33914461 -209.48882398 114.34766521 -225.90063477 120.24731445 C-227.59256568 120.85392255 -229.29484803 121.43161601 -231 122 C-229.34266903 112.26034267 -219.50848416 103.67030754 -212 98 C-199.24348997 89.49565998 -186.36762194 85.81261231 -171.1875 83.9375 C-169.93283936 83.7710498 -168.67817871 83.60459961 -167.38549805 83.43310547 C-161.40187291 82.64709036 -155.41588243 81.92497996 -149.4140625 81.29296875 C-147.86489136 81.12196655 -147.86489136 81.12196655 -146.28442383 80.94750977 C-144.40593294 80.74365809 -142.52557252 80.55582985 -140.64331055 80.39038086 C-125.35855427 78.72768048 -110.72220516 71.87977285 -96.6875 65.9375 C-95.12095968 65.2789031 -93.55439012 64.62037575 -91.98779297 63.96191406 C-51.83879537 48.01699057 -51.83879537 48.01699057 -15 26 C-14.3090625 25.49082031 -13.618125 24.98164063 -12.90625 24.45703125 C-4.65108562 17.93335262 -2.06757054 10.08570995 0 0 Z " fill="#6F85D3" transform="translate(482,127)"/>
<path d="M0 0 C1.69472957 1.46821982 3.35945227 2.97147753 5 4.5 C5.49032715 4.9547168 5.9806543 5.40943359 6.48583984 5.87792969 C26.65680322 24.76488379 26.65680322 24.76488379 27.4375 37.5 C27.24185735 42.07092366 25.70984349 44.83804933 23 48.5 C19.15908892 50.88759337 15.44592025 50.9763486 11 50.5 C6.59825039 48.04320952 4.92974042 44.86900335 2.9921875 40.40234375 C1.88120482 38.27223129 0.88425054 36.99317967 -1 35.5 C-3.994793 34.56342616 -6.87093867 34.32402467 -10 34.5 C-13.38426766 36.30014237 -14.61561682 37.65031085 -16.1875 41.125 C-17.00619376 44.32763927 -17.00619376 44.32763927 -17.3828125 46.93359375 C-18.31349432 52.62767435 -19.16702657 55.84580058 -24 59.5 C-30.87257369 61.7908579 -37.51160693 60.29971607 -44 57.5 C-50.97238295 53.59954446 -53.74529231 47.49688137 -56.99829102 40.55810547 C-61.62955868 30.78790978 -68.93250709 21.54499527 -78 15.5 C-80.05709596 15.25944532 -80.05709596 15.25944532 -82.1875 15.375 C-83.445625 15.41625 -84.70375 15.4575 -86 15.5 C-87.25433458 19.26300374 -87.10695422 22.77210909 -87.0625 26.6875 C-87.05798828 27.43708984 -87.05347656 28.18667969 -87.04882812 28.95898438 C-87.03706354 30.80602383 -87.01912865 32.65302213 -87 34.5 C-90 33.5 -90 33.5 -91.1328125 31.3203125 C-91.46023437 30.43085938 -91.78765625 29.54140625 -92.125 28.625 C-92.45757812 27.74070313 -92.79015625 26.85640625 -93.1328125 25.9453125 C-95.30170877 19.82941581 -96.02512709 14.57538127 -93.9375 8.3125 C-90.30527443 3.03991449 -86.05119979 -0.39571173 -80 -2.5 C-77.61956284 -2.90947253 -75.2263449 -3.24759733 -72.828125 -3.53515625 C-71.80534454 -3.66053017 -71.80534454 -3.66053017 -70.76190186 -3.78843689 C-68.59198477 -4.05285118 -66.42107358 -4.30777551 -64.25 -4.5625 C-62.80721706 -4.73701451 -61.36450779 -4.91213924 -59.921875 -5.08789062 C-57.15525632 -5.42361706 -54.38801879 -5.75303676 -51.61987305 -6.07592773 C-49.53190299 -6.32053581 -47.44445274 -6.56988629 -45.35864258 -6.83227539 C-29.79488995 -8.73864065 -13.06375081 -9.85943457 0 0 Z " fill="#7085D3" transform="translate(326,128.5)"/>
<path d="M0 0 C2.14453125 0.39453125 2.14453125 0.39453125 4 1 C4.02578125 2.06476563 4.0515625 3.12953125 4.078125 4.2265625 C4.41726345 14.03881661 5.77251569 22.66194326 9 32 C9.23460937 32.70850098 9.46921875 33.41700195 9.7109375 34.14697266 C14.65436547 49.01229374 20.9287577 63.57485851 30.4375 76.125 C37.21099009 85.07421721 38.23679891 93.84502518 37 105 C35.11883755 111.6363231 31.74701615 115.8973849 26.16015625 119.84375 C21.09673686 122.55400703 16.5692587 123.21783362 10.875 123.375 C4.59425928 123.70263707 -0.57663904 124.86279492 -6.4140625 127.16015625 C-9.09986096 128.03243218 -11.19633527 128.15688377 -14 128 C-14.33 126.68 -14.66 125.36 -15 124 C-11.26999961 120.58744645 -8.01143802 117.91293001 -3.4375 115.75 C3.03930302 112.32370489 5.85957726 106.37424048 8.13671875 99.63671875 C10.2155998 90.87907957 10.18408588 81.3441363 6.34765625 73.09375 C3.75389781 69.06402674 0.27065537 66.13532769 -4 64 C-10.84649799 63.25233251 -16.72510117 63.40010835 -22.65234375 67.08984375 C-26.27000573 70.03333245 -29.46374991 73.43670623 -32.48828125 76.98535156 C-34.46549251 79.16218511 -36.1373373 80.83474476 -39.08374023 81.39916992 C-42.11685391 81.45283822 -44.38333119 81.41774338 -46.9375 79.6875 C-50.7937848 73.56281238 -49.78891052 63.74970122 -48.3515625 56.91796875 C-44.00665215 43.93894169 -35.715154 36.2293397 -24.4375 29.125 C-16.14922401 23.64753065 -11.38729481 16.22173712 -6.59375 7.69140625 C-4.67006485 4.44283011 -3.04732037 2.22372027 0 0 Z " fill="#7086D3" transform="translate(94,136)"/>
<path d="M0 0 C13.35171157 7.93001306 28.18944123 20.60621194 33 36 C33.52431012 38.60508011 34.00090966 41.19356983 34.4375 43.8125 C36.03090913 52.66765896 38.00398504 59.22885695 43.6953125 66.3359375 C46.44229336 69.83957177 46.16218405 72.39261189 45.64453125 76.671875 C44.59009752 80.48061746 42.1911584 82.77730261 39 85 C34.82898224 86.39033925 31.16604645 86.94897516 27.01171875 85.12890625 C20.3847716 81.20420939 15.48350161 75.77144761 10.5625 69.9375 C7.15127492 65.96032166 3.30813262 62.95414808 -1 60 C0.63412443 58.29159719 1.86906094 57.06546953 4 56 C5.39194171 51.95322906 5.45532915 48.27203063 4.015625 44.25 C2.29893638 40.7762301 0.75145261 37.75145261 -2 35 C-4.4881704 34.67774008 -4.4881704 34.67774008 -7.3828125 34.69140625 C-9.01089844 34.65370117 -9.01089844 34.65370117 -10.671875 34.61523438 C-12.95046942 34.58043684 -15.22911988 34.54911287 -17.5078125 34.52148438 C-24.74947385 34.34642063 -31.13422109 34.08217507 -37.0234375 29.38671875 C-41.53912715 23.70947887 -43.547602 18.63887562 -43.38671875 11.3125 C-42.55668263 6.34905167 -39.61014347 2.55820336 -36.0625 -0.875 C-25.31469479 -6.73743921 -10.68898687 -5.29481023 0 0 Z " fill="#6F85D3" transform="translate(184,136)"/>
<path d="M0 0 C6.90861593 -0.24595112 12.86199533 1.25231845 19.43164062 3.27978516 C20.47771484 3.59310791 21.52378906 3.90643066 22.6015625 4.22924805 C30.56217712 6.67047858 38.17626891 9.54744981 45.68164062 13.15478516 C45.68164062 13.81478516 45.68164062 14.47478516 45.68164062 15.15478516 C43.76121948 15.22391113 43.76121948 15.22391113 41.80200195 15.29443359 C29.23786296 15.79204704 16.84401602 16.85392808 4.36914062 18.40478516 C3.46943542 18.51460724 2.56973022 18.62442932 1.64276123 18.73757935 C-26.12413047 22.13159545 -53.60927391 26.43611021 -80.82861328 33.00146484 C-81.9763623 33.27635742 -83.12411133 33.55125 -84.30664062 33.83447266 C-85.33958252 34.08696777 -86.37252441 34.33946289 -87.43676758 34.59960938 C-90.18555455 35.1291986 -92.53184772 35.41321777 -95.31835938 35.15478516 C-97.13085938 33.15478516 -97.13085938 33.15478516 -98.31835938 31.15478516 C-78.48051602 20.40415265 -57.01545335 12.2839363 -35.31835938 6.15478516 C-34.63418945 5.95804199 -33.95001953 5.76129883 -33.24511719 5.55859375 C-22.29125944 2.45247116 -11.35312541 0.75799089 0 0 Z " fill="#7086D3" transform="translate(191.318359375,271.84521484375)"/>
<path d="M0 0 C4.90716833 -0.10002068 9.81372362 -0.17200237 14.72167969 -0.21972656 C16.38584754 -0.23965287 18.04994714 -0.26680428 19.71386719 -0.30175781 C43.1146841 -0.78047489 43.1146841 -0.78047489 52.25 7.5 C63.63693779 20.29834394 63.63693779 20.29834394 64.359375 27.6640625 C63.83895671 32.49490182 62.42667615 33.65120286 59 37 C54.29612554 39.91002403 49.35386956 39.70543358 44 39 C36.77415671 36.34434819 32.68282213 30.45022185 28.84375 24.08203125 C27.80289578 21.51362708 27.80233834 19.51114306 27.875 16.75 C27.89304687 15.85796875 27.91109375 14.9659375 27.9296875 14.046875 C27.95289063 13.37140625 27.97609375 12.6959375 28 12 C27.3915625 11.84144531 26.783125 11.68289062 26.15625 11.51953125 C23.09668633 10.70514739 20.0483549 9.85544035 17 9 C16.31518555 8.81244141 15.63037109 8.62488281 14.92480469 8.43164062 C12.7360423 7.82642579 10.55547976 7.19684361 8.375 6.5625 C7.66408203 6.36954346 6.95316406 6.17658691 6.22070312 5.9777832 C4.2109375 5.37890625 4.2109375 5.37890625 1 4 C0.29931641 1.91381836 0.29931641 1.91381836 0 0 Z " fill="#7086D3" transform="translate(337,106)"/>
<path d="M0 0 C4.9683961 1.47567477 8.5099357 5.1949504 12.22265625 8.66015625 C13.17398437 9.5315625 14.1253125 10.40296875 15.10546875 11.30078125 C37.90371285 32.8043934 37.90371285 32.8043934 39.66015625 44.59765625 C38.88337801 50.03510393 35.93930907 53.3150147 31.72265625 56.59765625 C30.00390625 57.875 30.00390625 57.875 28.22265625 58.66015625 C26.00390625 58.2890625 26.00390625 58.2890625 24.22265625 57.66015625 C24.61912401 54.2901803 25.24393331 52.63114208 27.28515625 49.84765625 C29.62859831 45.99231609 30.25870276 43.00649772 29.22265625 38.66015625 C27.26263493 34.16418318 24.36321705 32.14378627 19.90625 30.25390625 C16.68583829 29.12404086 13.42532973 28.14802389 10.14453125 27.20996094 C-6.55158007 22.43358356 -6.55158007 22.43358356 -9.8671875 16.8125 C-11.4281819 13.12104973 -11.44070298 9.58444983 -10.77734375 5.66015625 C-8.01455662 1.42963846 -5.19968988 -0.37904281 0 0 Z " fill="#7187D4" transform="translate(419.77734375,86.33984375)"/>
<path d="M0 0 C2.375 -0.1875 2.375 -0.1875 5 0 C8.82490253 5.73735379 6.78344062 14.54324824 5.61572266 21.18603516 C4.03487534 28.89727152 1.99218517 36.15625399 -2 43 C-15.40566038 31.78301887 -15.40566038 31.78301887 -17 27 C-15.64678743 25.43860088 -14.28503086 23.88409916 -12.890625 22.359375 C-10.5230621 19.40481304 -8.66457546 16.22725173 -6.8125 12.9375 C-6.48000244 12.34799561 -6.14750488 11.75849121 -5.80493164 11.15112305 C-3.76497808 7.48432572 -1.85107218 3.76518398 0 0 Z " fill="#6F85D3" transform="translate(331,341)"/>
<path d="M0 0 C3.90158863 13.12798689 5.62493061 25.60070291 2 39 C0.35 39 -1.3 39 -3 39 C-3.27972656 38.29617187 -3.55945313 37.59234375 -3.84765625 36.8671875 C-6.22940444 31.00088809 -8.76327609 25.23969257 -11.5625 19.5625 C-12.12066406 18.42941406 -12.67882812 17.29632813 -13.25390625 16.12890625 C-14.92890325 13.12740156 -16.77168309 10.60864234 -19 8 C-16.58858519 6.65632608 -14.17166012 5.32497485 -11.75 4 C-11.06808594 3.6184375 -10.38617188 3.236875 -9.68359375 2.84375 C-9.01972656 2.4828125 -8.35585938 2.121875 -7.671875 1.75 C-7.0644043 1.41484375 -6.45693359 1.0796875 -5.83105469 0.734375 C-4 0 -4 0 0 0 Z " fill="#D1DFFE" transform="translate(433,196)"/>
<path d="M0 0 C0.54751875 13.27732966 0.55767312 26.4577657 -7 38 C-9.4375 37.625 -9.4375 37.625 -12 37 C-13.55617769 33.88764461 -13.53160361 30.48580166 -13.875 27.0625 C-14.6170238 20.1493848 -15.85078458 13.63391159 -18 7 C-17.18015625 6.66226563 -16.3603125 6.32453125 -15.515625 5.9765625 C-14.43796875 5.53054687 -13.3603125 5.08453125 -12.25 4.625 C-10.64898437 3.96371094 -10.64898437 3.96371094 -9.015625 3.2890625 C-7.23079267 2.52611604 -5.46088172 1.72300475 -3.734375 0.8359375 C-2 0 -2 0 0 0 Z " fill="#D1DEFE" transform="translate(386,217)"/>
<path d="M0 0 C0.76027722 4.05695097 1.12820327 7.89394105 1.1328125 12.01953125 C1.13474609 13.6756543 1.13474609 13.6756543 1.13671875 15.36523438 C1.13285156 16.50283203 1.12898438 17.64042969 1.125 18.8125 C1.13080078 20.54790039 1.13080078 20.54790039 1.13671875 22.31835938 C1.13542969 23.41599609 1.13414062 24.51363281 1.1328125 25.64453125 C1.13168457 26.64846924 1.13055664 27.65240723 1.12939453 28.68676758 C1 31 1 31 0 32 C-1.66617115 32.04063832 -3.33388095 32.042721 -5 32 C-5.77923828 30.49759766 -5.77923828 30.49759766 -6.57421875 28.96484375 C-7.27837448 27.62225348 -7.98281699 26.27981359 -8.6875 24.9375 C-9.19700195 23.95233398 -9.19700195 23.95233398 -9.71679688 22.94726562 C-12.14639794 18.33783557 -14.89314089 14.18419379 -18 10 C-15.56798137 8.32480882 -13.13002202 6.65974866 -10.6875 5 C-9.99720703 4.52304688 -9.30691406 4.04609375 -8.59570312 3.5546875 C-7.92861328 3.10351562 -7.26152344 2.65234375 -6.57421875 2.1875 C-5.96151123 1.76855469 -5.34880371 1.34960938 -4.7175293 0.91796875 C-3 0 -3 0 0 0 Z " fill="#D1DEFE" transform="translate(478,171)"/>
<path d="M0 0 C1.15679408 5.18855319 1.1838408 10.14263846 1.1875 15.4375 C1.19974609 16.36626953 1.21199219 17.29503906 1.22460938 18.25195312 C1.23526569 23.24265852 0.97535241 27.3231775 -1 32 C-2.65 31.67 -4.3 31.34 -6 31 C-6.59748047 29.13794922 -6.59748047 29.13794922 -7.20703125 27.23828125 C-7.74186462 25.59624897 -8.27703885 23.95432768 -8.8125 22.3125 C-9.20405273 21.08756836 -9.20405273 21.08756836 -9.60351562 19.83789062 C-10.75546192 16.32516551 -11.83079348 13.27800893 -13.76171875 10.10546875 C-14.17035156 9.41066406 -14.57898438 8.71585938 -15 8 C-14 5 -14 5 -11.6015625 3.61328125 C-10.12816406 2.96939453 -10.12816406 2.96939453 -8.625 2.3125 C-7.64789063 1.87550781 -6.67078125 1.43851563 -5.6640625 0.98828125 C-3 0 -3 0 0 0 Z " fill="#D1DEFE" transform="translate(407,208)"/>
<path d="M0 0 C0.33851178 2.68693722 0.670936 5.37440289 1 8.0625 C1.09539062 8.81466797 1.19078125 9.56683594 1.2890625 10.34179688 C2.79927885 22.80108173 2.79927885 22.80108173 0 27 C-2.625 27.1875 -2.625 27.1875 -5 27 C-5.53109375 26.04738281 -6.0621875 25.09476563 -6.609375 24.11328125 C-7.32268231 22.84622221 -8.03623716 21.57930249 -8.75 20.3125 C-9.09804688 19.68666016 -9.44609375 19.06082031 -9.8046875 18.41601562 C-11.47723984 15.45807584 -13.13323356 12.83345806 -15.265625 10.16796875 C-17 8 -17 8 -17 6 C-14.73495035 4.80015203 -12.46410112 3.61505231 -10.1875 2.4375 C-9.54490234 2.09525391 -8.90230469 1.75300781 -8.24023438 1.40039062 C-3.33984375 -1.11328125 -3.33984375 -1.11328125 0 0 Z " fill="#D1DEFE" transform="translate(455,186)"/>
<path d="M0 0 C0.66 0.33 1.32 0.66 2 1 C5.21694811 11.07878697 7.62095891 24.11372537 3 34 C1.68 34 0.36 34 -1 34 C-1.391875 32.7625 -1.78375 31.525 -2.1875 30.25 C-3.83097582 25.26426325 -5.88599891 20.49619716 -8.01171875 15.69921875 C-9 13 -9 13 -9 9 C-7.5390625 7.40234375 -7.5390625 7.40234375 -5.625 5.9375 C-3.11144723 3.98768643 -1.81389948 2.72084923 0 0 Z " fill="#D1DEFE" transform="translate(494,155)"/>
<path d="M0 0 C1.32 0 2.64 0 4 0 C4.93992409 8.08334716 1.64044305 16.47624327 -3.171875 22.8984375 C-4.07679688 23.93871094 -4.07679688 23.93871094 -5 25 C-5.98712878 23.75627811 -6.96439905 22.50472782 -7.9375 21.25 C-8.48277344 20.55390625 -9.02804687 19.8578125 -9.58984375 19.140625 C-10.97425654 17.03907872 -11.56286987 15.45678201 -12 13 C-11.319375 12.525625 -10.63875 12.05125 -9.9375 11.5625 C-6.59412695 8.64594053 -4.27688289 5.45188774 -1.74609375 1.828125 C-1.16988281 1.22484375 -0.59367187 0.6215625 0 0 Z " fill="#6F86D3" transform="translate(313,336)"/>
<path d="M0 0 C0.721875 0.12375 1.44375 0.2475 2.1875 0.375 C1.92339182 8.29824543 -0.46399129 14.71161351 -4.8125 21.375 C-5.8025 21.705 -6.7925 22.035 -7.8125 22.375 C-9.7925 19.405 -11.7725 16.435 -13.8125 13.375 C-12.36477654 11.69160063 -10.91599049 10.00909937 -9.4609375 8.33203125 C-8.4304462 7.10862807 -7.42960403 5.85887415 -6.4765625 4.57421875 C-3.3870647 0.45160863 -3.3870647 0.45160863 0 0 Z " fill="#6F86D4" transform="translate(300.8125,316.625)"/>
<path d="M0 0 C0.33 1.32 0.66 2.64 1 4 C-2.88309282 7.64775386 -5.71201818 8.58525633 -11 9 C-11.33 7.35 -11.66 5.7 -12 4 C-7.81413519 0.81076967 -5.29441695 -0.50423019 0 0 Z " fill="#768BD6" transform="translate(431,149)"/>
</svg>
