<?xml version="1.0" encoding="UTF-8"?>
<!DOCTYPE svg PUBLIC "-//W3C//DTD SVG 1.1//EN" "http://www.w3.org/Graphics/SVG/1.1/DTD/svg11.dtd">
<svg xmlns="http://www.w3.org/2000/svg" version="1.1" width="512px" height="512px" style="shape-rendering:geometricPrecision; text-rendering:geometricPrecision; image-rendering:optimizeQuality; fill-rule:evenodd; clip-rule:evenodd" xmlns:xlink="http://www.w3.org/1999/xlink">
<g><path style="opacity:1" fill="#9c3751" d="M 43.5,26.5 C 48.4221,26.8995 52.2555,29.2328 55,33.5C 56.3286,39.8342 53.8286,42.6675 47.5,42C 43.545,39.8815 40.8783,36.7148 39.5,32.5C 39.8662,29.7441 41.1995,27.7441 43.5,26.5 Z"/></g>
<g><path style="opacity:1" fill="#9d3750" d="M 116.5,28.5 C 121.444,28.6021 124.944,30.9354 127,35.5C 129.335,39.1547 128.835,42.3214 125.5,45C 123.029,45.7063 120.695,45.373 118.5,44C 115.871,41.2096 113.871,38.043 112.5,34.5C 112.866,31.7441 114.2,29.7441 116.5,28.5 Z"/></g>
<g><path style="opacity:1" fill="#9c3750" d="M 162.5,46.5 C 177.983,46.3869 187.65,53.7203 191.5,68.5C 191.418,74.1723 188.752,78.0056 183.5,80C 164.121,82.2794 154.621,73.7794 155,54.5C 156.353,50.6499 158.853,47.9832 162.5,46.5 Z"/></g>
<g><path style="opacity:1" fill="#9c3851" d="M 303.5,183.5 C 286.837,180.304 270.17,177.137 253.5,174C 241.083,168.626 229.417,161.959 218.5,154C 202.534,146.055 187.701,147.888 174,159.5C 170.419,163.909 169.085,168.909 170,174.5C 173.05,182.936 176.384,191.269 180,199.5C 182.104,207.587 181.771,215.587 179,223.5C 167.011,250.169 166.344,277.169 177,304.5C 180.029,309.23 183.529,313.563 187.5,317.5C 167.445,301.612 149.945,283.279 135,262.5C 119.064,235.757 111.731,206.757 113,175.5C 110.103,156.469 103.103,139.136 92,123.5C 84.7461,105.591 89.5794,92.0911 106.5,83C 115.938,80.2948 124.938,81.2948 133.5,86C 143.79,96.8103 155.79,105.144 169.5,111C 182.915,114.565 196.582,116.232 210.5,116C 222.241,118.353 232.907,123.019 242.5,130C 263.027,147.699 283.36,165.532 303.5,183.5 Z"/></g>
<g><path style="opacity:1" fill="#9c3751" d="M 32.5,98.5 C 38.1225,98.6568 43.1225,100.49 47.5,104C 61.9235,115.025 71.7568,129.191 77,146.5C 77.6667,151.5 77.6667,156.5 77,161.5C 76.5348,162.931 75.7014,164.097 74.5,165C 70.9613,166.504 67.2946,166.837 63.5,166C 42.3706,157.87 27.5373,143.37 19,122.5C 15.0104,109.462 19.5104,101.462 32.5,98.5 Z"/></g>
<g><path style="opacity:1" fill="#fa5d7c" d="M 317.5,122.5 C 327.751,121.516 335.251,125.516 340,134.5C 341.834,144.665 338,151.832 328.5,156C 322.383,156.523 317.883,154.023 315,148.5C 310.99,142.722 309.656,136.388 311,129.5C 312.694,126.642 314.861,124.309 317.5,122.5 Z"/></g>
<g><path style="opacity:1" fill="#fac76f" d="M 401.5,128.5 C 408.139,127.806 411.139,130.806 410.5,137.5C 410.487,142.999 407.82,144.832 402.5,143C 397.808,138.385 397.475,133.551 401.5,128.5 Z"/></g>
<g><path style="opacity:1" fill="#f95d7c" d="M 303.5,183.5 C 313.375,186.772 322.708,191.106 331.5,196.5C 330.978,199.799 330.645,203.133 330.5,206.5C 332.63,220.43 333.464,234.43 333,248.5C 331.5,256.667 326.667,261.5 318.5,263C 313.291,263.158 308.125,262.658 303,261.5C 295.245,261.58 289.912,265.247 287,272.5C 286.445,278.18 286.612,283.846 287.5,289.5C 286.36,300.973 280.027,306.973 268.5,307.5C 260.239,306.748 252.072,305.414 244,303.5C 231.518,305.998 225.851,313.664 227,326.5C 225.431,333.011 221.931,338.011 216.5,341.5C 205.668,335.009 196.001,327.009 187.5,317.5C 183.529,313.563 180.029,309.23 177,304.5C 166.344,277.169 167.011,250.169 179,223.5C 181.771,215.587 182.104,207.587 180,199.5C 176.384,191.269 173.05,182.936 170,174.5C 169.085,168.909 170.419,163.909 174,159.5C 187.701,147.888 202.534,146.055 218.5,154C 229.417,161.959 241.083,168.626 253.5,174C 270.17,177.137 286.837,180.304 303.5,183.5 Z"/></g>
<g><path style="opacity:1" fill="#f85c7c" d="M 139.5,188.5 C 142.807,188.063 145.807,188.73 148.5,190.5C 158.151,200.506 159.985,211.839 154,224.5C 148.667,229.833 143.333,229.833 138,224.5C 133.954,213.617 133.621,202.617 137,191.5C 138.045,190.627 138.878,189.627 139.5,188.5 Z"/></g>
<g><path style="opacity:1" fill="#f9c783" d="M 364.5,229.5 C 356.727,265.376 341.227,297.376 318,325.5C 293.006,352.91 262.506,370.91 226.5,379.5C 214.205,379.19 202.871,375.69 192.5,369C 186.951,362.054 187.284,355.387 193.5,349C 201.541,347.553 209.207,345.053 216.5,341.5C 221.931,338.011 225.431,333.011 227,326.5C 225.851,313.664 231.518,305.998 244,303.5C 252.072,305.414 260.239,306.748 268.5,307.5C 280.027,306.973 286.36,300.973 287.5,289.5C 286.612,283.846 286.445,278.18 287,272.5C 289.912,265.247 295.245,261.58 303,261.5C 308.125,262.658 313.291,263.158 318.5,263C 326.667,261.5 331.5,256.667 333,248.5C 333.464,234.43 332.63,220.43 330.5,206.5C 330.645,203.133 330.978,199.799 331.5,196.5C 339.923,189.363 347.756,190.03 355,198.5C 361.49,207.804 364.657,218.137 364.5,229.5 Z"/></g>
<g><path style="opacity:1" fill="#b03238" d="M 215.5,196.5 C 219.169,196.332 222.502,197.332 225.5,199.5C 233.61,207.566 235.777,216.899 232,227.5C 219.872,235.958 211.539,232.958 207,218.5C 204.099,208.703 206.933,201.37 215.5,196.5 Z"/></g>
<g><path style="opacity:1" fill="#b03239" d="M 277.5,208.5 C 290.115,208.616 296.615,214.949 297,227.5C 293.299,238.098 286.132,241.931 275.5,239C 268.814,232.98 266.647,225.48 269,216.5C 271.074,212.923 273.907,210.256 277.5,208.5 Z"/></g>
<g><path style="opacity:1" fill="#575d96" d="M 423.5,215.5 C 424.787,217.637 425.621,219.97 426,222.5C 427.893,256.155 419.226,286.821 400,314.5C 393.333,323.167 386.667,331.833 380,340.5C 376.953,343.883 373.62,346.883 370,349.5C 367.942,348.942 366.775,347.609 366.5,345.5C 385.32,305.555 396.654,263.555 400.5,219.5C 404.909,211.742 411.576,208.909 420.5,211C 422.141,212.129 423.141,213.629 423.5,215.5 Z"/></g>
<g><path style="opacity:1" fill="#88a1e6" d="M 465.5,215.5 C 464.448,215.351 463.448,215.517 462.5,216C 464.697,231.706 460.864,245.873 451,258.5C 444.907,264.59 439.573,271.256 435,278.5C 432.599,287.503 435.099,294.67 442.5,300C 456.184,303.511 468.85,309.178 480.5,317C 484.747,320.742 488.414,324.908 491.5,329.5C 491.842,330.338 492.508,330.672 493.5,330.5C 493.5,381.833 493.5,433.167 493.5,484.5C 473.5,484.5 453.5,484.5 433.5,484.5C 433.5,484.167 433.5,483.833 433.5,483.5C 440.728,476.315 443.895,467.649 443,457.5C 437.064,443.95 426.897,439.116 412.5,443C 405.823,445.34 399.157,447.673 392.5,450C 387.833,450.667 383.167,450.667 378.5,450C 367.8,444.578 357.8,445.578 348.5,453C 336.602,463.076 324.602,472.909 312.5,482.5C 311.5,482.833 310.833,483.5 310.5,484.5C 280.5,484.5 250.5,484.5 220.5,484.5C 218.779,472.565 217.779,460.565 217.5,448.5C 245.821,444.089 270.321,432.089 291,412.5C 291.664,407.504 289.498,405.67 284.5,407C 263.199,415.712 241.199,421.879 218.5,425.5C 219.099,412.905 221.099,400.572 224.5,388.5C 304.63,386.347 354.963,346.68 375.5,269.5C 378.163,254.636 379.163,239.636 378.5,224.5C 385.759,222.519 393.092,220.852 400.5,219.5C 396.654,263.555 385.32,305.555 366.5,345.5C 366.775,347.609 367.942,348.942 370,349.5C 373.62,346.883 376.953,343.883 380,340.5C 386.667,331.833 393.333,323.167 400,314.5C 419.226,286.821 427.893,256.155 426,222.5C 425.621,219.97 424.787,217.637 423.5,215.5C 437.654,214.269 451.654,214.269 465.5,215.5 Z"/></g>
<g><path style="opacity:1" fill="#575d96" d="M 465.5,215.5 C 473.983,215.602 482.316,216.602 490.5,218.5C 491.821,236.949 492.487,255.616 492.5,274.5C 492.5,293.003 492.167,311.336 491.5,329.5C 488.414,324.908 484.747,320.742 480.5,317C 468.85,309.178 456.184,303.511 442.5,300C 435.099,294.67 432.599,287.503 435,278.5C 439.573,271.256 444.907,264.59 451,258.5C 460.864,245.873 464.697,231.706 462.5,216C 463.448,215.517 464.448,215.351 465.5,215.5 Z"/></g>
<g><path style="opacity:1" fill="#6f7cba" d="M 490.5,218.5 C 491.5,218.5 492.5,218.5 493.5,218.5C 493.5,255.833 493.5,293.167 493.5,330.5C 492.508,330.672 491.842,330.338 491.5,329.5C 492.167,311.336 492.5,293.003 492.5,274.5C 492.487,255.616 491.821,236.949 490.5,218.5 Z"/></g>
<g><path style="opacity:1" fill="#585d96" d="M 378.5,224.5 C 379.163,239.636 378.163,254.636 375.5,269.5C 354.963,346.68 304.63,386.347 224.5,388.5C 225.01,385.461 225.677,382.461 226.5,379.5C 262.506,370.91 293.006,352.91 318,325.5C 341.227,297.376 356.727,265.376 364.5,229.5C 369.172,227.832 373.838,226.165 378.5,224.5 Z"/></g>
<g><path style="opacity:1" fill="#9e3852" d="M 209.5,276.5 C 216.98,277.121 219.98,280.954 218.5,288C 217.271,288.781 215.938,289.281 214.5,289.5C 210.456,288.157 207.789,285.49 206.5,281.5C 207.092,279.577 208.092,277.911 209.5,276.5 Z"/></g>
<g><path style="opacity:1" fill="#575d96" d="M 419.5,340.5 C 442.556,338.068 455.889,348.235 459.5,371C 458.355,385.799 450.355,392.132 435.5,390C 428.446,385.313 420.779,381.98 412.5,380C 398.618,370.491 396.951,359.158 407.5,346C 411.451,343.855 415.451,342.021 419.5,340.5 Z"/></g>
<g><path style="opacity:1" fill="#fa5c7b" d="M 132.5,343.5 C 138.131,343.307 142.131,345.64 144.5,350.5C 143.655,355.844 140.655,357.677 135.5,356C 127.869,353.005 126.869,348.838 132.5,343.5 Z"/></g>
<g><path style="opacity:1" fill="#585e97" d="M 338.5,366.5 C 347.325,366.498 349.825,370.498 346,378.5C 342.067,384.434 336.9,388.934 330.5,392C 321.752,392.555 319.252,388.722 323,380.5C 327.116,374.544 332.283,369.878 338.5,366.5 Z"/></g>
<g><path style="opacity:1" fill="#575d97" d="M 217.5,448.5 C 210.414,448.58 206.747,445.08 206.5,438C 206.613,430.109 210.613,425.942 218.5,425.5C 241.199,421.879 263.199,415.712 284.5,407C 289.498,405.67 291.664,407.504 291,412.5C 270.321,432.089 245.821,444.089 217.5,448.5 Z"/></g>
<g><path style="opacity:1" fill="#fac86f" d="M 156.5,415.5 C 160.601,416.15 164.434,417.483 168,419.5C 169.833,427 167,429.833 159.5,428C 153.718,427.892 151.218,425.059 152,419.5C 152.907,417.391 154.407,416.058 156.5,415.5 Z"/></g>
<g><path style="opacity:1" fill="#575d96" d="M 433.5,483.5 C 392.997,483.832 352.663,483.499 312.5,482.5C 324.602,472.909 336.602,463.076 348.5,453C 357.8,445.578 367.8,444.578 378.5,450C 383.167,450.667 387.833,450.667 392.5,450C 399.157,447.673 405.823,445.34 412.5,443C 426.897,439.116 437.064,443.95 443,457.5C 443.895,467.649 440.728,476.315 433.5,483.5 Z"/></g>
<g><path style="opacity:1" fill="#6a76b4" d="M 312.5,482.5 C 352.663,483.499 392.997,483.832 433.5,483.5C 433.5,483.833 433.5,484.167 433.5,484.5C 392.5,484.5 351.5,484.5 310.5,484.5C 310.833,483.5 311.5,482.833 312.5,482.5 Z"/></g>
</svg>
