<?xml version="1.0" encoding="UTF-8"?>
<!DOCTYPE svg PUBLIC "-//W3C//DTD SVG 1.1//EN" "http://www.w3.org/Graphics/SVG/1.1/DTD/svg11.dtd">
<svg xmlns="http://www.w3.org/2000/svg" version="1.1" width="512px" height="512px" style="shape-rendering:geometricPrecision; text-rendering:geometricPrecision; image-rendering:optimizeQuality; fill-rule:evenodd; clip-rule:evenodd" xmlns:xlink="http://www.w3.org/1999/xlink">
<g><path style="opacity:1" fill="#7588b4" d="M 380.5,34.5 C 381.023,38.8906 381.69,43.2239 382.5,47.5C 382.5,50.5 382.5,53.5 382.5,56.5C 381.521,59.6248 381.187,62.9581 381.5,66.5C 381.448,70.1981 381.114,73.8648 380.5,77.5C 378.757,80.4952 377.757,83.8285 377.5,87.5C 376.626,90.7893 375.959,94.1226 375.5,97.5C 373.245,99.5309 371.912,102.198 371.5,105.5C 370.773,107.954 369.773,110.287 368.5,112.5C 362.326,121.539 357.159,131.206 353,141.5C 351.173,147.551 351.173,153.551 353,159.5C 358.597,164.374 365.097,167.541 372.5,169C 381.716,171.304 391.049,172.97 400.5,174C 403.367,174.801 406.034,174.634 408.5,173.5C 411.455,174.159 414.455,174.492 417.5,174.5C 421.167,174.5 424.833,174.5 428.5,174.5C 431.5,174.5 434.5,174.5 437.5,174.5C 441.198,174.448 444.865,174.114 448.5,173.5C 451.791,172.743 455.124,172.076 458.5,171.5C 461.91,171.543 465.243,171.043 468.5,170C 469.056,169.617 469.389,169.117 469.5,168.5C 471.167,168.5 472.833,168.5 474.5,168.5C 478.434,167.64 482.434,167.307 486.5,167.5C 491.184,168.354 493.517,171.187 493.5,176C 492.131,187.374 485.798,194.374 474.5,197C 452.25,199.519 432.584,207.852 415.5,222C 411.693,223.881 407.693,225.047 403.5,225.5C 389.929,221.544 377.929,214.711 367.5,205C 361.531,200.033 355.865,194.699 350.5,189C 349.552,188.517 348.552,188.351 347.5,188.5C 352.503,203.005 361.17,214.838 373.5,224C 368.021,223.966 362.687,222.966 357.5,221C 348.468,217.148 339.468,213.315 330.5,209.5C 330.351,210.552 330.517,211.552 331,212.5C 343.87,225.52 359.37,233.686 377.5,237C 372.596,242.119 366.596,245.119 359.5,246C 350.78,246.592 342.113,246.092 333.5,244.5C 312.164,247.461 301.831,259.794 302.5,281.5C 303.675,281.719 304.675,281.386 305.5,280.5C 308.748,269.752 315.415,261.919 325.5,257C 344.984,255.3 356.651,264.133 360.5,283.5C 371.096,290.764 380.763,299.097 389.5,308.5C 410.618,338.47 418.951,371.637 414.5,408C 412.765,408.651 411.098,408.485 409.5,407.5C 402.922,400.545 395.922,394.045 388.5,388C 375.992,379.579 363.658,370.913 351.5,362C 344.159,355.837 338.159,348.671 333.5,340.5C 330.33,333.329 327.997,325.996 326.5,318.5C 325.185,312.72 324.185,306.887 323.5,301C 323.471,295.951 324.471,291.117 326.5,286.5C 325.998,285.479 325.332,285.312 324.5,286C 320.656,290.854 318.323,296.354 317.5,302.5C 284.115,354.867 236.115,380.534 173.5,379.5C 173.101,376.304 172.101,373.304 170.5,370.5C 169.9,377.077 168.9,383.577 167.5,390C 167.57,390.765 167.903,391.265 168.5,391.5C 166.038,398.345 164.038,405.345 162.5,412.5C 148.11,444.554 123.11,460.221 87.5,459.5C 69.8673,460.175 53.534,456.009 38.5,447C 36.1531,445.809 35.3198,443.976 36,441.5C 40.9554,440.05 45.7888,438.217 50.5,436C 60.5,427.333 70.5,418.667 80.5,410C 89.0345,404.399 98.0345,399.899 107.5,396.5C 121.581,396.122 134.581,392.289 146.5,385C 113.294,386.813 87.7937,373.647 70,345.5C 66.5203,340.553 64.187,335.219 63,329.5C 78.9452,338.135 95.7786,340.468 113.5,336.5C 112.394,332.223 112.228,327.89 113,323.5C 116.719,322.352 120.552,321.686 124.5,321.5C 131.796,320.645 139.129,319.978 146.5,319.5C 145.349,314.834 145.349,310.167 146.5,305.5C 157.904,300.149 169.904,297.316 182.5,297C 178.683,292.878 176.85,288.044 177,282.5C 187.452,277.738 198.285,274.072 209.5,271.5C 206.768,266.817 205.601,261.817 206,256.5C 215.769,250.966 225.936,246.299 236.5,242.5C 234.427,238.389 233.093,234.055 232.5,229.5C 234.751,225.205 238.084,222.039 242.5,220C 248.008,216.745 253.675,213.745 259.5,211C 255.737,206.89 253.404,202.057 252.5,196.5C 263.565,189.299 275.232,183.133 287.5,178C 291.741,174.655 295.408,170.822 298.5,166.5C 304.774,171.496 311.774,172.662 319.5,170C 328.154,163.458 327.154,160.958 316.5,162.5C 309.14,161.14 304.806,156.806 303.5,149.5C 305.487,138.04 308.987,127.04 314,116.5C 329.23,84.2055 349.73,55.7055 375.5,31C 378.926,29.7619 380.592,30.9286 380.5,34.5 Z"/></g>
<g><path style="opacity:1" fill="#d3e0f2" d="M 380.5,34.5 C 387.563,36.2817 394.063,39.2817 400,43.5C 400.49,44.7932 400.657,46.1266 400.5,47.5C 394.438,46.9543 388.438,46.9543 382.5,47.5C 381.69,43.2239 381.023,38.8906 380.5,34.5 Z"/></g>
<g><path style="opacity:1" fill="#d2dff1" d="M 382.5,56.5 C 388.007,58.6766 392.674,62.0099 396.5,66.5C 396,67.8805 395,68.5472 393.5,68.5C 389.6,67.191 385.6,66.5243 381.5,66.5C 381.187,62.9581 381.521,59.6248 382.5,56.5 Z"/></g>
<g><path style="opacity:1" fill="#9caff2" d="M 380.5,77.5 C 385.44,80.7703 389.773,84.7703 393.5,89.5C 393.113,90.7199 392.28,91.3865 391,91.5C 386.571,89.8562 382.071,88.5229 377.5,87.5C 377.757,83.8285 378.757,80.4952 380.5,77.5 Z"/></g>
<g><path style="opacity:1" fill="#445770" d="M 124.5,321.5 C 120.552,321.686 116.719,322.352 113,323.5C 112.228,327.89 112.394,332.223 113.5,336.5C 95.7786,340.468 78.9452,338.135 63,329.5C 64.187,335.219 66.5203,340.553 70,345.5C 87.7937,373.647 113.294,386.813 146.5,385C 134.581,392.289 121.581,396.122 107.5,396.5C 77.9713,384.472 56.8046,363.805 44,334.5C 39.5119,320.88 35.1786,307.214 31,293.5C 27.7542,285.331 23.2542,277.998 17.5,271.5C 22.1667,268.833 26.8333,266.167 31.5,263.5C 24.1663,252.162 21.8329,239.829 24.5,226.5C 27.909,226.249 31.2423,226.583 34.5,227.5C 35.9956,219.564 37.1623,211.564 38,203.5C 38.7804,200.488 39.9471,197.655 41.5,195C 46.3275,194.116 50.9942,194.616 55.5,196.5C 56.086,196.291 56.586,195.957 57,195.5C 58.9709,190.176 60.1375,184.676 60.5,179C 59.5495,171.723 58.3828,164.557 57,157.5C 64.674,156.103 71.674,157.77 78,162.5C 74.8272,150.108 73.8272,137.441 75,124.5C 75.2189,123.062 75.7189,121.729 76.5,120.5C 86.9165,124.289 95.4165,130.622 102,139.5C 104.855,136.645 107.688,133.812 110.5,131C 105.979,117.204 104.312,103.038 105.5,88.5C 113.04,91.5381 119.54,96.2047 125,102.5C 128,106.833 131,111.167 134,115.5C 147.692,104.974 161.525,94.6408 175.5,84.5C 195.008,133.995 180.674,170.162 132.5,193C 78.0355,204.491 61.5355,235.991 83,287.5C 93.3023,303.223 107.136,314.556 124.5,321.5 Z"/></g>
<g><path style="opacity:1" fill="#9daef2" d="M 375.5,97.5 C 379.449,101.07 382.116,105.403 383.5,110.5C 382.127,110.657 380.793,110.49 379.5,110C 377.18,107.838 374.513,106.338 371.5,105.5C 371.912,102.198 373.245,99.5309 375.5,97.5 Z"/></g>
<g><path style="opacity:1" fill="#465973" d="M 337.5,106.5 C 345.504,108.33 346.504,112.164 340.5,118C 336.003,120.627 333.003,119.461 331.5,114.5C 332.548,111.051 334.548,108.384 337.5,106.5 Z"/></g>
<g><path style="opacity:1" fill="#f16a7d" d="M 368.5,112.5 C 364.899,143.905 378.232,164.238 408.5,173.5C 406.034,174.634 403.367,174.801 400.5,174C 391.049,172.97 381.716,171.304 372.5,169C 365.097,167.541 358.597,164.374 353,159.5C 351.173,153.551 351.173,147.551 353,141.5C 357.159,131.206 362.326,121.539 368.5,112.5 Z"/></g>
<g><path style="opacity:1" fill="#d4e1f3" d="M 486.5,167.5 C 482.434,167.307 478.434,167.64 474.5,168.5C 472.624,162.875 470.958,157.208 469.5,151.5C 471.199,151.34 472.866,151.506 474.5,152C 479.122,156.775 483.122,161.942 486.5,167.5 Z"/></g>
<g><path style="opacity:1" fill="#465973" d="M 303.5,149.5 C 304.806,156.806 309.14,161.14 316.5,162.5C 327.154,160.958 328.154,163.458 319.5,170C 311.774,172.662 304.774,171.496 298.5,166.5C 300.323,160.875 301.99,155.208 303.5,149.5 Z"/></g>
<g><path style="opacity:1" fill="#d3e0f2" d="M 469.5,168.5 C 469.389,169.117 469.056,169.617 468.5,170C 465.243,171.043 461.91,171.543 458.5,171.5C 458.172,167.184 456.839,163.184 454.5,159.5C 455.693,157.616 457.359,157.116 459.5,158C 463.065,161.396 466.398,164.896 469.5,168.5 Z"/></g>
<g><path style="opacity:1" fill="#9caef3" d="M 428.5,174.5 C 424.833,174.5 421.167,174.5 417.5,174.5C 417.528,169.138 417.194,163.805 416.5,158.5C 418.722,158.178 420.556,158.845 422,160.5C 424.982,164.798 427.149,169.464 428.5,174.5 Z"/></g>
<g><path style="opacity:1" fill="#9daff2" d="M 448.5,173.5 C 444.865,174.114 441.198,174.448 437.5,174.5C 437.431,169.146 437.098,163.813 436.5,158.5C 438.144,158.286 439.644,158.62 441,159.5C 443.782,164.066 446.282,168.733 448.5,173.5 Z"/></g>
<g><path style="opacity:1" fill="#445770" d="M 403.5,225.5 C 400.368,232.475 396.201,238.808 391,244.5C 386.5,248.333 382,252.167 377.5,256C 401.932,263.94 419.598,279.44 430.5,302.5C 430.471,304.029 429.804,305.196 428.5,306C 415.471,306.468 402.471,307.301 389.5,308.5C 380.763,299.097 371.096,290.764 360.5,283.5C 356.651,264.133 344.984,255.3 325.5,257C 315.415,261.919 308.748,269.752 305.5,280.5C 304.675,281.386 303.675,281.719 302.5,281.5C 301.831,259.794 312.164,247.461 333.5,244.5C 342.113,246.092 350.78,246.592 359.5,246C 366.596,245.119 372.596,242.119 377.5,237C 359.37,233.686 343.87,225.52 331,212.5C 330.517,211.552 330.351,210.552 330.5,209.5C 339.468,213.315 348.468,217.148 357.5,221C 362.687,222.966 368.021,223.966 373.5,224C 361.17,214.838 352.503,203.005 347.5,188.5C 348.552,188.351 349.552,188.517 350.5,189C 355.865,194.699 361.531,200.033 367.5,205C 377.929,214.711 389.929,221.544 403.5,225.5 Z"/></g>
<g><path style="opacity:1" fill="#465973" d="M 288.5,193.5 C 295.556,193.804 297.556,196.971 294.5,203C 287.143,206.56 283.977,204.393 285,196.5C 286.518,195.837 287.685,194.837 288.5,193.5 Z"/></g>
<g><path style="opacity:1" fill="#455872" d="M 272.5,219.5 C 280.709,218.352 283.042,221.352 279.5,228.5C 272.616,232.147 269.449,230.147 270,222.5C 271.045,221.627 271.878,220.627 272.5,219.5 Z"/></g>
<g><path style="opacity:1" fill="#465973" d="M 281.5,243.5 C 289.709,242.352 292.042,245.352 288.5,252.5C 281.989,256.338 278.489,254.672 278,247.5C 278.69,245.65 279.856,244.316 281.5,243.5 Z"/></g>
<g><path style="opacity:1" fill="#455872" d="M 252.5,254.5 C 259.493,252.996 262.327,255.663 261,262.5C 258.183,265.165 255.017,265.832 251.5,264.5C 248.696,260.852 249.03,257.518 252.5,254.5 Z"/></g>
<g><path style="opacity:1" fill="#455872" d="M 220.5,284.5 C 227.297,285.107 228.964,288.274 225.5,294C 218.143,297.56 214.977,295.393 216,287.5C 217.652,286.601 219.152,285.601 220.5,284.5 Z"/></g>
<g><path style="opacity:1" fill="#41496f" d="M 326.5,318.5 C 325.609,319.11 324.609,319.443 323.5,319.5C 322.577,311.995 321.744,304.328 321,296.5C 320.059,298.727 318.892,300.727 317.5,302.5C 318.323,296.354 320.656,290.854 324.5,286C 325.332,285.312 325.998,285.479 326.5,286.5C 324.471,291.117 323.471,295.951 323.5,301C 324.185,306.887 325.185,312.72 326.5,318.5 Z"/></g>
<g><path style="opacity:1" fill="#465973" d="M 250.5,287.5 C 257.803,287.602 259.803,290.769 256.5,297C 249.909,300.316 246.409,298.483 246,291.5C 247.397,289.93 248.897,288.596 250.5,287.5 Z"/></g>
<g><path style="opacity:1" fill="#455871" d="M 323.5,319.5 C 317.445,324.212 312.279,329.878 308,336.5C 271.159,378.821 224.659,397.154 168.5,391.5C 167.903,391.265 167.57,390.765 167.5,390C 168.9,383.577 169.9,377.077 170.5,370.5C 172.101,373.304 173.101,376.304 173.5,379.5C 236.115,380.534 284.115,354.867 317.5,302.5C 318.892,300.727 320.059,298.727 321,296.5C 321.744,304.328 322.577,311.995 323.5,319.5 Z"/></g>
<g><path style="opacity:1" fill="#455872" d="M 185.5,314.5 C 193.486,313.998 195.486,317.165 191.5,324C 184.113,327.56 180.946,325.393 182,317.5C 183.145,316.364 184.312,315.364 185.5,314.5 Z"/></g>
<g><path style="opacity:1" fill="#455871" d="M 215.5,319.5 C 223.219,318.87 225.219,321.87 221.5,328.5C 214.808,331.967 211.642,329.967 212,322.5C 213.145,321.364 214.312,320.364 215.5,319.5 Z"/></g>
<g><path style="opacity:1" fill="#cdd9f9" d="M 326.5,318.5 C 327.997,325.996 330.33,333.329 333.5,340.5C 310.281,383.47 274.281,408.136 225.5,414.5C 214.187,415.326 202.854,415.66 191.5,415.5C 181.76,415.158 172.093,414.158 162.5,412.5C 164.038,405.345 166.038,398.345 168.5,391.5C 224.659,397.154 271.159,378.821 308,336.5C 312.279,329.878 317.445,324.212 323.5,319.5C 324.609,319.443 325.609,319.11 326.5,318.5 Z"/></g>
<g><path style="opacity:1" fill="#455872" d="M 148.5,335.5 C 156.486,334.998 158.486,338.165 154.5,345C 152.351,345.579 150.185,346.079 148,346.5C 143.794,345.472 142.461,342.805 144,338.5C 145.409,337.219 146.909,336.219 148.5,335.5 Z"/></g>
<g><path style="opacity:1" fill="#455872" d="M 176.5,345.5 C 183.632,345.789 185.298,348.956 181.5,355C 176.688,357.707 173.021,356.707 170.5,352C 171.399,348.737 173.399,346.571 176.5,345.5 Z"/></g>
<g><path style="opacity:1" fill="#455871" d="M 123.5,359.5 C 130.587,357.923 133.753,360.59 133,367.5C 129.817,369.523 126.317,370.023 122.5,369C 119.636,365.376 119.969,362.209 123.5,359.5 Z"/></g>
<g><path style="opacity:1" fill="#445770" d="M 225.5,414.5 C 228.215,436.531 221.548,455.031 205.5,470C 194.609,477.224 182.609,480.724 169.5,480.5C 169.353,476.464 170.853,473.131 174,470.5C 175.725,467.326 177.058,463.993 178,460.5C 178.837,450.429 180.171,440.429 182,430.5C 184.206,424.814 187.372,419.814 191.5,415.5C 202.854,415.66 214.187,415.326 225.5,414.5 Z"/></g>
</svg>
