<?xml version="1.0" encoding="UTF-8"?>
<!DOCTYPE svg PUBLIC "-//W3C//DTD SVG 1.1//EN" "http://www.w3.org/Graphics/SVG/1.1/DTD/svg11.dtd">
<svg xmlns="http://www.w3.org/2000/svg" version="1.1" width="512px" height="512px" style="shape-rendering:geometricPrecision; text-rendering:geometricPrecision; image-rendering:optimizeQuality; fill-rule:evenodd; clip-rule:evenodd" xmlns:xlink="http://www.w3.org/1999/xlink">
<g><path style="opacity:1" fill="#714c44" d="M 430.5,57.5 C 419.611,63.4057 407.944,66.5723 395.5,67C 385.678,73.8234 377.512,82.3234 371,92.5C 366.043,98.813 365.376,105.48 369,112.5C 370.935,114.102 373.101,115.269 375.5,116C 376.252,116.671 376.586,117.504 376.5,118.5C 373.387,126.132 367.72,128.632 359.5,126C 349.853,121.189 347.02,113.689 351,103.5C 366.986,80.8397 384.486,59.3397 403.5,39C 409.288,33.2772 415.621,28.2772 422.5,24C 437.124,16.0884 452.458,14.4217 468.5,19C 478.473,22.4022 487.64,27.2356 496,33.5C 499.732,45.363 495.399,52.0296 483,53.5C 476.144,52.9929 470.977,49.8262 467.5,44C 458.344,37.9305 449.344,38.2638 440.5,45C 436.306,48.5981 432.972,52.7648 430.5,57.5 Z"/></g>
<g><path style="opacity:1" fill="#e6b475" d="M 430.5,57.5 C 432.528,73.1023 438.694,86.769 449,98.5C 453.279,106.671 455.946,115.337 457,124.5C 457.808,134.91 457.641,145.243 456.5,155.5C 444.791,160.035 435.625,167.701 429,178.5C 432.334,188.141 434.501,198.141 435.5,208.5C 435.666,213.511 435.499,218.511 435,223.5C 433.593,230.547 432.093,237.547 430.5,244.5C 424.159,252.851 419.659,262.184 417,272.5C 416.333,277.5 416.333,282.5 417,287.5C 420.119,296.975 422.452,306.642 424,316.5C 425.328,326.866 423.328,336.533 418,345.5C 412.989,352.177 406.823,353.677 399.5,350C 397.106,348.048 395.606,345.548 395,342.5C 394.333,337.167 394.333,331.833 395,326.5C 397.426,320.723 398.926,314.723 399.5,308.5C 397.441,299.153 395.274,289.82 393,280.5C 392.5,273.842 392.334,267.175 392.5,260.5C 396.29,248.457 398.624,236.123 399.5,223.5C 399.719,217.023 398.886,210.689 397,204.5C 393.234,217.206 385.734,227.039 374.5,234C 355.338,245.738 335.005,248.404 313.5,242C 303.236,238.2 293.236,233.866 283.5,229C 270.391,226.48 259.558,230.314 251,240.5C 251.83,244.838 252.997,249.172 254.5,253.5C 262.829,275.554 270.829,297.554 278.5,319.5C 281.744,337.057 279.244,353.724 271,369.5C 266.923,374.73 263.09,380.064 259.5,385.5C 249.288,395.885 240.788,407.552 234,420.5C 232.887,427.715 233.554,434.715 236,441.5C 241.312,447.144 246.979,452.477 253,457.5C 258.664,463.602 258.831,469.768 253.5,476C 251.913,476.862 250.246,477.529 248.5,478C 242.5,478.667 236.5,478.667 230.5,478C 226.71,477.77 223.376,476.437 220.5,474C 215.184,465.206 209.017,457.039 202,449.5C 199.08,438.932 198.747,428.266 201,417.5C 208.024,405.785 213.691,393.451 218,380.5C 220.224,370.025 219.724,359.691 216.5,349.5C 221.813,340.254 224.646,330.254 225,319.5C 222.733,318.065 220.733,318.398 219,320.5C 215.101,325.631 212.268,331.298 210.5,337.5C 209.512,336.205 208.512,334.872 207.5,333.5C 205.167,330.833 202.833,328.167 200.5,325.5C 204.017,315.466 208.85,306.133 215,297.5C 215.486,292.008 212.986,290.175 207.5,292C 201.084,299.995 196.084,308.829 192.5,318.5C 191.883,318.611 191.383,318.944 191,319.5C 183.032,314.451 174.532,310.451 165.5,307.5C 163.135,306.406 160.635,305.739 158,305.5C 128.404,311.686 101.904,324.186 78.5,343C 69.3963,351.253 62.063,360.753 56.5,371.5C 55.0256,372.436 54.0256,373.77 53.5,375.5C 36.31,395.232 29.81,418.232 34,444.5C 36.6956,460.089 41.8622,474.756 49.5,488.5C 33.8214,480.649 23.3214,468.316 18,451.5C 8.97077,417.704 13.3041,385.704 31,355.5C 37.6861,344.128 45.3527,333.461 54,323.5C 70.0697,307.434 85.4031,290.767 100,273.5C 119.933,239.231 146.433,211.064 179.5,189C 203.529,174.65 228.195,161.316 253.5,149C 282.477,136.274 312.144,134.274 342.5,143C 356.129,151.099 370.796,156.433 386.5,159C 404.013,162.13 413.18,154.963 414,137.5C 412.656,131.967 410.823,126.634 408.5,121.5C 426.262,120.913 431.429,112.579 424,96.5C 423,95.1667 422,95.1667 421,96.5C 421.692,108.974 415.859,114.974 403.5,114.5C 395.381,112.932 387.381,113.432 379.5,116C 378.309,116.698 377.309,117.531 376.5,118.5C 376.586,117.504 376.252,116.671 375.5,116C 373.101,115.269 370.935,114.102 369,112.5C 365.376,105.48 366.043,98.813 371,92.5C 377.512,82.3234 385.678,73.8234 395.5,67C 407.944,66.5723 419.611,63.4057 430.5,57.5 Z"/></g>
<g><path style="opacity:1" fill="#8d603a" d="M 391.5,80.5 C 396.083,79.343 398.75,81.0096 399.5,85.5C 397.097,91.295 393.264,92.6283 388,89.5C 386.665,85.3919 387.832,82.3919 391.5,80.5 Z"/></g>
<g><path style="opacity:1" fill="#8c603a" d="M 408.5,121.5 C 407.091,119.028 405.424,116.695 403.5,114.5C 415.859,114.974 421.692,108.974 421,96.5C 422,95.1667 423,95.1667 424,96.5C 431.429,112.579 426.262,120.913 408.5,121.5 Z"/></g>
<g><path style="opacity:1" fill="#e09d7d" d="M 456.5,155.5 C 456.574,164.721 455.241,173.721 452.5,182.5C 448.836,192.501 443.169,201.167 435.5,208.5C 434.501,198.141 432.334,188.141 429,178.5C 435.625,167.701 444.791,160.035 456.5,155.5 Z"/></g>
<g><path style="opacity:1" fill="#8b5f39" d="M 318.5,158.5 C 323.844,158.334 329.177,158.501 334.5,159C 348.259,163.046 361.926,167.38 375.5,172C 385.654,173.326 395.487,172.159 405,168.5C 406.5,168.667 407.333,169.5 407.5,171C 402.827,176.678 396.827,180.344 389.5,182C 383.833,182.667 378.167,182.667 372.5,182C 360.891,178.797 349.558,174.797 338.5,170C 330.484,169.039 322.484,168.039 314.5,167C 311.968,166.388 311.135,164.888 312,162.5C 314.013,160.752 316.18,159.418 318.5,158.5 Z"/></g>
<g><path style="opacity:1" fill="#8e613b" d="M 290.5,160.5 C 293.862,160.07 296.695,161.07 299,163.5C 299.076,168.919 296.243,171.586 290.5,171.5C 285.849,170.807 284.349,168.141 286,163.5C 287.652,162.601 289.152,161.601 290.5,160.5 Z"/></g>
<g><path style="opacity:1" fill="#8d603a" d="M 263.5,167.5 C 265.5,167.5 267.5,167.5 269.5,167.5C 269.451,170.099 268.451,172.266 266.5,174C 242.394,178.718 221.727,189.718 204.5,207C 201.859,209.209 199.025,209.709 196,208.5C 195.333,207.5 195.333,206.5 196,205.5C 214.592,185.953 237.092,173.286 263.5,167.5 Z"/></g>
<g><path style="opacity:1" fill="#895d38" d="M 452.5,182.5 C 449.177,203.412 452.677,223.078 463,241.5C 469.294,249.462 475.96,257.129 483,264.5C 491.957,279.154 494.291,294.821 490,311.5C 483.314,319.092 476.314,319.426 469,312.5C 464.652,304.036 462.318,295.036 462,285.5C 460.941,282.382 459.608,279.382 458,276.5C 450.419,268.85 442.752,261.184 435,253.5C 433.239,250.589 431.739,247.589 430.5,244.5C 432.093,237.547 433.593,230.547 435,223.5C 435.499,218.511 435.666,213.511 435.5,208.5C 443.169,201.167 448.836,192.501 452.5,182.5 Z"/></g>
<g><path style="opacity:1" fill="#f9e0c7" d="M 399.5,223.5 C 379.324,248.596 352.99,262.763 320.5,266C 310.181,268.995 300.514,273.329 291.5,279C 285.332,280.354 279.666,279.354 274.5,276C 268.873,267.581 262.206,260.081 254.5,253.5C 252.997,249.172 251.83,244.838 251,240.5C 259.558,230.314 270.391,226.48 283.5,229C 293.236,233.866 303.236,238.2 313.5,242C 335.005,248.404 355.338,245.738 374.5,234C 385.734,227.039 393.234,217.206 397,204.5C 398.886,210.689 399.719,217.023 399.5,223.5 Z"/></g>
<g><path style="opacity:1" fill="#8b5f39" d="M 178.5,219.5 C 180.167,219.5 181.833,219.5 183.5,219.5C 183.453,222.928 182.287,225.928 180,228.5C 170.364,239.137 160.364,249.471 150,259.5C 139.944,274.729 128.11,288.562 114.5,301C 100.781,311.719 86.7814,322.052 72.5,332C 67.1403,337.55 61.1403,342.05 54.5,345.5C 55.2381,341.357 57.0714,337.69 60,334.5C 72.818,321.689 86.6514,310.189 101.5,300C 117.347,285.415 131.18,269.249 143,251.5C 153.834,239.487 165.668,228.821 178.5,219.5 Z"/></g>
<g><path style="opacity:1" fill="#e19d7e" d="M 399.5,223.5 C 398.624,236.123 396.29,248.457 392.5,260.5C 380.532,271.99 366.532,280.156 350.5,285C 340.102,286.954 329.768,289.121 319.5,291.5C 314.914,293.126 310.581,295.293 306.5,298C 298.384,304.78 289.718,310.78 280.5,316C 279.177,316.816 278.511,317.983 278.5,319.5C 270.829,297.554 262.829,275.554 254.5,253.5C 262.206,260.081 268.873,267.581 274.5,276C 279.666,279.354 285.332,280.354 291.5,279C 300.514,273.329 310.181,268.995 320.5,266C 352.99,262.763 379.324,248.596 399.5,223.5 Z"/></g>
<g><path style="opacity:1" fill="#8e613b" d="M 224.5,271.5 C 229.66,272.68 230.827,275.68 228,280.5C 220.428,286.592 217.761,284.925 220,275.5C 221.397,273.93 222.897,272.596 224.5,271.5 Z"/></g>
<g><path style="opacity:1" fill="#8a5e39" d="M 200.5,325.5 C 197.144,323.802 194.477,321.468 192.5,318.5C 196.084,308.829 201.084,299.995 207.5,292C 212.986,290.175 215.486,292.008 215,297.5C 208.85,306.133 204.017,315.466 200.5,325.5 Z"/></g>
<g><path style="opacity:1" fill="#895d38" d="M 319.5,291.5 C 320.863,312.015 319.363,332.348 315,352.5C 312.174,363.312 306.841,372.645 299,380.5C 286.549,399.372 285.549,418.705 296,438.5C 302.424,444.91 309.924,449.743 318.5,453C 326.486,459.884 327.486,467.551 321.5,476C 303.358,482.932 290.191,477.765 282,460.5C 275.448,455.294 270.448,448.96 267,441.5C 266.465,422.548 263.965,403.882 259.5,385.5C 263.09,380.064 266.923,374.73 271,369.5C 279.244,353.724 281.744,337.057 278.5,319.5C 278.511,317.983 279.177,316.816 280.5,316C 289.718,310.78 298.384,304.78 306.5,298C 310.581,295.293 314.914,293.126 319.5,291.5 Z"/></g>
<g><path style="opacity:1" fill="#f9dfc6" d="M 165.5,307.5 C 166.891,309.792 167.891,312.292 168.5,315C 168.561,316.711 167.894,318.044 166.5,319C 146.585,324.527 126.918,330.861 107.5,338C 88.1813,345.852 71.1813,357.019 56.5,371.5C 62.063,360.753 69.3963,351.253 78.5,343C 101.904,324.186 128.404,311.686 158,305.5C 160.635,305.739 163.135,306.406 165.5,307.5 Z"/></g>
<g><path style="opacity:1" fill="#e19d7f" d="M 165.5,307.5 C 174.532,310.451 183.032,314.451 191,319.5C 191.383,318.944 191.883,318.611 192.5,318.5C 194.477,321.468 197.144,323.802 200.5,325.5C 202.833,328.167 205.167,330.833 207.5,333.5C 173.106,333.812 139.772,339.979 107.5,352C 77.2266,364.618 59.0599,387.118 53,419.5C 51.7946,427.119 51.2946,434.786 51.5,442.5C 42.9817,419.979 43.6484,397.645 53.5,375.5C 54.0256,373.77 55.0256,372.436 56.5,371.5C 71.1813,357.019 88.1813,345.852 107.5,338C 126.918,330.861 146.585,324.527 166.5,319C 167.894,318.044 168.561,316.711 168.5,315C 167.891,312.292 166.891,309.792 165.5,307.5 Z"/></g>
<g><path style="opacity:1" fill="#8d603a" d="M 216.5,349.5 C 214.5,345.5 212.5,341.5 210.5,337.5C 212.268,331.298 215.101,325.631 219,320.5C 220.733,318.398 222.733,318.065 225,319.5C 224.646,330.254 221.813,340.254 216.5,349.5 Z"/></g>
<g><path style="opacity:1" fill="#8c5f3a" d="M 53.5,375.5 C 43.6484,397.645 42.9817,419.979 51.5,442.5C 61.2571,466.731 79.2571,480.231 105.5,483C 107.976,486.416 106.976,488.75 102.5,490C 90.8517,494.228 78.8517,495.562 66.5,494C 60.3743,493.226 54.7077,491.393 49.5,488.5C 41.8622,474.756 36.6956,460.089 34,444.5C 29.81,418.232 36.31,395.232 53.5,375.5 Z"/></g>
</svg>
