<?xml version="1.0" encoding="UTF-8"?>
<!DOCTYPE svg PUBLIC "-//W3C//DTD SVG 1.1//EN" "http://www.w3.org/Graphics/SVG/1.1/DTD/svg11.dtd">
<svg xmlns="http://www.w3.org/2000/svg" version="1.1" width="512px" height="512px" style="shape-rendering:geometricPrecision; text-rendering:geometricPrecision; image-rendering:optimizeQuality; fill-rule:evenodd; clip-rule:evenodd" xmlns:xlink="http://www.w3.org/1999/xlink">
<g><path style="opacity:1" fill="#44566f" d="M 200.5,238.5 C 182.527,263.092 165.027,288.092 148,313.5C 133.046,328.725 114.879,337.059 93.5,338.5C 75.1922,337.596 60.3589,329.929 49,315.5C 45.241,310.309 41.741,304.976 38.5,299.5C 41.4178,284.905 41.9178,270.238 40,255.5C 39.3333,252.833 38.6667,250.167 38,247.5C 5.75764,185.736 5.4243,123.736 37,61.5C 40.4604,55.4099 44.2938,49.5766 48.5,44C 51.2175,42.967 53.0508,43.8003 54,46.5C 55.4411,61.5976 58.7744,76.2643 64,90.5C 64.6667,93.8333 64.6667,97.1667 64,100.5C 60.3156,111.917 58.3156,123.583 58,135.5C 59.3333,136.833 60.6667,136.833 62,135.5C 64.8218,127.2 68.3218,119.2 72.5,111.5C 76.3189,117.798 80.1522,124.131 84,130.5C 85.0234,133.783 85.8567,137.116 86.5,140.5C 83.6415,150.576 80.4749,160.576 77,170.5C 75.8341,174.145 75.1674,177.812 75,181.5C 76.8276,183.807 78.4943,183.474 80,180.5C 85.5469,170.293 91.8802,160.626 99,151.5C 105.969,159.47 113.302,167.136 121,174.5C 125.039,180.674 125.373,187.008 122,193.5C 101.701,214.098 89.3676,238.765 85,267.5C 83.5273,283.138 86.5273,297.805 94,311.5C 103.843,321.74 115.676,324.907 129.5,321C 133.5,319.667 137.5,318.333 141.5,317C 132.472,315.31 125.638,310.476 121,302.5C 117.718,293.317 114.052,284.317 110,275.5C 109.294,273.029 109.627,270.695 111,268.5C 129.735,264.583 148.568,261.083 167.5,258C 179.155,252.51 190.155,246.01 200.5,238.5 Z"/></g>
<g><path style="opacity:1" fill="#a7aed3" d="M 435.5,157.5 C 434.349,164.012 433.349,170.679 432.5,177.5C 414.388,177.974 397.721,173.474 382.5,164C 376.682,157.885 374.016,150.552 374.5,142C 374.644,137.79 375.144,133.624 376,129.5C 379.493,118.357 383.66,107.524 388.5,97C 387.364,93.1253 385.031,92.4586 381.5,95C 378.612,98.2216 376.112,101.722 374,105.5C 371.809,108.482 369.476,108.815 367,106.5C 366.83,96.3249 366.33,86.3249 365.5,76.5C 380.497,66.9972 396.164,58.4972 412.5,51C 418.631,49.7342 424.298,50.7342 429.5,54C 441.243,63.7407 451.576,74.7407 460.5,87C 452.597,93.2014 444.431,99.0348 436,104.5C 436.343,122.177 436.176,139.844 435.5,157.5 Z"/></g>
<g><path style="opacity:1" fill="#f6f6f7" d="M 398.5,68.5 C 410.127,66.9698 415.96,71.9698 416,83.5C 412.78,90.6935 407.28,93.5268 399.5,92C 389.255,84.4908 388.922,76.6575 398.5,68.5 Z"/></g>
<g><path style="opacity:1" fill="#464c70" d="M 401.5,74.5 C 409.828,75.0693 411.495,78.5693 406.5,85C 400.333,86.1667 397.833,83.6667 399,77.5C 400.045,76.6266 400.878,75.6266 401.5,74.5 Z"/></g>
<g><path style="opacity:1" fill="#445770" d="M 365.5,76.5 C 366.33,86.3249 366.83,96.3249 367,106.5C 369.476,108.815 371.809,108.482 374,105.5C 376.112,101.722 378.612,98.2216 381.5,95C 385.031,92.4586 387.364,93.1253 388.5,97C 383.66,107.524 379.493,118.357 376,129.5C 375.144,133.624 374.644,137.79 374.5,142C 374.016,150.552 376.682,157.885 382.5,164C 397.721,173.474 414.388,177.974 432.5,177.5C 433.349,170.679 434.349,164.012 435.5,157.5C 439.5,156.5 443.5,155.5 447.5,154.5C 447.222,162.17 446.889,169.836 446.5,177.5C 458.947,177.477 470.947,175.144 482.5,170.5C 475.717,179.695 468.217,188.362 460,196.5C 452.841,210.821 445.175,224.821 437,238.5C 445.56,275.222 442.893,311.222 429,346.5C 424.134,358.565 418.468,370.231 412,381.5C 408.952,385.01 405.619,385.343 402,382.5C 398.606,361.365 388.773,344.032 372.5,330.5C 369.226,327.277 366.059,323.944 363,320.5C 361.455,317.698 360.622,314.698 360.5,311.5C 362.063,299.644 365.73,288.477 371.5,278C 364.286,270.047 355.619,264.047 345.5,260C 315.702,249.725 285.036,245.725 253.5,248C 239.915,246.372 226.915,242.705 214.5,237C 211.669,235.334 209.336,233.168 207.5,230.5C 209.062,226.608 211.395,223.275 214.5,220.5C 231.764,230.649 250.431,235.149 270.5,234C 275.514,232.788 276.681,229.955 274,225.5C 265.599,220.481 256.432,217.981 246.5,218C 237.985,215.66 233.319,210.16 232.5,201.5C 234.762,196.91 237.762,192.91 241.5,189.5C 241.645,200.476 247.145,206.476 258,207.5C 283.377,204.118 299.377,190.118 306,165.5C 308.557,151.429 306.057,138.429 298.5,126.5C 301.141,124.196 303.808,121.862 306.5,119.5C 307.376,119.369 308.043,119.702 308.5,120.5C 312.91,132.848 319.91,143.348 329.5,152C 333.419,153.862 337.419,155.529 341.5,157C 342.38,158.356 342.714,159.856 342.5,161.5C 329.722,160.14 319.889,164.807 313,175.5C 309.372,185.422 304.706,194.756 299,203.5C 296.567,216.905 301.067,227.072 312.5,234C 327.406,235.46 337.906,229.293 344,215.5C 349.121,202.662 352.121,189.329 353,175.5C 355.155,145.142 354.988,114.809 352.5,84.5C 356.666,81.5825 360.999,78.9159 365.5,76.5 Z"/></g>
<g><path style="opacity:1" fill="#a7aed3" d="M 352.5,84.5 C 354.988,114.809 355.155,145.142 353,175.5C 352.121,189.329 349.121,202.662 344,215.5C 337.906,229.293 327.406,235.46 312.5,234C 301.067,227.072 296.567,216.905 299,203.5C 304.706,194.756 309.372,185.422 313,175.5C 319.889,164.807 329.722,160.14 342.5,161.5C 342.714,159.856 342.38,158.356 341.5,157C 337.419,155.529 333.419,153.862 329.5,152C 319.91,143.348 312.91,132.848 308.5,120.5C 308.043,119.702 307.376,119.369 306.5,119.5C 321.076,106.874 336.409,95.2075 352.5,84.5 Z"/></g>
<g><path style="opacity:1" fill="#a7aed3" d="M 482.5,170.5 C 470.947,175.144 458.947,177.477 446.5,177.5C 446.889,169.836 447.222,162.17 447.5,154.5C 450.157,154.838 452.49,154.171 454.5,152.5C 455.708,147.79 457.041,143.124 458.5,138.5C 463.167,136.5 467.833,134.5 472.5,132.5C 474.296,125.265 475.629,117.931 476.5,110.5C 485.442,117.936 492.275,126.936 497,137.5C 497.791,141.926 497.457,146.259 496,150.5C 492.22,157.751 487.72,164.418 482.5,170.5 Z"/></g>
<g><path style="opacity:1" fill="#a7aed3" d="M 298.5,126.5 C 306.057,138.429 308.557,151.429 306,165.5C 299.377,190.118 283.377,204.118 258,207.5C 247.145,206.476 241.645,200.476 241.5,189.5C 257.975,166.351 276.975,145.351 298.5,126.5 Z"/></g>
<g><path style="opacity:1" fill="#a6add2" d="M 376.5,183.5 C 380.514,183.334 384.514,183.501 388.5,184C 404.485,187.887 420.485,191.554 436.5,195C 419.756,211.034 399.756,218.701 376.5,218C 360.305,214.778 356.138,205.945 364,191.5C 367.579,187.724 371.746,185.057 376.5,183.5 Z"/></g>
<g><path style="opacity:1" fill="#a6add2" d="M 232.5,201.5 C 233.319,210.16 237.985,215.66 246.5,218C 256.432,217.981 265.599,220.481 274,225.5C 276.681,229.955 275.514,232.788 270.5,234C 250.431,235.149 231.764,230.649 214.5,220.5C 219.825,213.509 225.825,207.176 232.5,201.5 Z"/></g>
<g><path style="opacity:1" fill="#a5add1" d="M 413.5,223.5 C 415.355,223.272 416.188,223.939 416,225.5C 405.202,237.967 394.035,250.133 382.5,262C 381.5,262.667 380.5,262.667 379.5,262C 375.759,258.714 371.925,255.547 368,252.5C 363.708,245.415 365.208,239.915 372.5,236C 376.5,234.333 380.5,232.667 384.5,231C 394.439,229.053 404.106,226.553 413.5,223.5 Z"/></g>
<g><path style="opacity:1" fill="#7588b4" d="M 207.5,230.5 C 209.336,233.168 211.669,235.334 214.5,237C 226.915,242.705 239.915,246.372 253.5,248C 285.036,245.725 315.702,249.725 345.5,260C 355.619,264.047 364.286,270.047 371.5,278C 365.73,288.477 362.063,299.644 360.5,311.5C 360.622,314.698 361.455,317.698 363,320.5C 366.059,323.944 369.226,327.277 372.5,330.5C 349.995,358.509 323.328,381.675 292.5,400C 282.834,405.335 272.834,409.835 262.5,413.5C 244.966,418.967 227.3,423.301 209.5,426.5C 174.639,430.074 140.639,426.24 107.5,415C 93.8026,409.496 81.4692,401.996 70.5,392.5C 113.33,402.141 154.33,396.974 193.5,377C 208.205,367.965 220.705,356.465 231,342.5C 233.389,339.401 233.889,336.067 232.5,332.5C 229.154,329.984 225.821,330.151 222.5,333C 189.915,369.194 149.082,386.361 100,384.5C 85.9994,384.77 72.1661,383.437 58.5,380.5C 43.0999,363.663 35.4332,343.663 35.5,320.5C 35.6141,313.234 36.6141,306.234 38.5,299.5C 41.741,304.976 45.241,310.309 49,315.5C 60.3589,329.929 75.1922,337.596 93.5,338.5C 114.879,337.059 133.046,328.725 148,313.5C 165.027,288.092 182.527,263.092 200.5,238.5C 202.833,235.833 205.167,233.167 207.5,230.5 Z"/></g>
<g><path style="opacity:1" fill="#455872" d="M 282.5,259.5 C 287.355,258.964 289.521,260.964 289,265.5C 284.331,274.502 278.497,282.669 271.5,290C 265.277,290.1 263.443,287.266 266,281.5C 269.825,272.851 275.325,265.518 282.5,259.5 Z"/></g>
<g><path style="opacity:1" fill="#445771" d="M 341.5,285.5 C 348.202,285.033 351.535,288.2 351.5,295C 351.506,297.3 351.006,299.466 350,301.5C 323.912,345.249 286.745,375.416 238.5,392C 233.712,391.902 232.379,389.569 234.5,385C 267.865,365.647 297.031,341.147 322,311.5C 328.717,302.956 335.217,294.29 341.5,285.5 Z"/></g>
<g><path style="opacity:1" fill="#455871" d="M 251.5,301.5 C 258,300.499 260.5,303.165 259,309.5C 256.224,317.647 250.724,321.814 242.5,322C 240.813,320.087 240.313,317.92 241,315.5C 243.626,310.059 247.126,305.393 251.5,301.5 Z"/></g>
<g><path style="opacity:1" fill="#445771" d="M 70.5,392.5 C 65.4787,389.479 61.4787,385.479 58.5,380.5C 72.1661,383.437 85.9994,384.77 100,384.5C 149.082,386.361 189.915,369.194 222.5,333C 225.821,330.151 229.154,329.984 232.5,332.5C 233.889,336.067 233.389,339.401 231,342.5C 220.705,356.465 208.205,367.965 193.5,377C 154.33,396.974 113.33,402.141 70.5,392.5 Z"/></g>
<g><path style="opacity:1" fill="#445770" d="M 262.5,413.5 C 257.115,437.874 243.448,455.874 221.5,467.5C 219.813,467.24 218.313,466.573 217,465.5C 217.078,451.959 214.578,438.959 209.5,426.5C 227.3,423.301 244.966,418.967 262.5,413.5 Z"/></g>
</svg>
