<?xml version="1.0" encoding="UTF-8"?>
<!DOCTYPE svg PUBLIC "-//W3C//DTD SVG 1.1//EN" "http://www.w3.org/Graphics/SVG/1.1/DTD/svg11.dtd">
<svg xmlns="http://www.w3.org/2000/svg" version="1.1" width="512px" height="512px" style="shape-rendering:geometricPrecision; text-rendering:geometricPrecision; image-rendering:optimizeQuality; fill-rule:evenodd; clip-rule:evenodd" xmlns:xlink="http://www.w3.org/1999/xlink">
<g><path style="opacity:1" fill="#ed5d7d" d="M 352.5,45.5 C 349.81,42.9614 347.643,39.9614 346,36.5C 339.121,29.1188 330.955,27.4522 321.5,31.5C 343.3,11.1331 368.3,5.79975 396.5,15.5C 397.769,17.6948 397.769,19.8615 396.5,22C 392.714,23.3926 389.048,25.0593 385.5,27C 379.167,32 372.833,37 366.5,42C 362.04,43.992 357.373,45.1587 352.5,45.5 Z"/></g>
<g><path style="opacity:1" fill="#fa9bb4" d="M 352.5,45.5 C 360.869,55.5215 371.535,61.6881 384.5,64C 392.206,64.5222 399.873,64.5222 407.5,64C 409.984,66.2838 410.151,68.7838 408,71.5C 395.722,83.8606 381.222,87.3606 364.5,82C 352.348,76.7604 341.348,69.7604 331.5,61C 328.504,59.3186 325.504,58.8186 322.5,59.5C 315.585,53.67 311.918,46.3367 311.5,37.5C 314.161,34.4977 317.495,32.4977 321.5,31.5C 330.955,27.4522 339.121,29.1188 346,36.5C 347.643,39.9614 349.81,42.9614 352.5,45.5 Z"/></g>
<g><path style="opacity:1" fill="#ed6080" d="M 311.5,37.5 C 311.918,46.3367 315.585,53.67 322.5,59.5C 319.471,62.859 316.471,66.1924 313.5,69.5C 303.479,65.1301 299.479,57.4634 301.5,46.5C 304.211,42.7881 307.544,39.7881 311.5,37.5 Z"/></g>
<g><path style="opacity:1" fill="#f99bb4" d="M 301.5,46.5 C 299.479,57.4634 303.479,65.1301 313.5,69.5C 306.604,80.1843 302.271,91.851 300.5,104.5C 292.997,101.554 285.331,99.2207 277.5,97.5C 280.446,83.833 285.279,70.833 292,58.5C 294.65,54.0251 297.817,50.0251 301.5,46.5 Z"/></g>
<g><path style="opacity:1" fill="#ec5d7e" d="M 243.5,107.5 C 236.761,110.277 229.761,112.61 222.5,114.5C 216.928,111.705 211.594,108.372 206.5,104.5C 204.464,97.3677 207.13,94.5344 214.5,96C 223.059,102.612 232.726,106.446 243.5,107.5 Z"/></g>
<g><path style="opacity:1" fill="#343857" d="M 277.5,97.5 C 285.331,99.2207 292.997,101.554 300.5,104.5C 302.749,105.08 304.415,106.413 305.5,108.5C 305.801,113.048 303.801,116.215 299.5,118C 284.488,123.998 269.488,123.998 254.5,118C 249.477,115.785 247.144,111.952 247.5,106.5C 250.246,102.279 254.246,99.7787 259.5,99C 265.423,97.6959 271.423,97.1959 277.5,97.5 Z"/></g>
<g><path style="opacity:1" fill="#ec5d7e" d="M 212.5,119.5 C 211.585,121.754 210.252,123.754 208.5,125.5C 205.296,126.901 201.963,127.901 198.5,128.5C 189.512,124.919 181.345,119.919 174,113.5C 172.167,106 175,103.167 182.5,105C 191.045,112.772 201.045,117.605 212.5,119.5 Z"/></g>
<g><path style="opacity:1" fill="#c76f7c" d="M 247.5,106.5 C 247.144,111.952 249.477,115.785 254.5,118C 269.488,123.998 284.488,123.998 299.5,118C 303.801,116.215 305.801,113.048 305.5,108.5C 333.078,121.616 347.078,143.616 347.5,174.5C 341.903,174.629 336.903,176.462 332.5,180C 322.204,188.098 316.204,198.598 314.5,211.5C 298.847,220.937 281.847,225.27 263.5,224.5C 266.074,202.827 259.074,184.994 242.5,171C 230.002,164.666 218.836,156.5 209,146.5C 204.869,139.491 204.702,132.491 208.5,125.5C 210.252,123.754 211.585,121.754 212.5,119.5C 215.833,117.833 219.167,116.167 222.5,114.5C 229.761,112.61 236.761,110.277 243.5,107.5C 244.833,107.167 246.167,106.833 247.5,106.5 Z"/></g>
<g><path style="opacity:1" fill="#f99bb4" d="M 447.5,175.5 C 450.201,180.737 452.201,186.237 453.5,192C 453.048,195.409 451.881,198.576 450,201.5C 447.628,203.703 445.461,206.037 443.5,208.5C 440.481,211.501 436.815,213.168 432.5,213.5C 424.637,208.782 420.637,201.782 420.5,192.5C 422.691,189.59 423.691,186.256 423.5,182.5C 422.002,169.798 422.168,157.131 424,144.5C 429.347,126.147 441.513,116.314 460.5,115C 461.591,117.064 461.758,119.231 461,121.5C 446.544,136.929 442.044,154.929 447.5,175.5 Z"/></g>
<g><path style="opacity:1" fill="#70325d" d="M 208.5,125.5 C 204.702,132.491 204.869,139.491 209,146.5C 218.836,156.5 230.002,164.666 242.5,171C 259.074,184.994 266.074,202.827 263.5,224.5C 281.847,225.27 298.847,220.937 314.5,211.5C 314.309,216.899 314.809,222.233 316,227.5C 317.025,229.687 318.525,231.354 320.5,232.5C 320.5,232.833 320.5,233.167 320.5,233.5C 317.124,236.878 313.457,239.878 309.5,242.5C 304.291,245.598 299.291,248.932 294.5,252.5C 287.889,252.178 282.222,254.178 277.5,258.5C 266.072,264.745 254.739,271.245 243.5,278C 242.619,278.708 241.953,279.542 241.5,280.5C 225.427,287.369 210.094,295.535 195.5,305C 168.41,330.449 162.91,359.949 179,393.5C 191.94,402.868 206.44,407.535 222.5,407.5C 231.163,406.75 239.83,406.583 248.5,407C 258.393,410.909 263.727,418.242 264.5,429C 263.302,436.485 262.302,443.985 261.5,451.5C 238.397,447.021 216.397,439.354 195.5,428.5C 194.171,433.794 193.005,439.128 192,444.5C 190.692,446.641 189.192,448.641 187.5,450.5C 210.449,461.988 234.782,468.321 260.5,469.5C 260.641,492.528 249.308,502.695 226.5,500C 207.694,491.765 190.694,480.765 175.5,467C 168.902,462.873 162.235,459.04 155.5,455.5C 175.355,450.869 181.689,438.869 174.5,419.5C 165.011,424.496 155.011,427.996 144.5,430C 139.072,435.431 133.072,440.098 126.5,444C 122.368,445.9 118.034,446.733 113.5,446.5C 109.779,444.646 106.446,442.313 103.5,439.5C 113.952,438.441 122.619,433.941 129.5,426C 133.841,422.828 138.508,420.161 143.5,418C 152.738,416.107 161.738,413.441 170.5,410C 171.517,408.951 171.684,407.784 171,406.5C 169.088,402.34 166.921,398.34 164.5,394.5C 152.3,402.08 139.3,403.58 125.5,399C 116.281,393.145 106.281,390.812 95.5,392C 87.62,394.836 79.62,395.17 71.5,393C 68.7209,391.278 65.7209,390.111 62.5,389.5C 60.5586,385.282 58.8919,380.949 57.5,376.5C 61.9155,378.694 66.5822,380.194 71.5,381C 85.7944,379.915 100.128,379.582 114.5,380C 121.89,382.13 129.223,384.463 136.5,387C 143.5,387.667 150.5,387.667 157.5,387C 158.308,386.692 158.975,386.192 159.5,385.5C 156.167,379.498 153.834,373.165 152.5,366.5C 136.266,365.966 122.766,359.633 112,347.5C 107.348,339.703 101.848,332.536 95.5,326C 88.1487,322.662 80.482,320.329 72.5,319C 63.0744,315.738 56.4077,309.572 52.5,300.5C 52.9088,296.124 53.5755,291.79 54.5,287.5C 64.4852,297.665 76.4852,304.499 90.5,308C 100.138,312.967 108.638,319.467 116,327.5C 123.327,340.496 133.993,349.496 148,354.5C 148.5,354.167 149,353.833 149.5,353.5C 148.013,345.602 148.347,337.769 150.5,330C 143.265,324.765 137.432,318.265 133,310.5C 128.539,301.577 125.206,292.243 123,282.5C 120.608,276.774 116.774,272.274 111.5,269C 92.4211,262.094 81.7545,248.594 79.5,228.5C 80.7693,224.946 82.7693,221.946 85.5,219.5C 87.6538,229.856 92.9871,238.356 101.5,245C 112.541,251.704 122.041,260.204 130,270.5C 137.054,281.942 143.054,293.942 148,306.5C 150.333,309.5 152.667,312.5 155,315.5C 160.052,305.216 166.219,295.716 173.5,287C 170.021,281.876 167.188,276.376 165,270.5C 163.28,258.588 159.28,247.588 153,237.5C 146.522,231.266 139.855,225.266 133,219.5C 128.329,214.168 124.663,208.168 122,201.5C 120.652,194.239 120.152,186.906 120.5,179.5C 122.46,177.844 124.46,176.177 126.5,174.5C 126.077,186.063 129.577,196.397 137,205.5C 153.263,216.701 165.263,231.368 173,249.5C 175.673,259.019 178.84,268.352 182.5,277.5C 183.002,278.521 183.668,278.688 184.5,278C 192.616,271.22 201.282,265.22 210.5,260C 204.482,249.612 200.648,238.445 199,226.5C 196.798,218.424 192.798,211.424 187,205.5C 167.201,190.936 159.701,171.602 164.5,147.5C 165.965,146.263 167.632,145.263 169.5,144.5C 169.187,157.396 173.02,169.063 181,179.5C 200.156,195.471 211.822,215.805 216,240.5C 217.497,245.499 219.664,250.165 222.5,254.5C 233.462,251.191 242.128,244.858 248.5,235.5C 246.235,206.778 232.569,185.611 207.5,172C 193.512,160.873 189.845,147.04 196.5,130.5C 197.167,129.833 197.833,129.167 198.5,128.5C 201.963,127.901 205.296,126.901 208.5,125.5 Z"/></g>
<g><path style="opacity:1" fill="#ed5d7d" d="M 76.5,131.5 C 68.0265,131.577 62.6932,135.744 60.5,144C 61.2982,151.297 65.2982,155.464 72.5,156.5C 64.5012,173.46 51.1679,180.293 32.5,177C 26.0024,175.503 20.5024,172.337 16,167.5C 12.4557,160.5 13.6224,154.333 19.5,149C 26.8333,144.667 34.1667,140.333 41.5,136C 52.7015,130.819 64.3682,129.319 76.5,131.5 Z"/></g>
<g><path style="opacity:1" fill="#f99ab3" d="M 76.5,131.5 C 80.1667,131.5 83.8333,131.5 87.5,131.5C 84.8464,139.236 83.8464,147.236 84.5,155.5C 80.4517,155.395 76.4517,155.728 72.5,156.5C 65.2982,155.464 61.2982,151.297 60.5,144C 62.6932,135.744 68.0265,131.577 76.5,131.5 Z"/></g>
<g><path style="opacity:1" fill="#ed607f" d="M 87.5,131.5 C 88.8333,131.5 90.1667,131.5 91.5,131.5C 94.1873,131.336 96.854,131.503 99.5,132C 93.5666,138.838 91.8999,146.671 94.5,155.5C 91.1667,155.5 87.8333,155.5 84.5,155.5C 83.8464,147.236 84.8464,139.236 87.5,131.5 Z"/></g>
<g><path style="opacity:1" fill="#f99ab3" d="M 91.5,131.5 C 93.4726,130.837 95.6392,130.504 98,130.5C 105.014,130.866 111.847,131.533 118.5,132.5C 112.151,138.862 108.151,146.529 106.5,155.5C 102.5,155.5 98.5,155.5 94.5,155.5C 91.8999,146.671 93.5666,138.838 99.5,132C 96.854,131.503 94.1873,131.336 91.5,131.5 Z"/></g>
<g><path style="opacity:1" fill="#c76f7c" d="M 196.5,130.5 C 189.845,147.04 193.512,160.873 207.5,172C 232.569,185.611 246.235,206.778 248.5,235.5C 242.128,244.858 233.462,251.191 222.5,254.5C 219.664,250.165 217.497,245.499 216,240.5C 211.822,215.805 200.156,195.471 181,179.5C 173.02,169.063 169.187,157.396 169.5,144.5C 173.5,142.167 177.5,139.833 181.5,137.5C 186.081,134.378 191.081,132.044 196.5,130.5 Z"/></g>
<g><path style="opacity:1" fill="#ed6180" d="M 118.5,132.5 C 122.984,132.426 127.317,133.093 131.5,134.5C 121.817,138.826 116.483,146.159 115.5,156.5C 112.43,156.632 109.43,156.299 106.5,155.5C 108.151,146.529 112.151,138.862 118.5,132.5 Z"/></g>
<g><path style="opacity:1" fill="#f99ab3" d="M 131.5,134.5 C 137.202,134.921 142.869,135.588 148.5,136.5C 140.227,143.104 132.561,150.437 125.5,158.5C 121.96,158.247 118.627,157.581 115.5,156.5C 116.483,146.159 121.817,138.826 131.5,134.5 Z"/></g>
<g><path style="opacity:1" fill="#ed5f7e" d="M 148.5,136.5 C 159.487,137.166 170.487,137.499 181.5,137.5C 177.5,139.833 173.5,142.167 169.5,144.5C 167.632,145.263 165.965,146.263 164.5,147.5C 156.928,152.447 149.261,157.113 141.5,161.5C 136.096,160.711 130.763,159.711 125.5,158.5C 132.561,150.437 140.227,143.104 148.5,136.5 Z"/></g>
<g><path style="opacity:1" fill="#c76f7c" d="M 164.5,147.5 C 159.701,171.602 167.201,190.936 187,205.5C 192.798,211.424 196.798,218.424 199,226.5C 200.648,238.445 204.482,249.612 210.5,260C 201.282,265.22 192.616,271.22 184.5,278C 183.668,278.688 183.002,278.521 182.5,277.5C 178.84,268.352 175.673,259.019 173,249.5C 165.263,231.368 153.263,216.701 137,205.5C 129.577,196.397 126.077,186.063 126.5,174.5C 131.313,169.93 136.313,165.597 141.5,161.5C 149.261,157.113 156.928,152.447 164.5,147.5 Z"/></g>
<g><path style="opacity:1" fill="#ed5d7d" d="M 443.5,208.5 C 445.461,206.037 447.628,203.703 450,201.5C 451.881,198.576 453.048,195.409 453.5,192C 452.201,186.237 450.201,180.737 447.5,175.5C 450.306,171.863 453.639,168.696 457.5,166C 464.996,162.875 472.663,160.208 480.5,158C 495.438,146.707 499.938,149.873 494,167.5C 483.632,189.026 466.799,202.692 443.5,208.5 Z"/></g>
<g><path style="opacity:1" fill="#333857" d="M 347.5,174.5 C 349.603,179.251 350.603,184.251 350.5,189.5C 350.042,196.583 349.042,203.583 347.5,210.5C 344.314,217.355 339.648,223.022 333.5,227.5C 329.503,229.997 325.17,231.663 320.5,232.5C 318.525,231.354 317.025,229.687 316,227.5C 314.809,222.233 314.309,216.899 314.5,211.5C 316.204,198.598 322.204,188.098 332.5,180C 336.903,176.462 341.903,174.629 347.5,174.5 Z"/></g>
<g><path style="opacity:1" fill="#c76f7c" d="M 120.5,179.5 C 120.152,186.906 120.652,194.239 122,201.5C 124.663,208.168 128.329,214.168 133,219.5C 139.855,225.266 146.522,231.266 153,237.5C 159.28,247.588 163.28,258.588 165,270.5C 167.188,276.376 170.021,281.876 173.5,287C 166.219,295.716 160.052,305.216 155,315.5C 152.667,312.5 150.333,309.5 148,306.5C 143.054,293.942 137.054,281.942 130,270.5C 122.041,260.204 112.541,251.704 101.5,245C 92.9871,238.356 87.6538,229.856 85.5,219.5C 95.2832,204.659 106.95,191.326 120.5,179.5 Z"/></g>
<g><path style="opacity:1" fill="#f99bb4" d="M 350.5,189.5 C 369.033,195.858 388.033,197.858 407.5,195.5C 407.747,204.595 411.08,212.262 417.5,218.5C 393.484,221.414 370.15,218.747 347.5,210.5C 349.042,203.583 350.042,196.583 350.5,189.5 Z"/></g>
<g><path style="opacity:1" fill="#ed607f" d="M 420.5,192.5 C 420.637,201.782 424.637,208.782 432.5,213.5C 427.775,215.742 422.775,217.408 417.5,218.5C 411.08,212.262 407.747,204.595 407.5,195.5C 411.927,194.819 416.26,193.819 420.5,192.5 Z"/></g>
<g><path style="opacity:1" fill="#ec5d7d" d="M 333.5,227.5 C 330.972,243.369 329.806,259.369 330,275.5C 326.337,278.333 323.004,278 320,274.5C 318.025,260.807 318.192,247.141 320.5,233.5C 320.5,233.167 320.5,232.833 320.5,232.5C 325.17,231.663 329.503,229.997 333.5,227.5 Z"/></g>
<g><path style="opacity:1" fill="#c76f7c" d="M 79.5,228.5 C 81.7545,248.594 92.4211,262.094 111.5,269C 116.774,272.274 120.608,276.774 123,282.5C 125.206,292.243 128.539,301.577 133,310.5C 137.432,318.265 143.265,324.765 150.5,330C 148.347,337.769 148.013,345.602 149.5,353.5C 149,353.833 148.5,354.167 148,354.5C 133.993,349.496 123.327,340.496 116,327.5C 108.638,319.467 100.138,312.967 90.5,308C 76.4852,304.499 64.4852,297.665 54.5,287.5C 59.5461,266.339 67.8794,246.672 79.5,228.5 Z"/></g>
<g><path style="opacity:1" fill="#ec5d7d" d="M 309.5,242.5 C 304.74,254.726 302.907,267.393 304,280.5C 305.822,284.519 305.655,288.352 303.5,292C 299.454,294.364 296.287,293.53 294,289.5C 290.777,277.118 290.944,264.785 294.5,252.5C 299.291,248.932 304.291,245.598 309.5,242.5 Z"/></g>
<g><path style="opacity:1" fill="#ec5e7e" d="M 277.5,258.5 C 275.703,265.491 274.036,272.491 272.5,279.5C 262.683,286.742 252.017,292.409 240.5,296.5C 240.218,291.073 240.551,285.74 241.5,280.5C 241.953,279.542 242.619,278.708 243.5,278C 254.739,271.245 266.072,264.745 277.5,258.5 Z"/></g>
<g><path style="opacity:1" fill="#f99bb4" d="M 272.5,279.5 C 271.81,285.81 271.476,292.143 271.5,298.5C 262.793,305.512 252.793,308.179 241.5,306.5C 240.521,303.375 240.187,300.042 240.5,296.5C 252.017,292.409 262.683,286.742 272.5,279.5 Z"/></g>
<g><path style="opacity:1" fill="#ed6181" d="M 271.5,298.5 C 271.5,302.5 271.5,306.5 271.5,310.5C 266.832,311.889 262.165,313.389 257.5,315C 252.566,316.16 247.566,316.66 242.5,316.5C 241.676,313.236 241.342,309.902 241.5,306.5C 252.793,308.179 262.793,305.512 271.5,298.5 Z"/></g>
<g><path style="opacity:1" fill="#c76f7c" d="M 52.5,300.5 C 56.4077,309.572 63.0744,315.738 72.5,319C 80.482,320.329 88.1487,322.662 95.5,326C 101.848,332.536 107.348,339.703 112,347.5C 122.766,359.633 136.266,365.966 152.5,366.5C 153.834,373.165 156.167,379.498 159.5,385.5C 158.975,386.192 158.308,386.692 157.5,387C 150.5,387.667 143.5,387.667 136.5,387C 129.223,384.463 121.89,382.13 114.5,380C 100.128,379.582 85.7944,379.915 71.5,381C 66.5822,380.194 61.9155,378.694 57.5,376.5C 49.1211,351.507 47.4545,326.173 52.5,300.5 Z"/></g>
<g><path style="opacity:1" fill="#f99bb4" d="M 271.5,310.5 C 271.437,315.203 271.771,319.87 272.5,324.5C 265.213,331.042 256.546,334.042 246.5,333.5C 244.696,327.951 243.363,322.284 242.5,316.5C 247.566,316.66 252.566,316.16 257.5,315C 262.165,313.389 266.832,311.889 271.5,310.5 Z"/></g>
<g><path style="opacity:1" fill="#ed6080" d="M 272.5,324.5 C 273.114,328.135 273.448,331.802 273.5,335.5C 266.973,341.056 259.307,343.389 250.5,342.5C 249.167,339.5 247.833,336.5 246.5,333.5C 256.546,334.042 265.213,331.042 272.5,324.5 Z"/></g>
<g><path style="opacity:1" fill="#f99ab3" d="M 273.5,335.5 C 274.943,339.615 275.943,343.948 276.5,348.5C 274.959,356.2 270.292,359.367 262.5,358C 259.961,356.279 257.628,354.446 255.5,352.5C 253.847,349.193 252.18,345.86 250.5,342.5C 259.307,343.389 266.973,341.056 273.5,335.5 Z"/></g>
<g><path style="opacity:1" fill="#ec5d7d" d="M 276.5,348.5 C 288.74,362.818 290.573,378.485 282,395.5C 270.363,403.869 262.03,401.202 257,387.5C 252.968,375.984 252.468,364.318 255.5,352.5C 257.628,354.446 259.961,356.279 262.5,358C 270.292,359.367 274.959,356.2 276.5,348.5 Z"/></g>
<g><path style="opacity:1" fill="#c76f7c" d="M 62.5,389.5 C 65.7209,390.111 68.7209,391.278 71.5,393C 79.62,395.17 87.62,394.836 95.5,392C 106.281,390.812 116.281,393.145 125.5,399C 139.3,403.58 152.3,402.08 164.5,394.5C 166.921,398.34 169.088,402.34 171,406.5C 171.684,407.784 171.517,408.951 170.5,410C 161.738,413.441 152.738,416.107 143.5,418C 138.508,420.161 133.841,422.828 129.5,426C 122.619,433.941 113.952,438.441 103.5,439.5C 86.0396,425.894 72.3729,409.227 62.5,389.5 Z"/></g>
<g><path style="opacity:1" fill="#c66f7c" d="M 155.5,455.5 C 140.224,458.113 126.224,455.113 113.5,446.5C 118.034,446.733 122.368,445.9 126.5,444C 133.072,440.098 139.072,435.431 144.5,430C 155.011,427.996 165.011,424.496 174.5,419.5C 181.689,438.869 175.355,450.869 155.5,455.5 Z"/></g>
<g><path style="opacity:1" fill="#c66f7c" d="M 261.5,451.5 C 273.693,451.804 277.36,457.304 272.5,468C 268.637,469.354 264.637,469.854 260.5,469.5C 234.782,468.321 210.449,461.988 187.5,450.5C 189.192,448.641 190.692,446.641 192,444.5C 193.005,439.128 194.171,433.794 195.5,428.5C 216.397,439.354 238.397,447.021 261.5,451.5 Z"/></g>
</svg>
