<?xml version="1.0" encoding="UTF-8"?>
<svg version="1.1" xmlns="http://www.w3.org/2000/svg" width="512" height="512">
<path d="M0 0 C3.07282024 0.51213671 5.3598217 1.29899385 8.23046875 2.4453125 C14.72655004 4.84652725 21.24182694 5.92653071 28.0625 7 C52.38498076 11.11294101 80.85664014 19.01771501 96.83984375 39.43359375 C99.1881762 42.4100516 100.55173519 43.44108708 104.39453125 44.0078125 C106.8103369 44.13033407 109.2271716 44.23370531 111.64453125 44.3203125 C122.93815825 45.05351132 130.87949684 49.1557788 138.375 57.5625 C139.014375 58.59375 139.65375 59.625 140.3125 60.6875 C146.73161218 69.63535334 159.94723068 74.10967183 170.03897095 77.4899292 C179.26465272 80.60351474 187.97871927 84.45683221 196.72875977 88.70977783 C200.64512938 90.61123569 204.5772994 92.47956377 208.5078125 94.3515625 C209.2780072 94.71909637 210.0482019 95.08663025 210.84173584 95.46530151 C229.33299769 104.27389244 247.98834812 111.86448266 267.61328125 117.74609375 C268.89827787 118.13402284 270.18327134 118.52196235 271.46826172 118.90991211 C273.95377651 119.65943658 276.44248407 120.38703751 278.93798828 121.10375977 C293.26357761 125.37882661 305.72473438 131.53250926 314.11328125 144.21875 C316.86117003 149.32318737 317.61775137 153.66768288 317.5 159.4375 C317.48195313 160.58992187 317.46390625 161.74234375 317.4453125 162.9296875 C317.41050781 164.23292969 317.41050781 164.23292969 317.375 165.5625 C312.52404662 165.5625 311.98088015 164.66876476 308.5 161.5 C289.28258487 145.26855774 266.01555311 144.16569543 242.08618164 142.95629883 C235.62146348 142.5946637 229.51445987 141.60898662 223.375 139.5625 C220.69336998 139.40960004 218.05784886 139.3241658 215.375 139.3125 C214.1842688 139.30657837 214.1842688 139.30657837 212.96948242 139.30053711 C207.07224981 139.35664614 201.4818857 140.07297975 195.6875 141.125 C183.77642517 143.2189892 173.84210543 142.67451631 162.31982422 138.51293945 C137.18608861 129.69021102 104.05489773 129.84202338 79.91894531 141.15942383 C75.71029978 143.37200597 73.24956133 145.19943446 71.375 149.75 C70.71330923 152.14784023 70.71330923 152.14784023 70.375 154.5625 C70.2087915 155.32755859 70.04258301 156.09261719 69.87133789 156.88085938 C69.37305432 159.57301221 69.17051101 162.12930255 69.05859375 164.86328125 C69.01669922 165.83974609 68.97480469 166.81621094 68.93164062 167.82226562 C68.89232422 168.82966797 68.85300781 169.83707031 68.8125 170.875 C68.74772461 172.41510742 68.74772461 172.41510742 68.68164062 173.98632812 C68.57593175 176.51159569 68.47383532 179.03695562 68.375 181.5625 C69.02235107 181.88822998 69.66970215 182.21395996 70.33666992 182.54956055 C112.05548331 203.6388787 112.05548331 203.6388787 126.375 218.5625 C127.179375 219.37074219 127.98375 220.17898438 128.8125 221.01171875 C145.44677742 238.46085097 152.85565212 262.34964467 160.8125 284.5703125 C166.60427553 300.38338384 175.56931111 313.65475586 189.83203125 322.90625 C192.67376066 324.75708452 195.35376809 326.77263641 198.0625 328.8125 C202.10806914 331.76712914 205.70784282 333.80130861 210.375 335.5625 C216.00656062 337.87698609 219.61948069 339.82183478 222.375 345.5625 C223.02645239 349.55264586 222.75516835 350.99224748 220.5 354.375 C217.86309212 357.089464 217.09876728 357.51818772 213.3125 357.75 C209.375 357.5625 209.375 357.5625 205.66015625 356.57421875 C201.30677787 355.5707568 197.04394048 355.35655603 192.59375 355.2890625 C191.89057144 355.27790909 191.18739288 355.26675568 190.46290588 355.25526428 C187.52815076 355.21644624 184.59369948 355.18940006 181.65869141 355.18164062 C165.70281097 355.11086715 165.70281097 355.11086715 158.375 350.5625 C157.45332031 349.9953125 156.53164063 349.428125 155.58203125 348.84375 C149.76788374 344.51870716 144.23911304 339.94677112 138.77416992 335.19506836 C134.21462843 331.24107649 129.53428439 327.4815762 124.76855469 323.78027344 C120.22974078 320.2506455 115.76338712 316.63970445 111.3125 313 C105.63901182 308.36935298 99.90783915 303.83999837 94.08178711 299.40209961 C89.68677193 296.04431553 85.32474195 292.64427457 80.9609375 289.24609375 C80.13231201 288.60119995 79.30368652 287.95630615 78.44995117 287.29187012 C76.42476617 285.71567169 74.39978723 284.13920935 72.375 282.5625 C72.43679507 289.8659347 72.51430465 297.16903565 72.61071491 304.47210026 C72.65503571 307.86491996 72.69437002 311.25763006 72.72143555 314.65063477 C72.74300581 347.21958832 72.74300581 347.21958832 87.375 375.5625 C87.97183594 376.36945313 88.56867188 377.17640625 89.18359375 378.0078125 C95.55377715 385.43401561 105.09982834 390.06529953 113.77734375 394.23828125 C119.98010166 397.40028867 123.33204134 401.36388051 126.375 407.5625 C128.11120907 413.21096685 128.52308211 419.31225907 125.8125 424.625 C122.70102376 427.09822471 120.29101134 427.33657627 116.375 427.5625 C116.2925 428.47 116.21 429.3775 116.125 430.3125 C115.2744601 433.99817292 114.25706042 435.20445057 111.375 437.5625 C108.27451072 439.11274464 105.79605782 438.85242015 102.375 438.5625 C98.49069304 436.19402014 95.96218134 432.95745319 93.29296875 429.34375 C87.58366935 424.04142714 81.55741794 422.99478449 74.01171875 423.2421875 C73.1390889 423.25259064 72.26645905 423.26299377 71.36738586 423.27371216 C68.59838317 423.30905817 65.83092204 423.37126865 63.0625 423.4375 C45.69372191 423.78832278 33.18860172 423.02914787 17.375 415.0625 C16.08519574 414.4238384 14.79498896 413.78598912 13.50439453 413.14892578 C9.78459888 411.306302 6.07935869 409.43595683 2.375 407.5625 C1.42334961 407.08651367 0.47169922 406.61052734 -0.50878906 406.12011719 C-33.73667772 389.46183522 -65.57928195 367.14431504 -89.625 338.5625 C-90.08680664 338.0144873 -90.54861328 337.46647461 -91.02441406 336.90185547 C-97.88517484 328.72138423 -104.34503996 320.4371469 -110.11035156 311.43945312 C-111.2095726 309.76404792 -112.40919877 308.15532669 -113.625 306.5625 C-121.25048547 306.5625 -129.36685457 314.52770613 -134.7421875 319.52734375 C-138.79194968 323.90478378 -140.82226245 328.07151437 -140.875 334.0625 C-140.7925 335.2175 -140.71 336.3725 -140.625 337.5625 C-139.44744141 337.99949219 -139.44744141 337.99949219 -138.24609375 338.4453125 C-130.23918772 341.56947951 -124.0579735 344.32441713 -119.6875 351.9375 C-118.46672915 356.1024829 -118.54899932 359.24387297 -118.625 363.5625 C-123.49961475 363.66174823 -128.37363497 363.73414581 -133.24902344 363.78222656 C-134.90570325 363.80228009 -136.56231282 363.82953029 -138.21875 363.86425781 C-140.60694758 363.91305512 -142.99420547 363.93553064 -145.3828125 363.953125 C-146.48473434 363.98409271 -146.48473434 363.98409271 -147.60891724 364.01568604 C-152.77810452 364.01791622 -155.63741551 362.79997087 -159.625 359.5625 C-163.38538484 355.03801869 -164.06427971 349.11753287 -165.25 343.5 C-165.67955683 341.52991942 -166.10923941 339.55986625 -166.5390625 337.58984375 C-166.8167749 336.28648071 -166.8167749 336.28648071 -167.10009766 334.95678711 C-167.43518123 333.42833847 -167.79166876 331.90432092 -168.17578125 330.38745117 C-169.88456081 323.44553421 -168.85355687 317.17732314 -165.4140625 310.98046875 C-162.71782763 307.3364308 -159.38410976 304.84509068 -155.80078125 302.10546875 C-152.07189044 299.20417242 -148.72589566 295.94940459 -145.375 292.625 C-144.52627319 291.80177246 -144.52627319 291.80177246 -143.66040039 290.96191406 C-141.91368503 289.21443539 -140.26416885 287.41119538 -138.625 285.5625 C-137.57602539 284.4341272 -137.57602539 284.4341272 -136.50585938 283.28295898 C-132.58944181 278.67632137 -132.58944181 278.67632137 -131.86621094 272.91772461 C-132.90196604 269.95930233 -134.18109976 267.28205856 -135.625 264.5 C-136.61605842 262.37228995 -137.60158119 260.24199417 -138.58203125 258.109375 C-139.09459473 257.02462891 -139.6071582 255.93988281 -140.13525391 254.82226562 C-146.26460213 241.41042402 -150.68188203 227.17271882 -154.4375 212.9375 C-154.83618286 211.44029419 -154.83618286 211.44029419 -155.24291992 209.9128418 C-159.92016577 191.38177313 -162.33014705 172.4219093 -164.25 153.4375 C-164.35516937 152.41392395 -164.46033875 151.3903479 -164.56869507 150.33575439 C-165.27868848 143.41363756 -165.95917902 136.48898927 -166.625 129.5625 C-166.69716736 128.82563965 -166.76933472 128.0887793 -166.84368896 127.32958984 C-168.46701786 110.7268363 -168.83704882 94.17012084 -168.9375 77.5 C-168.94721832 76.55622498 -168.95693665 75.61244995 -168.96694946 74.64007568 C-169.11449782 57.80045377 -167.64008412 41.34593241 -163.125 25.0625 C-162.92519531 24.28003906 -162.72539062 23.49757813 -162.51953125 22.69140625 C-160.55378546 15.36681208 -160.55378546 15.36681208 -157.625 12.5625 C-151.7370944 11.8265118 -151.7370944 11.8265118 -148.96826172 13.65893555 C-146.97313104 16.48627723 -146.95946641 19.02935753 -146.6328125 22.45703125 C-146.52664612 23.49346016 -146.52664612 23.49346016 -146.41833496 24.55082703 C-146.26568253 26.04361884 -146.11839859 27.5369673 -145.97589111 29.03076172 C-145.5914565 33.02032258 -145.15577063 37.0041874 -144.71875 40.98828125 C-144.63033844 41.79762115 -144.54192688 42.60696106 -144.45083618 43.44082642 C-137.33907393 107.24658083 -117.7995529 172.28210455 -79.625 224.5625 C-73.01285815 214.56868062 -66.64377156 204.4386072 -60.4375 194.1875 C-59.76581787 193.08801025 -59.09413574 191.98852051 -58.40209961 190.85571289 C-57.47022827 189.30678345 -57.47022827 189.30678345 -56.51953125 187.7265625 C-55.68192261 186.34138428 -55.68192261 186.34138428 -54.82739258 184.92822266 C-53.3984541 182.55905981 -53.3984541 182.55905981 -53.625 179.5625 C-55.51768456 177.26775474 -55.51768456 177.26775474 -58 174.8125 C-94.82071536 135.72700539 -105.58823522 74.5325764 -105.875 22.8125 C-105.88901855 21.03383545 -105.88901855 21.03383545 -105.90332031 19.21923828 C-105.89703613 17.57157471 -105.89703613 17.57157471 -105.890625 15.890625 C-105.88836914 14.9099707 -105.88611328 13.92931641 -105.88378906 12.91894531 C-105.625 10.5625 -105.625 10.5625 -103.625 8.5625 C-101.14746094 8.57885742 -101.14746094 8.57885742 -98.625 9.5625 C-97.28222656 12.02075195 -97.28222656 12.02075195 -96.265625 15.30078125 C-95.87697266 16.50371826 -95.48832031 17.70665527 -95.08789062 18.94604492 C-94.89042236 19.58706146 -94.6929541 20.228078 -94.48950195 20.88851929 C-93.45391425 24.23623037 -92.34265766 27.55859722 -91.234375 30.8828125 C-91.01450928 31.54619125 -90.79464355 32.20957001 -90.56811523 32.89305115 C-79.87481124 64.83474732 -60.54190705 92.24530504 -37.625 116.5625 C-36.93535156 117.2946875 -36.24570313 118.026875 -35.53515625 118.78125 C-31.15433017 123.29645725 -26.4919714 127.36533995 -21.51171875 131.2109375 C-18.625 133.5625 -18.625 133.5625 -15.95703125 136.4140625 C-12.85434453 139.45110704 -10.76698462 141.19701056 -6.625 142.5625 C-0.35965386 141.62884058 5.31670124 138.40174174 10.94775391 135.65136719 C14.37731783 134.11285833 17.70623248 133.32198491 21.375 132.5 C33.15899838 129.5635757 41.87676738 123.03112205 50.375 114.5625 C51.01179687 113.94890625 51.64859375 113.3353125 52.3046875 112.703125 C63.0626671 101.51482621 67.96256268 85.69821525 68.00585938 70.43432617 C67.69972665 63.37031363 64.84744213 58.82471862 60.375 53.5625 C59.8696875 52.93214844 59.364375 52.30179688 58.84375 51.65234375 C47.7360242 39.21282429 30.07249435 32.27300618 14.375 28 C4.90728139 25.40748438 -0.78606798 21.34774269 -6.625 13.5625 C-8.06930855 10.67388291 -8.00188506 8.76602299 -7.625 5.5625 C-5.31707875 2.44001831 -3.84075146 0.82301817 0 0 Z " fill="#A27E8B" transform="translate(181.625,36.4375)"/>
<path d="M0 0 C10.7356124 4.60313987 20.88469349 10.07426585 30.9375 16 C32.07356689 16.66386719 33.20963379 17.32773438 34.38012695 18.01171875 C67.21206306 37.587331 80.32509531 66.05214675 92.71875 100.80078125 C98.72116711 117.55428938 107.30993526 131.51860666 122.45703125 141.34375 C125.29876066 143.19458452 127.97876809 145.21013641 130.6875 147.25 C134.73306914 150.20462914 138.33284282 152.23880861 143 154 C148.63156062 156.31448609 152.24448069 158.25933478 155 164 C155.65145239 167.99014586 155.38016835 169.42974748 153.125 172.8125 C150.48809212 175.526964 149.72376728 175.95568772 145.9375 176.1875 C142 176 142 176 138.28515625 175.01171875 C133.93177787 174.0082568 129.66894048 173.79405603 125.21875 173.7265625 C124.51557144 173.71540909 123.81239288 173.70425568 123.08790588 173.69276428 C120.15315076 173.65394624 117.21869948 173.62690006 114.28369141 173.61914062 C98.32781097 173.54836715 98.32781097 173.54836715 91 169 C90.07832031 168.4328125 89.15664063 167.865625 88.20703125 167.28125 C82.39288374 162.95620716 76.86411304 158.38427112 71.39916992 153.63256836 C66.83962843 149.67857649 62.15928439 145.9190762 57.39355469 142.21777344 C52.85474078 138.6881455 48.38838712 135.07720445 43.9375 131.4375 C38.20282636 126.75691399 32.40689727 122.18304056 26.51953125 117.6953125 C23.75199137 115.58399342 21.00467563 113.44784388 18.26171875 111.3046875 C17.44300293 110.66523193 16.62428711 110.02577637 15.78076172 109.36694336 C14.15769862 108.09819284 12.53559943 106.82820809 10.91455078 105.55688477 C10.17575684 104.97994873 9.43696289 104.4030127 8.67578125 103.80859375 C8.01489502 103.29095459 7.35400879 102.77331543 6.6730957 102.23999023 C5.01102987 100.93331624 5.01102987 100.93331624 3 100 C2.34912109 97.86132812 2.34912109 97.86132812 1.7734375 95.03125 C1.55034912 93.99282959 1.32726074 92.95440918 1.09741211 91.88452148 C0.85901611 90.76762939 0.62062012 89.6507373 0.375 88.5 C-2.86956407 74.14523104 -8.08091578 62.3735691 -16 50 C-16 45.75968759 -13.96651965 44.96651965 -11 42 C-1.47329929 29.73508591 -0.97725524 14.88129322 0 0 Z " fill="#59465E" transform="translate(249,218)"/>
<path d="M0 0 C12.95461786 2.27273998 24.99997459 8.31690417 36.80886841 13.92156982 C40.06818289 15.46728088 43.33566061 16.99561457 46.6015625 18.52734375 C47.88183875 19.1287375 49.16211226 19.73013709 50.44238281 20.33154297 C69.36243213 29.20469813 88.23545666 37.12010684 108.33474731 42.92807007 C125.7884225 47.97535395 142.29992479 52.87002325 152.73828125 68.65625 C155.48617003 73.76068737 156.24275137 78.10518288 156.125 83.875 C156.10695313 85.02742188 156.08890625 86.17984375 156.0703125 87.3671875 C156.04710937 88.23601562 156.02390625 89.10484375 156 90 C151.14904662 90 150.60588015 89.10626476 147.125 85.9375 C127.90758487 69.70605774 104.64055311 68.60319543 80.71118164 67.39379883 C74.24646348 67.0321637 68.13945987 66.04648662 62 64 C59.31836998 63.84710004 56.68284886 63.7616658 54 63.75 C52.8092688 63.74407837 52.8092688 63.74407837 51.59448242 63.73803711 C45.69744491 63.79414428 40.10661031 64.50950914 34.3125 65.5625 C22.50217277 67.65722083 9.74622841 68.22922497 -1 62 C-8.20879337 56.21280085 -13.29220982 50.7634343 -14.4375 41.4375 C-13.89056149 37.14012597 -12.80894759 35.30051342 -10 32 C-8.68510376 31.01652228 -7.3501344 30.05951467 -6 29.125 C-1.7372068 26.03129374 0.68134785 23.157766 2 18 C2.60433666 11.60022978 2.74059097 5.90871413 0 0 Z " fill="#FE6C5D" transform="translate(343,112)"/>
<path d="M0 0 C2.47753906 0.01635742 2.47753906 0.01635742 5 1 C6.34277344 3.45825195 6.34277344 3.45825195 7.359375 6.73828125 C7.94235352 8.54268677 7.94235352 8.54268677 8.53710938 10.38354492 C8.73457764 11.02456146 8.9320459 11.665578 9.13549805 12.32601929 C10.17108575 15.67373037 11.28234234 18.99609722 12.390625 22.3203125 C12.61049072 22.98369125 12.83035645 23.64707001 13.05688477 24.33055115 C23.75018876 56.27224732 43.08309295 83.68280504 66 108 C66.68964844 108.7321875 67.37929687 109.464375 68.08984375 110.21875 C74.30108655 116.62052172 81.19560639 122.21431072 88.37109375 127.5 C89.20108887 128.11210327 89.20108887 128.11210327 90.04785156 128.73657227 C91.61331244 129.88316281 93.1873203 131.01805668 94.76171875 132.15234375 C95.50035156 132.76207031 96.23898438 133.37179688 97 134 C97 134.66 97 135.32 97 136 C95.72769531 136.67482422 95.72769531 136.67482422 94.4296875 137.36328125 C78.53399893 145.9964226 62.91625928 157.61270112 53 173 C19.79257972 147.90994912 6.40281597 95.94445287 0.8125 57.11328125 C-1.13017999 42.80625257 -2.16990316 28.69603716 -2.25 14.25 C-2.2593457 13.06422363 -2.26869141 11.87844727 -2.27832031 10.65673828 C-2.27413086 9.5582959 -2.26994141 8.45985352 -2.265625 7.328125 C-2.26336914 6.3474707 -2.26111328 5.36681641 -2.25878906 4.35644531 C-2 2 -2 2 0 0 Z " fill="#58455D" transform="translate(78,45)"/>
<path d="M0 0 C3.07282024 0.51213671 5.3598217 1.29899385 8.23046875 2.4453125 C14.72655004 4.84652725 21.24182694 5.92653071 28.0625 7 C57.94909301 12.05383457 81.10451409 22.65812544 102.375 44.5625 C100.16330671 52.60898939 97.57688149 58.04846357 90.375 62.5625 C87.41093127 64.12874086 84.66683748 64.95252705 81.375 65.5625 C80.33730469 65.77003906 79.29960937 65.97757812 78.23046875 66.19140625 C74.53416487 66.60019422 71.94966032 66.62644 68.375 65.5625 C65.54258118 62.60518712 63.61257873 59.52383251 61.53125 56.0234375 C52.68880977 41.20266861 32.31732716 32.77390644 16.22265625 28.3984375 C6.73810218 25.80348124 -1.60586035 22.40141699 -6.85546875 13.46875 C-8.01248249 10.6026449 -8.06225064 8.62325447 -7.625 5.5625 C-5.31707875 2.44001831 -3.84075146 0.82301817 0 0 Z " fill="#FBAC5B" transform="translate(181.625,36.4375)"/>
<path d="M0 0 C3.55449708 1.18483236 3.67999306 1.7289928 5.3046875 4.9375 C5.72363281 5.75089844 6.14257812 6.56429688 6.57421875 7.40234375 C7.00347656 8.25957031 7.43273438 9.11679687 7.875 10 C8.72550852 11.66720477 9.57706874 13.33387344 10.4296875 15 C11.05762207 16.23363281 11.05762207 16.23363281 11.69824219 17.4921875 C13.71400519 21.37551787 15.84812643 25.19080425 18 29 C17.32195312 29.4125 16.64390625 29.825 15.9453125 30.25 C0.54265602 39.42465694 0.54265602 39.42465694 -9 54 C-9.06665376 55.39439664 -9.08538199 56.79169875 -9.0625 58.1875 C-9.041875 59.445625 -9.02125 60.70375 -9 62 C-8.21496094 62.29132813 -7.42992188 62.58265625 -6.62109375 62.8828125 C1.38581228 66.00697951 7.5670265 68.76191713 11.9375 76.375 C13.15827085 80.5399829 13.07600068 83.68137297 13 88 C8.12538525 88.09924823 3.25136503 88.17164581 -1.62402344 88.21972656 C-3.28070325 88.23978009 -4.93731282 88.26703029 -6.59375 88.30175781 C-8.98194758 88.35055512 -11.36920547 88.37303064 -13.7578125 88.390625 C-14.85973434 88.42159271 -14.85973434 88.42159271 -15.98391724 88.45318604 C-21.15310452 88.45541622 -24.01241551 87.23747087 -28 84 C-31.76038484 79.47551869 -32.43927971 73.55503287 -33.625 67.9375 C-34.05455683 65.96741942 -34.48423941 63.99736625 -34.9140625 62.02734375 C-35.0992041 61.15843506 -35.2843457 60.28952637 -35.47509766 59.39428711 C-35.81018123 57.86583847 -36.16666876 56.34182092 -36.55078125 54.82495117 C-38.25956081 47.88303421 -37.22855687 41.61482314 -33.7890625 35.41796875 C-31.09282763 31.7739308 -27.75910976 29.28259068 -24.17578125 26.54296875 C-14.76213256 19.2185965 -6.23052348 10.16559093 0 0 Z " fill="#59465E" transform="translate(50,312)"/>
<path d="M0 0 C5.40302877 4.45451267 10.19241145 9.2318182 14.9375 14.375 C21.97425224 21.96459117 29.0381357 29.43286683 36.90234375 36.17578125 C38.33271184 37.4196954 39.74100725 38.68934069 41.12890625 39.98046875 C69.3429707 66.18947278 111.81924893 95.60684663 152.05859375 94.34765625 C162.68123797 93.0921246 171.52183325 89.4209387 178.375 81.125 C178.91125 80.42375 179.4475 79.7225 180 79 C180.66 79 181.32 79 182 79 C183.4375 81.1171875 183.4375 81.1171875 185 83.875 C187.16744189 87.68883379 187.16744189 87.68883379 190 91 C190 95.99791206 188.06910259 98.84792922 184.81640625 102.390625 C174.98045048 111.10549334 161.23860369 109.65611287 149 109 C144.2201995 108.45703329 139.63482057 107.26350522 135 106 C133.59041016 105.70996094 133.59041016 105.70996094 132.15234375 105.4140625 C111.31310175 100.99969762 90.10373934 89.41745749 73 77 C71.98035156 76.26523437 70.96070313 75.53046875 69.91015625 74.7734375 C50.96561533 60.82039392 32.41225848 43.13039378 18.01171875 24.58203125 C15.52104404 21.38526235 12.88745581 18.32572481 10.25 15.25 C0 3.20317324 0 3.20317324 0 0 Z " fill="#5A475F" transform="translate(79,321)"/>
<path d="M0 0 C3.07475394 2.87878061 5.30986068 5.82332245 7.5625 9.375 C23.53399692 33.68585785 44.59544019 57.14078508 66.71875 76 C70.44194211 79.26416843 74.01786617 82.6874688 77.62475586 86.07910156 C82.25271124 90.39411246 87.05497841 94.35322559 92.0859375 98.1953125 C92.71757812 98.79085937 93.34921875 99.38640625 94 100 C94 100.99 94 101.98 94 103 C88.11863401 102.53816197 83.95500344 100.01516975 79 97.0625 C78.163479 96.57031982 77.32695801 96.07813965 76.46508789 95.57104492 C62.4776805 87.2267177 49.67120875 77.36502021 37.66015625 66.375 C34.87940408 63.89233139 32.01114345 61.54654446 29.125 59.1875 C-5.1190013 30.64299609 -5.1190013 30.64299609 -10 16 C-9.19555664 14.19067383 -9.19555664 14.19067383 -7.91015625 12.20703125 C-7.45576172 11.49482422 -7.00136719 10.78261719 -6.53320312 10.04882812 C-6.04787109 9.31083984 -5.56253906 8.57285156 -5.0625 7.8125 C-4.58103516 7.06291016 -4.09957031 6.31332031 -3.60351562 5.54101562 C-2.4113798 3.6878936 -1.21003348 1.84146534 0 0 Z " fill="#5A475E" transform="translate(112,246)"/>
<path d="M0 0 C0.66 0.33 1.32 0.66 2 1 C1.72430176 1.80034668 1.44860352 2.60069336 1.16455078 3.42529297 C-1.99493754 13.36337115 -2.77735308 22.74525621 -3.125 33.125 C-4.5737544 71.35469933 -4.5737544 71.35469933 -18 84 C-20.21484375 84.73828125 -20.21484375 84.73828125 -22 85 C-31.09737359 71.04728658 -35.69482862 56.29874006 -32.33984375 39.7421875 C-26.92607485 21.79003608 -14.78700632 10.51859213 0 0 Z " fill="#E7ECFC" transform="translate(253,181)"/>
<path d="M0 0 C20.30444646 1.47182149 36.44588359 8.92767151 52.1875 21.58203125 C56.36740598 24.92965507 60.65467391 27.80530435 65.25 30.5625 C65.25 30.8925 65.25 31.2225 65.25 31.5625 C64.64639648 31.6126123 64.04279297 31.66272461 63.42089844 31.71435547 C60.61347597 31.95035877 57.80667159 32.19272557 55 32.4375 C53.98671631 32.52555908 52.97343262 32.61361816 51.92944336 32.7043457 C46.82641246 33.16743869 41.84004446 33.73062202 36.8125 34.75 C26.47531483 36.61188494 14.48214661 35.91406298 5.25 30.5625 C-1.95879337 24.77530085 -7.04220982 19.3259343 -8.1875 10 C-7.4451063 4.16690662 -6.10217983 0.91532697 0 0 Z " fill="#C93645" transform="translate(336.75,143.4375)"/>
<path d="M0 0 C0.66 0 1.32 0 2 0 C2.15855469 0.60328125 2.31710938 1.2065625 2.48046875 1.828125 C3.99788042 7.02588874 5.14617687 10.13183178 10 13 C14.00822135 15.04501089 17.74418006 16.20290604 22.125 17.1875 C42.12235985 22.01790106 63.84566518 30.90921269 78.6171875 45.609375 C81.48389463 48.36761213 83.60717179 49.3617052 87.5 49.5625 C91.95205203 49.28518363 94.64570846 48.0348352 98 45 C99.88568694 41.89985071 99.88568694 41.89985071 101 39 C104.16115776 40.36983503 104.9927092 40.9890638 107 44 C105.82565501 50.58554248 102.3862435 55.54178815 97.1875 59.59375 C93.54723527 61.93392018 90.25213199 63.2120858 86 64 C84.96230469 64.20753906 83.92460937 64.41507812 82.85546875 64.62890625 C79.15916487 65.03769422 76.57466032 65.06394 73 64 C70.16758118 61.04268712 68.23757873 57.96133251 66.15625 54.4609375 C57.31380977 39.64016861 36.94232716 31.21140644 20.84765625 26.8359375 C11.34920362 24.23717861 3.04650361 20.82927265 -2.23828125 11.91015625 C-3.34652517 9.13102151 -3.30842523 6.96088226 -3 4 C-1.625 1.625 -1.625 1.625 0 0 Z " fill="#E06935" transform="translate(177,38)"/>
<path d="M0 0 C6.39936306 0.50191083 6.39936306 0.50191083 9.5625 3.125 C11.90854339 5.32390884 11.90854339 5.32390884 15.1875 5 C18.1133006 4.27553884 18.1133006 4.27553884 19.375 1.9375 C19.684375 0.9784375 19.684375 0.9784375 20 0 C20.33 0 20.66 0 21 0 C21.61479609 8.79499966 21.61479609 8.79499966 19.4375 13.0625 C16.32602376 15.53572471 13.91601134 15.77407627 10 16 C9.9175 16.9075 9.835 17.815 9.75 18.75 C8.8994601 22.43567292 7.88206042 23.64195057 5 26 C1.89951072 27.55024464 -0.57894218 27.28992015 -4 27 C-8.08347057 24.54991766 -9.3975947 22.37217373 -11 18 C-10.25234375 17.93941406 -9.5046875 17.87882812 -8.734375 17.81640625 C-7.25710938 17.69072266 -7.25710938 17.69072266 -5.75 17.5625 C-4.77546875 17.48128906 -3.8009375 17.40007812 -2.796875 17.31640625 C-0.43538247 17.04925416 1.71901065 16.64628032 4 16 C4.66168408 9.85643303 4.66168408 9.85643303 2 4.625 C1.34 4.08875 0.68 3.5525 0 3 C0 2.01 0 1.02 0 0 Z " fill="#533745" transform="translate(288,448)"/>
<path d="M0 0 C6.39936306 0.50191083 6.39936306 0.50191083 9.5625 3.125 C11.90854339 5.32390884 11.90854339 5.32390884 15.1875 5 C18.1133006 4.27553884 18.1133006 4.27553884 19.375 1.9375 C19.684375 0.9784375 19.684375 0.9784375 20 0 C20.33 0 20.66 0 21 0 C21.61479609 8.79499966 21.61479609 8.79499966 19.4375 13.0625 C16.32602376 15.53572471 13.91601134 15.77407627 10 16 C9.67 17.32 9.34 18.64 9 20 C8.87882812 19.39671875 8.75765625 18.7934375 8.6328125 18.171875 C8.38144531 16.97304688 8.38144531 16.97304688 8.125 15.75 C7.96257812 14.96109375 7.80015625 14.1721875 7.6328125 13.359375 C6.58598215 9.45637789 5.58712561 7.46131298 2.375 4.9375 C1.59125 4.298125 0.8075 3.65875 0 3 C0 2.01 0 1.02 0 0 Z " fill="#5E4A60" transform="translate(288,448)"/>
<path d="M0 0 C3.3125 2.125 3.3125 2.125 6 5 C6.59413702 8.30076123 6.54877044 9.99930097 4.9375 12.9375 C1.74262547 14.68952797 -0.57515324 13.90127546 -4 13 C-6.4375 11.3125 -6.4375 11.3125 -8 9 C-8.46181576 5.76728968 -8.57844751 3.91333817 -6.8125 1.125 C-4.23429392 -0.47526584 -2.99879763 -0.55791584 0 0 Z " fill="#5A475E" transform="translate(301,102)"/>
</svg>
