<?xml version="1.0" encoding="UTF-8"?>
<svg version="1.1" xmlns="http://www.w3.org/2000/svg" width="512" height="512">
<path d="M0 0 C25.88413426 19.44770515 38.1038405 47.74913844 42.921875 79.1953125 C43.6932951 85.02720933 44.08922614 90.7757016 44.125 96.65625 C44.13192368 97.43633423 44.13884735 98.21641846 44.14598083 99.0201416 C44.16320472 101.53691692 44.16957366 104.05348093 44.171875 106.5703125 C44.17321442 107.43335999 44.17455383 108.29640747 44.17593384 109.18560791 C44.17084071 124.37330301 43.17971715 139.15898798 40.921875 154.1953125 C40.80440918 155.0315918 40.68694336 155.86787109 40.56591797 156.72949219 C38.228795 173.20161651 32.7841793 187.64561954 24.921875 202.1953125 C24.34308594 203.26910156 23.76429688 204.34289062 23.16796875 205.44921875 C13.07231372 223.41526841 -1.64411283 240.93584631 -19.078125 252.1953125 C-19.738125 252.1953125 -20.398125 252.1953125 -21.078125 252.1953125 C-18.01774999 257.25158426 -14.24828319 261.43403952 -10.26953125 265.79296875 C-4.36375223 272.26721848 -1.42540324 276.60975686 -1.46875 285.63671875 C-2.34467206 290.75187896 -4.73881276 294.46316898 -7.44799805 298.82421875 C-11.00918972 304.67221663 -13.11690026 310.56379203 -14.87353516 317.16845703 C-16.44057562 322.61438354 -18.31603331 325.04491213 -23.078125 328.1953125 C-29.78337446 329.42460823 -33.35046799 327.25708303 -38.87890625 323.5078125 C-41.08062633 321.93907468 -41.08062633 321.93907468 -44.078125 322.1953125 C-46.26597188 324.01678975 -46.26597188 324.01678975 -48.453125 326.3828125 C-49.65195312 327.61451172 -49.65195312 327.61451172 -50.875 328.87109375 C-52.50205497 330.58757904 -54.10842028 332.32373113 -55.703125 334.0703125 C-59.80598199 337.7412898 -63.87899988 339.51472608 -69.390625 339.3203125 C-78.00753939 337.95743318 -84.60055167 330.97829737 -90.6796875 325.1875 C-92.43714122 322.68386482 -92.43131446 321.19237735 -92.078125 318.1953125 C-91.748125 317.8653125 -91.418125 317.5353125 -91.078125 317.1953125 C-89.203958 317.43384285 -87.32997675 317.67393588 -85.45703125 317.921875 C-76.15604626 318.99095373 -70.1386718 318.15609995 -62.6875 312.32421875 C-57.56259887 307.95152085 -53.07271183 303.86707961 -52.140625 296.8828125 C-51.74272683 291.78632952 -53.06511747 288.2788442 -56.078125 284.1953125 C-58.22960414 281.89508913 -60.52915761 280.03683344 -63.078125 278.1953125 C-63.6246875 277.74542969 -64.17125 277.29554688 -64.734375 276.83203125 C-66.60737922 275.36974362 -66.60737922 275.36974362 -70.078125 274.1953125 C-72.34381857 274.53123675 -72.34381857 274.53123675 -74.6953125 275.36328125 C-75.57775635 275.65114502 -76.4602002 275.93900879 -77.36938477 276.2355957 C-81.59291006 277.73200651 -85.74677903 279.36694882 -89.890625 281.0703125 C-91.64172228 281.77915199 -93.39302461 282.48748512 -95.14453125 283.1953125 C-96.40740967 283.70771484 -96.40740967 283.70771484 -97.69580078 284.23046875 C-118.52728242 292.66724016 -118.52728242 292.66724016 -126.078125 292.1953125 C-126.33464844 292.91332031 -126.59117187 293.63132812 -126.85546875 294.37109375 C-132.31996994 306.99356774 -143.38990765 317.10537626 -154.11108398 325.29199219 C-161.80810865 331.20969369 -166.53604882 337.02700777 -168.953125 346.6953125 C-170.06492555 359.2634926 -164.36037838 371.182176 -159.078125 382.1953125 C-155.55199349 380.90632242 -152.69290536 379.37162648 -149.640625 377.1953125 C-141.6997931 371.85803204 -133.90208207 370.88380123 -124.4765625 372.6953125 C-119.42612977 374.18172748 -116.45093457 376.16970108 -113.078125 380.1953125 C-113.90054687 380.41445313 -114.72296875 380.63359375 -115.5703125 380.859375 C-123.83806162 383.20795039 -131.87604351 385.99323101 -138.078125 392.1953125 C-137.376875 392.42605469 -136.675625 392.65679687 -135.953125 392.89453125 C-125.32537293 396.54782102 -118.53028243 400.05499423 -113.078125 410.1953125 C-110.97210153 414.54150107 -110.97210153 414.54150107 -111.453125 417.5078125 C-111.7625 418.343125 -111.7625 418.343125 -112.078125 419.1953125 C-112.88894531 418.85757812 -113.69976562 418.51984375 -114.53515625 418.171875 C-125.55044203 413.73498457 -136.16762153 410.4782823 -148.078125 413.1953125 C-150.0931233 414.3189883 -151.73515943 415.5658206 -153.50390625 417.0390625 C-156.27271913 419.07273151 -158.7175661 419.1953125 -162.078125 419.1953125 C-165.52047824 418.32013795 -168.09891533 417.66300867 -170.14697266 414.59326172 C-172.68938403 409.2554287 -174.75987892 403.81643236 -176.765625 398.2578125 C-183.57350275 379.95035906 -193.36097091 364.10271735 -205.29296875 348.69140625 C-208.88468848 343.6692861 -208.82248919 338.15814482 -208.078125 332.1953125 C-206.74397429 328.94390325 -205.07409011 326.08233347 -203.078125 323.1953125 C-204.23828125 323.91847656 -204.23828125 323.91847656 -205.421875 324.65625 C-219.42640374 333.1490954 -229.07386888 332.46937911 -244.953125 329.6953125 C-262.62434661 326.62384146 -277.0286119 325.8533419 -292.328125 336.4453125 C-301.45629426 345.57348176 -306.29245451 358.3626945 -307.078125 371.1953125 C-306.39105469 370.84597656 -305.70398438 370.49664062 -304.99609375 370.13671875 C-304.09503906 369.68167969 -303.19398438 369.22664063 -302.265625 368.7578125 C-301.37230469 368.30535156 -300.47898437 367.85289062 -299.55859375 367.38671875 C-293.05098387 364.26101637 -284.67467534 363.78098932 -277.7421875 365.9140625 C-273.11577048 368.41919661 -270.23735568 371.99277421 -267.828125 376.5703125 C-266.89132992 379.84909527 -266.94510835 382.80338794 -267.078125 386.1953125 C-267.9134375 385.7621875 -267.9134375 385.7621875 -268.765625 385.3203125 C-269.52875 384.9490625 -270.291875 384.5778125 -271.078125 384.1953125 C-271.820625 383.8034375 -272.563125 383.4115625 -273.328125 383.0078125 C-278.04193563 381.61509572 -282.28385377 382.72724174 -286.953125 383.9453125 C-289.82396789 385.63404361 -290.09697064 387.04160205 -291.078125 390.1953125 C-291.60757388 391.4712843 -292.14968033 392.74206405 -292.703125 394.0078125 C-293.38375 395.585625 -293.38375 395.585625 -294.078125 397.1953125 C-292.16 397.1025 -292.16 397.1025 -290.203125 397.0078125 C-281.71788693 397.06101148 -274.68045198 399.52262298 -268.12890625 404.95703125 C-263.95233121 409.51546458 -260.078125 415.89943959 -260.078125 422.1953125 C-260.696875 421.9271875 -261.315625 421.6590625 -261.953125 421.3828125 C-262.984375 420.9909375 -264.015625 420.5990625 -265.078125 420.1953125 C-265.77164063 419.93105469 -266.46515625 419.66679687 -267.1796875 419.39453125 C-279.12026695 415.29117251 -289.44691376 417.35876089 -301.32592773 420.3984375 C-310.77780788 422.75263916 -320.29526971 424.3933289 -329.078125 419.1953125 C-334.56715968 415.53595605 -337.39108117 411.6212435 -339.078125 405.1953125 C-340.18091173 396.30550109 -338.59882444 389.3042783 -335.078125 381.1953125 C-327.94709407 364.52707455 -326.65271878 348.55088682 -326.56689453 330.66772461 C-326.55117812 328.39146453 -326.51825122 326.11589444 -326.484375 323.83984375 C-326.48890686 322.81791679 -326.48890686 322.81791679 -326.49353027 321.77534485 C-326.40376626 316.04560251 -324.88580773 312.04473569 -320.87890625 307.9453125 C-317.47618335 305.81920391 -314.14043862 304.99308155 -310.265625 304.1953125 C-303.18744035 302.56886652 -297.60722111 300.55356608 -291.58203125 296.52734375 C-279.76806689 288.66812491 -268.3313584 286.10949575 -254.35546875 285.765625 C-248.41792595 285.51070366 -244.14597382 284.20727351 -239.765625 279.9453125 C-237.75338896 276.66611303 -237.52685763 273.98066103 -237.078125 270.1953125 C-244.0762701 266.14590505 -251.07816684 262.10315594 -258.08651733 258.07144165 C-261.92868653 255.86032584 -265.76364127 253.63737106 -269.58837891 251.39624023 C-283.29087727 243.61482839 -297.33531936 238.23683816 -312.38116455 233.68295288 C-388.53532958 210.55335053 -388.53532958 210.55335053 -407.18115234 177.22363281 C-420.15185309 152.57641259 -425.09677533 121.49361663 -417.4609375 94.33203125 C-409.68226834 69.91211086 -393.87756206 52.6246456 -371.23046875 40.6953125 C-351.55702352 31.18412171 -327.75247195 30.55487835 -307.12109375 37.44921875 C-289.25282703 43.94656296 -274.66445288 55.49866921 -262.296875 69.6875 C-256.59293735 76.13455629 -250.26840516 82.895455 -241.390625 84.2578125 C-236.43713862 84.47280757 -233.33640773 83.12932899 -229.5546875 79.890625 C-225.04292995 75.28725816 -223.29810631 69.95114084 -221.3515625 63.890625 C-220.078125 61.1953125 -220.078125 61.1953125 -218.03125 60.25390625 C-216.078125 60.1953125 -216.078125 60.1953125 -214.453125 61.1328125 C-209.64595241 68.34357139 -210.17004513 78.76972604 -211.54296875 86.97265625 C-213.77242441 95.53429366 -218.65274024 101.92410267 -225.8984375 106.94140625 C-235.67236197 112.56404022 -247.28506069 112.44972364 -258.078125 110.1328125 C-268.89297373 107.03876306 -278.12549317 101.31564304 -287.32470703 95.04443359 C-301.45328862 85.45626934 -315.31029977 77.18854036 -333.078125 79.1953125 C-343.93884229 81.45158827 -353.46087862 85.6372185 -359.859375 95.00390625 C-365.1459759 104.50962133 -365.30316371 114.49921013 -362.515625 124.8203125 C-358.52436252 136.59872345 -350.08660171 144.05375812 -339.390625 149.9453125 C-314.03569446 161.6923216 -283.77769742 153.38706492 -257.76998901 148.22476196 C-245.26350048 145.74437557 -232.76902434 143.51647559 -220.078125 142.1953125 C-219.20881348 142.1017749 -218.33950195 142.0082373 -217.44384766 141.91186523 C-208.45099773 141.04607488 -199.47902858 140.99313226 -190.453125 141.0078125 C-189.6514389 141.00908142 -188.84975281 141.01035034 -188.02377319 141.01165771 C-164.9599993 141.08132548 -144.17931931 144.71965209 -121.98876953 151.25 C-101.60852186 157.21899457 -73.91501112 162.61375556 -54.0546875 152.68359375 C-43.99941779 146.6854771 -37.79835427 138.89465957 -34.2890625 127.671875 C-31.96221399 117.34066761 -33.50944911 106.54589185 -35.078125 96.1953125 C-44.44051462 95.39309666 -53.67767543 95.09887533 -63.0703125 95.23828125 C-65.67707595 95.26064382 -68.28384728 95.28210197 -70.890625 95.30273438 C-74.93931651 95.33854214 -78.98772903 95.38174003 -83.03613281 95.44213867 C-86.98493217 95.50020789 -90.93366257 95.52570903 -94.8828125 95.55078125 C-96.6908284 95.58645454 -96.6908284 95.58645454 -98.53536987 95.62284851 C-106.76975301 95.64844744 -112.47127041 94.76781609 -118.5390625 88.7578125 C-119.48652344 87.489375 -119.48652344 87.489375 -120.453125 86.1953125 C-121.10023438 85.3496875 -121.74734375 84.5040625 -122.4140625 83.6328125 C-126.1241519 78.19831535 -126.1241519 78.19831535 -125.984375 75.15234375 C-125.8503125 74.44464844 -125.71625 73.73695312 -125.578125 73.0078125 C-124.96112291 68.70298184 -125.50776331 65.39154756 -126.59765625 61.21484375 C-127.16356916 58.83616918 -127.23527165 56.63108565 -127.078125 54.1953125 C-125.31640625 54.359375 -125.31640625 54.359375 -123.078125 55.1953125 C-121.18359375 57.59375 -121.18359375 57.59375 -119.265625 60.5703125 C-115.91446659 65.4178606 -113.74875118 67.65951791 -108.078125 69.1953125 C-108.24183594 68.50050781 -108.40554688 67.80570312 -108.57421875 67.08984375 C-109.11908496 63.9600309 -109.17550983 61.05733167 -109.140625 57.8828125 C-109.13160156 56.81417969 -109.12257813 55.74554688 -109.11328125 54.64453125 C-109.09587891 53.43216797 -109.09587891 53.43216797 -109.078125 52.1953125 C-108.088125 52.1953125 -107.098125 52.1953125 -106.078125 52.1953125 C-105.37236328 53.56816406 -105.37236328 53.56816406 -104.65234375 54.96875 C-104.02383671 56.16947988 -103.39490837 57.3699893 -102.765625 58.5703125 C-102.45689453 59.17359375 -102.14816406 59.776875 -101.83007812 60.3984375 C-100.15203072 63.57789575 -99.13006172 65.16068802 -96.078125 67.1953125 C-94.758125 67.1953125 -93.438125 67.1953125 -92.078125 67.1953125 C-92.078125 62.2453125 -92.078125 57.2953125 -92.078125 52.1953125 C-91.088125 52.1953125 -90.098125 52.1953125 -89.078125 52.1953125 C-88.07303699 53.98412986 -87.07419764 55.77645946 -86.078125 57.5703125 C-85.2428125 59.06691406 -85.2428125 59.06691406 -84.390625 60.59375 C-83.078125 63.1953125 -83.078125 63.1953125 -83.078125 65.1953125 C-81.098125 64.5353125 -79.118125 63.8753125 -77.078125 63.1953125 C-76.748125 59.5653125 -76.418125 55.9353125 -76.078125 52.1953125 C-72.078125 53.1953125 -72.078125 53.1953125 -70.8125 54.82421875 C-69.90104167 56.61458333 -68.98958333 58.40494792 -68.078125 60.1953125 C-64.54166116 57.95555207 -63.11790163 56.26777097 -62.078125 52.1953125 C-61.26062957 45.01126178 -62.40780002 40.3889859 -66.078125 34.1953125 C-67.398125 34.1953125 -68.718125 34.1953125 -70.078125 34.1953125 C-71.398125 36.5053125 -72.718125 38.8153125 -74.078125 41.1953125 C-75.068125 40.8653125 -76.058125 40.5353125 -77.078125 40.1953125 C-76.748125 37.5553125 -76.418125 34.9153125 -76.078125 32.1953125 C-79.048125 32.1953125 -82.018125 32.1953125 -85.078125 32.1953125 C-86.728125 35.1653125 -88.378125 38.1353125 -90.078125 41.1953125 C-91.068125 41.1953125 -92.058125 41.1953125 -93.078125 41.1953125 C-93.408125 37.5653125 -93.738125 33.9353125 -94.078125 30.1953125 C-97.048125 29.8653125 -100.018125 29.5353125 -103.078125 29.1953125 C-104.728125 32.4953125 -106.378125 35.7953125 -108.078125 39.1953125 C-109.068125 39.1953125 -110.058125 39.1953125 -111.078125 39.1953125 C-111.078125 34.9053125 -111.078125 30.6153125 -111.078125 26.1953125 C-113.718125 26.1953125 -116.358125 26.1953125 -119.078125 26.1953125 C-122.543125 32.6303125 -122.543125 32.6303125 -126.078125 39.1953125 C-127.398125 38.8653125 -128.718125 38.5353125 -130.078125 38.1953125 C-129.90023437 36.64070313 -129.90023437 36.64070313 -129.71875 35.0546875 C-129.58741047 33.68500383 -129.45726462 32.31520533 -129.328125 30.9453125 C-129.24691406 30.26339844 -129.16570312 29.58148438 -129.08203125 28.87890625 C-128.83718391 26.59305963 -128.83718391 26.59305963 -129.078125 23.1953125 C-130.3701437 21.82190679 -131.70282897 20.48531885 -133.078125 19.1953125 C-133.77242529 14.5273829 -132.80861561 12.01833194 -130.078125 8.2578125 C-125.39800443 1.98928738 -120.08940436 -4.30257262 -112.078125 -5.8046875 C-106.24279923 -6.20712376 -100.95335107 -5.33104323 -95.2109375 -4.31640625 C-76.41768397 -1.24668529 -56.70553663 -2.38299705 -38.140625 -6.4296875 C-23.88713618 -9.45971332 -12.14936255 -8.20253574 0 0 Z " fill="#A96062" transform="translate(444.078125,48.8046875)"/>
<path d="M0 0 C25.88413426 19.44770515 38.1038405 47.74913844 42.921875 79.1953125 C43.6932951 85.02720933 44.08922614 90.7757016 44.125 96.65625 C44.13192368 97.43633423 44.13884735 98.21641846 44.14598083 99.0201416 C44.16320472 101.53691692 44.16957366 104.05348093 44.171875 106.5703125 C44.17321442 107.43335999 44.17455383 108.29640747 44.17593384 109.18560791 C44.17084071 124.37330301 43.17971715 139.15898798 40.921875 154.1953125 C40.74567627 155.44973145 40.74567627 155.44973145 40.56591797 156.72949219 C38.228795 173.20161651 32.7841793 187.64561954 24.921875 202.1953125 C24.34308594 203.26910156 23.76429688 204.34289062 23.16796875 205.44921875 C12.73309738 224.01893184 -2.58878087 242.25263945 -21.078125 253.1953125 C-21.93921875 253.70578125 -22.8003125 254.21625 -23.6875 254.7421875 C-30.33714356 258.40145881 -30.33714356 258.40145881 -33.60546875 257.4921875 C-37.48155091 255.45923446 -40.97179833 253.30908839 -44.078125 250.1953125 C-44.953125 247.3203125 -44.953125 247.3203125 -44.078125 244.1953125 C-40.40416826 237.63955327 -34.71169413 233.01514387 -29.078125 228.1953125 C-24.06413501 223.62701051 -19.66554135 218.16427703 -18.83984375 211.1796875 C-18.69923129 206.94651232 -18.83297681 204.07389035 -21.140625 200.4453125 C-23.078125 197.1953125 -23.078125 197.1953125 -22.90234375 194.83203125 C-21.94490145 191.76912343 -20.55388493 189.46275361 -18.828125 186.7578125 C-10.09752867 172.22478281 -6.06107828 154.45875746 -10.078125 137.6953125 C-14.62302263 123.82916649 -21.45822099 112.11479982 -31.078125 101.1953125 C-31.65851532 100.50212921 -32.23890564 99.80894592 -32.83688354 99.09475708 C-39.95872759 93.05901825 -54.21037084 94.97080091 -63.0703125 95.140625 C-65.67707829 95.16589008 -68.28384938 95.19061397 -70.890625 95.21484375 C-74.93930192 95.26230551 -78.98773509 95.32015132 -83.03613281 95.38720703 C-86.98489128 95.45133654 -90.9336657 95.48314903 -94.8828125 95.515625 C-96.08815643 95.54254425 -97.29350037 95.5694635 -98.53536987 95.59719849 C-105.56495401 95.63903494 -110.11734767 95.01325246 -116.078125 91.1953125 C-118.5390625 88.7578125 -118.5390625 88.7578125 -120.453125 86.1953125 C-121.42378906 84.926875 -121.42378906 84.926875 -122.4140625 83.6328125 C-126.1241519 78.19831535 -126.1241519 78.19831535 -125.984375 75.15234375 C-125.8503125 74.44464844 -125.71625 73.73695312 -125.578125 73.0078125 C-124.96112291 68.70298184 -125.50776331 65.39154756 -126.59765625 61.21484375 C-127.16356916 58.83616918 -127.23527165 56.63108565 -127.078125 54.1953125 C-125.31640625 54.359375 -125.31640625 54.359375 -123.078125 55.1953125 C-121.18359375 57.59375 -121.18359375 57.59375 -119.265625 60.5703125 C-115.91446659 65.4178606 -113.74875118 67.65951791 -108.078125 69.1953125 C-108.24183594 68.50050781 -108.40554688 67.80570312 -108.57421875 67.08984375 C-109.11908496 63.9600309 -109.17550983 61.05733167 -109.140625 57.8828125 C-109.13160156 56.81417969 -109.12257813 55.74554688 -109.11328125 54.64453125 C-109.10167969 53.83628906 -109.09007812 53.02804688 -109.078125 52.1953125 C-108.088125 52.1953125 -107.098125 52.1953125 -106.078125 52.1953125 C-105.60761719 53.11054687 -105.13710938 54.02578125 -104.65234375 54.96875 C-104.02383671 56.16947988 -103.39490837 57.3699893 -102.765625 58.5703125 C-102.45689453 59.17359375 -102.14816406 59.776875 -101.83007812 60.3984375 C-100.15203072 63.57789575 -99.13006172 65.16068802 -96.078125 67.1953125 C-94.758125 67.1953125 -93.438125 67.1953125 -92.078125 67.1953125 C-92.078125 62.2453125 -92.078125 57.2953125 -92.078125 52.1953125 C-91.088125 52.1953125 -90.098125 52.1953125 -89.078125 52.1953125 C-88.07303699 53.98412986 -87.07419764 55.77645946 -86.078125 57.5703125 C-85.52125 58.56804687 -84.964375 59.56578125 -84.390625 60.59375 C-83.078125 63.1953125 -83.078125 63.1953125 -83.078125 65.1953125 C-80.108125 64.2053125 -80.108125 64.2053125 -77.078125 63.1953125 C-76.748125 59.5653125 -76.418125 55.9353125 -76.078125 52.1953125 C-72.078125 53.1953125 -72.078125 53.1953125 -70.8125 54.82421875 C-69.90104167 56.61458333 -68.98958333 58.40494792 -68.078125 60.1953125 C-64.54166116 57.95555207 -63.11790163 56.26777097 -62.078125 52.1953125 C-61.26062957 45.01126178 -62.40780002 40.3889859 -66.078125 34.1953125 C-67.398125 34.1953125 -68.718125 34.1953125 -70.078125 34.1953125 C-71.398125 36.5053125 -72.718125 38.8153125 -74.078125 41.1953125 C-75.068125 40.8653125 -76.058125 40.5353125 -77.078125 40.1953125 C-76.748125 37.5553125 -76.418125 34.9153125 -76.078125 32.1953125 C-79.048125 32.1953125 -82.018125 32.1953125 -85.078125 32.1953125 C-86.728125 35.1653125 -88.378125 38.1353125 -90.078125 41.1953125 C-91.068125 41.1953125 -92.058125 41.1953125 -93.078125 41.1953125 C-93.408125 37.5653125 -93.738125 33.9353125 -94.078125 30.1953125 C-97.048125 29.8653125 -100.018125 29.5353125 -103.078125 29.1953125 C-104.728125 32.4953125 -106.378125 35.7953125 -108.078125 39.1953125 C-109.068125 39.1953125 -110.058125 39.1953125 -111.078125 39.1953125 C-111.078125 34.9053125 -111.078125 30.6153125 -111.078125 26.1953125 C-113.718125 26.1953125 -116.358125 26.1953125 -119.078125 26.1953125 C-122.543125 32.6303125 -122.543125 32.6303125 -126.078125 39.1953125 C-127.398125 38.8653125 -128.718125 38.5353125 -130.078125 38.1953125 C-129.95953125 37.15890625 -129.8409375 36.1225 -129.71875 35.0546875 C-129.58741047 33.68500383 -129.45726462 32.31520533 -129.328125 30.9453125 C-129.24691406 30.26339844 -129.16570312 29.58148438 -129.08203125 28.87890625 C-128.83718391 26.59305963 -128.83718391 26.59305963 -129.078125 23.1953125 C-130.3701437 21.82190679 -131.70282897 20.48531885 -133.078125 19.1953125 C-133.77242529 14.5273829 -132.80861561 12.01833194 -130.078125 8.2578125 C-125.39800443 1.98928738 -120.08940436 -4.30257262 -112.078125 -5.8046875 C-106.24279923 -6.20712376 -100.95335107 -5.33104323 -95.2109375 -4.31640625 C-76.41768397 -1.24668529 -56.70553663 -2.38299705 -38.140625 -6.4296875 C-23.88713618 -9.45971332 -12.14936255 -8.20253574 0 0 Z " fill="#AA6162" transform="translate(444.078125,48.8046875)"/>
<path d="M0 0 C16.59070052 8.72609709 27.24107006 28.87134986 33 46 C41.7263269 75.190419 36.69234078 102.66896103 22.85302734 129.19873047 C11.84759795 149.27083375 -4.10605868 169.22603473 -24 181 C-24.86109375 181.51046875 -25.7221875 182.0209375 -26.609375 182.546875 C-33.25901856 186.20614631 -33.25901856 186.20614631 -36.52734375 185.296875 C-40.40342591 183.26392196 -43.89367333 181.11377589 -47 178 C-47.875 175.125 -47.875 175.125 -47 172 C-43.32604326 165.44424077 -37.63356913 160.81983137 -32 156 C-26.98601001 151.43169801 -22.58741635 145.96896453 -21.76171875 138.984375 C-21.62110629 134.75119982 -21.75485181 131.87857785 -24.0625 128.25 C-26 125 -26 125 -25.82421875 122.63671875 C-24.86677645 119.57381093 -23.47575993 117.26744111 -21.75 114.5625 C-13.01940367 100.02947031 -8.98295328 82.26344496 -13 65.5 C-15.06235957 59.0239917 -18.1785472 52.91365774 -21.16015625 46.8203125 C-21.47847412 46.15717041 -21.79679199 45.49402832 -22.12475586 44.81079102 C-22.85842406 43.29290621 -23.61763825 41.78740513 -24.3828125 40.28515625 C-25 38 -25 38 -24.20703125 35.67578125 C-23.74683594 34.89589844 -23.28664063 34.11601562 -22.8125 33.3125 C-18.89467158 26.09432698 -17.12358561 19.32276622 -16.125 11.1875 C-15.54094432 7.25671255 -15.07988903 5.1323162 -13 1.6875 C-8.55755052 -0.81137784 -4.9656109 -1.14305542 0 0 Z " fill="#FBE1CA" transform="translate(447,121)"/>
<path d="M0 0 C1.16402344 0.16242188 2.32804687 0.32484375 3.52734375 0.4921875 C9.83415451 1.19061342 16.14734921 1.14985735 22.48413086 1.13037109 C24.5617601 1.12500191 26.6391741 1.13034943 28.71679688 1.13671875 C35.21921188 1.13963817 41.57143271 1.04247037 48 0 C43.12482399 13.64559316 31.20610216 24.51461051 19.96704102 33.09667969 C12.27001635 39.01438119 7.54207618 44.83169527 5.125 54.5 C4.01319945 67.0681801 9.71774662 78.9868635 15 90 C18.52613151 88.71100992 21.38521964 87.17631398 24.4375 85 C32.3783319 79.66271954 40.17604293 78.68848873 49.6015625 80.5 C54.65199523 81.98641498 57.62719043 83.97438858 61 88 C60.17757812 88.21914063 59.35515625 88.43828125 58.5078125 88.6640625 C50.24006338 91.01263789 42.20208149 93.79791851 36 100 C36.70125 100.23074219 37.4025 100.46148437 38.125 100.69921875 C48.75275207 104.35250852 55.54784257 107.85968173 61 118 C63.10602347 122.34618857 63.10602347 122.34618857 62.625 125.3125 C62.41875 125.869375 62.2125 126.42625 62 127 C61.18917969 126.66226563 60.37835938 126.32453125 59.54296875 125.9765625 C48.52768297 121.53967207 37.91050347 118.2829698 26 121 C23.9850017 122.1236758 22.34296557 123.3705081 20.57421875 124.84375 C17.80540587 126.87741901 15.3605589 127 12 127 C8.55764676 126.12482545 5.97920967 125.46769617 3.93115234 122.39794922 C1.38874097 117.0601162 -0.68175392 111.62111986 -2.6875 106.0625 C-9.49537775 87.75504656 -19.28284591 71.90740485 -31.21484375 56.49609375 C-34.84254068 51.4236685 -34.8531746 46.01031036 -34 40 C-30.48830386 29.94502627 -22.59346298 23.48467995 -14.90625 16.5703125 C-9.36443293 11.57468413 -4.1495809 6.22437135 0 0 Z " fill="#743561" transform="translate(270,341)"/>
<path d="M0 0 C2.53201536 2.53201536 3.46225809 5.10710471 4.9375 8.375 C8.71170357 16.24334097 13.73758523 21.99494474 20 28 C21.19496094 29.16789062 21.19496094 29.16789062 22.4140625 30.359375 C44.72830235 50.33593258 76.95617885 57.37793186 105.671875 61.91015625 C156.57321342 69.99728478 156.57321342 69.99728478 169 87 C178.06717042 100.71532277 182.5794898 114.6747335 184 131 C179.36883997 129.64487927 175.4996473 127.67056747 171.4375 125.125 C170.11439886 124.31587794 168.79010927 123.50869711 167.46484375 122.703125 C166.75183105 122.26935547 166.03881836 121.83558594 165.30419922 121.38867188 C161.06508508 118.83388471 156.78685095 116.34861883 152.5 113.875 C151.27494751 113.15787842 151.27494751 113.15787842 150.02514648 112.42626953 C135.22973548 103.91836505 120.19817307 98.58275969 103.9375 93.625 C70.2455119 83.34451943 30.28757626 70.90182955 11.89697266 38.02832031 C5.59124441 26.04603226 0.93867675 13.61081284 0 0 Z " fill="#E2A084" transform="translate(25,188)"/>
<path d="M0 0 C2.61229341 2.28172542 4.71784947 4.5974206 6.84375 7.3359375 C7.82601562 8.59470703 7.82601562 8.59470703 8.828125 9.87890625 C10.12426744 11.55093 11.41727013 13.22539267 12.70703125 14.90234375 C17.86055011 20.77189082 24.27701899 25.30460032 31.84375 27.3359375 C37.76859744 27.3359375 41.01184483 26.23211538 45.3125 22.13671875 C48.88675346 17.93332374 50.60664869 13.06354192 52.34375 7.8984375 C53.08625 6.135 53.08625 6.135 53.84375 4.3359375 C55.8359375 3.5546875 55.8359375 3.5546875 57.84375 3.3359375 C60.58718227 4.91868689 60.98132303 6.72693453 62.03125 9.7109375 C64.20393213 19.72737036 63.75859757 30.51849267 58.58984375 39.51953125 C53.59360339 46.72119651 47.20379047 51.66877983 38.671875 53.8671875 C18.72747103 57.17288982 2.55003599 49.06031143 -13.40283203 38.18505859 C-27.53008165 28.59779826 -41.3895784 20.32674592 -59.15625 22.3359375 C-67.73546658 24.13726767 -74.92135409 27.43645946 -82.15625 32.3359375 C-76.12014984 19.05074096 -57.97762212 9.1329192 -44.83203125 4.05078125 C-41.62666578 3.03388002 -38.41564845 2.16175816 -35.15625 1.3359375 C-34.15464844 1.03816406 -33.15304688 0.74039063 -32.12109375 0.43359375 C-22.49635637 -2.20682093 -9.24029523 -4.87173981 0 0 Z " fill="#763762" transform="translate(170.15625,105.6640625)"/>
<path d="M0 0 C-0.04640625 0.82242187 -0.0928125 1.64484375 -0.140625 2.4921875 C-0.46582452 12.5501441 1.01161455 20.44236999 8 28 C16.93739773 33.63211179 26.95428731 36.94689124 37 40 C34.89756861 42.10243139 33.65699922 42.65206478 30.9140625 43.6640625 C30.07568848 43.97770752 29.23731445 44.29135254 28.37353516 44.61450195 C27.01301025 45.11469849 27.01301025 45.11469849 25.625 45.625 C19.94430639 47.73730332 14.27760565 49.85569058 8.6875 52.19921875 C-1.17819895 56.32972593 -10.39910383 59.41640934 -21 61 C-21.90911133 61.17200928 -22.81822266 61.34401855 -23.75488281 61.52124023 C-27.24370515 62.03595439 -30.5598495 62.12954285 -34.0859375 62.1328125 C-35.07685898 62.13424759 -35.07685898 62.13424759 -36.08779907 62.13571167 C-37.47780452 62.13638843 -38.86781322 62.13456951 -40.2578125 62.13037109 C-42.36205309 62.12503285 -44.4660786 62.1303244 -46.5703125 62.13671875 C-53.12059807 62.1396318 -59.52440944 62.05416591 -66 61 C-64.59045071 58.0236307 -62.9603312 55.35967603 -61.09375 52.6484375 C-60.51963379 51.80571289 -59.94551758 50.96298828 -59.35400391 50.09472656 C-58.74218262 49.1972168 -58.13036133 48.29970703 -57.5 47.375 C-52.84400533 40.49782972 -48.5368672 33.5749266 -44.625 26.25 C-43.10383895 23.48808866 -41.55909205 20.74064284 -40 18 C-39.18208984 16.54400391 -39.18208984 16.54400391 -38.34765625 15.05859375 C-33.07284347 7.52491996 -24.70132198 6.76938513 -16.19140625 5.16796875 C-11.71756406 4.28889508 -7.87847053 2.80170472 -3.79272461 0.7980957 C-2 0 -2 0 0 0 Z " fill="#E1A083" transform="translate(337,281)"/>
<path d="M0 0 C2.79077052 1.23263478 3.9141087 2.89899093 5.73046875 5.33984375 C9.34086871 10.06322415 13.19696503 14.4339727 17.2578125 18.7734375 C20.62713579 22.79155828 20.67664709 27.28257873 20.65234375 32.34375 C19.77642169 37.45891021 17.38228099 41.17020023 14.6730957 45.53125 C11.11190403 51.37924788 9.00419349 57.27082328 7.24755859 63.87548828 C5.68051813 69.32141479 3.80506044 71.75194338 -0.95703125 74.90234375 C-7.56469961 76.11374962 -11.275852 74.00586944 -16.85546875 70.5078125 C-18.95703125 68.90234375 -18.95703125 68.90234375 -20.95703125 65.90234375 C-19.93609375 64.91234375 -19.93609375 64.91234375 -18.89453125 63.90234375 C-17.91049997 62.9071303 -16.93193776 61.90649745 -15.95703125 60.90234375 C-15.37953125 60.309375 -14.80203125 59.71640625 -14.20703125 59.10546875 C-8.26174707 52.69891252 -4.82597223 46.8320913 -4.39453125 37.96484375 C-4.80871626 27.76553781 -9.8023193 21.47046324 -16.96875 14.6171875 C-18.8478382 12.85464489 -18.8478382 12.85464489 -20.95703125 11.90234375 C-20.95703125 11.24234375 -20.95703125 10.58234375 -20.95703125 9.90234375 C-19.83683594 9.34804688 -18.71664063 8.79375 -17.5625 8.22265625 C-16.08979087 7.49099184 -14.61713753 6.75921514 -13.14453125 6.02734375 C-12.40654297 5.66253906 -11.66855469 5.29773438 -10.90820312 4.921875 C-10.19599609 4.56738281 -9.48378906 4.21289062 -8.75 3.84765625 C-8.09539795 3.52297363 -7.4407959 3.19829102 -6.76635742 2.86376953 C-1.25876467 -0.06281261 -1.25876467 -0.06281261 0 0 Z " fill="#753661" transform="translate(421.95703125,302.09765625)"/>
<path d="M0 0 C3.08381532 2.94973639 4.1689045 4.77730791 4.3125 9.0625 C4.2222328 16.0807747 1.28100716 22.24267888 -3.37890625 27.46875 C-6.26745092 30.19720666 -9.4267425 32.58347779 -12.59765625 34.97265625 C-17.92465013 39.46811937 -21.07907746 44.09308092 -22 51 C-21.42765625 51.26554687 -20.8553125 51.53109375 -20.265625 51.8046875 C-17.8923988 53.05676891 -15.87786714 54.4936352 -13.75 56.125 C-13.04359375 56.66382813 -12.3371875 57.20265625 -11.609375 57.7578125 C-11.07828125 58.16773438 -10.5471875 58.57765625 -10 59 C-16.78675176 64.22278571 -16.78675176 64.22278571 -21.3671875 63.76171875 C-30.30490894 61.17587946 -37.74753766 51.49191834 -44 45 C-42.66090077 40.9827023 -39.99335388 39.30672714 -36.75 36.8125 C-36.12391846 36.3263623 -35.49783691 35.84022461 -34.8527832 35.33935547 C-27.31975532 29.585209 -19.31971817 24.73644848 -10.9375 20.3125 C-5.68526996 17.43627879 -2.73882365 13.7514936 -1 8 C-0.5672692 5.33398039 -0.2735396 2.68980606 0 0 Z " fill="#E19F83" transform="translate(422,248)"/>
<path d="M0 0 C4.32901152 3.48203101 7.33278464 6.91474623 8.875 12.3125 C8.95146165 14.6445802 8.96643299 16.98095878 8.875 19.3125 C8.318125 19.02375 7.76125 18.735 7.1875 18.4375 C6.424375 18.06625 5.66125 17.695 4.875 17.3125 C4.1325 16.920625 3.39 16.52875 2.625 16.125 C-2.08881063 14.73228322 -6.33072877 15.84442924 -11 17.0625 C-13.87084289 18.75123111 -14.14384564 20.15878955 -15.125 23.3125 C-15.65444888 24.5884718 -16.19655533 25.85925155 -16.75 27.125 C-17.20375 28.176875 -17.6575 29.22875 -18.125 30.3125 C-23.61101863 29.03668171 -25.86452441 26.84093832 -29.125 22.3125 C-31.30547273 18.80209355 -31.5046124 15.65229326 -31.75 11.5625 C-31.82476562 10.39203125 -31.89953125 9.2215625 -31.9765625 8.015625 C-32.02554688 7.12359375 -32.07453125 6.2315625 -32.125 5.3125 C-30.92209989 4.51260196 -29.71233705 3.72302176 -28.5 2.9375 C-27.49066406 2.27621094 -27.49066406 2.27621094 -26.4609375 1.6015625 C-18.97495003 -2.52950082 -7.81665086 -4.1880971 0 0 Z " fill="#753661" transform="translate(168.125,415.6875)"/>
<path d="M0 0 C12.17244978 -0.49810536 22.51055907 4.79056894 32.390625 11.328125 C36.61781189 14.03656211 39.75995389 14.11128759 44.6875 14.0625 C45.86699219 14.05347656 47.04648437 14.04445313 48.26171875 14.03515625 C49.16535156 14.02355469 50.06898438 14.01195313 51 14 C51 15.32 51 16.64 51 18 C45.63246559 20.74086864 41.03519974 22.10710645 35 21 C32.29893195 19.82026881 29.79498292 18.50136666 27.26171875 16.99609375 C25.12673239 15.85310227 25.12673239 15.85310227 23.13671875 16.09765625 C19.31585859 17.71121877 15.83381848 19.94898476 12.30859375 22.1171875 C8.53024533 24.36288699 5.37827879 25.57154458 1 26 C1.495 25.05125 1.99 24.1025 2.5 23.125 C4.82340556 17.61108058 5.03589008 12.0314359 3.09765625 6.359375 C2.13901256 4.1896334 1.12851243 2.0857328 0 0 Z " fill="#763662" transform="translate(378,82)"/>
<path d="M0 0 C5.23880078 0.55145271 9.97350697 1.42922093 15 3 C13.43059929 17.30443357 9.59132956 29.76009733 4 43 C2.35 42.67 0.7 42.34 -1 42 C-1.14733758 27.97018844 -0.71069074 14.01157028 0 0 Z " fill="#763761" transform="translate(303,196)"/>
<path d="M0 0 C0.495 1.485 0.495 1.485 1 3 C-2.62005632 9.54394797 -7.37771677 12.83270022 -13.9375 16.125 C-23.75104762 21.29941602 -32.55053179 27.83770568 -41 35 C-44.71045247 33.42219077 -47.29906384 31.09296752 -50.25 28.375 C-51.14203125 27.55773437 -52.0340625 26.74046875 -52.953125 25.8984375 C-53.62859375 25.27195312 -54.3040625 24.64546875 -55 24 C-54.67 23.34 -54.34 22.68 -54 22 C-53.175 22.165 -52.35 22.33 -51.5 22.5 C-50.345 22.665 -49.19 22.83 -48 23 C-46.7625 23.185625 -45.525 23.37125 -44.25 23.5625 C-39.16530711 23.51444052 -36.43581369 20.35037345 -32.76171875 17.16015625 C-27.10030059 12.73191829 -20.29828364 10.33095446 -13.6796875 7.66015625 C-12.63039063 7.23605469 -11.58109375 6.81195313 -10.5 6.375 C-9.5615625 6.01148438 -8.623125 5.64796875 -7.65625 5.2734375 C-4.72045471 3.8659827 -2.46326325 2.11519344 0 0 Z " fill="#773862" transform="translate(420,256)"/>
<path d="M0 0 C4.95 0 9.9 0 15 0 C12.34591747 8.89408849 9.61429292 17.76330565 6.87304688 26.63085938 C5.19436052 32.07310342 3.53211362 37.51455693 2 43 C0.35 43 -1.3 43 -3 43 C-3.43208767 28.38903549 -2.19015862 14.44461756 0 0 Z " fill="#763662" transform="translate(267,191)"/>
<path d="M0 0 C0.79019531 0.00902344 1.58039063 0.01804688 2.39453125 0.02734375 C3.28205078 0.04474609 3.28205078 0.04474609 4.1875 0.0625 C3.52962074 4.21100922 2.15306892 7.70967795 0.5 11.5625 C-2.58172509 18.92827561 -4.75962775 26.46926535 -6.80737305 34.1796875 C-7.04109619 35.04464844 -7.27481934 35.90960938 -7.515625 36.80078125 C-7.71833008 37.57462158 -7.92103516 38.34846191 -8.12988281 39.14575195 C-8.8125 41.0625 -8.8125 41.0625 -10.8125 43.0625 C-12.9375 42.6875 -12.9375 42.6875 -14.8125 42.0625 C-13.04390052 12.71708453 -13.04390052 12.71708453 -9.8125 1.0625 C-6.4745111 0.30952559 -3.41964911 -0.05103954 0 0 Z " fill="#763762" transform="translate(240.8125,189.9375)"/>
<path d="M0 0 C6.93 0.495 6.93 0.495 14 1 C13.48543718 12.32038215 10.33528174 23.19766192 3 32 C1.68 31.34 0.36 30.68 -1 30 C-1.20272358 19.97644511 -0.58039956 10.00152811 0 0 Z " fill="#773862" transform="translate(340,205)"/>
<path d="M0 0 C0.33 0 0.66 0 1 0 C0.56140288 12.17107017 -1.91472276 22.96252391 -9 33 C-12.04189468 30.05028395 -14.96422641 27.01273229 -17.8125 23.875 C-18.41707031 23.21242187 -19.02164062 22.54984375 -19.64453125 21.8671875 C-21 20 -21 20 -21 17 C-20.41992188 16.82984375 -19.83984375 16.6596875 -19.2421875 16.484375 C-10.21042246 13.68244129 -5.79349815 10.39134047 -1.19921875 2.046875 C-0.80347656 1.37140625 -0.40773438 0.6959375 0 0 Z " fill="#E1A085" transform="translate(431,127)"/>
<path d="M0 0 C0.66 0.33 1.32 0.66 2 1 C-2.91306553 4.03716778 -7.31674286 5.80368806 -12.875 7.25 C-21.53175553 9.71965992 -26.50491863 14.05683128 -32.4375 20.75 C-36.14472056 24.00512049 -40.38187471 25.39486519 -45 27 C-42.60567426 18.42033276 -36.49528538 12.30363648 -29.125 7.5 C-23.9153266 4.62903447 -18.83562195 3.77089892 -13 3 C-11.16383504 2.66081953 -9.33024922 2.30727419 -7.5 1.9375 C-6.30890625 1.70353516 -6.30890625 1.70353516 -5.09375 1.46484375 C-2.82459333 0.99880647 -2.82459333 0.99880647 0 0 Z " fill="#783962" transform="translate(370,259)"/>
<path d="M0 0 C0.33 0.66 0.66 1.32 1 2 C-0.16151214 4.25999649 -1.37050596 6.39570419 -2.6875 8.5625 C-5.85586342 13.91808294 -8.61624828 19.23926668 -11 25 C-12.65 24.67 -14.3 24.34 -16 24 C-16.56531316 16.79225725 -15.40870366 9.43461173 -12 3 C-8.12215582 1.22609255 -4.20899591 0.60128513 0 0 Z " fill="#783861" transform="translate(202,194)"/>
<path d="M0 0 C0.6875 3.3125 0.6875 3.3125 1 7 C-0.57969079 9.24482376 -1.57504952 9.90385404 -4.26171875 10.51171875 C-5.06222656 10.56972656 -5.86273438 10.62773438 -6.6875 10.6875 C-7.89986328 10.78611328 -7.89986328 10.78611328 -9.13671875 10.88671875 C-9.75160156 10.92410156 -10.36648438 10.96148437 -11 11 C-13.1519437 7.77208445 -13.20086443 6.71599191 -13 3 C-8.1942374 -0.17180332 -5.81427302 -1.70173845 0 0 Z " fill="#763762" transform="translate(418,59)"/>
<path d="M0 0 C8.7311828 7.48387097 8.7311828 7.48387097 12 13 C11.68431404 16.31148128 10.41136906 17.97578937 8.0625 20.25 C7.53785156 20.77078125 7.01320313 21.2915625 6.47265625 21.828125 C5 23 5 23 3 23 C2.01 15.41 1.02 7.82 0 0 Z " fill="#783962" transform="translate(409,146)"/>
<path d="M0 0 C0.99 0 1.98 0 3 0 C3.72316406 1.35544922 3.72316406 1.35544922 4.4609375 2.73828125 C5.09887865 3.92973017 5.7369039 5.12113406 6.375 6.3125 C6.69210937 6.90740234 7.00921875 7.50230469 7.3359375 8.11523438 C8.79386349 10.83365888 10.28711703 13.43067554 12 16 C11 17 11 17 8.71484375 17.09765625 C7.34005859 17.08025391 7.34005859 17.08025391 5.9375 17.0625 C5.01839844 17.05347656 4.09929687 17.04445313 3.15234375 17.03515625 C2.44207031 17.02355469 1.73179687 17.01195313 1 17 C0.09586327 13.16275828 -0.10576898 9.62497726 -0.0625 5.6875 C-0.05347656 4.61886719 -0.04445313 3.55023438 -0.03515625 2.44921875 C-0.02355469 1.64097656 -0.01195312 0.83273438 0 0 Z " fill="#D8E4F5" transform="translate(335,101)"/>
<path d="M0 0 C3.13113189 0.29420031 3.95712923 0.94947667 6.03515625 3.3984375 C6.70417969 4.38070312 7.37320312 5.36296875 8.0625 6.375 C10.26285956 9.57629088 12.24105105 12.24105105 15 15 C9.06 15.495 9.06 15.495 3 16 C-0.21428571 4.88392857 -0.21428571 4.88392857 0 0 Z " fill="#D9E6F7" transform="translate(317,103)"/>
<path d="M0 0 C6.625 -0.25 6.625 -0.25 10 2 C9.59007812 2.67546875 9.18015625 3.3509375 8.7578125 4.046875 C8.21898437 4.93890625 7.68015625 5.8309375 7.125 6.75 C6.59132813 7.63171875 6.05765625 8.5134375 5.5078125 9.421875 C4.24403334 11.58274093 3.08501165 13.74570395 2 16 C0.68 15.67 -0.64 15.34 -2 15 C-1.85930804 12.87465341 -1.71229079 10.74972471 -1.5625 8.625 C-1.48128906 7.44164063 -1.40007812 6.25828125 -1.31640625 5.0390625 C-1 2 -1 2 0 0 Z " fill="#D9E5F5" transform="translate(316,72)"/>
<path d="M0 0 C0.99 0 1.98 0 3 0 C4.0076952 1.7664657 5.00591714 3.53833823 6 5.3125 C6.8353125 6.79169922 6.8353125 6.79169922 7.6875 8.30078125 C9 11 9 11 9 14 C4.545 14.495 4.545 14.495 0 15 C0 10.05 0 5.1 0 0 Z " fill="#9FAFF6" transform="translate(352,101)"/>
<path d="M0 0 C3 0.25 3 0.25 5 2.25 C4.625 5.875 4.625 5.875 4 9.25 C-1.44736842 10.58157895 -1.44736842 10.58157895 -3.875 9.125 C-5.3568671 6.65522151 -5.3633156 5.08386167 -5 2.25 C-3 0.25 -3 0.25 0 0 Z " fill="#773762" transform="translate(336,54.75)"/>
<path d="M0 0 C2.64 0.33 5.28 0.66 8 1 C6.68938409 5.23429756 5.05643741 9.07407404 3 13 C2.01 13 1.02 13 0 13 C0 8.71 0 4.42 0 0 Z " fill="#DAE6F6" transform="translate(333,75)"/>
<path d="M0 0 C3.875 0.875 3.875 0.875 5 2 C5.26293056 6.03160191 5.29404844 7.55892734 3 11 C1.68 11 0.36 11 -1 11 C-2.25 3.375 -2.25 3.375 0 0 Z " fill="#773862" transform="translate(263,248)"/>
<path d="M0 0 C2.64 0 5.28 0 8 0 C6.55049545 3.7910119 4.84827434 7.3874638 3 11 C2.01 11 1.02 11 0 11 C0 7.37 0 3.74 0 0 Z " fill="#A0B0F6" transform="translate(351,79)"/>
<path d="M0 0 C4 1 4 1 5.75 3.875 C7 7 7 7 7 10 C4.69 10.33 2.38 10.66 0 11 C0 7.37 0 3.74 0 0 Z " fill="#A0AFF5" transform="translate(368,101)"/>
<path d="M0 0 C1.98 0 3.96 0 6 0 C4.94124926 3.40312738 3.99097846 6.01353231 2 9 C1.01 8.67 0.02 8.34 -1 8 C-0.67 5.36 -0.34 2.72 0 0 Z " fill="#A0B0F6" transform="translate(368,81)"/>
<path d="M0 0 C0.66 0.33 1.32 0.66 2 1 C1.34 1.66 0.68 2.32 0 3 C0.33 3.66 0.66 4.32 1 5 C-3.95 7.97 -3.95 7.97 -9 11 C-7.25323081 7.50646162 -6.08594785 5.86054237 -3.375 3.25 C-2.74335937 2.63640625 -2.11171875 2.0228125 -1.4609375 1.390625 C-0.73777344 0.70226562 -0.73777344 0.70226562 0 0 Z " fill="#833F5E" transform="translate(97,127)"/>
</svg>
