<?xml version="1.0" encoding="UTF-8"?>
<!DOCTYPE svg PUBLIC "-//W3C//DTD SVG 1.1//EN" "http://www.w3.org/Graphics/SVG/1.1/DTD/svg11.dtd">
<svg xmlns="http://www.w3.org/2000/svg" version="1.1" width="512px" height="512px" style="shape-rendering:geometricPrecision; text-rendering:geometricPrecision; image-rendering:optimizeQuality; fill-rule:evenodd; clip-rule:evenodd" xmlns:xlink="http://www.w3.org/1999/xlink">
<g><path style="opacity:1" fill="#c12b44" d="M 397.5,100.5 C 397.966,96.0184 396.966,92.0184 394.5,88.5C 391.849,76.533 387.016,65.533 380,55.5C 365.289,41.9626 349.789,41.1293 333.5,53C 316.554,69.707 303.721,89.207 295,111.5C 277.443,158.617 266.776,207.284 263,257.5C 260.723,261.547 259.056,261.214 258,256.5C 255.826,211.922 259.826,167.922 270,124.5C 277.784,93.2608 292.117,65.5941 313,41.5C 322.027,32.7347 332.194,25.5681 343.5,20C 369.994,12.3252 391.161,19.8252 407,42.5C 418.404,61.7044 426.071,82.3711 430,104.5C 440.788,156.75 439.788,208.75 427,260.5C 422.303,276.432 412.136,281.599 396.5,276C 388.925,269.334 384.759,260.834 384,250.5C 383.214,240.793 383.547,231.126 385,221.5C 388.865,207.238 393.532,193.238 399,179.5C 403.751,153.092 403.251,126.759 397.5,100.5 Z"/></g>
<g><path style="opacity:1" fill="#f35669" d="M 215.5,102.5 C 206.495,84.4892 194.161,69.1559 178.5,56.5C 159.31,41.4092 138.977,39.9092 117.5,52C 111.667,56.5 106.5,61.6667 102,67.5C 74.7183,114.181 58.5517,164.514 53.5,218.5C 54.0384,226.925 55.2051,235.258 57,243.5C 66.2942,260.975 65.6275,277.975 55,294.5C 45.0083,303.001 35.675,302.334 27,292.5C 23.8636,282.067 22.8636,271.4 24,260.5C 26.8566,245.406 30.19,230.406 34,215.5C 37.7261,172.865 47.0594,131.532 62,91.5C 69.2091,74.0736 78.2091,57.7403 89,42.5C 110.955,19.5575 136.789,14.0575 166.5,26C 183.075,33.5732 196.241,45.0732 206,60.5C 218.405,80.3161 227.239,101.649 232.5,124.5C 231.38,126.596 229.88,126.93 228,125.5C 223.821,117.806 219.654,110.14 215.5,102.5 Z"/></g>
<g><path style="opacity:1" fill="#c12b44" d="M 178.5,56.5 C 194.161,69.1559 206.495,84.4892 215.5,102.5C 210.033,96.8625 204.699,91.0292 199.5,85C 186.529,72.8711 171.529,69.5377 154.5,75C 146.108,78.7252 139.608,84.5585 135,92.5C 126.122,112.801 119.455,133.801 115,155.5C 111.381,158.343 108.048,158.01 105,154.5C 108.144,130.063 115.144,106.729 126,84.5C 137.605,64.2787 155.105,54.9453 178.5,56.5 Z"/></g>
<g><path style="opacity:1" fill="#f9c169" d="M 394.5,88.5 C 396.966,92.0184 397.966,96.0184 397.5,100.5C 377.907,98.6359 362.24,105.469 350.5,121C 344.171,121.668 341.671,118.834 343,112.5C 350.461,101.01 360.961,93.8429 374.5,91C 381.12,89.7645 387.787,88.9311 394.5,88.5 Z"/></g>
<g><path style="opacity:1" fill="#fac169" d="M 449.5,115.5 C 451.527,115.338 453.527,115.505 455.5,116C 461.118,122.062 465.618,128.896 469,136.5C 484.482,172.514 489.649,209.681 484.5,248C 480.654,249.157 477.821,247.991 476,244.5C 478.036,206.042 471.036,169.376 455,134.5C 450.961,130.081 448.294,125.081 447,119.5C 447.662,118.016 448.496,116.683 449.5,115.5 Z"/></g>
<g><path style="opacity:1" fill="#fa5d7b" d="M 238.5,157.5 C 241.448,157.223 244.281,157.556 247,158.5C 249.206,163.471 249.54,168.471 248,173.5C 245,176.167 242,176.167 239,173.5C 236.467,168.106 236.3,162.772 238.5,157.5 Z"/></g>
<g><path style="opacity:1" fill="#c12b43" d="M 321.5,166.5 C 338.985,165.155 348.818,173.155 351,190.5C 352.312,199.135 352.645,207.801 352,216.5C 348.26,219.413 344.926,219.08 342,215.5C 341.12,206.485 340.12,197.485 339,188.5C 335.001,178.057 328.168,175.557 318.5,181C 304.59,199.999 295.424,221.165 291,244.5C 288.792,254.746 287.126,265.079 286,275.5C 282.952,279.01 279.619,279.343 276,276.5C 276.756,240.128 287.089,206.795 307,176.5C 311.012,171.762 315.845,168.429 321.5,166.5 Z"/></g>
<g><path style="opacity:1" fill="#fac169" d="M 175.5,182.5 C 189.112,181.726 199.945,186.726 208,197.5C 218.67,217.182 224.837,238.182 226.5,260.5C 224.856,260.714 223.356,260.38 222,259.5C 213.714,241.745 203.547,225.245 191.5,210C 179.794,203.446 170.627,205.946 164,217.5C 152.507,246.607 148.507,276.607 152,307.5C 156.432,314.263 160.432,321.263 164,328.5C 165.919,338.401 163.919,347.401 158,355.5C 148.667,364.833 139.333,364.833 130,355.5C 120.401,306.157 125.067,258.157 144,211.5C 147.188,201.927 152.688,194.093 160.5,188C 165.434,185.637 170.434,183.804 175.5,182.5 Z"/></g>
<g><path style="opacity:1" fill="#c02b44" d="M 102.5,185.5 C 105.365,185.055 107.865,185.722 110,187.5C 110.667,191.167 110.667,194.833 110,198.5C 106.996,202 103.663,202.333 100,199.5C 99.3333,195.833 99.3333,192.167 100,188.5C 100.698,187.309 101.531,186.309 102.5,185.5 Z"/></g>
<g><path style="opacity:1" fill="#c12b43" d="M 342.5,243.5 C 347.395,243.096 350.062,245.263 350.5,250C 350.343,252.637 349.677,255.137 348.5,257.5C 342.871,261.075 339.537,259.575 338.5,253C 338.592,249.199 339.926,246.032 342.5,243.5 Z"/></g>
<g><path style="opacity:1" fill="#fac069" d="M 475.5,278.5 C 480.434,277.937 483.1,280.104 483.5,285C 483.343,287.637 482.677,290.137 481.5,292.5C 475.531,296.169 472.198,294.503 471.5,287.5C 471.321,283.661 472.654,280.661 475.5,278.5 Z"/></g>
<g><path style="opacity:1" fill="#89a1e6" d="M 252.5,296.5 C 252.667,320.169 252.5,343.836 252,367.5C 250.178,391.819 239.511,411.153 220,425.5C 210.035,437.097 203.535,450.43 200.5,465.5C 192.999,468.204 185.332,469.204 177.5,468.5C 186.533,453.296 195.366,437.962 204,422.5C 208.013,411.295 211.513,399.962 214.5,388.5C 213.022,388.238 211.689,388.571 210.5,389.5C 204.676,401.824 197.842,413.491 190,424.5C 178.988,436.345 167.821,448.011 156.5,459.5C 149.812,452.044 146.145,443.378 145.5,433.5C 154.162,424.005 163.328,415.005 173,406.5C 176.667,401.5 180.333,396.5 184,391.5C 199.735,359.693 216.235,328.359 233.5,297.5C 235.693,295.279 238.36,293.946 241.5,293.5C 245.122,294.708 248.789,295.708 252.5,296.5 Z"/></g>
<g><path style="opacity:1" fill="#f2576a" d="M 252.5,296.5 C 262.272,296.617 268.605,301.284 271.5,310.5C 271.333,327.503 271.5,344.503 272,361.5C 274.759,390.874 288.259,413.707 312.5,430C 324.192,440.878 332.192,454.044 336.5,469.5C 336.5,469.833 336.5,470.167 336.5,470.5C 328.833,471.167 321.167,471.833 313.5,472.5C 311.399,465.631 308.232,459.298 304,453.5C 294.357,443.525 284.357,433.858 274,424.5C 269.158,418.823 265.325,412.489 262.5,405.5C 259.325,412.504 255.158,418.838 250,424.5C 243.374,429.457 237.04,434.791 231,440.5C 227.096,445.642 224.262,451.309 222.5,457.5C 221.662,457.842 221.328,458.508 221.5,459.5C 214.512,461.496 207.512,463.496 200.5,465.5C 203.535,450.43 210.035,437.097 220,425.5C 239.511,411.153 250.178,391.819 252,367.5C 252.5,343.836 252.667,320.169 252.5,296.5 Z"/></g>
<g><path style="opacity:1" fill="#89a1e6" d="M 271.5,310.5 C 278.349,311.008 283.849,314.008 288,319.5C 296.358,339.892 307.025,358.892 320,376.5C 336.135,390.967 351.968,405.8 367.5,421C 376.727,427.439 386.06,433.605 395.5,439.5C 392.825,445.677 388.825,450.844 383.5,455C 382.167,455.667 380.833,455.667 379.5,455C 365.5,443 351.5,431 337.5,419C 331.667,416.833 329.833,418.667 332,424.5C 341.063,438.232 350.897,451.398 361.5,464C 353.354,466.773 345.021,468.606 336.5,469.5C 332.192,454.044 324.192,440.878 312.5,430C 288.259,413.707 274.759,390.874 272,361.5C 271.5,344.503 271.333,327.503 271.5,310.5 Z"/></g>
<g><path style="opacity:1" fill="#585e97" d="M 200.5,465.5 C 199.527,475.084 199.194,484.75 199.5,494.5C 162.498,494.667 125.498,494.5 88.5,494C 85.7132,491.833 84.8799,488.999 86,485.5C 106.52,468.984 126.354,451.651 145.5,433.5C 146.145,443.378 149.812,452.044 156.5,459.5C 167.821,448.011 178.988,436.345 190,424.5C 197.842,413.491 204.676,401.824 210.5,389.5C 211.689,388.571 213.022,388.238 214.5,388.5C 211.513,399.962 208.013,411.295 204,422.5C 195.366,437.962 186.533,453.296 177.5,468.5C 185.332,469.204 192.999,468.204 200.5,465.5 Z"/></g>
<g><path style="opacity:1" fill="#89a0e5" d="M 313.5,472.5 C 289.611,473.529 267.611,467.695 247.5,455C 239.273,453.646 231.44,454.813 224,458.5C 223.235,458.43 222.735,458.097 222.5,457.5C 224.262,451.309 227.096,445.642 231,440.5C 237.04,434.791 243.374,429.457 250,424.5C 255.158,418.838 259.325,412.504 262.5,405.5C 265.325,412.489 269.158,418.823 274,424.5C 284.357,433.858 294.357,443.525 304,453.5C 308.232,459.298 311.399,465.631 313.5,472.5 Z"/></g>
<g><path style="opacity:1" fill="#585e97" d="M 395.5,439.5 C 418.523,453.015 440.023,468.682 460,486.5C 460.855,489.956 459.689,492.456 456.5,494C 417.835,494.5 379.168,494.667 340.5,494.5C 340.459,486.252 339.125,478.252 336.5,470.5C 336.5,470.167 336.5,469.833 336.5,469.5C 345.021,468.606 353.354,466.773 361.5,464C 350.897,451.398 341.063,438.232 332,424.5C 329.833,418.667 331.667,416.833 337.5,419C 351.5,431 365.5,443 379.5,455C 380.833,455.667 382.167,455.667 383.5,455C 388.825,450.844 392.825,445.677 395.5,439.5 Z"/></g>
<g><path style="opacity:1" fill="#585d97" d="M 313.5,472.5 C 316.432,479.559 318.432,486.893 319.5,494.5C 285.5,494.5 251.5,494.5 217.5,494.5C 216.74,482.562 218.074,470.896 221.5,459.5C 221.328,458.508 221.662,457.842 222.5,457.5C 222.735,458.097 223.235,458.43 224,458.5C 231.44,454.813 239.273,453.646 247.5,455C 267.611,467.695 289.611,473.529 313.5,472.5 Z"/></g>
<g><path style="opacity:1" fill="#c12d46" d="M 221.5,459.5 C 218.074,470.896 216.74,482.562 217.5,494.5C 211.5,494.5 205.5,494.5 199.5,494.5C 199.194,484.75 199.527,475.084 200.5,465.5C 207.512,463.496 214.512,461.496 221.5,459.5 Z"/></g>
<g><path style="opacity:1" fill="#c02e47" d="M 336.5,470.5 C 339.125,478.252 340.459,486.252 340.5,494.5C 333.5,494.5 326.5,494.5 319.5,494.5C 318.432,486.893 316.432,479.559 313.5,472.5C 321.167,471.833 328.833,471.167 336.5,470.5 Z"/></g>
</svg>
