<?xml version="1.0" encoding="UTF-8"?>
<!DOCTYPE svg PUBLIC "-//W3C//DTD SVG 1.1//EN" "http://www.w3.org/Graphics/SVG/1.1/DTD/svg11.dtd">
<svg xmlns="http://www.w3.org/2000/svg" version="1.1" width="512px" height="512px" style="shape-rendering:geometricPrecision; text-rendering:geometricPrecision; image-rendering:optimizeQuality; fill-rule:evenodd; clip-rule:evenodd" xmlns:xlink="http://www.w3.org/1999/xlink">
<g><path style="opacity:1" fill="#f9ba7d" d="M 337.5,79.5 C 299.469,98.5156 261.469,117.516 223.5,136.5C 215.195,137.332 206.862,137.665 198.5,137.5C 193.5,137.5 188.5,137.5 183.5,137.5C 170.034,136.338 156.701,134.338 143.5,131.5C 143.389,130.883 143.056,130.383 142.5,130C 137.775,128.922 133.109,127.756 128.5,126.5C 125.251,124.972 121.918,123.639 118.5,122.5C 110.74,117.925 103.073,113.092 95.5,108C 88.6359,102.302 82.3026,96.1349 76.5,89.5C 62.1905,70.3446 59.6905,49.6779 69,27.5C 73.0029,24.4987 76.3362,25.1653 79,29.5C 113.042,71.6842 157.375,93.0175 212,93.5C 228.115,94.43 242.948,90.5967 256.5,82C 264.039,75.7619 269.206,67.9286 272,58.5C 274.276,55.1125 277.442,53.4458 281.5,53.5C 302.043,58.4425 320.71,67.1091 337.5,79.5 Z"/></g>
<g><path style="opacity:1" fill="#f9b57d" d="M 337.5,79.5 C 348.061,86.0574 357.061,94.3908 364.5,104.5C 346.334,112.742 328,121.408 309.5,130.5C 305.624,128.863 301.624,127.529 297.5,126.5C 292.595,125.555 287.595,125.221 282.5,125.5C 270.903,126.086 259.57,128.086 248.5,131.5C 243.64,132.133 238.973,133.133 234.5,134.5C 230.86,135.273 227.193,135.94 223.5,136.5C 261.469,117.516 299.469,98.5156 337.5,79.5 Z"/></g>
<g><path style="opacity:1" fill="#c14457" d="M 76.5,89.5 C 82.3026,96.1349 88.6359,102.302 95.5,108C 103.073,113.092 110.74,117.925 118.5,122.5C 116.5,124.167 114.5,125.833 112.5,127.5C 110.866,126.839 109.033,126.506 107,126.5C 93.4918,127.478 79.9918,128.478 66.5,129.5C 70.7728,116.409 74.1061,103.075 76.5,89.5 Z"/></g>
<g><path style="opacity:1" fill="#faaf7c" d="M 364.5,104.5 C 372.235,113.964 377.901,124.631 381.5,136.5C 381.586,137.496 381.252,138.329 380.5,139C 365.721,146.724 350.721,153.89 335.5,160.5C 331.428,146.434 322.761,136.434 309.5,130.5C 328,121.408 346.334,112.742 364.5,104.5 Z"/></g>
<g><path style="opacity:1" fill="#c74c58" d="M 112.5,127.5 C 92.0448,151.759 79.7115,179.759 75.5,211.5C 72.8306,213.087 69.8306,213.921 66.5,214C 57.4328,215.042 48.4328,215.208 39.5,214.5C 41.0184,203.751 43.1851,193.084 46,182.5C 52.3335,164.523 59.1668,146.856 66.5,129.5C 79.9918,128.478 93.4918,127.478 107,126.5C 109.033,126.506 110.866,126.839 112.5,127.5 Z"/></g>
<g><path style="opacity:1" fill="#f7a875" d="M 381.5,136.5 C 386.426,148.317 388.092,160.651 386.5,173.5C 369.612,180.943 352.945,188.943 336.5,197.5C 335.702,197.043 335.369,196.376 335.5,195.5C 339.091,183.779 339.091,172.112 335.5,160.5C 350.721,153.89 365.721,146.724 380.5,139C 381.252,138.329 381.586,137.496 381.5,136.5 Z"/></g>
<g><path style="opacity:1" fill="#cad5f9" d="M 128.5,126.5 C 133.109,127.756 137.775,128.922 142.5,130C 143.056,130.383 143.389,130.883 143.5,131.5C 147.608,155.815 151.608,180.148 155.5,204.5C 154.778,204.082 154.278,203.416 154,202.5C 149.774,204.053 145.607,204.72 141.5,204.5C 136.952,178.544 132.618,152.544 128.5,126.5 Z"/></g>
<g><path style="opacity:1" fill="#f3a275" d="M 386.5,173.5 C 385.51,188.458 381.51,202.458 374.5,215.5C 345.572,230.14 316.572,243.807 287.5,256.5C 292.179,251.822 297.179,247.489 302.5,243.5C 307.654,239.69 311.654,235.024 314.5,229.5C 323.941,219.715 330.941,208.382 335.5,195.5C 335.369,196.376 335.702,197.043 336.5,197.5C 352.945,188.943 369.612,180.943 386.5,173.5 Z"/></g>
<g><path style="opacity:1" fill="#c3cef9" d="M 282.5,125.5 C 287.595,125.221 292.595,125.555 297.5,126.5C 302.843,160.889 308.509,195.223 314.5,229.5C 311.654,235.024 307.654,239.69 302.5,243.5C 295.833,204.167 289.167,164.833 282.5,125.5 Z"/></g>
<g><path style="opacity:1" fill="#c4d0f9" d="M 248.5,131.5 C 253.284,162.868 258.284,194.201 263.5,225.5C 258.893,226.554 254.227,227.221 249.5,227.5C 244.392,196.516 239.392,165.516 234.5,134.5C 238.973,133.133 243.64,132.133 248.5,131.5 Z"/></g>
<g><path style="opacity:1" fill="#c5d0fa" d="M 183.5,137.5 C 188.5,137.5 193.5,137.5 198.5,137.5C 203.617,170.2 208.95,202.867 214.5,235.5C 209.893,236.554 205.227,237.221 200.5,237.5C 194.832,204.16 189.166,170.827 183.5,137.5 Z"/></g>
<g><path style="opacity:1" fill="#f29c76" d="M 374.5,215.5 C 369.078,227.898 362.078,239.231 353.5,249.5C 353.44,248.957 353.107,248.624 352.5,248.5C 317.622,265.772 282.622,282.772 247.5,299.5C 246.702,299.043 246.369,298.376 246.5,297.5C 250.46,292.205 254.793,287.205 259.5,282.5C 260.496,282.586 261.329,282.252 262,281.5C 265.404,277.606 268.571,273.606 271.5,269.5C 276.852,265.143 282.186,260.81 287.5,256.5C 316.572,243.807 345.572,230.14 374.5,215.5 Z"/></g>
<g><path style="opacity:1" fill="#bbc7f9" d="M 263.5,225.5 C 266.379,240.103 269.045,254.77 271.5,269.5C 268.571,273.606 265.404,277.606 262,281.5C 261.329,282.252 260.496,282.586 259.5,282.5C 256.059,264.186 252.726,245.853 249.5,227.5C 254.227,227.221 258.893,226.554 263.5,225.5 Z"/></g>
<g><path style="opacity:1" fill="#f39b70" d="M 353.5,249.5 C 346.882,258.452 339.549,266.785 331.5,274.5C 296.715,290.142 262.215,306.475 228,323.5C 227.601,323.272 227.435,322.938 227.5,322.5C 228.11,321.609 228.443,320.609 228.5,319.5C 234.122,311.876 240.122,304.543 246.5,297.5C 246.369,298.376 246.702,299.043 247.5,299.5C 282.622,282.772 317.622,265.772 352.5,248.5C 353.107,248.624 353.44,248.957 353.5,249.5 Z"/></g>
<g><path style="opacity:1" fill="#fa96a2" d="M 468.5,299.5 C 448.86,292.069 429.527,284.069 410.5,275.5C 429.677,264.508 447.344,251.341 463.5,236C 466.835,233.709 469.668,234.209 472,237.5C 472.494,258.279 471.327,278.946 468.5,299.5 Z"/></g>
<g><path style="opacity:1" fill="#bdc9fa" d="M 155.5,204.5 C 161.152,235.412 166.485,266.412 171.5,297.5C 166.773,297.779 162.107,298.446 157.5,299.5C 152.059,267.853 146.726,236.187 141.5,204.5C 145.607,204.72 149.774,204.053 154,202.5C 154.278,203.416 154.778,204.082 155.5,204.5 Z"/></g>
<g><path style="opacity:1" fill="#d15a5e" d="M 75.5,211.5 C 73.0853,238.353 75.752,264.686 83.5,290.5C 71.5339,291.676 59.5339,292.676 47.5,293.5C 39.6725,267.737 37.0059,241.403 39.5,214.5C 48.4328,215.208 57.4328,215.042 66.5,214C 69.8306,213.921 72.8306,213.087 75.5,211.5 Z"/></g>
<g><path style="opacity:1" fill="#f29670" d="M 331.5,274.5 C 305.297,297.696 281.964,323.362 261.5,351.5C 261.44,350.957 261.107,350.624 260.5,350.5C 236.267,362.451 211.933,374.117 187.5,385.5C 196.508,368.135 206.508,351.468 217.5,335.5C 220.833,331.167 224.167,326.833 227.5,322.5C 227.435,322.938 227.601,323.272 228,323.5C 262.215,306.475 296.715,290.142 331.5,274.5 Z"/></g>
<g><path style="opacity:1" fill="#fa8da2" d="M 410.5,275.5 C 429.527,284.069 448.86,292.069 468.5,299.5C 466.002,321.993 461.335,343.993 454.5,365.5C 447.177,363.065 440.177,360.065 433.5,356.5C 438.45,341.855 440.116,326.855 438.5,311.5C 433.385,313.646 428.385,315.98 423.5,318.5C 422.251,316.864 420.584,315.697 418.5,315C 403.167,308.667 387.833,302.333 372.5,296C 373.056,295.617 373.389,295.117 373.5,294.5C 386.017,288.409 398.35,282.076 410.5,275.5 Z"/></g>
<g><path style="opacity:1" fill="#b7c3f9" d="M 214.5,235.5 C 219.552,263.426 224.218,291.426 228.5,319.5C 228.443,320.609 228.11,321.609 227.5,322.5C 224.167,326.833 220.833,331.167 217.5,335.5C 211.622,302.903 205.956,270.236 200.5,237.5C 205.227,237.221 209.893,236.554 214.5,235.5 Z"/></g>
<g><path style="opacity:1" fill="#d56363" d="M 83.5,290.5 C 88.9675,305.768 96.3008,320.101 105.5,333.5C 105.389,334.117 105.056,334.617 104.5,335C 91.9531,335.512 79.6198,336.678 67.5,338.5C 58.9176,324.445 52.2509,309.445 47.5,293.5C 59.5339,292.676 71.5339,291.676 83.5,290.5 Z"/></g>
<g><path style="opacity:1" fill="#fa87a2" d="M 373.5,294.5 C 373.389,295.117 373.056,295.617 372.5,296C 387.833,302.333 403.167,308.667 418.5,315C 420.584,315.697 422.251,316.864 423.5,318.5C 408.336,325.331 393.836,333.331 380,342.5C 379.103,352.15 377.27,361.483 374.5,370.5C 374.426,368.589 373.426,367.422 371.5,367C 365.655,364.33 359.655,362.164 353.5,360.5C 358.616,341.857 361.449,322.857 362,303.5C 364.195,298.477 368.028,295.477 373.5,294.5 Z"/></g>
<g><path style="opacity:1" fill="#b5c1f9" d="M 171.5,297.5 C 176.499,326.827 181.499,356.16 186.5,385.5C 184.158,393.848 180.492,401.515 175.5,408.5C 169.824,372.113 163.824,335.78 157.5,299.5C 162.107,298.446 166.773,297.779 171.5,297.5 Z"/></g>
<g><path style="opacity:1" fill="#da6963" d="M 105.5,333.5 C 115.423,345.594 125.923,357.261 137,368.5C 151.347,385.19 161.514,404.19 167.5,425.5C 167.326,427.861 166.993,430.194 166.5,432.5C 163.205,438.523 160.371,444.856 158,451.5C 153.992,462.689 150.492,474.023 147.5,485.5C 144.951,449.398 132.118,417.398 109,389.5C 92.3032,374.656 78.4698,357.656 67.5,338.5C 79.6198,336.678 91.9531,335.512 104.5,335C 105.056,334.617 105.389,334.117 105.5,333.5 Z"/></g>
<g><path style="opacity:1" fill="#ed8f6f" d="M 261.5,351.5 C 250.096,368.906 239.096,386.573 228.5,404.5C 228.44,403.957 228.107,403.624 227.5,403.5C 207.266,413.451 186.933,423.118 166.5,432.5C 166.993,430.194 167.326,427.861 167.5,425.5C 170.403,420.023 173.07,414.357 175.5,408.5C 180.492,401.515 184.158,393.848 186.5,385.5C 186.833,385.5 187.167,385.5 187.5,385.5C 211.933,374.117 236.267,362.451 260.5,350.5C 261.107,350.624 261.44,350.957 261.5,351.5 Z"/></g>
<g><path style="opacity:1" fill="#fa83a2" d="M 433.5,356.5 C 440.177,360.065 447.177,363.065 454.5,365.5C 451.423,376.065 447.756,386.399 443.5,396.5C 432.668,392.556 422.001,388.223 411.5,383.5C 421.042,376.292 428.375,367.292 433.5,356.5 Z"/></g>
<g><path style="opacity:1" fill="#fa7da2" d="M 353.5,360.5 C 359.655,362.164 365.655,364.33 371.5,367C 373.426,367.422 374.426,368.589 374.5,370.5C 372.466,382.937 368.466,394.604 362.5,405.5C 354.5,401.833 346.5,398.167 338.5,394.5C 344.618,383.603 349.618,372.27 353.5,360.5 Z"/></g>
<g><path style="opacity:1" fill="#fa7ca2" d="M 411.5,383.5 C 422.001,388.223 432.668,392.556 443.5,396.5C 437.2,411.968 426.2,422.468 410.5,428C 401.328,429.83 394.495,426.664 390,418.5C 387.431,411.281 388.431,404.614 393,398.5C 398.191,392.126 404.358,387.126 411.5,383.5 Z"/></g>
<g><path style="opacity:1" fill="#fa75a2" d="M 338.5,394.5 C 346.5,398.167 354.5,401.833 362.5,405.5C 358.25,416.35 352.25,426.016 344.5,434.5C 343.942,433.21 342.942,432.377 341.5,432C 330.913,427.536 320.246,423.37 309.5,419.5C 316.432,414.354 323.432,409.188 330.5,404C 333.031,400.642 335.698,397.476 338.5,394.5 Z"/></g>
<g><path style="opacity:1" fill="#ed886a" d="M 228.5,404.5 C 219.148,423.207 210.314,442.207 202,461.5C 185.724,473.72 167.557,481.72 147.5,485.5C 150.492,474.023 153.992,462.689 158,451.5C 160.371,444.856 163.205,438.523 166.5,432.5C 186.933,423.118 207.266,413.451 227.5,403.5C 228.107,403.624 228.44,403.957 228.5,404.5 Z"/></g>
<g><path style="opacity:1" fill="#fa6fa2" d="M 309.5,419.5 C 320.246,423.37 330.913,427.536 341.5,432C 342.942,432.377 343.942,433.21 344.5,434.5C 332.969,448.273 318.302,456.94 300.5,460.5C 287.962,459.094 283.795,452.427 288,440.5C 293.71,431.956 300.877,424.956 309.5,419.5 Z"/></g>
</svg>
