<?xml version="1.0" encoding="UTF-8"?>
<!DOCTYPE svg PUBLIC "-//W3C//DTD SVG 1.1//EN" "http://www.w3.org/Graphics/SVG/1.1/DTD/svg11.dtd">
<svg xmlns="http://www.w3.org/2000/svg" version="1.1" width="512px" height="512px" style="shape-rendering:geometricPrecision; text-rendering:geometricPrecision; image-rendering:optimizeQuality; fill-rule:evenodd; clip-rule:evenodd" xmlns:xlink="http://www.w3.org/1999/xlink">
<g><path style="opacity:1" fill="#a1b3fa" d="M 67.5,40.5 C 61.3049,56.4176 55.3049,72.4176 49.5,88.5C 45.8691,85.3707 42.3691,82.0374 39,78.5C 37.5167,75.2976 37.1834,71.9643 38,68.5C 46.4694,59.0297 55.3027,49.863 64.5,41C 65.448,40.5172 66.448,40.3505 67.5,40.5 Z"/></g>
<g><path style="opacity:1" fill="#a7bffa" d="M 80.5,46.5 C 74.8264,62.5105 69.1597,78.5105 63.5,94.5C 61.0336,95.6341 58.367,95.8007 55.5,95C 53.2941,92.9633 51.2941,90.7966 49.5,88.5C 55.3049,72.4176 61.3049,56.4176 67.5,40.5C 73.226,38.9817 77.5594,40.9817 80.5,46.5 Z"/></g>
<g><path style="opacity:1" fill="#adc9f9" d="M 80.5,46.5 C 85.1638,50.331 89.3305,54.6643 93,59.5C 93.9761,63.327 93.1428,66.6604 90.5,69.5C 82.2552,76.2399 74.4218,83.5732 67,91.5C 66.5357,92.0944 66.369,92.7611 66.5,93.5C 65.609,94.1098 64.609,94.4431 63.5,94.5C 69.1597,78.5105 74.8264,62.5105 80.5,46.5 Z"/></g>
<g><path style="opacity:1" fill="#82889c" d="M 90.5,69.5 C 102.167,80.5 113.5,91.8333 124.5,103.5C 120.234,108.941 115.734,114.274 111,119.5C 108.234,122.777 105.067,125.443 101.5,127.5C 89.8333,116.167 78.1667,104.833 66.5,93.5C 66.369,92.7611 66.5357,92.0944 67,91.5C 74.4218,83.5732 82.2552,76.2399 90.5,69.5 Z"/></g>
<g><path style="opacity:1" fill="#7e829b" d="M 124.5,103.5 C 129.167,107.5 133.5,111.833 137.5,116.5C 130.88,125.364 123.547,133.698 115.5,141.5C 110.5,137.167 105.833,132.5 101.5,127.5C 105.067,125.443 108.234,122.777 111,119.5C 115.734,114.274 120.234,108.941 124.5,103.5 Z"/></g>
<g><path style="opacity:1" fill="#7d8295" d="M 137.5,116.5 C 142.167,120.5 146.5,124.833 150.5,129.5C 142.702,136.798 135.035,144.298 127.5,152C 128.833,153.333 130.167,154.667 131.5,156C 131.272,156.399 130.938,156.565 130.5,156.5C 125.167,151.833 120.167,146.833 115.5,141.5C 123.547,133.698 130.88,125.364 137.5,116.5 Z"/></g>
<g><path style="opacity:1" fill="#787d95" d="M 150.5,129.5 C 156.833,135.167 162.833,141.167 168.5,147.5C 160.833,155.5 153.167,163.5 145.5,171.5C 140.167,166.833 135.167,161.833 130.5,156.5C 130.938,156.565 131.272,156.399 131.5,156C 130.167,154.667 128.833,153.333 127.5,152C 135.035,144.298 142.702,136.798 150.5,129.5 Z"/></g>
<g><path style="opacity:1" fill="#767c8e" d="M 168.5,147.5 C 173.833,152.167 178.833,157.167 183.5,162.5C 181.537,161.316 179.537,160.483 177.5,160C 170.298,167.369 162.965,174.536 155.5,181.5C 151.833,178.5 148.5,175.167 145.5,171.5C 153.167,163.5 160.833,155.5 168.5,147.5 Z"/></g>
<g><path style="opacity:1" fill="#71768d" d="M 183.5,162.5 C 192.167,170.5 200.5,178.833 208.5,187.5C 206.284,186.797 204.451,185.464 203,183.5C 194.862,190.795 187.696,198.795 181.5,207.5C 172.5,199.167 163.833,190.5 155.5,181.5C 162.965,174.536 170.298,167.369 177.5,160C 179.537,160.483 181.537,161.316 183.5,162.5 Z"/></g>
<g><path style="opacity:1" fill="#6b7087" d="M 208.5,187.5 C 217.167,195.5 225.5,203.833 233.5,212.5C 231.284,211.797 229.451,210.464 228,208.5C 220.578,216.427 212.745,223.76 204.5,230.5C 196.5,223.167 188.833,215.5 181.5,207.5C 187.696,198.795 194.862,190.795 203,183.5C 204.451,185.464 206.284,186.797 208.5,187.5 Z"/></g>
<g><path style="opacity:1" fill="#bde2f9" d="M 384.5,202.5 C 383.504,202.586 382.671,202.252 382,201.5C 375.954,215.849 369.454,229.849 362.5,243.5C 357.443,238.438 352.11,233.772 346.5,229.5C 341.501,224.702 340.334,219.035 343,212.5C 350.5,205 358,197.5 365.5,190C 368.303,189.245 370.97,189.578 373.5,191C 377.37,194.702 381.037,198.536 384.5,202.5 Z"/></g>
<g><path style="opacity:1" fill="#b1d5fa" d="M 384.5,202.5 C 388.167,205.5 391.5,208.833 394.5,212.5C 388.6,227.294 381.934,241.627 374.5,255.5C 370.167,251.833 366.167,247.833 362.5,243.5C 369.454,229.849 375.954,215.849 382,201.5C 382.671,202.252 383.504,202.586 384.5,202.5 Z"/></g>
<g><path style="opacity:1" fill="#656a81" d="M 233.5,212.5 C 241.833,220.167 249.833,228.167 257.5,236.5C 255.537,235.316 253.537,234.483 251.5,234C 244.885,240.738 238.385,247.571 232,254.5C 231.837,256.387 232.671,257.887 234.5,259C 234.272,259.399 233.938,259.565 233.5,259.5C 223.5,250.167 213.833,240.5 204.5,230.5C 212.745,223.76 220.578,216.427 228,208.5C 229.451,210.464 231.284,211.797 233.5,212.5 Z"/></g>
<g><path style="opacity:1" fill="#aecdfa" d="M 394.5,212.5 C 396.833,214.167 398.833,216.167 400.5,218.5C 394.679,232.145 388.846,245.812 383,259.5C 382.583,260.756 381.75,261.423 380.5,261.5C 378.167,259.833 376.167,257.833 374.5,255.5C 381.934,241.627 388.6,227.294 394.5,212.5 Z"/></g>
<g><path style="opacity:1" fill="#acc6fa" d="M 400.5,218.5 C 406.5,223.833 412.167,229.5 417.5,235.5C 406.833,245.833 396.167,256.167 385.5,266.5C 383.5,265.167 381.833,263.5 380.5,261.5C 381.75,261.423 382.583,260.756 383,259.5C 388.846,245.812 394.679,232.145 400.5,218.5 Z"/></g>
<g><path style="opacity:1" fill="#6f7da1" d="M 346.5,229.5 C 352.11,233.772 357.443,238.438 362.5,243.5C 366.167,247.833 370.167,251.833 374.5,255.5C 376.167,257.833 378.167,259.833 380.5,261.5C 381.833,263.5 383.5,265.167 385.5,266.5C 389.167,270.5 392.833,274.5 396.5,278.5C 368.814,275.414 341.147,272.081 313.5,268.5C 311.667,268.415 310.334,267.748 309.5,266.5C 321.5,253.833 333.833,241.5 346.5,229.5 Z"/></g>
<g><path style="opacity:1" fill="#5d627a" d="M 257.5,236.5 C 271.167,249.833 284.833,263.167 298.5,276.5C 292.558,283.779 286.225,290.779 279.5,297.5C 278.078,298.925 276.411,299.925 274.5,300.5C 260.5,287.167 246.833,273.5 233.5,259.5C 233.938,259.565 234.272,259.399 234.5,259C 232.671,257.887 231.837,256.387 232,254.5C 238.385,247.571 244.885,240.738 251.5,234C 253.537,234.483 255.537,235.316 257.5,236.5 Z"/></g>
<g><path style="opacity:1" fill="#e6f6f9" d="M 417.5,235.5 C 419.5,236.833 421.167,238.5 422.5,240.5C 416.606,255.283 409.939,269.616 402.5,283.5C 400.5,281.833 398.5,280.167 396.5,278.5C 392.833,274.5 389.167,270.5 385.5,266.5C 396.167,256.167 406.833,245.833 417.5,235.5 Z"/></g>
<g><path style="opacity:1" fill="#cce8fa" d="M 422.5,240.5 C 427.833,245.167 432.833,250.167 437.5,255.5C 436.624,255.369 435.957,255.702 435.5,256.5C 429.393,269.047 423.56,281.714 418,294.5C 417.583,295.756 416.75,296.423 415.5,296.5C 410.833,292.5 406.5,288.167 402.5,283.5C 409.939,269.616 416.606,255.283 422.5,240.5 Z"/></g>
<g><path style="opacity:1" fill="#bbe1fa" d="M 437.5,255.5 C 440.167,257.5 442.5,259.833 444.5,262.5C 437.516,276.469 430.516,290.469 423.5,304.5C 422.5,303.833 421.5,303.167 420.5,302.5C 418.833,300.5 417.167,298.5 415.5,296.5C 416.75,296.423 417.583,295.756 418,294.5C 423.56,281.714 429.393,269.047 435.5,256.5C 435.957,255.702 436.624,255.369 437.5,255.5 Z"/></g>
<g><path style="opacity:1" fill="#b1d5fa" d="M 444.5,262.5 C 447.167,264.5 449.5,266.833 451.5,269.5C 445.355,279.123 440.189,289.456 436,300.5C 434.311,304.56 432.144,308.227 429.5,311.5C 428.5,310.833 427.5,310.167 426.5,309.5C 425.925,307.589 424.925,305.922 423.5,304.5C 430.516,290.469 437.516,276.469 444.5,262.5 Z"/></g>
<g><path style="opacity:1" fill="#68749a" d="M 309.5,266.5 C 310.334,267.748 311.667,268.415 313.5,268.5C 341.147,272.081 368.814,275.414 396.5,278.5C 398.5,280.167 400.5,281.833 402.5,283.5C 406.5,288.167 410.833,292.5 415.5,296.5C 417.167,298.5 418.833,300.5 420.5,302.5C 408.16,302.158 395.826,301.991 383.5,302C 379.973,304.362 376.973,307.196 374.5,310.5C 342.939,306.095 311.272,301.762 279.5,297.5C 286.225,290.779 292.558,283.779 298.5,276.5C 302.167,273.167 305.833,269.833 309.5,266.5 Z"/></g>
<g><path style="opacity:1" fill="#adc9fa" d="M 451.5,269.5 C 454.167,271.5 456.5,273.833 458.5,276.5C 452.08,287.677 446.413,299.344 441.5,311.5C 441.624,312.107 441.957,312.44 442.5,312.5C 437.95,315.355 433.616,315.021 429.5,311.5C 432.144,308.227 434.311,304.56 436,300.5C 440.189,289.456 445.355,279.123 451.5,269.5 Z"/></g>
<g><path style="opacity:1" fill="#a8bbfa" d="M 458.5,276.5 C 463.845,279.313 466.345,283.647 466,289.5C 458.961,298.039 451.128,305.706 442.5,312.5C 441.957,312.44 441.624,312.107 441.5,311.5C 446.413,299.344 452.08,287.677 458.5,276.5 Z"/></g>
<g><path style="opacity:1" fill="#646f96" d="M 279.5,297.5 C 311.272,301.762 342.939,306.095 374.5,310.5C 365.071,321.267 354.737,330.934 343.5,339.5C 311.788,335.744 280.121,331.744 248.5,327.5C 257.167,318.5 265.833,309.5 274.5,300.5C 276.411,299.925 278.078,298.925 279.5,297.5 Z"/></g>
<g><path style="opacity:1" fill="#fa6d8e" d="M 112.5,304.5 C 115.179,304.673 117.513,305.673 119.5,307.5C 125.667,319.167 131.833,330.833 138,342.5C 138.923,345.278 138.089,347.278 135.5,348.5C 125.333,343.488 115.833,337.488 107,330.5C 103.037,323.995 102.704,317.329 106,310.5C 107.436,307.558 109.603,305.558 112.5,304.5 Z"/></g>
<g><path style="opacity:1" fill="#58648a" d="M 420.5,302.5 C 421.5,303.167 422.5,303.833 423.5,304.5C 424.925,305.922 425.925,307.589 426.5,309.5C 413.833,321.833 401.167,334.167 388.5,346.5C 371.689,344.902 354.689,343.902 337.5,343.5C 339.5,342.167 341.5,340.833 343.5,339.5C 354.737,330.934 365.071,321.267 374.5,310.5C 376.973,307.196 379.973,304.362 383.5,302C 395.826,301.991 408.16,302.158 420.5,302.5 Z"/></g>
<g><path style="opacity:1" fill="#616993" d="M 248.5,327.5 C 280.121,331.744 311.788,335.744 343.5,339.5C 341.5,340.833 339.5,342.167 337.5,343.5C 329.366,348.791 320.366,351.791 310.5,352.5C 295.336,352.626 281.002,349.126 267.5,342C 257.19,340.755 246.856,340.422 236.5,341C 234.667,342.833 232.833,344.667 231,346.5C 230.601,346.272 230.435,345.938 230.5,345.5C 236.167,339.167 242.167,333.167 248.5,327.5 Z"/></g>
<g><path style="opacity:1" fill="#fa6e8f" d="M 459.5,332.5 C 470.815,332.655 475.315,338.322 473,349.5C 471.564,355.87 467.731,360.037 461.5,362C 450.833,365.333 440.167,368.667 429.5,372C 426.095,373.102 423.428,372.268 421.5,369.5C 428.186,360.135 435.352,351.135 443,342.5C 447.427,337.211 452.927,333.878 459.5,332.5 Z"/></g>
<g><path style="opacity:1" fill="#aecbfa" d="M 219.5,344.5 C 213.361,358.916 207.028,373.25 200.5,387.5C 197.5,385.167 194.833,382.5 192.5,379.5C 193.79,378.942 194.623,377.942 195,376.5C 198.796,367.915 202.296,359.248 205.5,350.5C 208.829,345.178 213.496,343.178 219.5,344.5 Z"/></g>
<g><path style="opacity:1" fill="#b3d8fa" d="M 219.5,344.5 C 222.295,345.063 224.628,346.396 226.5,348.5C 226.557,349.609 226.89,350.609 227.5,351.5C 226.503,351.47 225.836,351.97 225.5,353C 219.311,366.865 213.311,380.698 207.5,394.5C 204.833,392.5 202.5,390.167 200.5,387.5C 207.028,373.25 213.361,358.916 219.5,344.5 Z"/></g>
<g><path style="opacity:1" fill="#525d84" d="M 337.5,343.5 C 354.689,343.902 371.689,344.902 388.5,346.5C 377.167,358.5 365.5,370.167 353.5,381.5C 323.657,380.822 293.823,379.822 264,378.5C 261.31,378.503 258.81,378.836 256.5,379.5C 253.833,377.167 251.167,374.833 248.5,372.5C 244.5,367.833 240.167,363.5 235.5,359.5C 233.167,356.5 230.5,353.833 227.5,351.5C 226.89,350.609 226.557,349.609 226.5,348.5C 227.833,347.5 229.167,346.5 230.5,345.5C 230.435,345.938 230.601,346.272 231,346.5C 232.833,344.667 234.667,342.833 236.5,341C 246.856,340.422 257.19,340.755 267.5,342C 281.002,349.126 295.336,352.626 310.5,352.5C 320.366,351.791 329.366,348.791 337.5,343.5 Z"/></g>
<g><path style="opacity:1" fill="#a7bffa" d="M 205.5,350.5 C 202.296,359.248 198.796,367.915 195,376.5C 194.623,377.942 193.79,378.942 192.5,379.5C 188.292,377.415 186.459,374.082 187,369.5C 192.671,362.663 198.838,356.329 205.5,350.5 Z"/></g>
<g><path style="opacity:1" fill="#bbe1fa" d="M 227.5,351.5 C 230.5,353.833 233.167,356.5 235.5,359.5C 234.624,359.369 233.957,359.702 233.5,360.5C 227.717,374.558 221.384,388.225 214.5,401.5C 211.833,399.5 209.5,397.167 207.5,394.5C 213.311,380.698 219.311,366.865 225.5,353C 225.836,351.97 226.503,351.47 227.5,351.5 Z"/></g>
<g><path style="opacity:1" fill="#d0eaf9" d="M 235.5,359.5 C 240.167,363.5 244.5,367.833 248.5,372.5C 241.833,386.833 235.167,401.167 228.5,415.5C 223.5,411.167 218.833,406.5 214.5,401.5C 221.384,388.225 227.717,374.558 233.5,360.5C 233.957,359.702 234.624,359.369 235.5,359.5 Z"/></g>
<g><path style="opacity:1" fill="#515783" d="M 353.5,381.5 C 337.833,397.5 322.167,413.5 306.5,429.5C 304.5,427.833 302.5,426.167 300.5,424.5C 296.833,420.167 292.833,416.167 288.5,412.5C 284.833,408.167 280.833,404.167 276.5,400.5C 273.167,396.5 269.5,392.833 265.5,389.5C 262.5,386.167 259.5,382.833 256.5,379.5C 258.81,378.836 261.31,378.503 264,378.5C 293.823,379.822 323.657,380.822 353.5,381.5 Z"/></g>
<g><path style="opacity:1" fill="#e6f6f9" d="M 248.5,372.5 C 251.167,374.833 253.833,377.167 256.5,379.5C 259.5,382.833 262.5,386.167 265.5,389.5C 254.833,399.833 244.167,410.167 233.5,420.5C 231.5,419.167 229.833,417.5 228.5,415.5C 235.167,401.167 241.833,386.833 248.5,372.5 Z"/></g>
<g><path style="opacity:1" fill="#fa5b7d" d="M 185.5,410.5 C 180.548,430.316 175.881,450.316 171.5,470.5C 169.901,470.232 168.568,470.566 167.5,471.5C 158.5,471.5 149.5,471.5 140.5,471.5C 144.039,455.138 147.706,438.805 151.5,422.5C 154.192,423.009 156.692,424.009 159,425.5C 159.508,413.879 160.675,402.379 162.5,391C 164.167,390.333 165.833,390.333 167.5,391C 173.338,397.67 179.338,404.17 185.5,410.5 Z"/></g>
<g><path style="opacity:1" fill="#a8bffa" d="M 265.5,389.5 C 269.5,392.833 273.167,396.5 276.5,400.5C 263.992,408.921 251.658,417.587 239.5,426.5C 237.167,424.833 235.167,422.833 233.5,420.5C 244.167,410.167 254.833,399.833 265.5,389.5 Z"/></g>
<g><path style="opacity:1" fill="#fa7192" d="M 106.5,406.5 C 102.162,426.188 97.6615,445.855 93,465.5C 92.3224,467.598 92.4891,469.598 93.5,471.5C 75.8302,471.667 58.1635,471.5 40.5,471C 38.3985,469.267 38.0652,467.267 39.5,465C 56.0357,454.237 72.369,443.237 88.5,432C 82.384,420.934 75.884,410.101 69,399.5C 67.9252,396.469 68.9252,394.469 72,393.5C 83.621,397.759 95.121,402.092 106.5,406.5 Z"/></g>
<g><path style="opacity:1" fill="#aecbfa" d="M 276.5,400.5 C 280.833,404.167 284.833,408.167 288.5,412.5C 276.143,421.199 263.81,429.866 251.5,438.5C 247.167,434.833 243.167,430.833 239.5,426.5C 251.658,417.587 263.992,408.921 276.5,400.5 Z"/></g>
<g><path style="opacity:1" fill="#fa688a" d="M 106.5,406.5 C 115.872,409.066 124.872,412.399 133.5,416.5C 129.185,434.427 125.185,452.427 121.5,470.5C 122.791,470.263 123.791,470.596 124.5,471.5C 114.167,471.5 103.833,471.5 93.5,471.5C 92.4891,469.598 92.3224,467.598 93,465.5C 97.6615,445.855 102.162,426.188 106.5,406.5 Z"/></g>
<g><path style="opacity:1" fill="#fa5575" d="M 185.5,410.5 C 192.175,417.175 198.508,424.175 204.5,431.5C 200.545,444.584 197.212,457.918 194.5,471.5C 185.5,471.5 176.5,471.5 167.5,471.5C 168.568,470.566 169.901,470.232 171.5,470.5C 175.881,450.316 180.548,430.316 185.5,410.5 Z"/></g>
<g><path style="opacity:1" fill="#fa5577" d="M 399.5,440.5 C 406.063,450.41 413.063,460.076 420.5,469.5C 422.291,470.17 423.958,470.837 425.5,471.5C 415.167,471.5 404.833,471.5 394.5,471.5C 384.686,457.892 374.852,444.225 365,430.5C 364.184,429.177 363.017,428.511 361.5,428.5C 371.272,419.229 380.938,409.729 390.5,400C 394.549,398.516 396.549,399.849 396.5,404C 394.903,415.132 394.07,426.299 394,437.5C 395.876,438.609 397.709,439.609 399.5,440.5 Z"/></g>
<g><path style="opacity:1" fill="#fa6382" d="M 133.5,416.5 C 139.703,417.937 145.703,419.937 151.5,422.5C 147.706,438.805 144.039,455.138 140.5,471.5C 135.167,471.5 129.833,471.5 124.5,471.5C 123.791,470.596 122.791,470.263 121.5,470.5C 125.185,452.427 129.185,434.427 133.5,416.5 Z"/></g>
<g><path style="opacity:1" fill="#b3d7fa" d="M 288.5,412.5 C 292.833,416.167 296.833,420.167 300.5,424.5C 287.291,431.936 274.958,440.603 263.5,450.5C 259.167,446.833 255.167,442.833 251.5,438.5C 263.81,429.866 276.143,421.199 288.5,412.5 Z"/></g>
<g><path style="opacity:1" fill="#bde2fa" d="M 300.5,424.5 C 302.5,426.167 304.5,427.833 306.5,429.5C 311.189,432.988 312.689,437.655 311,443.5C 304.205,452.629 296.371,460.796 287.5,468C 285.167,468.667 282.833,468.667 280.5,468C 274.63,462.298 268.964,456.465 263.5,450.5C 274.958,440.603 287.291,431.936 300.5,424.5 Z"/></g>
<g><path style="opacity:1" fill="#fa4f70" d="M 361.5,428.5 C 363.017,428.511 364.184,429.177 365,430.5C 374.852,444.225 384.686,457.892 394.5,471.5C 382.833,471.5 371.167,471.5 359.5,471.5C 361.969,470.683 364.635,470.183 367.5,470C 360.204,461.217 353.537,452.05 347.5,442.5C 351.833,437.5 356.5,432.833 361.5,428.5 Z"/></g>
<g><path style="opacity:1" fill="#fa4c6e" d="M 204.5,431.5 C 216.217,442.882 227.217,454.882 237.5,467.5C 237.471,469.029 236.804,470.196 235.5,471C 221.837,471.5 208.171,471.667 194.5,471.5C 197.212,457.918 200.545,444.584 204.5,431.5 Z"/></g>
<g><path style="opacity:1" fill="#fa4868" d="M 347.5,442.5 C 353.537,452.05 360.204,461.217 367.5,470C 364.635,470.183 361.969,470.683 359.5,471.5C 347.253,471.822 335.086,471.488 323,470.5C 322.333,468.833 322.333,467.167 323,465.5C 330.735,457.262 338.901,449.595 347.5,442.5 Z"/></g>
<g><path style="opacity:1" fill="#fa5c7d" d="M 399.5,440.5 C 420.496,448.414 441.329,456.748 462,465.5C 462.863,467.749 462.363,469.582 460.5,471C 448.838,471.5 437.171,471.667 425.5,471.5C 423.958,470.837 422.291,470.17 420.5,469.5C 413.063,460.076 406.063,450.41 399.5,440.5 Z"/></g>
</svg>
