<?xml version="1.0" encoding="UTF-8"?>
<!DOCTYPE svg PUBLIC "-//W3C//DTD SVG 1.1//EN" "http://www.w3.org/Graphics/SVG/1.1/DTD/svg11.dtd">
<svg xmlns="http://www.w3.org/2000/svg" version="1.1" width="512px" height="512px" style="shape-rendering:geometricPrecision; text-rendering:geometricPrecision; image-rendering:optimizeQuality; fill-rule:evenodd; clip-rule:evenodd" xmlns:xlink="http://www.w3.org/1999/xlink">
<g><path style="opacity:1" fill="#39394c" d="M 257.5,471.5 C 256.22,453.192 255.553,434.859 255.5,416.5C 257.847,409.472 261.014,402.805 265,396.5C 265.943,390.988 265.61,385.655 264,380.5C 250.42,392.03 236.253,402.697 221.5,412.5C 206.779,407.438 195.779,398.105 188.5,384.5C 176.661,361.12 176.661,337.786 188.5,314.5C 192.303,306.215 197.969,299.548 205.5,294.5C 221.527,301.183 237.527,307.849 253.5,314.5C 252.25,297.163 252.25,279.829 253.5,262.5C 254.92,251.408 257.253,240.408 260.5,229.5C 272.241,198.669 291.241,173.335 317.5,153.5C 325.631,147.261 334.298,141.761 343.5,137C 350.421,135.781 357.421,135.114 364.5,135C 359.845,127.843 353.512,122.843 345.5,120C 343.963,118.89 343.297,117.39 343.5,115.5C 343.511,113.983 344.177,112.816 345.5,112C 348.257,111.416 350.923,111.75 353.5,113C 367.683,121.197 376.516,133.364 380,149.5C 383.562,163.637 384.895,177.971 384,192.5C 381.857,202.291 377.023,210.458 369.5,217C 364.276,221.1 358.943,224.933 353.5,228.5C 346.626,231.292 339.626,233.792 332.5,236C 331.446,237.388 331.28,238.888 332,240.5C 343.996,247.251 356.829,251.251 370.5,252.5C 393.938,252.188 414.938,245.021 433.5,231C 444.824,220.525 450.824,207.692 451.5,192.5C 448.58,195.923 445.413,196.256 442,193.5C 441.018,190.225 441.851,187.559 444.5,185.5C 450.461,180.71 456.294,175.71 462,170.5C 462.469,165.561 461.469,160.894 459,156.5C 452.833,162 446.667,167.5 440.5,173C 433.898,173.578 427.898,171.911 422.5,168C 407.493,154.809 402.993,138.642 409,119.5C 410.211,116.241 412.044,113.408 414.5,111C 424.622,111.046 434.622,112.212 444.5,114.5C 442.248,102.161 438.748,90.161 434,78.5C 429.332,69.1688 421.832,63.6688 411.5,62C 387.82,55.9122 363.82,51.7455 339.5,49.5C 337.167,49.6667 334.833,49.8333 332.5,50C 306.957,61.1042 282.29,73.7708 258.5,88C 252,87.8915 245.5,87.3915 239,86.5C 234.128,86.235 229.628,87.4017 225.5,90C 224.549,90.7175 224.383,91.5509 225,92.5C 230.034,97.1988 234.7,102.199 239,107.5C 241.975,114.179 243.141,121.179 242.5,128.5C 240.687,138.463 236.02,146.796 228.5,153.5C 221.937,158.447 214.603,161.78 206.5,163.5C 195.805,164.992 186.972,161.659 180,153.5C 178.615,143.858 177.449,134.191 176.5,124.5C 172.439,127.618 169.606,131.618 168,136.5C 167.5,153.163 167.333,169.83 167.5,186.5C 167.162,188.854 166.662,191.187 166,193.5C 163.242,198.075 160.742,202.742 158.5,207.5C 155.399,211.511 152.399,215.678 149.5,220C 145.663,221 143.663,219.5 143.5,215.5C 143.577,213.701 144.077,212.034 145,210.5C 149.732,203.427 154.065,196.094 158,188.5C 158.667,181.167 158.667,173.833 158,166.5C 142.706,181.947 129.539,198.947 118.5,217.5C 114.414,222.665 111.08,228.332 108.5,234.5C 101.741,245.012 95.7414,256.012 90.5,267.5C 87.2806,273.271 84.6139,279.271 82.5,285.5C 59.935,333.408 45.2684,383.741 38.5,436.5C 36.3821,447.949 35.0487,459.615 34.5,471.5C 31.1667,471.5 27.8333,471.5 24.5,471.5C 31.1148,389.863 53.7814,313.03 92.5,241C 84.1437,224.452 77.3103,207.285 72,189.5C 70.6743,185.216 70.0076,180.883 70,176.5C 71.8201,173.797 74.3201,172.964 77.5,174C 91.8333,179.667 106.167,185.333 120.5,191C 121.944,191.781 123.277,191.614 124.5,190.5C 134.403,177.426 145.236,165.092 157,153.5C 157.031,144.615 158.364,135.948 161,127.5C 164.667,121.167 169.667,116.167 176,112.5C 176.266,94.1256 177.266,75.7923 179,57.5C 180.691,53.7873 183.525,52.6206 187.5,54C 197.333,63.8333 207.167,73.6667 217,83.5C 221.759,80.3707 226.926,78.204 232.5,77C 240.594,76.4077 248.594,76.741 256.5,78C 280.759,63.2036 306.093,50.5369 332.5,40C 364.148,41.3305 395.148,46.6638 425.5,56C 434.925,61.4231 441.425,69.2564 445,79.5C 448.936,91.8084 452.77,104.142 456.5,116.5C 465.999,119.723 475.499,123.056 485,126.5C 486.301,128.365 486.635,130.365 486,132.5C 480.191,138.398 474.191,144.065 468,149.5C 468.89,154.185 470.224,158.852 472,163.5C 473.637,171.226 471.137,177.226 464.5,181.5C 463.98,203.926 455.813,222.926 440,238.5C 435.88,253.821 431.38,268.987 426.5,284C 424.167,284.667 421.833,284.667 419.5,284C 413.887,275.388 407.887,267.054 401.5,259C 394.227,259.988 386.894,260.988 379.5,262C 360.674,262.618 343.008,258.285 326.5,249C 321.088,243.448 320.254,237.281 324,230.5C 325.731,228.383 327.898,226.883 330.5,226C 349.207,221.932 363.373,211.766 373,195.5C 374.496,188.901 374.829,182.234 374,175.5C 373.001,165.005 371.167,154.671 368.5,144.5C 358.548,143.435 349.215,145.268 340.5,150C 311.806,167.696 289.639,191.53 274,221.5C 267.398,237.509 263.731,254.176 263,271.5C 262.202,287.046 262.702,302.546 264.5,318C 264.833,318.833 265.167,319.667 265.5,320.5C 278.956,326.728 292.289,333.228 305.5,340C 309.019,342.685 309.352,345.685 306.5,349C 295.193,357.31 284.193,365.977 273.5,375C 277.81,389.78 275.31,403.28 266,415.5C 265.007,418.408 264.507,421.408 264.5,424.5C 265.653,440.161 266.653,455.828 267.5,471.5C 264.167,471.5 260.833,471.5 257.5,471.5 Z"/></g>
<g><path style="opacity:1" fill="#b4d3ba" d="M 444.5,185.5 C 436.533,186.237 428.533,186.737 420.5,187C 420,187.5 419.5,188 419,188.5C 417.443,218.864 402.61,239.531 374.5,250.5C 367.364,243.533 360.03,236.7 352.5,230C 353.056,229.617 353.389,229.117 353.5,228.5C 358.943,224.933 364.276,221.1 369.5,217C 377.023,210.458 381.857,202.291 384,192.5C 384.895,177.971 383.562,163.637 380,149.5C 376.516,133.364 367.683,121.197 353.5,113C 350.923,111.75 348.257,111.416 345.5,112C 344.177,112.816 343.511,113.983 343.5,115.5C 319.99,119.445 298.656,128.445 279.5,142.5C 275.471,145.177 271.471,147.844 267.5,150.5C 259.167,143.167 250.833,135.833 242.5,128.5C 243.141,121.179 241.975,114.179 239,107.5C 234.7,102.199 230.034,97.1988 225,92.5C 224.383,91.5509 224.549,90.7175 225.5,90C 229.628,87.4017 234.128,86.235 239,86.5C 245.5,87.3915 252,87.8915 258.5,88C 282.29,73.7708 306.957,61.1042 332.5,50C 334.833,49.8333 337.167,49.6667 339.5,49.5C 363.82,51.7455 387.82,55.9122 411.5,62C 421.832,63.6688 429.332,69.1688 434,78.5C 438.748,90.161 442.248,102.161 444.5,114.5C 434.622,112.212 424.622,111.046 414.5,111C 412.044,113.408 410.211,116.241 409,119.5C 402.993,138.642 407.493,154.809 422.5,168C 427.898,171.911 433.898,173.578 440.5,173C 446.667,167.5 452.833,162 459,156.5C 461.469,160.894 462.469,165.561 462,170.5C 456.294,175.71 450.461,180.71 444.5,185.5 Z"/></g>
<g><path style="opacity:1" fill="#f9eddc" d="M 227.5,108.5 C 226.358,110.433 224.692,111.933 222.5,113C 215.266,116.784 207.933,120.284 200.5,123.5C 194.613,118.056 189.946,111.723 186.5,104.5C 186.295,92.4698 186.795,80.4698 188,68.5C 201.369,81.7015 214.535,95.0348 227.5,108.5 Z"/></g>
<g><path style="opacity:1" fill="#3c3d4f" d="M 318.5,105.5 C 325.745,105.555 327.745,108.722 324.5,115C 317.735,117.243 314.902,114.743 316,107.5C 316.995,106.934 317.828,106.267 318.5,105.5 Z"/></g>
<g><path style="opacity:1" fill="#f8e5d1" d="M 227.5,108.5 C 230.883,111.289 232.55,114.955 232.5,119.5C 232.948,127.907 228.948,133.074 220.5,135C 217.739,135.722 215.073,135.555 212.5,134.5C 207.874,131.542 203.874,127.876 200.5,123.5C 207.933,120.284 215.266,116.784 222.5,113C 224.692,111.933 226.358,110.433 227.5,108.5 Z"/></g>
<g><path style="opacity:1" fill="#82a188" d="M 343.5,115.5 C 343.297,117.39 343.963,118.89 345.5,120C 353.512,122.843 359.845,127.843 364.5,135C 357.421,135.114 350.421,135.781 343.5,137C 334.298,141.761 325.631,147.261 317.5,153.5C 304.839,149.836 292.173,146.169 279.5,142.5C 298.656,128.445 319.99,119.445 343.5,115.5 Z"/></g>
<g><path style="opacity:1" fill="#f5e1cd" d="M 432.5,122.5 C 431.069,122.881 430.236,123.881 430,125.5C 428.833,130.167 427.667,134.833 426.5,139.5C 426.685,140.584 427.018,141.584 427.5,142.5C 422.905,140.231 418.905,137.231 415.5,133.5C 415.262,120.802 420.928,117.135 432.5,122.5 Z"/></g>
<g><path style="opacity:1" fill="#d4af94" d="M 186.5,104.5 C 189.946,111.723 194.613,118.056 200.5,123.5C 203.874,127.876 207.874,131.542 212.5,134.5C 212.631,135.376 212.298,136.043 211.5,136.5C 203.718,139.98 196.051,143.647 188.5,147.5C 186.791,133.23 186.124,118.897 186.5,104.5 Z"/></g>
<g><path style="opacity:1" fill="#f7f4e2" d="M 432.5,122.5 C 445.812,124.745 458.812,128.078 471.5,132.5C 466.776,137.229 461.776,141.563 456.5,145.5C 449.523,146.457 442.523,146.623 435.5,146C 432.524,145.295 429.858,144.129 427.5,142.5C 427.018,141.584 426.685,140.584 426.5,139.5C 427.667,134.833 428.833,130.167 430,125.5C 430.236,123.881 431.069,122.881 432.5,122.5 Z"/></g>
<g><path style="opacity:1" fill="#aeccb9" d="M 242.5,128.5 C 250.833,135.833 259.167,143.167 267.5,150.5C 260.86,156.806 254.193,163.139 247.5,169.5C 240.6,164.941 234.267,159.608 228.5,153.5C 236.02,146.796 240.687,138.463 242.5,128.5 Z"/></g>
<g><path style="opacity:1" fill="#cba58a" d="M 232.5,119.5 C 234.31,132.171 229.643,142.004 218.5,149C 209.488,155.336 200.155,156.003 190.5,151C 189.177,150.184 188.511,149.017 188.5,147.5C 196.051,143.647 203.718,139.98 211.5,136.5C 212.298,136.043 212.631,135.376 212.5,134.5C 215.073,135.555 217.739,135.722 220.5,135C 228.948,133.074 232.948,127.907 232.5,119.5 Z"/></g>
<g><path style="opacity:1" fill="#d1ac90" d="M 415.5,133.5 C 418.905,137.231 422.905,140.231 427.5,142.5C 429.858,144.129 432.524,145.295 435.5,146C 442.523,146.623 449.523,146.457 456.5,145.5C 450.363,151.467 444.03,157.301 437.5,163C 433.671,163.758 430.338,162.758 427.5,160C 419.279,153.06 415.279,144.226 415.5,133.5 Z"/></g>
<g><path style="opacity:1" fill="#a8c6b3" d="M 206.5,163.5 C 205.737,164.268 204.737,164.768 203.5,165C 212.364,173.033 221.031,181.2 229.5,189.5C 223.342,197.149 217.675,205.149 212.5,213.5C 212.167,213.5 211.833,213.5 211.5,213.5C 197.529,200.366 183.363,187.366 169,174.5C 168.824,178.688 168.324,182.688 167.5,186.5C 167.333,169.83 167.5,153.163 168,136.5C 169.606,131.618 172.439,127.618 176.5,124.5C 177.449,134.191 178.615,143.858 180,153.5C 186.972,161.659 195.805,164.992 206.5,163.5 Z"/></g>
<g><path style="opacity:1" fill="#7d9b83" d="M 279.5,142.5 C 292.173,146.169 304.839,149.836 317.5,153.5C 291.241,173.335 272.241,198.669 260.5,229.5C 244.579,223.971 228.579,218.637 212.5,213.5C 217.675,205.149 223.342,197.149 229.5,189.5C 235.101,182.561 241.101,175.894 247.5,169.5C 254.193,163.139 260.86,156.806 267.5,150.5C 271.471,147.844 275.471,145.177 279.5,142.5 Z"/></g>
<g><path style="opacity:1" fill="#aecdb4" d="M 228.5,153.5 C 234.267,159.608 240.6,164.941 247.5,169.5C 241.101,175.894 235.101,182.561 229.5,189.5C 221.031,181.2 212.364,173.033 203.5,165C 204.737,164.768 205.737,164.268 206.5,163.5C 214.603,161.78 221.937,158.447 228.5,153.5 Z"/></g>
<g><path style="opacity:1" fill="#a7c7ae" d="M 211.5,213.5 C 205.767,222.576 200.433,231.909 195.5,241.5C 195.167,241.5 194.833,241.5 194.5,241.5C 181.578,231.058 169.578,219.724 158.5,207.5C 160.742,202.742 163.242,198.075 166,193.5C 166.662,191.187 167.162,188.854 167.5,186.5C 168.324,182.688 168.824,178.688 169,174.5C 183.363,187.366 197.529,200.366 211.5,213.5 Z"/></g>
<g><path style="opacity:1" fill="#a1c0ae" d="M 158.5,207.5 C 169.578,219.724 181.578,231.058 194.5,241.5C 189.795,252.235 185.128,262.902 180.5,273.5C 167.562,261.733 154.729,249.733 142,237.5C 141.768,238.737 141.268,239.737 140.5,240.5C 141.373,235.706 139.373,233.373 134.5,233.5C 134.611,232.883 134.944,232.383 135.5,232C 130.529,226.184 124.862,221.35 118.5,217.5C 129.539,198.947 142.706,181.947 158,166.5C 158.667,173.833 158.667,181.167 158,188.5C 154.065,196.094 149.732,203.427 145,210.5C 144.077,212.034 143.577,213.701 143.5,215.5C 143.663,219.5 145.663,221 149.5,220C 152.399,215.678 155.399,211.511 158.5,207.5 Z"/></g>
<g><path style="opacity:1" fill="#f7efdf" d="M 115.5,199.5 C 112.745,203.85 109.411,207.684 105.5,211C 100.037,211.754 94.7035,211.254 89.5,209.5C 86.0819,201.931 83.7486,194.265 82.5,186.5C 93.4447,191.036 104.445,195.369 115.5,199.5 Z"/></g>
<g><path style="opacity:1" fill="#7e9b83" d="M 444.5,185.5 C 441.851,187.559 441.018,190.225 442,193.5C 445.413,196.256 448.58,195.923 451.5,192.5C 450.824,207.692 444.824,220.525 433.5,231C 414.938,245.021 393.938,252.188 370.5,252.5C 371.671,251.655 373.005,250.989 374.5,250.5C 402.61,239.531 417.443,218.864 419,188.5C 419.5,188 420,187.5 420.5,187C 428.533,186.737 436.533,186.237 444.5,185.5 Z"/></g>
<g><path style="opacity:1" fill="#d2ad93" d="M 115.5,199.5 C 117.085,200.002 117.585,201.002 117,202.5C 111,211.833 105,221.167 99,230.5C 95.7298,223.513 92.5631,216.513 89.5,209.5C 94.7035,211.254 100.037,211.754 105.5,211C 109.411,207.684 112.745,203.85 115.5,199.5 Z"/></g>
<g><path style="opacity:1" fill="#7c9582" d="M 211.5,213.5 C 211.833,213.5 212.167,213.5 212.5,213.5C 228.579,218.637 244.579,223.971 260.5,229.5C 257.253,240.408 254.92,251.408 253.5,262.5C 253.423,261.25 252.756,260.417 251.5,260C 232.798,253.827 214.131,247.661 195.5,241.5C 200.433,231.909 205.767,222.576 211.5,213.5 Z"/></g>
<g><path style="opacity:1" fill="#a1c0a7" d="M 118.5,217.5 C 124.862,221.35 130.529,226.184 135.5,232C 134.944,232.383 134.611,232.883 134.5,233.5C 132.983,233.511 131.816,234.177 131,235.5C 129.303,243.228 132.136,245.728 139.5,243C 140.252,242.329 140.586,241.496 140.5,240.5C 141.268,239.737 141.768,238.737 142,237.5C 154.729,249.733 167.562,261.733 180.5,273.5C 178.567,280.966 176.233,288.3 173.5,295.5C 152.337,275.838 131.003,256.338 109.5,237C 108.748,236.329 108.414,235.496 108.5,234.5C 111.08,228.332 114.414,222.665 118.5,217.5 Z"/></g>
<g><path style="opacity:1" fill="#accab8" d="M 353.5,228.5 C 353.389,229.117 353.056,229.617 352.5,230C 360.03,236.7 367.364,243.533 374.5,250.5C 373.005,250.989 371.671,251.655 370.5,252.5C 356.829,251.251 343.996,247.251 332,240.5C 331.28,238.888 331.446,237.388 332.5,236C 339.626,233.792 346.626,231.292 353.5,228.5 Z"/></g>
<g><path style="opacity:1" fill="#3b3c4e" d="M 134.5,233.5 C 139.373,233.373 141.373,235.706 140.5,240.5C 140.586,241.496 140.252,242.329 139.5,243C 132.136,245.728 129.303,243.228 131,235.5C 131.816,234.177 132.983,233.511 134.5,233.5 Z"/></g>
<g><path style="opacity:1" fill="#9bbaa7" d="M 108.5,234.5 C 108.414,235.496 108.748,236.329 109.5,237C 131.003,256.338 152.337,275.838 173.5,295.5C 171.964,300.108 170.631,304.775 169.5,309.5C 167.626,316.869 165.626,324.202 163.5,331.5C 161.745,330.928 160.078,330.094 158.5,329C 137.167,309 115.833,289 94.5,269C 93.255,268.209 91.9217,267.709 90.5,267.5C 95.7414,256.012 101.741,245.012 108.5,234.5 Z"/></g>
<g><path style="opacity:1" fill="#76957c" d="M 194.5,241.5 C 194.833,241.5 195.167,241.5 195.5,241.5C 214.131,247.661 232.798,253.827 251.5,260C 252.756,260.417 253.423,261.25 253.5,262.5C 252.25,279.829 252.25,297.163 253.5,314.5C 237.527,307.849 221.527,301.183 205.5,294.5C 197.969,299.548 192.303,306.215 188.5,314.5C 182.562,312.798 176.728,310.798 171,308.5C 170.617,309.056 170.117,309.389 169.5,309.5C 170.631,304.775 171.964,300.108 173.5,295.5C 176.233,288.3 178.567,280.966 180.5,273.5C 185.128,262.902 189.795,252.235 194.5,241.5 Z"/></g>
<g><path style="opacity:1" fill="#c2ae8f" d="M 425.5,247.5 C 426.376,247.369 427.043,247.702 427.5,248.5C 426.075,255.348 424.075,262.014 421.5,268.5C 417.936,264.386 414.603,260.052 411.5,255.5C 416.162,252.835 420.829,250.169 425.5,247.5 Z"/></g>
<g><path style="opacity:1" fill="#9bbaa1" d="M 90.5,267.5 C 91.9217,267.709 93.255,268.209 94.5,269C 115.833,289 137.167,309 158.5,329C 160.078,330.094 161.745,330.928 163.5,331.5C 161.83,338.855 160.163,346.188 158.5,353.5C 155.732,351.913 153.065,350.08 150.5,348C 128.263,326.592 105.597,305.759 82.5,285.5C 84.6139,279.271 87.2806,273.271 90.5,267.5 Z"/></g>
<g><path style="opacity:1" fill="#95b4a1" d="M 82.5,285.5 C 105.597,305.759 128.263,326.592 150.5,348C 153.065,350.08 155.732,351.913 158.5,353.5C 157.167,360.167 155.833,366.833 154.5,373.5C 153.111,381 151.111,388.333 148.5,395.5C 141.017,408.987 131.017,420.321 118.5,429.5C 93.6189,442.238 67.2856,446.072 39.5,441C 38.6198,439.644 38.2865,438.144 38.5,436.5C 45.2684,383.741 59.935,333.408 82.5,285.5 Z"/></g>
<g><path style="opacity:1" fill="#f8dfc8" d="M 211.5,307.5 C 210.732,308.263 210.232,309.263 210,310.5C 209.498,328.577 208.664,346.577 207.5,364.5C 197.401,359.938 191.401,352.272 189.5,341.5C 191.07,327.95 196.404,316.116 205.5,306C 207.881,305.262 209.881,305.762 211.5,307.5 Z"/></g>
<g><path style="opacity:1" fill="#f9e6cd" d="M 211.5,307.5 C 214.327,308.108 216.993,309.108 219.5,310.5C 218.654,329.493 217.987,348.493 217.5,367.5C 216.5,367.5 215.5,367.5 214.5,367.5C 212.188,366.659 209.855,365.659 207.5,364.5C 208.664,346.577 209.498,328.577 210,310.5C 210.232,309.263 210.732,308.263 211.5,307.5 Z"/></g>
<g><path style="opacity:1" fill="#f9ead6" d="M 219.5,310.5 C 229.142,314.323 238.476,318.657 247.5,323.5C 246.284,338.223 245.284,353.057 244.5,368C 245.094,368.464 245.761,368.631 246.5,368.5C 243.016,369.165 239.349,369.499 235.5,369.5C 229.267,369.62 223.267,368.953 217.5,367.5C 217.987,348.493 218.654,329.493 219.5,310.5 Z"/></g>
<g><path style="opacity:1" fill="#f8f1e2" d="M 247.5,323.5 C 263.094,330.297 278.428,337.631 293.5,345.5C 285.873,352.312 277.873,358.646 269.5,364.5C 261.937,366.372 254.27,367.705 246.5,368.5C 245.761,368.631 245.094,368.464 244.5,368C 245.284,353.057 246.284,338.223 247.5,323.5 Z"/></g>
<g><path style="opacity:1" fill="#718e7c" d="M 188.5,314.5 C 176.661,337.786 176.661,361.12 188.5,384.5C 177.028,381.231 165.694,377.565 154.5,373.5C 155.833,366.833 157.167,360.167 158.5,353.5C 160.163,346.188 161.83,338.855 163.5,331.5C 165.626,324.202 167.626,316.869 169.5,309.5C 170.117,309.389 170.617,309.056 171,308.5C 176.728,310.798 182.562,312.798 188.5,314.5 Z"/></g>
<g><path style="opacity:1" fill="#cca68a" d="M 189.5,341.5 C 191.401,352.272 197.401,359.938 207.5,364.5C 209.855,365.659 212.188,366.659 214.5,367.5C 217.595,378.123 221.262,388.457 225.5,398.5C 224.086,400.054 222.419,401.388 220.5,402.5C 203.272,393.753 193.106,379.753 190,360.5C 188.535,354.031 188.368,347.698 189.5,341.5 Z"/></g>
<g><path style="opacity:1" fill="#d4af93" d="M 269.5,364.5 C 255.143,376.185 240.476,387.518 225.5,398.5C 221.262,388.457 217.595,378.123 214.5,367.5C 215.5,367.5 216.5,367.5 217.5,367.5C 223.267,368.953 229.267,369.62 235.5,369.5C 239.349,369.499 243.016,369.165 246.5,368.5C 254.27,367.705 261.937,366.372 269.5,364.5 Z"/></g>
<g><path style="opacity:1" fill="#6f8e76" d="M 154.5,373.5 C 165.694,377.565 177.028,381.231 188.5,384.5C 195.779,398.105 206.779,407.438 221.5,412.5C 236.253,402.697 250.42,392.03 264,380.5C 265.61,385.655 265.943,390.988 265,396.5C 261.014,402.805 257.847,409.472 255.5,416.5C 254.515,420.634 254.182,424.968 254.5,429.5C 219.105,418.368 183.772,407.035 148.5,395.5C 151.111,388.333 153.111,381 154.5,373.5 Z"/></g>
<g><path style="opacity:1" fill="#6f8875" d="M 148.5,395.5 C 183.772,407.035 219.105,418.368 254.5,429.5C 254.182,424.968 254.515,420.634 255.5,416.5C 255.553,434.859 256.22,453.192 257.5,471.5C 235.833,471.5 214.167,471.5 192.5,471.5C 208.995,470.668 225.662,470.168 242.5,470C 201.18,456.393 159.847,442.893 118.5,429.5C 131.017,420.321 141.017,408.987 148.5,395.5 Z"/></g>
<g><path style="opacity:1" fill="#6a8976" d="M 118.5,429.5 C 159.847,442.893 201.18,456.393 242.5,470C 225.662,470.168 208.995,470.668 192.5,471.5C 139.833,471.5 87.1667,471.5 34.5,471.5C 35.0487,459.615 36.3821,447.949 38.5,436.5C 38.2865,438.144 38.6198,439.644 39.5,441C 67.2856,446.072 93.6189,442.238 118.5,429.5 Z"/></g>
</svg>
