<?xml version="1.0" encoding="UTF-8"?>
<!DOCTYPE svg PUBLIC "-//W3C//DTD SVG 1.1//EN" "http://www.w3.org/Graphics/SVG/1.1/DTD/svg11.dtd">
<svg xmlns="http://www.w3.org/2000/svg" version="1.1" width="512px" height="512px" style="shape-rendering:geometricPrecision; text-rendering:geometricPrecision; image-rendering:optimizeQuality; fill-rule:evenodd; clip-rule:evenodd" xmlns:xlink="http://www.w3.org/1999/xlink">
<g><path style="opacity:1" fill="#a1cefa" d="M 249.5,29.5 C 250.952,30.3019 252.618,30.8019 254.5,31C 265,41.5 275.5,52 286,62.5C 287.094,64.0779 287.928,65.7446 288.5,67.5C 279.218,70.372 269.885,73.0386 260.5,75.5C 259.448,75.6495 258.448,75.4828 257.5,75C 242.578,60.5811 228.245,45.7478 214.5,30.5C 226.165,30.1297 237.832,29.7964 249.5,29.5 Z"/></g>
<g><path style="opacity:1" fill="#9cc8fa" d="M 249.5,29.5 C 262.007,29.8109 274.34,30.4775 286.5,31.5C 294.778,41.4466 303.778,50.7799 313.5,59.5C 305.298,62.3061 296.964,64.9727 288.5,67.5C 287.928,65.7446 287.094,64.0779 286,62.5C 275.5,52 265,41.5 254.5,31C 252.618,30.8019 250.952,30.3019 249.5,29.5 Z"/></g>
<g><path style="opacity:1" fill="#a8d4fa" d="M 214.5,30.5 C 228.245,45.7478 242.578,60.5811 257.5,75C 258.448,75.4828 259.448,75.6495 260.5,75.5C 257.024,76.6433 253.358,76.8099 249.5,76C 223.253,63.1239 196.753,50.9573 170,39.5C 168.794,36.162 169.96,34.3287 173.5,34C 187.14,32.4544 200.807,31.2877 214.5,30.5 Z"/></g>
<g><path style="opacity:1" fill="#9cc1fa" d="M 286.5,31.5 C 296.204,31.6853 305.871,32.352 315.5,33.5C 320.189,40.7 325.856,47.2 332.5,53C 331.944,53.3826 331.611,53.8826 331.5,54.5C 325.769,56.7687 319.769,58.4354 313.5,59.5C 303.778,50.7799 294.778,41.4466 286.5,31.5 Z"/></g>
<g><path style="opacity:1" fill="#96b9f9" d="M 315.5,33.5 C 330.891,35.1023 346.058,37.7689 361,41.5C 361.743,43.4406 361.576,45.2739 360.5,47C 350.937,49.974 341.27,52.474 331.5,54.5C 331.611,53.8826 331.944,53.3826 332.5,53C 325.856,47.2 320.189,40.7 315.5,33.5 Z"/></g>
<g><path style="opacity:1" fill="#8da0f3" d="M 463.5,75.5 C 454.527,65.8604 445.194,56.5271 435.5,47.5C 444.623,44.3799 453.956,41.5466 463.5,39C 470.785,38.0381 473.618,41.2048 472,48.5C 469.299,57.6655 466.466,66.6655 463.5,75.5 Z"/></g>
<g><path style="opacity:1" fill="#8fa8f7" d="M 435.5,47.5 C 445.194,56.5271 454.527,65.8604 463.5,75.5C 461.807,82.274 459.807,88.9407 457.5,95.5C 443.861,81.5267 430.194,67.5267 416.5,53.5C 422.593,51.0541 428.926,49.0541 435.5,47.5 Z"/></g>
<g><path style="opacity:1" fill="#94aef9" d="M 416.5,53.5 C 430.194,67.5267 443.861,81.5267 457.5,95.5C 455.369,103.227 453.036,110.894 450.5,118.5C 431.521,100.188 412.854,81.521 394.5,62.5C 393.675,61.6143 392.675,61.281 391.5,61.5C 399.492,58.0594 407.825,55.3928 416.5,53.5 Z"/></g>
<g><path style="opacity:1" fill="#96b4f9" d="M 391.5,61.5 C 392.675,61.281 393.675,61.6143 394.5,62.5C 412.854,81.521 431.521,100.188 450.5,118.5C 448.153,125.251 445.82,131.918 443.5,138.5C 433.005,128.839 423.005,118.672 413.5,108C 412.906,107.536 412.239,107.369 411.5,107.5C 415.949,98.9297 413.615,95.9297 404.5,98.5C 393.833,88.1667 383.167,77.8333 372.5,67.5C 378.616,65.1296 384.949,63.1296 391.5,61.5 Z"/></g>
<g><path style="opacity:1" fill="#96bafa" d="M 372.5,67.5 C 383.167,77.8333 393.833,88.1667 404.5,98.5C 398.557,101.931 392.224,104.597 385.5,106.5C 374.861,95.5266 364.194,84.5266 353.5,73.5C 359.696,71.1016 366.029,69.1016 372.5,67.5 Z"/></g>
<g><path style="opacity:1" fill="#9cc0fa" d="M 353.5,73.5 C 364.194,84.5266 374.861,95.5266 385.5,106.5C 379.804,109.678 373.804,112.344 367.5,114.5C 355.801,103.802 344.801,92.4683 334.5,80.5C 340.527,77.599 346.861,75.2657 353.5,73.5 Z"/></g>
<g><path style="opacity:1" fill="#9cc8fa" d="M 334.5,80.5 C 344.801,92.4683 355.801,103.802 367.5,114.5C 360.686,118.072 353.686,121.406 346.5,124.5C 334.833,112.5 323.167,100.5 311.5,88.5C 318.803,85.0643 326.47,82.3976 334.5,80.5 Z"/></g>
<g><path style="opacity:1" fill="#a1cefa" d="M 311.5,88.5 C 323.167,100.5 334.833,112.5 346.5,124.5C 337.167,128.833 327.833,133.167 318.5,137.5C 306.369,124.868 294.035,112.368 281.5,100C 282.756,99.5831 283.423,98.7498 283.5,97.5C 292.7,94.1002 302.033,91.1002 311.5,88.5 Z"/></g>
<g><path style="opacity:1" fill="#acd4fa" d="M 283.5,97.5 C 283.423,98.7498 282.756,99.5831 281.5,100C 294.035,112.368 306.369,124.868 318.5,137.5C 304.505,144.164 290.505,150.831 276.5,157.5C 263.198,142.864 249.532,128.53 235.5,114.5C 251.656,109.226 267.656,103.559 283.5,97.5 Z"/></g>
<g><path style="opacity:1" fill="#96bafa" d="M 411.5,107.5 C 412.239,107.369 412.906,107.536 413.5,108C 423.005,118.672 433.005,128.839 443.5,138.5C 441.739,145.784 439.405,152.784 436.5,159.5C 436.631,158.761 436.464,158.094 436,157.5C 425.298,146.965 414.798,136.298 404.5,125.5C 406.439,119.35 408.773,113.35 411.5,107.5 Z"/></g>
<g><path style="opacity:1" fill="#b5dafa" d="M 235.5,114.5 C 249.532,128.53 263.198,142.864 276.5,157.5C 259.793,166.939 242.96,176.273 226,185.5C 225.127,185.265 224.293,184.931 223.5,184.5C 222.444,177.446 222.777,170.446 224.5,163.5C 223.311,162.571 221.978,162.238 220.5,162.5C 210.467,152.468 200.8,142.135 191.5,131.5C 206.096,125.853 220.763,120.187 235.5,114.5 Z"/></g>
<g><path style="opacity:1" fill="#9cc1fa" d="M 404.5,125.5 C 414.798,136.298 425.298,146.965 436,157.5C 436.464,158.094 436.631,158.761 436.5,159.5C 435.063,165.703 433.063,171.703 430.5,177.5C 429.761,177.631 429.094,177.464 428.5,177C 417.803,166.637 407.47,155.971 397.5,145C 396.906,144.536 396.239,144.369 395.5,144.5C 398.261,137.981 401.261,131.648 404.5,125.5 Z"/></g>
<g><path style="opacity:1" fill="#e4ecf9" d="M 383.5,126.5 C 361.224,150.444 338.224,173.777 314.5,196.5C 305.194,206.14 295.861,215.807 286.5,225.5C 284.973,225.427 283.973,226.094 283.5,227.5C 282.078,227.291 280.745,226.791 279.5,226C 271.304,218.554 262.97,212.054 254.5,206.5C 295.647,177.081 338.647,150.414 383.5,126.5 Z"/></g>
<g><path style="opacity:1" fill="#c0e1fa" d="M 191.5,131.5 C 200.8,142.135 210.467,152.468 220.5,162.5C 194.494,161.539 168.494,160.373 142.5,159C 139.905,158.774 137.405,158.274 135,157.5C 134.257,155.559 134.424,153.726 135.5,152C 154.01,144.664 172.677,137.831 191.5,131.5 Z"/></g>
<g><path style="opacity:1" fill="#9cc8fa" d="M 395.5,144.5 C 396.239,144.369 396.906,144.536 397.5,145C 407.47,155.971 417.803,166.637 428.5,177C 429.094,177.464 429.761,177.631 430.5,177.5C 428.029,185.579 425.363,193.579 422.5,201.5C 410.86,189.194 398.86,177.194 386.5,165.5C 389.227,158.38 392.227,151.38 395.5,144.5 Z"/></g>
<g><path style="opacity:1" fill="#96baf9" d="M 477.5,199.5 C 470.5,192.833 463.5,186.167 456.5,179.5C 458.526,169.73 461.026,160.063 464,150.5C 465.726,149.424 467.559,149.257 469.5,150C 473.604,166.225 476.271,182.725 477.5,199.5 Z"/></g>
<g><path style="opacity:1" fill="#a2cdfa" d="M 386.5,165.5 C 398.86,177.194 410.86,189.194 422.5,201.5C 419.206,211.724 415.539,221.724 411.5,231.5C 398.473,219.14 385.806,206.473 373.5,193.5C 377.323,183.858 381.657,174.524 386.5,165.5 Z"/></g>
<g><path style="opacity:1" fill="#9cc1fa" d="M 456.5,179.5 C 463.5,186.167 470.5,192.833 477.5,199.5C 478.803,209.424 479.803,219.424 480.5,229.5C 470.5,219.167 460.5,208.833 450.5,198.5C 452.361,192.036 454.361,185.703 456.5,179.5 Z"/></g>
<g><path style="opacity:1" fill="#a7b7e9" d="M 334.5,211.5 C 327.815,206.476 321.148,201.476 314.5,196.5C 338.224,173.777 361.224,150.444 383.5,126.5C 384.077,125.227 384.743,125.227 385.5,126.5C 369.732,155.725 352.732,184.059 334.5,211.5 Z"/></g>
<g><path style="opacity:1" fill="#9cc8fa" d="M 450.5,198.5 C 460.5,208.833 470.5,219.167 480.5,229.5C 480.623,240.175 480.957,250.841 481.5,261.5C 469.194,248.527 456.527,235.86 443.5,223.5C 445.989,215.211 448.322,206.878 450.5,198.5 Z"/></g>
<g><path style="opacity:1" fill="#cde7fa" d="M 141.5,209.5 C 152.559,208.745 163.059,210.745 173,215.5C 173.798,217.259 173.631,218.926 172.5,220.5C 156.167,228.333 139.833,236.167 123.5,244C 117.906,245.913 115.739,244.08 117,238.5C 122.401,228.867 128.901,220.033 136.5,212C 138.315,211.243 139.981,210.41 141.5,209.5 Z"/></g>
<g><path style="opacity:1" fill="#9eafe1" d="M 314.5,196.5 C 321.148,201.476 327.815,206.476 334.5,211.5C 327.219,223.442 319.552,235.109 311.5,246.5C 303.459,239.124 295.126,232.124 286.5,225.5C 295.861,215.807 305.194,206.14 314.5,196.5 Z"/></g>
<g><path style="opacity:1" fill="#acd4fa" d="M 373.5,193.5 C 385.806,206.473 398.473,219.14 411.5,231.5C 406.366,246.902 401.033,262.235 395.5,277.5C 381.527,263.193 367.527,248.86 353.5,234.5C 359.93,220.641 366.597,206.975 373.5,193.5 Z"/></g>
<g><path style="opacity:1" fill="#dce6f9" d="M 254.5,206.5 C 262.97,212.054 271.304,218.554 279.5,226C 280.745,226.791 282.078,227.291 283.5,227.5C 281.167,230.5 278.5,233.167 275.5,235.5C 270.167,240.167 265.167,245.167 260.5,250.5C 257.806,253.86 254.806,256.86 251.5,259.5C 250.448,259.649 249.448,259.483 248.5,259C 239.167,251.333 229.833,243.667 220.5,236C 219.181,235.805 217.847,235.972 216.5,236.5C 218.371,233.939 220.371,231.439 222.5,229C 233.021,221.244 243.687,213.744 254.5,206.5 Z"/></g>
<g><path style="opacity:1" fill="#a1cefa" d="M 443.5,223.5 C 456.527,235.86 469.194,248.527 481.5,261.5C 481.072,274.497 480.738,287.497 480.5,300.5C 479.761,300.631 479.094,300.464 478.5,300C 463.604,285.272 448.938,270.438 434.5,255.5C 436.689,244.601 439.689,233.934 443.5,223.5 Z"/></g>
<g><path style="opacity:1" fill="#9ca8e0" d="M 286.5,225.5 C 295.126,232.124 303.459,239.124 311.5,246.5C 308.833,250.5 306.167,254.5 303.5,258.5C 293.56,251.559 284.227,243.892 275.5,235.5C 278.5,233.167 281.167,230.5 283.5,227.5C 283.973,226.094 284.973,225.427 286.5,225.5 Z"/></g>
<g><path style="opacity:1" fill="#97a8da" d="M 275.5,235.5 C 284.227,243.892 293.56,251.559 303.5,258.5C 299.853,264.14 295.853,269.473 291.5,274.5C 281.148,266.476 270.815,258.476 260.5,250.5C 265.167,245.167 270.167,240.167 275.5,235.5 Z"/></g>
<g><path style="opacity:1" fill="#b5dafa" d="M 353.5,234.5 C 367.527,248.86 381.527,263.193 395.5,277.5C 390.071,292.673 384.405,307.673 378.5,322.5C 368.833,312.167 358.833,302.167 348.5,292.5C 348.799,290.396 348.466,288.396 347.5,286.5C 340.543,288.097 333.543,288.43 326.5,287.5C 326.069,286.707 325.735,285.873 325.5,285C 334.727,268.04 344.061,251.207 353.5,234.5 Z"/></g>
<g><path style="opacity:1" fill="#96a2da" d="M 260.5,250.5 C 270.815,258.476 281.148,266.476 291.5,274.5C 288.58,279.268 285.414,283.934 282,288.5C 280.871,290.141 279.371,291.141 277.5,291.5C 276.797,289.284 275.464,287.451 273.5,286C 265.5,279.667 257.5,273.333 249.5,267C 248.177,266.184 247.511,265.017 247.5,263.5C 249.167,262.5 250.5,261.167 251.5,259.5C 254.806,256.86 257.806,253.86 260.5,250.5 Z"/></g>
<g><path style="opacity:1" fill="#d5e0f9" d="M 251.5,259.5 C 250.5,261.167 249.167,262.5 247.5,263.5C 243.862,267.474 240.195,271.474 236.5,275.5C 228.2,282.465 220.2,289.798 212.5,297.5C 206.023,291.864 199.356,286.364 192.5,281C 190.922,279.906 189.255,279.072 187.5,278.5C 197.947,265.051 207.614,251.051 216.5,236.5C 217.847,235.972 219.181,235.805 220.5,236C 229.833,243.667 239.167,251.333 248.5,259C 249.448,259.483 250.448,259.649 251.5,259.5 Z"/></g>
<g><path style="opacity:1" fill="#a8d4fa" d="M 434.5,255.5 C 448.938,270.438 463.604,285.272 478.5,300C 479.094,300.464 479.761,300.631 480.5,300.5C 479.485,312.831 478.318,325.164 477,337.5C 476.671,341.04 474.838,342.206 471.5,341C 460.043,314.247 447.876,287.747 435,261.5C 434.505,259.527 434.338,257.527 434.5,255.5 Z"/></g>
<g><path style="opacity:1" fill="#90a2d4" d="M 247.5,263.5 C 247.511,265.017 248.177,266.184 249.5,267C 257.5,273.333 265.5,279.667 273.5,286C 275.464,287.451 276.797,289.284 277.5,291.5C 274.197,295.156 270.197,297.822 265.5,299.5C 255.858,291.53 246.191,283.53 236.5,275.5C 240.195,271.474 243.862,267.474 247.5,263.5 Z"/></g>
<g><path style="opacity:1" fill="#8e9cd3" d="M 236.5,275.5 C 246.191,283.53 255.858,291.53 265.5,299.5C 255.858,306.99 245.858,313.99 235.5,320.5C 227.723,313.115 219.39,306.448 210.5,300.5C 211.167,299.5 211.833,298.5 212.5,297.5C 220.2,289.798 228.2,282.465 236.5,275.5 Z"/></g>
<g><path style="opacity:1" fill="#ced9f9" d="M 187.5,278.5 C 189.255,279.072 190.922,279.906 192.5,281C 199.356,286.364 206.023,291.864 212.5,297.5C 211.833,298.5 211.167,299.5 210.5,300.5C 200.527,309.806 190.86,319.473 181.5,329.5C 173.902,324.539 166.902,318.873 160.5,312.5C 169.981,301.531 178.981,290.198 187.5,278.5 Z"/></g>
<g><path style="opacity:1" fill="#8796cd" d="M 210.5,300.5 C 219.39,306.448 227.723,313.115 235.5,320.5C 224.524,329.136 213.524,337.803 202.5,346.5C 195.814,340.484 188.814,334.818 181.5,329.5C 190.86,319.473 200.527,309.806 210.5,300.5 Z"/></g>
<g><path style="opacity:1" fill="#c0e1fa" d="M 348.5,292.5 C 358.833,302.167 368.833,312.167 378.5,322.5C 372.527,340.586 365.86,358.419 358.5,376C 353.23,377.246 351.063,375.08 352,369.5C 350.659,343.838 349.492,318.172 348.5,292.5 Z"/></g>
<g><path style="opacity:1" fill="#c8d3f9" d="M 160.5,312.5 C 166.902,318.873 173.902,324.539 181.5,329.5C 176.337,335.496 170.67,340.996 164.5,346C 153.172,346.5 141.838,346.667 130.5,346.5C 140.872,335.464 150.872,324.13 160.5,312.5 Z"/></g>
<g><path style="opacity:1" fill="#828fc8" d="M 181.5,329.5 C 188.814,334.818 195.814,340.484 202.5,346.5C 193.526,354.471 184.526,362.471 175.5,370.5C 167.051,362.894 158.384,355.394 149.5,348C 142.987,347.828 136.653,347.328 130.5,346.5C 141.838,346.667 153.172,346.5 164.5,346C 170.67,340.996 176.337,335.496 181.5,329.5 Z"/></g>
<g><path style="opacity:1" fill="#cde7fa" d="M 290.5,337.5 C 292.467,337.261 294.301,337.594 296,338.5C 301.252,349.413 302.586,360.746 300,372.5C 297.872,375.63 295.372,378.463 292.5,381C 285.833,385.333 279.167,389.667 272.5,394C 269.138,395.293 267.138,394.293 266.5,391C 274.094,372.98 282.094,355.147 290.5,337.5 Z"/></g>
<g><path style="opacity:1" fill="#faad61" d="M 80.5,345.5 C 77.9438,346.543 75.7772,348.21 74,350.5C 69.2892,355.706 64.7892,361.039 60.5,366.5C 56.4094,353.975 60.2428,344.308 72,337.5C 75.3209,339.654 78.1542,342.321 80.5,345.5 Z"/></g>
<g><path style="opacity:1" fill="#7a87c0" d="M 130.5,346.5 C 136.653,347.328 142.987,347.828 149.5,348C 158.384,355.394 167.051,362.894 175.5,370.5C 163.527,381.806 151.86,393.473 140.5,405.5C 137.5,402.833 134.5,400.167 131.5,397.5C 128.833,394.167 125.833,391.167 122.5,388.5C 116.833,382.5 111.167,376.5 105.5,370.5C 113.833,362.5 122.167,354.5 130.5,346.5 Z"/></g>
<g><path style="opacity:1" fill="#fab36f" d="M 80.5,345.5 C 83.8333,348.167 86.8333,351.167 89.5,354.5C 83.7317,362.746 77.065,370.079 69.5,376.5C 65.7881,373.789 62.7881,370.456 60.5,366.5C 64.7892,361.039 69.2892,355.706 74,350.5C 75.7772,348.21 77.9438,346.543 80.5,345.5 Z"/></g>
<g><path style="opacity:1" fill="#fabb7e" d="M 89.5,354.5 C 92.1667,356.5 94.5,358.833 96.5,361.5C 90.5014,368.335 84.668,375.335 79,382.5C 78.3292,383.252 77.4959,383.586 76.5,383.5C 73.8333,381.5 71.5,379.167 69.5,376.5C 77.065,370.079 83.7317,362.746 89.5,354.5 Z"/></g>
<g><path style="opacity:1" fill="#fac18c" d="M 96.5,361.5 C 99.1667,363.5 101.5,365.833 103.5,368.5C 96.7893,375.875 90.4559,383.542 84.5,391.5C 81.5,389.167 78.8333,386.5 76.5,383.5C 77.4959,383.586 78.3292,383.252 79,382.5C 84.668,375.335 90.5014,368.335 96.5,361.5 Z"/></g>
<g><path style="opacity:1" fill="#f9caa1" d="M 103.5,368.5 C 104.5,368.833 105.167,369.5 105.5,370.5C 111.167,376.5 116.833,382.5 122.5,388.5C 116.194,395.473 109.527,402.14 102.5,408.5C 96.7776,402.773 90.7776,397.44 84.5,392.5C 84.5,392.167 84.5,391.833 84.5,391.5C 90.4559,383.542 96.7893,375.875 103.5,368.5 Z"/></g>
<g><path style="opacity:1" fill="#3f445c" d="M 84.5,392.5 C 90.7776,397.44 96.7776,402.773 102.5,408.5C 107.167,413.833 112.167,418.833 117.5,423.5C 118.11,424.391 118.443,425.391 118.5,426.5C 114.167,429.833 109.833,433.167 105.5,436.5C 91.9196,429.875 78.2529,423.542 64.5,417.5C 71.1667,409.167 77.8333,400.833 84.5,392.5 Z"/></g>
<g><path style="opacity:1" fill="#e65736" d="M 122.5,388.5 C 125.833,391.167 128.833,394.167 131.5,397.5C 128.347,407.15 123.68,415.817 117.5,423.5C 112.167,418.833 107.167,413.833 102.5,408.5C 109.527,402.14 116.194,395.473 122.5,388.5 Z"/></g>
<g><path style="opacity:1" fill="#e96043" d="M 131.5,397.5 C 134.5,400.167 137.5,402.833 140.5,405.5C 144.833,409.167 148.833,413.167 152.5,417.5C 146.264,425.623 141.264,434.623 137.5,444.5C 131.167,438.5 124.833,432.5 118.5,426.5C 118.443,425.391 118.11,424.391 117.5,423.5C 123.68,415.817 128.347,407.15 131.5,397.5 Z"/></g>
<g><path style="opacity:1" fill="#ed6c55" d="M 152.5,417.5 C 159.465,423.964 166.298,430.631 173,437.5C 173.667,438.5 173.667,439.5 173,440.5C 169.03,445.475 164.197,449.309 158.5,452C 149.713,454.129 142.713,451.629 137.5,444.5C 141.264,434.623 146.264,425.623 152.5,417.5 Z"/></g>
<g><path style="opacity:1" fill="#474c64" d="M 64.5,417.5 C 78.2529,423.542 91.9196,429.875 105.5,436.5C 98.8142,442.516 91.8142,448.182 84.5,453.5C 72.8616,447.61 60.8616,442.277 48.5,437.5C 53.4838,430.52 58.8171,423.854 64.5,417.5 Z"/></g>
<g><path style="opacity:1" fill="#555b72" d="M 48.5,437.5 C 60.8616,442.277 72.8616,447.61 84.5,453.5C 78.392,459.061 72.0586,464.394 65.5,469.5C 55.3898,463.783 44.7231,459.117 33.5,455.5C 38.0339,449.091 43.0339,443.091 48.5,437.5 Z"/></g>
<g><path style="opacity:1" fill="#5f657b" d="M 33.5,455.5 C 44.7231,459.117 55.3898,463.783 65.5,469.5C 60.6851,473.47 55.6851,477.303 50.5,481C 48.0871,481.484 45.7538,481.15 43.5,480C 39.3333,475.833 35.1667,471.667 31,467.5C 28.6796,462.788 29.5129,458.788 33.5,455.5 Z"/></g>
</svg>
