<?xml version="1.0" encoding="UTF-8"?>
<!DOCTYPE svg PUBLIC "-//W3C//DTD SVG 1.1//EN" "http://www.w3.org/Graphics/SVG/1.1/DTD/svg11.dtd">
<svg xmlns="http://www.w3.org/2000/svg" version="1.1" width="512px" height="512px" style="shape-rendering:geometricPrecision; text-rendering:geometricPrecision; image-rendering:optimizeQuality; fill-rule:evenodd; clip-rule:evenodd" xmlns:xlink="http://www.w3.org/1999/xlink">
<g><path style="opacity:1" fill="#38394c" d="M 212.5,29.5 C 265.718,26.9508 318.384,31.1175 370.5,42C 375.391,43.7085 376.558,46.8752 374,51.5C 333.869,62.0427 294.035,73.7093 254.5,86.5C 222.371,71.1821 189.871,56.8488 157,43.5C 155.385,38.9103 156.885,36.077 161.5,35C 178.599,32.6621 195.599,30.8288 212.5,29.5 Z"/></g>
<g><path style="opacity:1" fill="#39394c" d="M 469.5,34.5 C 473.637,34.4284 475.97,36.4284 476.5,40.5C 441.136,157.761 401.302,273.428 357,387.5C 354.353,391.763 351.019,392.43 347,389.5C 344.898,356.849 343.064,324.182 341.5,291.5C 334.21,292.729 326.877,293.229 319.5,293C 317.375,291.263 316.542,289.096 317,286.5C 349.881,228.737 379.047,169.07 404.5,107.5C 342.502,131.662 282.502,160.495 224.5,194C 221.904,194.458 219.737,193.625 218,191.5C 217.771,184.123 218.271,176.79 219.5,169.5C 186.822,167.936 154.155,166.103 121.5,164C 118.941,160.925 118.941,157.925 121.5,155C 235.999,110.334 351.999,70.1676 469.5,34.5 Z"/></g>
<g><path style="opacity:1" fill="#a7d3f9" d="M 239.5,39.5 C 249.167,39.5 258.833,39.5 268.5,39.5C 275.833,47.8333 283.167,56.1667 290.5,64.5C 283.167,66.5 275.833,68.5 268.5,70.5C 259.2,59.8652 249.533,49.5319 239.5,39.5 Z"/></g>
<g><path style="opacity:1" fill="#abd6f6" d="M 239.5,39.5 C 249.533,49.5319 259.2,59.8652 268.5,70.5C 263.511,73.1058 258.178,74.6058 252.5,75C 229.644,63.2377 206.31,52.5711 182.5,43C 201.37,40.1475 220.37,38.9808 239.5,39.5 Z"/></g>
<g><path style="opacity:1" fill="#a2cbf7" d="M 268.5,39.5 C 277.538,39.7039 286.538,40.3706 295.5,41.5C 300.894,46.8896 305.894,52.5563 310.5,58.5C 303.725,60.193 297.059,62.193 290.5,64.5C 283.167,56.1667 275.833,47.8333 268.5,39.5 Z"/></g>
<g><path style="opacity:1" fill="#a0c4f6" d="M 295.5,41.5 C 312.929,42.8453 330.262,45.012 347.5,48C 335.103,51.3485 322.77,54.8485 310.5,58.5C 305.894,52.5563 300.894,46.8896 295.5,41.5 Z"/></g>
<g><path style="opacity:1" fill="#94acf7" d="M 451.5,86.5 C 442.833,77.1667 433.833,68.1667 424.5,59.5C 436.748,55.0296 449.248,51.0296 462,47.5C 462.5,47.8333 463,48.1667 463.5,48.5C 459.658,61.3514 455.658,74.0181 451.5,86.5 Z"/></g>
<g><path style="opacity:1" fill="#9ab4f8" d="M 424.5,59.5 C 433.833,68.1667 442.833,77.1667 451.5,86.5C 449.537,94.0512 447.204,101.385 444.5,108.5C 444.649,107.448 444.483,106.448 444,105.5C 431.167,92.6667 418.333,79.8333 405.5,67C 404.207,66.51 402.873,66.3433 401.5,66.5C 408.898,63.5922 416.564,61.2589 424.5,59.5 Z"/></g>
<g><path style="opacity:1" fill="#9bbaf8" d="M 401.5,66.5 C 402.873,66.3433 404.207,66.51 405.5,67C 418.333,79.8333 431.167,92.6667 444,105.5C 444.483,106.448 444.649,107.448 444.5,108.5C 442.898,114.971 440.898,121.304 438.5,127.5C 432.063,120.562 425.397,113.729 418.5,107C 417.906,106.536 417.239,106.369 416.5,106.5C 417.404,102.856 418.737,99.3556 420.5,96C 420,92.8333 418.167,91 415,90.5C 411.764,91.7431 408.597,93.0764 405.5,94.5C 398.445,86.4435 390.779,79.1102 382.5,72.5C 388.616,70.1296 394.949,68.1296 401.5,66.5 Z"/></g>
<g><path style="opacity:1" fill="#9ebff7" d="M 382.5,72.5 C 390.779,79.1102 398.445,86.4435 405.5,94.5C 399.051,96.8909 392.718,99.5575 386.5,102.5C 379.369,94.8684 372.036,87.3684 364.5,80C 363.552,79.5172 362.552,79.3505 361.5,79.5C 368.266,76.7188 375.266,74.3854 382.5,72.5 Z"/></g>
<g><path style="opacity:1" fill="#a1c6f8" d="M 361.5,79.5 C 362.552,79.3505 363.552,79.5172 364.5,80C 372.036,87.3684 379.369,94.8684 386.5,102.5C 378.717,105.558 371.05,108.892 363.5,112.5C 359.902,107.726 356.069,103.06 352,98.5C 348.5,95 345,91.5 341.5,88C 340.552,87.5172 339.552,87.3505 338.5,87.5C 345.954,84.4588 353.62,81.7921 361.5,79.5 Z"/></g>
<g><path style="opacity:1" fill="#a4ccf8" d="M 338.5,87.5 C 339.552,87.3505 340.552,87.5172 341.5,88C 345,91.5 348.5,95 352,98.5C 356.069,103.06 359.902,107.726 363.5,112.5C 357.5,115.167 351.5,117.833 345.5,120.5C 337.339,112.171 329.339,103.671 321.5,95C 320.207,94.51 318.873,94.3433 317.5,94.5C 324.216,91.5946 331.216,89.2613 338.5,87.5 Z"/></g>
<g><path style="opacity:1" fill="#a6d2f8" d="M 317.5,94.5 C 318.873,94.3433 320.207,94.51 321.5,95C 329.339,103.671 337.339,112.171 345.5,120.5C 338.61,123.779 331.61,126.779 324.5,129.5C 315.472,120.14 306.472,110.807 297.5,101.5C 303.953,98.7921 310.62,96.4588 317.5,94.5 Z"/></g>
<g><path style="opacity:1" fill="#aed8f8" d="M 297.5,101.5 C 306.472,110.807 315.472,120.14 324.5,129.5C 310.565,136.467 296.565,143.467 282.5,150.5C 272.114,139.113 261.114,128.446 249.5,118.5C 265.24,112.306 281.24,106.64 297.5,101.5 Z"/></g>
<g><path style="opacity:1" fill="#9ebff8" d="M 416.5,106.5 C 417.239,106.369 417.906,106.536 418.5,107C 425.397,113.729 432.063,120.562 438.5,127.5C 436.738,134.785 434.405,141.785 431.5,148.5C 424.119,140.452 416.452,132.785 408.5,125.5C 410.93,118.984 413.597,112.65 416.5,106.5 Z"/></g>
<g><path style="opacity:1" fill="#39394c" d="M 379.5,123.5 C 384.156,122.34 386.823,124.007 387.5,128.5C 384.479,136.875 380.646,144.875 376,152.5C 348.026,200.455 317.693,246.788 285,291.5C 236.06,323.413 190.894,360.247 149.5,402C 159.333,411.833 169.167,421.667 179,431.5C 181,434.167 181,436.833 179,439.5C 174.756,444.415 169.923,448.581 164.5,452C 156.545,454.439 148.878,453.773 141.5,450C 134.667,443.167 127.833,436.333 121,429.5C 100.408,446.214 79.908,463.047 59.5,480C 54.0132,482.185 48.6799,481.851 43.5,479C 38.2538,474.425 33.7538,469.258 30,463.5C 29.3333,460.167 29.3333,456.833 30,453.5C 47.1667,432.333 64.3333,411.167 81.5,390C 73.2632,382.433 65.7632,374.267 59,365.5C 56.2941,356.975 57.2941,348.975 62,341.5C 65.1667,338.333 68.3333,335.167 71.5,332C 73.3646,330.699 75.3646,330.365 77.5,331C 88.304,340.803 98.804,350.97 109,361.5C 150.753,320.106 187.587,274.94 219.5,226C 270.353,188.067 323.687,153.9 379.5,123.5 Z"/></g>
<g><path style="opacity:1" fill="#b9dff8" d="M 249.5,118.5 C 261.114,128.446 272.114,139.113 282.5,150.5C 264.848,159.325 247.515,168.658 230.5,178.5C 229.539,176.735 229.205,174.735 229.5,172.5C 229.665,168.818 229.499,165.152 229,161.5C 228.5,161 228,160.5 227.5,160C 223.644,159.823 219.977,159.323 216.5,158.5C 211.394,151.864 205.394,145.364 198.5,139C 197.552,138.517 196.552,138.351 195.5,138.5C 213.194,131.266 231.194,124.599 249.5,118.5 Z"/></g>
<g><path style="opacity:1" fill="#a1c6f8" d="M 408.5,125.5 C 416.452,132.785 424.119,140.452 431.5,148.5C 429.602,156.53 426.936,164.197 423.5,171.5C 415.86,163.194 407.86,155.194 399.5,147.5C 402.11,140.001 405.11,132.667 408.5,125.5 Z"/></g>
<g><path style="opacity:1" fill="#38384b" d="M 461.5,135.5 C 465.499,135.074 467.999,136.741 469,140.5C 482.955,210.092 485.288,280.092 476,350.5C 474.309,354.213 471.475,355.379 467.5,354C 454.284,321.229 439.951,288.896 424.5,257C 436.882,218.521 448.048,179.688 458,140.5C 458.257,138.093 459.424,136.427 461.5,135.5 Z"/></g>
<g><path style="opacity:1" fill="#c2e2f5" d="M 195.5,138.5 C 196.552,138.351 197.552,138.517 198.5,139C 205.394,145.364 211.394,151.864 216.5,158.5C 194.019,157.873 171.686,156.706 149.5,155C 164.757,149.201 180.091,143.701 195.5,138.5 Z"/></g>
<g><path style="opacity:1" fill="#e9f1f8" d="M 365.5,143.5 C 366.525,143.897 366.692,144.563 366,145.5C 339.026,172.807 311.693,199.807 284,226.5C 283.338,227.984 282.504,229.317 281.5,230.5C 277.895,232.472 274.895,235.139 272.5,238.5C 263.619,232.892 255.286,226.559 247.5,219.5C 285.097,191.687 324.43,166.354 365.5,143.5 Z"/></g>
<g><path style="opacity:1" fill="#a4cdf8" d="M 399.5,147.5 C 407.86,155.194 415.86,163.194 423.5,171.5C 421.739,178.784 419.405,185.784 416.5,192.5C 408.167,183.5 399.5,174.833 390.5,166.5C 393.261,159.981 396.261,153.648 399.5,147.5 Z"/></g>
<g><path style="opacity:1" fill="#a7d3f8" d="M 390.5,166.5 C 399.5,174.833 408.167,183.5 416.5,192.5C 414.208,200.38 411.541,208.046 408.5,215.5C 400.425,205.921 391.758,196.754 382.5,188C 381.906,187.536 381.239,187.369 380.5,187.5C 383.563,180.374 386.896,173.374 390.5,166.5 Z"/></g>
<g><path style="opacity:1" fill="#7f8fa4" d="M 229.5,172.5 C 229.205,174.735 229.539,176.735 230.5,178.5C 230.44,179.043 230.107,179.376 229.5,179.5C 228.203,177.027 228.203,174.693 229.5,172.5 Z"/></g>
<g><path style="opacity:1" fill="#9dc0f2" d="M 470.5,221.5 C 464.896,214.558 458.896,207.892 452.5,201.5C 455.374,188.671 458.874,176.004 463,163.5C 466.489,182.705 468.989,202.038 470.5,221.5 Z"/></g>
<g><path style="opacity:1" fill="#abb9ea" d="M 303.5,247.5 C 296.167,241.833 288.833,236.167 281.5,230.5C 282.504,229.317 283.338,227.984 284,226.5C 311.693,199.807 339.026,172.807 366,145.5C 366.692,144.563 366.525,143.897 365.5,143.5C 366.635,141.912 367.969,141.579 369.5,142.5C 349.055,178.583 327.055,213.583 303.5,247.5 Z"/></g>
<g><path style="opacity:1" fill="#aed9f9" d="M 380.5,187.5 C 381.239,187.369 381.906,187.536 382.5,188C 391.758,196.754 400.425,205.921 408.5,215.5C 403.366,230.902 398.033,246.235 392.5,261.5C 381.473,251.14 370.806,240.473 360.5,229.5C 366.975,215.409 373.641,201.409 380.5,187.5 Z"/></g>
<g><path style="opacity:1" fill="#38384b" d="M 148.5,204.5 C 160.976,205.577 172.809,208.91 184,214.5C 184.667,216.833 184.667,219.167 184,221.5C 162.396,232.385 140.562,242.885 118.5,253C 112.703,254.526 109.87,252.359 110,246.5C 116.645,232.701 125.145,220.201 135.5,209C 139.715,206.763 144.048,205.263 148.5,204.5 Z"/></g>
<g><path style="opacity:1" fill="#a4cbf7" d="M 452.5,201.5 C 458.896,207.892 464.896,214.558 470.5,221.5C 471.011,230.158 471.344,238.825 471.5,247.5C 463.167,238.833 454.833,230.167 446.5,221.5C 447.928,214.559 449.928,207.893 452.5,201.5 Z"/></g>
<g><path style="opacity:1" fill="#cce5f2" d="M 144.5,215.5 C 152.16,215.055 159.493,216.222 166.5,219C 153.563,224.977 140.73,231.144 128,237.5C 131.756,228.903 137.256,221.57 144.5,215.5 Z"/></g>
<g><path style="opacity:1" fill="#a7d3f9" d="M 446.5,221.5 C 454.833,230.167 463.167,238.833 471.5,247.5C 471.5,256.833 471.5,266.167 471.5,275.5C 461.005,265.839 451.005,255.672 441.5,245C 440.906,244.536 440.239,244.369 439.5,244.5C 441.959,236.867 444.293,229.201 446.5,221.5 Z"/></g>
<g><path style="opacity:1" fill="#e1ebf9" d="M 247.5,219.5 C 255.286,226.559 263.619,232.892 272.5,238.5C 266.167,245.167 259.833,251.833 253.5,258.5C 248.539,262.126 243.872,266.126 239.5,270.5C 231.5,263.833 223.5,257.167 215.5,250.5C 218.872,244.261 222.872,238.428 227.5,233C 234.066,228.253 240.732,223.753 247.5,219.5 Z"/></g>
<g><path style="opacity:1" fill="#b9dff8" d="M 360.5,229.5 C 370.806,240.473 381.473,251.14 392.5,261.5C 386.008,279.652 379.341,297.652 372.5,315.5C 365.833,309.167 359.167,302.833 352.5,296.5C 352.879,291.159 351.879,286.159 349.5,281.5C 343.463,281.115 337.463,281.115 331.5,281.5C 341.701,264.427 351.368,247.094 360.5,229.5 Z"/></g>
<g><path style="opacity:1" fill="#9daee0" d="M 281.5,230.5 C 288.833,236.167 296.167,241.833 303.5,247.5C 295.733,258.715 287.733,269.715 279.5,280.5C 270.54,273.542 261.873,266.209 253.5,258.5C 259.833,251.833 266.167,245.167 272.5,238.5C 274.895,235.139 277.895,232.472 281.5,230.5 Z"/></g>
<g><path style="opacity:1" fill="#abd6f6" d="M 439.5,244.5 C 440.239,244.369 440.906,244.536 441.5,245C 451.005,255.672 461.005,265.839 471.5,275.5C 471.379,292.91 470.212,310.243 468,327.5C 457.881,303.928 447.214,280.595 436,257.5C 436.06,252.828 437.226,248.495 439.5,244.5 Z"/></g>
<g><path style="opacity:1" fill="#dbe5f9" d="M 215.5,250.5 C 223.5,257.167 231.5,263.833 239.5,270.5C 235.5,274.833 231.5,279.167 227.5,283.5C 221.194,289.14 215.194,295.14 209.5,301.5C 208.078,301.291 206.745,300.791 205.5,300C 200.578,295.237 195.244,291.07 189.5,287.5C 198.174,275.161 206.841,262.828 215.5,250.5 Z"/></g>
<g><path style="opacity:1" fill="#98a8db" d="M 253.5,258.5 C 261.873,266.209 270.54,273.542 279.5,280.5C 278.432,283.075 276.765,285.242 274.5,287C 266.805,291.844 259.139,296.677 251.5,301.5C 244.83,296.82 238.497,291.654 232.5,286C 230.922,284.906 229.255,284.072 227.5,283.5C 231.5,279.167 235.5,274.833 239.5,270.5C 243.872,266.126 248.539,262.126 253.5,258.5 Z"/></g>
<g><path style="opacity:1" fill="#d3dff8" d="M 189.5,287.5 C 195.244,291.07 200.578,295.237 205.5,300C 206.745,300.791 208.078,301.291 209.5,301.5C 199.473,312.194 189.14,322.527 178.5,332.5C 176.167,334.167 174.167,336.167 172.5,338.5C 166.917,335.253 161.917,331.253 157.5,326.5C 168.173,313.494 178.84,300.494 189.5,287.5 Z"/></g>
<g><path style="opacity:1" fill="#909ed4" d="M 227.5,283.5 C 229.255,284.072 230.922,284.906 232.5,286C 238.497,291.654 244.83,296.82 251.5,301.5C 232.287,315.036 213.621,329.37 195.5,344.5C 189.833,340.5 184.167,336.5 178.5,332.5C 189.14,322.527 199.473,312.194 209.5,301.5C 215.194,295.14 221.194,289.14 227.5,283.5 Z"/></g>
<g><path style="opacity:1" fill="#c1e2f5" d="M 352.5,296.5 C 359.167,302.833 365.833,309.167 372.5,315.5C 367.302,330.592 361.802,345.592 356,360.5C 353.957,339.217 352.79,317.883 352.5,296.5 Z"/></g>
<g><path style="opacity:1" fill="#38384b" d="M 289.5,326.5 C 292.119,326.232 294.619,326.565 297,327.5C 302.116,338.462 305.282,349.962 306.5,362C 305.702,370.265 302.035,376.931 295.5,382C 286.337,388.752 276.67,394.752 266.5,400C 259.51,402.005 256.676,399.505 258,392.5C 268.257,370.321 278.757,348.321 289.5,326.5 Z"/></g>
<g><path style="opacity:1" fill="#cbd6f7" d="M 157.5,326.5 C 161.917,331.253 166.917,335.253 172.5,338.5C 170.706,340.797 168.706,342.963 166.5,345C 157.657,345.824 148.99,345.657 140.5,344.5C 146.176,338.458 151.842,332.458 157.5,326.5 Z"/></g>
<g><path style="opacity:1" fill="#8695cb" d="M 178.5,332.5 C 184.167,336.5 189.833,340.5 195.5,344.5C 185.526,353.471 175.526,362.471 165.5,371.5C 155.278,364.553 145.612,356.886 136.5,348.5C 137.5,346.833 138.833,345.5 140.5,344.5C 148.99,345.657 157.657,345.824 166.5,345C 168.706,342.963 170.706,340.797 172.5,338.5C 174.167,336.167 176.167,334.167 178.5,332.5 Z"/></g>
<g><path style="opacity:1" fill="#cde5f2" d="M 291.5,344.5 C 292.117,344.611 292.617,344.944 293,345.5C 295.531,353.117 295.864,360.784 294,368.5C 288.15,374.984 281.316,379.817 273.5,383C 279.985,370.372 285.985,357.539 291.5,344.5 Z"/></g>
<g><path style="opacity:1" fill="#818ec7" d="M 136.5,348.5 C 145.612,356.886 155.278,364.553 165.5,371.5C 157.728,378.77 150.062,386.27 142.5,394C 141.833,394.667 141.167,394.667 140.5,394C 132.319,385.986 124.319,377.819 116.5,369.5C 123.216,362.453 129.883,355.453 136.5,348.5 Z"/></g>
<g><path style="opacity:1" fill="#f8bc7c" d="M 94.5,362.5 C 92.629,362.859 91.129,363.859 90,365.5C 87.2589,368.729 84.7589,372.062 82.5,375.5C 77.8688,371.37 73.3688,367.037 69,362.5C 65.4016,353.56 67.9016,347.393 76.5,344C 82.7028,350.035 88.7028,356.202 94.5,362.5 Z"/></g>
<g><path style="opacity:1" fill="#f9ca95" d="M 94.5,362.5 C 98.5,365.833 102.167,369.5 105.5,373.5C 101.857,378.148 98.1904,382.815 94.5,387.5C 90.1667,383.833 86.1667,379.833 82.5,375.5C 84.7589,372.062 87.2589,368.729 90,365.5C 91.129,363.859 92.629,362.859 94.5,362.5 Z"/></g>
<g><path style="opacity:1" fill="#f8d3a9" d="M 105.5,373.5 C 111.167,378.5 116.5,383.833 121.5,389.5C 117.5,393.833 113.5,398.167 109.5,402.5C 104.167,397.833 99.1667,392.833 94.5,387.5C 98.1904,382.815 101.857,378.148 105.5,373.5 Z"/></g>
<g><path style="opacity:1" fill="#ed6140" d="M 121.5,389.5 C 126.5,393.833 131.167,398.5 135.5,403.5C 133.64,409.553 130.973,415.22 127.5,420.5C 121.167,414.833 115.167,408.833 109.5,402.5C 113.5,398.167 117.5,393.833 121.5,389.5 Z"/></g>
<g><path style="opacity:1" fill="#7474a1" d="M 91.5,439.5 C 85.402,432.064 78.402,425.73 70.5,420.5C 75.7856,413.375 81.2856,406.375 87,399.5C 87.8373,397.993 89.0039,397.493 90.5,398C 98.3479,405.681 106.015,413.514 113.5,421.5C 106.463,427.871 99.1294,433.871 91.5,439.5 Z"/></g>
<g><path style="opacity:1" fill="#f16a4e" d="M 135.5,403.5 C 140.167,407.5 144.5,411.833 148.5,416.5C 146.64,422.553 143.973,428.22 140.5,433.5C 135.833,429.5 131.5,425.167 127.5,420.5C 130.973,415.22 133.64,409.553 135.5,403.5 Z"/></g>
<g><path style="opacity:1" fill="#f1715b" d="M 148.5,416.5 C 155.146,422.479 161.479,428.812 167.5,435.5C 157.69,446.72 148.69,446.054 140.5,433.5C 143.973,428.22 146.64,422.553 148.5,416.5 Z"/></g>
<g><path style="opacity:1" fill="#676794" d="M 70.5,420.5 C 78.402,425.73 85.402,432.064 91.5,439.5C 84.8735,445.157 78.2068,450.823 71.5,456.5C 66.8545,449.854 61.1878,444.188 54.5,439.5C 59.8629,433.142 65.1962,426.808 70.5,420.5 Z"/></g>
<g><path style="opacity:1" fill="#585885" d="M 54.5,439.5 C 61.1878,444.188 66.8545,449.854 71.5,456.5C 66.0395,460.789 60.7061,465.289 55.5,470C 53.9556,471.187 52.2889,471.52 50.5,471C 46.4519,467.288 42.7852,463.288 39.5,459C 43.9356,452.065 48.9356,445.565 54.5,439.5 Z"/></g>
</svg>
