<?xml version="1.0" encoding="UTF-8"?>
<!DOCTYPE svg PUBLIC "-//W3C//DTD SVG 1.1//EN" "http://www.w3.org/Graphics/SVG/1.1/DTD/svg11.dtd">
<svg xmlns="http://www.w3.org/2000/svg" version="1.1" width="512px" height="512px" style="shape-rendering:geometricPrecision; text-rendering:geometricPrecision; image-rendering:optimizeQuality; fill-rule:evenodd; clip-rule:evenodd" xmlns:xlink="http://www.w3.org/1999/xlink">
<g><path style="opacity:1" fill="#dfe5f9" d="M 85.5,55.5 C 80.1116,66.3312 76.1116,77.6645 73.5,89.5C 72.5891,94.4532 71.9224,99.4532 71.5,104.5C 70.5119,109.64 70.1786,114.974 70.5,120.5C 53.8333,120.5 37.1667,120.5 20.5,120.5C 21.783,88.1417 32.6164,59.4751 53,34.5C 55.5311,30.7984 58.6978,29.9651 62.5,32C 69.6989,40.3648 77.3656,48.1981 85.5,55.5 Z"/></g>
<g><path style="opacity:1" fill="#dfe5f9" d="M 490.5,120.5 C 473.833,120.5 457.167,120.5 440.5,120.5C 440.821,114.974 440.488,109.64 439.5,104.5C 439.205,99.4364 438.538,94.4364 437.5,89.5C 435.158,78.3079 431.325,67.6413 426,57.5C 425.329,56.7476 424.496,56.4142 423.5,56.5C 432.601,49.2332 440.935,41.0665 448.5,32C 450.833,30 453.167,30 455.5,32C 477.552,57.2886 489.219,86.7886 490.5,120.5 Z"/></g>
<g><path style="opacity:1" fill="#7676a3" d="M 423.5,56.5 C 424.496,56.4142 425.329,56.7476 426,57.5C 431.325,67.6413 435.158,78.3079 437.5,89.5C 398.239,88.5063 358.906,88.173 319.5,88.5C 320.944,83.8886 323.944,80.7219 328.5,79C 362.446,80.5818 394.112,73.0818 423.5,56.5 Z"/></g>
<g><path style="opacity:1" fill="#7676a3" d="M 85.5,55.5 C 115.39,72.784 147.723,80.6173 182.5,79C 187.056,80.7219 190.056,83.8886 191.5,88.5C 152.094,88.173 112.761,88.5063 73.5,89.5C 76.1116,77.6645 80.1116,66.3312 85.5,55.5 Z"/></g>
<g><path style="opacity:1" fill="#70709d" d="M 191.5,88.5 C 193.698,94.4262 195.698,100.426 197.5,106.5C 155.67,107.499 113.67,107.832 71.5,107.5C 71.5,106.5 71.5,105.5 71.5,104.5C 71.9224,99.4532 72.5891,94.4532 73.5,89.5C 112.761,88.5063 152.094,88.173 191.5,88.5 Z"/></g>
<g><path style="opacity:1" fill="#70709d" d="M 319.5,88.5 C 358.906,88.173 398.239,88.5063 437.5,89.5C 438.538,94.4364 439.205,99.4364 439.5,104.5C 439.5,105.5 439.5,106.5 439.5,107.5C 397.33,107.832 355.33,107.499 313.5,106.5C 315.302,100.426 317.302,94.4262 319.5,88.5 Z"/></g>
<g><path style="opacity:1" fill="#6a6a97" d="M 197.5,106.5 C 199.875,111.953 201.875,117.619 203.5,123.5C 197.993,123.735 192.66,124.735 187.5,126.5C 149.004,125.501 110.337,125.168 71.5,125.5C 71.5,119.5 71.5,113.5 71.5,107.5C 113.67,107.832 155.67,107.499 197.5,106.5 Z"/></g>
<g><path style="opacity:1" fill="#6a6a97" d="M 313.5,106.5 C 355.33,107.499 397.33,107.832 439.5,107.5C 439.5,113.5 439.5,119.5 439.5,125.5C 400.663,125.168 361.996,125.501 323.5,126.5C 318.303,124.856 312.97,123.856 307.5,123.5C 309.125,117.619 311.125,111.953 313.5,106.5 Z"/></g>
<g><path style="opacity:1" fill="#646496" d="M 71.5,125.5 C 110.337,125.168 149.004,125.501 187.5,126.5C 180.753,128.379 174.42,131.046 168.5,134.5C 166.95,135.441 165.284,136.107 163.5,136.5C 133.5,136.5 103.5,136.5 73.5,136.5C 72.3126,133.054 71.6459,129.387 71.5,125.5 Z"/></g>
<g><path style="opacity:1" fill="#646495" d="M 323.5,126.5 C 361.996,125.501 400.663,125.168 439.5,125.5C 438.833,129.167 438.167,132.833 437.5,136.5C 407.76,136.175 378.093,136.508 348.5,137.5C 346.5,136.5 344.5,135.5 342.5,134.5C 336.564,131.071 330.231,128.405 323.5,126.5 Z"/></g>
<g><path style="opacity:1" fill="#c3d5f9" d="M 439.5,104.5 C 440.488,109.64 440.821,114.974 440.5,120.5C 457.167,120.5 473.833,120.5 490.5,120.5C 490.937,130.065 490.27,139.398 488.5,148.5C 470.833,147.833 453.167,147.167 435.5,146.5C 436.167,143.167 436.833,139.833 437.5,136.5C 438.167,132.833 438.833,129.167 439.5,125.5C 439.5,119.5 439.5,113.5 439.5,107.5C 439.5,106.5 439.5,105.5 439.5,104.5 Z"/></g>
<g><path style="opacity:1" fill="#64648f" d="M 73.5,136.5 C 103.5,136.5 133.5,136.5 163.5,136.5C 158.04,140.402 152.373,144.069 146.5,147.5C 123.167,147.5 99.8333,147.5 76.5,147.5C 76.1667,147.5 75.8333,147.5 75.5,147.5C 74.9922,143.803 74.3255,140.136 73.5,136.5 Z"/></g>
<g><path style="opacity:1" fill="#64648f" d="M 437.5,136.5 C 436.833,139.833 436.167,143.167 435.5,146.5C 434.833,146.5 434.5,146.833 434.5,147.5C 411.327,147.169 388.327,147.502 365.5,148.5C 359.967,144.571 354.3,140.904 348.5,137.5C 378.093,136.508 407.76,136.175 437.5,136.5 Z"/></g>
<g><path style="opacity:1" fill="#c3d5f9" d="M 71.5,104.5 C 71.5,105.5 71.5,106.5 71.5,107.5C 71.5,113.5 71.5,119.5 71.5,125.5C 71.6459,129.387 72.3126,133.054 73.5,136.5C 74.3255,140.136 74.9922,143.803 75.5,147.5C 57.6588,147.17 39.9921,147.503 22.5,148.5C 20.7296,139.398 20.0629,130.065 20.5,120.5C 37.1667,120.5 53.8333,120.5 70.5,120.5C 70.1786,114.974 70.5119,109.64 71.5,104.5 Z"/></g>
<g><path style="opacity:1" fill="#f9907f" d="M 203.5,123.5 C 207.807,135.414 212.14,147.414 216.5,159.5C 205.151,164.007 194.151,169.34 183.5,175.5C 178.7,161.768 173.7,148.102 168.5,134.5C 174.42,131.046 180.753,128.379 187.5,126.5C 192.66,124.735 197.993,123.735 203.5,123.5 Z"/></g>
<g><path style="opacity:1" fill="#f9907f" d="M 307.5,123.5 C 312.97,123.856 318.303,124.856 323.5,126.5C 330.231,128.405 336.564,131.071 342.5,134.5C 337.3,148.102 332.3,161.768 327.5,175.5C 325.833,174.833 324.167,174.167 322.5,173.5C 317.591,169.21 311.924,166.21 305.5,164.5C 301.673,162.754 298.007,160.754 294.5,158.5C 299.054,146.829 303.387,135.163 307.5,123.5 Z"/></g>
<g><path style="opacity:1" fill="#b7cbf9" d="M 75.5,147.5 C 75.8333,147.5 76.1667,147.5 76.5,147.5C 77.769,152.307 79.4356,156.973 81.5,161.5C 63.1966,163.487 44.5299,164.154 25.5,163.5C 23.7135,158.683 22.7135,153.683 22.5,148.5C 39.9921,147.503 57.6588,147.17 75.5,147.5 Z"/></g>
<g><path style="opacity:1" fill="#b7cbf9" d="M 435.5,146.5 C 453.167,147.167 470.833,147.833 488.5,148.5C 488.242,154.528 486.908,160.194 484.5,165.5C 466.167,164.167 447.833,162.833 429.5,161.5C 431.564,156.973 433.231,152.307 434.5,147.5C 434.5,146.833 434.833,146.5 435.5,146.5 Z"/></g>
<g><path style="opacity:1" fill="#b9cdf9" d="M 285.5,156.5 C 285.389,157.117 285.056,157.617 284.5,158C 247.522,166.995 210.522,175.828 173.5,184.5C 176.456,181.032 179.789,178.032 183.5,175.5C 194.151,169.34 205.151,164.007 216.5,159.5C 239.203,152.74 262.203,151.74 285.5,156.5 Z"/></g>
<g><path style="opacity:1" fill="#5b5b8a" d="M 76.5,147.5 C 99.8333,147.5 123.167,147.5 146.5,147.5C 129.872,159.795 115.205,174.128 102.5,190.5C 101.833,189.167 100.833,188.167 99.5,187.5C 96.5136,183.183 93.1803,179.183 89.5,175.5C 86.8299,170.825 84.1633,166.159 81.5,161.5C 79.4356,156.973 77.769,152.307 76.5,147.5 Z"/></g>
<g><path style="opacity:1" fill="#5b5b8b" d="M 365.5,148.5 C 388.327,147.502 411.327,147.169 434.5,147.5C 433.231,152.307 431.564,156.973 429.5,161.5C 426.837,166.159 424.17,170.825 421.5,175.5C 417.82,179.183 414.486,183.183 411.5,187.5C 410.167,188.167 409.167,189.167 408.5,190.5C 396.155,174.488 381.821,160.488 365.5,148.5 Z"/></g>
<g><path style="opacity:1" fill="#c1d3f9" d="M 285.5,156.5 C 288.402,157.578 291.402,158.244 294.5,158.5C 298.007,160.754 301.673,162.754 305.5,164.5C 256.37,176.864 207.037,188.864 157.5,200.5C 161.833,194.167 167.167,188.833 173.5,184.5C 210.522,175.828 247.522,166.995 284.5,158C 285.056,157.617 285.389,157.117 285.5,156.5 Z"/></g>
<g><path style="opacity:1" fill="#afbcf9" d="M 81.5,161.5 C 84.1633,166.159 86.8299,170.825 89.5,175.5C 69.6596,175.17 49.9929,175.503 30.5,176.5C 28.2661,172.478 26.5995,168.144 25.5,163.5C 44.5299,164.154 63.1966,163.487 81.5,161.5 Z"/></g>
<g><path style="opacity:1" fill="#afbcf9" d="M 429.5,161.5 C 447.833,162.833 466.167,164.167 484.5,165.5C 483.901,168.963 482.901,172.296 481.5,175.5C 461.5,175.5 441.5,175.5 421.5,175.5C 424.17,170.825 426.837,166.159 429.5,161.5 Z"/></g>
<g><path style="opacity:1" fill="#a9b0f9" d="M 89.5,175.5 C 93.1803,179.183 96.5136,183.183 99.5,187.5C 78.3267,187.169 57.3267,187.503 36.5,188.5C 33.9458,184.877 31.9458,180.877 30.5,176.5C 49.9929,175.503 69.6596,175.17 89.5,175.5 Z"/></g>
<g><path style="opacity:1" fill="#a9b0f9" d="M 421.5,175.5 C 441.5,175.5 461.5,175.5 481.5,175.5C 479.405,180.027 477.072,184.361 474.5,188.5C 453.673,187.503 432.673,187.169 411.5,187.5C 414.486,183.183 417.82,179.183 421.5,175.5 Z"/></g>
<g><path style="opacity:1" fill="#e0e5f9" d="M 322.5,173.5 C 324.167,174.167 325.833,174.833 327.5,175.5C 362.557,200.605 380.557,234.938 381.5,278.5C 370.833,278.5 360.167,278.5 349.5,278.5C 349.81,281.713 349.477,284.713 348.5,287.5C 351.14,255.059 340.14,228.392 315.5,207.5C 311.223,203.688 306.557,200.355 301.5,197.5C 291.097,192.032 280.097,188.366 268.5,186.5C 286.243,181.565 304.243,177.232 322.5,173.5 Z"/></g>
<g><path style="opacity:1" fill="#ccd9f8" d="M 305.5,164.5 C 311.924,166.21 317.591,169.21 322.5,173.5C 304.243,177.232 286.243,181.565 268.5,186.5C 267.167,186.5 265.833,186.5 264.5,186.5C 259.4,185.2 254.4,185.2 249.5,186.5C 236.265,186.58 223.931,189.913 212.5,196.5C 208.5,198.833 204.5,201.167 200.5,203.5C 183.94,206.351 167.274,210.017 150.5,214.5C 149.584,214.457 148.917,214.124 148.5,213.5C 151.143,208.868 154.143,204.535 157.5,200.5C 207.037,188.864 256.37,176.864 305.5,164.5 Z"/></g>
<g><path style="opacity:1" fill="#a4a4f3" d="M 99.5,187.5 C 100.833,188.167 101.833,189.167 102.5,190.5C 101.083,193.669 99.4168,196.669 97.5,199.5C 79.3256,199.17 61.3256,199.503 43.5,200.5C 40.6654,196.836 38.332,192.836 36.5,188.5C 57.3267,187.503 78.3267,187.169 99.5,187.5 Z"/></g>
<g><path style="opacity:1" fill="#a4a4f3" d="M 411.5,187.5 C 432.673,187.169 453.673,187.503 474.5,188.5C 472.668,192.836 470.335,196.836 467.5,200.5C 449.577,199.514 431.577,199.181 413.5,199.5C 411.583,196.669 409.917,193.669 408.5,190.5C 409.167,189.167 410.167,188.167 411.5,187.5 Z"/></g>
<g><path style="opacity:1" fill="#f46a62" d="M 264.5,186.5 C 265.833,186.5 267.167,186.5 268.5,186.5C 280.097,188.366 291.097,192.032 301.5,197.5C 301.5,220.833 301.5,244.167 301.5,267.5C 292.454,275.215 283.12,282.548 273.5,289.5C 278.584,277.11 275.584,267.444 264.5,260.5C 264.5,235.833 264.5,211.167 264.5,186.5 Z"/></g>
<g><path style="opacity:1" fill="#9d97f3" d="M 97.5,199.5 C 92.3047,211.28 89.1381,223.614 88,236.5C 87.101,238.368 85.601,239.368 83.5,239.5C 67.5516,229.219 54.2182,216.219 43.5,200.5C 61.3256,199.503 79.3256,199.17 97.5,199.5 Z"/></g>
<g><path style="opacity:1" fill="#9d97f3" d="M 413.5,199.5 C 431.577,199.181 449.577,199.514 467.5,200.5C 456.782,216.219 443.448,229.219 427.5,239.5C 425.399,239.368 423.899,238.368 423,236.5C 421.862,223.614 418.695,211.28 413.5,199.5 Z"/></g>
<g><path style="opacity:1" fill="#f76e64" d="M 249.5,186.5 C 249.5,210.833 249.5,235.167 249.5,259.5C 234.249,267.912 231.583,279.245 241.5,293.5C 231.684,300.582 222.017,307.915 212.5,315.5C 212.5,301.5 212.5,287.5 212.5,273.5C 212.5,247.833 212.5,222.167 212.5,196.5C 223.931,189.913 236.265,186.58 249.5,186.5 Z"/></g>
<g><path style="opacity:1" fill="#dfe5f9" d="M 200.5,203.5 C 199.833,204.167 199.167,204.833 198.5,205.5C 197.5,205.833 196.833,206.5 196.5,207.5C 174.761,225.984 163.428,249.651 162.5,278.5C 151.833,278.5 141.167,278.5 130.5,278.5C 130.128,254.978 136.128,233.311 148.5,213.5C 148.917,214.124 149.584,214.457 150.5,214.5C 167.274,210.017 183.94,206.351 200.5,203.5 Z"/></g>
<g><path style="opacity:1" fill="#b54351" d="M 212.5,196.5 C 212.5,222.167 212.5,247.833 212.5,273.5C 211.507,281.984 211.174,290.651 211.5,299.5C 207.167,299.5 202.833,299.5 198.5,299.5C 198.5,268.167 198.5,236.833 198.5,205.5C 199.167,204.833 199.833,204.167 200.5,203.5C 204.5,201.167 208.5,198.833 212.5,196.5 Z"/></g>
<g><path style="opacity:1" fill="#b94755" d="M 264.5,186.5 C 264.5,211.167 264.5,235.833 264.5,260.5C 259.636,258.33 254.636,257.997 249.5,259.5C 249.5,235.167 249.5,210.833 249.5,186.5C 254.4,185.2 259.4,185.2 264.5,186.5 Z"/></g>
<g><path style="opacity:1" fill="#f76f67" d="M 196.5,207.5 C 197.833,255.167 197.833,302.833 196.5,350.5C 193.167,347.5 189.833,344.5 186.5,341.5C 182.577,336.64 178.91,331.64 175.5,326.5C 172.893,321.62 170.56,316.62 168.5,311.5C 166.651,305.099 164.984,298.766 163.5,292.5C 163.167,287.833 162.833,283.167 162.5,278.5C 163.428,249.651 174.761,225.984 196.5,207.5 Z"/></g>
<g><path style="opacity:1" fill="#f9f7f7" d="M 264.5,260.5 C 275.584,267.444 278.584,277.11 273.5,289.5C 271.12,292.881 268.12,295.547 264.5,297.5C 259.562,298.392 254.562,298.726 249.5,298.5C 246.833,296.833 244.167,295.167 241.5,293.5C 231.583,279.245 234.249,267.912 249.5,259.5C 254.636,257.997 259.636,258.33 264.5,260.5 Z"/></g>
<g><path style="opacity:1" fill="#d45758" d="M 198.5,205.5 C 198.5,236.833 198.5,268.167 198.5,299.5C 198.5,317.167 198.5,334.833 198.5,352.5C 197.5,352.167 196.833,351.5 196.5,350.5C 197.833,302.833 197.833,255.167 196.5,207.5C 196.833,206.5 197.5,205.833 198.5,205.5 Z"/></g>
<g><path style="opacity:1" fill="#b3404e" d="M 301.5,197.5 C 306.557,200.355 311.223,203.688 315.5,207.5C 315.5,238.167 315.5,268.833 315.5,299.5C 311.167,299.5 306.833,299.5 302.5,299.5C 302.784,301.415 302.451,303.081 301.5,304.5C 301.5,292.167 301.5,279.833 301.5,267.5C 301.5,244.167 301.5,220.833 301.5,197.5 Z"/></g>
<g><path style="opacity:1" fill="#ef5e54" d="M 315.5,207.5 C 340.14,228.392 351.14,255.059 348.5,287.5C 348.296,290.518 347.963,293.518 347.5,296.5C 345.992,302.196 344.325,307.862 342.5,313.5C 336.666,328.177 327.666,340.51 315.5,350.5C 315.5,333.5 315.5,316.5 315.5,299.5C 315.5,268.833 315.5,238.167 315.5,207.5 Z"/></g>
<g><path style="opacity:1" fill="#b8c6f9" d="M 381.5,278.5 C 381.5,281.833 381.5,285.167 381.5,288.5C 370.26,291.476 358.927,294.143 347.5,296.5C 347.963,293.518 348.296,290.518 348.5,287.5C 349.477,284.713 349.81,281.713 349.5,278.5C 360.167,278.5 370.833,278.5 381.5,278.5 Z"/></g>
<g><path style="opacity:1" fill="#a9a6f9" d="M 130.5,278.5 C 141.167,278.5 151.833,278.5 162.5,278.5C 162.833,283.167 163.167,287.833 163.5,292.5C 163.586,293.496 163.252,294.329 162.5,295C 152.528,297.361 142.528,299.528 132.5,301.5C 130.864,293.968 130.197,286.301 130.5,278.5 Z"/></g>
<g><path style="opacity:1" fill="#bcd1f8" d="M 381.5,288.5 C 380.961,294.282 379.961,299.949 378.5,305.5C 366.665,308.791 354.665,311.458 342.5,313.5C 344.325,307.862 345.992,302.196 347.5,296.5C 358.927,294.143 370.26,291.476 381.5,288.5 Z"/></g>
<g><path style="opacity:1" fill="#afb2f8" d="M 163.5,292.5 C 164.984,298.766 166.651,305.099 168.5,311.5C 157.524,313.291 146.857,315.958 136.5,319.5C 134.549,313.646 133.216,307.646 132.5,301.5C 142.528,299.528 152.528,297.361 162.5,295C 163.252,294.329 163.586,293.496 163.5,292.5 Z"/></g>
<g><path style="opacity:1" fill="#f26358" d="M 241.5,293.5 C 244.167,295.167 246.833,296.833 249.5,298.5C 249.5,322.833 249.5,347.167 249.5,371.5C 236.346,371.129 224.013,367.795 212.5,361.5C 212.5,346.167 212.5,330.833 212.5,315.5C 222.017,307.915 231.684,300.582 241.5,293.5 Z"/></g>
<g><path style="opacity:1" fill="#ef5e53" d="M 301.5,267.5 C 301.5,279.833 301.5,292.167 301.5,304.5C 301.5,323.167 301.5,341.833 301.5,360.5C 289.855,366.381 277.522,370.047 264.5,371.5C 264.5,346.833 264.5,322.167 264.5,297.5C 268.12,295.547 271.12,292.881 273.5,289.5C 283.12,282.548 292.454,275.215 301.5,267.5 Z"/></g>
<g><path style="opacity:1" fill="#b4bef9" d="M 168.5,311.5 C 170.56,316.62 172.893,321.62 175.5,326.5C 164.398,328.359 153.398,330.692 142.5,333.5C 140.305,328.915 138.305,324.249 136.5,319.5C 146.857,315.958 157.524,313.291 168.5,311.5 Z"/></g>
<g><path style="opacity:1" fill="#ccdef9" d="M 378.5,305.5 C 376.224,319.346 371.224,332.012 363.5,343.5C 363.265,342.903 362.765,342.57 362,342.5C 345.575,346.565 329.075,350.232 312.5,353.5C 313.306,352.272 314.306,351.272 315.5,350.5C 327.666,340.51 336.666,328.177 342.5,313.5C 354.665,311.458 366.665,308.791 378.5,305.5 Z"/></g>
<g><path style="opacity:1" fill="#aa3541" d="M 212.5,273.5 C 212.5,287.5 212.5,301.5 212.5,315.5C 212.5,330.833 212.5,346.167 212.5,361.5C 210.95,360.559 209.284,359.893 207.5,359.5C 204.72,356.936 201.72,354.603 198.5,352.5C 198.5,334.833 198.5,317.167 198.5,299.5C 202.833,299.5 207.167,299.5 211.5,299.5C 211.174,290.651 211.507,281.984 212.5,273.5 Z"/></g>
<g><path style="opacity:1" fill="#ab3641" d="M 264.5,297.5 C 264.5,322.167 264.5,346.833 264.5,371.5C 259.4,372.8 254.4,372.8 249.5,371.5C 249.5,347.167 249.5,322.833 249.5,298.5C 254.562,298.726 259.562,298.392 264.5,297.5 Z"/></g>
<g><path style="opacity:1" fill="#aa3541" d="M 315.5,299.5 C 315.5,316.5 315.5,333.5 315.5,350.5C 314.306,351.272 313.306,352.272 312.5,353.5C 309.003,356.083 305.336,358.416 301.5,360.5C 301.5,341.833 301.5,323.167 301.5,304.5C 302.451,303.081 302.784,301.415 302.5,299.5C 306.833,299.5 311.167,299.5 315.5,299.5 Z"/></g>
<g><path style="opacity:1" fill="#bacbf9" d="M 175.5,326.5 C 178.91,331.64 182.577,336.64 186.5,341.5C 174.86,343.961 163.194,346.295 151.5,348.5C 147.76,344.033 144.76,339.033 142.5,333.5C 153.398,330.692 164.398,328.359 175.5,326.5 Z"/></g>
<g><path style="opacity:1" fill="#d9e5f9" d="M 363.5,343.5 C 362.277,346.274 360.777,348.941 359,351.5C 355.968,355.359 352.802,359.026 349.5,362.5C 302.236,372.477 254.903,383.144 207.5,394.5C 192.302,388.623 178.969,379.956 167.5,368.5C 180.585,364.563 193.918,361.563 207.5,359.5C 209.284,359.893 210.95,360.559 212.5,361.5C 224.013,367.795 236.346,371.129 249.5,371.5C 254.4,372.8 259.4,372.8 264.5,371.5C 277.522,370.047 289.855,366.381 301.5,360.5C 305.336,358.416 309.003,356.083 312.5,353.5C 329.075,350.232 345.575,346.565 362,342.5C 362.765,342.57 363.265,342.903 363.5,343.5 Z"/></g>
<g><path style="opacity:1" fill="#c1d8f9" d="M 186.5,341.5 C 189.833,344.5 193.167,347.5 196.5,350.5C 196.833,351.5 197.5,352.167 198.5,352.5C 201.72,354.603 204.72,356.936 207.5,359.5C 193.918,361.563 180.585,364.563 167.5,368.5C 161.034,362.704 155.7,356.038 151.5,348.5C 163.194,346.295 174.86,343.961 186.5,341.5 Z"/></g>
<g><path style="opacity:1" fill="#e8eefa" d="M 349.5,362.5 C 320.876,393.885 285.209,407.718 242.5,404C 230.168,402.836 218.502,399.67 207.5,394.5C 254.903,383.144 302.236,372.477 349.5,362.5 Z"/></g>
<g><path style="opacity:1" fill="#fa6956" d="M 150.5,384.5 C 151.552,384.351 152.552,384.517 153.5,385C 162.51,393.847 172.51,401.347 183.5,407.5C 171.878,428.742 163.045,451.075 157,474.5C 147.804,482.807 139.137,482.141 131,472.5C 124.112,463.275 121.779,452.942 124,441.5C 125.601,435.363 127.601,429.363 130,423.5C 136.253,410.112 143.086,397.112 150.5,384.5 Z"/></g>
<g><path style="opacity:1" fill="#fa6956" d="M 358.5,384.5 C 371.634,401.435 381.134,420.435 387,441.5C 389.886,457.536 384.72,470.036 371.5,479C 364.689,481.339 358.855,479.839 354,474.5C 348.083,451.167 339.25,429 327.5,408C 338.979,401.603 349.312,393.77 358.5,384.5 Z"/></g>
</svg>
