<?xml version="1.0" encoding="UTF-8"?>
<!DOCTYPE svg PUBLIC "-//W3C//DTD SVG 1.1//EN" "http://www.w3.org/Graphics/SVG/1.1/DTD/svg11.dtd">
<svg xmlns="http://www.w3.org/2000/svg" version="1.1" width="512px" height="512px" style="shape-rendering:geometricPrecision; text-rendering:geometricPrecision; image-rendering:optimizeQuality; fill-rule:evenodd; clip-rule:evenodd" xmlns:xlink="http://www.w3.org/1999/xlink">
<g><path style="opacity:1" fill="#37374a" d="M 156.5,36.5 C 162.665,35.8293 165.165,38.496 164,44.5C 132.897,83.2358 93.7307,110.736 46.5,127C 38.5,128 36.5,125 40.5,118C 87.4135,102.204 126.08,75.0373 156.5,36.5 Z"/></g>
<g><path style="opacity:1" fill="#38394b" d="M 345.5,36.5 C 365.132,37.0939 371.966,46.7606 366,65.5C 342.183,116.986 306.016,157.486 257.5,187C 251,188.5 248.5,186 250,179.5C 284.128,139.621 311.462,95.2876 332,46.5C 335.531,41.795 340.031,38.4617 345.5,36.5 Z"/></g>
<g><path style="opacity:1" fill="#39394c" d="M 294.5,189.5 C 297.407,193.193 297.073,196.526 293.5,199.5C 277.187,215.479 260.854,231.479 244.5,247.5C 245.723,248.614 247.056,248.781 248.5,248C 258.338,241.915 268.004,235.582 277.5,229C 290.169,225.057 296.002,229.557 295,242.5C 293.988,245.202 292.488,247.535 290.5,249.5C 283.863,254.802 277.53,260.469 271.5,266.5C 264.186,271.818 257.186,277.484 250.5,283.5C 235.81,293.866 221.143,304.199 206.5,314.5C 188.849,324.995 170.849,334.995 152.5,344.5C 123.759,358.285 94.2586,370.285 64,380.5C 63.5172,381.448 63.3505,382.448 63.5,383.5C 99.982,382.674 135.649,377.341 170.5,367.5C 191.294,362.459 211.294,355.459 230.5,346.5C 247.253,339.96 262.92,331.627 277.5,321.5C 285.144,317.343 292.477,312.677 299.5,307.5C 306.814,302.182 313.814,296.516 320.5,290.5C 326.961,285.209 333.295,279.709 339.5,274C 346.042,266.962 352.375,259.795 358.5,252.5C 372.205,237.798 383.539,221.464 392.5,203.5C 391.127,203.343 389.793,203.51 388.5,204C 376.663,217.336 364.663,230.503 352.5,243.5C 339.501,255.648 326.167,267.315 312.5,278.5C 308.988,281.17 305.322,283.67 301.5,286C 291.733,286.9 287.233,282.4 288,272.5C 291.67,267.998 295.503,263.665 299.5,259.5C 307.202,252.799 314.202,245.466 320.5,237.5C 326.519,232.448 331.852,226.781 336.5,220.5C 343.5,211.833 350.5,203.167 357.5,194.5C 387.352,157.131 408.518,115.131 421,68.5C 423.782,59.3961 420.782,53.3961 412,50.5C 409.594,50.7029 407.594,51.7029 406,53.5C 383.278,90.046 358.445,125.046 331.5,158.5C 329.33,159.838 327.664,161.672 326.5,164C 323.779,164.602 321.113,164.435 318.5,163.5C 318.248,160.68 318.748,158.014 320,155.5C 333.722,139.713 346.722,123.38 359,106.5C 373.167,85.6667 387.333,64.8333 401.5,44C 415.622,37.8065 425.455,41.9731 431,56.5C 431.667,60.5 431.667,64.5 431,68.5C 423.261,102.06 410.261,133.393 392,162.5C 365.399,204.129 333.899,241.962 297.5,276C 298.167,276.667 298.833,276.667 299.5,276C 330.392,252.11 358.392,225.11 383.5,195C 395.975,191.138 402.142,195.638 402,208.5C 368.117,265.701 321.951,310.201 263.5,342C 200.215,374.988 132.881,391.988 61.5,393C 54.872,389.909 52.372,384.743 54,377.5C 55.1217,375.376 56.6217,373.543 58.5,372C 144.052,344.669 219.552,300.835 285,240.5C 285.781,239.056 285.614,237.723 284.5,236.5C 273.567,244.259 262.234,251.426 250.5,258C 236.361,258.862 231.861,252.695 237,239.5C 254.774,223.728 271.94,207.228 288.5,190C 290.473,189.505 292.473,189.338 294.5,189.5 Z"/></g>
<g><path style="opacity:1" fill="#94d1be" d="M 343.5,85.5 C 339.167,81.5 334.833,77.5 330.5,73.5C 334.063,65.3738 337.896,57.3738 342,49.5C 348.154,44.952 353.488,45.6187 358,51.5C 358.667,53.8333 358.667,56.1667 358,58.5C 354.17,68.167 349.337,77.167 343.5,85.5 Z"/></g>
<g><path style="opacity:1" fill="#dff8c6" d="M 357.5,194.5 C 349.189,182.197 340.522,170.197 331.5,158.5C 358.445,125.046 383.278,90.046 406,53.5C 407.594,51.7029 409.594,50.7029 412,50.5C 420.782,53.3961 423.782,59.3961 421,68.5C 408.518,115.131 387.352,157.131 357.5,194.5 Z"/></g>
<g><path style="opacity:1" fill="#38394b" d="M 191.5,79.5 C 190.972,80.7206 190.305,81.8873 189.5,83C 169.202,84.8038 154.868,94.9705 146.5,113.5C 141.037,120.447 134.037,125.28 125.5,128C 137.346,140.557 151.346,143.724 167.5,137.5C 185.075,130.639 195.242,117.972 198,99.5C 188.959,108.543 178.792,116.043 167.5,122C 162.014,123.825 159.514,121.992 160,116.5C 170.058,110.442 179.558,103.608 188.5,96C 192.774,91.928 196.44,87.428 199.5,82.5C 205.651,73.3646 210.318,63.5313 213.5,53C 218.485,51.2431 221.151,52.9097 221.5,58C 219.807,68.0837 215.974,77.2504 210,85.5C 209.239,123.088 190.406,144.754 153.5,150.5C 133.607,149.228 118.94,139.895 109.5,122.5C 109.719,121.062 110.219,119.729 111,118.5C 116.083,117.693 121.25,117.193 126.5,117C 129.603,115.561 132.436,113.727 135,111.5C 142.061,97.1054 152.561,85.9387 166.5,78C 173.856,74.7829 181.522,73.7829 189.5,75C 191.037,76.1096 191.703,77.6096 191.5,79.5 Z"/></g>
<g><path style="opacity:1" fill="#37374a" d="M 290.5,65.5 C 295.863,65.6881 298.03,68.3548 297,73.5C 266.354,135.481 221.187,183.981 161.5,219C 144.522,228.157 126.855,235.657 108.5,241.5C 103.85,240.734 102.35,238.068 104,233.5C 187.423,202.748 248.756,147.415 288,67.5C 288.995,66.9341 289.828,66.2674 290.5,65.5 Z"/></g>
<g><path style="opacity:1" fill="#a2cda9" d="M 191.5,79.5 C 194.327,80.1084 196.993,81.1084 199.5,82.5C 196.44,87.428 192.774,91.928 188.5,96C 179.558,103.608 170.058,110.442 160,116.5C 159.514,121.992 162.014,123.825 167.5,122C 178.792,116.043 188.959,108.543 198,99.5C 195.242,117.972 185.075,130.639 167.5,137.5C 160.961,129.085 153.961,121.085 146.5,113.5C 154.868,94.9705 169.202,84.8038 189.5,83C 190.305,81.8873 190.972,80.7206 191.5,79.5 Z"/></g>
<g><path style="opacity:1" fill="#9fd7be" d="M 330.5,73.5 C 334.833,77.5 339.167,81.5 343.5,85.5C 326.941,113.909 305.774,138.576 280,159.5C 298.871,132.361 315.704,103.694 330.5,73.5 Z"/></g>
<g><path style="opacity:1" fill="#add8b2" d="M 146.5,113.5 C 153.961,121.085 160.961,129.085 167.5,137.5C 151.346,143.724 137.346,140.557 125.5,128C 134.037,125.28 141.037,120.447 146.5,113.5 Z"/></g>
<g><path style="opacity:1" fill="#d8f8c7" d="M 331.5,158.5 C 340.522,170.197 349.189,182.197 357.5,194.5C 350.5,203.167 343.5,211.833 336.5,220.5C 326.73,208.394 317.73,195.728 309.5,182.5C 314.015,179.589 314.682,175.923 311.5,171.5C 314.295,169.249 316.628,166.582 318.5,163.5C 321.113,164.435 323.779,164.602 326.5,164C 327.664,161.672 329.33,159.838 331.5,158.5 Z"/></g>
<g><path style="opacity:1" fill="#37374b" d="M 126.5,161.5 C 131.813,161.644 133.979,164.31 133,169.5C 112.48,184.127 89.8137,194.127 65,199.5C 59.9107,199.073 58.244,196.406 60,191.5C 60.5,191 61,190.5 61.5,190C 85.0314,184.446 106.698,174.946 126.5,161.5 Z"/></g>
<g><path style="opacity:1" fill="#39394c" d="M 456.5,161.5 C 463.548,161.1 468.381,164.1 471,170.5C 470.65,195.892 463.983,219.558 451,241.5C 410.687,308.48 357.521,362.98 291.5,405C 275.682,415.288 258.348,419.621 239.5,418C 227.626,414.424 223.459,406.591 227,394.5C 228.061,391.438 229.894,388.938 232.5,387C 285.644,361.501 331.811,326.668 371,282.5C 402.038,246.783 428.371,207.783 450,165.5C 452.095,163.875 454.261,162.542 456.5,161.5 Z"/></g>
<g><path style="opacity:1" fill="#37374a" d="M 408.5,166.5 C 417.487,165.665 419.82,169.165 415.5,177C 410.023,179.595 406.689,177.928 405.5,172C 405.863,169.808 406.863,167.974 408.5,166.5 Z"/></g>
<g><path style="opacity:1" fill="#3a3b4d" d="M 311.5,171.5 C 314.682,175.923 314.015,179.589 309.5,182.5C 307.435,182.483 305.435,182.15 303.5,181.5C 300.39,173.922 303.057,170.589 311.5,171.5 Z"/></g>
<g><path style="opacity:1" fill="#d3f2c7" d="M 303.5,181.5 C 305.435,182.15 307.435,182.483 309.5,182.5C 317.73,195.728 326.73,208.394 336.5,220.5C 331.852,226.781 326.519,232.448 320.5,237.5C 311.488,224.796 302.488,212.129 293.5,199.5C 297.073,196.526 297.407,193.193 294.5,189.5C 297.5,186.833 300.5,184.167 303.5,181.5 Z"/></g>
<g><path style="opacity:1" fill="#c9eec5" d="M 293.5,199.5 C 302.488,212.129 311.488,224.796 320.5,237.5C 314.202,245.466 307.202,252.799 299.5,259.5C 298.504,259.586 297.671,259.252 297,258.5C 294.812,255.433 292.645,252.433 290.5,249.5C 292.488,247.535 293.988,245.202 295,242.5C 296.002,229.557 290.169,225.057 277.5,229C 268.004,235.582 258.338,241.915 248.5,248C 247.056,248.781 245.723,248.614 244.5,247.5C 260.854,231.479 277.187,215.479 293.5,199.5 Z"/></g>
<g><path style="opacity:1" fill="#9ed6bf" d="M 442.5,235.5 C 437.866,231.174 433.199,226.84 428.5,222.5C 438.998,206.85 448.498,190.516 457,173.5C 460.451,170.743 461.951,171.743 461.5,176.5C 459.341,197.64 453.008,217.306 442.5,235.5 Z"/></g>
<g><path style="opacity:1" fill="#39394c" d="M 213.5,215.5 C 220,214.499 222.5,217.165 221,223.5C 203.322,249.51 180.822,270.343 153.5,286C 123.62,302.406 91.9535,314.072 58.5,321C 42.4805,323.271 34.6472,316.438 35,300.5C 36.4212,294.156 39.9212,289.323 45.5,286C 106.254,273.266 162.254,249.766 213.5,215.5 Z"/></g>
<g><path style="opacity:1" fill="#d6f4c4" d="M 358.5,252.5 C 355.723,250.049 353.723,247.049 352.5,243.5C 364.663,230.503 376.663,217.336 388.5,204C 389.793,203.51 391.127,203.343 392.5,203.5C 383.539,221.464 372.205,237.798 358.5,252.5 Z"/></g>
<g><path style="opacity:1" fill="#abdebf" d="M 428.5,222.5 C 433.199,226.84 437.866,231.174 442.5,235.5C 434.981,249.665 426.314,262.998 416.5,275.5C 411.752,270.416 406.419,266.083 400.5,262.5C 410.326,249.516 419.659,236.183 428.5,222.5 Z"/></g>
<g><path style="opacity:1" fill="#37374a" d="M 468.5,247.5 C 470.527,247.338 472.527,247.505 474.5,248C 475.126,248.75 475.626,249.584 476,250.5C 476.274,253.649 475.608,256.649 474,259.5C 458.629,291.188 438.963,319.855 415,345.5C 395.694,365.48 375.194,383.98 353.5,401C 345.186,404.347 342.352,401.847 345,393.5C 397.981,354.697 439.147,306.031 468.5,247.5 Z"/></g>
<g><path style="opacity:1" fill="#c5eac5" d="M 290.5,249.5 C 292.645,252.433 294.812,255.433 297,258.5C 297.671,259.252 298.504,259.586 299.5,259.5C 295.503,263.665 291.67,267.998 288,272.5C 287.233,282.4 291.733,286.9 301.5,286C 305.322,283.67 308.988,281.17 312.5,278.5C 313.956,283.293 316.623,287.293 320.5,290.5C 313.814,296.516 306.814,302.182 299.5,307.5C 289.919,294.007 280.586,280.34 271.5,266.5C 277.53,260.469 283.863,254.802 290.5,249.5 Z"/></g>
<g><path style="opacity:1" fill="#cbedc4" d="M 125.5,288.5 C 122.105,284.102 118.105,280.436 113.5,277.5C 127.521,271.985 141.521,266.152 155.5,260C 169.501,253.169 183.167,246.169 196.5,239C 176.268,260.447 152.602,276.947 125.5,288.5 Z"/></g>
<g><path style="opacity:1" fill="#ccefc5" d="M 352.5,243.5 C 353.723,247.049 355.723,250.049 358.5,252.5C 352.375,259.795 346.042,266.962 339.5,274C 333.295,279.709 326.961,285.209 320.5,290.5C 316.623,287.293 313.956,283.293 312.5,278.5C 326.167,267.315 339.501,255.648 352.5,243.5 Z"/></g>
<g><path style="opacity:1" fill="#c0ecc0" d="M 271.5,266.5 C 280.586,280.34 289.919,294.007 299.5,307.5C 292.477,312.677 285.144,317.343 277.5,321.5C 274.466,318.495 271.632,315.162 269,311.5C 262.564,302.281 256.398,292.948 250.5,283.5C 257.186,277.484 264.186,271.818 271.5,266.5 Z"/></g>
<g><path style="opacity:1" fill="#373749" d="M 207.5,270.5 C 216.289,274.196 216.622,278.53 208.5,283.5C 199.595,279.694 199.262,275.361 207.5,270.5 Z"/></g>
<g><path style="opacity:1" fill="#b8e4bf" d="M 400.5,262.5 C 406.419,266.083 411.752,270.416 416.5,275.5C 412.217,281.623 407.717,287.623 403,293.5C 399.278,298.292 395.111,302.625 390.5,306.5C 385.573,301.698 380.24,297.365 374.5,293.5C 383.196,283.142 391.863,272.808 400.5,262.5 Z"/></g>
<g><path style="opacity:1" fill="#dbf6c5" d="M 113.5,277.5 C 118.105,280.436 122.105,284.102 125.5,288.5C 105.361,297.936 84.361,305.102 62.5,310C 57.8747,311.162 53.208,311.496 48.5,311C 43.0491,305.44 43.3824,300.106 49.5,295C 71.1704,290.367 92.5037,284.533 113.5,277.5 Z"/></g>
<g><path style="opacity:1" fill="#c0eabf" d="M 374.5,293.5 C 380.24,297.365 385.573,301.698 390.5,306.5C 386.539,312.129 381.873,317.129 376.5,321.5C 371.142,317.137 365.809,312.803 360.5,308.5C 365.195,303.474 369.861,298.474 374.5,293.5 Z"/></g>
<g><path style="opacity:1" fill="#b6e5c0" d="M 250.5,283.5 C 256.398,292.948 262.564,302.281 269,311.5C 271.632,315.162 274.466,318.495 277.5,321.5C 262.92,331.627 247.253,339.96 230.5,346.5C 229.504,346.586 228.671,346.252 228,345.5C 221.003,335.011 213.836,324.678 206.5,314.5C 221.143,304.199 235.81,293.866 250.5,283.5 Z"/></g>
<g><path style="opacity:1" fill="#acdfc0" d="M 206.5,314.5 C 213.836,324.678 221.003,335.011 228,345.5C 228.671,346.252 229.504,346.586 230.5,346.5C 211.294,355.459 191.294,362.459 170.5,367.5C 169.178,367.67 168.011,367.337 167,366.5C 161.897,359.281 157.064,351.948 152.5,344.5C 170.849,334.995 188.849,324.995 206.5,314.5 Z"/></g>
<g><path style="opacity:1" fill="#cbefc6" d="M 360.5,308.5 C 365.809,312.803 371.142,317.137 376.5,321.5C 362.398,337.272 347.065,351.606 330.5,364.5C 330.141,362.629 329.141,361.129 327.5,360C 322.673,356.668 318.007,353.168 313.5,349.5C 330.029,336.981 345.696,323.314 360.5,308.5 Z"/></g>
<g><path style="opacity:1" fill="#38394b" d="M 443.5,368.5 C 440.934,373.755 439.434,379.422 439,385.5C 438.828,398.913 438.661,412.247 438.5,425.5C 437.833,425.5 437.167,425.5 436.5,425.5C 433.14,426.21 431.307,424.876 431,421.5C 429.818,408.869 429.152,396.203 429,383.5C 416.501,397.164 413.001,412.831 418.5,430.5C 422.777,445.774 432.777,454.774 448.5,457.5C 449.5,457.167 450.5,456.833 451.5,456.5C 449.467,452.402 448.467,448.069 448.5,443.5C 449.356,437.74 450.69,432.074 452.5,426.5C 457.811,415.233 458.644,403.566 455,391.5C 453.729,388.567 452.062,385.901 450,383.5C 448.837,380.029 449.67,377.362 452.5,375.5C 455.325,375.081 457.491,376.081 459,378.5C 466.092,390.208 468.425,402.875 466,416.5C 463.342,425.642 460.842,434.809 458.5,444C 458.815,450.797 461.649,456.297 467,460.5C 467.717,466.601 464.883,469.268 458.5,468.5C 424.997,466.664 407.664,448.998 406.5,415.5C 406.977,394.539 415.811,378.206 433,366.5C 436.326,355.673 441.826,346.173 449.5,338C 454.126,336.643 456.793,338.309 457.5,343C 451.692,350.776 447.025,359.276 443.5,368.5 Z"/></g>
<g><path style="opacity:1" fill="#9bd6bf" d="M 152.5,344.5 C 157.064,351.948 161.897,359.281 167,366.5C 168.011,367.337 169.178,367.67 170.5,367.5C 135.649,377.341 99.982,382.674 63.5,383.5C 63.3505,382.448 63.5172,381.448 64,380.5C 94.2586,370.285 123.759,358.285 152.5,344.5 Z"/></g>
<g><path style="opacity:1" fill="#ddf7c6" d="M 313.5,349.5 C 318.007,353.168 322.673,356.668 327.5,360C 329.141,361.129 330.141,362.629 330.5,364.5C 312.585,380.136 292.918,393.302 271.5,404C 261.139,407.766 250.472,409.099 239.5,408C 234.564,404.042 234.231,399.709 238.5,395C 265.192,382.334 290.192,367.168 313.5,349.5 Z"/></g>
<g><path style="opacity:1" fill="#a4cfab" d="M 443.5,368.5 C 447.082,370.12 450.082,372.453 452.5,375.5C 449.67,377.362 448.837,380.029 450,383.5C 452.062,385.901 453.729,388.567 455,391.5C 458.644,403.566 457.811,415.233 452.5,426.5C 448.03,425.514 443.363,425.181 438.5,425.5C 438.661,412.247 438.828,398.913 439,385.5C 439.434,379.422 440.934,373.755 443.5,368.5 Z"/></g>
<g><path style="opacity:1" fill="#a4ceab" d="M 436.5,425.5 C 430.69,426.49 424.69,426.823 418.5,426.5C 418.5,427.833 418.5,429.167 418.5,430.5C 413.001,412.831 416.501,397.164 429,383.5C 429.152,396.203 429.818,408.869 431,421.5C 431.307,424.876 433.14,426.21 436.5,425.5 Z"/></g>
<g><path style="opacity:1" fill="#39394b" d="M 101.5,436.5 C 117.99,439.807 134.324,438.64 150.5,433C 155.033,431.372 158.033,432.705 159.5,437C 159.22,438.395 158.553,439.562 157.5,440.5C 153.188,441.993 148.855,443.327 144.5,444.5C 135.271,446.32 125.937,447.487 116.5,448C 126.724,455.872 138.057,458.705 150.5,456.5C 155.54,456.15 160.206,454.816 164.5,452.5C 181.534,446.108 189.201,433.774 187.5,415.5C 184.218,417.873 180.552,419.373 176.5,420C 170.463,420.697 164.463,420.53 158.5,419.5C 145.361,415.84 132.694,417.007 120.5,423C 118.461,425.374 116.128,427.374 113.5,429C 112.167,429.667 110.833,429.667 109.5,429C 108.627,427.955 107.627,427.122 106.5,426.5C 106.346,422.975 107.679,420.141 110.5,418C 120.228,410.649 131.228,407.149 143.5,407.5C 154.466,409.063 165.466,409.896 176.5,410C 181.695,408.142 185.695,404.808 188.5,400C 190.833,399.333 193.167,399.333 195.5,400C 203.484,441.379 186.317,463.879 144,467.5C 126.591,466.711 112.091,459.878 100.5,447C 90.5661,445.367 81.2327,442.034 72.5,437C 69.7104,434.79 68.877,431.956 70,428.5C 70.956,427.106 72.2894,426.439 74,426.5C 82.5922,431.31 91.7588,434.643 101.5,436.5 Z"/></g>
<g><path style="opacity:1" fill="#38374a" d="M 326.5,405.5 C 331.658,404.331 334.658,406.331 335.5,411.5C 334.655,416.844 331.655,418.677 326.5,417C 322.567,413.124 322.567,409.29 326.5,405.5 Z"/></g>
<g><path style="opacity:1" fill="#aad5b0" d="M 158.5,419.5 C 160.608,430.479 162.608,441.479 164.5,452.5C 160.206,454.816 155.54,456.15 150.5,456.5C 148.856,456.714 147.356,456.38 146,455.5C 145.064,451.886 144.564,448.22 144.5,444.5C 148.855,443.327 153.188,441.993 157.5,440.5C 158.553,439.562 159.22,438.395 159.5,437C 158.033,432.705 155.033,431.372 150.5,433C 134.324,438.64 117.99,439.807 101.5,436.5C 102.642,432.883 104.308,429.55 106.5,426.5C 107.627,427.122 108.627,427.955 109.5,429C 110.833,429.667 112.167,429.667 113.5,429C 116.128,427.374 118.461,425.374 120.5,423C 132.694,417.007 145.361,415.84 158.5,419.5 Z"/></g>
<g><path style="opacity:1" fill="#b2dfb6" d="M 164.5,452.5 C 162.608,441.479 160.608,430.479 158.5,419.5C 164.463,420.53 170.463,420.697 176.5,420C 180.552,419.373 184.218,417.873 187.5,415.5C 189.201,433.774 181.534,446.108 164.5,452.5 Z"/></g>
<g><path style="opacity:1" fill="#37374b" d="M 301.5,422.5 C 307.496,421.333 309.996,423.666 309,429.5C 280.793,447.353 250.96,462.187 219.5,474C 211.5,475 209.5,472 213.5,465C 244.085,453.206 273.419,439.039 301.5,422.5 Z"/></g>
<g><path style="opacity:1" fill="#b2deb7" d="M 436.5,425.5 C 437.167,425.5 437.833,425.5 438.5,425.5C 443.363,425.181 448.03,425.514 452.5,426.5C 450.69,432.074 449.356,437.74 448.5,443.5C 448.467,448.069 449.467,452.402 451.5,456.5C 450.5,456.833 449.5,457.167 448.5,457.5C 432.777,454.774 422.777,445.774 418.5,430.5C 418.5,429.167 418.5,427.833 418.5,426.5C 424.69,426.823 430.69,426.49 436.5,425.5 Z"/></g>
<g><path style="opacity:1" fill="#37374a" d="M 379.5,438.5 C 384.795,437.963 387.295,440.297 387,445.5C 369.907,458.048 351.24,467.714 331,474.5C 325.742,472.821 324.576,469.654 327.5,465C 345.893,457.971 363.227,449.138 379.5,438.5 Z"/></g>
<g><path style="opacity:1" fill="#a0c9a8" d="M 144.5,444.5 C 144.564,448.22 145.064,451.886 146,455.5C 147.356,456.38 148.856,456.714 150.5,456.5C 138.057,458.705 126.724,455.872 116.5,448C 125.937,447.487 135.271,446.32 144.5,444.5 Z"/></g>
</svg>
