<?xml version="1.0" encoding="UTF-8"?>
<!DOCTYPE svg PUBLIC "-//W3C//DTD SVG 1.1//EN" "http://www.w3.org/Graphics/SVG/1.1/DTD/svg11.dtd">
<svg xmlns="http://www.w3.org/2000/svg" version="1.1" width="512px" height="512px" style="shape-rendering:geometricPrecision; text-rendering:geometricPrecision; image-rendering:optimizeQuality; fill-rule:evenodd; clip-rule:evenodd" xmlns:xlink="http://www.w3.org/1999/xlink">
<g><path style="opacity:1" fill="#c896cd" d="M 352.5,39.5 C 305.997,39.8321 259.664,39.4988 213.5,38.5C 233.569,27.7732 255.069,22.1066 278,21.5C 299.165,21.2942 319.665,24.7942 339.5,32C 344.223,34.0217 348.557,36.5217 352.5,39.5 Z"/></g>
<g><path style="opacity:1" fill="#c38fce" d="M 213.5,38.5 C 259.664,39.4988 305.997,39.8321 352.5,39.5C 357.901,42.2044 362.568,45.871 366.5,50.5C 310.167,50.5 253.833,50.5 197.5,50.5C 202.079,45.5385 207.413,41.5385 213.5,38.5 Z"/></g>
<g><path style="opacity:1" fill="#c18fc8" d="M 197.5,50.5 C 253.833,50.5 310.167,50.5 366.5,50.5C 371.229,54.8983 375.229,59.8983 378.5,65.5C 313.437,67.1714 248.104,68.1714 182.5,68.5C 185.999,61.3266 190.999,55.3266 197.5,50.5 Z"/></g>
<g><path style="opacity:1" fill="#bb88c7" d="M 378.5,65.5 C 385.587,76.4232 389.921,88.4232 391.5,101.5C 371.242,100.512 350.909,100.179 330.5,100.5C 329.083,95.3212 326.417,90.9879 322.5,87.5C 316.611,80.8102 309.111,77.4769 300,77.5C 289.796,78.3973 280.629,81.7306 272.5,87.5C 268.543,90.1218 264.876,93.1218 261.5,96.5C 231.005,95.5019 200.338,95.1685 169.5,95.5C 172.893,85.9554 177.226,76.9554 182.5,68.5C 248.104,68.1714 313.437,67.1714 378.5,65.5 Z"/></g>
<g><path style="opacity:1" fill="#714c8a" d="M 322.5,87.5 C 305.833,87.5 289.167,87.5 272.5,87.5C 280.629,81.7306 289.796,78.3973 300,77.5C 309.111,77.4769 316.611,80.8102 322.5,87.5 Z"/></g>
<g><path style="opacity:1" fill="#6e4589" d="M 118.5,106.5 C 90.8129,107.158 63.4796,106.491 36.5,104.5C 39.4904,97.6686 44.157,92.1686 50.5,88C 65.0514,80.6941 80.3848,78.5274 96.5,81.5C 109.486,84.8211 116.819,93.1544 118.5,106.5 Z"/></g>
<g><path style="opacity:1" fill="#6e4489" d="M 272.5,87.5 C 289.167,87.5 305.833,87.5 322.5,87.5C 326.417,90.9879 329.083,95.3212 330.5,100.5C 331.11,101.391 331.443,102.391 331.5,103.5C 331.5,104.5 331.5,105.5 331.5,106.5C 306.833,106.5 282.167,106.5 257.5,106.5C 257.604,104.297 258.27,102.297 259.5,100.5C 260.674,99.4863 261.34,98.153 261.5,96.5C 264.876,93.1218 268.543,90.1218 272.5,87.5 Z"/></g>
<g><path style="opacity:1" fill="#b982c7" d="M 169.5,95.5 C 200.338,95.1685 231.005,95.5019 261.5,96.5C 261.34,98.153 260.674,99.4863 259.5,100.5C 228.662,100.831 197.995,100.498 167.5,99.5C 167.66,97.847 168.326,96.5137 169.5,95.5 Z"/></g>
<g><path style="opacity:1" fill="#b482c0" d="M 167.5,99.5 C 197.995,100.498 228.662,100.831 259.5,100.5C 258.27,102.297 257.604,104.297 257.5,106.5C 256.6,111.772 256.267,117.105 256.5,122.5C 246.5,122.5 236.5,122.5 226.5,122.5C 215.816,113.237 205.149,113.237 194.5,122.5C 181.167,122.5 167.833,122.5 154.5,122.5C 158.596,114.636 162.929,106.969 167.5,99.5 Z"/></g>
<g><path style="opacity:1" fill="#b483c0" d="M 330.5,100.5 C 350.909,100.179 371.242,100.512 391.5,101.5C 392.694,108.649 392.694,115.649 391.5,122.5C 372.5,122.5 353.5,122.5 334.5,122.5C 334.873,115.822 333.873,109.489 331.5,103.5C 331.443,102.391 331.11,101.391 330.5,100.5 Z"/></g>
<g><path style="opacity:1" fill="#684483" d="M 36.5,104.5 C 63.4796,106.491 90.8129,107.158 118.5,106.5C 119.239,115.528 117.906,124.194 114.5,132.5C 86.1667,132.5 57.8333,132.5 29.5,132.5C 29.3517,122.426 31.685,113.093 36.5,104.5 Z"/></g>
<g><path style="opacity:1" fill="#654483" d="M 226.5,122.5 C 228.692,125.55 230.358,128.883 231.5,132.5C 217.167,132.5 202.833,132.5 188.5,132.5C 190.925,129.411 192.925,126.078 194.5,122.5C 205.149,113.237 215.816,113.237 226.5,122.5 Z"/></g>
<g><path style="opacity:1" fill="#664483" d="M 331.5,103.5 C 333.873,109.489 334.873,115.822 334.5,122.5C 334.815,126.371 334.482,130.038 333.5,133.5C 308.672,132.502 283.672,132.169 258.5,132.5C 257.96,129.135 257.294,125.802 256.5,122.5C 256.267,117.105 256.6,111.772 257.5,106.5C 282.167,106.5 306.833,106.5 331.5,106.5C 331.5,105.5 331.5,104.5 331.5,103.5 Z"/></g>
<g><path style="opacity:1" fill="#654483" d="M 477.5,131.5 C 461.675,132.496 445.675,132.83 429.5,132.5C 434.561,121.206 443.395,115.539 456,115.5C 467.299,115.3 474.465,120.634 477.5,131.5 Z"/></g>
<g><path style="opacity:1" fill="#af7cbf" d="M 154.5,122.5 C 167.833,122.5 181.167,122.5 194.5,122.5C 192.925,126.078 190.925,129.411 188.5,132.5C 186.55,136.732 184.883,141.066 183.5,145.5C 182.699,147.042 182.366,148.708 182.5,150.5C 181.549,151.919 181.216,153.585 181.5,155.5C 171.167,155.5 160.833,155.5 150.5,155.5C 149.262,144.223 150.595,133.223 154.5,122.5 Z"/></g>
<g><path style="opacity:1" fill="#af7cc0" d="M 334.5,122.5 C 353.5,122.5 372.5,122.5 391.5,122.5C 391.445,129.773 390.112,136.773 387.5,143.5C 368.833,143.5 350.167,143.5 331.5,143.5C 332.294,140.198 332.96,136.865 333.5,133.5C 334.482,130.038 334.815,126.371 334.5,122.5 Z"/></g>
<g><path style="opacity:1" fill="#633e83" d="M 477.5,131.5 C 479.735,135.787 480.735,140.454 480.5,145.5C 462.5,145.5 444.5,145.5 426.5,145.5C 426.374,140.778 427.374,136.445 429.5,132.5C 445.675,132.83 461.675,132.496 477.5,131.5 Z"/></g>
<g><path style="opacity:1" fill="#633d83" d="M 29.5,132.5 C 57.8333,132.5 86.1667,132.5 114.5,132.5C 111.486,137.203 108.486,141.87 105.5,146.5C 81.1667,145.167 56.8333,145.167 32.5,146.5C 30.9542,142.07 29.9542,137.404 29.5,132.5 Z"/></g>
<g><path style="opacity:1" fill="#643e83" d="M 188.5,132.5 C 202.833,132.5 217.167,132.5 231.5,132.5C 233.746,136.805 235.08,141.471 235.5,146.5C 218.244,145.515 200.91,145.181 183.5,145.5C 184.883,141.066 186.55,136.732 188.5,132.5 Z"/></g>
<g><path style="opacity:1" fill="#643e83" d="M 258.5,132.5 C 283.672,132.169 308.672,132.502 333.5,133.5C 332.96,136.865 332.294,140.198 331.5,143.5C 331.672,144.492 331.338,145.158 330.5,145.5C 307.833,145.5 285.167,145.5 262.5,145.5C 260.721,141.406 259.388,137.073 258.5,132.5 Z"/></g>
<g><path style="opacity:1" fill="#ae7cbc" d="M 226.5,122.5 C 236.5,122.5 246.5,122.5 256.5,122.5C 257.294,125.802 257.96,129.135 258.5,132.5C 259.388,137.073 260.721,141.406 262.5,145.5C 263.192,148.936 264.192,152.27 265.5,155.5C 255.5,155.5 245.5,155.5 235.5,155.5C 235.5,152.5 235.5,149.5 235.5,146.5C 235.08,141.471 233.746,136.805 231.5,132.5C 230.358,128.883 228.692,125.55 226.5,122.5 Z"/></g>
<g><path style="opacity:1" fill="#ae7cbb" d="M 331.5,143.5 C 350.167,143.5 368.833,143.5 387.5,143.5C 386.597,147.889 384.931,151.889 382.5,155.5C 364.167,155.5 345.833,155.5 327.5,155.5C 328.901,152.296 329.901,148.963 330.5,145.5C 331.338,145.158 331.672,144.492 331.5,143.5 Z"/></g>
<g><path style="opacity:1" fill="#5c3d83" d="M 105.5,146.5 C 102.855,153.762 100.855,161.096 99.5,168.5C 80.3405,167.503 61.0072,167.17 41.5,167.5C 37.1561,161.138 34.1561,154.138 32.5,146.5C 56.8333,145.167 81.1667,145.167 105.5,146.5 Z"/></g>
<g><path style="opacity:1" fill="#5c3e83" d="M 183.5,145.5 C 200.91,145.181 218.244,145.515 235.5,146.5C 235.5,149.5 235.5,152.5 235.5,155.5C 234.768,160.441 233.435,165.107 231.5,169.5C 215.868,167.515 199.868,166.849 183.5,167.5C 182.548,161.925 182.214,156.259 182.5,150.5C 182.366,148.708 182.699,147.042 183.5,145.5 Z"/></g>
<g><path style="opacity:1" fill="#5c3e82" d="M 262.5,145.5 C 285.167,145.5 307.833,145.5 330.5,145.5C 329.901,148.963 328.901,152.296 327.5,155.5C 321.443,165.052 313.11,171.885 302.5,176C 284.825,178.502 272.492,171.668 265.5,155.5C 264.192,152.27 263.192,148.936 262.5,145.5 Z"/></g>
<g><path style="opacity:1" fill="#5c3d83" d="M 426.5,145.5 C 444.5,145.5 462.5,145.5 480.5,145.5C 481.509,153.102 481.509,160.769 480.5,168.5C 464.244,167.516 447.911,167.182 431.5,167.5C 428.638,160.549 426.972,153.215 426.5,145.5 Z"/></g>
<g><path style="opacity:1" fill="#a775ba" d="M 235.5,155.5 C 245.5,155.5 255.5,155.5 265.5,155.5C 272.492,171.668 284.825,178.502 302.5,176C 313.11,171.885 321.443,165.052 327.5,155.5C 345.833,155.5 364.167,155.5 382.5,155.5C 378.012,165.305 372.345,174.305 365.5,182.5C 329.663,182.168 293.996,182.502 258.5,183.5C 256.833,183.5 255.167,183.5 253.5,183.5C 244.348,182.506 235.015,182.173 225.5,182.5C 226.441,180.95 227.107,179.284 227.5,177.5C 229.341,175.151 230.674,172.485 231.5,169.5C 233.435,165.107 234.768,160.441 235.5,155.5 Z"/></g>
<g><path style="opacity:1" fill="#573d7d" d="M 41.5,167.5 C 61.0072,167.17 80.3405,167.503 99.5,168.5C 99.5,171.167 99.5,173.833 99.5,176.5C 82.2436,177.485 64.9102,177.819 47.5,177.5C 45.1023,174.429 43.1023,171.095 41.5,167.5 Z"/></g>
<g><path style="opacity:1" fill="#573e7d" d="M 183.5,167.5 C 199.868,166.849 215.868,167.515 231.5,169.5C 230.674,172.485 229.341,175.151 227.5,177.5C 214.323,177.171 201.323,177.505 188.5,178.5C 186.049,175.26 184.382,171.593 183.5,167.5 Z"/></g>
<g><path style="opacity:1" fill="#573d7d" d="M 431.5,167.5 C 447.911,167.182 464.244,167.516 480.5,168.5C 480.167,171.167 479.833,173.833 479.5,176.5C 463.911,177.484 448.244,177.817 432.5,177.5C 432.167,174.167 431.833,170.833 431.5,167.5 Z"/></g>
<g><path style="opacity:1" fill="#56387d" d="M 227.5,177.5 C 227.107,179.284 226.441,180.95 225.5,182.5C 217.815,192.204 208.482,194.038 197.5,188C 193.986,185.26 190.986,182.093 188.5,178.5C 201.323,177.505 214.323,177.171 227.5,177.5 Z"/></g>
<g><path style="opacity:1" fill="#a270b6" d="M 182.5,150.5 C 182.214,156.259 182.548,161.925 183.5,167.5C 184.382,171.593 186.049,175.26 188.5,178.5C 190.986,182.093 193.986,185.26 197.5,188C 208.482,194.038 217.815,192.204 225.5,182.5C 235.015,182.173 244.348,182.506 253.5,183.5C 251.139,184.435 248.972,185.768 247,187.5C 242.807,194.65 240.307,202.317 239.5,210.5C 220.5,210.5 201.5,210.5 182.5,210.5C 174.196,199.348 166.03,188.015 158,176.5C 154.603,169.807 152.103,162.807 150.5,155.5C 160.833,155.5 171.167,155.5 181.5,155.5C 181.216,153.585 181.549,151.919 182.5,150.5 Z"/></g>
<g><path style="opacity:1" fill="#a16fb5" d="M 258.5,183.5 C 293.996,182.502 329.663,182.168 365.5,182.5C 360.599,191.631 356.266,200.965 352.5,210.5C 326.5,210.5 300.5,210.5 274.5,210.5C 274.737,209.209 274.404,208.209 273.5,207.5C 271.384,199.768 268.051,192.602 263.5,186C 261.807,185.153 260.14,184.32 258.5,183.5 Z"/></g>
<g><path style="opacity:1" fill="#51377d" d="M 479.5,176.5 C 474.732,206.873 461.398,232.706 439.5,254C 432.245,257.542 427.579,255.542 425.5,248C 432.105,224.903 434.438,201.403 432.5,177.5C 448.244,177.817 463.911,177.484 479.5,176.5 Z"/></g>
<g><path style="opacity:1" fill="#52377d" d="M 99.5,176.5 C 99.5585,190.126 101.558,203.459 105.5,216.5C 105.213,221.454 102.546,224.121 97.5,224.5C 77.0203,213.024 60.3536,197.358 47.5,177.5C 64.9102,177.819 82.2436,177.485 99.5,176.5 Z"/></g>
<g><path style="opacity:1" fill="#52387d" d="M 253.5,183.5 C 255.167,183.5 256.833,183.5 258.5,183.5C 260.14,184.32 261.807,185.153 263.5,186C 268.051,192.602 271.384,199.768 273.5,207.5C 272.829,215.692 268.496,221.192 260.5,224C 255.363,226.247 250.03,226.914 244.5,226C 239.116,222.016 237.45,216.85 239.5,210.5C 240.307,202.317 242.807,194.65 247,187.5C 248.972,185.768 251.139,184.435 253.5,183.5 Z"/></g>
<g><path style="opacity:1" fill="#51377d" d="M 386.5,202.5 C 401.729,200.893 408.229,207.56 406,222.5C 401.531,236.006 392.364,242.839 378.5,243C 374.835,241.332 372.668,238.499 372,234.5C 368.134,219.508 372.968,208.842 386.5,202.5 Z"/></g>
<g><path style="opacity:1" fill="#9b69b4" d="M 273.5,207.5 C 274.404,208.209 274.737,209.209 274.5,210.5C 300.5,210.5 326.5,210.5 352.5,210.5C 351.123,216.687 349.456,222.687 347.5,228.5C 295.833,228.5 244.167,228.5 192.5,228.5C 189.182,222.535 185.849,216.535 182.5,210.5C 201.5,210.5 220.5,210.5 239.5,210.5C 237.45,216.85 239.116,222.016 244.5,226C 250.03,226.914 255.363,226.247 260.5,224C 268.496,221.192 272.829,215.692 273.5,207.5 Z"/></g>
<g><path style="opacity:1" fill="#51387d" d="M 147.5,219.5 C 161.795,217.796 168.795,224.129 168.5,238.5C 168.448,246.699 167.282,254.699 165,262.5C 160.447,265.188 155.947,265.021 151.5,262C 138.321,252.115 135.154,239.615 142,224.5C 143.73,222.598 145.563,220.931 147.5,219.5 Z"/></g>
<g><path style="opacity:1" fill="#9a6aaf" d="M 192.5,228.5 C 244.167,228.5 295.833,228.5 347.5,228.5C 347.283,232.705 346.617,236.705 345.5,240.5C 296.106,238.827 246.439,237.827 196.5,237.5C 194.93,234.686 193.597,231.686 192.5,228.5 Z"/></g>
<g><path style="opacity:1" fill="#9564ae" d="M 196.5,237.5 C 246.439,237.827 296.106,238.827 345.5,240.5C 345.116,248.831 344.782,257.164 344.5,265.5C 297.833,265.5 251.167,265.5 204.5,265.5C 202.449,256.012 199.783,246.678 196.5,237.5 Z"/></g>
<g><path style="opacity:1" fill="#8f63af" d="M 204.5,265.5 C 251.167,265.5 297.833,265.5 344.5,265.5C 343.918,274.079 341.418,282.079 337,289.5C 335.384,293.347 334.384,297.347 334,301.5C 334.156,311.495 334.156,321.495 334,331.5C 329.871,339.976 323.371,342.476 314.5,339C 312.291,337.127 310.458,334.96 309,332.5C 306.927,317.512 304.927,302.512 303,287.5C 297.914,278.581 291.248,277.247 283,283.5C 280.636,289.729 277.136,295.229 272.5,300C 259.865,305.683 251.032,302.183 246,289.5C 245.333,284.833 244.667,280.167 244,275.5C 241.359,268.26 236.525,266.094 229.5,269C 227.421,273.297 225.921,277.797 225,282.5C 218.708,288.048 212.708,287.715 207,281.5C 205.677,276.247 204.843,270.914 204.5,265.5 Z"/></g>
<g><path style="opacity:1" fill="#fa878d" d="M 395.5,340.5 C 395.5,341.5 395.5,342.5 395.5,343.5C 382.833,343.5 370.167,343.5 357.5,343.5C 360.028,331.277 366.028,321.11 375.5,313C 382.73,309.753 388.23,311.586 392,318.5C 392.936,325.886 394.103,333.219 395.5,340.5 Z"/></g>
<g><path style="opacity:1" fill="#f38585" d="M 209.5,340.5 C 199.158,342.109 188.491,343.776 177.5,345.5C 174.889,341.049 172.056,336.716 169,332.5C 166.165,321.67 170.331,316.503 181.5,317C 194.317,320.648 203.65,328.481 209.5,340.5 Z"/></g>
<g><path style="opacity:1" fill="#f27e80" d="M 266.5,343.5 C 258.567,345.22 250.567,346.553 242.5,347.5C 241.021,340.367 240.521,333.034 241,325.5C 243.897,320.845 248.063,319.345 253.5,321C 260.268,327.03 264.602,334.53 266.5,343.5 Z"/></g>
<g><path style="opacity:1" fill="#fa8f96" d="M 164.5,362.5 C 148.5,362.5 132.5,362.5 116.5,362.5C 113.2,355.895 114.867,350.728 121.5,347C 138.468,345.154 152.801,350.32 164.5,362.5 Z"/></g>
<g><path style="opacity:1" fill="#fa8e94" d="M 395.5,340.5 C 398.528,347.536 399.195,354.87 397.5,362.5C 383.255,363.122 369.255,362.455 355.5,360.5C 356.33,354.895 356.996,349.228 357.5,343.5C 370.167,343.5 382.833,343.5 395.5,343.5C 395.5,342.5 395.5,341.5 395.5,340.5 Z"/></g>
<g><path style="opacity:1" fill="#ee787d" d="M 209.5,340.5 C 213.954,347.743 217.621,355.41 220.5,363.5C 210.246,365.751 199.912,367.751 189.5,369.5C 186.027,361.221 182.027,353.221 177.5,345.5C 188.491,343.776 199.158,342.109 209.5,340.5 Z"/></g>
<g><path style="opacity:1" fill="#ed7278" d="M 266.5,343.5 C 268.916,351.654 270.582,359.988 271.5,368.5C 270.423,367.982 269.256,367.648 268,367.5C 259.873,369.159 251.707,370.492 243.5,371.5C 243.065,363.505 242.731,355.505 242.5,347.5C 250.567,346.553 258.567,345.22 266.5,343.5 Z"/></g>
<g><path style="opacity:1" fill="#fa9697" d="M 355.5,360.5 C 369.255,362.455 383.255,363.122 397.5,362.5C 394.973,369.415 392.64,376.415 390.5,383.5C 377.323,383.829 364.323,383.495 351.5,382.5C 353.732,375.337 355.066,368.004 355.5,360.5 Z"/></g>
<g><path style="opacity:1" fill="#fa9697" d="M 116.5,362.5 C 132.5,362.5 148.5,362.5 164.5,362.5C 171.674,368.529 177.674,375.529 182.5,383.5C 166.833,383.5 151.167,383.5 135.5,383.5C 128.942,376.73 122.609,369.73 116.5,362.5 Z"/></g>
<g><path style="opacity:1" fill="#ed6a76" d="M 220.5,363.5 C 227.002,378.836 234.836,393.503 244,407.5C 244.5,395.492 244.333,383.492 243.5,371.5C 251.707,370.492 259.873,369.159 268,367.5C 269.256,367.648 270.423,367.982 271.5,368.5C 269.176,394.437 279.509,413.103 302.5,424.5C 292.675,425.658 282.675,425.825 272.5,425C 262.086,423.893 251.753,422.393 241.5,420.5C 231.666,417.596 221.666,414.763 211.5,412C 207.221,410.527 203.221,408.527 199.5,406C 198.748,405.329 198.414,404.496 198.5,403.5C 196.437,391.917 193.437,380.583 189.5,369.5C 199.912,367.751 210.246,365.751 220.5,363.5 Z"/></g>
<g><path style="opacity:1" fill="#fa9c9d" d="M 351.5,382.5 C 364.323,383.495 377.323,383.829 390.5,383.5C 389.109,389.747 388.442,396.081 388.5,402.5C 372.658,402.83 356.991,402.496 341.5,401.5C 345.12,395.259 348.453,388.925 351.5,382.5 Z"/></g>
<g><path style="opacity:1" fill="#fa9b9d" d="M 135.5,383.5 C 151.167,383.5 166.833,383.5 182.5,383.5C 186.801,389.477 191.135,395.477 195.5,401.5C 179.578,402.484 163.578,402.817 147.5,402.5C 143.508,396.172 139.508,389.838 135.5,383.5 Z"/></g>
<g><path style="opacity:1" fill="#f9a1a1" d="M 195.5,401.5 C 196.5,402.167 197.5,402.833 198.5,403.5C 198.414,404.496 198.748,405.329 199.5,406C 203.221,408.527 207.221,410.527 211.5,412C 221.666,414.763 231.666,417.596 241.5,420.5C 212.833,420.5 184.167,420.5 155.5,420.5C 152.836,414.504 150.169,408.504 147.5,402.5C 163.578,402.817 179.578,402.484 195.5,401.5 Z"/></g>
<g><path style="opacity:1" fill="#faa2a2" d="M 341.5,401.5 C 356.991,402.496 372.658,402.83 388.5,402.5C 388.437,408.269 389.104,413.936 390.5,419.5C 366.908,420.489 343.241,420.823 319.5,420.5C 328.039,415.633 335.372,409.299 341.5,401.5 Z"/></g>
<g><path style="opacity:1" fill="#f9a7a7" d="M 390.5,419.5 C 391.848,426.212 394.181,432.545 397.5,438.5C 325.096,438.17 252.762,438.503 180.5,439.5C 173.864,437.344 167.531,434.51 161.5,431C 158.589,428.01 156.589,424.51 155.5,420.5C 184.167,420.5 212.833,420.5 241.5,420.5C 251.753,422.393 262.086,423.893 272.5,425C 282.675,425.825 292.675,425.658 302.5,424.5C 308.368,423.949 314.035,422.616 319.5,420.5C 343.241,420.823 366.908,420.489 390.5,419.5 Z"/></g>
<g><path style="opacity:1" fill="#faafa8" d="M 397.5,438.5 C 398.441,440.05 399.107,441.716 399.5,443.5C 329.5,443.5 259.5,443.5 189.5,443.5C 186.314,442.403 183.314,441.07 180.5,439.5C 252.762,438.503 325.096,438.17 397.5,438.5 Z"/></g>
<g><path style="opacity:1" fill="#faafae" d="M 189.5,443.5 C 259.5,443.5 329.5,443.5 399.5,443.5C 403.993,449.148 407.993,455.148 411.5,461.5C 347.167,460.167 282.833,460.167 218.5,461.5C 208.965,455.235 199.298,449.235 189.5,443.5 Z"/></g>
<g><path style="opacity:1" fill="#fab5af" d="M 411.5,461.5 C 414.241,463.975 416.241,466.975 417.5,470.5C 370.572,469.505 323.572,469.172 276.5,469.5C 260.848,468.784 245.181,468.284 229.5,468C 225.142,466.828 221.475,464.661 218.5,461.5C 282.833,460.167 347.167,460.167 411.5,461.5 Z"/></g>
<g><path style="opacity:1" fill="#fab5b4" d="M 276.5,469.5 C 323.572,469.172 370.572,469.505 417.5,470.5C 419.95,472.629 421.617,475.296 422.5,478.5C 383.33,478.168 344.33,478.501 305.5,479.5C 296.156,474.942 286.49,471.609 276.5,469.5 Z"/></g>
<g><path style="opacity:1" fill="#fabab5" d="M 305.5,479.5 C 344.33,478.501 383.33,478.168 422.5,478.5C 426.681,481.427 427.348,484.927 424.5,489C 389.833,489.667 355.167,489.667 320.5,489C 315.369,486.035 310.369,482.869 305.5,479.5 Z"/></g>
</svg>
