<?xml version="1.0" encoding="UTF-8"?>
<!DOCTYPE svg PUBLIC "-//W3C//DTD SVG 1.1//EN" "http://www.w3.org/Graphics/SVG/1.1/DTD/svg11.dtd">
<svg xmlns="http://www.w3.org/2000/svg" version="1.1" width="512px" height="512px" style="shape-rendering:geometricPrecision; text-rendering:geometricPrecision; image-rendering:optimizeQuality; fill-rule:evenodd; clip-rule:evenodd" xmlns:xlink="http://www.w3.org/1999/xlink">
<g><path style="opacity:1" fill="#39394c" d="M 95.5,38.5 C 104.611,56.3008 110.944,74.9674 114.5,94.5C 115.207,104.526 116.207,114.526 117.5,124.5C 130.018,130.922 141.684,138.589 152.5,147.5C 168.477,160.133 179.477,176.133 185.5,195.5C 187.017,205.224 188.683,214.891 190.5,224.5C 192.676,238.308 195.01,251.975 197.5,265.5C 197.344,269.764 198.011,273.764 199.5,277.5C 199.5,279.833 199.5,282.167 199.5,284.5C 200.356,291.214 201.356,297.88 202.5,304.5C 202.368,307.57 202.701,310.57 203.5,313.5C 203.552,317.198 203.886,320.865 204.5,324.5C 205.995,330.218 205.829,335.885 204,341.5C 196.966,349.413 189.966,349.413 183,341.5C 178.158,333.819 173.825,325.819 170,317.5C 166.561,342.802 152.394,352.636 127.5,347C 114.779,342.772 105.779,334.606 100.5,322.5C 97.143,310.432 95.8097,298.099 96.5,285.5C 97.7748,278.355 99.1081,271.188 100.5,264C 93.5024,238.164 79.0024,217.664 57,202.5C 67.1976,220.241 75.8643,238.908 83,258.5C 84.6327,267.459 84.7994,276.459 83.5,285.5C 81.6026,298.756 78.6026,311.756 74.5,324.5C 72.9146,328.838 70.9146,333.005 68.5,337C 74.377,341.717 80.377,346.217 86.5,350.5C 89.8514,353.848 93.5181,356.848 97.5,359.5C 100.52,362.516 103.854,365.183 107.5,367.5C 114.474,374.139 121.474,380.806 128.5,387.5C 132.545,391.38 136.045,395.713 139,400.5C 139.497,402.81 139.663,405.143 139.5,407.5C 139.5,408.833 139.5,410.167 139.5,411.5C 138.833,411.5 138.5,411.833 138.5,412.5C 132.998,418.143 126.332,419.977 118.5,418C 115.204,417.543 112.037,416.709 109,415.5C 109.272,420.788 109.439,426.122 109.5,431.5C 108.85,438.285 106.35,444.285 102,449.5C 96.3839,454.059 90.2172,457.726 83.5,460.5C 82.0783,460.709 80.745,461.209 79.5,462C 104.337,462.83 129.003,462.663 153.5,461.5C 166.723,457.612 174.723,448.946 177.5,435.5C 179.431,425.836 178.098,416.503 173.5,407.5C 171.556,403.278 169.89,398.945 168.5,394.5C 168.396,391.455 169.896,389.788 173,389.5C 184.475,397.937 197.308,402.937 211.5,404.5C 220.549,405.32 225.882,401.32 227.5,392.5C 229.074,383.686 228.407,375.019 225.5,366.5C 225.488,361.675 227.821,359.509 232.5,360C 236.212,365.379 240.879,369.713 246.5,373C 253.316,376.225 258.149,374.392 261,367.5C 261.498,364.518 261.665,361.518 261.5,358.5C 261.5,357.5 261.5,356.5 261.5,355.5C 263.009,345.372 263.675,335.038 263.5,324.5C 263.5,321.833 263.5,319.167 263.5,316.5C 264.483,312.702 264.817,308.702 264.5,304.5C 264.833,297.833 265.167,291.167 265.5,284.5C 265.5,281.5 265.5,278.5 265.5,275.5C 265.5,272.167 265.5,268.833 265.5,265.5C 266.143,257.85 266.477,250.183 266.5,242.5C 266.5,240.5 266.5,238.5 266.5,236.5C 267.745,203.66 267.745,170.66 266.5,137.5C 266.132,125.168 265.798,112.835 265.5,100.5C 264.83,79.786 263.497,59.1193 261.5,38.5C 263.833,38.5 266.167,38.5 268.5,38.5C 270.877,42.3734 272.043,46.7067 272,51.5C 278.271,157.208 277.605,262.875 270,368.5C 266.893,380.81 259.059,385.644 246.5,383C 243.619,381.642 240.786,380.142 238,378.5C 239.372,407.141 226.206,418.308 198.5,412C 193.647,410.66 188.98,408.826 184.5,406.5C 184.167,407 183.833,407.5 183.5,408C 189.131,422.729 188.631,437.229 182,451.5C 179.636,454.69 177.136,457.69 174.5,460.5C 173.711,460.783 173.044,461.283 172.5,462C 241.5,462.667 310.5,462.667 379.5,462C 378.956,461.283 378.289,460.783 377.5,460.5C 374.394,455.614 372.394,450.28 371.5,444.5C 371.826,440.116 371.492,435.783 370.5,431.5C 369.893,431.624 369.56,431.957 369.5,432.5C 351.42,437.966 340.753,431.466 337.5,413C 338.226,405.1 339.893,397.433 342.5,390C 336.61,392.265 330.61,394.598 324.5,397C 309.775,398.605 299.942,392.438 295,378.5C 294.736,335.327 297.402,292.327 303,249.5C 311.547,178.934 323.38,108.934 338.5,39.5C 341.5,39.5 344.5,39.5 347.5,39.5C 343.781,57.4264 340.448,75.4264 337.5,93.5C 334.097,107.572 331.43,121.906 329.5,136.5C 326.205,152.271 323.538,168.271 321.5,184.5C 319.609,198.846 317.609,213.18 315.5,227.5C 313.431,239.056 312.097,250.723 311.5,262.5C 309.322,276.273 307.989,290.273 307.5,304.5C 306.31,311.067 305.643,317.734 305.5,324.5C 304.93,332.154 304.596,339.821 304.5,347.5C 303.261,357.314 303.261,366.981 304.5,376.5C 306.81,383.422 311.643,387.422 319,388.5C 330.291,385.541 340.458,380.374 349.5,373C 353.181,371.686 355.514,372.853 356.5,376.5C 355.481,379.86 354.481,383.193 353.5,386.5C 350.434,393.082 348.434,400.082 347.5,407.5C 345.836,421.676 351.836,427.176 365.5,424C 369.165,422.503 372.498,420.503 375.5,418C 377.5,417.333 379.5,417.333 381.5,418C 382.108,419.231 382.441,420.564 382.5,422C 381.724,425.489 381.058,428.989 380.5,432.5C 378.383,445.688 383.05,455.521 394.5,462C 413.167,462.667 431.833,462.667 450.5,462C 440.253,453.677 434.587,442.844 433.5,429.5C 433.582,424.456 433.749,419.456 434,414.5C 424.918,421.489 416.251,421.155 408,413.5C 406.864,411.257 406.03,408.924 405.5,406.5C 405.336,403.813 405.503,401.146 406,398.5C 407.477,394.57 408.644,390.57 409.5,386.5C 412.465,379.897 415.465,373.231 418.5,366.5C 419.773,364.287 420.773,361.954 421.5,359.5C 424.069,356.039 426.403,352.372 428.5,348.5C 434.248,340.691 440.248,333.024 446.5,325.5C 451.798,320.703 456.965,315.703 462,310.5C 461.903,308.541 461.07,306.875 459.5,305.5C 451.556,290.053 447.223,273.72 446.5,256.5C 441.83,255.779 437.163,254.946 432.5,254C 430.119,252.491 429.119,250.325 429.5,247.5C 432.052,228.54 436.552,210.207 443,192.5C 424.037,211.809 408.537,233.642 396.5,258C 402.006,260.255 407.34,262.755 412.5,265.5C 422.052,271.557 428.885,279.89 433,290.5C 433.499,294.821 433.666,299.154 433.5,303.5C 431.075,310.355 428.075,317.022 424.5,323.5C 420.731,327.771 416.731,331.938 412.5,336C 402.277,341.825 391.944,341.992 381.5,336.5C 376.126,340.225 370.792,343.892 365.5,347.5C 357.203,351.812 349.203,351.478 341.5,346.5C 336.688,341.873 334.354,336.206 334.5,329.5C 334.198,321.082 334.531,312.748 335.5,304.5C 337.315,291.086 340.648,278.086 345.5,265.5C 350.956,251.251 357.956,237.918 366.5,225.5C 370.76,220.064 375.26,214.731 380,209.5C 380.5,200.506 380.666,191.506 380.5,182.5C 382.136,171.01 384.303,159.676 387,148.5C 377.463,156.37 368.963,165.203 361.5,175C 356.473,176.313 354.14,174.313 354.5,169C 355.788,157.82 357.121,146.653 358.5,135.5C 360.83,122.206 363.164,108.872 365.5,95.5C 370.436,76.918 375.436,58.2513 380.5,39.5C 382.099,39.7678 383.432,39.4345 384.5,38.5C 386.833,38.5 389.167,38.5 391.5,38.5C 379.554,76.0656 371.387,114.399 367,153.5C 376.011,143.815 386.178,135.648 397.5,129C 401.349,128.432 403.682,130.099 404.5,134C 398.671,144.822 394.837,156.322 393,168.5C 391.004,183.77 389.671,199.103 389,214.5C 357.721,248.331 343.054,288.331 345,334.5C 347.633,339.732 351.799,341.565 357.5,340C 365.928,335.389 373.928,330.222 381.5,324.5C 386.077,327.62 391.077,329.954 396.5,331.5C 400.054,330.945 403.387,329.779 406.5,328C 431.299,305.07 428.966,285.736 399.5,270C 395.167,268.333 390.833,266.667 386.5,265C 385.398,262.599 385.231,260.099 386,257.5C 401.024,224.93 422.191,197.097 449.5,174C 452.005,172.247 454.671,170.747 457.5,169.5C 462.078,170.858 463.578,173.858 462,178.5C 450.431,199.271 442.931,221.438 439.5,245C 444.139,246.128 448.805,247.128 453.5,248C 454.931,248.465 456.097,249.299 457,250.5C 456.257,263.941 458.257,276.941 463,289.5C 466.48,296.965 470.313,304.132 474.5,311C 474.333,311.833 474.167,312.667 474,313.5C 444.551,337.23 425.051,367.397 415.5,404C 415.359,407.698 417.192,409.531 421,409.5C 428.29,406.873 435.124,403.373 441.5,399C 445.369,398.44 447.702,400.106 448.5,404C 443.163,415.872 442.33,428.039 446,440.5C 448.691,446.197 452.525,451.03 457.5,455C 462.796,458.541 468.296,461.708 474,464.5C 475.271,468.166 474.104,470.666 470.5,472C 327.167,472.667 183.833,472.667 40.5,472C 36.1279,469.805 35.4612,466.805 38.5,463C 56.5633,459.534 73.8966,453.868 90.5,446C 98.6909,439.763 101.524,431.596 99,421.5C 97.7987,416.73 96.2987,412.063 94.5,407.5C 95.6433,402.747 98.6433,401.247 103.5,403C 111.398,406.98 119.731,408.646 128.5,408C 129.576,406.274 129.743,404.441 129,402.5C 108.264,381.084 85.7635,361.917 61.5,345C 59.2589,343.261 57.5922,341.094 56.5,338.5C 61.5799,330.443 65.4132,321.776 68,312.5C 71.7506,297.829 74.2506,282.996 75.5,268C 66.5083,240.184 53.6749,214.35 37,190.5C 36.3326,184.839 38.8326,182.672 44.5,184C 78.3491,200.52 100.682,226.853 111.5,263C 106.662,279.257 105.496,295.757 108,312.5C 113.632,331.789 126.465,340.289 146.5,338C 151.573,336.594 155.073,333.428 157,328.5C 159.354,318.418 162.021,308.418 165,298.5C 167.661,295.034 170.661,294.701 174,297.5C 177.505,311.173 183.172,323.84 191,335.5C 194.173,338.329 195.673,337.495 195.5,333C 190.699,285.06 183.199,237.56 173,190.5C 167.907,177.732 160.073,166.898 149.5,158C 137.213,146.851 123.546,137.684 108.5,130.5C 106.77,104.35 101.27,79.0162 92,54.5C 89.5,49.5 87,44.5 84.5,39.5C 88.1073,38.5108 91.774,38.1774 95.5,38.5 Z M 139.5,407.5 C 139.833,407.5 140.167,407.5 140.5,407.5C 141.954,409.263 141.62,410.597 139.5,411.5C 139.5,410.167 139.5,408.833 139.5,407.5 Z"/></g>
<g><path style="opacity:1" fill="#39384c" d="M 114.5,38.5 C 118.106,38.2108 121.606,38.5442 125,39.5C 131.701,61.7068 136.035,84.3735 138,107.5C 145.667,114.5 153.333,121.5 161,128.5C 155.419,98.4283 149.252,68.4283 142.5,38.5C 144.5,38.5 146.5,38.5 148.5,38.5C 149.568,39.4345 150.901,39.7678 152.5,39.5C 156.603,57.9883 160.936,76.3217 165.5,94.5C 168.604,110.123 171.604,125.79 174.5,141.5C 174.563,143.514 173.897,145.181 172.5,146.5C 170.833,146.5 169.167,146.5 167.5,146.5C 153.97,136.148 141.136,124.814 129,112.5C 127.892,106.197 127.058,99.8642 126.5,93.5C 124.143,74.7747 120.143,56.4413 114.5,38.5 Z"/></g>
<g><path style="opacity:1" fill="#39384c" d="M 178.5,38.5 C 180.5,38.5 182.5,38.5 184.5,38.5C 187.82,88.6 196.987,137.6 212,185.5C 214.776,187.14 216.776,186.473 218,183.5C 219.685,135.05 215.851,87.05 206.5,39.5C 209.768,38.513 213.102,38.1796 216.5,38.5C 219.734,58.5629 222.734,78.5629 225.5,98.5C 226.335,110.85 227.335,123.183 228.5,135.5C 228.5,151.167 228.5,166.833 228.5,182.5C 226.368,194.624 219.368,198.957 207.5,195.5C 206.207,193.704 204.707,192.037 203,190.5C 198.379,175.852 194.212,161.186 190.5,146.5C 186.843,128.893 183.51,111.226 180.5,93.5C 177.695,75.592 175.695,57.592 174.5,39.5C 176.099,39.7678 177.432,39.4345 178.5,38.5 Z"/></g>
<g><path style="opacity:1" fill="#f9f9f9" d="M 268.5,38.5 C 291.833,38.5 315.167,38.5 338.5,38.5C 338.5,38.8333 338.5,39.1667 338.5,39.5C 323.38,108.934 311.547,178.934 303,249.5C 297.402,292.327 294.736,335.327 295,378.5C 299.942,392.438 309.775,398.605 324.5,397C 330.61,394.598 336.61,392.265 342.5,390C 339.893,397.433 338.226,405.1 337.5,413C 340.753,431.466 351.42,437.966 369.5,432.5C 370.167,436.5 370.833,440.5 371.5,444.5C 372.394,450.28 374.394,455.614 377.5,460.5C 309.833,461.833 242.167,461.833 174.5,460.5C 177.136,457.69 179.636,454.69 182,451.5C 188.631,437.229 189.131,422.729 183.5,408C 183.833,407.5 184.167,407 184.5,406.5C 188.98,408.826 193.647,410.66 198.5,412C 226.206,418.308 239.372,407.141 238,378.5C 240.786,380.142 243.619,381.642 246.5,383C 259.059,385.644 266.893,380.81 270,368.5C 277.605,262.875 278.271,157.208 272,51.5C 272.043,46.7067 270.877,42.3734 268.5,38.5 Z"/></g>
<g><path style="opacity:1" fill="#38384b" d="M 435.5,38.5 C 435.857,48.2726 435.023,57.9392 433,67.5C 430.487,76.5541 428.154,85.5541 426,94.5C 444.179,79.4911 457.012,60.8244 464.5,38.5C 467.833,38.5 471.167,38.5 474.5,38.5C 470.597,53.9712 463.764,67.9712 454,80.5C 442.713,95.1332 429.046,106.8 413,115.5C 411.667,114.833 410.333,114.167 409,113.5C 408.333,111.167 408.333,108.833 409,106.5C 419.525,85.0665 425.359,62.3999 426.5,38.5C 429.5,38.5 432.5,38.5 435.5,38.5 Z"/></g>
<g><path style="opacity:1" fill="#9579b6" d="M 148.5,38.5 C 158.5,38.5 168.5,38.5 178.5,38.5C 177.432,39.4345 176.099,39.7678 174.5,39.5C 175.695,57.592 177.695,75.592 180.5,93.5C 175.305,93.1795 170.305,93.5128 165.5,94.5C 160.936,76.3217 156.603,57.9883 152.5,39.5C 150.901,39.7678 149.568,39.4345 148.5,38.5 Z"/></g>
<g><path style="opacity:1" fill="#967ab7" d="M 216.5,38.5 C 231.5,38.5 246.5,38.5 261.5,38.5C 263.497,59.1193 264.83,79.786 265.5,100.5C 264.532,98.3926 264.198,96.0593 264.5,93.5C 251.5,93.5 238.5,93.5 225.5,93.5C 225.5,95.1667 225.5,96.8333 225.5,98.5C 222.734,78.5629 219.734,58.5629 216.5,38.5 Z"/></g>
<g><path style="opacity:1" fill="#9479b6" d="M 435.5,38.5 C 445.167,38.5 454.833,38.5 464.5,38.5C 457.012,60.8244 444.179,79.4911 426,94.5C 428.154,85.5541 430.487,76.5541 433,67.5C 435.023,57.9392 435.857,48.2726 435.5,38.5 Z"/></g>
<g><path style="opacity:1" fill="#9679b7" d="M 95.5,38.5 C 101.833,38.5 108.167,38.5 114.5,38.5C 120.143,56.4413 124.143,74.7747 126.5,93.5C 122.298,93.1832 118.298,93.5166 114.5,94.5C 110.944,74.9674 104.611,56.3008 95.5,38.5 Z"/></g>
<g><path style="opacity:1" fill="#977ab7" d="M 338.5,39.5 C 338.5,39.1667 338.5,38.8333 338.5,38.5C 353.833,38.5 369.167,38.5 384.5,38.5C 383.432,39.4345 382.099,39.7678 380.5,39.5C 375.436,58.2513 370.436,76.918 365.5,95.5C 356.56,93.5278 347.227,92.8611 337.5,93.5C 340.448,75.4264 343.781,57.4264 347.5,39.5C 344.5,39.5 341.5,39.5 338.5,39.5 Z"/></g>
<g><path style="opacity:1" fill="#a580bd" d="M 126.5,93.5 C 127.058,99.8642 127.892,106.197 129,112.5C 141.136,124.814 153.97,136.148 167.5,146.5C 162.305,146.179 157.305,146.513 152.5,147.5C 141.684,138.589 130.018,130.922 117.5,124.5C 116.207,114.526 115.207,104.526 114.5,94.5C 118.298,93.5166 122.298,93.1832 126.5,93.5 Z"/></g>
<g><path style="opacity:1" fill="#a580bd" d="M 180.5,93.5 C 183.51,111.226 186.843,128.893 190.5,146.5C 184.5,146.5 178.5,146.5 172.5,146.5C 173.897,145.181 174.563,143.514 174.5,141.5C 171.604,125.79 168.604,110.123 165.5,94.5C 170.305,93.5128 175.305,93.1795 180.5,93.5 Z"/></g>
<g><path style="opacity:1" fill="#a580bf" d="M 265.5,100.5 C 265.798,112.835 266.132,125.168 266.5,137.5C 254.082,135.55 241.415,134.883 228.5,135.5C 227.335,123.183 226.335,110.85 225.5,98.5C 225.5,96.8333 225.5,95.1667 225.5,93.5C 238.5,93.5 251.5,93.5 264.5,93.5C 264.198,96.0593 264.532,98.3926 265.5,100.5 Z"/></g>
<g><path style="opacity:1" fill="#a480be" d="M 337.5,93.5 C 347.227,92.8611 356.56,93.5278 365.5,95.5C 363.164,108.872 360.83,122.206 358.5,135.5C 348.75,135.194 339.084,135.527 329.5,136.5C 331.43,121.906 334.097,107.572 337.5,93.5 Z"/></g>
<g><path style="opacity:1" fill="#b286c6" d="M 167.5,146.5 C 169.167,146.5 170.833,146.5 172.5,146.5C 178.5,146.5 184.5,146.5 190.5,146.5C 194.212,161.186 198.379,175.852 203,190.5C 204.707,192.037 206.207,193.704 207.5,195.5C 200.167,195.5 192.833,195.5 185.5,195.5C 179.477,176.133 168.477,160.133 152.5,147.5C 157.305,146.513 162.305,146.179 167.5,146.5 Z"/></g>
<g><path style="opacity:1" fill="#af85c3" d="M 228.5,135.5 C 241.415,134.883 254.082,135.55 266.5,137.5C 267.745,170.66 267.745,203.66 266.5,236.5C 266.5,218.5 266.5,200.5 266.5,182.5C 253.833,182.5 241.167,182.5 228.5,182.5C 228.5,166.833 228.5,151.167 228.5,135.5 Z"/></g>
<g><path style="opacity:1" fill="#b186c5" d="M 358.5,135.5 C 357.121,146.653 355.788,157.82 354.5,169C 354.14,174.313 356.473,176.313 361.5,175C 368.963,165.203 377.463,156.37 387,148.5C 384.303,159.676 382.136,171.01 380.5,182.5C 360.6,181.864 340.933,182.531 321.5,184.5C 323.538,168.271 326.205,152.271 329.5,136.5C 339.084,135.527 348.75,135.194 358.5,135.5 Z"/></g>
<g><path style="opacity:1" fill="#bf8dcc" d="M 228.5,182.5 C 241.167,182.5 253.833,182.5 266.5,182.5C 266.5,200.5 266.5,218.5 266.5,236.5C 266.5,238.5 266.5,240.5 266.5,242.5C 260.167,242.5 253.833,242.5 247.5,242.5C 247.916,233.313 244.916,225.479 238.5,219C 228.556,214.643 220.889,217.143 215.5,226.5C 207.567,224.532 199.234,223.865 190.5,224.5C 188.683,214.891 187.017,205.224 185.5,195.5C 192.833,195.5 200.167,195.5 207.5,195.5C 219.368,198.957 226.368,194.624 228.5,182.5 Z"/></g>
<g><path style="opacity:1" fill="#bd8ccb" d="M 380.5,182.5 C 380.666,191.506 380.5,200.506 380,209.5C 375.26,214.731 370.76,220.064 366.5,225.5C 350.008,224.503 333.342,224.17 316.5,224.5C 316.737,225.791 316.404,226.791 315.5,227.5C 317.609,213.18 319.609,198.846 321.5,184.5C 340.933,182.531 360.6,181.864 380.5,182.5 Z"/></g>
<g><path style="opacity:1" fill="#3c3b4f" d="M 247.5,242.5 C 244.069,255.381 235.736,260.215 222.5,257C 214.061,252.279 210.894,245.113 213,235.5C 213.739,232.454 214.572,229.454 215.5,226.5C 220.889,217.143 228.556,214.643 238.5,219C 244.916,225.479 247.916,233.313 247.5,242.5 Z"/></g>
<g><path style="opacity:1" fill="#f4f4f5" d="M 226.5,226.5 C 232.007,225.105 235.507,227.105 237,232.5C 237.667,236.5 237.667,240.5 237,244.5C 236.5,246.333 235.333,247.5 233.5,248C 229.756,248.929 226.256,248.429 223,246.5C 221.648,239.34 222.814,232.673 226.5,226.5 Z"/></g>
<g><path style="opacity:1" fill="#39384b" d="M 144.5,242.5 C 160.257,244.649 166.757,253.649 164,269.5C 159.017,278.492 151.85,280.659 142.5,276C 129.836,267.035 128.503,256.702 138.5,245C 140.611,244.155 142.611,243.322 144.5,242.5 Z"/></g>
<g><path style="opacity:1" fill="#c893d0" d="M 96.5,285.5 C 92.1667,285.5 87.8333,285.5 83.5,285.5C 84.7994,276.459 84.6327,267.459 83,258.5C 75.8643,238.908 67.1976,220.241 57,202.5C 79.0024,217.664 93.5024,238.164 100.5,264C 99.1081,271.188 97.7748,278.355 96.5,285.5 Z"/></g>
<g><path style="opacity:1" fill="#c893cf" d="M 144.5,252.5 C 153.003,253.799 156.336,258.799 154.5,267.5C 142.876,267.589 139.543,262.589 144.5,252.5 Z"/></g>
<g><path style="opacity:1" fill="#ca94d2" d="M 190.5,224.5 C 199.234,223.865 207.567,224.532 215.5,226.5C 214.572,229.454 213.739,232.454 213,235.5C 210.894,245.113 214.061,252.279 222.5,257C 235.736,260.215 244.069,255.381 247.5,242.5C 253.833,242.5 260.167,242.5 266.5,242.5C 266.477,250.183 266.143,257.85 265.5,265.5C 242.833,265.5 220.167,265.5 197.5,265.5C 195.01,251.975 192.676,238.308 190.5,224.5 Z"/></g>
<g><path style="opacity:1" fill="#c993d1" d="M 366.5,225.5 C 357.956,237.918 350.956,251.251 345.5,265.5C 334.167,265.5 322.833,265.5 311.5,265.5C 311.5,264.5 311.5,263.5 311.5,262.5C 312.097,250.723 313.431,239.056 315.5,227.5C 316.404,226.791 316.737,225.791 316.5,224.5C 333.342,224.17 350.008,224.503 366.5,225.5 Z"/></g>
<g><path style="opacity:1" fill="#c892d1" d="M 446.5,256.5 C 446.5,259.5 446.5,262.5 446.5,265.5C 435.167,265.5 423.833,265.5 412.5,265.5C 407.34,262.755 402.006,260.255 396.5,258C 408.537,233.642 424.037,211.809 443,192.5C 436.552,210.207 432.052,228.54 429.5,247.5C 429.119,250.325 430.119,252.491 432.5,254C 437.163,254.946 441.83,255.779 446.5,256.5 Z"/></g>
<g><path style="opacity:1" fill="#cd9bd3" d="M 197.5,265.5 C 220.167,265.5 242.833,265.5 265.5,265.5C 265.5,268.833 265.5,272.167 265.5,275.5C 243.141,274.844 221.141,275.511 199.5,277.5C 198.011,273.764 197.344,269.764 197.5,265.5 Z"/></g>
<g><path style="opacity:1" fill="#cd9cd4" d="M 446.5,256.5 C 447.223,273.72 451.556,290.053 459.5,305.5C 450.734,304.86 442.068,304.193 433.5,303.5C 433.666,299.154 433.499,294.821 433,290.5C 428.885,279.89 422.052,271.557 412.5,265.5C 423.833,265.5 435.167,265.5 446.5,265.5C 446.5,262.5 446.5,259.5 446.5,256.5 Z"/></g>
<g><path style="opacity:1" fill="#cd9bd9" d="M 265.5,275.5 C 265.5,278.5 265.5,281.5 265.5,284.5C 243.5,285.833 221.5,285.833 199.5,284.5C 199.5,282.167 199.5,279.833 199.5,277.5C 221.141,275.511 243.141,274.844 265.5,275.5 Z"/></g>
<g><path style="opacity:1" fill="#d2a1d9" d="M 199.5,284.5 C 221.5,285.833 243.5,285.833 265.5,284.5C 265.167,291.167 264.833,297.833 264.5,304.5C 243.833,304.5 223.167,304.5 202.5,304.5C 201.356,297.88 200.356,291.214 199.5,284.5 Z"/></g>
<g><path style="opacity:1" fill="#d09fd8" d="M 311.5,262.5 C 311.5,263.5 311.5,264.5 311.5,265.5C 322.833,265.5 334.167,265.5 345.5,265.5C 340.648,278.086 337.315,291.086 335.5,304.5C 326.167,304.5 316.833,304.5 307.5,304.5C 307.989,290.273 309.322,276.273 311.5,262.5 Z"/></g>
<g><path style="opacity:1" fill="#d3a7d9" d="M 202.5,304.5 C 223.167,304.5 243.833,304.5 264.5,304.5C 264.817,308.702 264.483,312.702 263.5,316.5C 263.5,315.5 263.5,314.5 263.5,313.5C 243.5,313.5 223.5,313.5 203.5,313.5C 202.701,310.57 202.368,307.57 202.5,304.5 Z"/></g>
<g><path style="opacity:1" fill="#d1a5da" d="M 307.5,304.5 C 316.833,304.5 326.167,304.5 335.5,304.5C 334.531,312.748 334.198,321.082 334.5,329.5C 333.549,328.081 333.216,326.415 333.5,324.5C 324.167,324.5 314.833,324.5 305.5,324.5C 305.643,317.734 306.31,311.067 307.5,304.5 Z"/></g>
<g><path style="opacity:1" fill="#d4a4dc" d="M 83.5,285.5 C 87.8333,285.5 92.1667,285.5 96.5,285.5C 95.8097,298.099 97.143,310.432 100.5,322.5C 92.2312,324.47 83.5645,325.136 74.5,324.5C 78.6026,311.756 81.6026,298.756 83.5,285.5 Z"/></g>
<g><path style="opacity:1" fill="#d8a7e0" d="M 203.5,313.5 C 223.5,313.5 243.5,313.5 263.5,313.5C 263.5,314.5 263.5,315.5 263.5,316.5C 263.5,319.167 263.5,321.833 263.5,324.5C 243.833,324.5 224.167,324.5 204.5,324.5C 203.886,320.865 203.552,317.198 203.5,313.5 Z"/></g>
<g><path style="opacity:1" fill="#d4a6dc" d="M 433.5,303.5 C 442.068,304.193 450.734,304.86 459.5,305.5C 461.07,306.875 461.903,308.541 462,310.5C 456.965,315.703 451.798,320.703 446.5,325.5C 439.167,324.833 431.833,324.167 424.5,323.5C 428.075,317.022 431.075,310.355 433.5,303.5 Z"/></g>
<g><path style="opacity:1" fill="#d8addf" d="M 305.5,324.5 C 314.833,324.5 324.167,324.5 333.5,324.5C 333.216,326.415 333.549,328.081 334.5,329.5C 334.354,336.206 336.688,341.873 341.5,346.5C 329.345,347.495 317.011,347.829 304.5,347.5C 304.596,339.821 304.93,332.154 305.5,324.5 Z"/></g>
<g><path style="opacity:1" fill="#d7adde" d="M 424.5,323.5 C 431.833,324.167 439.167,324.833 446.5,325.5C 440.248,333.024 434.248,340.691 428.5,348.5C 407.673,347.503 386.673,347.169 365.5,347.5C 370.792,343.892 376.126,340.225 381.5,336.5C 391.944,341.992 402.277,341.825 412.5,336C 416.731,331.938 420.731,327.771 424.5,323.5 Z"/></g>
<g><path style="opacity:1" fill="#d8afdf" d="M 204.5,324.5 C 224.167,324.5 243.833,324.5 263.5,324.5C 263.675,335.038 263.009,345.372 261.5,355.5C 261.5,353.5 261.5,351.5 261.5,349.5C 202.998,349.168 144.664,349.501 86.5,350.5C 80.377,346.217 74.377,341.717 68.5,337C 70.9146,333.005 72.9146,328.838 74.5,324.5C 83.5645,325.136 92.2312,324.47 100.5,322.5C 105.779,334.606 114.779,342.772 127.5,347C 152.394,352.636 166.561,342.802 170,317.5C 173.825,325.819 178.158,333.819 183,341.5C 189.966,349.413 196.966,349.413 204,341.5C 205.829,335.885 205.995,330.218 204.5,324.5 Z"/></g>
<g><path style="opacity:1" fill="#e0b4e0" d="M 261.5,355.5 C 261.5,356.5 261.5,357.5 261.5,358.5C 206.664,358.168 151.997,358.501 97.5,359.5C 93.5181,356.848 89.8514,353.848 86.5,350.5C 144.664,349.501 202.998,349.168 261.5,349.5C 261.5,351.5 261.5,353.5 261.5,355.5 Z"/></g>
<g><path style="opacity:1" fill="#ddb3df" d="M 341.5,346.5 C 349.203,351.478 357.203,351.812 365.5,347.5C 386.673,347.169 407.673,347.503 428.5,348.5C 426.403,352.372 424.069,356.039 421.5,359.5C 382.67,358.501 343.67,358.168 304.5,358.5C 304.5,361.167 304.5,363.833 304.5,366.5C 304.5,369.833 304.5,373.167 304.5,376.5C 303.261,366.981 303.261,357.314 304.5,347.5C 317.011,347.829 329.345,347.495 341.5,346.5 Z"/></g>
<g><path style="opacity:1" fill="#dfb4e6" d="M 261.5,358.5 C 261.665,361.518 261.498,364.518 261,367.5C 258.149,374.392 253.316,376.225 246.5,373C 240.879,369.713 236.212,365.379 232.5,360C 227.821,359.509 225.488,361.675 225.5,366.5C 185.996,366.168 146.663,366.501 107.5,367.5C 103.854,365.183 100.52,362.516 97.5,359.5C 151.997,358.501 206.664,358.168 261.5,358.5 Z"/></g>
<g><path style="opacity:1" fill="#e0b4e6" d="M 421.5,359.5 C 420.773,361.954 419.773,364.287 418.5,366.5C 380.5,366.5 342.5,366.5 304.5,366.5C 304.5,363.833 304.5,361.167 304.5,358.5C 343.67,358.168 382.67,358.501 421.5,359.5 Z"/></g>
<g><path style="opacity:1" fill="#e0bae6" d="M 225.5,366.5 C 228.407,375.019 229.074,383.686 227.5,392.5C 227.5,390.5 227.5,388.5 227.5,386.5C 194.329,386.168 161.329,386.502 128.5,387.5C 121.474,380.806 114.474,374.139 107.5,367.5C 146.663,366.501 185.996,366.168 225.5,366.5 Z"/></g>
<g><path style="opacity:1" fill="#e0bae6" d="M 304.5,366.5 C 342.5,366.5 380.5,366.5 418.5,366.5C 415.465,373.231 412.465,379.897 409.5,386.5C 390.833,386.5 372.167,386.5 353.5,386.5C 354.481,383.193 355.481,379.86 356.5,376.5C 355.514,372.853 353.181,371.686 349.5,373C 340.458,380.374 330.291,385.541 319,388.5C 311.643,387.422 306.81,383.422 304.5,376.5C 304.5,373.167 304.5,369.833 304.5,366.5 Z"/></g>
<g><path style="opacity:1" fill="#38384b" d="M 457.5,374.5 C 465.571,375.174 467.571,379.007 463.5,386C 457.984,387.925 454.651,386.091 453.5,380.5C 453.866,377.744 455.2,375.744 457.5,374.5 Z"/></g>
<g><path style="opacity:1" fill="#e5bfe7" d="M 227.5,392.5 C 225.882,401.32 220.549,405.32 211.5,404.5C 197.308,402.937 184.475,397.937 173,389.5C 169.896,389.788 168.396,391.455 168.5,394.5C 169.89,398.945 171.556,403.278 173.5,407.5C 162.402,406.181 151.402,406.181 140.5,407.5C 140.167,407.5 139.833,407.5 139.5,407.5C 139.663,405.143 139.497,402.81 139,400.5C 136.045,395.713 132.545,391.38 128.5,387.5C 161.329,386.502 194.329,386.168 227.5,386.5C 227.5,388.5 227.5,390.5 227.5,392.5 Z"/></g>
<g><path style="opacity:1" fill="#e5c0e9" d="M 353.5,386.5 C 372.167,386.5 390.833,386.5 409.5,386.5C 408.644,390.57 407.477,394.57 406,398.5C 405.503,401.146 405.336,403.813 405.5,406.5C 386.091,406.18 366.757,406.513 347.5,407.5C 348.434,400.082 350.434,393.082 353.5,386.5 Z"/></g>
<g><path style="opacity:1" fill="#e9c6eb" d="M 173.5,407.5 C 178.098,416.503 179.431,425.836 177.5,435.5C 177.5,433.5 177.5,431.5 177.5,429.5C 154.603,428.86 131.936,429.527 109.5,431.5C 109.439,426.122 109.272,420.788 109,415.5C 112.037,416.709 115.204,417.543 118.5,418C 126.332,419.977 132.998,418.143 138.5,412.5C 139.167,412.5 139.5,412.167 139.5,411.5C 141.62,410.597 141.954,409.263 140.5,407.5C 151.402,406.181 162.402,406.181 173.5,407.5 Z"/></g>
<g><path style="opacity:1" fill="#e9c6eb" d="M 405.5,406.5 C 406.03,408.924 406.864,411.257 408,413.5C 416.251,421.155 424.918,421.489 434,414.5C 433.749,419.456 433.582,424.456 433.5,429.5C 416.167,429.5 398.833,429.5 381.5,429.5C 381.737,430.791 381.404,431.791 380.5,432.5C 381.058,428.989 381.724,425.489 382.5,422C 382.441,420.564 382.108,419.231 381.5,418C 379.5,417.333 377.5,417.333 375.5,418C 372.498,420.503 369.165,422.503 365.5,424C 351.836,427.176 345.836,421.676 347.5,407.5C 366.757,406.513 386.091,406.18 405.5,406.5 Z"/></g>
<g><path style="opacity:1" fill="#eccdf1" d="M 177.5,435.5 C 174.723,448.946 166.723,457.612 153.5,461.5C 129.994,461.831 106.661,461.498 83.5,460.5C 90.2172,457.726 96.3839,454.059 102,449.5C 106.35,444.285 108.85,438.285 109.5,431.5C 131.936,429.527 154.603,428.86 177.5,429.5C 177.5,431.5 177.5,433.5 177.5,435.5 Z"/></g>
<g><path style="opacity:1" fill="#eaccf0" d="M 433.5,429.5 C 434.587,442.844 440.253,453.677 450.5,462C 431.833,462.667 413.167,462.667 394.5,462C 383.05,455.521 378.383,445.688 380.5,432.5C 381.404,431.791 381.737,430.791 381.5,429.5C 398.833,429.5 416.167,429.5 433.5,429.5 Z"/></g>
<g><path style="opacity:1" fill="#83838e" d="M 369.5,432.5 C 369.56,431.957 369.893,431.624 370.5,431.5C 371.492,435.783 371.826,440.116 371.5,444.5C 370.833,440.5 370.167,436.5 369.5,432.5 Z"/></g>
<g><path style="opacity:1" fill="#c5adcc" d="M 83.5,460.5 C 106.661,461.498 129.994,461.831 153.5,461.5C 129.003,462.663 104.337,462.83 79.5,462C 80.745,461.209 82.0783,460.709 83.5,460.5 Z"/></g>
<g><path style="opacity:1" fill="#d3d3d9" d="M 174.5,460.5 C 242.167,461.833 309.833,461.833 377.5,460.5C 378.289,460.783 378.956,461.283 379.5,462C 310.5,462.667 241.5,462.667 172.5,462C 173.044,461.283 173.711,460.783 174.5,460.5 Z"/></g>
</svg>
