<?xml version="1.0" encoding="UTF-8"?>
<!DOCTYPE svg PUBLIC "-//W3C//DTD SVG 1.1//EN" "http://www.w3.org/Graphics/SVG/1.1/DTD/svg11.dtd">
<svg xmlns="http://www.w3.org/2000/svg" version="1.1" width="512px" height="512px" style="shape-rendering:geometricPrecision; text-rendering:geometricPrecision; image-rendering:optimizeQuality; fill-rule:evenodd; clip-rule:evenodd" xmlns:xlink="http://www.w3.org/1999/xlink">
<g><path style="opacity:1" fill="#fac86f" d="M 367.5,69.5 C 358.5,69.5 349.5,69.5 340.5,69.5C 337.786,59.2746 339.786,50.108 346.5,42C 355.603,37.1534 362.436,39.3201 367,48.5C 369.895,55.6014 370.062,62.6014 367.5,69.5 Z"/></g>
<g><path style="opacity:1" fill="#fac372" d="M 75.5,53.5 C 92.217,54.2763 98.0504,62.6096 93,78.5C 86.3557,85.9562 78.5223,87.4562 69.5,83C 62.9574,76.402 61.7908,68.902 66,60.5C 68.529,57.1151 71.6956,54.7818 75.5,53.5 Z"/></g>
<g><path style="opacity:1" fill="#fac174" d="M 340.5,69.5 C 349.5,69.5 358.5,69.5 367.5,69.5C 366.016,76.4786 362.35,81.9786 356.5,86C 348.874,87.9368 344.041,85.1035 342,77.5C 341.178,74.8832 340.678,72.2165 340.5,69.5 Z"/></g>
<g><path style="opacity:1" fill="#fac075" d="M 282.5,77.5 C 291.551,77.9197 295.051,82.5864 293,91.5C 289.692,95.3271 285.526,96.4937 280.5,95C 273.54,88.3002 274.206,82.4669 282.5,77.5 Z"/></g>
<g><path style="opacity:1" fill="#fabc75" d="M 134.5,152.5 C 125.833,152.5 117.167,152.5 108.5,152.5C 108.737,153.791 108.404,154.791 107.5,155.5C 106.406,145.161 105.573,134.828 105,124.5C 109.263,117.843 114.597,116.843 121,121.5C 126.068,131.632 130.568,141.965 134.5,152.5 Z"/></g>
<g><path style="opacity:1" fill="#fabd75" d="M 291.5,152.5 C 287.167,152.5 282.833,152.5 278.5,152.5C 278.737,153.791 278.404,154.791 277.5,155.5C 277.333,143.495 277.5,131.495 278,119.5C 280.513,115.788 284.013,114.622 288.5,116C 289.333,116.833 290.167,117.667 291,118.5C 291.5,129.828 291.667,141.162 291.5,152.5 Z"/></g>
<g><path style="opacity:1" fill="#fabc75" d="M 358.5,152.5 C 350.833,152.5 343.167,152.5 335.5,152.5C 337.529,143.386 340.029,134.386 343,125.5C 346.377,121.251 350.543,120.418 355.5,123C 356.893,124.171 357.727,125.671 358,127.5C 358.5,135.827 358.666,144.16 358.5,152.5 Z"/></g>
<g><path style="opacity:1" fill="#fab575" d="M 263.5,170.5 C 234.662,170.831 205.995,170.498 177.5,169.5C 202.666,156.373 229.333,150.207 257.5,151C 258.667,152.167 259.833,153.333 261,154.5C 261.998,159.82 262.831,165.153 263.5,170.5 Z"/></g>
<g><path style="opacity:1" fill="#fab076" d="M 291.5,152.5 C 298.215,154.014 304.882,155.847 311.5,158C 312.931,158.465 314.097,159.299 315,160.5C 316.451,170.729 316.951,181.062 316.5,191.5C 293.833,191.5 271.167,191.5 248.5,191.5C 252.746,183.694 250.579,178.694 242,176.5C 233.43,178.72 231.263,183.72 235.5,191.5C 215.167,191.5 194.833,191.5 174.5,191.5C 173.503,186.852 172.503,182.185 171.5,177.5C 172.075,173.651 174.075,170.984 177.5,169.5C 205.995,170.498 234.662,170.831 263.5,170.5C 263.347,174.875 264.68,178.708 267.5,182C 271.155,184.335 274.321,183.835 277,180.5C 277.5,172.173 277.666,163.84 277.5,155.5C 278.404,154.791 278.737,153.791 278.5,152.5C 282.833,152.5 287.167,152.5 291.5,152.5 Z"/></g>
<g><path style="opacity:1" fill="#fab075" d="M 134.5,152.5 C 140.87,165.253 146.87,178.253 152.5,191.5C 138.99,191.171 125.656,191.504 112.5,192.5C 110.769,180.271 109.102,167.938 107.5,155.5C 108.404,154.791 108.737,153.791 108.5,152.5C 117.167,152.5 125.833,152.5 134.5,152.5 Z"/></g>
<g><path style="opacity:1" fill="#fab075" d="M 335.5,152.5 C 343.167,152.5 350.833,152.5 358.5,152.5C 359.459,165.33 360.126,178.33 360.5,191.5C 348.167,191.5 335.833,191.5 323.5,191.5C 327.13,178.284 331.13,165.284 335.5,152.5 Z"/></g>
<g><path style="opacity:1" fill="#faf8f6" d="M 248.5,191.5 C 244.167,195.5 239.833,195.5 235.5,191.5C 231.263,183.72 233.43,178.72 242,176.5C 250.579,178.694 252.746,183.694 248.5,191.5 Z"/></g>
<g><path style="opacity:1" fill="#faa075" d="M 433.5,178.5 C 445.252,177.09 451.252,182.257 451.5,194C 450.521,205.315 444.354,211.815 433,213.5C 424.893,212.722 421.06,208.222 421.5,200C 421.534,190.417 425.534,183.25 433.5,178.5 Z"/></g>
<g><path style="opacity:1" fill="#faa775" d="M 152.5,191.5 C 155.167,197.167 157.833,202.833 160.5,208.5C 144.578,209.484 128.578,209.817 112.5,209.5C 112.5,203.833 112.5,198.167 112.5,192.5C 125.656,191.504 138.99,191.171 152.5,191.5 Z"/></g>
<g><path style="opacity:1" fill="#faa876" d="M 174.5,191.5 C 194.833,191.5 215.167,191.5 235.5,191.5C 239.833,195.5 244.167,195.5 248.5,191.5C 271.167,191.5 293.833,191.5 316.5,191.5C 318.833,195.5 321.167,195.5 323.5,191.5C 335.833,191.5 348.167,191.5 360.5,191.5C 360.343,192.873 360.51,194.207 361,195.5C 366.043,199.042 370.21,203.376 373.5,208.5C 308.669,209.499 243.669,209.832 178.5,209.5C 176.804,203.7 175.471,197.7 174.5,191.5 Z"/></g>
<g><path style="opacity:1" fill="#faa175" d="M 160.5,208.5 C 163.243,214.985 166.243,221.319 169.5,227.5C 146.833,227.5 124.167,227.5 101.5,227.5C 106.027,221.985 109.693,215.985 112.5,209.5C 128.578,209.817 144.578,209.484 160.5,208.5 Z"/></g>
<g><path style="opacity:1" fill="#faa276" d="M 373.5,208.5 C 378.118,214.067 381.452,220.4 383.5,227.5C 369.656,227.171 355.99,227.504 342.5,228.5C 339.732,225.229 336.732,222.062 333.5,219C 321.46,212.515 312.46,215.348 306.5,227.5C 288.833,227.5 271.167,227.5 253.5,227.5C 253.608,223.753 253.108,220.086 252,216.5C 247.864,211.281 243.864,211.281 240,216.5C 239.501,220.152 239.335,223.818 239.5,227.5C 219.167,227.5 198.833,227.5 178.5,227.5C 179.722,225.714 180.389,223.714 180.5,221.5C 179.702,217.511 179.035,213.511 178.5,209.5C 243.669,209.832 308.669,209.499 373.5,208.5 Z"/></g>
<g><path style="opacity:1" fill="#faf9f9" d="M 253.5,227.5 C 253.659,233.601 254.326,239.601 255.5,245.5C 255.778,258.606 256.778,271.606 258.5,284.5C 258.872,291.837 259.372,299.171 260,306.5C 262.072,311.143 265.572,312.643 270.5,311C 272.049,309.786 273.215,308.286 274,306.5C 274.5,299.174 274.666,291.841 274.5,284.5C 275.074,276.177 275.574,267.844 276,259.5C 278.21,256.71 281.044,255.877 284.5,257C 292.7,259.435 300.367,262.935 307.5,267.5C 319.227,276.56 329.227,287.226 337.5,299.5C 343.017,294.149 348.684,288.982 354.5,284C 365.793,280.792 370.126,284.958 367.5,296.5C 363.372,304.385 360.538,312.718 359,321.5C 359.383,322.056 359.883,322.389 360.5,322.5C 367.458,327.771 372.458,334.438 375.5,342.5C 376.249,346.819 376.415,351.152 376,355.5C 375.261,356.574 374.261,357.241 373,357.5C 366.704,352.555 359.871,348.389 352.5,345C 346.166,343.671 343.332,346.171 344,352.5C 346.637,356.067 349.804,359.067 353.5,361.5C 359.708,366.706 364.374,373.04 367.5,380.5C 368.447,388.85 369.613,397.183 371,405.5C 375.391,409.658 379.058,408.992 382,403.5C 383.01,396.98 383.843,390.48 384.5,384C 386.167,383.333 387.833,383.333 389.5,384C 393.213,387.963 396.546,392.129 399.5,396.5C 402.309,403.262 404.309,410.262 405.5,417.5C 406.653,431.596 402.32,443.596 392.5,453.5C 387.709,457.735 382.375,461.235 376.5,464C 369.156,466.826 361.823,469.326 354.5,471.5C 286.833,471.5 219.167,471.5 151.5,471.5C 143.607,466.94 136.607,461.274 130.5,454.5C 125.302,445.571 122.302,435.904 121.5,425.5C 120.617,408.703 124.284,393.036 132.5,378.5C 137.888,371.779 144.222,366.112 151.5,361.5C 156.399,358.208 161.733,356.374 167.5,356C 169.357,357.182 170.357,358.849 170.5,361C 168.651,368.746 168.151,376.579 169,384.5C 169.465,385.931 170.299,387.097 171.5,388C 175.591,389.227 179.091,388.394 182,385.5C 185.024,375.429 189.024,365.762 194,356.5C 197.736,351.262 202.236,346.929 207.5,343.5C 214.461,340.353 221.127,336.687 227.5,332.5C 230.407,328.358 230.074,324.524 226.5,321C 223.167,320.333 219.833,320.333 216.5,321C 208.446,322.407 200.78,324.907 193.5,328.5C 189.008,328.339 187.008,326.006 187.5,321.5C 187.514,315.419 188.181,309.419 189.5,303.5C 191.591,297.312 194.257,291.312 197.5,285.5C 203.22,278.447 209.887,272.447 217.5,267.5C 225.186,262.603 233.52,259.27 242.5,257.5C 241.838,253.534 241.505,249.534 241.5,245.5C 241.082,239.331 240.415,233.331 239.5,227.5C 239.335,223.818 239.501,220.152 240,216.5C 243.864,211.281 247.864,211.281 252,216.5C 253.108,220.086 253.608,223.753 253.5,227.5 Z"/></g>
<g><path style="opacity:1" fill="#faf8f7" d="M 342.5,228.5 C 344.718,235.717 342.718,241.384 336.5,245.5C 330.487,246.784 324.487,246.784 318.5,245.5C 314.578,243.085 311.078,240.085 308,236.5C 306.711,233.649 306.211,230.649 306.5,227.5C 312.46,215.348 321.46,212.515 333.5,219C 336.732,222.062 339.732,225.229 342.5,228.5 Z"/></g>
<g><path style="opacity:1" fill="#fa9c76" d="M 101.5,227.5 C 124.167,227.5 146.833,227.5 169.5,227.5C 172.465,228.734 175.465,228.734 178.5,227.5C 198.833,227.5 219.167,227.5 239.5,227.5C 240.415,233.331 241.082,239.331 241.5,245.5C 191.331,245.832 141.331,245.499 91.5,244.5C 94.0804,238.332 97.4137,232.665 101.5,227.5 Z"/></g>
<g><path style="opacity:1" fill="#fa9c76" d="M 253.5,227.5 C 271.167,227.5 288.833,227.5 306.5,227.5C 306.211,230.649 306.711,233.649 308,236.5C 311.078,240.085 314.578,243.085 318.5,245.5C 297.5,245.5 276.5,245.5 255.5,245.5C 254.326,239.601 253.659,233.601 253.5,227.5 Z"/></g>
<g><path style="opacity:1" fill="#fa9c76" d="M 383.5,227.5 C 385.834,232.817 387.167,238.484 387.5,244.5C 370.577,245.485 353.577,245.818 336.5,245.5C 342.718,241.384 344.718,235.717 342.5,228.5C 355.99,227.504 369.656,227.171 383.5,227.5 Z"/></g>
<g><path style="opacity:1" fill="#fa9676" d="M 91.5,244.5 C 141.331,245.499 191.331,245.832 241.5,245.5C 241.505,249.534 241.838,253.534 242.5,257.5C 233.52,259.27 225.186,262.603 217.5,267.5C 202.833,266.167 188.167,266.167 173.5,267.5C 163.76,258.235 154.094,258.235 144.5,267.5C 120.5,266.167 96.5,266.167 72.5,267.5C 64.914,262.088 57.7473,256.088 51,249.5C 47.5838,240.249 50.7505,236.415 60.5,238C 68.3855,245.52 76.5522,252.687 85,259.5C 86.6675,254.177 88.8341,249.177 91.5,244.5 Z"/></g>
<g><path style="opacity:1" fill="#fa9576" d="M 387.5,244.5 C 388.452,250.075 388.786,255.741 388.5,261.5C 395.583,261.937 402.25,263.604 408.5,266.5C 374.663,266.168 340.996,266.502 307.5,267.5C 300.367,262.935 292.7,259.435 284.5,257C 281.044,255.877 278.21,256.71 276,259.5C 275.574,267.844 275.074,276.177 274.5,284.5C 269.167,284.5 263.833,284.5 258.5,284.5C 256.778,271.606 255.778,258.606 255.5,245.5C 276.5,245.5 297.5,245.5 318.5,245.5C 324.487,246.784 330.487,246.784 336.5,245.5C 353.577,245.818 370.577,245.485 387.5,244.5 Z"/></g>
<g><path style="opacity:1" fill="#faf8f7" d="M 173.5,267.5 C 176.984,272.579 178.318,278.246 177.5,284.5C 173.054,292.994 165.888,297.661 156,298.5C 147.568,297.231 142.068,292.564 139.5,284.5C 139.349,278.287 141.016,272.62 144.5,267.5C 154.094,258.235 163.76,258.235 173.5,267.5 Z"/></g>
<g><path style="opacity:1" fill="#fa8f76" d="M 144.5,267.5 C 141.016,272.62 139.349,278.287 139.5,284.5C 123.5,284.5 107.5,284.5 91.5,284.5C 84.8431,279.175 78.5097,273.509 72.5,267.5C 96.5,266.167 120.5,266.167 144.5,267.5 Z"/></g>
<g><path style="opacity:1" fill="#fa8f77" d="M 217.5,267.5 C 209.887,272.447 203.22,278.447 197.5,285.5C 191.021,284.509 184.354,284.176 177.5,284.5C 178.318,278.246 176.984,272.579 173.5,267.5C 188.167,266.167 202.833,266.167 217.5,267.5 Z"/></g>
<g><path style="opacity:1" fill="#fa8d76" d="M 408.5,266.5 C 420.426,270.747 430.092,278.08 437.5,288.5C 445.852,281.995 454.519,275.995 463.5,270.5C 470.497,272.487 472.33,276.821 469,283.5C 461.603,289.078 454.103,294.411 446.5,299.5C 419.984,299.164 393.651,298.164 367.5,296.5C 370.126,284.958 365.793,280.792 354.5,284C 348.684,288.982 343.017,294.149 337.5,299.5C 329.227,287.226 319.227,276.56 307.5,267.5C 340.996,266.502 374.663,266.168 408.5,266.5 Z"/></g>
<g><path style="opacity:1" fill="#fa8979" d="M 258.5,284.5 C 263.833,284.5 269.167,284.5 274.5,284.5C 274.666,291.841 274.5,299.174 274,306.5C 273.215,308.286 272.049,309.786 270.5,311C 265.572,312.643 262.072,311.143 260,306.5C 259.372,299.171 258.872,291.837 258.5,284.5 Z"/></g>
<g><path style="opacity:1" fill="#fa8979" d="M 91.5,284.5 C 107.5,284.5 123.5,284.5 139.5,284.5C 142.068,292.564 147.568,297.231 156,298.5C 165.888,297.661 173.054,292.994 177.5,284.5C 184.354,284.176 191.021,284.509 197.5,285.5C 194.257,291.312 191.591,297.312 189.5,303.5C 158.329,303.831 127.329,303.498 96.5,302.5C 101.078,301.118 102.578,298.118 101,293.5C 97.8546,290.368 94.6879,287.368 91.5,284.5 Z"/></g>
<g><path style="opacity:1" fill="#fa837c" d="M 96.5,302.5 C 127.329,303.498 158.329,303.831 189.5,303.5C 188.181,309.419 187.514,315.419 187.5,321.5C 151.5,321.5 115.5,321.5 79.5,321.5C 79.7373,322.791 79.404,323.791 78.5,324.5C 78.1198,320.177 77.7864,315.844 77.5,311.5C 76.1881,304.087 79.1881,300.087 86.5,299.5C 89.8089,300.45 93.1423,301.45 96.5,302.5 Z"/></g>
<g><path style="opacity:1" fill="#fa847d" d="M 367.5,296.5 C 393.651,298.164 419.984,299.164 446.5,299.5C 436.539,307.155 426.539,314.822 416.5,322.5C 397.833,321.167 379.167,321.167 360.5,322.5C 359.883,322.389 359.383,322.056 359,321.5C 360.538,312.718 363.372,304.385 367.5,296.5 Z"/></g>
<g><path style="opacity:1" fill="#fa7d7d" d="M 78.5,324.5 C 79.404,323.791 79.7373,322.791 79.5,321.5C 115.5,321.5 151.5,321.5 187.5,321.5C 187.008,326.006 189.008,328.339 193.5,328.5C 200.78,324.907 208.446,322.407 216.5,321C 219.833,320.333 223.167,320.333 226.5,321C 230.074,324.524 230.407,328.358 227.5,332.5C 221.127,336.687 214.461,340.353 207.5,343.5C 157.5,342.167 107.5,342.167 57.5,343.5C 52.8179,337.286 50.6512,330.286 51,322.5C 53.4742,318.681 56.9742,317.181 61.5,318C 67.5819,321.123 73.4153,324.623 79,328.5C 79.195,327.181 79.0283,325.847 78.5,324.5 Z"/></g>
<g><path style="opacity:1" fill="#fa7d7c" d="M 454.5,342.5 C 428.167,342.5 401.833,342.5 375.5,342.5C 372.458,334.438 367.458,327.771 360.5,322.5C 379.167,321.167 397.833,321.167 416.5,322.5C 416.192,331.525 420.192,333.691 428.5,329C 446.307,314.913 454.974,319.413 454.5,342.5 Z"/></g>
<g><path style="opacity:1" fill="#fa757d" d="M 207.5,343.5 C 202.236,346.929 197.736,351.262 194,356.5C 189.024,365.762 185.024,375.429 182,385.5C 179.091,388.394 175.591,389.227 171.5,388C 170.299,387.097 169.465,385.931 169,384.5C 168.151,376.579 168.651,368.746 170.5,361C 170.357,358.849 169.357,357.182 167.5,356C 161.733,356.374 156.399,358.208 151.5,361.5C 121.931,360.826 92.2644,360.159 62.5,359.5C 61.4242,354.007 59.7575,348.673 57.5,343.5C 107.5,342.167 157.5,342.167 207.5,343.5 Z"/></g>
<g><path style="opacity:1" fill="#fa767d" d="M 375.5,342.5 C 401.833,342.5 428.167,342.5 454.5,342.5C 454.5,348.5 454.5,354.5 454.5,360.5C 420.663,360.168 386.996,360.502 353.5,361.5C 349.804,359.067 346.637,356.067 344,352.5C 343.332,346.171 346.166,343.671 352.5,345C 359.871,348.389 366.704,352.555 373,357.5C 374.261,357.241 375.261,356.574 376,355.5C 376.415,351.152 376.249,346.819 375.5,342.5 Z"/></g>
<g><path style="opacity:1" fill="#fa707d" d="M 62.5,359.5 C 92.2644,360.159 121.931,360.826 151.5,361.5C 144.222,366.112 137.888,371.779 132.5,378.5C 106.833,378.5 81.1667,378.5 55.5,378.5C 58.03,372.244 60.3634,365.91 62.5,359.5 Z"/></g>
<g><path style="opacity:1" fill="#fa707d" d="M 454.5,360.5 C 456.511,366.203 458.844,371.87 461.5,377.5C 429.987,377.835 398.653,378.835 367.5,380.5C 364.374,373.04 359.708,366.706 353.5,361.5C 386.996,360.502 420.663,360.168 454.5,360.5 Z"/></g>
<g><path style="opacity:1" fill="#fa687d" d="M 55.5,378.5 C 81.1667,378.5 106.833,378.5 132.5,378.5C 124.284,393.036 120.617,408.703 121.5,425.5C 120.527,423.052 120.194,420.385 120.5,417.5C 111.5,417.5 102.5,417.5 93.5,417.5C 100.061,412.843 102.228,406.509 100,398.5C 95.8481,390.01 89.3481,387.51 80.5,391C 69.8341,400.05 69.8341,408.883 80.5,417.5C 70.1667,417.5 59.8333,417.5 49.5,417.5C 48.0239,403.889 50.0239,390.889 55.5,378.5 Z"/></g>
<g><path style="opacity:1" fill="#fa6a7d" d="M 461.5,377.5 C 464.353,383.073 466.02,389.073 466.5,395.5C 444.34,396.497 422.006,396.831 399.5,396.5C 396.546,392.129 393.213,387.963 389.5,384C 387.833,383.333 386.167,383.333 384.5,384C 383.843,390.48 383.01,396.98 382,403.5C 379.058,408.992 375.391,409.658 371,405.5C 369.613,397.183 368.447,388.85 367.5,380.5C 398.653,378.835 429.987,377.835 461.5,377.5 Z"/></g>
<g><path style="opacity:1" fill="#faf6f7" d="M 93.5,417.5 C 89.1667,418.833 84.8333,418.833 80.5,417.5C 69.8341,408.883 69.8341,400.05 80.5,391C 89.3481,387.51 95.8481,390.01 100,398.5C 102.228,406.509 100.061,412.843 93.5,417.5 Z"/></g>
<g><path style="opacity:1" fill="#fa647d" d="M 466.5,395.5 C 467.492,402.982 467.825,410.648 467.5,418.5C 446.909,417.512 426.242,417.179 405.5,417.5C 404.309,410.262 402.309,403.262 399.5,396.5C 422.006,396.831 444.34,396.497 466.5,395.5 Z"/></g>
<g><path style="opacity:1" fill="#fa597d" d="M 49.5,417.5 C 59.8333,417.5 70.1667,417.5 80.5,417.5C 84.8333,418.833 89.1667,418.833 93.5,417.5C 102.5,417.5 111.5,417.5 120.5,417.5C 120.194,420.385 120.527,423.052 121.5,425.5C 122.302,435.904 125.302,445.571 130.5,454.5C 101.24,453.509 71.9071,453.175 42.5,453.5C 42.4142,452.504 42.7476,451.671 43.5,451C 47.8333,448.167 52.1667,445.333 56.5,442.5C 52.4516,434.639 50.1183,426.306 49.5,417.5 Z"/></g>
<g><path style="opacity:1" fill="#fa597d" d="M 405.5,417.5 C 426.242,417.179 446.909,417.512 467.5,418.5C 466.203,425.18 464.203,431.68 461.5,438C 465.137,442.463 468.137,447.297 470.5,452.5C 444.574,453.49 418.574,453.824 392.5,453.5C 402.32,443.596 406.653,431.596 405.5,417.5 Z"/></g>
<g><path style="opacity:1" fill="#fa517d" d="M 470.5,452.5 C 472.216,461.578 468.882,467.745 460.5,471C 425.168,471.5 389.835,471.667 354.5,471.5C 361.823,469.326 369.156,466.826 376.5,464C 382.375,461.235 387.709,457.735 392.5,453.5C 418.574,453.824 444.574,453.49 470.5,452.5 Z"/></g>
<g><path style="opacity:1" fill="#fa517d" d="M 42.5,453.5 C 71.9071,453.175 101.24,453.509 130.5,454.5C 136.607,461.274 143.607,466.94 151.5,471.5C 116.832,471.667 82.1651,471.5 47.5,471C 42.895,468.73 40.2283,465.064 39.5,460C 39.9496,457.467 40.9496,455.3 42.5,453.5 Z"/></g>
</svg>
