<?xml version="1.0" encoding="UTF-8"?>
<!DOCTYPE svg PUBLIC "-//W3C//DTD SVG 1.1//EN" "http://www.w3.org/Graphics/SVG/1.1/DTD/svg11.dtd">
<svg xmlns="http://www.w3.org/2000/svg" version="1.1" width="512px" height="512px" style="shape-rendering:geometricPrecision; text-rendering:geometricPrecision; image-rendering:optimizeQuality; fill-rule:evenodd; clip-rule:evenodd" xmlns:xlink="http://www.w3.org/1999/xlink">
<g><path style="opacity:1" fill="#c8d475" d="M 395.5,89.5 C 390.415,88.9885 385.581,89.6551 381,91.5C 378.476,90.8957 375.976,90.229 373.5,89.5C 276.563,89.5193 179.563,89.5193 82.5,89.5C 77.6983,84.5729 73.365,79.2396 69.5,73.5C 94.0077,66.6882 119.008,62.5215 144.5,61C 148.667,55.5 153.5,50.6667 159,46.5C 159.365,51.3767 160.365,56.0434 162,60.5C 170.372,54.1456 179.372,48.8123 189,44.5C 190.232,49.7207 190.899,55.0541 191,60.5C 203.121,59.6504 215.287,58.6504 227.5,57.5C 235.417,57.7497 243.083,59.2497 250.5,62C 267.36,71.5985 285.027,79.2651 303.5,85C 314.846,85.4069 326.18,85.0736 337.5,84C 344.877,75.1624 353.543,67.9958 363.5,62.5C 364.632,66.4264 365.299,70.4264 365.5,74.5C 375.291,73.0716 384.124,69.4049 392,63.5C 393.093,71.1996 391.926,78.533 388.5,85.5C 391.05,86.6036 393.383,87.937 395.5,89.5 Z"/></g>
<g><path style="opacity:1" fill="#c7d36f" d="M 82.5,89.5 C 179.563,89.5193 276.563,89.5193 373.5,89.5C 375.976,90.229 378.476,90.8957 381,91.5C 385.581,89.6551 390.415,88.9885 395.5,89.5C 413.809,97.3233 431.809,105.657 449.5,114.5C 433.306,120.231 416.973,125.565 400.5,130.5C 366.663,130.832 332.996,130.498 299.5,129.5C 305.448,127.776 310.948,125.109 316,121.5C 317.871,122.997 318.871,124.997 319,127.5C 320.714,128.925 322.047,128.592 323,126.5C 325.662,120.102 324.662,114.436 320,109.5C 316.844,111.986 313.678,114.486 310.5,117C 309.241,117.982 307.908,118.315 306.5,118C 305.697,113.586 305.197,109.086 305,104.5C 304.107,103.919 303.107,103.585 302,103.5C 290.904,106.263 281.571,111.929 274,120.5C 271.713,123.072 270.547,126.072 270.5,129.5C 242.338,130.498 214.005,130.831 185.5,130.5C 190.209,121.098 190.709,111.431 187,101.5C 186.612,100.572 185.945,99.9054 185,99.5C 178.11,107.373 169.777,113.373 160,117.5C 159.228,117.355 158.561,117.022 158,116.5C 157.668,113.494 156.834,110.66 155.5,108C 146.598,110.889 140.098,116.722 136,125.5C 135.51,126.793 135.343,128.127 135.5,129.5C 129.355,130.49 123.022,130.823 116.5,130.5C 105.167,116.833 93.8333,103.167 82.5,89.5 Z"/></g>
<g><path style="opacity:1" fill="#a25d63" d="M 68.5,89.5 C 85.7452,112.99 102.745,136.657 119.5,160.5C 120.861,162.85 122.194,165.184 123.5,167.5C 108.735,166.178 94.0688,166.178 79.5,167.5C 76.1336,159.894 73.6336,151.894 72,143.5C 70.5674,125.512 69.4007,107.512 68.5,89.5 Z"/></g>
<g><path style="opacity:1" fill="#9e9d44" d="M 185.5,130.5 C 183.825,132.002 181.992,133.335 180,134.5C 179.667,134.167 179.333,133.833 179,133.5C 179.968,128.278 180.468,122.945 180.5,117.5C 179.448,117.351 178.448,117.517 177.5,118C 170.833,124.844 162.833,128.011 153.5,127.5C 152.811,125.556 152.311,123.556 152,121.5C 151.439,120.978 150.772,120.645 150,120.5C 145.896,122.933 142.063,125.767 138.5,129C 137.552,129.483 136.552,129.649 135.5,129.5C 135.343,128.127 135.51,126.793 136,125.5C 140.098,116.722 146.598,110.889 155.5,108C 156.834,110.66 157.668,113.494 158,116.5C 158.561,117.022 159.228,117.355 160,117.5C 169.777,113.373 178.11,107.373 185,99.5C 185.945,99.9054 186.612,100.572 187,101.5C 190.709,111.431 190.209,121.098 185.5,130.5 Z"/></g>
<g><path style="opacity:1" fill="#9e9d45" d="M 299.5,129.5 C 298.5,129.5 297.5,129.5 296.5,129.5C 296.533,125.131 296.2,120.798 295.5,116.5C 287.418,118.728 280.418,122.895 274.5,129C 273.207,129.49 271.873,129.657 270.5,129.5C 270.547,126.072 271.713,123.072 274,120.5C 281.571,111.929 290.904,106.263 302,103.5C 303.107,103.585 304.107,103.919 305,104.5C 305.197,109.086 305.697,113.586 306.5,118C 307.908,118.315 309.241,117.982 310.5,117C 313.678,114.486 316.844,111.986 320,109.5C 324.662,114.436 325.662,120.102 323,126.5C 322.047,128.592 320.714,128.925 319,127.5C 318.871,124.997 317.871,122.997 316,121.5C 310.948,125.109 305.448,127.776 299.5,129.5 Z"/></g>
<g><path style="opacity:1" fill="#c1ce6f" d="M 299.5,129.5 C 332.996,130.498 366.663,130.832 400.5,130.5C 395.439,133.022 390.106,135.022 384.5,136.5C 296.833,135.167 209.167,135.167 121.5,136.5C 119.863,134.525 118.196,132.525 116.5,130.5C 123.022,130.823 129.355,130.49 135.5,129.5C 136.552,129.649 137.552,129.483 138.5,129C 142.063,125.767 145.896,122.933 150,120.5C 150.772,120.645 151.439,120.978 152,121.5C 152.311,123.556 152.811,125.556 153.5,127.5C 162.833,128.011 170.833,124.844 177.5,118C 178.448,117.517 179.448,117.351 180.5,117.5C 180.468,122.945 179.968,128.278 179,133.5C 179.333,133.833 179.667,134.167 180,134.5C 181.992,133.335 183.825,132.002 185.5,130.5C 214.005,130.831 242.338,130.498 270.5,129.5C 271.873,129.657 273.207,129.49 274.5,129C 280.418,122.895 287.418,118.728 295.5,116.5C 296.2,120.798 296.533,125.131 296.5,129.5C 297.5,129.5 298.5,129.5 299.5,129.5 Z"/></g>
<g><path style="opacity:1" fill="#a25d63" d="M 446.5,134.5 C 443.482,145.249 440.482,155.916 437.5,166.5C 415.167,166.5 392.833,166.5 370.5,166.5C 370.351,165.448 370.517,164.448 371,163.5C 372.652,162.601 374.152,161.601 375.5,160.5C 399.134,151.677 422.801,143.011 446.5,134.5 Z"/></g>
<g><path style="opacity:1" fill="#989740" d="M 69.5,73.5 C 73.365,79.2396 77.6983,84.5729 82.5,89.5C 93.8333,103.167 105.167,116.833 116.5,130.5C 118.196,132.525 119.863,134.525 121.5,136.5C 124.62,140.792 127.953,144.959 131.5,149C 166.167,149.333 200.833,149.667 235.5,150C 241.566,153.024 247.232,156.524 252.5,160.5C 208.167,160.5 163.833,160.5 119.5,160.5C 102.745,136.657 85.7452,112.99 68.5,89.5C 68.1786,83.9738 68.5119,78.6405 69.5,73.5 Z"/></g>
<g><path style="opacity:1" fill="#c0cd69" d="M 384.5,136.5 C 380.059,137.424 375.725,138.758 371.5,140.5C 369.362,146.914 367.029,153.248 364.5,159.5C 361.633,157.238 358.633,155.238 355.5,153.5C 350.499,155.334 345.832,157.667 341.5,160.5C 325.904,168.362 310.237,176.029 294.5,183.5C 280.483,175.826 266.483,168.159 252.5,160.5C 247.232,156.524 241.566,153.024 235.5,150C 200.833,149.667 166.167,149.333 131.5,149C 127.953,144.959 124.62,140.792 121.5,136.5C 209.167,135.167 296.833,135.167 384.5,136.5 Z"/></g>
<g><path style="opacity:1" fill="#98963f" d="M 449.5,114.5 C 450.124,114.917 450.457,115.584 450.5,116.5C 448.847,122.443 447.514,128.443 446.5,134.5C 422.801,143.011 399.134,151.677 375.5,160.5C 364.167,160.5 352.833,160.5 341.5,160.5C 345.832,157.667 350.499,155.334 355.5,153.5C 358.633,155.238 361.633,157.238 364.5,159.5C 367.029,153.248 369.362,146.914 371.5,140.5C 375.725,138.758 380.059,137.424 384.5,136.5C 390.106,135.022 395.439,133.022 400.5,130.5C 416.973,125.565 433.306,120.231 449.5,114.5 Z"/></g>
<g><path style="opacity:1" fill="#8f8e38" d="M 119.5,160.5 C 163.833,160.5 208.167,160.5 252.5,160.5C 266.483,168.159 280.483,175.826 294.5,183.5C 310.237,176.029 325.904,168.362 341.5,160.5C 352.833,160.5 364.167,160.5 375.5,160.5C 374.152,161.601 372.652,162.601 371,163.5C 370.517,164.448 370.351,165.448 370.5,166.5C 369.65,170.562 368.483,174.562 367,178.5C 363.584,176.208 360.084,174.041 356.5,172C 355.5,171.333 354.5,171.333 353.5,172C 337.139,181.512 320.806,191.012 304.5,200.5C 300.983,202.759 297.317,204.759 293.5,206.5C 289.483,204.492 285.483,202.492 281.5,200.5C 265.064,190.108 248.397,179.941 231.5,170C 196.167,169.667 160.833,169.333 125.5,169C 124.956,168.283 124.289,167.783 123.5,167.5C 122.194,165.184 120.861,162.85 119.5,160.5 Z"/></g>
<g><path style="opacity:1" fill="#a75d69" d="M 123.5,167.5 C 124.289,167.783 124.956,168.283 125.5,169C 160.833,169.333 196.167,169.667 231.5,170C 248.397,179.941 265.064,190.108 281.5,200.5C 265.008,201.497 248.342,201.83 231.5,201.5C 231.784,199.585 231.451,197.919 230.5,196.5C 229.207,195.842 227.707,195.508 226,195.5C 197.189,197.24 168.356,198.573 139.5,199.5C 135.107,199.509 131.107,200.176 127.5,201.5C 112.833,201.5 98.1667,201.5 83.5,201.5C 82.386,190.141 81.0527,178.807 79.5,167.5C 94.0688,166.178 108.735,166.178 123.5,167.5 Z"/></g>
<g><path style="opacity:1" fill="#a75d69" d="M 370.5,166.5 C 392.833,166.5 415.167,166.5 437.5,166.5C 434.946,178.386 431.946,190.053 428.5,201.5C 386.997,201.832 345.663,201.499 304.5,200.5C 320.806,191.012 337.139,181.512 353.5,172C 354.5,171.333 355.5,171.333 356.5,172C 360.084,174.041 363.584,176.208 367,178.5C 368.483,174.562 369.65,170.562 370.5,166.5 Z"/></g>
<g><path style="opacity:1" fill="#d36f7c" d="M 230.5,196.5 C 230.5,206.5 230.5,216.5 230.5,226.5C 196.833,226.5 163.167,226.5 129.5,226.5C 128.833,218.167 128.167,209.833 127.5,201.5C 131.107,200.176 135.107,199.509 139.5,199.5C 168.356,198.573 197.189,197.24 226,195.5C 227.707,195.508 229.207,195.842 230.5,196.5 Z"/></g>
<g><path style="opacity:1" fill="#a76469" d="M 281.5,200.5 C 285.483,202.492 289.483,204.492 293.5,206.5C 297.317,204.759 300.983,202.759 304.5,200.5C 345.663,201.499 386.997,201.832 428.5,201.5C 427.815,206.239 426.815,210.905 425.5,215.5C 360.833,215.5 296.167,215.5 231.5,215.5C 231.5,210.833 231.5,206.167 231.5,201.5C 248.342,201.83 265.008,201.497 281.5,200.5 Z"/></g>
<g><path style="opacity:1" fill="#ad636a" d="M 83.5,201.5 C 98.1667,201.5 112.833,201.5 127.5,201.5C 128.167,209.833 128.833,218.167 129.5,226.5C 129.894,233.496 130.227,240.496 130.5,247.5C 130.5,249.167 130.5,250.833 130.5,252.5C 115.419,240.197 100.585,227.53 86,214.5C 84.334,210.337 83.5007,206.003 83.5,201.5 Z"/></g>
<g><path style="opacity:1" fill="#af646a" d="M 231.5,215.5 C 296.167,215.5 360.833,215.5 425.5,215.5C 423.677,222.459 422.01,229.459 420.5,236.5C 398.167,236.5 375.833,236.5 353.5,236.5C 354.204,231.016 355.538,225.683 357.5,220.5C 356.833,220.167 356.167,219.833 355.5,219.5C 330.543,225.375 305.543,231.042 280.5,236.5C 264.167,236.5 247.833,236.5 231.5,236.5C 231.5,229.5 231.5,222.5 231.5,215.5 Z"/></g>
<g><path style="opacity:1" fill="#d57583" d="M 129.5,226.5 C 163.167,226.5 196.833,226.5 230.5,226.5C 230.5,233.5 230.5,240.5 230.5,247.5C 197.167,247.5 163.833,247.5 130.5,247.5C 130.227,240.496 129.894,233.496 129.5,226.5 Z"/></g>
<g><path style="opacity:1" fill="#d57582" d="M 353.5,236.5 C 352.627,240.194 351.627,243.861 350.5,247.5C 321.329,247.831 292.329,247.498 263.5,246.5C 264.794,244.093 266.461,241.926 268.5,240C 272.623,238.808 276.623,237.641 280.5,236.5C 305.543,231.042 330.543,225.375 355.5,219.5C 356.167,219.833 356.833,220.167 357.5,220.5C 355.538,225.683 354.204,231.016 353.5,236.5 Z"/></g>
<g><path style="opacity:1" fill="#b16470" d="M 230.5,196.5 C 231.451,197.919 231.784,199.585 231.5,201.5C 231.5,206.167 231.5,210.833 231.5,215.5C 231.5,222.5 231.5,229.5 231.5,236.5C 247.833,236.5 264.167,236.5 280.5,236.5C 276.623,237.641 272.623,238.808 268.5,240C 266.461,241.926 264.794,244.093 263.5,246.5C 253.36,258.768 243.693,271.435 234.5,284.5C 233.115,285.574 231.949,286.907 231,288.5C 230.51,287.207 230.343,285.873 230.5,284.5C 230.5,272.167 230.5,259.833 230.5,247.5C 230.5,240.5 230.5,233.5 230.5,226.5C 230.5,216.5 230.5,206.5 230.5,196.5 Z"/></g>
<g><path style="opacity:1" fill="#af6470" d="M 353.5,236.5 C 375.833,236.5 398.167,236.5 420.5,236.5C 419.133,242.297 417.299,247.964 415,253.5C 409.96,258.044 404.794,262.378 399.5,266.5C 382.008,265.503 364.341,265.17 346.5,265.5C 347.706,259.467 349.04,253.467 350.5,247.5C 351.627,243.861 352.627,240.194 353.5,236.5 Z"/></g>
<g><path style="opacity:1" fill="#db7e8b" d="M 130.5,247.5 C 163.833,247.5 197.167,247.5 230.5,247.5C 230.5,259.833 230.5,272.167 230.5,284.5C 199.662,284.169 168.995,284.502 138.5,285.5C 135.441,283.603 133.274,280.936 132,277.5C 131.31,269.174 130.81,260.841 130.5,252.5C 130.5,250.833 130.5,249.167 130.5,247.5 Z"/></g>
<g><path style="opacity:1" fill="#db7e8b" d="M 263.5,246.5 C 292.329,247.498 321.329,247.831 350.5,247.5C 349.04,253.467 347.706,259.467 346.5,265.5C 344.385,270.961 343.052,276.627 342.5,282.5C 341.833,283.5 341.167,284.5 340.5,285.5C 305.337,284.502 270.004,284.168 234.5,284.5C 243.693,271.435 253.36,258.768 263.5,246.5 Z"/></g>
<g><path style="opacity:1" fill="#b5646f" d="M 346.5,265.5 C 364.341,265.17 382.008,265.503 399.5,266.5C 392.814,272.516 385.814,278.182 378.5,283.5C 366.678,282.505 354.678,282.172 342.5,282.5C 343.052,276.627 344.385,270.961 346.5,265.5 Z"/></g>
<g><path style="opacity:1" fill="#b56a71" d="M 342.5,282.5 C 354.678,282.172 366.678,282.505 378.5,283.5C 363.483,296.514 348.149,309.181 332.5,321.5C 333.482,318.237 334.149,314.903 334.5,311.5C 336.143,304.927 337.81,298.26 339.5,291.5C 340.461,289.735 340.795,287.735 340.5,285.5C 341.167,284.5 341.833,283.5 342.5,282.5 Z"/></g>
<g><path style="opacity:1" fill="#e08295" d="M 230.5,284.5 C 230.343,285.873 230.51,287.207 231,288.5C 231.949,286.907 233.115,285.574 234.5,284.5C 270.004,284.168 305.337,284.502 340.5,285.5C 340.795,287.735 340.461,289.735 339.5,291.5C 273.792,291.826 208.125,291.493 142.5,290.5C 141.167,288.833 139.833,287.167 138.5,285.5C 168.995,284.502 199.662,284.169 230.5,284.5 Z"/></g>
<g><path style="opacity:1" fill="#e18996" d="M 142.5,290.5 C 208.125,291.493 273.792,291.826 339.5,291.5C 337.81,298.26 336.143,304.927 334.5,311.5C 277.167,311.5 219.833,311.5 162.5,311.5C 155.861,304.526 149.194,297.526 142.5,290.5 Z"/></g>
<g><path style="opacity:1" fill="#e68f9c" d="M 86.5,315.5 C 74.8069,315.463 62.8069,315.463 50.5,315.5C 47.9953,313.814 47.162,311.481 48,308.5C 51.1122,299.16 54.6122,289.994 58.5,281C 60.1667,280.333 61.8333,280.333 63.5,281C 73.3713,289.705 82.7046,298.872 91.5,308.5C 90.5469,311.43 88.8802,313.763 86.5,315.5 Z"/></g>
<g><path style="opacity:1" fill="#e68e9d" d="M 162.5,311.5 C 219.833,311.5 277.167,311.5 334.5,311.5C 334.149,314.903 333.482,318.237 332.5,321.5C 332.3,324.63 331.634,327.63 330.5,330.5C 298.24,331.492 265.907,331.826 233.5,331.5C 231.824,332.183 231.157,333.517 231.5,335.5C 230.566,334.432 230.232,333.099 230.5,331.5C 215.324,331.171 200.324,331.504 185.5,332.5C 176.909,326.578 169.242,319.578 162.5,311.5 Z"/></g>
<g><path style="opacity:1" fill="#de828f" d="M 86.5,315.5 C 81.7099,321.461 76.7099,327.294 71.5,333C 69.8333,333.667 68.1667,333.667 66.5,333C 61.0428,327.229 55.7094,321.396 50.5,315.5C 62.8069,315.463 74.8069,315.463 86.5,315.5 Z"/></g>
<g><path style="opacity:1" fill="#e08492" d="M 460.5,326.5 C 448.5,326.5 436.5,326.5 424.5,326.5C 426.841,318.14 429.341,309.807 432,301.5C 435.18,298.935 438.347,299.102 441.5,302C 448.946,307.812 456.113,313.978 463,320.5C 463.972,323.294 463.139,325.294 460.5,326.5 Z"/></g>
<g><path style="opacity:1" fill="#d87a87" d="M 424.5,326.5 C 436.5,326.5 448.5,326.5 460.5,326.5C 454.124,333.877 447.124,340.544 439.5,346.5C 433.789,343.559 428.289,340.226 423,336.5C 422.31,332.974 422.81,329.64 424.5,326.5 Z"/></g>
<g><path style="opacity:1" fill="#e795a2" d="M 330.5,330.5 C 329.611,335.728 328.278,340.728 326.5,345.5C 301.5,345.5 276.5,345.5 251.5,345.5C 245.129,341.314 239.129,336.647 233.5,331.5C 265.907,331.826 298.24,331.492 330.5,330.5 Z"/></g>
<g><path style="opacity:1" fill="#e996a3" d="M 231.5,335.5 C 231.666,344.506 231.5,353.506 231,362.5C 229.23,364.418 227.063,364.918 224.5,364C 211.312,353.636 198.312,343.136 185.5,332.5C 200.324,331.504 215.324,331.171 230.5,331.5C 230.232,333.099 230.566,334.432 231.5,335.5 Z"/></g>
<g><path style="opacity:1" fill="#ed96a8" d="M 251.5,345.5 C 276.5,345.5 301.5,345.5 326.5,345.5C 326.212,348.939 325.546,352.272 324.5,355.5C 302.833,355.5 281.167,355.5 259.5,355.5C 259.291,354.078 258.791,352.745 258,351.5C 255.336,350.002 253.17,348.002 251.5,345.5 Z"/></g>
<g><path style="opacity:1" fill="#ed9ba7" d="M 259.5,355.5 C 281.167,355.5 302.833,355.5 324.5,355.5C 323.945,359.397 322.945,363.063 321.5,366.5C 301.674,365.503 281.674,365.17 261.5,365.5C 261.212,362.061 260.546,358.728 259.5,355.5 Z"/></g>
<g><path style="opacity:1" fill="#f1a0b0" d="M 261.5,365.5 C 281.674,365.17 301.674,365.503 321.5,366.5C 319.325,376.867 316.992,387.201 314.5,397.5C 298.664,395.176 282.664,394.843 266.5,396.5C 264.941,386.147 263.274,375.814 261.5,365.5 Z"/></g>
<g><path style="opacity:1" fill="#f6aab9" d="M 314.5,397.5 C 310.676,412.794 306.843,428.127 303,443.5C 300.975,445.725 298.642,446.059 296,444.5C 285.941,428.615 276.108,412.615 266.5,396.5C 282.664,394.843 298.664,395.176 314.5,397.5 Z"/></g>
<g><path style="opacity:1" fill="#a75e68" d="M 211.5,399.5 C 221.701,400.842 231.534,403.508 241,407.5C 242.109,412.056 242.609,416.722 242.5,421.5C 242.333,425.5 242.167,429.5 242,433.5C 241.225,435.223 239.892,436.223 238,436.5C 228.666,434.278 219.666,431.278 211,427.5C 210.195,418.089 210.362,408.756 211.5,399.5 Z"/></g>
<g><path style="opacity:1" fill="#ae646d" d="M 415.5,437.5 C 403.833,437.5 392.167,437.5 380.5,437.5C 383.382,430.734 386.549,424.067 390,417.5C 391.062,416.101 392.395,415.101 394,414.5C 403.141,418.735 411.807,423.735 420,429.5C 420.506,433.189 419.006,435.856 415.5,437.5 Z"/></g>
<g><path style="opacity:1" fill="#e38c9a" d="M 102.5,437.5 C 94.0674,436.861 85.7341,436.194 77.5,435.5C 81.168,430.993 84.668,426.327 88,421.5C 90.5918,420.018 92.9251,420.352 95,422.5C 98.0383,427.243 100.538,432.243 102.5,437.5 Z"/></g>
<g><path style="opacity:1" fill="#dc7f8c" d="M 77.5,435.5 C 85.7341,436.194 94.0674,436.861 102.5,437.5C 104.742,440.082 106.076,443.082 106.5,446.5C 94.5,446.5 82.5,446.5 70.5,446.5C 70.0618,446.565 69.7284,446.399 69.5,446C 71.6184,442.053 74.285,438.553 77.5,435.5 Z"/></g>
<g><path style="opacity:1" fill="#a35d66" d="M 380.5,437.5 C 392.167,437.5 403.833,437.5 415.5,437.5C 410.492,444.508 404.492,450.508 397.5,455.5C 390.776,452.386 384.609,448.386 379,443.5C 378.595,441.225 379.095,439.225 380.5,437.5 Z"/></g>
<g><path style="opacity:1" fill="#d4717e" d="M 70.5,446.5 C 82.5,446.5 94.5,446.5 106.5,446.5C 101.517,454.315 95.3499,460.981 88,466.5C 80.5447,461.214 74.7114,454.547 70.5,446.5 Z"/></g>
</svg>
