<?xml version="1.0" encoding="UTF-8"?>
<!DOCTYPE svg PUBLIC "-//W3C//DTD SVG 1.1//EN" "http://www.w3.org/Graphics/SVG/1.1/DTD/svg11.dtd">
<svg xmlns="http://www.w3.org/2000/svg" version="1.1" width="512px" height="512px" style="shape-rendering:geometricPrecision; text-rendering:geometricPrecision; image-rendering:optimizeQuality; fill-rule:evenodd; clip-rule:evenodd" xmlns:xlink="http://www.w3.org/1999/xlink">
<g><path style="opacity:1" fill="#fab26e" d="M 358.5,53.5 C 350.753,59.3706 343.42,65.7039 336.5,72.5C 321.362,67.9545 316.862,58.2878 323,43.5C 332.357,33.6317 342.357,32.965 353,41.5C 355.51,45.1995 357.343,49.1995 358.5,53.5 Z"/></g>
<g><path style="opacity:1" fill="#fab473" d="M 180.5,72.5 C 171.873,65.5107 163.206,58.5107 154.5,51.5C 155.805,44.6906 159.805,40.1906 166.5,38C 180.848,35.6933 188.848,41.6933 190.5,56C 190.354,63.463 187.021,68.963 180.5,72.5 Z"/></g>
<g><path style="opacity:1" fill="#606598" d="M 94.5,70.5 C 93.2438,70.5386 92.2438,70.0386 91.5,69C 72.9954,68.1712 54.662,68.3379 36.5,69.5C 32.502,66.3348 29.002,62.6681 26,58.5C 21.5971,37.2424 30.0971,27.7424 51.5,30C 53.9962,31.0804 56.3295,32.4138 58.5,34C 70.702,46.0349 82.702,58.2015 94.5,70.5 Z"/></g>
<g><path style="opacity:1" fill="#606698" d="M 472.5,69.5 C 454.007,68.5031 435.341,68.1698 416.5,68.5C 428.298,56.2015 440.298,44.0349 452.5,32C 461.833,24.6667 471.167,24.6667 480.5,32C 486.569,39.2471 488.069,47.4138 485,56.5C 481.33,61.3357 477.164,65.669 472.5,69.5 Z"/></g>
<g><path style="opacity:1" fill="#fabc83" d="M 358.5,53.5 C 361.844,60.1774 366.177,66.1774 371.5,71.5C 366.508,76.4878 361.175,81.1545 355.5,85.5C 354.614,86.325 354.281,87.325 354.5,88.5C 350.064,81.3965 344.064,76.0631 336.5,72.5C 343.42,65.7039 350.753,59.3706 358.5,53.5 Z"/></g>
<g><path style="opacity:1" fill="#fabe84" d="M 154.5,51.5 C 163.206,58.5107 171.873,65.5107 180.5,72.5C 170.794,75.5089 163.127,81.1756 157.5,89.5C 150.855,84.8504 144.522,79.8504 138.5,74.5C 145.485,67.8711 150.818,60.2044 154.5,51.5 Z"/></g>
<g><path style="opacity:1" fill="#575c90" d="M 416.5,68.5 C 435.341,68.1698 454.007,68.5031 472.5,69.5C 466.833,75.8333 460.833,81.8333 454.5,87.5C 435.5,87.5 416.5,87.5 397.5,87.5C 403.5,80.8333 409.833,74.5 416.5,68.5 Z"/></g>
<g><path style="opacity:1" fill="#fac693" d="M 138.5,74.5 C 144.522,79.8504 150.855,84.8504 157.5,89.5C 153.9,95.0377 150.566,100.704 147.5,106.5C 141.043,101.883 134.71,97.0492 128.5,92C 126.859,90.871 125.859,89.371 125.5,87.5C 129.5,82.8333 133.833,78.5 138.5,74.5 Z"/></g>
<g><path style="opacity:1" fill="#53578a" d="M 94.5,70.5 C 102.5,78.1667 110.5,85.8333 118.5,93.5C 114.206,99.1295 109.539,104.463 104.5,109.5C 99.7757,114.229 94.7757,118.563 89.5,122.5C 71.5,105.167 53.8333,87.5 36.5,69.5C 54.662,68.3379 72.9954,68.1712 91.5,69C 92.2438,70.0386 93.2438,70.5386 94.5,70.5 Z"/></g>
<g><path style="opacity:1" fill="#515587" d="M 397.5,87.5 C 416.5,87.5 435.5,87.5 454.5,87.5C 443.833,98.8333 432.833,109.833 421.5,120.5C 416.224,116.563 411.224,112.229 406.5,107.5C 401.805,102.474 397.139,97.4739 392.5,92.5C 392.5,92.1667 392.5,91.8333 392.5,91.5C 394.167,90.1667 395.833,88.8333 397.5,87.5 Z"/></g>
<g><path style="opacity:1" fill="#f9c99c" d="M 371.5,71.5 C 378.5,78.1667 385.5,84.8333 392.5,91.5C 392.5,91.8333 392.5,92.1667 392.5,92.5C 384.856,100.468 376.523,107.802 367.5,114.5C 366.674,111.515 365.341,108.849 363.5,106.5C 361.025,100.217 358.025,94.2166 354.5,88.5C 354.281,87.325 354.614,86.325 355.5,85.5C 361.175,81.1545 366.508,76.4878 371.5,71.5 Z"/></g>
<g><path style="opacity:1" fill="#f9cda8" d="M 392.5,92.5 C 397.139,97.4739 401.805,102.474 406.5,107.5C 395.5,118.167 384.5,128.833 373.5,139.5C 372.265,130.991 370.265,122.657 367.5,114.5C 376.523,107.802 384.856,100.468 392.5,92.5 Z"/></g>
<g><path style="opacity:1" fill="#f9cda5" d="M 125.5,87.5 C 125.859,89.371 126.859,90.871 128.5,92C 134.71,97.0492 141.043,101.883 147.5,106.5C 147.5,107.167 147.5,107.833 147.5,108.5C 145.213,112.152 143.379,116.152 142,120.5C 140.215,127.988 138.382,135.321 136.5,142.5C 126.554,130.886 115.887,119.886 104.5,109.5C 109.539,104.463 114.206,99.1295 118.5,93.5C 120.833,91.5 123.167,89.5 125.5,87.5 Z"/></g>
<g><path style="opacity:1" fill="#e75a37" d="M 406.5,107.5 C 411.224,112.229 416.224,116.563 421.5,120.5C 428.5,127.833 435.5,135.167 442.5,142.5C 438.211,147.961 433.711,153.294 429,158.5C 428.517,159.448 428.351,160.448 428.5,161.5C 421.946,157.056 414.946,153.389 407.5,150.5C 403.848,148.213 399.848,146.379 395.5,145C 387.86,143.318 380.527,141.485 373.5,139.5C 384.5,128.833 395.5,118.167 406.5,107.5 Z"/></g>
<g><path style="opacity:1" fill="#e75834" d="M 104.5,109.5 C 115.887,119.886 126.554,130.886 136.5,142.5C 125.572,144.143 114.905,146.81 104.5,150.5C 97.8604,143.194 90.8604,136.194 83.5,129.5C 85.5,127.167 87.5,124.833 89.5,122.5C 94.7757,118.563 99.7757,114.229 104.5,109.5 Z"/></g>
<g><path style="opacity:1" fill="#707db6" d="M 147.5,108.5 C 158.074,117.474 170.407,122.141 184.5,122.5C 189.834,121.85 195.168,121.684 200.5,122C 212.03,133.196 223.197,144.696 234,156.5C 234.667,158.5 234.667,160.5 234,162.5C 220.299,176.369 206.465,190.035 192.5,203.5C 182.5,193.167 172.5,182.833 162.5,172.5C 160.395,169.223 157.561,166.89 154,165.5C 141.3,169.344 128.467,172.678 115.5,175.5C 113.697,166.896 110.03,159.229 104.5,152.5C 104.5,151.833 104.5,151.167 104.5,150.5C 114.905,146.81 125.572,144.143 136.5,142.5C 138.382,135.321 140.215,127.988 142,120.5C 143.379,116.152 145.213,112.152 147.5,108.5 Z"/></g>
<g><path style="opacity:1" fill="#7c89c1" d="M 363.5,106.5 C 365.341,108.849 366.674,111.515 367.5,114.5C 370.265,122.657 372.265,130.991 373.5,139.5C 380.527,141.485 387.86,143.318 395.5,145C 399.848,146.379 403.848,148.213 407.5,150.5C 398.148,160.903 393.481,173.236 393.5,187.5C 394.003,192.844 394.17,198.177 394,203.5C 392.629,205.041 391.129,206.375 389.5,207.5C 389.586,206.504 389.252,205.671 388.5,205C 375.167,193.667 361.833,182.333 348.5,171C 347.177,170.184 346.511,169.017 346.5,167.5C 348.317,165.182 350.317,163.016 352.5,161C 347.015,147.201 341.681,133.368 336.5,119.5C 346.75,117.54 355.75,113.207 363.5,106.5 Z"/></g>
<g><path style="opacity:1" fill="#e96043" d="M 83.5,129.5 C 90.8604,136.194 97.8604,143.194 104.5,150.5C 104.5,151.167 104.5,151.833 104.5,152.5C 96.6154,155.109 89.282,158.776 82.5,163.5C 77.8698,158.369 73.0365,153.369 68,148.5C 67.5172,147.552 67.3505,146.552 67.5,145.5C 72.5,139.833 77.8333,134.5 83.5,129.5 Z"/></g>
<g><path style="opacity:1" fill="#e2ecf9" d="M 336.5,119.5 C 341.681,133.368 347.015,147.201 352.5,161C 350.317,163.016 348.317,165.182 346.5,167.5C 335.833,177.833 325.167,188.167 314.5,198.5C 301.027,184.605 287.36,170.939 273.5,157.5C 285.631,144.868 297.965,132.368 310.5,120C 319.199,120.526 327.866,120.359 336.5,119.5 Z"/></g>
<g><path style="opacity:1" fill="#ed6b53" d="M 67.5,145.5 C 67.3505,146.552 67.5172,147.552 68,148.5C 73.0365,153.369 77.8698,158.369 82.5,163.5C 78.1245,166.874 74.4578,170.874 71.5,175.5C 65.5278,169.193 59.5278,162.86 53.5,156.5C 58.5297,153.316 63.1964,149.649 67.5,145.5 Z"/></g>
<g><path style="opacity:1" fill="#ed6b53" d="M 442.5,142.5 C 448.803,149.157 456.136,154.157 464.5,157.5C 457.846,166.151 450.846,174.484 443.5,182.5C 440.437,174.106 435.437,167.106 428.5,161.5C 428.351,160.448 428.517,159.448 429,158.5C 433.711,153.294 438.211,147.961 442.5,142.5 Z"/></g>
<g><path style="opacity:1" fill="#dee7f9" d="M 273.5,157.5 C 287.36,170.939 301.027,184.605 314.5,198.5C 312.833,200.5 311.167,202.5 309.5,204.5C 305.167,208.167 301.167,212.167 297.5,216.5C 287.167,226.167 277.167,236.167 267.5,246.5C 252.585,233.923 238.252,220.59 224.5,206.5C 240.5,189.833 256.833,173.5 273.5,157.5 Z"/></g>
<g><path style="opacity:1" fill="#f27665" d="M 53.5,156.5 C 59.5278,162.86 65.5278,169.193 71.5,175.5C 67.483,192.837 57.1496,198.67 40.5,193C 30.205,183.031 29.8717,172.697 39.5,162C 44.0719,159.866 48.7385,158.033 53.5,156.5 Z"/></g>
<g><path style="opacity:1" fill="#f17463" d="M 464.5,157.5 C 475.619,161.048 480.119,168.715 478,180.5C 471.518,193.883 461.685,197.049 448.5,190C 445.8,188.143 444.134,185.643 443.5,182.5C 450.846,174.484 457.846,166.151 464.5,157.5 Z"/></g>
<g><path style="opacity:1" fill="#b1c2f4" d="M 162.5,172.5 C 156.071,191.794 149.071,210.794 141.5,229.5C 132.838,221.672 124.672,213.338 117,204.5C 116.873,199.514 117.04,194.514 117.5,189.5C 117.577,184.681 116.911,180.015 115.5,175.5C 128.467,172.678 141.3,169.344 154,165.5C 157.561,166.89 160.395,169.223 162.5,172.5 Z"/></g>
<g><path style="opacity:1" fill="#a9b9eb" d="M 162.5,172.5 C 172.5,182.833 182.5,193.167 192.5,203.5C 181.369,215.132 170.035,226.632 158.5,238C 156.305,239.373 153.971,239.706 151.5,239C 147.666,236.332 144.333,233.165 141.5,229.5C 149.071,210.794 156.071,191.794 162.5,172.5 Z"/></g>
<g><path style="opacity:1" fill="#818fc8" d="M 346.5,167.5 C 346.511,169.017 347.177,170.184 348.5,171C 361.833,182.333 375.167,193.667 388.5,205C 389.252,205.671 389.586,206.504 389.5,207.5C 378.167,219.5 366.5,231.167 354.5,242.5C 353.448,242.649 352.448,242.483 351.5,242C 337.603,229.264 323.603,216.764 309.5,204.5C 311.167,202.5 312.833,200.5 314.5,198.5C 325.167,188.167 335.833,177.833 346.5,167.5 Z"/></g>
<g><path style="opacity:1" fill="#8396c8" d="M 309.5,204.5 C 323.603,216.764 337.603,229.264 351.5,242C 352.448,242.483 353.448,242.649 354.5,242.5C 350.833,246.833 346.833,250.833 342.5,254.5C 327.5,241.833 312.5,229.167 297.5,216.5C 301.167,212.167 305.167,208.167 309.5,204.5 Z"/></g>
<g><path style="opacity:1" fill="#8896ce" d="M 297.5,216.5 C 312.5,229.167 327.5,241.833 342.5,254.5C 332.5,265.167 322.167,275.5 311.5,285.5C 295.908,273.578 280.908,260.911 266.5,247.5C 267.167,247.5 267.5,247.167 267.5,246.5C 277.167,236.167 287.167,226.167 297.5,216.5 Z"/></g>
<g><path style="opacity:1" fill="#d5e0f9" d="M 224.5,206.5 C 238.252,220.59 252.585,233.923 267.5,246.5C 267.5,247.167 267.167,247.5 266.5,247.5C 262.5,250.833 258.833,254.5 255.5,258.5C 247.5,267.167 239.167,275.5 230.5,283.5C 224.5,288.833 218.833,294.5 213.5,300.5C 212.167,301.5 210.833,302.5 209.5,303.5C 195.452,290.119 181.785,276.452 168.5,262.5C 186.833,243.5 205.5,224.833 224.5,206.5 Z"/></g>
<g><path style="opacity:1" fill="#899cce" d="M 266.5,247.5 C 280.908,260.911 295.908,273.578 311.5,285.5C 307.833,289.833 303.833,293.833 299.5,297.5C 299.141,295.629 298.141,294.129 296.5,293C 282.96,281.289 269.294,269.789 255.5,258.5C 258.833,254.5 262.5,250.833 266.5,247.5 Z"/></g>
<g><path style="opacity:1" fill="#8f9cd4" d="M 255.5,258.5 C 269.294,269.789 282.96,281.289 296.5,293C 298.141,294.129 299.141,295.629 299.5,297.5C 291.5,306.167 283.167,314.5 274.5,322.5C 259.143,310.134 244.476,297.134 230.5,283.5C 239.167,275.5 247.5,267.167 255.5,258.5 Z"/></g>
<g><path style="opacity:1" fill="#cfdaf9" d="M 168.5,262.5 C 181.785,276.452 195.452,290.119 209.5,303.5C 204.167,309.167 198.833,314.833 193.5,320.5C 185.833,327.5 178.5,334.833 171.5,342.5C 167.833,345.833 164.167,349.167 160.5,352.5C 147.414,338.078 133.414,324.744 118.5,312.5C 134.833,295.5 151.5,278.833 168.5,262.5 Z"/></g>
<g><path style="opacity:1" fill="#8fa2d4" d="M 362.5,284.5 C 348.149,300.183 333.482,315.517 318.5,330.5C 315.167,327.833 312.167,324.833 309.5,321.5C 322.631,307.868 335.965,294.368 349.5,281C 355.016,278.183 359.349,279.35 362.5,284.5 Z"/></g>
<g><path style="opacity:1" fill="#90a2d4" d="M 230.5,283.5 C 244.476,297.134 259.143,310.134 274.5,322.5C 269.167,328.5 263.5,334.167 257.5,339.5C 256.118,336.606 254.118,334.106 251.5,332C 240.98,323.236 230.646,314.236 220.5,305C 218.266,303.25 215.932,301.75 213.5,300.5C 218.833,294.5 224.5,288.833 230.5,283.5 Z"/></g>
<g><path style="opacity:1" fill="#95a1d9" d="M 362.5,284.5 C 367.167,288.5 371.5,292.833 375.5,297.5C 360.826,312.841 346.493,328.508 332.5,344.5C 331.5,343.833 330.5,343.167 329.5,342.5C 325.833,338.5 322.167,334.5 318.5,330.5C 333.482,315.517 348.149,300.183 362.5,284.5 Z"/></g>
<g><path style="opacity:1" fill="#96a7da" d="M 375.5,297.5 C 379.833,301.167 383.833,305.167 387.5,309.5C 375.638,324.538 362.804,338.872 349,352.5C 347.906,354.078 347.072,355.745 346.5,357.5C 341.807,353.139 337.141,348.805 332.5,344.5C 346.493,328.508 360.826,312.841 375.5,297.5 Z"/></g>
<g><path style="opacity:1" fill="#96a2da" d="M 213.5,300.5 C 215.932,301.75 218.266,303.25 220.5,305C 230.646,314.236 240.98,323.236 251.5,332C 254.118,334.106 256.118,336.606 257.5,339.5C 251.5,346.167 245.167,352.5 238.5,358.5C 237.448,358.649 236.448,358.483 235.5,358C 221.603,345.264 207.603,332.764 193.5,320.5C 198.833,314.833 204.167,309.167 209.5,303.5C 210.833,302.5 212.167,301.5 213.5,300.5 Z"/></g>
<g><path style="opacity:1" fill="#9ba8e0" d="M 387.5,309.5 C 391.167,312.5 394.5,315.833 397.5,319.5C 395.577,322.603 393.41,325.603 391,328.5C 378.962,341.036 367.128,353.703 355.5,366.5C 352.167,363.833 349.167,360.833 346.5,357.5C 347.072,355.745 347.906,354.078 349,352.5C 362.804,338.872 375.638,324.538 387.5,309.5 Z"/></g>
<g><path style="opacity:1" fill="#c8d3f9" d="M 118.5,312.5 C 133.414,324.744 147.414,338.078 160.5,352.5C 159.5,353.833 158.5,355.167 157.5,356.5C 142.806,370.527 128.473,384.86 114.5,399.5C 113.833,399.833 113.167,400.167 112.5,400.5C 105.004,393.172 97.3377,386.005 89.5,379C 82.9043,372.91 76.9043,366.41 71.5,359.5C 86.8333,343.5 102.5,327.833 118.5,312.5 Z"/></g>
<g><path style="opacity:1" fill="#9daee0" d="M 397.5,319.5 C 404.833,326.167 411.833,333.167 418.5,340.5C 404.869,356.133 390.869,371.466 376.5,386.5C 368.815,380.48 361.815,373.813 355.5,366.5C 367.128,353.703 378.962,341.036 391,328.5C 393.41,325.603 395.577,322.603 397.5,319.5 Z"/></g>
<g><path style="opacity:1" fill="#96a8da" d="M 193.5,320.5 C 207.603,332.764 221.603,345.264 235.5,358C 236.448,358.483 237.448,358.649 238.5,358.5C 231.5,366.167 224.167,373.5 216.5,380.5C 202.73,368.57 189.063,356.403 175.5,344C 174.255,343.209 172.922,342.709 171.5,342.5C 178.5,334.833 185.833,327.5 193.5,320.5 Z"/></g>
<g><path style="opacity:1" fill="#7784bd" d="M 309.5,321.5 C 312.167,324.833 315.167,327.833 318.5,330.5C 322.167,334.5 325.833,338.5 329.5,342.5C 323.602,361.203 316.935,379.536 309.5,397.5C 298.202,386.702 287.035,375.702 276,364.5C 274,361.167 274,357.833 276,354.5C 287.035,343.298 298.202,332.298 309.5,321.5 Z"/></g>
<g><path style="opacity:1" fill="#a1aee6" d="M 418.5,340.5 C 420.833,342.167 422.833,344.167 424.5,346.5C 412.241,360.93 399.408,374.93 386,388.5C 384.906,390.078 384.072,391.745 383.5,393.5C 380.833,391.5 378.5,389.167 376.5,386.5C 390.869,371.466 404.869,356.133 418.5,340.5 Z"/></g>
<g><path style="opacity:1" fill="#9ca8e1" d="M 171.5,342.5 C 172.922,342.709 174.255,343.209 175.5,344C 189.063,356.403 202.73,368.57 216.5,380.5C 211.5,386.167 206.167,391.5 200.5,396.5C 188.324,384.827 175.657,373.66 162.5,363C 160.21,361.223 158.543,359.056 157.5,356.5C 158.5,355.167 159.5,353.833 160.5,352.5C 164.167,349.167 167.833,345.833 171.5,342.5 Z"/></g>
<g><path style="opacity:1" fill="#707db5" d="M 329.5,342.5 C 330.5,343.167 331.5,343.833 332.5,344.5C 337.141,348.805 341.807,353.139 346.5,357.5C 349.167,360.833 352.167,363.833 355.5,366.5C 361.815,373.813 368.815,380.48 376.5,386.5C 378.5,389.167 380.833,391.5 383.5,393.5C 398.553,408.853 414.22,423.52 430.5,437.5C 446.167,452.833 461.833,468.167 477.5,483.5C 449.946,482.272 422.613,479.105 395.5,474C 391.016,473.129 386.683,471.796 382.5,470C 357.66,446.327 333.327,422.16 309.5,397.5C 316.935,379.536 323.602,361.203 329.5,342.5 Z"/></g>
<g><path style="opacity:1" fill="#c2cdf9" d="M 71.5,359.5 C 76.9043,366.41 82.9043,372.91 89.5,379C 97.3377,386.005 105.004,393.172 112.5,400.5C 97.1701,417.497 81.1701,433.83 64.5,449.5C 55.8006,440.799 46.8006,432.466 37.5,424.5C 38.7821,415.474 40.2821,406.474 42,397.5C 42.7495,392.5 44.4162,387.833 47,383.5C 55.035,375.298 63.2017,367.298 71.5,359.5 Z"/></g>
<g><path style="opacity:1" fill="#a0afe2" d="M 157.5,356.5 C 158.543,359.056 160.21,361.223 162.5,363C 175.657,373.66 188.324,384.827 200.5,396.5C 186.5,411.167 172.167,425.5 157.5,439.5C 157.489,437.983 156.823,436.816 155.5,436C 141.271,424.259 127.604,412.093 114.5,399.5C 128.473,384.86 142.806,370.527 157.5,356.5 Z"/></g>
<g><path style="opacity:1" fill="#aab8eb" d="M 424.5,346.5 C 437.798,359.298 450.965,372.298 464,385.5C 466.576,389.475 468.076,393.808 468.5,398.5C 467.778,398.082 467.278,397.416 467,396.5C 456.667,407.5 446.333,418.5 436,429.5C 433.92,432.065 432.087,434.732 430.5,437.5C 414.22,423.52 398.553,408.853 383.5,393.5C 384.072,391.745 384.906,390.078 386,388.5C 399.408,374.93 412.241,360.93 424.5,346.5 Z"/></g>
<g><path style="opacity:1" fill="#b1c2f3" d="M 468.5,398.5 C 473.917,426.246 477.583,454.246 479.5,482.5C 479.043,483.298 478.376,483.631 477.5,483.5C 461.833,468.167 446.167,452.833 430.5,437.5C 432.087,434.732 433.92,432.065 436,429.5C 446.333,418.5 456.667,407.5 467,396.5C 467.278,397.416 467.778,398.082 468.5,398.5 Z"/></g>
<g><path style="opacity:1" fill="#a7b6e9" d="M 114.5,399.5 C 127.604,412.093 141.271,424.259 155.5,436C 156.823,436.816 157.489,437.983 157.5,439.5C 149.036,448.465 140.369,457.298 131.5,466C 129.33,467.586 126.996,468.92 124.5,470C 94.1062,476.299 63.4395,480.466 32.5,482.5C 31.2241,481.386 31.2241,480.386 32.5,479.5C 32.4346,479.938 32.6012,480.272 33,480.5C 43.3951,469.937 53.8951,459.604 64.5,449.5C 81.1701,433.83 97.1701,417.497 112.5,400.5C 113.167,400.167 113.833,399.833 114.5,399.5 Z"/></g>
<g><path style="opacity:1" fill="#bcc7f9" d="M 37.5,424.5 C 46.8006,432.466 55.8006,440.799 64.5,449.5C 53.8951,459.604 43.3951,469.937 33,480.5C 32.6012,480.272 32.4346,479.938 32.5,479.5C 33.1762,461.072 34.8428,442.739 37.5,424.5 Z"/></g>
</svg>
