<?xml version="1.0" encoding="UTF-8"?>
<!DOCTYPE svg PUBLIC "-//W3C//DTD SVG 1.1//EN" "http://www.w3.org/Graphics/SVG/1.1/DTD/svg11.dtd">
<svg xmlns="http://www.w3.org/2000/svg" version="1.1" width="512px" height="512px" style="shape-rendering:geometricPrecision; text-rendering:geometricPrecision; image-rendering:optimizeQuality; fill-rule:evenodd; clip-rule:evenodd" xmlns:xlink="http://www.w3.org/1999/xlink">
<g><path style="opacity:1" fill="#e5ecfa" d="M 26.5,24.5 C 44.361,35.2657 62.6943,45.2657 81.5,54.5C 80.448,54.3505 79.448,54.5172 78.5,55C 75.9467,59.6733 72.6134,63.5066 68.5,66.5C 54.1667,52.8333 40.1667,38.8333 26.5,24.5 Z"/></g>
<g><path style="opacity:1" fill="#f3516f" d="M 280.5,61.5 C 264.406,63.4621 248.073,64.1288 231.5,63.5C 231.737,62.209 231.404,61.209 230.5,60.5C 230.335,56.8183 230.501,53.1516 231,49.5C 231.792,47.4127 232.959,45.5793 234.5,44C 248.5,39.3333 262.5,39.3333 276.5,44C 278.041,45.5793 279.208,47.4127 280,49.5C 280.499,53.4862 280.666,57.4862 280.5,61.5 Z"/></g>
<g><path style="opacity:1" fill="#e1e9f9" d="M 485.5,25.5 C 467.884,41.4482 450.884,58.1149 434.5,75.5C 430.167,79.5 425.833,83.5 421.5,87.5C 414.862,79.8586 408.196,72.192 401.5,64.5C 431.104,54.0307 459.104,40.364 485.5,23.5C 486.463,23.9698 486.463,24.6365 485.5,25.5 Z"/></g>
<g><path style="opacity:1" fill="#d8e2f9" d="M 81.5,54.5 C 93.8676,59.6228 106.534,63.9561 119.5,67.5C 112.167,76.8333 104.833,86.1667 97.5,95.5C 96.5,94.8333 95.5,94.1667 94.5,93.5C 89.5,87.8333 84.1667,82.5 78.5,77.5C 75.1667,73.8333 71.8333,70.1667 68.5,66.5C 72.6134,63.5066 75.9467,59.6733 78.5,55C 79.448,54.5172 80.448,54.3505 81.5,54.5 Z"/></g>
<g><path style="opacity:1" fill="#98a7dc" d="M 485.5,25.5 C 472.593,45.98 461.26,67.3133 451.5,89.5C 445.241,85.5394 439.575,80.8727 434.5,75.5C 450.884,58.1149 467.884,41.4482 485.5,25.5 Z"/></g>
<g><path style="opacity:1" fill="#d5e0f9" d="M 401.5,64.5 C 408.196,72.192 414.862,79.8586 421.5,87.5C 417.167,92.5 412.5,97.1667 407.5,101.5C 399.798,93.7999 392.465,85.7999 385.5,77.5C 385.07,74.1379 386.07,71.3046 388.5,69C 392.808,67.3421 397.142,65.8421 401.5,64.5 Z"/></g>
<g><path style="opacity:1" fill="#ccd7f9" d="M 119.5,67.5 C 122.112,68.2775 123.945,69.9441 125,72.5C 127.068,86.2034 131.235,99.2034 137.5,111.5C 132.72,114.392 127.72,117.059 122.5,119.5C 118.189,116.52 114.189,113.187 110.5,109.5C 106.167,104.833 101.833,100.167 97.5,95.5C 104.833,86.1667 112.167,76.8333 119.5,67.5 Z"/></g>
<g><path style="opacity:1" fill="#a6b5e8" d="M 26.5,24.5 C 40.1667,38.8333 54.1667,52.8333 68.5,66.5C 71.8333,70.1667 75.1667,73.8333 78.5,77.5C 72.5,82.5 66.5,87.5 60.5,92.5C 50.4542,68.5723 38.4542,45.7389 24.5,24C 25.4368,23.3083 26.1034,23.475 26.5,24.5 Z"/></g>
<g><path style="opacity:1" fill="#96a5da" d="M 78.5,77.5 C 84.1667,82.5 89.5,87.8333 94.5,93.5C 84.9004,100.431 76.2337,108.431 68.5,117.5C 66.2316,109.028 63.5649,100.695 60.5,92.5C 66.5,87.5 72.5,82.5 78.5,77.5 Z"/></g>
<g><path style="opacity:1" fill="#ccd7f9" d="M 385.5,77.5 C 392.465,85.7999 399.798,93.7999 407.5,101.5C 405.833,103.5 404.167,105.5 402.5,107.5C 398.157,111.676 393.657,115.676 389,119.5C 383.199,117.346 377.365,115.346 371.5,113.5C 378.325,102.362 382.992,90.3615 385.5,77.5 Z"/></g>
<g><path style="opacity:1" fill="#8795cc" d="M 434.5,75.5 C 439.575,80.8727 445.241,85.5394 451.5,89.5C 447.905,99.7838 444.405,110.117 441,120.5C 439.681,122.487 437.848,123.654 435.5,124C 431.122,124.679 426.789,125.512 422.5,126.5C 423.091,125.849 423.757,125.182 424.5,124.5C 417.148,118.809 409.815,113.143 402.5,107.5C 404.167,105.5 405.833,103.5 407.5,101.5C 412.5,97.1667 417.167,92.5 421.5,87.5C 425.833,83.5 430.167,79.5 434.5,75.5 Z"/></g>
<g><path style="opacity:1" fill="#ed466c" d="M 230.5,60.5 C 231.404,61.209 231.737,62.209 231.5,63.5C 248.073,64.1288 264.406,63.4621 280.5,61.5C 279.352,80.5829 277.685,99.5829 275.5,118.5C 262.167,118.5 248.833,118.5 235.5,118.5C 233.225,99.2616 231.558,79.9283 230.5,60.5 Z"/></g>
<g><path style="opacity:1" fill="#8998ce" d="M 94.5,93.5 C 95.5,94.1667 96.5,94.8333 97.5,95.5C 101.833,100.167 106.167,104.833 110.5,109.5C 104.806,115.86 98.8063,121.86 92.5,127.5C 85.8595,125.938 79.1928,124.438 72.5,123C 70.5612,121.568 69.2279,119.735 68.5,117.5C 76.2337,108.431 84.9004,100.431 94.5,93.5 Z"/></g>
<g><path style="opacity:1" fill="#7583bc" d="M 402.5,107.5 C 409.815,113.143 417.148,118.809 424.5,124.5C 423.757,125.182 423.091,125.849 422.5,126.5C 409.559,130.137 397.892,136.137 387.5,144.5C 386.883,144.611 386.383,144.944 386,145.5C 377.578,138.58 370.078,130.913 363.5,122.5C 366.8,120.192 369.467,117.192 371.5,113.5C 377.365,115.346 383.199,117.346 389,119.5C 393.657,115.676 398.157,111.676 402.5,107.5 Z"/></g>
<g><path style="opacity:1" fill="#7b89c1" d="M 110.5,109.5 C 114.189,113.187 118.189,116.52 122.5,119.5C 127.72,117.059 132.72,114.392 137.5,111.5C 140.261,115.35 143.261,119.017 146.5,122.5C 140.131,131.203 132.464,138.536 123.5,144.5C 114.226,137.027 103.893,131.361 92.5,127.5C 98.8063,121.86 104.806,115.86 110.5,109.5 Z"/></g>
<g><path style="opacity:1" fill="#e53a67" d="M 235.5,118.5 C 248.833,118.5 262.167,118.5 275.5,118.5C 274.998,126.515 274.331,134.515 273.5,142.5C 271.267,154.663 269.267,166.996 267.5,179.5C 266.173,186.781 265.173,194.114 264.5,201.5C 262.235,208.799 257.568,210.966 250.5,208C 248.372,206.208 247.039,204.042 246.5,201.5C 245.827,194.118 244.827,186.785 243.5,179.5C 241.728,166.997 239.728,154.664 237.5,142.5C 236.669,134.515 236.002,126.515 235.5,118.5 Z"/></g>
<g><path style="opacity:1" fill="#767dad" d="M 188.5,164.5 C 183.156,168.845 178.489,173.845 174.5,179.5C 172.53,181.647 170.697,183.98 169,186.5C 168.329,187.252 167.496,187.586 166.5,187.5C 159.369,179.868 152.036,172.368 144.5,165C 126.443,169.443 119.443,162.609 123.5,144.5C 132.464,138.536 140.131,131.203 146.5,122.5C 158.113,118.14 165.446,121.973 168.5,134C 168.254,137.008 167.254,139.674 165.5,142C 173.035,149.702 180.702,157.202 188.5,164.5 Z"/></g>
<g><path style="opacity:1" fill="#767da8" d="M 363.5,122.5 C 370.078,130.913 377.578,138.58 386,145.5C 386.383,144.944 386.883,144.611 387.5,144.5C 391.55,162.617 384.55,169.45 366.5,165C 358.964,172.368 351.631,179.868 344.5,187.5C 343.761,187.631 343.094,187.464 342.5,187C 340.636,184.312 338.636,181.812 336.5,179.5C 332.511,173.845 327.844,168.845 322.5,164.5C 330.298,157.202 337.965,149.702 345.5,142C 340.744,132.703 343.077,125.703 352.5,121C 356.477,120.121 360.144,120.621 363.5,122.5 Z"/></g>
<g><path style="opacity:1" fill="#f9c795" d="M 237.5,142.5 C 239.728,154.664 241.728,166.997 243.5,179.5C 220.5,179.5 197.5,179.5 174.5,179.5C 178.489,173.845 183.156,168.845 188.5,164.5C 202.896,153.141 219.229,145.807 237.5,142.5 Z"/></g>
<g><path style="opacity:1" fill="#f9c795" d="M 273.5,142.5 C 291.771,145.807 308.104,153.141 322.5,164.5C 327.844,168.845 332.511,173.845 336.5,179.5C 313.5,179.5 290.5,179.5 267.5,179.5C 269.267,166.996 271.267,154.663 273.5,142.5 Z"/></g>
<g><path style="opacity:1" fill="#f9c78f" d="M 174.5,179.5 C 197.5,179.5 220.5,179.5 243.5,179.5C 244.827,186.785 245.827,194.118 246.5,201.5C 217.194,201.515 188.194,201.515 159.5,201.5C 161.833,196.833 164.167,192.167 166.5,187.5C 167.496,187.586 168.329,187.252 169,186.5C 170.697,183.98 172.53,181.647 174.5,179.5 Z"/></g>
<g><path style="opacity:1" fill="#f9c78f" d="M 267.5,179.5 C 290.5,179.5 313.5,179.5 336.5,179.5C 338.636,181.812 340.636,184.312 342.5,187C 343.094,187.464 343.761,187.631 344.5,187.5C 346.833,192.167 349.167,196.833 351.5,201.5C 322.5,201.5 293.5,201.5 264.5,201.5C 265.173,194.114 266.173,186.781 267.5,179.5 Z"/></g>
<g><path style="opacity:1" fill="#fac189" d="M 159.5,201.5 C 188.194,201.515 217.194,201.515 246.5,201.5C 247.039,204.042 248.372,206.208 250.5,208C 257.568,210.966 262.235,208.799 264.5,201.5C 293.5,201.5 322.5,201.5 351.5,201.5C 357.933,214.13 362.6,227.463 365.5,241.5C 292.238,242.497 218.904,242.83 145.5,242.5C 148.202,228.057 152.869,214.391 159.5,201.5 Z"/></g>
<g><path style="opacity:1" fill="#f9ba82" d="M 365.5,241.5 C 367.854,255.397 369.188,269.397 369.5,283.5C 357.914,282.522 346.247,282.189 334.5,282.5C 336.76,273.279 337.094,263.946 335.5,254.5C 317.272,257.188 300.272,263.355 284.5,273C 280.025,275.314 276.358,278.48 273.5,282.5C 261.5,282.5 249.5,282.5 237.5,282.5C 230.145,274.969 221.479,269.136 211.5,265C 199.952,259.946 187.952,256.446 175.5,254.5C 173.906,263.946 174.24,273.279 176.5,282.5C 164.833,282.5 153.167,282.5 141.5,282.5C 141.778,269.053 143.111,255.719 145.5,242.5C 218.904,242.83 292.238,242.497 365.5,241.5 Z"/></g>
<g><path style="opacity:1" fill="#e26464" d="M 237.5,282.5 C 239.942,288.237 240.942,294.237 240.5,300.5C 239.596,299.791 239.263,298.791 239.5,297.5C 222.658,297.17 205.992,297.503 189.5,298.5C 184.688,293.533 180.354,288.2 176.5,282.5C 174.24,273.279 173.906,263.946 175.5,254.5C 187.952,256.446 199.952,259.946 211.5,265C 221.479,269.136 230.145,274.969 237.5,282.5 Z"/></g>
<g><path style="opacity:1" fill="#e26464" d="M 334.5,282.5 C 330.646,288.2 326.312,293.533 321.5,298.5C 305.008,297.503 288.342,297.17 271.5,297.5C 271.737,298.791 271.404,299.791 270.5,300.5C 270.059,294.226 271.059,288.226 273.5,282.5C 276.358,278.48 280.025,275.314 284.5,273C 300.272,263.355 317.272,257.188 335.5,254.5C 337.094,263.946 336.76,273.279 334.5,282.5 Z"/></g>
<g><path style="opacity:1" fill="#f9b47a" d="M 141.5,282.5 C 153.167,282.5 164.833,282.5 176.5,282.5C 180.354,288.2 184.688,293.533 189.5,298.5C 197.533,306.535 205.867,314.202 214.5,321.5C 190.264,322.827 165.931,322.827 141.5,321.5C 141.704,308.556 141.704,295.556 141.5,282.5 Z"/></g>
<g><path style="opacity:1" fill="#f9b37a" d="M 237.5,282.5 C 249.5,282.5 261.5,282.5 273.5,282.5C 271.059,288.226 270.059,294.226 270.5,300.5C 270.204,309.572 269.371,318.572 268,327.5C 259.667,343.5 251.333,343.5 243,327.5C 240.74,318.663 239.907,309.663 240.5,300.5C 240.942,294.237 239.942,288.237 237.5,282.5 Z"/></g>
<g><path style="opacity:1" fill="#f9b47a" d="M 334.5,282.5 C 346.247,282.189 357.914,282.522 369.5,283.5C 369.244,296.878 369.244,310.211 369.5,323.5C 345.069,322.843 320.736,322.176 296.5,321.5C 305.133,314.202 313.467,306.535 321.5,298.5C 326.312,293.533 330.646,288.2 334.5,282.5 Z"/></g>
<g><path style="opacity:1" fill="#f9ae71" d="M 141.5,321.5 C 165.931,322.827 190.264,322.827 214.5,321.5C 217.973,325.103 219.14,329.436 218,334.5C 215.548,340.737 212.548,346.737 209,352.5C 206.865,358.313 205.698,364.313 205.5,370.5C 180.167,370.5 154.833,370.5 129.5,370.5C 133.261,359.295 136.761,347.961 140,336.5C 141.05,331.552 141.55,326.552 141.5,321.5 Z"/></g>
<g><path style="opacity:1" fill="#d75a5f" d="M 240.5,300.5 C 239.907,309.663 240.74,318.663 243,327.5C 251.333,343.5 259.667,343.5 268,327.5C 269.371,318.572 270.204,309.572 270.5,300.5C 271.404,299.791 271.737,298.791 271.5,297.5C 288.342,297.17 305.008,297.503 321.5,298.5C 313.467,306.535 305.133,314.202 296.5,321.5C 293.027,325.103 291.86,329.436 293,334.5C 295.452,340.737 298.452,346.737 302,352.5C 304.135,358.313 305.302,364.313 305.5,370.5C 306.551,373.656 306.551,376.656 305.5,379.5C 272.167,366.167 238.833,366.167 205.5,379.5C 204.449,376.656 204.449,373.656 205.5,370.5C 205.698,364.313 206.865,358.313 209,352.5C 212.548,346.737 215.548,340.737 218,334.5C 219.14,329.436 217.973,325.103 214.5,321.5C 205.867,314.202 197.533,306.535 189.5,298.5C 205.992,297.503 222.658,297.17 239.5,297.5C 239.263,298.791 239.596,299.791 240.5,300.5 Z"/></g>
<g><path style="opacity:1" fill="#f9ae71" d="M 296.5,321.5 C 320.736,322.176 345.069,322.843 369.5,323.5C 369.801,330.637 370.967,337.637 373,344.5C 376.141,352.757 378.974,361.09 381.5,369.5C 356.241,370.49 330.908,370.823 305.5,370.5C 305.302,364.313 304.135,358.313 302,352.5C 298.452,346.737 295.452,340.737 293,334.5C 291.86,329.436 293.027,325.103 296.5,321.5 Z"/></g>
<g><path style="opacity:1" fill="#faa869" d="M 129.5,370.5 C 154.833,370.5 180.167,370.5 205.5,370.5C 204.449,373.656 204.449,376.656 205.5,379.5C 204.864,389.728 205.198,400.061 206.5,410.5C 189.991,410.17 173.658,410.504 157.5,411.5C 146.274,401.78 137.108,390.447 130,377.5C 129.503,375.19 129.337,372.857 129.5,370.5 Z"/></g>
<g><path style="opacity:1" fill="#faa869" d="M 381.5,369.5 C 382.034,374.901 380.867,379.901 378,384.5C 370.851,393.807 363.018,402.473 354.5,410.5C 337.833,410.5 321.167,410.5 304.5,410.5C 305.802,400.061 306.136,389.728 305.5,379.5C 306.551,376.656 306.551,373.656 305.5,370.5C 330.908,370.823 356.241,370.49 381.5,369.5 Z"/></g>
<g><path style="opacity:1" fill="#5d6495" d="M 86.5,444.5 C 79.8049,436.804 72.4715,429.804 64.5,423.5C 77.6314,409.868 90.9648,396.368 104.5,383C 105.872,382.598 107.205,382.098 108.5,381.5C 109.795,382.098 111.128,382.598 112.5,383C 114.989,389.811 118.156,396.311 122,402.5C 122.667,404.833 122.667,407.167 122,409.5C 110.298,421.369 98.4651,433.035 86.5,444.5 Z"/></g>
<g><path style="opacity:1" fill="#5f6596" d="M 465.5,442.5 C 458.167,449.5 450.833,456.5 443.5,463.5C 425.201,445.702 407.035,427.702 389,409.5C 388.333,407.167 388.333,404.833 389,402.5C 392.844,396.311 396.011,389.811 398.5,383C 399.872,382.598 401.205,382.098 402.5,381.5C 403.795,382.098 405.128,382.598 406.5,383C 426.368,402.701 446.035,422.535 465.5,442.5 Z"/></g>
<g><path style="opacity:1" fill="#faa263" d="M 206.5,410.5 C 208.124,416.407 208.624,422.407 208,428.5C 204.345,435.738 198.512,438.238 190.5,436C 178.362,429.275 167.362,421.108 157.5,411.5C 173.658,410.504 189.991,410.17 206.5,410.5 Z"/></g>
<g><path style="opacity:1" fill="#faa263" d="M 304.5,410.5 C 321.167,410.5 337.833,410.5 354.5,410.5C 345.157,420.336 334.491,428.503 322.5,435C 313.883,438.625 307.383,436.458 303,428.5C 302.376,422.407 302.876,416.407 304.5,410.5 Z"/></g>
<g><path style="opacity:1" fill="#5b628f" d="M 64.5,423.5 C 72.4715,429.804 79.8049,436.804 86.5,444.5C 75.6382,456.529 63.9715,467.696 51.5,478C 46.1667,481 40.8333,484 35.5,487C 28.0874,488.964 23.4208,486.297 21.5,479C 25.5821,467.257 31.7488,456.757 40,447.5C 48.035,439.298 56.2017,431.298 64.5,423.5 Z"/></g>
<g><path style="opacity:1" fill="#5d638f" d="M 465.5,442.5 C 476.257,452.603 484.257,464.603 489.5,478.5C 488.687,484.313 485.354,487.313 479.5,487.5C 465.17,483.001 453.17,475.001 443.5,463.5C 450.833,456.5 458.167,449.5 465.5,442.5 Z"/></g>
</svg>
