<?xml version="1.0" encoding="UTF-8"?>
<!DOCTYPE svg PUBLIC "-//W3C//DTD SVG 1.1//EN" "http://www.w3.org/Graphics/SVG/1.1/DTD/svg11.dtd">
<svg xmlns="http://www.w3.org/2000/svg" version="1.1" width="512px" height="512px" style="shape-rendering:geometricPrecision; text-rendering:geometricPrecision; image-rendering:optimizeQuality; fill-rule:evenodd; clip-rule:evenodd" xmlns:xlink="http://www.w3.org/1999/xlink">
<g><path style="opacity:1" fill="#b083c1" d="M 230.5,42.5 C 189.172,95.3324 179.339,153.666 201,217.5C 202.226,220.952 203.726,224.285 205.5,227.5C 205.957,228.298 206.624,228.631 207.5,228.5C 205.167,233.167 202.833,237.833 200.5,242.5C 199.624,242.631 198.957,242.298 198.5,241.5C 180.49,206.622 174.156,169.788 179.5,131C 178.906,130.536 178.239,130.369 177.5,130.5C 184.679,118.145 191.345,105.478 197.5,92.5C 195.691,87.0063 191.858,84.3396 186,84.5C 182.183,84.6558 178.683,85.8224 175.5,88C 172.621,90.3852 169.621,92.5518 166.5,94.5C 170.001,82.3214 174.668,70.6547 180.5,59.5C 193.614,50.4458 207.948,43.7791 223.5,39.5C 226.138,39.9301 228.471,40.9301 230.5,42.5 Z"/></g>
<g><path style="opacity:1" fill="#ae7dc0" d="M 230.5,42.5 C 233.523,44.5333 236.523,46.5333 239.5,48.5C 198.377,99.6936 189.377,156.027 212.5,217.5C 211.105,221.29 209.438,224.957 207.5,228.5C 206.624,228.631 205.957,228.298 205.5,227.5C 203.726,224.285 202.226,220.952 201,217.5C 179.339,153.666 189.172,95.3324 230.5,42.5 Z"/></g>
<g><path style="opacity:1" fill="#a87dbb" d="M 239.5,48.5 C 246.869,52.8481 254.202,57.1815 261.5,61.5C 228.103,99.1891 217.77,142.189 230.5,190.5C 224.467,199.523 218.467,208.523 212.5,217.5C 189.377,156.027 198.377,99.6936 239.5,48.5 Z"/></g>
<g><path style="opacity:1" fill="#ba83c8" d="M 180.5,59.5 C 174.668,70.6547 170.001,82.3214 166.5,94.5C 158,104.153 153.5,115.486 153,128.5C 149.513,130.164 147.013,129.164 145.5,125.5C 148.055,107.63 152.722,89.9637 159.5,72.5C 166.252,67.7436 173.252,63.4103 180.5,59.5 Z"/></g>
<g><path style="opacity:1" fill="#a27cba" d="M 261.5,61.5 C 267.333,64.2489 272.999,67.2489 278.5,70.5C 251.622,98.7998 240.289,132.466 244.5,171.5C 239.833,177.833 235.167,184.167 230.5,190.5C 217.77,142.189 228.103,99.1891 261.5,61.5 Z"/></g>
<g><path style="opacity:1" fill="#9c75b4" d="M 278.5,70.5 C 286.358,73.9301 294.024,77.5968 301.5,81.5C 301.611,82.1174 301.944,82.6174 302.5,83C 280.265,101.3 269.265,124.8 269.5,153.5C 268.07,153.579 266.736,153.246 265.5,152.5C 264.205,153.098 262.872,153.598 261.5,154C 255.63,159.702 249.964,165.535 244.5,171.5C 240.289,132.466 251.622,98.7998 278.5,70.5 Z"/></g>
<g><path style="opacity:1" fill="#bb89c8" d="M 159.5,72.5 C 152.722,89.9637 148.055,107.63 145.5,125.5C 141.082,122.91 138.415,119.077 137.5,114C 138.487,104.802 139.654,95.6357 141,86.5C 147.043,81.6171 153.21,76.9504 159.5,72.5 Z"/></g>
<g><path style="opacity:1" fill="#9675b4" d="M 301.5,81.5 C 309.14,84.3228 316.473,87.6562 323.5,91.5C 323.611,92.1174 323.944,92.6174 324.5,93C 300.556,109.381 288.556,132.215 288.5,161.5C 282.282,158.558 275.949,155.891 269.5,153.5C 269.265,124.8 280.265,101.3 302.5,83C 301.944,82.6174 301.611,82.1174 301.5,81.5 Z"/></g>
<g><path style="opacity:1" fill="#9070af" d="M 404.5,216.5 C 399.777,218.359 395.11,220.526 390.5,223C 369.098,231.193 348.265,230.027 328,219.5C 327.536,220.094 327.369,220.761 327.5,221.5C 326.35,212.98 325.184,204.313 324,195.5C 323.106,189.588 321.439,183.922 319,178.5C 309.371,171.934 299.204,166.267 288.5,161.5C 288.556,132.215 300.556,109.381 324.5,93C 323.944,92.6174 323.611,92.1174 323.5,91.5C 338.387,96.7923 353.054,102.459 367.5,108.5C 339.938,107.856 322.772,120.856 316,147.5C 314.354,180.352 329.854,198.686 362.5,202.5C 391.167,199.833 406.833,184.167 409.5,155.5C 408.81,137.775 401.143,124.108 386.5,114.5C 388.655,114.628 390.655,114.128 392.5,113C 400.167,104.667 407.833,96.3333 415.5,88C 417.112,87.2797 418.612,87.4464 420,88.5C 418.44,131.586 413.274,174.253 404.5,216.5 Z"/></g>
<g><path style="opacity:1" fill="#8970ae" d="M 367.5,108.5 C 373.971,110.102 380.304,112.102 386.5,114.5C 401.143,124.108 408.81,137.775 409.5,155.5C 406.833,184.167 391.167,199.833 362.5,202.5C 329.854,198.686 314.354,180.352 316,147.5C 322.772,120.856 339.938,107.856 367.5,108.5 Z"/></g>
<g><path style="opacity:1" fill="#9775b4" d="M 446.5,123.5 C 457.475,122.643 462.641,127.643 462,138.5C 457.017,148.278 450.017,149.945 441,143.5C 436.392,134.906 438.226,128.239 446.5,123.5 Z"/></g>
<g><path style="opacity:1" fill="#b583c2" d="M 177.5,130.5 C 178.239,130.369 178.906,130.536 179.5,131C 174.156,169.788 180.49,206.622 198.5,241.5C 198.957,242.298 199.624,242.631 200.5,242.5C 196.331,252.838 192.164,263.171 188,273.5C 186.048,275.894 183.548,277.394 180.5,278C 174.554,279.658 168.554,280.658 162.5,281C 161.446,279.612 161.28,278.112 162,276.5C 174.725,262.658 180.058,246.325 178,227.5C 175.468,223.986 172.635,223.653 169.5,226.5C 162.845,206.88 158.511,186.88 156.5,166.5C 163.5,154.5 170.5,142.5 177.5,130.5 Z"/></g>
<g><path style="opacity:1" fill="#ba83c8" d="M 156.5,166.5 C 158.511,186.88 162.845,206.88 169.5,226.5C 165.5,228.833 161.5,231.167 157.5,233.5C 151.778,217.61 147.778,201.277 145.5,184.5C 148.668,178.158 152.335,172.158 156.5,166.5 Z"/></g>
<g><path style="opacity:1" fill="#9d75b5" d="M 466.5,211.5 C 454.206,236.289 435.206,254.122 409.5,265C 363.583,282.347 321.583,275.68 283.5,245C 281.627,243.296 279.96,241.463 278.5,239.5C 290.253,244.549 300.919,251.382 310.5,260C 312.971,260.706 315.305,260.373 317.5,259C 320.333,256.167 323.167,253.333 326,250.5C 327.202,248.323 327.702,245.989 327.5,243.5C 350.834,251.5 374.167,251.5 397.5,243.5C 398.462,247.146 400.795,248.313 404.5,247C 417.1,243.028 428.933,237.528 440,230.5C 445.346,213.775 449.679,196.775 453,179.5C 456.049,176.599 458.049,177.266 459,181.5C 461.819,191.441 464.319,201.441 466.5,211.5 Z"/></g>
<g><path style="opacity:1" fill="#c08ac9" d="M 145.5,184.5 C 147.778,201.277 151.778,217.61 157.5,233.5C 144.397,241.269 134.397,251.936 127.5,265.5C 122.572,254.049 118.239,242.382 114.5,230.5C 124.846,215.13 135.18,199.796 145.5,184.5 Z"/></g>
<g><path style="opacity:1" fill="#d2a7d8" d="M 71.5,206.5 C 74.364,217.461 77.364,228.461 80.5,239.5C 76.0085,245.136 71.5085,250.803 67,256.5C 63.2511,260.756 59.0844,264.422 54.5,267.5C 52.8927,267.363 51.5594,266.696 50.5,265.5C 42.416,250.833 38.916,235.166 40,218.5C 44.6826,209.486 51.6826,202.819 61,198.5C 64.3656,201.368 67.8656,204.035 71.5,206.5 Z"/></g>
<g><path style="opacity:1" fill="#ca99d1" d="M 80.5,239.5 C 77.364,228.461 74.364,217.461 71.5,206.5C 78.1815,206.331 84.1815,204.164 89.5,200C 100.46,191.376 111.126,182.376 121.5,173C 123.607,172.146 124.941,172.812 125.5,175C 112.21,197.774 97.2098,219.274 80.5,239.5 Z"/></g>
<g><path style="opacity:1" fill="#a17cba" d="M 249.5,210.5 C 259.157,209.658 262.99,213.991 261,223.5C 257.517,228.465 253.017,229.631 247.5,227C 241.955,220.695 242.622,215.195 249.5,210.5 Z"/></g>
<g><path style="opacity:1" fill="#a27cba" d="M 466.5,211.5 C 469.718,221.484 471.218,231.817 471,242.5C 457.614,254.387 443.78,265.72 429.5,276.5C 378.665,301.584 329.665,298.584 282.5,267.5C 280.569,258.046 278.236,248.712 275.5,239.5C 276.5,239.5 277.5,239.5 278.5,239.5C 279.96,241.463 281.627,243.296 283.5,245C 321.583,275.68 363.583,282.347 409.5,265C 435.206,254.122 454.206,236.289 466.5,211.5 Z"/></g>
<g><path style="opacity:1" fill="#9675b3" d="M 404.5,216.5 C 402.324,225.538 399.99,234.538 397.5,243.5C 374.167,251.5 350.834,251.5 327.5,243.5C 327.5,236.167 327.5,228.833 327.5,221.5C 327.369,220.761 327.536,220.094 328,219.5C 348.265,230.027 369.098,231.193 390.5,223C 395.11,220.526 399.777,218.359 404.5,216.5 Z"/></g>
<g><path style="opacity:1" fill="#ca99d1" d="M 114.5,230.5 C 118.239,242.382 122.572,254.049 127.5,265.5C 119.244,288.877 122.077,310.877 136,331.5C 147.075,349.909 161.575,365.075 179.5,377C 181.5,377.5 183.5,378 185.5,378.5C 195.975,376.298 206.309,373.631 216.5,370.5C 229.422,378.213 242.755,385.38 256.5,392C 269.471,397.602 282.805,402.102 296.5,405.5C 286.452,412.43 275.285,416.764 263,418.5C 260.7,418.506 258.534,418.006 256.5,417C 242.772,397.976 225.772,394.143 205.5,405.5C 152.599,370.602 113.933,323.935 89.5,265.5C 97.6002,253.62 105.934,241.953 114.5,230.5 Z"/></g>
<g><path style="opacity:1" fill="#cea2d4" d="M 89.5,265.5 C 113.933,323.935 152.599,370.602 205.5,405.5C 200.555,408.445 195.888,411.779 191.5,415.5C 140.911,381.325 103.244,336.325 78.5,280.5C 81.9343,275.284 85.601,270.284 89.5,265.5 Z"/></g>
<g><path style="opacity:1" fill="#a87dbb" d="M 282.5,267.5 C 329.665,298.584 378.665,301.584 429.5,276.5C 414.875,289.824 400.208,303.157 385.5,316.5C 349.347,321.365 315.347,315.031 283.5,297.5C 283.758,287.461 283.424,277.461 282.5,267.5 Z"/></g>
<g><path style="opacity:1" fill="#d3a8d9" d="M 78.5,280.5 C 103.244,336.325 140.911,381.325 191.5,415.5C 188.078,418.18 187.745,421.18 190.5,424.5C 202.675,429.71 215.342,433.044 228.5,434.5C 241.846,442.324 256.179,448.324 271.5,452.5C 272.713,452.747 273.38,453.414 273.5,454.5C 264.181,456.83 254.847,459.163 245.5,461.5C 171.032,431.363 114.032,381.363 74.5,311.5C 72.3298,304.434 71.4964,297.101 72,289.5C 73.6985,286.079 75.8652,283.079 78.5,280.5 Z"/></g>
<g><path style="opacity:1" fill="#ae7dc0" d="M 283.5,297.5 C 315.347,315.031 349.347,321.365 385.5,316.5C 382.5,320.167 379.167,323.5 375.5,326.5C 344.529,330.197 315.029,324.864 287,310.5C 286.536,311.094 286.369,311.761 286.5,312.5C 285.442,311.4 284.608,310.066 284,308.5C 283.501,304.848 283.335,301.182 283.5,297.5 Z"/></g>
<g><path style="opacity:1" fill="#b183c1" d="M 375.5,326.5 C 364.539,337.757 354.039,349.424 344,361.5C 342.406,363.297 340.406,364.297 338,364.5C 318.674,349.34 301.507,332.007 286.5,312.5C 286.369,311.761 286.536,311.094 287,310.5C 315.029,324.864 344.529,330.197 375.5,326.5 Z"/></g>
<g><path style="opacity:1" fill="#d6afdb" d="M 74.5,311.5 C 114.032,381.363 171.032,431.363 245.5,461.5C 234.595,465.322 223.262,467.655 211.5,468.5C 211.631,467.624 211.298,466.957 210.5,466.5C 175.724,449.291 144.724,426.958 117.5,399.5C 118.873,399.657 120.207,399.49 121.5,399C 109.274,384.728 99.4409,368.895 92,351.5C 85.6252,361.282 82.9585,371.948 84,383.5C 84.7914,384.745 85.2914,386.078 85.5,387.5C 84.6715,388.332 83.8382,387.999 83,386.5C 75.5868,377.266 68.4201,367.933 61.5,358.5C 65.2628,350.639 68.7628,342.639 72,334.5C 73.8793,326.949 74.7126,319.282 74.5,311.5 Z"/></g>
<g><path style="opacity:1" fill="#c18dca" d="M 178.5,303.5 C 186.741,302.002 193.907,304.002 200,309.5C 205.476,321.275 210.143,333.275 214,345.5C 209.074,342.286 203.907,339.452 198.5,337C 193.809,336.35 189.143,336.517 184.5,337.5C 171.656,335.155 166.156,327.488 168,314.5C 170.331,309.67 173.831,306.004 178.5,303.5 Z"/></g>
<g><path style="opacity:1" fill="#e0bce1" d="M 61.5,358.5 C 68.4201,367.933 75.5868,377.266 83,386.5C 83.8382,387.999 84.6715,388.332 85.5,387.5C 86.5,387.833 87.1667,388.5 87.5,389.5C 87.0618,389.435 86.7284,389.601 86.5,390C 95.97,401.304 105.97,412.137 116.5,422.5C 99.6034,423.423 83.9367,419.59 69.5,411C 60.5408,403.473 56.2075,393.806 56.5,382C 56.7223,373.823 58.389,365.99 61.5,358.5 Z"/></g>
<g><path style="opacity:1" fill="#c58fcd" d="M 296.5,405.5 C 282.805,402.102 269.471,397.602 256.5,392C 242.755,385.38 229.422,378.213 216.5,370.5C 221.41,368.384 226.41,366.218 231.5,364C 233.833,363.333 236.167,363.333 238.5,364C 247.477,373.309 256.81,382.309 266.5,391C 273.188,395.323 280.521,396.656 288.5,395C 296.147,393.467 303.813,392.467 311.5,392C 312.86,393.938 312.527,395.604 310.5,397C 306.193,400.483 301.527,403.317 296.5,405.5 Z"/></g>
<g><path style="opacity:1" fill="#c28eca" d="M 418.5,409.5 C 418.265,408.903 417.765,408.57 417,408.5C 399.05,412.431 380.884,414.431 362.5,414.5C 360.983,412.538 360.316,410.205 360.5,407.5C 360.321,404.869 360.987,402.535 362.5,400.5C 367.438,400.207 372.438,400.04 377.5,400C 383.896,399.757 389.896,398.09 395.5,395C 399.184,391.248 402.85,387.581 406.5,384C 416.35,383.743 426.184,383.243 436,382.5C 440.157,382.175 441.324,383.842 439.5,387.5C 431.074,393.59 424.074,400.923 418.5,409.5 Z"/></g>
<g><path style="opacity:1" fill="#dab5e1" d="M 87.5,389.5 C 96.52,395.593 106.52,398.926 117.5,399.5C 144.724,426.958 175.724,449.291 210.5,466.5C 211.298,466.957 211.631,467.624 211.5,468.5C 200.877,469.794 190.211,470.794 179.5,471.5C 177.803,471.101 176.137,470.601 174.5,470C 162.758,458.262 151.758,445.929 141.5,433C 134.159,427.271 125.825,423.771 116.5,422.5C 105.97,412.137 95.97,401.304 86.5,390C 86.7284,389.601 87.0618,389.435 87.5,389.5 Z"/></g>
<g><path style="opacity:1" fill="#c896ce" d="M 418.5,409.5 C 416.659,415.349 413.659,420.515 409.5,425C 406.485,426.379 403.319,427.212 400,427.5C 390.296,427.216 380.796,425.716 371.5,423C 367.118,421.502 364.118,418.668 362.5,414.5C 380.884,414.431 399.05,412.431 417,408.5C 417.765,408.57 418.265,408.903 418.5,409.5 Z"/></g>
<g><path style="opacity:1" fill="#cea1d4" d="M 273.5,454.5 C 273.38,453.414 272.713,452.747 271.5,452.5C 256.179,448.324 241.846,442.324 228.5,434.5C 248.246,436.871 267.912,436.204 287.5,432.5C 296.938,435.217 305.938,439.05 314.5,444C 316.037,445.11 316.703,446.61 316.5,448.5C 302.118,450.126 287.785,452.126 273.5,454.5 Z"/></g>
</svg>
