<?xml version="1.0" encoding="UTF-8"?>
<!DOCTYPE svg PUBLIC "-//W3C//DTD SVG 1.1//EN" "http://www.w3.org/Graphics/SVG/1.1/DTD/svg11.dtd">
<svg xmlns="http://www.w3.org/2000/svg" version="1.1" width="512px" height="512px" style="shape-rendering:geometricPrecision; text-rendering:geometricPrecision; image-rendering:optimizeQuality; fill-rule:evenodd; clip-rule:evenodd" xmlns:xlink="http://www.w3.org/1999/xlink">
<g><path style="opacity:1" fill="#f37e6f" d="M 468.5,33.5 C 446.119,41.5731 423.619,49.5731 401,57.5C 400.536,56.9056 400.369,56.2389 400.5,55.5C 404.606,33.9098 417.772,22.9098 440,22.5C 451.03,22.5595 460.53,26.2262 468.5,33.5 Z"/></g>
<g><path style="opacity:1" fill="#ef725f" d="M 468.5,33.5 C 475.881,38.5681 480.547,45.5681 482.5,54.5C 457.351,63.8838 432.018,72.8838 406.5,81.5C 401.043,73.538 399.043,64.8713 400.5,55.5C 400.369,56.2389 400.536,56.9056 401,57.5C 423.619,49.5731 446.119,41.5731 468.5,33.5 Z"/></g>
<g><path style="opacity:1" fill="#ec6951" d="M 482.5,54.5 C 486.323,70.8638 481.656,84.3638 468.5,95C 463.227,98.2566 457.561,100.423 451.5,101.5C 433.662,103.113 418.996,97.113 407.5,83.5C 407.167,82.8333 406.833,82.1667 406.5,81.5C 432.018,72.8838 457.351,63.8838 482.5,54.5 Z"/></g>
<g><path style="opacity:1" fill="#c85d6a" d="M 198.5,160.5 C 184.167,169.833 169.833,179.167 155.5,188.5C 162.542,170.185 164.208,151.518 160.5,132.5C 159.057,121.179 156.391,110.179 152.5,99.5C 168.36,95.6748 183.694,97.1748 198.5,104C 207.95,111.68 211.45,121.514 209,133.5C 205.175,142.492 201.675,151.492 198.5,160.5 Z"/></g>
<g><path style="opacity:1" fill="#cd5e6b" d="M 95.5,97.5 C 110.227,107.948 117.893,122.281 118.5,140.5C 117.448,140.649 116.448,140.483 115.5,140C 113.333,136.667 110.666,133.834 107.5,131.5C 99.443,123.959 90.443,117.626 80.5,112.5C 79.7025,112.043 79.3691,111.376 79.5,110.5C 84.248,105.416 89.5813,101.083 95.5,97.5 Z"/></g>
<g><path style="opacity:1" fill="#f4909d" d="M 152.5,99.5 C 156.391,110.179 159.057,121.179 160.5,132.5C 160.813,135.247 160.48,137.914 159.5,140.5C 139.5,151.167 119.5,161.833 99.5,172.5C 98.7025,172.957 98.3691,173.624 98.5,174.5C 87.2449,166.371 74.9116,160.704 61.5,157.5C 76.8333,148.833 92.1667,140.167 107.5,131.5C 110.666,133.834 113.333,136.667 115.5,140C 116.448,140.483 117.448,140.649 118.5,140.5C 117.893,122.281 110.227,107.948 95.5,97.5C 104.865,89.7419 115.699,85.4086 128,84.5C 138.829,85.3237 146.996,90.3237 152.5,99.5 Z"/></g>
<g><path style="opacity:1" fill="#595e91" d="M 407.5,83.5 C 418.996,97.113 433.662,103.113 451.5,101.5C 447.733,112.154 443.399,122.487 438.5,132.5C 422.127,131.199 405.793,129.533 389.5,127.5C 395.306,112.748 401.306,98.0813 407.5,83.5 Z"/></g>
<g><path style="opacity:1" fill="#f897a3" d="M 79.5,110.5 C 79.3691,111.376 79.7025,112.043 80.5,112.5C 90.443,117.626 99.443,123.959 107.5,131.5C 92.1667,140.167 76.8333,148.833 61.5,157.5C 49.6448,156.387 39.4781,151.721 31,143.5C 24.0012,130.32 26.1679,118.82 37.5,109C 43.4762,105.85 49.8096,104.85 56.5,106C 64.2749,107.055 71.9415,108.555 79.5,110.5 Z"/></g>
<g><path style="opacity:1" fill="#f28895" d="M 160.5,132.5 C 164.208,151.518 162.542,170.185 155.5,188.5C 154.31,190.355 152.977,192.188 151.5,194C 140.196,195.657 129.529,199.157 119.5,204.5C 114.974,192.785 107.974,182.785 98.5,174.5C 98.3691,173.624 98.7025,172.957 99.5,172.5C 119.5,161.833 139.5,151.167 159.5,140.5C 160.48,137.914 160.813,135.247 160.5,132.5 Z"/></g>
<g><path style="opacity:1" fill="#4c5084" d="M 389.5,127.5 C 405.793,129.533 422.127,131.199 438.5,132.5C 429.724,156.052 420.391,179.386 410.5,202.5C 402.712,200.237 395.045,197.57 387.5,194.5C 380.12,191.369 372.787,188.036 365.5,184.5C 373.5,165.5 381.5,146.5 389.5,127.5 Z"/></g>
<g><path style="opacity:1" fill="#c85764" d="M 198.5,160.5 C 196.6,169.25 194.934,177.917 193.5,186.5C 165.482,204.859 137.482,223.193 109.5,241.5C 100.959,226.105 104.292,213.772 119.5,204.5C 129.529,199.157 140.196,195.657 151.5,194C 152.977,192.188 154.31,190.355 155.5,188.5C 169.833,179.167 184.167,169.833 198.5,160.5 Z"/></g>
<g><path style="opacity:1" fill="#faaf67" d="M 311.5,164.5 C 307.861,182.655 304.528,200.989 301.5,219.5C 302.243,220.182 302.909,220.849 303.5,221.5C 296.083,221.146 289.749,218.48 284.5,213.5C 288.119,198.125 290.785,182.458 292.5,166.5C 298.629,163.573 304.962,162.907 311.5,164.5 Z"/></g>
<g><path style="opacity:1" fill="#fab677" d="M 311.5,164.5 C 315.687,164.395 319.687,165.228 323.5,167C 329.977,169.76 336.31,172.593 342.5,175.5C 341.178,175.67 340.011,175.337 339,174.5C 336.934,187.231 334.767,199.898 332.5,212.5C 331.209,212.263 330.209,212.596 329.5,213.5C 323.874,214.808 318.541,216.975 313.5,220C 310.207,220.826 306.874,221.326 303.5,221.5C 302.909,220.849 302.243,220.182 301.5,219.5C 304.528,200.989 307.861,182.655 311.5,164.5 Z"/></g>
<g><path style="opacity:1" fill="#faa859" d="M 292.5,166.5 C 290.785,182.458 288.119,198.125 284.5,213.5C 280.762,210.374 278.262,206.374 277,201.5C 274.422,188.631 277.922,177.797 287.5,169C 289.078,167.906 290.745,167.072 292.5,166.5 Z"/></g>
<g><path style="opacity:1" fill="#f9c08c" d="M 342.5,175.5 C 346.127,176.321 349.46,177.654 352.5,179.5C 350.942,191.847 349.276,204.18 347.5,216.5C 342.607,214.758 337.607,213.424 332.5,212.5C 334.767,199.898 336.934,187.231 339,174.5C 340.011,175.337 341.178,175.67 342.5,175.5 Z"/></g>
<g><path style="opacity:1" fill="#c15764" d="M 193.5,186.5 C 193.5,188.833 193.5,191.167 193.5,193.5C 209.852,197.145 217.852,207.479 217.5,224.5C 215.612,225.275 213.612,225.275 211.5,224.5C 198.723,222.507 186.057,222.173 173.5,223.5C 150.815,225.688 129.815,232.688 110.5,244.5C 109.89,243.609 109.557,242.609 109.5,241.5C 137.482,223.193 165.482,204.859 193.5,186.5 Z"/></g>
<g><path style="opacity:1" fill="#f9caa1" d="M 352.5,179.5 C 356.949,180.892 361.282,182.559 365.5,184.5C 372.787,188.036 380.12,191.369 387.5,194.5C 382.972,205.416 378.639,216.416 374.5,227.5C 365.195,224.403 356.195,220.736 347.5,216.5C 349.276,204.18 350.942,191.847 352.5,179.5 Z"/></g>
<g><path style="opacity:1" fill="#e65733" d="M 387.5,194.5 C 395.045,197.57 402.712,200.237 410.5,202.5C 416.287,204.894 421.954,207.56 427.5,210.5C 420.876,219.725 415.209,229.725 410.5,240.5C 410.043,241.298 409.376,241.631 408.5,241.5C 396.86,237.403 385.527,232.736 374.5,227.5C 378.639,216.416 382.972,205.416 387.5,194.5 Z"/></g>
<g><path style="opacity:1" fill="#ec6247" d="M 427.5,210.5 C 433.932,212.548 440.265,214.882 446.5,217.5C 439.282,232.27 431.782,246.936 424,261.5C 423.51,262.793 423.343,264.127 423.5,265.5C 421.405,259.88 418.738,254.547 415.5,249.5C 415.649,248.448 415.483,247.448 415,246.5C 412.674,244.934 410.508,243.268 408.5,241.5C 409.376,241.631 410.043,241.298 410.5,240.5C 415.209,229.725 420.876,219.725 427.5,210.5 Z"/></g>
<g><path style="opacity:1" fill="#ed6c54" d="M 446.5,217.5 C 450.953,219.226 455.286,221.226 459.5,223.5C 450.556,241.055 441.889,258.721 433.5,276.5C 428.752,274.087 425.419,270.42 423.5,265.5C 423.343,264.127 423.51,262.793 424,261.5C 431.782,246.936 439.282,232.27 446.5,217.5 Z"/></g>
<g><path style="opacity:1" fill="#f28e9b" d="M 173.5,223.5 C 186.057,222.173 198.723,222.507 211.5,224.5C 153.133,269.022 94.2995,313.022 35,356.5C 34.5357,355.906 34.369,355.239 34.5,354.5C 35.9675,343.946 38.9675,333.946 43.5,324.5C 43.369,325.239 43.5357,325.906 44,326.5C 89.9226,292.455 135.756,258.288 181.5,224C 178.854,223.503 176.187,223.336 173.5,223.5 Z"/></g>
<g><path style="opacity:1" fill="#f796a2" d="M 173.5,223.5 C 176.187,223.336 178.854,223.503 181.5,224C 135.756,258.288 89.9226,292.455 44,326.5C 43.5357,325.906 43.369,325.239 43.5,324.5C 56.4079,289.927 78.7412,263.26 110.5,244.5C 129.815,232.688 150.815,225.688 173.5,223.5 Z"/></g>
<g><path style="opacity:1" fill="#f38896" d="M 211.5,224.5 C 213.612,225.275 215.612,225.275 217.5,224.5C 224.067,226.48 230.734,228.48 237.5,230.5C 237.5,231.5 237.5,232.5 237.5,233.5C 169.096,284.577 100.43,335.244 31.5,385.5C 31.3337,378.825 31.5004,372.158 32,365.5C 32.4188,361.608 33.2521,357.942 34.5,354.5C 34.369,355.239 34.5357,355.906 35,356.5C 94.2995,313.022 153.133,269.022 211.5,224.5 Z"/></g>
<g><path style="opacity:1" fill="#7f8ec6" d="M 332.5,212.5 C 337.607,213.424 342.607,214.758 347.5,216.5C 356.195,220.736 365.195,224.403 374.5,227.5C 385.527,232.736 396.86,237.403 408.5,241.5C 410.508,243.268 412.674,244.934 415,246.5C 415.483,247.448 415.649,248.448 415.5,249.5C 413.538,255.071 411.205,260.404 408.5,265.5C 407.778,265.918 407.278,266.584 407,267.5C 383.59,262.518 360.09,257.851 336.5,253.5C 330.148,249.993 324.148,245.993 318.5,241.5C 321.609,231.949 325.275,222.616 329.5,213.5C 330.209,212.596 331.209,212.263 332.5,212.5 Z"/></g>
<g><path style="opacity:1" fill="#f17665" d="M 459.5,223.5 C 475.322,232.817 480.155,246.15 474,263.5C 464.648,280.561 451.148,284.895 433.5,276.5C 441.889,258.721 450.556,241.055 459.5,223.5 Z"/></g>
<g><path style="opacity:1" fill="#ed828e" d="M 237.5,233.5 C 238.458,239.744 238.791,246.077 238.5,252.5C 172.771,300.691 107.438,349.358 42.5,398.5C 38.8333,395.833 35.1667,393.167 31.5,390.5C 31.5,388.833 31.5,387.167 31.5,385.5C 100.43,335.244 169.096,284.577 237.5,233.5 Z"/></g>
<g><path style="opacity:1" fill="#c8d3f9" d="M 318.5,241.5 C 324.148,245.993 330.148,249.993 336.5,253.5C 341.481,257.476 346.481,261.476 351.5,265.5C 349.725,270.044 347.725,274.377 345.5,278.5C 332.671,275.6 319.671,272.934 306.5,270.5C 309.735,260.446 313.735,250.779 318.5,241.5 Z"/></g>
<g><path style="opacity:1" fill="#bc5364" d="M 237.5,230.5 C 252.411,236.285 266.078,244.119 278.5,254C 283.65,258.402 284.65,263.568 281.5,269.5C 265.833,279.5 250.167,289.5 234.5,299.5C 235.778,293.221 236.778,286.888 237.5,280.5C 238.472,271.25 238.805,261.917 238.5,252.5C 238.791,246.077 238.458,239.744 237.5,233.5C 237.5,232.5 237.5,231.5 237.5,230.5 Z"/></g>
<g><path style="opacity:1" fill="#ec7c89" d="M 238.5,252.5 C 238.805,261.917 238.472,271.25 237.5,280.5C 179.462,323.512 121.462,366.512 63.5,409.5C 55.7459,407.124 48.7459,403.458 42.5,398.5C 107.438,349.358 172.771,300.691 238.5,252.5 Z"/></g>
<g><path style="opacity:1" fill="#8a99cf" d="M 336.5,253.5 C 360.09,257.851 383.59,262.518 407,267.5C 407.278,266.584 407.778,265.918 408.5,265.5C 405.057,275.719 401.057,285.719 396.5,295.5C 385.214,288.054 374.047,280.387 363,272.5C 357.34,284.654 352.173,296.988 347.5,309.5C 344.167,317.5 340.833,325.5 337.5,333.5C 334.478,333.196 331.478,332.696 328.5,332C 326.881,331.764 325.881,330.931 325.5,329.5C 328.5,321.5 331.5,313.5 334.5,305.5C 338.733,296.817 342.4,287.817 345.5,278.5C 347.725,274.377 349.725,270.044 351.5,265.5C 346.481,261.476 341.481,257.476 336.5,253.5 Z"/></g>
<g><path style="opacity:1" fill="#bb515d" d="M 281.5,269.5 C 265.474,302.907 252.808,337.574 243.5,373.5C 191.815,407.006 140.482,441.006 89.5,475.5C 55.5635,457.34 36.2302,429.006 31.5,390.5C 35.1667,393.167 38.8333,395.833 42.5,398.5C 48.7459,403.458 55.7459,407.124 63.5,409.5C 66.663,410.847 69.9963,412.014 73.5,413C 75.8098,413.497 78.1432,413.663 80.5,413.5C 127.289,415.066 167.456,399.399 201,366.5C 217.694,347.446 228.861,325.446 234.5,300.5C 234.5,300.167 234.5,299.833 234.5,299.5C 250.167,289.5 265.833,279.5 281.5,269.5 Z"/></g>
<g><path style="opacity:1" fill="#ced9f9" d="M 306.5,270.5 C 319.671,272.934 332.671,275.6 345.5,278.5C 342.4,287.817 338.733,296.817 334.5,305.5C 321.476,302.829 308.476,300.162 295.5,297.5C 298.371,288.102 302.038,279.102 306.5,270.5 Z"/></g>
<g><path style="opacity:1" fill="#ec7582" d="M 237.5,280.5 C 236.778,286.888 235.778,293.221 234.5,299.5C 234.5,299.833 234.5,300.167 234.5,300.5C 233.883,300.389 233.383,300.056 233,299.5C 182.009,337.399 131.176,375.399 80.5,413.5C 78.1432,413.663 75.8098,413.497 73.5,413C 69.9963,412.014 66.663,410.847 63.5,409.5C 121.462,366.512 179.462,323.512 237.5,280.5 Z"/></g>
<g><path style="opacity:1" fill="#ced8f9" d="M 396.5,295.5 C 393.736,302.684 390.736,309.684 387.5,316.5C 375.405,313.346 363.071,310.679 350.5,308.5C 349.416,308.685 348.416,309.018 347.5,309.5C 352.173,296.988 357.34,284.654 363,272.5C 374.047,280.387 385.214,288.054 396.5,295.5 Z"/></g>
<g><path style="opacity:1" fill="#d5e0f9" d="M 295.5,297.5 C 308.476,300.162 321.476,302.829 334.5,305.5C 331.5,313.5 328.5,321.5 325.5,329.5C 323.833,332.833 322.167,336.167 320.5,339.5C 320.5,338.5 320.5,337.5 320.5,336.5C 307.507,334.703 294.84,332.036 282.5,328.5C 286.267,317.846 290.601,307.513 295.5,297.5 Z"/></g>
<g><path style="opacity:1" fill="#e67582" d="M 234.5,300.5 C 228.861,325.446 217.694,347.446 201,366.5C 167.456,399.399 127.289,415.066 80.5,413.5C 131.176,375.399 182.009,337.399 233,299.5C 233.383,300.056 233.883,300.389 234.5,300.5 Z"/></g>
<g><path style="opacity:1" fill="#d5e0f9" d="M 387.5,316.5 C 383.686,327.451 379.352,338.117 374.5,348.5C 362.62,345.155 350.453,342.488 338,340.5C 336.744,340.648 335.577,340.982 334.5,341.5C 335.5,338.833 336.5,336.167 337.5,333.5C 340.833,325.5 344.167,317.5 347.5,309.5C 348.416,309.018 349.416,308.685 350.5,308.5C 363.071,310.679 375.405,313.346 387.5,316.5 Z"/></g>
<g><path style="opacity:1" fill="#9eade0" d="M 325.5,329.5 C 325.881,330.931 326.881,331.764 328.5,332C 331.478,332.696 334.478,333.196 337.5,333.5C 336.5,336.167 335.5,338.833 334.5,341.5C 328.261,355.655 322.261,369.988 316.5,384.5C 313.478,384.196 310.478,383.696 307.5,383C 305.881,382.764 304.881,381.931 304.5,380.5C 309.833,366.833 315.167,353.167 320.5,339.5C 322.167,336.167 323.833,332.833 325.5,329.5 Z"/></g>
<g><path style="opacity:1" fill="#e4ebf9" d="M 282.5,328.5 C 294.84,332.036 307.507,334.703 320.5,336.5C 320.5,337.5 320.5,338.5 320.5,339.5C 315.167,353.167 309.833,366.833 304.5,380.5C 296.443,398.962 288.61,417.629 281,436.5C 278.629,443.77 281.129,447.27 288.5,447C 289.931,446.535 291.097,445.701 292,444.5C 299.906,424.361 308.072,404.361 316.5,384.5C 322.261,369.988 328.261,355.655 334.5,341.5C 335.577,340.982 336.744,340.648 338,340.5C 350.453,342.488 362.62,345.155 374.5,348.5C 355.275,404.826 321.608,450.326 273.5,485C 271.167,485.667 268.833,485.667 266.5,485C 255.053,431.073 260.387,378.907 282.5,328.5 Z"/></g>
<g><path style="opacity:1" fill="#b5505c" d="M 243.5,373.5 C 240.187,387.377 237.52,401.377 235.5,415.5C 199.205,439.141 163.205,463.141 127.5,487.5C 113.922,486.084 101.255,482.084 89.5,475.5C 140.482,441.006 191.815,407.006 243.5,373.5 Z"/></g>
<g><path style="opacity:1" fill="#b54b5c" d="M 235.5,415.5 C 234.782,424.482 234.448,433.482 234.5,442.5C 233.788,441.261 232.788,440.761 231.5,441C 207.768,456.857 184.101,472.69 160.5,488.5C 149.462,488.765 138.462,488.432 127.5,487.5C 163.205,463.141 199.205,439.141 235.5,415.5 Z"/></g>
<g><path style="opacity:1" fill="#acbbed" d="M 304.5,380.5 C 304.881,381.931 305.881,382.764 307.5,383C 310.478,383.696 313.478,384.196 316.5,384.5C 308.072,404.361 299.906,424.361 292,444.5C 291.097,445.701 289.931,446.535 288.5,447C 281.129,447.27 278.629,443.77 281,436.5C 288.61,417.629 296.443,398.962 304.5,380.5 Z"/></g>
<g><path style="opacity:1" fill="#b44b57" d="M 234.5,442.5 C 234.304,454.432 235.304,466.266 237.5,478C 237.538,484.628 234.205,487.962 227.5,488C 205.169,488.5 182.836,488.667 160.5,488.5C 184.101,472.69 207.768,456.857 231.5,441C 232.788,440.761 233.788,441.261 234.5,442.5 Z"/></g>
</svg>
