<?xml version="1.0" encoding="UTF-8"?>
<!DOCTYPE svg PUBLIC "-//W3C//DTD SVG 1.1//EN" "http://www.w3.org/Graphics/SVG/1.1/DTD/svg11.dtd">
<svg xmlns="http://www.w3.org/2000/svg" version="1.1" width="512px" height="512px" style="shape-rendering:geometricPrecision; text-rendering:geometricPrecision; image-rendering:optimizeQuality; fill-rule:evenodd; clip-rule:evenodd" xmlns:xlink="http://www.w3.org/1999/xlink">
<g><path style="opacity:1" fill="#f39cb5" d="M 185.5,24.5 C 162.342,54.1365 139.175,83.8032 116,113.5C 115.308,114.437 115.475,115.103 116.5,115.5C 98.4588,125.644 80.1254,125.81 61.5,116C 57.4731,105.002 61.4731,100.002 73.5,101C 86.9309,98.2268 97.7642,91.3934 106,80.5C 111.875,69.3015 118.542,58.6348 126,48.5C 141.487,29.1567 161.32,21.1567 185.5,24.5 Z"/></g>
<g><path style="opacity:1" fill="#f396b5" d="M 185.5,24.5 C 192.382,25.4592 198.715,27.7926 204.5,31.5C 193.594,46.2866 182.427,60.9533 171,75.5C 170.209,76.745 169.709,78.0783 169.5,79.5C 162.513,80.3294 156.179,82.8294 150.5,87C 143.275,93.4709 136.275,100.138 129.5,107C 125.451,110.352 121.118,113.185 116.5,115.5C 115.475,115.103 115.308,114.437 116,113.5C 139.175,83.8032 162.342,54.1365 185.5,24.5 Z"/></g>
<g><path style="opacity:1" fill="#ed96b5" d="M 204.5,31.5 C 210.411,34.7419 215.411,39.0753 219.5,44.5C 209.603,56.613 199.936,68.9463 190.5,81.5C 183.617,79.1834 176.617,78.5167 169.5,79.5C 169.709,78.0783 170.209,76.745 171,75.5C 182.427,60.9533 193.594,46.2866 204.5,31.5 Z"/></g>
<g><path style="opacity:1" fill="#ec8eb4" d="M 219.5,44.5 C 225.684,54.0136 234.017,61.0136 244.5,65.5C 236.246,76.3523 228.246,87.3523 220.5,98.5C 216.407,96.9547 212.407,95.1214 208.5,93C 202.98,88.4073 196.98,84.5739 190.5,81.5C 199.936,68.9463 209.603,56.613 219.5,44.5 Z"/></g>
<g><path style="opacity:1" fill="#e583b5" d="M 330.5,58.5 C 331.263,59.2679 332.263,59.7679 333.5,60C 323.612,72.954 313.612,85.7874 303.5,98.5C 289.299,97.0047 275.299,98.0047 261.5,101.5C 260.499,100.211 260.666,98.8779 262,97.5C 270.79,87.2231 278.956,76.5565 286.5,65.5C 300.527,59.9408 315.193,57.6075 330.5,58.5 Z"/></g>
<g><path style="opacity:1" fill="#e17cb5" d="M 330.5,58.5 C 346.176,59.0044 358.842,65.3378 368.5,77.5C 359.224,91.0497 349.224,104.05 338.5,116.5C 329.543,105.52 317.876,99.5196 303.5,98.5C 313.612,85.7874 323.612,72.954 333.5,60C 332.263,59.7679 331.263,59.2679 330.5,58.5 Z"/></g>
<g><path style="opacity:1" fill="#e789b5" d="M 244.5,65.5 C 258.472,70.7268 272.472,70.7268 286.5,65.5C 278.956,76.5565 270.79,87.2231 262,97.5C 260.666,98.8779 260.499,100.211 261.5,101.5C 247.616,104.057 233.949,103.057 220.5,98.5C 228.246,87.3523 236.246,76.3523 244.5,65.5 Z"/></g>
<g><path style="opacity:1" fill="#e175b5" d="M 368.5,77.5 C 370.975,79.7703 372.975,82.437 374.5,85.5C 363.817,98.1876 353.483,111.188 343.5,124.5C 341.847,121.869 340.181,119.203 338.5,116.5C 349.224,104.05 359.224,91.0497 368.5,77.5 Z"/></g>
<g><path style="opacity:1" fill="#da75b5" d="M 374.5,85.5 C 380.33,93.1704 383.997,101.837 385.5,111.5C 372.204,127.401 359.371,143.734 347,160.5C 346.184,161.823 345.017,162.489 343.5,162.5C 347.408,149.813 347.408,137.146 343.5,124.5C 353.483,111.188 363.817,98.1876 374.5,85.5 Z"/></g>
<g><path style="opacity:1" fill="#d96fb5" d="M 385.5,111.5 C 389.971,132.949 387.971,153.949 379.5,174.5C 367.892,187.03 357.226,200.363 347.5,214.5C 341.203,197.676 339.87,180.343 343.5,162.5C 345.017,162.489 346.184,161.823 347,160.5C 359.371,143.734 372.204,127.401 385.5,111.5 Z"/></g>
<g><path style="opacity:1" fill="#ed95b5" d="M 86.5,186.5 C 86.3505,185.448 86.5172,184.448 87,183.5C 97.0484,170.958 106.882,158.291 116.5,145.5C 121.707,143.899 126.707,141.732 131.5,139C 137.757,137.257 141.424,139.59 142.5,146C 135.395,163.103 123.062,174.769 105.5,181C 99.177,182.996 92.8437,184.829 86.5,186.5 Z"/></g>
<g><path style="opacity:1" fill="#f296b5" d="M 116.5,145.5 C 106.882,158.291 97.0484,170.958 87,183.5C 86.5172,184.448 86.3505,185.448 86.5,186.5C 74.3342,190.999 67.3342,199.665 65.5,212.5C 55.1496,224.855 45.1496,237.522 35.5,250.5C 30.5672,244.053 27.5672,236.72 26.5,228.5C 47.209,202.458 67.5424,176.124 87.5,149.5C 97.2678,148.881 106.934,147.547 116.5,145.5 Z"/></g>
<g><path style="opacity:1" fill="#f39cb5" d="M 87.5,149.5 C 67.5424,176.124 47.209,202.458 26.5,228.5C 18.4665,194.735 30.1332,170.569 61.5,156C 69.8567,152.578 78.5233,150.411 87.5,149.5 Z"/></g>
<g><path style="opacity:1" fill="#f37563" d="M 234.5,152.5 C 200.727,192.393 166.727,232.06 132.5,271.5C 127.417,256.558 126.417,241.224 129.5,225.5C 148.49,202.873 167.49,180.207 186.5,157.5C 202.03,150.891 218.03,149.225 234.5,152.5 Z"/></g>
<g><path style="opacity:1" fill="#f27063" d="M 234.5,152.5 C 238.8,152.719 242.8,153.719 246.5,155.5C 210.157,197.014 174.323,239.014 139,281.5C 138.329,282.252 137.496,282.586 136.5,282.5C 134.399,279.203 133.065,275.537 132.5,271.5C 166.727,232.06 200.727,192.393 234.5,152.5 Z"/></g>
<g><path style="opacity:1" fill="#f16f5c" d="M 246.5,155.5 C 255.365,157.932 263.365,161.932 270.5,167.5C 270.291,168.922 269.791,170.255 269,171.5C 258.58,182.746 248.747,194.413 239.5,206.5C 222.572,201.876 208.738,206.543 198,220.5C 188.886,232.907 186.386,246.573 190.5,261.5C 190.649,262.552 190.483,263.552 190,264.5C 177.29,279.039 164.79,293.706 152.5,308.5C 145.192,301.162 139.859,292.495 136.5,282.5C 137.496,282.586 138.329,282.252 139,281.5C 174.323,239.014 210.157,197.014 246.5,155.5 Z"/></g>
<g><path style="opacity:1" fill="#f37769" d="M 186.5,157.5 C 167.49,180.207 148.49,202.873 129.5,225.5C 136.994,193.02 155.994,170.353 186.5,157.5 Z"/></g>
<g><path style="opacity:1" fill="#ed6a5c" d="M 270.5,167.5 C 273.473,169.147 276.14,171.147 278.5,173.5C 268.18,186.485 257.513,199.151 246.5,211.5C 244.305,209.576 241.972,207.909 239.5,206.5C 248.747,194.413 258.58,182.746 269,171.5C 269.791,170.255 270.291,168.922 270.5,167.5 Z"/></g>
<g><path style="opacity:1" fill="#cf63bb" d="M 464.5,182.5 C 446.233,203.665 428.9,225.665 412.5,248.5C 409.918,235.083 409.085,221.417 410,207.5C 410.795,191.055 418.295,178.888 432.5,171C 446.589,166.08 457.255,169.913 464.5,182.5 Z"/></g>
<g><path style="opacity:1" fill="#ed6956" d="M 278.5,173.5 C 286.35,180.344 292.683,188.344 297.5,197.5C 284.127,212.205 271.127,227.205 258.5,242.5C 258.055,233.72 255.888,225.387 252,217.5C 250.374,215.195 248.54,213.195 246.5,211.5C 257.513,199.151 268.18,186.485 278.5,173.5 Z"/></g>
<g><path style="opacity:1" fill="#d469b5" d="M 379.5,174.5 C 372.971,190.948 368.471,207.948 366,225.5C 362.547,228.769 358.714,229.269 354.5,227C 351.256,223.345 348.922,219.178 347.5,214.5C 357.226,200.363 367.892,187.03 379.5,174.5 Z"/></g>
<g><path style="opacity:1" fill="#cd5dba" d="M 464.5,182.5 C 469.64,196.044 469.807,209.711 465,223.5C 462.194,230.446 458.861,237.112 455,243.5C 447.948,252.218 441.281,261.218 435,270.5C 427.498,276.572 421.165,275.572 416,267.5C 414.124,261.286 412.957,254.952 412.5,248.5C 428.9,225.665 446.233,203.665 464.5,182.5 Z"/></g>
<g><path style="opacity:1" fill="#ed6356" d="M 297.5,197.5 C 299.008,199.181 300.008,201.181 300.5,203.5C 288.786,219.579 276.119,234.913 262.5,249.5C 260.412,247.664 259.079,245.331 258.5,242.5C 271.127,227.205 284.127,212.205 297.5,197.5 Z"/></g>
<g><path style="opacity:1" fill="#ec6350" d="M 300.5,203.5 C 308.503,220.511 311.67,238.511 310,257.5C 308.016,263.147 304.016,266.147 298,266.5C 286.932,265.527 276.765,262.027 267.5,256C 265.21,254.223 263.543,252.056 262.5,249.5C 276.119,234.913 288.786,219.579 300.5,203.5 Z"/></g>
<g><path style="opacity:1" fill="#ed95b5" d="M 65.5,212.5 C 65.6456,220.27 67.9789,227.27 72.5,233.5C 64.1778,244.128 55.8445,254.794 47.5,265.5C 42.3007,261.421 38.3007,256.421 35.5,250.5C 45.1496,237.522 55.1496,224.855 65.5,212.5 Z"/></g>
<g><path style="opacity:1" fill="#ed8fb5" d="M 72.5,233.5 C 76.0006,237.153 80.0006,240.32 84.5,243C 89.0793,247.074 93.0793,251.574 96.5,256.5C 86.5167,269.812 76.1833,282.812 65.5,295.5C 64.0567,289.686 61.89,284.02 59,278.5C 55.3301,273.998 51.4968,269.665 47.5,265.5C 55.8445,254.794 64.1778,244.128 72.5,233.5 Z"/></g>
<g><path style="opacity:1" fill="#e789b4" d="M 96.5,256.5 C 104.514,269.23 107.848,283.23 106.5,298.5C 92.1667,316.5 77.8333,334.5 63.5,352.5C 62.3784,341.546 62.2117,330.546 63,319.5C 64.381,311.55 65.2144,303.55 65.5,295.5C 76.1833,282.812 86.5167,269.812 96.5,256.5 Z"/></g>
<g><path style="opacity:1" fill="#ed695c" d="M 190.5,261.5 C 192.208,264.95 193.541,268.617 194.5,272.5C 182.5,286.833 170.5,301.167 158.5,315.5C 155.757,313.761 153.757,311.427 152.5,308.5C 164.79,293.706 177.29,279.039 190,264.5C 190.483,263.552 190.649,262.552 190.5,261.5 Z"/></g>
<g><path style="opacity:1" fill="#ed6956" d="M 194.5,272.5 C 199.884,281.55 207.217,288.55 216.5,293.5C 204.834,305.505 193.834,318.172 183.5,331.5C 173.971,327.91 165.637,322.577 158.5,315.5C 170.5,301.167 182.5,286.833 194.5,272.5 Z"/></g>
<g><path style="opacity:1" fill="#ed6457" d="M 216.5,293.5 C 218.833,294.167 221.167,294.833 223.5,295.5C 212.846,308.818 201.846,321.818 190.5,334.5C 187.759,334.293 185.426,333.293 183.5,331.5C 193.834,318.172 204.834,305.505 216.5,293.5 Z"/></g>
<g><path style="opacity:1" fill="#ec6351" d="M 223.5,295.5 C 237.71,297.888 252.043,299.555 266.5,300.5C 266.649,301.552 266.483,302.552 266,303.5C 254.289,317.04 242.789,330.706 231.5,344.5C 217.218,343.182 203.551,339.849 190.5,334.5C 201.846,321.818 212.846,308.818 223.5,295.5 Z"/></g>
<g><path style="opacity:1" fill="#e783b5" d="M 106.5,298.5 C 105.611,306.171 104.611,313.838 103.5,321.5C 104.053,324.817 104.386,328.15 104.5,331.5C 93.9173,345.651 83.0839,359.651 72,373.5C 71.5172,374.448 71.3505,375.448 71.5,376.5C 67.3116,369.111 64.645,361.111 63.5,352.5C 77.8333,334.5 92.1667,316.5 106.5,298.5 Z"/></g>
<g><path style="opacity:1" fill="#e75644" d="M 368.5,304.5 C 368.291,305.922 367.791,307.255 367,308.5C 354.221,322.768 342.055,337.434 330.5,352.5C 325.684,350.619 320.684,349.452 315.5,349C 305.172,348.5 294.839,348.334 284.5,348.5C 297.833,332.5 311.167,316.5 324.5,300.5C 335.497,299.825 346.497,299.658 357.5,300C 361.41,300.957 365.077,302.457 368.5,304.5 Z"/></g>
<g><path style="opacity:1" fill="#e75c4b" d="M 266.5,300.5 C 285.84,301.677 305.173,301.677 324.5,300.5C 311.167,316.5 297.833,332.5 284.5,348.5C 266.791,347.52 249.125,346.186 231.5,344.5C 242.789,330.706 254.289,317.04 266,303.5C 266.483,302.552 266.649,301.552 266.5,300.5 Z"/></g>
<g><path style="opacity:1" fill="#e7503d" d="M 368.5,304.5 C 372.212,307.211 375.212,310.544 377.5,314.5C 365.878,327.056 354.711,340.056 344,353.5C 342.549,355.464 340.716,356.797 338.5,357.5C 335.797,355.819 333.131,354.153 330.5,352.5C 342.055,337.434 354.221,322.768 367,308.5C 367.791,307.255 368.291,305.922 368.5,304.5 Z"/></g>
<g><path style="opacity:1" fill="#e1503e" d="M 377.5,314.5 C 382.064,322.835 386.064,331.501 389.5,340.5C 387.983,340.511 386.816,341.177 386,342.5C 376.333,354.167 366.667,365.833 357,377.5C 356.329,378.252 355.496,378.586 354.5,378.5C 349.906,370.999 344.573,363.999 338.5,357.5C 340.716,356.797 342.549,355.464 344,353.5C 354.711,340.056 365.878,327.056 377.5,314.5 Z"/></g>
<g><path style="opacity:1" fill="#e183b4" d="M 104.5,331.5 C 105.99,336.817 108.323,341.817 111.5,346.5C 100.483,359.359 89.9826,372.693 80,386.5C 79.3292,385.748 78.4959,385.414 77.5,385.5C 74.7693,383.054 72.7693,380.054 71.5,376.5C 71.3505,375.448 71.5172,374.448 72,373.5C 83.0839,359.651 93.9173,345.651 104.5,331.5 Z"/></g>
<g><path style="opacity:1" fill="#e14b37" d="M 389.5,340.5 C 393.227,350.843 397.06,361.177 401,371.5C 403.166,372.731 405.333,373.731 407.5,374.5C 397.217,387.783 386.217,400.45 374.5,412.5C 367.318,401.468 360.651,390.135 354.5,378.5C 355.496,378.586 356.329,378.252 357,377.5C 366.667,365.833 376.333,354.167 386,342.5C 386.816,341.177 387.983,340.511 389.5,340.5 Z"/></g>
<g><path style="opacity:1" fill="#e17cb5" d="M 111.5,346.5 C 119.09,356.96 129.09,363.96 141.5,367.5C 141.611,368.117 141.944,368.617 142.5,369C 131.876,381.778 121.876,394.944 112.5,408.5C 98.6324,404.074 86.9657,396.407 77.5,385.5C 78.4959,385.414 79.3292,385.748 80,386.5C 89.9826,372.693 100.483,359.359 111.5,346.5 Z"/></g>
<g><path style="opacity:1" fill="#d96fb5" d="M 225.5,373.5 C 224.325,373.281 223.325,373.614 222.5,374.5C 217.024,381.81 211.357,388.977 205.5,396C 206.056,396.383 206.389,396.883 206.5,397.5C 202.055,398.195 197.722,399.362 193.5,401C 180.187,408.716 165.854,412.883 150.5,413.5C 161.117,398.882 172.117,384.548 183.5,370.5C 197.851,368.554 211.851,369.554 225.5,373.5 Z"/></g>
<g><path style="opacity:1" fill="#db76b5" d="M 141.5,367.5 C 155.38,370.542 169.38,371.542 183.5,370.5C 172.117,384.548 161.117,398.882 150.5,413.5C 137.447,414.861 124.78,413.194 112.5,408.5C 121.876,394.944 131.876,381.778 142.5,369C 141.944,368.617 141.611,368.117 141.5,367.5 Z"/></g>
<g><path style="opacity:1" fill="#d469b6" d="M 225.5,373.5 C 232.727,374.945 239.394,377.778 245.5,382C 247.429,385.256 247.929,388.756 247,392.5C 246.097,393.701 244.931,394.535 243.5,395C 237.996,395.4 232.496,395.234 227,394.5C 220.004,394.739 213.171,395.739 206.5,397.5C 206.389,396.883 206.056,396.383 205.5,396C 211.357,388.977 217.024,381.81 222.5,374.5C 223.325,373.614 224.325,373.281 225.5,373.5 Z"/></g>
<g><path style="opacity:1" fill="#e14431" d="M 407.5,374.5 C 438.372,377.205 458.872,393.205 469,422.5C 476.134,438.404 481.967,454.737 486.5,471.5C 486.029,478.975 482.029,483.308 474.5,484.5C 471.728,483.974 469.062,483.141 466.5,482C 458.544,471.255 450.711,460.422 443,449.5C 435.836,440.005 426.669,433.172 415.5,429C 406.833,427 398.167,425 389.5,423C 383.733,420.462 378.733,416.962 374.5,412.5C 386.217,400.45 397.217,387.783 407.5,374.5 Z"/></g>
<g><path style="opacity:1" fill="#d463bb" d="M 240.5,424.5 C 241.501,425.789 241.334,427.122 240,428.5C 226.25,445.682 212.75,463.016 199.5,480.5C 193.505,484.389 186.838,486.723 179.5,487.5C 179.082,486.778 178.416,486.278 177.5,486C 194.097,465.911 210.097,445.411 225.5,424.5C 230.483,423.352 235.483,423.352 240.5,424.5 Z"/></g>
<g><path style="opacity:1" fill="#d469ba" d="M 225.5,424.5 C 210.097,445.411 194.097,465.911 177.5,486C 178.416,486.278 179.082,486.778 179.5,487.5C 174.156,487.666 168.823,487.499 163.5,487C 161.942,486.79 160.609,486.29 159.5,485.5C 171.043,469.111 183.209,453.111 196,437.5C 196.692,436.563 196.525,435.897 195.5,435.5C 204.396,429.087 214.396,425.421 225.5,424.5 Z"/></g>
<g><path style="opacity:1" fill="#ce63bb" d="M 240.5,424.5 C 245.655,424.965 250.655,426.131 255.5,428C 260.833,428.333 266.167,428.667 271.5,429C 275.249,432.237 276.082,436.07 274,440.5C 268.361,446.236 261.528,449.736 253.5,451C 243.572,451.071 234.239,453.404 225.5,458C 219.289,463.721 213.289,469.721 207.5,476C 205.183,478.157 202.516,479.657 199.5,480.5C 212.75,463.016 226.25,445.682 240,428.5C 241.334,427.122 241.501,425.789 240.5,424.5 Z"/></g>
<g><path style="opacity:1" fill="#d469b5" d="M 195.5,435.5 C 196.525,435.897 196.692,436.563 196,437.5C 183.209,453.111 171.043,469.111 159.5,485.5C 152.754,484.459 146.754,481.792 141.5,477.5C 149.051,468.763 156.385,459.763 163.5,450.5C 171.266,452.635 178.266,451.135 184.5,446C 187.377,441.622 191.044,438.122 195.5,435.5 Z"/></g>
<g><path style="opacity:1" fill="#d970b5" d="M 163.5,450.5 C 156.385,459.763 149.051,468.763 141.5,477.5C 137.752,474.863 134.252,471.863 131,468.5C 126.075,461.571 120.408,455.238 114,449.5C 111.132,443.54 112.632,439.04 118.5,436C 134.818,436.717 149.818,441.551 163.5,450.5 Z"/></g>
</svg>
