<?xml version="1.0" encoding="UTF-8"?>
<!DOCTYPE svg PUBLIC "-//W3C//DTD SVG 1.1//EN" "http://www.w3.org/Graphics/SVG/1.1/DTD/svg11.dtd">
<svg xmlns="http://www.w3.org/2000/svg" version="1.1" width="512px" height="512px" style="shape-rendering:geometricPrecision; text-rendering:geometricPrecision; image-rendering:optimizeQuality; fill-rule:evenodd; clip-rule:evenodd" xmlns:xlink="http://www.w3.org/1999/xlink">
<g><path style="opacity:1" fill="#cce7fa" d="M 420.5,99.5 C 396.527,76.1937 372.86,52.527 349.5,28.5C 378.901,24.0111 406.901,28.5111 433.5,42C 452.851,54.1879 466.518,71.0213 474.5,92.5C 456.33,93.6878 438.33,96.0212 420.5,99.5 Z"/></g>
<g><path style="opacity:1" fill="#c2e1fa" d="M 349.5,28.5 C 372.86,52.527 396.527,76.1937 420.5,99.5C 401.864,103.409 383.531,108.409 365.5,114.5C 341.47,90.471 317.804,66.1376 294.5,41.5C 312.169,34.5022 330.503,30.1689 349.5,28.5 Z"/></g>
<g><path style="opacity:1" fill="#bbe1fa" d="M 294.5,41.5 C 317.804,66.1376 341.47,90.471 365.5,114.5C 359.406,117.538 353.073,120.204 346.5,122.5C 323.565,98.0636 300.065,74.0636 276,50.5C 275.536,49.9056 275.369,49.2389 275.5,48.5C 281.725,45.8885 288.058,43.5551 294.5,41.5 Z"/></g>
<g><path style="opacity:1" fill="#b5dafa" d="M 275.5,48.5 C 275.369,49.2389 275.536,49.9056 276,50.5C 300.065,74.0636 323.565,98.0636 346.5,122.5C 328.43,131.036 310.763,140.369 293.5,150.5C 269.81,125.81 245.477,101.81 220.5,78.5C 237.709,66.7232 256.043,56.7232 275.5,48.5 Z"/></g>
<g><path style="opacity:1" fill="#aed4fa" d="M 220.5,78.5 C 245.477,101.81 269.81,125.81 293.5,150.5C 284.987,156.591 276.654,162.924 268.5,169.5C 267.206,168.71 266.039,167.71 265,166.5C 259.305,157.087 253.138,148.087 246.5,139.5C 239.86,127.747 231.86,116.914 222.5,107C 219.968,105.235 217.301,103.735 214.5,102.5C 208.609,99.7236 202.942,96.7236 197.5,93.5C 204.646,87.7564 212.313,82.7564 220.5,78.5 Z"/></g>
<g><path style="opacity:1" fill="#e2ecf9" d="M 120.5,67.5 C 146.862,74.1846 172.528,82.8513 197.5,93.5C 202.942,96.7236 208.609,99.7236 214.5,102.5C 203.87,116.131 191.87,128.464 178.5,139.5C 173.53,133.525 168.53,127.525 163.5,121.5C 148.677,103.834 134.344,85.8341 120.5,67.5 Z"/></g>
<g><path style="opacity:1" fill="#a7b6e8" d="M 120.5,67.5 C 134.344,85.8341 148.677,103.834 163.5,121.5C 152.439,131.234 141.105,140.568 129.5,149.5C 123.699,122.291 120.699,94.958 120.5,67.5 Z"/></g>
<g><path style="opacity:1" fill="#dce6f9" d="M 214.5,102.5 C 217.301,103.735 219.968,105.235 222.5,107C 231.86,116.914 239.86,127.747 246.5,139.5C 234.167,152.167 221.833,164.833 209.5,177.5C 204.793,172.795 200.46,167.795 196.5,162.5C 193.833,159.167 191.167,155.833 188.5,152.5C 185.167,148.167 181.833,143.833 178.5,139.5C 191.87,128.464 203.87,116.131 214.5,102.5 Z"/></g>
<g><path style="opacity:1" fill="#9eafe1" d="M 163.5,121.5 C 168.53,127.525 173.53,133.525 178.5,139.5C 181.833,143.833 185.167,148.167 188.5,152.5C 187.078,152.709 185.745,153.209 184.5,154C 171.859,166.153 158.526,177.32 144.5,187.5C 140.952,184.094 138.118,180.094 136,175.5C 133.203,166.978 131.036,158.312 129.5,149.5C 141.105,140.568 152.439,131.234 163.5,121.5 Z"/></g>
<g><path style="opacity:1" fill="#9ca8e0" d="M 188.5,152.5 C 191.167,155.833 193.833,159.167 196.5,162.5C 182.833,174.5 169.167,186.5 155.5,198.5C 151.5,195.167 147.833,191.5 144.5,187.5C 158.526,177.32 171.859,166.153 184.5,154C 185.745,153.209 187.078,152.709 188.5,152.5 Z"/></g>
<g><path style="opacity:1" fill="#d5e0f9" d="M 246.5,139.5 C 253.138,148.087 259.305,157.087 265,166.5C 266.039,167.71 267.206,168.71 268.5,169.5C 271.918,175.337 275.584,181.004 279.5,186.5C 278.761,186.369 278.094,186.536 277.5,187C 267.197,198.304 256.53,209.304 245.5,220C 244.906,220.464 244.239,220.631 243.5,220.5C 232.546,206.21 221.212,192.21 209.5,178.5C 209.5,178.167 209.5,177.833 209.5,177.5C 221.833,164.833 234.167,152.167 246.5,139.5 Z"/></g>
<g><path style="opacity:1" fill="#96a8da" d="M 196.5,162.5 C 200.46,167.795 204.793,172.795 209.5,177.5C 209.5,177.833 209.5,178.167 209.5,178.5C 208.078,178.709 206.745,179.209 205.5,180C 193.27,191.071 180.936,201.904 168.5,212.5C 163.438,208.441 159.105,203.774 155.5,198.5C 169.167,186.5 182.833,174.5 196.5,162.5 Z"/></g>
<g><path style="opacity:1" fill="#96bafa" d="M 170.5,279.5 C 143.786,253.118 117.119,226.785 90.5,200.5C 92.7003,194.565 96.7003,192.731 102.5,195C 105.876,200.253 109.376,205.42 113,210.5C 132.286,229.298 151.952,247.631 172,265.5C 174.341,270.593 173.841,275.26 170.5,279.5 Z"/></g>
<g><path style="opacity:1" fill="#ced9f9" d="M 279.5,186.5 C 288.5,199.833 297.5,213.167 306.5,226.5C 295.548,236.785 284.881,247.452 274.5,258.5C 272.471,256.142 270.471,253.808 268.5,251.5C 263.182,244.186 257.516,237.186 251.5,230.5C 249.213,226.878 246.547,223.545 243.5,220.5C 244.239,220.631 244.906,220.464 245.5,220C 256.53,209.304 267.197,198.304 277.5,187C 278.094,186.536 278.761,186.369 279.5,186.5 Z"/></g>
<g><path style="opacity:1" fill="#96b4f9" d="M 90.5,200.5 C 117.119,226.785 143.786,253.118 170.5,279.5C 166.3,287.235 162.633,295.235 159.5,303.5C 132.562,276.062 105.395,248.728 78,221.5C 77.5357,220.906 77.369,220.239 77.5,219.5C 81.0949,212.638 85.4282,206.304 90.5,200.5 Z"/></g>
<g><path style="opacity:1" fill="#909ed4" d="M 209.5,178.5 C 221.212,192.21 232.546,206.21 243.5,220.5C 246.547,223.545 249.213,226.878 251.5,230.5C 250.078,230.709 248.745,231.209 247.5,232C 236.628,241.71 225.628,251.21 214.5,260.5C 198.83,244.83 183.497,228.83 168.5,212.5C 180.936,201.904 193.27,191.071 205.5,180C 206.745,179.209 208.078,178.709 209.5,178.5 Z"/></g>
<g><path style="opacity:1" fill="#93aef9" d="M 77.5,219.5 C 77.369,220.239 77.5357,220.906 78,221.5C 105.395,248.728 132.562,276.062 159.5,303.5C 155.572,314.473 153.572,325.807 153.5,337.5C 122.806,307.473 92.473,277.14 62.5,246.5C 66.3053,236.73 71.3053,227.73 77.5,219.5 Z"/></g>
<g><path style="opacity:1" fill="#8896ce" d="M 251.5,230.5 C 257.516,237.186 263.182,244.186 268.5,251.5C 257.579,261.631 246.245,271.297 234.5,280.5C 227.5,274.167 220.833,267.5 214.5,260.5C 225.628,251.21 236.628,241.71 247.5,232C 248.745,231.209 250.078,230.709 251.5,230.5 Z"/></g>
<g><path style="opacity:1" fill="#c8d3f9" d="M 306.5,226.5 C 315.5,239.833 324.5,253.167 333.5,266.5C 323.473,275.86 313.806,285.527 304.5,295.5C 294.877,283.208 284.877,271.208 274.5,259.5C 274.5,259.167 274.5,258.833 274.5,258.5C 284.881,247.452 295.548,236.785 306.5,226.5 Z"/></g>
<g><path style="opacity:1" fill="#8ea8f9" d="M 62.5,246.5 C 92.473,277.14 122.806,307.473 153.5,337.5C 154.353,343.489 155.353,349.489 156.5,355.5C 156.631,356.239 156.464,356.906 156,357.5C 123.249,324.248 90.0828,291.582 56.5,259.5C 58.1299,254.919 60.1299,250.586 62.5,246.5 Z"/></g>
<g><path style="opacity:1" fill="#8396c8" d="M 268.5,251.5 C 270.471,253.808 272.471,256.142 274.5,258.5C 274.5,258.833 274.5,259.167 274.5,259.5C 264.76,268.551 254.76,277.385 244.5,286C 243.177,286.816 242.511,287.983 242.5,289.5C 239.862,286.526 237.195,283.526 234.5,280.5C 246.245,271.297 257.579,261.631 268.5,251.5 Z"/></g>
<g><path style="opacity:1" fill="#8fa8f4" d="M 56.5,259.5 C 90.0828,291.582 123.249,324.248 156,357.5C 156.464,356.906 156.631,356.239 156.5,355.5C 166.433,382.526 185.433,400.026 213.5,408C 224.808,410.239 236.141,412.239 247.5,414C 252.964,415.814 257.464,418.98 261,423.5C 261.688,424.332 261.521,424.998 260.5,425.5C 249.169,431.667 237.503,437 225.5,441.5C 224.127,441.657 222.793,441.49 221.5,441C 165.326,383.993 108.993,327.16 52.5,270.5C 53.4375,266.687 54.7709,263.021 56.5,259.5 Z"/></g>
<g><path style="opacity:1" fill="#8da2f3" d="M 52.5,270.5 C 108.993,327.16 165.326,383.993 221.5,441C 222.793,441.49 224.127,441.657 225.5,441.5C 216.61,445.799 207.276,449.132 197.5,451.5C 146.784,399.784 95.451,348.784 43.5,298.5C 45.8965,288.893 48.8965,279.56 52.5,270.5 Z"/></g>
<g><path style="opacity:1" fill="#c2cdf9" d="M 333.5,266.5 C 342.5,279.833 351.5,293.167 360.5,306.5C 352.194,315.473 343.527,324.14 334.5,332.5C 328.833,325.833 323.167,319.167 317.5,312.5C 313.55,306.549 309.217,300.882 304.5,295.5C 313.806,285.527 323.473,275.86 333.5,266.5 Z"/></g>
<g><path style="opacity:1" fill="#7d8bc3" d="M 274.5,259.5 C 284.877,271.208 294.877,283.208 304.5,295.5C 309.217,300.882 313.55,306.549 317.5,312.5C 309.727,318.43 302.06,324.597 294.5,331C 292.21,332.777 290.543,334.944 289.5,337.5C 273.861,321.527 258.194,305.527 242.5,289.5C 242.511,287.983 243.177,286.816 244.5,286C 254.76,277.385 264.76,268.551 274.5,259.5 Z"/></g>
<g><path style="opacity:1" fill="#899cf3" d="M 43.5,298.5 C 95.451,348.784 146.784,399.784 197.5,451.5C 188.724,454.611 179.724,456.944 170.5,458.5C 127.229,414.728 83.7285,371.062 40,327.5C 39.6174,328.056 39.1174,328.389 38.5,328.5C 39.7347,318.425 41.4014,308.425 43.5,298.5 Z"/></g>
<g><path style="opacity:1" fill="#bbc7f9" d="M 360.5,306.5 C 367.426,316.692 374.093,327.025 380.5,337.5C 369.439,341.1 358.106,344.1 346.5,346.5C 342.132,342.133 338.132,337.467 334.5,332.5C 343.527,324.14 352.194,315.473 360.5,306.5 Z"/></g>
<g><path style="opacity:1" fill="#8996f3" d="M 170.5,458.5 C 123.449,468.205 84.2823,454.872 53,418.5C 37.4395,390.332 32.6062,360.332 38.5,328.5C 39.1174,328.389 39.6174,328.056 40,327.5C 83.7285,371.062 127.229,414.728 170.5,458.5 Z"/></g>
<g><path style="opacity:1" fill="#717eb7" d="M 317.5,312.5 C 323.167,319.167 328.833,325.833 334.5,332.5C 338.132,337.467 342.132,342.133 346.5,346.5C 358.106,344.1 369.439,341.1 380.5,337.5C 386.067,344.955 391.401,352.621 396.5,360.5C 389.466,367.857 381.8,374.524 373.5,380.5C 368.5,384.5 363.5,388.5 358.5,392.5C 355.487,395.336 352.154,397.669 348.5,399.5C 328.833,378.833 309.167,358.167 289.5,337.5C 290.543,334.944 292.21,332.777 294.5,331C 302.06,324.597 309.727,318.43 317.5,312.5 Z"/></g>
<g><path style="opacity:1" fill="#fabd82" d="M 424.5,377.5 C 416.74,371.776 408.74,366.276 400.5,361C 399.748,360.329 399.414,359.496 399.5,358.5C 406.002,352.834 412.669,347.334 419.5,342C 420.759,341.018 422.092,340.685 423.5,341C 426.667,344.833 429.833,348.667 433,352.5C 437.263,363.467 434.429,371.8 424.5,377.5 Z"/></g>
<g><path style="opacity:1" fill="#f9ca9e" d="M 399.5,358.5 C 399.414,359.496 399.748,360.329 400.5,361C 408.74,366.276 416.74,371.776 424.5,377.5C 419.463,382.539 414.129,387.206 408.5,391.5C 402.833,395.5 397.167,399.5 391.5,403.5C 385.5,395.833 379.5,388.167 373.5,380.5C 381.8,374.524 389.466,367.857 396.5,360.5C 397.5,359.833 398.5,359.167 399.5,358.5 Z"/></g>
<g><path style="opacity:1" fill="#e65834" d="M 373.5,380.5 C 379.5,388.167 385.5,395.833 391.5,403.5C 387.485,407.513 383.152,411.179 378.5,414.5C 374.933,412.443 371.766,409.777 369,406.5C 366.37,402.868 363.37,399.535 360,396.5C 359.209,395.255 358.709,393.922 358.5,392.5C 363.5,388.5 368.5,384.5 373.5,380.5 Z"/></g>
<g><path style="opacity:1" fill="#e86043" d="M 358.5,392.5 C 358.709,393.922 359.209,395.255 360,396.5C 363.37,399.535 366.37,402.868 369,406.5C 371.766,409.777 374.933,412.443 378.5,414.5C 377.449,415.222 376.782,416.222 376.5,417.5C 373.833,419.5 371.167,421.5 368.5,423.5C 367.448,423.649 366.448,423.483 365.5,423C 359.253,415.588 352.586,408.755 345.5,402.5C 346.306,401.272 347.306,400.272 348.5,399.5C 352.154,397.669 355.487,395.336 358.5,392.5 Z"/></g>
<g><path style="opacity:1" fill="#444961" d="M 408.5,391.5 C 415.523,400.532 422.189,409.865 428.5,419.5C 419.827,428.173 411.494,437.173 403.5,446.5C 394.161,437.161 385.161,427.494 376.5,417.5C 376.782,416.222 377.449,415.222 378.5,414.5C 383.152,411.179 387.485,407.513 391.5,403.5C 397.167,399.5 402.833,395.5 408.5,391.5 Z"/></g>
<g><path style="opacity:1" fill="#ee6f5b" d="M 345.5,402.5 C 352.586,408.755 359.253,415.588 365.5,423C 366.448,423.483 367.448,423.649 368.5,423.5C 363.732,427.091 359.065,430.925 354.5,435C 352.655,436.128 350.655,436.628 348.5,436.5C 344.243,430.738 339.41,425.405 334,420.5C 332.579,418.595 331.412,416.595 330.5,414.5C 335.476,410.53 340.476,406.53 345.5,402.5 Z"/></g>
<g><path style="opacity:1" fill="#f37e6e" d="M 330.5,414.5 C 331.412,416.595 332.579,418.595 334,420.5C 339.41,425.405 344.243,430.738 348.5,436.5C 343.622,437.957 338.955,437.123 334.5,434C 331.216,430.595 328.05,427.095 325,423.5C 324.018,422.241 323.685,420.908 324,419.5C 326.287,417.946 328.454,416.279 330.5,414.5 Z"/></g>
<g><path style="opacity:1" fill="#50546c" d="M 428.5,419.5 C 434.193,428.184 439.859,436.851 445.5,445.5C 438.536,454.466 431.202,463.132 423.5,471.5C 422.824,469.141 421.991,466.808 421,464.5C 414.964,458.631 409.13,452.631 403.5,446.5C 411.494,437.173 419.827,428.173 428.5,419.5 Z"/></g>
<g><path style="opacity:1" fill="#595e75" d="M 445.5,445.5 C 460.314,451.778 464.148,462.111 457,476.5C 449.301,484.706 440.468,486.206 430.5,481C 427.177,478.517 424.843,475.351 423.5,471.5C 431.202,463.132 438.536,454.466 445.5,445.5 Z"/></g>
</svg>
