<?xml version="1.0" encoding="UTF-8"?>
<!DOCTYPE svg PUBLIC "-//W3C//DTD SVG 1.1//EN" "http://www.w3.org/Graphics/SVG/1.1/DTD/svg11.dtd">
<svg xmlns="http://www.w3.org/2000/svg" version="1.1" width="512px" height="512px" style="shape-rendering:geometricPrecision; text-rendering:geometricPrecision; image-rendering:optimizeQuality; fill-rule:evenodd; clip-rule:evenodd" xmlns:xlink="http://www.w3.org/1999/xlink">
<g><path style="opacity:1" fill="#f9f9f9" d="M 266.5,39.5 C 291.167,39.5 315.833,39.5 340.5,39.5C 337.833,54.1667 335.167,68.8333 332.5,83.5C 328.771,99.9076 325.771,116.574 323.5,133.5C 320.383,148.625 317.716,163.959 315.5,179.5C 315.5,180.5 315.5,181.5 315.5,182.5C 312.773,194.22 311.106,206.22 310.5,218.5C 309.465,222.739 308.799,227.072 308.5,231.5C 306.44,245.657 304.773,259.99 303.5,274.5C 301.458,288.623 300.125,302.957 299.5,317.5C 297.984,329.3 297.318,341.3 297.5,353.5C 296.167,362.5 296.167,371.5 297.5,380.5C 298.11,381.391 298.443,382.391 298.5,383.5C 305.63,396.596 315.963,399.763 329.5,393C 333.327,391.254 336.993,389.254 340.5,387C 343.906,385.76 345.573,386.927 345.5,390.5C 344.029,394.719 343.029,399.052 342.5,403.5C 340.46,409.668 340.127,416.001 341.5,422.5C 344.922,431.933 351.589,435.433 361.5,433C 365.15,431.555 368.817,430.555 372.5,430C 373.804,430.804 374.471,431.971 374.5,433.5C 371.405,450.638 377.405,463.304 392.5,471.5C 311.5,471.5 230.5,471.5 149.5,471.5C 172.769,463.304 182.436,446.971 178.5,422.5C 177.328,417.479 175.994,412.479 174.5,407.5C 174.623,406.075 174.957,404.742 175.5,403.5C 176.833,403.5 178.167,403.5 179.5,403.5C 183.299,406.504 187.632,408.67 192.5,410C 198.233,411.68 204.067,412.847 210,413.5C 217.551,413.318 223.051,409.984 226.5,403.5C 228.067,402.319 228.901,400.653 229,398.5C 229.499,393.511 229.666,388.511 229.5,383.5C 229.337,381.143 229.503,378.81 230,376.5C 230.383,375.944 230.883,375.611 231.5,375.5C 236.223,377.359 240.89,379.526 245.5,382C 254.094,383.895 259.928,380.729 263,372.5C 263.499,368.514 263.666,364.514 263.5,360.5C 265.08,347.217 266.08,333.884 266.5,320.5C 267.79,306.191 268.79,291.858 269.5,277.5C 269.5,273.5 269.5,269.5 269.5,265.5C 270.468,263.393 270.802,261.059 270.5,258.5C 270.32,249.472 270.653,240.472 271.5,231.5C 271.5,227.167 271.5,222.833 271.5,218.5C 271.5,216.5 271.5,214.5 271.5,212.5C 272.833,185.833 272.833,159.167 271.5,132.5C 271.828,121.654 271.494,110.987 270.5,100.5C 270.822,94.642 270.489,88.9753 269.5,83.5C 269.609,76.8039 269.276,70.1373 268.5,63.5C 267.613,55.5239 266.946,47.5239 266.5,39.5 Z"/></g>
<g><path style="opacity:1" fill="#8970ae" d="M 266.5,39.5 C 266.946,47.5239 267.613,55.5239 268.5,63.5C 249.993,61.1749 231.326,60.8416 212.5,62.5C 212.03,57.3155 211.364,52.1488 210.5,47C 210.081,44.019 211.081,41.6856 213.5,40C 231.164,39.5001 248.83,39.3334 266.5,39.5 Z"/></g>
<g><path style="opacity:1" fill="#8d6fae" d="M 126.5,87.5 C 118.559,88.0806 110.892,87.4139 103.5,85.5C 99.9159,71.2705 94.0826,57.9372 86,45.5C 85.3333,43.8333 85.3333,42.1667 86,40.5C 95.0887,39.3497 104.255,39.183 113.5,40C 121.017,54.894 125.35,70.7273 126.5,87.5 Z"/></g>
<g><path style="opacity:1" fill="#8d6fae" d="M 180.5,88.5 C 171.833,87.8333 163.167,87.1667 154.5,86.5C 150.824,71.9539 147.991,57.2873 146,42.5C 146.5,41.3333 147.333,40.5 148.5,40C 156.833,39.3333 165.167,39.3333 173.5,40C 174,40.5 174.5,41 175,41.5C 176.505,57.2132 178.338,72.8798 180.5,88.5 Z"/></g>
<g><path style="opacity:1" fill="#9070af" d="M 268.5,63.5 C 269.276,70.1373 269.609,76.8039 269.5,83.5C 269.5,84.8333 269.5,86.1667 269.5,87.5C 251.757,87.181 234.09,87.5143 216.5,88.5C 215.628,79.7259 214.295,71.0592 212.5,62.5C 231.326,60.8416 249.993,61.1749 268.5,63.5 Z"/></g>
<g><path style="opacity:1" fill="#8d70af" d="M 340.5,39.5 C 354.079,39.177 367.579,39.5103 381,40.5C 381.667,42.5 381.667,44.5 381,46.5C 375.554,60.3119 371.054,74.3119 367.5,88.5C 356.012,87.5051 344.345,87.1717 332.5,87.5C 332.5,86.1667 332.5,84.8333 332.5,83.5C 335.167,68.8333 337.833,54.1667 340.5,39.5 Z"/></g>
<g><path style="opacity:1" fill="#8f70af" d="M 432.5,39.5 C 443.172,39.3335 453.839,39.5002 464.5,40C 466.368,40.899 467.368,42.399 467.5,44.5C 458.632,71.6062 442.132,92.6062 418,107.5C 416.286,106.924 415.119,105.757 414.5,104C 423.019,85.4276 428.185,65.9276 430,45.5C 430.236,43.1887 431.069,41.1887 432.5,39.5 Z"/></g>
<g><path style="opacity:1" fill="#9676b4" d="M 269.5,83.5 C 270.489,88.9753 270.822,94.642 270.5,100.5C 270.5,103.167 270.5,105.833 270.5,108.5C 253.167,108.5 235.833,108.5 218.5,108.5C 217.906,101.825 217.24,95.1583 216.5,88.5C 234.09,87.5143 251.757,87.181 269.5,87.5C 269.5,86.1667 269.5,84.8333 269.5,83.5 Z"/></g>
<g><path style="opacity:1" fill="#9b75b4" d="M 103.5,85.5 C 110.892,87.4139 118.559,88.0806 126.5,87.5C 127.9,94.3197 129.067,101.32 130,108.5C 137.029,118.028 145.196,126.362 154.5,133.5C 142.655,133.172 130.988,133.505 119.5,134.5C 114.553,132.721 111.053,129.387 109,124.5C 107.412,111.46 105.578,98.4604 103.5,85.5 Z"/></g>
<g><path style="opacity:1" fill="#9a76b4" d="M 154.5,86.5 C 163.167,87.1667 171.833,87.8333 180.5,88.5C 182.91,103.549 185.577,118.549 188.5,133.5C 180.5,133.5 172.5,133.5 164.5,133.5C 160.932,118.003 157.599,102.336 154.5,86.5 Z"/></g>
<g><path style="opacity:1" fill="#9e78b6" d="M 270.5,100.5 C 271.494,110.987 271.828,121.654 271.5,132.5C 271.5,138.833 271.5,145.167 271.5,151.5C 254.423,151.818 237.423,151.485 220.5,150.5C 220.497,136.461 219.831,122.461 218.5,108.5C 235.833,108.5 253.167,108.5 270.5,108.5C 270.5,105.833 270.5,103.167 270.5,100.5 Z"/></g>
<g><path style="opacity:1" fill="#9b76b5" d="M 332.5,83.5 C 332.5,84.8333 332.5,86.1667 332.5,87.5C 344.345,87.1717 356.012,87.5051 367.5,88.5C 364.625,103.414 362.292,118.414 360.5,133.5C 348.167,133.5 335.833,133.5 323.5,133.5C 325.771,116.574 328.771,99.9076 332.5,83.5 Z"/></g>
<g><path style="opacity:1" fill="#a27cba" d="M 119.5,134.5 C 130.988,133.505 142.655,133.172 154.5,133.5C 158.124,135.951 161.624,138.617 165,141.5C 164.917,138.881 164.75,136.214 164.5,133.5C 172.5,133.5 180.5,133.5 188.5,133.5C 190.532,139.63 192.199,145.964 193.5,152.5C 177.244,151.516 160.911,151.182 144.5,151.5C 136.369,145.596 128.035,139.929 119.5,134.5 Z"/></g>
<g><path style="opacity:1" fill="#a87dbb" d="M 220.5,150.5 C 237.423,151.485 254.423,151.818 271.5,151.5C 271.5,159.833 271.5,168.167 271.5,176.5C 254.5,176.5 237.5,176.5 220.5,176.5C 220.5,167.833 220.5,159.167 220.5,150.5 Z"/></g>
<g><path style="opacity:1" fill="#aa7dbc" d="M 144.5,151.5 C 160.911,151.182 177.244,151.516 193.5,152.5C 196.652,163.441 199.652,174.441 202.5,185.5C 192.599,186.189 182.599,186.856 172.5,187.5C 169.867,181.57 166.7,175.903 163,170.5C 156.658,164.325 150.491,157.991 144.5,151.5 Z"/></g>
<g><path style="opacity:1" fill="#a77dbb" d="M 323.5,133.5 C 335.833,133.5 348.167,133.5 360.5,133.5C 359.06,145.816 358.227,158.149 358,170.5C 366.167,159.667 375.667,150.167 386.5,142C 389.847,140.794 392.18,141.794 393.5,145C 389.662,154.85 386.996,165.017 385.5,175.5C 362.575,176.489 339.575,176.822 316.5,176.5C 316.737,177.791 316.404,178.791 315.5,179.5C 317.716,163.959 320.383,148.625 323.5,133.5 Z"/></g>
<g><path style="opacity:1" fill="#ae7dc1" d="M 385.5,175.5 C 385.492,178.545 385.159,181.545 384.5,184.5C 361.73,186.474 338.73,187.14 315.5,186.5C 315.5,185.167 315.5,183.833 315.5,182.5C 315.5,181.5 315.5,180.5 315.5,179.5C 316.404,178.791 316.737,177.791 316.5,176.5C 339.575,176.822 362.575,176.489 385.5,175.5 Z"/></g>
<g><path style="opacity:1" fill="#ae7cc1" d="M 220.5,176.5 C 237.5,176.5 254.5,176.5 271.5,176.5C 271.5,179.833 271.5,183.167 271.5,186.5C 254.09,186.181 236.756,186.515 219.5,187.5C 219.724,183.821 220.058,180.154 220.5,176.5 Z"/></g>
<g><path style="opacity:1" fill="#af84c1" d="M 271.5,132.5 C 272.833,159.167 272.833,185.833 271.5,212.5C 271.5,207.833 271.5,203.167 271.5,198.5C 239.61,197.852 207.943,198.519 176.5,200.5C 175.936,195.907 174.603,191.574 172.5,187.5C 182.599,186.856 192.599,186.189 202.5,185.5C 204.718,192.774 209.385,194.941 216.5,192C 217.883,190.729 218.883,189.229 219.5,187.5C 236.756,186.515 254.09,186.181 271.5,186.5C 271.5,183.167 271.5,179.833 271.5,176.5C 271.5,168.167 271.5,159.833 271.5,151.5C 271.5,145.167 271.5,138.833 271.5,132.5 Z"/></g>
<g><path style="opacity:1" fill="#b483c1" d="M 271.5,212.5 C 271.5,214.5 271.5,216.5 271.5,218.5C 241.167,218.5 210.833,218.5 180.5,218.5C 179.167,212.5 177.833,206.5 176.5,200.5C 207.943,198.519 239.61,197.852 271.5,198.5C 271.5,203.167 271.5,207.833 271.5,212.5 Z"/></g>
<g><path style="opacity:1" fill="#b383c1" d="M 315.5,182.5 C 315.5,183.833 315.5,185.167 315.5,186.5C 338.73,187.14 361.73,186.474 384.5,184.5C 383.948,193.492 383.448,202.492 383,211.5C 382.484,214.547 380.984,216.88 378.5,218.5C 355.833,218.5 333.167,218.5 310.5,218.5C 311.106,206.22 312.773,194.22 315.5,182.5 Z"/></g>
<g><path style="opacity:1" fill="#ba83c8" d="M 180.5,218.5 C 210.833,218.5 241.167,218.5 271.5,218.5C 271.5,222.833 271.5,227.167 271.5,231.5C 260.5,231.5 249.5,231.5 238.5,231.5C 234.809,224.325 229.142,222.159 221.5,225C 219.235,226.758 217.568,228.925 216.5,231.5C 205.086,231.189 193.752,231.523 182.5,232.5C 181.617,227.868 180.95,223.202 180.5,218.5 Z"/></g>
<g><path style="opacity:1" fill="#ba83c8" d="M 310.5,218.5 C 333.167,218.5 355.833,218.5 378.5,218.5C 375.397,223.052 372.064,227.386 368.5,231.5C 348.5,231.5 328.5,231.5 308.5,231.5C 308.799,227.072 309.465,222.739 310.5,218.5 Z"/></g>
<g><path style="opacity:1" fill="#f8f7f9" d="M 238.5,231.5 C 240.6,239.196 239.6,246.362 235.5,253C 228.631,256.696 222.131,256.196 216,251.5C 213.95,244.768 214.117,238.102 216.5,231.5C 217.568,228.925 219.235,226.758 221.5,225C 229.142,222.159 234.809,224.325 238.5,231.5 Z"/></g>
<g><path style="opacity:1" fill="#b886c6" d="M 434.5,243.5 C 423.086,241.554 411.419,240.888 399.5,241.5C 409.643,222.845 422.31,206.012 437.5,191C 440.432,188.386 443.599,186.219 447,184.5C 450.293,185.138 451.293,187.138 450,190.5C 442.503,207.489 437.336,225.156 434.5,243.5 Z"/></g>
<g><path style="opacity:1" fill="#be89c8" d="M 99.5,277.5 C 91.5,277.5 83.5,277.5 75.5,277.5C 75.5041,267.675 73.3374,258.342 69,249.5C 61.6215,232.406 52.9548,216.073 43,200.5C 42.1782,197.483 43.3449,195.817 46.5,195.5C 63.2125,203.703 76.7125,215.703 87,231.5C 92.9968,240.494 97.6635,250.161 101,260.5C 101.868,266.423 101.368,272.089 99.5,277.5 Z"/></g>
<g><path style="opacity:1" fill="#bf89c8" d="M 216.5,231.5 C 214.117,238.102 213.95,244.768 216,251.5C 222.131,256.196 228.631,256.696 235.5,253C 239.6,246.362 240.6,239.196 238.5,231.5C 249.5,231.5 260.5,231.5 271.5,231.5C 270.653,240.472 270.32,249.472 270.5,258.5C 242.662,258.169 214.995,258.502 187.5,259.5C 185.744,250.643 184.077,241.643 182.5,232.5C 193.752,231.523 205.086,231.189 216.5,231.5 Z"/></g>
<g><path style="opacity:1" fill="#c08bc9" d="M 308.5,231.5 C 328.5,231.5 348.5,231.5 368.5,231.5C 359.507,245.82 351.84,260.82 345.5,276.5C 331.579,277.482 317.579,277.815 303.5,277.5C 303.5,276.5 303.5,275.5 303.5,274.5C 304.773,259.99 306.44,245.657 308.5,231.5 Z"/></g>
<g><path style="opacity:1" fill="#c18eca" d="M 140.5,249.5 C 152.734,251.239 157.901,258.239 156,270.5C 152.858,275.992 148.358,277.492 142.5,275C 133.876,270.988 131.043,264.488 134,255.5C 135.436,252.558 137.603,250.558 140.5,249.5 Z"/></g>
<g><path style="opacity:1" fill="#c18fc8" d="M 270.5,258.5 C 270.802,261.059 270.468,263.393 269.5,265.5C 242.5,265.5 215.5,265.5 188.5,265.5C 187.539,263.735 187.205,261.735 187.5,259.5C 214.995,258.502 242.662,258.169 270.5,258.5 Z"/></g>
<g><path style="opacity:1" fill="#c28dcb" d="M 399.5,241.5 C 411.419,240.888 423.086,241.554 434.5,243.5C 433.215,246.118 433.548,248.618 435.5,251C 439.029,252.466 442.695,253.466 446.5,254C 447.931,254.465 449.097,255.299 450,256.5C 451.265,263.435 452.098,270.435 452.5,277.5C 440.167,277.5 427.833,277.5 415.5,277.5C 407.763,272.211 399.596,267.544 391,263.5C 390.333,261.167 390.333,258.833 391,256.5C 393.861,251.437 396.694,246.437 399.5,241.5 Z"/></g>
<g><path style="opacity:1" fill="#c38ece" d="M 188.5,265.5 C 215.5,265.5 242.5,265.5 269.5,265.5C 269.5,269.5 269.5,273.5 269.5,277.5C 242.759,277.824 216.092,277.491 189.5,276.5C 188.886,272.865 188.552,269.198 188.5,265.5 Z"/></g>
<g><path style="opacity:1" fill="#ca9ad1" d="M 415.5,277.5 C 427.833,277.5 440.167,277.5 452.5,277.5C 455.499,289.659 460.165,301.159 466.5,312C 465.504,316.161 463.171,319.328 459.5,321.5C 446.677,320.505 433.677,320.171 420.5,320.5C 430.689,304.78 429.022,290.447 415.5,277.5 Z"/></g>
<g><path style="opacity:1" fill="#cb9ad1" d="M 75.5,277.5 C 83.5,277.5 91.5,277.5 99.5,277.5C 98.9842,285.007 98.3175,292.507 97.5,300C 98.0277,306.922 99.0277,313.755 100.5,320.5C 89.5,320.5 78.5,320.5 67.5,320.5C 71.2026,306.323 73.8692,291.99 75.5,277.5 Z"/></g>
<g><path style="opacity:1" fill="#ca99d1" d="M 189.5,276.5 C 216.092,277.491 242.759,277.824 269.5,277.5C 268.79,291.858 267.79,306.191 266.5,320.5C 242.833,320.5 219.167,320.5 195.5,320.5C 193.827,305.78 191.827,291.114 189.5,276.5 Z"/></g>
<g><path style="opacity:1" fill="#ca9ad1" d="M 303.5,274.5 C 303.5,275.5 303.5,276.5 303.5,277.5C 317.579,277.815 331.579,277.482 345.5,276.5C 340.906,290.803 338.24,305.47 337.5,320.5C 324.833,320.5 312.167,320.5 299.5,320.5C 299.5,319.5 299.5,318.5 299.5,317.5C 300.125,302.957 301.458,288.623 303.5,274.5 Z"/></g>
<g><path style="opacity:1" fill="#d1a5d7" d="M 195.5,320.5 C 219.167,320.5 242.833,320.5 266.5,320.5C 266.08,333.884 265.08,347.217 263.5,360.5C 203.167,360.5 142.833,360.5 82.5,360.5C 75.1195,354.721 67.6195,349.054 60,343.5C 59.3333,341.167 59.3333,338.833 60,336.5C 62.8052,331.227 65.3052,325.894 67.5,320.5C 78.5,320.5 89.5,320.5 100.5,320.5C 109.103,340.972 124.436,349.138 146.5,345C 152.82,342.014 156.987,337.181 159,330.5C 160.078,324.443 161.411,318.443 163,312.5C 165.592,311.018 167.925,311.352 170,313.5C 173.612,323.391 178.279,332.724 184,341.5C 190.022,347.369 194.522,346.369 197.5,338.5C 196.534,332.549 195.868,326.549 195.5,320.5 Z"/></g>
<g><path style="opacity:1" fill="#d1a6d7" d="M 299.5,317.5 C 299.5,318.5 299.5,319.5 299.5,320.5C 312.167,320.5 324.833,320.5 337.5,320.5C 337.123,327.257 337.623,333.924 339,340.5C 343.605,348.214 350.105,350.381 358.5,347C 364.997,343.586 371.33,339.919 377.5,336C 383.35,336.322 389.184,337.156 395,338.5C 400.049,338.595 404.549,337.095 408.5,334C 412.635,329.522 416.635,325.022 420.5,320.5C 433.677,320.171 446.677,320.505 459.5,321.5C 446.572,333.746 435.572,347.413 426.5,362.5C 383.846,360.505 340.846,359.839 297.5,360.5C 297.5,358.167 297.5,355.833 297.5,353.5C 297.318,341.3 297.984,329.3 299.5,317.5 Z"/></g>
<g><path style="opacity:1" fill="#d4afda" d="M 82.5,360.5 C 142.833,360.5 203.167,360.5 263.5,360.5C 263.666,364.514 263.499,368.514 263,372.5C 259.928,380.729 254.094,383.895 245.5,382C 240.89,379.526 236.223,377.359 231.5,375.5C 187.67,374.501 143.67,374.168 99.5,374.5C 93.8086,369.803 88.142,365.137 82.5,360.5 Z"/></g>
<g><path style="opacity:1" fill="#d4afda" d="M 297.5,353.5 C 297.5,355.833 297.5,358.167 297.5,360.5C 340.846,359.839 383.846,360.505 426.5,362.5C 424.513,366.473 422.513,370.473 420.5,374.5C 379.5,374.5 338.5,374.5 297.5,374.5C 297.5,376.5 297.5,378.5 297.5,380.5C 296.167,371.5 296.167,362.5 297.5,353.5 Z"/></g>
<g><path style="opacity:1" fill="#daaedb" d="M 99.5,374.5 C 143.67,374.168 187.67,374.501 231.5,375.5C 230.883,375.611 230.383,375.944 230,376.5C 229.503,378.81 229.337,381.143 229.5,383.5C 189.663,383.168 149.996,383.501 110.5,384.5C 106.603,381.391 102.936,378.057 99.5,374.5 Z"/></g>
<g><path style="opacity:1" fill="#daafdb" d="M 420.5,374.5 C 419.441,377.618 418.108,380.618 416.5,383.5C 377.167,383.5 337.833,383.5 298.5,383.5C 298.443,382.391 298.11,381.391 297.5,380.5C 297.5,378.5 297.5,376.5 297.5,374.5C 338.5,374.5 379.5,374.5 420.5,374.5 Z"/></g>
<g><path style="opacity:1" fill="#dab5e1" d="M 229.5,383.5 C 229.666,388.511 229.499,393.511 229,398.5C 228.901,400.653 228.067,402.319 226.5,403.5C 210.833,403.5 195.167,403.5 179.5,403.5C 178.167,403.5 176.833,403.5 175.5,403.5C 160.324,403.171 145.324,403.504 130.5,404.5C 123.5,398.167 116.833,391.5 110.5,384.5C 149.996,383.501 189.663,383.168 229.5,383.5 Z"/></g>
<g><path style="opacity:1" fill="#dab5e1" d="M 298.5,383.5 C 337.833,383.5 377.167,383.5 416.5,383.5C 413.969,390.426 411.636,397.426 409.5,404.5C 387.242,403.511 364.908,403.178 342.5,403.5C 343.029,399.052 344.029,394.719 345.5,390.5C 345.573,386.927 343.906,385.76 340.5,387C 336.993,389.254 333.327,391.254 329.5,393C 315.963,399.763 305.63,396.596 298.5,383.5 Z"/></g>
<g><path style="opacity:1" fill="#dab2df" d="M 456.5,374.5 C 467.089,375.567 470.256,380.901 466,390.5C 460.048,394.888 454.715,394.221 450,388.5C 448.189,381.796 450.355,377.129 456.5,374.5 Z"/></g>
<g><path style="opacity:1" fill="#e0bbe1" d="M 175.5,403.5 C 174.957,404.742 174.623,406.075 174.5,407.5C 175.994,412.479 177.328,417.479 178.5,422.5C 152.092,422.176 125.759,422.51 99.5,423.5C 98.9916,421.135 98.3249,418.801 97.5,416.5C 98.1667,414.5 99.5,413.167 101.5,412.5C 108.925,415.442 116.592,416.942 124.5,417C 129.927,414.559 131.927,410.392 130.5,404.5C 145.324,403.504 160.324,403.171 175.5,403.5 Z"/></g>
<g><path style="opacity:1" fill="#dfbde2" d="M 179.5,403.5 C 195.167,403.5 210.833,403.5 226.5,403.5C 223.051,409.984 217.551,413.318 210,413.5C 204.067,412.847 198.233,411.68 192.5,410C 187.632,408.67 183.299,406.504 179.5,403.5 Z"/></g>
<g><path style="opacity:1" fill="#e0bbe1" d="M 342.5,403.5 C 364.908,403.178 387.242,403.511 409.5,404.5C 408.333,411.871 411.5,416.538 419,418.5C 424.011,416.745 428.844,414.578 433.5,412C 435.167,411.333 436.833,411.333 438.5,412C 439.466,415.435 439.466,418.935 438.5,422.5C 406.167,422.5 373.833,422.5 341.5,422.5C 340.127,416.001 340.46,409.668 342.5,403.5 Z"/></g>
<g><path style="opacity:1" fill="#e1c1e6" d="M 178.5,422.5 C 182.436,446.971 172.769,463.304 149.5,471.5C 120.831,471.667 92.1647,471.5 63.5,471C 60.9557,468.778 60.9557,466.611 63.5,464.5C 75.7056,461.315 86.5389,455.649 96,447.5C 100.366,439.973 101.533,431.973 99.5,423.5C 125.759,422.51 152.092,422.176 178.5,422.5 Z"/></g>
<g><path style="opacity:1" fill="#e1c1e6" d="M 341.5,422.5 C 373.833,422.5 406.167,422.5 438.5,422.5C 435.435,440.803 441.601,455.137 457,465.5C 457.667,467.167 457.667,468.833 457,470.5C 435.575,471.494 414.075,471.827 392.5,471.5C 377.405,463.304 371.405,450.638 374.5,433.5C 374.471,431.971 373.804,430.804 372.5,430C 368.817,430.555 365.15,431.555 361.5,433C 351.589,435.433 344.922,431.933 341.5,422.5 Z"/></g>
</svg>
