<?xml version="1.0" encoding="UTF-8"?>
<!DOCTYPE svg PUBLIC "-//W3C//DTD SVG 1.1//EN" "http://www.w3.org/Graphics/SVG/1.1/DTD/svg11.dtd">
<svg xmlns="http://www.w3.org/2000/svg" version="1.1" width="512px" height="512px" style="shape-rendering:geometricPrecision; text-rendering:geometricPrecision; image-rendering:optimizeQuality; fill-rule:evenodd; clip-rule:evenodd" xmlns:xlink="http://www.w3.org/1999/xlink">
<g><path style="opacity:1" fill="#fa969c" d="M 329.5,31.5 C 337.449,30.8875 342.949,34.2208 346,41.5C 348.525,51.4414 347.858,61.1081 344,70.5C 336.25,79.8745 327.584,80.8745 318,73.5C 310.946,59.6358 312.446,46.8024 322.5,35C 324.925,33.7874 327.259,32.6207 329.5,31.5 Z"/></g>
<g><path style="opacity:1" fill="#fa949c" d="M 149.5,51.5 C 153.792,51.0349 157.792,51.8682 161.5,54C 173.063,63.4166 175.896,74.9166 170,88.5C 165.413,93.6182 159.913,94.7849 153.5,92C 140.579,85.5967 136.412,75.43 141,61.5C 142.289,56.7209 145.123,53.3875 149.5,51.5 Z"/></g>
<g><path style="opacity:1" fill="#fa959c" d="M 273.5,81.5 C 259.53,80.1822 245.53,80.1822 231.5,81.5C 234.801,76.1176 237.634,70.4509 240,64.5C 247.426,57.2911 255.426,56.6244 264,62.5C 267.705,68.5765 270.872,74.9099 273.5,81.5 Z"/></g>
<g><path style="opacity:1" fill="#fa8f9c" d="M 273.5,81.5 C 279.307,91.9821 286.307,101.649 294.5,110.5C 266.833,110.5 239.167,110.5 211.5,110.5C 219.401,101.704 226.067,92.0368 231.5,81.5C 245.53,80.1822 259.53,80.1822 273.5,81.5 Z"/></g>
<g><path style="opacity:1" fill="#fa89a2" d="M 211.5,110.5 C 239.167,110.5 266.833,110.5 294.5,110.5C 315.979,129.864 340.146,133.864 367,122.5C 376.574,124.24 382.408,129.907 384.5,139.5C 296.827,140.164 209.494,139.497 122.5,137.5C 123.9,128.436 129.233,123.436 138.5,122.5C 151.055,127.511 164.055,129.344 177.5,128C 190.407,125.048 201.74,119.214 211.5,110.5 Z"/></g>
<g><path style="opacity:1" fill="#f983a2" d="M 122.5,137.5 C 209.494,139.497 296.827,140.164 384.5,139.5C 385.26,145.804 385.593,152.137 385.5,158.5C 384.566,157.432 384.232,156.099 384.5,154.5C 342.833,154.5 301.167,154.5 259.5,154.5C 257.887,151.714 256.054,149.047 254,146.5C 253.31,145.262 252.81,145.262 252.5,146.5C 250.167,149.167 247.833,151.833 245.5,154.5C 203.761,154.827 162.094,154.494 120.5,153.5C 120.156,147.902 120.822,142.568 122.5,137.5 Z"/></g>
<g><path style="opacity:1" fill="#faf9f9" d="M 252.5,146.5 C 252.5,178.5 252.5,210.5 252.5,242.5C 252.5,256.5 252.5,270.5 252.5,284.5C 242.782,286.709 233.116,289.043 223.5,291.5C 222.783,284.174 222.116,276.841 221.5,269.5C 220.698,258.477 219.698,247.477 218.5,236.5C 217.338,226.536 216.671,216.536 216.5,206.5C 222.293,194.25 228.626,182.25 235.5,170.5C 239.221,165.438 242.555,160.104 245.5,154.5C 247.833,151.833 250.167,149.167 252.5,146.5 Z"/></g>
<g><path style="opacity:1" fill="#f6d7f8" d="M 259.5,154.5 C 263.179,159.871 266.846,165.204 270.5,170.5C 276.518,181.873 282.518,193.206 288.5,204.5C 289.15,206.435 289.483,208.435 289.5,210.5C 277.5,210.5 265.5,210.5 253.5,210.5C 253.828,221.346 253.494,232.013 252.5,242.5C 252.5,210.5 252.5,178.5 252.5,146.5C 252.81,145.262 253.31,145.262 254,146.5C 256.054,149.047 257.887,151.714 259.5,154.5 Z"/></g>
<g><path style="opacity:1" fill="#f383a2" d="M 120.5,153.5 C 162.094,154.494 203.761,154.827 245.5,154.5C 242.555,160.104 239.221,165.438 235.5,170.5C 197.931,169.827 160.264,169.161 122.5,168.5C 120.961,163.657 120.294,158.657 120.5,153.5 Z"/></g>
<g><path style="opacity:1" fill="#f383a2" d="M 259.5,154.5 C 301.167,154.5 342.833,154.5 384.5,154.5C 384.232,156.099 384.566,157.432 385.5,158.5C 384.866,162.373 383.866,166.039 382.5,169.5C 344.996,169.168 307.663,169.502 270.5,170.5C 266.846,165.204 263.179,159.871 259.5,154.5 Z"/></g>
<g><path style="opacity:1" fill="#f582a1" d="M 434.5,136.5 C 453.642,136.504 460.475,145.837 455,164.5C 451.157,177.003 442.99,181.503 430.5,178C 423.209,174.921 419.876,169.421 420.5,161.5C 420.315,150.181 424.982,141.848 434.5,136.5 Z"/></g>
<g><path style="opacity:1" fill="#f37ca2" d="M 64.5,169.5 C 68.3076,169.163 71.9743,169.663 75.5,171C 87.431,179.564 90.931,190.731 86,204.5C 78.5949,211.844 70.0949,213.344 60.5,209C 55.8549,204.904 53.8549,199.737 54.5,193.5C 54.5863,186.822 56.0863,180.489 59,174.5C 60.7297,172.598 62.563,170.931 64.5,169.5 Z"/></g>
<g><path style="opacity:1" fill="#f37da2" d="M 122.5,168.5 C 160.264,169.161 197.931,169.827 235.5,170.5C 228.626,182.25 222.293,194.25 216.5,206.5C 195.192,204.511 173.526,203.844 151.5,204.5C 137.092,196.368 127.426,184.368 122.5,168.5 Z"/></g>
<g><path style="opacity:1" fill="#f37da2" d="M 382.5,169.5 C 379.917,177.997 375.751,185.663 370,192.5C 364.742,197.203 359.242,201.537 353.5,205.5C 332.006,204.503 310.34,204.169 288.5,204.5C 282.518,193.206 276.518,181.873 270.5,170.5C 307.663,169.502 344.996,169.168 382.5,169.5 Z"/></g>
<g><path style="opacity:1" fill="#f376a2" d="M 151.5,204.5 C 173.526,203.844 195.192,204.511 216.5,206.5C 216.671,216.536 217.338,226.536 218.5,236.5C 217.596,235.791 217.263,234.791 217.5,233.5C 200.5,233.5 183.5,233.5 166.5,233.5C 167.034,228.099 165.867,223.099 163,218.5C 159.71,213.378 155.877,208.711 151.5,204.5 Z"/></g>
<g><path style="opacity:1" fill="#f376a2" d="M 288.5,204.5 C 310.34,204.169 332.006,204.503 353.5,205.5C 344.812,212.877 339.812,222.211 338.5,233.5C 321.5,233.5 304.5,233.5 287.5,233.5C 287.969,225.814 288.635,218.147 289.5,210.5C 289.483,208.435 289.15,206.435 288.5,204.5 Z"/></g>
<g><path style="opacity:1" fill="#e7c9ef" d="M 289.5,210.5 C 288.635,218.147 287.969,225.814 287.5,233.5C 287.259,238.694 286.593,243.694 285.5,248.5C 274.833,248.5 264.167,248.5 253.5,248.5C 253.5,265.833 253.5,283.167 253.5,300.5C 253.828,311.346 253.494,322.013 252.5,332.5C 252.5,330.167 252.5,327.833 252.5,325.5C 252.5,311.833 252.5,298.167 252.5,284.5C 252.5,270.5 252.5,256.5 252.5,242.5C 253.494,232.013 253.828,221.346 253.5,210.5C 265.5,210.5 277.5,210.5 289.5,210.5 Z"/></g>
<g><path style="opacity:1" fill="#f370a2" d="M 166.5,233.5 C 183.5,233.5 200.5,233.5 217.5,233.5C 217.263,234.791 217.596,235.791 218.5,236.5C 219.698,247.477 220.698,258.477 221.5,269.5C 221.167,269.5 220.833,269.5 220.5,269.5C 220.5,267.5 220.5,265.5 220.5,263.5C 181.094,263.173 141.761,263.506 102.5,264.5C 102.649,257.52 106.149,253.52 113,252.5C 119.547,255.686 126.38,258.186 133.5,260C 152.723,261.268 163.723,252.435 166.5,233.5 Z"/></g>
<g><path style="opacity:1" fill="#f270a2" d="M 287.5,233.5 C 304.5,233.5 321.5,233.5 338.5,233.5C 341.955,251.792 352.955,260.626 371.5,260C 379.04,258.476 386.206,255.976 393,252.5C 400.752,254.445 403.918,259.445 402.5,267.5C 401.566,266.432 401.232,265.099 401.5,263.5C 362.833,263.5 324.167,263.5 285.5,263.5C 285.768,265.099 285.434,266.432 284.5,267.5C 285.014,261.178 285.347,254.845 285.5,248.5C 286.593,243.694 287.259,238.694 287.5,233.5 Z"/></g>
<g><path style="opacity:1" fill="#f369a2" d="M 220.5,269.5 C 181.833,269.5 143.167,269.5 104.5,269.5C 103.691,267.972 103.024,266.306 102.5,264.5C 141.761,263.506 181.094,263.173 220.5,263.5C 220.5,265.5 220.5,267.5 220.5,269.5 Z"/></g>
<g><path style="opacity:1" fill="#f369a2" d="M 402.5,267.5 C 401.89,268.391 401.557,269.391 401.5,270.5C 362.573,269.506 323.573,269.173 284.5,269.5C 284.5,268.833 284.5,268.167 284.5,267.5C 285.434,266.432 285.768,265.099 285.5,263.5C 324.167,263.5 362.833,263.5 401.5,263.5C 401.232,265.099 401.566,266.432 402.5,267.5 Z"/></g>
<g><path style="opacity:1" fill="#dabae7" d="M 285.5,248.5 C 285.347,254.845 285.014,261.178 284.5,267.5C 284.5,268.167 284.5,268.833 284.5,269.5C 283.427,279.156 282.427,288.823 281.5,298.5C 281.5,299.167 281.5,299.833 281.5,300.5C 272.167,300.5 262.833,300.5 253.5,300.5C 253.5,283.167 253.5,265.833 253.5,248.5C 264.167,248.5 274.833,248.5 285.5,248.5 Z"/></g>
<g><path style="opacity:1" fill="#ed6aa2" d="M 104.5,269.5 C 143.167,269.5 181.833,269.5 220.5,269.5C 220.833,269.5 221.167,269.5 221.5,269.5C 222.116,276.841 222.783,284.174 223.5,291.5C 223.5,292.167 223.5,292.833 223.5,293.5C 187.329,293.168 151.329,293.502 115.5,294.5C 109.418,287.327 105.752,278.994 104.5,269.5 Z"/></g>
<g><path style="opacity:1" fill="#ed6aa2" d="M 284.5,269.5 C 323.573,269.173 362.573,269.506 401.5,270.5C 399.422,279.317 395.755,287.317 390.5,294.5C 354.671,293.502 318.671,293.168 282.5,293.5C 282.784,295.415 282.451,297.081 281.5,298.5C 282.427,288.823 283.427,279.156 284.5,269.5 Z"/></g>
<g><path style="opacity:1" fill="#f9f1f9" d="M 252.5,284.5 C 252.5,298.167 252.5,311.833 252.5,325.5C 244.597,326.767 236.764,328.433 229,330.5C 228.098,330.257 227.265,329.923 226.5,329.5C 226.5,328.833 226.5,328.167 226.5,327.5C 225.217,316.201 224.217,304.867 223.5,293.5C 223.5,292.833 223.5,292.167 223.5,291.5C 233.116,289.043 242.782,286.709 252.5,284.5 Z"/></g>
<g><path style="opacity:1" fill="#ed64a2" d="M 223.5,293.5 C 224.217,304.867 225.217,316.201 226.5,327.5C 204.66,327.169 182.994,327.503 161.5,328.5C 142.411,322.054 127.077,310.721 115.5,294.5C 151.329,293.502 187.329,293.168 223.5,293.5 Z"/></g>
<g><path style="opacity:1" fill="#ec64a2" d="M 390.5,294.5 C 378.899,310.752 363.566,322.085 344.5,328.5C 323.006,327.503 301.34,327.169 279.5,327.5C 279.802,330.059 279.468,332.393 278.5,334.5C 279.5,323.168 280.5,311.834 281.5,300.5C 281.5,299.833 281.5,299.167 281.5,298.5C 282.451,297.081 282.784,295.415 282.5,293.5C 318.671,293.168 354.671,293.502 390.5,294.5 Z"/></g>
<g><path style="opacity:1" fill="#c8a8dc" d="M 253.5,300.5 C 262.833,300.5 272.167,300.5 281.5,300.5C 280.5,311.834 279.5,323.168 278.5,334.5C 277.739,341.824 277.073,349.158 276.5,356.5C 268.833,356.5 261.167,356.5 253.5,356.5C 253.823,363.022 253.49,369.355 252.5,375.5C 252.5,361.167 252.5,346.833 252.5,332.5C 253.494,322.013 253.828,311.346 253.5,300.5 Z"/></g>
<g><path style="opacity:1" fill="#f9ebf9" d="M 252.5,325.5 C 252.5,327.833 252.5,330.167 252.5,332.5C 252.5,346.833 252.5,361.167 252.5,375.5C 245.167,377.833 237.833,380.167 230.5,382.5C 230.5,379.833 230.5,377.167 230.5,374.5C 229.887,359.427 228.554,344.427 226.5,329.5C 227.265,329.923 228.098,330.257 229,330.5C 236.764,328.433 244.597,326.767 252.5,325.5 Z"/></g>
<g><path style="opacity:1" fill="#ed5da2" d="M 161.5,328.5 C 182.994,327.503 204.66,327.169 226.5,327.5C 226.5,328.167 226.5,328.833 226.5,329.5C 228.554,344.427 229.887,359.427 230.5,374.5C 215.532,358.187 198.198,345.02 178.5,335C 172.922,332.531 167.255,330.364 161.5,328.5 Z"/></g>
<g><path style="opacity:1" fill="#ec5ca2" d="M 344.5,328.5 C 317.041,336.619 294.041,351.619 275.5,373.5C 275.532,367.811 275.866,362.145 276.5,356.5C 277.073,349.158 277.739,341.824 278.5,334.5C 279.468,332.393 279.802,330.059 279.5,327.5C 301.34,327.169 323.006,327.503 344.5,328.5 Z"/></g>
<g><path style="opacity:1" fill="#b697d0" d="M 276.5,356.5 C 275.866,362.145 275.532,367.811 275.5,373.5C 274.533,382.81 273.866,392.143 273.5,401.5C 266.5,401.5 259.5,401.5 252.5,401.5C 245.833,401.5 239.167,401.5 232.5,401.5C 232.19,395.082 231.523,388.749 230.5,382.5C 237.833,380.167 245.167,377.833 252.5,375.5C 253.49,369.355 253.823,363.022 253.5,356.5C 261.167,356.5 268.833,356.5 276.5,356.5 Z"/></g>
<g><path style="opacity:1" fill="#fab169" d="M 219.5,401.5 C 221.167,408.833 222.833,416.167 224.5,423.5C 209.985,423.295 204.318,415.962 207.5,401.5C 211.5,401.5 215.5,401.5 219.5,401.5 Z"/></g>
<g><path style="opacity:1" fill="#fabd82" d="M 219.5,401.5 C 223.833,401.5 228.167,401.5 232.5,401.5C 234.418,408.754 236.085,416.088 237.5,423.5C 233.167,423.5 228.833,423.5 224.5,423.5C 222.833,416.167 221.167,408.833 219.5,401.5 Z"/></g>
<g><path style="opacity:1" fill="#e96346" d="M 252.5,401.5 C 259.5,401.5 266.5,401.5 273.5,401.5C 277.5,401.5 281.5,401.5 285.5,401.5C 284.882,408.817 284.549,416.151 284.5,423.5C 279.167,423.5 273.833,423.5 268.5,423.5C 268.97,416.601 269.636,409.768 270.5,403C 264.843,402.501 259.176,402.334 253.5,402.5C 253.5,409.167 253.5,415.833 253.5,422.5C 253.167,422.5 252.833,422.5 252.5,422.5C 252.5,415.5 252.5,408.5 252.5,401.5 Z"/></g>
<g><path style="opacity:1" fill="#f07361" d="M 285.5,401.5 C 289.833,401.5 294.167,401.5 298.5,401.5C 299.111,407.434 298.278,413.1 296,418.5C 292.901,421.812 289.067,423.479 284.5,423.5C 284.549,416.151 284.882,408.817 285.5,401.5 Z"/></g>
<g><path style="opacity:1" fill="#f9ca9e" d="M 232.5,401.5 C 239.167,401.5 245.833,401.5 252.5,401.5C 252.5,408.5 252.5,415.5 252.5,422.5C 247.405,422.221 242.405,422.555 237.5,423.5C 236.085,416.088 234.418,408.754 232.5,401.5 Z"/></g>
<g><path style="opacity:1" fill="#e75733" d="M 268.5,423.5 C 268.167,423.5 267.833,423.5 267.5,423.5C 263.03,422.514 258.363,422.181 253.5,422.5C 253.5,415.833 253.5,409.167 253.5,402.5C 259.176,402.334 264.843,402.501 270.5,403C 269.636,409.768 268.97,416.601 268.5,423.5 Z"/></g>
<g><path style="opacity:1" fill="#464961" d="M 252.5,422.5 C 252.833,422.5 253.167,422.5 253.5,422.5C 258.363,422.181 263.03,422.514 267.5,423.5C 267.468,429.189 267.134,434.855 266.5,440.5C 257.5,441.833 248.5,443.167 239.5,444.5C 238.998,437.475 238.331,430.475 237.5,423.5C 242.405,422.555 247.405,422.221 252.5,422.5 Z"/></g>
<g><path style="opacity:1" fill="#52576e" d="M 266.5,440.5 C 265.667,451.161 264.834,461.827 264,472.5C 263.606,475.893 261.773,478.06 258.5,479C 254.833,479.667 251.167,479.667 247.5,479C 245.671,478.727 244.171,477.893 243,476.5C 241.098,465.952 239.931,455.285 239.5,444.5C 248.5,443.167 257.5,441.833 266.5,440.5 Z"/></g>
</svg>
