<?xml version="1.0" encoding="UTF-8"?>
<!DOCTYPE svg PUBLIC "-//W3C//DTD SVG 1.1//EN" "http://www.w3.org/Graphics/SVG/1.1/DTD/svg11.dtd">
<svg xmlns="http://www.w3.org/2000/svg" version="1.1" width="512px" height="512px" style="shape-rendering:geometricPrecision; text-rendering:geometricPrecision; image-rendering:optimizeQuality; fill-rule:evenodd; clip-rule:evenodd" xmlns:xlink="http://www.w3.org/1999/xlink">
<g><path style="opacity:1" fill="#fac76f" d="M 457.5,65.5 C 451.299,62.2349 445.632,58.2349 440.5,53.5C 446.004,48.8334 451.67,44.3334 457.5,40C 465.717,38.2323 469.55,41.399 469,49.5C 465.691,55.2936 461.858,60.6269 457.5,65.5 Z"/></g>
<g><path style="opacity:1" fill="#fac174" d="M 440.5,53.5 C 445.632,58.2349 451.299,62.2349 457.5,65.5C 452.881,72.7837 447.881,79.7837 442.5,86.5C 437.021,81.8639 431.354,77.3639 425.5,73C 423.859,71.871 422.859,70.371 422.5,68.5C 428.475,63.5297 434.475,58.5297 440.5,53.5 Z"/></g>
<g><path style="opacity:1" fill="#faa975" d="M 280.5,87.5 C 274.5,82.1667 268.5,76.8333 262.5,71.5C 271.103,65.5235 280.103,60.0235 289.5,55C 301,53.4883 304.5,57.9883 300,68.5C 293.631,75.036 287.131,81.3694 280.5,87.5 Z"/></g>
<g><path style="opacity:1" fill="#fab675" d="M 380.5,51.5 C 390.518,51.8615 393.018,56.5282 388,65.5C 384.425,70.7996 380.258,75.6329 375.5,80C 366.905,83.9555 361.572,81.4555 359.5,72.5C 362.867,61.8 369.867,54.8 380.5,51.5 Z"/></g>
<g><path style="opacity:1" fill="#fab775" d="M 422.5,68.5 C 422.859,70.371 423.859,71.871 425.5,73C 431.354,77.3639 437.021,81.8639 442.5,86.5C 433.215,100.449 423.548,114.116 413.5,127.5C 413.489,125.983 412.823,124.816 411.5,124C 401.958,116.285 392.291,108.785 382.5,101.5C 395.425,90.033 408.759,79.033 422.5,68.5 Z"/></g>
<g><path style="opacity:1" fill="#fa9e76" d="M 262.5,71.5 C 268.5,76.8333 274.5,82.1667 280.5,87.5C 271.698,96.1334 262.698,104.633 253.5,113C 247.833,116.333 242.167,116.333 236.5,113C 232.318,108.033 231.484,102.533 234,96.5C 242.483,86.8405 251.983,78.5071 262.5,71.5 Z"/></g>
<g><path style="opacity:1" fill="#faa875" d="M 359.5,120.5 C 360.922,120.709 362.255,121.209 363.5,122C 374.708,131.38 386.041,140.546 397.5,149.5C 393.233,157.037 388.233,164.037 382.5,170.5C 382.586,169.504 382.252,168.671 381.5,168C 359.397,150.961 337.731,133.461 316.5,115.5C 325.16,109.83 333.493,103.664 341.5,97C 349.516,94.9991 354.183,97.9991 355.5,106C 354.708,110.045 353.708,114.045 352.5,118C 353.848,121.505 356.181,122.339 359.5,120.5 Z"/></g>
<g><path style="opacity:1" fill="#faaf75" d="M 382.5,101.5 C 392.291,108.785 401.958,116.285 411.5,124C 412.823,124.816 413.489,125.983 413.5,127.5C 408.644,135.226 403.311,142.559 397.5,149.5C 386.041,140.546 374.708,131.38 363.5,122C 362.255,121.209 360.922,120.709 359.5,120.5C 366.851,113.819 374.517,107.486 382.5,101.5 Z"/></g>
<g><path style="opacity:1" fill="#faa175" d="M 316.5,115.5 C 337.731,133.461 359.397,150.961 381.5,168C 382.252,168.671 382.586,169.504 382.5,170.5C 378.323,177.525 373.656,184.192 368.5,190.5C 367.091,188.583 365.424,186.75 363.5,185C 339.625,165.62 315.625,146.453 291.5,127.5C 300.139,124.279 308.473,120.279 316.5,115.5 Z"/></g>
<g><path style="opacity:1" fill="#fa9c75" d="M 291.5,127.5 C 315.625,146.453 339.625,165.62 363.5,185C 365.424,186.75 367.091,188.583 368.5,190.5C 364.55,197.113 360.217,203.446 355.5,209.5C 325.249,186.251 295.582,162.251 266.5,137.5C 274.213,132.817 282.546,129.484 291.5,127.5 Z"/></g>
<g><path style="opacity:1" fill="#fa9675" d="M 266.5,137.5 C 295.582,162.251 325.249,186.251 355.5,209.5C 350.46,217.898 345.793,226.564 341.5,235.5C 309.167,209.5 276.833,183.5 244.5,157.5C 249.61,148.39 256.943,141.724 266.5,137.5 Z"/></g>
<g><path style="opacity:1" fill="#fa8b75" d="M 197.5,174.5 C 188.475,167.137 179.475,159.803 170.5,152.5C 179.771,146.19 189.438,140.356 199.5,135C 207.835,134.336 212.002,138.17 212,146.5C 211.667,147.5 211.333,148.5 211,149.5C 201.835,155.154 197.335,163.488 197.5,174.5 Z"/></g>
<g><path style="opacity:1" fill="#fa837c" d="M 170.5,152.5 C 179.475,159.803 188.475,167.137 197.5,174.5C 195.273,184.478 196.773,193.811 202,202.5C 208.778,207.985 215.278,207.652 221.5,201.5C 261.815,233.818 301.815,266.485 341.5,299.5C 334.341,304.917 326.675,309.583 318.5,313.5C 318.141,311.629 317.141,310.129 315.5,309C 306.337,302 297.337,294.833 288.5,287.5C 291.909,274.798 288.242,272.131 277.5,279.5C 233.756,242.792 189.423,206.792 144.5,171.5C 152.582,164.425 161.249,158.092 170.5,152.5 Z"/></g>
<g><path style="opacity:1" fill="#fa8f75" d="M 244.5,157.5 C 276.833,183.5 309.167,209.5 341.5,235.5C 339.471,244.64 343.138,248.473 352.5,247C 358.335,244.328 364.169,241.828 370,239.5C 377.125,240.398 379.792,244.398 378,251.5C 372.975,262.91 366.475,273.243 358.5,282.5C 356.45,279.942 354.117,277.442 351.5,275C 311.662,243.976 272.662,212.143 234.5,179.5C 236.238,171.363 239.571,164.03 244.5,157.5 Z"/></g>
<g><path style="opacity:1" fill="#fa7d7d" d="M 144.5,171.5 C 189.423,206.792 233.756,242.792 277.5,279.5C 270.526,286.139 263.526,292.806 256.5,299.5C 250.157,292.993 243.323,286.993 236,281.5C 235.79,283.058 235.29,284.391 234.5,285.5C 235.178,275.51 230.511,270.177 220.5,269.5C 188.903,244.019 157.236,218.519 125.5,193C 124.177,192.184 123.511,191.017 123.5,189.5C 129.886,182.781 136.886,176.781 144.5,171.5 Z"/></g>
<g><path style="opacity:1" fill="#faa875" d="M 445.5,161.5 C 451.555,161.052 453.721,163.719 452,169.5C 448.356,178.124 443.69,186.124 438,193.5C 431.833,199.667 425.667,205.833 419.5,212C 403.333,215.833 397.167,209.667 401,193.5C 413.547,179.423 428.381,168.756 445.5,161.5 Z"/></g>
<g><path style="opacity:1" fill="#fa8975" d="M 234.5,179.5 C 272.662,212.143 311.662,243.976 351.5,275C 354.117,277.442 356.45,279.942 358.5,282.5C 355.536,287.131 351.869,291.131 347.5,294.5C 306.852,262.19 266.186,229.857 225.5,197.5C 229.06,191.713 232.06,185.713 234.5,179.5 Z"/></g>
<g><path style="opacity:1" fill="#fa767d" d="M 123.5,189.5 C 123.511,191.017 124.177,192.184 125.5,193C 157.236,218.519 188.903,244.019 220.5,269.5C 212.587,274.289 204.254,278.289 195.5,281.5C 166.146,256.652 136.312,232.319 106,208.5C 105.329,209.252 104.496,209.586 103.5,209.5C 109.833,202.5 116.5,195.833 123.5,189.5 Z"/></g>
<g><path style="opacity:1" fill="#fa887c" d="M 225.5,197.5 C 266.186,229.857 306.852,262.19 347.5,294.5C 345.909,296.633 343.909,298.299 341.5,299.5C 301.815,266.485 261.815,233.818 221.5,201.5C 222.5,199.833 223.833,198.5 225.5,197.5 Z"/></g>
<g><path style="opacity:1" fill="#fa707d" d="M 195.5,281.5 C 191.237,283.797 186.571,284.964 181.5,285C 174.842,285.5 168.175,285.666 161.5,285.5C 139.645,266.819 117.312,248.652 94.5,231C 92.5359,229.549 91.2026,227.716 90.5,225.5C 94.365,219.76 98.6983,214.427 103.5,209.5C 104.496,209.586 105.329,209.252 106,208.5C 136.312,232.319 166.146,256.652 195.5,281.5 Z"/></g>
<g><path style="opacity:1" fill="#fa6a7d" d="M 90.5,225.5 C 91.2026,227.716 92.5359,229.549 94.5,231C 117.312,248.652 139.645,266.819 161.5,285.5C 151.785,286.844 143.119,290.511 135.5,296.5C 133.756,294.25 131.756,292.083 129.5,290C 111.651,275.584 93.6514,261.417 75.5,247.5C 79.7255,239.613 84.7255,232.28 90.5,225.5 Z"/></g>
<g><path style="opacity:1" fill="#fa647d" d="M 75.5,247.5 C 93.6514,261.417 111.651,275.584 129.5,290C 131.756,292.083 133.756,294.25 135.5,296.5C 128.5,302.833 121.833,309.5 115.5,316.5C 98.0818,301.413 80.0818,287.08 61.5,273.5C 65.153,264.188 69.8197,255.521 75.5,247.5 Z"/></g>
<g><path style="opacity:1" fill="#faf9f9" d="M 220.5,269.5 C 230.511,270.177 235.178,275.51 234.5,285.5C 233.538,288.757 232.038,291.757 230,294.5C 220.78,303.607 215.28,314.607 213.5,327.5C 212.144,337.417 211.144,347.417 210.5,357.5C 209.394,368.362 207.394,379.029 204.5,389.5C 198.74,407.929 186.407,418.929 167.5,422.5C 119.514,428.674 96.0143,407.674 97,359.5C 98.1289,352.286 99.9622,345.286 102.5,338.5C 106.315,330.873 110.648,323.539 115.5,316.5C 121.833,309.5 128.5,302.833 135.5,296.5C 143.119,290.511 151.785,286.844 161.5,285.5C 168.175,285.666 174.842,285.5 181.5,285C 186.571,284.964 191.237,283.797 195.5,281.5C 204.254,278.289 212.587,274.289 220.5,269.5 Z"/></g>
<g><path style="opacity:1" fill="#fa5d7d" d="M 61.5,273.5 C 80.0818,287.08 98.0818,301.413 115.5,316.5C 110.648,323.539 106.315,330.873 102.5,338.5C 102.489,336.983 101.823,335.816 100.5,335C 84.3769,322.546 68.5436,309.712 53,296.5C 52.6174,297.056 52.1174,297.389 51.5,297.5C 53.877,289.018 57.2103,281.018 61.5,273.5 Z"/></g>
<g><path style="opacity:1" fill="#faf8f8" d="M 288.5,287.5 C 285.536,297.096 281.203,306.096 275.5,314.5C 272.104,319.398 268.104,323.898 263.5,328C 255.11,332.224 248.944,330.057 245,321.5C 244.333,318.833 244.333,316.167 245,313.5C 248.29,308.378 252.123,303.711 256.5,299.5C 263.526,292.806 270.526,286.139 277.5,279.5C 288.242,272.131 291.909,274.798 288.5,287.5 Z"/></g>
<g><path style="opacity:1" fill="#fa7d7d" d="M 288.5,287.5 C 297.337,294.833 306.337,302 315.5,309C 317.141,310.129 318.141,311.629 318.5,313.5C 310.833,319.167 304.167,325.833 298.5,333.5C 291.466,326.472 283.799,320.138 275.5,314.5C 281.203,306.096 285.536,297.096 288.5,287.5 Z"/></g>
<g><path style="opacity:1" fill="#fa727d" d="M 256.5,299.5 C 252.123,303.711 248.29,308.378 245,313.5C 244.333,316.167 244.333,318.833 245,321.5C 248.944,330.057 255.11,332.224 263.5,328C 268.104,323.898 272.104,319.398 275.5,314.5C 283.799,320.138 291.466,326.472 298.5,333.5C 293.957,341.098 290.624,349.264 288.5,358C 288.796,365.305 292.463,368.638 299.5,368C 306.255,365.533 312.755,362.699 319,359.5C 325.596,359.596 329.096,362.929 329.5,369.5C 325.289,382.935 318.289,394.601 308.5,404.5C 307.04,402.537 305.373,400.704 303.5,399C 273.606,374.929 243.606,351.096 213.5,327.5C 215.28,314.607 220.78,303.607 230,294.5C 232.038,291.757 233.538,288.757 234.5,285.5C 235.29,284.391 235.79,283.058 236,281.5C 243.323,286.993 250.157,292.993 256.5,299.5 Z"/></g>
<g><path style="opacity:1" fill="#fa517d" d="M 102.5,338.5 C 99.9622,345.286 98.1289,352.286 97,359.5C 96.0143,407.674 119.514,428.674 167.5,422.5C 168.552,422.351 169.552,422.517 170.5,423C 186.065,436.076 201.732,448.909 217.5,461.5C 204.315,466.038 190.649,468.871 176.5,470C 159.856,471.432 143.189,471.765 126.5,471C 108.655,469.166 92.655,462.833 78.5,452C 66.012,441.859 56.1787,429.692 49,415.5C 44.8372,403.525 42.5039,391.192 42,378.5C 39.6368,350.788 42.8035,323.788 51.5,297.5C 52.1174,297.389 52.6174,297.056 53,296.5C 68.5436,309.712 84.3769,322.546 100.5,335C 101.823,335.816 102.489,336.983 102.5,338.5 Z"/></g>
<g><path style="opacity:1" fill="#fa6a7d" d="M 213.5,327.5 C 243.606,351.096 273.606,374.929 303.5,399C 305.373,400.704 307.04,402.537 308.5,404.5C 303.131,410.87 297.131,416.537 290.5,421.5C 289.091,419.583 287.424,417.75 285.5,416C 260.725,396.526 236.225,376.693 212,356.5C 211.617,357.056 211.117,357.389 210.5,357.5C 211.144,347.417 212.144,337.417 213.5,327.5 Z"/></g>
<g><path style="opacity:1" fill="#fa647d" d="M 290.5,421.5 C 283.409,427.58 275.742,432.913 267.5,437.5C 246.605,421.785 226.105,405.451 206,388.5C 205.617,389.056 205.117,389.389 204.5,389.5C 207.394,379.029 209.394,368.362 210.5,357.5C 211.117,357.389 211.617,357.056 212,356.5C 236.225,376.693 260.725,396.526 285.5,416C 287.424,417.75 289.091,419.583 290.5,421.5 Z"/></g>
<g><path style="opacity:1" fill="#fa597d" d="M 267.5,437.5 C 251.939,447.612 235.272,455.612 217.5,461.5C 201.732,448.909 186.065,436.076 170.5,423C 169.552,422.517 168.552,422.351 167.5,422.5C 186.407,418.929 198.74,407.929 204.5,389.5C 205.117,389.389 205.617,389.056 206,388.5C 226.105,405.451 246.605,421.785 267.5,437.5 Z"/></g>
</svg>
