<?xml version="1.0" encoding="UTF-8"?>
<!DOCTYPE svg PUBLIC "-//W3C//DTD SVG 1.1//EN" "http://www.w3.org/Graphics/SVG/1.1/DTD/svg11.dtd">
<svg xmlns="http://www.w3.org/2000/svg" version="1.1" width="512px" height="512px" style="shape-rendering:geometricPrecision; text-rendering:geometricPrecision; image-rendering:optimizeQuality; fill-rule:evenodd; clip-rule:evenodd" xmlns:xlink="http://www.w3.org/1999/xlink">
<g><path style="opacity:1" fill="#3a384b" d="M 460.5,22.5 C 472.104,20.7129 479.604,25.3796 483,36.5C 485.465,46.242 485.965,56.0753 484.5,66C 485.211,74.9965 485.878,83.9965 486.5,93C 486.563,101.143 484.397,108.643 480,115.5C 461.623,142.42 443.123,169.254 424.5,196C 444.359,193.695 464.359,193.029 484.5,194C 485.872,195.242 486.872,196.742 487.5,198.5C 485.56,214.152 480.727,228.818 473,242.5C 451.703,266.799 430.037,290.799 408,314.5C 407.048,337.976 404.714,361.309 401,384.5C 386.108,417.31 367.441,447.643 345,475.5C 341.915,479.093 338.415,482.093 334.5,484.5C 331.832,484.255 329.998,482.921 329,480.5C 328.442,467.798 327.442,455.131 326,442.5C 325.944,439.22 325.111,436.22 323.5,433.5C 286.184,454.409 247.684,472.742 208,488.5C 205.966,488.646 204.299,487.98 203,486.5C 202.5,472.504 202.333,458.504 202.5,444.5C 155.718,454.874 108.385,460.707 60.5,462C 58.4841,460.972 57.4841,459.305 57.5,457C 64.0907,417.397 75.4241,379.231 91.5,342.5C 91.1667,342.167 90.8333,341.833 90.5,341.5C 72.1495,346.725 53.4828,349.892 34.5,351C 33.0203,349.701 32.3536,348.034 32.5,346C 46.5888,311.983 63.9221,279.816 84.5,249.5C 65.0001,234.173 45.3334,219.006 25.5,204C 23.8542,201.771 23.5208,199.437 24.5,197C 29.0271,193.568 34.0271,190.901 39.5,189C 58.1966,181.648 76.8633,174.315 95.5,167C 89.3333,160.167 83.1667,153.333 77,146.5C 75.6206,142.525 76.7873,139.691 80.5,138C 94.4835,137.06 108.483,136.56 122.5,136.5C 142.843,137.099 163.176,137.599 183.5,138C 190.037,137.116 196.37,135.449 202.5,133C 214.326,126.921 225.993,120.588 237.5,114C 243.498,110.5 249.831,107.833 256.5,106C 285.184,104.784 313.851,103.451 342.5,102C 346.112,100.861 349.446,99.1939 352.5,97C 380.5,77.6667 408.5,58.3333 436.5,39C 443.073,31.2336 451.073,25.7336 460.5,22.5 Z"/></g>
<g><path style="opacity:1" fill="#70709d" d="M 470.5,64.5 C 462.714,57.4411 454.381,51.1078 445.5,45.5C 451.536,36.9768 459.536,33.1435 469.5,34C 471.487,35.3189 472.654,37.1523 473,39.5C 474.523,47.1016 474.856,54.7682 474,62.5C 473.184,63.8228 472.017,64.4894 470.5,64.5 Z"/></g>
<g><path style="opacity:1" fill="#666694" d="M 445.5,45.5 C 454.381,51.1078 462.714,57.4411 470.5,64.5C 459.597,71.5814 447.597,75.9148 434.5,77.5C 435.108,65.7138 438.774,55.0472 445.5,45.5 Z"/></g>
<g><path style="opacity:1" fill="#f8ae88" d="M 435.5,160.5 C 411.38,142.26 387.38,123.76 363.5,105C 362.552,104.517 361.552,104.351 360.5,104.5C 382.183,88.8349 404.183,73.5016 426.5,58.5C 427.011,62.1593 426.511,65.826 425,69.5C 423.569,85.0501 430.402,90.5501 445.5,86C 455.52,83.3298 465.02,79.4965 474,74.5C 476.233,85.2599 475.9,95.9265 473,106.5C 460.724,124.741 448.224,142.741 435.5,160.5 Z"/></g>
<g><path style="opacity:1" fill="#f9a782" d="M 360.5,104.5 C 361.552,104.351 362.552,104.517 363.5,105C 387.38,123.76 411.38,142.26 435.5,160.5C 424.838,177.152 413.671,193.485 402,209.5C 399.709,212.835 400.209,215.668 403.5,218C 405.235,218.651 406.902,218.485 408.5,217.5C 411.199,214.6 413.533,211.433 415.5,208C 435.385,204.904 455.385,203.404 475.5,203.5C 473.663,216.514 469.163,228.514 462,239.5C 456.484,245.242 450.984,250.908 445.5,256.5C 385.395,210.239 325.395,163.739 265.5,117C 266.056,116.617 266.389,116.117 266.5,115.5C 291.158,114.5 315.825,113.667 340.5,113C 347.781,111.524 354.448,108.69 360.5,104.5 Z"/></g>
<g><path style="opacity:1" fill="#f9a183" d="M 266.5,115.5 C 266.389,116.117 266.056,116.617 265.5,117C 325.395,163.739 385.395,210.239 445.5,256.5C 430.544,274.457 414.878,291.79 398.5,308.5C 346.523,268.518 294.856,228.184 243.5,187.5C 253.326,188.115 262.992,187.282 272.5,185C 278.444,181.389 284.111,177.389 289.5,173C 294.166,170.249 299.166,169.249 304.5,170C 307.418,171.773 310.418,173.273 313.5,174.5C 313.464,166.259 309.464,161.092 301.5,159C 289.524,157.668 277.524,157.334 265.5,158C 253.481,163.672 242.481,170.838 232.5,179.5C 218.878,169.213 205.545,158.547 192.5,147.5C 197.757,145.581 203.09,143.747 208.5,142C 224.915,132.793 241.582,124.126 258.5,116C 261.146,115.503 263.813,115.336 266.5,115.5 Z"/></g>
<g><path style="opacity:1" fill="#f99b7c" d="M 121.5,147.5 C 211.856,218.518 302.523,289.184 393.5,359.5C 392.914,366.522 392.081,373.522 391,380.5C 390.33,383.174 389.163,385.507 387.5,387.5C 365.683,371.084 344.016,354.418 322.5,337.5C 321.92,335.251 320.587,333.585 318.5,332.5C 314.822,331.491 311.489,329.657 308.5,327C 276.958,301.952 245.291,277.119 213.5,252.5C 216.481,249.276 216.147,246.442 212.5,244C 209.562,243.288 206.896,243.788 204.5,245.5C 173.189,221.517 142.189,197.184 111.5,172.5C 111.66,170.801 111.494,169.134 111,167.5C 105.18,160.713 99.0133,154.213 92.5,148C 102.161,147.5 111.828,147.334 121.5,147.5 Z"/></g>
<g><path style="opacity:1" fill="#f99b82" d="M 121.5,147.5 C 145.187,148.149 168.853,148.149 192.5,147.5C 205.545,158.547 218.878,169.213 232.5,179.5C 230.519,181.144 228.519,182.81 226.5,184.5C 232.151,185.63 237.818,186.63 243.5,187.5C 294.856,228.184 346.523,268.518 398.5,308.5C 392.208,315.962 385.708,323.295 379,330.5C 377.134,332.519 375.967,334.852 375.5,337.5C 375.833,341.17 377.833,342.67 381.5,342C 386.279,337.221 391.113,332.387 396,327.5C 395.747,338.337 394.914,349.004 393.5,359.5C 302.523,289.184 211.856,218.518 121.5,147.5 Z"/></g>
<g><path style="opacity:1" fill="#faf7f7" d="M 243.5,187.5 C 237.818,186.63 232.151,185.63 226.5,184.5C 228.519,182.81 230.519,181.144 232.5,179.5C 242.481,170.838 253.481,163.672 265.5,158C 277.524,157.334 289.524,157.668 301.5,159C 309.464,161.092 313.464,166.259 313.5,174.5C 310.418,173.273 307.418,171.773 304.5,170C 299.166,169.249 294.166,170.249 289.5,173C 284.111,177.389 278.444,181.389 272.5,185C 262.992,187.282 253.326,188.115 243.5,187.5 Z"/></g>
<g><path style="opacity:1" fill="#f9957c" d="M 111.5,172.5 C 142.189,197.184 173.189,221.517 204.5,245.5C 200.447,250.219 196.78,255.219 193.5,260.5C 184.073,267.228 175.406,274.895 167.5,283.5C 161.068,290.262 155.402,297.596 150.5,305.5C 133.062,292.574 115.728,279.407 98.5,266C 95.5724,263.91 93.2391,261.41 91.5,258.5C 93.5048,255.649 95.3382,252.649 97,249.5C 97.6667,248.167 97.6667,246.833 97,245.5C 77.5477,231.049 58.381,216.216 39.5,201C 63.209,190.641 87.209,181.141 111.5,172.5 Z"/></g>
<g><path style="opacity:1" fill="#3c394b" d="M 213.5,252.5 C 208.847,255.994 205.013,260.327 202,265.5C 195.852,275.451 191.686,286.118 189.5,297.5C 195.177,296.98 200.843,296.314 206.5,295.5C 212.022,295.581 213.856,298.248 212,303.5C 207.06,320.925 203.227,338.592 200.5,356.5C 221.311,355.21 241.977,352.71 262.5,349C 281.441,344.358 300.108,338.858 318.5,332.5C 320.587,333.585 321.92,335.251 322.5,337.5C 322.489,339.017 321.823,340.184 320.5,341C 317.179,342.604 313.846,344.104 310.5,345.5C 297.341,350.109 284.008,354.109 270.5,357.5C 253.457,360.731 236.457,363.397 219.5,365.5C 213.477,365.502 207.477,365.835 201.5,366.5C 198.15,366.665 194.817,366.498 191.5,366C 189.686,363.519 189.02,360.685 189.5,357.5C 190.879,351.933 191.879,346.266 192.5,340.5C 195.155,329.278 197.822,317.945 200.5,306.5C 193.229,307.991 185.896,308.491 178.5,308C 177.106,307.044 176.439,305.711 176.5,304C 177.945,299.944 178.945,295.777 179.5,291.5C 183.326,280.844 187.992,270.511 193.5,260.5C 196.78,255.219 200.447,250.219 204.5,245.5C 206.896,243.788 209.562,243.288 212.5,244C 216.147,246.442 216.481,249.276 213.5,252.5 Z"/></g>
<g><path style="opacity:1" fill="#f9957c" d="M 213.5,252.5 C 245.291,277.119 276.958,301.952 308.5,327C 311.489,329.657 314.822,331.491 318.5,332.5C 300.108,338.858 281.441,344.358 262.5,349C 241.977,352.71 221.311,355.21 200.5,356.5C 203.227,338.592 207.06,320.925 212,303.5C 213.856,298.248 212.022,295.581 206.5,295.5C 200.843,296.314 195.177,296.98 189.5,297.5C 191.686,286.118 195.852,275.451 202,265.5C 205.013,260.327 208.847,255.994 213.5,252.5 Z"/></g>
<g><path style="opacity:1" fill="#f98e7c" d="M 91.5,258.5 C 93.2391,261.41 95.5724,263.91 98.5,266C 115.728,279.407 133.062,292.574 150.5,305.5C 149.4,306.605 148.733,307.938 148.5,309.5C 141.798,318.9 137.298,329.234 135,340.5C 135.561,341.022 136.228,341.355 137,341.5C 149.451,339.042 161.951,337.042 174.5,335.5C 173.347,339.111 172.347,342.777 171.5,346.5C 166.757,361.033 164.424,375.866 164.5,391C 185.084,392.556 205.417,391.056 225.5,386.5C 232.342,384.794 239.008,382.794 245.5,380.5C 245.833,380.5 246.167,380.5 246.5,380.5C 267.016,396.593 287.349,412.927 307.5,429.5C 285.43,441.868 262.763,453.202 239.5,463.5C 230.94,456.963 222.44,450.296 214,443.5C 213.814,440.964 213.314,438.631 212.5,436.5C 212.489,434.983 211.823,433.816 210.5,433C 207.151,432.612 203.817,432.779 200.5,433.5C 167.353,407.197 134.02,381.03 100.5,355C 99.4232,354.53 98.4232,354.697 97.5,355.5C 99.7725,348.952 102.606,342.619 106,336.5C 106.667,334.167 106.667,331.833 106,329.5C 105.25,328.874 104.416,328.374 103.5,328C 90.3266,331.291 76.9932,334.291 63.5,337C 58.4624,337.617 53.4624,338.451 48.5,339.5C 47.8333,339.167 47.1667,338.833 46.5,338.5C 59.5011,310.476 74.5011,283.809 91.5,258.5 Z"/></g>
<g><path style="opacity:1" fill="#c14d52" d="M 193.5,260.5 C 187.992,270.511 183.326,280.844 179.5,291.5C 175.228,289.226 171.228,286.559 167.5,283.5C 175.406,274.895 184.073,267.228 193.5,260.5 Z"/></g>
<g><path style="opacity:1" fill="#b73f4c" d="M 167.5,283.5 C 171.228,286.559 175.228,289.226 179.5,291.5C 178.945,295.777 177.945,299.944 176.5,304C 176.439,305.711 177.106,307.044 178.5,308C 185.896,308.491 193.229,307.991 200.5,306.5C 197.822,317.945 195.155,329.278 192.5,340.5C 177.815,330.142 163.149,319.808 148.5,309.5C 148.733,307.938 149.4,306.605 150.5,305.5C 155.402,297.596 161.068,290.262 167.5,283.5 Z"/></g>
<g><path style="opacity:1" fill="#b4374b" d="M 148.5,309.5 C 163.149,319.808 177.815,330.142 192.5,340.5C 191.879,346.266 190.879,351.933 189.5,357.5C 184.208,354.512 179.208,351.012 174.5,347C 173.552,346.517 172.552,346.351 171.5,346.5C 172.347,342.777 173.347,339.111 174.5,335.5C 161.951,337.042 149.451,339.042 137,341.5C 136.228,341.355 135.561,341.022 135,340.5C 137.298,329.234 141.798,318.9 148.5,309.5 Z"/></g>
<g><path style="opacity:1" fill="#f9957c" d="M 322.5,337.5 C 344.016,354.418 365.683,371.084 387.5,387.5C 374.357,415.456 358.19,441.456 339,465.5C 337.947,451.022 335.947,436.689 333,422.5C 331.475,419.913 329.308,419.08 326.5,420C 320.423,423.705 314.09,426.872 307.5,429.5C 287.349,412.927 267.016,396.593 246.5,380.5C 257.62,376.796 268.287,372.129 278.5,366.5C 289.859,360.492 300.526,353.492 310.5,345.5C 313.846,344.104 317.179,342.604 320.5,341C 321.823,340.184 322.489,339.017 322.5,337.5 Z"/></g>
<g><path style="opacity:1" fill="#ae3049" d="M 171.5,346.5 C 172.552,346.351 173.552,346.517 174.5,347C 179.208,351.012 184.208,354.512 189.5,357.5C 189.02,360.685 189.686,363.519 191.5,366C 194.817,366.498 198.15,366.665 201.5,366.5C 209.766,372.646 218.099,378.812 226.5,385C 225.944,385.383 225.611,385.883 225.5,386.5C 205.417,391.056 185.084,392.556 164.5,391C 164.424,375.866 166.757,361.033 171.5,346.5 Z"/></g>
<g><path style="opacity:1" fill="#bf4d52" d="M 310.5,345.5 C 300.526,353.492 289.859,360.492 278.5,366.5C 275.833,363.5 273.167,360.5 270.5,357.5C 284.008,354.109 297.341,350.109 310.5,345.5 Z"/></g>
<g><path style="opacity:1" fill="#f9887c" d="M 200.5,433.5 C 185.034,437.33 169.367,440.33 153.5,442.5C 131.341,424.491 108.841,406.825 86,389.5C 85.6174,390.056 85.1174,390.389 84.5,390.5C 88.042,378.439 92.3753,366.772 97.5,355.5C 98.4232,354.697 99.4232,354.53 100.5,355C 134.02,381.03 167.353,407.197 200.5,433.5 Z"/></g>
<g><path style="opacity:1" fill="#b6404d" d="M 270.5,357.5 C 273.167,360.5 275.833,363.5 278.5,366.5C 268.287,372.129 257.62,376.796 246.5,380.5C 246.167,380.5 245.833,380.5 245.5,380.5C 239.595,375.202 233.262,370.369 226.5,366C 224.19,365.503 221.857,365.337 219.5,365.5C 236.457,363.397 253.457,360.731 270.5,357.5 Z"/></g>
<g><path style="opacity:1" fill="#b4384b" d="M 219.5,365.5 C 221.857,365.337 224.19,365.503 226.5,366C 233.262,370.369 239.595,375.202 245.5,380.5C 239.008,382.794 232.342,384.794 225.5,386.5C 225.611,385.883 225.944,385.383 226.5,385C 218.099,378.812 209.766,372.646 201.5,366.5C 207.477,365.835 213.477,365.502 219.5,365.5 Z"/></g>
<g><path style="opacity:1" fill="#f88875" d="M 153.5,442.5 C 137.997,445.73 122.331,447.73 106.5,448.5C 96.8072,439.983 86.6405,431.983 76,424.5C 75.6174,425.056 75.1174,425.389 74.5,425.5C 77.3669,413.699 80.7003,402.032 84.5,390.5C 85.1174,390.389 85.6174,390.056 86,389.5C 108.841,406.825 131.341,424.491 153.5,442.5 Z"/></g>
<g><path style="opacity:1" fill="#f68175" d="M 106.5,448.5 C 94.3635,450.106 82.0302,451.106 69.5,451.5C 70.7363,442.749 72.403,434.082 74.5,425.5C 75.1174,425.389 75.6174,425.056 76,424.5C 86.6405,431.983 96.8072,439.983 106.5,448.5 Z"/></g>
<g><path style="opacity:1" fill="#f1857a" d="M 212.5,436.5 C 213.314,438.631 213.814,440.964 214,443.5C 222.44,450.296 230.94,456.963 239.5,463.5C 230.911,468.292 221.911,472.292 212.5,475.5C 212.5,462.5 212.5,449.5 212.5,436.5 Z"/></g>
</svg>
