<?xml version="1.0" encoding="UTF-8"?>
<!DOCTYPE svg PUBLIC "-//W3C//DTD SVG 1.1//EN" "http://www.w3.org/Graphics/SVG/1.1/DTD/svg11.dtd">
<svg xmlns="http://www.w3.org/2000/svg" version="1.1" width="512px" height="512px" style="shape-rendering:geometricPrecision; text-rendering:geometricPrecision; image-rendering:optimizeQuality; fill-rule:evenodd; clip-rule:evenodd" xmlns:xlink="http://www.w3.org/1999/xlink">
<g><path style="opacity:1" fill="#39384b" d="M 26.5,22.5 C 29.7935,22.259 32.7935,23.0924 35.5,25C 64.5526,44.1909 95.8859,58.5242 129.5,68C 130.701,68.9025 131.535,70.0692 132,71.5C 133.283,88.3891 138.783,103.722 148.5,117.5C 153.221,117.642 157.887,118.142 162.5,119C 172.908,123.82 176.574,131.82 173.5,143C 179,148.5 184.5,154 190,159.5C 202.66,150.277 216.66,143.944 232,140.5C 230.116,119.891 228.449,99.2244 227,78.5C 226.333,70.8333 226.333,63.1667 227,55.5C 229.072,48.4269 233.572,43.5936 240.5,41C 250.5,39 260.5,39 270.5,41C 281.685,46.0306 286.352,54.6972 284.5,67C 283.204,91.5789 281.371,116.079 279,140.5C 294.34,143.944 308.34,150.277 321,159.5C 326.333,154.167 331.667,148.833 337,143.5C 334.419,124.747 342.419,116.747 361,119.5C 371.465,105.226 377.465,89.2259 379,71.5C 379.465,70.0692 380.299,68.9025 381.5,68C 416.451,57.8561 449.118,42.8561 479.5,23C 485.333,22.1667 487.833,24.6667 487,30.5C 466.559,61.0538 451.225,94.0538 441,129.5C 426.053,131.447 411.886,135.947 398.5,143C 395.833,145 393.167,147 390.5,149C 393.691,160.618 389.691,168.618 378.5,173C 374.118,173.457 369.784,173.457 365.5,173C 359.833,178.667 354.167,184.333 348.5,190C 358.137,205.571 364.637,222.405 368,240.5C 372.317,264.039 373.483,287.706 371.5,311.5C 372.909,323.617 375.075,335.617 378,347.5C 410.361,379.528 442.361,411.861 474,444.5C 479.795,452.309 484.795,460.643 489,469.5C 491.016,483.15 485.183,489.316 471.5,488C 462.876,484.356 454.876,479.69 447.5,474C 421.361,448.862 395.528,423.362 370,397.5C 358.313,410.864 345.146,422.364 330.5,432C 326.779,434.527 322.779,436.527 318.5,438C 307.698,439.855 300.532,435.689 297,425.5C 297.972,412.684 299.139,399.851 300.5,387C 300.518,384.611 299.851,382.444 298.5,380.5C 277.798,372.544 256.465,370.377 234.5,374C 226.881,375.238 219.548,377.404 212.5,380.5C 211.518,382.911 210.851,385.411 210.5,388C 211.955,400.505 213.121,413.005 214,425.5C 210.387,435.724 203.221,439.891 192.5,438C 181.349,432.592 171.016,425.925 161.5,418C 154.667,411.167 147.833,404.333 141,397.5C 114.442,424.726 87.2757,451.226 59.5,477C 53.1227,481.189 46.456,484.855 39.5,488C 25.8171,489.316 19.9838,483.15 22,469.5C 26.2046,460.643 31.2046,452.309 37,444.5C 69.3333,411.5 101.667,378.5 134,345.5C 137.182,335.243 139.015,324.743 139.5,314C 135.987,279.311 139.821,245.478 151,212.5C 154.179,204.641 158.013,197.141 162.5,190C 156.833,184.333 151.167,178.667 145.5,173C 136.2,175.122 128.367,172.622 122,165.5C 119.453,160.149 118.953,154.649 120.5,149C 112.726,142.778 104.06,138.111 94.5,135C 86.3094,133.03 78.1428,131.196 70,129.5C 59.7748,94.0538 44.4415,61.0538 24,30.5C 23.0182,27.2253 23.8515,24.5586 26.5,22.5 Z"/></g>
<g><path style="opacity:1" fill="#e7eff7" d="M 463.5,45.5 C 451.5,58.1667 439.167,70.5 426.5,82.5C 423.565,79.0622 420.399,75.7289 417,72.5C 416.209,71.255 415.709,69.9217 415.5,68.5C 431.705,61.3987 447.705,53.732 463.5,45.5 Z"/></g>
<g><path style="opacity:1" fill="#f85576" d="M 272.5,85.5 C 261.167,85.5 249.833,85.5 238.5,85.5C 237.46,76.5245 236.96,67.5245 237,58.5C 238.105,55.0629 240.272,52.5629 243.5,51C 251.167,50.3333 258.833,50.3333 266.5,51C 269.937,52.1049 272.437,54.2716 274,57.5C 274.363,66.8733 273.863,76.2067 272.5,85.5 Z"/></g>
<g><path style="opacity:1" fill="#e2ecf8" d="M 101.5,70.5 C 98.7421,77.0055 94.7421,82.6722 89.5,87.5C 84.8333,83.1667 80.1667,78.8333 75.5,74.5C 66.4468,64.4453 56.7801,55.112 46.5,46.5C 46.0472,45.5416 45.3805,44.7083 44.5,44C 62.8668,53.8454 81.8668,62.6787 101.5,70.5 Z"/></g>
<g><path style="opacity:1" fill="#acbcec" d="M 46.5,46.5 C 56.7801,55.112 66.4468,64.4453 75.5,74.5C 71.8333,77.1667 68.1667,79.8333 64.5,82.5C 59.0272,70.2212 53.0272,58.2212 46.5,46.5 Z"/></g>
<g><path style="opacity:1" fill="#e0eaf8" d="M 415.5,68.5 C 415.709,69.9217 416.209,71.255 417,72.5C 420.399,75.7289 423.565,79.0622 426.5,82.5C 423.833,85.5 421.167,88.5 418.5,91.5C 417.167,92.5 415.833,93.5 414.5,94.5C 408.369,88.2451 402.702,81.5784 397.5,74.5C 403.421,72.304 409.421,70.304 415.5,68.5 Z"/></g>
<g><path style="opacity:1" fill="#dae5f9" d="M 101.5,70.5 C 107.716,72.9054 114.049,74.9054 120.5,76.5C 114.975,84.8961 108.975,92.8961 102.5,100.5C 99.1667,97.5 95.8333,94.5 92.5,91.5C 91.5,90.1667 90.5,88.8333 89.5,87.5C 94.7421,82.6722 98.7421,77.0055 101.5,70.5 Z"/></g>
<g><path style="opacity:1" fill="#dae5f8" d="M 397.5,74.5 C 402.702,81.5784 408.369,88.2451 414.5,94.5C 410.833,98.8333 406.833,102.833 402.5,106.5C 396.753,101.09 391.753,95.0897 387.5,88.5C 387.646,84.4809 387.979,80.4809 388.5,76.5C 391.539,75.99 394.539,75.3234 397.5,74.5 Z"/></g>
<g><path style="opacity:1" fill="#98a7db" d="M 436.5,106.5 C 429.847,102.171 423.847,97.1708 418.5,91.5C 421.167,88.5 423.833,85.5 426.5,82.5C 439.167,70.5 451.5,58.1667 463.5,45.5C 464.002,43.9153 465.002,43.4153 466.5,44C 454.448,63.9343 444.448,84.7676 436.5,106.5 Z"/></g>
<g><path style="opacity:1" fill="#a1b0e2" d="M 75.5,74.5 C 80.1667,78.8333 84.8333,83.1667 89.5,87.5C 90.5,88.8333 91.5,90.1667 92.5,91.5C 90.7446,92.0722 89.0779,92.9055 87.5,94C 83.2978,98.3702 78.9645,102.537 74.5,106.5C 71.38,98.4903 68.0467,90.4903 64.5,82.5C 68.1667,79.8333 71.8333,77.1667 75.5,74.5 Z"/></g>
<g><path style="opacity:1" fill="#d1dcf7" d="M 120.5,76.5 C 121.649,76.7911 122.316,77.6244 122.5,79C 124.423,92.1991 128.423,104.699 134.5,116.5C 131.728,118.39 128.728,120.057 125.5,121.5C 124.448,121.649 123.448,121.483 122.5,121C 117.582,115.905 112.582,111.072 107.5,106.5C 105.833,104.5 104.167,102.5 102.5,100.5C 108.975,92.8961 114.975,84.8961 120.5,76.5 Z"/></g>
<g><path style="opacity:1" fill="#d1dcf7" d="M 387.5,88.5 C 391.753,95.0897 396.753,101.09 402.5,106.5C 400.5,108.833 398.5,111.167 396.5,113.5C 393.703,115.795 391.036,118.295 388.5,121C 383.707,121.344 379.374,120.177 375.5,117.5C 380.302,108.074 384.302,98.4074 387.5,88.5 Z"/></g>
<g><path style="opacity:1" fill="#f14d75" d="M 238.5,85.5 C 249.833,85.5 261.167,85.5 272.5,85.5C 272.697,94.7122 272.03,103.712 270.5,112.5C 260.5,112.5 250.5,112.5 240.5,112.5C 239.426,103.542 238.76,94.5424 238.5,85.5 Z"/></g>
<g><path style="opacity:1" fill="#8998ce" d="M 418.5,91.5 C 423.847,97.1708 429.847,102.171 436.5,106.5C 435.263,111.376 433.93,116.209 432.5,121C 425.71,121.532 419.043,122.699 412.5,124.5C 407.185,120.859 401.851,117.192 396.5,113.5C 398.5,111.167 400.5,108.833 402.5,106.5C 406.833,102.833 410.833,98.8333 414.5,94.5C 415.833,93.5 417.167,92.5 418.5,91.5 Z"/></g>
<g><path style="opacity:1" fill="#93a3d6" d="M 92.5,91.5 C 95.8333,94.5 99.1667,97.5 102.5,100.5C 104.167,102.5 105.833,104.5 107.5,106.5C 101.224,111.107 95.5572,116.441 90.5,122.5C 86.466,122.328 82.466,121.828 78.5,121C 77.0705,116.209 75.7371,111.376 74.5,106.5C 78.9645,102.537 83.2978,98.3702 87.5,94C 89.0779,92.9055 90.7446,92.0722 92.5,91.5 Z"/></g>
<g><path style="opacity:1" fill="#f1496f" d="M 240.5,112.5 C 250.5,112.5 260.5,112.5 270.5,112.5C 269.833,120.5 269.167,128.5 268.5,136.5C 267.596,137.209 267.263,138.209 267.5,139.5C 259.5,139.5 251.5,139.5 243.5,139.5C 242.034,130.567 241.034,121.567 240.5,112.5 Z"/></g>
<g><path style="opacity:1" fill="#8997ce" d="M 107.5,106.5 C 112.582,111.072 117.582,115.905 122.5,121C 123.448,121.483 124.448,121.649 125.5,121.5C 121.859,124.805 118.192,128.138 114.5,131.5C 106.423,128.451 98.4231,125.451 90.5,122.5C 95.5572,116.441 101.224,111.107 107.5,106.5 Z"/></g>
<g><path style="opacity:1" fill="#7c89c2" d="M 396.5,113.5 C 401.851,117.192 407.185,120.859 412.5,124.5C 402.237,128.384 392.737,133.717 384,140.5C 379.167,135.667 374.333,130.833 369.5,126C 371.399,123.012 373.399,120.179 375.5,117.5C 379.374,120.177 383.707,121.344 388.5,121C 391.036,118.295 393.703,115.795 396.5,113.5 Z"/></g>
<g><path style="opacity:1" fill="#7e8cc5" d="M 134.5,116.5 C 137.055,119.25 139.388,122.25 141.5,125.5C 136.848,130.652 132.015,135.652 127,140.5C 123.031,137.111 118.864,134.111 114.5,131.5C 118.192,128.138 121.859,124.805 125.5,121.5C 128.728,120.057 131.728,118.39 134.5,116.5 Z"/></g>
<g><path style="opacity:1" fill="#7b7ba6" d="M 153.5,128.5 C 160.831,128 164.331,131.333 164,138.5C 157.741,147.514 150.241,155.347 141.5,162C 131.991,163.495 128.491,159.661 131,150.5C 139.058,143.607 146.558,136.274 153.5,128.5 Z"/></g>
<g><path style="opacity:1" fill="#7b7ba5" d="M 351.5,128.5 C 354.32,128.248 356.986,128.748 359.5,130C 365.667,137.5 372.5,144.333 380,150.5C 382.367,154.999 381.533,158.832 377.5,162C 374.036,162.817 370.702,162.483 367.5,161C 361.333,155.5 355.5,149.667 350,143.5C 344.982,137.801 345.482,132.801 351.5,128.5 Z"/></g>
<g><path style="opacity:1" fill="#7b7ba6" d="M 165.5,152.5 C 171.242,156.735 176.575,161.568 181.5,167C 176.957,171.375 172.624,175.875 168.5,180.5C 163.167,175.833 158.167,170.833 153.5,165.5C 158.201,161.799 162.201,157.466 165.5,152.5 Z"/></g>
<g><path style="opacity:1" fill="#f6cb9a" d="M 238.5,180.5 C 220.167,180.5 201.833,180.5 183.5,180.5C 196.533,165.511 212.866,155.844 232.5,151.5C 233.647,151.818 234.481,152.484 235,153.5C 236.131,162.515 237.298,171.515 238.5,180.5 Z"/></g>
<g><path style="opacity:1" fill="#f7cc9a" d="M 327.5,180.5 C 309.167,180.5 290.833,180.5 272.5,180.5C 273.688,170.809 275.021,161.142 276.5,151.5C 296.997,155.242 313.997,164.909 327.5,180.5 Z"/></g>
<g><path style="opacity:1" fill="#7b7ba6" d="M 343.5,152.5 C 348.1,156.762 352.767,161.095 357.5,165.5C 352.833,170.833 347.833,175.833 342.5,180.5C 338.291,175.946 333.957,171.446 329.5,167C 334.37,162.298 339.037,157.465 343.5,152.5 Z"/></g>
<g><path style="opacity:1" fill="#e93d6b" d="M 268.5,136.5 C 265.423,158.523 262.256,180.523 259,202.5C 256.821,206.352 254.488,206.352 252,202.5C 248.837,181.528 246.004,160.528 243.5,139.5C 251.5,139.5 259.5,139.5 267.5,139.5C 267.263,138.209 267.596,137.209 268.5,136.5 Z"/></g>
<g><path style="opacity:1" fill="#f8cd95" d="M 183.5,180.5 C 201.833,180.5 220.167,180.5 238.5,180.5C 239.628,185.062 240.295,189.728 240.5,194.5C 240.5,196.5 240.5,198.5 240.5,200.5C 216.661,200.831 192.994,200.498 169.5,199.5C 172.949,192.269 177.616,185.935 183.5,180.5 Z"/></g>
<g><path style="opacity:1" fill="#f9cd95" d="M 272.5,180.5 C 290.833,180.5 309.167,180.5 327.5,180.5C 333.384,185.935 338.051,192.269 341.5,199.5C 318.006,200.498 294.339,200.831 270.5,200.5C 270.5,198.5 270.5,196.5 270.5,194.5C 270.779,189.773 271.446,185.107 272.5,180.5 Z"/></g>
<g><path style="opacity:1" fill="#f8c795" d="M 240.5,194.5 C 241.186,199.882 242.519,205.216 244.5,210.5C 217.672,211.498 190.672,211.831 163.5,211.5C 164.992,207.182 166.992,203.182 169.5,199.5C 192.994,200.498 216.661,200.831 240.5,200.5C 240.5,198.5 240.5,196.5 240.5,194.5 Z"/></g>
<g><path style="opacity:1" fill="#f8c795" d="M 270.5,194.5 C 270.5,196.5 270.5,198.5 270.5,200.5C 294.339,200.831 318.006,200.498 341.5,199.5C 343.738,202.972 345.738,206.638 347.5,210.5C 320.241,211.491 292.907,211.824 265.5,211.5C 268.273,206.059 269.94,200.392 270.5,194.5 Z"/></g>
<g><path style="opacity:1" fill="#f9c78e" d="M 244.5,210.5 C 251.157,216.758 258.157,217.091 265.5,211.5C 292.907,211.824 320.241,211.491 347.5,210.5C 351.699,219.432 354.699,228.765 356.5,238.5C 323.173,239.833 289.507,240.5 255.5,240.5C 221.493,240.5 187.827,239.833 154.5,238.5C 156.123,228.965 159.123,219.965 163.5,211.5C 190.672,211.831 217.672,211.498 244.5,210.5 Z"/></g>
<g><path style="opacity:1" fill="#f7bf87" d="M 154.5,238.5 C 187.827,239.833 221.493,240.5 255.5,240.5C 289.507,240.5 323.173,239.833 356.5,238.5C 361.812,260.247 363.479,282.247 361.5,304.5C 361.5,294.833 361.5,285.167 361.5,275.5C 354.5,275.5 347.5,275.5 340.5,275.5C 340.737,274.209 340.404,273.209 339.5,272.5C 339.666,266.491 339.499,260.491 339,254.5C 338.346,250.516 336.013,248.849 332,249.5C 309.789,253.058 289.955,261.725 272.5,275.5C 261.167,275.5 249.833,275.5 238.5,275.5C 219.764,260.637 198.431,252.137 174.5,250C 173.107,251.171 172.273,252.671 172,254.5C 171.5,261.158 171.334,267.825 171.5,274.5C 164.254,275.464 156.92,275.797 149.5,275.5C 149.557,262.813 151.223,250.48 154.5,238.5 Z"/></g>
<g><path style="opacity:1" fill="#f7b77e" d="M 238.5,275.5 C 249.833,275.5 261.167,275.5 272.5,275.5C 269.569,279.025 267.402,283.025 266,287.5C 265.651,299.186 264.985,310.852 264,322.5C 258.963,335.349 253.297,335.682 247,323.5C 246.263,311.504 245.597,299.504 245,287.5C 243.598,283.025 241.431,279.025 238.5,275.5 Z"/></g>
<g><path style="opacity:1" fill="#d96358" d="M 235.5,296.5 C 222.656,296.171 209.989,296.505 197.5,297.5C 191.772,292.267 186.939,286.267 183,279.5C 181.63,273.258 181.13,266.925 181.5,260.5C 196.861,263.342 211.194,268.842 224.5,277C 232.472,281.114 236.139,287.614 235.5,296.5 Z"/></g>
<g><path style="opacity:1" fill="#d96358" d="M 313.5,297.5 C 301.011,296.505 288.344,296.171 275.5,296.5C 274.793,289.12 277.46,283.286 283.5,279C 297.606,269.78 312.939,263.614 329.5,260.5C 331.161,270.531 328.994,279.531 323,287.5C 319.601,290.729 316.435,294.062 313.5,297.5 Z"/></g>
<g><path style="opacity:1" fill="#f7b97d" d="M 171.5,274.5 C 171.953,278.693 173.119,282.693 175,286.5C 181.002,293.999 187.168,301.332 193.5,308.5C 179.01,309.496 164.343,309.829 149.5,309.5C 148.36,298.008 148.36,286.675 149.5,275.5C 156.92,275.797 164.254,275.464 171.5,274.5 Z"/></g>
<g><path style="opacity:1" fill="#f9ba7e" d="M 339.5,272.5 C 340.404,273.209 340.737,274.209 340.5,275.5C 347.5,275.5 354.5,275.5 361.5,275.5C 361.5,285.167 361.5,294.833 361.5,304.5C 361.5,306.167 361.5,307.833 361.5,309.5C 346.657,309.829 331.99,309.496 317.5,308.5C 323.832,301.332 329.998,293.999 336,286.5C 338.299,282.104 339.466,277.438 339.5,272.5 Z"/></g>
<g><path style="opacity:1" fill="#d15c56" d="M 235.5,296.5 C 236.249,305.467 236.749,314.467 237,323.5C 238.389,329.953 241.556,335.287 246.5,339.5C 238.35,340.493 230.017,340.826 221.5,340.5C 226.074,329.217 223.741,319.717 214.5,312C 208.348,307.677 202.681,302.843 197.5,297.5C 209.989,296.505 222.656,296.171 235.5,296.5 Z"/></g>
<g><path style="opacity:1" fill="#d25c56" d="M 275.5,296.5 C 288.344,296.171 301.011,296.505 313.5,297.5C 308.319,302.843 302.652,307.677 296.5,312C 286.693,319.728 284.359,329.228 289.5,340.5C 280.983,340.826 272.65,340.493 264.5,339.5C 269.444,335.287 272.611,329.953 274,323.5C 274.319,314.48 274.819,305.48 275.5,296.5 Z"/></g>
<g><path style="opacity:1" fill="#f8b47c" d="M 193.5,308.5 C 199.191,313.197 204.858,317.863 210.5,322.5C 190.167,322.5 169.833,322.5 149.5,322.5C 149.737,323.791 149.404,324.791 148.5,325.5C 149.194,320.195 149.528,314.862 149.5,309.5C 164.343,309.829 179.01,309.496 193.5,308.5 Z"/></g>
<g><path style="opacity:1" fill="#f9b47c" d="M 317.5,308.5 C 331.99,309.496 346.657,309.829 361.5,309.5C 361.5,313.833 361.5,318.167 361.5,322.5C 341.167,322.5 320.833,322.5 300.5,322.5C 306.142,317.863 311.809,313.197 317.5,308.5 Z"/></g>
<g><path style="opacity:1" fill="#f9b475" d="M 210.5,322.5 C 212.723,324.441 214.056,326.941 214.5,330C 213.059,335.052 210.725,339.552 207.5,343.5C 186.993,343.83 166.66,343.497 146.5,342.5C 147.275,336.847 147.942,331.18 148.5,325.5C 149.404,324.791 149.737,323.791 149.5,322.5C 169.833,322.5 190.167,322.5 210.5,322.5 Z"/></g>
<g><path style="opacity:1" fill="#f9b475" d="M 300.5,322.5 C 320.833,322.5 341.167,322.5 361.5,322.5C 362.593,328.816 363.593,335.149 364.5,341.5C 344.527,343.488 324.194,344.155 303.5,343.5C 300.275,339.552 297.941,335.052 296.5,330C 296.944,326.941 298.277,324.441 300.5,322.5 Z"/></g>
<g><path style="opacity:1" fill="#cc5656" d="M 246.5,339.5 C 249.361,341.096 252.361,342.43 255.5,343.5C 258.639,342.43 261.639,341.096 264.5,339.5C 272.65,340.493 280.983,340.826 289.5,340.5C 296.167,349.003 299.334,358.669 299,369.5C 269.968,359.215 240.802,358.881 211.5,368.5C 211.871,358.049 215.205,348.715 221.5,340.5C 230.017,340.826 238.35,340.493 246.5,339.5 Z"/></g>
<g><path style="opacity:1" fill="#f9ae70" d="M 146.5,342.5 C 166.66,343.497 186.993,343.83 207.5,343.5C 202.918,353.978 200.585,364.978 200.5,376.5C 179.993,376.17 159.66,376.503 139.5,377.5C 137.561,373.469 137.061,369.136 138,364.5C 141.752,357.393 144.585,350.06 146.5,342.5 Z"/></g>
<g><path style="opacity:1" fill="#f9ae70" d="M 364.5,341.5 C 367.006,349.173 369.839,356.839 373,364.5C 373.939,369.136 373.439,373.469 371.5,377.5C 351.34,376.503 331.007,376.17 310.5,376.5C 310.194,365.015 307.861,354.015 303.5,343.5C 324.194,344.155 344.527,343.488 364.5,341.5 Z"/></g>
<g><path style="opacity:1" fill="#636394" d="M 405.5,391.5 C 401.868,396.467 397.868,401.133 393.5,405.5C 387.521,400.188 381.854,394.521 376.5,388.5C 381.08,383.003 383.746,376.67 384.5,369.5C 391.521,376.854 398.521,384.187 405.5,391.5 Z"/></g>
<g><path style="opacity:1" fill="#696995" d="M 77.5,445.5 C 73.5,440.833 69.1667,436.5 64.5,432.5C 85.1455,411.521 105.812,390.521 126.5,369.5C 127.44,372.803 128.273,376.136 129,379.5C 131.267,382.701 132.934,386.034 134,389.5C 115.299,408.368 96.4653,427.035 77.5,445.5 Z"/></g>
<g><path style="opacity:1" fill="#f9ae69" d="M 200.5,376.5 C 200.5,378.167 200.5,379.833 200.5,381.5C 182.069,383.467 163.402,384.134 144.5,383.5C 142.11,382.109 140.443,380.109 139.5,377.5C 159.66,376.503 179.993,376.17 200.5,376.5 Z"/></g>
<g><path style="opacity:1" fill="#f9ae69" d="M 310.5,376.5 C 331.007,376.17 351.34,376.503 371.5,377.5C 370.557,380.109 368.89,382.109 366.5,383.5C 347.757,383.82 329.09,383.486 310.5,382.5C 310.5,380.5 310.5,378.5 310.5,376.5 Z"/></g>
<g><path style="opacity:1" fill="#f8a668" d="M 200.5,381.5 C 200.558,394.086 201.558,406.586 203.5,419C 204.299,424.193 202.132,427.026 197,427.5C 193.591,427.048 190.424,425.881 187.5,424C 170.73,413.063 156.397,399.563 144.5,383.5C 163.402,384.134 182.069,383.467 200.5,381.5 Z"/></g>
<g><path style="opacity:1" fill="#f8a668" d="M 310.5,382.5 C 329.09,383.486 347.757,383.82 366.5,383.5C 355.314,398.519 341.98,411.352 326.5,422C 322.745,424.795 318.578,426.628 314,427.5C 308.868,427.026 306.701,424.193 307.5,419C 309.273,406.909 310.273,394.742 310.5,382.5 Z"/></g>
<g><path style="opacity:1" fill="#63638e" d="M 405.5,391.5 C 419.5,404.833 433.167,418.5 446.5,432.5C 442.452,437.215 438.119,441.548 433.5,445.5C 419.833,432.5 406.5,419.167 393.5,405.5C 397.868,401.133 401.868,396.467 405.5,391.5 Z"/></g>
<g><path style="opacity:1" fill="#636394" d="M 64.5,432.5 C 69.1667,436.5 73.5,440.833 77.5,445.5C 66.4247,458.411 53.4247,468.911 38.5,477C 36.5,477.667 34.5,477.667 32.5,477C 31.4464,475.612 31.2797,474.112 32,472.5C 39.738,456.713 50.5713,443.38 64.5,432.5 Z"/></g>
<g><path style="opacity:1" fill="#5c5c8c" d="M 446.5,432.5 C 459.776,442.936 470.276,455.602 478,470.5C 480.561,476.186 478.727,478.353 472.5,477C 457.575,468.911 444.575,458.411 433.5,445.5C 438.119,441.548 442.452,437.215 446.5,432.5 Z"/></g>
</svg>
