<?xml version="1.0" encoding="UTF-8"?>
<!DOCTYPE svg PUBLIC "-//W3C//DTD SVG 1.1//EN" "http://www.w3.org/Graphics/SVG/1.1/DTD/svg11.dtd">
<svg xmlns="http://www.w3.org/2000/svg" version="1.1" width="512px" height="512px" style="shape-rendering:geometricPrecision; text-rendering:geometricPrecision; image-rendering:optimizeQuality; fill-rule:evenodd; clip-rule:evenodd" xmlns:xlink="http://www.w3.org/1999/xlink">
<g><path style="opacity:1" fill="#d4f2bb" d="M 361.5,195.5 C 350.5,180.167 339.5,164.833 328.5,149.5C 355.936,116.225 381.269,81.392 404.5,45C 415.227,41.241 422.393,44.741 426,55.5C 425.771,66.7657 423.771,77.7657 420,88.5C 406.16,127.532 386.66,163.199 361.5,195.5 Z"/></g>
<g><path style="opacity:1" fill="#709c75" d="M 216.5,71.5 C 212.827,69.9998 209.494,67.9998 206.5,65.5C 207.817,59.3797 209.817,53.5464 212.5,48C 218.016,46.0754 221.349,47.9087 222.5,53.5C 220.692,59.5916 218.692,65.5916 216.5,71.5 Z"/></g>
<g><path style="opacity:1" fill="#90cdb5" d="M 323.5,120.5 C 318.167,114.5 312.5,108.833 306.5,103.5C 317.041,85.0843 326.541,66.0843 335,46.5C 344.629,35.5216 353.629,35.8549 362,47.5C 362.667,51.1667 362.667,54.8333 362,58.5C 351.91,81.0441 339.076,101.711 323.5,120.5 Z"/></g>
<g><path style="opacity:1" fill="#85c4ab" d="M 114.5,90.5 C 111.848,86.5181 108.848,82.8514 105.5,79.5C 122.933,66.5681 138.266,51.4014 151.5,34C 160.751,30.5838 164.585,33.7505 163,43.5C 149.253,61.7488 133.086,77.4155 114.5,90.5 Z"/></g>
<g><path style="opacity:1" fill="#6b9276" d="M 206.5,65.5 C 209.494,67.9998 212.827,69.9998 216.5,71.5C 212.487,80.2091 207.487,88.2091 201.5,95.5C 201.167,95.5 200.833,95.5 200.5,95.5C 200.804,94.8501 201.137,94.1835 201.5,93.5C 199.313,91.5784 196.98,89.9117 194.5,88.5C 196.238,86.0786 197.571,83.4119 198.5,80.5C 201.452,75.5925 204.119,70.5925 206.5,65.5 Z"/></g>
<g><path style="opacity:1" fill="#99c5a0" d="M 198.5,80.5 C 197.571,83.4119 196.238,86.0786 194.5,88.5C 184.209,100.807 171.876,110.474 157.5,117.5C 153.712,112.54 149.712,107.707 145.5,103C 144.552,102.517 143.552,102.351 142.5,102.5C 151.325,87.5866 164.325,78.9199 181.5,76.5C 187.365,77.0724 193.032,78.4058 198.5,80.5 Z"/></g>
<g><path style="opacity:1" fill="#6ba996" d="M 105.5,79.5 C 108.848,82.8514 111.848,86.5181 114.5,90.5C 104.64,97.5972 94.3065,103.931 83.5,109.5C 83.6495,108.448 83.4828,107.448 83,106.5C 80.6148,103.621 78.4482,100.621 76.5,97.5C 85.9908,91.2526 95.6575,85.2526 105.5,79.5 Z"/></g>
<g><path style="opacity:1" fill="#89c8af" d="M 251.5,137.5 C 248.5,133.833 245.167,130.5 241.5,127.5C 258.458,108.27 272.958,87.27 285,64.5C 291.647,59.628 296.147,61.128 298.5,69C 286.164,94.1603 270.498,116.994 251.5,137.5 Z"/></g>
<g><path style="opacity:1" fill="#668677" d="M 194.5,88.5 C 196.98,89.9117 199.313,91.5784 201.5,93.5C 201.137,94.1835 200.804,94.8501 200.5,95.5C 189.829,108.498 176.496,117.498 160.5,122.5C 150.245,124.468 149.245,122.802 157.5,117.5C 171.876,110.474 184.209,100.807 194.5,88.5 Z"/></g>
<g><path style="opacity:1" fill="#9cd4b5" d="M 306.5,103.5 C 312.5,108.833 318.167,114.5 323.5,120.5C 312.04,135.127 299.04,148.294 284.5,160C 276.311,161.482 273.478,158.315 276,150.5C 287.173,135.487 297.34,119.82 306.5,103.5 Z"/></g>
<g><path style="opacity:1" fill="#559081" d="M 76.5,97.5 C 78.4482,100.621 80.6148,103.621 83,106.5C 83.4828,107.448 83.6495,108.448 83.5,109.5C 71.0636,116.381 58.0636,122.214 44.5,127C 40.6831,128.023 37.1831,127.523 34,125.5C 31.7775,121.612 32.2775,118.112 35.5,115C 49.4198,109.705 63.0865,103.872 76.5,97.5 Z"/></g>
<g><path style="opacity:1" fill="#99c5a0" d="M 200.5,95.5 C 200.833,95.5 201.167,95.5 201.5,95.5C 200.121,113.862 191.454,127.529 175.5,136.5C 170.454,131.784 165.454,127.117 160.5,122.5C 176.496,117.498 189.829,108.498 200.5,95.5 Z"/></g>
<g><path style="opacity:1" fill="#a5d1ab" d="M 142.5,102.5 C 143.552,102.351 144.552,102.517 145.5,103C 149.712,107.707 153.712,112.54 157.5,117.5C 149.245,122.802 150.245,124.468 160.5,122.5C 165.454,127.117 170.454,131.784 175.5,136.5C 153.425,149.123 133.592,146.123 116,127.5C 115.505,125.527 115.338,123.527 115.5,121.5C 128.186,120.33 137.186,113.996 142.5,102.5 Z"/></g>
<g><path style="opacity:1" fill="#7ab8a2" d="M 241.5,127.5 C 245.167,130.5 248.5,133.833 251.5,137.5C 242.204,149.796 231.538,160.796 219.5,170.5C 216.092,167.099 213.092,163.432 210.5,159.5C 221.533,149.468 231.866,138.801 241.5,127.5 Z"/></g>
<g><path style="opacity:1" fill="#cdedbb" d="M 328.5,149.5 C 339.5,164.833 350.5,180.167 361.5,195.5C 350.223,210.443 338.223,224.777 325.5,238.5C 314.5,222.5 303.5,206.5 292.5,190.5C 304.5,176.833 316.5,163.167 328.5,149.5 Z"/></g>
<g><path style="opacity:1" fill="#d4f2bb" d="M 406.5,163.5 C 412.23,162.86 415.564,165.36 416.5,171C 415.936,175.731 413.269,178.231 408.5,178.5C 403.062,177.289 400.895,173.956 402,168.5C 403.025,166.313 404.525,164.646 406.5,163.5 Z"/></g>
<g><path style="opacity:1" fill="#6daa97" d="M 210.5,159.5 C 213.092,163.432 216.092,167.099 219.5,170.5C 207.459,182.351 194.459,193.018 180.5,202.5C 178.666,197.988 175.666,194.321 171.5,191.5C 185.012,181.561 198.012,170.894 210.5,159.5 Z"/></g>
<g><path style="opacity:1" fill="#a3d6b6" d="M 118.5,160.5 C 126.33,159.495 129.496,162.828 128,170.5C 124.211,174.823 119.711,178.323 114.5,181C 96.5708,191.032 77.5708,198.198 57.5,202.5C 52.9685,202.302 50.3018,199.969 49.5,195.5C 50.1228,193.289 51.1228,191.289 52.5,189.5C 76.3412,183.677 98.3412,174.011 118.5,160.5 Z"/></g>
<g><path style="opacity:1" fill="#c7e7ba" d="M 292.5,190.5 C 303.5,206.5 314.5,222.5 325.5,238.5C 321.5,243.167 317.167,247.5 312.5,251.5C 301.009,235.856 290.009,219.856 279.5,203.5C 283.5,198.833 287.833,194.5 292.5,190.5 Z"/></g>
<g><path style="opacity:1" fill="#93cdb4" d="M 453.5,224.5 C 445.72,218.957 438.387,212.957 431.5,206.5C 438.829,194.516 445.662,182.182 452,169.5C 455.42,165.247 459.587,164.413 464.5,167C 466.014,169.587 466.68,172.42 466.5,175.5C 465.129,192.651 460.796,208.984 453.5,224.5 Z"/></g>
<g><path style="opacity:1" fill="#c0e6bb" d="M 279.5,203.5 C 290.009,219.856 301.009,235.856 312.5,251.5C 306.203,258.298 299.703,264.965 293,271.5C 290.416,276.338 291.749,279.672 297,281.5C 310.169,272.333 322.669,262.333 334.5,251.5C 339.08,257.66 343.414,263.993 347.5,270.5C 335.861,283.797 322.861,295.464 308.5,305.5C 307.504,305.586 306.671,305.252 306,304.5C 295.333,289.167 284.667,273.833 274,258.5C 273.517,257.552 273.351,256.552 273.5,255.5C 278.438,251.064 283.271,246.397 288,241.5C 290.035,237.698 289.202,234.531 285.5,232C 283.029,231.294 280.695,231.627 278.5,233C 268.337,239.916 258.003,246.583 247.5,253C 238.248,254.07 235.414,250.237 239,241.5C 252.973,229.361 266.473,216.695 279.5,203.5 Z"/></g>
<g><path style="opacity:1" fill="#5e9a89" d="M 171.5,191.5 C 175.666,194.321 178.666,197.988 180.5,202.5C 157.443,219.199 132.443,232.532 105.5,242.5C 98.8968,241.647 96.7301,237.98 99,231.5C 112.36,224.57 125.86,217.736 139.5,211C 150.389,204.729 161.056,198.229 171.5,191.5 Z"/></g>
<g><path style="opacity:1" fill="#cfedbb" d="M 347.5,270.5 C 343.414,263.993 339.08,257.66 334.5,251.5C 351.97,234.194 368.97,216.361 385.5,198C 391.526,195.679 395.526,197.679 397.5,204C 384.364,228.749 367.697,250.916 347.5,270.5 Z"/></g>
<g><path style="opacity:1" fill="#c2e6bb" d="M 143.5,283.5 C 143.611,282.883 143.944,282.383 144.5,282C 137.937,276.939 132.271,271.106 127.5,264.5C 148.362,255.736 168.695,245.902 188.5,235C 196.126,234.078 198.626,237.244 196,244.5C 180.578,260.44 163.078,273.44 143.5,283.5 Z"/></g>
<g><path style="opacity:1" fill="#a5d8b8" d="M 431.5,206.5 C 438.387,212.957 445.72,218.957 453.5,224.5C 441.224,249.415 426.224,272.415 408.5,293.5C 399.584,287.586 391.251,280.92 383.5,273.5C 401.051,252.281 417.051,229.948 431.5,206.5 Z"/></g>
<g><path style="opacity:1" fill="#91d0b6" d="M 457.5,292.5 C 453.475,289.442 450.142,285.775 447.5,281.5C 453.915,270.552 459.748,259.219 465,247.5C 471.627,242.625 476.127,244.125 478.5,252C 473.189,266.457 466.189,279.957 457.5,292.5 Z"/></g>
<g><path style="opacity:1" fill="#aedbba" d="M 200.5,266.5 C 209.977,266.133 212.977,270.299 209.5,279C 200.552,283.237 196.385,280.404 197,270.5C 198.376,269.295 199.542,267.962 200.5,266.5 Z"/></g>
<g><path style="opacity:1" fill="#ceedbb" d="M 127.5,264.5 C 132.271,271.106 137.937,276.939 144.5,282C 143.944,282.383 143.611,282.883 143.5,283.5C 125.624,293.931 106.624,301.931 86.5,307.5C 79.5,299.833 72.1667,292.5 64.5,285.5C 85.8923,279.925 106.892,272.925 127.5,264.5 Z"/></g>
<g><path style="opacity:1" fill="#b5e1ba" d="M 273.5,255.5 C 273.351,256.552 273.517,257.552 274,258.5C 284.667,273.833 295.333,289.167 306,304.5C 306.671,305.252 307.504,305.586 308.5,305.5C 291.51,319.133 273.177,330.8 253.5,340.5C 253.611,339.883 253.944,339.383 254.5,339C 244.877,325.588 235.377,312.088 226,298.5C 225.241,296.937 224.074,295.937 222.5,295.5C 240.049,282.96 257.049,269.627 273.5,255.5 Z"/></g>
<g><path style="opacity:1" fill="#b5e1ba" d="M 383.5,273.5 C 391.251,280.92 399.584,287.586 408.5,293.5C 397.875,306.459 386.542,318.793 374.5,330.5C 374.489,328.983 373.823,327.816 372.5,327C 365.833,321.667 359.167,316.333 352.5,311C 351.552,310.517 350.552,310.351 349.5,310.5C 361.076,298.315 372.409,285.982 383.5,273.5 Z"/></g>
<g><path style="opacity:1" fill="#d4f2bb" d="M 64.5,285.5 C 72.1667,292.5 79.5,299.833 86.5,307.5C 74.3463,311.665 61.8463,314.999 49,317.5C 35.8072,314.278 32.4739,306.611 39,294.5C 41.2336,292.3 43.7336,290.467 46.5,289C 52.4526,287.509 58.4526,286.343 64.5,285.5 Z"/></g>
<g><path style="opacity:1" fill="#afdabb" d="M 222.5,295.5 C 224.074,295.937 225.241,296.937 226,298.5C 235.377,312.088 244.877,325.588 254.5,339C 253.944,339.383 253.611,339.883 253.5,340.5C 248.484,343.674 243.151,346.341 237.5,348.5C 237.392,346.217 236.559,344.217 235,342.5C 225.72,330.248 217.22,317.581 209.5,304.5C 213.622,301.266 217.955,298.266 222.5,295.5 Z"/></g>
<g><path style="opacity:1" fill="#a3d7b7" d="M 209.5,304.5 C 217.22,317.581 225.72,330.248 235,342.5C 236.559,344.217 237.392,346.217 237.5,348.5C 209.356,361.882 180.023,371.882 149.5,378.5C 144.687,369.495 139.187,360.829 133,352.5C 132.092,350.561 130.592,349.561 128.5,349.5C 156.239,335.798 183.239,320.798 209.5,304.5 Z"/></g>
<g><path style="opacity:1" fill="#c2e7ba" d="M 349.5,310.5 C 350.552,310.351 351.552,310.517 352.5,311C 359.167,316.333 365.833,321.667 372.5,327C 373.823,327.816 374.489,328.983 374.5,330.5C 365.763,340.573 356.096,349.573 345.5,357.5C 336.543,351.209 327.876,344.543 319.5,337.5C 329.474,328.529 339.474,319.529 349.5,310.5 Z"/></g>
<g><path style="opacity:1" fill="#7ebca5" d="M 447.5,281.5 C 450.142,285.775 453.475,289.442 457.5,292.5C 440.131,319.874 419.464,344.541 395.5,366.5C 392.739,362.65 389.739,358.983 386.5,355.5C 409.689,333.083 430.022,308.416 447.5,281.5 Z"/></g>
<g><path style="opacity:1" fill="#709b76" d="M 448.5,357.5 C 445.008,357.554 442.008,356.554 439.5,354.5C 441.782,348.111 445.448,342.611 450.5,338C 456.493,336.332 458.993,338.498 458,344.5C 454.812,348.901 451.645,353.234 448.5,357.5 Z"/></g>
<g><path style="opacity:1" fill="#ceedbb" d="M 319.5,337.5 C 327.876,344.543 336.543,351.209 345.5,357.5C 334.943,367.778 323.609,377.112 311.5,385.5C 311.489,383.983 310.823,382.816 309.5,382C 301.021,376.015 293.021,369.515 285.5,362.5C 296.81,354.198 308.143,345.865 319.5,337.5 Z"/></g>
<g><path style="opacity:1" fill="#91ccb4" d="M 128.5,349.5 C 130.592,349.561 132.092,350.561 133,352.5C 139.187,360.829 144.687,369.495 149.5,378.5C 119.902,385.45 89.902,388.95 59.5,389C 54.3101,386.051 53.3101,382.051 56.5,377C 80.8632,368.646 104.863,359.48 128.5,349.5 Z"/></g>
<g><path style="opacity:1" fill="#6c9277" d="M 439.5,354.5 C 442.008,356.554 445.008,357.554 448.5,357.5C 446.833,361.5 445.167,365.5 443.5,369.5C 441.689,371.385 440.522,373.719 440,376.5C 437.061,386.63 435.894,396.963 436.5,407.5C 436.5,412.833 436.5,418.167 436.5,423.5C 435.167,423.5 433.833,423.5 432.5,423.5C 431.622,418.445 430.622,413.445 429.5,408.5C 429.334,399.827 429.5,391.16 430,382.5C 430.792,378.196 431.958,374.029 433.5,370C 433.272,369.601 432.938,369.435 432.5,369.5C 434.064,364.043 436.398,359.043 439.5,354.5 Z"/></g>
<g><path style="opacity:1" fill="#d4f2bb" d="M 285.5,362.5 C 293.021,369.515 301.021,376.015 309.5,382C 310.823,382.816 311.489,383.983 311.5,385.5C 299.699,394.575 287.033,402.409 273.5,409C 260.068,414.544 246.401,415.544 232.5,412C 227.167,405.333 227.167,398.667 232.5,392C 250.866,383.157 268.533,373.323 285.5,362.5 Z"/></g>
<g><path style="opacity:1" fill="#6caa98" d="M 386.5,355.5 C 389.739,358.983 392.739,362.65 395.5,366.5C 385.29,377.209 374.29,387.043 362.5,396C 353.017,398.517 349.517,395.017 352,385.5C 363.963,376.037 375.463,366.037 386.5,355.5 Z"/></g>
<g><path style="opacity:1" fill="#99c5a0" d="M 443.5,369.5 C 457.772,377.713 463.772,390.047 461.5,406.5C 453.195,407.332 444.862,407.665 436.5,407.5C 435.894,396.963 437.061,386.63 440,376.5C 440.522,373.719 441.689,371.385 443.5,369.5 Z"/></g>
<g><path style="opacity:1" fill="#99c5a0" d="M 432.5,369.5 C 432.938,369.435 433.272,369.601 433.5,370C 431.958,374.029 430.792,378.196 430,382.5C 429.5,391.16 429.334,399.827 429.5,408.5C 423.5,408.5 417.5,408.5 411.5,408.5C 411.5,407.5 411.5,406.5 411.5,405.5C 413.364,390.431 420.364,378.431 432.5,369.5 Z"/></g>
<g><path style="opacity:1" fill="#619c8b" d="M 323.5,404.5 C 330.603,403.202 334.603,406.035 335.5,413C 335.333,418.5 332.5,421.333 327,421.5C 319.875,420.602 317.208,416.602 319,409.5C 320.025,407.313 321.525,405.646 323.5,404.5 Z"/></g>
<g><path style="opacity:1" fill="#9fcba5" d="M 151.5,414.5 C 154.121,429.605 157.121,444.605 160.5,459.5C 143.818,465.523 127.485,464.69 111.5,457C 107.051,454.716 103.384,451.549 100.5,447.5C 108.295,448.782 115.962,448.782 123.5,447.5C 133.95,447.011 143.783,444.344 153,439.5C 153.483,438.552 153.649,437.552 153.5,436.5C 145.151,437.503 136.818,438.67 128.5,440C 121.464,440.72 114.464,440.553 107.5,439.5C 104.273,439.324 101.273,438.657 98.5,437.5C 101.886,426.946 108.886,419.779 119.5,416C 130.06,413.321 140.727,412.821 151.5,414.5 Z"/></g>
<g><path style="opacity:1" fill="#aad5af" d="M 160.5,459.5 C 157.121,444.605 154.121,429.605 151.5,414.5C 158.006,416.434 164.673,416.934 171.5,416C 175.681,414.487 179.348,412.154 182.5,409C 184.134,408.506 185.801,408.34 187.5,408.5C 190.344,426.137 185.344,440.97 172.5,453C 168.925,455.954 164.925,458.121 160.5,459.5 Z"/></g>
<g><path style="opacity:1" fill="#a7d3ac" d="M 411.5,405.5 C 411.5,406.5 411.5,407.5 411.5,408.5C 417.5,408.5 423.5,408.5 429.5,408.5C 430.622,413.445 431.622,418.445 432.5,423.5C 433.833,423.5 435.167,423.5 436.5,423.5C 436.5,418.167 436.5,412.833 436.5,407.5C 444.862,407.665 453.195,407.332 461.5,406.5C 460.546,416.866 458.046,426.866 454,436.5C 453.333,439.833 453.333,443.167 454,446.5C 455.579,450.655 457.412,454.655 459.5,458.5C 459.288,460.888 457.955,461.888 455.5,461.5C 422.424,457.108 407.757,438.441 411.5,405.5 Z"/></g>
<g><path style="opacity:1" fill="#6f9b76" d="M 98.5,437.5 C 101.273,438.657 104.273,439.324 107.5,439.5C 107.708,441.92 107.374,444.253 106.5,446.5C 112.128,447.495 117.794,447.829 123.5,447.5C 115.962,448.782 108.295,448.782 100.5,447.5C 87.996,445.832 76.496,441.499 66,434.5C 65.3333,432.167 65.3333,429.833 66,427.5C 67.231,426.892 68.5643,426.559 70,426.5C 79.0734,431.114 88.5734,434.781 98.5,437.5 Z"/></g>
<g><path style="opacity:1" fill="#b3dfba" d="M 377.5,433.5 C 385.032,433.532 387.865,437.199 386,444.5C 370.475,457.995 353.308,469.161 334.5,478C 328.477,479.809 324.811,477.643 323.5,471.5C 323.94,468.786 325.274,466.62 327.5,465C 345.412,456.225 362.079,445.725 377.5,433.5 Z"/></g>
<g><path style="opacity:1" fill="#528b7e" d="M 295.5,424.5 C 302.147,426.129 304.314,430.129 302,436.5C 274.307,453.68 244.974,467.346 214,477.5C 207.846,476.382 205.846,472.715 208,466.5C 221.58,459.964 235.413,453.797 249.5,448C 265.123,440.357 280.457,432.523 295.5,424.5 Z"/></g>
<g><path style="opacity:1" fill="#678a77" d="M 123.5,447.5 C 117.794,447.829 112.128,447.495 106.5,446.5C 107.374,444.253 107.708,441.92 107.5,439.5C 114.464,440.553 121.464,440.72 128.5,440C 136.818,438.67 145.151,437.503 153.5,436.5C 153.649,437.552 153.483,438.552 153,439.5C 143.783,444.344 133.95,447.011 123.5,447.5 Z"/></g>
</svg>
