<?xml version="1.0" encoding="UTF-8"?>
<!DOCTYPE svg PUBLIC "-//W3C//DTD SVG 1.1//EN" "http://www.w3.org/Graphics/SVG/1.1/DTD/svg11.dtd">
<svg xmlns="http://www.w3.org/2000/svg" version="1.1" width="512px" height="512px" style="shape-rendering:geometricPrecision; text-rendering:geometricPrecision; image-rendering:optimizeQuality; fill-rule:evenodd; clip-rule:evenodd" xmlns:xlink="http://www.w3.org/1999/xlink">
<g><path style="opacity:1" fill="#9683c8" d="M 98.5,70.5 C 97.8333,61.5 97.1667,52.5 96.5,43.5C 100.633,37.8618 105.799,33.5285 112,30.5C 120.402,32.4956 122.736,37.4956 119,45.5C 110.734,52.7215 103.901,61.0548 98.5,70.5 Z"/></g>
<g><path style="opacity:1" fill="#9689ce" d="M 187.5,30.5 C 194.967,31.1311 198.134,35.1311 197,42.5C 164.078,75.8365 152.744,115.503 163,161.5C 166.002,171.838 169.002,182.171 172,192.5C 174.024,210.407 170.357,227.074 161,242.5C 152.961,246.789 147.794,244.623 145.5,236C 148.333,228.833 151.167,221.667 154,214.5C 156,206.833 156,199.167 154,191.5C 139.905,154.813 138.905,117.813 151,80.5C 158.136,62.3817 168.636,46.5483 182.5,33C 184.315,32.2432 185.981,31.4098 187.5,30.5 Z"/></g>
<g><path style="opacity:1" fill="#9b95d4" d="M 259.5,30.5 C 269.032,31.5551 271.865,36.5551 268,45.5C 260.158,51.806 254.658,50.306 251.5,41C 252.138,35.8721 254.805,32.3721 259.5,30.5 Z"/></g>
<g><path style="opacity:1" fill="#9c9bd9" d="M 287.5,284.5 C 286.507,276.016 286.174,267.349 286.5,258.5C 293.678,250.807 299.512,242.14 304,232.5C 306.869,223.599 307.202,214.599 305,205.5C 272.827,158.885 270.16,110.552 297,60.5C 302.507,51.4848 308.507,42.8182 315,34.5C 319.173,30.3058 323.673,29.8058 328.5,33C 331.671,36.5094 332.171,40.3428 330,44.5C 301.809,75.7403 291.476,112.074 299,153.5C 300.333,157.5 301.667,161.5 303,165.5C 308.93,177.75 315.264,189.75 322,201.5C 326.534,220.082 323.534,237.416 313,253.5C 304.636,264.023 296.136,274.356 287.5,284.5 Z"/></g>
<g><path style="opacity:1" fill="#967dc8" d="M 96.5,43.5 C 97.1667,52.5 97.8333,61.5 98.5,70.5C 94.2585,79.7319 89.9252,88.8986 85.5,98C 78.0541,101.441 73.3874,99.2746 71.5,91.5C 76.1921,73.4439 84.5254,57.4439 96.5,43.5 Z"/></g>
<g><path style="opacity:1" fill="#9b95d4" d="M 234.5,115.5 C 233.503,98.6749 233.17,81.6749 233.5,64.5C 237.508,60.5159 241.675,60.5159 246,64.5C 246.985,66.3659 247.485,68.3659 247.5,70.5C 244.359,79.4618 241.192,88.4618 238,97.5C 236.51,103.449 235.344,109.449 234.5,115.5 Z"/></g>
<g><path style="opacity:1" fill="#fac8bb" d="M 433.5,87.5 C 405.833,87.5 378.167,87.5 350.5,87.5C 359.217,71.0035 373.05,63.0035 392,63.5C 410.95,63.0035 424.783,71.0035 433.5,87.5 Z"/></g>
<g><path style="opacity:1" fill="#9a8fd4" d="M 233.5,64.5 C 233.17,81.6749 233.503,98.6749 234.5,115.5C 233.23,126.495 233.23,137.495 234.5,148.5C 233.167,179.833 233.167,211.167 234.5,242.5C 221.415,266.834 213.915,292.834 212,320.5C 211.34,322.324 210.173,323.657 208.5,324.5C 208.831,302.993 208.497,281.66 207.5,260.5C 211.987,247.859 217.82,235.859 225,224.5C 229.426,214.143 230.426,203.476 228,192.5C 212.755,152.777 212.755,113.11 228,73.5C 229.357,70.1019 231.19,67.1019 233.5,64.5 Z"/></g>
<g><path style="opacity:1" fill="#fac1bb" d="M 350.5,87.5 C 378.167,87.5 405.833,87.5 433.5,87.5C 435.204,90.2558 436.537,93.2558 437.5,96.5C 407.093,96.8251 376.76,96.4918 346.5,95.5C 347.655,92.6717 348.989,90.0051 350.5,87.5 Z"/></g>
<g><path style="opacity:1" fill="#fac1b5" d="M 346.5,95.5 C 376.76,96.4918 407.093,96.8251 437.5,96.5C 438.417,99.4173 439.084,102.417 439.5,105.5C 407.76,105.825 376.093,105.492 344.5,104.5C 345.167,101.5 345.833,98.5 346.5,95.5 Z"/></g>
<g><path style="opacity:1" fill="#fabbb3" d="M 344.5,104.5 C 376.093,105.492 407.76,105.825 439.5,105.5C 440.413,111.441 440.746,117.441 440.5,123.5C 408.167,123.5 375.833,123.5 343.5,123.5C 343.295,117.122 343.628,110.789 344.5,104.5 Z"/></g>
<g><path style="opacity:1" fill="#967dc8" d="M 70.5,120.5 C 80.655,119.829 84.4884,124.496 82,134.5C 76.2188,141.351 70.8855,141.018 66,133.5C 64.6581,128.019 66.1581,123.686 70.5,120.5 Z"/></g>
<g><path style="opacity:1" fill="#fab5af" d="M 343.5,123.5 C 375.833,123.5 408.167,123.5 440.5,123.5C 440.766,127.571 440.433,131.571 439.5,135.5C 442.04,135.102 444.707,135.602 447.5,137C 449.037,138.11 449.703,139.61 449.5,141.5C 441.167,141.5 432.833,141.5 424.5,141.5C 424.525,133.865 420.859,129.199 413.5,127.5C 407.766,128.067 403.932,131.067 402,136.5C 401.503,139.146 401.336,141.813 401.5,144.5C 400.596,143.791 400.263,142.791 400.5,141.5C 394.833,141.5 389.167,141.5 383.5,141.5C 382.055,131.188 376.389,127.021 366.5,129C 361.119,132.77 359.119,137.937 360.5,144.5C 359.596,143.791 359.263,142.791 359.5,141.5C 351.167,141.5 342.833,141.5 334.5,141.5C 335.73,136.3 338.897,134.634 344,136.5C 343.633,132.254 343.467,127.92 343.5,123.5 Z"/></g>
<g><path style="opacity:1" fill="#faf8f7" d="M 383.5,141.5 C 383.49,149.55 379.657,154.55 372,156.5C 365.26,155.26 361.426,151.26 360.5,144.5C 359.119,137.937 361.119,132.77 366.5,129C 376.389,127.021 382.055,131.188 383.5,141.5 Z"/></g>
<g><path style="opacity:1" fill="#faf8f8" d="M 424.5,141.5 C 423.472,153.046 417.472,157.213 406.5,154C 403.641,151.448 401.974,148.281 401.5,144.5C 401.336,141.813 401.503,139.146 402,136.5C 403.932,131.067 407.766,128.067 413.5,127.5C 420.859,129.199 424.525,133.865 424.5,141.5 Z"/></g>
<g><path style="opacity:1" fill="#faafa9" d="M 334.5,141.5 C 342.833,141.5 351.167,141.5 359.5,141.5C 359.263,142.791 359.596,143.791 360.5,144.5C 361.426,151.26 365.26,155.26 372,156.5C 379.657,154.55 383.49,149.55 383.5,141.5C 389.167,141.5 394.833,141.5 400.5,141.5C 400.263,142.791 400.596,143.791 401.5,144.5C 401.974,148.281 403.641,151.448 406.5,154C 417.472,157.213 423.472,153.046 424.5,141.5C 432.833,141.5 441.167,141.5 449.5,141.5C 450.652,146.985 450.818,152.651 450,158.5C 449.243,160.315 448.41,161.981 447.5,163.5C 410.67,162.502 373.67,162.168 336.5,162.5C 335.442,161.4 334.608,160.066 334,158.5C 333.182,152.651 333.348,146.985 334.5,141.5 Z"/></g>
<g><path style="opacity:1" fill="#9b95d4" d="M 234.5,148.5 C 236.899,162.43 240.399,176.097 245,189.5C 248.796,208.745 245.296,226.411 234.5,242.5C 233.167,211.167 233.167,179.833 234.5,148.5 Z"/></g>
<g><path style="opacity:1" fill="#967dc8" d="M 75.5,159.5 C 80.1264,158.7 83.9597,160.034 87,163.5C 89.8691,172.441 92.5358,181.441 95,190.5C 97.2442,201.662 96.5775,212.662 93,223.5C 82.0757,247.273 73.7423,271.939 68,297.5C 64.4906,301.613 60.3239,302.446 55.5,300C 53.1285,298.257 51.7952,295.923 51.5,293C 57.74,265.28 66.5733,238.447 78,212.5C 78.4069,209.318 78.9069,206.151 79.5,203C 77.322,191.131 74.322,179.464 70.5,168C 70.6052,164.121 72.2719,161.288 75.5,159.5 Z"/></g>
<g><path style="opacity:1" fill="#f9a8a3" d="M 336.5,162.5 C 373.67,162.168 410.67,162.502 447.5,163.5C 444.515,168.082 440.348,171.082 435,172.5C 434.295,175.476 433.129,178.142 431.5,180.5C 405.167,180.5 378.833,180.5 352.5,180.5C 350.871,178.142 349.705,175.476 349,172.5C 343.154,171.143 338.987,167.81 336.5,162.5 Z"/></g>
<g><path style="opacity:1" fill="#f9a19d" d="M 352.5,180.5 C 378.833,180.5 405.167,180.5 431.5,180.5C 427.5,189.167 421.167,195.5 412.5,199.5C 398.809,206.068 385.142,206.068 371.5,199.5C 362.833,195.5 356.5,189.167 352.5,180.5 Z"/></g>
<g><path style="opacity:1" fill="#dc6563" d="M 371.5,199.5 C 385.142,206.068 398.809,206.068 412.5,199.5C 412.011,209.289 412.678,218.955 414.5,228.5C 398.99,227.996 384.657,223.663 371.5,215.5C 371.5,210.167 371.5,204.833 371.5,199.5 Z"/></g>
<g><path style="opacity:1" fill="#f9c7ba" d="M 371.5,215.5 C 384.657,223.663 398.99,227.996 414.5,228.5C 418.803,233.809 423.137,239.142 427.5,244.5C 403.994,244.831 380.661,244.498 357.5,243.5C 360.787,239.041 364.287,234.708 368,230.5C 370.582,225.836 371.749,220.836 371.5,215.5 Z"/></g>
<g><path style="opacity:1" fill="#fac1ba" d="M 357.5,243.5 C 380.661,244.498 403.994,244.831 427.5,244.5C 434.103,248.137 439.436,253.137 443.5,259.5C 409.167,260.833 374.833,260.833 340.5,259.5C 342.22,256.269 344.553,253.436 347.5,251C 350.71,248.283 354.044,245.783 357.5,243.5 Z"/></g>
<g><path style="opacity:1" fill="#fac1b5" d="M 340.5,259.5 C 374.833,260.833 409.167,260.833 443.5,259.5C 448.717,264.252 452.717,269.918 455.5,276.5C 413.167,276.5 370.833,276.5 328.5,276.5C 331.283,269.918 335.283,264.252 340.5,259.5 Z"/></g>
<g><path style="opacity:1" fill="#968fce" d="M 207.5,260.5 C 208.497,281.66 208.831,302.993 208.5,324.5C 199.798,328.297 195.465,325.297 195.5,315.5C 196.712,296.431 200.712,278.098 207.5,260.5 Z"/></g>
<g><path style="opacity:1" fill="#9c96d4" d="M 286.5,258.5 C 286.174,267.349 286.507,276.016 287.5,284.5C 277.697,300.411 272.197,317.745 271,336.5C 269.208,381.588 271.041,426.588 276.5,471.5C 274.478,479.004 269.812,481.504 262.5,479C 261.667,478.167 260.833,477.333 260,476.5C 253.834,429.021 251.834,381.355 254,333.5C 255.849,304.405 266.682,279.405 286.5,258.5 Z"/></g>
<g><path style="opacity:1" fill="#9686cd" d="M 138.5,266.5 C 147.693,266.215 151.193,270.548 149,279.5C 144.606,286.698 139.273,287.365 133,281.5C 131.087,274.97 132.92,269.97 138.5,266.5 Z"/></g>
<g><path style="opacity:1" fill="#fabbb5" d="M 328.5,276.5 C 370.833,276.5 413.167,276.5 455.5,276.5C 459.358,283.74 462.025,291.407 463.5,299.5C 415.761,299.828 368.095,299.495 320.5,298.5C 322.18,290.791 324.847,283.458 328.5,276.5 Z"/></g>
<g><path style="opacity:1" fill="#fabaaf" d="M 320.5,298.5 C 368.095,299.495 415.761,299.828 463.5,299.5C 464.417,302.417 465.084,305.417 465.5,308.5C 416.5,308.5 367.5,308.5 318.5,308.5C 319.04,305.135 319.706,301.802 320.5,298.5 Z"/></g>
<g><path style="opacity:1" fill="#9683cd" d="M 126.5,456.5 C 127.499,407.003 127.832,357.336 127.5,307.5C 128.958,305.989 130.791,304.989 133,304.5C 136.505,304.915 139.172,306.581 141,309.5C 136.546,363.152 138.046,416.652 145.5,470C 145.174,478.669 140.841,481.669 132.5,479C 130.513,477.681 129.346,475.848 129,473.5C 128.025,467.844 127.192,462.177 126.5,456.5 Z"/></g>
<g><path style="opacity:1" fill="#9683c8" d="M 127.5,307.5 C 127.832,357.336 127.499,407.003 126.5,456.5C 120.513,408.226 120.013,359.893 125,311.5C 125.2,309.68 126.034,308.347 127.5,307.5 Z"/></g>
<g><path style="opacity:1" fill="#fab5af" d="M 318.5,308.5 C 367.5,308.5 416.5,308.5 465.5,308.5C 466.347,317.472 466.68,326.472 466.5,335.5C 465.539,337.265 465.205,339.265 465.5,341.5C 416.167,341.5 366.833,341.5 317.5,341.5C 317.316,330.477 317.649,319.477 318.5,308.5 Z"/></g>
<g><path style="opacity:1" fill="#967cc8" d="M 51.5,326.5 C 58.846,325.848 62.846,329.181 63.5,336.5C 60.9098,367.022 61.2431,397.522 64.5,428C 63.8483,436.167 59.5149,439.167 51.5,437C 50.3333,435.833 49.1667,434.667 48,433.5C 43.8725,399.197 43.5391,364.864 47,330.5C 48.3968,328.93 49.8968,327.596 51.5,326.5 Z"/></g>
<g><path style="opacity:1" fill="#f9afae" d="M 466.5,335.5 C 466.5,339.167 466.5,342.833 466.5,346.5C 416.833,346.5 367.167,346.5 317.5,346.5C 317.5,344.833 317.5,343.167 317.5,341.5C 366.833,341.5 416.167,341.5 465.5,341.5C 465.205,339.265 465.539,337.265 466.5,335.5 Z"/></g>
<g><path style="opacity:1" fill="#faaea7" d="M 317.5,346.5 C 367.167,346.5 416.833,346.5 466.5,346.5C 466.5,357.167 466.5,367.833 466.5,378.5C 417.167,378.5 367.833,378.5 318.5,378.5C 318.768,380.099 318.434,381.432 317.5,382.5C 317.5,370.5 317.5,358.5 317.5,346.5 Z"/></g>
<g><path style="opacity:1" fill="#968fcf" d="M 199.5,352.5 C 204.421,352.043 207.921,354.043 210,358.5C 210.234,395.58 212.067,432.58 215.5,469.5C 215.219,478.286 210.886,481.453 202.5,479C 200.951,477.786 199.785,476.286 199,474.5C 194.573,435.618 192.906,396.618 194,357.5C 195.107,354.887 196.94,353.22 199.5,352.5 Z"/></g>
<g><path style="opacity:1" fill="#f9a8a7" d="M 466.5,378.5 C 466.5,385.167 466.5,391.833 466.5,398.5C 465.515,394.366 465.182,390.032 465.5,385.5C 415.949,384.845 366.616,385.512 317.5,387.5C 317.5,385.833 317.5,384.167 317.5,382.5C 318.434,381.432 318.768,380.099 318.5,378.5C 367.833,378.5 417.167,378.5 466.5,378.5 Z"/></g>
<g><path style="opacity:1" fill="#faa7a2" d="M 466.5,398.5 C 466.5,406.5 466.5,414.5 466.5,422.5C 465.518,419.038 465.185,415.371 465.5,411.5C 416.5,411.5 367.5,411.5 318.5,411.5C 318.737,412.791 318.404,413.791 317.5,414.5C 317.5,405.5 317.5,396.5 317.5,387.5C 366.616,385.512 415.949,384.845 465.5,385.5C 465.182,390.032 465.515,394.366 466.5,398.5 Z"/></g>
<g><path style="opacity:1" fill="#faa2a1" d="M 466.5,422.5 C 466.5,423.5 466.5,424.5 466.5,425.5C 416.616,424.845 366.95,425.512 317.5,427.5C 317.5,423.167 317.5,418.833 317.5,414.5C 318.404,413.791 318.737,412.791 318.5,411.5C 367.5,411.5 416.5,411.5 465.5,411.5C 465.185,415.371 465.518,419.038 466.5,422.5 Z"/></g>
<g><path style="opacity:1" fill="#f9a29b" d="M 466.5,425.5 C 466.5,431.5 466.5,437.5 466.5,443.5C 416.833,443.5 367.167,443.5 317.5,443.5C 317.5,438.167 317.5,432.833 317.5,427.5C 366.95,425.512 416.616,424.845 466.5,425.5 Z"/></g>
<g><path style="opacity:1" fill="#f99c9b" d="M 317.5,443.5 C 367.167,443.5 416.833,443.5 466.5,443.5C 466.827,453.015 466.494,462.348 465.5,471.5C 465.5,469.167 465.5,466.833 465.5,464.5C 416.167,464.5 366.833,464.5 317.5,464.5C 317.5,457.5 317.5,450.5 317.5,443.5 Z"/></g>
<g><path style="opacity:1" fill="#967cc8" d="M 55.5,456.5 C 65.982,455.484 70.6487,460.317 69.5,471C 68.5549,478.921 64.2215,481.588 56.5,479C 52.1019,474.042 50.6019,468.208 52,461.5C 52.9973,459.677 54.1639,458.01 55.5,456.5 Z"/></g>
<g><path style="opacity:1" fill="#f99b96" d="M 317.5,464.5 C 366.833,464.5 416.167,464.5 465.5,464.5C 465.5,466.833 465.5,469.167 465.5,471.5C 416.167,471.5 366.833,471.5 317.5,471.5C 317.5,469.167 317.5,466.833 317.5,464.5 Z"/></g>
</svg>
