<?xml version="1.0" encoding="UTF-8"?>
<!DOCTYPE svg PUBLIC "-//W3C//DTD SVG 1.1//EN" "http://www.w3.org/Graphics/SVG/1.1/DTD/svg11.dtd">
<svg xmlns="http://www.w3.org/2000/svg" version="1.1" width="512px" height="512px" style="shape-rendering:geometricPrecision; text-rendering:geometricPrecision; image-rendering:optimizeQuality; fill-rule:evenodd; clip-rule:evenodd" xmlns:xlink="http://www.w3.org/1999/xlink">
<g><path style="opacity:1" fill="#39384c" d="M 269.5,23.5 C 292.76,22.5738 315.426,25.7405 337.5,33C 367.198,45.7074 385.698,67.8741 393,99.5C 397.533,124.637 393.533,148.303 381,170.5C 356.876,201.545 345.543,236.878 347,276.5C 344,284.5 341,292.5 338,300.5C 337.567,310.852 337.567,321.185 338,331.5C 334.002,344.251 325.502,348.751 312.5,345C 305.87,341.589 302.37,336.089 302,328.5C 300.667,317.167 299.333,305.833 298,294.5C 296.476,286.397 292.476,284.731 286,289.5C 281.111,305.414 270.611,311.58 254.5,308C 248.333,305.833 244.167,301.667 242,295.5C 240.837,289.532 239.837,283.532 239,277.5C 237.54,274.79 235.54,274.124 233,275.5C 232.585,288.918 225.752,294.751 212.5,293C 207.755,291.885 204.588,289.052 203,284.5C 197.951,247.409 182.951,215.076 158,187.5C 146.374,168.531 144.041,148.531 151,127.5C 160.118,110.931 168.451,93.9305 176,76.5C 192.551,49.783 216.384,33.283 247.5,27C 254.955,25.6755 262.288,24.5088 269.5,23.5 Z"/></g>
<g><path style="opacity:1" fill="#deb8ea" d="M 338.5,45.5 C 301.167,46.8333 263.833,46.8333 226.5,45.5C 243.28,37.3101 261.113,33.6434 280,34.5C 300.415,33.9325 319.915,37.5992 338.5,45.5 Z"/></g>
<g><path style="opacity:1" fill="#e0b4ec" d="M 226.5,45.5 C 263.833,46.8333 301.167,46.8333 338.5,45.5C 349.057,49.7707 357.723,56.4373 364.5,65.5C 308.997,65.8323 253.664,65.499 198.5,64.5C 206.44,56.1904 215.773,49.857 226.5,45.5 Z"/></g>
<g><path style="opacity:1" fill="#e0b4e6" d="M 198.5,64.5 C 253.664,65.499 308.997,65.8323 364.5,65.5C 366.633,67.0905 368.299,69.0905 369.5,71.5C 310.509,73.4962 251.176,74.1628 191.5,73.5C 193.458,70.2085 195.791,67.2085 198.5,64.5 Z"/></g>
<g><path style="opacity:1" fill="#d9aee6" d="M 369.5,71.5 C 377.471,82.1255 382.138,94.1255 383.5,107.5C 367.406,105.538 351.073,104.871 334.5,105.5C 325.365,82.1682 308.698,74.0015 284.5,81C 271.29,85.7296 260.956,93.8963 253.5,105.5C 227.092,105.176 200.759,105.51 174.5,106.5C 178.047,97.7372 181.88,89.0706 186,80.5C 187.371,77.7339 189.204,75.4006 191.5,73.5C 251.176,74.1628 310.509,73.4962 369.5,71.5 Z"/></g>
<g><path style="opacity:1" fill="#3a394d" d="M 334.5,105.5 C 336.122,109.322 337.122,113.322 337.5,117.5C 337.5,118.5 337.5,119.5 337.5,120.5C 338.662,134.038 336.662,147.038 331.5,159.5C 327.98,166.358 323.313,172.358 317.5,177.5C 311.992,181.254 305.992,183.92 299.5,185.5C 286.302,186.937 275.469,182.604 267,172.5C 264.473,168.104 261.973,163.771 259.5,159.5C 256.502,150.333 254.002,141 252,131.5C 251.039,122.712 251.539,114.046 253.5,105.5C 260.956,93.8963 271.29,85.7296 284.5,81C 308.698,74.0015 325.365,82.1682 334.5,105.5 Z"/></g>
<g><path style="opacity:1" fill="#38384b" d="M 80.5,80.5 C 116.652,79.8133 131.152,97.1466 124,132.5C 120.543,140.748 116.543,148.748 112,156.5C 107.781,168.837 106.448,181.504 108,194.5C 109.44,203.093 111.273,211.593 113.5,220C 111.268,231.453 104.601,235.12 93.5,231C 67.4523,212.734 47.619,189.234 34,160.5C 25.2723,137.987 27.9389,116.987 42,97.5C 52.7888,87.0185 65.6221,81.3519 80.5,80.5 Z"/></g>
<g><path style="opacity:1" fill="#9469ad" d="M 113.5,106.5 C 103.021,107.832 92.1879,108.499 81,108.5C 69.9948,108.5 59.1614,108.167 48.5,107.5C 54.98,98.2509 63.98,93.0842 75.5,92C 85.4476,90.6969 95.1142,91.6969 104.5,95C 109.204,97.5334 112.204,101.367 113.5,106.5 Z"/></g>
<g><path style="opacity:1" fill="#9469ad" d="M 324.5,108.5 C 304.5,108.5 284.5,108.5 264.5,108.5C 267.685,101.886 272.685,97.053 279.5,94C 291.083,87.366 302.749,87.0326 314.5,93C 319.492,97.1639 322.825,102.331 324.5,108.5 Z"/></g>
<g><path style="opacity:1" fill="#d0a4e2" d="M 253.5,105.5 C 251.539,114.046 251.039,122.712 252,131.5C 254.002,141 256.502,150.333 259.5,159.5C 253.077,159.209 246.744,159.542 240.5,160.5C 242.503,143.697 237.17,129.864 224.5,119C 207.22,111.886 194.386,116.72 186,133.5C 180.349,143.437 177.849,154.104 178.5,165.5C 177.539,163.735 177.205,161.735 177.5,159.5C 171.167,159.5 164.833,159.5 158.5,159.5C 155.714,146.308 157.88,133.975 165,122.5C 168.428,117.258 171.595,111.924 174.5,106.5C 200.759,105.51 227.092,105.176 253.5,105.5 Z"/></g>
<g><path style="opacity:1" fill="#d3a7e6" d="M 334.5,105.5 C 351.073,104.871 367.406,105.538 383.5,107.5C 383.5,110.833 383.5,114.167 383.5,117.5C 368.167,117.5 352.833,117.5 337.5,117.5C 337.122,113.322 336.122,109.322 334.5,105.5 Z"/></g>
<g><path style="opacity:1" fill="#8e69ae" d="M 113.5,106.5 C 114.268,107.263 114.768,108.263 115,109.5C 115.499,113.486 115.666,117.486 115.5,121.5C 91.1667,121.5 66.8333,121.5 42.5,121.5C 42.5,120.5 42.5,119.5 42.5,118.5C 42.4914,116.692 42.9914,115.025 44,113.5C 45.2775,111.253 46.7775,109.253 48.5,107.5C 59.1614,108.167 69.9948,108.5 81,108.5C 92.1879,108.499 103.021,107.832 113.5,106.5 Z"/></g>
<g><path style="opacity:1" fill="#8e69ae" d="M 264.5,108.5 C 284.5,108.5 304.5,108.5 324.5,108.5C 326.449,112.479 327.449,116.813 327.5,121.5C 305.5,121.5 283.5,121.5 261.5,121.5C 260.839,116.644 261.839,112.31 264.5,108.5 Z"/></g>
<g><path style="opacity:1" fill="#38384b" d="M 445.5,115.5 C 466.075,113.708 477.908,123.041 481,143.5C 485.431,189.552 471.264,228.719 438.5,261C 431.645,264.925 425.479,264.092 420,258.5C 418.299,256.1 417.466,253.433 417.5,250.5C 426.109,219.27 426.609,187.936 419,156.5C 416.312,135.178 425.145,121.511 445.5,115.5 Z"/></g>
<g><path style="opacity:1" fill="#3a394d" d="M 240.5,160.5 C 238.637,173.391 233.637,184.891 225.5,195C 215.167,202.333 204.833,202.333 194.5,195C 184.843,187.52 179.51,177.687 178.5,165.5C 177.849,154.104 180.349,143.437 186,133.5C 194.386,116.72 207.22,111.886 224.5,119C 237.17,129.864 242.503,143.697 240.5,160.5 Z"/></g>
<g><path style="opacity:1" fill="#d2a7df" d="M 383.5,107.5 C 384.165,110.817 384.499,114.317 384.5,118C 384.642,123.743 383.975,129.243 382.5,134.5C 368.205,132.517 353.538,131.85 338.5,132.5C 338.817,128.298 338.483,124.298 337.5,120.5C 337.5,119.5 337.5,118.5 337.5,117.5C 352.833,117.5 368.167,117.5 383.5,117.5C 383.5,114.167 383.5,110.833 383.5,107.5 Z"/></g>
<g><path style="opacity:1" fill="#8a69a7" d="M 42.5,118.5 C 42.5,119.5 42.5,120.5 42.5,121.5C 66.8333,121.5 91.1667,121.5 115.5,121.5C 114.894,126.955 113.227,131.955 110.5,136.5C 86.8333,136.5 63.1667,136.5 39.5,136.5C 39.0618,130.134 40.0618,124.134 42.5,118.5 Z"/></g>
<g><path style="opacity:1" fill="#8a69a7" d="M 261.5,121.5 C 283.5,121.5 305.5,121.5 327.5,121.5C 327.5,126.5 327.5,131.5 327.5,136.5C 306.167,136.5 284.833,136.5 263.5,136.5C 262.279,131.614 261.612,126.614 261.5,121.5 Z"/></g>
<g><path style="opacity:1" fill="#cda1df" d="M 337.5,120.5 C 338.483,124.298 338.817,128.298 338.5,132.5C 353.538,131.85 368.205,132.517 382.5,134.5C 381.475,143.911 378.475,152.578 373.5,160.5C 359.677,159.504 345.677,159.171 331.5,159.5C 336.662,147.038 338.662,134.038 337.5,120.5 Z"/></g>
<g><path style="opacity:1" fill="#8863a7" d="M 39.5,136.5 C 63.1667,136.5 86.8333,136.5 110.5,136.5C 107.83,141.175 105.163,145.841 102.5,150.5C 82.5,150.5 62.5,150.5 42.5,150.5C 41.7784,150.082 41.2784,149.416 41,148.5C 40.3583,144.509 39.8583,140.509 39.5,136.5 Z"/></g>
<g><path style="opacity:1" fill="#8863a7" d="M 263.5,136.5 C 284.833,136.5 306.167,136.5 327.5,136.5C 326.687,141.181 325.687,145.847 324.5,150.5C 305.5,150.5 286.5,150.5 267.5,150.5C 265.562,146.018 264.229,141.351 263.5,136.5 Z"/></g>
<g><path style="opacity:1" fill="#8865a7" d="M 470.5,146.5 C 470.5,147.833 470.5,149.167 470.5,150.5C 456.833,150.5 443.167,150.5 429.5,150.5C 429.5,148.5 429.5,146.5 429.5,144.5C 433.622,130.597 442.955,124.431 457.5,126C 465.723,130.263 470.057,137.096 470.5,146.5 Z"/></g>
<g><path style="opacity:1" fill="#8163a7" d="M 42.5,150.5 C 62.5,150.5 82.5,150.5 102.5,150.5C 97.9397,162.747 95.9397,175.413 96.5,188.5C 85.6536,188.172 74.9869,188.506 64.5,189.5C 54.352,178.216 47.0187,165.216 42.5,150.5 Z"/></g>
<g><path style="opacity:1" fill="#8263a6" d="M 206.5,125.5 C 214.464,124.347 220.631,127.014 225,133.5C 234.628,153.932 231.795,172.432 216.5,189C 212.167,191 207.833,191 203.5,189C 190.88,180.086 186.046,167.919 189,152.5C 191.874,141.377 197.708,132.377 206.5,125.5 Z"/></g>
<g><path style="opacity:1" fill="#8163a7" d="M 267.5,150.5 C 286.5,150.5 305.5,150.5 324.5,150.5C 320.502,160.999 313.502,168.832 303.5,174C 290.568,178.246 280.402,174.746 273,163.5C 270.673,159.347 268.84,155.013 267.5,150.5 Z"/></g>
<g><path style="opacity:1" fill="#8063a6" d="M 429.5,144.5 C 429.5,146.5 429.5,148.5 429.5,150.5C 443.167,150.5 456.833,150.5 470.5,150.5C 470.5,149.167 470.5,147.833 470.5,146.5C 472.325,160.68 471.325,174.68 467.5,188.5C 456.833,188.5 446.167,188.5 435.5,188.5C 434.52,176.289 432.354,164.289 429,152.5C 428.199,149.633 428.366,146.966 429.5,144.5 Z"/></g>
<g><path style="opacity:1" fill="#c89bdf" d="M 331.5,159.5 C 345.677,159.171 359.677,159.504 373.5,160.5C 370.654,167.01 366.987,173.01 362.5,178.5C 347.324,178.829 332.324,178.496 317.5,177.5C 323.313,172.358 327.98,166.358 331.5,159.5 Z"/></g>
<g><path style="opacity:1" fill="#c69ad8" d="M 317.5,177.5 C 332.324,178.496 347.324,178.829 362.5,178.5C 360.467,181.523 358.467,184.523 356.5,187.5C 337.5,186.833 318.5,186.167 299.5,185.5C 305.992,183.92 311.992,181.254 317.5,177.5 Z"/></g>
<g><path style="opacity:1" fill="#3a394d" d="M 277.5,218.5 C 274.473,223.527 270.473,227.527 265.5,230.5C 258.609,234.174 251.276,235.341 243.5,234C 238.343,231.349 235.343,227.182 234.5,221.5C 234.154,209.702 236.987,198.702 243,188.5C 249.568,181.923 257.068,180.756 265.5,185C 274.213,194.649 278.213,205.816 277.5,218.5 Z"/></g>
<g><path style="opacity:1" fill="#c496d9" d="M 158.5,159.5 C 164.833,159.5 171.167,159.5 177.5,159.5C 177.205,161.735 177.539,163.735 178.5,165.5C 179.51,177.687 184.843,187.52 194.5,195C 204.833,202.333 215.167,202.333 225.5,195C 233.637,184.891 238.637,173.391 240.5,160.5C 246.744,159.542 253.077,159.209 259.5,159.5C 261.973,163.771 264.473,168.104 267,172.5C 275.469,182.604 286.302,186.937 299.5,185.5C 318.5,186.167 337.5,186.833 356.5,187.5C 351.339,197.488 347.006,207.822 343.5,218.5C 321.5,218.5 299.5,218.5 277.5,218.5C 278.213,205.816 274.213,194.649 265.5,185C 257.068,180.756 249.568,181.923 243,188.5C 236.987,198.702 234.154,209.702 234.5,221.5C 233.596,220.791 233.263,219.791 233.5,218.5C 220.167,218.5 206.833,218.5 193.5,218.5C 183.919,204.403 174.086,190.403 164,176.5C 161.575,170.993 159.741,165.326 158.5,159.5 Z"/></g>
<g><path style="opacity:1" fill="#765ca0" d="M 96.5,188.5 C 97.6675,198.677 99.6675,208.677 102.5,218.5C 102.658,220.319 101.991,221.652 100.5,222.5C 86.6031,213.604 74.6031,202.604 64.5,189.5C 74.9869,188.506 85.6536,188.172 96.5,188.5 Z"/></g>
<g><path style="opacity:1" fill="#745ca0" d="M 252.5,192.5 C 255.482,192.104 258.149,192.771 260.5,194.5C 264.908,200.896 267.408,207.896 268,215.5C 261.572,222.76 253.905,225.094 245,222.5C 244.362,211.719 246.862,201.719 252.5,192.5 Z"/></g>
<g><path style="opacity:1" fill="#765ca0" d="M 435.5,188.5 C 446.167,188.5 456.833,188.5 467.5,188.5C 462.227,213.214 450.56,234.381 432.5,252C 431.207,252.49 429.873,252.657 428.5,252.5C 430.006,242.468 431.839,232.468 434,222.5C 435.135,211.194 435.635,199.861 435.5,188.5 Z"/></g>
<g><path style="opacity:1" fill="#38384b" d="M 385.5,200.5 C 401.036,199.874 408.869,207.207 409,222.5C 405.969,235.873 398.136,245.373 385.5,251C 375.119,252.614 368.285,248.447 365,238.5C 361.269,224.36 365.102,212.86 376.5,204C 379.571,202.704 382.571,201.538 385.5,200.5 Z"/></g>
<g><path style="opacity:1" fill="#563d82" d="M 383.5,211.5 C 399.01,210.534 402.843,216.867 395,230.5C 380.555,246.172 373.888,243.505 375,222.5C 376.553,217.788 379.386,214.121 383.5,211.5 Z"/></g>
<g><path style="opacity:1" fill="#38384b" d="M 149.5,217.5 C 163.208,215.591 171.708,221.257 175,234.5C 175.246,244.21 174.579,253.877 173,263.5C 171.076,268.922 167.243,271.922 161.5,272.5C 142.612,267.405 134.112,255.072 136,235.5C 136.998,226.693 141.498,220.693 149.5,217.5 Z"/></g>
<g><path style="opacity:1" fill="#c08ed9" d="M 277.5,218.5 C 299.5,218.5 321.5,218.5 343.5,218.5C 342.343,222.793 341.343,227.127 340.5,231.5C 315.328,231.831 290.328,231.498 265.5,230.5C 270.473,227.527 274.473,223.527 277.5,218.5 Z"/></g>
<g><path style="opacity:1" fill="#745ca0" d="M 151.5,227.5 C 156.948,226.975 161.115,228.975 164,233.5C 164.731,242.908 164.231,252.241 162.5,261.5C 149.638,257.128 144.472,248.128 147,234.5C 148.012,231.798 149.512,229.465 151.5,227.5 Z"/></g>
<g><path style="opacity:1" fill="#bc8ed4" d="M 193.5,218.5 C 206.833,218.5 220.167,218.5 233.5,218.5C 233.263,219.791 233.596,220.791 234.5,221.5C 235.343,227.182 238.343,231.349 243.5,234C 251.276,235.341 258.609,234.174 265.5,230.5C 290.328,231.498 315.328,231.831 340.5,231.5C 339.422,237.277 338.422,242.944 337.5,248.5C 337.5,247.5 337.5,246.5 337.5,245.5C 293.5,245.5 249.5,245.5 205.5,245.5C 201.813,236.451 197.813,227.451 193.5,218.5 Z"/></g>
<g><path style="opacity:1" fill="#ba88d3" d="M 205.5,245.5 C 249.5,245.5 293.5,245.5 337.5,245.5C 337.5,246.5 337.5,247.5 337.5,248.5C 337.5,254.833 337.5,261.167 337.5,267.5C 306.5,267.5 275.5,267.5 244.5,267.5C 230.13,260.613 222.297,265.279 221,281.5C 219.135,283.673 216.969,284.007 214.5,282.5C 211.827,270.158 208.827,257.824 205.5,245.5 Z"/></g>
<g><path style="opacity:1" fill="#b387d2" d="M 244.5,267.5 C 275.5,267.5 306.5,267.5 337.5,267.5C 336.987,271.553 336.154,275.553 335,279.5C 331.488,286.189 328.821,293.189 327,300.5C 327.117,310.83 327.117,321.163 327,331.5C 322.428,336.812 317.761,336.812 313,331.5C 311.041,317.202 309.374,302.869 308,288.5C 303.58,278.012 295.746,274.179 284.5,277C 281.705,278.793 279.205,280.96 277,283.5C 275.055,288.365 272.555,292.865 269.5,297C 263.986,299.365 258.819,298.865 254,295.5C 251.746,289.746 250.413,283.746 250,277.5C 248.93,273.689 247.097,270.356 244.5,267.5 Z"/></g>
<g><path style="opacity:1" fill="#3a394b" d="M 420.5,487.5 C 417.082,481.663 413.416,475.996 409.5,470.5C 407.066,466.618 404.399,462.952 401.5,459.5C 400.567,456.63 398.9,454.296 396.5,452.5C 393.258,447.019 390.258,441.352 387.5,435.5C 384.993,427.786 382.66,420.12 380.5,412.5C 380.5,406.833 380.5,401.167 380.5,395.5C 381.63,383.643 384.63,372.31 389.5,361.5C 390.645,357.689 390.812,353.689 390,349.5C 387.355,340.296 385.355,330.963 384,321.5C 382.18,318.797 379.68,317.964 376.5,319C 364.29,330.448 358.623,344.615 359.5,361.5C 358.272,373.293 355.272,384.626 350.5,395.5C 346.532,401.143 342.532,406.81 338.5,412.5C 324.879,424.599 308.879,430.599 290.5,430.5C 260.477,429.829 231.477,424.162 203.5,413.5C 198.612,410.451 194.112,406.784 190,402.5C 184.879,393.901 179.046,385.901 172.5,378.5C 162.338,363.679 148.338,355.012 130.5,352.5C 124.493,352.009 122.326,354.676 124,360.5C 129.366,366.696 134.866,372.696 140.5,378.5C 149.043,389.583 156.043,401.583 161.5,414.5C 162.401,419.469 164.735,423.636 168.5,427C 175.072,430.121 181.739,432.955 188.5,435.5C 199.257,440.714 209.59,446.714 219.5,453.5C 226.524,460.935 235.19,463.602 245.5,461.5C 266,460.379 285.667,463.712 304.5,471.5C 312.1,475.442 318.434,480.775 323.5,487.5C 318.489,487.666 313.489,487.499 308.5,487C 299.653,480.157 289.653,475.823 278.5,474C 265.069,471.522 251.569,471.022 238,472.5C 231.781,472.487 225.948,470.987 220.5,468C 203.001,454.245 183.667,443.579 162.5,436C 160.333,433.833 158.167,431.667 156,429.5C 147.118,405.304 133.451,384.304 115,366.5C 110.091,356.228 112.591,348.395 122.5,343C 139.181,340.673 153.848,345.006 166.5,356C 174.784,363.278 181.951,371.444 188,380.5C 183.639,364.11 176.305,349.11 166,335.5C 162.241,322.683 166.907,315.017 180,312.5C 192.082,314.041 201.748,319.708 209,329.5C 210.752,332.672 212.752,335.672 215,338.5C 222.94,354.713 230.607,371.046 238,387.5C 238.507,367.108 237.841,346.775 236,326.5C 239.984,317.273 246.818,314.44 256.5,318C 262.995,323.5 267.495,330.333 270,338.5C 274.545,355.191 277.212,372.191 278,389.5C 281.073,402.908 288.906,412.408 301.5,418C 318.139,416.258 330.639,408.092 339,393.5C 346.812,377.781 350.812,361.115 351,343.5C 353.42,330.49 359.586,319.656 369.5,311C 382.112,304.777 390.612,308.277 395,321.5C 396.531,332.957 398.698,344.29 401.5,355.5C 398.437,367.189 395.271,378.856 392,390.5C 389.44,408.366 392.773,425.032 402,440.5C 412.415,455.662 422.582,470.995 432.5,486.5C 428.555,487.491 424.555,487.824 420.5,487.5 Z"/></g>
<g><path style="opacity:1" fill="#f18184" d="M 264.5,360.5 C 259.521,361.608 254.521,362.608 249.5,363.5C 247.739,351.894 246.906,340.228 247,328.5C 249.881,326.972 252.214,327.638 254,330.5C 259.951,339.636 263.451,349.636 264.5,360.5 Z"/></g>
<g><path style="opacity:1" fill="#f58789" d="M 211.5,356.5 C 205.263,358.039 198.929,359.039 192.5,359.5C 187.464,349.103 181.631,339.103 175,329.5C 175.575,323.867 178.742,322.034 184.5,324C 198.095,331.027 207.095,341.86 211.5,356.5 Z"/></g>
<g><path style="opacity:1" fill="#f69297" d="M 389.5,361.5 C 385.049,360.173 380.216,359.506 375,359.5C 369.587,359.553 364.42,360.22 359.5,361.5C 358.623,344.615 364.29,330.448 376.5,319C 379.68,317.964 382.18,318.797 384,321.5C 385.355,330.963 387.355,340.296 390,349.5C 390.812,353.689 390.645,357.689 389.5,361.5 Z"/></g>
<g><path style="opacity:1" fill="#f7999c" d="M 172.5,378.5 C 161.735,377.182 151.069,377.182 140.5,378.5C 134.866,372.696 129.366,366.696 124,360.5C 122.326,354.676 124.493,352.009 130.5,352.5C 148.338,355.012 162.338,363.679 172.5,378.5 Z"/></g>
<g><path style="opacity:1" fill="#f0757c" d="M 264.5,360.5 C 265.587,372.543 267.087,384.543 269,396.5C 271.69,405.379 276.523,412.879 283.5,419C 275.044,419.881 266.71,419.214 258.5,417C 255.296,414.131 252.463,410.965 250,407.5C 249.5,392.837 249.333,378.17 249.5,363.5C 254.521,362.608 259.521,361.608 264.5,360.5 Z"/></g>
<g><path style="opacity:1" fill="#f0767d" d="M 211.5,356.5 C 217.602,368.602 223.435,380.936 229,393.5C 233.107,400.604 237.607,407.438 242.5,414C 229.364,412.4 216.864,408.567 205,402.5C 202.543,387.632 198.376,373.299 192.5,359.5C 198.929,359.039 205.263,358.039 211.5,356.5 Z"/></g>
<g><path style="opacity:1" fill="#f89fa1" d="M 389.5,361.5 C 384.63,372.31 381.63,383.643 380.5,395.5C 370.5,395.5 360.5,395.5 350.5,395.5C 355.272,384.626 358.272,373.293 359.5,361.5C 364.42,360.22 369.587,359.553 375,359.5C 380.216,359.506 385.049,360.173 389.5,361.5 Z"/></g>
<g><path style="opacity:1" fill="#f8a5a5" d="M 172.5,378.5 C 179.046,385.901 184.879,393.901 190,402.5C 194.112,406.784 198.612,410.451 203.5,413.5C 189.323,413.171 175.323,413.504 161.5,414.5C 156.043,401.583 149.043,389.583 140.5,378.5C 151.069,377.182 161.735,377.182 172.5,378.5 Z"/></g>
<g><path style="opacity:1" fill="#f9a7a7" d="M 350.5,395.5 C 360.5,395.5 370.5,395.5 380.5,395.5C 380.5,401.167 380.5,406.833 380.5,412.5C 366.5,413.833 352.5,413.833 338.5,412.5C 342.532,406.81 346.532,401.143 350.5,395.5 Z"/></g>
<g><path style="opacity:1" fill="#f8aeae" d="M 338.5,412.5 C 352.5,413.833 366.5,413.833 380.5,412.5C 382.66,420.12 384.993,427.786 387.5,435.5C 321.069,434.169 254.736,434.169 188.5,435.5C 181.739,432.955 175.072,430.121 168.5,427C 164.735,423.636 162.401,419.469 161.5,414.5C 175.323,413.504 189.323,413.171 203.5,413.5C 231.477,424.162 260.477,429.829 290.5,430.5C 308.879,430.599 324.879,424.599 338.5,412.5 Z"/></g>
<g><path style="opacity:1" fill="#f9b4b3" d="M 387.5,435.5 C 390.258,441.352 393.258,447.019 396.5,452.5C 337.331,452.168 278.331,452.501 219.5,453.5C 209.59,446.714 199.257,440.714 188.5,435.5C 254.736,434.169 321.069,434.169 387.5,435.5 Z"/></g>
<g><path style="opacity:1" fill="#f9bab4" d="M 396.5,452.5 C 398.9,454.296 400.567,456.63 401.5,459.5C 349.5,460.167 297.5,460.833 245.5,461.5C 235.19,463.602 226.524,460.935 219.5,453.5C 278.331,452.501 337.331,452.168 396.5,452.5 Z"/></g>
<g><path style="opacity:1" fill="#f7b9b9" d="M 401.5,459.5 C 404.399,462.952 407.066,466.618 409.5,470.5C 374.329,470.168 339.329,470.502 304.5,471.5C 285.667,463.712 266,460.379 245.5,461.5C 297.5,460.833 349.5,460.167 401.5,459.5 Z"/></g>
<g><path style="opacity:1" fill="#f9c0bc" d="M 304.5,471.5 C 339.329,470.502 374.329,470.168 409.5,470.5C 413.416,475.996 417.082,481.663 420.5,487.5C 388.167,487.5 355.833,487.5 323.5,487.5C 318.434,480.775 312.1,475.442 304.5,471.5 Z"/></g>
</svg>
