<?xml version="1.0" encoding="UTF-8"?>
<!DOCTYPE svg PUBLIC "-//W3C//DTD SVG 1.1//EN" "http://www.w3.org/Graphics/SVG/1.1/DTD/svg11.dtd">
<svg xmlns="http://www.w3.org/2000/svg" version="1.1" width="512px" height="512px" style="shape-rendering:geometricPrecision; text-rendering:geometricPrecision; image-rendering:optimizeQuality; fill-rule:evenodd; clip-rule:evenodd" xmlns:xlink="http://www.w3.org/1999/xlink">
<g><path style="opacity:1" fill="#8996e1" d="M 326.5,84.5 C 313.022,80.0085 299.688,75.3418 286.5,70.5C 296.483,62.6967 306.649,55.0301 317,47.5C 320.637,59.713 323.803,72.0463 326.5,84.5 Z"/></g>
<g><path style="opacity:1" fill="#daeefa" d="M 152.5,43.5 C 166.06,58.9407 179.394,74.6073 192.5,90.5C 179.768,94.9664 167.102,99.6331 154.5,104.5C 154.823,97.9779 154.49,91.6446 153.5,85.5C 153.676,71.4823 153.343,57.4823 152.5,43.5 Z"/></g>
<g><path style="opacity:1" fill="#9cacfa" d="M 152.5,43.5 C 153.343,57.4823 153.676,71.4823 153.5,85.5C 153.5,91.1667 153.5,96.8333 153.5,102.5C 147.205,101.541 140.872,100.875 134.5,100.5C 139.744,81.1658 145.744,62.1658 152.5,43.5 Z"/></g>
<g><path style="opacity:1" fill="#808adc" d="M 286.5,70.5 C 299.688,75.3418 313.022,80.0085 326.5,84.5C 330.3,98.0323 333.633,111.699 336.5,125.5C 307.452,115.988 278.452,106.321 249.5,96.5C 261.65,87.5901 273.983,78.9234 286.5,70.5 Z"/></g>
<g><path style="opacity:1" fill="#cde7fa" d="M 192.5,90.5 C 199.869,98.535 206.869,106.868 213.5,115.5C 194.245,123.03 174.911,130.363 155.5,137.5C 155.819,132.637 155.486,127.97 154.5,123.5C 154.5,117.167 154.5,110.833 154.5,104.5C 167.102,99.6331 179.768,94.9664 192.5,90.5 Z"/></g>
<g><path style="opacity:1" fill="#7b83d5" d="M 249.5,96.5 C 278.452,106.321 307.452,115.988 336.5,125.5C 338.456,131.312 340.123,137.312 341.5,143.5C 340.849,144.091 340.182,144.757 339.5,145.5C 303.883,133.627 268.216,121.961 232.5,110.5C 231.227,109.923 231.227,109.257 232.5,108.5C 238.185,104.475 243.851,100.475 249.5,96.5 Z"/></g>
<g><path style="opacity:1" fill="#757dd4" d="M 232.5,110.5 C 268.216,121.961 303.883,133.627 339.5,145.5C 340.182,144.757 340.849,144.091 341.5,143.5C 342.815,148.095 343.815,152.761 344.5,157.5C 313.445,146.871 282.279,136.537 251,126.5C 249.97,126.836 249.47,127.503 249.5,128.5C 243.861,122.526 238.195,116.526 232.5,110.5 Z"/></g>
<g><path style="opacity:1" fill="#a2b9fa" d="M 153.5,85.5 C 154.49,91.6446 154.823,97.9779 154.5,104.5C 154.5,110.833 154.5,117.167 154.5,123.5C 154.5,126.167 154.5,128.833 154.5,131.5C 145.494,130.799 136.494,129.966 127.5,129C 126.956,128.283 126.289,127.783 125.5,127.5C 128.054,118.255 131.054,109.255 134.5,100.5C 140.872,100.875 147.205,101.541 153.5,102.5C 153.5,96.8333 153.5,91.1667 153.5,85.5 Z"/></g>
<g><path style="opacity:1" fill="#c0e1fa" d="M 213.5,115.5 C 221.845,124.514 229.845,133.847 237.5,143.5C 237.423,144.75 236.756,145.583 235.5,146C 209.146,156.18 182.812,166.347 156.5,176.5C 156.825,169.313 156.491,162.313 155.5,155.5C 155.5,149.5 155.5,143.5 155.5,137.5C 174.911,130.363 194.245,123.03 213.5,115.5 Z"/></g>
<g><path style="opacity:1" fill="#717cce" d="M 344.5,157.5 C 346.102,161.239 347.102,165.239 347.5,169.5C 319.467,160.489 291.467,151.489 263.5,142.5C 258.5,138.167 253.833,133.5 249.5,128.5C 249.47,127.503 249.97,126.836 251,126.5C 282.279,136.537 313.445,146.871 344.5,157.5 Z"/></g>
<g><path style="opacity:1" fill="#a7c1fa" d="M 125.5,127.5 C 126.289,127.783 126.956,128.283 127.5,129C 136.494,129.966 145.494,130.799 154.5,131.5C 154.5,136.5 154.5,141.5 154.5,146.5C 145.012,145.468 135.512,144.468 126,143.5C 124.014,143.431 122.514,142.765 121.5,141.5C 122.526,136.728 123.859,132.061 125.5,127.5 Z"/></g>
<g><path style="opacity:1" fill="#a8c8fa" d="M 154.5,123.5 C 155.486,127.97 155.819,132.637 155.5,137.5C 155.5,143.5 155.5,149.5 155.5,155.5C 155.5,158.167 155.5,160.833 155.5,163.5C 142.15,162.298 128.817,160.965 115.5,159.5C 116.928,153.215 118.928,147.215 121.5,141.5C 122.514,142.765 124.014,143.431 126,143.5C 135.512,144.468 145.012,145.468 154.5,146.5C 154.5,141.5 154.5,136.5 154.5,131.5C 154.5,128.833 154.5,126.167 154.5,123.5 Z"/></g>
<g><path style="opacity:1" fill="#6e75cd" d="M 263.5,142.5 C 291.467,151.489 319.467,160.489 347.5,169.5C 348.972,173.704 350.305,178.037 351.5,182.5C 327.055,174.907 302.722,166.907 278.5,158.5C 277.818,159.243 277.151,159.909 276.5,160.5C 276.657,159.127 276.49,157.793 276,156.5C 271.997,151.665 267.83,146.998 263.5,142.5 Z"/></g>
<g><path style="opacity:1" fill="#b4dafa" d="M 237.5,143.5 C 244.296,150.42 250.629,157.753 256.5,165.5C 256.423,166.75 255.756,167.583 254.5,168C 223.177,180.273 191.844,192.439 160.5,204.5C 159.206,203.71 158.039,202.71 157,201.5C 155.894,207.199 154.727,212.866 153.5,218.5C 135.829,216.777 118.162,214.944 100.5,213C 99.7476,212.329 99.4142,211.496 99.5,210.5C 101.637,202.758 103.97,195.092 106.5,187.5C 122.796,189.564 139.13,191.564 155.5,193.5C 156.495,187.872 156.829,182.206 156.5,176.5C 182.812,166.347 209.146,156.18 235.5,146C 236.756,145.583 237.423,144.75 237.5,143.5 Z"/></g>
<g><path style="opacity:1" fill="#6a75c7" d="M 351.5,182.5 C 351.993,184.806 352.326,187.139 352.5,189.5C 328.067,182.302 303.567,174.302 279,165.5C 278.722,166.416 278.222,167.082 277.5,167.5C 277.702,165.05 277.369,162.717 276.5,160.5C 277.151,159.909 277.818,159.243 278.5,158.5C 302.722,166.907 327.055,174.907 351.5,182.5 Z"/></g>
<g><path style="opacity:1" fill="#adcdfa" d="M 115.5,159.5 C 128.817,160.965 142.15,162.298 155.5,163.5C 155.5,168.5 155.5,173.5 155.5,178.5C 141.517,176.935 127.517,175.435 113.5,174C 112.584,173.722 111.918,173.222 111.5,172.5C 112.435,168.031 113.768,163.697 115.5,159.5 Z"/></g>
<g><path style="opacity:1" fill="#afd4fa" d="M 256.5,165.5 C 257.117,165.611 257.617,165.944 258,166.5C 259.255,172.448 260.088,178.448 260.5,184.5C 259.778,184.082 259.278,183.416 259,182.5C 229.834,194.722 200.334,206.055 170.5,216.5C 166.82,212.817 163.486,208.817 160.5,204.5C 191.844,192.439 223.177,180.273 254.5,168C 255.756,167.583 256.423,166.75 256.5,165.5 Z"/></g>
<g><path style="opacity:1" fill="#afd4fa" d="M 155.5,155.5 C 156.491,162.313 156.825,169.313 156.5,176.5C 156.829,182.206 156.495,187.872 155.5,193.5C 139.13,191.564 122.796,189.564 106.5,187.5C 107.997,182.341 109.664,177.341 111.5,172.5C 111.918,173.222 112.584,173.722 113.5,174C 127.517,175.435 141.517,176.935 155.5,178.5C 155.5,173.5 155.5,168.5 155.5,163.5C 155.5,160.833 155.5,158.167 155.5,155.5 Z"/></g>
<g><path style="opacity:1" fill="#656fc8" d="M 352.5,189.5 C 353.774,190.189 353.774,191.023 352.5,192C 330.991,206.921 309.658,222.088 288.5,237.5C 284.828,214.129 281.162,190.796 277.5,167.5C 278.222,167.082 278.722,166.416 279,165.5C 303.567,174.302 328.067,182.302 352.5,189.5 Z"/></g>
<g><path style="opacity:1" fill="#abcbfa" d="M 426.5,200.5 C 425.883,200.611 425.383,200.944 425,201.5C 416.626,194.288 408.126,187.288 399.5,180.5C 408.098,173.853 416.765,167.187 425.5,160.5C 426.499,173.817 426.833,187.15 426.5,200.5 Z"/></g>
<g><path style="opacity:1" fill="#adcdfa" d="M 260.5,184.5 C 261.445,189.114 262.112,193.781 262.5,198.5C 235.485,208.609 208.818,219.276 182.5,230.5C 178.155,226.153 174.155,221.486 170.5,216.5C 200.334,206.055 229.834,194.722 259,182.5C 259.278,183.416 259.778,184.082 260.5,184.5 Z"/></g>
<g><path style="opacity:1" fill="#b3d9fa" d="M 399.5,180.5 C 408.126,187.288 416.626,194.288 425,201.5C 425.383,200.944 425.883,200.611 426.5,200.5C 426.5,212.833 426.5,225.167 426.5,237.5C 425.601,234.067 423.601,231.234 420.5,229C 408.5,219 396.5,209 384.5,199C 382.859,197.871 381.859,196.371 381.5,194.5C 387.19,189.482 393.19,184.815 399.5,180.5 Z"/></g>
<g><path style="opacity:1" fill="#a8c8fa" d="M 262.5,198.5 C 263.418,204.845 264.418,211.179 265.5,217.5C 242.507,225.665 219.674,234.332 197,243.5C 195.97,243.836 195.47,244.503 195.5,245.5C 190.822,240.821 186.489,235.821 182.5,230.5C 208.818,219.276 235.485,208.609 262.5,198.5 Z"/></g>
<g><path style="opacity:1" fill="#c1e1fa" d="M 381.5,194.5 C 381.859,196.371 382.859,197.871 384.5,199C 396.5,209 408.5,219 420.5,229C 423.601,231.234 425.601,234.067 426.5,237.5C 426.5,246.5 426.5,255.5 426.5,264.5C 425.837,262.958 425.17,261.291 424.5,259.5C 404.5,242.5 384.5,225.5 364.5,208.5C 363.583,209.127 362.583,209.461 361.5,209.5C 367.771,204.025 374.437,199.025 381.5,194.5 Z"/></g>
<g><path style="opacity:1" fill="#cde7fa" d="M 426.5,264.5 C 426.5,268.5 426.5,272.5 426.5,276.5C 425.835,278.369 425.169,280.369 424.5,282.5C 400.019,261.854 375.686,241.021 351.5,220C 350.552,219.517 349.552,219.351 348.5,219.5C 352.614,215.936 356.948,212.603 361.5,209.5C 362.583,209.461 363.583,209.127 364.5,208.5C 384.5,225.5 404.5,242.5 424.5,259.5C 425.17,261.291 425.837,262.958 426.5,264.5 Z"/></g>
<g><path style="opacity:1" fill="#a7c1fa" d="M 265.5,217.5 C 265.922,222.547 266.589,227.547 267.5,232.5C 246.762,240.852 226.096,249.186 205.5,257.5C 201.82,253.817 198.486,249.817 195.5,245.5C 195.47,244.503 195.97,243.836 197,243.5C 219.674,234.332 242.507,225.665 265.5,217.5 Z"/></g>
<g><path style="opacity:1" fill="#d9edfa" d="M 348.5,219.5 C 349.552,219.351 350.552,219.517 351.5,220C 375.686,241.021 400.019,261.854 424.5,282.5C 425.169,280.369 425.835,278.369 426.5,276.5C 426.5,285.167 426.5,293.833 426.5,302.5C 425.842,303.398 425.176,304.398 424.5,305.5C 394.749,279.739 364.749,254.405 334.5,229.5C 338.888,225.779 343.555,222.445 348.5,219.5 Z"/></g>
<g><path style="opacity:1" fill="#c0e1fa" d="M 99.5,210.5 C 99.4142,211.496 99.7476,212.329 100.5,213C 118.162,214.944 135.829,216.777 153.5,218.5C 151.038,230.141 148.705,241.808 146.5,253.5C 144.785,252.343 142.785,251.676 140.5,251.5C 128.319,250.265 116.152,248.932 104,247.5C 102.93,247.528 102.097,247.861 101.5,248.5C 97.0318,245.866 93.3651,242.366 90.5,238C 93.2364,228.626 96.2364,219.46 99.5,210.5 Z"/></g>
<g><path style="opacity:1" fill="#a2bbfa" d="M 267.5,232.5 C 268.26,238.489 268.927,244.489 269.5,250.5C 268.85,250.196 268.183,249.863 267.5,249.5C 250.471,256.175 233.471,262.841 216.5,269.5C 212.377,265.921 208.71,261.921 205.5,257.5C 226.096,249.186 246.762,240.852 267.5,232.5 Z"/></g>
<g><path style="opacity:1" fill="#e6f2fa" d="M 334.5,229.5 C 364.749,254.405 394.749,279.739 424.5,305.5C 425.176,304.398 425.842,303.398 426.5,302.5C 426.5,312.5 426.5,322.5 426.5,332.5C 418.833,332.5 411.167,332.5 403.5,332.5C 386.167,332.5 368.833,332.5 351.5,332.5C 345.133,319.102 338.799,305.769 332.5,292.5C 325.787,277.406 318.787,262.406 311.5,247.5C 319.142,241.531 326.809,235.531 334.5,229.5 Z"/></g>
<g><path style="opacity:1" fill="#8996e1" d="M 91.5,273.5 C 85.4023,278.393 78.7357,282.559 71.5,286C 70.7476,286.671 70.4142,287.504 70.5,288.5C 64.9008,274.549 59.5674,260.382 54.5,246C 54.8333,245.5 55.1667,245 55.5,244.5C 67.5698,254.186 79.5698,263.852 91.5,273.5 Z"/></g>
<g><path style="opacity:1" fill="#a2b5fa" d="M 269.5,250.5 C 270.408,254.758 271.075,259.092 271.5,263.5C 270.691,264.469 269.691,265.302 268.5,266C 254.534,271.038 240.867,276.538 227.5,282.5C 223.123,278.732 219.456,274.399 216.5,269.5C 233.471,262.841 250.471,256.175 267.5,249.5C 268.183,249.863 268.85,250.196 269.5,250.5 Z"/></g>
<g><path style="opacity:1" fill="#cce7fa" d="M 146.5,253.5 C 144.12,263.398 142.12,273.398 140.5,283.5C 139.448,283.649 138.448,283.483 137.5,283C 125.301,271.633 113.301,260.133 101.5,248.5C 102.097,247.861 102.93,247.528 104,247.5C 116.152,248.932 128.319,250.265 140.5,251.5C 142.785,251.676 144.785,252.343 146.5,253.5 Z"/></g>
<g><path style="opacity:1" fill="#cae7fa" d="M 311.5,247.5 C 318.787,262.406 325.787,277.406 332.5,292.5C 322.142,283.804 311.808,275.137 301.5,266.5C 304.582,260.001 307.915,253.668 311.5,247.5 Z"/></g>
<g><path style="opacity:1" fill="#9daffa" d="M 271.5,263.5 C 272.167,265.819 272.334,268.153 272,270.5C 269.485,276.193 266.985,281.859 264.5,287.5C 256.09,290.303 247.757,293.303 239.5,296.5C 235.029,292.215 231.029,287.548 227.5,282.5C 240.867,276.538 254.534,271.038 268.5,266C 269.691,265.302 270.691,264.469 271.5,263.5 Z"/></g>
<g><path style="opacity:1" fill="#c0e1fa" d="M 301.5,266.5 C 311.808,275.137 322.142,283.804 332.5,292.5C 338.799,305.769 345.133,319.102 351.5,332.5C 350.488,333.872 349.488,335.205 348.5,336.5C 328.87,320.871 309.536,304.871 290.5,288.5C 293.659,280.849 297.325,273.516 301.5,266.5 Z"/></g>
<g><path style="opacity:1" fill="#acccfa" d="M 190.5,283.5 C 180.527,285.317 170.527,285.984 160.5,285.5C 162.23,276.674 164.396,268.007 167,259.5C 175.036,267.368 182.869,275.368 190.5,283.5 Z"/></g>
<g><path style="opacity:1" fill="#aed4fa" d="M 190.5,283.5 C 194.167,286.5 197.5,289.833 200.5,293.5C 187.049,295.597 173.382,297.097 159.5,298C 158.956,298.717 158.289,299.217 157.5,299.5C 158.501,294.829 159.501,290.162 160.5,285.5C 170.527,285.984 180.527,285.317 190.5,283.5 Z"/></g>
<g><path style="opacity:1" fill="#9ca7fa" d="M 264.5,287.5 C 260.77,295.96 256.77,304.293 252.5,312.5C 247.671,307.472 243.338,302.139 239.5,296.5C 247.757,293.303 256.09,290.303 264.5,287.5 Z"/></g>
<g><path style="opacity:1" fill="#808adc" d="M 91.5,273.5 C 100.452,279.784 109.118,286.45 117.5,293.5C 117.67,294.822 117.337,295.989 116.5,297C 104.435,303.69 92.7685,310.857 81.5,318.5C 77.3132,308.774 73.6465,298.774 70.5,288.5C 70.4142,287.504 70.7476,286.671 71.5,286C 78.7357,282.559 85.4023,278.393 91.5,273.5 Z"/></g>
<g><path style="opacity:1" fill="#b4d9fa" d="M 290.5,288.5 C 309.536,304.871 328.87,320.871 348.5,336.5C 346.261,341.407 343.594,346.074 340.5,350.5C 339.833,351.167 339.167,351.833 338.5,352.5C 320.665,337.501 302.665,322.668 284.5,308C 282.963,306.89 282.297,305.39 282.5,303.5C 284.407,298.016 287.073,293.016 290.5,288.5 Z"/></g>
<g><path style="opacity:1" fill="#7b83d5" d="M 117.5,293.5 C 122.873,297.844 128.206,302.177 133.5,306.5C 131.692,306.491 130.025,306.991 128.5,308C 114.609,316.442 100.609,324.609 86.5,332.5C 84.313,328.105 82.6463,323.438 81.5,318.5C 92.7685,310.857 104.435,303.69 116.5,297C 117.337,295.989 117.67,294.822 117.5,293.5 Z"/></g>
<g><path style="opacity:1" fill="#b4dafa" d="M 200.5,293.5 C 206.833,299.167 212.833,305.167 218.5,311.5C 197.005,314.244 175.338,316.577 153.5,318.5C 154.578,312.108 155.912,305.775 157.5,299.5C 158.289,299.217 158.956,298.717 159.5,298C 173.382,297.097 187.049,295.597 200.5,293.5 Z"/></g>
<g><path style="opacity:1" fill="#aed3fa" d="M 282.5,303.5 C 282.297,305.39 282.963,306.89 284.5,308C 302.665,322.668 320.665,337.501 338.5,352.5C 337.331,355.511 335.664,358.178 333.5,360.5C 332.448,360.649 331.448,360.483 330.5,360C 312.898,344.554 294.898,329.721 276.5,315.5C 277.992,311.182 279.992,307.182 282.5,303.5 Z"/></g>
<g><path style="opacity:1" fill="#adcefa" d="M 276.5,315.5 C 294.898,329.721 312.898,344.554 330.5,360C 331.448,360.483 332.448,360.649 333.5,360.5C 332.099,363.634 330.432,366.634 328.5,369.5C 327.833,369.5 327.5,369.833 327.5,370.5C 309.124,354.789 290.458,339.455 271.5,324.5C 272.774,321.24 274.44,318.24 276.5,315.5 Z"/></g>
<g><path style="opacity:1" fill="#727cd0" d="M 133.5,306.5 C 133.851,313.81 132.851,321.144 130.5,328.5C 117.963,335.93 105.629,343.597 93.5,351.5C 90.5955,345.461 88.2621,339.127 86.5,332.5C 100.609,324.609 114.609,316.442 128.5,308C 130.025,306.991 131.692,306.491 133.5,306.5 Z"/></g>
<g><path style="opacity:1" fill="#c1e1fa" d="M 218.5,311.5 C 227.167,319.5 235.5,327.833 243.5,336.5C 213.332,339.083 183.166,341.75 153,344.5C 151.014,344.431 149.514,343.765 148.5,342.5C 149.659,334.369 151.326,326.369 153.5,318.5C 175.338,316.577 197.005,314.244 218.5,311.5 Z"/></g>
<g><path style="opacity:1" fill="#a7c7fa" d="M 271.5,324.5 C 290.458,339.455 309.124,354.789 327.5,370.5C 325.739,374.34 323.239,377.673 320,380.5C 302.333,365.5 284.667,350.5 267,335.5C 266.617,336.056 266.117,336.389 265.5,336.5C 266.992,332.182 268.992,328.182 271.5,324.5 Z"/></g>
<g><path style="opacity:1" fill="#a2b5fa" d="M 351.5,332.5 C 368.833,332.5 386.167,332.5 403.5,332.5C 382.62,339.63 361.62,345.63 340.5,350.5C 343.594,346.074 346.261,341.407 348.5,336.5C 349.488,335.205 350.488,333.872 351.5,332.5 Z"/></g>
<g><path style="opacity:1" fill="#a2bbfa" d="M 403.5,332.5 C 411.167,332.5 418.833,332.5 426.5,332.5C 423.543,336.792 420.21,340.792 416.5,344.5C 387.235,352.866 358.069,361.533 329,370.5C 328.601,370.272 328.435,369.938 328.5,369.5C 330.432,366.634 332.099,363.634 333.5,360.5C 335.664,358.178 337.331,355.511 338.5,352.5C 339.167,351.833 339.833,351.167 340.5,350.5C 361.62,345.63 382.62,339.63 403.5,332.5 Z"/></g>
<g><path style="opacity:1" fill="#a7c1fa" d="M 327.5,370.5 C 327.5,369.833 327.833,369.5 328.5,369.5C 328.435,369.938 328.601,370.272 329,370.5C 358.069,361.533 387.235,352.866 416.5,344.5C 410.471,351.525 404.471,358.525 398.5,365.5C 371.102,373.017 343.769,380.85 316.5,389C 315.934,389.995 315.267,390.828 314.5,391.5C 314.67,390.178 314.337,389.011 313.5,388C 295.911,373.72 278.578,359.22 261.5,344.5C 262.326,341.515 263.659,338.849 265.5,336.5C 266.117,336.389 266.617,336.056 267,335.5C 284.667,350.5 302.333,365.5 320,380.5C 323.239,377.673 325.739,374.34 327.5,370.5 Z"/></g>
<g><path style="opacity:1" fill="#e6f3fa" d="M 83.5,357.5 C 82.6236,357.369 81.9569,357.702 81.5,358.5C 76.8084,367.221 72.1417,375.887 67.5,384.5C 59.9409,371.724 52.6075,358.724 45.5,345.5C 46,345.167 46.5,344.833 47,344.5C 59.3028,348.765 71.4694,353.099 83.5,357.5 Z"/></g>
<g><path style="opacity:1" fill="#cde7fa" d="M 243.5,336.5 C 244.833,337.167 245.833,338.167 246.5,339.5C 242.417,346.668 238.084,353.668 233.5,360.5C 233.44,359.957 233.107,359.624 232.5,359.5C 202.559,362.606 172.559,365.273 142.5,367.5C 144.057,358.945 146.057,350.612 148.5,342.5C 149.514,343.765 151.014,344.431 153,344.5C 183.166,341.75 213.332,339.083 243.5,336.5 Z"/></g>
<g><path style="opacity:1" fill="#a2bbfa" d="M 261.5,344.5 C 278.578,359.22 295.911,373.72 313.5,388C 314.337,389.011 314.67,390.178 314.5,391.5C 312.735,394.709 310.735,397.709 308.5,400.5C 308.256,397.737 306.923,395.571 304.5,394C 288.309,380.635 272.309,367.135 256.5,353.5C 257.929,350.304 259.595,347.304 261.5,344.5 Z"/></g>
<g><path style="opacity:1" fill="#6c74ca" d="M 130.5,328.5 C 127.784,342.681 124.784,356.681 121.5,370.5C 116.677,369.226 112.01,367.559 107.5,365.5C 103.534,364.956 99.8674,363.623 96.5,361.5C 95.0991,358.296 94.0991,354.963 93.5,351.5C 105.629,343.597 117.963,335.93 130.5,328.5 Z"/></g>
<g><path style="opacity:1" fill="#a1b4fa" d="M 256.5,353.5 C 272.309,367.135 288.309,380.635 304.5,394C 306.923,395.571 308.256,397.737 308.5,400.5C 307.189,403.135 305.522,405.469 303.5,407.5C 286.485,392.487 269.152,377.821 251.5,363.5C 252.659,359.849 254.326,356.515 256.5,353.5 Z"/></g>
<g><path style="opacity:1" fill="#d9edfa" d="M 83.5,357.5 C 87.7843,358.261 91.7843,359.595 95.5,361.5C 88.5666,373.701 81.9,386.034 75.5,398.5C 72.3429,394.194 69.6762,389.528 67.5,384.5C 72.1417,375.887 76.8084,367.221 81.5,358.5C 81.9569,357.702 82.6236,357.369 83.5,357.5 Z"/></g>
<g><path style="opacity:1" fill="#cde6f9" d="M 95.5,361.5 C 95.8333,361.5 96.1667,361.5 96.5,361.5C 99.8674,363.623 103.534,364.956 107.5,365.5C 100.199,381.438 91.866,396.771 82.5,411.5C 79.9159,407.334 77.5826,403 75.5,398.5C 81.9,386.034 88.5666,373.701 95.5,361.5 Z"/></g>
<g><path style="opacity:1" fill="#c1dffa" d="M 246.5,339.5 C 247.383,348.218 248.383,356.885 249.5,365.5C 249.181,370.363 249.514,375.03 250.5,379.5C 250.181,384.363 250.514,389.03 251.5,393.5C 253.227,413.159 254.893,432.826 256.5,452.5C 247.668,423.994 239.001,395.327 230.5,366.5C 232.008,364.819 233.008,362.819 233.5,360.5C 238.084,353.668 242.417,346.668 246.5,339.5 Z"/></g>
<g><path style="opacity:1" fill="#9caffa" d="M 251.5,363.5 C 269.152,377.821 286.485,392.487 303.5,407.5C 303.443,408.609 303.11,409.609 302.5,410.5C 300.853,413.473 298.853,416.14 296.5,418.5C 296.141,416.629 295.141,415.129 293.5,414C 279.041,402.543 264.874,390.71 251,378.5C 250.601,378.728 250.435,379.062 250.5,379.5C 249.514,375.03 249.181,370.363 249.5,365.5C 250.167,364.833 250.833,364.167 251.5,363.5 Z"/></g>
<g><path style="opacity:1" fill="#a8c8fa" d="M 398.5,365.5 C 392.059,373.394 385.393,381.061 378.5,388.5C 353.225,396.036 327.891,403.37 302.5,410.5C 303.11,409.609 303.443,408.609 303.5,407.5C 305.522,405.469 307.189,403.135 308.5,400.5C 310.735,397.709 312.735,394.709 314.5,391.5C 315.267,390.828 315.934,389.995 316.5,389C 343.769,380.85 371.102,373.017 398.5,365.5 Z"/></g>
<g><path style="opacity:1" fill="#c0e0f9" d="M 107.5,365.5 C 112.01,367.559 116.677,369.226 121.5,370.5C 121.324,373.727 120.657,376.727 119.5,379.5C 110.167,395.5 100.833,411.5 91.5,427.5C 88.0089,422.526 85.0089,417.192 82.5,411.5C 91.866,396.771 100.199,381.438 107.5,365.5 Z"/></g>
<g><path style="opacity:1" fill="#d8ecfa" d="M 233.5,360.5 C 233.008,362.819 232.008,364.819 230.5,366.5C 227.488,371.354 224.821,376.521 222.5,382C 231.809,410.093 240.809,438.259 249.5,466.5C 248.209,466.263 247.209,466.596 246.5,467.5C 244.5,467.5 242.5,467.5 240.5,467.5C 239.791,466.596 238.791,466.263 237.5,466.5C 230.334,442.503 222.668,418.67 214.5,395C 216.514,391.302 218.514,387.635 220.5,384C 192.955,385.519 165.622,388.019 138.5,391.5C 138.167,391.5 137.833,391.5 137.5,391.5C 138.912,383.442 140.578,375.442 142.5,367.5C 172.559,365.273 202.559,362.606 232.5,359.5C 233.107,359.624 233.44,359.957 233.5,360.5 Z"/></g>
<g><path style="opacity:1" fill="#8691e1" d="M 450.5,411.5 C 440.51,399.54 430.51,387.54 420.5,375.5C 422.628,372.87 424.961,370.37 427.5,368C 440.166,368.166 452.833,368.666 465.5,369.5C 460.507,383.489 455.507,397.489 450.5,411.5 Z"/></g>
<g><path style="opacity:1" fill="#cde6fa" d="M 230.5,366.5 C 239.001,395.327 247.668,423.994 256.5,452.5C 257.329,457.453 257.663,462.453 257.5,467.5C 253.833,467.5 250.167,467.5 246.5,467.5C 247.209,466.596 248.209,466.263 249.5,466.5C 240.809,438.259 231.809,410.093 222.5,382C 224.821,376.521 227.488,371.354 230.5,366.5 Z"/></g>
<g><path style="opacity:1" fill="#9ca8fa" d="M 296.5,418.5 C 295.331,421.511 293.664,424.178 291.5,426.5C 278.575,415.033 265.241,404.033 251.5,393.5C 250.514,389.03 250.181,384.363 250.5,379.5C 250.435,379.062 250.601,378.728 251,378.5C 264.874,390.71 279.041,402.543 293.5,414C 295.141,415.129 296.141,416.629 296.5,418.5 Z"/></g>
<g><path style="opacity:1" fill="#7f89da" d="M 420.5,375.5 C 430.51,387.54 440.51,399.54 450.5,411.5C 448.344,417.319 446.01,422.985 443.5,428.5C 433.212,415.707 422.712,403.04 412,390.5C 411.184,389.177 410.017,388.511 408.5,388.5C 412.528,384.141 416.528,379.807 420.5,375.5 Z"/></g>
<g><path style="opacity:1" fill="#b3d8fa" d="M 119.5,379.5 C 118.413,388.104 116.746,396.604 114.5,405C 117.036,408.034 119.37,411.2 121.5,414.5C 114.803,425.22 108.469,436.22 102.5,447.5C 98.3292,441.162 94.6625,434.496 91.5,427.5C 100.833,411.5 110.167,395.5 119.5,379.5 Z"/></g>
<g><path style="opacity:1" fill="#7880d3" d="M 408.5,388.5 C 410.017,388.511 411.184,389.177 412,390.5C 422.712,403.04 433.212,415.707 443.5,428.5C 432.054,433.985 420.054,438.319 407.5,441.5C 400.167,431.833 392.833,422.167 385.5,412.5C 392.465,403.867 400.132,395.867 408.5,388.5 Z"/></g>
<g><path style="opacity:1" fill="#97a3fa" d="M 137.5,391.5 C 137.833,391.5 138.167,391.5 138.5,391.5C 151.843,396.173 165.177,400.84 178.5,405.5C 178.371,419.015 177.705,432.348 176.5,445.5C 163.022,427.891 150.022,409.891 137.5,391.5 Z"/></g>
<g><path style="opacity:1" fill="#adcdfa" d="M 378.5,388.5 C 373.87,395.429 368.536,401.763 362.5,407.5C 338.735,415.42 314.735,422.753 290.5,429.5C 291.11,428.609 291.443,427.609 291.5,426.5C 293.664,424.178 295.331,421.511 296.5,418.5C 298.853,416.14 300.853,413.473 302.5,410.5C 327.891,403.37 353.225,396.036 378.5,388.5 Z"/></g>
<g><path style="opacity:1" fill="#e4f2fa" d="M 240.5,467.5 C 236.833,467.5 233.167,467.5 229.5,467.5C 226.039,459.245 222.039,451.245 217.5,443.5C 213.737,434.976 209.737,426.642 205.5,418.5C 205.249,416.83 204.582,415.33 203.5,414C 199.979,412.326 196.313,411.16 192.5,410.5C 188.06,408.462 183.393,406.796 178.5,405.5C 165.177,400.84 151.843,396.173 138.5,391.5C 165.622,388.019 192.955,385.519 220.5,384C 218.514,387.635 216.514,391.302 214.5,395C 222.668,418.67 230.334,442.503 237.5,466.5C 238.791,466.263 239.791,466.596 240.5,467.5 Z"/></g>
<g><path style="opacity:1" fill="#96a2fa" d="M 251.5,393.5 C 265.241,404.033 278.575,415.033 291.5,426.5C 291.443,427.609 291.11,428.609 290.5,429.5C 286.335,435.158 282.668,441.158 279.5,447.5C 274.682,453.789 270.349,460.456 266.5,467.5C 263.5,467.5 260.5,467.5 257.5,467.5C 257.663,462.453 257.329,457.453 256.5,452.5C 254.893,432.826 253.227,413.159 251.5,393.5 Z"/></g>
<g><path style="opacity:1" fill="#afd3fa" d="M 362.5,407.5 C 356.551,415.783 349.884,423.45 342.5,430.5C 342.265,429.903 341.765,429.57 341,429.5C 320.594,435.892 300.094,441.892 279.5,447.5C 282.668,441.158 286.335,435.158 290.5,429.5C 314.735,422.753 338.735,415.42 362.5,407.5 Z"/></g>
<g><path style="opacity:1" fill="#a0b3fa" d="M 178.5,405.5 C 183.393,406.796 188.06,408.462 192.5,410.5C 191.909,425 191.242,439.5 190.5,454C 190.485,457.576 189.818,460.742 188.5,463.5C 184.082,457.754 180.082,451.754 176.5,445.5C 177.705,432.348 178.371,419.015 178.5,405.5 Z"/></g>
<g><path style="opacity:1" fill="#a5bffa" d="M 192.5,410.5 C 196.313,411.16 199.979,412.326 203.5,414C 204.582,415.33 205.249,416.83 205.5,418.5C 204.411,434.781 203.411,451.114 202.5,467.5C 198.818,467.665 195.152,467.499 191.5,467C 190.29,465.961 189.29,464.794 188.5,463.5C 189.818,460.742 190.485,457.576 190.5,454C 191.242,439.5 191.909,425 192.5,410.5 Z"/></g>
<g><path style="opacity:1" fill="#a9c9fa" d="M 205.5,418.5 C 209.737,426.642 213.737,434.976 217.5,443.5C 217.61,451.525 217.276,459.525 216.5,467.5C 211.833,467.5 207.167,467.5 202.5,467.5C 203.411,451.114 204.411,434.781 205.5,418.5 Z"/></g>
<g><path style="opacity:1" fill="#a9c9fa" d="M 121.5,414.5 C 125.18,418.183 128.514,422.183 131.5,426.5C 124.752,438.332 117.752,449.999 110.5,461.5C 107.343,457.194 104.676,452.528 102.5,447.5C 108.469,436.22 114.803,425.22 121.5,414.5 Z"/></g>
<g><path style="opacity:1" fill="#a4bdfa" d="M 131.5,426.5 C 134.805,430.141 138.138,433.808 141.5,437.5C 140.624,437.369 139.957,437.702 139.5,438.5C 133.993,447.979 128.993,457.646 124.5,467.5C 120.818,467.665 117.152,467.499 113.5,467C 111.84,465.512 110.84,463.679 110.5,461.5C 117.752,449.999 124.752,438.332 131.5,426.5 Z"/></g>
<g><path style="opacity:1" fill="#6771c9" d="M 385.5,412.5 C 392.833,422.167 400.167,431.833 407.5,441.5C 383.417,450.53 359.083,459.197 334.5,467.5C 334.167,467.167 333.833,466.833 333.5,466.5C 350.518,448.149 367.852,430.149 385.5,412.5 Z"/></g>
<g><path style="opacity:1" fill="#b3d9fa" d="M 342.5,430.5 C 332.735,442.774 322.735,454.94 312.5,467C 297.17,467.5 281.837,467.667 266.5,467.5C 270.349,460.456 274.682,453.789 279.5,447.5C 300.094,441.892 320.594,435.892 341,429.5C 341.765,429.57 342.265,429.903 342.5,430.5 Z"/></g>
<g><path style="opacity:1" fill="#9eb1fa" d="M 141.5,437.5 C 144.833,441.5 148.167,445.5 151.5,449.5C 147.108,455.228 143.108,461.228 139.5,467.5C 134.5,467.5 129.5,467.5 124.5,467.5C 128.993,457.646 133.993,447.979 139.5,438.5C 139.957,437.702 140.624,437.369 141.5,437.5 Z"/></g>
<g><path style="opacity:1" fill="#b1d6fa" d="M 217.5,443.5 C 222.039,451.245 226.039,459.245 229.5,467.5C 225.167,467.5 220.833,467.5 216.5,467.5C 217.276,459.525 217.61,451.525 217.5,443.5 Z"/></g>
<g><path style="opacity:1" fill="#98a3fa" d="M 151.5,449.5 C 156.143,455.147 160.81,460.814 165.5,466.5C 156.859,467.498 148.192,467.831 139.5,467.5C 143.108,461.228 147.108,455.228 151.5,449.5 Z"/></g>
</svg>
