<?xml version="1.0" encoding="UTF-8"?>
<!DOCTYPE svg PUBLIC "-//W3C//DTD SVG 1.1//EN" "http://www.w3.org/Graphics/SVG/1.1/DTD/svg11.dtd">
<svg xmlns="http://www.w3.org/2000/svg" version="1.1" width="512px" height="512px" style="shape-rendering:geometricPrecision; text-rendering:geometricPrecision; image-rendering:optimizeQuality; fill-rule:evenodd; clip-rule:evenodd" xmlns:xlink="http://www.w3.org/1999/xlink">
<g><path style="opacity:1" fill="#39394c" d="M 455.5,26.5 C 478.154,24.6547 488.654,34.9881 487,57.5C 485.861,61.1122 484.194,64.4456 482,67.5C 463.319,86.0138 444.819,104.681 426.5,123.5C 434.652,132.152 442.986,140.652 451.5,149C 456.562,151.911 461.895,154.245 467.5,156C 478.785,163.961 481.952,174.461 477,187.5C 470.592,197.751 461.426,201.585 449.5,199C 439.459,194.785 433.292,187.285 431,176.5C 426.943,170.722 421.777,166.222 415.5,163C 412.281,161.045 408.947,159.712 405.5,159C 399.485,167.879 396.151,177.712 395.5,188.5C 396.664,194.137 397.164,199.804 397,205.5C 379.167,223.333 361.333,241.167 343.5,259C 384.333,299.833 425.167,340.667 466,381.5C 470.278,396.223 473.278,411.223 475,426.5C 477.195,444.017 479.028,461.517 480.5,479C 478.863,483.966 475.363,485.799 470,484.5C 438.696,482.98 407.862,478.48 377.5,471C 336.653,429.986 295.653,389.153 254.5,348.5C 214.014,388.486 173.68,428.653 133.5,469C 103.487,476.565 72.9865,481.065 42,482.5C 38.7791,482.459 35.6124,482.125 32.5,481.5C 31.6433,480.264 30.9766,478.931 30.5,477.5C 32.2768,453.069 35.1102,428.736 39,404.5C 40.3666,395.997 42.3666,387.664 45,379.5C 85.1667,339.333 125.333,299.167 165.5,259C 148.333,241.833 131.167,224.667 114,207.5C 113.836,201.804 114.336,196.137 115.5,190.5C 114.852,179.721 111.518,169.887 105.5,161C 95.1214,163.951 86.6214,169.785 80,178.5C 78.0459,183.705 75.7125,188.705 73,193.5C 59.7156,204.746 47.0489,204.079 35,191.5C 28.7689,178.951 30.9355,168.118 41.5,159C 47.7011,156.714 53.7011,154.047 59.5,151C 68.0145,142.652 76.3478,134.152 84.5,125.5C 65.1519,105.986 45.9852,86.3189 27,66.5C 19.4268,49.5475 23.9268,37.0475 40.5,29C 48.1999,27.6657 55.5332,28.6657 62.5,32C 81.6805,51.3473 101.014,70.5139 120.5,89.5C 129.152,81.3478 137.652,73.0145 146,64.5C 149.297,59.6151 151.631,54.2817 153,48.5C 161.704,36.2695 172.871,33.4362 186.5,40C 195.745,47.4627 198.579,56.9627 195,68.5C 193.224,71.9411 191.057,75.1078 188.5,78C 183.651,80.5903 178.651,82.9236 173.5,85C 165.693,91.757 159.693,99.9237 155.5,109.5C 164.591,116.031 174.757,119.698 186,120.5C 191.773,119.132 197.607,118.632 203.5,119C 220.347,136.014 237.347,152.847 254.5,169.5C 272.319,152.181 289.986,134.681 307.5,117C 324.447,120.402 340.28,117.569 355,108.5C 353.026,101.556 349.693,95.2229 345,89.5C 342.795,86.9598 340.295,84.7932 337.5,83C 332.295,81.0459 327.295,78.7125 322.5,76C 315.45,69.316 312.95,61.1494 315,51.5C 320.393,37.2193 330.56,32.0526 345.5,36C 350.864,38.0275 355.031,41.5275 358,46.5C 359.369,52.2817 361.703,57.6151 365,62.5C 373.348,71.0145 381.848,79.3478 390.5,87.5C 409.653,68.8473 428.653,50.0139 447.5,31C 450.099,29.205 452.766,27.705 455.5,26.5 Z"/></g>
<g><path style="opacity:1" fill="#f6b873" d="M 347.5,50.5 C 346.797,52.7157 345.464,54.549 343.5,56C 339.5,59.3333 335.5,62.6667 331.5,66C 330.552,66.4828 329.552,66.6495 328.5,66.5C 321.529,55.4367 324.362,48.1033 337,44.5C 341.531,44.8447 345.031,46.8447 347.5,50.5 Z"/></g>
<g><path style="opacity:1" fill="#71719e" d="M 72.5,57.5 C 69.6057,58.8823 67.1057,60.8823 65,63.5C 60.6643,68.1998 56.831,73.1998 53.5,78.5C 45.7508,72.2521 39.2508,64.9188 34,56.5C 33.0014,48.0009 36.5014,42.1676 44.5,39C 47.9283,38.2989 51.2617,38.6323 54.5,40C 61.0038,45.3375 67.0038,51.1708 72.5,57.5 Z"/></g>
<g><path style="opacity:1" fill="#71719e" d="M 455.5,78.5 C 449.167,71.5 442.5,64.8333 435.5,58.5C 441.631,51.8685 447.964,45.3685 454.5,39C 468.933,34.4607 476.433,39.6274 477,54.5C 471.08,63.5887 463.913,71.5887 455.5,78.5 Z"/></g>
<g><path style="opacity:1" fill="#f6bc7f" d="M 164.5,77.5 C 162.621,74.8852 160.288,72.7186 157.5,71C 156.423,70.5304 155.423,70.6971 154.5,71.5C 158.188,65.6248 161.021,59.2915 163,52.5C 168.6,45.4303 175.1,44.597 182.5,50C 187.653,55.9614 187.82,62.1281 183,68.5C 176.783,71.4052 170.616,74.4052 164.5,77.5 Z"/></g>
<g><path style="opacity:1" fill="#676794" d="M 72.5,57.5 C 79.5,63.8333 86.1667,70.5 92.5,77.5C 87.9477,84.2305 82.781,90.5638 77,96.5C 76.2086,97.745 75.7086,99.0783 75.5,100.5C 67.8333,93.5 60.5,86.1667 53.5,78.5C 56.831,73.1998 60.6643,68.1998 65,63.5C 67.1057,60.8823 69.6057,58.8823 72.5,57.5 Z"/></g>
<g><path style="opacity:1" fill="#f5bc80" d="M 347.5,50.5 C 350.223,56.9468 353.223,63.2802 356.5,69.5C 353.425,71.9086 350.758,74.5753 348.5,77.5C 341.976,73.4479 335.309,69.7813 328.5,66.5C 329.552,66.6495 330.552,66.4828 331.5,66C 335.5,62.6667 339.5,59.3333 343.5,56C 345.464,54.549 346.797,52.7157 347.5,50.5 Z"/></g>
<g><path style="opacity:1" fill="#676794" d="M 435.5,58.5 C 442.5,64.8333 449.167,71.5 455.5,78.5C 447.5,87.1667 439.167,95.5 430.5,103.5C 422.876,97.8782 415.543,91.8782 408.5,85.5C 417.167,76.1667 426.167,67.1667 435.5,58.5 Z"/></g>
<g><path style="opacity:1" fill="#f6c793" d="M 164.5,77.5 C 157.02,85.1211 151.02,93.7877 146.5,103.5C 141.848,100.179 137.515,96.5126 133.5,92.5C 140.167,85.1667 147.167,78.1667 154.5,71.5C 155.423,70.6971 156.423,70.5304 157.5,71C 160.288,72.7186 162.621,74.8852 164.5,77.5 Z"/></g>
<g><path style="opacity:1" fill="#f6c894" d="M 356.5,69.5 C 362.833,75.1667 368.833,81.1667 374.5,87.5C 370.798,91.2034 366.798,94.5367 362.5,97.5C 358.818,90.1337 354.152,83.467 348.5,77.5C 350.758,74.5753 353.425,71.9086 356.5,69.5 Z"/></g>
<g><path style="opacity:1" fill="#5c5c89" d="M 408.5,85.5 C 415.543,91.8782 422.876,97.8782 430.5,103.5C 426.537,107.964 422.37,112.298 418,116.5C 411.167,109.667 404.333,102.833 397.5,96C 401.036,92.2961 404.702,88.7961 408.5,85.5 Z"/></g>
<g><path style="opacity:1" fill="#585886" d="M 92.5,77.5 C 99.6315,84.1307 106.632,90.9641 113.5,98C 106.667,104.833 99.8333,111.667 93,118.5C 86.9638,112.631 81.1305,106.631 75.5,100.5C 75.7086,99.0783 76.2086,97.745 77,96.5C 82.781,90.5638 87.9477,84.2305 92.5,77.5 Z"/></g>
<g><path style="opacity:1" fill="#f8d5ac" d="M 374.5,87.5 C 383.5,95.8333 392.167,104.5 400.5,113.5C 392.167,121.5 383.833,129.5 375.5,137.5C 373.45,123.405 369.116,110.072 362.5,97.5C 366.798,94.5367 370.798,91.2034 374.5,87.5 Z"/></g>
<g><path style="opacity:1" fill="#f8d5ab" d="M 133.5,92.5 C 137.515,96.5126 141.848,100.179 146.5,103.5C 140.98,114.906 137.314,126.906 135.5,139.5C 127.167,131.5 118.833,123.5 110.5,115.5C 117.833,107.5 125.5,99.8333 133.5,92.5 Z"/></g>
<g><path style="opacity:1" fill="#eb5e3a" d="M 400.5,113.5 C 407.833,120.167 414.833,127.167 421.5,134.5C 418.167,139.167 414.833,143.833 411.5,148.5C 399.648,143.991 387.648,140.324 375.5,137.5C 383.833,129.5 392.167,121.5 400.5,113.5 Z"/></g>
<g><path style="opacity:1" fill="#eb5e39" d="M 110.5,115.5 C 118.833,123.5 127.167,131.5 135.5,139.5C 128.684,141.477 121.684,143.143 114.5,144.5C 108.462,139.463 103.129,133.797 98.5,127.5C 102.167,123.167 106.167,119.167 110.5,115.5 Z"/></g>
<g><path style="opacity:1" fill="#828ec6" d="M 348.5,157.5 C 344.436,147.642 340.77,137.642 337.5,127.5C 345.558,125.425 353.058,122.092 360,117.5C 363.494,125.142 365.161,133.142 365,141.5C 359.631,147.036 354.131,152.37 348.5,157.5 Z"/></g>
<g><path style="opacity:1" fill="#7582c0" d="M 212.5,143.5 C 202.172,155.161 191.505,166.495 180.5,177.5C 168.868,166.369 157.368,155.035 146,143.5C 145.726,135.917 147.06,128.584 150,121.5C 150.414,121.043 150.914,120.709 151.5,120.5C 166.315,129.704 182.315,132.871 199.5,130C 204.037,134.369 208.37,138.869 212.5,143.5 Z"/></g>
<g><path style="opacity:1" fill="#ebf1f8" d="M 337.5,127.5 C 340.77,137.642 344.436,147.642 348.5,157.5C 339.167,167.5 329.5,177.167 319.5,186.5C 308.806,175.14 297.806,164.14 286.5,153.5C 294.631,144.868 302.964,136.368 311.5,128C 320.147,128.753 328.814,128.586 337.5,127.5 Z"/></g>
<g><path style="opacity:1" fill="#ee6344" d="M 98.5,127.5 C 103.129,133.797 108.462,139.463 114.5,144.5C 106.404,147.763 98.4037,151.43 90.5,155.5C 86.7847,152.393 83.7847,148.727 81.5,144.5C 86.8333,138.5 92.5,132.833 98.5,127.5 Z"/></g>
<g><path style="opacity:1" fill="#ee6648" d="M 421.5,134.5 C 426.167,138.5 430.5,142.833 434.5,147.5C 432.141,150.851 429.808,154.185 427.5,157.5C 421.835,155.003 416.502,152.003 411.5,148.5C 414.833,143.833 418.167,139.167 421.5,134.5 Z"/></g>
<g><path style="opacity:1" fill="#ef6b52" d="M 81.5,144.5 C 83.7847,148.727 86.7847,152.393 90.5,155.5C 86.0297,158.241 81.6964,161.241 77.5,164.5C 74.027,162.363 71.6936,159.363 70.5,155.5C 73.8333,151.5 77.5,147.833 81.5,144.5 Z"/></g>
<g><path style="opacity:1" fill="#7c8ac2" d="M 212.5,143.5 C 224.298,154.798 235.965,166.298 247.5,178C 236.333,189.167 225.167,200.333 214,211.5C 202.631,200.298 191.465,188.965 180.5,177.5C 191.505,166.495 202.172,155.161 212.5,143.5 Z"/></g>
<g><path style="opacity:1" fill="#818dc5" d="M 385.5,182.5 C 376.852,175.523 368.186,168.523 359.5,161.5C 363.296,157.202 367.296,153.036 371.5,149C 380.09,148.351 388.09,150.184 395.5,154.5C 389.984,163.048 386.651,172.381 385.5,182.5 Z"/></g>
<g><path style="opacity:1" fill="#7a87bf" d="M 155.5,167.5 C 144.9,169.926 134.566,172.926 124.5,176.5C 122.075,168.976 119.075,161.643 115.5,154.5C 120.513,153.441 125.513,152.275 130.5,151C 133.5,150.333 136.5,150.333 139.5,151C 145.036,156.369 150.37,161.869 155.5,167.5 Z"/></g>
<g><path style="opacity:1" fill="#e5f1f9" d="M 286.5,153.5 C 297.806,164.14 308.806,175.14 319.5,186.5C 311.5,195.167 303.167,203.5 294.5,211.5C 288.004,205.171 281.337,199.005 274.5,193C 269.566,188.574 265.233,183.74 261.5,178.5C 269.5,169.833 277.833,161.5 286.5,153.5 Z"/></g>
<g><path style="opacity:1" fill="#ef6d54" d="M 434.5,147.5 C 438.526,151.195 442.526,154.862 446.5,158.5C 444.312,162.207 441.645,165.54 438.5,168.5C 435.167,164.5 431.5,160.833 427.5,157.5C 429.808,154.185 432.141,150.851 434.5,147.5 Z"/></g>
<g><path style="opacity:1" fill="#f07966" d="M 446.5,158.5 C 451.824,161.668 457.49,164.168 463.5,166C 468.72,170.916 469.887,176.75 467,183.5C 460.297,191.032 453.297,191.365 446,184.5C 443.969,178.889 441.469,173.556 438.5,168.5C 441.645,165.54 444.312,162.207 446.5,158.5 Z"/></g>
<g><path style="opacity:1" fill="#aebfed" d="M 155.5,167.5 C 145.876,178.961 136.043,190.295 126,201.5C 125.517,200.552 125.351,199.552 125.5,198.5C 125.726,191.124 125.392,183.791 124.5,176.5C 134.566,172.926 144.9,169.926 155.5,167.5 Z"/></g>
<g><path style="opacity:1" fill="#acbaeb" d="M 155.5,167.5 C 164.167,175.5 172.5,183.833 180.5,192.5C 180.649,193.552 180.483,194.552 180,195.5C 170.15,206.573 160.316,217.573 150.5,228.5C 141.868,220.369 133.368,212.036 125,203.5C 124.22,201.613 124.387,199.946 125.5,198.5C 125.351,199.552 125.517,200.552 126,201.5C 136.043,190.295 145.876,178.961 155.5,167.5 Z"/></g>
<g><path style="opacity:1" fill="#f47c6b" d="M 70.5,155.5 C 71.6936,159.363 74.027,162.363 77.5,164.5C 75.1673,167.003 73.0007,169.669 71,172.5C 68.6821,177.805 66.1821,182.972 63.5,188C 56.2785,191.997 49.7785,191.164 44,185.5C 41.1129,178.75 42.2796,172.916 47.5,168C 56.0795,165.379 63.7461,161.213 70.5,155.5 Z"/></g>
<g><path style="opacity:1" fill="#8695cc" d="M 359.5,161.5 C 368.186,168.523 376.852,175.523 385.5,182.5C 385.464,188.893 385.631,195.227 386,201.5C 374.965,212.702 363.798,223.702 352.5,234.5C 352.489,232.983 351.823,231.816 350.5,231C 339.438,221.817 328.438,212.651 317.5,203.5C 331.167,189.167 345.167,175.167 359.5,161.5 Z"/></g>
<g><path style="opacity:1" fill="#a5b4e5" d="M 180.5,192.5 C 189.132,200.631 197.632,208.964 206,217.5C 206.667,218.167 206.667,218.833 206,219.5C 195.319,230.348 184.486,241.014 173.5,251.5C 165.479,244.146 157.812,236.479 150.5,228.5C 160.316,217.573 170.15,206.573 180,195.5C 180.483,194.552 180.649,193.552 180.5,192.5 Z"/></g>
<g><path style="opacity:1" fill="#e1ebf9" d="M 261.5,178.5 C 265.233,183.74 269.566,188.574 274.5,193C 281.337,199.005 288.004,205.171 294.5,211.5C 279.167,227.5 263.5,243.167 247.5,258.5C 235.255,248.926 223.922,238.259 213.5,226.5C 229.167,210.167 245.167,194.167 261.5,178.5 Z"/></g>
<g><path style="opacity:1" fill="#889bcd" d="M 317.5,203.5 C 328.438,212.651 339.438,221.817 350.5,231C 351.823,231.816 352.489,232.983 352.5,234.5C 349.5,238.167 346.167,241.5 342.5,244.5C 341.457,241.944 339.79,239.777 337.5,238C 327.897,229.219 317.897,221.053 307.5,213.5C 310.5,209.833 313.833,206.5 317.5,203.5 Z"/></g>
<g><path style="opacity:1" fill="#8e9bd3" d="M 307.5,213.5 C 317.897,221.053 327.897,229.219 337.5,238C 339.79,239.777 341.457,241.944 342.5,244.5C 334.167,253.5 325.5,262.167 316.5,270.5C 316.141,268.629 315.141,267.129 313.5,266C 302.956,256.912 292.289,248.079 281.5,239.5C 289.833,230.5 298.5,221.833 307.5,213.5 Z"/></g>
<g><path style="opacity:1" fill="#dfe5f9" d="M 213.5,226.5 C 223.922,238.259 235.255,248.926 247.5,258.5C 240.5,266.167 233.167,273.5 225.5,280.5C 214.119,269.785 203.119,258.785 192.5,247.5C 199.167,240.167 206.167,233.167 213.5,226.5 Z"/></g>
<g><path style="opacity:1" fill="#d9e5f9" d="M 192.5,247.5 C 203.119,258.785 214.119,269.785 225.5,280.5C 217.167,289.5 208.5,298.167 199.5,306.5C 198.761,306.631 198.094,306.464 197.5,306C 186.938,295.271 176.272,284.771 165.5,274.5C 174.167,265.167 183.167,256.167 192.5,247.5 Z"/></g>
<g><path style="opacity:1" fill="#92a1d3" d="M 281.5,239.5 C 292.289,248.079 302.956,256.912 313.5,266C 315.141,267.129 316.141,268.629 316.5,270.5C 311.167,276.5 305.5,282.167 299.5,287.5C 298.797,285.284 297.464,283.451 295.5,282C 285.565,272.887 275.231,264.387 264.5,256.5C 269.833,250.5 275.5,244.833 281.5,239.5 Z"/></g>
<g><path style="opacity:1" fill="#95a1d8" d="M 264.5,256.5 C 275.231,264.387 285.565,272.887 295.5,282C 297.464,283.451 298.797,285.284 299.5,287.5C 293.5,294.167 287.167,300.5 280.5,306.5C 279.797,304.284 278.464,302.451 276.5,301C 266.473,292.006 256.14,283.506 245.5,275.5C 251.5,268.833 257.833,262.5 264.5,256.5 Z"/></g>
<g><path style="opacity:1" fill="#9ba7df" d="M 344.5,275.5 C 343.761,275.369 343.094,275.536 342.5,276C 332.275,286.962 321.942,297.795 311.5,308.5C 308.188,305.854 305.188,302.854 302.5,299.5C 313.833,288.833 324.833,277.833 335.5,266.5C 338.854,269.188 341.854,272.188 344.5,275.5 Z"/></g>
<g><path style="opacity:1" fill="#96a7d8" d="M 245.5,275.5 C 256.14,283.506 266.473,292.006 276.5,301C 278.464,302.451 279.797,304.284 280.5,306.5C 272.833,314.833 264.833,322.833 256.5,330.5C 255.797,328.284 254.464,326.451 252.5,325C 242.473,316.006 232.14,307.506 221.5,299.5C 229.167,291.167 237.167,283.167 245.5,275.5 Z"/></g>
<g><path style="opacity:1" fill="#9faee0" d="M 344.5,275.5 C 352.833,283.167 360.833,291.167 368.5,299.5C 357.785,310.881 346.785,321.881 335.5,332.5C 327.167,324.833 319.167,316.833 311.5,308.5C 321.942,297.795 332.275,286.962 342.5,276C 343.094,275.536 343.761,275.369 344.5,275.5 Z"/></g>
<g><path style="opacity:1" fill="#d4dff9" d="M 165.5,274.5 C 176.272,284.771 186.938,295.271 197.5,306C 198.094,306.464 198.761,306.631 199.5,306.5C 181.167,325.5 162.5,344.167 143.5,362.5C 138.003,357.171 132.336,352.004 126.5,347C 120.569,341.576 115.236,335.742 110.5,329.5C 128.5,310.833 146.833,292.5 165.5,274.5 Z"/></g>
<g><path style="opacity:1" fill="#9ba7df" d="M 221.5,299.5 C 232.14,307.506 242.473,316.006 252.5,325C 254.464,326.451 255.797,328.284 256.5,330.5C 253.167,334.5 249.5,338.167 245.5,341.5C 233.773,331.1 221.773,321.1 209.5,311.5C 213.167,307.167 217.167,303.167 221.5,299.5 Z"/></g>
<g><path style="opacity:1" fill="#8e9bd3" d="M 307.5,319.5 C 297.1,331.227 287.1,343.227 277.5,355.5C 271.645,350.826 266.812,345.493 263,339.5C 273.681,328.652 284.514,317.986 295.5,307.5C 299.854,311.188 303.854,315.188 307.5,319.5 Z"/></g>
<g><path style="opacity:1" fill="#a5b4e6" d="M 368.5,299.5 C 376.167,306.5 383.5,313.833 390.5,321.5C 389.761,321.369 389.094,321.536 388.5,322C 378.275,332.962 367.942,343.795 357.5,354.5C 349.833,347.5 342.5,340.167 335.5,332.5C 346.785,321.881 357.785,310.881 368.5,299.5 Z"/></g>
<g><path style="opacity:1" fill="#889bcd" d="M 307.5,319.5 C 310.167,321.5 312.5,323.833 314.5,326.5C 304.1,338.227 294.1,350.227 284.5,362.5C 281.833,360.5 279.5,358.167 277.5,355.5C 287.1,343.227 297.1,331.227 307.5,319.5 Z"/></g>
<g><path style="opacity:1" fill="#8795cd" d="M 314.5,326.5 C 322.833,334.167 330.833,342.167 338.5,350.5C 329.909,360.656 321.076,370.656 312,380.5C 310.579,382.405 309.412,384.405 308.5,386.5C 300.167,378.833 292.167,370.833 284.5,362.5C 294.1,350.227 304.1,338.227 314.5,326.5 Z"/></g>
<g><path style="opacity:1" fill="#acbaeb" d="M 390.5,321.5 C 397.833,328.167 404.833,335.167 411.5,342.5C 402.609,350.889 393.776,359.555 385,368.5C 382.92,371.065 381.087,373.732 379.5,376.5C 371.833,369.5 364.5,362.167 357.5,354.5C 367.942,343.795 378.275,332.962 388.5,322C 389.094,321.536 389.761,321.369 390.5,321.5 Z"/></g>
<g><path style="opacity:1" fill="#9faee0" d="M 209.5,311.5 C 221.773,321.1 233.773,331.1 245.5,341.5C 231.833,355.833 217.833,369.833 203.5,383.5C 191.773,373.1 179.773,363.1 167.5,353.5C 181.167,339.167 195.167,325.167 209.5,311.5 Z"/></g>
<g><path style="opacity:1" fill="#cdd9f9" d="M 110.5,329.5 C 115.236,335.742 120.569,341.576 126.5,347C 132.336,352.004 138.003,357.171 143.5,362.5C 128.167,378.5 112.5,394.167 96.5,409.5C 94.4048,408.588 92.4048,407.421 90.5,406C 80.916,396.584 71.5826,387.084 62.5,377.5C 78.1667,361.167 94.1667,345.167 110.5,329.5 Z"/></g>
<g><path style="opacity:1" fill="#b0c0f0" d="M 411.5,342.5 C 418.833,349.167 425.833,356.167 432.5,363.5C 421.14,374.194 410.14,385.194 399.5,396.5C 392.5,390.167 385.833,383.5 379.5,376.5C 381.087,373.732 382.92,371.065 385,368.5C 393.776,359.555 402.609,350.889 411.5,342.5 Z"/></g>
<g><path style="opacity:1" fill="#8295c7" d="M 338.5,350.5 C 340.833,352.167 342.833,354.167 344.5,356.5C 334.509,368.489 324.176,380.156 313.5,391.5C 311.5,390.167 309.833,388.5 308.5,386.5C 309.412,384.405 310.579,382.405 312,380.5C 321.076,370.656 329.909,360.656 338.5,350.5 Z"/></g>
<g><path style="opacity:1" fill="#808ec7" d="M 344.5,356.5 C 353.833,365.167 362.833,374.167 371.5,383.5C 370.761,383.369 370.094,383.536 369.5,384C 359.223,395.099 349.557,406.599 340.5,418.5C 331.167,409.833 322.167,400.833 313.5,391.5C 324.176,380.156 334.509,368.489 344.5,356.5 Z"/></g>
<g><path style="opacity:1" fill="#b4c7f2" d="M 432.5,363.5 C 436.167,366.5 439.5,369.833 442.5,373.5C 431.495,384.505 420.828,395.839 410.5,407.5C 406.5,404.167 402.833,400.5 399.5,396.5C 410.14,385.194 421.14,374.194 432.5,363.5 Z"/></g>
<g><path style="opacity:1" fill="#a5b4e5" d="M 167.5,353.5 C 179.773,363.1 191.773,373.1 203.5,383.5C 191.5,396.167 179.167,408.5 166.5,420.5C 165.118,417.606 163.118,415.106 160.5,413C 152.538,406.706 144.871,400.04 137.5,393C 135.595,391.579 133.595,390.412 131.5,389.5C 143.167,377.167 155.167,365.167 167.5,353.5 Z"/></g>
<g><path style="opacity:1" fill="#b9c7f8" d="M 442.5,373.5 C 448.227,378.224 453.227,383.558 457.5,389.5C 456.883,389.389 456.383,389.056 456,388.5C 447.697,397.804 439.031,406.804 430,415.5C 428.25,417.734 426.75,420.068 425.5,422.5C 420.167,417.833 415.167,412.833 410.5,407.5C 420.828,395.839 431.495,384.505 442.5,373.5 Z"/></g>
<g><path style="opacity:1" fill="#c6d2f8" d="M 62.5,377.5 C 71.5826,387.084 80.916,396.584 90.5,406C 92.4048,407.421 94.4048,408.588 96.5,409.5C 78.8684,427.632 61.0351,445.632 43,463.5C 44.0924,437.165 47.7591,411.165 54,385.5C 56.7028,382.629 59.5361,379.962 62.5,377.5 Z"/></g>
<g><path style="opacity:1" fill="#7b88c1" d="M 371.5,383.5 C 380.5,391.833 389.167,400.5 397.5,409.5C 394.606,410.882 392.106,412.882 390,415.5C 383.039,424.13 375.705,432.463 368,440.5C 367.209,441.745 366.709,443.078 366.5,444.5C 357.5,436.167 348.833,427.5 340.5,418.5C 349.557,406.599 359.223,395.099 369.5,384C 370.094,383.536 370.761,383.369 371.5,383.5 Z"/></g>
<g><path style="opacity:1" fill="#b9ccf7" d="M 457.5,389.5 C 463.364,414.51 466.864,439.844 468,465.5C 453.631,451.299 439.465,436.965 425.5,422.5C 426.75,420.068 428.25,417.734 430,415.5C 439.031,406.804 447.697,397.804 456,388.5C 456.383,389.056 456.883,389.389 457.5,389.5 Z"/></g>
<g><path style="opacity:1" fill="#a7baea" d="M 131.5,389.5 C 133.595,390.412 135.595,391.579 137.5,393C 144.871,400.04 152.538,406.706 160.5,413C 163.118,415.106 165.118,417.606 166.5,420.5C 162.167,425.5 157.5,430.167 152.5,434.5C 141.248,423.549 129.248,413.549 116.5,404.5C 121.167,399.167 126.167,394.167 131.5,389.5 Z"/></g>
<g><path style="opacity:1" fill="#aebaeb" d="M 116.5,404.5 C 129.248,413.549 141.248,423.549 152.5,434.5C 145.833,441.833 138.833,448.833 131.5,455.5C 121.239,446.351 110.906,437.184 100.5,428C 98.9221,426.906 97.2554,426.072 95.5,425.5C 102.167,418.167 109.167,411.167 116.5,404.5 Z"/></g>
<g><path style="opacity:1" fill="#7582bf" d="M 397.5,409.5 C 418.965,430.465 440.299,451.632 461.5,473C 435.173,471.833 409.173,468.166 383.5,462C 377.63,456.298 371.964,450.465 366.5,444.5C 366.709,443.078 367.209,441.745 368,440.5C 375.705,432.463 383.039,424.13 390,415.5C 392.106,412.882 394.606,410.882 397.5,409.5 Z"/></g>
<g><path style="opacity:1" fill="#aebfee" d="M 95.5,425.5 C 97.2554,426.072 98.9221,426.906 100.5,428C 110.906,437.184 121.239,446.351 131.5,455.5C 129.042,459.552 125.375,461.719 120.5,462C 97.031,466.857 73.3644,469.857 49.5,471C 64.7015,455.632 80.0348,440.465 95.5,425.5 Z"/></g>
</svg>
