<?xml version="1.0" encoding="UTF-8"?>
<!DOCTYPE svg PUBLIC "-//W3C//DTD SVG 1.1//EN" "http://www.w3.org/Graphics/SVG/1.1/DTD/svg11.dtd">
<svg xmlns="http://www.w3.org/2000/svg" version="1.1" width="512px" height="512px" style="shape-rendering:geometricPrecision; text-rendering:geometricPrecision; image-rendering:optimizeQuality; fill-rule:evenodd; clip-rule:evenodd" xmlns:xlink="http://www.w3.org/1999/xlink">
<g><path style="opacity:1" fill="#3a384b" d="M 455.5,36.5 C 469.728,35.6631 474.894,41.9964 471,55.5C 440.614,96.2194 410.614,137.219 381,178.5C 368.662,196.501 357.329,215.168 347,234.5C 345.921,237.063 345.421,239.729 345.5,242.5C 347.857,242.663 350.19,242.497 352.5,242C 357.198,239.651 361.864,237.318 366.5,235C 378.668,234.506 383.834,240.339 382,252.5C 373.705,272.461 361.205,289.294 344.5,303C 333.997,309.417 323.663,316.084 313.5,323C 303.49,332.352 296.823,343.686 293.5,357C 293.927,362.089 296.594,363.756 301.5,362C 305.5,359.667 309.5,357.333 313.5,355C 333.132,352.031 338.965,359.864 331,378.5C 314.73,407.437 291.896,429.604 262.5,445C 218.239,469.601 170.905,478.934 120.5,473C 105.03,470.261 91.0299,464.261 78.5,455C 65.4126,444.25 54.9126,431.416 47,416.5C 42.5488,404.912 39.8821,392.912 39,380.5C 35.468,327.957 48.468,279.957 78,236.5C 110.778,190.23 152.611,154.896 203.5,130.5C 216.381,133.644 220.215,141.311 215,153.5C 211.703,155.795 208.703,158.462 206,161.5C 201.545,174.261 201.545,186.928 206,199.5C 209.615,203.317 213.448,203.483 217.5,200C 220.021,197.78 222.188,195.28 224,192.5C 229,180.833 234,169.167 239,157.5C 247.557,143.945 259.391,134.445 274.5,129C 286.815,125.118 298.815,120.451 310.5,115C 320.777,108.389 330.777,101.389 340.5,94C 356.42,92.5921 362.086,99.5921 357.5,115C 358.5,115.667 359.5,115.667 360.5,115C 391.482,87.8369 423.149,61.6702 455.5,36.5 Z"/></g>
<g><path style="opacity:1" fill="#39394b" d="M 379.5,48.5 C 392.201,48.366 396.701,54.366 393,66.5C 388.567,73.9303 383.067,80.4303 376.5,86C 364.305,90.9026 356.972,86.9026 354.5,74C 354.865,70.2372 356.032,66.7372 358,63.5C 361.167,60.3333 364.333,57.1667 367.5,54C 371.481,51.8381 375.481,50.0048 379.5,48.5 Z"/></g>
<g><path style="opacity:1" fill="#39384b" d="M 289.5,51.5 C 297.96,49.6454 303.793,52.6454 307,60.5C 307.584,63.2567 307.25,65.9234 306,68.5C 291.646,90.4192 273.146,107.919 250.5,121C 231.372,121.533 224.872,112.699 231,94.5C 247.848,76.349 267.348,62.0157 289.5,51.5 Z"/></g>
<g><path style="opacity:1" fill="#f4bd7b" d="M 377.5,58.5 C 379.833,58.5 382.167,58.5 384.5,58.5C 384.856,61.5641 384.023,64.2307 382,66.5C 378.385,71.5478 373.885,75.5478 368.5,78.5C 364.853,77.5139 363.686,75.1806 365,71.5C 368.697,66.6377 372.864,62.3043 377.5,58.5 Z"/></g>
<g><path style="opacity:1" fill="#f6c77c" d="M 427.5,96.5 C 421.917,93.2531 416.917,89.2531 412.5,84.5C 427.31,71.8644 442.31,59.3644 457.5,47C 461.111,45.7458 462.611,46.9124 462,50.5C 450.723,66.0803 439.223,81.4136 427.5,96.5 Z"/></g>
<g><path style="opacity:1" fill="#f7ad80" d="M 267.5,97.5 C 262.211,94.8707 257.877,91.204 254.5,86.5C 258.241,82.7818 262.241,79.2818 266.5,76C 274.5,71.3333 282.5,66.6667 290.5,62C 292.81,61.5034 295.143,61.3367 297.5,61.5C 295.818,67.699 292.985,73.3657 289,78.5C 282.536,85.8078 275.369,92.1411 267.5,97.5 Z"/></g>
<g><path style="opacity:1" fill="#f7bf7c" d="M 412.5,84.5 C 416.917,89.2531 421.917,93.2531 427.5,96.5C 423.262,103.738 418.262,110.404 412.5,116.5C 406.996,111.833 401.33,107.333 395.5,103C 394.177,102.184 393.511,101.017 393.5,99.5C 399.546,94.119 405.879,89.119 412.5,84.5 Z"/></g>
<g><path style="opacity:1" fill="#f5a581" d="M 254.5,86.5 C 257.877,91.204 262.211,94.8707 267.5,97.5C 262.297,102.189 256.63,106.356 250.5,110C 243.864,113.33 239.531,111.497 237.5,104.5C 237.719,103.062 238.219,101.729 239,100.5C 243.759,95.2341 248.925,90.5675 254.5,86.5 Z"/></g>
<g><path style="opacity:1" fill="#f8b97c" d="M 393.5,99.5 C 393.511,101.017 394.177,102.184 395.5,103C 401.33,107.333 406.996,111.833 412.5,116.5C 408.215,123.448 403.549,130.115 398.5,136.5C 391.379,130.435 384.046,124.601 376.5,119C 375.748,118.329 375.414,117.496 375.5,116.5C 380.817,110.185 386.817,104.519 393.5,99.5 Z"/></g>
<g><path style="opacity:1" fill="#f8b37c" d="M 375.5,116.5 C 375.414,117.496 375.748,118.329 376.5,119C 384.046,124.601 391.379,130.435 398.5,136.5C 394.066,143.049 389.399,149.383 384.5,155.5C 370.227,144.351 355.894,133.184 341.5,122C 338.948,119.147 336.115,116.647 333,114.5C 332.536,113.906 332.369,113.239 332.5,112.5C 334.902,109.785 337.568,107.285 340.5,105C 343.03,103.578 345.697,103.245 348.5,104C 349.097,105.062 349.43,106.228 349.5,107.5C 347.847,112.053 347.347,116.72 348,121.5C 352.386,129.311 358.22,130.478 365.5,125C 369,122.331 372.333,119.498 375.5,116.5 Z"/></g>
<g><path style="opacity:1" fill="#f9ae81" d="M 332.5,112.5 C 332.369,113.239 332.536,113.906 333,114.5C 336.115,116.647 338.948,119.147 341.5,122C 355.894,133.184 370.227,144.351 384.5,155.5C 379.585,163.754 374.251,171.754 368.5,179.5C 347.186,162.849 326.186,145.849 305.5,128.5C 314.927,123.951 323.927,118.617 332.5,112.5 Z"/></g>
<g><path style="opacity:1" fill="#f9a782" d="M 305.5,128.5 C 326.186,145.849 347.186,162.849 368.5,179.5C 364.167,186.167 359.833,192.833 355.5,199.5C 329.583,179.919 304.25,159.586 279.5,138.5C 287.856,134.599 296.523,131.266 305.5,128.5 Z"/></g>
<g><path style="opacity:1" fill="#f9a182" d="M 279.5,138.5 C 304.25,159.586 329.583,179.919 355.5,199.5C 351.403,206.704 347.07,213.704 342.5,220.5C 313.248,198.576 284.915,175.576 257.5,151.5C 263.549,145.136 270.883,140.803 279.5,138.5 Z"/></g>
<g><path style="opacity:1" fill="#f99b82" d="M 257.5,151.5 C 284.915,175.576 313.248,198.576 342.5,220.5C 340.088,224.994 337.921,229.661 336,234.5C 335.502,237.817 335.335,241.15 335.5,244.5C 335.631,245.239 335.464,245.906 335,246.5C 304.312,221.969 273.812,197.303 243.5,172.5C 245.925,163.977 250.592,156.977 257.5,151.5 Z"/></g>
<g><path style="opacity:1" fill="#f78f82" d="M 195.5,201.5 C 182.682,190.926 169.682,180.593 156.5,170.5C 170.751,159.696 185.751,149.862 201.5,141C 206.496,140.336 208.33,142.502 207,147.5C 197.955,153.244 193.289,161.578 193,172.5C 191.763,182.401 192.596,192.068 195.5,201.5 Z"/></g>
<g><path style="opacity:1" fill="#39384b" d="M 444.5,157.5 C 451.397,157.105 455.397,160.272 456.5,167C 454.06,176.379 449.893,184.879 444,192.5C 436.837,200.663 429.337,208.496 421.5,216C 408.834,221.924 399.667,218.424 394,205.5C 392.826,200.06 393.826,195.06 397,190.5C 410.485,175.864 426.318,164.864 444.5,157.5 Z"/></g>
<g><path style="opacity:1" fill="#f98882" d="M 156.5,170.5 C 169.682,180.593 182.682,190.926 195.5,201.5C 198.39,207.386 203.056,211.052 209.5,212.5C 233.5,232.167 257.5,251.833 281.5,271.5C 274.941,275.717 268.941,280.717 263.5,286.5C 220.917,253.586 178.917,219.919 137.5,185.5C 143.522,180.15 149.855,175.15 156.5,170.5 Z"/></g>
<g><path style="opacity:1" fill="#f5af7d" d="M 442.5,168.5 C 443.5,168.5 444.5,168.5 445.5,168.5C 442.494,177.015 437.994,184.681 432,191.5C 426.5,197 421,202.5 415.5,208C 408.922,210.372 404.922,208.039 403.5,201C 403.625,199.373 404.125,197.873 405,196.5C 416.011,184.964 428.511,175.631 442.5,168.5 Z"/></g>
<g><path style="opacity:1" fill="#f99682" d="M 243.5,172.5 C 273.812,197.303 304.312,221.969 335,246.5C 335.464,245.906 335.631,245.239 335.5,244.5C 337.583,249.899 341.583,252.565 347.5,252.5C 354.896,251.97 361.563,249.47 367.5,245C 372.083,244.066 373.583,245.9 372,250.5C 365.27,265.321 356.104,278.321 344.5,289.5C 342.745,288.928 341.078,288.094 339.5,287C 304.833,259 270.167,231 235.5,203C 233.393,201.736 232.393,199.903 232.5,197.5C 236.477,189.22 240.144,180.887 243.5,172.5 Z"/></g>
<g><path style="opacity:1" fill="#f88282" d="M 137.5,185.5 C 178.917,219.919 220.917,253.586 263.5,286.5C 257.5,293.167 251.167,299.5 244.5,305.5C 244.141,303.629 243.141,302.129 241.5,301C 239.266,299.25 236.932,297.75 234.5,296.5C 244.029,284.023 242.029,273.857 228.5,266C 219.88,264.818 212.214,266.985 205.5,272.5C 178.022,249.864 150.355,227.364 122.5,205C 121.255,204.209 119.922,203.709 118.5,203.5C 124.202,196.797 130.536,190.797 137.5,185.5 Z"/></g>
<g><path style="opacity:1" fill="#f98e82" d="M 232.5,197.5 C 232.393,199.903 233.393,201.736 235.5,203C 270.167,231 304.833,259 339.5,287C 341.078,288.094 342.745,288.928 344.5,289.5C 338.571,295.139 331.904,299.806 324.5,303.5C 322.692,303.509 321.025,303.009 319.5,302C 311.293,294.954 302.96,288.121 294.5,281.5C 294.774,272.139 290.44,268.806 281.5,271.5C 257.5,251.833 233.5,232.167 209.5,212.5C 219.973,211.766 227.639,206.766 232.5,197.5 Z"/></g>
<g><path style="opacity:1" fill="#f97c82" d="M 118.5,203.5 C 119.922,203.709 121.255,204.209 122.5,205C 150.355,227.364 178.022,249.864 205.5,272.5C 194.37,278.86 182.37,281.527 169.5,280.5C 147.69,262.198 125.69,244.031 103.5,226C 102.255,225.209 100.922,224.709 99.5,224.5C 105.492,217.175 111.825,210.175 118.5,203.5 Z"/></g>
<g><path style="opacity:1" fill="#f97583" d="M 99.5,224.5 C 100.922,224.709 102.255,225.209 103.5,226C 125.69,244.031 147.69,262.198 169.5,280.5C 158.66,280.115 148.66,282.782 139.5,288.5C 139.631,287.761 139.464,287.094 139,286.5C 122.408,273.12 105.908,259.62 89.5,246C 88.255,245.209 86.9217,244.709 85.5,244.5C 89.7774,237.557 94.444,230.89 99.5,224.5 Z"/></g>
<g><path style="opacity:1" fill="#f96f88" d="M 85.5,244.5 C 86.9217,244.709 88.255,245.209 89.5,246C 105.908,259.62 122.408,273.12 139,286.5C 139.464,287.094 139.631,287.761 139.5,288.5C 133.17,293.013 127.17,298.013 121.5,303.5C 105.525,290.53 89.5246,277.53 73.5,264.5C 77.0115,257.466 81.0115,250.799 85.5,244.5 Z"/></g>
<g><path style="opacity:1" fill="#f96988" d="M 73.5,264.5 C 89.5246,277.53 105.525,290.53 121.5,303.5C 116.002,309.847 111.002,316.514 106.5,323.5C 92.2404,311.032 77.5737,299.032 62.5,287.5C 65.5963,279.535 69.263,271.869 73.5,264.5 Z"/></g>
<g><path style="opacity:1" fill="#3c3a4d" d="M 234.5,296.5 C 226.995,303.17 222.329,311.503 220.5,321.5C 218.354,330.661 217.021,339.995 216.5,349.5C 215.531,359.552 214.198,369.552 212.5,379.5C 210.616,387.489 207.949,395.155 204.5,402.5C 199.071,410.597 192.071,416.93 183.5,421.5C 167.53,427.688 151.197,428.855 134.5,425C 115.453,418.954 102.62,406.454 96,387.5C 92.8359,374.874 92.6692,362.207 95.5,349.5C 98.0638,340.372 101.731,331.705 106.5,323.5C 111.002,316.514 116.002,309.847 121.5,303.5C 127.17,298.013 133.17,293.013 139.5,288.5C 148.66,282.782 158.66,280.115 169.5,280.5C 182.37,281.527 194.37,278.86 205.5,272.5C 212.214,266.985 219.88,264.818 228.5,266C 242.029,273.857 244.029,284.023 234.5,296.5 Z"/></g>
<g><path style="opacity:1" fill="#3c3a4d" d="M 294.5,281.5 C 292.435,289.695 289.768,297.695 286.5,305.5C 281.92,312.755 276.92,319.755 271.5,326.5C 264.577,335.219 256.244,336.719 246.5,331C 240.939,325.636 239.105,319.136 241,311.5C 242.394,309.612 243.56,307.612 244.5,305.5C 251.167,299.5 257.5,293.167 263.5,286.5C 268.941,280.717 274.941,275.717 281.5,271.5C 290.44,268.806 294.774,272.139 294.5,281.5 Z"/></g>
<g><path style="opacity:1" fill="#f9f9f9" d="M 220.5,274.5 C 228.641,274.481 231.808,278.481 230,286.5C 226.38,291.789 222.38,296.789 218,301.5C 214.885,306.844 212.552,312.511 211,318.5C 208.141,337.09 205.807,355.757 204,374.5C 201.339,399.158 187.839,413.324 163.5,417C 125.989,421.148 105.656,404.481 102.5,367C 105.204,341.924 115.871,320.924 134.5,304C 149.129,291.462 166.129,286.462 185.5,289C 198.387,286.883 210.053,282.05 220.5,274.5 Z"/></g>
<g><path style="opacity:1" fill="#f5f5f6" d="M 282.5,281.5 C 283.586,281.62 284.253,282.287 284.5,283.5C 280.029,299.127 272.029,312.627 260.5,324C 250.842,325.515 247.675,321.681 251,312.5C 261.395,301.937 271.895,291.604 282.5,281.5 Z"/></g>
<g><path style="opacity:1" fill="#f88882" d="M 294.5,281.5 C 302.96,288.121 311.293,294.954 319.5,302C 321.025,303.009 322.692,303.509 324.5,303.5C 316.496,307.843 309.163,313.176 302.5,319.5C 296.871,315.206 291.537,310.539 286.5,305.5C 289.768,297.695 292.435,289.695 294.5,281.5 Z"/></g>
<g><path style="opacity:1" fill="#f96388" d="M 62.5,287.5 C 77.5737,299.032 92.2404,311.032 106.5,323.5C 101.731,331.705 98.0638,340.372 95.5,349.5C 81.5,338.5 67.5,327.5 53.5,316.5C 55.4921,306.523 58.4921,296.857 62.5,287.5 Z"/></g>
<g><path style="opacity:1" fill="#f87c82" d="M 234.5,296.5 C 236.932,297.75 239.266,299.25 241.5,301C 243.141,302.129 244.141,303.629 244.5,305.5C 243.56,307.612 242.394,309.612 241,311.5C 239.105,319.136 240.939,325.636 246.5,331C 256.244,336.719 264.577,335.219 271.5,326.5C 277.457,330.457 283.123,334.79 288.5,339.5C 286.231,344.975 284.564,350.642 283.5,356.5C 284.351,368.525 290.684,373.692 302.5,372C 307.945,370.112 312.945,367.445 317.5,364C 322.498,362.67 324.664,364.504 324,369.5C 320.098,378.197 315.265,386.197 309.5,393.5C 280.437,368.772 250.77,344.772 220.5,321.5C 222.329,311.503 226.995,303.17 234.5,296.5 Z"/></g>
<g><path style="opacity:1" fill="#f88282" d="M 286.5,305.5 C 291.537,310.539 296.871,315.206 302.5,319.5C 297.328,325.854 292.662,332.521 288.5,339.5C 283.123,334.79 277.457,330.457 271.5,326.5C 276.92,319.755 281.92,312.755 286.5,305.5 Z"/></g>
<g><path style="opacity:1" fill="#f85c88" d="M 53.5,316.5 C 67.5,327.5 81.5,338.5 95.5,349.5C 92.6692,362.207 92.8359,374.874 96,387.5C 102.62,406.454 115.453,418.954 134.5,425C 151.197,428.855 167.53,427.688 183.5,421.5C 195.004,430.834 206.671,440 218.5,449C 220.141,450.129 221.141,451.629 221.5,453.5C 206.989,458.769 191.989,461.936 176.5,463C 159.524,464.461 142.524,464.794 125.5,464C 110.343,461.839 96.6765,456.172 84.5,447C 76.9686,439.803 69.8019,432.303 63,424.5C 53.9479,410.946 49.2812,395.946 49,379.5C 47.339,358.236 48.839,337.236 53.5,316.5 Z"/></g>
<g><path style="opacity:1" fill="#f97583" d="M 220.5,321.5 C 250.77,344.772 280.437,368.772 309.5,393.5C 304.537,400.131 298.87,406.131 292.5,411.5C 268.05,389.916 242.717,369.249 216.5,349.5C 217.021,339.995 218.354,330.661 220.5,321.5 Z"/></g>
<g><path style="opacity:1" fill="#f96f88" d="M 216.5,349.5 C 242.717,369.249 268.05,389.916 292.5,411.5C 286.404,417.262 279.738,422.262 272.5,426.5C 269.366,422.571 265.699,419.071 261.5,416C 245.878,404.046 230.544,391.713 215.5,379C 214.423,378.53 213.423,378.697 212.5,379.5C 214.198,369.552 215.531,359.552 216.5,349.5 Z"/></g>
<g><path style="opacity:1" fill="#f96988" d="M 272.5,426.5 C 265.834,431.838 258.501,436.171 250.5,439.5C 235.75,426.414 220.417,414.081 204.5,402.5C 207.949,395.155 210.616,387.489 212.5,379.5C 213.423,378.697 214.423,378.53 215.5,379C 230.544,391.713 245.878,404.046 261.5,416C 265.699,419.071 269.366,422.571 272.5,426.5 Z"/></g>
<g><path style="opacity:1" fill="#f86388" d="M 204.5,402.5 C 220.417,414.081 235.75,426.414 250.5,439.5C 241.264,444.95 231.598,449.617 221.5,453.5C 221.141,451.629 220.141,450.129 218.5,449C 206.671,440 195.004,430.834 183.5,421.5C 192.071,416.93 199.071,410.597 204.5,402.5 Z"/></g>
</svg>
