<?xml version="1.0" encoding="UTF-8"?>
<!DOCTYPE svg PUBLIC "-//W3C//DTD SVG 1.1//EN" "http://www.w3.org/Graphics/SVG/1.1/DTD/svg11.dtd">
<svg xmlns="http://www.w3.org/2000/svg" version="1.1" width="512px" height="512px" style="shape-rendering:geometricPrecision; text-rendering:geometricPrecision; image-rendering:optimizeQuality; fill-rule:evenodd; clip-rule:evenodd" xmlns:xlink="http://www.w3.org/1999/xlink">
<g><path style="opacity:1" fill="#fac275" d="M 232.5,46.5 C 221.167,46.5 209.833,46.5 198.5,46.5C 200.975,41.7559 204.308,37.5893 208.5,34C 214.094,29.7063 220.094,26.2063 226.5,23.5C 228.374,23.3898 229.874,24.0564 231,25.5C 231.203,32.5793 231.703,39.5793 232.5,46.5 Z"/></g>
<g><path style="opacity:1" fill="#fa4e96" d="M 443.5,65.5 C 435.031,67.0555 426.364,68.2222 417.5,69C 416.944,69.3826 416.611,69.8826 416.5,70.5C 409.608,60.7709 401.442,52.1042 392,44.5C 390.686,40.8194 391.853,38.4861 395.5,37.5C 415.292,40.7163 431.292,50.0496 443.5,65.5 Z"/></g>
<g><path style="opacity:1" fill="#fabb75" d="M 198.5,46.5 C 209.833,46.5 221.167,46.5 232.5,46.5C 232.718,51.0377 233.718,55.3711 235.5,59.5C 220.755,59.184 206.088,59.5174 191.5,60.5C 192.799,55.2361 195.132,50.5694 198.5,46.5 Z"/></g>
<g><path style="opacity:1" fill="#fab476" d="M 235.5,59.5 C 236.611,63.7231 238.278,67.7231 240.5,71.5C 223.167,72.1667 205.833,72.8333 188.5,73.5C 188.867,68.9922 189.867,64.6589 191.5,60.5C 206.088,59.5174 220.755,59.184 235.5,59.5 Z"/></g>
<g><path style="opacity:1" fill="#fa638f" d="M 443.5,65.5 C 448.746,70.9808 452.746,77.3141 455.5,84.5C 444.542,84.6782 433.542,85.6782 422.5,87.5C 422.579,84.7294 422.079,82.0627 421,79.5C 419.239,76.5889 417.739,73.5889 416.5,70.5C 416.611,69.8826 416.944,69.3826 417.5,69C 426.364,68.2222 435.031,67.0555 443.5,65.5 Z"/></g>
<g><path style="opacity:1" fill="#faae7c" d="M 240.5,71.5 C 244.107,77.7726 248.773,83.106 254.5,87.5C 232.425,87.1781 210.425,87.5114 188.5,88.5C 188.5,83.5 188.5,78.5 188.5,73.5C 205.833,72.8333 223.167,72.1667 240.5,71.5 Z"/></g>
<g><path style="opacity:1" fill="#fab07b" d="M 354.5,86.5 C 341.677,87.4955 328.677,87.8288 315.5,87.5C 319.665,81.1896 321.831,74.1896 322,66.5C 322.839,65.3759 324.006,64.7092 325.5,64.5C 337.445,68.7723 347.112,76.1056 354.5,86.5 Z"/></g>
<g><path style="opacity:1" fill="#faa87c" d="M 165.5,99.5 C 157.252,98.5314 148.918,98.1981 140.5,98.5C 140.625,89.8807 144.792,84.5474 153,82.5C 156.032,83.0923 158.698,84.4256 161,86.5C 163.602,90.4738 165.102,94.8071 165.5,99.5 Z"/></g>
<g><path style="opacity:1" fill="#faa87c" d="M 354.5,86.5 C 358.254,90.6065 361.254,95.2732 363.5,100.5C 305.833,100.5 248.167,100.5 190.5,100.5C 189.448,96.574 188.782,92.574 188.5,88.5C 210.425,87.5114 232.425,87.1781 254.5,87.5C 270.456,96.9368 287.456,99.4368 305.5,95C 309.276,93.0526 312.61,90.5526 315.5,87.5C 328.677,87.8288 341.677,87.4955 354.5,86.5 Z"/></g>
<g><path style="opacity:1" fill="#fa7389" d="M 455.5,84.5 C 457.4,87.5178 458.733,90.8512 459.5,94.5C 446.167,96.1667 432.833,97.8333 419.5,99.5C 421.97,95.905 422.97,91.905 422.5,87.5C 433.542,85.6782 444.542,84.6782 455.5,84.5 Z"/></g>
<g><path style="opacity:1" fill="#faa07d" d="M 140.5,98.5 C 148.918,98.1981 157.252,98.5314 165.5,99.5C 166.121,110.286 161.121,116.286 150.5,117.5C 142.423,116.231 138.756,111.397 139.5,103C 139.773,101.467 140.106,99.9672 140.5,98.5 Z"/></g>
<g><path style="opacity:1" fill="#faa27d" d="M 190.5,100.5 C 248.167,100.5 305.833,100.5 363.5,100.5C 366.048,104.93 368.048,109.597 369.5,114.5C 311.238,113.504 252.905,113.171 194.5,113.5C 192.768,109.303 191.435,104.969 190.5,100.5 Z"/></g>
<g><path style="opacity:1" fill="#fa8186" d="M 459.5,94.5 C 461.122,98.3219 462.122,102.322 462.5,106.5C 445.678,108.909 428.678,111.075 411.5,113C 410.956,113.717 410.289,114.217 409.5,114.5C 411.272,108.406 414.606,103.406 419.5,99.5C 432.833,97.8333 446.167,96.1667 459.5,94.5 Z"/></g>
<g><path style="opacity:1" fill="#faaa7b" d="M 100.5,118.5 C 84.9021,118.538 69.2355,117.871 53.5,116.5C 58.8198,108.752 66.3198,104.752 76,104.5C 86.7281,104.94 94.8947,109.607 100.5,118.5 Z"/></g>
<g><path style="opacity:1" fill="#fa8d83" d="M 462.5,106.5 C 463.795,110.267 464.461,114.267 464.5,118.5C 447.348,120.535 430.181,122.535 413,124.5C 411.076,124.419 409.243,124.086 407.5,123.5C 407.916,120.417 408.583,117.417 409.5,114.5C 410.289,114.217 410.956,113.717 411.5,113C 428.678,111.075 445.678,108.909 462.5,106.5 Z"/></g>
<g><path style="opacity:1" fill="#fa9b7d" d="M 194.5,113.5 C 252.905,113.171 311.238,113.504 369.5,114.5C 370.812,118.416 371.812,122.416 372.5,126.5C 315.664,126.168 258.998,126.501 202.5,127.5C 198.823,123.489 196.157,118.822 194.5,113.5 Z"/></g>
<g><path style="opacity:1" fill="#fa9682" d="M 464.5,118.5 C 464.5,120.833 464.5,123.167 464.5,125.5C 446.176,127.582 427.843,129.582 409.5,131.5C 408.469,129.039 407.802,126.373 407.5,123.5C 409.243,124.086 411.076,124.419 413,124.5C 430.181,122.535 447.348,120.535 464.5,118.5 Z"/></g>
<g><path style="opacity:1" fill="#fa9d7d" d="M 53.5,116.5 C 69.2355,117.871 84.9021,118.538 100.5,118.5C 102.353,121.208 103.353,124.208 103.5,127.5C 101.866,128.161 100.033,128.494 98,128.5C 82.1763,127.508 66.343,126.675 50.5,126C 49.944,125.617 49.6107,125.117 49.5,124.5C 49.7936,121.246 51.127,118.579 53.5,116.5 Z"/></g>
<g><path style="opacity:1" fill="#fa9682" d="M 372.5,126.5 C 373.411,131.453 374.078,136.453 374.5,141.5C 319.5,141.5 264.5,141.5 209.5,141.5C 207.186,136.872 204.853,132.205 202.5,127.5C 258.998,126.501 315.664,126.168 372.5,126.5 Z"/></g>
<g><path style="opacity:1" fill="#fa9182" d="M 49.5,124.5 C 49.6107,125.117 49.944,125.617 50.5,126C 66.343,126.675 82.1763,127.508 98,128.5C 100.033,128.494 101.866,128.161 103.5,127.5C 104.482,130.962 104.815,134.629 104.5,138.5C 85.1435,137.753 65.8102,136.753 46.5,135.5C 47.1866,131.664 48.1866,127.998 49.5,124.5 Z"/></g>
<g><path style="opacity:1" fill="#faa17d" d="M 464.5,125.5 C 464.359,133.288 461.359,139.621 455.5,144.5C 444.579,144.897 433.912,146.23 423.5,148.5C 415.926,145.256 411.259,139.59 409.5,131.5C 427.843,129.582 446.176,127.582 464.5,125.5 Z"/></g>
<g><path style="opacity:1" fill="#fa8882" d="M 46.5,135.5 C 65.8102,136.753 85.1435,137.753 104.5,138.5C 104.011,139.995 103.345,141.329 102.5,142.5C 101.883,142.611 101.383,142.944 101,143.5C 82.8115,142.467 64.6449,141.134 46.5,139.5C 46.5,138.167 46.5,136.833 46.5,135.5 Z"/></g>
<g><path style="opacity:1" fill="#fa8f83" d="M 209.5,141.5 C 264.5,141.5 319.5,141.5 374.5,141.5C 374.5,145.833 374.5,150.167 374.5,154.5C 320.167,154.5 265.833,154.5 211.5,154.5C 211.313,150.087 210.646,145.754 209.5,141.5 Z"/></g>
<g><path style="opacity:1" fill="#faaf7c" d="M 455.5,144.5 C 448.086,151.016 439.419,153.183 429.5,151C 427.148,150.76 425.148,149.927 423.5,148.5C 433.912,146.23 444.579,144.897 455.5,144.5 Z"/></g>
<g><path style="opacity:1" fill="#fa7f88" d="M 46.5,139.5 C 64.6449,141.134 82.8115,142.467 101,143.5C 101.383,142.944 101.883,142.611 102.5,142.5C 102.023,146.793 100.023,150.127 96.5,152.5C 79.7275,152.321 63.0608,151.321 46.5,149.5C 46.5,146.167 46.5,142.833 46.5,139.5 Z"/></g>
<g><path style="opacity:1" fill="#fa8882" d="M 211.5,154.5 C 265.833,154.5 320.167,154.5 374.5,154.5C 374.763,158.6 374.43,162.6 373.5,166.5C 318.167,166.5 262.833,166.5 207.5,166.5C 210.22,163.007 211.553,159.007 211.5,154.5 Z"/></g>
<g><path style="opacity:1" fill="#fa7289" d="M 46.5,149.5 C 63.0608,151.321 79.7275,152.321 96.5,152.5C 93.9361,156.117 90.6028,158.784 86.5,160.5C 73.0806,159.964 59.7473,158.964 46.5,157.5C 46.5,154.833 46.5,152.167 46.5,149.5 Z"/></g>
<g><path style="opacity:1" fill="#fa648f" d="M 46.5,157.5 C 59.7473,158.964 73.0806,159.964 86.5,160.5C 82.4436,164.657 80.1102,169.657 79.5,175.5C 69.4815,175.59 59.4815,175.257 49.5,174.5C 48.1776,168.899 47.1776,163.233 46.5,157.5 Z"/></g>
<g><path style="opacity:1" fill="#fa8583" d="M 165.5,172.5 C 157.167,172.5 148.833,172.5 140.5,172.5C 140.753,166.822 142.253,161.489 145,156.5C 147.966,153.735 150.633,154.068 153,157.5C 156.625,162.957 160.791,167.957 165.5,172.5 Z"/></g>
<g><path style="opacity:1" fill="#fa8383" d="M 207.5,166.5 C 262.833,166.5 318.167,166.5 373.5,166.5C 373.5,167.833 373.5,169.167 373.5,170.5C 316.007,172.171 258.341,173.171 200.5,173.5C 203.139,171.527 205.473,169.194 207.5,166.5 Z"/></g>
<g><path style="opacity:1" fill="#fa8389" d="M 373.5,170.5 C 373.247,174.04 372.581,177.373 371.5,180.5C 310.5,179.833 249.5,179.167 188.5,178.5C 192.422,176.879 196.422,175.212 200.5,173.5C 258.341,173.171 316.007,172.171 373.5,170.5 Z"/></g>
<g><path style="opacity:1" fill="#fa7d89" d="M 140.5,172.5 C 148.833,172.5 157.167,172.5 165.5,172.5C 169.328,174.579 173.328,176.412 177.5,178C 181.152,178.499 184.818,178.665 188.5,178.5C 249.5,179.167 310.5,179.833 371.5,180.5C 371.474,185.085 372.474,189.419 374.5,193.5C 358.769,193.865 343.102,194.865 327.5,196.5C 327.563,191.797 327.229,187.13 326.5,182.5C 322.938,182.965 319.605,184.132 316.5,186C 312.325,188.689 308.325,191.523 304.5,194.5C 287.325,194.17 270.325,194.503 253.5,195.5C 247.23,189.74 240.063,185.406 232,182.5C 229.827,186.51 228.994,190.843 229.5,195.5C 199.574,194.508 169.574,194.175 139.5,194.5C 138.185,186.987 138.519,179.654 140.5,172.5 Z"/></g>
<g><path style="opacity:1" fill="#fa4c96" d="M 49.5,174.5 C 59.4815,175.257 69.4815,175.59 79.5,175.5C 82.4929,192.159 89.3263,207.159 100,220.5C 101.073,224.095 99.7394,226.095 96,226.5C 72.2446,216.576 56.7446,199.243 49.5,174.5 Z"/></g>
<g><path style="opacity:1" fill="#faf7f8" d="M 253.5,195.5 C 255.98,199.109 258.48,202.776 261,206.5C 262.741,209.309 263.908,212.309 264.5,215.5C 257.825,215.666 251.158,215.5 244.5,215C 234.796,212.128 229.796,205.628 229.5,195.5C 228.994,190.843 229.827,186.51 232,182.5C 240.063,185.406 247.23,189.74 253.5,195.5 Z"/></g>
<g><path style="opacity:1" fill="#faf7f7" d="M 327.5,196.5 C 326.76,206.077 321.76,212.244 312.5,215C 305.842,215.5 299.175,215.666 292.5,215.5C 293.092,212.309 294.259,209.309 296,206.5C 298.689,202.325 301.523,198.325 304.5,194.5C 308.325,191.523 312.325,188.689 316.5,186C 319.605,184.132 322.938,182.965 326.5,182.5C 327.229,187.13 327.563,191.797 327.5,196.5 Z"/></g>
<g><path style="opacity:1" fill="#fa7389" d="M 374.5,193.5 C 377.162,196.655 380.495,198.822 384.5,200C 390.357,200.367 396.023,199.7 401.5,198C 402.804,198.804 403.471,199.971 403.5,201.5C 402.197,207.069 400.53,212.402 398.5,217.5C 313.5,217.5 228.5,217.5 143.5,217.5C 140.783,210.202 139.449,202.536 139.5,194.5C 169.574,194.175 199.574,194.508 229.5,195.5C 229.796,205.628 234.796,212.128 244.5,215C 251.158,215.5 257.825,215.666 264.5,215.5C 263.908,212.309 262.741,209.309 261,206.5C 258.48,202.776 255.98,199.109 253.5,195.5C 270.325,194.503 287.325,194.17 304.5,194.5C 301.523,198.325 298.689,202.325 296,206.5C 294.259,209.309 293.092,212.309 292.5,215.5C 299.175,215.666 305.842,215.5 312.5,215C 321.76,212.244 326.76,206.077 327.5,196.5C 343.102,194.865 358.769,193.865 374.5,193.5 Z"/></g>
<g><path style="opacity:1" fill="#fa6a8e" d="M 143.5,217.5 C 228.5,217.5 313.5,217.5 398.5,217.5C 396.44,223.285 394.107,228.952 391.5,234.5C 311.167,233.167 230.833,233.167 150.5,234.5C 147.334,229.169 145.001,223.503 143.5,217.5 Z"/></g>
<g><path style="opacity:1" fill="#fa638f" d="M 391.5,234.5 C 388.314,240.218 384.648,245.552 380.5,250.5C 307.508,248.503 234.174,247.836 160.5,248.5C 156.779,244.112 153.445,239.445 150.5,234.5C 230.833,233.167 311.167,233.167 391.5,234.5 Z"/></g>
<g><path style="opacity:1" fill="#fa5c8f" d="M 160.5,248.5 C 234.174,247.836 307.508,248.503 380.5,250.5C 377.208,255.46 373.208,259.793 368.5,263.5C 304.335,262.501 240.002,262.168 175.5,262.5C 169.892,258.561 164.892,253.894 160.5,248.5 Z"/></g>
<g><path style="opacity:1" fill="#fa5696" d="M 175.5,262.5 C 240.002,262.168 304.335,262.501 368.5,263.5C 364.568,268.129 359.901,271.796 354.5,274.5C 300.664,274.168 246.997,274.501 193.5,275.5C 186.755,272.134 180.755,267.801 175.5,262.5 Z"/></g>
<g><path style="opacity:1" fill="#fa4f96" d="M 193.5,275.5 C 246.997,274.501 300.664,274.168 354.5,274.5C 338.356,285.721 320.356,292.221 300.5,294C 271.221,296.932 242.555,293.932 214.5,285C 207.236,282.367 200.236,279.201 193.5,275.5 Z"/></g>
<g><path style="opacity:1" fill="#fa8e94" d="M 397.5,338.5 C 385.5,338.5 373.5,338.5 361.5,338.5C 363.366,327.607 368.699,318.773 377.5,312C 383.209,309.526 388.375,310.359 393,314.5C 394.916,322.405 396.416,330.405 397.5,338.5 Z"/></g>
<g><path style="opacity:1" fill="#f38585" d="M 214.5,343.5 C 202.833,343.5 191.167,343.5 179.5,343.5C 177.01,339.862 174.51,336.195 172,332.5C 167.979,322.867 170.979,317.2 181,315.5C 192.535,317.103 201.535,322.77 208,332.5C 210.178,336.194 212.345,339.861 214.5,343.5 Z"/></g>
<g><path style="opacity:1" fill="#f27f81" d="M 272.5,361.5 C 263.5,361.5 254.5,361.5 245.5,361.5C 244.267,349.176 243.434,336.843 243,324.5C 244.664,320.916 247.497,319.249 251.5,319.5C 253.634,319.515 255.634,320.015 257.5,321C 266.725,332.832 271.725,346.332 272.5,361.5 Z"/></g>
<g><path style="opacity:1" fill="#fa9a9c" d="M 182.5,379.5 C 167.009,380.496 151.342,380.83 135.5,380.5C 129.875,373.705 124.042,367.038 118,360.5C 116.009,349.657 120.509,344.657 131.5,345.5C 141.876,345.57 151.209,348.736 159.5,355C 168.437,362.099 176.103,370.266 182.5,379.5 Z"/></g>
<g><path style="opacity:1" fill="#ee787d" d="M 179.5,343.5 C 191.167,343.5 202.833,343.5 214.5,343.5C 219.774,354.381 224.774,365.381 229.5,376.5C 217.784,375.856 206.451,376.522 195.5,378.5C 191.337,366.365 186.004,354.699 179.5,343.5 Z"/></g>
<g><path style="opacity:1" fill="#fa999b" d="M 361.5,338.5 C 373.5,338.5 385.5,338.5 397.5,338.5C 400.359,345.796 401.192,353.463 400,361.5C 397.923,367.234 395.757,372.901 393.5,378.5C 387.071,379.794 380.405,380.461 373.5,380.5C 366.991,380.5 360.658,380.166 354.5,379.5C 357.085,365.743 359.418,352.076 361.5,338.5 Z"/></g>
<g><path style="opacity:1" fill="#ed7278" d="M 245.5,361.5 C 254.5,361.5 263.5,361.5 272.5,361.5C 273.668,371.854 275.002,382.188 276.5,392.5C 266.5,392.5 256.5,392.5 246.5,392.5C 246.284,382.162 245.951,371.829 245.5,361.5 Z"/></g>
<g><path style="opacity:1" fill="#ed6b76" d="M 229.5,376.5 C 233.976,386.79 239.476,396.456 246,405.5C 246.499,401.179 246.666,396.846 246.5,392.5C 256.5,392.5 266.5,392.5 276.5,392.5C 281.632,406.632 290.965,416.965 304.5,423.5C 295.343,424.658 286.009,424.824 276.5,424C 265.762,422.939 255.095,421.439 244.5,419.5C 231.164,416.742 218.164,412.575 205.5,407C 203.382,405.951 201.716,404.451 200.5,402.5C 199.15,394.434 197.484,386.434 195.5,378.5C 206.451,376.522 217.784,375.856 229.5,376.5 Z"/></g>
<g><path style="opacity:1" fill="#faa5a5" d="M 182.5,379.5 C 186.891,385.259 191.057,391.259 195,397.5C 196.704,399.373 198.537,401.04 200.5,402.5C 201.716,404.451 203.382,405.951 205.5,407C 218.164,412.575 231.164,416.742 244.5,419.5C 215.5,419.5 186.5,419.5 157.5,419.5C 152.472,405.1 145.138,392.1 135.5,380.5C 151.342,380.83 167.009,380.496 182.5,379.5 Z"/></g>
<g><path style="opacity:1" fill="#faa6a6" d="M 393.5,378.5 C 389.982,392.088 389.649,405.755 392.5,419.5C 368.833,419.5 345.167,419.5 321.5,419.5C 337.631,410.372 348.631,397.038 354.5,379.5C 360.658,380.166 366.991,380.5 373.5,380.5C 380.405,380.461 387.071,379.794 393.5,378.5 Z"/></g>
<g><path style="opacity:1" fill="#faaead" d="M 157.5,419.5 C 186.5,419.5 215.5,419.5 244.5,419.5C 255.095,421.439 265.762,422.939 276.5,424C 286.009,424.824 295.343,424.658 304.5,423.5C 310.268,422.577 315.935,421.244 321.5,419.5C 345.167,419.5 368.833,419.5 392.5,419.5C 394.983,427.473 398.317,435.14 402.5,442.5C 332.331,442.167 262.331,442.501 192.5,443.5C 183.572,439.243 174.572,435.076 165.5,431C 161.714,427.923 159.048,424.089 157.5,419.5 Z"/></g>
<g><path style="opacity:1" fill="#fab5af" d="M 192.5,443.5 C 262.331,442.501 332.331,442.167 402.5,442.5C 404.167,445.167 405.833,447.833 407.5,450.5C 342.006,452.166 276.34,453.166 210.5,453.5C 204.822,449.659 198.822,446.326 192.5,443.5 Z"/></g>
<g><path style="opacity:1" fill="#fab5b4" d="M 407.5,450.5 C 410.221,453.894 412.554,457.561 414.5,461.5C 350.664,461.168 286.998,461.501 223.5,462.5C 219.341,459.253 215.008,456.253 210.5,453.5C 276.34,453.166 342.006,452.166 407.5,450.5 Z"/></g>
<g><path style="opacity:1" fill="#fabbb6" d="M 414.5,461.5 C 419.528,467.716 424.028,474.383 428,481.5C 428.825,483.701 428.325,485.534 426.5,487C 391.167,487.667 355.833,487.667 320.5,487C 301.638,472.881 280.304,466.047 256.5,466.5C 248.53,467.604 240.53,467.771 232.5,467C 229.16,465.997 226.16,464.497 223.5,462.5C 286.998,461.501 350.664,461.168 414.5,461.5 Z"/></g>
</svg>
