<?xml version="1.0" encoding="UTF-8"?>
<!DOCTYPE svg PUBLIC "-//W3C//DTD SVG 1.1//EN" "http://www.w3.org/Graphics/SVG/1.1/DTD/svg11.dtd">
<svg xmlns="http://www.w3.org/2000/svg" version="1.1" width="512px" height="512px" style="shape-rendering:geometricPrecision; text-rendering:geometricPrecision; image-rendering:optimizeQuality; fill-rule:evenodd; clip-rule:evenodd" xmlns:xlink="http://www.w3.org/1999/xlink">
<g><path style="opacity:1" fill="#38384b" d="M 323.5,48.5 C 321.418,56.6637 317.751,63.9971 312.5,70.5C 300.082,84.1109 284.749,89.1109 266.5,85.5C 251.812,81.8236 240.479,73.4903 232.5,60.5C 218.586,70.6109 204.919,80.9442 191.5,91.5C 184.929,95.2806 178.929,99.7806 173.5,105C 176.427,119.461 175.76,133.795 171.5,148C 175.272,154.462 179.106,160.962 183,167.5C 183.667,168.167 184.333,168.833 185,169.5C 187.913,166.678 190.08,163.345 191.5,159.5C 177.697,137.325 181.363,118.658 202.5,103.5C 218.748,94.4607 236.082,91.9607 254.5,96C 263.761,98.4755 272.761,101.642 281.5,105.5C 285.738,107.959 290.072,110.459 294.5,113C 295.5,113.667 296.5,113.667 297.5,113C 309.358,106.741 319.691,98.5741 328.5,88.5C 339.45,77.275 346.784,63.9416 350.5,48.5C 354.182,48.3347 357.848,48.5014 361.5,49C 351.421,83.0863 330.421,108.086 298.5,124C 296.833,124.667 295.167,124.667 293.5,124C 276.347,112.115 257.347,105.282 236.5,103.5C 219.41,103.795 205.91,110.795 196,124.5C 191.318,135.438 192.984,145.438 201,154.5C 200.688,165.626 196.188,174.793 187.5,182C 184.331,182.978 181.497,182.478 179,180.5C 172.818,170.129 166.651,159.796 160.5,149.5C 165.871,134.129 166.871,118.462 163.5,102.5C 163.551,100.9 163.884,99.4002 164.5,98C 187.753,80.7932 211.253,63.9598 235,47.5C 236.473,47.9031 237.806,48.5697 239,49.5C 243.236,62.069 251.736,70.2357 264.5,74C 280.442,79.6824 293.942,76.1824 305,63.5C 308.225,58.8809 311.059,54.0475 313.5,49C 316.817,48.5017 320.15,48.335 323.5,48.5 Z"/></g>
<g><path style="opacity:1" fill="#75638e" d="M 323.5,48.5 C 332.5,48.5 341.5,48.5 350.5,48.5C 346.784,63.9416 339.45,77.275 328.5,88.5C 325.963,83.7827 322.796,79.4494 319,75.5C 317.223,73.2101 315.056,71.5434 312.5,70.5C 317.751,63.9971 321.418,56.6637 323.5,48.5 Z"/></g>
<g><path style="opacity:1" fill="#39394c" d="M 400.5,48.5 C 394.232,60.0368 388.232,71.7034 382.5,83.5C 378.582,90.3346 374.915,97.3346 371.5,104.5C 364.58,113.027 362.58,122.693 365.5,133.5C 365.264,147.63 359.931,159.297 349.5,168.5C 346.477,170.533 343.477,172.533 340.5,174.5C 323.541,182.157 305.874,186.49 287.5,187.5C 276.802,187.737 266.135,187.404 255.5,186.5C 243.692,184.921 232.025,182.587 220.5,179.5C 220.155,188.258 219.155,196.925 217.5,205.5C 215.201,215.092 211.535,224.092 206.5,232.5C 199.649,241.264 190.983,247.598 180.5,251.5C 173.718,253.875 166.718,254.875 159.5,254.5C 151.87,254.011 144.536,252.344 137.5,249.5C 118.538,242.668 101.705,246.002 87,259.5C 83.8454,263.48 81.3454,267.814 79.5,272.5C 78.207,273.842 77.3736,275.509 77,277.5C 76.3333,282.167 76.3333,286.833 77,291.5C 79.2789,298.724 82.6122,305.391 87,311.5C 88.174,316.75 88.8407,322.084 89,327.5C 92.5494,324.287 95.7161,320.787 98.5,317C 93.1715,307.525 90.8382,297.358 91.5,286.5C 97.7821,268.935 110.449,260.268 129.5,260.5C 136.705,261.275 143.705,262.941 150.5,265.5C 164.64,271.971 174.64,282.304 180.5,296.5C 181.782,308.731 178.449,319.398 170.5,328.5C 163.188,333.065 155.188,334.732 146.5,333.5C 143.26,333.232 140.094,332.566 137,331.5C 135.699,331.639 134.866,332.305 134.5,333.5C 127.149,342.19 120.149,351.19 113.5,360.5C 99.1971,378.313 85.0304,396.313 71,414.5C 69.3983,416.369 68.3983,418.369 68,420.5C 88.0468,406.28 108.213,392.28 128.5,378.5C 130.199,378.34 131.866,378.506 133.5,379C 136.312,382.812 138.979,386.646 141.5,390.5C 146.527,403.713 148.36,417.379 147,431.5C 146.044,432.894 144.711,433.561 143,433.5C 132.633,430.743 122.133,429.243 111.5,429C 106.5,432.667 102.167,437 98.5,442C 115.695,436.502 132.529,437.668 149,445.5C 153.604,443.231 157.271,439.898 160,435.5C 161.734,432.702 162.901,429.702 163.5,426.5C 160.674,418.015 157.674,409.681 154.5,401.5C 153.401,395.502 152.234,389.502 151,383.5C 150.333,380.833 150.333,378.167 151,375.5C 154.697,370.638 158.864,366.304 163.5,362.5C 167.987,360.56 172.654,359.227 177.5,358.5C 184.196,358.391 190.863,358.724 197.5,359.5C 199.102,361.074 201.102,361.741 203.5,361.5C 202.991,348.685 203.991,336.018 206.5,323.5C 207.975,318.6 208.975,313.6 209.5,308.5C 211.669,302.659 213.669,296.659 215.5,290.5C 219.609,278.945 225.276,268.278 232.5,258.5C 238.202,251.797 244.536,245.797 251.5,240.5C 266.516,230.935 282.516,228.935 299.5,234.5C 311.46,239.448 321.794,246.781 330.5,256.5C 336.592,253.454 342.592,250.454 348.5,247.5C 374.398,237.359 401.065,230.692 428.5,227.5C 443.175,227.548 457.841,227.881 472.5,228.5C 472.5,231.833 472.5,235.167 472.5,238.5C 433.615,234.902 395.948,240.069 359.5,254C 349.262,258.37 339.096,262.87 329,267.5C 327.774,267.355 326.607,267.022 325.5,266.5C 317.68,256.593 308.013,249.093 296.5,244C 281.218,238.909 267.218,241.243 254.5,251C 242.965,259.867 234.465,271.034 229,284.5C 217.134,312.701 211.634,342.035 212.5,372.5C 211.312,373.84 209.812,374.507 208,374.5C 200.024,370.953 191.691,368.62 183,367.5C 174.17,368.248 166.836,371.915 161,378.5C 160.956,384.955 161.956,391.289 164,397.5C 167.174,407.021 170.34,416.521 173.5,426C 170.853,440.497 162.853,450.664 149.5,456.5C 125.85,444.201 103.517,446.368 82.5,463C 76.4369,463.422 74.2703,460.589 76,454.5C 82.7141,446.788 89.0474,438.788 95,430.5C 100.486,422.994 107.819,418.994 117,418.5C 123.851,419.07 130.517,420.403 137,422.5C 138.12,410.707 135.287,400.04 128.5,390.5C 101.695,408.805 75.0288,427.305 48.5,446C 44.3382,448.572 41.1716,447.738 39,443.5C 38.4795,441.711 38.8129,440.044 40,438.5C 70.5,399.333 101,360.167 131.5,321C 132.667,320.833 133.833,320.667 135,320.5C 140.721,322.221 146.554,323.555 152.5,324.5C 162.208,323.955 168.041,318.955 170,309.5C 170.952,303.638 170.285,297.972 168,292.5C 152.688,271.799 133.188,266.299 109.5,276C 101.942,283.064 99.7755,291.564 103,301.5C 104.279,306.725 106.612,311.391 110,315.5C 110.667,316.833 110.667,318.167 110,319.5C 102.167,328 94.3333,336.5 86.5,345C 80.7972,347.306 77.7972,345.306 77.5,339C 78.5428,331.52 78.7095,324.02 78,316.5C 60.1433,289.463 63.6433,265.629 88.5,245C 108.752,234.342 129.419,233.675 150.5,243C 176.801,247.936 194.967,238.103 205,213.5C 209.193,199.487 211.526,185.153 212,170.5C 212.5,170 213,169.5 213.5,169C 229.997,172.305 246.664,174.971 263.5,177C 289.842,180.076 314.842,175.743 338.5,164C 354.499,152.205 359.499,136.705 353.5,117.5C 365.103,94.4613 377.103,71.628 389.5,49C 393.152,48.5014 396.818,48.3347 400.5,48.5 Z"/></g>
<g><path style="opacity:1" fill="#957cb4" d="M 418.5,48.5 C 422.833,48.5 427.167,48.5 431.5,48.5C 444.461,63.795 458.127,78.4617 472.5,92.5C 472.5,98.1667 472.5,103.833 472.5,109.5C 472.167,109.5 471.833,109.5 471.5,109.5C 471.657,108.127 471.49,106.793 471,105.5C 453.294,86.6299 435.794,67.6299 418.5,48.5 Z"/></g>
<g><path style="opacity:1" fill="#9476b5" d="M 431.5,48.5 C 445.167,48.5 458.833,48.5 472.5,48.5C 472.5,63.1667 472.5,77.8333 472.5,92.5C 458.127,78.4617 444.461,63.795 431.5,48.5 Z"/></g>
<g><path style="opacity:1" fill="#9a7cba" d="M 400.5,48.5 C 406.5,48.5 412.5,48.5 418.5,48.5C 435.794,67.6299 453.294,86.6299 471,105.5C 471.49,106.793 471.657,108.127 471.5,109.5C 456.055,114.221 442.055,121.554 429.5,131.5C 414.906,114.736 399.74,98.4023 384,82.5C 383.617,83.056 383.117,83.3893 382.5,83.5C 388.232,71.7034 394.232,60.0368 400.5,48.5 Z"/></g>
<g><path style="opacity:1" fill="#7b6994" d="M 266.5,85.5 C 266.062,85.4346 265.728,85.6012 265.5,86C 270.116,90.7381 274.616,95.5715 279,100.5C 280.094,102.078 280.928,103.745 281.5,105.5C 272.761,101.642 263.761,98.4755 254.5,96C 236.082,91.9607 218.748,94.4607 202.5,103.5C 198.824,99.4587 195.157,95.4587 191.5,91.5C 204.919,80.9442 218.586,70.6109 232.5,60.5C 240.479,73.4903 251.812,81.8236 266.5,85.5 Z"/></g>
<g><path style="opacity:1" fill="#a17cbb" d="M 429.5,131.5 C 423.767,137.228 418.433,143.228 413.5,149.5C 399.528,134.526 385.528,119.526 371.5,104.5C 374.915,97.3346 378.582,90.3346 382.5,83.5C 383.117,83.3893 383.617,83.056 384,82.5C 399.74,98.4023 414.906,114.736 429.5,131.5 Z"/></g>
<g><path style="opacity:1" fill="#796395" d="M 312.5,70.5 C 315.056,71.5434 317.223,73.2101 319,75.5C 322.796,79.4494 325.963,83.7827 328.5,88.5C 319.691,98.5741 309.358,106.741 297.5,113C 296.5,113.667 295.5,113.667 294.5,113C 290.072,110.459 285.738,107.959 281.5,105.5C 280.928,103.745 280.094,102.078 279,100.5C 274.616,95.5715 270.116,90.7381 265.5,86C 265.728,85.6012 266.062,85.4346 266.5,85.5C 284.749,89.1109 300.082,84.1109 312.5,70.5 Z"/></g>
<g><path style="opacity:1" fill="#816e99" d="M 191.5,91.5 C 195.157,95.4587 198.824,99.4587 202.5,103.5C 181.363,118.658 177.697,137.325 191.5,159.5C 190.08,163.345 187.913,166.678 185,169.5C 184.333,168.833 183.667,168.167 183,167.5C 179.106,160.962 175.272,154.462 171.5,148C 175.76,133.795 176.427,119.461 173.5,105C 178.929,99.7806 184.929,95.2806 191.5,91.5 Z"/></g>
<g><path style="opacity:1" fill="#39384c" d="M 471.5,109.5 C 471.833,109.5 472.167,109.5 472.5,109.5C 472.82,112.898 472.487,116.232 471.5,119.5C 447.777,127.399 429.611,142.066 417,163.5C 415,168.833 413,174.167 411,179.5C 403.128,187.703 395.628,196.203 388.5,205C 418.065,207.188 445.732,201.021 471.5,186.5C 472.491,190.445 472.824,194.445 472.5,198.5C 462.907,202.088 453.24,205.588 443.5,209C 433.435,211.521 423.435,213.687 413.5,215.5C 400.781,215.898 388.114,215.398 375.5,214C 373.771,212.211 373.104,210.044 373.5,207.5C 375.885,205.116 377.885,202.45 379.5,199.5C 387.098,190.73 394.931,182.063 403,173.5C 405.151,164.868 408.651,156.868 413.5,149.5C 418.433,143.228 423.767,137.228 429.5,131.5C 442.055,121.554 456.055,114.221 471.5,109.5 Z"/></g>
<g><path style="opacity:1" fill="#a782c0" d="M 371.5,104.5 C 385.528,119.526 399.528,134.526 413.5,149.5C 408.651,156.868 405.151,164.868 403,173.5C 394.931,182.063 387.098,190.73 379.5,199.5C 374.566,193.392 369.399,187.392 364,181.5C 359.574,176.566 354.74,172.233 349.5,168.5C 359.931,159.297 365.264,147.63 365.5,133.5C 362.58,122.693 364.58,113.027 371.5,104.5 Z"/></g>
<g><path style="opacity:1" fill="#ae82c7" d="M 349.5,168.5 C 354.74,172.233 359.574,176.566 364,181.5C 369.399,187.392 374.566,193.392 379.5,199.5C 377.885,202.45 375.885,205.116 373.5,207.5C 372.883,207.611 372.383,207.944 372,208.5C 361.294,197.297 350.794,185.963 340.5,174.5C 343.477,172.533 346.477,170.533 349.5,168.5 Z"/></g>
<g><path style="opacity:1" fill="#b287c6" d="M 340.5,174.5 C 350.794,185.963 361.294,197.297 372,208.5C 372.383,207.944 372.883,207.611 373.5,207.5C 373.104,210.044 373.771,212.211 375.5,214C 388.114,215.398 400.781,215.898 413.5,215.5C 415.199,215.34 416.866,215.506 418.5,216C 422.416,219.41 425.749,223.243 428.5,227.5C 401.065,230.692 374.398,237.359 348.5,247.5C 330.394,227.557 312.061,207.723 293.5,188C 291.527,187.505 289.527,187.338 287.5,187.5C 305.874,186.49 323.541,182.157 340.5,174.5 Z"/></g>
<g><path style="opacity:1" fill="#bf8ecd" d="M 255.5,186.5 C 270.535,202.2 285.202,218.2 299.5,234.5C 282.516,228.935 266.516,230.935 251.5,240.5C 243.54,231.37 235.373,222.37 227,213.5C 224.234,210.223 221.067,207.557 217.5,205.5C 219.155,196.925 220.155,188.258 220.5,179.5C 232.025,182.587 243.692,184.921 255.5,186.5 Z"/></g>
<g><path style="opacity:1" fill="#ba88c8" d="M 255.5,186.5 C 266.135,187.404 276.802,187.737 287.5,187.5C 289.527,187.338 291.527,187.505 293.5,188C 312.061,207.723 330.394,227.557 348.5,247.5C 342.592,250.454 336.592,253.454 330.5,256.5C 321.794,246.781 311.46,239.448 299.5,234.5C 285.202,218.2 270.535,202.2 255.5,186.5 Z"/></g>
<g><path style="opacity:1" fill="#c78ece" d="M 217.5,205.5 C 221.067,207.557 224.234,210.223 227,213.5C 235.373,222.37 243.54,231.37 251.5,240.5C 244.536,245.797 238.202,251.797 232.5,258.5C 223.548,250.215 214.881,241.548 206.5,232.5C 211.535,224.092 215.201,215.092 217.5,205.5 Z"/></g>
<g><path style="opacity:1" fill="#a581bf" d="M 472.5,198.5 C 472.5,208.5 472.5,218.5 472.5,228.5C 457.841,227.881 443.175,227.548 428.5,227.5C 425.749,223.243 422.416,219.41 418.5,216C 416.866,215.506 415.199,215.34 413.5,215.5C 423.435,213.687 433.435,211.521 443.5,209C 453.24,205.588 462.907,202.088 472.5,198.5 Z"/></g>
<g><path style="opacity:1" fill="#cb95d3" d="M 206.5,232.5 C 214.881,241.548 223.548,250.215 232.5,258.5C 225.276,268.278 219.609,278.945 215.5,290.5C 203.367,278.199 191.367,265.699 179.5,253C 180.056,252.617 180.389,252.117 180.5,251.5C 190.983,247.598 199.649,241.264 206.5,232.5 Z"/></g>
<g><path style="opacity:1" fill="#cc9bd8" d="M 137.5,249.5 C 144.536,252.344 151.87,254.011 159.5,254.5C 176.167,272.5 192.833,290.5 209.5,308.5C 208.975,313.6 207.975,318.6 206.5,323.5C 197.833,314.5 189.167,305.5 180.5,296.5C 174.64,282.304 164.64,271.971 150.5,265.5C 146.19,260.186 141.857,254.852 137.5,249.5 Z"/></g>
<g><path style="opacity:1" fill="#d2a4d9" d="M 137.5,249.5 C 141.857,254.852 146.19,260.186 150.5,265.5C 143.705,262.941 136.705,261.275 129.5,260.5C 110.449,260.268 97.7821,268.935 91.5,286.5C 87.1256,282.128 83.1256,277.461 79.5,272.5C 81.3454,267.814 83.8454,263.48 87,259.5C 101.705,246.002 118.538,242.668 137.5,249.5 Z"/></g>
<g><path style="opacity:1" fill="#cd9bd3" d="M 180.5,251.5 C 180.389,252.117 180.056,252.617 179.5,253C 191.367,265.699 203.367,278.199 215.5,290.5C 213.669,296.659 211.669,302.659 209.5,308.5C 192.833,290.5 176.167,272.5 159.5,254.5C 166.718,254.875 173.718,253.875 180.5,251.5 Z"/></g>
<g><path style="opacity:1" fill="#d7acde" d="M 79.5,272.5 C 83.1256,277.461 87.1256,282.128 91.5,286.5C 90.8382,297.358 93.1715,307.525 98.5,317C 95.7161,320.787 92.5494,324.287 89,327.5C 88.8407,322.084 88.174,316.75 87,311.5C 82.6122,305.391 79.2789,298.724 77,291.5C 76.3333,286.833 76.3333,282.167 77,277.5C 77.3736,275.509 78.207,273.842 79.5,272.5 Z"/></g>
<g><path style="opacity:1" fill="#38384c" d="M 472.5,296.5 C 446.389,291.252 425.389,299.085 409.5,320C 404.597,323.752 399.597,327.252 394.5,330.5C 372.199,338.778 350.866,336.944 330.5,325C 322.752,318.59 317.419,310.59 314.5,301C 301.487,300.167 288.487,300.334 275.5,301.5C 270.956,308.088 266.289,314.588 261.5,321C 280.998,313.427 299.332,315.76 316.5,328C 323.183,335.348 330.517,342.015 338.5,348C 362.011,359.219 384.678,357.719 406.5,343.5C 416.272,333.973 427.939,330.806 441.5,334C 453.472,337.643 463.805,343.81 472.5,352.5C 472.827,357.544 472.494,362.544 471.5,367.5C 465.304,360.138 458.304,353.638 450.5,348C 441.288,342.302 431.621,341.302 421.5,345C 398.168,365.067 371.834,370.4 342.5,361C 329.465,354.971 318.465,346.304 309.5,335C 293.946,324.483 277.946,323.816 261.5,333C 255.278,337.399 248.945,341.565 242.5,345.5C 239.267,345.1 237.6,343.266 237.5,340C 247.838,322.996 259.171,306.663 271.5,291C 287.833,290.333 304.167,290.333 320.5,291C 321.667,291.5 322.5,292.333 323,293.5C 325.77,308.271 334.27,318.104 348.5,323C 375.15,330.784 396.484,323.451 412.5,301C 430.337,287.447 450.337,282.614 472.5,286.5C 472.5,289.833 472.5,293.167 472.5,296.5 Z"/></g>
<g><path style="opacity:1" fill="#7c6895" d="M 472.5,296.5 C 472.5,315.167 472.5,333.833 472.5,352.5C 463.805,343.81 453.472,337.643 441.5,334C 427.939,330.806 416.272,333.973 406.5,343.5C 403.129,338.467 399.129,334.134 394.5,330.5C 399.597,327.252 404.597,323.752 409.5,320C 425.389,299.085 446.389,291.252 472.5,296.5 Z"/></g>
<g><path style="opacity:1" fill="#82709a" d="M 394.5,330.5 C 399.129,334.134 403.129,338.467 406.5,343.5C 384.678,357.719 362.011,359.219 338.5,348C 330.517,342.015 323.183,335.348 316.5,328C 299.332,315.76 280.998,313.427 261.5,321C 266.289,314.588 270.956,308.088 275.5,301.5C 288.487,300.334 301.487,300.167 314.5,301C 317.419,310.59 322.752,318.59 330.5,325C 350.866,336.944 372.199,338.778 394.5,330.5 Z"/></g>
<g><path style="opacity:1" fill="#d2a1d8" d="M 180.5,296.5 C 189.167,305.5 197.833,314.5 206.5,323.5C 203.991,336.018 202.991,348.685 203.5,361.5C 201.102,361.741 199.102,361.074 197.5,359.5C 198.239,359.631 198.906,359.464 199.5,359C 189.967,348.635 180.3,338.468 170.5,328.5C 178.449,319.398 181.782,308.731 180.5,296.5 Z"/></g>
<g><path style="opacity:1" fill="#d1a5d7" d="M 170.5,328.5 C 180.3,338.468 189.967,348.635 199.5,359C 198.906,359.464 198.239,359.631 197.5,359.5C 190.863,358.724 184.196,358.391 177.5,358.5C 170.73,350.558 163.73,342.724 156.5,335C 152.975,334.821 149.641,334.321 146.5,333.5C 155.188,334.732 163.188,333.065 170.5,328.5 Z"/></g>
<g><path style="opacity:1" fill="#d7a7e0" d="M 146.5,333.5 C 149.641,334.321 152.975,334.821 156.5,335C 163.73,342.724 170.73,350.558 177.5,358.5C 172.654,359.227 167.987,360.56 163.5,362.5C 156.866,355.697 150.366,348.697 144,341.5C 141.234,338.223 138.067,335.557 134.5,333.5C 134.866,332.305 135.699,331.639 137,331.5C 140.094,332.566 143.26,333.232 146.5,333.5 Z"/></g>
<g><path style="opacity:1" fill="#d8addf" d="M 134.5,333.5 C 138.067,335.557 141.234,338.223 144,341.5C 150.366,348.697 156.866,355.697 163.5,362.5C 158.864,366.304 154.697,370.638 151,375.5C 150.333,378.167 150.333,380.833 151,383.5C 152.234,389.502 153.401,395.502 154.5,401.5C 150.555,398.072 146.389,394.072 142,389.5C 141.601,389.728 141.435,390.062 141.5,390.5C 138.979,386.646 136.312,382.812 133.5,379C 131.866,378.506 130.199,378.34 128.5,378.5C 128.918,377.778 129.584,377.278 130.5,377C 125.732,371.476 120.732,366.143 115.5,361C 114.906,360.536 114.239,360.369 113.5,360.5C 120.149,351.19 127.149,342.19 134.5,333.5 Z"/></g>
<g><path style="opacity:1" fill="#38384b" d="M 52.5,348.5 C 66.1539,347.32 74.1539,353.486 76.5,367C 73.1108,383.53 63.4442,388.864 47.5,383C 37.0407,374.185 36.0407,364.352 44.5,353.5C 46.9279,351.295 49.5946,349.628 52.5,348.5 Z"/></g>
<g><path style="opacity:1" fill="#38384b" d="M 249.5,357.5 C 266.794,358.961 274.294,368.294 272,385.5C 265.648,398.842 255.481,403.009 241.5,398C 229.626,389.175 227.46,378.342 235,365.5C 239.134,361.354 243.968,358.687 249.5,357.5 Z"/></g>
<g><path style="opacity:1" fill="#9987a7" d="M 53.5,358.5 C 62.0047,357.514 66.1714,361.18 66,369.5C 63.5493,375.089 59.3826,376.922 53.5,375C 46.8837,369.552 46.8837,364.052 53.5,358.5 Z"/></g>
<g><path style="opacity:1" fill="#dcb4e0" d="M 113.5,360.5 C 114.239,360.369 114.906,360.536 115.5,361C 120.732,366.143 125.732,371.476 130.5,377C 129.584,377.278 128.918,377.778 128.5,378.5C 108.213,392.28 88.0468,406.28 68,420.5C 68.3983,418.369 69.3983,416.369 71,414.5C 85.0304,396.313 99.1971,378.313 113.5,360.5 Z"/></g>
<g><path style="opacity:1" fill="#8c7b9f" d="M 248.5,367.5 C 259.354,367.518 263.854,372.851 262,383.5C 257.733,390.876 251.899,392.376 244.5,388C 238.158,379.513 239.492,372.68 248.5,367.5 Z"/></g>
<g><path style="opacity:1" fill="#dab3df" d="M 154.5,401.5 C 157.674,409.681 160.674,418.015 163.5,426.5C 162.901,429.702 161.734,432.702 160,435.5C 157.271,439.898 153.604,443.231 149,445.5C 132.529,437.668 115.695,436.502 98.5,442C 102.167,437 106.5,432.667 111.5,429C 122.133,429.243 132.633,430.743 143,433.5C 144.711,433.561 146.044,432.894 147,431.5C 148.36,417.379 146.527,403.713 141.5,390.5C 141.435,390.062 141.601,389.728 142,389.5C 146.389,394.072 150.555,398.072 154.5,401.5 Z"/></g>
</svg>
