<?xml version="1.0" encoding="UTF-8"?>
<!DOCTYPE svg PUBLIC "-//W3C//DTD SVG 1.1//EN" "http://www.w3.org/Graphics/SVG/1.1/DTD/svg11.dtd">
<svg xmlns="http://www.w3.org/2000/svg" version="1.1" width="512px" height="512px" style="shape-rendering:geometricPrecision; text-rendering:geometricPrecision; image-rendering:optimizeQuality; fill-rule:evenodd; clip-rule:evenodd" xmlns:xlink="http://www.w3.org/1999/xlink">
<g><path style="opacity:1" fill="#fa517d" d="M 428.5,76.5 C 414.159,77.7674 399.826,79.1008 385.5,80.5C 387.842,77.2829 388.009,73.9496 386,70.5C 375.525,60.3417 363.359,52.8417 349.5,48C 346.833,45.3333 346.833,42.6667 349.5,40C 381.608,39.7212 407.941,51.8878 428.5,76.5 Z"/></g>
<g><path style="opacity:1" fill="#fa517d" d="M 376.5,80.5 C 329.023,85.6353 281.356,90.3019 233.5,94.5C 245.35,78.0604 261.35,67.8937 281.5,64C 315.659,55.9349 347.326,61.4349 376.5,80.5 Z"/></g>
<g><path style="opacity:1" fill="#fa567d" d="M 428.5,76.5 C 432.869,80.2366 436.535,84.5699 439.5,89.5C 368.484,95.6529 297.484,101.986 226.5,108.5C 228.306,103.554 230.639,98.8878 233.5,94.5C 281.356,90.3019 329.023,85.6353 376.5,80.5C 379.535,81.7335 382.535,81.7335 385.5,80.5C 399.826,79.1008 414.159,77.7674 428.5,76.5 Z"/></g>
<g><path style="opacity:1" fill="#fa5c7d" d="M 439.5,89.5 C 442.65,93.1189 445.316,97.1189 447.5,101.5C 403.914,105.932 360.247,110.099 316.5,114C 315.584,114.278 314.918,114.778 314.5,115.5C 296.93,107.505 278.597,105.338 259.5,109C 249.669,111.333 240.002,114.167 230.5,117.5C 228.626,117.61 227.126,116.944 226,115.5C 225.444,113.115 225.61,110.782 226.5,108.5C 297.484,101.986 368.484,95.6529 439.5,89.5 Z"/></g>
<g><path style="opacity:1" fill="#fa637d" d="M 447.5,101.5 C 450.931,106.785 453.598,112.452 455.5,118.5C 453.757,117.914 451.924,117.581 450,117.5C 412.506,121.06 375.006,124.56 337.5,128C 335.881,128.236 334.881,129.069 334.5,130.5C 328.399,124.731 321.732,119.731 314.5,115.5C 314.918,114.778 315.584,114.278 316.5,114C 360.247,110.099 403.914,105.932 447.5,101.5 Z"/></g>
<g><path style="opacity:1" fill="#fa697c" d="M 455.5,118.5 C 457.229,122.021 458.562,125.687 459.5,129.5C 420.866,133.8 382.199,137.8 343.5,141.5C 340.75,137.689 337.75,134.022 334.5,130.5C 334.881,129.069 335.881,128.236 337.5,128C 375.006,124.56 412.506,121.06 450,117.5C 451.924,117.581 453.757,117.914 455.5,118.5 Z"/></g>
<g><path style="opacity:1" fill="#fa6f7c" d="M 459.5,129.5 C 461.435,133.895 462.769,138.562 463.5,143.5C 425.869,147.194 388.202,150.527 350.5,153.5C 348.182,149.535 345.848,145.535 343.5,141.5C 382.199,137.8 420.866,133.8 459.5,129.5 Z"/></g>
<g><path style="opacity:1" fill="#fa767d" d="M 463.5,143.5 C 465.26,147.547 466.26,151.88 466.5,156.5C 454.231,158.027 441.897,159.361 429.5,160.5C 422.635,156.033 416.301,156.699 410.5,162.5C 391.781,163.687 373.114,165.353 354.5,167.5C 353.168,162.838 351.834,158.171 350.5,153.5C 388.202,150.527 425.869,147.194 463.5,143.5 Z"/></g>
<g><path style="opacity:1" fill="#fac770" d="M 175.5,163.5 C 174.036,164.16 172.369,164.493 170.5,164.5C 151.506,162.924 132.506,161.424 113.5,160C 112.584,159.722 111.918,159.222 111.5,158.5C 133.632,150.792 154.966,152.459 175.5,163.5 Z"/></g>
<g><path style="opacity:1" fill="#fa737a" d="M 295.5,155.5 C 300.726,154.188 304.059,156.021 305.5,161C 303.605,167.575 299.772,169.075 294,165.5C 291.925,161.794 292.425,158.461 295.5,155.5 Z"/></g>
<g><path style="opacity:1" fill="#faf6f6" d="M 429.5,160.5 C 433.659,166.894 433.326,173.06 428.5,179C 418.115,183.798 411.448,180.631 408.5,169.5C 408.886,167.068 409.553,164.734 410.5,162.5C 416.301,156.699 422.635,156.033 429.5,160.5 Z"/></g>
<g><path style="opacity:1" fill="#fac174" d="M 111.5,158.5 C 111.918,159.222 112.584,159.722 113.5,160C 132.506,161.424 151.506,162.924 170.5,164.5C 172.369,164.493 174.036,164.16 175.5,163.5C 182.453,167.452 188.12,172.786 192.5,179.5C 190.952,180.794 188.952,181.461 186.5,181.5C 153.456,179.035 120.456,176.368 87.5,173.5C 94.4541,167.013 102.454,162.013 111.5,158.5 Z"/></g>
<g><path style="opacity:1" fill="#fa807d" d="M 466.5,156.5 C 468.903,165.913 470.57,175.58 471.5,185.5C 431.608,189.822 391.608,193.489 351.5,196.5C 354.14,187.04 355.14,177.373 354.5,167.5C 373.114,165.353 391.781,163.687 410.5,162.5C 409.553,164.734 408.886,167.068 408.5,169.5C 411.448,180.631 418.115,183.798 428.5,179C 433.326,173.06 433.659,166.894 429.5,160.5C 441.897,159.361 454.231,158.027 466.5,156.5 Z"/></g>
<g><path style="opacity:1" fill="#fabb75" d="M 87.5,173.5 C 120.456,176.368 153.456,179.035 186.5,181.5C 188.952,181.461 190.952,180.794 192.5,179.5C 196.818,185.138 199.818,191.471 201.5,198.5C 160.509,195.308 119.509,192.142 78.5,189C 76.6183,188.802 74.9516,188.302 73.5,187.5C 77.2807,181.93 81.9474,177.263 87.5,173.5 Z"/></g>
<g><path style="opacity:1" fill="#fa817c" d="M 345.5,197.5 C 337.084,198.174 328.751,199.174 320.5,200.5C 320.173,193.027 318.507,185.86 315.5,179C 315.738,175.929 317.404,174.429 320.5,174.5C 332.324,178.323 340.658,185.989 345.5,197.5 Z"/></g>
<g><path style="opacity:1" fill="#fab576" d="M 73.5,187.5 C 74.9516,188.302 76.6183,188.802 78.5,189C 119.509,192.142 160.509,195.308 201.5,198.5C 203.246,202.889 204.246,207.556 204.5,212.5C 203.601,213.472 202.434,214.138 201,214.5C 186.805,213.242 172.639,211.908 158.5,210.5C 157.893,210.624 157.56,210.957 157.5,211.5C 148.173,199.228 136.173,195.728 121.5,201C 117.615,203.725 113.615,206.225 109.5,208.5C 108.737,207.732 107.737,207.232 106.5,207C 91.8187,205.909 77.1521,204.742 62.5,203.5C 65.3932,197.612 69.0599,192.278 73.5,187.5 Z"/></g>
<g><path style="opacity:1" fill="#fa8977" d="M 471.5,185.5 C 471.916,190.493 472.249,195.493 472.5,200.5C 421.886,204.101 371.22,208.434 320.5,213.5C 320.5,209.167 320.5,204.833 320.5,200.5C 328.751,199.174 337.084,198.174 345.5,197.5C 347.815,200.189 349.815,199.855 351.5,196.5C 391.608,193.489 431.608,189.822 471.5,185.5 Z"/></g>
<g><path style="opacity:1" fill="#faf9f8" d="M 157.5,211.5 C 160.717,217.038 162.05,223.038 161.5,229.5C 160.097,235.039 158.097,240.372 155.5,245.5C 152.45,249.538 148.45,252.371 143.5,254C 134.56,255.215 125.56,255.882 116.5,256C 115.263,256.232 114.263,256.732 113.5,257.5C 107.647,260.863 103.981,265.863 102.5,272.5C 99.1255,277.957 97.1255,283.957 96.5,290.5C 95.1531,293.663 93.9864,296.996 93,300.5C 88.7057,304.601 84.7057,304.268 81,299.5C 80.2242,296.111 79.3909,292.778 78.5,289.5C 78.5,283.167 78.5,276.833 78.5,270.5C 79.2952,266.524 79.9619,262.524 80.5,258.5C 82.2688,252.527 84.2688,246.527 86.5,240.5C 89.4176,235.667 92.0843,230.667 94.5,225.5C 99.0992,219.562 104.099,213.895 109.5,208.5C 113.615,206.225 117.615,203.725 121.5,201C 136.173,195.728 148.173,199.228 157.5,211.5 Z"/></g>
<g><path style="opacity:1" fill="#fa8f76" d="M 472.5,200.5 C 472.5,204.833 472.5,209.167 472.5,213.5C 458.828,214.44 445.162,215.44 431.5,216.5C 429.122,207.217 424.289,205.55 417,211.5C 416.56,213.866 416.06,216.199 415.5,218.5C 384.167,221.267 352.834,224.1 321.5,227C 319.867,227.48 318.534,228.313 317.5,229.5C 318.269,223.996 319.269,218.662 320.5,213.5C 371.22,208.434 421.886,204.101 472.5,200.5 Z"/></g>
<g><path style="opacity:1" fill="#faaf76" d="M 62.5,203.5 C 77.1521,204.742 91.8187,205.909 106.5,207C 107.737,207.232 108.737,207.732 109.5,208.5C 104.099,213.895 99.0992,219.562 94.5,225.5C 80.8403,223.783 67.1737,222.116 53.5,220.5C 55.7396,214.35 58.7396,208.684 62.5,203.5 Z"/></g>
<g><path style="opacity:1" fill="#faf9f8" d="M 431.5,216.5 C 432.265,219.096 432.599,221.763 432.5,224.5C 433.191,236.422 431.858,248.088 428.5,259.5C 426.264,264.32 424.264,269.32 422.5,274.5C 419.597,280.077 416.263,285.41 412.5,290.5C 407.822,296.177 402.489,301.177 396.5,305.5C 386.28,313.133 375.28,314.466 363.5,309.5C 358.792,305.793 354.792,301.46 351.5,296.5C 349.959,291.636 349.292,286.636 349.5,281.5C 350.376,276.536 352.043,271.87 354.5,267.5C 357.07,262.434 361.07,258.934 366.5,257C 375.759,255.749 385.092,255.082 394.5,255C 397.756,253.884 400.422,252.051 402.5,249.5C 405.874,245.419 408.207,240.753 409.5,235.5C 412.308,230.197 414.308,224.53 415.5,218.5C 416.06,216.199 416.56,213.866 417,211.5C 424.289,205.55 429.122,207.217 431.5,216.5 Z"/></g>
<g><path style="opacity:1" fill="#faaf76" d="M 204.5,212.5 C 205.774,219.161 205.774,225.828 204.5,232.5C 190.138,231.857 175.804,230.857 161.5,229.5C 162.05,223.038 160.717,217.038 157.5,211.5C 157.56,210.957 157.893,210.624 158.5,210.5C 172.639,211.908 186.805,213.242 201,214.5C 202.434,214.138 203.601,213.472 204.5,212.5 Z"/></g>
<g><path style="opacity:1" fill="#fa9676" d="M 472.5,213.5 C 472.5,218.5 472.5,223.5 472.5,228.5C 459.583,230.19 446.583,231.523 433.5,232.5C 433.806,229.615 433.473,226.948 432.5,224.5C 432.599,221.763 432.265,219.096 431.5,216.5C 445.162,215.44 458.828,214.44 472.5,213.5 Z"/></g>
<g><path style="opacity:1" fill="#fa9676" d="M 415.5,218.5 C 414.308,224.53 412.308,230.197 409.5,235.5C 378.046,237.661 346.379,240.327 314.5,243.5C 314.994,238.697 315.994,234.03 317.5,229.5C 318.534,228.313 319.867,227.48 321.5,227C 352.834,224.1 384.167,221.267 415.5,218.5 Z"/></g>
<g><path style="opacity:1" fill="#faa876" d="M 53.5,220.5 C 67.1737,222.116 80.8403,223.783 94.5,225.5C 92.0843,230.667 89.4176,235.667 86.5,240.5C 73.3541,238.716 60.0208,237.383 46.5,236.5C 48.3195,230.869 50.6529,225.535 53.5,220.5 Z"/></g>
<g><path style="opacity:1" fill="#faa876" d="M 161.5,229.5 C 175.804,230.857 190.138,231.857 204.5,232.5C 204.038,238.273 203.038,243.939 201.5,249.5C 186.305,247.202 170.971,245.869 155.5,245.5C 158.097,240.372 160.097,235.039 161.5,229.5 Z"/></g>
<g><path style="opacity:1" fill="#fa9c76" d="M 409.5,235.5 C 408.207,240.753 405.874,245.419 402.5,249.5C 371.806,251.866 341.14,254.533 310.5,257.5C 311.544,252.644 312.877,247.978 314.5,243.5C 346.379,240.327 378.046,237.661 409.5,235.5 Z"/></g>
<g><path style="opacity:1" fill="#faa276" d="M 46.5,236.5 C 60.0208,237.383 73.3541,238.716 86.5,240.5C 84.2688,246.527 82.2688,252.527 80.5,258.5C 80.67,257.178 80.3366,256.011 79.5,255C 67.0715,254.263 54.7382,253.096 42.5,251.5C 43.6773,246.457 45.0107,241.457 46.5,236.5 Z"/></g>
<g><path style="opacity:1" fill="#faa076" d="M 432.5,224.5 C 433.473,226.948 433.806,229.615 433.5,232.5C 446.583,231.523 459.583,230.19 472.5,228.5C 472.545,238.49 471.211,248.156 468.5,257.5C 467.903,256.861 467.07,256.528 466,256.5C 453.33,258.276 440.83,259.276 428.5,259.5C 431.858,248.088 433.191,236.422 432.5,224.5 Z"/></g>
<g><path style="opacity:1" fill="#faa276" d="M 155.5,245.5 C 170.971,245.869 186.305,247.202 201.5,249.5C 200.319,254.56 198.985,259.56 197.5,264.5C 169.565,261.966 141.565,259.633 113.5,257.5C 114.263,256.732 115.263,256.232 116.5,256C 125.56,255.882 134.56,255.215 143.5,254C 148.45,252.371 152.45,249.538 155.5,245.5 Z"/></g>
<g><path style="opacity:1" fill="#faa276" d="M 402.5,249.5 C 400.422,252.051 397.756,253.884 394.5,255C 385.092,255.082 375.759,255.749 366.5,257C 361.07,258.934 357.07,262.434 354.5,267.5C 338.8,268.473 323.133,269.806 307.5,271.5C 308.185,266.761 309.185,262.095 310.5,257.5C 341.14,254.533 371.806,251.866 402.5,249.5 Z"/></g>
<g><path style="opacity:1" fill="#fa9c76" d="M 42.5,251.5 C 54.7382,253.096 67.0715,254.263 79.5,255C 80.3366,256.011 80.67,257.178 80.5,258.5C 79.9619,262.524 79.2952,266.524 78.5,270.5C 66.4923,269.846 54.4923,269.012 42.5,268C 41.4734,267.487 40.4734,266.987 39.5,266.5C 40.1783,261.429 41.1783,256.429 42.5,251.5 Z"/></g>
<g><path style="opacity:1" fill="#faa876" d="M 468.5,257.5 C 468.112,261.993 467.112,266.327 465.5,270.5C 451.159,271.767 436.826,273.101 422.5,274.5C 424.264,269.32 426.264,264.32 428.5,259.5C 440.83,259.276 453.33,258.276 466,256.5C 467.07,256.528 467.903,256.861 468.5,257.5 Z"/></g>
<g><path style="opacity:1" fill="#fa9c76" d="M 113.5,257.5 C 141.565,259.633 169.565,261.966 197.5,264.5C 196.372,269.473 195.372,274.473 194.5,279.5C 163.815,277.37 133.148,275.037 102.5,272.5C 103.981,265.863 107.647,260.863 113.5,257.5 Z"/></g>
<g><path style="opacity:1" fill="#fa9676" d="M 39.5,266.5 C 40.4734,266.987 41.4734,267.487 42.5,268C 54.4923,269.012 66.4923,269.846 78.5,270.5C 78.5,276.833 78.5,283.167 78.5,289.5C 65.2092,288.093 51.8759,287.093 38.5,286.5C 38.391,279.804 38.7243,273.137 39.5,266.5 Z"/></g>
<g><path style="opacity:1" fill="#faa876" d="M 354.5,267.5 C 352.043,271.87 350.376,276.536 349.5,281.5C 335.488,282.456 321.488,283.622 307.5,285C 306.915,286.302 306.249,287.469 305.5,288.5C 305.97,282.794 306.637,277.127 307.5,271.5C 323.133,269.806 338.8,268.473 354.5,267.5 Z"/></g>
<g><path style="opacity:1" fill="#faaf76" d="M 465.5,270.5 C 463.893,276.323 461.893,281.989 459.5,287.5C 444.266,288.143 429.099,289.476 414,291.5C 413.235,291.43 412.735,291.097 412.5,290.5C 416.263,285.41 419.597,280.077 422.5,274.5C 436.826,273.101 451.159,271.767 465.5,270.5 Z"/></g>
<g><path style="opacity:1" fill="#fa9676" d="M 102.5,272.5 C 133.148,275.037 163.815,277.37 194.5,279.5C 192.91,285.784 191.577,292.118 190.5,298.5C 159.246,295.48 127.913,292.813 96.5,290.5C 97.1255,283.957 99.1255,277.957 102.5,272.5 Z"/></g>
<g><path style="opacity:1" fill="#faaf76" d="M 349.5,281.5 C 349.292,286.636 349.959,291.636 351.5,296.5C 338.578,298.069 325.578,299.403 312.5,300.5C 310.215,300.324 308.215,299.657 306.5,298.5C 305.949,295.193 305.616,291.86 305.5,288.5C 306.249,287.469 306.915,286.302 307.5,285C 321.488,283.622 335.488,282.456 349.5,281.5 Z"/></g>
<g><path style="opacity:1" fill="#fa8e76" d="M 38.5,286.5 C 51.8759,287.093 65.2092,288.093 78.5,289.5C 79.3909,292.778 80.2242,296.111 81,299.5C 84.7057,304.268 88.7057,304.601 93,300.5C 93.9864,296.996 95.1531,293.663 96.5,290.5C 127.913,292.813 159.246,295.48 190.5,298.5C 189.79,307.761 190.79,316.761 193.5,325.5C 186.769,324.489 180.102,324.489 173.5,325.5C 170.103,321.59 167.269,317.256 165,312.5C 163.51,311.272 162.01,311.272 160.5,312.5C 159.391,311.71 158.058,311.21 156.5,311C 117.188,307.784 77.8549,304.95 38.5,302.5C 38.5,297.167 38.5,291.833 38.5,286.5 Z"/></g>
<g><path style="opacity:1" fill="#fab576" d="M 459.5,287.5 C 457.167,292.167 454.833,296.833 452.5,301.5C 434.454,302.686 416.454,304.353 398.5,306.5C 397.584,306.457 396.917,306.124 396.5,305.5C 402.489,301.177 407.822,296.177 412.5,290.5C 412.735,291.097 413.235,291.43 414,291.5C 429.099,289.476 444.266,288.143 459.5,287.5 Z"/></g>
<g><path style="opacity:1" fill="#fab576" d="M 351.5,296.5 C 354.792,301.46 358.792,305.793 363.5,309.5C 346.289,310.777 329.122,312.443 312,314.5C 311.098,314.257 310.265,313.923 309.5,313.5C 307.865,308.656 306.865,303.656 306.5,298.5C 308.215,299.657 310.215,300.324 312.5,300.5C 325.578,299.403 338.578,298.069 351.5,296.5 Z"/></g>
<g><path style="opacity:1" fill="#fabb76" d="M 452.5,301.5 C 449.985,306.543 446.985,311.21 443.5,315.5C 402.191,319.483 360.858,323.316 319.5,327C 318.263,327.232 317.263,327.732 316.5,328.5C 313.384,323.93 311.05,318.93 309.5,313.5C 310.265,313.923 311.098,314.257 312,314.5C 329.122,312.443 346.289,310.777 363.5,309.5C 375.28,314.466 386.28,313.133 396.5,305.5C 396.917,306.124 397.584,306.457 398.5,306.5C 416.454,304.353 434.454,302.686 452.5,301.5 Z"/></g>
<g><path style="opacity:1" fill="#fa8977" d="M 38.5,302.5 C 77.8549,304.95 117.188,307.784 156.5,311C 158.058,311.21 159.391,311.71 160.5,312.5C 158.858,317.066 157.525,321.732 156.5,326.5C 117.772,324.008 79.1054,321.008 40.5,317.5C 39.8933,317.624 39.56,317.957 39.5,318.5C 38.5119,313.36 38.1786,308.026 38.5,302.5 Z"/></g>
<g><path style="opacity:1" fill="#fac174" d="M 443.5,315.5 C 440.221,321.047 436.221,326.047 431.5,330.5C 398.49,333.319 365.49,336.319 332.5,339.5C 330.36,339.556 328.694,340.223 327.5,341.5C 322.736,338.072 319.07,333.738 316.5,328.5C 317.263,327.732 318.263,327.232 319.5,327C 360.858,323.316 402.191,319.483 443.5,315.5 Z"/></g>
<g><path style="opacity:1" fill="#fa837d" d="M 156.5,326.5 C 156.5,331.833 156.5,337.167 156.5,342.5C 138.487,341.319 120.487,339.986 102.5,338.5C 98.0036,329.755 91.3369,327.589 82.5,332C 81.2668,333.667 79.9335,335.167 78.5,336.5C 65.7976,335.805 53.1309,334.805 40.5,333.5C 39.746,328.537 39.4126,323.537 39.5,318.5C 39.56,317.957 39.8933,317.624 40.5,317.5C 79.1054,321.008 117.772,324.008 156.5,326.5 Z"/></g>
<g><path style="opacity:1" fill="#fa847c" d="M 193.5,325.5 C 197.259,336.234 193.926,339.067 183.5,334C 179.91,331.386 176.576,328.552 173.5,325.5C 180.102,324.489 186.769,324.489 193.5,325.5 Z"/></g>
<g><path style="opacity:1" fill="#faf6f6" d="M 102.5,338.5 C 102.859,347.305 98.6928,352.305 90,353.5C 80.7671,351.745 76.9338,346.078 78.5,336.5C 79.9335,335.167 81.2668,333.667 82.5,332C 91.3369,327.589 98.0036,329.755 102.5,338.5 Z"/></g>
<g><path style="opacity:1" fill="#fac86f" d="M 431.5,330.5 C 405.243,357.386 374.576,363.886 339.5,350C 335.258,347.39 331.258,344.557 327.5,341.5C 328.694,340.223 330.36,339.556 332.5,339.5C 365.49,336.319 398.49,333.319 431.5,330.5 Z"/></g>
<g><path style="opacity:1" fill="#fa7d7d" d="M 40.5,333.5 C 53.1309,334.805 65.7976,335.805 78.5,336.5C 76.9338,346.078 80.7671,351.745 90,353.5C 98.6928,352.305 102.859,347.305 102.5,338.5C 120.487,339.986 138.487,341.319 156.5,342.5C 157.73,349.091 159.73,355.424 162.5,361.5C 122.829,358.551 83.1623,355.551 43.5,352.5C 42.3922,346.186 41.3922,339.853 40.5,333.5 Z"/></g>
<g><path style="opacity:1" fill="#fa817b" d="M 213.5,343.5 C 221.406,343.428 223.739,346.928 220.5,354C 214.818,357.07 211.152,355.57 209.5,349.5C 209.866,346.744 211.2,344.744 213.5,343.5 Z"/></g>
<g><path style="opacity:1" fill="#fa757c" d="M 43.5,352.5 C 83.1623,355.551 122.829,358.551 162.5,361.5C 166.134,366.81 169.801,372.144 173.5,377.5C 132.673,375.226 91.6728,372.226 50.5,368.5C 49.4163,368.685 48.4163,369.018 47.5,369.5C 46.0091,363.87 44.6757,358.203 43.5,352.5 Z"/></g>
<g><path style="opacity:1" fill="#fa707c" d="M 173.5,377.5 C 180.138,384.468 187.471,390.468 195.5,395.5C 147.794,392.189 100.127,388.523 52.5,384.5C 50.3874,379.745 48.7208,374.745 47.5,369.5C 48.4163,369.018 49.4163,368.685 50.5,368.5C 91.6728,372.226 132.673,375.226 173.5,377.5 Z"/></g>
<g><path style="opacity:1" fill="#fa6a7c" d="M 52.5,384.5 C 100.127,388.523 147.794,392.189 195.5,395.5C 222.954,406.441 250.287,405.941 277.5,394C 283.493,392.332 285.993,394.498 285,400.5C 283.19,406.786 280.357,412.453 276.5,417.5C 204.167,412.167 131.833,406.833 59.5,401.5C 56.6004,396.152 54.2671,390.485 52.5,384.5 Z"/></g>
<g><path style="opacity:1" fill="#fa637d" d="M 59.5,401.5 C 131.833,406.833 204.167,412.167 276.5,417.5C 271.455,424.879 265.122,430.879 257.5,435.5C 195.351,430.052 133.017,425.052 70.5,420.5C 66.0791,414.666 62.4124,408.332 59.5,401.5 Z"/></g>
<g><path style="opacity:1" fill="#fa5c7d" d="M 70.5,420.5 C 133.017,425.052 195.351,430.052 257.5,435.5C 239.361,445.935 219.694,450.935 198.5,450.5C 187.963,450.391 177.63,448.891 167.5,446C 154.499,441.411 141.999,435.911 130,429.5C 123.984,430.864 122.15,434.531 124.5,440.5C 111.505,439.449 98.5049,438.449 85.5,437.5C 79.413,432.749 74.413,427.082 70.5,420.5 Z"/></g>
<g><path style="opacity:1" fill="#fa557d" d="M 85.5,437.5 C 98.5049,438.449 111.505,439.449 124.5,440.5C 135.895,450.713 148.729,458.713 163,464.5C 163.896,467.025 163.396,469.192 161.5,471C 130.946,471.554 105.612,460.387 85.5,437.5 Z"/></g>
</svg>
