<?xml version="1.0" encoding="UTF-8"?>
<!DOCTYPE svg PUBLIC "-//W3C//DTD SVG 1.1//EN" "http://www.w3.org/Graphics/SVG/1.1/DTD/svg11.dtd">
<svg xmlns="http://www.w3.org/2000/svg" version="1.1" width="512px" height="512px" style="shape-rendering:geometricPrecision; text-rendering:geometricPrecision; image-rendering:optimizeQuality; fill-rule:evenodd; clip-rule:evenodd" xmlns:xlink="http://www.w3.org/1999/xlink">
<g><path style="opacity:1" fill="#fac86f" d="M 68.5,49.5 C 62.8529,55.1514 57.5196,61.1514 52.5,67.5C 45.8533,62.8733 43.02,56.54 44,48.5C 47.246,42.1347 52.4127,39.968 59.5,42C 62.6902,44.3644 65.6902,46.8644 68.5,49.5 Z"/></g>
<g><path style="opacity:1" fill="#fa8f75" d="M 420.5,68.5 C 418.405,69.412 416.405,70.5787 414.5,72C 402.167,83.6667 389.833,95.3333 377.5,107C 373.561,110.429 370.228,114.263 367.5,118.5C 361.132,111.131 354.132,104.464 346.5,98.5C 353.962,92.2081 361.295,85.7081 368.5,79C 371.833,75.6667 375.167,72.3333 378.5,69C 377.944,68.6174 377.611,68.1174 377.5,67.5C 381.037,68.2667 384.371,69.6001 387.5,71.5C 386.857,63.3255 388.024,55.3255 391,47.5C 392.445,44.383 394.778,42.383 398,41.5C 399.107,41.5852 400.107,41.9186 401,42.5C 402.934,46.7594 405.268,50.7594 408,54.5C 412.745,58.74 416.912,63.4067 420.5,68.5 Z"/></g>
<g><path style="opacity:1" fill="#fac174" d="M 68.5,49.5 C 75.193,55.8611 81.8597,62.1944 88.5,68.5C 82.4648,75.5361 75.7982,81.8695 68.5,87.5C 62.8171,81.1464 57.4838,74.4797 52.5,67.5C 57.5196,61.1514 62.8529,55.1514 68.5,49.5 Z"/></g>
<g><path style="opacity:1" fill="#fa9c75" d="M 342.5,59.5 C 333.5,68.1667 324.5,76.8333 315.5,85.5C 305.723,82.5105 295.723,80.3439 285.5,79C 282.833,76.3333 282.833,73.6667 285.5,71C 303.43,61.9349 322.43,58.1015 342.5,59.5 Z"/></g>
<g><path style="opacity:1" fill="#fa9675" d="M 342.5,59.5 C 354.796,59.8896 366.463,62.5563 377.5,67.5C 377.611,68.1174 377.944,68.6174 378.5,69C 375.167,72.3333 371.833,75.6667 368.5,79C 361.295,85.7081 353.962,92.2081 346.5,98.5C 336.761,92.7987 326.428,88.4654 315.5,85.5C 324.5,76.8333 333.5,68.1667 342.5,59.5 Z"/></g>
<g><path style="opacity:1" fill="#fa8976" d="M 420.5,68.5 C 424.167,73.8333 427.833,79.1667 431.5,84.5C 412.532,101.466 393.866,118.799 375.5,136.5C 373.368,130.238 370.701,124.238 367.5,118.5C 370.228,114.263 373.561,110.429 377.5,107C 389.833,95.3333 402.167,83.6667 414.5,72C 416.405,70.5787 418.405,69.412 420.5,68.5 Z"/></g>
<g><path style="opacity:1" fill="#fab775" d="M 88.5,68.5 C 102.157,80.1584 115.491,92.1584 128.5,104.5C 128.631,105.239 128.464,105.906 128,106.5C 119.808,113.936 111.808,121.603 104,129.5C 103.329,128.748 102.496,128.414 101.5,128.5C 90.26,115.016 79.26,101.35 68.5,87.5C 75.7982,81.8695 82.4648,75.5361 88.5,68.5 Z"/></g>
<g><path style="opacity:1" fill="#fa837c" d="M 431.5,84.5 C 438.2,94.5641 443.867,105.231 448.5,116.5C 444.728,119.094 441.061,121.927 437.5,125C 413.134,148.174 388.801,171.34 364.5,194.5C 361.765,185.694 357.931,177.361 353,169.5C 351.682,166.594 351.348,163.594 352,160.5C 352.804,159.196 353.971,158.529 355.5,158.5C 367.456,162.857 374.789,158.857 377.5,146.5C 376.958,143.122 376.291,139.789 375.5,136.5C 393.866,118.799 412.532,101.466 431.5,84.5 Z"/></g>
<g><path style="opacity:1" fill="#faaf75" d="M 128.5,104.5 C 136.525,111.529 144.525,118.529 152.5,125.5C 152.631,126.239 152.464,126.906 152,127.5C 142.302,136.367 132.802,145.367 123.5,154.5C 115.821,146.152 108.487,137.485 101.5,128.5C 102.496,128.414 103.329,128.748 104,129.5C 111.808,121.603 119.808,113.936 128,106.5C 128.464,105.906 128.631,105.239 128.5,104.5 Z"/></g>
<g><path style="opacity:1" fill="#fa9175" d="M 309.5,108.5 C 325.676,108.176 335.009,116.009 337.5,132C 336.72,135.732 334.387,137.565 330.5,137.5C 320.747,137.2 312.58,133.533 306,126.5C 302.967,121.894 301.967,116.894 303,111.5C 305.045,110.074 307.212,109.074 309.5,108.5 Z"/></g>
<g><path style="opacity:1" fill="#fa7d7d" d="M 448.5,116.5 C 453.481,126.774 457.481,137.441 460.5,148.5C 409.922,194.907 359.755,241.907 310,289.5C 309.536,290.094 309.369,290.761 309.5,291.5C 298.484,287.495 287.484,283.495 276.5,279.5C 276.369,278.761 276.536,278.094 277,277.5C 290.699,264.633 304.199,251.633 317.5,238.5C 338.189,245.545 353.356,239.211 363,219.5C 365.547,211.275 366.047,202.942 364.5,194.5C 388.801,171.34 413.134,148.174 437.5,125C 441.061,121.927 444.728,119.094 448.5,116.5 Z"/></g>
<g><path style="opacity:1" fill="#fa9d75" d="M 216.5,117.5 C 225.711,119.658 235.045,121.158 244.5,122C 255.587,126.003 260.087,133.837 258,145.5C 256.938,146.097 255.772,146.43 254.5,146.5C 246.337,144.202 238.004,143.035 229.5,143C 216.955,138.408 212.621,129.908 216.5,117.5 Z"/></g>
<g><path style="opacity:1" fill="#faa875" d="M 152.5,125.5 C 159.825,131.492 166.825,137.825 173.5,144.5C 163.198,154.633 152.698,164.633 142,174.5C 141.517,175.448 141.351,176.448 141.5,177.5C 134.778,170.386 128.778,162.719 123.5,154.5C 132.802,145.367 142.302,136.367 152,127.5C 152.464,126.906 152.631,126.239 152.5,125.5 Z"/></g>
<g><path style="opacity:1" fill="#faa275" d="M 173.5,144.5 C 180.795,149.794 187.795,155.461 194.5,161.5C 182.495,173.504 170.162,185.171 157.5,196.5C 151.939,190.392 146.606,184.059 141.5,177.5C 141.351,176.448 141.517,175.448 142,174.5C 152.698,164.633 163.198,154.633 173.5,144.5 Z"/></g>
<g><path style="opacity:1" fill="#fa767d" d="M 460.5,148.5 C 463.788,158.987 466.455,169.654 468.5,180.5C 467.778,180.082 467.278,179.416 467,178.5C 421.666,220.668 376.832,263.335 332.5,306.5C 325.374,300.764 317.707,295.764 309.5,291.5C 309.369,290.761 309.536,290.094 310,289.5C 359.755,241.907 409.922,194.907 460.5,148.5 Z"/></g>
<g><path style="opacity:1" fill="#fa9b75" d="M 194.5,161.5 C 201.683,166.927 208.683,172.594 215.5,178.5C 202.566,192.159 188.899,205.159 174.5,217.5C 168.461,210.795 162.794,203.795 157.5,196.5C 170.162,185.171 182.495,173.504 194.5,161.5 Z"/></g>
<g><path style="opacity:1" fill="#fa8f76" d="M 294.5,185.5 C 278.796,201.538 262.463,216.871 245.5,231.5C 240.09,224.616 233.09,219.949 224.5,217.5C 224.389,216.883 224.056,216.383 223.5,216C 229.134,209.521 235.467,204.021 242.5,199.5C 246.345,201.923 250.345,204.09 254.5,206C 262.842,206.009 268.009,201.842 270,193.5C 270.333,185.5 270.667,177.5 271,169.5C 272.085,168.707 273.252,168.04 274.5,167.5C 283.455,171.129 290.122,177.129 294.5,185.5 Z"/></g>
<g><path style="opacity:1" fill="#fa6f7d" d="M 468.5,180.5 C 470.325,191.098 471.658,201.765 472.5,212.5C 470.745,213.072 469.078,213.906 467.5,215C 458.6,224.403 449.266,233.237 439.5,241.5C 436.361,237.53 432.695,234.03 428.5,231C 426.231,230.242 424.064,230.409 422,231.5C 417.164,241.532 416.331,251.865 419.5,262.5C 417.068,263.75 414.734,265.25 412.5,267C 406.264,273.74 399.597,279.907 392.5,285.5C 389.95,282.148 387.117,281.815 384,284.5C 385.69,298.381 382.69,311.048 375,322.5C 363.408,331.249 352.741,330.249 343,319.5C 339.492,315.136 335.992,310.803 332.5,306.5C 376.832,263.335 421.666,220.668 467,178.5C 467.278,179.416 467.778,180.082 468.5,180.5 Z"/></g>
<g><path style="opacity:1" fill="#fa9676" d="M 215.5,178.5 C 224.72,185.27 233.72,192.27 242.5,199.5C 235.467,204.021 229.134,209.521 223.5,216C 224.056,216.383 224.389,216.883 224.5,217.5C 219.739,215.967 215.072,214.134 210.5,212C 205.917,211.066 204.417,212.9 206,217.5C 208.099,220.7 209.933,224.033 211.5,227.5C 205.839,232.985 199.839,237.985 193.5,242.5C 186.935,234.385 180.602,226.051 174.5,217.5C 188.899,205.159 202.566,192.159 215.5,178.5 Z"/></g>
<g><path style="opacity:1" fill="#fa8976" d="M 294.5,185.5 C 296.328,188.135 297.495,191.135 298,194.5C 298.312,200.199 298.812,205.866 299.5,211.5C 298.883,211.389 298.383,211.056 298,210.5C 259.731,246.186 221.897,282.186 184.5,318.5C 177.334,317.087 171.667,313.421 167.5,307.5C 169.557,303.933 172.223,300.766 175.5,298C 193.001,282.332 210.001,266.165 226.5,249.5C 241.352,252.313 247.685,246.313 245.5,231.5C 262.463,216.871 278.796,201.538 294.5,185.5 Z"/></g>
<g><path style="opacity:1" fill="#fa887c" d="M 299.5,211.5 C 299.674,213.861 300.007,216.194 300.5,218.5C 268.703,247.795 237.036,277.295 205.5,307C 201.5,311 197.5,315 193.5,319C 194.056,319.383 194.389,319.883 194.5,320.5C 190.878,320.678 187.544,320.011 184.5,318.5C 221.897,282.186 259.731,246.186 298,210.5C 298.383,211.056 298.883,211.389 299.5,211.5 Z"/></g>
<g><path style="opacity:1" fill="#faf8f7" d="M 224.5,217.5 C 233.09,219.949 240.09,224.616 245.5,231.5C 247.685,246.313 241.352,252.313 226.5,249.5C 225.115,248.386 223.615,247.386 222,246.5C 218.472,240.105 214.972,233.771 211.5,227.5C 209.933,224.033 208.099,220.7 206,217.5C 204.417,212.9 205.917,211.066 210.5,212C 215.072,214.134 219.739,215.967 224.5,217.5 Z"/></g>
<g><path style="opacity:1" fill="#fa6a7d" d="M 472.5,212.5 C 473.833,224.167 473.833,235.833 472.5,247.5C 451.255,267.575 430.089,287.908 409,308.5C 408.517,309.448 408.351,310.448 408.5,311.5C 404.699,301.899 399.365,293.232 392.5,285.5C 399.597,279.907 406.264,273.74 412.5,267C 414.734,265.25 417.068,263.75 419.5,262.5C 429.548,283.329 437.048,282.329 442,259.5C 443.051,253.206 442.217,247.206 439.5,241.5C 449.266,233.237 458.6,224.403 467.5,215C 469.078,213.906 470.745,213.072 472.5,212.5 Z"/></g>
<g><path style="opacity:1" fill="#fa837d" d="M 300.5,218.5 C 303.256,227.593 308.923,234.26 317.5,238.5C 304.199,251.633 290.699,264.633 277,277.5C 276.536,278.094 276.369,278.761 276.5,279.5C 272.518,276.524 268.518,273.524 264.5,270.5C 263.833,270.833 263.167,271.167 262.5,271.5C 261.212,277.694 261.879,283.694 264.5,289.5C 252.505,300.162 240.838,311.162 229.5,322.5C 224.848,319.951 219.848,318.617 214.5,318.5C 207.904,319.815 201.238,320.481 194.5,320.5C 194.389,319.883 194.056,319.383 193.5,319C 197.5,315 201.5,311 205.5,307C 237.036,277.295 268.703,247.795 300.5,218.5 Z"/></g>
<g><path style="opacity:1" fill="#fa8f76" d="M 211.5,227.5 C 214.972,233.771 218.472,240.105 222,246.5C 223.615,247.386 225.115,248.386 226.5,249.5C 210.001,266.165 193.001,282.332 175.5,298C 172.223,300.766 169.557,303.933 167.5,307.5C 164.305,303.776 162.138,299.443 161,294.5C 159.67,288.548 159.337,282.548 160,276.5C 160.956,275.106 162.289,274.439 164,274.5C 168.986,277.322 174.32,279.322 180,280.5C 195.502,276.675 201.502,267.009 198,251.5C 196.487,248.473 194.987,245.473 193.5,242.5C 199.839,237.985 205.839,232.985 211.5,227.5 Z"/></g>
<g><path style="opacity:1" fill="#faf7f7" d="M 439.5,241.5 C 442.217,247.206 443.051,253.206 442,259.5C 437.048,282.329 429.548,283.329 419.5,262.5C 416.331,251.865 417.164,241.532 422,231.5C 424.064,230.409 426.231,230.242 428.5,231C 432.695,234.03 436.361,237.53 439.5,241.5 Z"/></g>
<g><path style="opacity:1" fill="#fa647d" d="M 472.5,247.5 C 471.566,264.706 469.232,281.706 465.5,298.5C 447.801,315.534 429.801,332.201 411.5,348.5C 413.349,335.93 412.349,323.596 408.5,311.5C 408.351,310.448 408.517,309.448 409,308.5C 430.089,287.908 451.255,267.575 472.5,247.5 Z"/></g>
<g><path style="opacity:1" fill="#fa9776" d="M 112.5,241.5 C 132.794,248.411 140.294,262.411 135,283.5C 132.039,293.729 125.539,297.229 115.5,294C 110.683,289.366 108.017,283.699 107.5,277C 108.588,271.067 110.088,265.234 112,259.5C 111.949,253.418 112.115,247.418 112.5,241.5 Z"/></g>
<g><path style="opacity:1" fill="#faf9f9" d="M 276.5,279.5 C 287.484,283.495 298.484,287.495 309.5,291.5C 317.707,295.764 325.374,300.764 332.5,306.5C 335.992,310.803 339.492,315.136 343,319.5C 352.741,330.249 363.408,331.249 375,322.5C 382.69,311.048 385.69,298.381 384,284.5C 387.117,281.815 389.95,282.148 392.5,285.5C 399.365,293.232 404.699,301.899 408.5,311.5C 412.349,323.596 413.349,335.93 411.5,348.5C 400.676,393.326 372.676,419.993 327.5,428.5C 313.753,429.709 300.419,428.043 287.5,423.5C 279.025,419.364 271.691,413.697 265.5,406.5C 263.416,404.243 263.083,401.743 264.5,399C 299.998,407.838 316.164,394.005 313,357.5C 311.285,349.175 308.118,341.509 303.5,334.5C 298.969,326.297 292.969,319.297 285.5,313.5C 280.838,308.734 276.004,304.067 271,299.5C 268.56,296.272 266.394,292.939 264.5,289.5C 261.879,283.694 261.212,277.694 262.5,271.5C 263.167,271.167 263.833,270.833 264.5,270.5C 268.518,273.524 272.518,276.524 276.5,279.5 Z"/></g>
<g><path style="opacity:1" fill="#fa9d75" d="M 82.5,306.5 C 67.9237,318.903 53.757,331.903 40,345.5C 39.7216,344.584 39.2216,343.918 38.5,343.5C 38.3334,329.496 38.5001,315.496 39,301.5C 41.0483,299.213 43.2149,299.046 45.5,301C 48.5314,303.559 50.6981,306.726 52,310.5C 52.7977,286.782 59.9644,265.282 73.5,246C 77.508,244.584 79.8413,245.918 80.5,250C 76.1814,269.02 76.8481,287.853 82.5,306.5 Z"/></g>
<g><path style="opacity:1" fill="#fa7d7d" d="M 264.5,289.5 C 266.394,292.939 268.56,296.272 271,299.5C 276.004,304.067 280.838,308.734 285.5,313.5C 271.703,326.128 258.036,338.962 244.5,352C 243.584,352.374 242.75,352.874 242,353.5C 241.601,353.272 241.435,352.938 241.5,352.5C 243.008,340.198 239.008,330.198 229.5,322.5C 240.838,311.162 252.505,300.162 264.5,289.5 Z"/></g>
<g><path style="opacity:1" fill="#fa5d7d" d="M 465.5,298.5 C 461.502,318.16 455.502,337.16 447.5,355.5C 446.883,355.389 446.383,355.056 446,354.5C 414.167,384.333 382.333,414.167 350.5,444C 346.893,447.098 343.893,450.598 341.5,454.5C 324.496,459.901 307.163,463.901 289.5,466.5C 289.369,465.761 289.536,465.094 290,464.5C 302.699,452.633 315.199,440.633 327.5,428.5C 372.676,419.993 400.676,393.326 411.5,348.5C 429.801,332.201 447.801,315.534 465.5,298.5 Z"/></g>
<g><path style="opacity:1" fill="#fa9675" d="M 82.5,306.5 C 84.9541,311.408 87.4541,316.408 90,321.5C 93.0983,325.383 95.9316,329.383 98.5,333.5C 81.7327,349.722 64.7327,365.722 47.5,381.5C 42.4812,369.426 39.4812,356.759 38.5,343.5C 39.2216,343.918 39.7216,344.584 40,345.5C 53.757,331.903 67.9237,318.903 82.5,306.5 Z"/></g>
<g><path style="opacity:1" fill="#fa767d" d="M 285.5,313.5 C 292.969,319.297 298.969,326.297 303.5,334.5C 299.06,337.763 294.727,341.263 290.5,345C 265.167,369 239.833,393 214.5,417C 215.056,417.383 215.389,417.883 215.5,418.5C 209.738,418.149 204.072,418.649 198.5,420C 196.876,421.117 195.876,422.617 195.5,424.5C 196.828,427.157 198.162,429.824 199.5,432.5C 187.676,442.926 176.009,453.593 164.5,464.5C 153.141,463.787 142.141,461.787 131.5,458.5C 161.47,430.531 191.136,402.198 220.5,373.5C 230.5,369.5 237.5,362.5 241.5,352.5C 241.435,352.938 241.601,353.272 242,353.5C 242.75,352.874 243.584,352.374 244.5,352C 258.036,338.962 271.703,326.128 285.5,313.5 Z"/></g>
<g><path style="opacity:1" fill="#fa8e76" d="M 135.5,336.5 C 110.87,359.295 86.3695,382.295 62,405.5C 62.1085,406.769 61.9418,407.769 61.5,408.5C 55.541,400.251 50.8743,391.251 47.5,381.5C 64.7327,365.722 81.7327,349.722 98.5,333.5C 104.527,338.857 110.86,343.857 117.5,348.5C 117.479,339.406 120.145,331.24 125.5,324C 128.025,323.104 130.192,323.604 132,325.5C 133.018,329.249 134.185,332.916 135.5,336.5 Z"/></g>
<g><path style="opacity:1" fill="#fa6f7d" d="M 303.5,334.5 C 308.118,341.509 311.285,349.175 313,357.5C 316.164,394.005 299.998,407.838 264.5,399C 263.083,401.743 263.416,404.243 265.5,406.5C 259.337,412.495 253.004,418.329 246.5,424C 243.223,426.766 240.557,429.933 238.5,433.5C 232.704,425.716 225.037,420.716 215.5,418.5C 215.389,417.883 215.056,417.383 214.5,417C 239.833,393 265.167,369 290.5,345C 294.727,341.263 299.06,337.763 303.5,334.5 Z"/></g>
<g><path style="opacity:1" fill="#fa8975" d="M 135.5,336.5 C 137.965,343.296 141.298,349.629 145.5,355.5C 121.423,376.738 97.7565,398.571 74.5,421C 73.8288,421.986 73.8288,423.153 74.5,424.5C 69.4393,419.771 65.106,414.438 61.5,408.5C 61.9418,407.769 62.1085,406.769 62,405.5C 86.3695,382.295 110.87,359.295 135.5,336.5 Z"/></g>
<g><path style="opacity:1" fill="#fa567d" d="M 447.5,355.5 C 425.823,403.025 390.49,436.025 341.5,454.5C 343.893,450.598 346.893,447.098 350.5,444C 382.333,414.167 414.167,384.333 446,354.5C 446.383,355.056 446.883,355.389 447.5,355.5 Z"/></g>
<g><path style="opacity:1" fill="#fa847c" d="M 145.5,355.5 C 153.723,364.375 163.723,370.375 175.5,373.5C 149.82,396.848 124.82,420.848 100.5,445.5C 90.6957,439.928 82.0291,432.928 74.5,424.5C 73.8288,423.153 73.8288,421.986 74.5,421C 97.7565,398.571 121.423,376.738 145.5,355.5 Z"/></g>
<g><path style="opacity:1" fill="#fa7d7c" d="M 175.5,373.5 C 190.507,378.539 205.507,378.539 220.5,373.5C 191.136,402.198 161.47,430.531 131.5,458.5C 120.408,455.916 110.074,451.582 100.5,445.5C 124.82,420.848 149.82,396.848 175.5,373.5 Z"/></g>
<g><path style="opacity:1" fill="#fa6a7d" d="M 265.5,406.5 C 271.691,413.697 279.025,419.364 287.5,423.5C 271.14,438.861 254.807,454.195 238.5,469.5C 226.462,469.772 214.462,469.438 202.5,468.5C 202.389,467.883 202.056,467.383 201.5,467C 209.364,459.967 217.031,452.8 224.5,445.5C 229.192,445.076 233.525,443.576 237.5,441C 239.837,438.806 240.17,436.306 238.5,433.5C 240.557,429.933 243.223,426.766 246.5,424C 253.004,418.329 259.337,412.495 265.5,406.5 Z"/></g>
<g><path style="opacity:1" fill="#faf8f8" d="M 215.5,418.5 C 225.037,420.716 232.704,425.716 238.5,433.5C 240.17,436.306 239.837,438.806 237.5,441C 233.525,443.576 229.192,445.076 224.5,445.5C 213.499,446.167 205.165,441.834 199.5,432.5C 198.162,429.824 196.828,427.157 195.5,424.5C 195.876,422.617 196.876,421.117 198.5,420C 204.072,418.649 209.738,418.149 215.5,418.5 Z"/></g>
<g><path style="opacity:1" fill="#fa647d" d="M 287.5,423.5 C 300.419,428.043 313.753,429.709 327.5,428.5C 315.199,440.633 302.699,452.633 290,464.5C 289.536,465.094 289.369,465.761 289.5,466.5C 272.573,468.66 255.573,469.66 238.5,469.5C 254.807,454.195 271.14,438.861 287.5,423.5 Z"/></g>
<g><path style="opacity:1" fill="#fa707d" d="M 199.5,432.5 C 205.165,441.834 213.499,446.167 224.5,445.5C 217.031,452.8 209.364,459.967 201.5,467C 202.056,467.383 202.389,467.883 202.5,468.5C 189.597,468.077 176.93,466.744 164.5,464.5C 176.009,453.593 187.676,442.926 199.5,432.5 Z"/></g>
</svg>
