<?xml version="1.0" encoding="UTF-8"?>
<!DOCTYPE svg PUBLIC "-//W3C//DTD SVG 1.1//EN" "http://www.w3.org/Graphics/SVG/1.1/DTD/svg11.dtd">
<svg xmlns="http://www.w3.org/2000/svg" version="1.1" width="512px" height="512px" style="shape-rendering:geometricPrecision; text-rendering:geometricPrecision; image-rendering:optimizeQuality; fill-rule:evenodd; clip-rule:evenodd" xmlns:xlink="http://www.w3.org/1999/xlink">
<g><path style="opacity:1" fill="#fada82" d="M 397.5,81.5 C 391.413,77.6801 385.913,73.0134 381,67.5C 380.517,66.552 380.351,65.552 380.5,64.5C 388.453,52.1018 396.786,39.9351 405.5,28C 417.429,26.3962 429.429,26.0629 441.5,27C 442.022,27.5613 442.355,28.228 442.5,29C 427.605,46.6463 412.605,64.1463 397.5,81.5 Z"/></g>
<g><path style="opacity:1" fill="#fae189" d="M 470.5,88.5 C 468.745,87.9278 467.078,87.0945 465.5,86C 458.429,79.0513 451.262,72.2179 444,65.5C 443.329,66.2524 442.496,66.5858 441.5,66.5C 454.575,54.9287 467.241,42.7621 479.5,30C 480.793,29.51 482.127,29.3433 483.5,29.5C 483.667,46.8365 483.5,64.1699 483,81.5C 479.663,85.2311 475.496,87.5644 470.5,88.5 Z"/></g>
<g><path style="opacity:1" fill="#a9c9fa" d="M 158.5,76.5 C 148.167,69.1667 137.833,61.8333 127.5,54.5C 127.511,52.9826 128.177,51.8159 129.5,51C 138.85,50.5786 148.183,50.9119 157.5,52C 159.01,53.3513 160.01,55.018 160.5,57C 159.504,63.4604 158.837,69.9604 158.5,76.5 Z"/></g>
<g><path style="opacity:1" fill="#facf71" d="M 356.5,36.5 C 364.765,34.9908 366.931,37.6575 363,44.5C 353.116,63.1126 341.616,80.6126 328.5,97C 327.207,97.49 325.873,97.6567 324.5,97.5C 325.891,80.7094 329.391,64.376 335,48.5C 340.681,41.745 347.848,37.745 356.5,36.5 Z"/></g>
<g><path style="opacity:1" fill="#a3bcfa" d="M 127.5,54.5 C 137.833,61.8333 148.167,69.1667 158.5,76.5C 158.218,79.9097 157.551,83.243 156.5,86.5C 144.51,86.5257 133.51,83.0257 123.5,76C 121.876,74.8829 120.876,73.3829 120.5,71.5C 122.569,65.6985 124.903,60.0318 127.5,54.5 Z"/></g>
<g><path style="opacity:1" fill="#fada7f" d="M 470.5,88.5 C 460.189,94.4645 449.855,100.464 439.5,106.5C 439.631,105.761 439.464,105.094 439,104.5C 432.304,98.6339 425.804,92.6339 419.5,86.5C 426.508,79.4925 433.842,72.8258 441.5,66.5C 442.496,66.5858 443.329,66.2524 444,65.5C 451.262,72.2179 458.429,79.0513 465.5,86C 467.078,87.0945 468.745,87.9278 470.5,88.5 Z"/></g>
<g><path style="opacity:1" fill="#facf71" d="M 380.5,64.5 C 380.351,65.552 380.517,66.552 381,67.5C 385.913,73.0134 391.413,77.6801 397.5,81.5C 387.159,96.1719 376.826,110.839 366.5,125.5C 361.398,119.059 355.398,113.726 348.5,109.5C 359.199,94.4766 369.866,79.4766 380.5,64.5 Z"/></g>
<g><path style="opacity:1" fill="#fad477" d="M 419.5,86.5 C 425.804,92.6339 432.304,98.6339 439,104.5C 439.464,105.094 439.631,105.761 439.5,106.5C 430.87,112.153 422.203,117.82 413.5,123.5C 407.161,118.16 400.828,112.827 394.5,107.5C 402.516,100.154 410.849,93.1535 419.5,86.5 Z"/></g>
<g><path style="opacity:1" fill="#a8c7f9" d="M 318.5,148.5 C 314.859,153.815 311.192,159.149 307.5,164.5C 302.833,169.833 298.167,175.167 293.5,180.5C 282.637,172.574 271.637,164.908 260.5,157.5C 249.833,147.167 239.167,136.833 228.5,126.5C 236.481,118.687 244.648,111.02 253,103.5C 275.803,117.144 297.636,132.144 318.5,148.5 Z"/></g>
<g><path style="opacity:1" fill="#face6f" d="M 394.5,107.5 C 400.828,112.827 407.161,118.16 413.5,123.5C 404.857,129.802 396.19,136.135 387.5,142.5C 380.6,137.941 374.267,132.608 368.5,126.5C 377.158,120.169 385.825,113.836 394.5,107.5 Z"/></g>
<g><path style="opacity:1" fill="#fac866" d="M 348.5,109.5 C 355.398,113.726 361.398,119.059 366.5,125.5C 365.496,127.677 366.162,128.011 368.5,126.5C 374.267,132.608 380.6,137.941 387.5,142.5C 377.191,150.469 366.857,158.469 356.5,166.5C 350.03,160.199 343.363,154.033 336.5,148C 332.893,144.902 329.893,141.402 327.5,137.5C 334.512,128.128 341.512,118.795 348.5,109.5 Z"/></g>
<g><path style="opacity:1" fill="#adcdf9" d="M 228.5,126.5 C 239.167,136.833 249.833,147.167 260.5,157.5C 259.504,157.586 258.671,157.252 258,156.5C 250.895,164.775 242.728,171.775 233.5,177.5C 224.044,166.88 213.71,157.047 202.5,148C 201.177,147.184 200.511,146.017 200.5,144.5C 210.119,138.868 219.453,132.868 228.5,126.5 Z"/></g>
<g><path style="opacity:1" fill="#facf71" d="M 462.5,119.5 C 465.734,119.237 467.068,120.737 466.5,124C 462.402,147.431 448.736,161.765 425.5,167C 412.055,170.611 398.388,172.778 384.5,173.5C 385.392,170.073 387.392,167.239 390.5,165C 412.402,146.547 436.402,131.38 462.5,119.5 Z"/></g>
<g><path style="opacity:1" fill="#aed3f9" d="M 200.5,144.5 C 200.511,146.017 201.177,147.184 202.5,148C 213.71,157.047 224.044,166.88 233.5,177.5C 224.154,184.339 213.82,189.339 202.5,192.5C 191.664,181.499 180.331,170.999 168.5,161C 167.748,160.329 167.414,159.496 167.5,158.5C 178.851,154.658 189.851,149.991 200.5,144.5 Z"/></g>
<g><path style="opacity:1" fill="#f9c05f" d="M 327.5,137.5 C 329.893,141.402 332.893,144.902 336.5,148C 343.363,154.033 350.03,160.199 356.5,166.5C 354.36,169.061 352.027,171.395 349.5,173.5C 343.917,176.747 338.917,180.747 334.5,185.5C 333.5,186.167 332.5,186.833 331.5,187.5C 324.207,179.209 316.207,171.542 307.5,164.5C 311.192,159.149 314.859,153.815 318.5,148.5C 321.739,145.017 324.739,141.35 327.5,137.5 Z"/></g>
<g><path style="opacity:1" fill="#6f75a7" d="M 260.5,157.5 C 271.637,164.908 282.637,172.574 293.5,180.5C 291.5,183.167 289.5,185.833 287.5,188.5C 281.599,194.645 275.932,200.978 270.5,207.5C 260.828,207.666 251.161,207.5 241.5,207C 237.833,202.667 234.167,198.333 230.5,194C 227.692,194.071 225.359,195.237 223.5,197.5C 231.697,208.535 233.53,220.535 229,233.5C 227.079,238.339 224.912,243.006 222.5,247.5C 221.733,248.172 221.066,249.005 220.5,250C 213.74,251.523 207.073,253.357 200.5,255.5C 199.079,259.027 198.412,262.694 198.5,266.5C 208.145,265.287 217.645,263.287 227,260.5C 229.708,260.867 232.208,261.534 234.5,262.5C 225.019,274.097 215.519,285.763 206,297.5C 205.517,298.448 205.351,299.448 205.5,300.5C 204.167,299.833 202.833,299.167 201.5,298.5C 192.241,292.581 183.241,286.247 174.5,279.5C 176.4,276.371 177.733,273.037 178.5,269.5C 182.044,261.865 184.378,253.865 185.5,245.5C 187.058,238.056 187.724,230.389 187.5,222.5C 187.809,213.741 187.142,205.075 185.5,196.5C 191.308,195.672 196.975,194.339 202.5,192.5C 213.82,189.339 224.154,184.339 233.5,177.5C 242.728,171.775 250.895,164.775 258,156.5C 258.671,157.252 259.504,157.586 260.5,157.5 Z"/></g>
<g><path style="opacity:1" fill="#b0daf9" d="M 167.5,158.5 C 167.414,159.496 167.748,160.329 168.5,161C 180.331,170.999 191.664,181.499 202.5,192.5C 196.975,194.339 191.308,195.672 185.5,196.5C 170.67,186.584 155.67,176.917 140.5,167.5C 140.5,166.833 140.5,166.167 140.5,165.5C 149.725,163.944 158.725,161.611 167.5,158.5 Z"/></g>
<g><path style="opacity:1" fill="#f9ba56" d="M 307.5,164.5 C 316.207,171.542 324.207,179.209 331.5,187.5C 326.792,191.843 322.125,196.176 317.5,200.5C 314.214,202.451 311.214,204.785 308.5,207.5C 301.195,201.53 294.195,195.197 287.5,188.5C 289.5,185.833 291.5,183.167 293.5,180.5C 298.167,175.167 302.833,169.833 307.5,164.5 Z"/></g>
<g><path style="opacity:1" fill="#7787e0" d="M 349.5,173.5 C 354.473,177.806 359.14,182.473 363.5,187.5C 357.146,192.342 350.479,196.675 343.5,200.5C 341.3,196.12 338.467,192.12 335,188.5C 334.517,187.552 334.351,186.552 334.5,185.5C 338.917,180.747 343.917,176.747 349.5,173.5 Z"/></g>
<g><path style="opacity:1" fill="#6d72a4" d="M 140.5,165.5 C 140.5,166.167 140.5,166.833 140.5,167.5C 142.237,175.729 143.237,184.062 143.5,192.5C 143.5,196.167 143.5,199.833 143.5,203.5C 133.861,201.168 124.194,199.835 114.5,199.5C 114.409,191.569 113.742,183.735 112.5,176C 121.635,172.01 130.968,168.51 140.5,165.5 Z"/></g>
<g><path style="opacity:1" fill="#daedf9" d="M 140.5,167.5 C 155.67,176.917 170.67,186.584 185.5,196.5C 187.142,205.075 187.809,213.741 187.5,222.5C 173.489,217.106 159.489,211.606 145.5,206C 144.858,201.399 144.191,196.899 143.5,192.5C 143.237,184.062 142.237,175.729 140.5,167.5 Z"/></g>
<g><path style="opacity:1" fill="#7e91df" d="M 334.5,185.5 C 334.351,186.552 334.517,187.552 335,188.5C 338.467,192.12 341.3,196.12 343.5,200.5C 339.194,204.321 334.527,207.655 329.5,210.5C 325.5,207.167 321.5,203.833 317.5,200.5C 322.125,196.176 326.792,191.843 331.5,187.5C 332.5,186.833 333.5,186.167 334.5,185.5 Z"/></g>
<g><path style="opacity:1" fill="#a7c7f9" d="M 363.5,187.5 C 380.939,207.917 391.773,231.584 396,258.5C 397.632,266.422 398.465,274.422 398.5,282.5C 381.37,267.207 364.37,251.707 347.5,236C 346.184,235.472 345.517,235.972 345.5,237.5C 344.833,236.5 344.167,235.5 343.5,234.5C 342.773,232.046 341.773,229.713 340.5,227.5C 337.581,221.594 333.915,216.26 329.5,211.5C 329.5,211.167 329.5,210.833 329.5,210.5C 334.527,207.655 339.194,204.321 343.5,200.5C 350.479,196.675 357.146,192.342 363.5,187.5 Z"/></g>
<g><path style="opacity:1" fill="#f8b44d" d="M 287.5,188.5 C 294.195,195.197 301.195,201.53 308.5,207.5C 300.86,214.806 293.193,222.139 285.5,229.5C 278.592,224.535 272.259,218.868 266.5,212.5C 267.833,210.833 269.167,209.167 270.5,207.5C 275.932,200.978 281.599,194.645 287.5,188.5 Z"/></g>
<g><path style="opacity:1" fill="#cce5f8" d="M 143.5,192.5 C 144.191,196.899 144.858,201.399 145.5,206C 159.489,211.606 173.489,217.106 187.5,222.5C 187.724,230.389 187.058,238.056 185.5,245.5C 171.715,239.607 157.715,234.274 143.5,229.5C 143.5,227.833 143.5,226.167 143.5,224.5C 143.5,217.5 143.5,210.5 143.5,203.5C 143.5,199.833 143.5,196.167 143.5,192.5 Z"/></g>
<g><path style="opacity:1" fill="#5d6395" d="M 329.5,211.5 C 333.915,216.26 337.581,221.594 340.5,227.5C 322.844,249.461 305.177,271.461 287.5,293.5C 286.539,291.735 286.205,289.735 286.5,287.5C 287.883,279.903 288.55,272.236 288.5,264.5C 288.725,257.365 288.225,250.365 287,243.5C 300.928,232.46 315.094,221.793 329.5,211.5 Z"/></g>
<g><path style="opacity:1" fill="#41476d" d="M 270.5,207.5 C 269.167,209.167 267.833,210.833 266.5,212.5C 258.866,220.303 251.366,228.303 244,236.5C 243.153,238.193 242.32,239.86 241.5,241.5C 235.151,243.506 228.818,245.506 222.5,247.5C 224.912,243.006 227.079,238.339 229,233.5C 233.53,220.535 231.697,208.535 223.5,197.5C 225.359,195.237 227.692,194.071 230.5,194C 234.167,198.333 237.833,202.667 241.5,207C 251.161,207.5 260.828,207.666 270.5,207.5 Z"/></g>
<g><path style="opacity:1" fill="#606698" d="M 143.5,203.5 C 143.5,210.5 143.5,217.5 143.5,224.5C 142.303,230.137 141.303,235.804 140.5,241.5C 140.5,240.167 140.5,238.833 140.5,237.5C 131.256,236.099 122.089,234.432 113,232.5C 112.722,233.416 112.222,234.082 111.5,234.5C 112.755,222.857 113.755,211.19 114.5,199.5C 124.194,199.835 133.861,201.168 143.5,203.5 Z"/></g>
<g><path style="opacity:1" fill="#f8ac45" d="M 266.5,212.5 C 272.259,218.868 278.592,224.535 285.5,229.5C 275.062,239.437 264.728,249.604 254.5,260C 246.683,261.866 242.517,258.7 242,250.5C 241.502,247.518 241.335,244.518 241.5,241.5C 242.32,239.86 243.153,238.193 244,236.5C 251.366,228.303 258.866,220.303 266.5,212.5 Z"/></g>
<g><path style="opacity:1" fill="#5b5d95" d="M 340.5,227.5 C 341.773,229.713 342.773,232.046 343.5,234.5C 327.182,255.48 310.516,276.147 293.5,296.5C 291.216,296.025 289.216,295.025 287.5,293.5C 305.177,271.461 322.844,249.461 340.5,227.5 Z"/></g>
<g><path style="opacity:1" fill="#3b4268" d="M 32.5,219.5 C 45.1612,220.222 57.8279,220.889 70.5,221.5C 69.6001,229.806 66.6001,237.306 61.5,244C 52.3652,246.294 43.1985,248.46 34,250.5C 32.1183,249.907 31.1183,248.573 31,246.5C 30.3333,238.5 30.3333,230.5 31,222.5C 31.5133,221.473 32.0133,220.473 32.5,219.5 Z"/></g>
<g><path style="opacity:1" fill="#c0e0f9" d="M 143.5,224.5 C 143.5,226.167 143.5,227.833 143.5,229.5C 157.715,234.274 171.715,239.607 185.5,245.5C 184.378,253.865 182.044,261.865 178.5,269.5C 166.164,265.109 153.83,260.609 141.5,256C 140.058,255.623 139.058,254.79 138.5,253.5C 138.952,249.454 139.619,245.454 140.5,241.5C 141.303,235.804 142.303,230.137 143.5,224.5 Z"/></g>
<g><path style="opacity:1" fill="#5e6396" d="M 457.5,234.5 C 461.799,237.643 465.299,241.643 468,246.5C 472.361,253.888 476.194,261.554 479.5,269.5C 467.885,271.252 456.219,272.085 444.5,272C 441.167,266.333 437.833,260.667 434.5,255C 440.771,246.561 448.437,239.727 457.5,234.5 Z"/></g>
<g><path style="opacity:1" fill="#383d64" d="M 317.5,200.5 C 321.5,203.833 325.5,207.167 329.5,210.5C 329.5,210.833 329.5,211.167 329.5,211.5C 315.094,221.793 300.928,232.46 287,243.5C 288.225,250.365 288.725,257.365 288.5,264.5C 281.255,266.387 274.255,268.721 267.5,271.5C 256.791,267.487 245.791,264.487 234.5,262.5C 232.208,261.534 229.708,260.867 227,260.5C 217.645,263.287 208.145,265.287 198.5,266.5C 198.412,262.694 199.079,259.027 200.5,255.5C 207.073,253.357 213.74,251.523 220.5,250C 221.066,249.005 221.733,248.172 222.5,247.5C 228.818,245.506 235.151,243.506 241.5,241.5C 241.335,244.518 241.502,247.518 242,250.5C 242.517,258.7 246.683,261.866 254.5,260C 264.728,249.604 275.062,239.437 285.5,229.5C 293.193,222.139 300.86,214.806 308.5,207.5C 311.214,204.785 314.214,202.451 317.5,200.5 Z"/></g>
<g><path style="opacity:1" fill="#adcdf9" d="M 398.5,282.5 C 399.665,296.105 399.665,309.772 398.5,323.5C 397.778,323.918 397.278,324.584 397,325.5C 382.296,311.959 367.463,298.626 352.5,285.5C 353.149,269.045 350.816,253.045 345.5,237.5C 345.517,235.972 346.184,235.472 347.5,236C 364.37,251.707 381.37,267.207 398.5,282.5 Z"/></g>
<g><path style="opacity:1" fill="#54598c" d="M 140.5,241.5 C 139.619,245.454 138.952,249.454 138.5,253.5C 137.215,258.54 135.548,263.54 133.5,268.5C 124.256,267.099 115.089,265.432 106,263.5C 105.722,264.416 105.222,265.082 104.5,265.5C 106.965,255.17 109.299,244.837 111.5,234.5C 112.222,234.082 112.722,233.416 113,232.5C 122.089,234.432 131.256,236.099 140.5,237.5C 140.5,238.833 140.5,240.167 140.5,241.5 Z"/></g>
<g><path style="opacity:1" fill="#b3d8f9" d="M 138.5,253.5 C 139.058,254.79 140.058,255.623 141.5,256C 153.83,260.609 166.164,265.109 178.5,269.5C 177.733,273.037 176.4,276.371 174.5,279.5C 183.241,286.247 192.241,292.581 201.5,298.5C 201.44,299.043 201.107,299.376 200.5,299.5C 178.023,290.258 155.356,281.592 132.5,273.5C 132.629,271.784 132.962,270.117 133.5,268.5C 135.548,263.54 137.215,258.54 138.5,253.5 Z"/></g>
<g><path style="opacity:1" fill="#2a3259" d="M 288.5,264.5 C 288.55,272.236 287.883,279.903 286.5,287.5C 281.501,288.833 276.501,290.166 271.5,291.5C 269.546,284.967 268.213,278.301 267.5,271.5C 274.255,268.721 281.255,266.387 288.5,264.5 Z"/></g>
<g><path style="opacity:1" fill="#545a8d" d="M 343.5,234.5 C 344.167,235.5 344.833,236.5 345.5,237.5C 350.816,253.045 353.149,269.045 352.5,285.5C 352.163,293.529 351.496,301.529 350.5,309.5C 340.96,315.126 330.96,319.792 320.5,323.5C 309.124,327.242 297.458,329.575 285.5,330.5C 279.158,330.666 272.825,330.5 266.5,330C 264.292,329.809 262.292,329.309 260.5,328.5C 264.877,321.609 269.877,315.109 275.5,309C 274.944,308.617 274.611,308.117 274.5,307.5C 284.702,310.532 295.035,312.698 305.5,314C 307.977,312.357 310.31,310.524 312.5,308.5C 306.127,304.439 299.793,300.439 293.5,296.5C 310.516,276.147 327.182,255.48 343.5,234.5 Z"/></g>
<g><path style="opacity:1" fill="#aed3f9" d="M 132.5,273.5 C 155.356,281.592 178.023,290.258 200.5,299.5C 201.107,299.376 201.44,299.043 201.5,298.5C 202.833,299.167 204.167,299.833 205.5,300.5C 217.443,308.145 229.776,315.312 242.5,322C 248.203,325.067 254.203,327.234 260.5,328.5C 262.292,329.309 264.292,329.809 266.5,330C 272.825,330.5 279.158,330.666 285.5,330.5C 285.369,331.376 285.702,332.043 286.5,332.5C 327.421,348.464 368.421,364.131 409.5,379.5C 404.214,383.262 398.214,385.262 391.5,385.5C 304.066,351.129 216.399,317.129 128.5,283.5C 129.321,279.873 130.654,276.54 132.5,273.5 Z"/></g>
<g><path style="opacity:1" fill="#616699" d="M 234.5,262.5 C 245.791,264.487 256.791,267.487 267.5,271.5C 268.213,278.301 269.546,284.967 271.5,291.5C 272.13,296.912 273.13,302.245 274.5,307.5C 274.611,308.117 274.944,308.617 275.5,309C 269.877,315.109 264.877,321.609 260.5,328.5C 254.203,327.234 248.203,325.067 242.5,322C 229.776,315.312 217.443,308.145 205.5,300.5C 205.351,299.448 205.517,298.448 206,297.5C 215.519,285.763 225.019,274.097 234.5,262.5 Z"/></g>
<g><path style="opacity:1" fill="#adcdf9" d="M 128.5,283.5 C 216.399,317.129 304.066,351.129 391.5,385.5C 381.725,387.251 371.725,387.917 361.5,387.5C 361.918,386.778 362.584,386.278 363.5,386C 284.167,355.333 204.833,324.667 125.5,294C 124.748,293.329 124.414,292.496 124.5,291.5C 125.326,288.515 126.659,285.849 128.5,283.5 Z"/></g>
<g><path style="opacity:1" fill="#474c80" d="M 133.5,268.5 C 132.962,270.117 132.629,271.784 132.5,273.5C 130.654,276.54 129.321,279.873 128.5,283.5C 126.659,285.849 125.326,288.515 124.5,291.5C 123.662,291.842 123.328,292.508 123.5,293.5C 111.833,298.167 100.167,302.833 88.5,307.5C 94.4472,293.648 99.7805,279.648 104.5,265.5C 105.222,265.082 105.722,264.416 106,263.5C 115.089,265.432 124.256,267.099 133.5,268.5 Z"/></g>
<g><path style="opacity:1" fill="#aed3f9" d="M 352.5,285.5 C 367.463,298.626 382.296,311.959 397,325.5C 397.278,324.584 397.778,323.918 398.5,323.5C 397.588,329.131 396.921,334.798 396.5,340.5C 381.184,330.192 365.851,319.859 350.5,309.5C 351.496,301.529 352.163,293.529 352.5,285.5 Z"/></g>
<g><path style="opacity:1" fill="#a7c7f9" d="M 124.5,291.5 C 124.414,292.496 124.748,293.329 125.5,294C 204.833,324.667 284.167,355.333 363.5,386C 362.584,386.278 361.918,386.778 361.5,387.5C 350.42,387.73 339.42,387.063 328.5,385.5C 326.194,385.007 323.861,384.674 321.5,384.5C 270.925,363.746 219.925,343.746 168.5,324.5C 157.567,318.229 146.901,311.562 136.5,304.5C 131.981,301.071 127.648,297.404 123.5,293.5C 123.328,292.508 123.662,291.842 124.5,291.5 Z"/></g>
<g><path style="opacity:1" fill="#6c71a3" d="M 123.5,293.5 C 127.648,297.404 131.981,301.071 136.5,304.5C 131.928,313.313 127.594,322.313 123.5,331.5C 111.622,323.734 99.9558,315.734 88.5,307.5C 100.167,302.833 111.833,298.167 123.5,293.5 Z"/></g>
<g><path style="opacity:1" fill="#21284f" d="M 286.5,287.5 C 286.205,289.735 286.539,291.735 287.5,293.5C 289.216,295.025 291.216,296.025 293.5,296.5C 299.793,300.439 306.127,304.439 312.5,308.5C 310.31,310.524 307.977,312.357 305.5,314C 295.035,312.698 284.702,310.532 274.5,307.5C 273.13,302.245 272.13,296.912 271.5,291.5C 276.501,290.166 281.501,288.833 286.5,287.5 Z"/></g>
<g><path style="opacity:1" fill="#606698" d="M 136.5,304.5 C 146.901,311.562 157.567,318.229 168.5,324.5C 169.306,325.728 170.306,326.728 171.5,327.5C 169.19,330.102 167.357,333.102 166,336.5C 163.205,342.417 160.705,348.417 158.5,354.5C 146.625,347.069 134.959,339.402 123.5,331.5C 127.594,322.313 131.928,313.313 136.5,304.5 Z"/></g>
<g><path style="opacity:1" fill="#bce0f9" d="M 350.5,309.5 C 365.851,319.859 381.184,330.192 396.5,340.5C 403.568,345.233 409.235,351.233 413.5,358.5C 413.157,360.225 412.157,360.725 410.5,360C 381.167,348.667 351.833,337.333 322.5,326C 321.244,325.583 320.577,324.75 320.5,323.5C 330.96,319.792 340.96,315.126 350.5,309.5 Z"/></g>
<g><path style="opacity:1" fill="#b3d9f9" d="M 320.5,323.5 C 320.577,324.75 321.244,325.583 322.5,326C 351.833,337.333 381.167,348.667 410.5,360C 412.157,360.725 413.157,360.225 413.5,358.5C 419.802,367.028 418.469,374.028 409.5,379.5C 368.421,364.131 327.421,348.464 286.5,332.5C 285.702,332.043 285.369,331.376 285.5,330.5C 297.458,329.575 309.124,327.242 320.5,323.5 Z"/></g>
<g><path style="opacity:1" fill="#a5bef7" d="M 168.5,324.5 C 219.925,343.746 270.925,363.746 321.5,384.5C 293.463,381.161 266.129,374.828 239.5,365.5C 227.508,359.17 215.508,352.837 203.5,346.5C 193.199,339.678 182.533,333.344 171.5,327.5C 170.306,326.728 169.306,325.728 168.5,324.5 Z"/></g>
<g><path style="opacity:1" fill="#54598c" d="M 171.5,327.5 C 182.533,333.344 193.199,339.678 203.5,346.5C 198.928,355.313 194.594,364.313 190.5,373.5C 179.531,367.682 168.864,361.348 158.5,354.5C 160.705,348.417 163.205,342.417 166,336.5C 167.357,333.102 169.19,330.102 171.5,327.5 Z"/></g>
<g><path style="opacity:1" fill="#474d80" d="M 203.5,346.5 C 215.508,352.837 227.508,359.17 239.5,365.5C 235.227,373.712 231.227,382.045 227.5,390.5C 214.101,386.933 201.768,381.266 190.5,373.5C 194.594,364.313 198.928,355.313 203.5,346.5 Z"/></g>
<g><path style="opacity:1" fill="#3e447d" d="M 239.5,365.5 C 266.129,374.828 293.463,381.161 321.5,384.5C 323.861,384.674 326.194,385.007 328.5,385.5C 295.495,398.975 261.828,400.642 227.5,390.5C 231.227,382.045 235.227,373.712 239.5,365.5 Z"/></g>
<g><path style="opacity:1" fill="#faa444" d="M 120.5,403.5 C 114.478,398.15 108.145,393.15 101.5,388.5C 107.905,379.254 114.905,370.421 122.5,362C 125.5,361.333 128.5,361.333 131.5,362C 136.167,365 140.833,368 145.5,371C 146.591,373.064 146.758,375.231 146,377.5C 137.27,386.062 128.77,394.728 120.5,403.5 Z"/></g>
<g><path style="opacity:1" fill="#515689" d="M 173.5,397.5 C 175.167,397.5 176.833,397.5 178.5,397.5C 179.267,404.699 180.267,411.866 181.5,419C 181.265,419.873 180.931,420.707 180.5,421.5C 151.218,421.428 148.885,413.428 173.5,397.5 Z"/></g>
<g><path style="opacity:1" fill="#fa9843" d="M 101.5,388.5 C 108.145,393.15 114.478,398.15 120.5,403.5C 111.127,413.538 102.127,423.871 93.5,434.5C 92.0783,434.291 90.745,433.791 89.5,433C 84.8303,428.673 79.8303,424.84 74.5,421.5C 83.1518,410.185 92.1518,399.185 101.5,388.5 Z"/></g>
<g><path style="opacity:1" fill="#aecffa" d="M 364.5,418.5 C 356.406,416.81 348.406,414.81 340.5,412.5C 340.472,410.418 341.139,408.584 342.5,407C 350.597,406.346 358.597,407.013 366.5,409C 367.022,409.561 367.355,410.228 367.5,411C 366.349,413.465 365.349,415.965 364.5,418.5 Z"/></g>
<g><path style="opacity:1" fill="#a8c4fa" d="M 340.5,412.5 C 348.406,414.81 356.406,416.81 364.5,418.5C 362.74,421.689 361.24,425.022 360,428.5C 359.275,429.059 358.442,429.392 357.5,429.5C 351.118,427.988 344.785,426.321 338.5,424.5C 337.66,420.32 338.327,416.32 340.5,412.5 Z"/></g>
<g><path style="opacity:1" fill="#fa903e" d="M 74.5,421.5 C 79.8303,424.84 84.8303,428.673 89.5,433C 90.745,433.791 92.0783,434.291 93.5,434.5C 90.3894,437.876 87.3894,441.376 84.5,445C 100.463,446.498 116.463,447.665 132.5,448.5C 134.941,448.536 136.941,449.369 138.5,451C 127.178,458.837 114.845,464.67 101.5,468.5C 100.091,466.583 98.424,464.75 96.5,463C 85.2127,454.714 74.2127,446.048 63.5,437C 62.552,436.517 61.552,436.351 60.5,436.5C 65.1947,431.474 69.8613,426.474 74.5,421.5 Z"/></g>
<g><path style="opacity:1" fill="#fa893e" d="M 60.5,436.5 C 61.552,436.351 62.552,436.517 63.5,437C 74.2127,446.048 85.2127,454.714 96.5,463C 98.424,464.75 100.091,466.583 101.5,468.5C 94.0414,471.281 86.3748,473.281 78.5,474.5C 65.0162,463.26 51.3495,452.26 37.5,441.5C 40.1663,432.335 43.333,423.335 47,414.5C 48.3117,412.342 49.9783,412.009 52,413.5C 53.4931,422.302 55.4931,430.968 58,439.5C 58.8518,438.429 59.6851,437.429 60.5,436.5 Z"/></g>
<g><path style="opacity:1" fill="#fa833e" d="M 37.5,441.5 C 51.3495,452.26 65.0162,463.26 78.5,474.5C 62.1647,479.445 45.498,482.445 28.5,483.5C 27.4726,479.495 27.6393,475.495 29,471.5C 31.5298,461.376 34.3632,451.376 37.5,441.5 Z"/></g>
</svg>
