<?xml version="1.0" encoding="UTF-8"?>
<!DOCTYPE svg PUBLIC "-//W3C//DTD SVG 1.1//EN" "http://www.w3.org/Graphics/SVG/1.1/DTD/svg11.dtd">
<svg xmlns="http://www.w3.org/2000/svg" version="1.1" width="512px" height="512px" style="shape-rendering:geometricPrecision; text-rendering:geometricPrecision; image-rendering:optimizeQuality; fill-rule:evenodd; clip-rule:evenodd" xmlns:xlink="http://www.w3.org/1999/xlink">
<g><path style="opacity:1" fill="#39384b" d="M 254.5,25.5 C 260.88,28.124 266.38,32.124 271,37.5C 276.085,43.9971 280.418,50.9971 284,58.5C 284.333,155.833 284.667,253.167 285,350.5C 296.761,345.042 307.595,338.208 317.5,330C 321.345,326.562 325.011,326.729 328.5,330.5C 338.591,311.872 340.091,292.539 333,272.5C 329.038,264.064 324.204,256.231 318.5,249C 338.851,212.313 366.518,182.313 401.5,159C 427.416,142.139 455.749,132.473 486.5,130C 488.91,130.758 489.91,132.425 489.5,135C 487.837,140.143 485.003,144.643 481,148.5C 445.562,199.899 447.229,249.899 486,298.5C 488.269,302.714 487.769,306.547 484.5,310C 434.852,322.657 406.685,354.49 400,405.5C 399.126,414.484 398.459,423.484 398,432.5C 395.398,436.212 391.898,437.378 387.5,436C 351.124,418.068 313.79,415.402 275.5,428C 274.804,432.134 274.137,436.3 273.5,440.5C 285.509,449.89 287.676,461.223 280,474.5C 265.706,487.257 250.54,488.424 234.5,478C 225.271,468.429 224.105,457.929 231,446.5C 233.043,444.288 235.209,442.288 237.5,440.5C 236.858,435.635 236.192,430.801 235.5,426C 196.801,413.942 159.468,417.276 123.5,436C 119.058,437.378 115.558,436.212 113,432.5C 113.765,402.884 106.431,375.551 91,350.5C 75.1794,329.659 54.346,316.492 28.5,311C 23.4648,307.987 22.2981,303.82 25,298.5C 60.8935,254.999 64.8935,208.666 37,159.5C 32.2454,152.324 27.2454,145.324 22,138.5C 21.3333,136.167 21.3333,133.833 22,131.5C 25.2559,129.571 28.7559,129.071 32.5,130C 79.3659,138.26 119.199,159.426 152,193.5C 168.084,210.19 181.584,228.69 192.5,249C 187.631,255.898 183.131,263.064 179,270.5C 170.667,291.168 172,311.168 183,330.5C 184.737,328.375 186.904,327.542 189.5,328C 196.559,333.391 203.893,338.391 211.5,343C 216.299,345.735 221.299,347.902 226.5,349.5C 226.333,252.833 226.5,156.166 227,59.5C 232.772,45.2474 241.938,33.914 254.5,25.5 Z"/></g>
<g><path style="opacity:1" fill="#eaf2f9" d="M 256.5,38.5 C 264.13,45.0866 269.796,53.0866 273.5,62.5C 273.5,80.5 273.5,98.5 273.5,116.5C 267.819,116.635 262.152,116.968 256.5,117.5C 256.817,113.298 256.483,109.298 255.5,105.5C 255.169,82.9938 255.503,60.6604 256.5,38.5 Z"/></g>
<g><path style="opacity:1" fill="#aebdee" d="M 256.5,38.5 C 255.503,60.6604 255.169,82.9938 255.5,105.5C 255.5,112.833 255.5,120.167 255.5,127.5C 249.5,127.5 243.5,127.5 237.5,127.5C 237.5,105.833 237.5,84.1667 237.5,62.5C 241.287,52.5989 247.287,44.2656 255.5,37.5C 256.107,37.6236 256.44,37.9569 256.5,38.5 Z"/></g>
<g><path style="opacity:1" fill="#e2edf9" d="M 255.5,105.5 C 256.483,109.298 256.817,113.298 256.5,117.5C 262.152,116.968 267.819,116.635 273.5,116.5C 273.5,132.5 273.5,148.5 273.5,164.5C 267.925,164.899 262.425,165.566 257,166.5C 256.827,160.652 256.327,154.985 255.5,149.5C 255.5,142.167 255.5,134.833 255.5,127.5C 255.5,120.167 255.5,112.833 255.5,105.5 Z"/></g>
<g><path style="opacity:1" fill="#f88aa4" d="M 126.5,185.5 C 104.673,186.497 82.673,186.831 60.5,186.5C 55.4533,171.073 48.2866,156.74 39,143.5C 38.3123,142.668 38.479,142.002 39.5,141.5C 72.3144,149.073 101.314,163.739 126.5,185.5 Z"/></g>
<g><path style="opacity:1" fill="#f88aa4" d="M 449.5,188.5 C 427.006,187.503 404.339,187.169 381.5,187.5C 407.753,164.207 438.087,149.207 472.5,142.5C 462.673,156.82 455.006,172.154 449.5,188.5 Z"/></g>
<g><path style="opacity:1" fill="#a0b0e3" d="M 237.5,127.5 C 243.5,127.5 249.5,127.5 255.5,127.5C 255.5,134.833 255.5,142.167 255.5,149.5C 255.5,164.833 255.5,180.167 255.5,195.5C 249.529,196.241 243.529,196.575 237.5,196.5C 237.5,173.5 237.5,150.5 237.5,127.5 Z"/></g>
<g><path style="opacity:1" fill="#dce7f9" d="M 255.5,149.5 C 256.327,154.985 256.827,160.652 257,166.5C 262.425,165.566 267.925,164.899 273.5,164.5C 273.5,180.833 273.5,197.167 273.5,213.5C 267.811,213.532 262.145,213.866 256.5,214.5C 256.806,211.615 256.473,208.948 255.5,206.5C 255.5,202.833 255.5,199.167 255.5,195.5C 255.5,180.167 255.5,164.833 255.5,149.5 Z"/></g>
<g><path style="opacity:1" fill="#f982a0" d="M 126.5,185.5 C 132.849,190.185 138.516,195.518 143.5,201.5C 117.339,202.498 91.0053,202.831 64.5,202.5C 63.483,197.099 62.1497,191.765 60.5,186.5C 82.673,186.831 104.673,186.497 126.5,185.5 Z"/></g>
<g><path style="opacity:1" fill="#f982a0" d="M 381.5,187.5 C 404.339,187.169 427.006,187.503 449.5,188.5C 448.285,193.791 447.285,199.124 446.5,204.5C 419.328,204.831 392.328,204.498 365.5,203.5C 370.446,197.887 375.779,192.554 381.5,187.5 Z"/></g>
<g><path style="opacity:1" fill="#f97c9b" d="M 143.5,201.5 C 150.914,207.578 157.247,214.578 162.5,222.5C 130.5,222.5 98.5,222.5 66.5,222.5C 66.8016,225.059 66.4682,227.393 65.5,229.5C 65.7159,220.467 65.3825,211.467 64.5,202.5C 91.0053,202.831 117.339,202.498 143.5,201.5 Z"/></g>
<g><path style="opacity:1" fill="#f97c9b" d="M 365.5,203.5 C 392.328,204.498 419.328,204.831 446.5,204.5C 445.531,212.748 445.198,221.082 445.5,229.5C 444.539,227.735 444.205,225.735 444.5,223.5C 412.167,223.5 379.833,223.5 347.5,223.5C 353.041,216.415 359.041,209.748 365.5,203.5 Z"/></g>
<g><path style="opacity:1" fill="#96a5d9" d="M 255.5,195.5 C 255.5,199.167 255.5,202.833 255.5,206.5C 255.5,224.167 255.5,241.833 255.5,259.5C 249.441,259.254 243.441,259.587 237.5,260.5C 237.5,239.167 237.5,217.833 237.5,196.5C 243.529,196.575 249.529,196.241 255.5,195.5 Z"/></g>
<g><path style="opacity:1" fill="#f77595" d="M 162.5,222.5 C 166.94,227.278 170.607,232.612 173.5,238.5C 137.094,238.174 100.761,238.507 64.5,239.5C 65.0508,236.193 65.3841,232.86 65.5,229.5C 66.4682,227.393 66.8016,225.059 66.5,222.5C 98.5,222.5 130.5,222.5 162.5,222.5 Z"/></g>
<g><path style="opacity:1" fill="#f77595" d="M 347.5,223.5 C 379.833,223.5 412.167,223.5 444.5,223.5C 444.205,225.735 444.539,227.735 445.5,229.5C 445.942,233.154 446.276,236.821 446.5,240.5C 409.5,240.5 372.5,240.5 335.5,240.5C 339.254,234.658 343.254,228.991 347.5,223.5 Z"/></g>
<g><path style="opacity:1" fill="#d5e1f9" d="M 255.5,206.5 C 256.473,208.948 256.806,211.615 256.5,214.5C 262.145,213.866 267.811,213.532 273.5,213.5C 273.5,232.167 273.5,250.833 273.5,269.5C 267.925,269.899 262.425,270.566 257,271.5C 256.817,268.635 256.317,265.969 255.5,263.5C 255.5,262.167 255.5,260.833 255.5,259.5C 255.5,241.833 255.5,224.167 255.5,206.5 Z"/></g>
<g><path style="opacity:1" fill="#f06c8e" d="M 173.5,238.5 C 176.303,241.417 178.637,244.75 180.5,248.5C 174.784,255.939 170.117,263.939 166.5,272.5C 145.34,271.503 124.007,271.169 102.5,271.5C 119.231,264.477 136.564,258.977 154.5,255C 158.87,253.022 159.536,250.189 156.5,246.5C 154.232,245.456 151.899,245.289 149.5,246C 114.351,254.215 81.0178,267.048 49.5,284.5C 49.1667,284.333 48.8333,284.167 48.5,284C 56.5298,270.113 61.8631,255.28 64.5,239.5C 100.761,238.507 137.094,238.174 173.5,238.5 Z"/></g>
<g><path style="opacity:1" fill="#f06c8f" d="M 335.5,240.5 C 372.5,240.5 409.5,240.5 446.5,240.5C 449.414,255.839 454.747,270.339 462.5,284C 445.514,275.847 428.181,268.18 410.5,261C 396.94,256.258 383.274,251.924 369.5,248C 364.614,246.255 359.614,245.588 354.5,246C 351.595,249.374 351.928,252.374 355.5,255C 370.918,258.433 385.918,262.933 400.5,268.5C 381.326,268.17 362.326,268.503 343.5,269.5C 340.254,261.737 335.921,254.57 330.5,248C 332.301,245.557 333.968,243.057 335.5,240.5 Z"/></g>
<g><path style="opacity:1" fill="#c9d4f2" d="M 273.5,62.5 C 274.499,148.332 274.833,234.332 274.5,320.5C 274.167,320.5 273.833,320.5 273.5,320.5C 267.697,323.101 261.697,325.101 255.5,326.5C 255.5,305.5 255.5,284.5 255.5,263.5C 256.317,265.969 256.817,268.635 257,271.5C 262.425,270.566 267.925,269.899 273.5,269.5C 273.5,250.833 273.5,232.167 273.5,213.5C 273.5,197.167 273.5,180.833 273.5,164.5C 273.5,148.5 273.5,132.5 273.5,116.5C 273.5,98.5 273.5,80.5 273.5,62.5 Z"/></g>
<g><path style="opacity:1" fill="#f26388" d="M 102.5,271.5 C 124.007,271.169 145.34,271.503 166.5,272.5C 165.153,278.864 163.819,285.197 162.5,291.5C 127.833,291.5 93.1667,291.5 58.5,291.5C 72.3947,283.221 87.0614,276.554 102.5,271.5 Z"/></g>
<g><path style="opacity:1" fill="#f16487" d="M 400.5,268.5 C 419.098,274.636 436.764,282.636 453.5,292.5C 418.5,292.5 383.5,292.5 348.5,292.5C 348.813,296.042 348.479,299.375 347.5,302.5C 348.329,291.195 346.996,280.195 343.5,269.5C 362.326,268.503 381.326,268.17 400.5,268.5 Z"/></g>
<g><path style="opacity:1" fill="#8997ce" d="M 255.5,259.5 C 255.5,260.833 255.5,262.167 255.5,263.5C 255.5,284.5 255.5,305.5 255.5,326.5C 261.697,325.101 267.697,323.101 273.5,320.5C 273.5,322.833 273.5,325.167 273.5,327.5C 261.5,327.833 249.5,328.167 237.5,328.5C 237.5,305.833 237.5,283.167 237.5,260.5C 243.441,259.587 249.441,259.254 255.5,259.5 Z"/></g>
<g><path style="opacity:1" fill="#ef5a81" d="M 58.5,291.5 C 93.1667,291.5 127.833,291.5 162.5,291.5C 162.365,303.225 164.365,314.558 168.5,325.5C 139.736,324.172 111.069,324.172 82.5,325.5C 69.4873,315.492 55.154,307.825 39.5,302.5C 45.7247,298.557 52.058,294.891 58.5,291.5 Z"/></g>
<g><path style="opacity:1" fill="#ef5a81" d="M 453.5,292.5 C 459.768,295.302 465.768,298.635 471.5,302.5C 455.305,307.926 440.639,315.926 427.5,326.5C 399.264,325.172 370.931,325.172 342.5,326.5C 345.409,318.769 347.076,310.769 347.5,302.5C 348.479,299.375 348.813,296.042 348.5,292.5C 383.5,292.5 418.5,292.5 453.5,292.5 Z"/></g>
<g><path style="opacity:1" fill="#eb507c" d="M 168.5,325.5 C 170.438,329.043 172.105,332.71 173.5,336.5C 146.995,336.169 120.661,336.502 94.5,337.5C 90.1667,333.833 86.1667,329.833 82.5,325.5C 111.069,324.172 139.736,324.172 168.5,325.5 Z"/></g>
<g><path style="opacity:1" fill="#ec507c" d="M 427.5,326.5 C 423.833,330.833 419.833,334.833 415.5,338.5C 389.672,337.502 363.672,337.169 337.5,337.5C 338.973,333.749 340.64,330.083 342.5,326.5C 370.931,325.172 399.264,325.172 427.5,326.5 Z"/></g>
<g><path style="opacity:1" fill="#7f8cc2" d="M 237.5,62.5 C 237.5,84.1667 237.5,105.833 237.5,127.5C 237.5,150.5 237.5,173.5 237.5,196.5C 237.5,217.833 237.5,239.167 237.5,260.5C 237.5,283.167 237.5,305.833 237.5,328.5C 249.5,328.167 261.5,327.833 273.5,327.5C 273.5,325.167 273.5,322.833 273.5,320.5C 273.833,320.5 274.167,320.5 274.5,320.5C 274.832,331.853 274.499,343.186 273.5,354.5C 267.45,356.004 261.283,356.67 255,356.5C 249.038,356.697 243.205,356.03 237.5,354.5C 236.168,257.001 236.168,159.668 237.5,62.5 Z"/></g>
<g><path style="opacity:1" fill="#ec4c75" d="M 173.5,336.5 C 175.166,338.187 176.5,340.187 177.5,342.5C 175.637,344.893 174.304,347.56 173.5,350.5C 174.448,353.423 175.781,356.089 177.5,358.5C 154.402,357.174 131.402,357.174 108.5,358.5C 104.095,351.365 99.4279,344.365 94.5,337.5C 120.661,336.502 146.995,336.169 173.5,336.5 Z"/></g>
<g><path style="opacity:1" fill="#ec4c75" d="M 337.5,337.5 C 363.672,337.169 389.672,337.502 415.5,338.5C 410.404,345.588 405.738,352.922 401.5,360.5C 385.5,359.167 369.5,359.167 353.5,360.5C 348.265,358.14 345.598,359.806 345.5,365.5C 344.566,364.432 344.232,363.099 344.5,361.5C 339.833,361.5 335.167,361.5 330.5,361.5C 333.147,358.883 335.314,355.883 337,352.5C 337.242,349.12 336.408,345.954 334.5,343C 335.632,341.235 336.632,339.402 337.5,337.5 Z"/></g>
<g><path style="opacity:1" fill="#f5bb7c" d="M 215.5,357.5 C 214.504,357.414 213.671,357.748 213,358.5C 210.344,362.144 208.511,366.144 207.5,370.5C 198.592,365.944 191.092,359.611 185,351.5C 185.631,347.894 187.131,344.561 189.5,341.5C 197.942,347.291 206.609,352.625 215.5,357.5 Z"/></g>
<g><path style="opacity:1" fill="#f07762" d="M 303.5,370.5 C 301.546,365.564 298.879,361.231 295.5,357.5C 304.357,352.817 312.857,347.484 321,341.5C 323.78,344.392 325.446,347.726 326,351.5C 319.908,359.611 312.408,365.944 303.5,370.5 Z"/></g>
<g><path style="opacity:1" fill="#e9436e" d="M 401.5,360.5 C 395.122,375.546 390.956,391.212 389,407.5C 379.588,390.011 367.754,374.344 353.5,360.5C 369.5,359.167 385.5,359.167 401.5,360.5 Z"/></g>
<g><path style="opacity:1" fill="#f7c995" d="M 215.5,357.5 C 221.06,359.779 226.726,361.779 232.5,363.5C 230.446,367.939 228.113,372.272 225.5,376.5C 224.675,377.386 223.675,377.719 222.5,377.5C 216.808,376.486 211.808,374.152 207.5,370.5C 208.511,366.144 210.344,362.144 213,358.5C 213.671,357.748 214.504,357.414 215.5,357.5 Z"/></g>
<g><path style="opacity:1" fill="#ee674a" d="M 295.5,357.5 C 298.879,361.231 301.546,365.564 303.5,370.5C 293.444,376.854 282.444,380.854 270.5,382.5C 268.618,377.735 266.452,373.068 264,368.5C 261.281,367.556 258.448,367.223 255.5,367.5C 255.5,367.167 255.5,366.833 255.5,366.5C 269.489,366.392 282.822,363.392 295.5,357.5 Z"/></g>
<g><path style="opacity:1" fill="#f6d3aa" d="M 232.5,363.5 C 239.915,366.056 247.582,367.056 255.5,366.5C 255.5,366.833 255.5,367.167 255.5,367.5C 255.5,373.167 255.5,378.833 255.5,384.5C 243.905,384.399 232.905,382.066 222.5,377.5C 223.675,377.719 224.675,377.386 225.5,376.5C 228.113,372.272 230.446,367.939 232.5,363.5 Z"/></g>
<g><path style="opacity:1" fill="#ec5c38" d="M 255.5,367.5 C 258.448,367.223 261.281,367.556 264,368.5C 266.452,373.068 268.618,377.735 270.5,382.5C 265.58,383.455 260.58,384.122 255.5,384.5C 255.5,378.833 255.5,373.167 255.5,367.5 Z"/></g>
<g><path style="opacity:1" fill="#e63f6b" d="M 177.5,358.5 C 191.052,374.454 208.052,385.121 228.5,390.5C 231.92,398.103 233.92,406.103 234.5,414.5C 197.814,404.251 162.147,406.918 127.5,422.5C 135.389,401.505 147.889,383.171 165,367.5C 166.668,361.507 164.502,359.007 158.5,360C 143.652,373.838 131.486,389.672 122,407.5C 120.086,390.419 115.586,374.086 108.5,358.5C 131.402,357.174 154.402,357.174 177.5,358.5 Z"/></g>
<g><path style="opacity:1" fill="#e53e6a" d="M 330.5,361.5 C 335.167,361.5 339.833,361.5 344.5,361.5C 344.232,363.099 344.566,364.432 345.5,365.5C 353.519,374.023 361.019,383.023 368,392.5C 374.148,401.961 379.648,411.795 384.5,422C 369.702,416.466 354.369,412.466 338.5,410C 317.505,408 297.005,410.166 277,416.5C 276.756,407.885 278.256,399.551 281.5,391.5C 296.074,387.046 309.408,380.213 321.5,371C 324.704,367.964 327.704,364.797 330.5,361.5 Z"/></g>
<g><path style="opacity:1" fill="#7575a1" d="M 265.5,416.5 C 258.833,416.5 252.167,416.5 245.5,416.5C 244.476,409.022 242.809,401.688 240.5,394.5C 241.333,394.167 242.167,393.833 243,393.5C 252.164,394.499 261.331,394.666 270.5,394C 268.532,401.412 266.865,408.912 265.5,416.5 Z"/></g>
<g><path style="opacity:1" fill="#666694" d="M 245.5,416.5 C 252.167,416.5 258.833,416.5 265.5,416.5C 265.038,423.583 264.038,430.583 262.5,437.5C 257.565,436.552 252.565,436.219 247.5,436.5C 246.893,429.825 246.227,423.158 245.5,416.5 Z"/></g>
<g><path style="opacity:1" fill="#f6c999" d="M 271.5,453.5 C 260.52,457.599 249.853,462.265 239.5,467.5C 234.745,458.787 237.079,452.287 246.5,448C 253.29,445.86 259.956,446.193 266.5,449C 268.618,450.049 270.284,451.549 271.5,453.5 Z"/></g>
<g><path style="opacity:1" fill="#f6c085" d="M 271.5,453.5 C 275.93,461.074 274.264,467.241 266.5,472C 259.14,475.277 251.806,475.277 244.5,472C 242.382,470.951 240.716,469.451 239.5,467.5C 249.853,462.265 260.52,457.599 271.5,453.5 Z"/></g>
</svg>
