<?xml version="1.0" encoding="UTF-8"?>
<!DOCTYPE svg PUBLIC "-//W3C//DTD SVG 1.1//EN" "http://www.w3.org/Graphics/SVG/1.1/DTD/svg11.dtd">
<svg xmlns="http://www.w3.org/2000/svg" version="1.1" width="512px" height="512px" style="shape-rendering:geometricPrecision; text-rendering:geometricPrecision; image-rendering:optimizeQuality; fill-rule:evenodd; clip-rule:evenodd" xmlns:xlink="http://www.w3.org/1999/xlink">
<g><path style="opacity:1" fill="#6970c8" d="M 269.5,100.5 C 261.001,92.8358 252.334,85.3358 243.5,78C 241.859,76.871 240.859,75.371 240.5,73.5C 262.887,65.3702 285.22,57.0369 307.5,48.5C 308.521,49.0016 308.688,49.6683 308,50.5C 295.303,67.352 282.47,84.0186 269.5,100.5 Z"/></g>
<g><path style="opacity:1" fill="#a7c4f9" d="M 446.5,47.5 C 430.5,63.5 414.5,79.5 398.5,95.5C 395.229,92.1881 391.229,89.8548 386.5,88.5C 406.486,74.0298 426.653,59.6964 447,45.5C 447.692,46.4368 447.525,47.1034 446.5,47.5 Z"/></g>
<g><path style="opacity:1" fill="#6975c7" d="M 240.5,73.5 C 240.859,75.371 241.859,76.871 243.5,78C 252.334,85.3358 261.001,92.8358 269.5,100.5C 264.578,107.936 259.411,115.269 254,122.5C 252.736,124.607 250.903,125.607 248.5,125.5C 237.443,114.143 225.776,103.476 213.5,93.5C 214.535,89.5609 215.869,85.7275 217.5,82C 225.234,79.2565 232.9,76.4232 240.5,73.5 Z"/></g>
<g><path style="opacity:1" fill="#707ccd" d="M 148.5,116.5 C 134.814,104.818 120.814,93.4845 106.5,82.5C 122.334,77.6711 138.334,73.0044 154.5,68.5C 155.666,82.8217 155.833,97.1551 155,111.5C 152.713,113.054 150.546,114.721 148.5,116.5 Z"/></g>
<g><path style="opacity:1" fill="#6e76cd" d="M 446.5,47.5 C 434.591,70.9897 421.925,93.9897 408.5,116.5C 402.525,112.519 396.858,108.186 391.5,103.5C 393.833,100.833 396.167,98.1667 398.5,95.5C 414.5,79.5 430.5,63.5 446.5,47.5 Z"/></g>
<g><path style="opacity:1" fill="#757dd4" d="M 106.5,82.5 C 120.814,93.4845 134.814,104.818 148.5,116.5C 142.167,121.167 135.833,125.833 129.5,130.5C 119.343,120.527 108.343,111.36 96.5,103C 94.8588,101.871 93.8588,100.371 93.5,98.5C 95.2951,93.5765 97.6284,88.9099 100.5,84.5C 102.304,83.2319 104.304,82.5652 106.5,82.5 Z"/></g>
<g><path style="opacity:1" fill="#aed1f9" d="M 386.5,88.5 C 391.229,89.8548 395.229,92.1881 398.5,95.5C 396.167,98.1667 393.833,100.833 391.5,103.5C 383.86,111.806 375.86,119.806 367.5,127.5C 367.631,126.624 367.298,125.957 366.5,125.5C 360.038,121.934 353.371,118.934 346.5,116.5C 359.475,106.677 372.808,97.3437 386.5,88.5 Z"/></g>
<g><path style="opacity:1" fill="#6e75cd" d="M 213.5,93.5 C 225.776,103.476 237.443,114.143 248.5,125.5C 233.175,127.767 217.841,129.1 202.5,129.5C 206.171,117.488 209.838,105.488 213.5,93.5 Z"/></g>
<g><path style="opacity:1" fill="#7c85d7" d="M 93.5,98.5 C 93.8588,100.371 94.8588,101.871 96.5,103C 108.343,111.36 119.343,120.527 129.5,130.5C 102.235,150.812 74.9012,171.146 47.5,191.5C 47.1667,191.167 46.8333,190.833 46.5,190.5C 62.1965,159.772 77.8632,129.106 93.5,98.5 Z"/></g>
<g><path style="opacity:1" fill="#b4d9f9" d="M 346.5,116.5 C 353.371,118.934 360.038,121.934 366.5,125.5C 367.298,125.957 367.631,126.624 367.5,127.5C 358.799,136.199 350.466,145.199 342.5,154.5C 342.167,154.5 341.833,154.5 341.5,154.5C 332.167,149.5 322.833,144.5 313.5,139.5C 324.201,131.476 335.201,123.81 346.5,116.5 Z"/></g>
<g><path style="opacity:1" fill="#747dd2" d="M 391.5,103.5 C 396.858,108.186 402.525,112.519 408.5,116.5C 397.671,137.495 386.338,158.162 374.5,178.5C 363.833,170.5 353.167,162.5 342.5,154.5C 350.466,145.199 358.799,136.199 367.5,127.5C 375.86,119.806 383.86,111.806 391.5,103.5 Z"/></g>
<g><path style="opacity:1" fill="#696fc8" d="M 448.5,190.5 C 447.448,190.649 446.448,190.483 445.5,190C 434.588,182.39 423.921,174.556 413.5,166.5C 429.852,154.834 446.519,143.501 463.5,132.5C 463.833,132.833 464.167,133.167 464.5,133.5C 458.756,152.397 453.423,171.397 448.5,190.5 Z"/></g>
<g><path style="opacity:1" fill="#c0e0f9" d="M 313.5,139.5 C 322.833,144.5 332.167,149.5 341.5,154.5C 331.8,164.199 322.466,174.199 313.5,184.5C 310.5,187.167 307.5,189.833 304.5,192.5C 292.535,184.847 279.868,178.18 266.5,172.5C 281.867,161.143 297.533,150.143 313.5,139.5 Z"/></g>
<g><path style="opacity:1" fill="#6a75c8" d="M 413.5,166.5 C 423.921,174.556 434.588,182.39 445.5,190C 446.448,190.483 447.448,190.649 448.5,190.5C 431.822,202.601 414.988,214.601 398,226.5C 402.237,206.217 407.404,186.217 413.5,166.5 Z"/></g>
<g><path style="opacity:1" fill="#7b83d4" d="M 341.5,154.5 C 341.833,154.5 342.167,154.5 342.5,154.5C 353.167,162.5 363.833,170.5 374.5,178.5C 368.337,190.83 361.67,202.83 354.5,214.5C 341.404,203.779 327.737,193.779 313.5,184.5C 322.466,174.199 331.8,164.199 341.5,154.5 Z"/></g>
<g><path style="opacity:1" fill="#cde6f9" d="M 266.5,172.5 C 279.868,178.18 292.535,184.847 304.5,192.5C 303.167,194.167 301.833,195.833 300.5,197.5C 291.473,205.86 282.806,214.527 274.5,223.5C 259.167,215.5 243.833,207.5 228.5,199.5C 240.777,190.021 253.444,181.021 266.5,172.5 Z"/></g>
<g><path style="opacity:1" fill="#7d83da" d="M 313.5,184.5 C 327.737,193.779 341.404,203.779 354.5,214.5C 352.267,220.062 349.601,225.395 346.5,230.5C 330.604,220.268 315.27,209.268 300.5,197.5C 301.833,195.833 303.167,194.167 304.5,192.5C 307.5,189.833 310.5,187.167 313.5,184.5 Z"/></g>
<g><path style="opacity:1" fill="#d9ecf9" d="M 228.5,199.5 C 243.833,207.5 259.167,215.5 274.5,223.5C 269.167,229.167 263.833,234.833 258.5,240.5C 253.14,245.194 248.14,250.194 243.5,255.5C 226.05,246.274 208.384,237.274 190.5,228.5C 189.702,228.043 189.369,227.376 189.5,226.5C 202.219,217.117 215.219,208.117 228.5,199.5 Z"/></g>
<g><path style="opacity:1" fill="#8189da" d="M 300.5,197.5 C 315.27,209.268 330.604,220.268 346.5,230.5C 336.5,248.5 326.5,266.5 316.5,284.5C 298.986,270.842 280.986,257.675 262.5,245C 260.808,243.693 259.475,242.193 258.5,240.5C 263.833,234.833 269.167,229.167 274.5,223.5C 282.806,214.527 291.473,205.86 300.5,197.5 Z"/></g>
<g><path style="opacity:1" fill="#e5f2f9" d="M 189.5,226.5 C 189.369,227.376 189.702,228.043 190.5,228.5C 208.384,237.274 226.05,246.274 243.5,255.5C 242.167,257.5 240.5,259.167 238.5,260.5C 217.843,264.83 197.176,269.164 176.5,273.5C 168.191,275.295 159.858,276.962 151.5,278.5C 143.419,279.916 135.419,281.583 127.5,283.5C 119.394,284.654 111.394,286.321 103.5,288.5C 102.893,288.376 102.56,288.043 102.5,287.5C 131.325,266.921 160.325,246.587 189.5,226.5 Z"/></g>
<g><path style="opacity:1" fill="#858fe1" d="M 258.5,240.5 C 259.475,242.193 260.808,243.693 262.5,245C 280.986,257.675 298.986,270.842 316.5,284.5C 306.818,301.868 297.151,319.202 287.5,336.5C 272.95,326.065 258.617,315.399 244.5,304.5C 244.5,303.833 244.5,303.167 244.5,302.5C 242.182,288.556 240.182,274.556 238.5,260.5C 240.5,259.167 242.167,257.5 243.5,255.5C 248.14,250.194 253.14,245.194 258.5,240.5 Z"/></g>
<g><path style="opacity:1" fill="#adc3f9" d="M 459.5,239.5 C 451.186,251.142 442.519,262.475 433.5,273.5C 430.753,270.793 427.42,269.127 423.5,268.5C 435.125,258.356 447.125,248.689 459.5,239.5 Z"/></g>
<g><path style="opacity:1" fill="#a6b3f9" d="M 238.5,260.5 C 240.182,274.556 242.182,288.556 244.5,302.5C 221.77,292.797 199.103,283.13 176.5,273.5C 197.176,269.164 217.843,264.83 238.5,260.5 Z"/></g>
<g><path style="opacity:1" fill="#a8bbf9" d="M 176.5,273.5 C 199.103,283.13 221.77,292.797 244.5,302.5C 244.5,303.167 244.5,303.833 244.5,304.5C 245.26,309.15 245.926,313.817 246.5,318.5C 214.762,305.149 183.095,291.815 151.5,278.5C 159.858,276.962 168.191,275.295 176.5,273.5 Z"/></g>
<g><path style="opacity:1" fill="#adc1f9" d="M 151.5,278.5 C 183.095,291.815 214.762,305.149 246.5,318.5C 247.282,324.869 248.282,331.203 249.5,337.5C 248.942,335.407 247.609,333.907 245.5,333C 205.863,316.962 166.53,300.462 127.5,283.5C 135.419,281.583 143.419,279.916 151.5,278.5 Z"/></g>
<g><path style="opacity:1" fill="#afc8f9" d="M 127.5,283.5 C 166.53,300.462 205.863,316.962 245.5,333C 247.609,333.907 248.942,335.407 249.5,337.5C 250.384,342.804 251.051,348.137 251.5,353.5C 201.206,333.015 151.206,312.015 101.5,290.5C 101.263,289.209 101.596,288.209 102.5,287.5C 102.56,288.043 102.893,288.376 103.5,288.5C 111.394,286.321 119.394,284.654 127.5,283.5 Z"/></g>
<g><path style="opacity:1" fill="#bad7f9" d="M 423.5,268.5 C 427.42,269.127 430.753,270.793 433.5,273.5C 425.167,284.833 416.833,296.167 408.5,307.5C 404.833,312.167 401.167,316.833 397.5,321.5C 397.719,320.325 397.386,319.325 396.5,318.5C 389.45,315.313 382.783,311.646 376.5,307.5C 391.85,294.153 407.517,281.153 423.5,268.5 Z"/></g>
<g><path style="opacity:1" fill="#afcdf9" d="M 101.5,290.5 C 151.206,312.015 201.206,333.015 251.5,353.5C 252.715,359.454 253.715,365.454 254.5,371.5C 250.959,368.691 246.959,366.524 242.5,365C 193.918,344.864 145.251,325.031 96.5,305.5C 97.7208,300.255 99.3874,295.255 101.5,290.5 Z"/></g>
<g><path style="opacity:1" fill="#7880d3" d="M 433.5,322.5 C 433.047,321.542 432.381,320.708 431.5,320C 423.452,316.313 415.785,312.147 408.5,307.5C 416.833,296.167 425.167,284.833 433.5,273.5C 442.519,262.475 451.186,251.142 459.5,239.5C 459.897,238.475 460.563,238.308 461.5,239C 452.239,266.951 442.905,294.785 433.5,322.5 Z"/></g>
<g><path style="opacity:1" fill="#b5d3f9" d="M 96.5,305.5 C 145.251,325.031 193.918,344.864 242.5,365C 246.959,366.524 250.959,368.691 254.5,371.5C 255.698,377.837 256.698,384.17 257.5,390.5C 254.203,392.601 250.537,393.935 246.5,394.5C 194.582,373.469 142.748,352.136 91,330.5C 89.9701,330.164 89.4701,329.497 89.5,328.5C 91.6366,320.758 93.9699,313.092 96.5,305.5 Z"/></g>
<g><path style="opacity:1" fill="#8996e1" d="M 244.5,304.5 C 258.617,315.399 272.95,326.065 287.5,336.5C 278.004,354.83 268.004,372.83 257.5,390.5C 256.698,384.17 255.698,377.837 254.5,371.5C 253.715,365.454 252.715,359.454 251.5,353.5C 251.051,348.137 250.384,342.804 249.5,337.5C 248.282,331.203 247.282,324.869 246.5,318.5C 245.926,313.817 245.26,309.15 244.5,304.5 Z"/></g>
<g><path style="opacity:1" fill="#c8e1f9" d="M 376.5,307.5 C 382.783,311.646 389.45,315.313 396.5,318.5C 397.386,319.325 397.719,320.325 397.5,321.5C 393.5,326.833 389.5,332.167 385.5,337.5C 384.167,339.167 382.833,340.833 381.5,342.5C 376.167,342.5 370.833,342.5 365.5,342.5C 361.167,342.5 356.833,342.5 352.5,342.5C 348.167,342.5 343.833,342.5 339.5,342.5C 337.5,342.5 335.5,342.5 333.5,342.5C 347.538,330.461 361.871,318.795 376.5,307.5 Z"/></g>
<g><path style="opacity:1" fill="#bbdafa" d="M 89.5,328.5 C 89.4701,329.497 89.9701,330.164 91,330.5C 142.748,352.136 194.582,373.469 246.5,394.5C 237.457,398.405 228.124,401.738 218.5,404.5C 173.5,385.833 128.5,367.167 83.5,348.5C 84.9278,341.559 86.9278,334.893 89.5,328.5 Z"/></g>
<g><path style="opacity:1" fill="#858ddf" d="M 408.5,307.5 C 415.785,312.147 423.452,316.313 431.5,320C 432.381,320.708 433.047,321.542 433.5,322.5C 430.434,334.365 426.767,346.032 422.5,357.5C 409.404,352.121 397.071,345.454 385.5,337.5C 389.5,332.167 393.5,326.833 397.5,321.5C 401.167,316.833 404.833,312.167 408.5,307.5 Z"/></g>
<g><path style="opacity:1" fill="#8996e1" d="M 385.5,337.5 C 397.071,345.454 409.404,352.121 422.5,357.5C 419.405,368.785 415.738,379.785 411.5,390.5C 401.5,374.5 391.5,358.5 381.5,342.5C 382.833,340.833 384.167,339.167 385.5,337.5 Z"/></g>
<g><path style="opacity:1" fill="#aac1fa" d="M 333.5,342.5 C 335.5,342.5 337.5,342.5 339.5,342.5C 354.786,362.291 370.286,381.958 386,401.5C 386.816,402.823 387.983,403.489 389.5,403.5C 386.506,406 383.173,408 379.5,409.5C 363.803,390.142 348.137,370.809 332.5,351.5C 332.704,348.482 333.037,345.482 333.5,342.5 Z"/></g>
<g><path style="opacity:1" fill="#a8bafa" d="M 339.5,342.5 C 343.833,342.5 348.167,342.5 352.5,342.5C 367.511,361.206 382.511,379.873 397.5,398.5C 395.178,400.664 392.511,402.331 389.5,403.5C 387.983,403.489 386.816,402.823 386,401.5C 370.286,381.958 354.786,362.291 339.5,342.5 Z"/></g>
<g><path style="opacity:1" fill="#a7b5fa" d="M 352.5,342.5 C 356.833,342.5 361.167,342.5 365.5,342.5C 378.166,358.004 390.666,373.67 403,389.5C 404.264,391.607 406.097,392.607 408.5,392.5C 405.001,394.75 401.335,396.75 397.5,398.5C 382.511,379.873 367.511,361.206 352.5,342.5 Z"/></g>
<g><path style="opacity:1" fill="#a1aef9" d="M 365.5,342.5 C 370.833,342.5 376.167,342.5 381.5,342.5C 391.5,358.5 401.5,374.5 411.5,390.5C 410.71,391.401 409.71,392.068 408.5,392.5C 406.097,392.607 404.264,391.607 403,389.5C 390.666,373.67 378.166,358.004 365.5,342.5 Z"/></g>
<g><path style="opacity:1" fill="#c1dafa" d="M 83.5,348.5 C 128.5,367.167 173.5,385.833 218.5,404.5C 212.198,407.602 205.531,409.936 198.5,411.5C 158.987,396.082 119.654,380.082 80.5,363.5C 79.8165,363.863 79.1499,364.196 78.5,364.5C 79.3926,358.828 81.0592,353.494 83.5,348.5 Z"/></g>
<g><path style="opacity:1" fill="#afc8fa" d="M 332.5,351.5 C 348.137,370.809 363.803,390.142 379.5,409.5C 376.451,411.863 373.118,413.863 369.5,415.5C 356.819,400.978 344.652,385.978 333,370.5C 332.329,369.748 331.496,369.414 330.5,369.5C 331.24,363.51 331.906,357.51 332.5,351.5 Z"/></g>
<g><path style="opacity:1" fill="#afcefa" d="M 330.5,369.5 C 331.496,369.414 332.329,369.748 333,370.5C 344.652,385.978 356.819,400.978 369.5,415.5C 366.451,417.863 363.118,419.863 359.5,421.5C 349.874,408.54 339.874,395.874 329.5,383.5C 329.669,378.819 330.002,374.152 330.5,369.5 Z"/></g>
<g><path style="opacity:1" fill="#c7e1fa" d="M 198.5,411.5 C 180.124,418.738 161.457,425.405 142.5,431.5C 140.073,431.477 137.74,430.977 135.5,430C 112.479,420.487 89.4787,410.987 66.5,401.5C 70.1296,388.947 74.1296,376.614 78.5,364.5C 79.1499,364.196 79.8165,363.863 80.5,363.5C 119.654,380.082 158.987,396.082 198.5,411.5 Z"/></g>
<g><path style="opacity:1" fill="#b7d5fa" d="M 329.5,383.5 C 339.874,395.874 349.874,408.54 359.5,421.5C 348.063,428.726 336.396,435.726 324.5,442.5C 324.909,422.738 326.576,403.071 329.5,383.5 Z"/></g>
<g><path style="opacity:1" fill="#cfe7fa" d="M 66.5,401.5 C 89.4787,410.987 112.479,420.487 135.5,430C 137.74,430.977 140.073,431.477 142.5,431.5C 125.865,438.269 108.865,444.269 91.5,449.5C 80.013,444.261 68.3464,439.261 56.5,434.5C 59.4343,423.365 62.7677,412.365 66.5,401.5 Z"/></g>
<g><path style="opacity:1" fill="#d4edfa" d="M 56.5,434.5 C 68.3464,439.261 80.013,444.261 91.5,449.5C 77.2908,455.296 62.7908,460.629 48,465.5C 47.5,465.167 47,464.833 46.5,464.5C 49.6682,454.329 53.0015,444.329 56.5,434.5 Z"/></g>
</svg>
