<?xml version="1.0" encoding="UTF-8"?>
<!DOCTYPE svg PUBLIC "-//W3C//DTD SVG 1.1//EN" "http://www.w3.org/Graphics/SVG/1.1/DTD/svg11.dtd">
<svg xmlns="http://www.w3.org/2000/svg" version="1.1" width="512px" height="512px" style="shape-rendering:geometricPrecision; text-rendering:geometricPrecision; image-rendering:optimizeQuality; fill-rule:evenodd; clip-rule:evenodd" xmlns:xlink="http://www.w3.org/1999/xlink">
<g><path style="opacity:1" fill="#39394b" d="M 177.5,35.5 C 188.304,34.2026 198.304,36.3692 207.5,42C 215.054,48.6546 215.387,55.6546 208.5,63C 164.961,71.8456 127.794,92.0123 97,123.5C 76.2905,147.265 64.2905,174.932 61,206.5C 56.8203,210.792 53.487,210.126 51,204.5C 42.0279,168.027 48.6946,134.694 71,104.5C 91.824,78.3341 117.324,58.1674 147.5,44C 157.367,40.2045 167.367,37.3712 177.5,35.5 Z"/></g>
<g><path style="opacity:1" fill="#39394c" d="M 337.5,37.5 C 364.144,35.1595 389.144,40.3261 412.5,53C 438.101,71.0584 443.934,94.225 430,122.5C 425.105,130.73 419.438,138.396 413,145.5C 413.321,150.569 415.821,151.736 420.5,149C 427.651,142.842 433.484,135.675 438,127.5C 446.041,119.508 454.041,119.508 462,127.5C 464.977,133.326 465.31,139.326 463,145.5C 461.326,151.357 459.159,157.023 456.5,162.5C 469.649,189.933 465.816,214.599 445,236.5C 447.636,263.055 443.302,288.388 432,312.5C 420.065,332.932 403.231,347.932 381.5,357.5C 372.386,382.782 355.719,401.282 331.5,413C 322.478,416.589 313.145,418.922 303.5,420C 291.481,420.475 279.481,420.475 267.5,420C 239.985,441.474 209.652,446.307 176.5,434.5C 160.281,438.397 143.948,439.23 127.5,437C 135.936,444.883 145.936,449.55 157.5,451C 163.771,451.409 169.938,452.242 176,453.5C 177.929,457.851 176.762,461.351 172.5,464C 154.125,476.536 134.458,478.869 113.5,471C 81.6424,457.803 67.9758,433.969 72.5,399.5C 70.1048,393.155 68.4382,386.655 67.5,380C 67.965,368.559 73.1316,360.059 83,354.5C 84.4728,354.903 85.8061,355.57 87,356.5C 93.9625,374.208 106.796,384.042 125.5,386C 117.513,376.862 112.013,366.362 109,354.5C 107.44,337.725 114.107,325.391 129,317.5C 126.8,295.066 135.3,278.232 154.5,267C 156.92,266.313 159.087,266.813 161,268.5C 162.601,289.082 172.934,303.082 192,310.5C 192.5,310.333 193,310.167 193.5,310C 181.608,296.971 179.108,282.471 186,266.5C 192.412,258.813 200.579,254.979 210.5,255C 211,255.5 211.5,256 212,256.5C 211.233,269.821 217.066,278.655 229.5,283C 278.712,289.372 321.879,276.205 359,243.5C 359.483,242.552 359.649,241.552 359.5,240.5C 329.49,251.045 298.657,257.711 267,260.5C 260.821,258.272 259.988,254.772 264.5,250C 300.245,237.048 333.412,219.548 364,197.5C 370.311,188.163 368.145,184.663 357.5,187C 327.414,204.807 295.748,219.141 262.5,230C 232.435,239.885 201.768,242.551 170.5,238C 153.703,235.267 139.036,228.267 126.5,217C 113.795,213.905 103.295,207.405 95,197.5C 87.5441,183.693 87.8775,170.026 96,156.5C 123.756,116.317 161.922,91.9832 210.5,83.5C 215.549,84.8408 217.049,87.8408 215,92.5C 188.372,106.127 166.372,125.127 149,149.5C 145.995,154.508 143.828,159.841 142.5,165.5C 143.239,173.401 147.239,178.901 154.5,182C 173.007,186.917 191.674,187.584 210.5,184C 235.279,179.629 259.279,172.629 282.5,163C 311.601,151.785 338.934,137.452 364.5,120C 359.12,115.203 352.786,112.536 345.5,112C 321.9,110.326 298.9,113.326 276.5,121C 240.581,133.295 206.914,149.962 175.5,171C 171.771,171.783 169.437,170.283 168.5,166.5C 170.324,161.522 173.157,157.189 177,153.5C 219.201,108.311 271.034,80.8105 332.5,71C 329.7,69.7681 326.7,69.1015 323.5,69C 303.886,67.8614 284.552,69.6948 265.5,74.5C 260.001,74.4871 258.168,71.8205 260,66.5C 283.466,50.4017 309.299,40.735 337.5,37.5 Z M 409.5,271.5 C 409.084,280.893 405.918,289.559 400,297.5C 390.19,308.973 378.023,316.807 363.5,321C 340.804,327.87 317.804,329.203 294.5,325C 338.35,318.401 376.683,300.567 409.5,271.5 Z"/></g>
<g><path style="opacity:1" fill="#ddf6c5" d="M 425.5,83.5 C 410.81,81.979 396.144,80.3123 381.5,78.5C 370.231,70.0382 357.564,64.5382 343.5,62C 326.946,58.6972 310.279,57.6972 293.5,59C 324.841,46.0893 356.841,44.0893 389.5,53C 400.388,56.6884 409.888,62.5218 418,70.5C 421.155,74.4802 423.655,78.8136 425.5,83.5 Z"/></g>
<g><path style="opacity:1" fill="#d7f6c5" d="M 118.5,90.5 C 112.246,90.2198 106.246,89.2198 100.5,87.5C 121.294,66.4282 146.294,52.5949 175.5,46C 184.681,44.3779 193.347,45.7113 201.5,50C 203.527,51.3957 203.86,53.0624 202.5,55C 172.023,61.3149 144.023,73.1482 118.5,90.5 Z"/></g>
<g><path style="opacity:1" fill="#38384b" d="M 238.5,72.5 C 244.31,73.7916 246.143,77.1249 244,82.5C 240.667,86.5 237.333,86.5 234,82.5C 232.315,77.4871 233.815,74.1537 238.5,72.5 Z"/></g>
<g><path style="opacity:1" fill="#d7f8c6" d="M 381.5,78.5 C 396.144,80.3123 410.81,81.979 425.5,83.5C 429.648,97.9054 426.982,110.905 417.5,122.5C 405.815,121.591 394.148,120.424 382.5,119C 381.944,118.617 381.611,118.117 381.5,117.5C 387.2,109.075 389.034,99.7413 387,89.5C 385.345,85.6969 383.511,82.0302 381.5,78.5 Z"/></g>
<g><path style="opacity:1" fill="#629b8d" d="M 343.5,101.5 C 340.77,94.9771 338.437,88.3104 336.5,81.5C 335.167,81.5 333.833,81.5 332.5,81.5C 341.566,79.1614 350.899,78.3281 360.5,79C 379.949,85.3839 383.782,96.8839 372,113.5C 368.613,109.554 364.446,106.72 359.5,105C 354.011,103.925 348.678,102.759 343.5,101.5 Z"/></g>
<g><path style="opacity:1" fill="#70ac9a" d="M 332.5,81.5 C 333.833,81.5 335.167,81.5 336.5,81.5C 338.437,88.3104 340.77,94.9771 343.5,101.5C 326.199,100.484 309.199,102.15 292.5,106.5C 292.611,105.883 292.944,105.383 293.5,105C 291.47,101.411 290.137,97.5776 289.5,93.5C 288.5,93.5 287.5,93.5 286.5,93.5C 301.203,87.3762 316.536,83.3762 332.5,81.5 Z"/></g>
<g><path style="opacity:1" fill="#7ebaa6" d="M 286.5,93.5 C 287.5,93.5 288.5,93.5 289.5,93.5C 290.137,97.5776 291.47,101.411 293.5,105C 292.944,105.383 292.611,105.883 292.5,106.5C 283.05,108.789 273.717,111.456 264.5,114.5C 263.203,110.917 261.537,107.584 259.5,104.5C 267.875,99.4852 276.875,95.8186 286.5,93.5 Z"/></g>
<g><path style="opacity:1" fill="#8dcab2" d="M 259.5,104.5 C 261.537,107.584 263.203,110.917 264.5,114.5C 255.411,117.698 246.411,121.198 237.5,125C 225.811,131.013 214.144,136.68 202.5,142C 218.862,125.486 237.862,112.986 259.5,104.5 Z"/></g>
<g><path style="opacity:1" fill="#caecc3" d="M 100.5,87.5 C 106.246,89.2198 112.246,90.2198 118.5,90.5C 89.021,111.828 68.521,139.828 57,174.5C 57.4549,148.926 65.7882,126.259 82,106.5C 87.671,99.6627 93.8376,93.3293 100.5,87.5 Z"/></g>
<g><path style="opacity:1" fill="#cdf1c6" d="M 381.5,117.5 C 381.611,118.117 381.944,118.617 382.5,119C 394.148,120.424 405.815,121.591 417.5,122.5C 413.297,129.55 408.464,136.216 403,142.5C 401.529,155.696 407.363,161.529 420.5,160C 431.856,152.976 440.856,143.643 447.5,132C 452.329,130.662 454.662,132.496 454.5,137.5C 453.2,146.233 450.033,154.233 445,161.5C 438.306,170.895 431.139,179.895 423.5,188.5C 408.185,186.687 392.852,185.021 377.5,183.5C 371.958,176.938 364.958,174.771 356.5,177C 353.846,177.941 351.179,178.774 348.5,179.5C 327.273,177.956 306.273,175.623 285.5,172.5C 307.152,163.215 328.485,153.049 349.5,142C 361.457,135.521 372.124,127.354 381.5,117.5 Z"/></g>
<g><path style="opacity:1" fill="#c7ecc5" d="M 144.5,188.5 C 144.565,188.938 144.399,189.272 144,189.5C 129.597,187.363 115.097,185.696 100.5,184.5C 99.1777,179.176 99.3443,173.843 101,168.5C 113.028,148.137 128.862,131.304 148.5,118C 158.061,112.053 168.061,106.886 178.5,102.5C 169.511,110.982 160.344,119.982 151,129.5C 144.918,137.325 139.585,145.658 135,154.5C 132.235,163.968 133.235,172.968 138,181.5C 140.372,183.703 142.539,186.037 144.5,188.5 Z"/></g>
<g><path style="opacity:1" fill="#c6ebc6" d="M 285.5,172.5 C 306.273,175.623 327.273,177.956 348.5,179.5C 332.05,190.059 314.717,199.059 296.5,206.5C 265.014,202.482 233.347,198.816 201.5,195.5C 230.265,191.142 258.265,183.475 285.5,172.5 Z"/></g>
<g><path style="opacity:1" fill="#c6ebc6" d="M 443.5,223.5 C 415.761,219.232 387.761,215.898 359.5,213.5C 367.865,208.965 374.031,202.298 378,193.5C 378.659,190.112 378.492,186.779 377.5,183.5C 392.852,185.021 408.185,186.687 423.5,188.5C 421.944,193.874 423.944,196.041 429.5,195C 436.754,187.75 443.254,179.917 449,171.5C 457.608,190.024 455.775,207.357 443.5,223.5 Z"/></g>
<g><path style="opacity:1" fill="#c0ebc0" d="M 100.5,184.5 C 115.097,185.696 129.597,187.363 144,189.5C 144.399,189.272 144.565,188.938 144.5,188.5C 149.462,191.21 154.795,193.044 160.5,194C 174.132,195.311 187.799,195.811 201.5,195.5C 233.347,198.816 265.014,202.482 296.5,206.5C 270.334,218.209 243,225.876 214.5,229.5C 195.126,227.866 175.793,225.866 156.5,223.5C 147.425,220.462 139.425,215.629 132.5,209C 121.967,206.651 112.801,201.818 105,194.5C 102.676,191.52 101.176,188.187 100.5,184.5 Z"/></g>
<g><path style="opacity:1" fill="#3d3f50" d="M 403.5,204.5 C 412.889,204.676 414.556,208.176 408.5,215C 402.687,215.171 400.52,212.338 402,206.5C 402.717,205.956 403.217,205.289 403.5,204.5 Z"/></g>
<g><path style="opacity:1" fill="#c0ebc0" d="M 359.5,213.5 C 387.761,215.898 415.761,219.232 443.5,223.5C 440.871,226.631 438.038,229.631 435,232.5C 434.502,235.482 434.335,238.482 434.5,241.5C 434.5,245.833 434.5,250.167 434.5,254.5C 412.623,252.404 390.956,249.737 369.5,246.5C 370.817,237.121 366.817,231.787 357.5,230.5C 347.414,233.362 337.414,236.529 327.5,240C 319.192,242.164 310.859,243.83 302.5,245C 322.198,235.491 341.198,224.991 359.5,213.5 Z"/></g>
<g><path style="opacity:1" fill="#38384b" d="M 67.5,224.5 C 87.619,224.118 94.4524,233.451 88,252.5C 80.5141,260.441 72.0141,261.941 62.5,257C 54.6305,249.13 53.4638,240.296 59,230.5C 61.6371,228.109 64.4704,226.109 67.5,224.5 Z"/></g>
<g><path style="opacity:1" fill="#b5d9b8" d="M 156.5,223.5 C 175.793,225.866 195.126,227.866 214.5,229.5C 204.008,230.659 193.341,230.825 182.5,230C 173.489,228.747 164.823,226.581 156.5,223.5 Z"/></g>
<g><path style="opacity:1" fill="#78bca4" d="M 69.5,234.5 C 79.0593,233.546 82.5593,237.546 80,246.5C 74.8374,252.062 70.1708,251.729 66,245.5C 64.6631,240.872 65.8298,237.205 69.5,234.5 Z"/></g>
<g><path style="opacity:1" fill="#373749" d="M 235.5,250.5 C 240.658,249.331 243.658,251.331 244.5,256.5C 242.691,262.752 239.024,264.086 233.5,260.5C 231.815,256.589 232.482,253.255 235.5,250.5 Z"/></g>
<g><path style="opacity:1" fill="#b8e4bf" d="M 434.5,241.5 C 436.77,261.339 434.27,280.672 427,299.5C 424.23,306.056 420.73,312.056 416.5,317.5C 409.983,316.856 403.649,315.856 397.5,314.5C 414.297,298.967 421.797,279.633 420,256.5C 418.475,253.913 416.308,253.08 413.5,254C 401.74,266.687 388.407,277.187 373.5,285.5C 357.015,283.149 340.348,281.149 323.5,279.5C 340.987,271.43 356.321,260.43 369.5,246.5C 390.956,249.737 412.623,252.404 434.5,254.5C 434.5,250.167 434.5,245.833 434.5,241.5 Z"/></g>
<g><path style="opacity:1" fill="#39394c" d="M 397.5,314.5 C 384.267,323.944 369.6,330.444 353.5,334C 328.639,339.179 303.973,338.513 279.5,332C 274.936,330.718 270.603,328.885 266.5,326.5C 263.665,323.329 263.998,320.496 267.5,318C 286.659,316.868 305.326,313.368 323.5,307.5C 341.346,302.669 358.013,295.336 373.5,285.5C 388.407,277.187 401.74,266.687 413.5,254C 416.308,253.08 418.475,253.913 420,256.5C 421.797,279.633 414.297,298.967 397.5,314.5 Z M 409.5,271.5 C 376.683,300.567 338.35,318.401 294.5,325C 317.804,329.203 340.804,327.87 363.5,321C 378.023,316.807 390.19,308.973 400,297.5C 405.918,289.559 409.084,280.893 409.5,271.5 Z"/></g>
<g><path style="opacity:1" fill="#b3e4bf" d="M 323.5,279.5 C 340.348,281.149 357.015,283.149 373.5,285.5C 358.013,295.336 341.346,302.669 323.5,307.5C 280.658,302.295 237.658,297.295 194.5,292.5C 188.367,280.999 191.034,272.333 202.5,266.5C 208.086,285.234 220.753,294.734 240.5,295C 269.28,295.722 296.947,290.556 323.5,279.5 Z"/></g>
<g><path style="opacity:1" fill="#aedfc0" d="M 194.5,292.5 C 237.658,297.295 280.658,302.295 323.5,307.5C 305.326,313.368 286.659,316.868 267.5,318C 263.998,320.496 263.665,323.329 266.5,326.5C 270.603,328.885 274.936,330.718 279.5,332C 303.973,338.513 328.639,339.179 353.5,334C 369.6,330.444 384.267,323.944 397.5,314.5C 403.649,315.856 409.983,316.856 416.5,317.5C 405.896,331.932 392.229,342.432 375.5,349C 366.869,351.827 358.202,354.327 349.5,356.5C 349.389,355.883 349.056,355.383 348.5,355C 281.316,347.256 214.316,340.09 147.5,333.5C 139.838,323.495 137.338,312.161 140,299.5C 141.978,291.696 146.145,285.362 152.5,280.5C 158.254,301.421 171.588,314.921 192.5,321C 200.05,323.127 207.717,324.127 215.5,324C 217.444,321.847 217.944,319.347 217,316.5C 206.197,311.533 198.697,303.533 194.5,292.5 Z"/></g>
<g><path style="opacity:1" fill="#a7dfc0" d="M 147.5,333.5 C 214.316,340.09 281.316,347.256 348.5,355C 349.056,355.383 349.389,355.883 349.5,356.5C 339.218,358.244 328.885,359.744 318.5,361C 315.023,366.126 316.356,368.959 322.5,369.5C 338.086,368.08 353.42,365.58 368.5,362C 364.504,370.853 359.17,378.686 352.5,385.5C 301.101,380.271 249.768,374.604 198.5,368.5C 196.833,368.5 195.167,368.5 193.5,368.5C 169.558,365.469 145.558,362.803 121.5,360.5C 115.17,346.162 118.837,335.162 132.5,327.5C 141.024,342.522 153.024,354.022 168.5,362C 175.651,364.183 177.984,361.85 175.5,355C 164.556,349.885 155.223,342.718 147.5,333.5 Z"/></g>
<g><path style="opacity:1" fill="#a2d9c0" d="M 121.5,360.5 C 145.558,362.803 169.558,365.469 193.5,368.5C 189.032,373.159 189.699,376.826 195.5,379.5C 202.189,377.389 203.189,373.723 198.5,368.5C 249.768,374.604 301.101,380.271 352.5,385.5C 342.622,396.847 330.288,404.347 315.5,408C 299.526,411.063 283.526,411.23 267.5,408.5C 266.5,408.667 265.5,408.833 264.5,409C 262.963,410.707 261.296,412.207 259.5,413.5C 258.737,412.732 257.737,412.232 256.5,412C 211.825,407.073 167.158,402.073 122.5,397C 121.944,396.617 121.611,396.117 121.5,395.5C 127.509,395.666 133.509,395.499 139.5,395C 142.13,391.772 141.964,388.605 139,385.5C 131.177,378.507 125.344,370.174 121.5,360.5 Z"/></g>
<g><path style="opacity:1" fill="#3a3c4e" d="M 193.5,368.5 C 195.167,368.5 196.833,368.5 198.5,368.5C 203.189,373.723 202.189,377.389 195.5,379.5C 189.699,376.826 189.032,373.159 193.5,368.5 Z"/></g>
<g><path style="opacity:1" fill="#9bd8bf" d="M 121.5,395.5 C 121.611,396.117 121.944,396.617 122.5,397C 167.158,402.073 211.825,407.073 256.5,412C 257.737,412.232 258.737,412.732 259.5,413.5C 234.11,432.306 206.776,435.64 177.5,423.5C 156.387,430.309 135.387,429.975 114.5,422.5C 113.075,422.623 111.742,422.957 110.5,423.5C 101.102,422.937 91.7688,421.937 82.5,420.5C 81.2092,412.387 81.2092,404.22 82.5,396C 79.9887,390.966 78.322,385.632 77.5,380C 77.5448,375.698 78.8781,371.865 81.5,368.5C 90.53,383.861 103.863,392.861 121.5,395.5 Z"/></g>
<g><path style="opacity:1" fill="#95d1bf" d="M 82.5,420.5 C 91.7688,421.937 101.102,422.937 110.5,423.5C 109.527,425.068 109.36,426.735 110,428.5C 119.492,448.286 135.326,459.119 157.5,461C 141.61,467.445 125.944,466.778 110.5,459C 94.4309,451.015 85.0976,438.182 82.5,420.5 Z"/></g>
</svg>
