<?xml version="1.0" encoding="UTF-8"?>
<!DOCTYPE svg PUBLIC "-//W3C//DTD SVG 1.1//EN" "http://www.w3.org/Graphics/SVG/1.1/DTD/svg11.dtd">
<svg xmlns="http://www.w3.org/2000/svg" version="1.1" width="512px" height="512px" style="shape-rendering:geometricPrecision; text-rendering:geometricPrecision; image-rendering:optimizeQuality; fill-rule:evenodd; clip-rule:evenodd" xmlns:xlink="http://www.w3.org/1999/xlink">
<g><path style="opacity:1" fill="#fa697d" d="M 186.5,100.5 C 159.191,131.994 132.691,164.328 107,197.5C 102.25,203.074 97.4171,208.408 92.5,213.5C 56.2732,153.272 37.4398,87.9385 36,17.5C 37.8684,16.3281 39.7017,16.4947 41.5,18C 81.3411,56.4131 129.008,78.4131 184.5,84C 185.777,89.3851 186.444,94.8851 186.5,100.5 Z"/></g>
<g><path style="opacity:1" fill="#f3697d" d="M 186.5,100.5 C 187.025,109.059 188.025,117.559 189.5,126C 188.972,131.057 186.638,135.057 182.5,138C 141.582,160.972 121.082,196.138 121,243.5C 118,246.167 115,246.167 112,243.5C 105.241,233.642 98.7405,223.642 92.5,213.5C 97.4171,208.408 102.25,203.074 107,197.5C 132.691,164.328 159.191,131.994 186.5,100.5 Z"/></g>
<g><path style="opacity:1" fill="#c1e1fa" d="M 334.5,206.5 C 272.669,207.499 210.669,207.832 148.5,207.5C 158.406,177.502 178.74,158.336 209.5,150C 240.02,141.659 269.353,144.659 297.5,159C 316.003,170.006 328.336,185.839 334.5,206.5 Z"/></g>
<g><path style="opacity:1" fill="#bcd9f9" d="M 334.5,206.5 C 338.405,217.37 340.405,228.704 340.5,240.5C 296.687,240.165 253.02,239.165 209.5,237.5C 206.912,219.874 197.245,214.041 180.5,220C 174.8,225.587 170.8,232.087 168.5,239.5C 161.167,239.5 153.833,239.5 146.5,239.5C 146.81,242.713 146.477,245.713 145.5,248.5C 145.334,238.494 145.5,228.494 146,218.5C 146.242,214.57 147.075,210.903 148.5,207.5C 210.669,207.832 272.669,207.499 334.5,206.5 Z"/></g>
<g><path style="opacity:1" fill="#788ae1" d="M 209.5,237.5 C 209.5,240.167 209.5,242.833 209.5,245.5C 195.833,245.5 182.167,245.5 168.5,245.5C 168.737,246.791 168.404,247.791 167.5,248.5C 167.963,245.518 168.296,242.518 168.5,239.5C 170.8,232.087 174.8,225.587 180.5,220C 197.245,214.041 206.912,219.874 209.5,237.5 Z"/></g>
<g><path style="opacity:1" fill="#b5d3f9" d="M 168.5,239.5 C 168.296,242.518 167.963,245.518 167.5,248.5C 167.5,255.833 167.5,263.167 167.5,270.5C 158.167,270.5 148.833,270.5 139.5,270.5C 139.087,264.908 140.587,259.908 144,255.5C 144.977,253.26 145.477,250.927 145.5,248.5C 146.477,245.713 146.81,242.713 146.5,239.5C 153.833,239.5 161.167,239.5 168.5,239.5 Z"/></g>
<g><path style="opacity:1" fill="#b5d3f9" d="M 209.5,237.5 C 253.02,239.165 296.687,240.165 340.5,240.5C 340.796,250.912 340.13,261.245 338.5,271.5C 293.069,270.838 247.736,270.172 202.5,269.5C 207.644,262.395 209.977,254.395 209.5,245.5C 209.5,242.833 209.5,240.167 209.5,237.5 Z"/></g>
<g><path style="opacity:1" fill="#7183e1" d="M 209.5,245.5 C 209.977,254.395 207.644,262.395 202.5,269.5C 202.167,269.5 201.833,269.5 201.5,269.5C 190.679,268.505 179.679,268.172 168.5,268.5C 168.5,269.833 168.5,271.167 168.5,272.5C 167.662,272.158 167.328,271.492 167.5,270.5C 167.5,263.167 167.5,255.833 167.5,248.5C 168.404,247.791 168.737,246.791 168.5,245.5C 182.167,245.5 195.833,245.5 209.5,245.5 Z"/></g>
<g><path style="opacity:1" fill="#7386e2" d="M 280.5,254.5 C 285.872,254.906 287.372,257.572 285,262.5C 281.16,266.828 278.326,266.328 276.5,261C 276.722,258.038 278.056,255.871 280.5,254.5 Z"/></g>
<g><path style="opacity:1" fill="#6c7ee1" d="M 201.5,269.5 C 200.375,271.129 199.041,272.629 197.5,274C 191.567,277.401 185.234,279.734 178.5,281C 180.711,286.954 185.044,290.287 191.5,291C 192.337,292.011 192.67,293.178 192.5,294.5C 175.98,296.652 167.98,289.318 168.5,272.5C 168.5,271.167 168.5,269.833 168.5,268.5C 179.679,268.172 190.679,268.505 201.5,269.5 Z"/></g>
<g><path style="opacity:1" fill="#afcdf9" d="M 201.5,269.5 C 201.833,269.5 202.167,269.5 202.5,269.5C 247.736,270.172 293.069,270.838 338.5,271.5C 335.786,283.345 330.786,294.011 323.5,303.5C 305.007,302.503 286.341,302.17 267.5,302.5C 267.5,300.833 267.5,299.167 267.5,297.5C 267.697,289.014 269.364,280.848 272.5,273C 272,272.5 271.5,272 271,271.5C 264.548,281.071 259.715,291.404 256.5,302.5C 219.833,302.5 183.167,302.5 146.5,302.5C 148.577,292.22 146.41,282.887 140,274.5C 139.51,273.207 139.343,271.873 139.5,270.5C 148.833,270.5 158.167,270.5 167.5,270.5C 167.328,271.492 167.662,272.158 168.5,272.5C 167.98,289.318 175.98,296.652 192.5,294.5C 192.67,293.178 192.337,292.011 191.5,291C 185.044,290.287 180.711,286.954 178.5,281C 185.234,279.734 191.567,277.401 197.5,274C 199.041,272.629 200.375,271.129 201.5,269.5 Z"/></g>
<g><path style="opacity:1" fill="#6779e1" d="M 267.5,297.5 C 266.674,302.316 266.174,307.316 266,312.5C 265.295,315.476 264.129,318.142 262.5,320.5C 258.285,318.564 253.619,317.897 248.5,318.5C 253.233,314.345 255.899,309.011 256.5,302.5C 259.715,291.404 264.548,281.071 271,271.5C 271.5,272 272,272.5 272.5,273C 269.364,280.848 267.697,289.014 267.5,297.5 Z"/></g>
<g><path style="opacity:1" fill="#a8c7f9" d="M 146.5,302.5 C 183.167,302.5 219.833,302.5 256.5,302.5C 255.899,309.011 253.233,314.345 248.5,318.5C 245.543,319.655 242.543,320.655 239.5,321.5C 232.83,321.889 226.164,322.389 219.5,323C 217.376,324.122 215.543,325.622 214,327.5C 211.888,331.278 209.388,334.778 206.5,338C 203.12,339.084 199.62,339.584 196,339.5C 191.806,339.69 187.806,339.023 184,337.5C 182.498,331.985 180.998,326.485 179.5,321C 174.833,320.333 170.167,320.333 165.5,321C 163.026,326.752 160.36,332.419 157.5,338C 142.837,343.013 135.837,337.846 136.5,322.5C 136.507,319.408 137.007,316.408 138,313.5C 140.37,309.403 143.203,305.736 146.5,302.5 Z"/></g>
<g><path style="opacity:1" fill="#a8c7f9" d="M 267.5,297.5 C 267.5,299.167 267.5,300.833 267.5,302.5C 286.341,302.17 305.007,302.503 323.5,303.5C 315.689,313.647 305.689,320.647 293.5,324.5C 283.959,326.392 276.626,331.392 271.5,339.5C 259.249,340.114 247.249,339.447 235.5,337.5C 235.989,336.005 236.655,334.671 237.5,333.5C 247.958,333.105 256.292,328.772 262.5,320.5C 264.129,318.142 265.295,315.476 266,312.5C 266.174,307.316 266.674,302.316 267.5,297.5 Z"/></g>
<g><path style="opacity:1" fill="#5e71e1" d="M 248.5,318.5 C 253.619,317.897 258.285,318.564 262.5,320.5C 256.292,328.772 247.958,333.105 237.5,333.5C 238.167,329.5 238.833,325.5 239.5,321.5C 242.543,320.655 245.543,319.655 248.5,318.5 Z"/></g>
<g><path style="opacity:1" fill="#ce5f77" d="M 293.5,324.5 C 302.257,333.926 311.923,342.259 322.5,349.5C 315.257,362.662 310.257,376.662 307.5,391.5C 307.068,392.71 306.401,393.71 305.5,394.5C 289.749,387.125 274.083,379.458 258.5,371.5C 260.622,359.924 264.955,349.257 271.5,339.5C 276.626,331.392 283.959,326.392 293.5,324.5 Z"/></g>
<g><path style="opacity:1" fill="#f9c89d" d="M 351.5,351.5 C 337.133,365.203 322.466,378.536 307.5,391.5C 310.257,376.662 315.257,362.662 322.5,349.5C 326.936,340.284 332.602,331.951 339.5,324.5C 349.2,330.905 353.2,339.905 351.5,351.5 Z"/></g>
<g><path style="opacity:1" fill="#a0c0f9" d="M 235.5,337.5 C 247.249,339.447 259.249,340.114 271.5,339.5C 264.955,349.257 260.622,359.924 258.5,371.5C 258.167,371.5 257.833,371.5 257.5,371.5C 234.092,371.823 210.758,371.489 187.5,370.5C 188.694,365.941 191.027,362.108 194.5,359C 203.091,357.756 211.758,357.089 220.5,357C 228.51,352.814 233.51,346.314 235.5,337.5 Z"/></g>
<g><path style="opacity:1" fill="#f9c795" d="M 351.5,351.5 C 349.386,357.729 346.719,363.729 343.5,369.5C 338.411,378.092 335.078,387.425 333.5,397.5C 324.167,405.833 314.833,414.167 305.5,422.5C 304.387,413.182 304.387,403.848 305.5,394.5C 306.401,393.71 307.068,392.71 307.5,391.5C 322.466,378.536 337.133,365.203 351.5,351.5 Z"/></g>
<g><path style="opacity:1" fill="#3a3a6a" d="M 343.5,369.5 C 356.271,383.941 370.271,396.941 385.5,408.5C 385.291,409.922 384.791,411.255 384,412.5C 379.583,417.682 375.417,423.016 371.5,428.5C 359.195,420.848 346.195,414.515 332.5,409.5C 332.505,405.466 332.838,401.466 333.5,397.5C 335.078,387.425 338.411,378.092 343.5,369.5 Z"/></g>
<g><path style="opacity:1" fill="#9bbbfa" d="M 187.5,370.5 C 210.758,371.489 234.092,371.823 257.5,371.5C 255.181,379.324 250.181,384.824 242.5,388C 235.245,389.225 227.911,389.892 220.5,390C 213.708,391.898 208.042,395.564 203.5,401C 196.283,405.914 188.283,407.747 179.5,406.5C 160.635,408.318 149.135,399.985 145,381.5C 142.8,374.638 141.8,367.638 142,360.5C 142.75,359.874 143.584,359.374 144.5,359C 151.5,358.333 158.5,358.333 165.5,359C 167.539,363.292 169.205,367.792 170.5,372.5C 175.467,373.662 180.467,373.829 185.5,373C 186.381,372.292 187.047,371.458 187.5,370.5 Z"/></g>
<g><path style="opacity:1" fill="#f9c08a" d="M 333.5,397.5 C 332.838,401.466 332.505,405.466 332.5,409.5C 332.956,419.326 335.29,428.659 339.5,437.5C 332.447,444.222 325.447,450.889 318.5,457.5C 311.209,446.963 306.876,435.296 305.5,422.5C 314.833,414.167 324.167,405.833 333.5,397.5 Z"/></g>
<g><path style="opacity:1" fill="#4a4977" d="M 385.5,408.5 C 402.327,420.752 419.994,431.752 438.5,441.5C 438.063,443.074 437.063,444.241 435.5,445C 429.594,449.091 423.594,452.924 417.5,456.5C 415.565,457.15 413.565,457.483 411.5,457.5C 398.726,447.059 385.393,437.393 371.5,428.5C 375.417,423.016 379.583,417.682 384,412.5C 384.791,411.255 385.291,409.922 385.5,408.5 Z"/></g>
<g><path style="opacity:1" fill="#f9ae6a" d="M 461.5,437.5 C 460.797,439.716 459.464,441.549 457.5,443C 441.167,458 424.833,473 408.5,488C 409.094,488.464 409.761,488.631 410.5,488.5C 399.699,492.773 388.366,494.773 376.5,494.5C 390.768,482.568 404.435,469.902 417.5,456.5C 423.594,452.924 429.594,449.091 435.5,445C 437.063,444.241 438.063,443.074 438.5,441.5C 445.724,437.442 453.391,436.108 461.5,437.5 Z"/></g>
<g><path style="opacity:1" fill="#faae62" d="M 461.5,437.5 C 475.912,444.998 479.412,455.998 472,470.5C 464.084,479.285 454.584,481.452 443.5,477C 440.833,476.333 438.167,476.333 435.5,477C 427.415,481.376 419.082,485.209 410.5,488.5C 409.761,488.631 409.094,488.464 408.5,488C 424.833,473 441.167,458 457.5,443C 459.464,441.549 460.797,439.716 461.5,437.5 Z"/></g>
<g><path style="opacity:1" fill="#faba7f" d="M 339.5,437.5 C 346.308,447.311 354.975,454.977 365.5,460.5C 357.208,466.79 349.208,473.457 341.5,480.5C 332.167,474.5 324.5,466.833 318.5,457.5C 325.447,450.889 332.447,444.222 339.5,437.5 Z"/></g>
<g><path style="opacity:1" fill="#fab573" d="M 417.5,456.5 C 404.435,469.902 390.768,482.568 376.5,494.5C 363.496,492.948 351.829,488.281 341.5,480.5C 349.208,473.457 357.208,466.79 365.5,460.5C 381.332,465.197 396.665,464.197 411.5,457.5C 413.565,457.483 415.565,457.15 417.5,456.5 Z"/></g>
</svg>
