<?xml version="1.0" encoding="UTF-8"?>
<!DOCTYPE svg PUBLIC "-//W3C//DTD SVG 1.1//EN" "http://www.w3.org/Graphics/SVG/1.1/DTD/svg11.dtd">
<svg xmlns="http://www.w3.org/2000/svg" version="1.1" width="512px" height="512px" style="shape-rendering:geometricPrecision; text-rendering:geometricPrecision; image-rendering:optimizeQuality; fill-rule:evenodd; clip-rule:evenodd" xmlns:xlink="http://www.w3.org/1999/xlink">
<g><path style="opacity:1" fill="#6c71a3" d="M 273.5,56.5 C 261.345,55.5048 249.011,55.1714 236.5,55.5C 231.644,38.3488 237.977,28.0155 255.5,24.5C 271.033,26.9007 277.866,35.9007 276,51.5C 275.626,53.4913 274.793,55.158 273.5,56.5 Z"/></g>
<g><path style="opacity:1" fill="#606598" d="M 236.5,55.5 C 249.011,55.1714 261.345,55.5048 273.5,56.5C 271.482,60.3884 270.149,64.5551 269.5,69C 270.922,76.7875 271.922,84.6209 272.5,92.5C 261.248,93.4773 249.914,93.8106 238.5,93.5C 238.984,85.2781 239.984,77.1114 241.5,69C 240.906,64.0459 239.239,59.5459 236.5,55.5 Z"/></g>
<g><path style="opacity:1" fill="#53588c" d="M 272.5,92.5 C 273.427,106.137 273.76,119.804 273.5,133.5C 272.566,132.432 272.232,131.099 272.5,129.5C 260.833,129.5 249.167,129.5 237.5,129.5C 237.228,117.462 237.562,105.462 238.5,93.5C 249.914,93.8106 261.248,93.4773 272.5,92.5 Z"/></g>
<g><path style="opacity:1" fill="#4b4f82" d="M 237.5,129.5 C 249.167,129.5 260.833,129.5 272.5,129.5C 272.232,131.099 272.566,132.432 273.5,133.5C 273.167,142.167 272.833,150.833 272.5,159.5C 266.925,160.452 261.259,160.786 255.5,160.5C 249.741,160.786 244.075,160.452 238.5,159.5C 238.01,149.506 237.677,139.506 237.5,129.5 Z"/></g>
<g><path style="opacity:1" fill="#fab999" d="M 187.5,150.5 C 191.646,149.353 195.98,149.186 200.5,150C 201.416,150.278 202.082,150.778 202.5,151.5C 205.954,162.982 208.954,174.649 211.5,186.5C 207.839,189.829 203.506,191.829 198.5,192.5C 194.833,178.5 191.167,164.5 187.5,150.5 Z"/></g>
<g><path style="opacity:1" fill="#fa717f" d="M 323.5,150.5 C 319.709,163.047 316.209,175.714 313,188.5C 312.52,190.133 311.687,191.466 310.5,192.5C 306.345,191.258 302.678,189.258 299.5,186.5C 303.434,174.775 306.767,162.775 309.5,150.5C 314.267,149.203 318.934,149.203 323.5,150.5 Z"/></g>
<g><path style="opacity:1" fill="#fabfa7" d="M 202.5,151.5 C 206.423,152.795 210.09,154.628 213.5,157C 217.07,158.31 220.737,159.143 224.5,159.5C 225.993,167.139 227.326,174.806 228.5,182.5C 222.688,183.104 217.022,184.438 211.5,186.5C 208.954,174.649 205.954,162.982 202.5,151.5 Z"/></g>
<g><path style="opacity:1" fill="#fa7b92" d="M 323.5,150.5 C 331.815,152.65 336.982,157.984 339,166.5C 339.822,186.503 330.322,195.17 310.5,192.5C 311.687,191.466 312.52,190.133 313,188.5C 316.209,175.714 319.709,163.047 323.5,150.5 Z"/></g>
<g><path style="opacity:1" fill="#fab188" d="M 187.5,150.5 C 191.167,164.5 194.833,178.5 198.5,192.5C 179.787,194.29 170.953,185.623 172,166.5C 173.991,158.01 179.158,152.677 187.5,150.5 Z"/></g>
<g><path style="opacity:1" fill="#f35858" d="M 272.5,159.5 C 275.5,159.5 278.5,159.5 281.5,159.5C 279.5,167.166 277.5,174.833 275.5,182.5C 273.833,182.5 272.167,182.5 270.5,182.5C 265.5,182.5 260.5,182.5 255.5,182.5C 255.5,175.167 255.5,167.833 255.5,160.5C 261.259,160.786 266.925,160.452 272.5,159.5 Z"/></g>
<g><path style="opacity:1" fill="#f5646a" d="M 309.5,150.5 C 306.767,162.775 303.434,174.775 299.5,186.5C 291.745,183.863 283.745,182.53 275.5,182.5C 277.5,174.833 279.5,167.166 281.5,159.5C 285.915,159.695 290.249,159.195 294.5,158C 299.62,155.707 304.62,153.207 309.5,150.5 Z"/></g>
<g><path style="opacity:1" fill="#facbbe" d="M 224.5,159.5 C 229.167,159.5 233.833,159.5 238.5,159.5C 244.075,160.452 249.741,160.786 255.5,160.5C 255.5,167.833 255.5,175.167 255.5,182.5C 250.5,182.5 245.5,182.5 240.5,182.5C 236.5,182.5 232.5,182.5 228.5,182.5C 227.326,174.806 225.993,167.139 224.5,159.5 Z"/></g>
<g><path style="opacity:1" fill="#7e8bc4" d="M 240.5,182.5 C 245.5,182.5 250.5,182.5 255.5,182.5C 260.5,182.5 265.5,182.5 270.5,182.5C 269.808,194.993 271.808,206.993 276.5,218.5C 263.843,214.173 251.176,209.84 238.5,205.5C 240.136,197.968 240.803,190.301 240.5,182.5 Z"/></g>
<g><path style="opacity:1" fill="#bbc7f9" d="M 238.5,205.5 C 251.176,209.84 263.843,214.173 276.5,218.5C 279.626,224.765 284.126,229.765 290,233.5C 291.342,237.72 292.175,242.053 292.5,246.5C 267.804,248.57 243.138,250.903 218.5,253.5C 218.428,247.455 218.928,241.455 220,235.5C 229.983,227.983 236.15,217.983 238.5,205.5 Z"/></g>
<g><path style="opacity:1" fill="#716fa8" d="M 168.5,236.5 C 123.833,236.5 79.1667,236.5 34.5,236.5C 33.0992,231.036 32.5992,225.369 33,219.5C 33.4652,218.069 34.2986,216.903 35.5,216C 76.9544,211.89 117.288,216.89 156.5,231C 160.71,232.609 164.71,234.442 168.5,236.5 Z"/></g>
<g><path style="opacity:1" fill="#716fa8" d="M 476.5,236.5 C 432.33,236.832 388.33,236.499 344.5,235.5C 386.376,217.874 430.042,211.374 475.5,216C 477.742,217.986 478.742,220.486 478.5,223.5C 478.115,228.02 477.448,232.354 476.5,236.5 Z"/></g>
<g><path style="opacity:1" fill="#706aa7" d="M 344.5,235.5 C 388.33,236.499 432.33,236.832 476.5,236.5C 476.658,239.902 476.324,243.236 475.5,246.5C 424.167,247.833 372.833,247.833 321.5,246.5C 328.733,242.051 336.399,238.385 344.5,235.5 Z"/></g>
<g><path style="opacity:1" fill="#6f6aa7" d="M 34.5,236.5 C 79.1667,236.5 123.833,236.5 168.5,236.5C 176.601,239.385 184.267,243.051 191.5,247.5C 139.5,247.5 87.5,247.5 35.5,247.5C 34.7564,243.881 34.423,240.215 34.5,236.5 Z"/></g>
<g><path style="opacity:1" fill="#c1cef9" d="M 292.5,246.5 C 293.032,252.152 293.365,257.819 293.5,263.5C 293.631,264.239 293.464,264.906 293,265.5C 288.963,267.926 285.463,270.926 282.5,274.5C 278.394,277.429 274.394,280.596 270.5,284C 265.376,289.113 260.376,294.279 255.5,299.5C 250.376,293.875 245.042,288.375 239.5,283C 235.939,279.927 232.272,277.094 228.5,274.5C 225.796,270.973 222.462,268.14 218.5,266C 217.748,265.329 217.414,264.496 217.5,263.5C 217.187,259.958 217.521,256.625 218.5,253.5C 243.138,250.903 267.804,248.57 292.5,246.5 Z"/></g>
<g><path style="opacity:1" fill="#6b6aa2" d="M 35.5,247.5 C 87.5,247.5 139.5,247.5 191.5,247.5C 200.431,252.437 209.098,257.77 217.5,263.5C 217.414,264.496 217.748,265.329 218.5,266C 222.462,268.14 225.796,270.973 228.5,274.5C 201.328,274.169 174.328,274.502 147.5,275.5C 132.335,268.947 116.501,264.947 100,263.5C 98.1667,263.833 96.3333,264.167 94.5,264.5C 95.3818,267.791 96.0484,271.124 96.5,274.5C 77.757,274.18 59.0903,274.514 40.5,275.5C 38.4025,266.248 36.7358,256.915 35.5,247.5 Z"/></g>
<g><path style="opacity:1" fill="#6b6aa2" d="M 321.5,246.5 C 372.833,247.833 424.167,247.833 475.5,246.5C 474.374,256.798 472.374,266.798 469.5,276.5C 451.53,274.513 433.197,273.846 414.5,274.5C 415.167,270.833 415.833,267.167 416.5,263.5C 398,263.875 380.333,267.875 363.5,275.5C 336.672,274.502 309.672,274.169 282.5,274.5C 285.463,270.926 288.963,267.926 293,265.5C 293.464,264.906 293.631,264.239 293.5,263.5C 302.528,257.32 311.862,251.653 321.5,246.5 Z"/></g>
<g><path style="opacity:1" fill="#f8f8f9" d="M 147.5,275.5 C 170.797,286.144 190.797,301.144 207.5,320.5C 207.804,321.15 208.137,321.817 208.5,322.5C 195.111,342.803 176.444,350.303 152.5,345C 139,339.326 127.667,330.826 118.5,319.5C 108.209,305.919 100.876,290.919 96.5,274.5C 96.0484,271.124 95.3818,267.791 94.5,264.5C 96.3333,264.167 98.1667,263.833 100,263.5C 116.501,264.947 132.335,268.947 147.5,275.5 Z"/></g>
<g><path style="opacity:1" fill="#f8f8f9" d="M 414.5,274.5 C 410.119,290.929 402.786,305.929 392.5,319.5C 383.333,330.826 372,339.326 358.5,345C 334.543,350.299 315.876,342.799 302.5,322.5C 302.863,321.817 303.196,321.15 303.5,320.5C 320.203,301.144 340.203,286.144 363.5,275.5C 380.333,267.875 398,263.875 416.5,263.5C 415.833,267.167 415.167,270.833 414.5,274.5 Z"/></g>
<g><path style="opacity:1" fill="#65649c" d="M 96.5,274.5 C 100.876,290.919 108.209,305.919 118.5,319.5C 97.6599,319.169 76.9933,319.503 56.5,320.5C 49.6016,306.143 44.2683,291.143 40.5,275.5C 59.0903,274.514 77.757,274.18 96.5,274.5 Z"/></g>
<g><path style="opacity:1" fill="#65649c" d="M 147.5,275.5 C 174.328,274.502 201.328,274.169 228.5,274.5C 232.272,277.094 235.939,279.927 239.5,283C 245.042,288.375 250.376,293.875 255.5,299.5C 260.376,294.279 265.376,289.113 270.5,284C 274.394,280.596 278.394,277.429 282.5,274.5C 309.672,274.169 336.672,274.502 363.5,275.5C 340.203,286.144 320.203,301.144 303.5,320.5C 271.5,319.167 239.5,319.167 207.5,320.5C 190.797,301.144 170.797,286.144 147.5,275.5 Z"/></g>
<g><path style="opacity:1" fill="#65649c" d="M 414.5,274.5 C 433.197,273.846 451.53,274.513 469.5,276.5C 466.431,291.372 461.765,305.705 455.5,319.5C 434.5,319.5 413.5,319.5 392.5,319.5C 402.786,305.929 410.119,290.929 414.5,274.5 Z"/></g>
<g><path style="opacity:1" fill="#5d5d96" d="M 118.5,319.5 C 127.667,330.826 139,339.326 152.5,345C 176.444,350.303 195.111,342.803 208.5,322.5C 208.137,321.817 207.804,321.15 207.5,320.5C 239.5,319.167 271.5,319.167 303.5,320.5C 303.196,321.15 302.863,321.817 302.5,322.5C 315.876,342.799 334.543,350.299 358.5,345C 372,339.326 383.333,330.826 392.5,319.5C 413.5,319.5 434.5,319.5 455.5,319.5C 450.075,331.368 443.408,342.368 435.5,352.5C 315.5,351.167 195.5,351.167 75.5,352.5C 67.659,342.832 61.3257,332.166 56.5,320.5C 76.9933,319.503 97.6599,319.169 118.5,319.5 Z"/></g>
<g><path style="opacity:1" fill="#565c8f" d="M 435.5,352.5 C 433.804,354.525 432.137,356.525 430.5,358.5C 313.833,358.5 197.167,358.5 80.5,358.5C 78.863,356.525 77.1964,354.525 75.5,352.5C 195.5,351.167 315.5,351.167 435.5,352.5 Z"/></g>
<g><path style="opacity:1" fill="#55568d" d="M 80.5,358.5 C 197.167,358.5 313.833,358.5 430.5,358.5C 406.223,387.536 375.223,400.702 337.5,398C 333.016,397.129 328.683,395.796 324.5,394C 307.663,384.08 290.663,374.414 273.5,365C 267.713,362.569 261.713,361.069 255.5,360.5C 249.272,361.057 243.272,362.557 237.5,365C 223.341,372.243 209.674,380.243 196.5,389C 172.572,402.254 148.239,402.921 123.5,391C 106.946,383.062 92.6128,372.228 80.5,358.5 Z"/></g>
<g><path style="opacity:1" fill="#dee6fa" d="M 288.5,420.5 C 267.658,420.866 246.825,422.532 226,425.5C 224.989,424.944 224.156,424.278 223.5,423.5C 221.919,414.269 221.419,404.936 222,395.5C 238.22,381.661 256.053,378.827 275.5,387C 280.267,389.438 284.767,392.271 289,395.5C 289.389,403.84 289.222,412.173 288.5,420.5 Z"/></g>
<g><path style="opacity:1" fill="#e5edfa" d="M 288.5,420.5 C 286.369,444.921 277.036,466.088 260.5,484C 255.199,486.979 250.699,485.812 247,480.5C 233.106,464.04 225.273,445.04 223.5,423.5C 224.156,424.278 224.989,424.944 226,425.5C 246.825,422.532 267.658,420.866 288.5,420.5 Z"/></g>
</svg>
