<?xml version="1.0" encoding="UTF-8"?>
<!DOCTYPE svg PUBLIC "-//W3C//DTD SVG 1.1//EN" "http://www.w3.org/Graphics/SVG/1.1/DTD/svg11.dtd">
<svg xmlns="http://www.w3.org/2000/svg" version="1.1" width="512px" height="512px" style="shape-rendering:geometricPrecision; text-rendering:geometricPrecision; image-rendering:optimizeQuality; fill-rule:evenodd; clip-rule:evenodd" xmlns:xlink="http://www.w3.org/1999/xlink">
<g><path style="opacity:1" fill="#39384b" d="M 229.5,23.5 C 232.961,23.1459 235.461,24.4792 237,27.5C 234.727,58.4587 247.56,80.6254 275.5,94C 282.16,97.2755 289.16,99.4421 296.5,100.5C 313.704,97.1258 320.037,86.9591 315.5,70C 315.354,67.9658 316.02,66.2991 317.5,65C 323.693,64.5806 329.359,66.2473 334.5,70C 360.069,87.2801 374.235,111.447 377,142.5C 378.027,157.935 377.194,173.269 374.5,188.5C 375.426,195.259 379.259,199.259 386,200.5C 391.427,198.533 396.593,196.2 401.5,193.5C 404.678,193.673 406.678,195.34 407.5,198.5C 396.104,258.73 360.104,293.23 299.5,302C 268.322,305.055 237.988,301.388 208.5,291C 177.909,279.074 155.742,258.241 142,228.5C 135.427,208.732 134.427,188.732 139,168.5C 140.654,162.357 143.488,156.857 147.5,152C 149.5,151.333 151.5,151.333 153.5,152C 156.964,157.762 160.797,163.262 165,168.5C 175.564,179.973 187.397,181.473 200.5,173C 207.379,167.179 209.212,160.012 206,151.5C 202.129,142.091 197.462,133.091 192,124.5C 183.334,103.844 182.334,82.8437 189,61.5C 197.859,43.8049 211.359,31.1382 229.5,23.5 Z"/></g>
<g><path style="opacity:1" fill="#39384b" d="M 374.5,38.5 C 425.623,40.7881 455.79,67.1214 465,117.5C 468.365,132.056 464.865,144.556 454.5,155C 435.74,166.904 419.24,164.404 405,147.5C 399.001,135.488 399.001,123.488 405,111.5C 408.385,107.783 411.385,103.783 414,99.5C 414.656,91.7928 412.656,84.7928 408,78.5C 398.669,65.2587 386.835,54.9253 372.5,47.5C 370.883,43.911 371.55,40.911 374.5,38.5 Z"/></g>
<g><path style="opacity:1" fill="#f35799" d="M 431.5,71.5 C 427.119,73.2105 422.453,73.8772 417.5,73.5C 412.483,65.9711 406.483,59.1377 399.5,53C 412.108,55.8042 422.775,61.9709 431.5,71.5 Z"/></g>
<g><path style="opacity:1" fill="#f7c17c" d="M 233.5,69.5 C 222.012,70.4949 210.345,70.8283 198.5,70.5C 198.5,69.5 198.5,68.5 198.5,67.5C 203.953,54.3769 212.953,44.3769 225.5,37.5C 226.774,48.5456 229.441,59.2123 233.5,69.5 Z"/></g>
<g><path style="opacity:1" fill="#f8ba81" d="M 198.5,67.5 C 198.5,68.5 198.5,69.5 198.5,70.5C 210.345,70.8283 222.012,70.4949 233.5,69.5C 236.241,73.9703 239.241,78.3036 242.5,82.5C 227.009,83.4963 211.342,83.8296 195.5,83.5C 195.5,82.1667 195.5,80.8333 195.5,79.5C 195.755,75.1997 196.755,71.1997 198.5,67.5 Z"/></g>
<g><path style="opacity:1" fill="#f76696" d="M 431.5,71.5 C 435.776,74.7212 439.109,78.7212 441.5,83.5C 435.572,84.6575 429.572,85.3242 423.5,85.5C 421.5,81.5 419.5,77.5 417.5,73.5C 422.453,73.8772 427.119,73.2105 431.5,71.5 Z"/></g>
<g><path style="opacity:1" fill="#f8b482" d="M 195.5,79.5 C 195.5,80.8333 195.5,82.1667 195.5,83.5C 211.342,83.8296 227.009,83.4963 242.5,82.5C 246.513,87.5118 251.179,91.8451 256.5,95.5C 236.34,96.4972 216.007,96.8305 195.5,96.5C 194.349,90.6822 194.349,85.0155 195.5,79.5 Z"/></g>
<g><path style="opacity:1" fill="#38384b" d="M 151.5,84.5 C 161.616,84.1406 168.116,88.8073 171,98.5C 175.354,118.358 167.52,128.192 147.5,128C 139.6,124.369 136.266,118.203 137.5,109.5C 136.277,97.5903 140.944,89.257 151.5,84.5 Z"/></g>
<g><path style="opacity:1" fill="#f87395" d="M 441.5,83.5 C 443.674,86.5154 445.341,89.8487 446.5,93.5C 439.706,95.3972 432.706,96.7305 425.5,97.5C 425.809,93.2953 425.143,89.2953 423.5,85.5C 429.572,85.3242 435.572,84.6575 441.5,83.5 Z"/></g>
<g><path style="opacity:1" fill="#f3a981" d="M 152.5,95.5 C 154.467,95.2606 156.301,95.5939 158,96.5C 162.052,102.149 162.552,108.149 159.5,114.5C 152.012,120.966 148.012,119.299 147.5,109.5C 147.2,104.063 148.866,99.3964 152.5,95.5 Z"/></g>
<g><path style="opacity:1" fill="#f9ae82" d="M 256.5,95.5 C 267.104,102.135 278.438,107.135 290.5,110.5C 260.005,111.498 229.338,111.831 198.5,111.5C 197.117,106.584 196.117,101.584 195.5,96.5C 216.007,96.8305 236.34,96.4972 256.5,95.5 Z"/></g>
<g><path style="opacity:1" fill="#f7ae82" d="M 356.5,110.5 C 338.5,111.833 320.5,111.833 302.5,110.5C 318.357,106.302 327.024,95.9685 328.5,79.5C 341.378,86.7071 350.711,97.0405 356.5,110.5 Z"/></g>
<g><path style="opacity:1" fill="#f8808f" d="M 446.5,93.5 C 449.129,97.377 450.796,101.71 451.5,106.5C 441.134,107.689 430.801,109.022 420.5,110.5C 422.757,106.395 424.424,102.061 425.5,97.5C 432.706,96.7305 439.706,95.3972 446.5,93.5 Z"/></g>
<g><path style="opacity:1" fill="#39384b" d="M 72.5,106.5 C 91.2517,104.614 104.085,112.28 111,129.5C 113.929,140.784 111.929,151.117 105,160.5C 100,164.833 95,169.167 90,173.5C 88.0429,180.24 88.3762,186.907 91,193.5C 96.7701,208.697 105.77,221.697 118,232.5C 119.48,238.338 117.313,241.171 111.5,241C 68.8692,227.695 46.5359,198.695 44.5,154C 44.664,143.52 46.4973,133.353 50,123.5C 55.3947,114.925 62.8947,109.259 72.5,106.5 Z"/></g>
<g><path style="opacity:1" fill="#f9a784" d="M 290.5,110.5 C 294.5,110.5 298.5,110.5 302.5,110.5C 320.5,111.833 338.5,111.833 356.5,110.5C 358.731,113.836 360.397,117.503 361.5,121.5C 309.177,123.496 256.511,124.162 203.5,123.5C 201.443,119.662 199.776,115.662 198.5,111.5C 229.338,111.831 260.005,111.498 290.5,110.5 Z"/></g>
<g><path style="opacity:1" fill="#f78c8e" d="M 451.5,106.5 C 453.102,110.239 454.102,114.239 454.5,118.5C 440.179,119.081 425.846,120.747 411.5,123.5C 413.254,118.333 416.254,114 420.5,110.5C 430.801,109.022 441.134,107.689 451.5,106.5 Z"/></g>
<g><path style="opacity:1" fill="#f5ad81" d="M 96.5,125.5 C 95.036,126.16 93.3693,126.493 91.5,126.5C 82.8448,125.826 74.1781,125.326 65.5,125C 64.5842,124.722 63.9175,124.222 63.5,123.5C 71.0231,116.138 79.6898,114.638 89.5,119C 92.3312,120.666 94.6645,122.832 96.5,125.5 Z"/></g>
<g><path style="opacity:1" fill="#f9a188" d="M 361.5,121.5 C 363.579,126.192 364.912,131.192 365.5,136.5C 314.167,136.5 262.833,136.5 211.5,136.5C 208.597,132.37 205.93,128.037 203.5,123.5C 256.511,124.162 309.177,123.496 361.5,121.5 Z"/></g>
<g><path style="opacity:1" fill="#f79888" d="M 454.5,118.5 C 455.802,123.933 455.802,129.266 454.5,134.5C 454.5,133.167 454.5,131.833 454.5,130.5C 440.814,131.752 427.147,133.252 413.5,135C 412.748,135.671 412.414,136.504 412.5,137.5C 410.442,132.928 410.109,128.262 411.5,123.5C 425.846,120.747 440.179,119.081 454.5,118.5 Z"/></g>
<g><path style="opacity:1" fill="#f8a387" d="M 63.5,123.5 C 63.9175,124.222 64.5842,124.722 65.5,125C 74.1781,125.326 82.8448,125.826 91.5,126.5C 93.3693,126.493 95.036,126.16 96.5,125.5C 99.2067,128.247 100.873,131.58 101.5,135.5C 89.1598,135.233 76.8264,134.733 64.5,134C 61.9488,133.998 59.9488,133.164 58.5,131.5C 59.3833,128.296 61.0499,125.629 63.5,123.5 Z"/></g>
<g><path style="opacity:1" fill="#f9a188" d="M 454.5,134.5 C 454.737,135.791 454.404,136.791 453.5,137.5C 452.378,136.844 451.045,136.511 449.5,136.5C 437.607,137.609 425.94,139.276 414.5,141.5C 413.326,140.486 412.66,139.153 412.5,137.5C 412.414,136.504 412.748,135.671 413.5,135C 427.147,133.252 440.814,131.752 454.5,130.5C 454.5,131.833 454.5,133.167 454.5,134.5 Z"/></g>
<g><path style="opacity:1" fill="#f99b88" d="M 211.5,136.5 C 262.833,136.5 314.167,136.5 365.5,136.5C 366.483,140.298 366.817,144.298 366.5,148.5C 316.5,148.5 266.5,148.5 216.5,148.5C 214.836,144.504 213.169,140.504 211.5,136.5 Z"/></g>
<g><path style="opacity:1" fill="#f99788" d="M 58.5,131.5 C 59.9488,133.164 61.9488,133.998 64.5,134C 76.8264,134.733 89.1598,135.233 101.5,135.5C 101.747,138.939 101.414,142.272 100.5,145.5C 85.8333,144.833 71.1667,144.167 56.5,143.5C 56.5,142.5 56.5,141.5 56.5,140.5C 56.4203,137.219 57.087,134.219 58.5,131.5 Z"/></g>
<g><path style="opacity:1" fill="#f6aa82" d="M 453.5,137.5 C 451.316,144.517 446.649,149.017 439.5,151C 428.761,153.595 420.428,150.428 414.5,141.5C 425.94,139.276 437.607,137.609 449.5,136.5C 451.045,136.511 452.378,136.844 453.5,137.5 Z"/></g>
<g><path style="opacity:1" fill="#f7898d" d="M 56.5,140.5 C 56.5,141.5 56.5,142.5 56.5,143.5C 71.1667,144.167 85.8333,144.833 100.5,145.5C 99.7167,149.605 97.7167,152.939 94.5,155.5C 82.0495,153.706 69.3829,152.706 56.5,152.5C 56.7373,151.209 56.404,150.209 55.5,149.5C 55.19,146.287 55.5233,143.287 56.5,140.5 Z"/></g>
<g><path style="opacity:1" fill="#f99589" d="M 216.5,148.5 C 266.5,148.5 316.5,148.5 366.5,148.5C 366.5,153.5 366.5,158.5 366.5,163.5C 317.167,163.5 267.833,163.5 218.5,163.5C 218.806,160.615 218.473,157.948 217.5,155.5C 217.552,153.097 217.219,150.764 216.5,148.5 Z"/></g>
<g><path style="opacity:1" fill="#f8818e" d="M 55.5,149.5 C 56.404,150.209 56.7373,151.209 56.5,152.5C 69.3829,152.706 82.0495,153.706 94.5,155.5C 92.4687,157.522 90.1354,159.189 87.5,160.5C 78.1788,159.889 68.8455,159.389 59.5,159C 57.867,158.52 56.5336,157.687 55.5,156.5C 55.5,154.167 55.5,151.833 55.5,149.5 Z"/></g>
<g><path style="opacity:1" fill="#f67594" d="M 55.5,156.5 C 56.5336,157.687 57.867,158.52 59.5,159C 68.8455,159.389 78.1788,159.889 87.5,160.5C 83.6989,163.958 80.6989,167.958 78.5,172.5C 71.5097,172.001 64.5097,171.668 57.5,171.5C 55.961,166.657 55.2943,161.657 55.5,156.5 Z"/></g>
<g><path style="opacity:1" fill="#f98e8e" d="M 217.5,155.5 C 218.473,157.948 218.806,160.615 218.5,163.5C 267.833,163.5 317.167,163.5 366.5,163.5C 366.818,168.032 366.485,172.366 365.5,176.5C 314.664,176.832 263.997,176.499 213.5,175.5C 216.917,169.288 218.25,162.622 217.5,155.5 Z"/></g>
<g><path style="opacity:1" fill="#f9888e" d="M 213.5,175.5 C 263.997,176.499 314.664,176.832 365.5,176.5C 364.608,181.438 364.274,186.438 364.5,191.5C 351.748,189.548 338.748,188.882 325.5,189.5C 325.189,188.522 324.522,187.855 323.5,187.5C 321.055,188.312 318.722,189.312 316.5,190.5C 291.167,189.167 265.833,189.167 240.5,190.5C 237.854,189.513 235.188,188.513 232.5,187.5C 231.818,188.243 231.151,188.909 230.5,189.5C 217.323,189.829 204.323,189.495 191.5,188.5C 200.088,186.209 207.421,181.876 213.5,175.5 Z"/></g>
<g><path style="opacity:1" fill="#f86598" d="M 57.5,171.5 C 64.5097,171.668 71.5097,172.001 78.5,172.5C 77.7929,175.786 77.4595,179.119 77.5,182.5C 71.8698,181.708 66.2031,181.375 60.5,181.5C 58.7234,178.495 57.7234,175.162 57.5,171.5 Z"/></g>
<g><path style="opacity:1" fill="#f45799" d="M 60.5,181.5 C 66.2031,181.375 71.8698,181.708 77.5,182.5C 80.4444,196.726 85.4444,209.726 92.5,221.5C 76.2332,212.575 65.5665,199.241 60.5,181.5 Z"/></g>
<g><path style="opacity:1" fill="#f8848e" d="M 191.5,188.5 C 204.323,189.495 217.323,189.829 230.5,189.5C 230.5,194.167 230.5,198.833 230.5,203.5C 203.059,201.522 175.393,200.855 147.5,201.5C 146.345,194.345 146.178,187.012 147,179.5C 147.545,175.198 148.878,171.198 151,167.5C 160.322,182.909 173.822,189.909 191.5,188.5 Z"/></g>
<g><path style="opacity:1" fill="#faf7f7" d="M 240.5,190.5 C 247.418,194.748 253.418,200.081 258.5,206.5C 260.489,210.478 262.489,214.478 264.5,218.5C 255.209,221.547 246.209,220.881 237.5,216.5C 233.34,213.181 231.006,208.848 230.5,203.5C 230.5,198.833 230.5,194.167 230.5,189.5C 231.151,188.909 231.818,188.243 232.5,187.5C 235.188,188.513 237.854,189.513 240.5,190.5 Z"/></g>
<g><path style="opacity:1" fill="#faf6f7" d="M 325.5,189.5 C 326.775,194.847 326.775,200.18 325.5,205.5C 324.343,209.976 322.01,213.642 318.5,216.5C 309.879,220.022 300.879,221.356 291.5,220.5C 292.776,215.282 295.109,210.615 298.5,206.5C 302.936,199.396 308.936,194.063 316.5,190.5C 318.722,189.312 321.055,188.312 323.5,187.5C 324.522,187.855 325.189,188.522 325.5,189.5 Z"/></g>
<g><path style="opacity:1" fill="#fa828f" d="M 316.5,190.5 C 308.936,194.063 302.936,199.396 298.5,206.5C 285.167,206.5 271.833,206.5 258.5,206.5C 253.418,200.081 247.418,194.748 240.5,190.5C 265.833,189.167 291.167,189.167 316.5,190.5 Z"/></g>
<g><path style="opacity:1" fill="#f9818e" d="M 325.5,189.5 C 338.748,188.882 351.748,189.548 364.5,191.5C 365.249,196.998 367.582,201.664 371.5,205.5C 356.265,206.823 340.931,206.823 325.5,205.5C 326.775,200.18 326.775,194.847 325.5,189.5 Z"/></g>
<g><path style="opacity:1" fill="#f97d95" d="M 325.5,205.5 C 340.931,206.823 356.265,206.823 371.5,205.5C 377.763,210.389 384.763,211.722 392.5,209.5C 393.606,212.066 393.273,214.4 391.5,216.5C 367.167,216.5 342.833,216.5 318.5,216.5C 322.01,213.642 324.343,209.976 325.5,205.5 Z"/></g>
<g><path style="opacity:1" fill="#f97d94" d="M 147.5,201.5 C 175.393,200.855 203.059,201.522 230.5,203.5C 231.006,208.848 233.34,213.181 237.5,216.5C 208.147,215.841 179.147,216.508 150.5,218.5C 148.493,213.146 147.493,207.479 147.5,201.5 Z"/></g>
<g><path style="opacity:1" fill="#f97696" d="M 258.5,206.5 C 271.833,206.5 285.167,206.5 298.5,206.5C 295.109,210.615 292.776,215.282 291.5,220.5C 300.879,221.356 309.879,220.022 318.5,216.5C 342.833,216.5 367.167,216.5 391.5,216.5C 390.63,221.223 388.964,225.556 386.5,229.5C 309.167,229.5 231.833,229.5 154.5,229.5C 152.358,226.2 151.025,222.533 150.5,218.5C 179.147,216.508 208.147,215.841 237.5,216.5C 246.209,220.881 255.209,221.547 264.5,218.5C 262.489,214.478 260.489,210.478 258.5,206.5 Z"/></g>
<g><path style="opacity:1" fill="#f96f95" d="M 154.5,229.5 C 231.833,229.5 309.167,229.5 386.5,229.5C 384.926,234.32 382.593,238.653 379.5,242.5C 307.167,241.167 234.833,241.167 162.5,242.5C 159.084,238.677 156.418,234.343 154.5,229.5 Z"/></g>
<g><path style="opacity:1" fill="#f96895" d="M 379.5,242.5 C 376.31,249.026 371.976,254.692 366.5,259.5C 303.336,258.501 240.002,258.168 176.5,258.5C 170.722,254.06 166.055,248.727 162.5,242.5C 234.833,241.167 307.167,241.167 379.5,242.5 Z"/></g>
<g><path style="opacity:1" fill="#f9639b" d="M 176.5,258.5 C 240.002,258.168 303.336,258.501 366.5,259.5C 363.126,263.876 359.126,267.542 354.5,270.5C 300.167,269.167 245.833,269.167 191.5,270.5C 185.898,267.229 180.898,263.229 176.5,258.5 Z"/></g>
<g><path style="opacity:1" fill="#f95c9b" d="M 191.5,270.5 C 245.833,269.167 300.167,269.167 354.5,270.5C 347.956,275.273 340.956,279.273 333.5,282.5C 294.5,281.167 255.5,281.167 216.5,282.5C 207.766,279.299 199.433,275.299 191.5,270.5 Z"/></g>
<g><path style="opacity:1" fill="#f5569a" d="M 216.5,282.5 C 255.5,281.167 294.5,281.167 333.5,282.5C 315.74,289.587 297.24,292.92 278,292.5C 256.843,292.931 236.343,289.597 216.5,282.5 Z"/></g>
<g><path style="opacity:1" fill="#3a394b" d="M 421.5,487.5 C 419.081,482.991 416.414,478.658 413.5,474.5C 409.75,467.998 405.75,461.665 401.5,455.5C 398.82,451.463 396.154,447.463 393.5,443.5C 392.486,441.426 391.486,439.426 390.5,437.5C 388.096,431.288 386.096,424.955 384.5,418.5C 382.839,410.603 382.173,402.603 382.5,394.5C 383.841,383.297 387.008,372.631 392,362.5C 392.495,360.527 392.662,358.527 392.5,356.5C 390.504,344.84 388.337,333.173 386,321.5C 384.18,318.797 381.68,317.964 378.5,319C 367.549,329.073 362.215,341.573 362.5,356.5C 361.347,369.779 358.014,382.445 352.5,394.5C 347.965,403.362 341.965,411.029 334.5,417.5C 321.499,426.553 306.999,430.887 291,430.5C 265.22,429.565 240.053,425.231 215.5,417.5C 202.978,413.409 193.311,405.742 186.5,394.5C 182.462,387.079 177.462,380.413 171.5,374.5C 161.711,361.855 148.878,354.522 133,352.5C 126.742,351.757 124.409,354.424 126,360.5C 131.064,365.395 135.897,370.395 140.5,375.5C 145.093,381.697 149.427,388.03 153.5,394.5C 157.699,402.451 161.699,410.451 165.5,418.5C 165.738,422.138 167.404,424.971 170.5,427C 178.488,430.604 186.488,434.104 194.5,437.5C 198.883,440.358 203.55,442.692 208.5,444.5C 214.143,448.468 219.81,452.468 225.5,456.5C 227.428,458.474 229.761,459.974 232.5,461C 251.635,460.669 270.635,462.003 289.5,465C 298.008,467.443 306.008,470.943 313.5,475.5C 317.898,478.895 321.564,482.895 324.5,487.5C 319.821,487.666 315.155,487.499 310.5,487C 297.177,477.246 282.177,472.246 265.5,472C 256.989,471.395 248.489,471.562 240,472.5C 236.43,472.456 232.93,471.956 229.5,471C 219.253,465.093 209.253,458.759 199.5,452C 188.837,446.225 177.837,441.225 166.5,437C 162.667,434.5 159.5,431.333 157,427.5C 148.87,403.713 135.536,383.379 117,366.5C 112.197,356.284 114.697,348.451 124.5,343C 141.181,340.673 155.848,345.006 168.5,356C 176.784,363.278 183.951,371.444 190,380.5C 186.057,365.277 179.39,351.277 170,338.5C 163.238,324.768 167.238,316.101 182,312.5C 194.668,314.163 204.668,320.163 212,330.5C 214.917,334.666 217.584,338.999 220,343.5C 226.743,358.651 233.743,373.651 241,388.5C 240.859,368.105 239.859,347.771 238,327.5C 243.201,315.761 251.201,313.428 262,320.5C 269.574,330.21 274.241,341.21 276,353.5C 277.873,365.103 279.206,376.769 280,388.5C 283.394,401.892 291.227,411.725 303.5,418C 319.448,416.77 331.614,409.27 340,395.5C 348.558,379.602 352.891,362.602 353,344.5C 355.137,331.056 361.303,319.89 371.5,311C 378.139,306.539 384.806,306.539 391.5,311C 394.231,313.626 396.064,316.793 397,320.5C 398.691,332.264 400.858,343.93 403.5,355.5C 403.324,358.882 402.824,362.215 402,365.5C 390.118,390.849 390.784,415.849 404,440.5C 414.582,455.324 424.415,470.658 433.5,486.5C 429.555,487.491 425.555,487.824 421.5,487.5 Z"/></g>
<g><path style="opacity:1" fill="#f6989c" d="M 392.5,356.5 C 382.5,356.5 372.5,356.5 362.5,356.5C 362.215,341.573 367.549,329.073 378.5,319C 381.68,317.964 384.18,318.797 386,321.5C 388.337,333.173 390.504,344.84 392.5,356.5 Z"/></g>
<g><path style="opacity:1" fill="#f6898a" d="M 211.5,351.5 C 204.588,350.538 197.588,350.205 190.5,350.5C 186.609,343.729 182.442,337.063 178,330.5C 176.511,326.167 178.011,323.833 182.5,323.5C 192.726,325.897 200.559,331.564 206,340.5C 208.372,343.91 210.205,347.577 211.5,351.5 Z"/></g>
<g><path style="opacity:1" fill="#f7a0a2" d="M 171.5,374.5 C 161.347,375.494 151.014,375.828 140.5,375.5C 135.897,370.395 131.064,365.395 126,360.5C 124.409,354.424 126.742,351.757 133,352.5C 148.878,354.522 161.711,361.855 171.5,374.5 Z"/></g>
<g><path style="opacity:1" fill="#f38487" d="M 267.5,365.5 C 262.167,365.5 256.833,365.5 251.5,365.5C 250.588,353.145 249.755,340.812 249,328.5C 249.689,327.643 250.522,326.977 251.5,326.5C 255.86,329.551 259.026,333.551 261,338.5C 263.995,347.308 266.161,356.308 267.5,365.5 Z"/></g>
<g><path style="opacity:1" fill="#f17e82" d="M 190.5,350.5 C 197.588,350.205 204.588,350.538 211.5,351.5C 216.952,361.409 221.618,371.742 225.5,382.5C 218.352,383.492 211.019,383.825 203.5,383.5C 199.756,372.267 195.423,361.267 190.5,350.5 Z"/></g>
<g><path style="opacity:1" fill="#f8a6a7" d="M 171.5,374.5 C 177.462,380.413 182.462,387.079 186.5,394.5C 175.5,394.5 164.5,394.5 153.5,394.5C 149.427,388.03 145.093,381.697 140.5,375.5C 151.014,375.828 161.347,375.494 171.5,374.5 Z"/></g>
<g><path style="opacity:1" fill="#f8a4a5" d="M 362.5,356.5 C 372.5,356.5 382.5,356.5 392.5,356.5C 392.662,358.527 392.495,360.527 392,362.5C 387.008,372.631 383.841,383.297 382.5,394.5C 372.5,394.5 362.5,394.5 352.5,394.5C 358.014,382.445 361.347,369.779 362.5,356.5 Z"/></g>
<g><path style="opacity:1" fill="#ef747c" d="M 225.5,382.5 C 230.778,393.617 237.111,404.117 244.5,414C 231.608,412.19 219.274,408.356 207.5,402.5C 206.165,396.157 204.832,389.824 203.5,383.5C 211.019,383.825 218.352,383.492 225.5,382.5 Z"/></g>
<g><path style="opacity:1" fill="#ef767d" d="M 251.5,365.5 C 256.833,365.5 262.167,365.5 267.5,365.5C 266.363,381.663 269.863,396.663 278,410.5C 280.128,413.63 282.628,416.463 285.5,419C 277.044,419.881 268.71,419.214 260.5,417C 257.296,414.131 254.463,410.965 252,407.5C 251.5,393.504 251.333,379.504 251.5,365.5 Z"/></g>
<g><path style="opacity:1" fill="#f8adae" d="M 153.5,394.5 C 164.5,394.5 175.5,394.5 186.5,394.5C 193.311,405.742 202.978,413.409 215.5,417.5C 198.658,417.17 181.992,417.503 165.5,418.5C 161.699,410.451 157.699,402.451 153.5,394.5 Z"/></g>
<g><path style="opacity:1" fill="#f9aeae" d="M 352.5,394.5 C 362.5,394.5 372.5,394.5 382.5,394.5C 382.173,402.603 382.839,410.603 384.5,418.5C 367.911,417.515 351.244,417.182 334.5,417.5C 341.965,411.029 347.965,403.362 352.5,394.5 Z"/></g>
<g><path style="opacity:1" fill="#f8b4b3" d="M 215.5,417.5 C 240.053,425.231 265.22,429.565 291,430.5C 306.999,430.887 321.499,426.553 334.5,417.5C 351.244,417.182 367.911,417.515 384.5,418.5C 386.096,424.955 388.096,431.288 390.5,437.5C 325.069,436.169 259.736,436.169 194.5,437.5C 186.488,434.104 178.488,430.604 170.5,427C 167.404,424.971 165.738,422.138 165.5,418.5C 181.992,417.503 198.658,417.17 215.5,417.5 Z"/></g>
<g><path style="opacity:1" fill="#f9bab4" d="M 194.5,437.5 C 259.736,436.169 325.069,436.169 390.5,437.5C 391.486,439.426 392.486,441.426 393.5,443.5C 332.002,444.499 270.336,444.832 208.5,444.5C 203.55,442.692 198.883,440.358 194.5,437.5 Z"/></g>
<g><path style="opacity:1" fill="#f9baba" d="M 393.5,443.5 C 396.154,447.463 398.82,451.463 401.5,455.5C 342.664,455.168 283.998,455.501 225.5,456.5C 219.81,452.468 214.143,448.468 208.5,444.5C 270.336,444.832 332.002,444.499 393.5,443.5 Z"/></g>
<g><path style="opacity:1" fill="#f8c0bb" d="M 401.5,455.5 C 405.75,461.665 409.75,467.998 413.5,474.5C 379.996,474.168 346.662,474.502 313.5,475.5C 306.008,470.943 298.008,467.443 289.5,465C 270.635,462.003 251.635,460.669 232.5,461C 229.761,459.974 227.428,458.474 225.5,456.5C 283.998,455.501 342.664,455.168 401.5,455.5 Z"/></g>
<g><path style="opacity:1" fill="#f9c7c0" d="M 313.5,475.5 C 346.662,474.502 379.996,474.168 413.5,474.5C 416.414,478.658 419.081,482.991 421.5,487.5C 389.167,487.5 356.833,487.5 324.5,487.5C 321.564,482.895 317.898,478.895 313.5,475.5 Z"/></g>
</svg>
