<?xml version="1.0" encoding="UTF-8"?>
<!DOCTYPE svg PUBLIC "-//W3C//DTD SVG 1.1//EN" "http://www.w3.org/Graphics/SVG/1.1/DTD/svg11.dtd">
<svg xmlns="http://www.w3.org/2000/svg" version="1.1" width="512px" height="512px" style="shape-rendering:geometricPrecision; text-rendering:geometricPrecision; image-rendering:optimizeQuality; fill-rule:evenodd; clip-rule:evenodd" xmlns:xlink="http://www.w3.org/1999/xlink">
<g><path style="opacity:1" fill="#ee654d" d="M 64.5,43.5 C 50.9281,45.5477 37.5948,48.2144 24.5,51.5C 20.4837,41.7359 22.4837,33.2359 30.5,26C 42.1694,19.8704 52.3361,21.7037 61,31.5C 62.7348,35.3454 63.9015,39.3454 64.5,43.5 Z"/></g>
<g><path style="opacity:1" fill="#ec5e42" d="M 64.5,43.5 C 63.8902,44.391 63.5569,45.391 63.5,46.5C 60.8071,55.1929 55.1405,60.8596 46.5,63.5C 36.0142,65.2574 28.6808,61.2574 24.5,51.5C 37.5948,48.2144 50.9281,45.5477 64.5,43.5 Z"/></g>
<g><path style="opacity:1" fill="#fa4b75" d="M 333.5,100.5 C 314.599,126.478 296.266,153.478 278.5,181.5C 276.5,180.5 274.5,179.5 272.5,178.5C 267.747,158.767 270.914,140.434 282,123.5C 291.043,113.459 299.71,103.126 308,92.5C 311.603,86.2932 314.936,79.9598 318,73.5C 318.689,72.6433 319.522,71.9767 320.5,71.5C 331.15,78.4577 335.483,88.1244 333.5,100.5 Z"/></g>
<g><path style="opacity:1" fill="#4e4d7a" d="M 63.5,46.5 C 77.8142,57.4845 91.8142,68.8178 105.5,80.5C 91.5369,82.0119 77.5369,83.3452 63.5,84.5C 57.4845,77.8142 51.8178,70.8142 46.5,63.5C 55.1405,60.8596 60.8071,55.1929 63.5,46.5 Z"/></g>
<g><path style="opacity:1" fill="#fab473" d="M 177.5,75.5 C 178.084,85.5075 178.75,95.5075 179.5,105.5C 175.131,105.467 170.798,105.8 166.5,106.5C 165.792,96.1701 165.125,85.8368 164.5,75.5C 168.848,74.2463 173.182,74.2463 177.5,75.5 Z"/></g>
<g><path style="opacity:1" fill="#faad63" d="M 177.5,75.5 C 185.365,75.3664 193.032,76.533 200.5,79C 201.081,79.8926 201.415,80.8926 201.5,82C 198.693,90.1163 195.193,97.9496 191,105.5C 187.257,106.141 183.423,106.141 179.5,105.5C 178.75,95.5075 178.084,85.5075 177.5,75.5 Z"/></g>
<g><path style="opacity:1" fill="#faba80" d="M 164.5,75.5 C 165.125,85.8368 165.792,96.1701 166.5,106.5C 162.266,107.795 158.266,109.461 154.5,111.5C 154.167,111.5 153.833,111.5 153.5,111.5C 153.145,101.314 152.478,91.1473 151.5,81C 151.605,79.4085 151.939,77.9085 152.5,76.5C 156.466,75.8379 160.466,75.5045 164.5,75.5 Z"/></g>
<g><path style="opacity:1" fill="#f9c08c" d="M 152.5,76.5 C 151.939,77.9085 151.605,79.4085 151.5,81C 152.478,91.1473 153.145,101.314 153.5,111.5C 149.725,112.887 146.059,114.553 142.5,116.5C 141.188,114.257 140.522,111.59 140.5,108.5C 139.999,99.1429 139.332,89.8095 138.5,80.5C 143.061,78.8592 147.727,77.5259 152.5,76.5 Z"/></g>
<g><path style="opacity:1" fill="#f9c99d" d="M 138.5,80.5 C 139.332,89.8095 139.999,99.1429 140.5,108.5C 140.522,111.59 141.188,114.257 142.5,116.5C 137.23,120.431 132.23,124.764 127.5,129.5C 127.649,128.448 127.483,127.448 127,126.5C 119.298,118.631 111.465,110.964 103.5,103.5C 108.546,98.7836 113.546,94.1169 118.5,89.5C 124.899,85.9683 131.566,82.9683 138.5,80.5 Z"/></g>
<g><path style="opacity:1" fill="#3f3f6e" d="M 105.5,80.5 C 109.979,83.2435 114.312,86.2435 118.5,89.5C 113.546,94.1169 108.546,98.7836 103.5,103.5C 98.7836,108.546 94.1169,113.546 89.5,118.5C 80.8333,107.167 72.1667,95.8333 63.5,84.5C 77.5369,83.3452 91.5369,82.0119 105.5,80.5 Z"/></g>
<g><path style="opacity:1" fill="#fa517d" d="M 387.5,99.5 C 365.758,132.643 343.758,165.643 321.5,198.5C 316.794,200.375 311.794,201.375 306.5,201.5C 298.328,193.395 288.995,186.729 278.5,181.5C 296.266,153.478 314.599,126.478 333.5,100.5C 333.735,101.097 334.235,101.43 335,101.5C 352.465,95.8329 369.965,95.1663 387.5,99.5 Z"/></g>
<g><path style="opacity:1" fill="#f95583" d="M 387.5,99.5 C 390.216,99.6785 392.883,100.178 395.5,101C 404.955,105.73 414.622,109.896 424.5,113.5C 424.649,114.552 424.483,115.552 424,116.5C 409.945,137.048 396.112,157.715 382.5,178.5C 371.933,177.559 362.266,179.893 353.5,185.5C 343.157,190.328 332.491,194.661 321.5,198.5C 343.758,165.643 365.758,132.643 387.5,99.5 Z"/></g>
<g><path style="opacity:1" fill="#e75a38" d="M 103.5,103.5 C 111.465,110.964 119.298,118.631 127,126.5C 127.483,127.448 127.649,128.448 127.5,129.5C 121.188,136.125 115.855,143.458 111.5,151.5C 101.74,147.789 92.0737,143.789 82.5,139.5C 81.6143,138.675 81.281,137.675 81.5,136.5C 83.6345,130.234 86.3012,124.234 89.5,118.5C 94.1169,113.546 98.7836,108.546 103.5,103.5 Z"/></g>
<g><path style="opacity:1" fill="#97a7d9" d="M 153.5,111.5 C 153.833,111.5 154.167,111.5 154.5,111.5C 158.167,115.5 161.833,119.5 165.5,123.5C 151.863,137.989 139.53,152.989 128.5,168.5C 128.158,169.338 127.492,169.672 126.5,169.5C 121.833,164.167 116.833,159.167 111.5,154.5C 111.5,153.5 111.5,152.5 111.5,151.5C 115.855,143.458 121.188,136.125 127.5,129.5C 132.23,124.764 137.23,120.431 142.5,116.5C 146.059,114.553 149.725,112.887 153.5,111.5 Z"/></g>
<g><path style="opacity:1" fill="#f95888" d="M 424.5,113.5 C 433.7,116.15 443.033,116.817 452.5,115.5C 451.238,127.941 444.572,136.108 432.5,140C 438.376,143.947 442.709,149.113 445.5,155.5C 432.08,175.341 418.413,195.008 404.5,214.5C 404.084,211.417 403.417,208.417 402.5,205.5C 401.246,201.824 399.579,198.324 397.5,195C 402.895,194.903 408.228,195.236 413.5,196C 405.232,186.532 394.899,180.699 382.5,178.5C 396.112,157.715 409.945,137.048 424,116.5C 424.483,115.552 424.649,114.552 424.5,113.5 Z"/></g>
<g><path style="opacity:1" fill="#95a2d9" d="M 165.5,123.5 C 175.467,131.8 184.801,140.8 193.5,150.5C 170.77,152.7 149.104,158.7 128.5,168.5C 139.53,152.989 151.863,137.989 165.5,123.5 Z"/></g>
<g><path style="opacity:1" fill="#ed654d" d="M 81.5,136.5 C 81.281,137.675 81.6143,138.675 82.5,139.5C 92.0737,143.789 101.74,147.789 111.5,151.5C 111.5,152.5 111.5,153.5 111.5,154.5C 109.64,158.083 107.973,161.749 106.5,165.5C 96.9414,161.22 87.2748,157.22 77.5,153.5C 77.5,152.5 77.5,151.5 77.5,150.5C 77.9205,145.471 79.2538,140.805 81.5,136.5 Z"/></g>
<g><path style="opacity:1" fill="#e6ecf9" d="M 193.5,150.5 C 202.167,158.5 210.5,166.833 218.5,175.5C 208.844,178.666 199.177,182.166 189.5,186C 182.068,189.632 175.068,193.799 168.5,198.5C 166.77,199.026 165.436,200.026 164.5,201.5C 162.95,202.441 161.284,203.107 159.5,203.5C 148.5,192.167 137.5,180.833 126.5,169.5C 127.492,169.672 128.158,169.338 128.5,168.5C 149.104,158.7 170.77,152.7 193.5,150.5 Z"/></g>
<g><path style="opacity:1" fill="#f95c8f" d="M 445.5,155.5 C 452.074,166.126 455.074,177.793 454.5,190.5C 454.431,196.206 453.931,201.873 453,207.5C 448.884,221.413 446.051,235.58 444.5,250C 445.256,253.125 445.589,256.291 445.5,259.5C 431.912,268.795 419.745,267.129 409,254.5C 407.275,251.326 405.942,247.993 405,244.5C 404.5,234.506 404.334,224.506 404.5,214.5C 418.413,195.008 432.08,175.341 445.5,155.5 Z"/></g>
<g><path style="opacity:1" fill="#f36d5b" d="M 77.5,150.5 C 77.5,151.5 77.5,152.5 77.5,153.5C 87.2748,157.22 96.9414,161.22 106.5,165.5C 105.873,170.141 105.54,174.807 105.5,179.5C 95.6699,174.779 85.6699,170.445 75.5,166.5C 75.2549,160.916 75.9216,155.583 77.5,150.5 Z"/></g>
<g><path style="opacity:1" fill="#f9e0c1" d="M 272.5,178.5 C 274.5,179.5 276.5,180.5 278.5,181.5C 288.995,186.729 298.328,193.395 306.5,201.5C 320.971,221.063 329.471,243.063 332,267.5C 333.182,276.796 333.682,286.13 333.5,295.5C 278.665,262.915 223.665,230.581 168.5,198.5C 175.068,193.799 182.068,189.632 189.5,186C 199.177,182.166 208.844,178.666 218.5,175.5C 236.772,171.411 254.772,172.411 272.5,178.5 Z"/></g>
<g><path style="opacity:1" fill="#f8766a" d="M 75.5,166.5 C 85.6699,170.445 95.6699,174.779 105.5,179.5C 106.141,183.423 106.141,187.257 105.5,191C 98.6214,194.606 91.6214,197.939 84.5,201C 82.8333,201.667 81.1667,201.667 79.5,201C 76.3717,191.463 74.7051,181.629 74.5,171.5C 74.5068,169.631 74.8401,167.964 75.5,166.5 Z"/></g>
<g><path style="opacity:1" fill="#bc0151" d="M 382.5,178.5 C 394.899,180.699 405.232,186.532 413.5,196C 408.228,195.236 402.895,194.903 397.5,195C 399.579,198.324 401.246,201.824 402.5,205.5C 401.504,205.414 400.671,205.748 400,206.5C 394.723,214.08 389.223,221.414 383.5,228.5C 387.954,210.936 382.621,197.436 367.5,188C 363,186.208 358.333,185.375 353.5,185.5C 362.266,179.893 371.933,177.559 382.5,178.5 Z"/></g>
<g><path style="opacity:1" fill="#f9e0bb" d="M 168.5,198.5 C 223.665,230.581 278.665,262.915 333.5,295.5C 333.5,298.167 333.5,300.833 333.5,303.5C 277.333,269.249 220.999,235.249 164.5,201.5C 165.436,200.026 166.77,199.026 168.5,198.5 Z"/></g>
<g><path style="opacity:1" fill="#f9dabb" d="M 164.5,201.5 C 220.999,235.249 277.333,269.249 333.5,303.5C 333.795,313.95 333.128,324.283 331.5,334.5C 267.995,297.585 204.995,259.918 142.5,221.5C 147.491,214.843 153.157,208.843 159.5,203.5C 161.284,203.107 162.95,202.441 164.5,201.5 Z"/></g>
<g><path style="opacity:1" fill="#ba004b" d="M 402.5,205.5 C 403.417,208.417 404.084,211.417 404.5,214.5C 404.334,224.506 404.5,234.506 405,244.5C 405.942,247.993 407.275,251.326 409,254.5C 419.745,267.129 431.912,268.795 445.5,259.5C 446.167,261.167 446.833,262.833 447.5,264.5C 435.482,278.71 424.316,293.71 414,309.5C 413.184,310.823 412.017,311.489 410.5,311.5C 387.836,303.791 376.836,287.791 377.5,263.5C 377.961,251.531 379.961,239.865 383.5,228.5C 389.223,221.414 394.723,214.08 400,206.5C 400.671,205.748 401.504,205.414 402.5,205.5 Z"/></g>
<g><path style="opacity:1" fill="#f9d3b5" d="M 142.5,221.5 C 204.995,259.918 267.995,297.585 331.5,334.5C 331.21,340.867 330.543,347.2 329.5,353.5C 329.875,359.432 331.208,365.098 333.5,370.5C 298.423,349.119 263.09,327.952 227.5,307C 225.365,306.124 224.031,304.624 223.5,302.5C 223.5,301.833 223.5,301.167 223.5,300.5C 225.666,292.367 226.666,284.201 226.5,276C 223.053,275.808 219.72,276.475 216.5,278C 211.898,279.867 207.232,281.534 202.5,283C 201.058,283.377 200.058,284.21 199.5,285.5C 197.035,285.767 194.701,286.434 192.5,287.5C 192.586,286.504 192.252,285.671 191.5,285C 169.937,272.392 148.604,259.559 127.5,246.5C 130.729,237.03 135.729,228.697 142.5,221.5 Z"/></g>
<g><path style="opacity:1" fill="#f3ceb0" d="M 127.5,246.5 C 148.604,259.559 169.937,272.392 191.5,285C 192.252,285.671 192.586,286.504 192.5,287.5C 181.488,291.504 170.488,295.504 159.5,299.5C 146.15,291.806 132.816,284.139 119.5,276.5C 120.029,265.823 122.696,255.823 127.5,246.5 Z"/></g>
<g><path style="opacity:1" fill="#b50044" d="M 447.5,264.5 C 449.254,270.175 452.587,274.675 457.5,278C 465.042,281.737 473.042,283.404 481.5,283C 482.554,284.388 482.72,285.888 482,287.5C 467.051,308.109 446.884,317.276 421.5,315C 417.509,314.502 413.842,313.335 410.5,311.5C 412.017,311.489 413.184,310.823 414,309.5C 424.316,293.71 435.482,278.71 447.5,264.5 Z"/></g>
<g><path style="opacity:1" fill="#f3c8ad" d="M 119.5,276.5 C 132.816,284.139 146.15,291.806 159.5,299.5C 147.257,304.95 134.923,310.45 122.5,316C 118.517,317.248 116.183,315.914 115.5,312C 116.687,300.101 118.02,288.268 119.5,276.5 Z"/></g>
<g><path style="opacity:1" fill="#ad6069" d="M 223.5,300.5 C 215.438,298.035 207.438,295.368 199.5,292.5C 199.5,290.167 199.5,287.833 199.5,285.5C 200.058,284.21 201.058,283.377 202.5,283C 207.232,281.534 211.898,279.867 216.5,278C 219.72,276.475 223.053,275.808 226.5,276C 226.666,284.201 225.666,292.367 223.5,300.5 Z"/></g>
<g><path style="opacity:1" fill="#f3cdb4" d="M 223.5,302.5 C 224.031,304.624 225.365,306.124 227.5,307C 263.09,327.952 298.423,349.119 333.5,370.5C 335.029,373.754 336.362,377.087 337.5,380.5C 299.39,358.275 261.39,335.775 223.5,313C 222.552,312.517 221.552,312.351 220.5,312.5C 221.13,308.952 222.13,305.619 223.5,302.5 Z"/></g>
<g><path style="opacity:1" fill="#a0535e" d="M 199.5,292.5 C 207.438,295.368 215.438,298.035 223.5,300.5C 223.5,301.167 223.5,301.833 223.5,302.5C 222.13,305.619 221.13,308.952 220.5,312.5C 218.406,317.685 216.072,322.685 213.5,327.5C 213.5,326.5 213.5,325.5 213.5,324.5C 208.832,323.111 204.165,321.611 199.5,320C 197.65,319.31 196.316,318.144 195.5,316.5C 197.992,308.705 199.325,300.705 199.5,292.5 Z"/></g>
<g><path style="opacity:1" fill="#f2cdaf" d="M 220.5,312.5 C 221.552,312.351 222.552,312.517 223.5,313C 261.39,335.775 299.39,358.275 337.5,380.5C 339.474,386.893 338.474,392.727 334.5,398C 332.783,399.559 330.783,400.392 328.5,400.5C 289.465,377.655 250.799,354.322 212.5,330.5C 213.11,329.609 213.443,328.609 213.5,327.5C 216.072,322.685 218.406,317.685 220.5,312.5 Z"/></g>
<g><path style="opacity:1" fill="#974753" d="M 195.5,316.5 C 196.316,318.144 197.65,319.31 199.5,320C 204.165,321.611 208.832,323.111 213.5,324.5C 213.5,325.5 213.5,326.5 213.5,327.5C 213.443,328.609 213.11,329.609 212.5,330.5C 208.559,336.774 203.892,342.44 198.5,347.5C 194.628,349.597 190.961,351.931 187.5,354.5C 176.995,359.888 166.329,364.888 155.5,369.5C 152.296,370.901 148.963,371.901 145.5,372.5C 169.544,360.454 186.211,341.787 195.5,316.5 Z"/></g>
<g><path style="opacity:1" fill="#f2c7ae" d="M 212.5,330.5 C 250.799,354.322 289.465,377.655 328.5,400.5C 317.321,402.317 305.987,403.984 294.5,405.5C 294.586,404.504 294.252,403.671 293.5,403C 262.107,383.972 230.44,365.472 198.5,347.5C 203.892,342.44 208.559,336.774 212.5,330.5 Z"/></g>
<g><path style="opacity:1" fill="#d5e1fa" d="M 399.5,352.5 C 387.169,368.49 374.169,383.823 360.5,398.5C 352.554,371.909 352.554,345.409 360.5,319C 362.167,318.333 363.833,318.333 365.5,319C 377.339,329.672 388.672,340.839 399.5,352.5 Z"/></g>
<g><path style="opacity:1" fill="#f2c7a7" d="M 198.5,347.5 C 230.44,365.472 262.107,383.972 293.5,403C 294.252,403.671 294.586,404.504 294.5,405.5C 287.499,406.834 280.499,408.167 273.5,409.5C 273.918,408.778 274.584,408.278 275.5,408C 245.54,390.869 216.206,373.036 187.5,354.5C 190.961,351.931 194.628,349.597 198.5,347.5 Z"/></g>
<g><path style="opacity:1" fill="#f2c0a6" d="M 187.5,354.5 C 216.206,373.036 245.54,390.869 275.5,408C 274.584,408.278 273.918,408.778 273.5,409.5C 261.848,412.828 250.182,416.161 238.5,419.5C 210.3,403.573 182.633,386.906 155.5,369.5C 166.329,364.888 176.995,359.888 187.5,354.5 Z"/></g>
<g><path style="opacity:1" fill="#cfdafa" d="M 399.5,352.5 C 407.833,360.167 415.833,368.167 423.5,376.5C 409.841,394.207 395.508,411.207 380.5,427.5C 375.869,423.37 371.369,419.037 367,414.5C 363.956,409.538 361.789,404.204 360.5,398.5C 374.169,383.823 387.169,368.49 399.5,352.5 Z"/></g>
<g><path style="opacity:1" fill="#edbaa2" d="M 155.5,369.5 C 182.633,386.906 210.3,403.573 238.5,419.5C 227.234,424.126 215.901,428.793 204.5,433.5C 177.833,417.167 151.167,400.833 124.5,384.5C 130.677,379.239 137.677,375.239 145.5,372.5C 148.963,371.901 152.296,370.901 155.5,369.5 Z"/></g>
<g><path style="opacity:1" fill="#c8d4fa" d="M 423.5,376.5 C 432.467,383.799 440.8,391.799 448.5,400.5C 434.408,417.769 420.074,434.935 405.5,452C 406.252,452.671 406.586,453.504 406.5,454.5C 397.133,446.134 388.466,437.134 380.5,427.5C 395.508,411.207 409.841,394.207 423.5,376.5 Z"/></g>
<g><path style="opacity:1" fill="#edb59c" d="M 124.5,384.5 C 151.167,400.833 177.833,417.167 204.5,433.5C 194.566,438.802 184.566,444.136 174.5,449.5C 153.814,436.733 132.98,424.067 112,411.5C 111.722,412.416 111.222,413.082 110.5,413.5C 109.583,401.004 114.249,391.338 124.5,384.5 Z"/></g>
<g><path style="opacity:1" fill="#c2cef9" d="M 448.5,400.5 C 456.833,408.167 464.833,416.167 472.5,424.5C 457.788,441.877 443.454,459.544 429.5,477.5C 421.5,470.167 413.833,462.5 406.5,454.5C 406.586,453.504 406.252,452.671 405.5,452C 420.074,434.935 434.408,417.769 448.5,400.5 Z"/></g>
<g><path style="opacity:1" fill="#ecaf97" d="M 174.5,449.5 C 163.497,455.666 152.83,462.333 142.5,469.5C 131.954,462.393 120.954,456.06 109.5,450.5C 109.206,438.117 109.54,425.783 110.5,413.5C 111.222,413.082 111.722,412.416 112,411.5C 132.98,424.067 153.814,436.733 174.5,449.5 Z"/></g>
<g><path style="opacity:1" fill="#bac7f9" d="M 472.5,424.5 C 477.96,428.456 482.126,433.456 485,439.5C 486.871,455.775 488.038,472.108 488.5,488.5C 472.117,487.975 455.784,486.808 439.5,485C 435.238,483.706 431.905,481.206 429.5,477.5C 443.454,459.544 457.788,441.877 472.5,424.5 Z"/></g>
<g><path style="opacity:1" fill="#e7a894" d="M 109.5,450.5 C 120.954,456.06 131.954,462.393 142.5,469.5C 136.377,473.783 130.377,478.283 124.5,483C 115.286,484.388 107.953,481.388 102.5,474C 105.788,466.316 108.121,458.483 109.5,450.5 Z"/></g>
</svg>
