<?xml version="1.0" encoding="UTF-8"?>
<!DOCTYPE svg PUBLIC "-//W3C//DTD SVG 1.1//EN" "http://www.w3.org/Graphics/SVG/1.1/DTD/svg11.dtd">
<svg xmlns="http://www.w3.org/2000/svg" version="1.1" width="512px" height="512px" style="shape-rendering:geometricPrecision; text-rendering:geometricPrecision; image-rendering:optimizeQuality; fill-rule:evenodd; clip-rule:evenodd" xmlns:xlink="http://www.w3.org/1999/xlink">
<g><path style="opacity:1" fill="#39394c" d="M 61.5,28.5 C 63.1789,28.8923 64.8455,29.3923 66.5,30C 83.9804,53.7524 107.314,68.4191 136.5,74C 152.045,76.6896 167.712,78.023 183.5,78C 189.113,79.2822 193.28,82.4488 196,87.5C 204.258,109.275 211.925,131.275 219,153.5C 219.519,154.516 220.353,155.182 221.5,155.5C 244.33,148.915 267.163,148.915 290,155.5C 290.5,155.167 291,154.833 291.5,154.5C 298.84,131.978 306.674,109.645 315,87.5C 317.222,83.6119 320.388,80.7786 324.5,79C 337.117,77.7787 349.783,76.7787 362.5,76C 383.922,73.1948 403.589,65.8615 421.5,54C 430.097,44.8981 439.097,36.3981 448.5,28.5C 455.522,33.3551 461.355,39.3551 466,46.5C 492.271,86.2578 498.271,128.925 484,174.5C 471.899,204.605 452.399,228.771 425.5,247C 419.798,250.105 416.298,248.605 415,242.5C 414.473,224.253 409.139,207.586 399,192.5C 383.736,173.398 365.569,157.731 344.5,145.5C 340.135,154.905 336.135,164.572 332.5,174.5C 332.529,176.029 333.196,177.196 334.5,178C 369.564,206.31 386.064,243.143 384,288.5C 381.898,317.834 371.065,343.334 351.5,365C 368.952,387.736 381.785,412.903 390,440.5C 392.181,456.302 387.015,469.136 374.5,479C 365.226,483.814 356.726,482.648 349,475.5C 344.21,462.134 339.21,448.8 334,435.5C 327.781,421.395 320.781,407.729 313,394.5C 286.084,407.63 257.918,411.13 228.5,405C 217.469,402.546 206.969,398.713 197,393.5C 190.3,403.564 184.633,414.231 180,425.5C 173.589,442.07 167.589,458.736 162,475.5C 154.274,482.648 145.774,483.814 136.5,479C 121.546,466.581 117.046,451.081 123,432.5C 131.786,407.922 143.953,385.256 159.5,364.5C 127.199,325.036 119.365,281.036 136,232.5C 145.087,209.488 159.587,190.655 179.5,176C 175.259,165.697 170.926,155.53 166.5,145.5C 143.356,159.144 123.856,176.811 108,198.5C 100.544,211.869 96.5436,226.202 96,241.5C 96.0437,247.458 93.2104,249.625 87.5,248C 30.1109,209.358 9.27754,156.192 25,88.5C 31.8981,64.9901 44.0648,44.9901 61.5,28.5 Z"/></g>
<g><path style="opacity:1" fill="#eaebf8" d="M 69.5,111.5 C 56.7354,112.821 44.0687,112.821 31.5,111.5C 34.5315,85.1123 44.8648,62.1123 62.5,42.5C 68.8333,49.5 75.5,56.1667 82.5,62.5C 75.0009,77.9963 70.6676,94.3296 69.5,111.5 Z"/></g>
<g><path style="opacity:1" fill="#eaebf8" d="M 479.5,111.5 C 467.345,112.495 455.011,112.829 442.5,112.5C 442.167,112.5 441.833,112.5 441.5,112.5C 440.462,94.9757 436.129,78.309 428.5,62.5C 435.5,56.1667 442.167,49.5 448.5,42.5C 466.135,62.1123 476.469,85.1123 479.5,111.5 Z"/></g>
<g><path style="opacity:1" fill="#7c7ca8" d="M 188.5,98.5 C 152.833,98.5 117.167,98.5 81.5,98.5C 81.7678,100.099 81.4345,101.432 80.5,102.5C 81.963,91.0243 85.1297,80.0243 90,69.5C 90.5613,68.9781 91.228,68.6448 92,68.5C 119.653,83.0321 149.153,89.5321 180.5,88C 185.457,89.7445 188.124,93.2445 188.5,98.5 Z"/></g>
<g><path style="opacity:1" fill="#7c7ca7" d="M 430.5,101.5 C 429.596,100.791 429.263,99.791 429.5,98.5C 393.833,98.5 358.167,98.5 322.5,98.5C 322.876,93.2445 325.543,89.7445 330.5,88C 361.775,89.2796 391.275,82.7796 419,68.5C 419.772,68.6448 420.439,68.9781 421,69.5C 425.686,79.7232 428.852,90.3899 430.5,101.5 Z"/></g>
<g><path style="opacity:1" fill="#7575a7" d="M 188.5,98.5 C 189.738,100.214 190.405,102.214 190.5,104.5C 153.833,104.5 117.167,104.5 80.5,104.5C 80.5,103.833 80.5,103.167 80.5,102.5C 81.4345,101.432 81.7678,100.099 81.5,98.5C 117.167,98.5 152.833,98.5 188.5,98.5 Z"/></g>
<g><path style="opacity:1" fill="#7575a7" d="M 322.5,98.5 C 358.167,98.5 393.833,98.5 429.5,98.5C 429.263,99.791 429.596,100.791 430.5,101.5C 430.5,102.167 430.5,102.833 430.5,103.5C 394.004,104.498 357.337,104.832 320.5,104.5C 320.595,102.214 321.262,100.214 322.5,98.5 Z"/></g>
<g><path style="opacity:1" fill="#7575a1" d="M 80.5,104.5 C 117.167,104.5 153.833,104.5 190.5,104.5C 192.734,108.522 194.401,112.856 195.5,117.5C 156.906,116.506 118.239,116.173 79.5,116.5C 79.3946,112.452 79.7279,108.452 80.5,104.5 Z"/></g>
<g><path style="opacity:1" fill="#7575a1" d="M 430.5,103.5 C 431.485,107.634 431.818,111.968 431.5,116.5C 392.996,116.832 354.663,116.499 316.5,115.5C 317.065,111.463 318.399,107.797 320.5,104.5C 357.337,104.832 394.004,104.498 430.5,103.5 Z"/></g>
<g><path style="opacity:1" fill="#dee6f9" d="M 31.5,111.5 C 44.0687,112.821 56.7354,112.821 69.5,111.5C 69.5,112.167 69.5,112.833 69.5,113.5C 68.5166,117.298 68.1832,121.298 68.5,125.5C 55.8333,125.5 43.1667,125.5 30.5,125.5C 30.5,122.833 30.5,120.167 30.5,117.5C 30.2053,115.265 30.5386,113.265 31.5,111.5 Z"/></g>
<g><path style="opacity:1" fill="#dee6f9" d="M 479.5,111.5 C 480.486,115.97 480.819,120.637 480.5,125.5C 467.833,125.5 455.167,125.5 442.5,125.5C 442.5,121.167 442.5,116.833 442.5,112.5C 455.011,112.829 467.345,112.495 479.5,111.5 Z"/></g>
<g><path style="opacity:1" fill="#6f6fa1" d="M 79.5,116.5 C 118.239,116.173 156.906,116.506 195.5,117.5C 196.038,119.117 196.371,120.784 196.5,122.5C 194.5,122.833 192.5,123.167 190.5,123.5C 153.5,123.5 116.5,123.5 79.5,123.5C 79.5,121.167 79.5,118.833 79.5,116.5 Z"/></g>
<g><path style="opacity:1" fill="#6f6fa1" d="M 316.5,115.5 C 354.663,116.499 392.996,116.832 431.5,116.5C 431.5,118.833 431.5,121.167 431.5,123.5C 394.167,123.5 356.833,123.5 319.5,123.5C 317.023,123.949 315.023,123.283 313.5,121.5C 314.519,119.396 315.519,117.396 316.5,115.5 Z"/></g>
<g><path style="opacity:1" fill="#6f6f9b" d="M 79.5,123.5 C 116.5,123.5 153.5,123.5 190.5,123.5C 180.253,127.035 170.253,131.368 160.5,136.5C 134.005,135.502 107.339,135.169 80.5,135.5C 79.8379,131.534 79.5045,127.534 79.5,123.5 Z"/></g>
<g><path style="opacity:1" fill="#6f6f9b" d="M 319.5,123.5 C 356.833,123.5 394.167,123.5 431.5,123.5C 430.979,127.481 430.646,131.481 430.5,135.5C 403.661,135.169 376.995,135.502 350.5,136.5C 340.438,131.296 330.105,126.963 319.5,123.5 Z"/></g>
<g><path style="opacity:1" fill="#f69887" d="M 195.5,132.5 C 197.467,132.261 199.301,132.594 201,133.5C 204.131,141.727 206.965,150.061 209.5,158.5C 202.852,162.583 196.019,166.583 189,170.5C 184.642,160.431 180.476,150.264 176.5,140C 182.712,136.989 189.046,134.489 195.5,132.5 Z"/></g>
<g><path style="opacity:1" fill="#f69887" d="M 309.5,132.5 C 318.19,133.673 326.523,136.173 334.5,140C 330.336,149.659 326.67,159.492 323.5,169.5C 316.167,166.5 308.833,163.5 301.5,160.5C 303.962,151.114 306.628,141.781 309.5,132.5 Z"/></g>
<g><path style="opacity:1" fill="#ccdcf5" d="M 69.5,113.5 C 69.4151,122.894 70.0818,132.227 71.5,141.5C 57.8333,141.5 44.1667,141.5 30.5,141.5C 29.326,133.347 29.326,125.347 30.5,117.5C 30.5,120.167 30.5,122.833 30.5,125.5C 43.1667,125.5 55.8333,125.5 68.5,125.5C 68.1832,121.298 68.5166,117.298 69.5,113.5 Z"/></g>
<g><path style="opacity:1" fill="#cedff8" d="M 441.5,112.5 C 441.833,112.5 442.167,112.5 442.5,112.5C 442.5,116.833 442.5,121.167 442.5,125.5C 455.167,125.5 467.833,125.5 480.5,125.5C 480.5,130.833 480.5,136.167 480.5,141.5C 466.833,141.5 453.167,141.5 439.5,141.5C 440.955,131.895 441.621,122.228 441.5,112.5 Z"/></g>
<g><path style="opacity:1" fill="#69699b" d="M 80.5,135.5 C 107.339,135.169 134.005,135.502 160.5,136.5C 156.5,138.833 152.5,141.167 148.5,143.5C 126.673,142.503 104.673,142.169 82.5,142.5C 81.3882,140.401 80.7215,138.067 80.5,135.5 Z"/></g>
<g><path style="opacity:1" fill="#69699b" d="M 350.5,136.5 C 376.995,135.502 403.661,135.169 430.5,135.5C 429.935,137.952 429.268,140.285 428.5,142.5C 406.167,142.5 383.833,142.5 361.5,142.5C 357.7,140.766 354.034,138.766 350.5,136.5 Z"/></g>
<g><path style="opacity:1" fill="#c5d8f8" d="M 30.5,141.5 C 44.1667,141.5 57.8333,141.5 71.5,141.5C 72.9448,144.937 73.9448,148.603 74.5,152.5C 60.8733,154.482 46.8733,155.149 32.5,154.5C 31.7524,150.188 31.0857,145.854 30.5,141.5 Z"/></g>
<g><path style="opacity:1" fill="#c5d8f8" d="M 439.5,141.5 C 453.167,141.5 466.833,141.5 480.5,141.5C 479.833,146.167 479.167,150.833 478.5,155.5C 464.204,155.187 450.204,154.187 436.5,152.5C 437.055,148.603 438.055,144.937 439.5,141.5 Z"/></g>
<g><path style="opacity:1" fill="#696995" d="M 82.5,142.5 C 104.673,142.169 126.673,142.503 148.5,143.5C 143.858,147.136 139.191,150.803 134.5,154.5C 118.5,153.167 102.5,153.167 86.5,154.5C 84.5947,150.784 83.2613,146.784 82.5,142.5 Z"/></g>
<g><path style="opacity:1" fill="#696995" d="M 361.5,142.5 C 383.833,142.5 406.167,142.5 428.5,142.5C 427.739,146.784 426.405,150.784 424.5,154.5C 408.5,153.167 392.5,153.167 376.5,154.5C 371.476,150.47 366.476,146.47 361.5,142.5 Z"/></g>
<g><path style="opacity:1" fill="#bbcff9" d="M 74.5,152.5 C 76.7358,157.32 78.7358,162.32 80.5,167.5C 65.8333,167.5 51.1667,167.5 36.5,167.5C 34.7968,163.383 33.4634,159.05 32.5,154.5C 46.8733,155.149 60.8733,154.482 74.5,152.5 Z"/></g>
<g><path style="opacity:1" fill="#b9ccf2" d="M 265.5,162.5 C 242.709,166.864 220.042,171.864 197.5,177.5C 218.426,164.602 241.093,159.602 265.5,162.5 Z"/></g>
<g><path style="opacity:1" fill="#bbcef8" d="M 436.5,152.5 C 450.204,154.187 464.204,155.187 478.5,155.5C 477.458,159.697 476.125,163.697 474.5,167.5C 459.833,167.5 445.167,167.5 430.5,167.5C 432.264,162.32 434.264,157.32 436.5,152.5 Z"/></g>
<g><path style="opacity:1" fill="#c5d9f9" d="M 265.5,162.5 C 274.615,162.461 283.281,164.127 291.5,167.5C 252.468,176.341 213.468,185.341 174.5,194.5C 181.268,187.616 188.934,181.95 197.5,177.5C 220.042,171.864 242.709,166.864 265.5,162.5 Z"/></g>
<g><path style="opacity:1" fill="#626290" d="M 134.5,154.5 C 123.503,163.331 113.669,173.331 105,184.5C 96.5679,175.9 90.4012,165.9 86.5,154.5C 102.5,153.167 118.5,153.167 134.5,154.5 Z"/></g>
<g><path style="opacity:1" fill="#626290" d="M 376.5,154.5 C 392.5,153.167 408.5,153.167 424.5,154.5C 420.599,165.9 414.432,175.9 406,184.5C 397.331,173.331 387.497,163.331 376.5,154.5 Z"/></g>
<g><path style="opacity:1" fill="#b9c7f9" d="M 36.5,167.5 C 51.1667,167.5 65.8333,167.5 80.5,167.5C 81.7368,168.965 82.7368,170.632 83.5,172.5C 68.676,173.496 53.676,173.829 38.5,173.5C 37.2702,171.703 36.6036,169.703 36.5,167.5 Z"/></g>
<g><path style="opacity:1" fill="#cedef7" d="M 291.5,167.5 C 298.387,169.013 304.72,171.68 310.5,175.5C 299.74,178.774 288.74,181.608 277.5,184C 278.056,184.383 278.389,184.883 278.5,185.5C 246.912,178.947 218.579,185.613 193.5,205.5C 193.265,204.903 192.765,204.57 192,204.5C 181.132,207.092 170.299,209.759 159.5,212.5C 163.549,205.752 168.549,199.752 174.5,194.5C 213.468,185.341 252.468,176.341 291.5,167.5 Z"/></g>
<g><path style="opacity:1" fill="#b9c7f9" d="M 430.5,167.5 C 445.167,167.5 459.833,167.5 474.5,167.5C 474.396,169.703 473.73,171.703 472.5,173.5C 457.324,173.829 442.324,173.496 427.5,172.5C 428.11,170.566 429.11,168.899 430.5,167.5 Z"/></g>
<g><path style="opacity:1" fill="#b4bcf8" d="M 83.5,172.5 C 86.1535,176.463 88.8202,180.463 91.5,184.5C 75.8333,185.167 60.1667,185.833 44.5,186.5C 41.743,182.584 39.743,178.25 38.5,173.5C 53.676,173.829 68.676,173.496 83.5,172.5 Z"/></g>
<g><path style="opacity:1" fill="#b4bcf8" d="M 427.5,172.5 C 442.324,173.496 457.324,173.829 472.5,173.5C 471.222,177.667 469.556,181.667 467.5,185.5C 451.325,185.83 435.325,185.496 419.5,184.5C 422.18,180.463 424.846,176.463 427.5,172.5 Z"/></g>
<g><path style="opacity:1" fill="#3b3a4d" d="M 278.5,185.5 C 324.693,199.885 349.36,231.219 352.5,279.5C 351.992,287.567 350.992,295.567 349.5,303.5C 347.112,311.317 344.112,318.983 340.5,326.5C 336.669,332.816 332.335,338.816 327.5,344.5C 317.508,354.506 306.175,362.506 293.5,368.5C 283.801,372.091 273.801,374.425 263.5,375.5C 255.826,375.666 248.159,375.5 240.5,375C 233.493,373.161 226.493,371.328 219.5,369.5C 212.345,365.756 205.345,361.756 198.5,357.5C 192.526,351.861 186.526,346.195 180.5,340.5C 177.412,335.32 174.078,330.32 170.5,325.5C 168.499,320.495 166.499,315.495 164.5,310.5C 163.009,304.87 161.676,299.203 160.5,293.5C 159.617,288.897 159.283,284.23 159.5,279.5C 160.063,249.718 171.396,225.051 193.5,205.5C 218.579,185.613 246.912,178.947 278.5,185.5 Z"/></g>
<g><path style="opacity:1" fill="#aeb0f9" d="M 91.5,184.5 C 93.433,186.937 95.5997,189.271 98,191.5C 98.4094,193.695 97.9094,195.695 96.5,197.5C 81.5,197.5 66.5,197.5 51.5,197.5C 48.4208,194.35 46.0875,190.683 44.5,186.5C 60.1667,185.833 75.8333,185.167 91.5,184.5 Z"/></g>
<g><path style="opacity:1" fill="#e8eaf7" d="M 310.5,175.5 C 345.486,194.071 366.319,223.071 373,262.5C 373.499,268.157 373.666,273.824 373.5,279.5C 366.5,279.5 359.5,279.5 352.5,279.5C 349.36,231.219 324.693,199.885 278.5,185.5C 278.389,184.883 278.056,184.383 277.5,184C 288.74,181.608 299.74,178.774 310.5,175.5 Z"/></g>
<g><path style="opacity:1" fill="#aeb0f8" d="M 419.5,184.5 C 435.325,185.496 451.325,185.83 467.5,185.5C 465.316,189.881 462.65,193.881 459.5,197.5C 444.657,197.171 429.99,197.504 415.5,198.5C 414.14,196.954 413.14,195.12 412.5,193C 414.684,189.988 417.017,187.155 419.5,184.5 Z"/></g>
<g><path style="opacity:1" fill="#f97c70" d="M 249.5,193.5 C 249.5,199.833 249.5,206.167 249.5,212.5C 237.767,222.239 225.767,231.573 213.5,240.5C 213.5,228.5 213.5,216.5 213.5,204.5C 224.447,197.631 236.447,193.964 249.5,193.5 Z"/></g>
<g><path style="opacity:1" fill="#f8756a" d="M 263.5,193.5 C 276.768,194.701 289.101,198.701 300.5,205.5C 300.5,208.833 300.5,212.167 300.5,215.5C 288.541,224.954 276.707,234.621 265,244.5C 264.238,248.587 264.404,252.587 265.5,256.5C 264.508,256.672 263.842,256.338 263.5,255.5C 263.5,234.833 263.5,214.167 263.5,193.5 Z"/></g>
<g><path style="opacity:1" fill="#a9a7f8" d="M 51.5,197.5 C 66.5,197.5 81.5,197.5 96.5,197.5C 95.134,200.232 93.8007,202.899 92.5,205.5C 86.8725,204.171 80.8725,203.504 74.5,203.5C 68.3238,203.5 62.3238,203.834 56.5,204.5C 54.1,202.704 52.4333,200.37 51.5,197.5 Z"/></g>
<g><path style="opacity:1" fill="#a9a7f9" d="M 459.5,197.5 C 458.567,200.37 456.9,202.704 454.5,204.5C 442.345,203.505 430.011,203.171 417.5,203.5C 416.559,201.95 415.893,200.284 415.5,198.5C 429.99,197.504 444.657,197.171 459.5,197.5 Z"/></g>
<g><path style="opacity:1" fill="#a69cf7" d="M 92.5,205.5 C 89.4064,214.632 87.0731,223.965 85.5,233.5C 74.1244,225.458 64.4577,215.791 56.5,204.5C 62.3238,203.834 68.3238,203.5 74.5,203.5C 80.8725,203.504 86.8725,204.171 92.5,205.5 Z"/></g>
<g><path style="opacity:1" fill="#a69bf7" d="M 417.5,203.5 C 430.011,203.171 442.345,203.505 454.5,204.5C 446.542,215.791 436.876,225.458 425.5,233.5C 424.076,223.133 421.409,213.133 417.5,203.5 Z"/></g>
<g><path style="opacity:1" fill="#c2505e" d="M 249.5,193.5 C 254.167,193.5 258.833,193.5 263.5,193.5C 263.5,214.167 263.5,234.833 263.5,255.5C 258.77,254.484 254.104,254.484 249.5,255.5C 249.5,241.167 249.5,226.833 249.5,212.5C 249.5,206.167 249.5,199.833 249.5,193.5 Z"/></g>
<g><path style="opacity:1" fill="#bf4e5b" d="M 300.5,205.5 C 305.765,208.435 310.432,212.101 314.5,216.5C 314.5,233.833 314.5,251.167 314.5,268.5C 310.167,268.5 305.833,268.5 301.5,268.5C 301.825,275.687 301.491,282.687 300.5,289.5C 300.5,287.167 300.5,284.833 300.5,282.5C 300.5,276.833 300.5,271.167 300.5,265.5C 300.5,248.833 300.5,232.167 300.5,215.5C 300.5,212.167 300.5,208.833 300.5,205.5 Z"/></g>
<g><path style="opacity:1" fill="#e8eaf8" d="M 193.5,205.5 C 171.396,225.051 160.063,249.718 159.5,279.5C 152.5,279.5 145.5,279.5 138.5,279.5C 137.695,254.588 144.695,232.254 159.5,212.5C 170.299,209.759 181.132,207.092 192,204.5C 192.765,204.57 193.265,204.903 193.5,205.5 Z"/></g>
<g><path style="opacity:1" fill="#f77c70" d="M 198.5,215.5 C 198.667,228.171 198.5,240.838 198,253.5C 188.915,261.759 179.415,269.426 169.5,276.5C 170.326,251.852 179.993,231.519 198.5,215.5 Z"/></g>
<g><path style="opacity:1" fill="#f9746b" d="M 249.5,212.5 C 249.5,226.833 249.5,241.167 249.5,255.5C 234.07,261.359 228.403,272.359 232.5,288.5C 226.185,293.142 219.852,297.809 213.5,302.5C 213.5,281.833 213.5,261.167 213.5,240.5C 225.767,231.573 237.767,222.239 249.5,212.5 Z"/></g>
<g><path style="opacity:1" fill="#f96f65" d="M 300.5,215.5 C 300.5,232.167 300.5,248.833 300.5,265.5C 294.497,270.666 288.331,275.666 282,280.5C 281.768,279.263 281.268,278.263 280.5,277.5C 279.669,267.499 274.669,260.499 265.5,256.5C 264.404,252.587 264.238,248.587 265,244.5C 276.707,234.621 288.541,224.954 300.5,215.5 Z"/></g>
<g><path style="opacity:1" fill="#f36a63" d="M 314.5,216.5 C 325.746,226.642 333.746,238.976 338.5,253.5C 337.883,253.389 337.383,253.056 337,252.5C 330.443,258.524 323.61,264.191 316.5,269.5C 315.505,275.128 315.171,280.794 315.5,286.5C 315.167,286.5 314.833,286.5 314.5,286.5C 314.5,280.5 314.5,274.5 314.5,268.5C 314.5,251.167 314.5,233.833 314.5,216.5 Z"/></g>
<g><path style="opacity:1" fill="#f0695c" d="M 338.5,253.5 C 342.297,264.727 343.297,276.06 341.5,287.5C 341.666,282.156 341.499,276.823 341,271.5C 332.667,278.167 324.333,284.833 316,291.5C 315.506,289.866 315.34,288.199 315.5,286.5C 315.171,280.794 315.505,275.128 316.5,269.5C 323.61,264.191 330.443,258.524 337,252.5C 337.383,253.056 337.883,253.389 338.5,253.5 Z"/></g>
<g><path style="opacity:1" fill="#f4726d" d="M 199.5,214.5 C 199.5,244.5 199.5,274.5 199.5,304.5C 199.5,317.833 199.5,331.167 199.5,344.5C 198.833,344.5 198.5,344.167 198.5,343.5C 198.667,319.831 198.5,296.164 198,272.5C 189.269,280.075 180.435,287.408 171.5,294.5C 170.71,293.391 170.21,292.058 170,290.5C 169.501,285.845 169.334,281.179 169.5,276.5C 179.415,269.426 188.915,261.759 198,253.5C 198.5,240.838 198.667,228.171 198.5,215.5C 198.5,214.833 198.833,214.5 199.5,214.5 Z"/></g>
<g><path style="opacity:1" fill="#3c394c" d="M 263.5,255.5 C 263.842,256.338 264.508,256.672 265.5,256.5C 274.669,260.499 279.669,267.499 280.5,277.5C 280.38,289.927 274.713,298.593 263.5,303.5C 258.778,304.623 254.112,304.623 249.5,303.5C 248.833,303.5 248.167,303.5 247.5,303.5C 240.808,300.141 235.808,295.141 232.5,288.5C 228.403,272.359 234.07,261.359 249.5,255.5C 254.104,254.484 258.77,254.484 263.5,255.5 Z"/></g>
<g><path style="opacity:1" fill="#f5f5f5" d="M 251.5,264.5 C 266.848,264.343 272.682,271.676 269,286.5C 263.485,294.669 256.319,296.502 247.5,292C 241.885,287.032 240.052,280.865 242,273.5C 244.406,269.592 247.572,266.592 251.5,264.5 Z"/></g>
<g><path style="opacity:1" fill="#ef6762" d="M 300.5,265.5 C 300.5,271.167 300.5,276.833 300.5,282.5C 288.541,291.954 276.707,301.621 265,311.5C 264.5,318.826 264.334,326.159 264.5,333.5C 263.858,344.221 264.525,354.554 266.5,364.5C 265.791,365.404 264.791,365.737 263.5,365.5C 263.5,344.833 263.5,324.167 263.5,303.5C 274.713,298.593 280.38,289.927 280.5,277.5C 281.268,278.263 281.768,279.263 282,280.5C 288.331,275.666 294.497,270.666 300.5,265.5 Z"/></g>
<g><path style="opacity:1" fill="#f26a5c" d="M 300.5,282.5 C 300.5,284.833 300.5,287.167 300.5,289.5C 300.5,294.5 300.5,299.5 300.5,304.5C 288.5,314.167 276.5,323.833 264.5,333.5C 264.334,326.159 264.5,318.826 265,311.5C 276.707,301.621 288.541,291.954 300.5,282.5 Z"/></g>
<g><path style="opacity:1" fill="#bb4855" d="M 213.5,204.5 C 213.5,216.5 213.5,228.5 213.5,240.5C 213.5,261.167 213.5,281.833 213.5,302.5C 213.5,311.833 213.5,321.167 213.5,330.5C 213.5,338.5 213.5,346.5 213.5,354.5C 212.833,354.5 212.5,354.167 212.5,353.5C 212.5,337.167 212.5,320.833 212.5,304.5C 208.167,304.5 203.833,304.5 199.5,304.5C 199.5,274.5 199.5,244.5 199.5,214.5C 203.454,210.188 208.12,206.855 213.5,204.5 Z"/></g>
<g><path style="opacity:1" fill="#afacf9" d="M 138.5,279.5 C 145.5,279.5 152.5,279.5 159.5,279.5C 159.283,284.23 159.617,288.897 160.5,293.5C 153.828,296.244 146.828,298.244 139.5,299.5C 138.724,292.863 138.391,286.196 138.5,279.5 Z"/></g>
<g><path style="opacity:1" fill="#f96f63" d="M 232.5,288.5 C 235.808,295.141 240.808,300.141 247.5,303.5C 236.167,312.5 224.833,321.5 213.5,330.5C 213.5,321.167 213.5,311.833 213.5,302.5C 219.852,297.809 226.185,293.142 232.5,288.5 Z"/></g>
<g><path style="opacity:1" fill="#bfcff8" d="M 352.5,279.5 C 359.5,279.5 366.5,279.5 373.5,279.5C 373.761,286.072 373.094,292.406 371.5,298.5C 371.53,297.503 371.03,296.836 370,296.5C 363.568,298.234 357.068,299.567 350.5,300.5C 350.737,301.791 350.404,302.791 349.5,303.5C 350.992,295.567 351.992,287.567 352.5,279.5 Z"/></g>
<g><path style="opacity:1" fill="#f16358" d="M 341.5,287.5 C 339.675,309.481 330.675,327.815 314.5,342.5C 314.5,323.833 314.5,305.167 314.5,286.5C 314.833,286.5 315.167,286.5 315.5,286.5C 315.34,288.199 315.506,289.866 316,291.5C 324.333,284.833 332.667,278.167 341,271.5C 341.499,276.823 341.666,282.156 341.5,287.5 Z"/></g>
<g><path style="opacity:1" fill="#f97168" d="M 198.5,343.5 C 183.527,330.561 174.527,314.227 171.5,294.5C 180.435,287.408 189.269,280.075 198,272.5C 198.5,296.164 198.667,319.831 198.5,343.5 Z"/></g>
<g><path style="opacity:1" fill="#b3b6f7" d="M 160.5,293.5 C 161.676,299.203 163.009,304.87 164.5,310.5C 157.154,311.087 150.154,312.754 143.5,315.5C 141.961,310.217 140.628,304.884 139.5,299.5C 146.828,298.244 153.828,296.244 160.5,293.5 Z"/></g>
<g><path style="opacity:1" fill="#b23c49" d="M 199.5,304.5 C 203.833,304.5 208.167,304.5 212.5,304.5C 212.5,320.833 212.5,337.167 212.5,353.5C 207.335,351.662 203.001,348.662 199.5,344.5C 199.5,331.167 199.5,317.833 199.5,304.5 Z"/></g>
<g><path style="opacity:1" fill="#c7ddf8" d="M 371.5,298.5 C 370.888,306.616 368.888,314.283 365.5,321.5C 357.025,321.461 348.692,323.128 340.5,326.5C 344.112,318.983 347.112,311.317 349.5,303.5C 350.404,302.791 350.737,301.791 350.5,300.5C 357.068,299.567 363.568,298.234 370,296.5C 371.03,296.836 371.53,297.503 371.5,298.5 Z"/></g>
<g><path style="opacity:1" fill="#b9c4f8" d="M 164.5,310.5 C 166.499,315.495 168.499,320.495 170.5,325.5C 164.242,327.147 157.909,328.647 151.5,330C 150.944,330.383 150.611,330.883 150.5,331.5C 147.653,326.465 145.32,321.131 143.5,315.5C 150.154,312.754 157.154,311.087 164.5,310.5 Z"/></g>
<g><path style="opacity:1" fill="#f2685f" d="M 247.5,303.5 C 248.167,303.5 248.833,303.5 249.5,303.5C 249.5,324.167 249.5,344.833 249.5,365.5C 236.471,364.914 224.471,361.247 213.5,354.5C 213.5,346.5 213.5,338.5 213.5,330.5C 224.833,321.5 236.167,312.5 247.5,303.5 Z"/></g>
<g><path style="opacity:1" fill="#b23f4c" d="M 314.5,268.5 C 314.5,274.5 314.5,280.5 314.5,286.5C 314.5,305.167 314.5,323.833 314.5,342.5C 310.432,346.899 305.765,350.565 300.5,353.5C 300.5,337.167 300.5,320.833 300.5,304.5C 300.5,299.5 300.5,294.5 300.5,289.5C 301.491,282.687 301.825,275.687 301.5,268.5C 305.833,268.5 310.167,268.5 314.5,268.5 Z"/></g>
<g><path style="opacity:1" fill="#d2e5f8" d="M 365.5,321.5 C 363.288,328.255 360.288,334.588 356.5,340.5C 356.631,339.624 356.298,338.957 355.5,338.5C 346.296,341.134 336.963,343.134 327.5,344.5C 332.335,338.816 336.669,332.816 340.5,326.5C 348.692,323.128 357.025,321.461 365.5,321.5 Z"/></g>
<g><path style="opacity:1" fill="#f26358" d="M 300.5,304.5 C 300.5,320.833 300.5,337.167 300.5,353.5C 290.102,359.966 278.768,363.632 266.5,364.5C 264.525,354.554 263.858,344.221 264.5,333.5C 276.5,323.833 288.5,314.167 300.5,304.5 Z"/></g>
<g><path style="opacity:1" fill="#bfcff7" d="M 170.5,325.5 C 174.078,330.32 177.412,335.32 180.5,340.5C 179.85,340.196 179.183,339.863 178.5,339.5C 171.592,341.136 164.925,343.136 158.5,345.5C 155.331,341.167 152.664,336.5 150.5,331.5C 150.611,330.883 150.944,330.383 151.5,330C 157.909,328.647 164.242,327.147 170.5,325.5 Z"/></g>
<g><path style="opacity:1" fill="#b13b47" d="M 249.5,303.5 C 254.112,304.623 258.778,304.623 263.5,303.5C 263.5,324.167 263.5,344.833 263.5,365.5C 258.833,365.5 254.167,365.5 249.5,365.5C 249.5,344.833 249.5,324.167 249.5,303.5 Z"/></g>
<g><path style="opacity:1" fill="#deeaf8" d="M 356.5,340.5 C 352.949,347.383 348.282,353.383 342.5,358.5C 326.258,362.311 309.925,365.644 293.5,368.5C 306.175,362.506 317.508,354.506 327.5,344.5C 336.963,343.134 346.296,341.134 355.5,338.5C 356.298,338.957 356.631,339.624 356.5,340.5 Z"/></g>
<g><path style="opacity:1" fill="#c6dcf7" d="M 180.5,340.5 C 186.526,346.195 192.526,351.861 198.5,357.5C 191.417,359.351 184.25,361.018 177,362.5C 175.624,362.684 174.791,363.351 174.5,364.5C 168.445,358.778 163.111,352.444 158.5,345.5C 164.925,343.136 171.592,341.136 178.5,339.5C 179.183,339.863 179.85,340.196 180.5,340.5 Z"/></g>
<g><path style="opacity:1" fill="#d2e4f7" d="M 198.5,357.5 C 205.345,361.756 212.345,365.756 219.5,369.5C 210.671,371.433 201.838,373.433 193,375.5C 191.624,375.684 190.791,376.351 190.5,377.5C 184.562,373.894 179.229,369.561 174.5,364.5C 174.791,363.351 175.624,362.684 177,362.5C 184.25,361.018 191.417,359.351 198.5,357.5 Z"/></g>
<g><path style="opacity:1" fill="#e9f0f7" d="M 342.5,358.5 C 341.118,361.394 339.118,363.894 336.5,366C 299.139,397.929 257.473,405.429 211.5,388.5C 228.833,384.167 246.167,379.833 263.5,375.5C 273.801,374.425 283.801,372.091 293.5,368.5C 309.925,365.644 326.258,362.311 342.5,358.5 Z"/></g>
<g><path style="opacity:1" fill="#ddeaf7" d="M 219.5,369.5 C 226.493,371.328 233.493,373.161 240.5,375C 248.159,375.5 255.826,375.666 263.5,375.5C 246.167,379.833 228.833,384.167 211.5,388.5C 204.019,385.594 197.019,381.928 190.5,377.5C 190.791,376.351 191.624,375.684 193,375.5C 201.838,373.433 210.671,371.433 219.5,369.5 Z"/></g>
<g><path style="opacity:1" fill="#f77b68" d="M 180.5,399.5 C 170.085,399.192 159.751,399.525 149.5,400.5C 154.98,390.884 160.98,381.55 167.5,372.5C 174.206,377.844 180.873,383.178 187.5,388.5C 185.392,392.401 183.059,396.067 180.5,399.5 Z"/></g>
<g><path style="opacity:1" fill="#f67b68" d="M 360.5,399.5 C 349.986,399.172 339.653,399.506 329.5,400.5C 327.318,396.647 324.984,392.814 322.5,389C 329.931,384.072 336.931,378.572 343.5,372.5C 349.939,381.05 355.605,390.05 360.5,399.5 Z"/></g>
<g><path style="opacity:1" fill="#f87462" d="M 180.5,399.5 C 169.299,422.272 159.966,445.772 152.5,470C 149.167,472 145.833,472 142.5,470C 132.316,461.785 128.816,451.285 132,438.5C 135.983,424.874 141.816,412.207 149.5,400.5C 159.751,399.525 170.085,399.192 180.5,399.5 Z"/></g>
<g><path style="opacity:1" fill="#f87563" d="M 360.5,399.5 C 370.997,414.17 377.33,430.503 379.5,448.5C 369.833,448.5 360.167,448.5 350.5,448.5C 344.052,432.27 337.052,416.27 329.5,400.5C 339.653,399.506 349.986,399.172 360.5,399.5 Z"/></g>
<g><path style="opacity:1" fill="#f86f5c" d="M 350.5,448.5 C 360.167,448.5 369.833,448.5 379.5,448.5C 379.314,459.906 373.981,467.572 363.5,471.5C 361.407,471.514 359.574,470.848 358,469.5C 355.344,462.537 352.844,455.537 350.5,448.5 Z"/></g>
</svg>
