<?xml version="1.0" encoding="UTF-8"?>
<!DOCTYPE svg PUBLIC "-//W3C//DTD SVG 1.1//EN" "http://www.w3.org/Graphics/SVG/1.1/DTD/svg11.dtd">
<svg xmlns="http://www.w3.org/2000/svg" version="1.1" width="512px" height="512px" style="shape-rendering:geometricPrecision; text-rendering:geometricPrecision; image-rendering:optimizeQuality; fill-rule:evenodd; clip-rule:evenodd" xmlns:xlink="http://www.w3.org/1999/xlink">
<g><path style="opacity:1" fill="#fa507d" d="M 363.5,42.5 C 378.982,44.3193 388.982,52.6526 393.5,67.5C 392.366,74.2463 388.366,76.7463 381.5,75C 370.776,67.6691 363.942,57.8358 361,45.5C 362.045,44.6266 362.878,43.6266 363.5,42.5 Z"/></g>
<g><path style="opacity:1" fill="#fa517d" d="M 337.5,79.5 C 258.167,79.5 178.833,79.5 99.5,79.5C 108.568,73.7528 118.568,70.2528 129.5,69C 146.808,67.8259 164.141,67.1592 181.5,67C 204.218,63.7235 226.885,60.0569 249.5,56C 277.237,52.4147 303.237,57.4147 327.5,71C 331.462,73.1399 334.796,75.9733 337.5,79.5 Z"/></g>
<g><path style="opacity:1" fill="#fa567d" d="M 99.5,79.5 C 178.833,79.5 258.167,79.5 337.5,79.5C 340.394,80.8823 342.894,82.8823 345,85.5C 348.352,89.5486 351.185,93.8819 353.5,98.5C 261.459,98.1717 169.459,98.505 77.5,99.5C 83.2803,91.0497 90.6137,84.383 99.5,79.5 Z"/></g>
<g><path style="opacity:1" fill="#fa5c7d" d="M 353.5,98.5 C 357.615,105.067 360.949,112.067 363.5,119.5C 259.237,118.502 154.904,118.169 50.5,118.5C 50.5106,116.983 51.1772,115.816 52.5,115C 63.0738,113.383 71.4071,108.216 77.5,99.5C 169.459,98.505 261.459,98.1717 353.5,98.5 Z"/></g>
<g><path style="opacity:1" fill="#fa647d" d="M 50.5,118.5 C 154.904,118.169 259.237,118.502 363.5,119.5C 366.999,126.996 371.665,133.663 377.5,139.5C 312.335,140.499 247.002,140.832 181.5,140.5C 172.513,137.835 163.513,137.835 154.5,140.5C 131.758,140.178 109.092,140.511 86.5,141.5C 86.9804,138.315 86.3137,135.481 84.5,133C 75.8641,131.282 67.1975,129.615 58.5,128C 54.5299,125.869 51.8633,122.702 50.5,118.5 Z"/></g>
<g><path style="opacity:1" fill="#fa617d" d="M 437.5,140.5 C 423.5,140.5 409.5,140.5 395.5,140.5C 398.271,136.62 399.605,132.287 399.5,127.5C 398.704,119.152 397.038,110.985 394.5,103C 394.333,99.1667 396.167,97.3333 400,97.5C 408.265,100.068 415.265,104.735 421,111.5C 428.388,120.064 433.888,129.731 437.5,140.5 Z"/></g>
<g><path style="opacity:1" fill="#faf8f8" d="M 181.5,140.5 C 189.747,145.768 198.58,146.768 208,143.5C 213.792,144.419 216.126,147.752 215,153.5C 213.945,156.056 212.112,157.723 209.5,158.5C 199.408,162.711 189.408,167.211 179.5,172C 176.98,173.697 174.647,175.53 172.5,177.5C 165.167,182.833 158.833,189.167 153.5,196.5C 147.113,203.594 141.447,211.261 136.5,219.5C 131.638,226.873 125.638,233.206 118.5,238.5C 114.179,241.125 109.513,241.958 104.5,241C 103.934,240.005 103.267,239.172 102.5,238.5C 102.36,232.464 102.693,226.464 103.5,220.5C 105.371,212.555 108.037,204.888 111.5,197.5C 114.243,191.015 117.243,184.681 120.5,178.5C 125.068,172.377 129.401,166.044 133.5,159.5C 139.552,152.115 146.552,145.781 154.5,140.5C 163.513,137.835 172.513,137.835 181.5,140.5 Z"/></g>
<g><path style="opacity:1" fill="#fa6a7d" d="M 154.5,140.5 C 146.552,145.781 139.552,152.115 133.5,159.5C 114.5,159.5 95.5,159.5 76.5,159.5C 79.4323,153.245 82.7657,147.245 86.5,141.5C 109.092,140.511 131.758,140.178 154.5,140.5 Z"/></g>
<g><path style="opacity:1" fill="#fa6a7d" d="M 377.5,139.5 C 383.237,144.396 389.237,144.73 395.5,140.5C 409.5,140.5 423.5,140.5 437.5,140.5C 439.9,146.7 441.9,153.033 443.5,159.5C 400.167,159.5 356.833,159.5 313.5,159.5C 310.853,154.853 307.186,151.186 302.5,148.5C 296.969,150.016 294.969,153.682 296.5,159.5C 267.329,159.831 238.329,159.498 209.5,158.5C 212.112,157.723 213.945,156.056 215,153.5C 216.126,147.752 213.792,144.419 208,143.5C 198.58,146.768 189.747,145.768 181.5,140.5C 247.002,140.832 312.335,140.499 377.5,139.5 Z"/></g>
<g><path style="opacity:1" fill="#faf9f9" d="M 313.5,159.5 C 320.332,173.166 328.665,185.832 338.5,197.5C 345.132,205.799 352.465,213.466 360.5,220.5C 365.912,226.57 370.912,232.904 375.5,239.5C 378.734,245.61 381.068,251.944 382.5,258.5C 382.5,260.5 382.5,262.5 382.5,264.5C 383.706,282.93 380.706,300.596 373.5,317.5C 358.711,343.895 336.377,354.728 306.5,350C 298.574,347.707 291.574,343.873 285.5,338.5C 280.535,332.88 276.868,326.547 274.5,319.5C 273.647,314.53 272.98,309.53 272.5,304.5C 272.098,295.109 273.765,286.109 277.5,277.5C 279.92,273.9 282.586,270.4 285.5,267C 288.989,264.174 292.822,262.007 297,260.5C 299.537,260.7 301.204,262.033 302,264.5C 302.02,269.723 303.02,274.723 305,279.5C 311.264,283.74 317.264,283.407 323,278.5C 323.667,277.167 324.333,275.833 325,274.5C 326.23,267.555 326.73,260.555 326.5,253.5C 326.715,241.971 324.715,230.971 320.5,220.5C 318.126,212.03 314.793,204.03 310.5,196.5C 308.344,190.196 305.678,184.196 302.5,178.5C 300.902,172.04 298.902,165.707 296.5,159.5C 294.969,153.682 296.969,150.016 302.5,148.5C 307.186,151.186 310.853,154.853 313.5,159.5 Z"/></g>
<g><path style="opacity:1" fill="#fa707d" d="M 76.5,159.5 C 95.5,159.5 114.5,159.5 133.5,159.5C 129.401,166.044 125.068,172.377 120.5,178.5C 102.167,178.5 83.8333,178.5 65.5,178.5C 68.9292,171.968 72.5959,165.634 76.5,159.5 Z"/></g>
<g><path style="opacity:1" fill="#fa707d" d="M 209.5,158.5 C 238.329,159.498 267.329,159.831 296.5,159.5C 298.902,165.707 300.902,172.04 302.5,178.5C 258.997,178.832 215.663,178.499 172.5,177.5C 174.647,175.53 176.98,173.697 179.5,172C 189.408,167.211 199.408,162.711 209.5,158.5 Z"/></g>
<g><path style="opacity:1" fill="#fa727d" d="M 313.5,159.5 C 356.833,159.5 400.167,159.5 443.5,159.5C 445.535,171.775 446.868,184.109 447.5,196.5C 426.402,197.826 405.402,197.826 384.5,196.5C 381.916,183.848 375.583,173.348 365.5,165C 354.135,158.082 349.635,160.916 352,173.5C 356.162,182.488 361.996,190.155 369.5,196.5C 359.347,197.494 349.014,197.828 338.5,197.5C 328.665,185.832 320.332,173.166 313.5,159.5 Z"/></g>
<g><path style="opacity:1" fill="#faf7f7" d="M 384.5,196.5 C 379.669,201.769 374.669,201.769 369.5,196.5C 361.996,190.155 356.162,182.488 352,173.5C 349.635,160.916 354.135,158.082 365.5,165C 375.583,173.348 381.916,183.848 384.5,196.5 Z"/></g>
<g><path style="opacity:1" fill="#fa767d" d="M 65.5,178.5 C 83.8333,178.5 102.167,178.5 120.5,178.5C 117.243,184.681 114.243,191.015 111.5,197.5C 93.5,197.5 75.5,197.5 57.5,197.5C 59.8934,191.047 62.5601,184.714 65.5,178.5 Z"/></g>
<g><path style="opacity:1" fill="#fa767d" d="M 172.5,177.5 C 215.663,178.499 258.997,178.832 302.5,178.5C 305.678,184.196 308.344,190.196 310.5,196.5C 258.167,197.833 205.833,197.833 153.5,196.5C 158.833,189.167 165.167,182.833 172.5,177.5 Z"/></g>
<g><path style="opacity:1" fill="#fa7d7d" d="M 57.5,197.5 C 75.5,197.5 93.5,197.5 111.5,197.5C 108.037,204.888 105.371,212.555 103.5,220.5C 85.6588,220.83 67.9921,220.497 50.5,219.5C 52.0353,211.895 54.3686,204.562 57.5,197.5 Z"/></g>
<g><path style="opacity:1" fill="#fa7d7d" d="M 153.5,196.5 C 205.833,197.833 258.167,197.833 310.5,196.5C 314.793,204.03 318.126,212.03 320.5,220.5C 299.167,220.5 277.833,220.5 256.5,220.5C 248.378,216.442 240.378,216.776 232.5,221.5C 200.5,220.833 168.5,220.167 136.5,219.5C 141.447,211.261 147.113,203.594 153.5,196.5 Z"/></g>
<g><path style="opacity:1" fill="#fa7d7d" d="M 369.5,196.5 C 374.669,201.769 379.669,201.769 384.5,196.5C 405.402,197.826 426.402,197.826 447.5,196.5C 447.08,204.571 446.413,212.571 445.5,220.5C 417.167,220.5 388.833,220.5 360.5,220.5C 352.465,213.466 345.132,205.799 338.5,197.5C 349.014,197.828 359.347,197.494 369.5,196.5 Z"/></g>
<g><path style="opacity:1" fill="#fa837c" d="M 50.5,219.5 C 67.9921,220.497 85.6588,220.83 103.5,220.5C 102.693,226.464 102.36,232.464 102.5,238.5C 83.9311,239.825 65.2645,239.825 46.5,238.5C 47.5251,231.987 48.8584,225.654 50.5,219.5 Z"/></g>
<g><path style="opacity:1" fill="#fa837d" d="M 136.5,219.5 C 168.5,220.167 200.5,220.833 232.5,221.5C 225.454,226.213 219.787,232.213 215.5,239.5C 182.996,239.832 150.662,239.498 118.5,238.5C 125.638,233.206 131.638,226.873 136.5,219.5 Z"/></g>
<g><path style="opacity:1" fill="#fa847d" d="M 256.5,220.5 C 277.833,220.5 299.167,220.5 320.5,220.5C 324.715,230.971 326.715,241.971 326.5,253.5C 326.167,253.5 325.833,253.5 325.5,253.5C 325.5,250.5 325.5,247.5 325.5,244.5C 299.833,244.5 274.167,244.5 248.5,244.5C 251.831,241 254.998,237.334 258,233.5C 260.171,228.856 259.671,224.523 256.5,220.5 Z"/></g>
<g><path style="opacity:1" fill="#fa837d" d="M 360.5,220.5 C 388.833,220.5 417.167,220.5 445.5,220.5C 445.483,225.93 444.817,231.263 443.5,236.5C 442.596,237.209 442.263,238.209 442.5,239.5C 420.167,239.5 397.833,239.5 375.5,239.5C 370.912,232.904 365.912,226.57 360.5,220.5 Z"/></g>
<g><path style="opacity:1" fill="#fa897d" d="M 46.5,238.5 C 65.2645,239.825 83.9311,239.825 102.5,238.5C 103.267,239.172 103.934,240.005 104.5,241C 109.513,241.958 114.179,241.125 118.5,238.5C 150.662,239.498 182.996,239.832 215.5,239.5C 214.154,241.537 212.82,243.537 211.5,245.5C 156.336,244.501 101.003,244.168 45.5,244.5C 46.1495,242.565 46.4828,240.565 46.5,238.5 Z"/></g>
<g><path style="opacity:1" fill="#fa8975" d="M 45.5,244.5 C 101.003,244.168 156.336,244.501 211.5,245.5C 209.251,251.005 206.251,256.005 202.5,260.5C 150.177,258.504 97.5106,257.838 44.5,258.5C 44.5401,253.807 44.8734,249.141 45.5,244.5 Z"/></g>
<g><path style="opacity:1" fill="#fa8876" d="M 248.5,244.5 C 274.167,244.5 299.833,244.5 325.5,244.5C 325.5,247.5 325.5,250.5 325.5,253.5C 325.5,255.167 325.5,256.833 325.5,258.5C 296.833,258.5 268.167,258.5 239.5,258.5C 241.719,253.291 244.719,248.624 248.5,244.5 Z"/></g>
<g><path style="opacity:1" fill="#fa8977" d="M 443.5,236.5 C 442.373,244.83 440.373,252.83 437.5,260.5C 419.53,258.513 401.197,257.846 382.5,258.5C 381.068,251.944 378.734,245.61 375.5,239.5C 397.833,239.5 420.167,239.5 442.5,239.5C 442.263,238.209 442.596,237.209 443.5,236.5 Z"/></g>
<g><path style="opacity:1" fill="#fa8f76" d="M 44.5,258.5 C 97.5106,257.838 150.177,258.504 202.5,260.5C 198.235,267.767 192.568,273.767 185.5,278.5C 173.265,277.18 160.931,277.18 148.5,278.5C 149.263,275.859 149.43,273.192 149,270.5C 146.6,272.729 144.433,275.063 142.5,277.5C 109.5,277.5 76.5,277.5 43.5,277.5C 43.5,276.5 43.5,275.5 43.5,274.5C 43.1786,268.974 43.5119,263.64 44.5,258.5 Z"/></g>
<g><path style="opacity:1" fill="#fa9076" d="M 325.5,253.5 C 325.833,253.5 326.167,253.5 326.5,253.5C 326.73,260.555 326.23,267.555 325,274.5C 324.333,275.833 323.667,277.167 323,278.5C 317.264,283.407 311.264,283.74 305,279.5C 303.02,274.723 302.02,269.723 302,264.5C 301.204,262.033 299.537,260.7 297,260.5C 292.822,262.007 288.989,264.174 285.5,267C 282.586,270.4 279.92,273.9 277.5,277.5C 261.833,277.5 246.167,277.5 230.5,277.5C 232.188,270.46 235.188,264.127 239.5,258.5C 268.167,258.5 296.833,258.5 325.5,258.5C 325.5,256.833 325.5,255.167 325.5,253.5 Z"/></g>
<g><path style="opacity:1" fill="#fa8f75" d="M 382.5,258.5 C 401.197,257.846 419.53,258.513 437.5,260.5C 436.066,266.698 434.066,272.698 431.5,278.5C 415.578,277.516 399.578,277.183 383.5,277.5C 383.818,272.968 383.485,268.634 382.5,264.5C 382.5,262.5 382.5,260.5 382.5,258.5 Z"/></g>
<g><path style="opacity:1" fill="#fa9676" d="M 43.5,274.5 C 43.5,275.5 43.5,276.5 43.5,277.5C 76.5,277.5 109.5,277.5 142.5,277.5C 137.803,284.562 134.469,292.229 132.5,300.5C 123.167,300.5 113.833,300.5 104.5,300.5C 104.666,295.821 104.499,291.155 104,286.5C 102.2,282.765 99.2003,281.098 95,281.5C 91.4552,281.039 88.7885,282.372 87,285.5C 83.9788,290.062 82.4788,295.062 82.5,300.5C 69.8333,300.5 57.1667,300.5 44.5,300.5C 43.5561,294.012 42.8894,287.346 42.5,280.5C 42.5046,278.304 42.838,276.304 43.5,274.5 Z"/></g>
<g><path style="opacity:1" fill="#fa9576" d="M 185.5,278.5 C 179.792,283.918 176.792,290.585 176.5,298.5C 167.367,299.784 158.367,301.117 149.5,302.5C 147.348,294.691 147.014,286.691 148.5,278.5C 160.931,277.18 173.265,277.18 185.5,278.5 Z"/></g>
<g><path style="opacity:1" fill="#fa9676" d="M 230.5,277.5 C 246.167,277.5 261.833,277.5 277.5,277.5C 273.765,286.109 272.098,295.109 272.5,304.5C 271.566,303.432 271.232,302.099 271.5,300.5C 256.167,300.5 240.833,300.5 225.5,300.5C 225.766,292.504 227.432,284.837 230.5,277.5 Z"/></g>
<g><path style="opacity:1" fill="#fa9876" d="M 382.5,264.5 C 383.485,268.634 383.818,272.968 383.5,277.5C 399.578,277.183 415.578,277.516 431.5,278.5C 424.723,293.746 415.723,307.412 404.5,319.5C 393.779,320.142 383.446,319.475 373.5,317.5C 380.706,300.596 383.706,282.93 382.5,264.5 Z"/></g>
<g><path style="opacity:1" fill="#fa9675" d="M 455.5,276.5 C 463.581,276.747 467.914,280.914 468.5,289C 468.183,296.502 464.349,300.668 457,301.5C 449.906,301.24 446.406,297.573 446.5,290.5C 446.561,283.663 449.561,278.996 455.5,276.5 Z"/></g>
<g><path style="opacity:1" fill="#faf7f6" d="M 104.5,300.5 C 103.099,309.071 98.0993,312.904 89.5,312C 85.4985,309.161 83.1652,305.327 82.5,300.5C 82.4788,295.062 83.9788,290.062 87,285.5C 88.7885,282.372 91.4552,281.039 95,281.5C 99.2003,281.098 102.2,282.765 104,286.5C 104.499,291.155 104.666,295.821 104.5,300.5 Z"/></g>
<g><path style="opacity:1" fill="#fa9d75" d="M 176.5,298.5 C 178.28,309.291 177.78,319.957 175,330.5C 171.295,334.982 166.962,335.649 162,332.5C 155.394,323.517 151.228,313.517 149.5,302.5C 158.367,301.117 167.367,299.784 176.5,298.5 Z"/></g>
<g><path style="opacity:1" fill="#fa9c76" d="M 44.5,300.5 C 57.1667,300.5 69.8333,300.5 82.5,300.5C 83.1652,305.327 85.4985,309.161 89.5,312C 98.0993,312.904 103.099,309.071 104.5,300.5C 113.833,300.5 123.167,300.5 132.5,300.5C 132.214,306.259 132.548,311.925 133.5,317.5C 104.725,319.479 75.725,320.146 46.5,319.5C 45.4587,313.21 44.792,306.877 44.5,300.5 Z"/></g>
<g><path style="opacity:1" fill="#fa9c76" d="M 225.5,300.5 C 240.833,300.5 256.167,300.5 271.5,300.5C 271.232,302.099 271.566,303.432 272.5,304.5C 272.98,309.53 273.647,314.53 274.5,319.5C 257.833,319.5 241.167,319.5 224.5,319.5C 224.177,312.978 224.51,306.645 225.5,300.5 Z"/></g>
<g><path style="opacity:1" fill="#faa275" d="M 133.5,317.5 C 134.064,324.654 135.397,331.654 137.5,338.5C 108.833,338.5 80.1667,338.5 51.5,338.5C 49.4647,332.349 47.7981,326.016 46.5,319.5C 75.725,320.146 104.725,319.479 133.5,317.5 Z"/></g>
<g><path style="opacity:1" fill="#faa276" d="M 224.5,319.5 C 241.167,319.5 257.833,319.5 274.5,319.5C 276.868,326.547 280.535,332.88 285.5,338.5C 266.326,338.17 247.326,338.503 228.5,339.5C 225.779,333.229 224.446,326.562 224.5,319.5 Z"/></g>
<g><path style="opacity:1" fill="#faa676" d="M 424.5,357.5 C 362.5,357.5 300.5,357.5 238.5,357.5C 233.63,352.433 230.296,346.433 228.5,339.5C 247.326,338.503 266.326,338.17 285.5,338.5C 291.574,343.873 298.574,347.707 306.5,350C 336.377,354.728 358.711,343.895 373.5,317.5C 383.446,319.475 393.779,320.142 404.5,319.5C 401.469,324.394 398.802,329.56 396.5,335C 396.645,335.772 396.978,336.439 397.5,337C 404.468,337.789 410.801,336.123 416.5,332C 421.201,327.634 425.534,322.967 429.5,318C 436.87,314.326 440.536,316.492 440.5,324.5C 439.151,337.529 433.818,348.529 424.5,357.5 Z"/></g>
<g><path style="opacity:1" fill="#faa875" d="M 51.5,338.5 C 80.1667,338.5 108.833,338.5 137.5,338.5C 141.085,344.668 144.418,351.001 147.5,357.5C 127.66,357.17 107.993,357.503 88.5,358.5C 83.5049,354.132 78.1716,353.632 72.5,357C 68.9671,361.533 64.6338,362.533 59.5,360C 55.5843,353.328 52.9176,346.162 51.5,338.5 Z"/></g>
<g><path style="opacity:1" fill="#faaf75" d="M 88.5,358.5 C 107.993,357.503 127.66,357.17 147.5,357.5C 152.225,364.953 155.891,372.953 158.5,381.5C 140.91,380.514 123.243,380.181 105.5,380.5C 101.364,372.025 95.6971,364.691 88.5,358.5 Z"/></g>
<g><path style="opacity:1" fill="#faaf75" d="M 238.5,357.5 C 300.5,357.5 362.5,357.5 424.5,357.5C 416.47,366.342 407.47,374.009 397.5,380.5C 353.663,380.168 309.997,380.501 266.5,381.5C 255.644,375.313 246.311,367.313 238.5,357.5 Z"/></g>
<g><path style="opacity:1" fill="#fab575" d="M 105.5,380.5 C 123.243,380.181 140.91,380.514 158.5,381.5C 161.353,387.22 163.686,393.22 165.5,399.5C 146.757,399.82 128.09,399.486 109.5,398.5C 108.796,392.351 107.463,386.351 105.5,380.5 Z"/></g>
<g><path style="opacity:1" fill="#fab575" d="M 266.5,381.5 C 309.997,380.501 353.663,380.168 397.5,380.5C 374.977,395.979 349.977,402.145 322.5,399C 302.601,396.863 283.934,391.03 266.5,381.5 Z"/></g>
<g><path style="opacity:1" fill="#fab875" d="M 68.5,385.5 C 82.741,384.989 88.241,391.656 85,405.5C 80.874,411.97 75.0407,414.137 67.5,412C 60.1497,407.283 57.9831,400.783 61,392.5C 62.7668,389.228 65.2668,386.895 68.5,385.5 Z"/></g>
<g><path style="opacity:1" fill="#faba75" d="M 109.5,398.5 C 128.09,399.486 146.757,399.82 165.5,399.5C 169.085,405.668 172.418,412.001 175.5,418.5C 154.473,417.845 133.806,418.512 113.5,420.5C 111.715,413.374 110.382,406.041 109.5,398.5 Z"/></g>
<g><path style="opacity:1" fill="#fac074" d="M 175.5,418.5 C 180.833,425.833 187.167,432.167 194.5,437.5C 169.5,437.5 144.5,437.5 119.5,437.5C 116.31,432.263 114.31,426.596 113.5,420.5C 133.806,418.512 154.473,417.845 175.5,418.5 Z"/></g>
<g><path style="opacity:1" fill="#fabf74" d="M 357.5,437.5 C 319.996,437.168 282.663,437.502 245.5,438.5C 234.947,435.474 225.447,430.474 217,423.5C 212.697,418.327 212.531,413.161 216.5,408C 242.088,403.782 266.755,406.782 290.5,417C 306.272,427.225 323.605,431.892 342.5,431C 348.162,431.932 353.162,434.099 357.5,437.5 Z"/></g>
<g><path style="opacity:1" fill="#fac870" d="M 119.5,437.5 C 144.5,437.5 169.5,437.5 194.5,437.5C 203.584,441.885 213.251,444.052 223.5,444C 230.872,448.728 231.872,454.394 226.5,461C 211.331,464.848 195.997,465.515 180.5,463C 163.375,460.97 147.041,456.303 131.5,449C 126.998,445.664 122.998,441.831 119.5,437.5 Z"/></g>
<g><path style="opacity:1" fill="#fac870" d="M 245.5,438.5 C 282.663,437.502 319.996,437.168 357.5,437.5C 361.622,439.077 363.122,442.077 362,446.5C 359.833,450 357,452.833 353.5,455C 328.005,467.98 301.338,471.314 273.5,465C 266,460.167 259.833,454 255,446.5C 252.253,443.246 249.086,440.58 245.5,438.5 Z"/></g>
<g><path style="opacity:1" fill="#fac670" d="M 400.5,423.5 C 413.788,422.617 419.621,428.617 418,441.5C 412.722,448.928 405.555,451.428 396.5,449C 385.139,443.548 383.806,436.215 392.5,427C 395.158,425.522 397.825,424.355 400.5,423.5 Z"/></g>
</svg>
