<?xml version="1.0" encoding="UTF-8"?>
<!DOCTYPE svg PUBLIC "-//W3C//DTD SVG 1.1//EN" "http://www.w3.org/Graphics/SVG/1.1/DTD/svg11.dtd">
<svg xmlns="http://www.w3.org/2000/svg" version="1.1" width="512px" height="512px" style="shape-rendering:geometricPrecision; text-rendering:geometricPrecision; image-rendering:optimizeQuality; fill-rule:evenodd; clip-rule:evenodd" xmlns:xlink="http://www.w3.org/1999/xlink">
<g><path style="opacity:1" fill="#ea6975" d="M 406.5,40.5 C 400.207,45.8006 394.207,51.634 388.5,58C 383.894,61.0332 378.894,62.0332 373.5,61C 370.894,60.2082 368.894,58.7082 367.5,56.5C 366.071,53.5366 366.571,50.8699 369,48.5C 374.077,44.3758 379.577,40.8758 385.5,38C 388.423,35.5838 390.757,32.7504 392.5,29.5C 395.296,26.2026 398.296,23.0359 401.5,20C 407.434,17.2469 410.101,19.2469 409.5,26C 409.193,31.0156 408.193,35.849 406.5,40.5 Z"/></g>
<g><path style="opacity:1" fill="#af8383" d="M 392.5,29.5 C 390.757,32.7504 388.423,35.5838 385.5,38C 379.577,40.8758 374.077,44.3758 369,48.5C 366.571,50.8699 366.071,53.5366 367.5,56.5C 367.362,61.5992 370.029,65.0992 375.5,67C 383.103,68.3658 390.27,67.1991 397,63.5C 407.295,75.3917 419.462,77.5584 433.5,70C 442.184,64.1315 446.184,55.9649 445.5,45.5C 460.649,54.8574 469.149,68.5241 471,86.5C 472.907,96.0861 474.24,105.753 475,115.5C 475.667,132.5 475.667,149.5 475,166.5C 474.824,170.688 474.324,174.688 473.5,178.5C 473.125,176.302 472.458,174.302 471.5,172.5C 466.392,156.218 456.058,144.384 440.5,137C 430.287,132.281 419.62,129.447 408.5,128.5C 393.734,127.142 379.067,127.976 364.5,131C 356.167,131.667 347.833,131.667 339.5,131C 334.901,129.402 332.068,126.235 331,121.5C 330.744,118.443 330.244,115.443 329.5,112.5C 330.077,110.45 331.41,109.45 333.5,109.5C 336.287,110.477 339.287,110.81 342.5,110.5C 345.833,110.5 349.167,110.5 352.5,110.5C 355.279,110.721 357.946,110.388 360.5,109.5C 364.479,108.503 368.479,107.503 372.5,106.5C 374.75,105.87 376.75,104.87 378.5,103.5C 383.686,101.075 388.686,98.4086 393.5,95.5C 397.367,99.0816 402.034,101.248 407.5,102C 413.983,102.835 420.316,102.168 426.5,100C 427.833,99 427.833,98 426.5,97C 422.781,96.6116 419.114,95.9449 415.5,95C 410.479,92.8211 405.479,90.6544 400.5,88.5C 390.492,85.0645 380.158,83.7312 369.5,84.5C 366.941,84.1984 364.607,84.5318 362.5,85.5C 358.5,85.5 354.5,85.5 350.5,85.5C 348.167,84.1667 345.833,84.1667 343.5,85.5C 339.092,85.075 334.758,84.4084 330.5,83.5C 327.457,82.6552 324.457,81.6552 321.5,80.5C 319.286,79.6085 318.286,77.9418 318.5,75.5C 320.231,51.8095 332.897,40.9762 356.5,43C 369.508,40.9881 381.508,36.4881 392.5,29.5 Z"/></g>
<g><path style="opacity:1" fill="#b03945" d="M 389.5,40.5 C 390.5,40.5 391.5,40.5 392.5,40.5C 391.869,51.9845 386.035,56.9845 375,55.5C 374.333,53.5 374.333,51.5 375,49.5C 379.981,46.6002 384.815,43.6002 389.5,40.5 Z"/></g>
<g><path style="opacity:1" fill="#6c454c" d="M 445.5,45.5 C 446.184,55.9649 442.184,64.1315 433.5,70C 419.462,77.5584 407.295,75.3917 397,63.5C 390.27,67.1991 383.103,68.3658 375.5,67C 370.029,65.0992 367.362,61.5992 367.5,56.5C 368.894,58.7082 370.894,60.2082 373.5,61C 378.894,62.0332 383.894,61.0332 388.5,58C 394.207,51.634 400.207,45.8006 406.5,40.5C 420.083,38.0104 433.083,39.6771 445.5,45.5 Z"/></g>
<g><path style="opacity:1" fill="#c53e51" d="M 418.5,52.5 C 426.486,51.998 428.486,55.1647 424.5,62C 417.113,65.5602 413.946,63.3935 415,55.5C 416.145,54.3636 417.312,53.3636 418.5,52.5 Z"/></g>
<g><path style="opacity:1" fill="#6d454d" d="M 340.5,59.5 C 347.238,60.0611 348.905,63.2278 345.5,69C 339.507,70.6683 337.007,68.5017 338,62.5C 338.698,61.3094 339.531,60.3094 340.5,59.5 Z"/></g>
<g><path style="opacity:1" fill="#d4e0f2" d="M 321.5,80.5 C 324.457,81.6552 327.457,82.6552 330.5,83.5C 328.975,87.409 327.641,91.409 326.5,95.5C 325.675,96.3857 324.675,96.719 323.5,96.5C 322.964,91.1363 322.297,85.803 321.5,80.5 Z"/></g>
<g><path style="opacity:1" fill="#9baef3" d="M 369.5,84.5 C 368.505,87.8211 367.505,91.1544 366.5,94.5C 365.675,95.3857 364.675,95.719 363.5,95.5C 363.167,92.1667 362.833,88.8333 362.5,85.5C 364.607,84.5318 366.941,84.1984 369.5,84.5 Z"/></g>
<g><path style="opacity:1" fill="#d3dced" d="M 350.5,85.5 C 349.505,88.8211 348.505,92.1544 347.5,95.5C 346.675,96.3857 345.675,96.719 344.5,96.5C 344.058,92.8455 343.724,89.1788 343.5,85.5C 345.833,84.1667 348.167,84.1667 350.5,85.5 Z"/></g>
<g><path style="opacity:1" fill="#6d464d" d="M 400.5,88.5 C 405.479,90.6544 410.479,92.8211 415.5,95C 419.114,95.9449 422.781,96.6116 426.5,97C 427.833,98 427.833,99 426.5,100C 420.316,102.168 413.983,102.835 407.5,102C 402.034,101.248 397.367,99.0816 393.5,95.5C 396.027,93.3946 398.36,91.0613 400.5,88.5 Z"/></g>
<g><path style="opacity:1" fill="#d4e1f2" d="M 342.5,110.5 C 339.287,110.81 336.287,110.477 333.5,109.5C 333.335,105.818 333.501,102.152 334,98.5C 334.249,97.376 334.749,96.376 335.5,95.5C 338.064,100.3 340.398,105.3 342.5,110.5 Z"/></g>
<g><path style="opacity:1" fill="#9caef2" d="M 378.5,103.5 C 376.75,104.87 374.75,105.87 372.5,106.5C 370.205,92.4077 372.205,91.4077 378.5,103.5 Z"/></g>
<g><path style="opacity:1" fill="#9eaff2" d="M 360.5,109.5 C 357.946,110.388 355.279,110.721 352.5,110.5C 353.129,92.1965 355.796,91.8632 360.5,109.5 Z"/></g>
<g><path style="opacity:1" fill="#6c454d" d="M 84.5,230.5 C 57.6036,219.76 41.437,200.094 36,171.5C 35.3333,160.833 35.3333,150.167 36,139.5C 36.9734,137.608 37.6401,135.608 38,133.5C 40.3722,131.297 42.5389,128.963 44.5,126.5C 57.7932,114.669 73.4598,108.169 91.5,107C 96.7513,106.196 101.918,106.363 107,107.5C 107.781,108.944 107.614,110.277 106.5,111.5C 80.6394,122.85 64.4728,142.183 58,169.5C 54.3803,195.539 63.2137,215.872 84.5,230.5 Z"/></g>
<g><path style="opacity:1" fill="#f8dfc6" d="M 408.5,128.5 C 419.62,129.447 430.287,132.281 440.5,137C 456.058,144.384 466.392,156.218 471.5,172.5C 465.92,161.381 456.92,157.214 444.5,160C 435.481,162.838 430.314,169.004 429,178.5C 428.768,177.263 428.268,176.263 427.5,175.5C 427.935,158.982 420.935,146.982 406.5,139.5C 407.642,135.929 408.309,132.262 408.5,128.5 Z"/></g>
<g><path style="opacity:1" fill="#ae8282" d="M 44.5,126.5 C 42.5389,128.963 40.3722,131.297 38,133.5C 37.6401,135.608 36.9734,137.608 36,139.5C 35.3333,150.167 35.3333,160.833 36,171.5C 41.437,200.094 57.6036,219.76 84.5,230.5C 107.46,238.492 130.46,238.325 153.5,230C 164.381,224.726 175.381,219.726 186.5,215C 198.8,210.672 211.466,208.839 224.5,209.5C 263.497,214.751 298.83,205.918 330.5,183C 336.046,180.06 341.713,177.394 347.5,175C 361.162,170.87 374.829,166.87 388.5,163C 397.297,157.362 403.297,149.529 406.5,139.5C 420.935,146.982 427.935,158.982 427.5,175.5C 428.114,179.135 428.448,182.802 428.5,186.5C 427.49,191.518 425.99,196.518 424,201.5C 419.217,210.233 414.05,218.733 408.5,227C 410.331,230.165 411.997,233.332 413.5,236.5C 416.068,251.689 417.235,267.022 417,282.5C 418.012,286.008 420.178,288.342 423.5,289.5C 426.256,292.389 429.589,294.556 433.5,296C 441.04,297.718 448.373,300.051 455.5,303C 467.354,311.55 471.52,323.05 468,337.5C 464.707,343.612 459.873,345.112 453.5,342C 447.377,328.545 437.377,319.211 423.5,314C 416.039,311.218 408.372,309.218 400.5,308C 397.69,307.094 395.024,305.927 392.5,304.5C 391.155,302.303 389.989,299.97 389,297.5C 388.154,287.647 386.987,277.98 385.5,268.5C 385.898,256.645 381.898,246.645 373.5,238.5C 372.304,239.559 371.637,240.893 371.5,242.5C 372.542,246.799 372.709,251.132 372,255.5C 371.215,257.286 370.049,258.786 368.5,260C 343.734,272.62 317.4,277.953 289.5,276C 283.587,269.084 277.254,262.417 270.5,256C 268.252,254.086 265.752,252.586 263,251.5C 262.5,251.667 262,251.833 261.5,252C 270.38,264.593 276.38,278.427 279.5,293.5C 282.14,303.651 283.474,313.985 283.5,324.5C 283.5,332.833 283.5,341.167 283.5,349.5C 284.142,375.545 274.142,396.212 253.5,411.5C 246.023,414.455 238.356,416.955 230.5,419C 222.383,422.471 215.217,427.305 209,433.5C 208.482,442.761 210.482,451.427 215,459.5C 216.873,461.709 219.04,463.542 221.5,465C 229.171,466.916 235.671,470.75 241,476.5C 244.695,481.818 244.195,486.651 239.5,491C 233.939,492.121 228.273,492.621 222.5,492.5C 216.421,492.599 210.421,492.099 204.5,491C 203.167,490.333 201.833,489.667 200.5,489C 195.333,482.5 189.5,476.667 183,471.5C 180.224,467.782 179.057,463.615 179.5,459C 181.483,446.698 181.816,434.365 180.5,422C 181.072,418.616 182.239,415.449 184,412.5C 188.742,408.546 193.576,404.713 198.5,401C 205.631,391.532 214.297,383.866 224.5,378C 229.963,374.601 232.13,369.768 231,363.5C 227.363,356.72 223.197,350.387 218.5,344.5C 212.966,335.453 206.799,326.786 200,318.5C 193.6,307.337 191.1,295.337 192.5,282.5C 182.833,282.5 173.167,282.5 163.5,282.5C 173.008,281.833 182.675,281.167 192.5,280.5C 193.423,277.553 194.089,274.553 194.5,271.5C 185.733,270.156 176.899,269.49 168,269.5C 150.471,270.949 132.971,272.782 115.5,275C 94.5892,277.381 74.2558,275.047 54.5,268C 47.7527,264.626 41.4194,261.46 35.5,258.5C 8.94627,224.555 5.44627,188.222 25,149.5C 28.6112,143.556 32.6112,137.889 37,132.5C 39.1057,129.882 41.6057,127.882 44.5,126.5 Z"/></g>
<g><path style="opacity:1" fill="#e09c7d" d="M 471.5,172.5 C 472.458,174.302 473.125,176.302 473.5,178.5C 474.34,202.969 469.673,226.302 459.5,248.5C 454.841,255.495 450.174,262.495 445.5,269.5C 439.09,277.246 431.757,283.913 423.5,289.5C 420.178,288.342 418.012,286.008 417,282.5C 417.235,267.022 416.068,251.689 413.5,236.5C 422.512,221.138 427.512,204.471 428.5,186.5C 428.448,182.802 428.114,179.135 427.5,175.5C 428.268,176.263 428.768,177.263 429,178.5C 430.314,169.004 435.481,162.838 444.5,160C 456.92,157.214 465.92,161.381 471.5,172.5 Z"/></g>
<g><path style="opacity:1" fill="#6e474e" d="M 428.5,186.5 C 427.512,204.471 422.512,221.138 413.5,236.5C 411.997,233.332 410.331,230.165 408.5,227C 414.05,218.733 419.217,210.233 424,201.5C 425.99,196.518 427.49,191.518 428.5,186.5 Z"/></g>
<g><path style="opacity:1" fill="#6b454c" d="M 385.5,268.5 C 363.441,283.131 339.108,291.298 312.5,293C 301.505,293.5 290.505,293.667 279.5,293.5C 276.38,278.427 270.38,264.593 261.5,252C 262,251.833 262.5,251.667 263,251.5C 265.752,252.586 268.252,254.086 270.5,256C 277.254,262.417 283.587,269.084 289.5,276C 317.4,277.953 343.734,272.62 368.5,260C 370.049,258.786 371.215,257.286 372,255.5C 372.709,251.132 372.542,246.799 371.5,242.5C 371.637,240.893 372.304,239.559 373.5,238.5C 381.898,246.645 385.898,256.645 385.5,268.5 Z"/></g>
<g><path style="opacity:1" fill="#6a434b" d="M 459.5,248.5 C 471.936,250.138 482.436,255.471 491,264.5C 497.31,273.702 499.31,283.702 497,294.5C 492.356,299.437 487.356,299.771 482,295.5C 474.971,279.64 462.804,270.973 445.5,269.5C 450.174,262.495 454.841,255.495 459.5,248.5 Z"/></g>
<g><path style="opacity:1" fill="#6b454c" d="M 163.5,282.5 C 151.82,283.401 140.153,284.568 128.5,286C 103.913,287.896 79.913,285.063 56.5,277.5C 48.5779,272.247 41.5779,265.914 35.5,258.5C 41.4194,261.46 47.7527,264.626 54.5,268C 74.2558,275.047 94.5892,277.381 115.5,275C 132.971,272.782 150.471,270.949 168,269.5C 176.899,269.49 185.733,270.156 194.5,271.5C 194.089,274.553 193.423,277.553 192.5,280.5C 182.675,281.167 173.008,281.833 163.5,282.5 Z"/></g>
<g><path style="opacity:1" fill="#e09c7d" d="M 385.5,268.5 C 386.987,277.98 388.154,287.647 389,297.5C 389.989,299.97 391.155,302.303 392.5,304.5C 372.485,310.842 353.818,319.842 336.5,331.5C 321.105,339.743 304.771,345.41 287.5,348.5C 286.5,348.5 285.5,348.5 284.5,348.5C 284.826,340.316 284.492,332.316 283.5,324.5C 283.474,313.985 282.14,303.651 279.5,293.5C 290.505,293.667 301.505,293.5 312.5,293C 339.108,291.298 363.441,283.131 385.5,268.5 Z"/></g>
<g><path style="opacity:1" fill="#e09c7e" d="M 56.5,277.5 C 79.913,285.063 103.913,287.896 128.5,286C 140.153,284.568 151.82,283.401 163.5,282.5C 173.167,282.5 182.833,282.5 192.5,282.5C 191.1,295.337 193.6,307.337 200,318.5C 206.799,326.786 212.966,335.453 218.5,344.5C 198.77,337.303 179.77,328.469 161.5,318C 146.265,313.953 130.932,310.286 115.5,307C 93.8299,300.832 74.1632,290.998 56.5,277.5 Z"/></g>
<g><path style="opacity:1" fill="#6a444b" d="M 336.5,331.5 C 337.144,346.423 334.644,360.757 329,374.5C 324.876,380.958 319.71,386.458 313.5,391C 305.828,396.171 297.828,400.838 289.5,405C 279.72,414.287 276.886,425.453 281,438.5C 283.653,446.641 287.487,454.141 292.5,461C 296.804,463.771 301.471,465.771 306.5,467C 313.462,470.286 317.795,475.619 319.5,483C 319.5,486.333 318.167,489 315.5,491C 304.573,492.597 293.573,492.931 282.5,492C 279.461,490.969 276.961,489.135 275,486.5C 271.676,472.844 265.009,461.177 255,451.5C 253.139,449.112 251.806,446.446 251,443.5C 251.828,432.866 252.661,422.199 253.5,411.5C 274.142,396.212 284.142,375.545 283.5,349.5C 285.099,349.768 286.432,349.434 287.5,348.5C 304.771,345.41 321.105,339.743 336.5,331.5 Z"/></g>
<g><path style="opacity:1" fill="#c99182" d="M 283.5,324.5 C 284.492,332.316 284.826,340.316 284.5,348.5C 285.5,348.5 286.5,348.5 287.5,348.5C 286.432,349.434 285.099,349.768 283.5,349.5C 283.5,341.167 283.5,332.833 283.5,324.5 Z"/></g>
</svg>
