<?xml version="1.0" encoding="UTF-8"?>
<svg version="1.1" xmlns="http://www.w3.org/2000/svg" width="512" height="512">
<path d="M0 0 C1.175625 1.1446875 1.175625 1.1446875 2.375 2.3125 C3.138125 3.034375 3.90125 3.75625 4.6875 4.5 C7.04811654 8.4343609 7.68563595 11.73964979 7.375 16.3125 C5.08524004 24.92148577 1.12166174 30.76554637 -6.625 35.3125 C-7.285 35.3125 -7.945 35.3125 -8.625 35.3125 C-8.57279297 36.32957031 -8.57279297 36.32957031 -8.51953125 37.3671875 C-8.24555965 46.78659204 -9.60991447 54.96537903 -15.69921875 62.4296875 C-24.39926414 70.93561423 -35.93844564 75.33275287 -48 75.375 C-49.19625 75.354375 -50.3925 75.33375 -51.625 75.3125 C-51.7075 76.17875 -51.79 77.045 -51.875 77.9375 C-53.22949841 84.03274285 -56.59257449 87.78980214 -61.625 91.3125 C-62.32496094 91.5496875 -63.02492187 91.786875 -63.74609375 92.03125 C-64.36613281 92.4540625 -64.98617187 92.876875 -65.625 93.3125 C-66.22076473 96.2234694 -66.22076473 96.2234694 -66.1875 99.5625 C-66.5422579 106.57282467 -67.85370235 110.58253809 -72.6875 115.6875 C-75.625 118.3125 -75.625 118.3125 -77.625 118.3125 C-77.625 118.9725 -77.625 119.6325 -77.625 120.3125 C-76.635 120.6425 -75.645 120.9725 -74.625 121.3125 C-70.338385 127.99457632 -68.44424377 133.44978864 -70.07421875 141.54296875 C-70.55640861 143.475148 -71.08680126 145.395167 -71.625 147.3125 C-70.779375 147.498125 -69.93375 147.68375 -69.0625 147.875 C-63.34438843 150.26621029 -59.82111586 154.05838789 -56.93359375 159.5 C-55.24156495 163.69795194 -55.25089167 167.65322166 -55.375 172.125 C-55.38015625 172.88748047 -55.3853125 173.64996094 -55.390625 174.43554688 C-55.46936135 180.0012227 -55.46936135 180.0012227 -56.625 182.3125 C-55.59375 182.395 -54.5625 182.4775 -53.5 182.5625 C-46.5387502 183.90983867 -42.67168956 187.80450587 -38.625 193.3125 C-36.90416287 196.94944656 -36.28923767 200.12387893 -36 204.125 C-35.88785156 205.58873047 -35.88785156 205.58873047 -35.7734375 207.08203125 C-35.72445312 207.81808594 -35.67546875 208.55414063 -35.625 209.3125 C-34.965 208.9825 -34.305 208.6525 -33.625 208.3125 C-24.54346761 207.37988472 -19.03610102 209.37176599 -11.625 214.3125 C-10.41263672 213.06533203 -10.41263672 213.06533203 -9.17578125 211.79296875 C-8.09662583 210.69504541 -7.01718353 209.59740401 -5.9375 208.5 C-5.40705078 207.95279297 -4.87660156 207.40558594 -4.33007812 206.84179688 C3.07317172 199.34770961 3.07317172 199.34770961 7.41796875 199.28125 C8.12566406 199.4565625 8.83335937 199.631875 9.5625 199.8125 C10.41972656 200.01617187 11.27695313 200.21984375 12.16015625 200.4296875 C14.69478123 201.12570845 17.22104535 201.84084207 19.74609375 202.5703125 C20.52766846 202.79396484 21.30924316 203.01761719 22.11450195 203.24804688 C23.67252764 203.69834516 25.22729782 204.16010879 26.77807617 204.63476562 C38.32620573 208.02346454 46.62093064 204.91296206 57.73242188 201.15625 C64.20599951 199.04734745 69.55513238 197.65407782 76.375 198.3125 C78.9375 200.25 78.9375 200.25 81.375 203.3125 C82.6630897 204.73241977 83.95511581 206.14877366 85.25 207.5625 C88.67175984 211.42494103 91.84347422 215.42840965 94.9296875 219.5625 C96.27397526 221.43067622 96.27397526 221.43067622 98.375 222.3125 C105.70986787 223.0064691 111.7596232 220.31099406 118.54882812 217.80078125 C124.05471573 215.84720781 128.52880222 214.46214396 134.375 215.3125 C139.98948956 219.34152962 142.62488458 225.97192313 145.71289062 231.98242188 C146.12861328 232.76552734 146.54433594 233.54863281 146.97265625 234.35546875 C147.33883057 235.06727295 147.70500488 235.77907715 148.08227539 236.51245117 C149.67063318 238.72415315 150.80202726 239.43772408 153.375 240.3125 C155.82034598 240.40326636 155.82034598 240.40326636 158.41796875 240.046875 C159.38782715 239.93794922 160.35768555 239.82902344 161.35693359 239.71679688 C167.10931106 238.94621468 172.84513482 238.0526295 178.56445312 237.06640625 C182.72900108 236.43286022 185.69495562 236.12186971 189.7890625 237.26953125 C193.22870927 239.98695612 194.65725399 242.80621903 196.4375 246.75 C196.77692627 247.45922607 197.11635254 248.16845215 197.46606445 248.89916992 C199.94517391 254.1446423 202.12206846 259.49251789 204.07421875 264.95703125 C205.75271413 267.99646883 207.26189821 268.80427406 210.375 270.3125 C213.38633652 270.64328153 213.38633652 270.64328153 216.59375 270.4296875 C217.77324219 270.39746094 218.95273437 270.36523438 220.16796875 270.33203125 C222.63963936 270.23566475 225.11101805 270.13149497 227.58203125 270.01953125 C236.57390146 269.7935061 236.57390146 269.7935061 240.55859375 272.375 C242.60560828 275.68544071 243.8200047 278.70732406 244.9375 282.4375 C245.15035645 283.09548584 245.36321289 283.75347168 245.58251953 284.43139648 C246.55753847 287.45601251 247.39623305 290.4135104 248.05078125 293.52734375 C248.81752851 296.65001833 249.45932229 298.71422449 251.375 301.3125 C255.17016574 303.34851484 258.84465387 304.72790565 262.94140625 305.99609375 C266.48188019 307.35347682 267.64502033 308.01876647 269.375 311.3125 C270.27708388 314.26582637 270.49698958 316.90829176 270.48852539 319.98925781 C270.48844986 320.90991028 270.48837433 321.83056274 270.48829651 322.77911377 C270.48313522 323.76466248 270.47797394 324.75021118 270.47265625 325.765625 C270.47053383 327.28866241 270.47053383 327.28866241 270.46836853 328.84246826 C270.46277516 332.08250892 270.45022385 335.32248025 270.4375 338.5625 C270.43248414 340.76041567 270.42792139 342.95833242 270.42382812 345.15625 C270.4128079 350.54169029 270.39607633 355.92709019 270.375 361.3125 C271.56089722 361.32651855 271.56089722 361.32651855 272.77075195 361.34082031 C276.41026179 361.3950501 280.04855807 361.47859457 283.6875 361.5625 C284.93080078 361.57667969 286.17410156 361.59085937 287.45507812 361.60546875 C304.71653787 362.05852544 316.3770647 369.3145647 328.375 381.3125 C339.88988213 394.23377995 342.7907303 408.40800871 342.578125 425.36328125 C342.375 428.3125 342.375 428.3125 341.375 430.3125 C340.09625 430.02375 338.8175 429.735 337.5 429.4375 C336.675 429.25703125 335.85 429.0765625 335 428.890625 C333.30955771 428.51832521 331.62172984 428.13383977 329.9375 427.734375 C323.68562638 426.33171105 317.77004245 426.09365824 311.375 426.3125 C310.11835022 429.21850261 309.375 431.10854584 309.375 434.3125 C311.02048828 435.23482422 311.02048828 435.23482422 312.69921875 436.17578125 C314.15366735 436.99214917 315.60809323 437.80855756 317.0625 438.625 C317.78373047 439.02912109 318.50496094 439.43324219 319.24804688 439.84960938 C322.99052296 441.951548 326.70914757 444.07828225 330.375 446.3125 C329.375 449.3125 329.375 449.3125 326.390625 451.1015625 C325.14054203 451.72394423 323.88504223 452.33553651 322.625 452.9375 C322.00367188 453.24945313 321.38234375 453.56140625 320.7421875 453.8828125 C307.96069773 460.13873154 291.81300144 458.17235987 278.37109375 454.98046875 C270.24885487 453.35602097 261.61318891 454.08038805 253.375 454.3125 C253.79652344 455.07433594 254.21804688 455.83617187 254.65234375 456.62109375 C260.96767812 468.52364158 260.96767812 468.52364158 260.375 475.3125 C258.87260206 479.5824731 257.261235 482.01755246 253.375 484.3125 C250.31484985 484.70018005 250.31484985 484.70018005 246.68212891 484.71655273 C245.68621483 484.72684761 245.68621483 484.72684761 244.67018127 484.73735046 C242.48042265 484.75561649 240.29138081 484.75178092 238.1015625 484.74609375 C236.57465381 484.75065639 235.04774717 484.75596221 233.52084351 484.76197815 C230.32142798 484.77090936 227.12226205 484.76848701 223.92285156 484.75854492 C219.831571 484.74706768 215.74115514 484.76724659 211.64998817 484.79646206 C208.49629276 484.81485044 205.34280343 484.8145262 202.18906784 484.80882454 C200.68124556 484.80867158 199.17340909 484.81469517 197.66563797 484.82711601 C195.55210193 484.84207157 193.44014824 484.83131766 191.32666016 484.81420898 C190.12627106 484.81404282 188.92588196 484.81387665 187.68911743 484.81370544 C183.70786742 484.21160723 181.543486 482.74083781 178.375 480.3125 C177.77300781 479.86390625 177.17101562 479.4153125 176.55078125 478.953125 C174.78730312 476.49245784 174.87805385 474.04465727 174.5625 471.0625 C173.64377947 466.69132442 173.15094006 464.87605538 169.4921875 462.21875 C167.06168128 461.08629436 164.65449849 460.0264396 162.1796875 459.0078125 C158.19752064 457.3528069 154.9501688 455.07945554 151.5625 452.4375 C150.58667969 451.67695313 149.61085938 450.91640625 148.60546875 450.1328125 C146.375 448.3125 146.375 448.3125 145.375 447.3125 C143.8159359 447.26150081 142.25461366 447.27716526 140.6953125 447.3203125 C107.9088314 447.96329018 81.25870262 439.21171371 53.375 422.3125 C48.63094306 426.6833185 46.69074516 431.14322874 46.203125 437.58203125 C46.52126948 444.06990627 49.59579176 448.23105856 53.375 453.3125 C58.84992179 461.09024405 62.04172116 468.6591069 61.1875 478.3046875 C59.93439983 481.4012908 58.1640626 482.50792124 55.375 484.3125 C52.59121222 484.69147873 50.21637432 484.85183361 47.44140625 484.80859375 C46.30807106 484.8107766 46.30807106 484.8107766 45.15184021 484.81300354 C43.55911389 484.81134889 41.96637087 484.79983618 40.3737793 484.77905273 C37.94835763 484.75012948 35.52512902 484.75844527 33.09960938 484.77148438 C31.54686447 484.76524499 29.99412642 484.75685249 28.44140625 484.74609375 C27.72247696 484.74902939 27.00354767 484.75196503 26.26283264 484.75498962 C20.2125034 484.64281372 16.30498489 482.96677276 11.75 479.0625 C6.14438189 472.5717843 3.44098099 465.50101608 2.5234375 456.99609375 C2.39453125 455.81982422 2.265625 454.64355469 2.1328125 453.43164062 C2.00648438 452.21669922 1.88015625 451.00175781 1.75 449.75 C1.54890625 447.92178711 1.54890625 447.92178711 1.34375 446.05664062 C0.28943957 436.25047777 0.28943957 436.25047777 0.375 431.3125 C-2.56629904 433.2442797 -5.50234417 435.18390152 -8.4375 437.125 C-9.27087891 437.67220703 -10.10425781 438.21941406 -10.96289062 438.78320312 C-11.76533203 439.31494141 -12.56777344 439.84667969 -13.39453125 440.39453125 C-14.13292236 440.88155518 -14.87131348 441.3685791 -15.63208008 441.87036133 C-19.70576594 444.81525397 -19.70576594 444.81525397 -21.1875 449.5 C-20.52494727 453.99063516 -19.02919597 455.94819455 -16.1328125 459.3203125 C-13.11324425 463.30989749 -12.347505 466.93277393 -12.375 471.875 C-12.36726563 473.26912109 -12.36726563 473.26912109 -12.359375 474.69140625 C-12.64386577 477.49866078 -13.00717961 479.00759323 -14.625 481.3125 C-19.20013492 484.96519699 -23.49640015 484.76487981 -29.08984375 484.74609375 C-30.00077286 484.7513356 -30.91170197 484.75657745 -31.85023499 484.76197815 C-33.77246076 484.76838766 -35.69472582 484.76707523 -37.61694336 484.75854492 C-40.54937983 484.75003806 -43.47986532 484.77880571 -46.41210938 484.81054688 C-48.28385359 484.8121592 -50.15560123 484.81158077 -52.02734375 484.80859375 C-52.8993895 484.81982773 -53.77143524 484.83106171 -54.66990662 484.84263611 C-60.14939739 484.78027521 -63.27461234 483.95140886 -67.625 480.3125 C-74.32786772 472.8648692 -74.0553163 461.52531381 -73.8671875 452.00390625 C-72.15181886 425.85836812 -58.447872 404.1476397 -43.625 383.3125 C-44.14449219 382.4875 -44.66398437 381.6625 -45.19921875 380.8125 C-55.6077067 363.78065594 -59.04158298 346.33242368 -58.4375 326.4375 C-58.29571668 315.62581309 -58.83426183 307.16207117 -63.625 297.3125 C-63.90907715 296.70196777 -64.1931543 296.09143555 -64.48583984 295.46240234 C-69.96097714 283.79694721 -77.28359855 273.90596584 -86.0625 264.5 C-117.30069746 230.24229312 -127.57942832 183.85706766 -125.50488281 138.69775391 C-123.62500068 108.924971 -114.10550365 77.82535381 -92.625 56.3125 C-90.40625 54.99609375 -90.40625 54.99609375 -88.5 54.0625 C-84.85329179 50.57434432 -85.07627334 47.94864994 -84.9375 43.1875 C-84.92203125 42.43049805 -84.9065625 41.67349609 -84.890625 40.89355469 C-84.65415136 30.29316909 -81.11955366 21.90438553 -73.625 14.3125 C-64.41552726 6.26316301 -54.89039537 1.51828396 -42.5078125 1.90625 C-38.11843925 2.52480666 -34.46067162 4.14282716 -30.625 6.3125 C-29.779375 5.549375 -28.93375 4.78625 -28.0625 4 C-20.11522195 -2.46060479 -9.54597586 -4.44381635 0 0 Z " fill="#40486F" transform="translate(147.625,14.6875)"/>
<path d="M0 0 C1.83575345 1.58053895 3.38478172 3.18287943 5 5 C4 8 4 8 1.7421875 9.39453125 C0.79601562 9.86246094 -0.15015625 10.33039063 -1.125 10.8125 C-4.80425799 12.72150382 -7.97081255 14.6101294 -11.0625 17.375 C-14 20 -14 20 -16 20 C-16.26425781 20.58007812 -16.52851562 21.16015625 -16.80078125 21.7578125 C-18.04909202 24.09178768 -19.47527282 25.86107604 -21.1875 27.875 C-39.02547862 50.54409783 -41.55840394 82.56156921 -38.65869141 110.26025391 C-37.79220135 116.59136768 -36.53597744 122.799407 -35 129 C-34.72285156 130.14082031 -34.44570313 131.28164062 -34.16015625 132.45703125 C-30.61359931 144.6656858 -23.27314308 156.44153273 -15 166 C-14.35933594 166.78375 -13.71867187 167.5675 -13.05859375 168.375 C-2.00179115 181.40695886 13.83597159 193.17086695 30 199 C31.64137346 212.21388536 31.64137346 212.21388536 28.93652344 216.80517578 C26.02456505 220.33300389 22.53413462 223.12196837 19 226 C17.48421572 229.03156857 17.75028073 231.87966614 17.6875 235.25 C17.65011719 236.55453125 17.61273438 237.8590625 17.57421875 239.203125 C18.06676075 243.59533437 19.16684245 245.64585902 22 249 C25.13142316 250.93892854 28.06051124 251.46210253 31.68359375 251.96484375 C32.77607422 252.12533203 33.86855469 252.28582031 34.99414062 252.45117188 C37.28534513 252.77477365 39.57701479 253.09509937 41.86914062 253.41210938 C42.96291016 253.57388672 44.05667969 253.73566406 45.18359375 253.90234375 C46.17931396 254.04148193 47.17503418 254.18062012 48.20092773 254.32397461 C51.98827251 255.23868527 54.92174059 256.53045855 57.2668457 259.7265625 C57.56679443 260.35304688 57.86674316 260.97953125 58.17578125 261.625 C58.69930176 262.6776001 58.69930176 262.6776001 59.23339844 263.75146484 C59.58950195 264.49348145 59.94560547 265.23549805 60.3125 266 C66.81344625 279.60467044 66.81344625 279.60467044 78 289 C80.8669002 289.2521484 83.50447089 289.35108656 86.36328125 289.29296875 C87.15526413 289.28872391 87.94724701 289.28447906 88.76322937 289.28010559 C91.28000627 289.26338163 93.79596724 289.22574225 96.3125 289.1875 C98.02407693 289.17244499 99.73566649 289.15875801 101.44726562 289.14648438 C105.63182233 289.11349885 109.81577307 289.06176098 114 289 C114.28609131 289.54301758 114.57218262 290.08603516 114.86694336 290.64550781 C120.56096716 301.39015004 126.2410056 311.58918844 134 321 C134.5775 321.72832031 135.155 322.45664062 135.75 323.20703125 C140.10017676 328.54687322 143.24018117 330.16706177 150 331 C152.92953662 330.98486508 155.84237031 330.78691099 158.765625 330.60546875 C161.36546114 330.49747995 163.96559866 330.40197192 166.56591797 330.30639648 C168.34934297 330.2273963 170.13189109 330.12499296 171.91259766 329.9987793 C186.34131007 329.01202948 186.34131007 329.01202948 190.73760986 332.29925537 C193.82196792 335.58962569 195.99001767 339.34776241 198.08105469 343.32095337 C199.25204448 345.4605219 200.66757304 347.28285178 202.2421875 349.140625 C202.68820312 349.67300781 203.13421875 350.20539063 203.59375 350.75390625 C204.0165625 351.24761719 204.439375 351.74132812 204.875 352.25 C205.32101562 352.79011719 205.76703125 353.33023437 206.2265625 353.88671875 C208.62361026 356.71382507 210.52203031 358.70750626 214 360 C217.3923998 360.27587044 217.3923998 360.27587044 221.171875 360.1953125 C221.8542926 360.1924826 222.53671021 360.18965271 223.23980713 360.18673706 C225.41005307 360.17558098 227.57987971 360.15048557 229.75 360.125 C231.22525444 360.11496426 232.70051537 360.10583944 234.17578125 360.09765625 C237.78398942 360.07565687 241.39195375 360.04115883 245 360 C244.855625 359.25234375 244.71125 358.5046875 244.5625 357.734375 C244.376875 356.74953125 244.19125 355.7646875 244 354.75 C243.814375 353.77546875 243.62875 352.8009375 243.4375 351.796875 C243 349 243 349 243 345 C243.94359375 344.85304688 244.8871875 344.70609375 245.859375 344.5546875 C256.68246755 342.66390627 266.12259018 339.88787542 274.3125 332.125 C285.76051308 321.28060943 300.57574539 316.76856252 316 316 C317.38013585 318.48847251 318.72809945 320.98713887 320.0625 323.5 C320.64741211 324.54414062 320.64741211 324.54414062 321.24414062 325.609375 C324.47050675 331.77658813 324.30270842 335.69966146 322.2734375 342.3984375 C319.94439791 347.52232459 317.0446301 351.89559545 313.7421875 356.4453125 C310.02547287 361.89538284 307.39598672 367.87451358 305 374 C315.16283492 375.93280909 326.41857137 376.43483268 336 372 C337.33391518 371.00077627 338.66734173 370.00089946 340 369 C343.86303791 369.12461413 346.10593232 371.6571833 349 374 C353.46987866 376.61010132 356.92774819 377.3525055 362.0625 377.6875 C370.4515894 378.49676368 376.097652 382.29300797 383 387 C385.63150533 388.43898026 388.28538329 389.72253331 391 391 C391 392.32 391 393.64 391 395 C388.77447742 396.15341698 386.54504031 397.29781159 384.3125 398.4375 C383.37374023 398.92573242 383.37374023 398.92573242 382.41601562 399.42382812 C369.692386 405.88556673 353.46582382 403.86646653 339.99609375 400.66796875 C331.87385487 399.04352097 323.23818891 399.76788805 315 400 C315.42152344 400.76183594 315.84304688 401.52367187 316.27734375 402.30859375 C322.59267812 414.21114158 322.59267812 414.21114158 322 421 C320.49760206 425.2699731 318.886235 427.70505246 315 430 C311.93984985 430.38768005 311.93984985 430.38768005 308.30712891 430.40405273 C307.31121483 430.41434761 307.31121483 430.41434761 306.29518127 430.42485046 C304.10542265 430.44311649 301.91638081 430.43928092 299.7265625 430.43359375 C298.19965381 430.43815639 296.67274717 430.44346221 295.14584351 430.44947815 C291.94642798 430.45840936 288.74726205 430.45598701 285.54785156 430.44604492 C281.456571 430.43456768 277.36615514 430.45474659 273.27498817 430.48396206 C270.12129276 430.50235044 266.96780343 430.5020262 263.81406784 430.49632454 C262.30624556 430.49617158 260.79840909 430.50219517 259.29063797 430.51461601 C257.17710193 430.52957157 255.06514824 430.51881766 252.95166016 430.50170898 C251.75127106 430.50154282 250.55088196 430.50137665 249.31411743 430.50120544 C245.33286742 429.89910723 243.168486 428.42833781 240 426 C239.39800781 425.55140625 238.79601562 425.1028125 238.17578125 424.640625 C236.41230312 422.17995784 236.50305385 419.73215727 236.1875 416.75 C235.26877947 412.37882442 234.77594006 410.56355538 231.1171875 407.90625 C228.68668128 406.77379436 226.27949849 405.7139396 223.8046875 404.6953125 C219.82252064 403.0403069 216.5751688 400.76695554 213.1875 398.125 C212.21167969 397.36445313 211.23585938 396.60390625 210.23046875 395.8203125 C208 394 208 394 207 393 C205.4409359 392.94900081 203.87961366 392.96466526 202.3203125 393.0078125 C169.5338314 393.65079018 142.88370262 384.89921371 115 368 C110.25594306 372.3708185 108.31574516 376.83072874 107.828125 383.26953125 C108.14626948 389.75740627 111.22079176 393.91855856 115 399 C120.47492179 406.77774405 123.66672116 414.3466069 122.8125 423.9921875 C121.55939983 427.0887908 119.7890626 428.19542124 117 430 C114.21621222 430.37897873 111.84137432 430.53933361 109.06640625 430.49609375 C107.93307106 430.4982766 107.93307106 430.4982766 106.77684021 430.50050354 C105.18411389 430.49884889 103.59137087 430.48733618 101.9987793 430.46655273 C99.57335763 430.43762948 97.15012902 430.44594527 94.72460938 430.45898438 C93.17186447 430.45274499 91.61912642 430.44435249 90.06640625 430.43359375 C89.34747696 430.43652939 88.62854767 430.43946503 87.88783264 430.44248962 C81.8375034 430.33031372 77.92998489 428.65427276 73.375 424.75 C67.76938189 418.2592843 65.06598099 411.18851608 64.1484375 402.68359375 C64.01953125 401.50732422 63.890625 400.33105469 63.7578125 399.11914062 C63.63148438 397.90419922 63.50515625 396.68925781 63.375 395.4375 C63.17390625 393.60928711 63.17390625 393.60928711 62.96875 391.74414062 C61.91443957 381.93797777 61.91443957 381.93797777 62 377 C59.05870096 378.9317797 56.12265583 380.87140152 53.1875 382.8125 C52.35412109 383.35970703 51.52074219 383.90691406 50.66210938 384.47070312 C49.85966797 385.00244141 49.05722656 385.53417969 48.23046875 386.08203125 C47.49207764 386.56905518 46.75368652 387.0560791 45.99291992 387.55786133 C41.91923406 390.50275397 41.91923406 390.50275397 40.4375 395.1875 C41.10005273 399.67813516 42.59580403 401.63569455 45.4921875 405.0078125 C48.51175575 408.99739749 49.277495 412.62027393 49.25 417.5625 C49.25773437 418.95662109 49.25773437 418.95662109 49.265625 420.37890625 C48.98113423 423.18616078 48.61782039 424.69509323 47 427 C42.42486508 430.65269699 38.12859985 430.45237981 32.53515625 430.43359375 C31.62422714 430.4388356 30.71329803 430.44407745 29.77476501 430.44947815 C27.85253924 430.45588766 25.93027418 430.45457523 24.00805664 430.44604492 C21.07562017 430.43753806 18.14513468 430.46630571 15.21289062 430.49804688 C13.34114641 430.4996592 11.46939877 430.49908077 9.59765625 430.49609375 C8.7256105 430.50732773 7.85356476 430.51856171 6.95509338 430.53013611 C1.47560261 430.46777521 -1.64961234 429.63890886 -6 426 C-12.70286772 418.5523692 -12.4303163 407.21281381 -12.2421875 397.69140625 C-10.52681886 371.54586812 3.177128 349.8351397 18 329 C17.48050781 328.175 16.96101563 327.35 16.42578125 326.5 C6.0172933 309.46815594 2.58341702 292.01992368 3.1875 272.125 C3.32928332 261.31331309 2.79073817 252.84957117 -2 243 C-2.28407715 242.38946777 -2.5681543 241.77893555 -2.86083984 241.14990234 C-8.33597714 229.48444721 -15.65859855 219.59346584 -24.4375 210.1875 C-55.67569746 175.92979312 -65.95442832 129.54456766 -63.87988281 84.38525391 C-61.9656022 54.06768237 -52.08201447 21.06099428 -28.921875 0.12109375 C-20.67015429 -6.17532792 -8.35224862 -5.9146014 0 0 Z " fill="#A96062" transform="translate(86,69)"/>
<path d="M0 0 C2.5625 1.9375 2.5625 1.9375 5 5 C6.2880897 6.41991977 7.58011581 7.83627366 8.875 9.25 C12.29675984 13.11244103 15.46847422 17.11590965 18.5546875 21.25 C19.89897526 23.11817622 19.89897526 23.11817622 22 24 C29.33486787 24.6939691 35.3846232 21.99849406 42.17382812 19.48828125 C47.67971573 17.53470781 52.15380222 16.14964396 58 17 C63.61448956 21.02902962 66.24988458 27.65942313 69.33789062 33.66992188 C69.75361328 34.45302734 70.16933594 35.23613281 70.59765625 36.04296875 C71.14691772 37.11067505 71.14691772 37.11067505 71.70727539 38.19995117 C73.29563318 40.41165315 74.42702726 41.12522408 77 42 C79.44534598 42.09076636 79.44534598 42.09076636 82.04296875 41.734375 C83.49775635 41.57098633 83.49775635 41.57098633 84.98193359 41.40429688 C90.73431106 40.63371468 96.47013482 39.7401295 102.18945312 38.75390625 C106.35400108 38.12036022 109.31995562 37.80936971 113.4140625 38.95703125 C116.85370927 41.67445612 118.28225399 44.49371903 120.0625 48.4375 C120.40192627 49.14672607 120.74135254 49.85595215 121.09106445 50.58666992 C123.57017391 55.8321423 125.74706846 61.18001789 127.69921875 66.64453125 C129.37771413 69.68396883 130.88689821 70.49177406 134 72 C137.01133652 72.33078153 137.01133652 72.33078153 140.21875 72.1171875 C141.39824219 72.08496094 142.57773437 72.05273438 143.79296875 72.01953125 C146.26463936 71.92316475 148.73601805 71.81899497 151.20703125 71.70703125 C160.19890146 71.4810061 160.19890146 71.4810061 164.18359375 74.0625 C166.23060828 77.37294071 167.4450047 80.39482406 168.5625 84.125 C168.88178467 85.11197876 168.88178467 85.11197876 169.20751953 86.11889648 C170.18253847 89.14351251 171.02123305 92.1010104 171.67578125 95.21484375 C172.44252851 98.33751833 173.08432229 100.40172449 175 103 C178.79516574 105.03601484 182.46965387 106.41540565 186.56640625 107.68359375 C190.10688019 109.04097682 191.27002033 109.70626647 193 113 C194.26936219 116.76566431 194.11331134 120.44554145 194.09765625 124.390625 C194.09553383 125.44754547 194.09553383 125.44754547 194.09336853 126.52581787 C194.08778933 128.76725584 194.07524073 131.00859243 194.0625 133.25 C194.05748231 134.77343605 194.05291987 136.29687368 194.04882812 137.8203125 C194.03782674 141.54690772 194.02057646 145.27344396 194 149 C192.73027344 148.95359375 191.46054687 148.9071875 190.15234375 148.859375 C167.59999016 148.27817417 150.39180514 154.95221981 132.72998047 168.69702148 C120.63245787 178.03695461 108.3847222 181.94973394 93.26171875 182.984375 C88.08369061 181.42166471 86.53290259 177.56167764 84 173 C83.5155542 172.14776855 83.0311084 171.29553711 82.53198242 170.41748047 C81.07646804 167.81344181 79.65769317 165.19266355 78.25 162.5625 C77.30007071 160.79125116 76.34708986 159.02163448 75.390625 157.25390625 C74.97844727 156.48377197 74.56626953 155.7136377 74.14160156 154.92016602 C73.02236244 152.85806706 73.02236244 152.85806706 71 151 C68.76996519 150.74220787 68.76996519 150.74220787 66.1706543 150.85229492 C65.16588547 150.86858444 64.16111664 150.88487396 63.12590027 150.9016571 C62.03634537 150.92766495 60.94679047 150.95367279 59.82421875 150.98046875 C57.52930818 151.01063786 55.23438562 151.03990653 52.93945312 151.06835938 C49.31158445 151.12412738 45.68430918 151.18757016 42.05688477 151.26733398 C38.56259989 151.33988875 35.06903741 151.38109784 31.57421875 151.41796875 C29.94899544 151.46608955 29.94899544 151.46608955 28.29093933 151.5151825 C20.79755202 151.56566694 20.79755202 151.56566694 17.00561523 148.8762207 C14.89086415 145.84349003 13.05005036 142.84010734 11.3359375 139.5625 C11.01718658 138.95994385 10.69843567 138.3573877 10.37002563 137.73657227 C9.3629871 135.82880487 8.36863485 133.91477688 7.375 132 C6.37153004 130.08674302 5.3654839 128.17486416 4.35855103 126.26342773 C3.44746335 124.53073654 2.54264288 122.79475415 1.63818359 121.05859375 C0.82728271 119.54458984 0.82728271 119.54458984 0 118 C-0.39050537 117.05390869 -0.78101074 116.10781738 -1.18334961 115.13305664 C-2.95073942 112.58927916 -2.95073942 112.58927916 -6.76538086 112.40405273 C-8.33183593 112.38994737 -9.89865487 112.40145597 -11.46484375 112.43359375 C-12.29456192 112.42795914 -13.12428009 112.42232452 -13.97914124 112.41651917 C-16.63249976 112.40004081 -19.28419873 112.41563147 -21.9375 112.4375 C-24.58707682 112.45409141 -27.23555344 112.4631907 -29.88514709 112.44776917 C-31.53345581 112.43848683 -33.18199631 112.44766251 -34.83006287 112.47740173 C-38.2726343 112.460986 -40.51498604 112.33618027 -43.3828125 110.34838867 C-45.24959472 107.63755259 -46.36009568 105.09164924 -47.47265625 101.9921875 C-47.89740234 100.84105469 -48.32214844 99.68992187 -48.75976562 98.50390625 C-49.18966797 97.30636719 -49.61957031 96.10882813 -50.0625 94.875 C-50.91935927 92.49412803 -51.78483904 90.11633554 -52.66015625 87.7421875 C-53.03793213 86.6888623 -53.41570801 85.63553711 -53.80493164 84.55029297 C-54.86442006 81.7162331 -54.86442006 81.7162331 -58 80 C-60.02060278 79.50462802 -60.02060278 79.50462802 -62.23828125 79.25390625 C-63.05876953 79.13853516 -63.87925781 79.02316406 -64.72460938 78.90429688 C-66.43784645 78.67802028 -68.15138702 78.45402876 -69.86523438 78.23242188 C-74.73351983 77.54347765 -78.80895853 76.76317876 -83 74 C-84.01476754 71.14898645 -84.5890567 68.93530928 -85 66 C-85.20625 64.824375 -85.4125 63.64875 -85.625 62.4375 C-86.65462948 52.78949047 -87.25738669 42.91641363 -83 34 C-82.58621094 33.12988281 -82.17242187 32.25976562 -81.74609375 31.36328125 C-78.26220669 24.55688609 -74.00936898 18.7538807 -69 13 C-67.93072266 11.66582031 -67.93072266 11.66582031 -66.83984375 10.3046875 C-61.46543793 4.1056374 -61.46543793 4.1056374 -57.453125 3.81640625 C-54.83435795 4.32032052 -52.48954966 5.04982188 -50 6 C-38.13577114 9.68200206 -30.08928194 6.71379492 -18.64257812 2.84375 C-12.16900049 0.73484745 -6.81986762 -0.65842218 0 0 Z " fill="#797991" transform="translate(224,213)"/>
<path d="M0 0 C1.175625 1.1446875 1.175625 1.1446875 2.375 2.3125 C3.138125 3.034375 3.90125 3.75625 4.6875 4.5 C7.04811654 8.4343609 7.68563595 11.73964979 7.375 16.3125 C5.08524004 24.92148577 1.12166174 30.76554637 -6.625 35.3125 C-7.285 35.3125 -7.945 35.3125 -8.625 35.3125 C-8.57279297 36.32957031 -8.57279297 36.32957031 -8.51953125 37.3671875 C-8.24555965 46.78659204 -9.60991447 54.96537903 -15.69921875 62.4296875 C-24.39926414 70.93561423 -35.93844564 75.33275287 -48 75.375 C-49.19625 75.354375 -50.3925 75.33375 -51.625 75.3125 C-51.7075 76.17875 -51.79 77.045 -51.875 77.9375 C-53.22949841 84.03274285 -56.59257449 87.78980214 -61.625 91.3125 C-62.32496094 91.5496875 -63.02492187 91.786875 -63.74609375 92.03125 C-64.36613281 92.4540625 -64.98617187 92.876875 -65.625 93.3125 C-66.22076473 96.2234694 -66.22076473 96.2234694 -66.1875 99.5625 C-66.5422579 106.57282467 -67.85370235 110.58253809 -72.6875 115.6875 C-75.625 118.3125 -75.625 118.3125 -77.625 118.3125 C-77.625 118.9725 -77.625 119.6325 -77.625 120.3125 C-76.14 120.8075 -76.14 120.8075 -74.625 121.3125 C-70.338385 127.99457632 -68.44424377 133.44978864 -70.07421875 141.54296875 C-70.55640861 143.475148 -71.08680126 145.395167 -71.625 147.3125 C-70.779375 147.498125 -69.93375 147.68375 -69.0625 147.875 C-63.34438843 150.26621029 -59.82111586 154.05838789 -56.93359375 159.5 C-55.24156495 163.69795194 -55.25089167 167.65322166 -55.375 172.125 C-55.38015625 172.88748047 -55.3853125 173.64996094 -55.390625 174.43554688 C-55.46936135 180.0012227 -55.46936135 180.0012227 -56.625 182.3125 C-55.59375 182.395 -54.5625 182.4775 -53.5 182.5625 C-46.5387502 183.90983867 -42.67168956 187.80450587 -38.625 193.3125 C-36.90416287 196.94944656 -36.28923767 200.12387893 -36 204.125 C-35.88785156 205.58873047 -35.88785156 205.58873047 -35.7734375 207.08203125 C-35.72445312 207.81808594 -35.67546875 208.55414063 -35.625 209.3125 C-46.62533761 214.02693041 -57.87595104 215.59072024 -69.75 215.75 C-70.65065186 215.77215576 -71.55130371 215.79431152 -72.47924805 215.81713867 C-76.51562746 215.80382733 -78.97886844 215.68744814 -82.51953125 213.6328125 C-89.05359301 206.43200974 -92.65257889 197.43908876 -95.625 188.3125 C-96.02138672 187.29542969 -96.02138672 187.29542969 -96.42578125 186.2578125 C-106.56435513 159.5335716 -104.42819194 124.14021192 -93.3984375 98.0078125 C-85.92727185 81.70944304 -74.15322299 68.62306017 -57.625 61.3125 C-57.81328772 58.86769921 -57.81328772 58.86769921 -58.625 56.3125 C-60.28774199 55.06125954 -60.28774199 55.06125954 -62.625 54.3125 C-63.553125 53.77625 -64.48125 53.24 -65.4375 52.6875 C-71.2733995 50.12947357 -78.37485232 51.0953134 -84.625 51.3125 C-85.18771144 37.97936506 -84.72525409 27.1469974 -75.73046875 16.4453125 C-67.35566677 7.96174686 -57.54340806 2.30095255 -45.5 1.8125 C-39.86709786 1.9889878 -35.49792341 3.55609888 -30.625 6.3125 C-29.779375 5.549375 -28.93375 4.78625 -28.0625 4 C-20.11522195 -2.46060479 -9.54597586 -4.44381635 0 0 Z " fill="#797991" transform="translate(147.625,14.6875)"/>
<path d="M0 0 C1.38013585 2.48847251 2.72809945 4.98713887 4.0625 7.5 C4.45244141 8.19609375 4.84238281 8.8921875 5.24414062 9.609375 C8.47050675 15.77658813 8.30270842 19.69966146 6.2734375 26.3984375 C3.94439791 31.52232459 1.0446301 35.89559545 -2.2578125 40.4453125 C-5.97452713 45.89538284 -8.60401328 51.87451358 -11 58 C-0.83716508 59.93280909 10.41857137 60.43483268 20 56 C21.33391518 55.00077627 22.66734173 54.00089946 24 53 C27.86303791 53.12461413 30.10593232 55.6571833 33 58 C37.46987866 60.61010132 40.92774819 61.3525055 46.0625 61.6875 C54.4515894 62.49676368 60.097652 66.29300797 67 71 C69.63150533 72.43898026 72.28538329 73.72253331 75 75 C75 76.32 75 77.64 75 79 C72.77447742 80.15341698 70.54504031 81.29781159 68.3125 82.4375 C67.68666016 82.76298828 67.06082031 83.08847656 66.41601562 83.42382812 C55.21473504 89.11243659 39.94047912 88.48315542 27.9375 85.5 C15.27386604 82.50034592 -0.27128101 82.30407085 -13 85 C-31.96402763 87.09833192 -31.96402763 87.09833192 -37.87109375 83.015625 C-39.75 80.4375 -39.75 80.4375 -41.359375 77.66796875 C-44.1487541 73.13190703 -48.59399781 70.82490093 -53 68 C-63.76251472 60.82499019 -69.26249449 52.7399295 -72 40 C-72.5157231 36.33312131 -72.85172734 32.6994029 -73 29 C-72.05640625 28.85304688 -71.1128125 28.70609375 -70.140625 28.5546875 C-59.31753245 26.66390627 -49.87740982 23.88787542 -41.6875 16.125 C-30.62194024 5.64289703 -15.11699627 0 0 0 Z " fill="#E19F82" transform="translate(402,385)"/>
<path d="M0 0 C1.175625 1.1446875 1.175625 1.1446875 2.375 2.3125 C3.138125 3.034375 3.90125 3.75625 4.6875 4.5 C7.04811654 8.4343609 7.68563595 11.73964979 7.375 16.3125 C5.08524004 24.92148577 1.12166174 30.76554637 -6.625 35.3125 C-7.285 35.3125 -7.945 35.3125 -8.625 35.3125 C-8.57279297 36.32957031 -8.57279297 36.32957031 -8.51953125 37.3671875 C-8.24555965 46.78659204 -9.60991447 54.96537903 -15.69921875 62.4296875 C-24.40741717 70.94358535 -35.88584807 75.24518641 -47.9375 75.4375 C-51.625 75.3125 -51.625 75.3125 -52.625 74.3125 C-52.94671315 72.92328411 -53.23253496 71.52567219 -53.5 70.125 C-54.34234103 66.14129693 -55.66049322 62.8998602 -57.625 59.3125 C-57.955 58.3225 -58.285 57.3325 -58.625 56.3125 C-60.32269234 55.21081016 -60.32269234 55.21081016 -62.625 54.3125 C-63.553125 53.77625 -64.48125 53.24 -65.4375 52.6875 C-71.2733995 50.12947357 -78.37485232 51.0953134 -84.625 51.3125 C-85.18771144 37.97936506 -84.72525409 27.1469974 -75.73046875 16.4453125 C-67.35566677 7.96174686 -57.54340806 2.30095255 -45.5 1.8125 C-39.86709786 1.9889878 -35.49792341 3.55609888 -30.625 6.3125 C-29.779375 5.549375 -28.93375 4.78625 -28.0625 4 C-20.11522195 -2.46060479 -9.54597586 -4.44381635 0 0 Z " fill="#40486F" transform="translate(147.625,14.6875)"/>
<path d="M0 0 C19.57883137 -0.58883703 31.09685806 3.18086553 45.640625 16.640625 C57.15625627 28.15625627 61.99775226 41.03861874 62.25097656 57.30444336 C62.24698795 65.5060241 62.24698795 65.5060241 61 68 C59.72125 67.71125 58.4425 67.4225 57.125 67.125 C55.8875 66.85429687 55.8875 66.85429687 54.625 66.578125 C52.93455771 66.20582521 51.24672984 65.82133977 49.5625 65.421875 C43.31062638 64.01921105 37.39504245 63.78115824 31 64 C30.01 66.31 29.02 68.62 28 71 C18.31461148 71.54594048 10.78870982 69.8890245 3 64 C2.34 63.34 1.68 62.68 1 62 C-2.06648771 62.41579494 -4.71213 63.70154 -7.5 65 C-13.00191386 67.56253522 -17.25413916 68.15695678 -23.375 68.1875 C-24.66148437 68.20167969 -25.94796875 68.21585937 -27.2734375 68.23046875 C-30.88452711 68.00714141 -33.64761667 67.31293032 -37 66 C-34.83894409 56.51193549 -30.27055203 49.16224438 -24.3125 41.5625 C-20.90729766 36.96209419 -19.64141667 31.41059569 -18 26 C-11.73 26 -5.46 26 1 26 C0.505 13.13 0.505 13.13 0 0 Z " fill="#A96062" transform="translate(428,377)"/>
<path d="M0 0 C0.66 6.27 1.32 12.54 2 19 C10.47288978 21.70229902 10.47288978 21.70229902 19.0625 23.98046875 C19.72950928 24.1412793 20.39651855 24.30208984 21.08374023 24.46777344 C22.98097755 24.91814785 24.88300171 25.3482113 26.78515625 25.77734375 C32.50871486 27.9541042 34.42993306 32.56756485 37.0625 37.8125 C38.00652945 39.5368066 38.95164295 41.26054112 39.9054718 42.97944641 C40.63600967 44.32805572 41.34165788 45.69044266 42.02189636 47.06510925 C46.41025106 56.08456654 46.41025106 56.08456654 54.18716431 61.82437134 C60.21764786 62.92326772 66.29644679 62.43379409 72.375 62 C75.10318006 61.8500152 77.82733898 61.72415972 80.5585022 61.64453125 C82.24665877 61.59106212 83.93416429 61.49536097 85.61703491 61.3515625 C87.98638751 61.25174381 89.74381154 61.25905312 92 62 C94.26835419 64.4007625 95.60889435 67.02685009 97 70 C97.68390006 71.26639097 98.37305187 72.52997831 99.0703125 73.7890625 C100.08569324 75.67751684 101.09514003 77.56711571 102.078125 79.47265625 C102.81589962 80.83070805 103.60151881 82.16335308 104.42114258 83.47363281 C105.29350484 84.86952035 106.14710465 86.27999415 106.91268921 87.73718262 C109.48652027 92.56764915 112.25086327 97.07824035 117 100 C124.58490544 101.95127901 132.86062281 100.69071971 140.5625 100 C161.20214031 98.15209616 161.20214031 98.15209616 165.89129639 101.24914551 C169.09870956 104.47048306 171.1682755 108.22006921 173.13400269 112.28637695 C174.27109025 114.53642949 175.71601439 116.41526951 177.3125 118.359375 C177.76753906 118.936875 178.22257813 119.514375 178.69140625 120.109375 C179.12324219 120.65078125 179.55507813 121.1921875 180 121.75 C180.46277344 122.3378125 180.92554688 122.925625 181.40234375 123.53125 C183.1895099 125.78981359 184.96167179 127.96167179 187 130 C189.71934335 130.27844932 189.71934335 130.27844932 192.8828125 130.1953125 C194.04941406 130.18886719 195.21601563 130.18242187 196.41796875 130.17578125 C197.64128906 130.15902344 198.86460937 130.14226562 200.125 130.125 C201.35605469 130.11597656 202.58710938 130.10695313 203.85546875 130.09765625 C206.90383815 130.07402548 209.95182382 130.04108054 213 130 C213.33776684 131.7491497 213.67003671 133.49936145 214 135.25 C214.185625 136.22453125 214.37125 137.1990625 214.5625 138.203125 C215 141 215 141 215 145 C208.80407496 146.14078049 202.78489582 146.25800668 196.5 146.3125 C195.38496094 146.34150391 194.26992188 146.37050781 193.12109375 146.40039062 C186.90084372 146.44858088 182.77751529 146.41226183 178 142 C176.1049928 140.00942327 174.35371054 138.05897055 172.625 135.9375 C172.15602295 135.37184326 171.6870459 134.80618652 171.20385742 134.22338867 C159 119.36064827 159 119.36064827 159 116 C158.33266846 116.16153564 157.66533691 116.32307129 156.9777832 116.48950195 C153.42359293 117.09881669 149.94938979 117.16219599 146.35546875 117.16796875 C145.62685135 117.17129715 144.89823395 117.17462555 144.14753723 117.17805481 C142.61032743 117.18310097 141.07310675 117.18546385 139.53588867 117.18530273 C137.20537894 117.18748327 134.87534765 117.20564681 132.54492188 117.22460938 C131.04427243 117.22754513 129.54362077 117.22952871 128.04296875 117.23046875 C127.35623581 117.23765427 126.66950287 117.24483978 125.96195984 117.25224304 C117.86872453 117.21474111 111.91310017 115.78939514 106 110 C96.89423973 99.60582532 89.35500325 87.72511647 84 75 C82.94087402 75.02094727 81.88174805 75.04189453 80.79052734 75.06347656 C76.84340043 75.13613385 72.89633208 75.18189254 68.94873047 75.21972656 C67.24355106 75.23978369 65.53843994 75.26703657 63.83349609 75.30175781 C61.37580476 75.35053861 58.91902634 75.37302719 56.4609375 75.390625 C55.70444916 75.41127014 54.94796082 75.43191528 54.16854858 75.45318604 C48.98460501 75.45536042 46.14243974 74.36928824 42 71 C40.015625 68.8359375 40.015625 68.8359375 38.25 66.375 C37.56421875 65.42367187 36.8784375 64.47234375 36.171875 63.4921875 C34.45458402 60.88830236 33.12497743 58.21808791 31.828125 55.3828125 C28.34306623 47.09443646 28.34306623 47.09443646 22.18457031 40.93359375 C17.56247116 39.3198933 12.85618171 39.18567754 8 39 C-5.13569596 37.36540106 -5.13569596 37.36540106 -10 33 C-13.77245138 27.90308022 -13.78721801 22.81412977 -13.55078125 16.67578125 C-12.71415852 11.09236287 -10.19641407 8.52742052 -6 5 C-5.03415257 4.00725556 -4.07470837 3.00819481 -3.125 2 C-1 0 -1 0 0 0 Z " fill="#753662" transform="translate(116,284)"/>
<path d="M0 0 C1.83575345 1.58053895 3.38478172 3.18287943 5 5 C4 8 4 8 1.7421875 9.39453125 C0.79601562 9.86246094 -0.15015625 10.33039063 -1.125 10.8125 C-4.80425799 12.72150382 -7.97081255 14.6101294 -11.0625 17.375 C-14 20 -14 20 -16 20 C-16.26425781 20.58007812 -16.52851562 21.16015625 -16.80078125 21.7578125 C-18.04909202 24.09178768 -19.47527282 25.86107604 -21.1875 27.875 C-39.02547862 50.54409783 -41.55840394 82.56156921 -38.65869141 110.26025391 C-37.79220135 116.59136768 -36.53597744 122.799407 -35 129 C-34.72285156 130.14082031 -34.44570313 131.28164062 -34.16015625 132.45703125 C-31.92250509 140.15991334 -27.88282843 146.86345412 -23.828125 153.7265625 C-22 157 -22 157 -22 159 C-35.050817 158.77498591 -45.45976096 151.21818344 -55 143 C-57.25375853 140.92558779 -57.25375853 140.92558779 -60 140 C-60.48451938 137.23001185 -60.96267495 134.45915318 -61.4375 131.6875 C-61.57220703 130.92115234 -61.70691406 130.15480469 -61.84570312 129.36523438 C-68.31447813 91.34145933 -63.87351081 47.65552054 -42 15 C-30.02583143 -1.49603216 -30.02583143 -1.49603216 -21.63671875 -3.58984375 C-13.66472699 -4.82993136 -6.74604205 -4.77717457 0 0 Z " fill="#FBE1CA" transform="translate(86,69)"/>
<path d="M0 0 C0.86625 0.804375 1.7325 1.60875 2.625 2.4375 C10.99561176 9.57115901 23.75380682 19.6223542 35.3125 18.75 C38 19 38 19 39.375 20.4140625 C40.38464031 21.79134358 41.36824732 23.18790547 42.33203125 24.59765625 C53.04863298 40.03257443 71.29841816 53.61638861 89 60 C90.68973422 73.60321387 90.68973422 73.60321387 86.796875 79.125 C84.85667986 80.94857138 82.92221375 82.69284632 80.8984375 84.4140625 C71.07653468 93.17700006 65.33009969 107.14236969 64 120 C62 119 62 119 60.9921875 116.1484375 C60.62351563 114.90320313 60.25484375 113.65796875 59.875 112.375 C54.82195007 96.42062239 45.9221278 83.35852978 34.5625 71.1875 C18.96067724 54.07759244 -0.93105023 23.90318079 0 0 Z " fill="#E19F83" transform="translate(27,208)"/>
<path d="M0 0 C5.09330001 3.39553334 7.42189394 9.05116855 10.25390625 14.35546875 C12.19349974 17.29306336 12.7357461 17.89163107 16 19 C18.98396838 19.19288399 21.94385736 19.06458716 24.9296875 18.94921875 C26.71220673 18.90931191 28.49476107 18.87094844 30.27734375 18.83398438 C33.0782874 18.76596216 35.87745288 18.68740747 38.67724609 18.58178711 C41.38663733 18.48466519 44.09400416 18.43236493 46.8046875 18.38671875 C47.63612274 18.34431564 48.46755798 18.30191254 49.32418823 18.25822449 C52.73750203 18.22795153 55.05057342 18.25421859 57.79469299 20.40974426 C60.75683361 23.75207399 63.05188339 27.46458961 65.10546875 31.42578125 C65.61400391 32.38677734 66.12253906 33.34777344 66.64648438 34.33789062 C67.15501953 35.31951172 67.66355469 36.30113281 68.1875 37.3125 C69.21578614 39.29134557 70.25064852 41.26679178 71.29296875 43.23828125 C71.96622192 44.5382605 71.96622192 44.5382605 72.65307617 45.86450195 C73.9704564 48.27485344 73.9704564 48.27485344 77 50 C79.91645998 50.01637511 79.91645998 50.01637511 83.375 49.625 C91.6166861 48.99637996 99.86196121 48.67567818 108.125 48.5 C110.02838135 48.41806396 110.02838135 48.41806396 111.97021484 48.33447266 C120.70750541 48.20750763 120.70750541 48.20750763 123.98291016 50.21582031 C125.65097281 52.04173866 126.79764276 53.83833038 128 56 C128.4954834 56.82371094 128.9909668 57.64742188 129.50146484 58.49609375 C131.64692403 62.15532696 133.65582453 65.883739 135.67578125 69.61328125 C136.17722656 70.51949219 136.67867187 71.42570312 137.1953125 72.359375 C137.86071045 73.58865723 137.86071045 73.58865723 138.53955078 74.84277344 C140.203807 77.3010429 141.38062597 78.58411451 144 80 C147.32441828 80.38123953 147.32441828 80.38123953 151.03125 80.22265625 C152.04064636 80.20917397 152.04064636 80.20917397 153.07043457 80.19541931 C155.21415614 80.16547967 157.35673891 80.11570835 159.5 80.0625 C161.64318195 80.01459018 163.78606874 79.97125418 165.92956543 79.94029236 C167.87446472 79.91154965 169.81910213 79.8664687 171.76367188 79.82055664 C174.87068212 79.99282976 176.48548253 80.22508976 179 82 C182.47255649 87.8760338 182.36595711 93.24307046 182.1875 99.9375 C182.17396484 100.90751953 182.16042969 101.87753906 182.14648438 102.87695312 C182.11138677 105.25189129 182.06222275 107.62564378 182 110 C181.01 110 180.02 110 179 110 C178.44570313 109.00097656 177.89140625 108.00195312 177.3203125 106.97265625 C176.58882662 105.66911089 175.85704018 104.36573416 175.125 103.0625 C174.76019531 102.40314453 174.39539063 101.74378906 174.01953125 101.06445312 C172.14582102 97.42063631 172.14582102 97.42063631 169 95 C163.39381378 94.80500222 158.04933577 95.2520021 152.5 96 C137.79379993 97.98225648 137.79379993 97.98225648 133.33203125 95.5390625 C130.19085381 92.11902006 127.99416569 88.38890317 125.6875 84.375 C119.44625779 72.66070098 119.44625779 72.66070098 110 64 C98.61963827 63.35184695 87.06092618 64.16820927 76 67 C71.91598802 67.45377911 69.73269784 67.44307387 66.18359375 65.296875 C61.31712968 61.01821418 59.09997818 54.63899871 56.4375 48.875 C55.34541064 46.51199963 54.24043327 44.15490216 53.12109375 41.8046875 C52.6408374 40.76296387 52.16058105 39.72124023 51.66577148 38.64794922 C49.68522761 35.49963046 48.44012183 34.41041138 45 33 C42.12658448 32.7271411 39.46291447 32.60589468 36.59375 32.62890625 C34.94661245 32.6115289 33.29947708 32.59394446 31.65234375 32.57617188 C29.07173721 32.5660933 26.49126996 32.56250576 23.91064453 32.56420898 C21.40876203 32.56063419 18.90794282 32.53328233 16.40625 32.50390625 C15.63841187 32.51208878 14.87057373 32.5202713 14.07946777 32.52870178 C9.06829119 32.4592647 6.50953051 31.58359003 3 28 C1.01692878 25.31062944 -0.8030514 22.58605771 -2.60546875 19.77734375 C-5.04459871 16.08869459 -7.11197621 13.16176221 -11 11 C-14.62083278 10.53327832 -18.16979246 10.62278657 -21.8125 10.75 C-22.79154297 10.76804687 -23.77058594 10.78609375 -24.77929688 10.8046875 C-27.18720771 10.85167113 -29.59309335 10.91734306 -32 11 C-31.67 10.01 -31.34 9.02 -31 8 C-28.43411525 6.83691729 -25.96431815 5.85588875 -23.3125 4.9375 C-22.60416016 4.68162109 -21.89582031 4.42574219 -21.16601562 4.16210938 C-19.11582624 3.42570709 -17.05901272 2.71128598 -15 2 C-13.93265625 1.6184375 -12.8653125 1.236875 -11.765625 0.84375 C-7.73881742 -0.38476757 -4.1602549 -0.70499664 0 0 Z " fill="#40486F" transform="translate(195,246)"/>
<path d="M0 0 C3.41401884 1.48301271 5.69359537 3.43756554 8.375 6 C14.486068 11.62620781 21.17769233 16.29123145 28 21 C27.39021846 23.88375853 26.47144177 26.08243517 25 28.625 C22.23326377 34.13805375 20.86902203 39.57593824 22.8515625 45.578125 C24.82715644 49.73324517 27.17291331 53.307245 30.0625 56.875 C35.27500229 63.55942651 37.72520881 71.63799544 36.84765625 80.0625 C35.52967212 83.07503515 33.74562204 84.21810177 31 86 C28.21621222 86.37897873 25.84137432 86.53933361 23.06640625 86.49609375 C21.93307106 86.4982766 21.93307106 86.4982766 20.77684021 86.50050354 C19.18411389 86.49884889 17.59137087 86.48733618 15.9987793 86.46655273 C13.57335763 86.43762948 11.15012902 86.44594527 8.72460938 86.45898438 C7.17186447 86.45274499 5.61912642 86.44435249 4.06640625 86.43359375 C3.34747696 86.43652939 2.62854767 86.43946503 1.88783264 86.44248962 C-4.1624966 86.33031372 -8.07001511 84.65427276 -12.625 80.75 C-18.20953155 74.28370031 -20.92638311 67.22738494 -21.8515625 58.75390625 C-22.04492188 57.00303711 -22.04492188 57.00303711 -22.2421875 55.21679688 C-22.36851562 54.01087891 -22.49484375 52.80496094 -22.625 51.5625 C-22.7590625 50.36044922 -22.893125 49.15839844 -23.03125 47.91992188 C-23.38847944 44.61554956 -23.70041645 41.31000656 -24 38 C-24.0925708 37.26740967 -24.1851416 36.53481934 -24.28051758 35.7800293 C-24.43359375 33.984375 -24.43359375 33.984375 -24 31 C-22.15725551 28.87887703 -20.60550551 27.38797822 -18.4375 25.6875 C-9.89674238 18.4321784 -4.6863242 10.15010311 0 0 Z " fill="#753661" transform="translate(172,413)"/>
<path d="M0 0 C0.66 0 1.32 0 2 0 C3.33984375 1.43359375 3.33984375 1.43359375 4.9375 3.4375 C23.45914289 25.07777681 55.16473459 40.70387453 83.046875 44.9765625 C98.26611246 47.40705646 98.26611246 47.40705646 101.53173828 50.40722656 C103.4547466 53.18814124 104.493013 56.15048111 105.5859375 59.33203125 C107.6558362 64.70118836 111.08416862 67.9309322 115.05859375 71.98828125 C117 74 117 74 117 75 C87.42884237 82.30442937 54.34127902 68.54825458 29.5 53.625 C26.28125 51.6640625 26.28125 51.6640625 24 50 C24 49.34 24 48.68 24 48 C22.95585937 47.66355469 22.95585937 47.66355469 21.890625 47.3203125 C18.34326491 45.70003181 15.65101086 43.4251308 12.75 40.875 C12.18587402 40.38290039 11.62174805 39.89080078 11.04052734 39.38378906 C9.90087139 38.38938021 8.76266666 37.39330552 7.62597656 36.39550781 C6.15810611 35.13569587 4.64007444 33.93490925 3.1171875 32.7421875 C2.29476562 32.08476562 1.47234375 31.42734375 0.625 30.75 C-0.46941406 29.90695312 -0.46941406 29.90695312 -1.5859375 29.046875 C-3 27 -3 27 -2.79296875 23.91796875 C-2.53128906 22.62503906 -2.26960937 21.33210938 -2 20 C-1.80368376 18.31579553 -1.62649321 16.62929079 -1.46484375 14.94140625 C-1.37783203 14.06162109 -1.29082031 13.18183594 -1.20117188 12.27539062 C-1.11416016 11.38013672 -1.02714844 10.48488281 -0.9375 9.5625 C-0.84662109 8.64017578 -0.75574219 7.71785156 -0.66210938 6.76757812 C-0.44004277 4.51184893 -0.21937252 2.25599252 0 0 Z " fill="#E19F82" transform="translate(176,386)"/>
<path d="M0 0 C4.44028848 3.64103656 7.30827946 7.64761412 8.23046875 13.37890625 C8.50955562 22.89212812 6.69391038 29.54803159 0.4453125 36.75390625 C-2.87478127 40.2421747 -6.05268362 43.07809637 -10.2421875 45.44140625 C-13.19030159 44.08174387 -15.5424028 42.48807403 -18.0546875 40.44140625 C-24.72068119 35.41740365 -32.05391988 34.31838153 -40.2421875 35.44140625 C-44.08434006 36.80782234 -47.65900903 38.50080669 -51.2421875 40.44140625 C-52.01828786 29.2957428 -49.61306211 20.21834768 -42.34765625 11.57421875 C-32.01825962 1.11067411 -14.37859115 -8.63317084 0 0 Z " fill="#797991" transform="translate(114.2421875,19.55859375)"/>
<path d="M0 0 C6.63975956 2.36330425 10.59331697 5.73986199 14.6875 11.3125 C16.40833713 14.94944656 17.02326233 18.12387893 17.3125 22.125 C17.38726562 23.10082031 17.46203125 24.07664063 17.5390625 25.08203125 C17.58804688 25.81808594 17.63703125 26.55414063 17.6875 27.3125 C6.68716239 32.02693041 -4.56345104 33.59072024 -16.4375 33.75 C-17.33815186 33.77215576 -18.23880371 33.79431152 -19.16674805 33.81713867 C-23.25164911 33.80366731 -25.67927388 33.68503542 -29.25390625 31.58203125 C-31.29744624 29.32909627 -32.73550205 27.26209602 -34.125 24.5625 C-34.54394531 23.76328125 -34.96289062 22.9640625 -35.39453125 22.140625 C-35.69746094 21.53734375 -36.00039063 20.9340625 -36.3125 20.3125 C-35.71824219 20.10496094 -35.12398437 19.89742187 -34.51171875 19.68359375 C-24.96563849 16.13536174 -17.22246845 11.05997543 -9.625 4.3125 C-4.05296575 -0.34673661 -4.05296575 -0.34673661 0 0 Z " fill="#797991" transform="translate(94.3125,196.6875)"/>
<path d="M0 0 C5.38908965 5.57125607 8.06197892 14.21928576 7.9375 21.8125 C6.89117684 25.36999876 5.5706049 27.35149798 3 30 C-0.22603545 31.61301773 -3.74710038 31.12053599 -7.2890625 31.09765625 C-8.51669815 31.09553383 -8.51669815 31.09553383 -9.76913452 31.09336853 C-12.38779325 31.0877629 -15.00636704 31.07520948 -17.625 31.0625 C-19.39843627 31.05748572 -21.17187387 31.05292269 -22.9453125 31.04882812 C-27.29690782 31.03779164 -31.6484395 31.02052325 -36 31 C-35.01 30.34 -34.02 29.68 -33 29 C-29.50756414 25.71300154 -27.85111865 23.82244431 -27.6875 19 C-27.71099234 14.16840829 -29.15741512 10.43198521 -31.125 6.06640625 C-32 4 -32 4 -32 2 C-31.39003174 1.97494385 -30.78006348 1.9498877 -30.15161133 1.92407227 C-27.37172102 1.8075942 -24.5921266 1.68510368 -21.8125 1.5625 C-20.85279297 1.52318359 -19.89308594 1.48386719 -18.90429688 1.44335938 C-17.50727539 1.38051758 -17.50727539 1.38051758 -16.08203125 1.31640625 C-15.22843018 1.27974854 -14.3748291 1.24309082 -13.49536133 1.20532227 C-8.85112084 0.82318683 -4.62451057 -0.86709573 0 0 Z " fill="#753662" transform="translate(400,468)"/>
<path d="M0 0 C0.0828413 1.35307462 0.14000368 2.70772411 0.1875 4.0625 C0.23970703 5.19365234 0.23970703 5.19365234 0.29296875 6.34765625 C-0.35426939 12.20731889 -3.68180652 17.32504416 -6.4375 22.4375 C-10.36128969 29.96163886 -12.27177598 37.73458078 -14 46 C-20.42411839 43.71686385 -25.11840118 39.7047983 -29 34.125 C-30.633191 29.02127812 -31.21772939 24.6629467 -28.93359375 19.66796875 C-22.93737709 10.07728979 -11.835042 0 0 0 Z " fill="#FBE0C9" transform="translate(389,404)"/>
<path d="M0 0 C0.57886963 0.16661133 1.15773926 0.33322266 1.75415039 0.50488281 C5.94613114 1.42904163 10.43820364 0.87356166 14.71289062 0.609375 C18.91225031 0.49118722 20.48654525 0.60049377 23.921875 3.2734375 C28.17863191 8.85843059 29.43407769 14.05475695 29 21 C28.34 20.34 27.68 19.68 27 19 C25.31583984 19.92232422 25.31583984 19.92232422 23.59765625 20.86328125 C22.08614041 21.6800631 20.57441007 22.49644812 19.0625 23.3125 C18.32708984 23.71662109 17.59167969 24.12074219 16.83398438 24.53710938 C10.99313584 27.6743337 4.75195468 31 -2 31 C-2 34.96 -2 38.92 -2 43 C-2.33 43 -2.66 43 -3 43 C-3.050211 39.08972165 -3.08609395 35.17957344 -3.10986328 31.26904297 C-3.12462224 29.30038843 -3.15006161 27.3318231 -3.17578125 25.36328125 C-3.27131753 6.54263505 -3.27131753 6.54263505 0 0 Z " fill="#7B7B92" transform="translate(49,133)"/>
<path d="M0 0 C0.99 0.33 1.98 0.66 3 1 C4.1328125 3.6953125 4.1328125 3.6953125 5.125 7.125 C5.45757812 8.24132812 5.79015625 9.35765625 6.1328125 10.5078125 C7.65815663 16.65041452 8.13760437 22.49140907 8.125 28.8125 C8.12886719 30.77123047 8.12886719 30.77123047 8.1328125 32.76953125 C8 36 8 36 7 38 C5.72125 37.71125 4.4425 37.4225 3.125 37.125 C1.41695343 36.74869599 -0.29139439 36.37375748 -2 36 C-2.804375 35.82082031 -3.60875 35.64164062 -4.4375 35.45703125 C-10.60113266 34.14330826 -16.71696719 33.45390731 -23 33 C-21.6334072 28.27774217 -19.60854086 24.34213501 -16.9375 20.25 C-16.54481934 19.64309326 -16.15213867 19.03618652 -15.74755859 18.41088867 C-11.23287575 11.60116726 -5.7922583 5.73761435 0 0 Z " fill="#743661" transform="translate(482,407)"/>
<path d="M0 0 C6.4524582 1.18212975 12.05711061 5.3704448 16.12109375 10.40625 C18.54722973 14.03159034 19.81584173 17.00978505 19.55859375 21.46875 C15.89829145 26.01257355 10.12240583 27.48394089 4.55859375 28.46875 C-2.81254576 28.96473765 -9.47598919 29.15022191 -16.44140625 26.46875 C-14.60928795 18.42487821 -11.22012425 12.15895519 -6.44140625 5.46875 C-5.81105469 4.53675781 -5.18070312 3.60476563 -4.53125 2.64453125 C-2.44140625 0.46875 -2.44140625 0.46875 0 0 Z " fill="#763762" transform="translate(407.44140625,416.53125)"/>
<path d="M0 0 C3.33331439 -0.02937438 6.66659483 -0.04692334 10 -0.0625 C10.93457031 -0.07087891 11.86914062 -0.07925781 12.83203125 -0.08789062 C18.32274401 -0.10708892 23.56866481 0.1865807 29 1 C30.01973129 4.05919388 30.11533602 6.12418025 30.09765625 9.32421875 C30.09443359 10.35224609 30.09121094 11.38027344 30.08789062 12.43945312 C30.07951172 13.51130859 30.07113281 14.58316406 30.0625 15.6875 C30.05798828 16.77095703 30.05347656 17.85441406 30.04882812 18.97070312 C30.03703757 21.64715894 30.01910208 24.32358639 30 27 C23.73 27 17.46 27 11 27 C0 6.98360656 0 6.98360656 0 0 Z " fill="#743662" transform="translate(399,376)"/>
<path d="M0 0 C4.11727314 1.29617858 6.34393875 3.34643817 9.4453125 6.2734375 C11.34409929 8.11868688 11.34409929 8.11868688 13.59375 9.59765625 C15.375 11.0625 15.375 11.0625 15.75 14.125 C15.375 17.0625 15.375 17.0625 13.375 19.0625 C10.75 19.1875 10.75 19.1875 8.375 19.0625 C7.88480567 22.18748884 7.66902548 24.96144155 8.375 28.0625 C10.29732059 29.75259394 12.24312274 30.77664071 14.51171875 31.94921875 C16.375 33.0625 16.375 33.0625 17.625 35.625 C17.375 38.0625 17.375 38.0625 15.75 40.4375 C13.375 42.0625 13.375 42.0625 11.13671875 41.93359375 C7.57904351 40.81144159 4.80819277 38.90455464 1.8125 36.75 C1.24853516 36.35876953 0.68457031 35.96753906 0.10351562 35.56445312 C-3.09396022 33.30939121 -6.08163457 31.04712401 -8.625 28.0625 C-9 24.9375 -9 24.9375 -8.625 22.0625 C-6.625 20.0625 -6.625 20.0625 -4 19.9375 C-3.21625 19.97875 -2.4325 20.02 -1.625 20.0625 C-1.20416661 13.85520757 -1.56855293 11.90406586 -5.625 7.0625 C-5.43115886 2.8949154 -4.59314425 0.10936058 0 0 Z " fill="#763762" transform="translate(112.625,323.9375)"/>
<path d="M0 0 C3.1269872 3.04469807 5.62027894 5.71919999 7.5 9.6875 C7.32321913 13.39989829 5.53098815 15.05604676 3.11328125 17.76171875 C0.35070182 20.22631208 -1.89426331 21.21921447 -5.5625 21.6875 C-9.47523516 21.20838957 -10.76313596 19.99824933 -13.625 17.3125 C-15.57421875 14.21875 -15.57421875 14.21875 -17.3125 10.8125 C-17.89386719 9.6884375 -18.47523438 8.564375 -19.07421875 7.40625 C-19.58597656 6.3853125 -20.09773438 5.364375 -20.625 4.3125 C-21.02332031 3.5184375 -21.42164062 2.724375 -21.83203125 1.90625 C-22.09371094 1.3803125 -22.35539062 0.854375 -22.625 0.3125 C-15.68897145 -2.96539629 -6.94800922 -3.23441809 0 0 Z " fill="#797991" transform="translate(147.625,14.6875)"/>
<path d="M0 0 C0.33 0 0.66 0 1 0 C1.10877763 1.89454372 1.18594173 3.79091754 1.25 5.6875 C1.29640625 6.74324219 1.3428125 7.79898438 1.390625 8.88671875 C0.73961463 14.07527137 -2.35224008 16.58407331 -6.28515625 19.68359375 C-7.53740102 20.61091203 -8.7968408 21.52857593 -10.0625 22.4375 C-10.72427246 22.91541992 -11.38604492 23.39333984 -12.06787109 23.88574219 C-26.69921581 34.294808 -26.69921581 34.294808 -31.8046875 33.640625 C-32.52914062 33.42921875 -33.25359375 33.2178125 -34 33 C-34.66 30.69 -35.32 28.38 -36 26 C-34.93523438 25.40574219 -33.87046875 24.81148437 -32.7734375 24.19921875 C-20.6871872 17.34017374 -9.84651559 9.86422515 0 0 Z " fill="#414970" transform="translate(91,183)"/>
<path d="M0 0 C4.15683925 4.15683925 4.64729762 9.55767443 5.11328125 15.1953125 C4.93554777 19.59574826 3.3057743 22.29678672 1 26 C-2 26 -2 26 -3.91015625 24.35546875 C-4.62042969 23.64003906 -5.33070312 22.92460938 -6.0625 22.1875 C-10.66496336 17.9105398 -14.90137139 16.22227212 -21 15 C-15.22904786 8.43305447 -7.42796853 4.44063336 0 0 Z " fill="#7A7A91" transform="translate(91,75)"/>
<path d="M0 0 C0.125 7.625 0.125 7.625 -1 11 C-2.48364258 12.19506836 -2.48364258 12.19506836 -4.39453125 13.33984375 C-5.09779541 13.76152832 -5.80105957 14.18321289 -6.52563477 14.61767578 C-7.28030029 15.05321777 -8.03496582 15.48875977 -8.8125 15.9375 C-9.57554443 16.38335449 -10.33858887 16.82920898 -11.12475586 17.28857422 C-17.28540705 20.79362753 -23.15124254 23.09275109 -30 25 C-30 21.04 -30 17.08 -30 13 C-28.99582031 12.64808594 -27.99164063 12.29617187 -26.95703125 11.93359375 C-18.69722951 8.97373848 -11.01463435 5.64878659 -3.37890625 1.3203125 C-1 0 -1 0 0 0 Z " fill="#424970" transform="translate(77,151)"/>
<path d="M0 0 C3.84220174 1.11221629 7.2742616 2.60490226 10.8125 4.4375 C14.88352307 6.52852548 18.90837656 8.09884142 23.28515625 9.421875 C25 10 25 10 26 11 C26.1875 13.9375 26.1875 13.9375 26 17 C24 19 24 19 21.1875 19.4375 C13.14629325 19.2347805 5.00789053 14.5935198 -2 11 C-1.125 3.375 -1.125 3.375 0 0 Z " fill="#773762" transform="translate(78,444)"/>
<path d="M0 0 C2.81739781 1.37697145 5.53478674 2.86990385 8.25 4.4375 C11.29060846 6.16420315 14.16810569 7.45129226 17.5 8.5 C21 10 21 10 21.93359375 12.23046875 C22.02410711 16.00540811 20.68078053 17.72798625 18.5625 20.8125 C17.90378906 21.78832031 17.24507812 22.76414062 16.56640625 23.76953125 C16.04949219 24.50558594 15.53257813 25.24164063 15 26 C13.21875 25.828125 13.21875 25.828125 11 25 C5.21169842 17.63768659 2.32454621 8.95166864 0 0 Z " fill="#783861" transform="translate(92,371)"/>
<path d="M0 0 C1.93956814 0.255602 3.87665989 0.53004646 5.8125 0.8125 C7.43091797 1.03873047 7.43091797 1.03873047 9.08203125 1.26953125 C12.20712236 2.05184991 13.21288867 2.37518023 15 5 C16.16796875 8.06640625 16.16796875 8.06640625 17.1875 11.5625 C17.53167969 12.71878906 17.87585938 13.87507813 18.23046875 15.06640625 C19 18 19 18 19 20 C12.87036113 20.42273372 9.94093052 20.02168763 5 16 C4.13375 15.38125 4.13375 15.38125 3.25 14.75 C0.2035293 10.48494102 -0.11530275 5.09105987 0 0 Z " fill="#773862" transform="translate(321,479)"/>
<path d="M0 0 C5.64493159 1.83133253 10.23786435 6.42793378 14.19140625 10.7109375 C13.22769131 13.12022485 12.53930462 14.47100759 10.37890625 15.9609375 C7.70374089 16.87813705 5.99331497 17.21384419 3.19140625 16.7109375 C2.75828125 15.9684375 2.32515625 15.2259375 1.87890625 14.4609375 C-0.95204181 9.84754065 -5.81761952 8.37459558 -10.80859375 6.7109375 C-8.28000642 1.0702427 -6.62393852 -1.09789036 0 0 Z " fill="#424A70" transform="translate(75.80859375,90.2890625)"/>
<path d="M0 0 C1.051875 0.495 2.10375 0.99 3.1875 1.5 C10.95969827 4.43186127 19.95834728 3.49612144 28 2 C24.44009481 6.7595802 21.0827033 10.8094353 15 12 C2.7902513 12.92543328 2.7902513 12.92543328 -2 10 C-1.125 2.25 -1.125 2.25 0 0 Z " fill="#444B72" transform="translate(51,123)"/>
<path d="M0 0 C3.83663072 1.34929464 6.65172569 3.07751025 9.8125 5.625 C10.99779297 6.57246094 10.99779297 6.57246094 12.20703125 7.5390625 C13.09455078 8.26222656 13.09455078 8.26222656 14 9 C13.67 11.31 13.34 13.62 13 16 C9.35571635 16.97786497 7.64068973 17.33117342 4.2265625 15.56640625 C3.36804688 14.90511719 2.50953125 14.24382812 1.625 13.5625 C0.75101562 12.90378906 -0.12296875 12.24507813 -1.0234375 11.56640625 C-1.67570312 11.04949219 -2.32796875 10.53257812 -3 10 C-2.25 3.375 -2.25 3.375 0 0 Z " fill="#763761" transform="translate(88,423)"/>
<path d="M0 0 C0.33 0 0.66 0 1 0 C1.08564209 0.57967529 1.17128418 1.15935059 1.25952148 1.7565918 C1.65087717 4.40042275 2.04417081 7.04396196 2.4375 9.6875 C2.57220703 10.59951172 2.70691406 11.51152344 2.84570312 12.45117188 C2.97783203 13.33740234 3.10996094 14.22363281 3.24609375 15.13671875 C3.36654053 15.94842529 3.4869873 16.76013184 3.61108398 17.59643555 C4.01276092 20.07886456 4.49212777 22.53729879 5 25 C2.03 25 -0.94 25 -4 25 C-4.55790722 7.97349815 -4.55790722 7.97349815 -1 1 C-0.67 0.67 -0.34 0.34 0 0 Z " fill="#783862" transform="translate(270,409)"/>
<path d="M0 0 C4.2411844 0.74790779 5.8244716 2.5070796 8.47265625 5.76171875 C12.06095046 11.02026756 15 16.58713246 15 23 C11.24303998 21.46462136 9.06466965 19.18751615 6.375 16.1875 C5.59898437 15.33542969 4.82296875 14.48335938 4.0234375 13.60546875 C0.53097512 9.10841777 -0.26252772 5.64434598 0 0 Z " fill="#783962" transform="translate(173,373)"/>
<path d="M0 0 C3.02271338 0.86363239 4.73085378 1.81238988 7.0625 3.875 C6.7325 6.185 6.4025 8.495 6.0625 10.875 C-0.11686508 12.32896825 -0.11686508 12.32896825 -3.875 10.25 C-5.9375 7.875 -5.9375 7.875 -6.4375 5.3125 C-5.9375 2.875 -5.9375 2.875 -4.8125 1 C-2.9375 -0.125 -2.9375 -0.125 0 0 Z " fill="#44496E" transform="translate(449.9375,394.125)"/>
<path d="M0 0 C3.47552338 0.34755234 4.83993243 0.67588358 7.125 3.3125 C7.5 6.375 7.5 6.375 7.125 9.3125 C5.125 11.3125 5.125 11.3125 2.25 11.6875 C-0.875 11.3125 -0.875 11.3125 -3.25 9.625 C-5.17173649 6.89022115 -5.39188277 5.58609086 -4.875 2.3125 C-2.875 0.3125 -2.875 0.3125 0 0 Z " fill="#763762" transform="translate(142.875,366.6875)"/>
</svg>
