<?xml version="1.0" encoding="UTF-8"?>
<svg version="1.1" xmlns="http://www.w3.org/2000/svg" width="512" height="512">
<path d="M0 0 C2.08028788 1.4936467 4.04587557 3.07832261 6.015625 4.71484375 C6.76328125 5.30523437 7.5109375 5.895625 8.28125 6.50390625 C38.60526143 31.8391287 49.71505779 74.23559222 53.23388672 112.06103516 C56.93114235 158.22279182 47.90180049 214.5822061 19.23046875 252.4921875 C12.96390889 260.82362841 11.17303267 266.03141868 11.84375 276.4453125 C13.01128824 295.5572164 3.41669632 313.5078836 -8.859375 327.40234375 C-12.65790441 331.55160846 -12.65790441 331.55160846 -14.984375 332.71484375 C-21.30575308 354.44716317 -18.97130077 382.28254158 -8.859375 402.33984375 C-6.20295603 407.09130338 -3.14219026 410.99315472 0.453125 415.02734375 C5.700011 421.08082866 5.700011 421.08082866 5.890625 425.15234375 C4.93484917 429.04371678 3.92060907 430.97585877 1.015625 433.71484375 C-2.04356888 434.73457504 -4.10855525 434.83017977 -7.30859375 434.8125 C-8.33662109 434.80927734 -9.36464844 434.80605469 -10.42382812 434.80273438 C-12.03161133 434.79016602 -12.03161133 434.79016602 -13.671875 434.77734375 C-14.75533203 434.77283203 -15.83878906 434.76832031 -16.95507812 434.76367188 C-19.63156585 434.75188118 -22.30794277 434.73542438 -24.984375 434.71484375 C-25.04625 435.29234375 -25.108125 435.86984375 -25.171875 436.46484375 C-26.36567597 439.77075413 -28.01792196 440.88092214 -30.984375 442.71484375 C-34.31835938 443.21655273 -34.31835938 443.21655273 -38.078125 443.2109375 C-39.08184143 443.21312035 -39.08184143 443.21312035 -40.10583496 443.21534729 C-41.51444879 443.21369423 -42.92308179 443.20219927 -44.33154297 443.18139648 C-46.4783255 443.15242539 -48.62263689 443.16080026 -50.76953125 443.17382812 C-63.61272852 443.11550612 -63.61272852 443.11550612 -69.25390625 437.42578125 C-71.32637825 434.17906439 -71.54243275 432.16954899 -71.671875 428.33984375 C-71.73117187 427.10621094 -71.79046875 425.87257813 -71.8515625 424.6015625 C-71.91730469 422.67763672 -71.91730469 422.67763672 -71.984375 420.71484375 C-72.5008022 405.96629047 -75.5674097 394.42223801 -82.734375 381.52734375 C-83.73257894 379.70238311 -84.72755133 377.8756499 -85.71875 376.046875 C-86.15413086 375.26030518 -86.58951172 374.47373535 -87.03808594 373.66333008 C-87.984375 371.71484375 -87.984375 371.71484375 -87.984375 369.71484375 C-89.098125 370.12476563 -90.211875 370.5346875 -91.359375 370.95703125 C-109.64183412 377.49181463 -133.022972 382.03531142 -151.984375 375.71484375 C-152.41810906 389.3051777 -150.820142 402.68497032 -143.984375 414.71484375 C-143.365625 415.02421875 -142.746875 415.33359375 -142.109375 415.65234375 C-139.0853268 417.16436785 -137.76547279 418.85236515 -135.984375 421.71484375 C-135.3774183 425.96354062 -135.49565972 427.9396402 -137.796875 431.58984375 C-141.98728494 435.66052769 -146.81071276 434.89820325 -152.296875 434.90234375 C-153.13927734 434.91458984 -153.98167969 434.92683594 -154.84960938 434.93945312 C-160.89433697 434.95363153 -165.38596749 434.25129341 -170.6796875 431.12109375 C-173.83841071 427.82317257 -174.64957994 424.54444771 -175.859375 420.21484375 C-179.26183658 409.15155682 -183.388821 399.76463852 -192.984375 392.71484375 C-193.63273542 394.46390906 -194.27796284 396.21413594 -194.921875 397.96484375 C-195.28152344 398.939375 -195.64117187 399.91390625 -196.01171875 400.91796875 C-198.18829388 407.17671492 -199.41141022 413.15723496 -196.8671875 419.5 C-195.9514476 421.38062968 -195.03222108 423.25956594 -194.109375 425.13671875 C-192.62437759 428.53983781 -192.39914765 431.05717284 -192.984375 434.71484375 C-194.81042653 438.94359466 -196.91688957 440.66957637 -200.984375 442.71484375 C-205.25863511 443.32225406 -209.5463621 443.17855543 -213.859375 443.15234375 C-215.01824219 443.17232422 -216.17710937 443.19230469 -217.37109375 443.21289062 C-224.10726494 443.20904138 -228.59163328 442.89514837 -233.984375 438.71484375 C-238.03065632 434.16150963 -238.48504272 428.6893136 -238.2421875 422.8203125 C-236.82657985 405.76867491 -232.65166249 390.38296935 -225.984375 374.71484375 C-228.67189513 375.34998763 -231.24160385 376.11826009 -233.8359375 377.0625 C-346.32247341 417.51776238 -346.32247341 417.51776238 -390.984375 397.71484375 C-409.26549751 388.18532244 -421.55590808 372.26223541 -428.27734375 353.01171875 C-435.94856505 326.53631239 -431.57421965 294.11148003 -418.4609375 269.90234375 C-417.97367187 269.18046875 -417.48640625 268.45859375 -416.984375 267.71484375 C-416.324375 267.71484375 -415.664375 267.71484375 -414.984375 267.71484375 C-414.90960938 267.03421875 -414.83484375 266.35359375 -414.7578125 265.65234375 C-413.75425866 261.84086653 -411.80718572 258.92801975 -409.609375 255.71484375 C-409.16529297 255.05911377 -408.72121094 254.40338379 -408.26367188 253.7277832 C-391.74985195 229.78563134 -370.0354705 213.15457377 -344.609375 199.58984375 C-343.87750977 199.19917725 -343.14564453 198.80851074 -342.39160156 198.40600586 C-337.24052519 195.71484375 -337.24052519 195.71484375 -334.984375 195.71484375 C-334.9225 194.64234375 -334.860625 193.56984375 -334.796875 192.46484375 C-333.509019 182.49719118 -328.58812186 174.08879003 -321.984375 166.71484375 C-321.43910156 166.09996094 -320.89382813 165.48507813 -320.33203125 164.8515625 C-309.16377065 153.00006713 -309.16377065 153.00006713 -302.1796875 152.5234375 C-301.45523438 152.58660156 -300.73078125 152.64976562 -299.984375 152.71484375 C-299.26171875 154.40234375 -299.26171875 154.40234375 -298.984375 156.71484375 C-300.42578125 159.08984375 -300.42578125 159.08984375 -302.546875 161.71484375 C-308.4257657 169.41608761 -312.49817094 177.37415186 -314.984375 186.71484375 C-313.85 186.43769531 -312.715625 186.16054687 -311.546875 185.875 C-310.02609652 185.50888666 -308.50526005 185.14301412 -306.984375 184.77734375 C-305.86869141 184.50374023 -305.86869141 184.50374023 -304.73046875 184.22460938 C-286.68897605 179.91033938 -265.74738764 179.75728889 -248.984375 188.71484375 C-239.81683342 194.4333591 -234.10456803 202.28146536 -230.67578125 212.49609375 C-228.46548043 222.78585577 -229.17142794 233.91232804 -232.984375 243.71484375 C-233.47744141 244.98908203 -233.47744141 244.98908203 -233.98046875 246.2890625 C-238.43282861 256.34923893 -245.82214547 262.96449187 -255.75390625 267.49609375 C-272.05927544 273.64757523 -287.94031522 273.26550748 -303.921875 266.46484375 C-317.70264184 259.57446033 -327.2691324 248.36107188 -332.984375 234.15234375 C-333.984375 230.71484375 -333.984375 230.71484375 -333.984375 226.71484375 C-360.05472512 243.8641106 -382.78018432 267.50482805 -389.32421875 299.140625 C-391.67442855 313.20076305 -391.4479088 328.44626166 -385.984375 341.71484375 C-385.54867187 342.82601563 -385.11296875 343.9371875 -384.6640625 345.08203125 C-381.82257446 351.64232628 -381.82257446 351.64232628 -376.609375 356.27734375 C-366.81857972 359.97942949 -355.37281687 361.52528957 -344.984375 360.71484375 C-343.92089844 360.63363281 -342.85742188 360.55242187 -341.76171875 360.46875 C-303.54908588 356.28991642 -268.86744537 324.77058676 -244.7890625 296.80859375 C-235.7815294 286.35829561 -226.5057399 276.55025473 -215.63623047 268.01611328 C-214.47160476 267.09866501 -213.31224239 266.17451593 -212.15673828 265.24560547 C-172.07918825 233.05709985 -122.14646684 214.40504121 -71.078125 210.00390625 C-52.32808618 208.36610165 -38.51496368 202.19825145 -25.984375 187.71484375 C-4.55954888 160.57673067 -0.4415978 130.33080314 -4.296875 96.68359375 C-6.05876573 83.11284017 -9.29775952 67.24476698 -16.984375 55.71484375 C-17.82246704 55.98748047 -17.82246704 55.98748047 -18.67749023 56.265625 C-21.25481434 57.09556113 -23.8380932 57.90524663 -26.421875 58.71484375 C-27.30037109 59.00101562 -28.17886719 59.2871875 -29.08398438 59.58203125 C-35.59951641 61.60160576 -41.77259168 62.8983747 -48.47265625 61.015625 C-53.28314506 58.40951436 -56.76314036 56.03507542 -58.734375 50.67578125 C-60.20094745 45.34112398 -60.43847749 40.76328316 -57.984375 35.71484375 C-55.41943823 32.21414265 -52.44435088 29.1299504 -49.33203125 26.11328125 C-45.75260299 22.41544951 -44.36734811 19.19468518 -42.984375 14.21484375 C-40.71540731 6.13917099 -37.584556 2.03970265 -30.359375 -2.16015625 C-20.03685249 -7.62928221 -9.58757576 -6.20927643 0 0 Z M-312.984375 213.71484375 C-311.95486574 222.59766083 -306.65666501 231.19443367 -300.0390625 237.1796875 C-291.1887201 243.79220568 -283.00068367 246.22843455 -271.984375 244.71484375 C-265.23221989 243.02926926 -260.755149 239.52387397 -256.984375 233.71484375 C-254.4776153 228.70132435 -254.6601838 224.05958649 -255.984375 218.71484375 C-258.73484995 213.5085876 -262.09332228 209.93443807 -267.55859375 207.62890625 C-271.91111176 206.46757305 -275.93469554 206.33171092 -280.421875 206.33984375 C-281.30061279 206.34072998 -282.17935059 206.34161621 -283.0847168 206.3425293 C-293.83378919 206.53480817 -303.18855567 209.38183875 -312.984375 213.71484375 Z " fill="#797991" transform="translate(444.984375,37.28515625)"/>
<path d="M0 0 C0.72265625 1.6875 0.72265625 1.6875 1 4 C-0.44140625 6.375 -0.44140625 6.375 -2.5625 9 C-8.4413907 16.70124386 -12.51379594 24.65930811 -15 34 C-13.865625 33.72285156 -12.73125 33.44570312 -11.5625 33.16015625 C-10.04172152 32.79404291 -8.52088505 32.42817037 -7 32.0625 C-6.25621094 31.88009766 -5.51242188 31.69769531 -4.74609375 31.50976562 C13.29539895 27.19549563 34.23698736 27.04244514 51 36 C60.16754158 41.71851535 65.87980697 49.56662161 69.30859375 59.78125 C71.51889457 70.07101202 70.81294706 81.19748429 67 91 C66.50693359 92.27423828 66.50693359 92.27423828 66.00390625 93.57421875 C61.55154639 103.63439518 54.16222953 110.24964812 44.23046875 114.78125 C27.92509956 120.93273148 12.04405978 120.55066373 -3.9375 113.75 C-17.71826684 106.85961658 -27.2847574 95.64622813 -33 81.4375 C-34 78 -34 78 -34 74 C-60.07035012 91.14926685 -82.79580932 114.7899843 -89.33984375 146.42578125 C-92.29966618 164.13292891 -90.63734724 181.31036827 -81.953125 197.109375 C-81 199 -81 199 -81 201 C-84.75168948 199.64671201 -87.76036524 197.94336362 -91 195.625 C-91.825 195.03976562 -92.65 194.45453125 -93.5 193.8515625 C-103.19966841 186.66774558 -110.26617447 178.15162062 -115 167 C-115.44279297 166.00226563 -115.44279297 166.00226563 -115.89453125 164.984375 C-122.79413923 148.2621724 -121.61370156 128.59270385 -115 112 C-109.66133284 100.69698102 -101.43829308 91.10243131 -93 82 C-91.74896484 80.64261719 -91.74896484 80.64261719 -90.47265625 79.2578125 C-77.34759056 65.60093702 -61.23057612 55.73401482 -44.625 46.875 C-43.89313477 46.4843335 -43.16126953 46.09366699 -42.40722656 45.69116211 C-37.25615019 43 -37.25615019 43 -35 43 C-34.9071875 41.39125 -34.9071875 41.39125 -34.8125 39.75 C-33.524644 29.78234743 -28.60374686 21.37394628 -22 14 C-21.45472656 13.38511719 -20.90945312 12.77023438 -20.34765625 12.13671875 C-15.02985335 6.49359144 -8.20396262 -0.71529211 0 0 Z M-13 61 C-11.97049074 69.88281708 -6.67229001 78.47958992 -0.0546875 84.46484375 C8.7956549 91.07736193 16.98369133 93.5135908 28 92 C34.75215511 90.31442551 39.229226 86.80903022 43 81 C45.5067597 75.9864806 45.3241912 71.34474274 44 66 C41.24952505 60.79374385 37.89105272 57.21959432 32.42578125 54.9140625 C28.07326324 53.7527293 24.04967946 53.61686717 19.5625 53.625 C18.68376221 53.62588623 17.80502441 53.62677246 16.8996582 53.62768555 C6.15058581 53.81996442 -3.20418067 56.666995 -13 61 Z " fill="#3F486E" transform="translate(145,190)"/>
<path d="M0 0 C2.08028788 1.4936467 4.04587557 3.07832261 6.015625 4.71484375 C6.76328125 5.30523437 7.5109375 5.895625 8.28125 6.50390625 C38.60526143 31.8391287 49.71505779 74.23559222 53.23388672 112.06103516 C57.47961081 165.07064603 43.67294316 220.56290412 12.015625 263.71484375 C11.685625 263.71484375 11.355625 263.71484375 11.015625 263.71484375 C11.43029628 258.01311365 12.4580718 252.6325091 13.828125 247.08984375 C15.51236805 240.19143258 16.90981707 233.27086353 18.140625 226.27734375 C18.37809448 224.95839111 18.37809448 224.95839111 18.62036133 223.61279297 C21.45747918 207.11972089 22.36384698 190.95887421 22.33129883 174.23876953 C22.32813594 170.85156096 22.35170552 167.46522668 22.37695312 164.078125 C22.42799531 146.8374109 21.04228726 130.15939581 16.265625 113.52734375 C16.00885986 112.61645996 15.75209473 111.70557617 15.48754883 110.76708984 C11.11645763 95.74105303 4.76361503 77.45856038 -5.984375 65.71484375 C-9.11024375 65.38086588 -9.11024375 65.38086588 -11.984375 65.71484375 C-13.634375 62.41484375 -15.284375 59.11484375 -16.984375 55.71484375 C-18.32371094 56.14796875 -19.66304688 56.58109375 -21.04296875 57.02734375 C-22.83572711 57.59051392 -24.62870793 58.1529763 -26.421875 58.71484375 C-27.30037109 59.00101562 -28.17886719 59.2871875 -29.08398438 59.58203125 C-35.59951641 61.60160576 -41.77259168 62.8983747 -48.47265625 61.015625 C-53.28314506 58.40951436 -56.76314036 56.03507542 -58.734375 50.67578125 C-60.20094745 45.34112398 -60.43847749 40.76328316 -57.984375 35.71484375 C-55.41943823 32.21414265 -52.44435088 29.1299504 -49.33203125 26.11328125 C-45.75260299 22.41544951 -44.36734811 19.19468518 -42.984375 14.21484375 C-40.71540731 6.13917099 -37.584556 2.03970265 -30.359375 -2.16015625 C-20.03685249 -7.62928221 -9.58757576 -6.20927643 0 0 Z " fill="#797992" transform="translate(444.984375,37.28515625)"/>
<path d="M0 0 C0.66 0 1.32 0 2 0 C1.39512204 18.2068267 -4.11735568 34.11119495 -16 48 C-16.63679688 48.75796875 -17.27359375 49.5159375 -17.9296875 50.296875 C-22.65712074 55.82856037 -22.65712074 55.82856037 -25 57 C-31.32137808 78.73231942 -28.98692577 106.56769783 -18.875 126.625 C-16.21858103 131.37645963 -13.15781526 135.27831097 -9.5625 139.3125 C-4.315614 145.36598491 -4.315614 145.36598491 -4.125 149.4375 C-5.08077583 153.32887303 -6.09501593 155.26101502 -9 158 C-12.05919388 159.01973129 -14.12418025 159.11533602 -17.32421875 159.09765625 C-18.35224609 159.09443359 -19.38027344 159.09121094 -20.43945312 159.08789062 C-21.51130859 159.07951172 -22.58316406 159.07113281 -23.6875 159.0625 C-24.77095703 159.05798828 -25.85441406 159.05347656 -26.97070312 159.04882812 C-29.64719085 159.03703743 -32.32356777 159.02058063 -35 159 C-35.1868335 158.40179443 -35.37366699 157.80358887 -35.56616211 157.18725586 C-36.90368243 153.02106365 -38.24184317 149.29446537 -40.5625 145.5625 C-43.42780575 140.09624707 -43.76604022 134.77156657 -44.25756836 128.72558594 C-44.6536976 124.21092576 -45.35262908 120.53037226 -47.125 116.3125 C-54.33516285 96.85048147 -47.06350946 75.86110963 -38.93652344 58.06787109 C-32.66753273 44.22575658 -27.07519082 30.32146918 -26 15 C-25.11699219 14.731875 -24.23398437 14.46375 -23.32421875 14.1875 C-14.78750617 11.40000201 -7.84941539 8.02482557 -1 2 C-0.67 1.34 -0.34 0.68 0 0 Z " fill="#40486F" transform="translate(455,313)"/>
<path d="M0 0 C1.47414294 1.94881545 2.92212441 3.88015408 4.25390625 5.9296875 C8.73614788 12.59284073 15.03866682 17.33870184 23 19 C45.7263414 20.98890104 64.37840209 15.70641998 82 1 C83.08697392 4.26092176 82.90994884 5.94439759 82.5 9.3125 C82.12420572 12.71254348 81.98774348 14.94586704 82.75 18.3125 C82.8325 19.199375 82.915 20.08625 83 21 C81.74476791 22.32129693 80.48756903 23.64085723 79.21484375 24.9453125 C76.47096131 29.58609116 77.07930821 35.73681895 77 41 C69.41726924 44.11391138 62.13657367 46.84910307 54 48 C53.236875 48.11085938 52.47375 48.22171875 51.6875 48.3359375 C30.54449689 50.90926354 9.75592509 46.57197408 -11 43 C-10.52949219 42.32195312 -10.05898438 41.64390625 -9.57421875 40.9453125 C-8.95160156 40.01460938 -8.32898438 39.08390625 -7.6875 38.125 C-6.76517578 36.76761719 -6.76517578 36.76761719 -5.82421875 35.3828125 C-1.47961134 27.32621717 -0.52379116 19.41826172 -0.3125 10.375 C-0.27833984 9.37082031 -0.24417969 8.36664063 -0.20898438 7.33203125 C-0.12752109 4.88813282 -0.05805078 2.44454719 0 0 Z " fill="#E09F83" transform="translate(279,366)"/>
<path d="M0 0 C3.23400855 1.41635411 4.6063653 4.03038721 6.390625 6.9375 C6.97215332 7.86985474 6.97215332 7.86985474 7.56542969 8.82104492 C15.28508627 21.50445953 20.41567276 34.61101854 24.140625 48.9375 C24.51349538 50.30361156 24.88718539 51.66949968 25.26171875 53.03515625 C27.64889734 61.90657308 29.51885015 70.755958 30.140625 79.9375 C30.21925781 81.07251953 30.29789062 82.20753906 30.37890625 83.37695312 C30.57633931 86.68144716 30.72337183 89.97700437 30.82067871 93.28533936 C30.88922154 95.27182548 31.00516245 97.2564954 31.12207031 99.24072266 C31.2803415 108.39092334 31.2803415 108.39092334 28.16894531 112.61303711 C25.60996091 114.95383078 22.98351387 116.95404219 20.140625 118.9375 C18.64180933 120.12645525 17.14673608 121.32015048 15.65625 122.51953125 C14.23777441 123.60082821 12.8159391 124.67773332 11.390625 125.75 C10.67519531 126.29591797 9.95976562 126.84183594 9.22265625 127.40429688 C5.28079043 130.39505195 1.2904558 133.24271994 -2.859375 135.9375 C-2.73892822 135.2249707 -2.61848145 134.51244141 -2.49438477 133.77832031 C-1.20283807 126.09009731 0.01939391 118.39300426 1.203125 110.6875 C1.46319336 109.00914062 1.46319336 109.00914062 1.72851562 107.296875 C1.89673828 106.20375 2.06496094 105.110625 2.23828125 103.984375 C2.38789307 103.01338867 2.53750488 102.04240234 2.69165039 101.04199219 C3.68273847 94.18898727 4.29823624 87.62731038 4.30859375 80.70703125 C4.31494591 79.41008835 4.31494591 79.41008835 4.32142639 78.08694458 C4.33125659 75.30791289 4.33135871 72.52904589 4.328125 69.75 C4.32721863 68.33063644 4.32721863 68.33063644 4.32629395 66.88259888 C4.29211085 47.24961954 3.11752625 28.96802813 -1.859375 9.9375 C-2.28617995 8.08564075 -2.70507286 6.23190197 -3.109375 4.375 C-3.356875 3.240625 -3.604375 2.10625 -3.859375 0.9375 C-1.859375 -0.0625 -1.859375 -0.0625 0 0 Z " fill="#FAE0CA" transform="translate(437.859375,102.0625)"/>
<path d="M0 0 C3.02325431 0.39210453 6.00685685 0.92419603 9 1.5 C10.16208984 1.71462891 10.16208984 1.71462891 11.34765625 1.93359375 C13.23295579 2.28272329 15.11665939 2.64045316 17 3 C17.80206716 5.78547355 18.06331273 8.1117773 17.9375 11 C17.84715681 22.02186924 20.5299569 33.37358558 26 43 C26.61875 43.309375 27.2375 43.61875 27.875 43.9375 C30.8990482 45.4495241 32.21890221 47.1375214 34 50 C34.6069567 54.24869687 34.48871528 56.22479645 32.1875 59.875 C27.99709006 63.94568394 23.17366224 63.1833595 17.6875 63.1875 C16.84509766 63.19974609 16.00269531 63.21199219 15.13476562 63.22460938 C9.09003803 63.23878778 4.59840751 62.53644966 -0.6953125 59.40625 C-3.85399112 56.10837537 -4.66533268 52.82959533 -5.875 48.5 C-9.31879656 37.29217142 -13.98621326 27.78089797 -23 20 C-21.00924597 14.44735762 -17.74082478 10.48898974 -14 6 C-13.50113281 5.36835938 -13.00226563 4.73671875 -12.48828125 4.0859375 C-8.64451995 -0.35808242 -5.49759244 -0.44040659 0 0 Z " fill="#3F476E" transform="translate(275,409)"/>
<path d="M0 0 C2.18751688 3.28127532 2.24110699 4.16953426 2.16796875 7.9609375 C2.13968994 9.43385254 2.13968994 9.43385254 2.11083984 10.93652344 C0.45047139 56.82705952 -12.5945566 102.64377061 -40 140 C-40.33 140 -40.66 140 -41 140 C-40.58532872 134.2982699 -39.5575532 128.91766535 -38.1875 123.375 C-33.74142998 105.16455284 -30.10599438 86.07516226 -29.90625 67.27734375 C-29.88844482 66.29709229 -29.87063965 65.31684082 -29.85229492 64.30688477 C-29.82651836 62.4078008 -29.83002516 60.50800187 -29.8684082 58.60913086 C-29.78148158 52.2809897 -28.2484969 49.24258491 -23.80688477 44.75634766 C-23.21061279 44.17675293 -22.61434082 43.5971582 -22 43 C-11.2451827 30.10130643 -4.7821578 16.00183571 0 0 Z " fill="#41486F" transform="translate(497,161)"/>
<path d="M0 0 C0.33 0 0.66 0 1 0 C1.84603522 29.40297776 -2.42511351 59.83221646 -11 88 C-14.2521731 86.37391345 -15.08147586 82.8659305 -16.5625 79.6875 C-19.76150644 73.03558594 -23.37501313 67.43554033 -27.94921875 61.62890625 C-32.86566269 55.32649335 -36.13467997 50.00506185 -36.25 41.875 C-36.27578125 40.79992187 -36.3015625 39.72484375 -36.328125 38.6171875 C-35.85866428 33.44194192 -35.12761302 28.33137261 -31.51123047 24.36865234 C-29.67395634 22.87544862 -27.78788397 21.55473911 -25.8125 20.25 C-24.37787015 19.24159956 -22.94565325 18.22975925 -21.515625 17.21484375 C-20.40670898 16.43729736 -20.40670898 16.43729736 -19.27539062 15.64404297 C-15.41378956 12.8539119 -11.74230865 9.83608239 -8.0625 6.8125 C-7.37067627 6.24756836 -6.67885254 5.68263672 -5.96606445 5.10058594 C-2.89673707 2.64751903 -2.89673707 2.64751903 0 0 Z " fill="#E09F83" transform="translate(467,212)"/>
<path d="M0 0 C0.05874776 3.33325754 0.09384467 6.66637938 0.125 10 C0.14175781 10.93457031 0.15851563 11.86914062 0.17578125 12.83203125 C0.21583569 18.55981686 0.06658142 23.6172763 -2 29 C-4.4140625 30.8125 -4.4140625 30.8125 -7.625 32 C-8.23633789 32.23162842 -8.84767578 32.46325684 -9.47753906 32.7019043 C-11.64020829 33.50412564 -13.81826983 34.25125948 -16 35 C-17.69018999 35.6104395 -19.38028936 36.22112996 -21.0703125 36.83203125 C-46.70546026 45.88758159 -73.22083949 52.41646671 -100 57 C-98.27163352 53.54326704 -93.99784878 53.12558931 -90.5 51.9375 C-73.72704536 45.98131203 -59.26844487 37.30382183 -45.28710938 26.31787109 C-11.75255251 0 -11.75255251 0 0 0 Z " fill="#E1A084" transform="translate(223,381)"/>
<path d="M0 0 C2 3 2 3 2 6 C0.57939912 7.15001024 -0.84615139 8.2944805 -2.296875 9.40625 C-4.30506793 11.28547641 -5.47804305 13.260919 -6.875 15.625 C-9.89688098 20.37029748 -12.63780626 21.76326508 -18 23 C-19.22976563 23.34546875 -20.45953125 23.6909375 -21.7265625 24.046875 C-26.01420003 25.11207408 -30.09489524 25.3464046 -34.5 25.3125 C-35.61701294 25.30621582 -35.61701294 25.30621582 -36.7565918 25.29980469 C-43.28552558 25.16505449 -48.09140265 24.29626106 -53.375 20.125 C-56.9020012 15.51276766 -57.22521475 11.74297601 -57 6 C-56.4006665 6.21076172 -55.80133301 6.42152344 -55.18383789 6.63867188 C-48.82872582 8.72896703 -43.11304262 9.54548514 -36.4375 9.5 C-35.4872998 9.49645508 -34.53709961 9.49291016 -33.55810547 9.48925781 C-21.60765731 9.21287741 -10.38623962 5.96656319 0 0 Z " fill="#FADFC8" transform="translate(349,376)"/>
<path d="M0 0 C1.32 0.33 2.64 0.66 4 1 C4.14099121 1.63502441 4.28198242 2.27004883 4.42724609 2.92431641 C5.0732561 5.82527699 5.72408481 8.72513628 6.375 11.625 C6.59671875 12.62402344 6.8184375 13.62304688 7.046875 14.65234375 C8.14713227 19.53878047 9.35048674 24.26475935 11 29 C13.10710617 37.32437005 13.22464106 45.45115971 13 54 C6.33248298 50.3272152 2.00733104 44.73028993 -0.41015625 37.44921875 C-3.34666548 25.25589898 -5.38219523 11.66142299 0 0 Z " fill="#41496F" transform="translate(279,327)"/>
<path d="M0 0 C0.66 0 1.32 0 2 0 C5.8177919 12.12530707 2.60331333 26.94902093 -3 38 C-5.3125 40.75 -5.3125 40.75 -8 43 C-8.59554688 43.53753906 -9.19109375 44.07507813 -9.8046875 44.62890625 C-14.69301044 49 -14.69301044 49 -17 49 C-17.18251617 37.68399726 -11.22543053 27.88263284 -5.04296875 18.74609375 C-2.5577048 14.58537096 -1.60681737 10.44431293 -0.875 5.6875 C-0.70742188 4.61886719 -0.53984375 3.55023438 -0.3671875 2.44921875 C-0.24601562 1.64097656 -0.12484375 0.83273437 0 0 Z " fill="#424A70" transform="translate(367,326)"/>
<path d="M0 0 C0 1.32 0 2.64 0 4 C-1.299375 4.20625 -2.59875 4.4125 -3.9375 4.625 C-10.83731322 6.15467557 -16.02767554 10.12921516 -21.125 14.875 C-24.74628051 17.55159864 -26.58735232 17.64183966 -31 17 C-33.875 15.9375 -33.875 15.9375 -36 14 C-36.8125 10.3125 -36.8125 10.3125 -37 7 C-35.29650391 7.12375 -35.29650391 7.12375 -33.55859375 7.25 C-27.58894529 7.25 -23.00270441 4.50181278 -17.79882812 1.84375 C-12.23766883 -0.84326398 -5.89397028 -2.94698514 0 0 Z " fill="#424A70" transform="translate(398,372)"/>
<path d="M0 0 C0 1.32 0 2.64 0 4 C-2.23953056 5.39521556 -4.4888661 6.76562784 -6.75 8.125 C-7.38421875 8.52332031 -8.0184375 8.92164062 -8.671875 9.33203125 C-13.40642297 12.14316911 -13.40642297 12.14316911 -16.21875 11.46484375 C-18.16622319 9.8633033 -19.98696748 8.24197132 -21.75 6.4375 C-22.36359375 5.81746094 -22.9771875 5.19742188 -23.609375 4.55859375 C-25 3 -25 3 -25 2 C-16.58481953 0.47983837 -8.5511272 -0.27733386 0 0 Z " fill="#444B71" transform="translate(454,89)"/>
<path d="M0 0 C2 3 2 3 1.875 5.5 C0.79661515 8.58109958 -0.12812837 9.48428997 -3 11 C-5.625 11.3125 -5.625 11.3125 -8 11 C-10 9 -10 9 -10.375 6.0625 C-10 3 -10 3 -8.375 1.125 C-5.35171911 -0.30708042 -3.30619324 -0.4312426 0 0 Z " fill="#424970" transform="translate(430,50)"/>
<path d="M0 0 C1.13199353 0.9080162 2.25532363 1.82683826 3.375 2.75 C4.00148438 3.26046875 4.62796875 3.7709375 5.2734375 4.296875 C7.08312318 6.08199481 8.00117455 7.67949644 9 10 C7.35 10.33 5.7 10.66 4 11 C3.32880451 9.5437455 2.66318193 8.08492133 2 6.625 C1.62875 5.81289062 1.2575 5.00078125 0.875 4.1640625 C0 2 0 2 0 0 Z " fill="#DBA48E" transform="translate(429,92)"/>
</svg>
