<?xml version="1.0" encoding="UTF-8"?>
<!DOCTYPE svg PUBLIC "-//W3C//DTD SVG 1.1//EN" "http://www.w3.org/Graphics/SVG/1.1/DTD/svg11.dtd">
<svg xmlns="http://www.w3.org/2000/svg" version="1.1" width="512px" height="512px" style="shape-rendering:geometricPrecision; text-rendering:geometricPrecision; image-rendering:optimizeQuality; fill-rule:evenodd; clip-rule:evenodd" xmlns:xlink="http://www.w3.org/1999/xlink">
<g><path style="opacity:1" fill="#bc324c" d="M 372.5,147.5 C 371.657,150.516 370.157,153.183 368,155.5C 355.35,164.718 353.183,175.885 361.5,189C 373.343,197.36 384.343,206.527 394.5,216.5C 385.315,234.394 379.315,253.394 376.5,273.5C 375.113,275.877 374.279,278.543 374,281.5C 373.433,286.834 372.933,292.167 372.5,297.5C 372.219,301.188 371.719,304.855 371,308.5C 369.989,309.337 368.822,309.67 367.5,309.5C 367.037,306.518 366.704,303.518 366.5,300.5C 364.401,274.054 367.068,248.054 374.5,222.5C 374.182,221.353 373.516,220.519 372.5,220C 368.909,219.211 365.409,219.378 362,220.5C 346.966,246.217 328.799,269.55 307.5,290.5C 304.369,293.129 301.369,295.962 298.5,299C 294.889,300.254 293.389,299.088 294,295.5C 296.054,292.953 297.887,290.286 299.5,287.5C 316.738,262.7 333.738,237.7 350.5,212.5C 350.057,207.761 348.557,203.428 346,199.5C 315.945,218.112 284.112,232.779 250.5,243.5C 247.475,243.877 244.475,244.044 241.5,244C 240.483,242.951 240.316,241.784 241,240.5C 242.518,239.837 243.685,238.837 244.5,237.5C 276.823,222.505 308.49,206.171 339.5,188.5C 337.35,185.849 335.017,183.349 332.5,181C 299.119,178.923 266.452,173.09 234.5,163.5C 233.893,163.624 233.56,163.957 233.5,164.5C 230.489,163.439 227.489,162.273 224.5,161C 221.674,158.136 222.174,155.969 226,154.5C 228.77,155.348 231.603,155.681 234.5,155.5C 243.261,157.625 252.261,159.125 261.5,160C 285.448,162.771 309.448,164.438 333.5,165C 336.362,164.07 338.695,162.403 340.5,160C 308.641,139.974 282.641,114.141 262.5,82.5C 260.15,80.3396 259.483,77.8396 260.5,75C 263.813,74.1358 266.146,75.3024 267.5,78.5C 290.199,102.373 314.865,123.873 341.5,143C 344.701,145.267 348.034,146.934 351.5,148C 352.167,147 352.833,146 353.5,145C 333.712,115.471 323.046,82.971 321.5,47.5C 321.5,44.8333 321.5,42.1667 321.5,39.5C 322.822,39.33 323.989,39.6634 325,40.5C 333.235,79.7652 349.068,115.432 372.5,147.5 Z"/></g>
<g><path style="opacity:1" fill="#bd324c" d="M 419.5,56.5 C 422.92,82.7389 421.587,108.739 415.5,134.5C 412.331,133.083 409.331,131.417 406.5,129.5C 412.132,103.619 414.132,77.4526 412.5,51C 412.859,47.6553 414.526,46.822 417.5,48.5C 418.295,51.1444 418.962,53.8111 419.5,56.5 Z"/></g>
<g><path style="opacity:1" fill="#f96382" d="M 321.5,47.5 C 323.046,82.971 333.712,115.471 353.5,145C 352.833,146 352.167,147 351.5,148C 348.034,146.934 344.701,145.267 341.5,143C 314.865,123.873 290.199,102.373 267.5,78.5C 282.912,76.1259 296.579,69.9593 308.5,60C 312.702,55.6298 317.036,51.4632 321.5,47.5 Z"/></g>
<g><path style="opacity:1" fill="#f96382" d="M 419.5,56.5 C 432.924,75.5557 450.924,88.2224 473.5,94.5C 472.928,96.2554 472.094,97.9221 471,99.5C 456.85,115.158 441.35,129.158 424.5,141.5C 420.637,140.306 417.637,137.973 415.5,134.5C 421.587,108.739 422.92,82.7389 419.5,56.5 Z"/></g>
<g><path style="opacity:1" fill="#f96382" d="M 262.5,82.5 C 282.641,114.141 308.641,139.974 340.5,160C 338.695,162.403 336.362,164.07 333.5,165C 309.448,164.438 285.448,162.771 261.5,160C 252.261,159.125 243.261,157.625 234.5,155.5C 252.436,134.602 261.769,110.269 262.5,82.5 Z"/></g>
<g><path style="opacity:1" fill="#bd334c" d="M 475.5,104.5 C 465.705,119.97 453.705,133.637 439.5,145.5C 433.935,145.861 428.935,144.527 424.5,141.5C 441.35,129.158 456.85,115.158 471,99.5C 472.094,97.9221 472.928,96.2554 473.5,94.5C 475.285,92.6224 477.285,90.9558 479.5,89.5C 480.881,89.9996 481.547,90.9996 481.5,92.5C 480.016,96.8004 478.016,100.8 475.5,104.5 Z"/></g>
<g><path style="opacity:1" fill="#f96382" d="M 475.5,104.5 C 476.931,122.801 483.264,139.135 494.5,153.5C 479.361,155.066 464.028,155.732 448.5,155.5C 447.259,150.592 444.259,147.259 439.5,145.5C 453.705,133.637 465.705,119.97 475.5,104.5 Z"/></g>
<g><path style="opacity:1" fill="#e6b475" d="M 406.5,129.5 C 409.331,131.417 412.331,133.083 415.5,134.5C 417.637,137.973 420.637,140.306 424.5,141.5C 428.935,144.527 433.935,145.861 439.5,145.5C 444.259,147.259 447.259,150.592 448.5,155.5C 448.395,159.319 447.562,162.986 446,166.5C 445.578,168.426 444.411,169.426 442.5,169.5C 439.833,169.5 437.167,169.5 434.5,169.5C 432.5,169.5 430.5,169.5 428.5,169.5C 426.167,169.5 423.833,169.5 421.5,169.5C 419.833,169.5 418.167,169.5 416.5,169.5C 414.5,169.5 412.5,169.5 410.5,169.5C 409.167,169.5 407.833,169.5 406.5,169.5C 400.491,169.334 394.491,169.501 388.5,170C 387.978,170.561 387.645,171.228 387.5,172C 391.24,179.228 395.907,185.728 401.5,191.5C 402.167,192.833 403.167,193.833 404.5,194.5C 405.5,196.167 406.833,197.5 408.5,198.5C 408.973,199.906 409.973,200.573 411.5,200.5C 412.585,202.587 414.251,203.92 416.5,204.5C 417.473,206.068 417.64,207.735 417,209.5C 414.113,214.566 409.946,217.899 404.5,219.5C 400.927,219.109 397.593,218.109 394.5,216.5C 384.343,206.527 373.343,197.36 361.5,189C 353.183,175.885 355.35,164.718 368,155.5C 370.157,153.183 371.657,150.516 372.5,147.5C 376.22,141.942 380.553,136.775 385.5,132C 392.238,128.579 399.238,127.746 406.5,129.5 Z"/></g>
<g><path style="opacity:1" fill="#8e613b" d="M 37.5,249.5 C 30.8875,248.341 24.2209,247.508 17.5,247C 17.0426,246.586 16.7093,246.086 16.5,245.5C 18.9954,243.157 21.9954,241.657 25.5,241C 28.8818,240.824 32.2152,240.324 35.5,239.5C 34.8728,236.298 34.2061,233.131 33.5,230C 28.6366,227.934 23.6366,226.268 18.5,225C 17.2092,222.91 17.8758,221.576 20.5,221C 24.4862,220.501 28.4862,220.334 32.5,220.5C 31.8603,196.353 37.1937,173.686 48.5,152.5C 67.9565,141.409 88.2898,139.576 109.5,147C 110.833,148 110.833,149 109.5,150C 60.9155,156.428 36.5822,184.262 36.5,233.5C 36.6119,238.86 36.9453,244.193 37.5,249.5 Z"/></g>
<g><path style="opacity:1" fill="#8f623c" d="M 393.5,145.5 C 396.39,145.278 399.057,145.945 401.5,147.5C 404.496,151.505 403.496,154.172 398.5,155.5C 391.476,154.681 389.809,151.348 393.5,145.5 Z"/></g>
<g><path style="opacity:1" fill="#e6b475" d="M 48.5,152.5 C 37.1937,173.686 31.8603,196.353 32.5,220.5C 28.4862,220.334 24.4862,220.501 20.5,221C 17.8758,221.576 17.2092,222.91 18.5,225C 23.6366,226.268 28.6366,227.934 33.5,230C 34.2061,233.131 34.8728,236.298 35.5,239.5C 32.2152,240.324 28.8818,240.824 25.5,241C 21.9954,241.657 18.9954,243.157 16.5,245.5C 16.7093,246.086 17.0426,246.586 17.5,247C 24.2209,247.508 30.8875,248.341 37.5,249.5C 38.123,253.288 39.123,256.955 40.5,260.5C 33.8325,262.996 28.4992,267.162 24.5,273C 24.6135,274.28 25.2801,275.113 26.5,275.5C 31.6672,272.083 37.3338,270.083 43.5,269.5C 61.6229,296.505 86.9562,307.339 119.5,302C 131.305,299.346 142.305,294.846 152.5,288.5C 157.137,295.47 163.47,300.137 171.5,302.5C 171.649,301.448 171.483,300.448 171,299.5C 166.884,294.555 163.384,289.221 160.5,283.5C 164.183,279.82 168.183,276.486 172.5,273.5C 178.298,283.301 186.298,290.634 196.5,295.5C 191.009,285.852 186.009,275.852 181.5,265.5C 184.851,262.152 188.518,259.152 192.5,256.5C 197.021,267.526 204.021,276.693 213.5,284C 215.055,285.289 216.721,285.956 218.5,286C 219.451,285.282 219.617,284.449 219,283.5C 212.223,272.936 205.723,262.27 199.5,251.5C 204.847,247.156 210.847,243.823 217.5,241.5C 219.917,250.24 223.417,258.574 228,266.5C 229.011,267.337 230.178,267.67 231.5,267.5C 229.756,257.217 228.423,246.884 227.5,236.5C 233.149,233.506 239.149,231.506 245.5,230.5C 245.007,232.806 244.674,235.139 244.5,237.5C 243.685,238.837 242.518,239.837 241,240.5C 240.316,241.784 240.483,242.951 241.5,244C 244.475,244.044 247.475,243.877 250.5,243.5C 271.216,253.212 287.549,267.879 299.5,287.5C 297.887,290.286 296.054,292.953 294,295.5C 293.389,299.088 294.889,300.254 298.5,299C 301.369,295.962 304.369,293.129 307.5,290.5C 328.259,287.609 347.926,290.943 366.5,300.5C 366.704,303.518 367.037,306.518 367.5,309.5C 368.822,309.67 369.989,309.337 371,308.5C 371.719,304.855 372.219,301.188 372.5,297.5C 379.344,298.843 383.844,302.843 386,309.5C 386.5,317.159 386.666,324.826 386.5,332.5C 381.798,347.859 371.465,354.025 355.5,351C 352.823,350.751 350.49,349.751 348.5,348C 359.229,342.374 364.062,333.541 363,321.5C 362.5,320.333 361.667,319.5 360.5,319C 354.496,318.591 348.496,318.757 342.5,319.5C 337.727,319.482 333.06,318.815 328.5,317.5C 321.641,324.373 313.974,330.04 305.5,334.5C 297.52,338.654 289.187,341.988 280.5,344.5C 274.153,330.996 264.487,320.496 251.5,313C 249.231,311.442 246.898,311.276 244.5,312.5C 259.542,325.125 265.375,341.125 262,360.5C 260.289,366.252 257.789,371.586 254.5,376.5C 235.009,394.804 230.176,416.47 240,441.5C 243.143,446.497 247.643,449.664 253.5,451C 260.758,455.101 263.592,461.267 262,469.5C 261.25,470.126 260.416,470.626 259.5,471C 254,471.167 248.5,471.333 243,471.5C 236.423,471.605 229.923,471.105 223.5,470C 220,468.5 217.5,466 216,462.5C 215.132,453.817 214.132,445.151 213,436.5C 210.23,425.527 207.064,414.694 203.5,404C 203.762,401.453 204.262,398.953 205,396.5C 209.732,389.427 214.065,382.094 218,374.5C 220.007,369.98 221.507,365.313 222.5,360.5C 225.238,356.55 226.238,352.217 225.5,347.5C 220.149,351.192 214.815,354.859 209.5,358.5C 199.669,357.417 191.336,353.417 184.5,346.5C 173.477,324.858 179.81,310.525 203.5,303.5C 190.232,301.348 179.065,305.681 170,316.5C 166.196,323.197 164.03,330.363 163.5,338C 148.33,346.779 131.997,351.612 114.5,352.5C 104.5,352.5 94.5,352.5 84.5,352.5C 50.1253,344.632 26.292,324.299 13,291.5C -3.98791,250.41 -0.321244,211.41 24,174.5C 31.0793,165.89 39.2459,158.557 48.5,152.5 Z"/></g>
<g><path style="opacity:1" fill="#bc334c" d="M 494.5,153.5 C 499.099,153.2 503.599,153.533 508,154.5C 508.781,155.944 508.614,157.277 507.5,158.5C 504.246,159.813 500.912,160.813 497.5,161.5C 482.526,163.645 467.526,165.645 452.5,167.5C 448.463,177.48 447.463,187.813 449.5,198.5C 449.876,200.383 450.876,201.883 452.5,203C 466.077,211.288 480.077,218.788 494.5,225.5C 497.262,226.38 499.929,227.546 502.5,229C 503.38,230.356 503.714,231.856 503.5,233.5C 499.802,233.448 496.135,233.114 492.5,232.5C 473.995,226.671 456.162,219.005 439,209.5C 431.175,212.491 425.008,217.491 420.5,224.5C 432.04,243.455 440.04,263.788 444.5,285.5C 445.652,289.081 446.152,292.748 446,296.5C 444.506,297.747 443.006,297.747 441.5,296.5C 431.26,269.751 418.926,244.085 404.5,219.5C 409.946,217.899 414.113,214.566 417,209.5C 417.64,207.735 417.473,206.068 416.5,204.5C 422.964,189.647 421.297,188.314 411.5,200.5C 409.973,200.573 408.973,199.906 408.5,198.5C 409.187,195.088 410.187,191.754 411.5,188.5C 410.998,187.479 410.332,187.312 409.5,188C 407.946,190.287 406.279,192.454 404.5,194.5C 403.167,193.833 402.167,192.833 401.5,191.5C 400.504,186.537 400.337,181.537 401,176.5C 402.371,173.734 404.204,171.401 406.5,169.5C 407.833,169.5 409.167,169.5 410.5,169.5C 410.124,172.627 410.124,175.627 410.5,178.5C 413.303,176.031 415.303,173.031 416.5,169.5C 418.167,169.5 419.833,169.5 421.5,169.5C 421.218,173.296 421.218,176.963 421.5,180.5C 425.036,177.624 427.37,173.957 428.5,169.5C 430.5,169.5 432.5,169.5 434.5,169.5C 434.213,173.723 433.546,177.89 432.5,182C 432.833,182.5 433.167,183 433.5,183.5C 437.505,179.493 440.505,174.826 442.5,169.5C 444.411,169.426 445.578,168.426 446,166.5C 447.562,162.986 448.395,159.319 448.5,155.5C 464.028,155.732 479.361,155.066 494.5,153.5 Z"/></g>
<g><path style="opacity:1" fill="#f96382" d="M 497.5,161.5 C 489.973,175.94 487.473,191.274 490,207.5C 490.934,213.681 492.434,219.681 494.5,225.5C 480.077,218.788 466.077,211.288 452.5,203C 450.876,201.883 449.876,200.383 449.5,198.5C 447.463,187.813 448.463,177.48 452.5,167.5C 467.526,165.645 482.526,163.645 497.5,161.5 Z"/></g>
<g><path style="opacity:1" fill="#f96382" d="M 244.5,237.5 C 244.674,235.139 245.007,232.806 245.5,230.5C 247.022,207.449 243.022,185.449 233.5,164.5C 233.56,163.957 233.893,163.624 234.5,163.5C 266.452,173.09 299.119,178.923 332.5,181C 335.017,183.349 337.35,185.849 339.5,188.5C 308.49,206.171 276.823,222.505 244.5,237.5 Z"/></g>
<g><path style="opacity:1" fill="#8c5e3a" d="M 406.5,169.5 C 404.204,171.401 402.371,173.734 401,176.5C 400.337,181.537 400.504,186.537 401.5,191.5C 395.907,185.728 391.24,179.228 387.5,172C 387.645,171.228 387.978,170.561 388.5,170C 394.491,169.501 400.491,169.334 406.5,169.5 Z"/></g>
<g><path style="opacity:1" fill="#b4a2e6" d="M 410.5,169.5 C 412.5,169.5 414.5,169.5 416.5,169.5C 415.303,173.031 413.303,176.031 410.5,178.5C 410.124,175.627 410.124,172.627 410.5,169.5 Z"/></g>
<g><path style="opacity:1" fill="#b4a0e5" d="M 421.5,169.5 C 423.833,169.5 426.167,169.5 428.5,169.5C 427.37,173.957 425.036,177.624 421.5,180.5C 421.218,176.963 421.218,173.296 421.5,169.5 Z"/></g>
<g><path style="opacity:1" fill="#ead6ee" d="M 434.5,169.5 C 437.167,169.5 439.833,169.5 442.5,169.5C 440.505,174.826 437.505,179.493 433.5,183.5C 433.167,183 432.833,182.5 432.5,182C 433.546,177.89 434.213,173.723 434.5,169.5 Z"/></g>
<g><path style="opacity:1" fill="#b2a7ec" d="M 408.5,198.5 C 406.833,197.5 405.5,196.167 404.5,194.5C 406.279,192.454 407.946,190.287 409.5,188C 410.332,187.312 410.998,187.479 411.5,188.5C 410.187,191.754 409.187,195.088 408.5,198.5 Z"/></g>
<g><path style="opacity:1" fill="#ead6ee" d="M 416.5,204.5 C 414.251,203.92 412.585,202.587 411.5,200.5C 421.297,188.314 422.964,189.647 416.5,204.5 Z"/></g>
<g><path style="opacity:1" fill="#f96382" d="M 299.5,287.5 C 287.549,267.879 271.216,253.212 250.5,243.5C 284.112,232.779 315.945,218.112 346,199.5C 348.557,203.428 350.057,207.761 350.5,212.5C 333.738,237.7 316.738,262.7 299.5,287.5 Z"/></g>
<g><path style="opacity:1" fill="#f96382" d="M 492.5,232.5 C 470.158,244.505 454.158,262.172 444.5,285.5C 440.04,263.788 432.04,243.455 420.5,224.5C 425.008,217.491 431.175,212.491 439,209.5C 456.162,219.005 473.995,226.671 492.5,232.5 Z"/></g>
<g><path style="opacity:1" fill="#f96382" d="M 366.5,300.5 C 347.926,290.943 328.259,287.609 307.5,290.5C 328.799,269.55 346.966,246.217 362,220.5C 365.409,219.378 368.909,219.211 372.5,220C 373.516,220.519 374.182,221.353 374.5,222.5C 367.068,248.054 364.401,274.054 366.5,300.5 Z"/></g>
<g><path style="opacity:1" fill="#8d613b" d="M 227.5,236.5 C 228.423,246.884 229.756,257.217 231.5,267.5C 230.178,267.67 229.011,267.337 228,266.5C 223.417,258.574 219.917,250.24 217.5,241.5C 220.515,239.326 223.849,237.659 227.5,236.5 Z"/></g>
<g><path style="opacity:1" fill="#8d603a" d="M 199.5,251.5 C 205.723,262.27 212.223,272.936 219,283.5C 219.617,284.449 219.451,285.282 218.5,286C 216.721,285.956 215.055,285.289 213.5,284C 204.021,276.693 197.021,267.526 192.5,256.5C 194.531,254.478 196.865,252.811 199.5,251.5 Z"/></g>
<g><path style="opacity:1" fill="#8f623c" d="M 40.5,260.5 C 41.7866,263.406 42.7866,266.406 43.5,269.5C 37.3338,270.083 31.6672,272.083 26.5,275.5C 25.2801,275.113 24.6135,274.28 24.5,273C 28.4992,267.162 33.8325,262.996 40.5,260.5 Z"/></g>
<g><path style="opacity:1" fill="#8d603a" d="M 181.5,265.5 C 186.009,275.852 191.009,285.852 196.5,295.5C 186.298,290.634 178.298,283.301 172.5,273.5C 174.88,270.119 177.88,267.453 181.5,265.5 Z"/></g>
<g><path style="opacity:1" fill="#8f623c" d="M 233.5,272.5 C 239.817,273.975 242.151,277.808 240.5,284C 238.097,284.63 236.263,283.797 235,281.5C 233.069,278.603 232.569,275.603 233.5,272.5 Z"/></g>
<g><path style="opacity:1" fill="#8a5d38" d="M 376.5,273.5 C 385.204,275.863 393.871,278.363 402.5,281C 407.889,287.239 410.222,294.573 409.5,303C 410.302,319.607 402.635,329.44 386.5,332.5C 386.666,324.826 386.5,317.159 386,309.5C 383.844,302.843 379.344,298.843 372.5,297.5C 372.933,292.167 373.433,286.834 374,281.5C 374.279,278.543 375.113,275.877 376.5,273.5 Z"/></g>
<g><path style="opacity:1" fill="#8e613b" d="M 160.5,283.5 C 163.384,289.221 166.884,294.555 171,299.5C 171.483,300.448 171.649,301.448 171.5,302.5C 163.47,300.137 157.137,295.47 152.5,288.5C 155.167,286.833 157.833,285.167 160.5,283.5 Z"/></g>
<g><path style="opacity:1" fill="#8d603a" d="M 184.5,346.5 C 161.479,356.153 137.479,359.653 112.5,357C 106.279,356.729 100.279,355.896 94.5,354.5C 101.167,353.833 107.833,353.167 114.5,352.5C 131.997,351.612 148.33,346.779 163.5,338C 164.03,330.363 166.196,323.197 170,316.5C 179.065,305.681 190.232,301.348 203.5,303.5C 179.81,310.525 173.477,324.858 184.5,346.5 Z"/></g>
<g><path style="opacity:1" fill="#895d38" d="M 305.5,334.5 C 310.831,356.009 306.998,375.676 294,393.5C 292.03,413.253 298.197,430.086 312.5,444C 318.659,446.605 324.492,449.772 330,453.5C 332.641,457.116 334.474,461.116 335.5,465.5C 335.363,467.107 334.696,468.441 333.5,469.5C 322.547,470.644 311.547,470.811 300.5,470C 296.532,469.036 293.365,466.869 291,463.5C 287.037,449.947 281.704,436.947 275,424.5C 271.721,418.953 267.721,413.953 263,409.5C 256.892,399.404 254.059,388.404 254.5,376.5C 257.789,371.586 260.289,366.252 262,360.5C 265.375,341.125 259.542,325.125 244.5,312.5C 246.898,311.276 249.231,311.442 251.5,313C 264.487,320.496 274.153,330.996 280.5,344.5C 289.187,341.988 297.52,338.654 305.5,334.5 Z"/></g>
<g><path style="opacity:1" fill="#8e613c" d="M 222.5,360.5 C 217.9,360.72 213.567,360.054 209.5,358.5C 214.815,354.859 220.149,351.192 225.5,347.5C 226.238,352.217 225.238,356.55 222.5,360.5 Z"/></g>
<g><path style="opacity:1" fill="#bc8a5a" d="M 84.5,352.5 C 94.5,352.5 104.5,352.5 114.5,352.5C 107.833,353.167 101.167,353.833 94.5,354.5C 90.8776,354.678 87.5443,354.011 84.5,352.5 Z"/></g>
</svg>
