<?xml version="1.0" encoding="UTF-8"?>
<!DOCTYPE svg PUBLIC "-//W3C//DTD SVG 1.1//EN" "http://www.w3.org/Graphics/SVG/1.1/DTD/svg11.dtd">
<svg xmlns="http://www.w3.org/2000/svg" version="1.1" width="512px" height="512px" style="shape-rendering:geometricPrecision; text-rendering:geometricPrecision; image-rendering:optimizeQuality; fill-rule:evenodd; clip-rule:evenodd" xmlns:xlink="http://www.w3.org/1999/xlink">
<g><path style="opacity:1" fill="#95958e" d="M 393.5,102.5 C 387.94,107.899 382.273,113.065 376.5,118C 376.667,119.5 377.5,120.333 379,120.5C 385.027,119.37 390.861,117.703 396.5,115.5C 398.261,120.231 399.261,125.231 399.5,130.5C 391.338,137.079 383.004,143.412 374.5,149.5C 375.348,150.991 376.681,151.658 378.5,151.5C 387.001,150.776 395.001,148.443 402.5,144.5C 403.038,151.822 403.371,159.155 403.5,166.5C 393.452,171.521 383.119,176.021 372.5,180C 371.62,181.356 371.286,182.856 371.5,184.5C 382.531,184.74 393.531,184.407 404.5,183.5C 404.198,205.943 402.531,228.277 399.5,250.5C 389.302,253.956 379.635,252.956 370.5,247.5C 365.332,249.585 360.332,251.919 355.5,254.5C 355.828,243.654 355.494,232.987 354.5,222.5C 354.354,218.481 354.021,214.481 353.5,210.5C 351.588,199.026 347.255,188.693 340.5,179.5C 329.143,160.806 312.477,150.14 290.5,147.5C 264.542,145.494 238.542,143.994 212.5,143C 192.109,141.097 179.775,130.264 175.5,110.5C 197.449,108.514 219.449,108.014 241.5,109C 252.333,109.867 262.999,111.7 273.5,114.5C 275.319,114.658 276.652,113.991 277.5,112.5C 273.983,109.572 269.983,107.406 265.5,106C 252.186,101.524 238.519,98.5244 224.5,97C 208.17,96.5001 191.837,96.3334 175.5,96.5C 178.382,74.5655 190.049,59.3988 210.5,51C 221.656,47.0445 232.99,43.7111 244.5,41C 252.369,37.123 259.702,32.4563 266.5,27C 295.316,11.764 320.316,16.4307 341.5,41C 359.079,45.5926 372.245,55.7593 381,71.5C 386.249,81.4175 390.416,91.7508 393.5,102.5 Z"/></g>
<g><path style="opacity:1" fill="#5e5d5d" d="M 291.5,42.5 C 306.19,41.0171 311.69,47.3504 308,61.5C 300.181,69.7585 292.847,69.4252 286,60.5C 284.632,57.2617 284.299,53.9283 285,50.5C 286.652,47.3544 288.819,44.6877 291.5,42.5 Z"/></g>
<g><path style="opacity:1" fill="#605f5e" d="M 203.5,74.5 C 210.621,73.4492 212.954,76.2825 210.5,83C 205.984,85.2444 202.984,83.9111 201.5,79C 202.044,77.415 202.711,75.915 203.5,74.5 Z"/></g>
<g><path style="opacity:1" fill="#5e5e5e" d="M 175.5,96.5 C 191.837,96.3334 208.17,96.5001 224.5,97C 238.519,98.5244 252.186,101.524 265.5,106C 269.983,107.406 273.983,109.572 277.5,112.5C 276.652,113.991 275.319,114.658 273.5,114.5C 262.999,111.7 252.333,109.867 241.5,109C 219.449,108.014 197.449,108.514 175.5,110.5C 174.222,105.802 174.222,101.135 175.5,96.5 Z"/></g>
<g><path style="opacity:1" fill="#605f5e" d="M 393.5,102.5 C 394.971,106.718 395.971,111.051 396.5,115.5C 390.861,117.703 385.027,119.37 379,120.5C 377.5,120.333 376.667,119.5 376.5,118C 382.273,113.065 387.94,107.899 393.5,102.5 Z"/></g>
<g><path style="opacity:1" fill="#5f5f5e" d="M 399.5,130.5 C 400.678,135.038 401.678,139.705 402.5,144.5C 395.001,148.443 387.001,150.776 378.5,151.5C 376.681,151.658 375.348,150.991 374.5,149.5C 383.004,143.412 391.338,137.079 399.5,130.5 Z"/></g>
<g><path style="opacity:1" fill="#e09c7e" d="M 290.5,147.5 C 312.477,150.14 329.143,160.806 340.5,179.5C 332.323,177.039 323.99,175.372 315.5,174.5C 310.278,162.612 301.945,153.612 290.5,147.5 Z"/></g>
<g><path style="opacity:1" fill="#5f5e5e" d="M 403.5,166.5 C 404.354,172.121 404.687,177.788 404.5,183.5C 393.531,184.407 382.531,184.74 371.5,184.5C 371.286,182.856 371.62,181.356 372.5,180C 383.119,176.021 393.452,171.521 403.5,166.5 Z"/></g>
<g><path style="opacity:1" fill="#f8dfc6" d="M 315.5,174.5 C 323.99,175.372 332.323,177.039 340.5,179.5C 347.255,188.693 351.588,199.026 353.5,210.5C 342.497,210.924 332.163,208.59 322.5,203.5C 321.297,193.684 318.964,184.017 315.5,174.5 Z"/></g>
<g><path style="opacity:1" fill="#95958e" d="M 228.5,218.5 C 235.846,226.025 239.18,235.192 238.5,246C 238.843,254.803 236.843,262.97 232.5,270.5C 230.131,266.419 228.131,262.086 226.5,257.5C 225.99,244.314 220.99,233.147 211.5,224C 210.167,223.333 208.833,223.333 207.5,224C 206.549,227.057 206.216,230.223 206.5,233.5C 205.298,246.476 204.298,259.476 203.5,272.5C 189.309,262.451 182.309,248.785 182.5,231.5C 186.763,228.727 189.763,224.894 191.5,220C 191.334,217.836 190.167,216.669 188,216.5C 180.985,219.186 176.318,224.186 174,231.5C 172.648,234.72 171.814,238.053 171.5,241.5C 168.857,246.112 166.19,250.779 163.5,255.5C 161.449,249.214 160.116,242.88 159.5,236.5C 159.871,228.39 161.871,220.723 165.5,213.5C 169.164,205.999 173.831,199.166 179.5,193C 181.278,192.296 183.112,191.796 185,191.5C 192.438,195.296 200.271,198.13 208.5,200C 213.144,204.314 217.478,208.98 221.5,214C 223.898,215.524 226.231,217.024 228.5,218.5 Z"/></g>
<g><path style="opacity:1" fill="#e19d7e" d="M 322.5,203.5 C 332.163,208.59 342.497,210.924 353.5,210.5C 354.021,214.481 354.354,218.481 354.5,222.5C 343.317,225.791 332.65,224.791 322.5,219.5C 322.5,214.167 322.5,208.833 322.5,203.5 Z"/></g>
<g><path style="opacity:1" fill="#906b6b" d="M 318.5,233.5 C 316.351,238.465 313.684,243.132 310.5,247.5C 303.466,255.535 295.799,262.868 287.5,269.5C 274.728,269.507 262.228,267.841 250,264.5C 247.412,268.674 245.079,273.007 243,277.5C 236.53,295.244 229.863,312.911 223,330.5C 216.594,331.955 210.094,333.122 203.5,334C 200.098,335.4 197.264,337.567 195,340.5C 192,347.833 189,355.167 186,362.5C 188.424,378.951 191.757,395.284 196,411.5C 207.167,421.333 218.333,431.167 229.5,441C 231.155,442.444 231.822,444.278 231.5,446.5C 216.768,438.628 202.434,429.961 188.5,420.5C 187.573,418.887 186.739,417.221 186,415.5C 182.164,400.823 178.331,386.156 174.5,371.5C 164.254,368.697 153.921,366.197 143.5,364C 142.663,362.989 142.33,361.822 142.5,360.5C 153.167,360.5 163.833,360.5 174.5,360.5C 177.253,350.072 181.087,340.072 186,330.5C 188.708,326.896 192.208,324.396 196.5,323C 202.709,321.905 208.876,320.738 215,319.5C 219.6,307.199 224.1,294.866 228.5,282.5C 225.748,273.663 221.914,265.329 217,257.5C 216.301,265.931 214.968,274.264 213,282.5C 211.938,283.899 210.605,284.899 209,285.5C 193.346,279.179 182.346,268.179 176,252.5C 172.975,256.024 170.142,259.691 167.5,263.5C 165.833,264.833 164.167,264.833 162.5,263.5C 160.889,260.78 160.056,257.78 160,254.5C 159.501,248.509 159.334,242.509 159.5,236.5C 160.116,242.88 161.449,249.214 163.5,255.5C 166.19,250.779 168.857,246.112 171.5,241.5C 175.167,238.167 178.833,234.833 182.5,231.5C 182.309,248.785 189.309,262.451 203.5,272.5C 204.298,259.476 205.298,246.476 206.5,233.5C 215.53,239.579 222.197,247.579 226.5,257.5C 228.131,262.086 230.131,266.419 232.5,270.5C 236.843,262.97 238.843,254.803 238.5,246C 239.18,235.192 235.846,226.025 228.5,218.5C 243.735,218.4 258.235,215.066 272,208.5C 274.584,209.104 277.084,209.937 279.5,211C 288.892,224.698 301.892,232.198 318.5,233.5 Z"/></g>
<g><path style="opacity:1" fill="#eccdcd" d="M 165.5,213.5 C 161.871,220.723 159.871,228.39 159.5,236.5C 159.334,242.509 159.501,248.509 160,254.5C 160.056,257.78 160.889,260.78 162.5,263.5C 164.167,264.833 165.833,264.833 167.5,263.5C 170.142,259.691 172.975,256.024 176,252.5C 182.346,268.179 193.346,279.179 209,285.5C 210.605,284.899 211.938,283.899 213,282.5C 214.968,274.264 216.301,265.931 217,257.5C 221.914,265.329 225.748,273.663 228.5,282.5C 224.1,294.866 219.6,307.199 215,319.5C 208.876,320.738 202.709,321.905 196.5,323C 192.208,324.396 188.708,326.896 186,330.5C 181.087,340.072 177.253,350.072 174.5,360.5C 163.833,360.5 153.167,360.5 142.5,360.5C 142.33,361.822 142.663,362.989 143.5,364C 153.921,366.197 164.254,368.697 174.5,371.5C 178.331,386.156 182.164,400.823 186,415.5C 186.739,417.221 187.573,418.887 188.5,420.5C 202.434,429.961 216.768,438.628 231.5,446.5C 231.822,444.278 231.155,442.444 229.5,441C 218.333,431.167 207.167,421.333 196,411.5C 191.757,395.284 188.424,378.951 186,362.5C 189,355.167 192,347.833 195,340.5C 197.264,337.567 200.098,335.4 203.5,334C 210.094,333.122 216.594,331.955 223,330.5C 229.863,312.911 236.53,295.244 243,277.5C 245.079,273.007 247.412,268.674 250,264.5C 262.228,267.841 274.728,269.507 287.5,269.5C 293.952,269.084 300.285,269.584 306.5,271C 316.593,278.258 325.927,286.424 334.5,295.5C 337.309,300.445 340.143,305.445 343,310.5C 343.822,312.788 344.489,315.122 345,317.5C 345.667,333.167 345.667,348.833 345,364.5C 344.529,366.246 343.862,367.913 343,369.5C 334.607,378.056 326.774,387.056 319.5,396.5C 320.693,398.384 322.359,398.884 324.5,398C 336.5,390 348.5,382 360.5,374C 361.66,352.573 361.826,331.073 361,309.5C 357.411,300.638 352.577,292.638 346.5,285.5C 348.5,284.167 350.167,282.5 351.5,280.5C 351.435,280.938 351.601,281.272 352,281.5C 356.52,278.573 361.187,275.907 366,273.5C 372.49,276.404 379.323,277.237 386.5,276C 390.191,275.164 393.524,273.664 396.5,271.5C 407.306,262.215 419.306,254.715 432.5,249C 436.754,247.686 441.087,246.853 445.5,246.5C 452.728,294.782 443.895,339.782 419,381.5C 388.28,433.881 343.78,468.714 285.5,486C 224.241,501.685 169.241,489.685 120.5,450C 94.3662,422.537 81.3662,389.704 81.5,351.5C 81.2435,328.879 84.7435,306.879 92,285.5C 105.11,261.117 121.277,238.951 140.5,219C 147.858,212.912 156.191,211.078 165.5,213.5 Z"/></g>
<g><path style="opacity:1" fill="#605f5e" d="M 182.5,231.5 C 178.833,234.833 175.167,238.167 171.5,241.5C 171.814,238.053 172.648,234.72 174,231.5C 176.318,224.186 180.985,219.186 188,216.5C 190.167,216.669 191.334,217.836 191.5,220C 189.763,224.894 186.763,228.727 182.5,231.5 Z"/></g>
<g><path style="opacity:1" fill="#f9dfc7" d="M 322.5,219.5 C 332.65,224.791 343.317,225.791 354.5,222.5C 355.494,232.987 355.828,243.654 355.5,254.5C 355.5,255.167 355.167,255.5 354.5,255.5C 339.251,259.753 324.917,257.753 311.5,249.5C 310.702,249.043 310.369,248.376 310.5,247.5C 313.684,243.132 316.351,238.465 318.5,233.5C 320.166,228.823 321.499,224.156 322.5,219.5 Z"/></g>
<g><path style="opacity:1" fill="#605f5e" d="M 226.5,257.5 C 222.197,247.579 215.53,239.579 206.5,233.5C 206.216,230.223 206.549,227.057 207.5,224C 208.833,223.333 210.167,223.333 211.5,224C 220.99,233.147 225.99,244.314 226.5,257.5 Z"/></g>
<g><path style="opacity:1" fill="#e09c7d" d="M 310.5,247.5 C 310.369,248.376 310.702,249.043 311.5,249.5C 324.917,257.753 339.251,259.753 354.5,255.5C 353.746,263.865 352.746,272.199 351.5,280.5C 350.167,282.5 348.5,284.167 346.5,285.5C 342.208,288.457 338.208,291.79 334.5,295.5C 325.927,286.424 316.593,278.258 306.5,271C 300.285,269.584 293.952,269.084 287.5,269.5C 295.799,262.868 303.466,255.535 310.5,247.5 Z"/></g>
<g><path style="opacity:1" fill="#5e5e5e" d="M 399.5,250.5 C 398.392,257.481 397.392,264.481 396.5,271.5C 393.524,273.664 390.191,275.164 386.5,276C 379.323,277.237 372.49,276.404 366,273.5C 361.187,275.907 356.52,278.573 352,281.5C 351.601,281.272 351.435,280.938 351.5,280.5C 352.746,272.199 353.746,263.865 354.5,255.5C 355.167,255.5 355.5,255.167 355.5,254.5C 360.332,251.919 365.332,249.585 370.5,247.5C 379.635,252.956 389.302,253.956 399.5,250.5 Z"/></g>
<g><path style="opacity:1" fill="#906b6b" d="M 346.5,285.5 C 352.577,292.638 357.411,300.638 361,309.5C 361.826,331.073 361.66,352.573 360.5,374C 348.5,382 336.5,390 324.5,398C 322.359,398.884 320.693,398.384 319.5,396.5C 326.774,387.056 334.607,378.056 343,369.5C 343.862,367.913 344.529,366.246 345,364.5C 345.667,348.833 345.667,333.167 345,317.5C 344.489,315.122 343.822,312.788 343,310.5C 340.143,305.445 337.309,300.445 334.5,295.5C 338.208,291.79 342.208,288.457 346.5,285.5 Z"/></g>
<g><path style="opacity:1" fill="#8f6a6a" d="M 458.5,420.5 C 468.424,419.918 475.924,423.918 481,432.5C 479.706,438.557 477.873,444.557 475.5,450.5C 461.766,450.228 449.599,445.561 439,436.5C 438.493,435.004 438.993,433.837 440.5,433C 446.426,428.553 452.426,424.386 458.5,420.5 Z"/></g>
<g><path style="opacity:1" fill="#8f6969" d="M 405.5,447.5 C 420.962,447.646 433.128,453.98 442,466.5C 444.27,471.246 445.437,476.246 445.5,481.5C 430.503,482.778 415.503,484.111 400.5,485.5C 389.402,484.012 385.236,477.679 388,466.5C 391,462.167 394,457.833 397,453.5C 399.322,450.605 402.155,448.605 405.5,447.5 Z"/></g>
<g><path style="opacity:1" fill="#8f6a69" d="M 43.5,450.5 C 56.6184,454.451 67.4517,461.784 76,472.5C 78.2036,475.23 79.5369,478.23 80,481.5C 71.2976,484.561 62.2976,485.894 53,485.5C 41.6493,488.078 33.9826,484.078 30,473.5C 29.1131,468.928 29.7798,464.595 32,460.5C 35.8117,457.031 39.6451,453.698 43.5,450.5 Z"/></g>
</svg>
