<svg width="512" height="512" version="1.1" xmlns="http://www.w3.org/2000/svg" desc="Created with imagetracer.js version 1.2.6" ><path fill="rgb(0,0,0)" stroke="rgb(0,0,0)" stroke-width="1" opacity="0" d="M 0 0 L 512 0 L 512 512 L 0 512 L 0 0 Z M 309 17 Q 299 18 294 23 Q 283 30 279 44 L 279 51 L 282 55 Q 283 65 288 72 Q 287 74 291 73 L 293 69 L 295 59 L 304 61 L 302 69 Q 300 74 304 76 L 307 75 Q 308 69 314 65 L 320 68 L 318 78 L 322 79 L 327 73 L 333 77 L 332 85 L 335 86 L 339 81 L 350 91 L 342 102 L 338 100 L 336 98 Q 335 95 331 96 L 334 108 L 325 113 L 318 102 L 314 100 L 314 116 L 315 117 L 303 118 L 296 101 Q 297 98 294 99 Q 289 106 291 119 Q 285 118 284 123 L 284 127 L 287 133 Q 290 138 298 140 L 338 141 L 359 145 L 373 144 L 384 139 Q 391 132 393 121 L 403 127 Q 410 133 413 145 L 412 155 L 405 167 Q 395 178 380 184 L 376 176 L 377 162 L 374 158 L 370 157 Q 362 157 358 161 L 351 169 L 351 179 L 356 187 L 355 195 L 340 205 L 337 202 Q 336 196 339 194 Q 340 186 335 184 L 325 184 L 317 189 L 312 196 L 312 204 Q 315 211 321 216 L 296 226 L 293 221 Q 292 214 296 213 Q 297 206 294 204 L 289 202 Q 280 202 275 206 Q 270 209 268 216 Q 268 229 277 235 L 260 248 L 257 248 L 255 244 L 256 241 L 255 232 L 252 229 Q 242 228 239 232 L 231 241 L 231 251 L 241 264 Q 221 264 210 274 Q 198 283 191 296 L 185 310 L 180 329 L 173 345 Q 166 355 152 357 Q 153 351 159 348 Q 160 340 157 337 L 147 333 Q 140 332 137 335 L 133 341 L 133 350 L 131 358 Q 114 356 102 348 Q 105 343 114 344 L 118 338 L 116 330 L 108 322 L 99 323 L 89 334 L 82 320 L 81 307 L 90 312 L 94 311 L 97 308 L 99 301 L 97 294 L 94 291 L 85 291 Q 90 279 99 272 Q 101 277 107 278 Q 115 279 120 275 L 123 271 L 123 265 L 118 257 L 130 249 L 138 256 Q 144 257 148 255 L 152 251 Q 151 241 154 237 L 163 229 L 173 217 L 179 204 L 181 193 Q 180 168 167 157 L 163 159 L 164 163 L 164 181 L 162 189 Q 158 200 151 208 L 146 205 Q 138 204 135 208 L 129 214 L 124 225 L 120 229 L 106 237 Q 105 231 101 229 Q 92 228 89 231 Q 83 233 82 240 Q 80 246 83 248 L 80 256 L 66 269 L 66 268 L 64 261 L 59 257 Q 53 256 51 259 Q 45 262 43 270 L 44 279 L 52 291 L 52 298 L 50 306 L 50 321 L 45 314 L 39 309 L 32 310 Q 27 313 26 319 Q 25 327 28 332 L 36 338 L 54 340 L 63 359 L 66 362 L 61 360 L 55 361 L 49 368 Q 48 375 51 379 L 61 386 L 72 386 L 83 378 Q 95 389 114 394 L 112 396 Q 103 396 100 399 L 98 404 L 98 412 L 100 415 L 112 420 L 117 420 L 123 418 L 129 412 L 133 399 L 135 397 L 159 397 L 160 396 Q 165 394 164 398 Q 162 403 156 404 L 151 410 Q 150 417 152 421 L 160 426 Q 172 428 178 423 Q 183 419 185 412 L 185 393 L 186 391 L 196 384 Q 202 383 205 386 Q 224 388 233 380 L 236 378 Q 229 399 216 414 L 211 418 L 203 429 Q 201 438 206 441 Q 205 443 208 442 L 221 458 L 230 475 L 235 488 Q 239 493 248 495 L 284 495 Q 286 487 282 483 L 278 478 L 262 473 L 252 467 Q 245 461 241 453 L 236 436 L 238 421 L 248 399 Q 258 379 274 364 L 288 365 Q 300 368 309 375 L 313 380 L 318 392 L 323 397 Q 322 407 317 414 L 311 419 L 304 428 L 304 438 L 306 443 Q 315 463 329 479 L 342 491 L 351 495 L 390 495 L 392 494 L 395 490 Q 396 483 393 480 L 384 473 L 363 471 L 353 466 Q 344 458 339 447 L 334 429 L 335 418 L 338 408 Q 343 396 351 388 L 353 381 Q 353 371 349 366 Q 345 360 338 358 L 315 356 L 298 351 L 284 344 L 276 338 L 280 323 L 281 303 Q 298 320 322 330 L 340 336 L 362 339 L 363 337 L 337 320 L 316 303 L 296 282 L 285 266 L 284 261 L 297 253 L 301 252 Q 309 268 321 281 Q 334 294 351 304 L 377 315 Q 382 317 380 312 L 378 310 Q 359 293 344 273 L 331 253 L 326 240 L 341 235 L 356 259 Q 367 272 382 281 L 385 280 L 370 249 L 362 223 L 369 220 L 372 230 Q 376 235 384 237 L 390 244 Q 394 259 403 270 L 414 282 L 418 289 L 426 294 Q 435 296 439 292 L 442 288 L 442 285 L 448 284 L 459 286 L 464 289 L 468 297 L 469 302 Q 471 308 468 310 L 469 312 L 477 309 Q 484 303 486 292 Q 488 278 482 272 Q 478 266 470 264 L 448 265 L 447 266 L 429 265 L 424 262 L 415 245 L 413 238 L 413 227 L 412 226 L 413 212 L 423 220 L 430 220 L 433 216 L 432 208 L 422 186 L 434 168 L 439 169 L 448 177 Q 454 178 458 176 L 462 172 L 464 165 Q 465 157 462 153 L 455 146 L 441 144 L 440 130 L 437 119 Q 441 117 450 118 L 454 116 L 457 111 L 457 104 L 453 97 Q 449 92 443 90 L 434 91 L 425 98 L 423 98 Q 418 91 410 88 L 418 72 L 418 59 L 416 53 L 411 45 L 398 37 L 386 34 L 375 34 L 374 35 L 358 34 L 337 22 L 319 17 L 309 17 Z " /><path fill="rgb(116,138,213)" stroke="rgb(116,138,213)" stroke-width="1" opacity="0.49411764705882355" d="M 282.5 54 L 283 56.5 L 282 56.5 L 282.5 54 Z " /><path fill="rgb(116,138,213)" stroke="rgb(116,138,213)" stroke-width="1" opacity="0.49411764705882355" d="M 283.5 58 L 286 65.5 L 285 65.5 L 283.5 58 Z " /><path fill="rgb(116,138,213)" stroke="rgb(116,138,213)" stroke-width="1" opacity="0.49411764705882355" d="M 294.5 60 L 295 61.5 L 293.5 65 L 293 62.5 L 294.5 60 Z " /><path fill="rgb(116,138,213)" stroke="rgb(116,138,213)" stroke-width="1" opacity="0.49411764705882355" d="M 303.5 63 L 304 65.5 L 303 65.5 L 303.5 63 Z " /><path fill="rgb(116,138,213)" stroke="rgb(116,138,213)" stroke-width="1" opacity="0.49411764705882355" d="M 312.5 65 L 311 67.5 L 304.5 76 L 302 74.5 L 302.5 68 L 303 75 L 307 72.5 L 312.5 65 Z " /><path fill="rgb(116,138,213)" stroke="rgb(116,138,213)" stroke-width="1" opacity="0.49411764705882355" d="M 292.5 66 L 293 68.5 L 292 68.5 L 292.5 66 Z " /><path fill="rgb(116,138,213)" stroke="rgb(116,138,213)" stroke-width="1" opacity="0.49411764705882355" d="M 286.5 67 L 289.5 72 Q 291.8 72.8 291 70.5 L 292 70.5 L 290.5 73 L 287 70.5 L 286.5 67 Z " /><path fill="rgb(116,138,213)" stroke="rgb(116,138,213)" stroke-width="1" opacity="0.49411764705882355" d="M 319.5 70 L 320 72.5 L 319 72.5 L 319.5 70 Z " /><path fill="rgb(116,138,213)" stroke="rgb(116,138,213)" stroke-width="1" opacity="0.49411764705882355" d="M 325 72 L 327 72.5 L 322 79 L 318 77.5 L 318.5 75 L 319 78 L 325 73.5 L 325 72 Z " /><path fill="rgb(116,138,213)" stroke="rgb(116,138,213)" stroke-width="1" opacity="0.49411764705882355" d="M 332.5 80 L 333 85 L 336 83.5 L 338.5 80 L 337 82.5 L 334.5 86 L 332 84.5 L 332.5 80 Z " /><path fill="rgb(116,138,213)" stroke="rgb(116,138,213)" stroke-width="1" opacity="0.49411764705882355" d="M 409.5 87 L 414 90.5 L 411.5 89 L 409.5 87 Z " /><path fill="rgb(116,138,213)" stroke="rgb(116,138,213)" stroke-width="1" opacity="0.49411764705882355" d="M 436.5 90 L 443 90.5 L 436.5 91 L 436.5 90 Z " /><path fill="rgb(116,138,213)" stroke="rgb(116,138,213)" stroke-width="1" opacity="0.49411764705882355" d="M 415.5 91 L 424 98.5 L 422.5 99 L 415.5 91 Z " /><path fill="rgb(116,138,213)" stroke="rgb(116,138,213)" stroke-width="1" opacity="0.49411764705882355" d="M 431.5 92 L 430.5 94 L 431.5 92 Z " /><path fill="rgb(116,138,213)" stroke="rgb(116,138,213)" stroke-width="1" opacity="0.49411764705882355" d="M 450.5 94 L 452.5 97 L 450.5 94 Z " /><path fill="rgb(116,138,213)" stroke="rgb(116,138,213)" stroke-width="1" opacity="0.49411764705882355" d="M 427.5 95 L 425.5 98 L 427.5 95 Z " /><path fill="rgb(116,138,213)" stroke="rgb(116,138,213)" stroke-width="1" opacity="0.49411764705882355" d="M 331.5 96 L 333 102.5 L 332 102.5 L 331.5 96 Z " /><path fill="rgb(116,138,213)" stroke="rgb(116,138,213)" stroke-width="1" opacity="0.49411764705882355" d="M 333.5 96 Q 335.8 95.3 335 97.5 L 341 102.5 L 339.5 102 L 333.5 96 Z " /><path fill="rgb(116,138,213)" stroke="rgb(116,138,213)" stroke-width="1" opacity="0.49411764705882355" d="M 346.5 96 L 345.5 98 L 346.5 96 Z " /><path fill="rgb(116,138,213)" stroke="rgb(116,138,213)" stroke-width="1" opacity="0.49411764705882355" d="M 453.5 98 L 455 100.5 L 454 100.5 L 453.5 98 Z " /><path fill="rgb(116,138,213)" stroke="rgb(116,138,213)" stroke-width="1" opacity="0.49411764705882355" d="M 293.5 99 Q 296.8 97.9 296 100.5 L 304 118.5 L 302 117.5 L 294.5 100 L 293.5 99 Z " /><path fill="rgb(116,138,213)" stroke="rgb(116,138,213)" stroke-width="1" opacity="0.49411764705882355" d="M 314 100 L 318 101.5 L 319 104.5 L 318 104.5 L 317 101 Q 314 99.8 315 103.5 L 314 103.5 L 314 100 Z " /><path fill="rgb(116,138,213)" stroke="rgb(116,138,213)" stroke-width="1" opacity="0.49411764705882355" d="M 292.5 101 L 293 103.5 L 292 103.5 L 292.5 101 Z " /><path fill="rgb(116,138,213)" stroke="rgb(116,138,213)" stroke-width="1" opacity="0.49411764705882355" d="M 333.5 104 L 335 107.5 L 334 107.5 L 333.5 104 Z " /><path fill="rgb(116,138,213)" stroke="rgb(116,138,213)" stroke-width="1" opacity="0.49411764705882355" d="M 291.5 105 L 292 110.5 L 291 110.5 L 291.5 105 Z " /><path fill="rgb(116,138,213)" stroke="rgb(116,138,213)" stroke-width="1" opacity="0.49411764705882355" d="M 319.5 106 L 324 112.5 L 321 110.5 L 319.5 106 Z " /><path fill="rgb(116,138,213)" stroke="rgb(116,138,213)" stroke-width="1" opacity="0.49411764705882355" d="M 314.5 111 L 315 115.5 L 314 115.5 L 314.5 111 Z " /><path fill="rgb(116,138,213)" stroke="rgb(116,138,213)" stroke-width="1" opacity="0.49411764705882355" d="M 441.5 117 L 446 117.5 L 441.5 118 L 441.5 117 Z " /><path fill="rgb(116,138,213)" stroke="rgb(116,138,213)" stroke-width="1" opacity="0.49411764705882355" d="M 447.5 117 L 450 117.5 L 447.5 118 L 447.5 117 Z " /><path fill="rgb(116,138,213)" stroke="rgb(116,138,213)" stroke-width="1" opacity="0.49411764705882355" d="M 437.5 118 L 437 119.5 L 436.5 121 L 436 119.5 L 437.5 118 Z " /><path fill="rgb(116,138,213)" stroke="rgb(116,138,213)" stroke-width="1" opacity="0.49411764705882355" d="M 393.5 120 L 400 124.5 L 397.5 123 L 393 121 L 392.5 124 L 392 121.5 L 393.5 120 Z " /><path fill="rgb(116,138,213)" stroke="rgb(116,138,213)" stroke-width="1" opacity="0.49411764705882355" d="M 391.5 125 L 392 126.5 L 383.5 139 L 377.5 142 L 377.5 141 L 385 137 L 391.5 125 Z " /><path fill="rgb(116,138,213)" stroke="rgb(116,138,213)" stroke-width="1" opacity="0.49411764705882355" d="M 403.5 127 L 404.5 129 L 403.5 127 Z " /><path fill="rgb(116,138,213)" stroke="rgb(116,138,213)" stroke-width="1" opacity="0.49411764705882355" d="M 287.5 132 Q 291.5 139 302 139.5 L 297.5 140 Q 289.7 138 287.5 132 Z " /><path fill="rgb(116,138,213)" stroke="rgb(116,138,213)" stroke-width="1" opacity="0.49411764705882355" d="M 310.5 140 L 333 140.5 L 310.5 141 L 310.5 140 Z " /><path fill="rgb(116,138,213)" stroke="rgb(116,138,213)" stroke-width="1" opacity="0.49411764705882355" d="M 338.5 141 L 343 141.5 L 338.5 142 L 338.5 141 Z " /><path fill="rgb(116,138,213)" stroke="rgb(116,138,213)" stroke-width="1" opacity="0.49411764705882355" d="M 345.5 142 L 348 142.5 L 345.5 143 L 345.5 142 Z " /><path fill="rgb(116,138,213)" stroke="rgb(116,138,213)" stroke-width="1" opacity="0.49411764705882355" d="M 350.5 143 L 355 143.5 L 350.5 144 L 350.5 143 Z " /><path fill="rgb(116,138,213)" stroke="rgb(116,138,213)" stroke-width="1" opacity="0.49411764705882355" d="M 369.5 143 L 373 143.5 L 369.5 144 L 369.5 143 Z " /><path fill="rgb(116,138,213)" stroke="rgb(116,138,213)" stroke-width="1" opacity="0.49411764705882355" d="M 358.5 144 L 367 144.5 L 358.5 145 L 358.5 144 Z " /><path fill="rgb(116,138,213)" stroke="rgb(116,138,213)" stroke-width="1" opacity="0.49411764705882355" d="M 165.5 157 L 170 160.5 L 175 168.5 L 173 167.5 L 166.5 158 L 165.5 157 Z " /><path fill="rgb(116,138,213)" stroke="rgb(116,138,213)" stroke-width="1" opacity="0.49411764705882355" d="M 163.5 158 L 164 161.5 L 163 161.5 L 163.5 158 Z " /><path fill="rgb(116,138,213)" stroke="rgb(116,138,213)" stroke-width="1" opacity="0.49411764705882355" d="M 164.5 163 L 165 179.5 L 164 179.5 L 164.5 163 Z " /><path fill="rgb(116,138,213)" stroke="rgb(116,138,213)" stroke-width="1" opacity="0.49411764705882355" d="M 176.5 172 L 179 179.5 L 178 179.5 L 176.5 172 Z " /><path fill="rgb(116,138,213)" stroke="rgb(116,138,213)" stroke-width="1" opacity="0.49411764705882355" d="M 163.5 181 L 164 184.5 L 162.5 188 L 162 185.5 L 163.5 181 Z " /><path fill="rgb(116,138,213)" stroke="rgb(116,138,213)" stroke-width="1" opacity="0.49411764705882355" d="M 179.5 181 L 180 184.5 L 179 184.5 L 179.5 181 Z " /><path fill="rgb(116,138,213)" stroke="rgb(116,138,213)" stroke-width="1" opacity="0.49411764705882355" d="M 161.5 189 L 162 190.5 L 160.5 193 L 160 191.5 L 161.5 189 Z " /><path fill="rgb(116,138,213)" stroke="rgb(116,138,213)" stroke-width="1" opacity="0.49411764705882355" d="M 180.5 189 L 181 191.5 L 180 191.5 L 180.5 189 Z " /><path fill="rgb(116,138,213)" stroke="rgb(116,138,213)" stroke-width="1" opacity="0.49411764705882355" d="M 159.5 194 L 160 195.5 L 157.5 199 L 158 197.5 L 159.5 194 Z " /><path fill="rgb(116,138,213)" stroke="rgb(116,138,213)" stroke-width="1" opacity="0.49411764705882355" d="M 179.5 196 L 180 199.5 L 179 199.5 L 179.5 196 Z " /><path fill="rgb(116,138,213)" stroke="rgb(116,138,213)" stroke-width="1" opacity="0.49411764705882355" d="M 156.5 200 L 156 201.5 L 150.5 209 Q 147.3 205.2 140 205.5 L 145.5 205 L 150.5 208 L 156.5 200 Z " /><path fill="rgb(116,138,213)" stroke="rgb(116,138,213)" stroke-width="1" opacity="0.49411764705882355" d="M 178.5 201 L 179 203.5 Q 173.7 219.2 162.5 229 L 154 236.5 L 152.5 241 L 152 238.5 L 155 233 L 164 227 L 172 216.5 L 178.5 201 Z " /><path fill="rgb(116,138,213)" stroke="rgb(116,138,213)" stroke-width="1" opacity="0.49411764705882355" d="M 133.5 209 L 130.5 213 L 133.5 209 Z " /><path fill="rgb(116,138,213)" stroke="rgb(116,138,213)" stroke-width="1" opacity="0.49411764705882355" d="M 129.5 214 L 128.5 216 L 129.5 214 Z " /><path fill="rgb(116,138,213)" stroke="rgb(116,138,213)" stroke-width="1" opacity="0.49411764705882355" d="M 151.5 242 L 152 245.5 L 151 245.5 L 151.5 242 Z " /><path fill="rgb(116,138,213)" stroke="rgb(116,138,213)" stroke-width="1" opacity="0.49411764705882355" d="M 129.5 248 L 132 249.5 L 134.5 253 L 140 255.5 L 137.5 256 L 129.5 249 L 128 249.5 L 129.5 248 Z " /><path fill="rgb(116,138,213)" stroke="rgb(116,138,213)" stroke-width="1" opacity="0.49411764705882355" d="M 151.5 248 L 152 250.5 Q 149.8 255.4 143.5 256 L 143.5 255 Q 149.1 254.6 151 250.5 L 151.5 248 Z " /><path fill="rgb(116,138,213)" stroke="rgb(116,138,213)" stroke-width="1" opacity="0.49411764705882355" d="M 126.5 250 L 125.5 252 L 118 256.5 L 123 264.5 L 123 270.5 L 119.5 275 L 114.5 277 L 114.5 276 L 122 270.5 L 122 264.5 L 117 256.5 L 126.5 250 Z " /><path fill="rgb(116,138,213)" stroke="rgb(116,138,213)" stroke-width="1" opacity="0.49411764705882355" d="M 461.5 264 L 470 264.5 L 461.5 265 L 461.5 264 Z " /><path fill="rgb(116,138,213)" stroke="rgb(116,138,213)" stroke-width="1" opacity="0.49411764705882355" d="M 432.5 265 L 441 265.5 L 432.5 266 L 432.5 265 Z " /><path fill="rgb(116,138,213)" stroke="rgb(116,138,213)" stroke-width="1" opacity="0.49411764705882355" d="M 447.5 265 L 459 265.5 L 447.5 266 L 447.5 265 Z " /><path fill="rgb(116,138,213)" stroke="rgb(116,138,213)" stroke-width="1" opacity="0.49411764705882355" d="M 474.5 266 L 482 271.5 L 485 278.5 L 484 278.5 Q 483.1 271.9 478.5 269 Q 473.8 268.2 474.5 266 Z " /><path fill="rgb(116,138,213)" stroke="rgb(116,138,213)" stroke-width="1" opacity="0.49411764705882355" d="M 99.5 272 L 105 276.5 L 103.5 277 L 99.5 272 Z " /><path fill="rgb(116,138,213)" stroke="rgb(116,138,213)" stroke-width="1" opacity="0.49411764705882355" d="M 106.5 277 L 113 277.5 L 106.5 278 L 106.5 277 Z " /><path fill="rgb(116,138,213)" stroke="rgb(116,138,213)" stroke-width="1" opacity="0.49411764705882355" d="M 485.5 280 L 486 291.5 L 485 291.5 L 485.5 280 Z " /><path fill="rgb(116,138,213)" stroke="rgb(116,138,213)" stroke-width="1" opacity="0.49411764705882355" d="M 442.5 284 L 447 284.5 L 442.5 285 L 442.5 284 Z " /><path fill="rgb(116,138,213)" stroke="rgb(116,138,213)" stroke-width="1" opacity="0.49411764705882355" d="M 449.5 284 L 455 284.5 L 449.5 285 L 449.5 284 Z " /><path fill="rgb(116,138,213)" stroke="rgb(116,138,213)" stroke-width="1" opacity="0.49411764705882355" d="M 459.5 286 L 466 290.5 L 468 295.5 L 467 295.5 L 463.5 289 Q 458.8 288.2 459.5 286 Z " /><path fill="rgb(116,138,213)" stroke="rgb(116,138,213)" stroke-width="1" opacity="0.49411764705882355" d="M 484.5 293 L 485 295.5 L 484 295.5 L 484.5 293 Z " /><path fill="rgb(116,138,213)" stroke="rgb(116,138,213)" stroke-width="1" opacity="0.49411764705882355" d="M 468.5 297 L 469 300.5 L 468 300.5 L 468.5 297 Z " /><path fill="rgb(116,138,213)" stroke="rgb(116,138,213)" stroke-width="1" opacity="0.49411764705882355" d="M 483.5 297 L 484 298.5 L 476.5 309 L 469 312 L 468 309.5 L 470.5 311 L 478 307 L 483.5 297 Z " /><path fill="rgb(116,138,213)" stroke="rgb(116,138,213)" stroke-width="1" opacity="0.49411764705882355" d="M 51.5 299 L 52 301.5 L 51 301.5 L 51.5 299 Z " /><path fill="rgb(116,138,213)" stroke="rgb(116,138,213)" stroke-width="1" opacity="0.49411764705882355" d="M 373.5 306 L 374.5 308 L 373.5 306 Z " /><path fill="rgb(116,138,213)" stroke="rgb(116,138,213)" stroke-width="1" opacity="0.49411764705882355" d="M 50.5 307 L 51 322 L 46 318.5 L 41.5 311 L 40 310.5 L 41.5 310 L 49.5 321 L 50.5 307 Z " /><path fill="rgb(116,138,213)" stroke="rgb(116,138,213)" stroke-width="1" opacity="0.49411764705882355" d="M 34.5 309 L 39 309.5 Q 31.7 309.2 29 313.5 L 27.5 317 L 27 315.5 L 31.5 310 L 34.5 309 Z " /><path fill="rgb(116,138,213)" stroke="rgb(116,138,213)" stroke-width="1" opacity="0.49411764705882355" d="M 279.5 315 L 280 322.5 L 279 322.5 L 279.5 315 Z " /><path fill="rgb(116,138,213)" stroke="rgb(116,138,213)" stroke-width="1" opacity="0.49411764705882355" d="M 26.5 318 L 27 326.5 L 26 326.5 L 26.5 318 Z " /><path fill="rgb(116,138,213)" stroke="rgb(116,138,213)" stroke-width="1" opacity="0.49411764705882355" d="M 278.5 324 L 279 326.5 L 278 326.5 L 278.5 324 Z " /><path fill="rgb(116,138,213)" stroke="rgb(116,138,213)" stroke-width="1" opacity="0.49411764705882355" d="M 27.5 328 L 33 335.5 L 28 331.5 L 27.5 328 Z " /><path fill="rgb(116,138,213)" stroke="rgb(116,138,213)" stroke-width="1" opacity="0.49411764705882355" d="M 277.5 328 L 278 330.5 L 277 330.5 L 277.5 328 Z " /><path fill="rgb(116,138,213)" stroke="rgb(116,138,213)" stroke-width="1" opacity="0.49411764705882355" d="M 276.5 332 L 277 333.5 L 275.5 337 L 275 334.5 L 276.5 332 Z " /><path fill="rgb(116,138,213)" stroke="rgb(116,138,213)" stroke-width="1" opacity="0.49411764705882355" d="M 34.5 336 L 38 337.5 L 35.5 338 L 34.5 336 Z " /><path fill="rgb(116,138,213)" stroke="rgb(116,138,213)" stroke-width="1" opacity="0.49411764705882355" d="M 39.5 338 L 51.5 338 L 56 341.5 L 62 354.5 L 60 353.5 L 53.5 340 L 51.5 339 L 39.5 339 L 39.5 338 Z " /><path fill="rgb(116,138,213)" stroke="rgb(116,138,213)" stroke-width="1" opacity="0.49411764705882355" d="M 171.5 346 L 170.5 348 L 171.5 346 Z " /><path fill="rgb(116,138,213)" stroke="rgb(116,138,213)" stroke-width="1" opacity="0.49411764705882355" d="M 168.5 349 L 165.5 353 L 168.5 349 Z " /><path fill="rgb(116,138,213)" stroke="rgb(116,138,213)" stroke-width="1" opacity="0.49411764705882355" d="M 160.5 354 L 162 354.5 L 159.5 356 L 160.5 354 Z " /><path fill="rgb(116,138,213)" stroke="rgb(116,138,213)" stroke-width="1" opacity="0.49411764705882355" d="M 62.5 356 L 67 363 L 62 361.5 L 65 360.5 L 62.5 356 Z " /><path fill="rgb(116,138,213)" stroke="rgb(116,138,213)" stroke-width="1" opacity="0.49411764705882355" d="M 57.5 360 L 61 360.5 L 57.5 361 L 57.5 360 Z " /><path fill="rgb(116,138,213)" stroke="rgb(116,138,213)" stroke-width="1" opacity="0.49411764705882355" d="M 54.5 361 L 56 361.5 L 51 365.5 L 50 374.5 L 56.5 383 L 64 385.5 L 60.5 386 L 51 378.5 Q 47.8 375.2 49 367.5 L 54.5 361 Z " /><path fill="rgb(116,138,213)" stroke="rgb(116,138,213)" stroke-width="1" opacity="0.49411764705882355" d="M 272.5 364 L 265 372.5 L 255.5 386 L 256 384.5 Q 262.4 372.4 272.5 364 Z " /><path fill="rgb(116,138,213)" stroke="rgb(116,138,213)" stroke-width="1" opacity="0.49411764705882355" d="M 81.5 377 L 88 381.5 L 86.5 381 L 82.5 378 Q 78.2 384.2 69.5 386 L 69.5 385 Q 76.3 383.8 80 379.5 L 81.5 377 Z " /><path fill="rgb(116,138,213)" stroke="rgb(116,138,213)" stroke-width="1" opacity="0.49411764705882355" d="M 89.5 382 L 95 385.5 L 93.5 385 Q 89.5 384.5 89.5 382 Z " /><path fill="rgb(116,138,213)" stroke="rgb(116,138,213)" stroke-width="1" opacity="0.49411764705882355" d="M 195.5 383 L 197 383.5 L 194.5 385 L 195.5 383 Z " /><path fill="rgb(116,138,213)" stroke="rgb(116,138,213)" stroke-width="1" opacity="0.49411764705882355" d="M 192.5 385 L 191.5 387 L 186 390.5 L 185.5 392 L 185 390.5 L 192.5 385 Z " /><path fill="rgb(116,138,213)" stroke="rgb(116,138,213)" stroke-width="1" opacity="0.49411764705882355" d="M 233.5 385 L 234 386.5 L 231.5 391 L 231 389.5 L 233.5 385 Z " /><path fill="rgb(116,138,213)" stroke="rgb(116,138,213)" stroke-width="1" opacity="0.49411764705882355" d="M 98.5 387 L 104 389.5 L 102.5 390 L 98.5 388 L 98.5 387 Z " /><path fill="rgb(116,138,213)" stroke="rgb(116,138,213)" stroke-width="1" opacity="0.49411764705882355" d="M 254.5 387 L 254 388.5 L 240.5 414 L 240 412.5 L 254.5 387 Z " /><path fill="rgb(116,138,213)" stroke="rgb(116,138,213)" stroke-width="1" opacity="0.49411764705882355" d="M 111.5 392 L 115 393.5 Q 115.8 395.8 113.5 395 L 112 395.5 L 113.5 393 Q 110.5 393.5 111.5 392 Z " /><path fill="rgb(116,138,213)" stroke="rgb(116,138,213)" stroke-width="1" opacity="0.49411764705882355" d="M 230.5 392 L 230 393.5 L 225 403.5 L 206 424.5 L 204.5 428 L 204 426.5 Q 220.1 412.1 230.5 392 Z " /><path fill="rgb(116,138,213)" stroke="rgb(116,138,213)" stroke-width="1" opacity="0.49411764705882355" d="M 184.5 393 L 185 402.5 L 184 402.5 L 184.5 393 Z " /><path fill="rgb(116,138,213)" stroke="rgb(116,138,213)" stroke-width="1" opacity="0.49411764705882355" d="M 344.5 394 L 345 395.5 L 343 396.5 L 344.5 394 Z " /><path fill="rgb(116,138,213)" stroke="rgb(116,138,213)" stroke-width="1" opacity="0.49411764705882355" d="M 161.5 395 Q 165.9 393.5 165 396.5 L 163.5 396 Q 160.5 396.5 161.5 395 Z " /><path fill="rgb(116,138,213)" stroke="rgb(116,138,213)" stroke-width="1" opacity="0.49411764705882355" d="M 107.5 396 L 111 396.5 L 107.5 397 L 107.5 396 Z " /><path fill="rgb(116,138,213)" stroke="rgb(116,138,213)" stroke-width="1" opacity="0.49411764705882355" d="M 134.5 396 L 141 396.5 L 134.5 397 L 133 398.5 L 132.5 400 L 132 398.5 L 134.5 396 Z " /><path fill="rgb(116,138,213)" stroke="rgb(116,138,213)" stroke-width="1" opacity="0.49411764705882355" d="M 150.5 396 L 159 396.5 L 150.5 397 L 150.5 396 Z " /><path fill="rgb(116,138,213)" stroke="rgb(116,138,213)" stroke-width="1" opacity="0.49411764705882355" d="M 103.5 397 L 106 397.5 Q 100.9 397.9 99.5 402 L 100 400.5 Q 99.3 398.3 101.5 399 L 103.5 397 Z " /><path fill="rgb(116,138,213)" stroke="rgb(116,138,213)" stroke-width="1" opacity="0.49411764705882355" d="M 163.5 398 L 163 399.5 L 161.5 402 L 153 407.5 L 151.5 412 L 151 409.5 L 155.5 404 Q 161.2 402.8 163.5 398 Z " /><path fill="rgb(116,138,213)" stroke="rgb(116,138,213)" stroke-width="1" opacity="0.49411764705882355" d="M 131.5 401 L 132 403.5 L 131 403.5 L 131.5 401 Z " /><path fill="rgb(116,138,213)" stroke="rgb(116,138,213)" stroke-width="1" opacity="0.49411764705882355" d="M 340.5 401 L 341 402.5 L 339.5 405 L 339 403.5 L 340.5 401 Z " /><path fill="rgb(116,138,213)" stroke="rgb(116,138,213)" stroke-width="1" opacity="0.49411764705882355" d="M 98.5 403 L 99 405.5 L 98 405.5 L 98.5 403 Z " /><path fill="rgb(116,138,213)" stroke="rgb(116,138,213)" stroke-width="1" opacity="0.49411764705882355" d="M 129.5 408 L 130 409.5 L 128 410.5 L 129.5 408 Z " /><path fill="rgb(116,138,213)" stroke="rgb(116,138,213)" stroke-width="1" opacity="0.49411764705882355" d="M 184.5 408 L 185 411.5 L 184 411.5 L 184.5 408 Z " /><path fill="rgb(116,138,213)" stroke="rgb(116,138,213)" stroke-width="1" opacity="0.49411764705882355" d="M 98.5 409 Q 99 414.5 103.5 416 L 110 418.5 L 107.5 419 L 98 411.5 L 98.5 409 Z " /><path fill="rgb(116,138,213)" stroke="rgb(116,138,213)" stroke-width="1" opacity="0.49411764705882355" d="M 127.5 412 L 123.5 417 L 127.5 412 Z " /><path fill="rgb(116,138,213)" stroke="rgb(116,138,213)" stroke-width="1" opacity="0.49411764705882355" d="M 151.5 416 L 155.5 423 L 164 425.5 L 159.5 426 L 152 420.5 L 151.5 416 Z " /><path fill="rgb(116,138,213)" stroke="rgb(116,138,213)" stroke-width="1" opacity="0.49411764705882355" d="M 182.5 416 L 182 417.5 L 177.5 423 L 175.5 424 L 176.5 422 L 181 418.5 L 182.5 416 Z " /><path fill="rgb(116,138,213)" stroke="rgb(116,138,213)" stroke-width="1" opacity="0.49411764705882355" d="M 121.5 417 L 120.5 419 L 118 418.5 L 121.5 417 Z " /><path fill="rgb(116,138,213)" stroke="rgb(116,138,213)" stroke-width="1" opacity="0.49411764705882355" d="M 111.5 419 L 117 419.5 L 111.5 420 L 111.5 419 Z " /><path fill="rgb(116,138,213)" stroke="rgb(116,138,213)" stroke-width="1" opacity="0.49411764705882355" d="M 237.5 421 L 238 424.5 L 237 424.5 L 237.5 421 Z " /><path fill="rgb(116,138,213)" stroke="rgb(116,138,213)" stroke-width="1" opacity="0.49411764705882355" d="M 172.5 424 L 174 424.5 Q 172.3 426.8 167.5 426 L 167.5 425 L 172.5 424 Z " /><path fill="rgb(116,138,213)" stroke="rgb(116,138,213)" stroke-width="1" opacity="0.49411764705882355" d="M 236.5 426 L 237 431.5 L 236 431.5 L 236.5 426 Z " /><path fill="rgb(116,138,213)" stroke="rgb(116,138,213)" stroke-width="1" opacity="0.49411764705882355" d="M 203.5 429 L 205 438.5 Q 215.7 447.3 223 459.5 L 221 458.5 Q 215.8 448.8 207.5 442 Q 205.3 442.8 206 440.5 Q 201.1 437.5 203.5 429 Z " /><path fill="rgb(116,138,213)" stroke="rgb(116,138,213)" stroke-width="1" opacity="0.49411764705882355" d="M 335.5 434 L 337 440.5 L 336 440.5 L 335.5 434 Z " /><path fill="rgb(116,138,213)" stroke="rgb(116,138,213)" stroke-width="1" opacity="0.49411764705882355" d="M 236.5 436 L 237 439.5 L 236 439.5 L 236.5 436 Z " /><path fill="rgb(116,138,213)" stroke="rgb(116,138,213)" stroke-width="1" opacity="0.49411764705882355" d="M 237.5 441 L 238 443.5 L 237 443.5 L 237.5 441 Z " /><path fill="rgb(116,138,213)" stroke="rgb(116,138,213)" stroke-width="1" opacity="0.49411764705882355" d="M 306.5 441 L 314 455.5 L 312 454.5 L 306 442.5 L 306.5 441 Z " /><path fill="rgb(116,138,213)" stroke="rgb(116,138,213)" stroke-width="1" opacity="0.49411764705882355" d="M 337.5 442 Q 342.1 456.9 352.5 466 L 362 470.5 L 359.5 471 Q 351.1 467.4 346 460.5 L 338 446.5 L 337.5 442 Z " /><path fill="rgb(116,138,213)" stroke="rgb(116,138,213)" stroke-width="1" opacity="0.49411764705882355" d="M 239.5 448 Q 242.9 460.1 251.5 467 L 255 469.5 L 252.5 468 L 246 462.5 Q 239.5 456.6 239.5 448 Z " /><path fill="rgb(116,138,213)" stroke="rgb(116,138,213)" stroke-width="1" opacity="0.49411764705882355" d="M 314.5 457 Q 325.8 475.7 341.5 490 L 346 492.5 L 344.5 493 L 329 478.5 L 315 459.5 L 314.5 457 Z " /><path fill="rgb(116,138,213)" stroke="rgb(116,138,213)" stroke-width="1" opacity="0.49411764705882355" d="M 223.5 461 Q 230.3 469.2 233 481.5 L 232 481.5 L 230 474.5 L 223.5 461 Z " /><path fill="rgb(116,138,213)" stroke="rgb(116,138,213)" stroke-width="1" opacity="0.49411764705882355" d="M 256.5 470 L 261 472.5 L 259.5 473 L 256.5 470 Z " /><path fill="rgb(116,138,213)" stroke="rgb(116,138,213)" stroke-width="1" opacity="0.49411764705882355" d="M 363.5 471 L 367 471.5 L 363.5 472 L 363.5 471 Z " /><path fill="rgb(116,138,213)" stroke="rgb(116,138,213)" stroke-width="1" opacity="0.49411764705882355" d="M 370.5 472 L 380 472.5 L 370.5 473 L 370.5 472 Z " /><path fill="rgb(116,138,213)" stroke="rgb(116,138,213)" stroke-width="1" opacity="0.49411764705882355" d="M 381.5 473 Q 389.1 474.4 393 479.5 L 394 481.5 L 387.5 476 L 381.5 474 L 381.5 473 Z " /><path fill="rgb(116,138,213)" stroke="rgb(116,138,213)" stroke-width="1" opacity="0.49411764705882355" d="M 265.5 474 L 271 475.5 L 268.5 476 L 265.5 475 L 265.5 474 Z " /><path fill="rgb(116,138,213)" stroke="rgb(116,138,213)" stroke-width="1" opacity="0.49411764705882355" d="M 272.5 476 Q 279 477.5 282 482.5 Q 285.5 486.7 284 495 L 247 494.5 L 283 494 Q 284.7 482.7 277.5 479 L 272.5 477 L 272.5 476 Z " /><path fill="rgb(116,138,213)" stroke="rgb(116,138,213)" stroke-width="1" opacity="0.49411764705882355" d="M 233.5 483 L 238.5 490 L 246 493.5 L 243.5 494 L 235 487.5 L 233.5 483 Z " /><path fill="rgb(116,138,213)" stroke="rgb(116,138,213)" stroke-width="1" opacity="0.49411764705882355" d="M 394.5 483 L 395 485.5 L 394 485.5 L 394.5 483 Z " /><path fill="rgb(116,138,213)" stroke="rgb(116,138,213)" stroke-width="1" opacity="0.49411764705882355" d="M 394.5 487 L 395 489.5 L 391.5 494 L 389.5 495 L 350.5 495 L 350.5 494 L 389.5 494 L 393 491.5 L 394.5 487 Z " /><path fill="rgb(204,221,253)" stroke="rgb(204,221,253)" stroke-width="1" opacity="0.4666666666666667" d="M 308.5 17 L 319 17.5 L 308.5 18 L 308.5 17 Z " /><path fill="rgb(204,221,253)" stroke="rgb(204,221,253)" stroke-width="1" opacity="0.4666666666666667" d="M 303.5 18 L 307 18.5 L 301.5 20 L 301.5 19 L 303.5 18 Z " /><path fill="rgb(204,221,253)" stroke="rgb(204,221,253)" stroke-width="1" opacity="0.4666666666666667" d="M 320.5 18 L 324 18.5 L 320.5 19 L 320.5 18 Z " /><path fill="rgb(204,221,253)" stroke="rgb(204,221,253)" stroke-width="1" opacity="0.4666666666666667" d="M 325.5 19 L 328 19.5 L 325.5 20 L 325.5 19 Z " /><path fill="rgb(204,221,253)" stroke="rgb(204,221,253)" stroke-width="1" opacity="0.4666666666666667" d="M 298.5 20 L 300 20.5 L 297.5 22 L 298.5 20 Z " /><path fill="rgb(204,221,253)" stroke="rgb(204,221,253)" stroke-width="1" opacity="0.4666666666666667" d="M 332.5 21 Q 345.5 25 355 32.5 L 353.5 32 L 332.5 22 L 332.5 21 Z " /><path fill="rgb(204,221,253)" stroke="rgb(204,221,253)" stroke-width="1" opacity="0.4666666666666667" d="M 295.5 22 L 294.5 24 L 286 31.5 L 279.5 46 L 279 43.5 Q 283.3 30.3 293.5 23 L 295.5 22 Z " /><path fill="rgb(204,221,253)" stroke="rgb(204,221,253)" stroke-width="1" opacity="0.4666666666666667" d="M 358.5 34 L 361 34.5 L 358.5 35 L 358.5 34 Z " /><path fill="rgb(204,221,253)" stroke="rgb(204,221,253)" stroke-width="1" opacity="0.4666666666666667" d="M 374.5 34 L 386 34.5 L 374.5 35 L 374.5 34 Z " /><path fill="rgb(204,221,253)" stroke="rgb(204,221,253)" stroke-width="1" opacity="0.4666666666666667" d="M 362.5 35 L 368 35.5 L 362.5 36 L 362.5 35 Z " /><path fill="rgb(204,221,253)" stroke="rgb(204,221,253)" stroke-width="1" opacity="0.4666666666666667" d="M 388.5 35 L 395 36.5 L 392.5 37 L 388.5 36 L 388.5 35 Z " /><path fill="rgb(204,221,253)" stroke="rgb(204,221,253)" stroke-width="1" opacity="0.4666666666666667" d="M 396.5 37 L 411 45 L 416 52.5 L 418 58.5 L 418 71.5 L 417 71.5 Q 419.1 49.9 406.5 43 L 396.5 38 L 396.5 37 Z " /><path fill="rgb(204,221,253)" stroke="rgb(204,221,253)" stroke-width="1" opacity="0.4666666666666667" d="M 279.5 48 L 282 53.5 L 281 53.5 Q 278 51.7 279.5 48 Z " /><path fill="rgb(204,221,253)" stroke="rgb(204,221,253)" stroke-width="1" opacity="0.4666666666666667" d="M 299.5 59 L 304 60.5 L 302.5 61 L 299.5 60 L 299.5 59 Z " /><path fill="rgb(204,221,253)" stroke="rgb(204,221,253)" stroke-width="1" opacity="0.4666666666666667" d="M 313.5 64 L 320 67.5 L 318.5 68 Q 313.9 66.8 313.5 64 Z " /><path fill="rgb(204,221,253)" stroke="rgb(204,221,253)" stroke-width="1" opacity="0.4666666666666667" d="M 327.5 72 L 334 76.5 L 331.5 75 Q 326.8 74.2 327.5 72 Z " /><path fill="rgb(204,221,253)" stroke="rgb(204,221,253)" stroke-width="1" opacity="0.4666666666666667" d="M 416.5 73 L 417 75.5 L 415.5 78 L 415 76.5 L 416.5 73 Z " /><path fill="rgb(204,221,253)" stroke="rgb(204,221,253)" stroke-width="1" opacity="0.4666666666666667" d="M 414.5 79 L 414 80.5 L 409.5 87 L 412 83.5 L 414.5 79 Z " /><path fill="rgb(204,221,253)" stroke="rgb(204,221,253)" stroke-width="1" opacity="0.4666666666666667" d="M 339.5 80 L 351 89.5 L 349.5 90 L 339.5 80 Z " /><path fill="rgb(204,221,253)" stroke="rgb(204,221,253)" stroke-width="1" opacity="0.4666666666666667" d="M 344.5 98 L 345 99.5 L 341 102.5 L 344.5 98 Z " /><path fill="rgb(204,221,253)" stroke="rgb(204,221,253)" stroke-width="1" opacity="0.4666666666666667" d="M 333.5 108 L 335 108.5 L 324.5 114 L 324.5 113 L 333.5 108 Z " /><path fill="rgb(204,221,253)" stroke="rgb(204,221,253)" stroke-width="1" opacity="0.4666666666666667" d="M 310.5 117 L 314 117.5 L 310.5 118 L 310.5 117 Z " /><path fill="rgb(204,221,253)" stroke="rgb(204,221,253)" stroke-width="1" opacity="0.4666666666666667" d="M 304.5 118 L 309 118.5 L 304.5 119 L 304.5 118 Z " /><path fill="rgb(204,221,253)" stroke="rgb(204,221,253)" stroke-width="1" opacity="0.4666666666666667" d="M 287.5 119 L 290 119.5 L 285 122.5 L 286 127.5 L 284 126.5 Q 283 120 287.5 119 Z " /><path fill="rgb(204,221,253)" stroke="rgb(204,221,253)" stroke-width="1" opacity="0.4666666666666667" d="M 400.5 125 L 401.5 127 L 400.5 125 Z " /><path fill="rgb(204,221,253)" stroke="rgb(204,221,253)" stroke-width="1" opacity="0.4666666666666667" d="M 438.5 125 L 439 127.5 L 438 127.5 L 438.5 125 Z " /><path fill="rgb(204,221,253)" stroke="rgb(204,221,253)" stroke-width="1" opacity="0.4666666666666667" d="M 439.5 129 L 440 133.5 L 439 133.5 L 439.5 129 Z " /><path fill="rgb(204,221,253)" stroke="rgb(204,221,253)" stroke-width="1" opacity="0.4666666666666667" d="M 406.5 131 Q 410.8 133.8 412 139.5 L 411 139.5 L 406.5 131 Z " /><path fill="rgb(204,221,253)" stroke="rgb(204,221,253)" stroke-width="1" opacity="0.4666666666666667" d="M 440.5 136 L 441 144 L 445 144.5 L 440 145 L 440.5 136 Z " /><path fill="rgb(204,221,253)" stroke="rgb(204,221,253)" stroke-width="1" opacity="0.4666666666666667" d="M 412.5 141 L 413 143.5 L 412 143.5 L 412.5 141 Z " /><path fill="rgb(204,221,253)" stroke="rgb(204,221,253)" stroke-width="1" opacity="0.4666666666666667" d="M 447.5 145 L 452 145.5 L 447.5 146 L 447.5 145 Z " /><path fill="rgb(204,221,253)" stroke="rgb(204,221,253)" stroke-width="1" opacity="0.4666666666666667" d="M 453.5 146 Q 459.6 147.4 462 152.5 Q 465 156.5 464 164.5 L 463 164.5 Q 464 152 456.5 148 Q 452.8 147.8 453.5 146 Z " /><path fill="rgb(204,221,253)" stroke="rgb(204,221,253)" stroke-width="1" opacity="0.4666666666666667" d="M 412.5 151 L 413 153.5 L 412 153.5 L 412.5 151 Z " /><path fill="rgb(204,221,253)" stroke="rgb(204,221,253)" stroke-width="1" opacity="0.4666666666666667" d="M 411.5 155 L 412 156.5 Q 407.6 166.6 399.5 173 L 385.5 183 L 380.5 185 L 375 175.5 L 375 171.5 L 376 171.5 L 376 175.5 L 380 184 Q 394.6 178 405 166.5 L 411.5 155 Z " /><path fill="rgb(204,221,253)" stroke="rgb(204,221,253)" stroke-width="1" opacity="0.4666666666666667" d="M 367.5 157 L 370 157.5 L 367.5 158 L 367.5 157 Z " /><path fill="rgb(204,221,253)" stroke="rgb(204,221,253)" stroke-width="1" opacity="0.4666666666666667" d="M 372.5 158 L 377 161.5 L 376.5 163 L 373.5 159 L 372.5 158 Z " /><path fill="rgb(204,221,253)" stroke="rgb(204,221,253)" stroke-width="1" opacity="0.4666666666666667" d="M 359.5 160 L 358.5 162 L 353 166.5 L 351.5 170 L 351 168.5 L 357.5 161 L 359.5 160 Z " /><path fill="rgb(204,221,253)" stroke="rgb(204,221,253)" stroke-width="1" opacity="0.4666666666666667" d="M 462.5 166 L 463 168.5 L 462 168.5 L 462.5 166 Z " /><path fill="rgb(204,221,253)" stroke="rgb(204,221,253)" stroke-width="1" opacity="0.4666666666666667" d="M 434.5 167 Q 440.3 167.7 443 171.5 L 445.5 175 L 450 176.5 L 447.5 177 L 438.5 169 L 434 168 L 422 185.5 L 425 191.5 L 424 191.5 L 421 184.5 L 434.5 167 Z " /><path fill="rgb(204,221,253)" stroke="rgb(204,221,253)" stroke-width="1" opacity="0.4666666666666667" d="M 461.5 170 L 462 171.5 Q 459.9 176.3 453.5 177 L 453.5 176 Q 459.1 175.6 461 171.5 L 461.5 170 Z " /><path fill="rgb(204,221,253)" stroke="rgb(204,221,253)" stroke-width="1" opacity="0.4666666666666667" d="M 351.5 177 L 355 183.5 L 353 182.5 L 351.5 177 Z " /><path fill="rgb(204,221,253)" stroke="rgb(204,221,253)" stroke-width="1" opacity="0.4666666666666667" d="M 324.5 184 L 326 184.5 L 318.5 189 L 320.5 186 L 324.5 184 Z " /><path fill="rgb(204,221,253)" stroke="rgb(204,221,253)" stroke-width="1" opacity="0.4666666666666667" d="M 334.5 184 L 337.5 188 L 334.5 184 Z " /><path fill="rgb(204,221,253)" stroke="rgb(204,221,253)" stroke-width="1" opacity="0.4666666666666667" d="M 356.5 187 L 357 191.5 L 356 191.5 L 356.5 187 Z " /><path fill="rgb(204,221,253)" stroke="rgb(204,221,253)" stroke-width="1" opacity="0.4666666666666667" d="M 316.5 189 L 315 191.5 L 313.5 194 L 314 192.5 L 316.5 189 Z " /><path fill="rgb(204,221,253)" stroke="rgb(204,221,253)" stroke-width="1" opacity="0.4666666666666667" d="M 338.5 189 L 339 193.5 L 338 193.5 L 338.5 189 Z " /><path fill="rgb(204,221,253)" stroke="rgb(204,221,253)" stroke-width="1" opacity="0.4666666666666667" d="M 425.5 193 L 430 203.5 L 429 203.5 L 425.5 193 Z " /><path fill="rgb(204,221,253)" stroke="rgb(204,221,253)" stroke-width="1" opacity="0.4666666666666667" d="M 312.5 195 L 313 197.5 L 312 197.5 L 312.5 195 Z " /><path fill="rgb(204,221,253)" stroke="rgb(204,221,253)" stroke-width="1" opacity="0.4666666666666667" d="M 354.5 195 L 352.5 198 L 349.5 200 L 351.5 197 L 354.5 195 Z " /><path fill="rgb(204,221,253)" stroke="rgb(204,221,253)" stroke-width="1" opacity="0.4666666666666667" d="M 347.5 200 L 346.5 202 L 347.5 200 Z " /><path fill="rgb(204,221,253)" stroke="rgb(204,221,253)" stroke-width="1" opacity="0.4666666666666667" d="M 312.5 201 L 313 203.5 L 312 203.5 L 312.5 201 Z " /><path fill="rgb(204,221,253)" stroke="rgb(204,221,253)" stroke-width="1" opacity="0.4666666666666667" d="M 284.5 202 L 289 202.5 L 284.5 203 L 284.5 202 Z " /><path fill="rgb(204,221,253)" stroke="rgb(204,221,253)" stroke-width="1" opacity="0.4666666666666667" d="M 344.5 202 L 343.5 204 L 344.5 202 Z " /><path fill="rgb(204,221,253)" stroke="rgb(204,221,253)" stroke-width="1" opacity="0.4666666666666667" d="M 291.5 203 L 294 204.5 L 292.5 205 L 291.5 203 Z " /><path fill="rgb(204,221,253)" stroke="rgb(204,221,253)" stroke-width="1" opacity="0.4666666666666667" d="M 338.5 204 L 340.5 205 L 342 204.5 L 339.5 206 L 338.5 204 Z " /><path fill="rgb(204,221,253)" stroke="rgb(204,221,253)" stroke-width="1" opacity="0.4666666666666667" d="M 276.5 205 L 275.5 207 L 270.5 211 L 274.5 206 L 276.5 205 Z " /><path fill="rgb(204,221,253)" stroke="rgb(204,221,253)" stroke-width="1" opacity="0.4666666666666667" d="M 430.5 205 Q 433.8 208.2 433 215.5 L 429.5 220 L 427 219.5 L 431 217.5 L 432 210.5 L 430.5 205 Z " /><path fill="rgb(204,221,253)" stroke="rgb(204,221,253)" stroke-width="1" opacity="0.4666666666666667" d="M 314.5 207 L 322 215.5 L 315 209.5 L 314.5 207 Z " /><path fill="rgb(204,221,253)" stroke="rgb(204,221,253)" stroke-width="1" opacity="0.4666666666666667" d="M 295.5 208 L 296 212.5 L 295 212.5 L 295.5 208 Z " /><path fill="rgb(204,221,253)" stroke="rgb(204,221,253)" stroke-width="1" opacity="0.4666666666666667" d="M 412.5 211 Q 417.1 216.9 425 219.5 L 422.5 220 Q 415.5 216.5 412.5 211 Z " /><path fill="rgb(204,221,253)" stroke="rgb(204,221,253)" stroke-width="1" opacity="0.4666666666666667" d="M 268.5 215 L 269 220.5 L 268 220.5 L 268.5 215 Z " /><path fill="rgb(204,221,253)" stroke="rgb(204,221,253)" stroke-width="1" opacity="0.4666666666666667" d="M 318.5 216 L 320 216.5 L 316.5 218 L 316.5 217 L 318.5 216 Z " /><path fill="rgb(204,221,253)" stroke="rgb(204,221,253)" stroke-width="1" opacity="0.4666666666666667" d="M 369.5 218 L 370 220.5 L 368 219.5 L 369.5 218 Z " /><path fill="rgb(204,221,253)" stroke="rgb(204,221,253)" stroke-width="1" opacity="0.4666666666666667" d="M 366.5 220 L 365.5 222 L 366.5 220 Z " /><path fill="rgb(204,221,253)" stroke="rgb(204,221,253)" stroke-width="1" opacity="0.4666666666666667" d="M 125.5 222 L 125 223.5 L 119.5 230 L 106.5 237 L 107.5 235 L 119.5 229 L 124 224.5 L 125.5 222 Z " /><path fill="rgb(204,221,253)" stroke="rgb(204,221,253)" stroke-width="1" opacity="0.4666666666666667" d="M 370.5 223 Q 371.7 229.8 376.5 233 L 379 234.5 L 377.5 234 L 372 229.5 Q 369 227 370.5 223 Z " /><path fill="rgb(204,221,253)" stroke="rgb(204,221,253)" stroke-width="1" opacity="0.4666666666666667" d="M 412.5 226 L 413 236.5 L 412 236.5 L 412.5 226 Z " /><path fill="rgb(204,221,253)" stroke="rgb(204,221,253)" stroke-width="1" opacity="0.4666666666666667" d="M 92.5 229 L 95 229.5 Q 87.5 231 84 236.5 L 82.5 247 L 82 239.5 Q 83.4 233.4 88.5 231 L 92.5 229 Z " /><path fill="rgb(204,221,253)" stroke="rgb(204,221,253)" stroke-width="1" opacity="0.4666666666666667" d="M 98.5 229 Q 103.5 228.5 104 232.5 L 105 236.5 L 104 236.5 Q 103.8 231.8 100.5 230 Q 97.5 230.5 98.5 229 Z " /><path fill="rgb(204,221,253)" stroke="rgb(204,221,253)" stroke-width="1" opacity="0.4666666666666667" d="M 272.5 229 L 278 236 L 275.5 237 L 277 234.5 L 272.5 229 Z " /><path fill="rgb(204,221,253)" stroke="rgb(204,221,253)" stroke-width="1" opacity="0.4666666666666667" d="M 241.5 230 L 243 230.5 L 240.5 232 L 241.5 230 Z " /><path fill="rgb(204,221,253)" stroke="rgb(204,221,253)" stroke-width="1" opacity="0.4666666666666667" d="M 253.5 230 L 254.5 232 L 253.5 230 Z " /><path fill="rgb(204,221,253)" stroke="rgb(204,221,253)" stroke-width="1" opacity="0.4666666666666667" d="M 238.5 232 L 233 238.5 L 231.5 242 L 231 240.5 L 238.5 232 Z " /><path fill="rgb(204,221,253)" stroke="rgb(204,221,253)" stroke-width="1" opacity="0.4666666666666667" d="M 337.5 235 L 339 235.5 L 335.5 237 L 335.5 236 L 337.5 235 Z " /><path fill="rgb(204,221,253)" stroke="rgb(204,221,253)" stroke-width="1" opacity="0.4666666666666667" d="M 380.5 235 L 383.5 236 L 391 243.5 L 392 246.5 L 391 246.5 Q 389.4 239.6 383.5 237 Q 379.7 236.8 380.5 235 Z " /><path fill="rgb(204,221,253)" stroke="rgb(204,221,253)" stroke-width="1" opacity="0.4666666666666667" d="M 341.5 236 L 342.5 238 L 341.5 236 Z " /><path fill="rgb(204,221,253)" stroke="rgb(204,221,253)" stroke-width="1" opacity="0.4666666666666667" d="M 273.5 237 L 272.5 239 L 273.5 237 Z " /><path fill="rgb(204,221,253)" stroke="rgb(204,221,253)" stroke-width="1" opacity="0.4666666666666667" d="M 413.5 238 L 415 243.5 L 414 243.5 L 413.5 238 Z " /><path fill="rgb(204,221,253)" stroke="rgb(204,221,253)" stroke-width="1" opacity="0.4666666666666667" d="M 270.5 239 L 269.5 241 L 270.5 239 Z " /><path fill="rgb(204,221,253)" stroke="rgb(204,221,253)" stroke-width="1" opacity="0.4666666666666667" d="M 325.5 240 L 330 249.5 L 328 248.5 L 325 242.5 L 325.5 240 Z " /><path fill="rgb(204,221,253)" stroke="rgb(204,221,253)" stroke-width="1" opacity="0.4666666666666667" d="M 267.5 241 L 265.5 244 L 267.5 241 Z " /><path fill="rgb(204,221,253)" stroke="rgb(204,221,253)" stroke-width="1" opacity="0.4666666666666667" d="M 344.5 241 L 345.5 243 L 344.5 241 Z " /><path fill="rgb(204,221,253)" stroke="rgb(204,221,253)" stroke-width="1" opacity="0.4666666666666667" d="M 255.5 244 L 257 246.5 L 255 245.5 L 255.5 244 Z " /><path fill="rgb(204,221,253)" stroke="rgb(204,221,253)" stroke-width="1" opacity="0.4666666666666667" d="M 263.5 244 L 260.5 248 L 263.5 244 Z " /><path fill="rgb(204,221,253)" stroke="rgb(204,221,253)" stroke-width="1" opacity="0.4666666666666667" d="M 415.5 245 L 423.5 262 L 428 264.5 L 426.5 265 L 421 260.5 Q 416.2 253.7 415.5 245 Z " /><path fill="rgb(204,221,253)" stroke="rgb(204,221,253)" stroke-width="1" opacity="0.4666666666666667" d="M 392.5 248 L 394 251.5 L 393 251.5 L 392.5 248 Z " /><path fill="rgb(204,221,253)" stroke="rgb(204,221,253)" stroke-width="1" opacity="0.4666666666666667" d="M 82.5 249 L 83 251.5 L 82 251.5 L 82.5 249 Z " /><path fill="rgb(204,221,253)" stroke="rgb(204,221,253)" stroke-width="1" opacity="0.4666666666666667" d="M 231.5 249 Q 234.3 256.3 240 260.5 L 234 255.5 L 231 250.5 L 231.5 249 Z " /><path fill="rgb(204,221,253)" stroke="rgb(204,221,253)" stroke-width="1" opacity="0.4666666666666667" d="M 350.5 250 L 351.5 252 L 350.5 250 Z " /><path fill="rgb(204,221,253)" stroke="rgb(204,221,253)" stroke-width="1" opacity="0.4666666666666667" d="M 371.5 251 L 373 254.5 L 372 254.5 L 371.5 251 Z " /><path fill="rgb(204,221,253)" stroke="rgb(204,221,253)" stroke-width="1" opacity="0.4666666666666667" d="M 81.5 253 L 81 254.5 L 76.5 260 L 65 270.5 L 64.5 272 L 64 269 L 66 268.5 Q 65.1 261.9 60.5 259 L 54.5 258 L 46 264.5 L 43.5 275 L 43 269.5 Q 44.8 262.3 50.5 259 Q 52.8 256.3 58.5 257 L 64 260.5 L 66.5 268 L 80 255.5 L 81.5 253 Z " /><path fill="rgb(204,221,253)" stroke="rgb(204,221,253)" stroke-width="1" opacity="0.4666666666666667" d="M 295.5 253 L 294.5 255 L 295.5 253 Z " /><path fill="rgb(204,221,253)" stroke="rgb(204,221,253)" stroke-width="1" opacity="0.4666666666666667" d="M 301.5 253 L 302.5 255 L 301.5 253 Z " /><path fill="rgb(204,221,253)" stroke="rgb(204,221,253)" stroke-width="1" opacity="0.4666666666666667" d="M 331.5 253 L 334 256.5 L 332 255.5 L 331.5 253 Z " /><path fill="rgb(204,221,253)" stroke="rgb(204,221,253)" stroke-width="1" opacity="0.4666666666666667" d="M 352.5 253 L 354.5 256 L 352.5 253 Z " /><path fill="rgb(204,221,253)" stroke="rgb(204,221,253)" stroke-width="1" opacity="0.4666666666666667" d="M 292.5 255 L 291.5 257 L 285.5 261 L 287.5 258 L 292.5 255 Z " /><path fill="rgb(204,221,253)" stroke="rgb(204,221,253)" stroke-width="1" opacity="0.4666666666666667" d="M 395.5 255 L 398 259.5 L 396 258.5 L 395.5 255 Z " /><path fill="rgb(204,221,253)" stroke="rgb(204,221,253)" stroke-width="1" opacity="0.4666666666666667" d="M 304.5 258 L 305.5 260 L 304.5 258 Z " /><path fill="rgb(204,221,253)" stroke="rgb(204,221,253)" stroke-width="1" opacity="0.4666666666666667" d="M 334.5 258 L 339 264.5 L 337 263.5 L 334.5 258 Z " /><path fill="rgb(204,221,253)" stroke="rgb(204,221,253)" stroke-width="1" opacity="0.4666666666666667" d="M 356.5 258 L 361.5 264 L 356.5 258 Z " /><path fill="rgb(204,221,253)" stroke="rgb(204,221,253)" stroke-width="1" opacity="0.4666666666666667" d="M 306.5 261 L 307.5 263 L 306.5 261 Z " /><path fill="rgb(204,221,253)" stroke="rgb(204,221,253)" stroke-width="1" opacity="0.4666666666666667" d="M 398.5 261 L 421.5 291 L 424 292.5 L 422.5 292 L 418 288.5 L 414 281.5 L 403 269.5 L 398.5 261 Z " /><path fill="rgb(204,221,253)" stroke="rgb(204,221,253)" stroke-width="1" opacity="0.4666666666666667" d="M 376.5 262 L 379 266.5 L 377 265.5 L 376.5 262 Z " /><path fill="rgb(204,221,253)" stroke="rgb(204,221,253)" stroke-width="1" opacity="0.4666666666666667" d="M 232.5 264 L 241 264.5 L 232.5 265 L 232.5 264 Z " /><path fill="rgb(204,221,253)" stroke="rgb(204,221,253)" stroke-width="1" opacity="0.4666666666666667" d="M 308.5 264 L 309.5 266 L 308.5 264 Z " /><path fill="rgb(204,221,253)" stroke="rgb(204,221,253)" stroke-width="1" opacity="0.4666666666666667" d="M 227.5 265 L 230 265.5 L 227.5 266 L 227.5 265 Z " /><path fill="rgb(204,221,253)" stroke="rgb(204,221,253)" stroke-width="1" opacity="0.4666666666666667" d="M 429.5 265 L 432 265.5 L 429.5 266 L 429.5 265 Z " /><path fill="rgb(204,221,253)" stroke="rgb(204,221,253)" stroke-width="1" opacity="0.4666666666666667" d="M 224.5 266 L 226 266.5 Q 208.2 272.7 198 286.5 Q 189.4 296.9 185.5 312 L 185 309.5 Q 192.4 286.9 209.5 274 L 224.5 266 Z " /><path fill="rgb(204,221,253)" stroke="rgb(204,221,253)" stroke-width="1" opacity="0.4666666666666667" d="M 285.5 266 L 286.5 268 L 285.5 266 Z " /><path fill="rgb(204,221,253)" stroke="rgb(204,221,253)" stroke-width="1" opacity="0.4666666666666667" d="M 339.5 266 L 341.5 269 L 339.5 266 Z " /><path fill="rgb(204,221,253)" stroke="rgb(204,221,253)" stroke-width="1" opacity="0.4666666666666667" d="M 311.5 268 L 312.5 270 L 311.5 268 Z " /><path fill="rgb(204,221,253)" stroke="rgb(204,221,253)" stroke-width="1" opacity="0.4666666666666667" d="M 287.5 269 L 293 276.5 L 290 274.5 L 287.5 269 Z " /><path fill="rgb(204,221,253)" stroke="rgb(204,221,253)" stroke-width="1" opacity="0.4666666666666667" d="M 367.5 269 L 371.5 274 L 367.5 269 Z " /><path fill="rgb(204,221,253)" stroke="rgb(204,221,253)" stroke-width="1" opacity="0.4666666666666667" d="M 342.5 270 L 343.5 272 L 342.5 270 Z " /><path fill="rgb(204,221,253)" stroke="rgb(204,221,253)" stroke-width="1" opacity="0.4666666666666667" d="M 98.5 271 L 94 276.5 L 85 290.5 L 87 291.5 L 85.5 292 Q 82.8 290.8 85 289.5 Q 89.5 278 98.5 271 Z " /><path fill="rgb(204,221,253)" stroke="rgb(204,221,253)" stroke-width="1" opacity="0.4666666666666667" d="M 314.5 272 L 318.5 277 L 314.5 272 Z " /><path fill="rgb(204,221,253)" stroke="rgb(204,221,253)" stroke-width="1" opacity="0.4666666666666667" d="M 344.5 273 L 346.5 276 L 344.5 273 Z " /><path fill="rgb(204,221,253)" stroke="rgb(204,221,253)" stroke-width="1" opacity="0.4666666666666667" d="M 374.5 275 L 375.5 277 L 374.5 275 Z " /><path fill="rgb(204,221,253)" stroke="rgb(204,221,253)" stroke-width="1" opacity="0.4666666666666667" d="M 44.5 276 L 52 289.5 L 51 289.5 L 44 278.5 L 44.5 276 Z " /><path fill="rgb(204,221,253)" stroke="rgb(204,221,253)" stroke-width="1" opacity="0.4666666666666667" d="M 347.5 277 L 350.5 281 L 347.5 277 Z " /><path fill="rgb(204,221,253)" stroke="rgb(204,221,253)" stroke-width="1" opacity="0.4666666666666667" d="M 377.5 277 L 378.5 279 L 377.5 277 Z " /><path fill="rgb(204,221,253)" stroke="rgb(204,221,253)" stroke-width="1" opacity="0.4666666666666667" d="M 293.5 278 L 295.5 281 L 293.5 278 Z " /><path fill="rgb(204,221,253)" stroke="rgb(204,221,253)" stroke-width="1" opacity="0.4666666666666667" d="M 384.5 278 L 385 279.5 L 383 280.5 L 384.5 278 Z " /><path fill="rgb(204,221,253)" stroke="rgb(204,221,253)" stroke-width="1" opacity="0.4666666666666667" d="M 380.5 279 L 381.5 281 L 380.5 279 Z " /><path fill="rgb(204,221,253)" stroke="rgb(204,221,253)" stroke-width="1" opacity="0.4666666666666667" d="M 321.5 280 L 326.5 286 L 321.5 280 Z " /><path fill="rgb(204,221,253)" stroke="rgb(204,221,253)" stroke-width="1" opacity="0.4666666666666667" d="M 296.5 282 L 299.5 286 L 296.5 282 Z " /><path fill="rgb(204,221,253)" stroke="rgb(204,221,253)" stroke-width="1" opacity="0.4666666666666667" d="M 351.5 282 L 354.5 286 L 351.5 282 Z " /><path fill="rgb(204,221,253)" stroke="rgb(204,221,253)" stroke-width="1" opacity="0.4666666666666667" d="M 441.5 285 L 442 287.5 L 438.5 292 L 436.5 293 L 437.5 291 Q 439.8 291.8 439 289.5 L 441.5 285 Z " /><path fill="rgb(204,221,253)" stroke="rgb(204,221,253)" stroke-width="1" opacity="0.4666666666666667" d="M 300.5 287 L 306.5 294 L 300.5 287 Z " /><path fill="rgb(204,221,253)" stroke="rgb(204,221,253)" stroke-width="1" opacity="0.4666666666666667" d="M 355.5 287 L 361.5 294 L 355.5 287 Z " /><path fill="rgb(204,221,253)" stroke="rgb(204,221,253)" stroke-width="1" opacity="0.4666666666666667" d="M 330.5 288 L 333.5 292 L 330.5 288 Z " /><path fill="rgb(204,221,253)" stroke="rgb(204,221,253)" stroke-width="1" opacity="0.4666666666666667" d="M 52.5 291 L 53 296.5 L 52 296.5 L 52.5 291 Z " /><path fill="rgb(204,221,253)" stroke="rgb(204,221,253)" stroke-width="1" opacity="0.4666666666666667" d="M 91.5 291 L 97 293.5 L 98 296.5 L 97 296.5 L 96 293 L 91.5 292 L 91.5 291 Z " /><path fill="rgb(204,221,253)" stroke="rgb(204,221,253)" stroke-width="1" opacity="0.4666666666666667" d="M 336.5 293 L 338.5 296 L 336.5 293 Z " /><path fill="rgb(204,221,253)" stroke="rgb(204,221,253)" stroke-width="1" opacity="0.4666666666666667" d="M 425.5 293 L 428 293.5 L 425.5 294 L 425.5 293 Z " /><path fill="rgb(204,221,253)" stroke="rgb(204,221,253)" stroke-width="1" opacity="0.4666666666666667" d="M 431.5 293 L 435 293.5 L 431.5 294 L 431.5 293 Z " /><path fill="rgb(204,221,253)" stroke="rgb(204,221,253)" stroke-width="1" opacity="0.4666666666666667" d="M 307.5 295 L 313.5 302 L 307.5 295 Z " /><path fill="rgb(204,221,253)" stroke="rgb(204,221,253)" stroke-width="1" opacity="0.4666666666666667" d="M 340.5 296 L 341.5 298 L 340.5 296 Z " /><path fill="rgb(204,221,253)" stroke="rgb(204,221,253)" stroke-width="1" opacity="0.4666666666666667" d="M 343.5 298 L 344.5 300 L 343.5 298 Z " /><path fill="rgb(204,221,253)" stroke="rgb(204,221,253)" stroke-width="1" opacity="0.4666666666666667" d="M 366.5 299 L 372.5 306 L 366.5 299 Z " /><path fill="rgb(204,221,253)" stroke="rgb(204,221,253)" stroke-width="1" opacity="0.4666666666666667" d="M 346.5 300 L 347.5 302 L 346.5 300 Z " /><path fill="rgb(204,221,253)" stroke="rgb(204,221,253)" stroke-width="1" opacity="0.4666666666666667" d="M 279.5 301 L 283.5 306 L 280 303.5 L 279.5 310 L 279.5 301 Z " /><path fill="rgb(204,221,253)" stroke="rgb(204,221,253)" stroke-width="1" opacity="0.4666666666666667" d="M 349.5 302 L 353 304.5 L 351.5 304 L 349.5 302 Z " /><path fill="rgb(204,221,253)" stroke="rgb(204,221,253)" stroke-width="1" opacity="0.4666666666666667" d="M 97.5 303 L 98 305.5 L 97 305.5 L 97.5 303 Z " /><path fill="rgb(204,221,253)" stroke="rgb(204,221,253)" stroke-width="1" opacity="0.4666666666666667" d="M 316.5 303 L 322.5 310 L 316.5 303 Z " /><path fill="rgb(204,221,253)" stroke="rgb(204,221,253)" stroke-width="1" opacity="0.4666666666666667" d="M 81.5 306 L 88 310.5 L 86.5 311 L 81.5 306 Z " /><path fill="rgb(204,221,253)" stroke="rgb(204,221,253)" stroke-width="1" opacity="0.4666666666666667" d="M 96.5 307 L 93.5 311 L 89.5 312 L 89.5 311 Q 94.7 310.7 96.5 307 Z " /><path fill="rgb(204,221,253)" stroke="rgb(204,221,253)" stroke-width="1" opacity="0.4666666666666667" d="M 286.5 307 L 289.5 311 L 286.5 307 Z " /><path fill="rgb(204,221,253)" stroke="rgb(204,221,253)" stroke-width="1" opacity="0.4666666666666667" d="M 324.5 310 L 327.5 314 L 324.5 310 Z " /><path fill="rgb(204,221,253)" stroke="rgb(204,221,253)" stroke-width="1" opacity="0.4666666666666667" d="M 378.5 310 L 379.5 312 L 378.5 310 Z " /><path fill="rgb(204,221,253)" stroke="rgb(204,221,253)" stroke-width="1" opacity="0.4666666666666667" d="M 291.5 311 L 293.5 314 L 291.5 311 Z " /><path fill="rgb(204,221,253)" stroke="rgb(204,221,253)" stroke-width="1" opacity="0.4666666666666667" d="M 81.5 314 L 82 318.5 L 81 318.5 L 81.5 314 Z " /><path fill="rgb(204,221,253)" stroke="rgb(204,221,253)" stroke-width="1" opacity="0.4666666666666667" d="M 295.5 314 L 296.5 316 L 295.5 314 Z " /><path fill="rgb(204,221,253)" stroke="rgb(204,221,253)" stroke-width="1" opacity="0.4666666666666667" d="M 329.5 314 L 331.5 317 L 329.5 314 Z " /><path fill="rgb(204,221,253)" stroke="rgb(204,221,253)" stroke-width="1" opacity="0.4666666666666667" d="M 183.5 316 L 184 318.5 L 183 318.5 L 183.5 316 Z " /><path fill="rgb(204,221,253)" stroke="rgb(204,221,253)" stroke-width="1" opacity="0.4666666666666667" d="M 298.5 316 L 299.5 318 L 298.5 316 Z " /><path fill="rgb(204,221,253)" stroke="rgb(204,221,253)" stroke-width="1" opacity="0.4666666666666667" d="M 333.5 317 L 335.5 320 L 333.5 317 Z " /><path fill="rgb(204,221,253)" stroke="rgb(204,221,253)" stroke-width="1" opacity="0.4666666666666667" d="M 82.5 320 L 88 332.5 L 86 331.5 L 82 322.5 L 82.5 320 Z " /><path fill="rgb(204,221,253)" stroke="rgb(204,221,253)" stroke-width="1" opacity="0.4666666666666667" d="M 304.5 320 L 305.5 322 L 304.5 320 Z " /><path fill="rgb(204,221,253)" stroke="rgb(204,221,253)" stroke-width="1" opacity="0.4666666666666667" d="M 337.5 320 L 338.5 322 L 337.5 320 Z " /><path fill="rgb(204,221,253)" stroke="rgb(204,221,253)" stroke-width="1" opacity="0.4666666666666667" d="M 100.5 322 L 102 322.5 L 96 326.5 L 88.5 335 L 94 328.5 L 98.5 323 L 100.5 322 Z " /><path fill="rgb(204,221,253)" stroke="rgb(204,221,253)" stroke-width="1" opacity="0.4666666666666667" d="M 106.5 322 Q 113.4 323.6 116 329.5 L 117 332.5 L 116 332.5 Q 114.6 326.4 109.5 324 Q 105.7 323.7 106.5 322 Z " /><path fill="rgb(204,221,253)" stroke="rgb(204,221,253)" stroke-width="1" opacity="0.4666666666666667" d="M 340.5 322 L 341.5 324 L 340.5 322 Z " /><path fill="rgb(204,221,253)" stroke="rgb(204,221,253)" stroke-width="1" opacity="0.4666666666666667" d="M 181.5 323 L 182 325.5 L 180.5 328 L 180 326.5 L 181.5 323 Z " /><path fill="rgb(204,221,253)" stroke="rgb(204,221,253)" stroke-width="1" opacity="0.4666666666666667" d="M 343.5 324 L 344.5 326 L 343.5 324 Z " /><path fill="rgb(204,221,253)" stroke="rgb(204,221,253)" stroke-width="1" opacity="0.4666666666666667" d="M 348.5 327 L 349.5 329 L 348.5 327 Z " /><path fill="rgb(204,221,253)" stroke="rgb(204,221,253)" stroke-width="1" opacity="0.4666666666666667" d="M 179.5 329 L 180 330.5 L 173.5 344 L 173 342.5 L 179.5 329 Z " /><path fill="rgb(204,221,253)" stroke="rgb(204,221,253)" stroke-width="1" opacity="0.4666666666666667" d="M 140.5 333 L 147 333.5 Q 139.5 333.3 136 336 L 134.5 339 L 134 337.5 L 140.5 333 Z " /><path fill="rgb(204,221,253)" stroke="rgb(204,221,253)" stroke-width="1" opacity="0.4666666666666667" d="M 117.5 334 L 118 337.5 L 117 337.5 L 117.5 334 Z " /><path fill="rgb(204,221,253)" stroke="rgb(204,221,253)" stroke-width="1" opacity="0.4666666666666667" d="M 148.5 334 L 151 334.5 L 148.5 335 L 148.5 334 Z " /><path fill="rgb(204,221,253)" stroke="rgb(204,221,253)" stroke-width="1" opacity="0.4666666666666667" d="M 152.5 335 L 157 337 L 158 339.5 L 153.5 336 L 152.5 335 Z " /><path fill="rgb(204,221,253)" stroke="rgb(204,221,253)" stroke-width="1" opacity="0.4666666666666667" d="M 275.5 337 Q 283.8 346.2 297 350.5 L 295.5 351 L 283.5 345 L 275.5 337 Z " /><path fill="rgb(204,221,253)" stroke="rgb(204,221,253)" stroke-width="1" opacity="0.4666666666666667" d="M 349.5 337 L 352 337.5 L 349.5 338 L 349.5 337 Z " /><path fill="rgb(204,221,253)" stroke="rgb(204,221,253)" stroke-width="1" opacity="0.4666666666666667" d="M 359.5 338 L 362 338.5 L 359.5 339 L 359.5 338 Z " /><path fill="rgb(204,221,253)" stroke="rgb(204,221,253)" stroke-width="1" opacity="0.4666666666666667" d="M 116.5 339 L 117 340.5 Q 116.5 344.5 111.5 344 L 111.5 343 Q 115.5 343.5 116 340.5 L 116.5 339 Z " /><path fill="rgb(204,221,253)" stroke="rgb(204,221,253)" stroke-width="1" opacity="0.4666666666666667" d="M 133.5 340 L 134 343.5 L 133 343.5 L 133.5 340 Z " /><path fill="rgb(204,221,253)" stroke="rgb(204,221,253)" stroke-width="1" opacity="0.4666666666666667" d="M 105.5 344 L 109 344.5 L 102 347.5 L 111 352.5 L 109.5 353 L 101 347.5 L 105.5 344 Z " /><path fill="rgb(204,221,253)" stroke="rgb(204,221,253)" stroke-width="1" opacity="0.4666666666666667" d="M 158.5 345 L 159 347.5 Q 152.9 350.6 152 357 L 156.5 356 L 156.5 357 L 151 358 L 152 353.5 L 158 347.5 L 158.5 345 Z " /><path fill="rgb(204,221,253)" stroke="rgb(204,221,253)" stroke-width="1" opacity="0.4666666666666667" d="M 132.5 350 L 133 354.5 L 132 354.5 L 132.5 350 Z " /><path fill="rgb(204,221,253)" stroke="rgb(204,221,253)" stroke-width="1" opacity="0.4666666666666667" d="M 301.5 352 L 306 353.5 L 303.5 354 L 301.5 352 Z " /><path fill="rgb(204,221,253)" stroke="rgb(204,221,253)" stroke-width="1" opacity="0.4666666666666667" d="M 112.5 353 L 116 354.5 L 114.5 355 L 112.5 353 Z " /><path fill="rgb(204,221,253)" stroke="rgb(204,221,253)" stroke-width="1" opacity="0.4666666666666667" d="M 307.5 354 L 310 354.5 L 307.5 355 L 307.5 354 Z " /><path fill="rgb(204,221,253)" stroke="rgb(204,221,253)" stroke-width="1" opacity="0.4666666666666667" d="M 311.5 355 L 314 355.5 L 311.5 356 L 311.5 355 Z " /><path fill="rgb(204,221,253)" stroke="rgb(204,221,253)" stroke-width="1" opacity="0.4666666666666667" d="M 120.5 356 L 127 357.5 L 123.5 358 L 120.5 357 L 120.5 356 Z " /><path fill="rgb(204,221,253)" stroke="rgb(204,221,253)" stroke-width="1" opacity="0.4666666666666667" d="M 131.5 356 L 132 359 L 128 358.5 L 131 358 L 131.5 356 Z " /><path fill="rgb(204,221,253)" stroke="rgb(204,221,253)" stroke-width="1" opacity="0.4666666666666667" d="M 315.5 356 L 320 356.5 L 315.5 357 L 315.5 356 Z " /><path fill="rgb(204,221,253)" stroke="rgb(204,221,253)" stroke-width="1" opacity="0.4666666666666667" d="M 321.5 357 L 331 357.5 L 321.5 358 L 321.5 357 Z " /><path fill="rgb(204,221,253)" stroke="rgb(204,221,253)" stroke-width="1" opacity="0.4666666666666667" d="M 334.5 358 Q 344.7 358.8 349 365.5 L 351 369.5 L 350 369.5 L 344.5 362 L 334.5 359 L 334.5 358 Z " /><path fill="rgb(204,221,253)" stroke="rgb(204,221,253)" stroke-width="1" opacity="0.4666666666666667" d="M 273.5 363 L 281 363.5 L 273.5 364 L 273.5 363 Z " /><path fill="rgb(204,221,253)" stroke="rgb(204,221,253)" stroke-width="1" opacity="0.4666666666666667" d="M 283.5 364 L 287 364.5 L 283.5 365 L 283.5 364 Z " /><path fill="rgb(204,221,253)" stroke="rgb(204,221,253)" stroke-width="1" opacity="0.4666666666666667" d="M 288.5 365 L 296 367.5 L 294.5 368 L 288.5 366 L 288.5 365 Z " /><path fill="rgb(204,221,253)" stroke="rgb(204,221,253)" stroke-width="1" opacity="0.4666666666666667" d="M 297.5 368 L 302 370.5 L 300.5 370 Q 296.8 369.8 297.5 368 Z " /><path fill="rgb(204,221,253)" stroke="rgb(204,221,253)" stroke-width="1" opacity="0.4666666666666667" d="M 303.5 371 L 314 379.5 L 316 384.5 L 315 384.5 Q 313.5 378 308.5 375 Q 303.9 373.8 303.5 371 Z " /><path fill="rgb(204,221,253)" stroke="rgb(204,221,253)" stroke-width="1" opacity="0.4666666666666667" d="M 351.5 371 L 352 373.5 L 351 373.5 L 351.5 371 Z " /><path fill="rgb(204,221,253)" stroke="rgb(204,221,253)" stroke-width="1" opacity="0.4666666666666667" d="M 236.5 375 L 235.5 379 Q 234 376.5 232.5 380 L 221.5 385 L 221.5 384 Q 231.3 381.8 236.5 375 Z " /><path fill="rgb(204,221,253)" stroke="rgb(204,221,253)" stroke-width="1" opacity="0.4666666666666667" d="M 352.5 375 L 353 380.5 L 352 380.5 L 352.5 375 Z " /><path fill="rgb(204,221,253)" stroke="rgb(204,221,253)" stroke-width="1" opacity="0.4666666666666667" d="M 351.5 382 L 352 384.5 L 345.5 394 L 348 390.5 L 351.5 382 Z " /><path fill="rgb(204,221,253)" stroke="rgb(204,221,253)" stroke-width="1" opacity="0.4666666666666667" d="M 197.5 383 L 203 384.5 L 200.5 385 L 197.5 384 L 197.5 383 Z " /><path fill="rgb(204,221,253)" stroke="rgb(204,221,253)" stroke-width="1" opacity="0.4666666666666667" d="M 204.5 385 L 209 385.5 L 204.5 386 L 204.5 385 Z " /><path fill="rgb(204,221,253)" stroke="rgb(204,221,253)" stroke-width="1" opacity="0.4666666666666667" d="M 216.5 385 L 220 385.5 L 216.5 386 L 216.5 385 Z " /><path fill="rgb(204,221,253)" stroke="rgb(204,221,253)" stroke-width="1" opacity="0.4666666666666667" d="M 316.5 386 L 322.5 395 Q 325.1 394.2 324 397.5 L 323 397.5 Q 317.2 393.1 316.5 386 Z " /><path fill="rgb(204,221,253)" stroke="rgb(204,221,253)" stroke-width="1" opacity="0.4666666666666667" d="M 320.5 408 L 320 409.5 L 311.5 420 L 307 423.5 L 304.5 430 L 304 427.5 L 310.5 419 L 317 413.5 L 320.5 408 Z " /><path fill="rgb(204,221,253)" stroke="rgb(204,221,253)" stroke-width="1" opacity="0.4666666666666667" d="M 336.5 410 L 337 412.5 L 335.5 417 L 335 413.5 L 336.5 410 Z " /><path fill="rgb(204,221,253)" stroke="rgb(204,221,253)" stroke-width="1" opacity="0.4666666666666667" d="M 210.5 418 L 209.5 420 L 210.5 418 Z " /><path fill="rgb(204,221,253)" stroke="rgb(204,221,253)" stroke-width="1" opacity="0.4666666666666667" d="M 334.5 418 L 335 424.5 L 334 424.5 L 334.5 418 Z " /><path fill="rgb(204,221,253)" stroke="rgb(204,221,253)" stroke-width="1" opacity="0.4666666666666667" d="M 304.5 435 L 306 439.5 L 305 439.5 L 304.5 435 Z " /><path fill="rgb(209,222,254)" stroke="rgb(209,222,254)" stroke-width="1" opacity="0.996078431372549" d="M 307.5 18 L 319.5 18 L 328.5 20 L 358.5 35 L 367.5 36 L 368.5 35 L 387.5 35 Q 404.2 38.3 413 49.5 Q 419.2 56.8 417 72.5 Q 412.1 87.6 400.5 96 L 392.5 103 L 388.5 105 L 380.5 106 L 375.5 105 L 363.5 99 L 331.5 74 L 321.5 68 L 301.5 59 L 282 54 L 279 46.5 Q 282.9 31.9 293.5 24 L 307.5 18 Z M 309 35 L 307 36 Q 303 37 304 43 Q 306 47 314 46 L 317 42 L 316 39 L 309 35 Z M 342 47 Q 336 49 337 58 L 346 64 L 352 63 L 355 59 L 354 53 L 347 47 L 342 47 Z M 383 55 L 376 59 L 369 70 Q 368 76 371 79 Q 374 83 380 84 Q 386 85 389 82 Q 395 78 398 70 L 397 61 Q 394 53 383 55 Z " /><path fill="rgb(209,222,254)" stroke="rgb(209,222,254)" stroke-width="1" opacity="0.996078431372549" d="M 345.5 98 Q 355.9 110.6 372 117.5 L 373 124.5 L 368.5 130 Q 362.4 134.4 350.5 133 L 344 130.5 L 345 125.5 L 352 118.5 L 352 116 Q 341.1 115.9 337 123.5 L 334 130 L 316.5 130 L 315.5 131 L 298.5 132 L 289.5 130 L 285 126.5 Q 284 121 287.5 120 L 290.5 119 L 308.5 119 L 320.5 116 Q 335.7 110.7 345 99.5 L 345.5 98 Z " /><path fill="rgb(209,222,254)" stroke="rgb(209,222,254)" stroke-width="1" opacity="0.996078431372549" d="M 435.5 126 Q 438.8 124.9 438 127.5 Q 441.2 134.5 440 145 L 452.5 146 L 461 152.5 Q 464.1 156.9 463 165.5 Q 462.1 172.1 457.5 175 L 450.5 177 L 443 172.5 L 441.5 170 L 434.5 167 L 421 185.5 L 430 204.5 L 432 210.5 L 432 215.5 L 429.5 219 L 425.5 220 Q 417.4 217.1 412.5 211 L 412 236.5 L 417 252.5 L 423.5 263 Q 426.3 266.7 433.5 266 L 441 271.5 L 443 281.5 L 439 291 L 435.5 293 L 428.5 294 Q 421.9 293.1 419 288.5 L 416 282.5 Q 405.2 273.3 398 260.5 L 391 243.5 L 383.5 236 Q 376.1 234.9 373 229.5 Q 368.8 224.7 370 214.5 Q 373.2 205.2 380.5 200 L 383.5 198 L 392.5 196 L 396 197 Q 397.1 194.3 394.5 195 Q 390.8 191.7 382.5 193 Q 369.9 195.4 364 204.5 L 361 212.5 L 361 222.5 Q 367 247 378 266.5 L 374.5 264 L 363 254.5 L 349.5 232 L 344.5 232 Q 335.9 237.9 325 240 Q 338.8 272.4 363 295.5 L 361.5 295 Q 339.3 287.3 326 270.5 L 310.5 247 Q 304.8 246.3 302.5 249 L 283 261 L 290 274.5 L 313.5 302 L 341 323.5 L 337.5 324 L 316.5 316 L 295 300 L 284 286.5 L 276 273 L 272.5 271 L 267.5 271 L 264 273.5 Q 270.9 279.1 275 287.5 L 279 300.5 L 279 311.5 L 270.5 323 L 266 325 Q 270.5 334.9 279.5 342 L 303.5 354 L 321.5 358 L 337.5 359 Q 344.4 360.6 348 365.5 Q 352.9 370.6 352 381.5 Q 350.1 390.6 343.5 395 L 335.5 398 L 328.5 398 L 319 391.5 L 314 379.5 L 308.5 374 L 290.5 365 L 280.5 363 L 270.5 363 L 258.5 366 L 247.5 366 Q 236.6 363.4 231 355.5 L 227 345.5 L 227 335.5 Q 228.1 328.1 233 324.5 L 231.5 324 L 224 330.5 Q 218.5 337 218 348.5 L 221 362 Q 207.9 361.3 202 352.5 Q 197.6 346.4 199 334.5 Q 201.2 333.3 200 328.5 Q 198 325 196 329.5 Q 191.4 338.9 192 353.5 L 196 366.5 L 204.5 375 L 215.5 379 L 225.5 379 L 230.5 378 L 235.5 375 L 232.5 379 Q 224.8 386.2 209.5 386 L 194.5 382 L 181 371.5 L 172 357.5 L 172 346.5 L 179 333.5 L 187 306.5 L 192 295.5 Q 198.8 283.3 209.5 275 L 226.5 266 L 241 265 L 240 260.5 Q 234.1 255.9 231 248.5 L 231 242.5 L 239.5 232 L 249.5 229 L 255 232.5 L 256 238.5 Q 253.5 240 255 245.5 L 257 249 L 278 236 L 269 222.5 L 269 213.5 L 274.5 207 Q 279.2 201.7 290.5 203 L 294 205 Q 295.8 207.4 295 213.5 Q 291.8 215.8 293 222.5 L 295.5 226 L 322 215.5 Q 313.3 210.7 312 198.5 Q 312.9 191.9 317.5 189 L 326.5 184 L 333.5 184 Q 339.5 185.5 338 194.5 L 336 199.5 L 339.5 206 L 355 195.5 Q 357.7 193.2 357 187.5 L 351 176.5 L 351 170.5 L 357.5 162 Q 361.5 157 371.5 158 L 376 161.5 L 377 167.5 Q 374.3 169.8 375 175.5 L 380.5 185 Q 395.7 178.2 406 166.5 Q 412.9 159.4 414 146.5 L 412 138.5 L 407 131.5 L 424.5 127 L 434.5 127 L 435.5 126 Z M 208 306 L 203 313 L 203 318 L 207 319 L 212 310 L 211 308 Q 212 305 208 306 Z " /><path fill="rgb(209,222,254)" stroke="rgb(209,222,254)" stroke-width="1" opacity="0.996078431372549" d="M 124.5 225 L 124 226.5 L 110 254.5 Q 101.4 269.9 89 281.5 L 84 290.5 L 86.5 292 L 90.5 291 L 96 293 Q 98.7 295.6 98 302.5 L 97 306.5 L 93.5 310 L 88.5 311 L 81 306 L 80 310.5 L 83 325.5 L 88.5 335 L 98.5 324 L 105.5 322 L 115 329.5 Q 117.8 332.2 117 338.5 L 113.5 343 L 105.5 344 L 101 347.5 Q 113.2 357 132 359 Q 133.8 353.8 133 344.5 L 136 336 Q 139.3 333 147.5 334 Q 154.9 335.1 158 340.5 L 159 344.5 Q 157.5 351 152 353.5 L 151 358 L 159 356 L 160 361.5 L 160 370.5 Q 158.6 376.6 153.5 379 L 148.5 381 L 129.5 381 L 113.5 378 L 102.5 374 Q 87.3 367.2 77 355.5 Q 57 334 52 297.5 Q 54.3 296.3 53 291.5 L 45 278.5 L 44 269.5 Q 45.5 263 50.5 260 Q 52.8 257.3 58.5 258 L 64 262.5 L 65 268.5 L 64 271.5 L 65 271.5 L 75.5 260 L 81 255.5 Q 85 250.5 83 239.5 L 88.5 232 L 97.5 229 L 103 232.5 L 104 237 L 106.5 237 L 119.5 230 L 124.5 225 Z " /><path fill="rgb(209,222,254)" stroke="rgb(209,222,254)" stroke-width="1" opacity="0.996078431372549" d="M 364.5 297 L 365.5 299 L 364.5 297 Z " /><path fill="rgb(209,222,254)" stroke="rgb(209,222,254)" stroke-width="1" opacity="0.996078431372549" d="M 321.5 408 L 325.5 410 Q 331 408.5 332.5 411 L 336 410 L 334 418.5 L 334 439.5 L 327.5 447 L 316.5 448 Q 309.3 446.2 306 440.5 L 304 430.5 Q 305.6 423.5 310.5 420 L 318 413.5 L 321.5 408 Z " /><path fill="rgb(111,133,211)" stroke="rgb(111,133,211)" stroke-width="1" opacity="0.996078431372549" d="M 308.5 35 L 316 38.5 L 317 41.5 L 313.5 46 Q 305.9 47.1 304 42.5 Q 303.4 37.4 306.5 36 L 308.5 35 Z " /><path fill="rgb(111,133,211)" stroke="rgb(111,133,211)" stroke-width="1" opacity="0.996078431372549" d="M 341.5 47 L 346.5 47 L 354 52.5 L 355 58.5 L 351.5 63 L 345.5 64 L 337 57.5 Q 335.5 48.5 341.5 47 Z " /><path fill="rgb(111,133,211)" stroke="rgb(111,133,211)" stroke-width="1" opacity="0.996078431372549" d="M 283.5 54 L 295 58.5 L 291 72 L 288 70.5 L 283 57.5 L 283.5 54 Z " /><path fill="rgb(111,133,211)" stroke="rgb(111,133,211)" stroke-width="1" opacity="0.996078431372549" d="M 382.5 55 Q 394.3 53.2 397 60.5 L 398 69.5 Q 395.1 77.6 388.5 82 Q 385.8 84.8 379.5 84 Q 373.8 82.8 371 78.5 Q 368.4 75.6 369 69.5 L 375.5 59 L 382.5 55 Z " /><path fill="rgb(111,133,211)" stroke="rgb(111,133,211)" stroke-width="1" opacity="0.996078431372549" d="M 305.5 61 L 313 64.5 L 304.5 75 L 303 74.5 L 303 66.5 L 305.5 61 Z " /><path fill="rgb(111,133,211)" stroke="rgb(111,133,211)" stroke-width="1" opacity="0.996078431372549" d="M 321.5 68 L 327 71.5 L 325 72 L 320.5 78 Q 317.1 78.9 319 73.5 L 321.5 68 Z " /><path fill="rgb(111,133,211)" stroke="rgb(111,133,211)" stroke-width="1" opacity="0.996078431372549" d="M 334 77 L 338 79.5 L 334.5 85 Q 331.8 85.6 333 79.5 L 334 77 Z " /><path fill="rgb(111,133,211)" stroke="rgb(111,133,211)" stroke-width="1" opacity="0.996078431372549" d="M 408.5 88 Q 417.8 91.7 423.5 99 L 432.5 92 L 444.5 91 L 453 97.5 L 456 102.5 L 457 107.5 L 456 111.5 L 452.5 116 L 446.5 118 L 441.5 117 L 436 119.5 L 438 126 Q 433.5 128 424.5 127 L 410.5 131 L 406.5 131 L 403.5 127 L 393.5 120 L 385 137 L 373.5 143 L 355.5 144 L 332.5 140 L 302.5 140 L 292.5 137 L 287 131.5 L 286 128.5 L 287.5 129 L 298.5 132 L 305.5 132 L 316.5 130 L 334 130 Q 336.2 122.4 342.5 118 Q 345.8 115 352 116 L 352 118.5 L 345 125.5 L 344 130.5 Q 349.6 134.4 360.5 133 Q 368.3 131.8 372 126.5 L 373 119.5 L 370.5 116 Q 355.2 110.3 346 98.5 L 350 90 L 375.5 105 L 383.5 106 L 392.5 103 L 408.5 88 Z " /><path fill="rgb(111,133,211)" stroke="rgb(111,133,211)" stroke-width="1" opacity="0.996078431372549" d="M 332.5 96 L 341 103.5 L 335.5 108 Q 331.6 103.5 332.5 96 Z " /><path fill="rgb(111,133,211)" stroke="rgb(111,133,211)" stroke-width="1" opacity="0.996078431372549" d="M 293 100 L 296 101.5 Q 297.6 111.9 303 118.5 L 291 119 L 293 100 Z " /><path fill="rgb(111,133,211)" stroke="rgb(111,133,211)" stroke-width="1" opacity="0.996078431372549" d="M 315 101 Q 317.7 99.9 317 102.5 L 324 113.5 L 320.5 116 L 315 117 L 314 104.5 L 315 101 Z " /><path fill="rgb(111,133,211)" stroke="rgb(111,133,211)" stroke-width="1" opacity="0.996078431372549" d="M 164 158 Q 167.8 157.3 169 160.5 Q 176 168.5 179 180.5 L 180 195.5 Q 177.7 207.7 172 216.5 L 164 227 L 155 233 Q 151.2 237 151 245.5 L 152 247.5 L 147.5 254 L 140.5 256 L 132 250.5 L 130.5 248 L 117 256.5 L 122 264.5 L 122 270.5 L 113.5 277 L 105.5 277 L 99 271.5 L 117 242.5 L 128 216.5 L 135.5 208 Q 138.5 205 145.5 206 L 150.5 209 Q 160 199.5 164 184.5 L 165 179.5 L 165 163.5 L 164 158 Z " /><path fill="rgb(111,133,211)" stroke="rgb(111,133,211)" stroke-width="1" opacity="0.996078431372549" d="M 382.5 193 Q 391.8 192 396 195 Q 397.3 198 393.5 197 L 391.5 197 L 383.5 198 L 374 206.5 L 368.5 219 L 361 223 Q 359.4 204.6 370.5 198 L 382.5 193 Z " /><path fill="rgb(111,133,211)" stroke="rgb(111,133,211)" stroke-width="1" opacity="0.996078431372549" d="M 344.5 232 Q 350.8 230.8 352 234.5 Q 357.1 251.4 369.5 261 L 379 267 L 384 279.5 Q 382.3 282.8 380.5 279 L 363 265.5 Q 349.9 252.1 341 234.5 L 344.5 232 Z " /><path fill="rgb(111,133,211)" stroke="rgb(111,133,211)" stroke-width="1" opacity="0.996078431372549" d="M 306.5 247 Q 312 246 313 249.5 Q 321.4 268.6 336.5 281 Q 347.9 291.3 364 296 L 364 297.5 L 374.5 308 L 380 312.5 L 378.5 315 Q 342.1 303.9 320 278.5 Q 308.3 266.7 301 250.5 L 306.5 247 Z " /><path fill="rgb(111,133,211)" stroke="rgb(111,133,211)" stroke-width="1" opacity="0.996078431372549" d="M 459.5 265 Q 475.6 262.9 481 271.5 Q 487.2 277.8 485 292.5 L 478 307 L 470.5 311 L 469 309.5 L 469 297.5 L 463.5 288 Q 456.3 282 442 284 L 443 277.5 Q 442.1 270.9 437.5 268 L 434 266.5 L 458.5 266 L 459.5 265 Z " /><path fill="rgb(111,133,211)" stroke="rgb(111,133,211)" stroke-width="1" opacity="0.996078431372549" d="M 267.5 271 L 272.5 271 L 276 273 L 284 286.5 L 295 300 L 316.5 316 L 333.5 323 L 341.5 324 L 362 336.5 L 361.5 338 L 353.5 338 Q 305.1 329.4 278 299.5 L 275 287.5 Q 270.9 279.1 264 273.5 L 267.5 271 Z " /><path fill="rgb(111,133,211)" stroke="rgb(111,133,211)" stroke-width="1" opacity="0.996078431372549" d="M 52.5 300 Q 58.2 338.8 81.5 360 Q 94.2 372.3 113.5 378 L 129.5 381 L 148.5 381 Q 155.7 379.2 159 373.5 L 160 361.5 L 159 356.5 Q 166.9 353.4 171.5 347 L 172 357.5 Q 176.9 368.6 185.5 376 L 196 382.5 L 185 390.5 L 184 402.5 L 185 407.5 L 183 415.5 L 177.5 422 Q 172.8 425.8 164.5 426 L 159.5 425 L 153 420.5 L 151 412.5 L 155.5 405 L 163 400.5 L 165 395 L 160.5 396 L 141.5 397 Q 140 394.5 134.5 396 L 132 398.5 L 128 411.5 L 122.5 417 Q 118.5 420 110.5 419 Q 102.8 417.1 99 411.5 L 98 406.5 L 99 402.5 L 103.5 398 L 110.5 397 L 115 395 L 113.5 392 L 110.5 392 L 97.5 387 L 81.5 377 L 78.5 381 Q 73.8 385.8 64.5 386 Q 56 384.5 52 378.5 Q 48.8 375.2 50 367.5 L 54.5 362 L 61.5 361 L 67 363 L 53.5 339 L 51.5 338 L 38.5 338 Q 32 336.5 29 331.5 Q 25.3 327.2 27 317.5 L 31.5 311 L 39.5 310 L 44 313.5 Q 45.3 319.3 49.5 322 L 51 321.5 L 51 302.5 L 52.5 300 Z " /><path fill="rgb(111,133,211)" stroke="rgb(111,133,211)" stroke-width="1" opacity="0.996078431372549" d="M 207.5 306 Q 211.9 304.5 211 307.5 L 212 309.5 L 206.5 319 L 203 317.5 L 203 312.5 L 207.5 306 Z " /><path fill="rgb(111,133,211)" stroke="rgb(111,133,211)" stroke-width="1" opacity="0.996078431372549" d="M 279.5 310 L 280 314.5 L 279 315.5 L 279 323.5 L 274.5 337 L 266 325 L 274 319.5 L 279.5 310 Z " /><path fill="rgb(111,133,211)" stroke="rgb(111,133,211)" stroke-width="1" opacity="0.996078431372549" d="M 233.5 323 L 230 327.5 Q 225.6 333.6 227 345.5 Q 229.1 355.9 236.5 361 L 247.5 366 L 258.5 366 L 263.5 364 L 272.5 363 L 264 372.5 Q 250 390.5 240 412.5 L 236 426.5 L 236 439.5 L 243 458.5 L 251.5 468 Q 258.9 474.6 271.5 476 L 281 482.5 Q 284.3 486.4 283 494 L 246.5 494 L 236 487.5 Q 231.9 482.6 231 474.5 L 222 457.5 L 205 438.5 Q 202.7 435.3 204 428.5 L 206 424.5 L 225 403.5 L 234 386.5 L 237 375 L 225.5 379 L 215.5 379 Q 202 376.5 196 366.5 L 193 359.5 L 192 344.5 L 195 331.5 L 198.5 327 Q 201.3 328.3 200 333.5 L 199 334.5 L 199 344.5 Q 200.8 353.8 207.5 358 L 213.5 361 L 221 362 L 219 355.5 L 218 346.5 L 222 333.5 L 228.5 326 L 233.5 323 Z " /><path fill="rgb(111,133,211)" stroke="rgb(111,133,211)" stroke-width="1" opacity="0.996078431372549" d="M 342.5 395 L 344 395.5 Q 338.7 401.6 337 410 L 332.5 411 Q 331 408.5 325.5 410 L 321 407.5 L 324.5 396 Q 327.8 399.2 335.5 398 L 342.5 395 Z " /><path fill="rgb(111,133,211)" stroke="rgb(111,133,211)" stroke-width="1" opacity="0.996078431372549" d="M 334.5 433 Q 338.4 455.1 352.5 467 L 363.5 472 L 383.5 474 L 394 482.5 L 395 486.5 L 391.5 493 L 389.5 494 L 349.5 494 Q 337.5 489.5 331 479.5 Q 316.2 463.8 307 442.5 L 311.5 446 Q 315.9 449.1 324.5 448 Q 330.6 446.6 333 441.5 L 334.5 433 Z " /></svg>