<?xml version="1.0" encoding="UTF-8"?>
<!DOCTYPE svg PUBLIC "-//W3C//DTD SVG 1.1//EN" "http://www.w3.org/Graphics/SVG/1.1/DTD/svg11.dtd">
<svg xmlns="http://www.w3.org/2000/svg" version="1.1" width="512px" height="512px" style="shape-rendering:geometricPrecision; text-rendering:geometricPrecision; image-rendering:optimizeQuality; fill-rule:evenodd; clip-rule:evenodd" xmlns:xlink="http://www.w3.org/1999/xlink">
<g><path style="opacity:1" fill="#f9d376" d="M 433.5,280.5 C 431.953,322.635 423.453,363.302 408,402.5C 402.271,414.963 395.271,426.63 387,437.5C 381.256,442.08 376.089,447.08 371.5,452.5C 335.681,478.881 295.348,490.881 250.5,488.5C 227.236,488.374 204.236,485.874 181.5,481C 172.756,479.03 164.423,476.197 156.5,472.5C 157.117,472.389 157.617,472.056 158,471.5C 163.106,449.023 160.772,427.356 151,406.5C 139.518,382.01 124.018,360.51 104.5,342C 94.5197,333.944 83.1864,331.111 70.5,333.5C 68.9734,277.98 78.64,224.646 99.5,173.5C 102.99,176.415 106.99,178.582 111.5,180C 117.833,180.667 124.167,180.667 130.5,180C 140.783,176.63 146.116,169.464 146.5,158.5C 143.395,143.728 134.395,135.062 119.5,132.5C 137.1,101.046 159.433,73.2124 186.5,49C 229.079,16.181 275.413,9.51436 325.5,29C 334.696,33.5403 343.362,38.8736 351.5,45C 391.654,87.8065 417.154,138.307 428,196.5C 433.237,224.297 435.071,252.297 433.5,280.5 Z"/></g>
<g><path style="opacity:1" fill="#e79d4c" d="M 260.5,64.5 C 263.187,64.3359 265.854,64.5026 268.5,65C 272.136,67.4191 272.47,70.2525 269.5,73.5C 259.827,76.4974 256.827,73.4974 260.5,64.5 Z"/></g>
<g><path style="opacity:1" fill="#e79c4b" d="M 326.5,74.5 C 343.672,73.5226 354.005,81.356 357.5,98C 356.313,109.521 349.98,116.188 338.5,118C 320.209,119.376 311.375,110.876 312,92.5C 313.779,83.8945 318.612,77.8945 326.5,74.5 Z"/></g>
<g><path style="opacity:1" fill="#faf9f9" d="M 205.5,80.5 C 225.565,78.4289 239.065,86.7622 246,105.5C 246.804,111.569 246.471,117.569 245,123.5C 232.318,142.519 218.484,160.686 203.5,178C 185.887,188.275 171.721,184.775 161,167.5C 159.231,163.693 158.398,159.693 158.5,155.5C 161.942,127.78 173.942,104.613 194.5,86C 198.259,84.1207 201.925,82.2874 205.5,80.5 Z"/></g>
<g><path style="opacity:1" fill="#e79d4b" d="M 119.5,132.5 C 134.395,135.062 143.395,143.728 146.5,158.5C 146.116,169.464 140.783,176.63 130.5,180C 124.167,180.667 117.833,180.667 111.5,180C 106.99,178.582 102.99,176.415 99.5,173.5C 104.852,159.131 111.519,145.464 119.5,132.5 Z"/></g>
<g><path style="opacity:1" fill="#96646a" d="M 329.5,222.5 C 312.458,222.09 295.458,222.59 278.5,224C 283.98,235.071 286.647,246.571 286.5,258.5C 283.082,257.361 279.749,256.028 276.5,254.5C 276.295,239.383 271.628,225.883 262.5,214C 263.056,213.617 263.389,213.117 263.5,212.5C 284.414,182.031 312.748,161.865 348.5,152C 353.799,150.855 359.132,150.522 364.5,151C 373.482,155.473 376.649,162.64 374,172.5C 368.543,197.46 353.709,214.127 329.5,222.5 Z"/></g>
<g><path style="opacity:1" fill="#cd968e" d="M 263.5,212.5 C 263.389,213.117 263.056,213.617 262.5,214C 271.628,225.883 276.295,239.383 276.5,254.5C 275.427,255.251 275.26,256.251 276,257.5C 280.717,263.377 285.217,269.377 289.5,275.5C 284.629,275.192 279.963,276.025 275.5,278C 271.114,280.193 266.78,282.36 262.5,284.5C 262.5,282.833 262.5,281.167 262.5,279.5C 262.5,273.833 262.5,268.167 262.5,262.5C 261.167,262.5 259.833,262.5 258.5,262.5C 256.95,261.559 255.284,260.893 253.5,260.5C 249.791,255.593 246.624,250.26 244,244.5C 241.971,236.722 240.137,229.055 238.5,221.5C 239.043,221.44 239.376,221.107 239.5,220.5C 222.888,214.269 218.054,202.936 225,186.5C 233.694,176.726 243.86,174.892 255.5,181C 265.096,189.404 267.096,199.404 261.5,211C 261.836,212.03 262.503,212.53 263.5,212.5 Z"/></g>
<g><path style="opacity:1" fill="#96646a" d="M 238.5,221.5 C 240.137,229.055 241.971,236.722 244,244.5C 246.624,250.26 249.791,255.593 253.5,260.5C 252.442,264.279 251.109,267.946 249.5,271.5C 247.871,270.375 246.371,269.041 245,267.5C 240.28,260.055 236.113,252.388 232.5,244.5C 224.101,251.248 215.768,257.915 207.5,264.5C 177.575,271.656 147.242,275.489 116.5,276C 105.054,268.882 103.554,260.049 112,249.5C 134.948,226.563 162.782,215.23 195.5,215.5C 210.072,215.949 224.405,217.949 238.5,221.5 Z"/></g>
<g><path style="opacity:1" fill="#ce968e" d="M 329.5,222.5 C 340.754,223.426 352.088,224.926 363.5,227C 370.404,229.451 377.07,232.451 383.5,236C 391.465,242.923 393.632,251.423 390,261.5C 387.532,266.989 383.365,270.489 377.5,272C 345.601,277.46 315.267,272.96 286.5,258.5C 286.647,246.571 283.98,235.071 278.5,224C 295.458,222.59 312.458,222.09 329.5,222.5 Z"/></g>
<g><path style="opacity:1" fill="#ce968e" d="M 249.5,271.5 C 232.587,308.266 208.587,339.766 177.5,366C 164.833,372.915 155.667,369.749 150,356.5C 149.333,353.167 149.333,349.833 150,346.5C 162.748,314.511 182.248,287.344 208.5,265C 208.272,264.601 207.938,264.435 207.5,264.5C 215.768,257.915 224.101,251.248 232.5,244.5C 236.113,252.388 240.28,260.055 245,267.5C 246.371,269.041 247.871,270.375 249.5,271.5 Z"/></g>
<g><path style="opacity:1" fill="#dfaf83" d="M 258.5,262.5 C 259.833,262.5 261.167,262.5 262.5,262.5C 262.5,268.167 262.5,273.833 262.5,279.5C 261.512,274.36 261.179,269.026 261.5,263.5C 260.209,263.737 259.209,263.404 258.5,262.5 Z"/></g>
<g><path style="opacity:1" fill="#97656a" d="M 289.5,275.5 C 291.167,278.167 292.833,280.833 294.5,283.5C 283.158,285.335 272.825,289.668 263.5,296.5C 262.979,292.519 262.646,288.519 262.5,284.5C 266.78,282.36 271.114,280.193 275.5,278C 279.963,276.025 284.629,275.192 289.5,275.5 Z"/></g>
<g><path style="opacity:1" fill="#e79c4b" d="M 433.5,280.5 C 445.599,278.356 456.265,281.19 465.5,289C 479.97,304.438 489.303,322.604 493.5,343.5C 487.008,335.363 479.675,334.529 471.5,341C 461.382,350.931 459.882,362.098 467,374.5C 474.708,381.044 483.208,382.211 492.5,378C 494.829,375.174 496.496,372.008 497.5,368.5C 502.012,395.434 497.845,421.101 485,445.5C 471.481,466.263 452.147,476.263 427,475.5C 405.014,475.902 386.514,468.236 371.5,452.5C 376.089,447.08 381.256,442.08 387,437.5C 395.271,426.63 402.271,414.963 408,402.5C 423.453,363.302 431.953,322.635 433.5,280.5 Z"/></g>
<g><path style="opacity:1" fill="#cc958d" d="M 294.5,283.5 C 298.072,289.641 301.405,295.974 304.5,302.5C 290.962,302.348 278.629,306.015 267.5,313.5C 266.167,307.833 264.833,302.167 263.5,296.5C 272.825,289.668 283.158,285.335 294.5,283.5 Z"/></g>
<g><path style="opacity:1" fill="#97656a" d="M 304.5,302.5 C 306.391,305.614 307.724,308.948 308.5,312.5C 294.33,311.891 281.664,315.891 270.5,324.5C 268.742,321.146 267.742,317.479 267.5,313.5C 278.629,306.015 290.962,302.348 304.5,302.5 Z"/></g>
<g><path style="opacity:1" fill="#f9d073" d="M 451.5,304.5 C 457.82,304.32 460.32,307.32 459,313.5C 455.714,317.485 452.381,317.485 449,313.5C 448.131,310.007 448.964,307.007 451.5,304.5 Z"/></g>
<g><path style="opacity:1" fill="#cd958e" d="M 308.5,312.5 C 311.412,318.564 313.745,324.897 315.5,331.5C 301.209,331.497 288.876,336.164 278.5,345.5C 275.07,338.888 272.403,331.888 270.5,324.5C 281.664,315.891 294.33,311.891 308.5,312.5 Z"/></g>
<g><path style="opacity:1" fill="#97656a" d="M 315.5,331.5 C 316.634,334.37 317.3,337.37 317.5,340.5C 311.278,341.916 304.945,343.416 298.5,345C 292.986,347.589 287.653,350.422 282.5,353.5C 280.659,351.151 279.326,348.485 278.5,345.5C 288.876,336.164 301.209,331.497 315.5,331.5 Z"/></g>
<g><path style="opacity:1" fill="#e79c4b" d="M 156.5,472.5 C 147.747,469.423 139.414,465.423 131.5,460.5C 135.51,443.205 133.677,426.538 126,410.5C 116.932,390.179 104.765,372.013 89.5,356C 83.7966,352.044 77.4633,350.211 70.5,350.5C 70.5,344.833 70.5,339.167 70.5,333.5C 83.1864,331.111 94.5197,333.944 104.5,342C 124.018,360.51 139.518,382.01 151,406.5C 160.772,427.356 163.106,449.023 158,471.5C 157.617,472.056 157.117,472.389 156.5,472.5 Z"/></g>
<g><path style="opacity:1" fill="#c87d4a" d="M 493.5,343.5 C 495.801,351.643 497.135,359.977 497.5,368.5C 496.496,372.008 494.829,375.174 492.5,378C 483.208,382.211 474.708,381.044 467,374.5C 459.882,362.098 461.382,350.931 471.5,341C 479.675,334.529 487.008,335.363 493.5,343.5 Z"/></g>
<g><path style="opacity:1" fill="#ce968e" d="M 317.5,340.5 C 320.874,352.492 322.374,364.825 322,377.5C 318.019,385.16 312.185,386.994 304.5,383C 295.794,374.136 288.461,364.303 282.5,353.5C 287.653,350.422 292.986,347.589 298.5,345C 304.945,343.416 311.278,341.916 317.5,340.5 Z"/></g>
<g><path style="opacity:1" fill="#f9d376" d="M 70.5,350.5 C 77.4633,350.211 83.7966,352.044 89.5,356C 104.765,372.013 116.932,390.179 126,410.5C 133.677,426.538 135.51,443.205 131.5,460.5C 123.209,479.826 108.542,490.659 87.5,493C 71.7388,494.212 56.4054,492.212 41.5,487C 17.8843,473.598 8.38432,453.431 13,426.5C 19.2433,397.27 34.0766,373.436 57.5,355C 61.4751,352.424 65.8085,350.924 70.5,350.5 Z"/></g>
<g><path style="opacity:1" fill="#e89d4c" d="M 75.5,383.5 C 78.1873,383.336 80.854,383.503 83.5,384C 86.7909,386.332 87.2909,389.165 85,392.5C 81.5316,393.803 78.0316,393.803 74.5,392.5C 71.7447,389.18 72.078,386.18 75.5,383.5 Z"/></g>
<g><path style="opacity:1" fill="#e79c4b" d="M 207.5,404.5 C 229.742,404.574 240.576,415.574 240,437.5C 235.68,456.464 223.846,464.297 204.5,461C 187.995,456.812 180.828,446.312 183,429.5C 186.001,415.999 194.168,407.666 207.5,404.5 Z"/></g>
<g><path style="opacity:1" fill="#f9d375" d="M 437.5,413.5 C 447.769,411.217 454.936,414.884 459,424.5C 460.142,440.021 452.975,446.521 437.5,444C 427.591,438.605 425.091,430.772 430,420.5C 432.396,417.933 434.896,415.6 437.5,413.5 Z"/></g>
<g><path style="opacity:1" fill="#faf9f8" d="M 57.5,420.5 C 69.8706,418.266 78.3706,422.933 83,434.5C 83.3494,457.248 73.1828,463.748 52.5,454C 45.1562,449.464 42.6562,442.964 45,434.5C 47.6359,428.369 51.8026,423.703 57.5,420.5 Z"/></g>
<g><path style="opacity:1" fill="#e89e4d" d="M 290.5,430.5 C 292.564,430.687 294.564,431.187 296.5,432C 297.304,433.771 298.471,435.271 300,436.5C 300.833,442.333 298.333,444.833 292.5,444C 289.019,441.234 287.519,437.734 288,433.5C 289.045,432.627 289.878,431.627 290.5,430.5 Z"/></g>
</svg>
