<svg version="1.1" id="Layer_1" xmlns="http://www.w3.org/2000/svg" xmlns:xlink="http://www.w3.org/1999/xlink" x="0px" y="0px"
	 width="100%" viewBox="0 0 512 512" enable-background="new 0 0 512 512" xml:space="preserve">
<path fill="#000000" opacity="1.000000" stroke="none" 
	d="
M1.000000,200.000000 
	C1.000000,133.333328 1.000000,67.166664 1.000000,1.000000 
	C171.666672,1.000000 342.333344,1.000000 513.000000,1.000000 
	C513.000000,171.666672 513.000000,342.333344 513.000000,513.000000 
	C342.333344,513.000000 171.666672,513.000000 1.000000,513.000000 
	C1.000000,408.833344 1.000000,304.666656 1.000000,200.000000 
M308.004669,443.998108 
	C308.004669,443.998108 308.001099,443.985626 308.015839,444.730682 
	C315.670807,462.240265 326.976715,477.128845 340.751953,490.229492 
	C344.823364,494.101562 349.707123,496.024841 355.362823,496.007721 
	C365.510071,495.976990 375.659760,495.873566 385.803802,496.056366 
	C390.341858,496.138123 394.027161,495.136200 395.735657,490.567688 
	C397.206207,486.635437 394.754913,480.642700 391.129425,477.989746 
	C385.572266,473.923309 379.369843,472.911133 372.626648,472.909393 
	C362.834290,472.906891 354.205261,469.452728 348.230774,461.436676 
	C341.740540,452.728638 337.687500,442.823334 335.970276,431.235138 
	C335.667694,429.677826 334.924042,428.055542 335.142242,426.574982 
	C335.906921,421.386383 337.003082,416.246613 338.660889,410.773987 
	C341.043701,405.808716 343.426514,400.843414 346.104462,395.256744 
	C346.825928,394.573334 347.613525,393.946869 348.258423,393.197601 
	C354.157867,386.343475 355.421051,378.618134 351.955536,370.348114 
	C349.094269,363.520111 343.542664,360.009918 336.295258,358.992401 
	C326.984222,357.685150 317.454712,357.173920 308.430420,354.773926 
	C296.759674,351.670135 285.375763,347.260864 276.943298,337.195099 
	C279.841858,328.671173 282.017273,320.040833 280.951935,310.062714 
	C281.046997,308.060699 281.142029,306.058685 281.815674,304.355804 
	C284.658478,306.831909 287.338837,309.530365 290.371613,311.746490 
	C305.298126,322.653687 321.042999,332.019928 339.366089,336.043701 
	C347.071350,337.735779 354.877502,338.968506 362.637817,340.410065 
	C362.962708,339.728485 363.287598,339.046906 363.612457,338.365356 
	C357.567749,332.889282 350.126129,329.301636 342.885895,324.359863 
	C318.904388,308.226776 298.762726,288.490326 284.582184,263.058746 
	C285.942322,262.067688 286.784088,261.312683 287.747589,260.776367 
	C292.458954,258.153717 297.202759,255.589386 301.981659,253.738144 
	C309.643555,266.896759 318.778076,278.791870 330.239685,288.989777 
	C343.968414,301.204834 359.346405,310.234497 376.971313,315.383331 
	C378.176361,315.735382 379.647552,315.176361 380.994965,315.041046 
	C381.145111,314.553009 381.295227,314.064941 381.445374,313.576874 
	C375.255524,307.726776 369.065674,301.876678 362.977020,295.321930 
	C362.800934,294.878937 362.714539,294.367310 362.435730,294.002930 
	C353.599243,282.455658 344.493347,271.103088 336.004822,259.306122 
	C332.157837,253.959717 329.530457,247.735779 326.307739,241.832840 
	C332.123108,239.674698 337.031464,237.853149 341.990662,236.761841 
	C343.636169,239.528381 345.212097,242.339172 346.938904,245.054016 
	C355.895020,259.134735 366.599335,271.565094 380.925964,280.478821 
	C382.205627,281.275024 383.915283,281.380127 386.310120,282.055817 
	C383.540253,276.074493 381.452179,271.565521 379.027283,266.366760 
	C372.525452,252.705261 366.436798,238.888718 363.847321,224.051636 
	C365.843048,223.069427 367.838776,222.087219 370.229004,221.777557 
	C371.249481,229.785461 376.161316,234.209137 383.073059,237.965927 
	C387.146088,240.179764 390.290009,244.801788 392.834137,248.962952 
	C396.482849,254.930695 398.591217,261.875946 402.466309,267.660980 
	C407.867798,275.724762 414.191315,283.185425 420.318634,290.743317 
	C424.211487,295.545105 429.878967,295.841614 435.220215,294.730835 
	C439.397980,293.862000 442.774384,291.049225 443.934021,286.013245 
	C449.316071,286.531799 454.926758,286.267670 460.025116,287.757233 
	C467.194946,289.851959 470.224060,298.791473 469.994476,308.301941 
	C469.956848,309.860931 469.989166,311.421631 469.989166,313.984863 
	C472.545074,312.621002 473.972046,311.908051 475.352966,311.114868 
	C485.303619,305.399414 488.503876,290.204163 486.585663,281.121979 
	C484.890472,273.095886 480.278473,267.447540 471.995270,266.087524 
	C467.441010,265.339752 462.658173,265.973480 457.978485,266.002441 
	C449.625793,266.054138 441.273163,266.119568 432.143341,266.051270 
	C429.083740,264.268372 424.815613,263.235535 423.165894,260.577576 
	C414.227356,246.175980 412.560791,230.043976 413.074463,213.332748 
	C416.306488,215.589355 418.951874,218.186066 422.127075,219.425369 
	C424.859070,220.491714 428.718170,221.102768 431.137390,219.946014 
	C434.449280,218.362473 434.812622,214.429382 433.383087,210.845108 
	C430.011841,202.392365 426.607422,193.952850 423.411499,185.993744 
	C427.680359,180.256943 431.816650,174.698349 436.570740,168.309479 
	C439.032318,170.373642 441.700745,172.384079 444.104156,174.672836 
	C449.508057,179.818893 457.596466,179.842438 461.647461,173.628601 
	C467.089233,165.281464 467.348114,151.257339 453.858215,147.015152 
	C450.079651,145.826904 446.056061,145.417801 442.578003,144.736191 
	C441.633942,138.555344 440.750824,132.773300 439.829712,126.246941 
	C439.182709,124.464966 438.535736,122.682983 437.524261,119.897163 
	C441.039703,119.562019 444.000732,119.098579 446.970734,119.031265 
	C455.158844,118.845703 459.311279,112.852974 457.486786,104.847404 
	C454.078827,89.893600 435.925903,88.125336 427.425629,96.966164 
	C426.328094,98.107651 425.127563,99.150047 424.914307,99.351379 
	C419.893890,95.596237 415.432007,92.258842 410.945129,88.199844 
	C411.392181,87.537979 411.794067,86.839767 412.293060,86.219681 
	C420.286011,76.287514 421.710510,60.556736 414.768219,50.435863 
	C407.757050,40.214561 387.919464,32.251358 375.864258,35.117603 
	C366.515472,37.340378 358.416901,35.460621 350.519623,30.157436 
	C340.641968,23.524393 329.519867,19.382879 317.742035,18.136774 
	C301.032990,16.368946 286.643982,26.986645 280.993439,42.576416 
	C279.349792,47.111198 279.162354,51.383934 282.989105,55.874744 
	C284.770599,61.163788 286.492737,66.474319 288.391174,71.721054 
	C288.713135,72.610931 289.792664,73.226700 290.522186,73.969109 
	C291.346893,73.130302 292.533813,72.434624 292.931885,71.427223 
	C294.436554,67.619675 295.685150,63.710953 297.795990,59.987270 
	C300.170959,60.695709 302.545898,61.404152 304.956329,62.909599 
	C303.962555,67.522224 301.545288,72.081833 304.852264,78.359154 
	C308.297668,73.745270 311.187531,69.875351 314.751343,66.206512 
	C316.807526,67.175346 318.863739,68.144173 320.962463,69.897362 
	C320.334076,72.217361 319.520050,74.510071 319.173004,76.871407 
	C319.042633,77.758438 319.788696,79.069824 320.546082,79.663651 
	C320.909790,79.948822 322.387695,79.199181 323.084106,78.597595 
	C324.815887,77.101601 326.388672,75.421562 328.722931,73.976845 
	C330.549164,75.283539 332.375427,76.590225 334.032288,78.709000 
	C333.977631,81.479736 331.146820,84.577255 335.156952,87.277687 
	C336.862732,85.374832 338.446899,83.607613 340.651398,82.125687 
	C344.077148,85.139221 347.502899,88.152763 350.644104,91.771957 
	C349.071625,94.126312 347.499146,96.480675 345.317322,99.148010 
	C344.225372,100.484230 343.133392,101.820450 341.391937,102.870346 
	C338.628601,100.716270 335.865265,98.562195 333.101929,96.408127 
	C332.646393,96.809364 332.190857,97.210602 331.735352,97.611839 
	C332.797638,101.368256 333.859894,105.124680 334.282043,109.175507 
	C331.216003,110.789864 328.149933,112.404221 324.829620,113.353249 
	C320.704102,110.092842 321.238892,103.167725 314.520355,100.054665 
	C315.052246,106.850945 315.483917,112.366608 315.068115,117.987732 
	C311.414398,118.359009 307.760681,118.730293 304.002258,118.344315 
	C301.945374,113.080917 299.954529,107.789886 297.774261,102.578079 
	C297.352539,101.569908 296.190643,100.871384 295.370148,100.030022 
	C294.581482,101.082535 293.217743,102.075417 293.101379,103.197632 
	C292.526794,108.739853 292.282349,114.316292 291.148254,119.987305 
	C285.300354,120.782898 283.686005,123.680367 286.184509,129.643097 
	C289.189758,135.868118 293.481110,140.614990 300.865479,140.949860 
	C312.084045,141.458633 323.317200,141.640961 334.542084,142.021652 
	C336.159393,142.076523 337.758331,142.579941 339.377808,142.678955 
	C350.050873,143.331528 360.389343,147.649734 371.389771,145.079620 
	C378.396576,143.442551 384.977051,141.462097 388.724274,134.719284 
	C390.972473,130.673859 392.863342,126.429848 395.274628,121.546272 
	C399.200470,125.089531 403.109131,128.617294 407.318298,132.753052 
	C412.120422,138.750305 415.545471,145.042480 413.063873,153.188507 
	C410.693024,160.971222 407.045074,167.661316 400.117126,172.421646 
	C393.968353,176.646591 388.135529,181.331360 382.196350,185.788300 
	C378.189087,179.515503 376.368896,174.367065 377.761353,167.793274 
	C379.088348,161.528778 375.172180,157.349289 369.474731,158.164368 
	C362.792755,159.120285 356.198547,161.720200 353.110382,168.226913 
	C350.493011,173.741684 351.280945,179.584290 355.199005,184.777878 
	C357.951935,188.427032 357.953064,193.904938 354.899292,196.422928 
	C350.476807,200.069489 345.596527,203.160843 341.081604,206.368240 
	C336.910583,202.814117 337.926819,199.203842 339.127502,195.537827 
	C341.108673,189.488632 338.058380,185.044876 331.930450,185.001022 
	C330.431305,184.990295 328.927399,184.922104 327.433655,185.012512 
	C320.413055,185.437424 313.146759,193.226837 312.965698,200.174652 
	C312.780029,207.299225 317.143311,211.865814 322.020996,216.494873 
	C313.279572,219.966705 304.878235,223.303467 296.456421,226.648361 
	C294.007874,222.835663 293.375031,218.997574 295.899567,214.653290 
	C296.788116,213.124313 296.772644,210.531021 296.163605,208.772125 
	C294.360199,203.563782 290.558319,202.256256 283.121338,204.018326 
	C272.441803,206.548706 264.780945,215.805099 271.712189,227.213715 
	C273.472687,230.111450 275.480408,232.859009 277.470184,235.817749 
	C272.115936,239.931854 266.402557,244.384674 260.568085,248.672714 
	C260.151184,248.979095 258.223602,248.257156 258.065948,247.707321 
	C257.456421,245.581253 256.736633,243.251007 257.047485,241.142731 
	C257.858612,235.641312 256.141876,231.164886 252.232986,230.101379 
	C246.665085,228.586517 237.545212,232.961151 233.292267,239.186905 
	C231.015900,242.519211 231.518631,250.819839 234.467041,254.953918 
	C236.798676,258.223145 239.398666,261.301025 242.317032,265.021729 
	C238.897278,265.021729 236.538330,264.799835 234.242462,265.085266 
	C232.030090,265.360291 229.852097,266.062622 227.711777,266.743164 
	C205.688660,273.745850 193.630081,290.195557 186.044312,310.840027 
	C181.631271,322.850067 177.284912,334.884552 172.273743,347.130920 
	C168.189926,350.129608 164.106110,353.128296 159.264648,356.222321 
	C157.238724,356.799622 155.212799,357.376953 153.186859,357.954254 
	C154.291428,354.899933 156.191452,352.929108 157.717606,350.702057 
	C158.750687,349.194519 159.841293,347.346649 159.900711,345.616486 
	C160.177414,337.559326 148.658997,331.463715 140.435104,334.782928 
	C136.236481,336.477570 134.343658,339.216400 133.994781,343.456451 
	C133.686188,347.206879 133.338974,350.954193 132.996292,354.701752 
	C132.699768,357.944489 131.853668,359.976990 127.778412,358.435242 
	C119.526314,355.313232 111.139732,352.546692 102.808594,349.633606 
	C102.906784,349.020721 103.004982,348.407837 103.103172,347.794922 
	C104.890045,347.197632 106.702370,346.666321 108.458359,345.988953 
	C111.881096,344.668640 116.369705,345.521210 118.041931,340.688232 
	C120.005737,335.012543 116.317360,327.269653 109.691040,323.907196 
	C104.838409,321.444763 98.734253,323.389984 95.086716,328.416687 
	C93.421097,330.712067 91.518509,332.835510 89.673248,335.098419 
	C84.629112,326.412170 81.779144,317.754456 82.130676,307.368195 
	C86.542183,310.441132 89.777946,315.412811 95.225426,311.256378 
	C98.875725,308.471191 100.579666,302.059631 98.873306,296.721222 
	C96.791389,290.207886 90.966255,292.522919 84.714363,291.633575 
	C90.218117,284.878723 95.065948,278.928894 100.162117,273.639038 
	C102.993362,277.134064 106.466225,279.615265 111.145271,278.932495 
	C115.818832,278.250488 120.654434,277.425659 123.119392,272.513184 
	C125.450668,267.867157 123.439285,264.000946 120.791672,260.254028 
	C120.166916,259.369873 119.755615,258.334869 119.116402,257.123413 
	C123.032509,254.738144 126.843094,252.417145 130.440231,250.226135 
	C132.563614,252.035843 134.299423,253.554977 136.077728,255.022629 
	C139.844269,258.131104 144.109406,257.733948 148.050568,255.920273 
	C151.965836,254.118515 152.950790,250.624405 153.270767,246.186386 
	C153.551697,242.289810 155.596939,238.166199 157.904037,234.871994 
	C160.103531,231.731445 164.019669,229.846481 166.536133,226.865097 
	C176.340591,215.249252 183.022842,202.540482 181.108322,186.477173 
	C179.877975,176.154251 175.560486,167.510559 169.099899,159.729431 
	C168.351685,158.828293 166.617645,158.745667 165.340637,158.283554 
	C164.931641,159.620010 164.196823,160.949417 164.167679,162.294128 
	C164.005081,169.796707 164.931793,177.453720 163.731064,184.769913 
	C162.224640,193.948792 157.732025,202.156601 151.120560,209.375595 
	C146.940216,205.095764 142.761246,205.510056 137.953583,207.846634 
	C131.090988,211.181931 128.500198,217.356186 125.403816,224.093948 
	C125.239197,224.729111 125.074577,225.364273 124.997070,225.956741 
	C124.997070,225.956741 124.951584,225.871048 124.319817,226.148941 
	C118.390503,230.099243 112.461189,234.049530 107.562698,237.313065 
	C104.944931,234.495605 103.170448,230.787338 100.707733,230.253387 
	C91.172356,228.185974 81.432053,235.496078 82.920166,247.070160 
	C83.244926,249.596069 82.926422,253.024994 81.434334,254.808151 
	C77.202324,259.865753 72.209473,264.286713 67.226784,269.246521 
	C66.683060,260.253784 59.248280,254.871994 51.641964,260.156006 
	C43.972301,265.484039 40.969234,274.322632 47.775864,283.244720 
	C51.337132,287.912811 54.116730,292.739960 52.126633,299.344910 
	C51.605190,306.681152 51.083748,314.017426 50.469006,322.666351 
	C48.633938,319.622681 47.029881,317.614868 46.125965,315.330109 
	C44.102097,310.214539 35.652866,307.809448 30.879528,312.679596 
	C26.704119,316.939697 26.058571,322.399597 27.477245,327.835297 
	C28.941759,333.446655 32.124756,338.021515 38.474022,338.973389 
	C42.188293,339.530243 46.003666,339.446930 49.698597,340.085388 
	C51.816784,340.451416 54.792606,341.117615 55.644512,342.628571 
	C59.154350,348.853424 61.998905,355.453400 65.116806,361.975616 
	C64.548279,361.975616 63.856098,362.104462 63.229591,361.956055 
	C55.551247,360.137207 49.922050,364.516846 50.001431,372.284027 
	C50.074989,379.481689 57.398544,386.474579 64.576408,387.096741 
	C72.394295,387.774384 78.248260,384.605835 82.482666,380.067444 
	C93.326111,385.309021 103.756599,390.350983 114.442986,395.516632 
	C113.189079,395.915680 111.504173,396.670990 109.741348,396.976135 
	C100.611816,398.556305 95.747574,406.716553 100.041489,413.489777 
	C104.456970,420.454712 118.480469,423.996552 125.856285,416.844421 
	C129.897598,412.925690 131.884186,408.304840 132.891708,403.184021 
	C133.688293,399.135284 135.499588,397.700226 139.586365,397.919586 
	C145.399551,398.231567 151.244568,398.099091 157.070801,397.951599 
	C159.641037,397.886566 162.198517,397.317993 164.761795,396.977997 
	C164.972687,397.506042 165.183594,398.034058 165.394485,398.562073 
	C162.600754,400.705597 160.061737,403.370178 156.961075,404.885773 
	C150.194046,408.193451 150.112671,421.563324 156.813156,424.998322 
	C165.970673,429.692963 181.315079,427.250305 184.839340,414.790314 
	C186.020355,410.614868 185.894531,406.005615 185.951950,401.589264 
	C186.094879,390.595184 187.354889,388.703949 198.798935,385.021240 
	C212.081909,388.764282 224.683578,388.225067 235.987961,379.906921 
	C233.283875,391.583862 227.022552,401.433990 219.737274,410.641968 
	C215.922623,415.463379 211.274353,419.615753 207.267426,424.296997 
	C202.497040,429.870209 202.098618,438.043243 207.774185,442.836151 
	C219.406006,452.659058 226.785141,465.181732 231.791077,479.084320 
	C234.993088,487.977020 239.683594,495.016937 249.330475,495.751648 
	C261.032166,496.642883 272.853455,495.963165 284.502319,495.963165 
	C286.731506,486.539795 281.893188,480.281464 274.888275,477.435150 
	C272.495697,476.462952 270.019135,475.613281 267.505463,475.036865 
	C250.964401,471.244019 235.650162,451.729034 237.258026,434.725983 
	C238.020889,426.658630 240.432861,418.414307 243.750854,410.988892 
	C251.302017,394.090057 261.027649,378.414307 274.968536,364.979279 
	C282.409119,366.345428 290.252869,366.670380 297.183197,369.354156 
	C304.987305,372.376190 312.723450,376.360748 316.217194,385.408997 
	C317.964996,389.935455 321.456390,393.788666 324.033295,398.755859 
	C323.063965,402.156891 322.094604,405.557922 320.884338,409.634949 
	C317.565430,413.280029 314.634735,417.407715 310.839508,420.460632 
	C304.649719,425.439819 302.859009,436.157227 306.996124,442.595459 
	C307.336487,443.063782 307.676819,443.532074 308.004669,443.998108 
z"/>
<path fill="#D2DFFF" opacity="1.000000" stroke="none" 
	d="
M341.939819,236.031601 
	C337.031464,237.853149 332.123108,239.674698 326.307739,241.832840 
	C329.530457,247.735779 332.157837,253.959717 336.004822,259.306122 
	C344.493347,271.103088 353.599243,282.455658 362.435730,294.002930 
	C362.714539,294.367310 362.800934,294.878937 362.557556,295.676483 
	C360.590942,295.450409 359.002380,294.960358 357.502869,294.275391 
	C338.455902,285.574921 324.808624,271.396881 315.161713,252.985458 
	C314.044769,250.853699 311.054596,248.181030 309.165283,248.350449 
	C306.636444,248.577209 304.334473,251.334000 301.935089,253.004425 
	C297.202759,255.589386 292.458954,258.153717 287.747589,260.776367 
	C286.784088,261.312683 285.942322,262.067688 284.582184,263.058746 
	C298.762726,288.490326 318.904388,308.226776 342.623505,324.723511 
	C326.200317,322.689117 312.182983,315.475555 300.815948,304.137329 
	C292.540741,295.883118 285.622162,286.216797 278.515259,276.863556 
	C274.478912,271.551483 270.217957,270.442352 266.547394,273.722412 
	C270.464935,281.114990 274.320526,288.153534 277.927704,295.317230 
	C279.320953,298.084259 280.150635,301.135132 281.237091,304.056671 
	C281.142029,306.058685 281.046997,308.060699 280.633301,310.716248 
	C276.273987,316.812225 272.233246,322.254669 267.622406,328.464996 
	C270.132538,331.065674 273.466095,334.519501 276.799683,337.973328 
	C285.375763,347.260864 296.759674,351.670135 308.430420,354.773926 
	C317.454712,357.173920 326.984222,357.685150 336.295258,358.992401 
	C343.542664,360.009918 349.094269,363.520111 351.955536,370.348114 
	C355.421051,378.618134 354.157867,386.343475 348.258423,393.197601 
	C347.613525,393.946869 346.825928,394.573334 345.577637,395.582123 
	C338.349640,399.279175 331.308929,399.171509 324.159149,397.946381 
	C321.456390,393.788666 317.964996,389.935455 316.217194,385.408997 
	C312.723450,376.360748 304.987305,372.376190 297.183197,369.354156 
	C290.252869,366.670380 282.409119,366.345428 274.241333,364.751831 
	C268.955292,365.207947 264.350983,365.673798 259.845520,366.613373 
	C241.719269,370.393280 226.035431,356.627930 228.135315,338.357239 
	C228.590805,334.394135 230.449585,330.592255 231.662018,326.716125 
	C228.295883,328.766479 225.411530,331.374207 223.387268,334.533112 
	C217.746918,343.335052 218.876465,352.823608 221.918259,362.329620 
	C206.398682,362.237213 197.480087,350.664307 200.409561,335.290527 
	C200.802216,333.229950 200.768082,331.088074 200.931580,328.983826 
	C200.357285,328.821411 199.782990,328.658997 199.208679,328.496582 
	C198.262787,329.858154 196.882538,331.095978 196.452728,332.604584 
	C195.182175,337.064148 193.790604,341.580597 193.327744,346.163788 
	C190.768219,371.508514 209.661942,383.213043 228.417038,379.184662 
	C231.309677,378.563354 234.163620,377.761932 237.019211,377.026184 
	C237.002960,377.008545 236.964920,376.979462 236.954742,377.301178 
	C236.603577,378.120300 236.262619,378.617676 235.921631,379.115051 
	C224.683578,388.225067 212.081909,388.764282 198.247467,384.652252 
	C196.216309,383.255524 194.756058,382.198425 193.253860,381.204742 
	C180.933273,373.055084 171.222885,363.363800 172.908554,346.908051 
	C177.284912,334.884552 181.631271,322.850067 186.044312,310.840027 
	C193.630081,290.195557 205.688660,273.745850 227.711777,266.743164 
	C229.852097,266.062622 232.030090,265.360291 234.242462,265.085266 
	C236.538330,264.799835 238.897278,265.021729 242.317032,265.021729 
	C239.398666,261.301025 236.798676,258.223145 234.467041,254.953918 
	C231.518631,250.819839 231.015900,242.519211 233.292267,239.186905 
	C237.545212,232.961151 246.665085,228.586517 252.232986,230.101379 
	C256.141876,231.164886 257.858612,235.641312 257.047485,241.142731 
	C256.736633,243.251007 257.456421,245.581253 258.065948,247.707321 
	C258.223602,248.257156 260.151184,248.979095 260.568085,248.672714 
	C266.402557,244.384674 272.115936,239.931854 277.470184,235.817749 
	C275.480408,232.859009 273.472687,230.111450 271.712189,227.213715 
	C264.780945,215.805099 272.441803,206.548706 283.121338,204.018326 
	C290.558319,202.256256 294.360199,203.563782 296.163605,208.772125 
	C296.772644,210.531021 296.788116,213.124313 295.899567,214.653290 
	C293.375031,218.997574 294.007874,222.835663 296.456421,226.648361 
	C304.878235,223.303467 313.279572,219.966705 322.020996,216.494873 
	C317.143311,211.865814 312.780029,207.299225 312.965698,200.174652 
	C313.146759,193.226837 320.413055,185.437424 327.433655,185.012512 
	C328.927399,184.922104 330.431305,184.990295 331.930450,185.001022 
	C338.058380,185.044876 341.108673,189.488632 339.127502,195.537827 
	C337.926819,199.203842 336.910583,202.814117 341.081604,206.368240 
	C345.596527,203.160843 350.476807,200.069489 354.899292,196.422928 
	C357.953064,193.904938 357.951935,188.427032 355.199005,184.777878 
	C351.280945,179.584290 350.493011,173.741684 353.110382,168.226913 
	C356.198547,161.720200 362.792755,159.120285 369.474731,158.164368 
	C375.172180,157.349289 379.088348,161.528778 377.761353,167.793274 
	C376.368896,174.367065 378.189087,179.515503 382.196350,185.788300 
	C388.135529,181.331360 393.968353,176.646591 400.117126,172.421646 
	C407.045074,167.661316 410.693024,160.971222 413.063873,153.188507 
	C415.545471,145.042480 412.120422,138.750305 407.580322,132.438110 
	C418.517426,130.412537 429.192566,128.701920 439.867676,126.991272 
	C440.750824,132.773300 441.633942,138.555344 442.578003,144.736191 
	C446.056061,145.417801 450.079651,145.826904 453.858215,147.015152 
	C467.348114,151.257339 467.089233,165.281464 461.647461,173.628601 
	C457.596466,179.842438 449.508057,179.818893 444.104156,174.672836 
	C441.700745,172.384079 439.032318,170.373642 436.570740,168.309479 
	C431.816650,174.698349 427.680359,180.256943 423.411499,185.993744 
	C426.607422,193.952850 430.011841,202.392365 433.383087,210.845108 
	C434.812622,214.429382 434.449280,218.362473 431.137390,219.946014 
	C428.718170,221.102768 424.859070,220.491714 422.127075,219.425369 
	C418.951874,218.186066 416.306488,215.589355 413.074463,213.332748 
	C412.560791,230.043976 414.227356,246.175980 423.165894,260.577576 
	C424.815613,263.235535 429.083740,264.268372 432.769287,266.357910 
	C442.739899,270.984100 444.360352,274.219940 443.117645,286.078918 
	C442.774384,291.049225 439.397980,293.862000 435.220215,294.730835 
	C429.878967,295.841614 424.211487,295.545105 420.318634,290.743317 
	C414.191315,283.185425 407.867798,275.724762 402.466309,267.660980 
	C398.591217,261.875946 396.482849,254.930695 392.834137,248.962952 
	C390.290009,244.801788 387.146088,240.179764 383.073059,237.965927 
	C376.161316,234.209137 371.249481,229.785461 370.078247,221.055023 
	C370.198059,219.725250 370.546082,219.140259 370.727936,218.507507 
	C374.955414,203.798431 380.668518,199.051788 395.888885,197.591339 
	C396.100128,197.571075 396.273346,197.154510 396.469299,196.920212 
	C396.359467,196.625732 396.327850,196.196671 396.114563,196.067383 
	C395.417786,195.645050 394.688812,195.206207 393.912079,194.996002 
	C384.197449,192.366882 375.707703,194.904205 368.671692,201.765717 
	C362.372345,207.908844 360.371185,215.458923 363.138336,224.025146 
	C366.436798,238.888718 372.525452,252.705261 378.811279,266.704102 
	C366.741333,260.574127 359.208557,250.430756 353.997833,238.267776 
	C351.187592,231.708069 347.251251,231.021088 341.939819,236.031601 
M212.392639,311.946594 
	C211.877975,310.374573 211.363312,308.802551 210.848663,307.230530 
	C209.342697,307.960388 207.605789,308.429871 206.400604,309.498840 
	C205.353256,310.427795 204.341003,312.028076 204.325500,313.343597 
	C204.301010,315.423279 205.122879,317.512939 205.586563,319.598358 
	C207.224701,318.482086 209.031158,317.540771 210.439697,316.185822 
	C211.325653,315.333588 211.615128,313.861298 212.392639,311.946594 
z"/>
<path fill="#D2DFFF" opacity="1.000000" stroke="none" 
	d="
M52.849098,298.926208 
	C54.116730,292.739960 51.337132,287.912811 47.775864,283.244720 
	C40.969234,274.322632 43.972301,265.484039 51.641964,260.156006 
	C59.248280,254.871994 66.683060,260.253784 67.226784,269.246521 
	C72.209473,264.286713 77.202324,259.865753 81.434334,254.808151 
	C82.926422,253.024994 83.244926,249.596069 82.920166,247.070160 
	C81.432053,235.496078 91.172356,228.185974 100.707733,230.253387 
	C103.170448,230.787338 104.944931,234.495605 107.562698,237.313065 
	C112.461189,234.049530 118.390503,230.099243 124.729691,226.397827 
	C121.099930,234.936279 117.331566,243.372925 112.940506,251.471985 
	C108.950218,258.831848 104.282730,265.824524 99.913780,272.979065 
	C95.065948,278.928894 90.218117,284.878723 84.714363,291.633575 
	C90.966255,292.522919 96.791389,290.207886 98.873306,296.721222 
	C100.579666,302.059631 98.875725,308.471191 95.225426,311.256378 
	C89.777946,315.412811 86.542183,310.441132 82.130676,307.368195 
	C81.779144,317.754456 84.629112,326.412170 89.673248,335.098419 
	C91.518509,332.835510 93.421097,330.712067 95.086716,328.416687 
	C98.734253,323.389984 104.838409,321.444763 109.691040,323.907196 
	C116.317360,327.269653 120.005737,335.012543 118.041931,340.688232 
	C116.369705,345.521210 111.881096,344.668640 108.458359,345.988953 
	C106.702370,346.666321 104.890045,347.197632 103.103172,347.794922 
	C103.004982,348.407837 102.906784,349.020721 102.808594,349.633606 
	C111.139732,352.546692 119.526314,355.313232 127.778412,358.435242 
	C131.853668,359.976990 132.699768,357.944489 132.996292,354.701752 
	C133.338974,350.954193 133.686188,347.206879 133.994781,343.456451 
	C134.343658,339.216400 136.236481,336.477570 140.435104,334.782928 
	C148.658997,331.463715 160.177414,337.559326 159.900711,345.616486 
	C159.841293,347.346649 158.750687,349.194519 157.717606,350.702057 
	C156.191452,352.929108 154.291428,354.899933 153.186859,357.954254 
	C155.212799,357.376953 157.238724,356.799622 159.665802,356.602325 
	C160.413788,360.282104 160.960388,363.575409 161.068054,366.882965 
	C161.336853,375.139984 155.901306,381.432648 147.650482,381.886597 
	C112.061363,383.844574 81.614044,370.025146 64.362953,335.924866 
	C58.434631,324.206360 55.396152,311.660004 52.849098,298.926208 
z"/>
<path fill="#D1DEFF" opacity="1.000000" stroke="none" 
	d="
M282.899841,55.078808 
	C279.162354,51.383934 279.349792,47.111198 280.993439,42.576416 
	C286.643982,26.986645 301.032990,16.368946 317.742035,18.136774 
	C329.519867,19.382879 340.641968,23.524393 350.519623,30.157436 
	C358.416901,35.460621 366.515472,37.340378 375.864258,35.117603 
	C387.919464,32.251358 407.757050,40.214561 414.768219,50.435863 
	C421.710510,60.556736 420.286011,76.287514 412.293060,86.219681 
	C411.794067,86.839767 411.392181,87.537979 410.605042,88.544930 
	C405.836365,92.841072 401.332184,96.711205 396.997345,100.762558 
	C390.829681,106.526855 383.750397,108.346115 375.963165,105.107460 
	C370.639618,102.893440 365.648834,99.854652 360.587402,97.043854 
	C357.295166,95.215523 354.143372,93.134247 350.928650,91.166306 
	C347.502899,88.152763 344.077148,85.139221 340.201050,81.683327 
	C337.901031,80.126282 336.051361,79.011589 334.201660,77.896912 
	C332.375427,76.590225 330.549164,75.283539 328.309753,73.567963 
	C325.571045,71.810379 323.245483,70.461685 320.919922,69.112991 
	C318.863739,68.144173 316.807526,67.175346 314.224304,65.806808 
	C310.771820,64.308945 307.846344,63.210770 304.920868,62.112595 
	C302.545898,61.404152 300.170959,60.695709 297.203369,59.624901 
	C292.040466,57.867958 287.470154,56.473381 282.899841,55.078808 
M370.234467,70.923805 
	C369.931458,77.078064 372.447449,81.573097 378.176849,84.016052 
	C383.708527,86.374702 388.441772,84.417412 392.173553,80.406685 
	C394.715149,77.675049 397.162415,74.451385 398.407501,70.998985 
	C401.298492,62.982716 395.644867,55.786453 387.120056,55.905811 
	C379.847717,56.007633 373.368896,61.543777 370.234467,70.923805 
M342.360657,48.476078 
	C338.076080,50.638443 336.790497,54.159958 338.389496,58.486111 
	C339.846741,62.428677 346.754303,65.760826 350.479370,64.708221 
	C354.936890,63.448650 357.270538,58.448086 355.031616,54.384460 
	C352.489685,49.770950 348.677734,47.191555 342.360657,48.476078 
M305.559326,43.763103 
	C306.669037,44.720337 307.636841,46.168526 308.916321,46.538246 
	C312.126312,47.465801 315.834015,48.353333 317.243835,43.933304 
	C318.542480,39.861698 316.015778,37.815811 312.408875,36.736897 
	C307.819031,35.363979 305.427368,37.461731 305.559326,43.763103 
z"/>
<path fill="#7086D3" opacity="1.000000" stroke="none" 
	d="
M52.487865,299.135559 
	C55.396152,311.660004 58.434631,324.206360 64.362953,335.924866 
	C81.614044,370.025146 112.061363,383.844574 147.650482,381.886597 
	C155.901306,381.432648 161.336853,375.139984 161.068054,366.882965 
	C160.960388,363.575409 160.413788,360.282104 160.044632,356.554688 
	C164.106110,353.128296 168.189926,350.129608 172.591156,347.019470 
	C171.222885,363.363800 180.933273,373.055084 193.253860,381.204742 
	C194.756058,382.198425 196.216309,383.255524 197.834747,384.589050 
	C187.354889,388.703949 186.094879,390.595184 185.951950,401.589264 
	C185.894531,406.005615 186.020355,410.614868 184.839340,414.790314 
	C181.315079,427.250305 165.970673,429.692963 156.813156,424.998322 
	C150.112671,421.563324 150.194046,408.193451 156.961075,404.885773 
	C160.061737,403.370178 162.600754,400.705597 165.394485,398.562073 
	C165.183594,398.034058 164.972687,397.506042 164.761795,396.977997 
	C162.198517,397.317993 159.641037,397.886566 157.070801,397.951599 
	C151.244568,398.099091 145.399551,398.231567 139.586365,397.919586 
	C135.499588,397.700226 133.688293,399.135284 132.891708,403.184021 
	C131.884186,408.304840 129.897598,412.925690 125.856285,416.844421 
	C118.480469,423.996552 104.456970,420.454712 100.041489,413.489777 
	C95.747574,406.716553 100.611816,398.556305 109.741348,396.976135 
	C111.504173,396.670990 113.189079,395.915680 114.442986,395.516632 
	C103.756599,390.350983 93.326111,385.309021 82.482666,380.067444 
	C78.248260,384.605835 72.394295,387.774384 64.576408,387.096741 
	C57.398544,386.474579 50.074989,379.481689 50.001431,372.284027 
	C49.922050,364.516846 55.551247,360.137207 63.229591,361.956055 
	C63.856098,362.104462 64.548279,361.975616 65.116806,361.975616 
	C61.998905,355.453400 59.154350,348.853424 55.644512,342.628571 
	C54.792606,341.117615 51.816784,340.451416 49.698597,340.085388 
	C46.003666,339.446930 42.188293,339.530243 38.474022,338.973389 
	C32.124756,338.021515 28.941759,333.446655 27.477245,327.835297 
	C26.058571,322.399597 26.704119,316.939697 30.879528,312.679596 
	C35.652866,307.809448 44.102097,310.214539 46.125965,315.330109 
	C47.029881,317.614868 48.633938,319.622681 50.469006,322.666351 
	C51.083748,314.017426 51.605190,306.681152 52.487865,299.135559 
z"/>
<path fill="#7086D3" opacity="1.000000" stroke="none" 
	d="
M237.035461,377.043793 
	C234.163620,377.761932 231.309677,378.563354 228.417038,379.184662 
	C209.661942,383.213043 190.768219,371.508514 193.327744,346.163788 
	C193.790604,341.580597 195.182175,337.064148 196.452728,332.604584 
	C196.882538,331.095978 198.262787,329.858154 199.208679,328.496582 
	C199.782990,328.658997 200.357285,328.821411 200.931580,328.983826 
	C200.768082,331.088074 200.802216,333.229950 200.409561,335.290527 
	C197.480087,350.664307 206.398682,362.237213 221.918259,362.329620 
	C218.876465,352.823608 217.746918,343.335052 223.387268,334.533112 
	C225.411530,331.374207 228.295883,328.766479 231.662018,326.716125 
	C230.449585,330.592255 228.590805,334.394135 228.135315,338.357239 
	C226.035431,356.627930 241.719269,370.393280 259.845520,366.613373 
	C264.350983,365.673798 268.955292,365.207947 273.789429,364.777832 
	C261.027649,378.414307 251.302017,394.090057 243.750854,410.988892 
	C240.432861,418.414307 238.020889,426.658630 237.258026,434.725983 
	C235.650162,451.729034 250.964401,471.244019 267.505463,475.036865 
	C270.019135,475.613281 272.495697,476.462952 274.888275,477.435150 
	C281.893188,480.281464 286.731506,486.539795 284.502319,495.963165 
	C272.853455,495.963165 261.032166,496.642883 249.330475,495.751648 
	C239.683594,495.016937 234.993088,487.977020 231.791077,479.084320 
	C226.785141,465.181732 219.406006,452.659058 207.774185,442.836151 
	C202.098618,438.043243 202.497040,429.870209 207.267426,424.296997 
	C211.274353,419.615753 215.922623,415.463379 219.737274,410.641968 
	C227.022552,401.433990 233.283875,391.583862 235.954803,379.510986 
	C236.262619,378.617676 236.603577,378.120300 237.090393,377.242798 
	C237.169312,376.923096 237.102386,376.983459 237.035461,377.043793 
z"/>
<path fill="#7186D4" opacity="1.000000" stroke="none" 
	d="
M350.786377,91.469131 
	C354.143372,93.134247 357.295166,95.215523 360.587402,97.043854 
	C365.648834,99.854652 370.639618,102.893440 375.963165,105.107460 
	C383.750397,108.346115 390.829681,106.526855 396.997345,100.762558 
	C401.332184,96.711205 405.836365,92.841072 410.617523,88.905731 
	C415.432007,92.258842 419.893890,95.596237 424.914307,99.351379 
	C425.127563,99.150047 426.328094,98.107651 427.425629,96.966164 
	C435.925903,88.125336 454.078827,89.893600 457.486786,104.847404 
	C459.311279,112.852974 455.158844,118.845703 446.970734,119.031265 
	C444.000732,119.098579 441.039703,119.562019 437.524261,119.897163 
	C438.535736,122.682983 439.182709,124.464966 439.848694,126.619110 
	C429.192566,128.701920 418.517426,130.412537 407.430054,132.134125 
	C403.109131,128.617294 399.200470,125.089531 395.274628,121.546272 
	C392.863342,126.429848 390.972473,130.673859 388.724274,134.719284 
	C384.977051,141.462097 378.396576,143.442551 371.389771,145.079620 
	C360.389343,147.649734 350.050873,143.331528 339.377808,142.678955 
	C337.758331,142.579941 336.159393,142.076523 334.542084,142.021652 
	C323.317200,141.640961 312.084045,141.458633 300.865479,140.949860 
	C293.481110,140.614990 289.189758,135.868118 286.540222,129.346161 
	C293.197571,130.283813 299.471161,132.330292 305.807922,132.549423 
	C313.903442,132.829346 322.043701,131.447006 330.177826,131.173965 
	C333.159760,131.073883 334.716675,130.257431 336.474396,127.686447 
	C338.928955,124.096252 342.235138,120.896523 345.751923,118.312210 
	C347.307617,117.168999 350.273438,117.944733 352.599121,117.849327 
	C351.537476,119.522911 350.484802,121.202332 349.405121,122.864204 
	C349.228394,123.136269 348.844025,123.287476 348.705933,123.568413 
	C347.498962,126.024384 346.326202,128.497177 345.143280,130.964966 
	C347.314209,131.854858 349.414459,133.199722 351.669220,133.549835 
	C358.592804,134.625000 365.401855,134.253479 370.978973,129.282730 
	C375.565674,125.194672 375.390289,119.209930 370.295959,116.805824 
	C360.939056,112.390114 353.120056,106.083733 345.926666,98.835037 
	C347.499146,96.480675 349.071625,94.126312 350.786377,91.469131 
z"/>
<path fill="#6F85D3" opacity="1.000000" stroke="none" 
	d="
M100.037949,273.309052 
	C104.282730,265.824524 108.950218,258.831848 112.940506,251.471985 
	C117.331566,243.372925 121.099930,234.936279 125.045578,226.258881 
	C124.951584,225.871048 124.997070,225.956741 125.284813,225.863037 
	C125.712479,225.101212 125.852394,224.433121 125.992310,223.765015 
	C128.500198,217.356186 131.090988,211.181931 137.953583,207.846634 
	C142.761246,205.510056 146.940216,205.095764 151.120560,209.375595 
	C157.732025,202.156601 162.224640,193.948792 163.731064,184.769913 
	C164.931793,177.453720 164.005081,169.796707 164.167679,162.294128 
	C164.196823,160.949417 164.931641,159.620010 165.340637,158.283554 
	C166.617645,158.745667 168.351685,158.828293 169.099899,159.729431 
	C175.560486,167.510559 179.877975,176.154251 181.108322,186.477173 
	C183.022842,202.540482 176.340591,215.249252 166.536133,226.865097 
	C164.019669,229.846481 160.103531,231.731445 157.904037,234.871994 
	C155.596939,238.166199 153.551697,242.289810 153.270767,246.186386 
	C152.950790,250.624405 151.965836,254.118515 148.050568,255.920273 
	C144.109406,257.733948 139.844269,258.131104 136.077728,255.022629 
	C134.299423,253.554977 132.563614,252.035843 130.440231,250.226135 
	C126.843094,252.417145 123.032509,254.738144 119.116402,257.123413 
	C119.755615,258.334869 120.166916,259.369873 120.791672,260.254028 
	C123.439285,264.000946 125.450668,267.867157 123.119392,272.513184 
	C120.654434,277.425659 115.818832,278.250488 111.145271,278.932495 
	C106.466225,279.615265 102.993362,277.134064 100.037949,273.309052 
z"/>
<path fill="#6F85D3" opacity="1.000000" stroke="none" 
	d="
M335.879395,432.059784 
	C337.687500,442.823334 341.740540,452.728638 348.230774,461.436676 
	C354.205261,469.452728 362.834290,472.906891 372.626648,472.909393 
	C379.369843,472.911133 385.572266,473.923309 391.129425,477.989746 
	C394.754913,480.642700 397.206207,486.635437 395.735657,490.567688 
	C394.027161,495.136200 390.341858,496.138123 385.803802,496.056366 
	C375.659760,495.873566 365.510071,495.976990 355.362823,496.007721 
	C349.707123,496.024841 344.823364,494.101562 340.751953,490.229492 
	C326.976715,477.128845 315.670807,462.240265 308.366272,444.345398 
	C309.389374,444.423462 310.081421,444.861206 310.731689,445.354126 
	C315.841003,449.227417 321.518890,450.462067 327.444946,447.944824 
	C333.243469,445.481720 335.594543,440.619751 335.232727,434.369873 
	C335.189026,433.614838 335.651520,432.830536 335.879395,432.059784 
z"/>
<path fill="#D0DEFE" opacity="1.000000" stroke="none" 
	d="
M345.622009,98.991524 
	C353.120056,106.083733 360.939056,112.390114 370.295959,116.805824 
	C375.390289,119.209930 375.565674,125.194672 370.978973,129.282730 
	C365.401855,134.253479 358.592804,134.625000 351.669220,133.549835 
	C349.414459,133.199722 347.314209,131.854858 345.143280,130.964966 
	C346.326202,128.497177 347.498962,126.024384 348.705933,123.568413 
	C348.844025,123.287476 349.228394,123.136269 349.405121,122.864204 
	C350.484802,121.202332 351.537476,119.522911 352.599121,117.849327 
	C350.273438,117.944733 347.307617,117.168999 345.751923,118.312210 
	C342.235138,120.896523 338.928955,124.096252 336.474396,127.686447 
	C334.716675,130.257431 333.159760,131.073883 330.177826,131.173965 
	C322.043701,131.447006 313.903442,132.829346 305.807922,132.549423 
	C299.471161,132.330292 293.197571,130.283813 286.529327,128.992355 
	C283.686005,123.680367 285.300354,120.782898 291.993469,119.974358 
	C296.594757,119.674805 300.350861,119.388199 304.106964,119.101585 
	C307.760681,118.730293 311.414398,118.359009 315.868958,117.935455 
	C319.474487,116.594978 322.279205,115.306778 325.083893,114.018570 
	C328.149933,112.404221 331.216003,110.789864 334.948486,109.032394 
	C337.757111,106.978424 339.899292,105.067551 342.041443,103.156677 
	C343.133392,101.820450 344.225372,100.484230 345.622009,98.991524 
z"/>
<path fill="#6F85D3" opacity="1.000000" stroke="none" 
	d="
M443.525818,286.046082 
	C444.360352,274.219940 442.739899,270.984100 433.157898,266.421875 
	C441.273163,266.119568 449.625793,266.054138 457.978485,266.002441 
	C462.658173,265.973480 467.441010,265.339752 471.995270,266.087524 
	C480.278473,267.447540 484.890472,273.095886 486.585663,281.121979 
	C488.503876,290.204163 485.303619,305.399414 475.352966,311.114868 
	C473.972046,311.908051 472.545074,312.621002 469.989166,313.984863 
	C469.989166,311.421631 469.956848,309.860931 469.994476,308.301941 
	C470.224060,298.791473 467.194946,289.851959 460.025116,287.757233 
	C454.926758,286.267670 449.316071,286.531799 443.525818,286.046082 
z"/>
<path fill="#7288D4" opacity="1.000000" stroke="none" 
	d="
M281.526367,304.206238 
	C280.150635,301.135132 279.320953,298.084259 277.927704,295.317230 
	C274.320526,288.153534 270.464935,281.114990 266.547394,273.722412 
	C270.217957,270.442352 274.478912,271.551483 278.515259,276.863556 
	C285.622162,286.216797 292.540741,295.883118 300.815948,304.137329 
	C312.182983,315.475555 326.200317,322.689117 342.789856,325.039551 
	C350.126129,329.301636 357.567749,332.889282 363.612457,338.365356 
	C363.287598,339.046906 362.962708,339.728485 362.637817,340.410065 
	C354.877502,338.968506 347.071350,337.735779 339.366089,336.043701 
	C321.042999,332.019928 305.298126,322.653687 290.371613,311.746490 
	C287.338837,309.530365 284.658478,306.831909 281.526367,304.206238 
z"/>
<path fill="#7389D5" opacity="1.000000" stroke="none" 
	d="
M301.958374,253.371277 
	C304.334473,251.334000 306.636444,248.577209 309.165283,248.350449 
	C311.054596,248.181030 314.044769,250.853699 315.161713,252.985458 
	C324.808624,271.396881 338.455902,285.574921 357.502869,294.275391 
	C359.002380,294.960358 360.590942,295.450409 362.506958,296.028809 
	C369.065674,301.876678 375.255524,307.726776 381.445374,313.576874 
	C381.295227,314.064941 381.145111,314.553009 380.994965,315.041046 
	C379.647552,315.176361 378.176361,315.735382 376.971313,315.383331 
	C359.346405,310.234497 343.968414,301.204834 330.239685,288.989777 
	C318.778076,278.791870 309.643555,266.896759 301.958374,253.371277 
z"/>
<path fill="#D1DEFF" opacity="1.000000" stroke="none" 
	d="
M335.924835,431.647461 
	C335.651520,432.830536 335.189026,433.614838 335.232727,434.369873 
	C335.594543,440.619751 333.243469,445.481720 327.444946,447.944824 
	C321.518890,450.462067 315.841003,449.227417 310.731689,445.354126 
	C310.081421,444.861206 309.389374,444.423462 308.358887,443.972900 
	C308.001099,443.985626 308.004669,443.998108 308.051208,443.701782 
	C307.788483,442.916443 307.479187,442.427429 307.169891,441.938416 
	C302.859009,436.157227 304.649719,425.439819 310.839508,420.460632 
	C314.634735,417.407715 317.565430,413.280029 321.379761,409.353943 
	C327.241272,409.744751 332.607300,410.416534 337.973358,411.088318 
	C337.003082,416.246613 335.906921,421.386383 335.142242,426.574982 
	C334.924042,428.055542 335.667694,429.677826 335.924835,431.647461 
z"/>
<path fill="#748AD5" opacity="1.000000" stroke="none" 
	d="
M341.965240,236.396729 
	C347.251251,231.021088 351.187592,231.708069 353.997833,238.267776 
	C359.208557,250.430756 366.741333,260.574127 378.979736,267.048981 
	C381.452179,271.565521 383.540253,276.074493 386.310120,282.055817 
	C383.915283,281.380127 382.205627,281.275024 380.925964,280.478821 
	C366.599335,271.565094 355.895020,259.134735 346.938904,245.054016 
	C345.212097,242.339172 343.636169,239.528381 341.965240,236.396729 
z"/>
<path fill="#748AD5" opacity="1.000000" stroke="none" 
	d="
M363.492828,224.038391 
	C360.371185,215.458923 362.372345,207.908844 368.671692,201.765717 
	C375.707703,194.904205 384.197449,192.366882 393.912079,194.996002 
	C394.688812,195.206207 395.417786,195.645050 396.114563,196.067383 
	C396.327850,196.196671 396.359467,196.625732 396.469299,196.920212 
	C396.273346,197.154510 396.100128,197.571075 395.888885,197.591339 
	C380.668518,199.051788 374.955414,203.798431 370.727936,218.507507 
	C370.546082,219.140259 370.198059,219.725250 369.880981,220.718765 
	C367.838776,222.087219 365.843048,223.069427 363.492828,224.038391 
z"/>
<path fill="#748AD5" opacity="1.000000" stroke="none" 
	d="
M338.317139,410.931152 
	C332.607300,410.416534 327.241272,409.744751 321.500244,409.015930 
	C322.094604,405.557922 323.063965,402.156891 324.096222,398.351135 
	C331.308929,399.171509 338.349640,399.279175 345.430054,395.892822 
	C343.426514,400.843414 341.043701,405.808716 338.317139,410.931152 
z"/>
<path fill="#7288D4" opacity="1.000000" stroke="none" 
	d="
M276.871490,337.584229 
	C273.466095,334.519501 270.132538,331.065674 267.622406,328.464996 
	C272.233246,322.254669 276.273987,316.812225 280.563385,311.141296 
	C282.017273,320.040833 279.841858,328.671173 276.871490,337.584229 
z"/>
<path fill="#6F85D3" opacity="1.000000" stroke="none" 
	d="
M304.054626,118.722954 
	C300.350861,119.388199 296.594757,119.674805 292.380066,119.921036 
	C292.282349,114.316292 292.526794,108.739853 293.101379,103.197632 
	C293.217743,102.075417 294.581482,101.082535 295.370148,100.030022 
	C296.190643,100.871384 297.352539,101.569908 297.774261,102.578079 
	C299.954529,107.789886 301.945374,113.080917 304.054626,118.722954 
z"/>
<path fill="#7186D4" opacity="1.000000" stroke="none" 
	d="
M282.944458,55.476776 
	C287.470154,56.473381 292.040466,57.867958 296.820190,59.551311 
	C295.685150,63.710953 294.436554,67.619675 292.931885,71.427223 
	C292.533813,72.434624 291.346893,73.130302 290.522186,73.969109 
	C289.792664,73.226700 288.713135,72.610931 288.391174,71.721054 
	C286.492737,66.474319 284.770599,61.163788 282.944458,55.476776 
z"/>
<path fill="#7086D3" opacity="1.000000" stroke="none" 
	d="
M324.956757,113.685913 
	C322.279205,115.306778 319.474487,116.594978 316.292664,117.882721 
	C315.483917,112.366608 315.052246,106.850945 314.520355,100.054665 
	C321.238892,103.167725 320.704102,110.092842 324.956757,113.685913 
z"/>
<path fill="#7086D3" opacity="1.000000" stroke="none" 
	d="
M304.938599,62.511101 
	C307.846344,63.210770 310.771820,64.308945 313.887329,65.706268 
	C311.187531,69.875351 308.297668,73.745270 304.852264,78.359154 
	C301.545288,72.081833 303.962555,67.522224 304.938599,62.511101 
z"/>
<path fill="#7186D4" opacity="1.000000" stroke="none" 
	d="
M341.716675,103.013512 
	C339.899292,105.067551 337.757111,106.978424 335.268555,108.885193 
	C333.859894,105.124680 332.797638,101.368256 331.735352,97.611839 
	C332.190857,97.210602 332.646393,96.809364 333.101929,96.408127 
	C335.865265,98.562195 338.628601,100.716270 341.716675,103.013512 
z"/>
<path fill="#7288D4" opacity="1.000000" stroke="none" 
	d="
M320.941193,69.505173 
	C323.245483,70.461685 325.571045,71.810379 327.960938,73.487244 
	C326.388672,75.421562 324.815887,77.101601 323.084106,78.597595 
	C322.387695,79.199181 320.909790,79.948822 320.546082,79.663651 
	C319.788696,79.069824 319.042633,77.758438 319.173004,76.871407 
	C319.520050,74.510071 320.334076,72.217361 320.941193,69.505173 
z"/>
<path fill="#7186D4" opacity="1.000000" stroke="none" 
	d="
M334.116974,78.302948 
	C336.051361,79.011589 337.901031,80.126282 339.890900,81.540680 
	C338.446899,83.607613 336.862732,85.374832 335.156952,87.277687 
	C331.146820,84.577255 333.977631,81.479736 334.116974,78.302948 
z"/>
<path fill="#6F85D3" opacity="1.000000" stroke="none" 
	d="
M307.083008,442.266937 
	C307.479187,442.427429 307.788483,442.916443 308.057495,443.702942 
	C307.676819,443.532074 307.336487,443.063782 307.083008,442.266937 
z"/>
<path fill="#D2DFFF" opacity="1.000000" stroke="none" 
	d="
M125.698059,223.929474 
	C125.852394,224.433121 125.712479,225.101212 125.241257,225.884369 
	C125.074577,225.364273 125.239197,224.729111 125.698059,223.929474 
z"/>
<path fill="#748AD5" opacity="1.000000" stroke="none" 
	d="
M212.282410,312.306885 
	C211.615128,313.861298 211.325653,315.333588 210.439697,316.185822 
	C209.031158,317.540771 207.224701,318.482086 205.586578,319.598358 
	C205.122879,317.512939 204.301010,315.423279 204.325500,313.343597 
	C204.341003,312.028076 205.353256,310.427795 206.400604,309.498840 
	C207.605789,308.429871 209.342697,307.960388 210.848663,307.230530 
	C211.363312,308.802551 211.877975,310.374573 212.282410,312.306885 
z"/>
<path fill="#7186D4" opacity="1.000000" stroke="none" 
	d="
M370.335571,70.542778 
	C373.368896,61.543777 379.847717,56.007633 387.120056,55.905811 
	C395.644867,55.786453 401.298492,62.982716 398.407501,70.998985 
	C397.162415,74.451385 394.715149,77.675049 392.173553,80.406685 
	C388.441772,84.417412 383.708527,86.374702 378.176849,84.016052 
	C372.447449,81.573097 369.931458,77.078064 370.335571,70.542778 
z"/>
<path fill="#7288D4" opacity="1.000000" stroke="none" 
	d="
M342.737976,48.329575 
	C348.677734,47.191555 352.489685,49.770950 355.031616,54.384460 
	C357.270538,58.448086 354.936890,63.448650 350.479370,64.708221 
	C346.754303,65.760826 339.846741,62.428677 338.389496,58.486111 
	C336.790497,54.159958 338.076080,50.638443 342.737976,48.329575 
z"/>
<path fill="#748AD5" opacity="1.000000" stroke="none" 
	d="
M305.400452,43.407204 
	C305.427368,37.461731 307.819031,35.363979 312.408875,36.736897 
	C316.015778,37.815811 318.542480,39.861698 317.243835,43.933304 
	C315.834015,48.353333 312.126312,47.465801 308.916321,46.538246 
	C307.636841,46.168526 306.669037,44.720337 305.400452,43.407204 
z"/>
<path fill="#D2DFFF" opacity="1.000000" stroke="none" 
	d="
M237.019226,377.026184 
	C237.102386,376.983459 237.169312,376.923096 237.100586,376.921082 
	C236.964920,376.979462 237.002960,377.008545 237.019226,377.026184 
z"/>
</svg>