<?xml version="1.0" encoding="UTF-8"?>
<!DOCTYPE svg PUBLIC "-//W3C//DTD SVG 1.1//EN" "http://www.w3.org/Graphics/SVG/1.1/DTD/svg11.dtd">
<svg xmlns="http://www.w3.org/2000/svg" version="1.1" width="512px" height="512px" style="shape-rendering:geometricPrecision; text-rendering:geometricPrecision; image-rendering:optimizeQuality; fill-rule:evenodd; clip-rule:evenodd" xmlns:xlink="http://www.w3.org/1999/xlink">
<g><path style="opacity:1" fill="#f9e0c7" d="M 336.5,18.5 C 343.277,32.9945 348.777,47.9945 353,63.5C 354.938,64.8602 356.604,64.5268 358,62.5C 359.459,47.5066 357.959,32.84 353.5,18.5C 405.176,23.8232 445.509,47.8232 474.5,90.5C 460.829,122.005 438.162,144.839 406.5,159C 397.547,162.762 388.38,165.929 379,168.5C 377.606,167.387 376.439,166.053 375.5,164.5C 400.434,149.268 416.6,127.602 424,99.5C 422.214,96.6384 419.881,95.9717 417,97.5C 404.143,120.025 386.809,138.358 365,152.5C 363.846,151.257 362.512,150.257 361,149.5C 361.325,144.175 361.992,138.841 363,133.5C 363.667,125.833 363.667,118.167 363,110.5C 361.274,109.424 359.441,109.257 357.5,110C 355.162,120.862 352.495,131.695 349.5,142.5C 332.695,137.721 317.362,140.554 303.5,151C 302.167,151.667 300.833,151.667 299.5,151C 280.552,139.06 263.719,124.56 249,107.5C 242.636,98.9806 236.136,90.6472 229.5,82.5C 237.695,76.0396 246.029,69.5396 254.5,63C 261.435,56.5713 267.768,49.738 273.5,42.5C 282.771,68.8756 295.105,93.7089 310.5,117C 314.229,117.783 316.563,116.283 317.5,112.5C 308.617,84.968 301.617,56.968 296.5,28.5C 309.352,23.287 322.685,19.9537 336.5,18.5 Z"/></g>
<g><path style="opacity:1" fill="#d08c73" d="M 353.5,18.5 C 357.959,32.84 359.459,47.5066 358,62.5C 356.604,64.5268 354.938,64.8602 353,63.5C 348.777,47.9945 343.277,32.9945 336.5,18.5C 342.037,17.2383 347.703,17.2383 353.5,18.5 Z"/></g>
<g><path style="opacity:1" fill="#cf8a71" d="M 296.5,28.5 C 301.617,56.968 308.617,84.968 317.5,112.5C 316.563,116.283 314.229,117.783 310.5,117C 295.105,93.7089 282.771,68.8756 273.5,42.5C 274.614,41.1147 275.614,39.6147 276.5,38C 283.072,34.5466 289.738,31.3799 296.5,28.5 Z"/></g>
<g><path style="opacity:1" fill="#d08d74" d="M 354.5,80.5 C 358.158,79.8724 360.658,81.2057 362,84.5C 362.667,87.8333 362.667,91.1667 362,94.5C 359.16,97.3707 356.826,97.0374 355,93.5C 353.254,89.2085 353.087,84.8752 354.5,80.5 Z"/></g>
<g><path style="opacity:1" fill="#ce8a71" d="M 229.5,82.5 C 236.136,90.6472 242.636,98.9806 249,107.5C 263.719,124.56 280.552,139.06 299.5,151C 300.833,151.667 302.167,151.667 303.5,151C 317.362,140.554 332.695,137.721 349.5,142.5C 352.495,131.695 355.162,120.862 357.5,110C 359.441,109.257 361.274,109.424 363,110.5C 363.667,118.167 363.667,125.833 363,133.5C 361.992,138.841 361.325,144.175 361,149.5C 362.512,150.257 363.846,151.257 365,152.5C 386.809,138.358 404.143,120.025 417,97.5C 419.881,95.9717 422.214,96.6384 424,99.5C 416.6,127.602 400.434,149.268 375.5,164.5C 376.439,166.053 377.606,167.387 379,168.5C 388.38,165.929 397.547,162.762 406.5,159C 438.162,144.839 460.829,122.005 474.5,90.5C 478.944,97.0537 482.611,104.054 485.5,111.5C 467.783,142.707 442.116,164.874 408.5,178C 400.79,181.094 392.79,182.927 384.5,183.5C 385.993,190.41 386.659,197.41 386.5,204.5C 417.848,205.628 446.848,214.295 473.5,230.5C 476.165,219.84 479.832,209.506 484.5,199.5C 468.643,196.429 452.643,194.595 436.5,194C 433.007,192.522 432.674,190.522 435.5,188C 452.711,184.54 469.878,184.707 487,188.5C 487.5,188.167 488,187.833 488.5,187.5C 492.631,167.025 493.631,146.359 491.5,125.5C 501.357,151.958 504.191,179.292 500,207.5C 495.037,224.191 493.204,241.191 494.5,258.5C 482.764,272.969 474.431,289.302 469.5,307.5C 458.815,312.01 449.648,318.676 442,327.5C 435.007,337.161 428.841,347.327 423.5,358C 390.87,381.727 355.87,386.227 318.5,371.5C 335.081,364.587 348.748,353.921 359.5,339.5C 363.151,340.165 366.985,340.499 371,340.5C 376.817,340.671 382.483,340.004 388,338.5C 389.338,326.543 389.838,314.543 389.5,302.5C 392.292,302.452 394.125,303.785 395,306.5C 398.194,315.303 400.694,324.303 402.5,333.5C 409.703,329.3 414.703,323.3 417.5,315.5C 410.926,289.46 398.593,266.626 380.5,247C 378.945,245.711 377.279,245.044 375.5,245C 371.745,251.256 367.411,257.09 362.5,262.5C 365.51,269.22 367.51,276.22 368.5,283.5C 359.972,276.852 350.306,274.685 339.5,277C 333.51,278.993 327.51,280.993 321.5,283C 307.817,284.773 296.484,280.44 287.5,270C 282.649,269.826 277.982,269.326 273.5,268.5C 299.462,271.012 322.795,264.512 343.5,249C 363.599,229.925 369.432,207.092 361,180.5C 351.192,159.51 336.026,154.343 315.5,165C 304.515,173.29 301.682,183.79 307,196.5C 311.916,202.615 318.082,204.115 325.5,201C 329.167,198.667 332.167,195.667 334.5,192C 336.701,191.175 338.534,191.675 340,193.5C 342.988,200.786 341.488,206.953 335.5,212C 340.204,217.643 342.037,224.143 341,231.5C 339.951,232.517 338.784,232.684 337.5,232C 334.461,226.27 330.461,221.27 325.5,217C 320.833,216.333 316.167,216.333 311.5,217C 303.297,243.705 285.631,260.205 258.5,266.5C 257.167,266.5 255.833,266.5 254.5,266.5C 245.814,263.49 238.48,258.49 232.5,251.5C 258.021,249.657 279.521,239.324 297,220.5C 298.667,218.167 300.333,215.833 302,213.5C 301.735,210.18 300.069,207.513 297,205.5C 294.905,201.635 292.572,197.968 290,194.5C 261.383,201.286 232.55,202.286 203.5,197.5C 202.053,190.922 201.387,184.255 201.5,177.5C 229.326,186.015 257.659,188.182 286.5,184C 288.517,178.775 290.017,173.275 291,167.5C 292.123,164.751 293.623,162.251 295.5,160C 265.337,149.938 241.003,132.104 222.5,106.5C 225.476,98.5806 227.809,90.5806 229.5,82.5 Z"/></g>
<g><path style="opacity:1" fill="#f9dfc7" d="M 222.5,106.5 C 241.003,132.104 265.337,149.938 295.5,160C 293.623,162.251 292.123,164.751 291,167.5C 290.017,173.275 288.517,178.775 286.5,184C 257.659,188.182 229.326,186.015 201.5,177.5C 203.689,168.424 205.689,159.424 207.5,150.5C 208.254,153.091 209.921,154.924 212.5,156C 225.613,163.155 239.613,166.488 254.5,166C 255.833,164 255.833,162 254.5,160C 236.545,153.696 220.879,143.863 207.5,130.5C 213.357,122.989 218.357,114.989 222.5,106.5 Z"/></g>
<g><path style="opacity:1" fill="#f9e0c7" d="M 485.5,111.5 C 488.458,115.691 490.458,120.358 491.5,125.5C 493.631,146.359 492.631,167.025 488.5,187.5C 488,187.833 487.5,188.167 487,188.5C 469.878,184.707 452.711,184.54 435.5,188C 432.674,190.522 433.007,192.522 436.5,194C 452.643,194.595 468.643,196.429 484.5,199.5C 479.832,209.506 476.165,219.84 473.5,230.5C 446.848,214.295 417.848,205.628 386.5,204.5C 386.659,197.41 385.993,190.41 384.5,183.5C 392.79,182.927 400.79,181.094 408.5,178C 442.116,164.874 467.783,142.707 485.5,111.5 Z"/></g>
<g><path style="opacity:1" fill="#cf8b72" d="M 207.5,130.5 C 220.879,143.863 236.545,153.696 254.5,160C 255.833,162 255.833,164 254.5,166C 239.613,166.488 225.613,163.155 212.5,156C 209.921,154.924 208.254,153.091 207.5,150.5C 207.5,143.833 207.5,137.167 207.5,130.5 Z"/></g>
<g><path style="opacity:1" fill="#f9e0c7" d="M 273.5,268.5 C 268.387,268.569 263.387,267.903 258.5,266.5C 285.631,260.205 303.297,243.705 311.5,217C 316.167,216.333 320.833,216.333 325.5,217C 330.461,221.27 334.461,226.27 337.5,232C 338.784,232.684 339.951,232.517 341,231.5C 342.037,224.143 340.204,217.643 335.5,212C 341.488,206.953 342.988,200.786 340,193.5C 338.534,191.675 336.701,191.175 334.5,192C 332.167,195.667 329.167,198.667 325.5,201C 318.082,204.115 311.916,202.615 307,196.5C 301.682,183.79 304.515,173.29 315.5,165C 336.026,154.343 351.192,159.51 361,180.5C 369.432,207.092 363.599,229.925 343.5,249C 322.795,264.512 299.462,271.012 273.5,268.5 Z"/></g>
<g><path style="opacity:1" fill="#f9dfc7" d="M 232.5,251.5 C 227.105,247.437 222.771,242.437 219.5,236.5C 234.562,233.716 248.395,228.049 261,219.5C 261.717,215.715 260.05,214.049 256,214.5C 240.7,216.327 225.534,217.994 210.5,219.5C 207.393,212.508 205.06,205.175 203.5,197.5C 232.55,202.286 261.383,201.286 290,194.5C 292.572,197.968 294.905,201.635 297,205.5C 300.069,207.513 301.735,210.18 302,213.5C 300.333,215.833 298.667,218.167 297,220.5C 279.521,239.324 258.021,249.657 232.5,251.5 Z"/></g>
<g><path style="opacity:1" fill="#cf8b72" d="M 219.5,236.5 C 215.74,231.316 212.74,225.65 210.5,219.5C 225.534,217.994 240.7,216.327 256,214.5C 260.05,214.049 261.717,215.715 261,219.5C 248.395,228.049 234.562,233.716 219.5,236.5 Z"/></g>
<g><path style="opacity:1" fill="#f9dfc7" d="M 385.5,216.5 C 415.549,221.294 443.549,231.627 469.5,247.5C 465.218,253.668 461.885,260.335 459.5,267.5C 451.414,260.705 442.581,255.038 433,250.5C 429.303,251.926 428.637,254.26 431,257.5C 439.25,265.746 446.75,274.579 453.5,284C 444.55,286.558 436.717,291.058 430,297.5C 419.34,272.189 403.34,250.856 382,233.5C 383.301,227.948 384.468,222.281 385.5,216.5 Z"/></g>
<g><path style="opacity:1" fill="#f9dfc6" d="M 359.5,339.5 C 364.607,331.604 367.774,322.938 369,313.5C 369.783,303.453 369.617,293.453 368.5,283.5C 367.51,276.22 365.51,269.22 362.5,262.5C 367.411,257.09 371.745,251.256 375.5,245C 377.279,245.044 378.945,245.711 380.5,247C 398.593,266.626 410.926,289.46 417.5,315.5C 414.703,323.3 409.703,329.3 402.5,333.5C 400.694,324.303 398.194,315.303 395,306.5C 394.125,303.785 392.292,302.452 389.5,302.5C 389.838,314.543 389.338,326.543 388,338.5C 382.483,340.004 376.817,340.671 371,340.5C 366.985,340.499 363.151,340.165 359.5,339.5 Z"/></g>
<g><path style="opacity:1" fill="#bc334c" d="M 254.5,266.5 C 255.833,266.5 257.167,266.5 258.5,266.5C 263.387,267.903 268.387,268.569 273.5,268.5C 277.982,269.326 282.649,269.826 287.5,270C 296.484,280.44 307.817,284.773 321.5,283C 327.51,280.993 333.51,278.993 339.5,277C 350.306,274.685 359.972,276.852 368.5,283.5C 369.617,293.453 369.783,303.453 369,313.5C 367.774,322.938 364.607,331.604 359.5,339.5C 348.748,353.921 335.081,364.587 318.5,371.5C 295.209,368.152 276.543,375.818 262.5,394.5C 263.893,389.821 265.393,385.154 267,380.5C 268.342,371.757 270.009,363.091 272,354.5C 282.075,335.473 297.909,327.306 319.5,330C 326.411,331.971 333.244,334.137 340,336.5C 344.309,336.203 347.643,334.203 350,330.5C 356.903,320.555 359.903,309.555 359,297.5C 353.839,287.888 346.006,284.721 335.5,288C 324.674,290.159 320.174,296.659 322,307.5C 322.953,309.455 324.287,311.122 326,312.5C 326.483,313.448 326.649,314.448 326.5,315.5C 321.126,316.063 316.959,314.063 314,309.5C 311.701,305.104 310.534,300.438 310.5,295.5C 297.75,296.527 286.417,293.027 276.5,285C 268.167,284.667 259.833,284.333 251.5,284C 246.632,283.116 241.966,281.95 237.5,280.5C 243.719,276.55 249.386,271.883 254.5,266.5 Z"/></g>
<g><path style="opacity:1" fill="#f96382" d="M 237.5,280.5 C 241.966,281.95 246.632,283.116 251.5,284C 259.833,284.333 268.167,284.667 276.5,285C 286.417,293.027 297.75,296.527 310.5,295.5C 310.534,300.438 311.701,305.104 314,309.5C 316.959,314.063 321.126,316.063 326.5,315.5C 326.649,314.448 326.483,313.448 326,312.5C 324.287,311.122 322.953,309.455 322,307.5C 320.174,296.659 324.674,290.159 335.5,288C 346.006,284.721 353.839,287.888 359,297.5C 359.903,309.555 356.903,320.555 350,330.5C 347.643,334.203 344.309,336.203 340,336.5C 333.244,334.137 326.411,331.971 319.5,330C 297.909,327.306 282.075,335.473 272,354.5C 270.009,363.091 268.342,371.757 267,380.5C 265.393,385.154 263.893,389.821 262.5,394.5C 254.425,408.077 243.758,419.243 230.5,428C 228.257,429.136 225.924,429.97 223.5,430.5C 208.141,435.164 194.141,432.664 181.5,423C 177.368,421.1 173.034,420.267 168.5,420.5C 155.99,420.269 143.99,422.602 132.5,427.5C 132.167,427.167 131.833,426.833 131.5,426.5C 141.709,412.06 155.709,404.393 173.5,403.5C 181.688,404.422 189.688,406.256 197.5,409C 205.295,410.218 212.629,408.885 219.5,405C 224.237,401.386 228.403,397.219 232,392.5C 233.608,389.618 234.941,386.618 236,383.5C 236.097,372.775 236.763,362.109 238,351.5C 240.072,344.187 243.572,337.687 248.5,332C 240.724,334.555 233.391,338.221 226.5,343C 214.675,351.331 203.008,359.831 191.5,368.5C 190.833,368.5 190.5,368.833 190.5,369.5C 175.493,375.736 159.826,379.236 143.5,380C 134.137,382.343 125.137,385.677 116.5,390C 98.1662,401.836 79.4995,413.169 60.5,424C 43.5003,430.992 26.5003,431.159 9.5,424.5C 37.1105,415.524 60.7772,400.524 80.5,379.5C 81.1667,379.5 81.5,379.167 81.5,378.5C 90.7324,371.109 100.399,364.275 110.5,358C 121.073,352.419 132.24,348.586 144,346.5C 144.684,345.216 144.517,344.049 143.5,343C 134.225,338.195 124.892,333.695 115.5,329.5C 105.627,324.186 94.9605,321.519 83.5,321.5C 70.4355,322.039 57.6022,324.039 45,327.5C 43.7425,327.15 43.4092,326.483 44,325.5C 72.1318,293.209 104.298,288.709 140.5,312C 152.739,317.202 165.073,317.535 177.5,313C 197.714,302.396 217.714,291.563 237.5,280.5 Z"/></g>
<g><path style="opacity:1" fill="#bd324c" d="M 337.5,296.5 C 343.651,294.844 347.317,297.01 348.5,303C 345.847,311.288 341.347,312.455 335,306.5C 333.861,302.579 334.695,299.246 337.5,296.5 Z"/></g>
<g><path style="opacity:1" fill="#bb324b" d="M 115.5,329.5 C 124.892,333.695 134.225,338.195 143.5,343C 144.517,344.049 144.684,345.216 144,346.5C 132.24,348.586 121.073,352.419 110.5,358C 100.399,364.275 90.7324,371.109 81.5,378.5C 80.8333,378.5 80.5,378.833 80.5,379.5C 66.8191,384.464 52.8191,385.63 38.5,383C 27.9993,380.496 19.6659,374.829 13.5,366C 44.5435,366.874 71.8768,357.207 95.5,337C 101.793,333.404 108.46,330.904 115.5,329.5 Z"/></g>
<g><path style="opacity:1" fill="#bb324b" d="M 173.5,403.5 C 178.112,391.609 183.779,380.276 190.5,369.5C 191.167,369.5 191.5,369.167 191.5,368.5C 203.008,359.831 214.675,351.331 226.5,343C 233.391,338.221 240.724,334.555 248.5,332C 243.572,337.687 240.072,344.187 238,351.5C 236.763,362.109 236.097,372.775 236,383.5C 234.941,386.618 233.608,389.618 232,392.5C 228.403,397.219 224.237,401.386 219.5,405C 212.629,408.885 205.295,410.218 197.5,409C 189.688,406.256 181.688,404.422 173.5,403.5 Z"/></g>
<g><path style="opacity:1" fill="#bb314b" d="M 168.5,420.5 C 173.034,420.267 177.368,421.1 181.5,423C 194.141,432.664 208.141,435.164 223.5,430.5C 213.281,442.276 206.781,455.943 204,471.5C 194.315,493.283 179.148,498.45 158.5,487C 178.201,481.759 185.701,469.259 181,449.5C 167.749,457.541 154.583,465.708 141.5,474C 134.472,477.739 126.972,479.573 119,479.5C 95.7839,475.592 72.4506,474.592 49,476.5C 48.5,476.167 48,475.833 47.5,475.5C 59.8012,465.898 73.8012,460.731 89.5,460C 99.1667,459.667 108.833,459.333 118.5,459C 131.326,454.587 143.326,448.587 154.5,441C 161.043,435.404 165.709,428.571 168.5,420.5 Z"/></g>
</svg>
