<?xml version="1.0" encoding="UTF-8"?>
<svg version="1.1" xmlns="http://www.w3.org/2000/svg" width="512" height="512">
<path d="M0 0 C3.65165411 3.18047293 4.58849745 5.97596561 4.9375 10.6875 C4.2093675 19.27946345 -0.20627239 24.97932864 -5.328125 31.62890625 C-14.2574023 43.41626591 -20.33589966 56.56658341 -25.6875 70.3125 C-31.85996741 85.41031228 -43.58298045 93.82411756 -57.625 101.125 C-59.29091187 102.0056311 -59.29091187 102.0056311 -60.99047852 102.90405273 C-64.02955988 104.50809826 -67.07656974 106.09646535 -70.12609863 107.68054199 C-72.10354417 108.70884359 -74.07885343 109.74115175 -76.05371094 110.77441406 C-94.55638033 120.44879682 -113.20407199 129.72201783 -132.0625 138.6875 C-123.4825 139.3475 -114.9025 140.0075 -106.0625 140.6875 C-104.0825 136.7275 -102.1025 132.7675 -100.0625 128.6875 C-98.4125 129.0175 -96.7625 129.3475 -95.0625 129.6875 C-94.4025 134.6375 -93.7425 139.5875 -93.0625 144.6875 C-91.7425 145.0175 -90.4225 145.3475 -89.0625 145.6875 C-88.15757812 144.62208984 -88.15757812 144.62208984 -87.234375 143.53515625 C-86.43515625 142.61605469 -85.6359375 141.69695312 -84.8125 140.75 C-84.02359375 139.83347656 -83.2346875 138.91695312 -82.421875 137.97265625 C-80.16737212 135.78907316 -79.15082193 134.89930969 -76.0625 134.6875 C-75.7325 135.0175 -75.4025 135.3475 -75.0625 135.6875 C-75.21699757 141.22564367 -76.38579318 146.43381862 -78.0625 151.6875 C-75.75504154 152.0649086 -75.75504154 152.0649086 -73.0625 151.6875 C-70.65261508 149.73246604 -70.65261508 149.73246604 -68.5 147.1875 C-66.24609375 144.65625 -66.24609375 144.65625 -64.0625 142.6875 C-62.7425 142.6875 -61.4225 142.6875 -60.0625 142.6875 C-59.63484583 149.10231258 -61.20506832 154.57345404 -63.0625 160.6875 C-59.24002845 160.30525284 -56.34904255 159.42344221 -53 157.625 C-49.86836825 155.96000577 -47.67717011 155.23566624 -44.0625 155.6875 C-44.34512865 161.1987587 -46.67496906 164.25543486 -49.98046875 168.44140625 C-51.39027302 170.72414781 -51.39027302 170.72414781 -50.23828125 173.46484375 C-49.85027344 174.19832031 -49.46226562 174.93179688 -49.0625 175.6875 C-48.18207031 175.45933594 -47.30164063 175.23117188 -46.39453125 174.99609375 C-45.23308594 174.70863281 -44.07164062 174.42117187 -42.875 174.125 C-41.72644531 173.83496094 -40.57789063 173.54492188 -39.39453125 173.24609375 C-36.17769907 172.70681239 -34.16577217 172.80502524 -31.0625 173.6875 C-31.39526676 176.73439564 -31.64760686 178.28154852 -33.875 180.4609375 C-34.596875 180.98945313 -35.31875 181.51796875 -36.0625 182.0625 C-38.2873705 183.78369369 -38.2873705 183.78369369 -40.0625 185.6875 C-40.18625 186.88375 -40.31 188.08 -40.4375 189.3125 C-40.746875 190.983125 -40.746875 190.983125 -41.0625 192.6875 C-42.9309082 193.93286133 -42.9309082 193.93286133 -45.42578125 195.08203125 C-46.33714844 195.51032227 -47.24851562 195.93861328 -48.1875 196.37988281 C-49.13625 196.81139648 -50.085 197.24291016 -51.0625 197.6875 C-52.81946378 198.51075189 -54.57597652 199.33496708 -56.33203125 200.16015625 C-57.6780542 200.78724487 -57.6780542 200.78724487 -59.05126953 201.42700195 C-81.13905979 211.77575998 -101.78785277 224.22116806 -121.48266602 238.61254883 C-134.07345939 247.8118575 -147.51071695 255.57034898 -161.4375 262.5625 C-162.35966309 263.02809326 -163.28182617 263.49368652 -164.23193359 263.97338867 C-168.23727674 265.9559365 -172.16504377 267.80504442 -176.421875 269.1796875 C-180.05995259 270.39489599 -182.9648554 271.42275682 -186.0625 273.6875 C-188.07328892 277.91531261 -188.85860293 282.13612926 -189.64648438 286.70166016 C-192.43045775 299.99088516 -201.17874197 311.42752505 -209.6875 321.625 C-210.13053467 322.15681885 -210.57356934 322.6886377 -211.0300293 323.23657227 C-218.52170483 331.97109366 -218.52170483 331.97109366 -223.29296875 333.31640625 C-226.38047808 333.21164046 -228.55665291 333.06688532 -231.0625 331.1875 C-233.50934253 325.07039368 -231.79297516 317.40494465 -231.0625 311 C-230.21790491 303.17988969 -229.80395823 295.55866041 -230.0625 287.6875 C-246.10201998 292.33359094 -260.79670329 299.14970921 -273.0625 310.6875 C-273.61421875 311.18636719 -274.1659375 311.68523437 -274.734375 312.19921875 C-279.91318611 317.51511604 -281.17835667 325.59539054 -281.4375 332.75 C-281.09009304 341.91285849 -277.79986081 350.53624783 -272.0625 357.6875 C-262.52604326 366.50910273 -251.33787471 369.88318789 -238.75 371.875 C-237.72108643 372.04080566 -236.69217285 372.20661133 -235.63208008 372.37744141 C-209.48175476 376.59440292 -209.48175476 376.59440292 -185.0625 368.6875 C-179.84741126 364.50581594 -176.02528696 359.09369576 -172.02685547 353.796875 C-167.41719447 347.74013491 -162.32978237 342.17242472 -157.0625 336.6875 C-156.52077148 336.11854004 -155.97904297 335.54958008 -155.42089844 334.96337891 C-135.60380626 314.24653868 -112.86744754 301.49569626 -86.328125 290.96801758 C-78.31838269 287.74267392 -70.68814077 284.14202907 -63.23754883 279.7722168 C-58.30143187 276.96929611 -53.79535726 275.55859303 -48.0625 275.6875 C-42.68964133 277.51224445 -39.58848965 280.63552071 -37.0625 285.6875 C-36.60306779 291.89316412 -37.50932509 295.95900385 -40.375 301.4375 C-40.73400391 302.13069336 -41.09300781 302.82388672 -41.46289062 303.53808594 C-47.88544888 315.36366221 -57.33674154 322.97714552 -68.0625 330.7421875 C-74.00799148 335.06436581 -79.52637648 339.859825 -85.0625 344.6875 C-85.95710938 345.44675781 -86.85171875 346.20601563 -87.7734375 346.98828125 C-101.35154693 358.74901296 -116.69132746 377.0802364 -118.23950195 395.83129883 C-118.80368446 417.12862643 -115.07998413 435.5493081 -100.0625 451.6875 C-98.62570727 452.98263711 -97.16822698 454.25533094 -95.6875 455.5 C-92.71825881 458.00256281 -90.75809846 459.71265167 -90.0625 463.6875 C-90.13331249 467.72381216 -90.3073487 469.8631633 -93.06640625 472.875 C-97.13092013 475.33384542 -100.27659921 475.25406823 -104.9375 475.125 C-105.77885498 475.11106201 -106.62020996 475.09712402 -107.48706055 475.08276367 C-130.59416222 474.41131263 -153.07217543 465.31562653 -170.0625 449.6875 C-170.5481543 449.24422363 -171.03380859 448.80094727 -171.53417969 448.34423828 C-179.84450328 440.67707075 -187.96191757 431.88866485 -193.0625 421.6875 C-194.03123047 421.94273437 -194.03123047 421.94273437 -195.01953125 422.203125 C-249.57784308 436.23453762 -309.56199064 437.94469622 -360.0625 409.6875 C-368.19880183 404.8535795 -375.24118755 399.23039153 -382.0625 392.6875 C-382.92875 391.8625 -383.795 391.0375 -384.6875 390.1875 C-385.863125 388.95 -385.863125 388.95 -387.0625 387.6875 C-387.65417969 387.0790625 -388.24585938 386.470625 -388.85546875 385.84375 C-412.30700788 360.80458249 -417.26806562 327.08386811 -416.2265625 294.21142578 C-414.75086553 262.51468459 -405.0438652 232.19895209 -389.859375 204.4921875 C-386.22596685 196.26358668 -390.9826873 184.16985146 -393.99609375 176.2265625 C-394.26550781 175.57429687 -394.53492188 174.92203125 -394.8125 174.25 C-396.45342774 169.57335594 -397.18151666 165.27934921 -395.18457031 160.65405273 C-393.97292785 158.57922889 -392.67776832 156.60195455 -391.3125 154.625 C-390.42065752 153.28075486 -389.53002083 151.93570892 -388.640625 150.58984375 C-388.20814453 149.94515137 -387.77566406 149.30045898 -387.33007812 148.63623047 C-385.43707675 145.72599608 -383.75056915 142.72050275 -382.0625 139.6875 C-382.64741211 140.09178223 -383.23232422 140.49606445 -383.83496094 140.91259766 C-386.48309408 142.72931573 -389.14725777 144.52098732 -391.8125 146.3125 C-392.73289062 146.94929687 -393.65328125 147.58609375 -394.6015625 148.2421875 C-395.49101562 148.83515625 -396.38046875 149.428125 -397.296875 150.0390625 C-398.11381836 150.59416504 -398.93076172 151.14926758 -399.77246094 151.72119141 C-402.0625 152.6875 -402.0625 152.6875 -404.2512207 152.01171875 C-406.84812624 150.11313193 -407.96016529 147.8718982 -409.5 145.0625 C-411.52679467 141.40991089 -413.57223643 137.87912989 -415.9375 134.4375 C-418.82392311 129.80201918 -419.56811937 125.77915175 -418.6875 120.39453125 C-417.07414478 114.37469957 -414.21377426 111.14797095 -409.0625 107.6875 C-405.83498736 106.15078664 -402.53748497 105.05254204 -399.125 104 C-398.20348145 103.70528809 -397.28196289 103.41057617 -396.33251953 103.10693359 C-388.32198861 100.61794225 -380.36947178 98.8555219 -372.0625 97.6875 C-371.17433594 97.55730469 -370.28617188 97.42710938 -369.37109375 97.29296875 C-355.72044071 95.69077943 -341.76424558 96.45003562 -328.125 97.6875 C-324.9092689 97.94485863 -321.69296965 98.18949123 -318.47558594 98.42529297 C-316.14126279 98.60462509 -313.80849914 98.80518 -311.47753906 99.02392578 C-291.85556585 100.7461085 -279.25894508 97.27187821 -262.61419678 87.01298523 C-255.35619964 82.56651358 -247.75045337 78.83053585 -240.125 75.0625 C-238.6736501 74.34028132 -237.22231544 73.61803202 -235.77099609 72.89575195 C-196.32953122 53.33976642 -38.57523027 -16.53224154 0 0 Z " fill="#E0EAFE" transform="translate(463.0625,19.3125)"/>
<path d="M0 0 C3.65165411 3.18047293 4.58849745 5.97596561 4.9375 10.6875 C4.2093675 19.27946345 -0.20627239 24.97932864 -5.328125 31.62890625 C-14.2574023 43.41626591 -20.33589966 56.56658341 -25.6875 70.3125 C-31.85995621 85.41028488 -43.58298056 93.82416145 -57.625 101.125 C-59.29308716 102.00671875 -59.29308716 102.00671875 -60.99487305 102.90625 C-64.03467564 104.51058365 -67.0823838 106.09928707 -70.13256836 107.68377686 C-72.09716839 108.70553041 -74.05957006 109.73140067 -76.02148438 110.75830078 C-90.85337717 118.51637496 -105.75723365 126.12139614 -120.8125 133.4375 C-121.95887939 133.99759766 -123.10525879 134.55769531 -124.28637695 135.13476562 C-129.51844297 137.65335328 -134.72782968 139.98274339 -140.1796875 141.984375 C-149.24351793 145.38808041 -157.80384127 149.83133596 -166.4375 154.1875 C-167.32101135 154.63124969 -168.20452271 155.07499939 -169.11480713 155.53219604 C-179.49426116 160.74939374 -189.82735545 166.0240577 -199.9375 171.75 C-200.82969238 172.25499023 -201.72188477 172.75998047 -202.64111328 173.28027344 C-206.79579352 175.67343203 -210.82311485 178.16870527 -214.7734375 180.88671875 C-224.11702299 187.23597396 -230.63782892 189.67885813 -241.9375 189.60546875 C-277.35280502 189.51512358 -313.2518515 206.28352008 -339.0625 229.6875 C-340.40054688 230.84572266 -340.40054688 230.84572266 -341.765625 232.02734375 C-356.34393276 244.74982399 -367.51049839 260.32217803 -377.375 276.875 C-377.84921387 277.65222412 -378.32342773 278.42944824 -378.81201172 279.23022461 C-381.48642843 283.85500863 -382.80937882 287.19410158 -382.0625 292.6875 C-380.20145885 294.93879536 -380.20145885 294.93879536 -377.328125 295.12890625 C-373.04505901 294.54997508 -370.85436294 292.47268185 -367.8125 289.625 C-366.66011223 288.60257587 -365.5051475 287.58304909 -364.34765625 286.56640625 C-363.78578613 286.06898926 -363.22391602 285.57157227 -362.64501953 285.05908203 C-354.40455595 277.91700792 -344.60687184 272.84775996 -335.0625 267.6875 C-334.30710937 267.27113281 -333.55171875 266.85476563 -332.7734375 266.42578125 C-331.0625 265.6875 -331.0625 265.6875 -328.0625 265.6875 C-329.60498152 269.15004966 -331.69012825 271.8057172 -334.0625 274.75 C-353.28903774 299.72988864 -361.41016041 332.09986166 -357.55859375 363.265625 C-354.95114323 380.97919702 -348.74622124 400.26682793 -334.0625 411.6875 C-321.37276422 421.05531542 -307.84188826 426.95415811 -292.0625 428.6875 C-292.0625 429.0175 -292.0625 429.3475 -292.0625 429.6875 C-298.38184038 429.84485409 -304.12721057 429.39807413 -310.3125 428.125 C-311.16875977 427.94936523 -312.02501953 427.77373047 -312.90722656 427.59277344 C-338.55739359 422.04502739 -363.12078356 411.15658244 -382.0625 392.6875 C-382.92875 391.8625 -383.795 391.0375 -384.6875 390.1875 C-385.863125 388.95 -385.863125 388.95 -387.0625 387.6875 C-387.65417969 387.0790625 -388.24585938 386.470625 -388.85546875 385.84375 C-412.30700788 360.80458249 -417.26806562 327.08386811 -416.2265625 294.21142578 C-414.75086553 262.51468459 -405.0438652 232.19895209 -389.859375 204.4921875 C-386.22596685 196.26358668 -390.9826873 184.16985146 -393.99609375 176.2265625 C-394.26550781 175.57429687 -394.53492188 174.92203125 -394.8125 174.25 C-396.45342774 169.57335594 -397.18151666 165.27934921 -395.18457031 160.65405273 C-393.97292785 158.57922889 -392.67776832 156.60195455 -391.3125 154.625 C-390.42065752 153.28075486 -389.53002083 151.93570892 -388.640625 150.58984375 C-388.20814453 149.94515137 -387.77566406 149.30045898 -387.33007812 148.63623047 C-385.43707675 145.72599608 -383.75056915 142.72050275 -382.0625 139.6875 C-382.64741211 140.09178223 -383.23232422 140.49606445 -383.83496094 140.91259766 C-386.48309408 142.72931573 -389.14725777 144.52098732 -391.8125 146.3125 C-392.73289062 146.94929687 -393.65328125 147.58609375 -394.6015625 148.2421875 C-395.49101562 148.83515625 -396.38046875 149.428125 -397.296875 150.0390625 C-398.11381836 150.59416504 -398.93076172 151.14926758 -399.77246094 151.72119141 C-402.0625 152.6875 -402.0625 152.6875 -404.2512207 152.01171875 C-406.84812624 150.11313193 -407.96016529 147.8718982 -409.5 145.0625 C-411.52679467 141.40991089 -413.57223643 137.87912989 -415.9375 134.4375 C-418.82392311 129.80201918 -419.56811937 125.77915175 -418.6875 120.39453125 C-417.07414478 114.37469957 -414.21377426 111.14797095 -409.0625 107.6875 C-405.83498736 106.15078664 -402.53748497 105.05254204 -399.125 104 C-398.20348145 103.70528809 -397.28196289 103.41057617 -396.33251953 103.10693359 C-388.32198861 100.61794225 -380.36947178 98.8555219 -372.0625 97.6875 C-371.17433594 97.55730469 -370.28617188 97.42710938 -369.37109375 97.29296875 C-355.72044071 95.69077943 -341.76424558 96.45003562 -328.125 97.6875 C-324.9092689 97.94485863 -321.69296965 98.18949123 -318.47558594 98.42529297 C-316.14126279 98.60462509 -313.80849914 98.80518 -311.47753906 99.02392578 C-291.85556585 100.7461085 -279.25894508 97.27187821 -262.61419678 87.01298523 C-255.35619964 82.56651358 -247.75045337 78.83053585 -240.125 75.0625 C-238.6736501 74.34028132 -237.22231544 73.61803202 -235.77099609 72.89575195 C-196.32953122 53.33976642 -38.57523027 -16.53224154 0 0 Z " fill="#788EB6" transform="translate(463.0625,19.3125)"/>
<path d="M0 0 C3.65671794 2.05979682 6.82742347 4.89598214 8 9 C8.41877798 15.21519697 7.55964114 19.25914194 4.6875 24.75 C4.32849609 25.44319336 3.96949219 26.13638672 3.59960938 26.85058594 C-2.82294888 38.67616221 -12.27424154 46.28964552 -23 54.0546875 C-28.94549148 58.37686581 -34.46387648 63.172325 -40 68 C-40.89460937 68.75925781 -41.78921875 69.51851563 -42.7109375 70.30078125 C-56.28904693 82.06151296 -71.62882746 100.3927364 -73.17700195 119.14379883 C-73.74118446 140.44112643 -70.01748413 158.8618081 -55 175 C-53.56320727 176.29513711 -52.10572698 177.56783094 -50.625 178.8125 C-47.65575881 181.31506281 -45.69559846 183.02515167 -45 187 C-45.07081249 191.03631216 -45.2448487 193.1756633 -48.00390625 196.1875 C-52.06842013 198.64634542 -55.21409921 198.56656823 -59.875 198.4375 C-60.71635498 198.42356201 -61.55770996 198.40962402 -62.42456055 198.39526367 C-85.53166222 197.72381263 -108.00967543 188.62812653 -125 173 C-125.4856543 172.55672363 -125.97130859 172.11344727 -126.47167969 171.65673828 C-134.78200328 163.98957075 -142.89941757 155.20116485 -148 145 C-148.64582031 145.17015625 -149.29164063 145.3403125 -149.95703125 145.515625 C-152.6243651 146.2016151 -155.29750345 146.85828466 -157.97509766 147.50292969 C-159.39924745 147.85252807 -160.82060461 148.21360408 -162.23974609 148.58300781 C-172.61268152 151.26776757 -180.72306602 153.11348877 -191 149 C-192.21300781 148.55785156 -193.42601562 148.11570312 -194.67578125 147.66015625 C-206.74103826 143.16367365 -217.28538168 137.51448184 -227 129 C-227.69996094 128.39542969 -228.39992187 127.79085937 -229.12109375 127.16796875 C-239.50692016 117.55146281 -247.26343077 103.23771576 -248.12475586 88.92724609 C-248.75174389 69.97697226 -245.06583137 56.07177741 -235 40 C-233.8283848 43.5148456 -234.57999207 45.22306959 -235.5078125 48.69921875 C-237.78882505 59.36204724 -234.66678336 69.58160687 -228.91796875 78.609375 C-220.18583466 89.49341993 -206.90124149 93.09665537 -193.6875 95.1875 C-192.14412964 95.4362085 -192.14412964 95.4362085 -190.56958008 95.68994141 C-164.41925476 99.90690292 -164.41925476 99.90690292 -140 92 C-134.78491126 87.81831594 -130.96278696 82.40619576 -126.96435547 77.109375 C-122.35469447 71.05263491 -117.26728237 65.48492472 -112 60 C-111.45827148 59.43104004 -110.91654297 58.86208008 -110.35839844 58.27587891 C-90.53597607 37.55346649 -67.80699556 24.84303944 -41.27880859 14.28051758 C-32.3648023 10.68055886 -23.90942787 6.54336304 -15.5 1.8984375 C-9.94450755 -1.11492113 -6.0724593 -1.5232961 0 0 Z " fill="#485A74" transform="translate(418,296)"/>
<path d="M0 0 C0.71875 2.23828125 0.71875 2.23828125 1 5 C-4.76063131 14.02610546 -16.59184359 20.31988732 -25.734375 25.5703125 C-33.06098 30.1936529 -37.32728695 37.95831273 -40 46 C-40.9815643 50.49285121 -40.24166244 54.13560333 -38.125 58.1875 C-34.69251978 62.90901235 -30.47197021 65.13771371 -25 67 C-20.59582353 67.55486492 -16.30452984 67.47989502 -11.875 67.3125 C-10.72773438 67.28994141 -9.58046875 67.26738281 -8.3984375 67.24414062 C-5.59754886 67.18578878 -2.79950251 67.10398152 0 67 C-2.82270742 69.13239954 -5.69189412 71.1473032 -8.625 73.125 C-23.90505152 83.83005084 -34.65031678 97.13552809 -38.5625 115.6640625 C-40.91796118 133.62445398 -38.74251691 151.71115955 -27.79541016 166.64306641 C-13.67201953 184.30135848 5.73817209 193.04783283 27 199 C27 199.33 27 199.66 27 200 C25.23017066 200.31813686 23.45905373 200.62911009 21.6875 200.9375 C20.70136719 201.11152344 19.71523437 201.28554688 18.69921875 201.46484375 C8.84529113 202.89038555 -0.92184021 203.15843183 -10.86181641 203.13037109 C-13.12799719 203.12499289 -15.3939813 203.13035721 -17.66015625 203.13671875 C-24.83511943 203.13966777 -31.88244827 203.0167931 -39 202 C-39 201.34 -39 200.68 -39 200 C-40.0209375 199.99613281 -40.0209375 199.99613281 -41.0625 199.9921875 C-59.2727813 199.26571351 -75.52860889 189.94787283 -88 177 C-104.19662842 158.10393351 -107.14995845 133.01283604 -106 109 C-103.9882156 83.77980429 -93.90264298 60.54496612 -78 41 C-76.99391568 39.67125167 -75.99152551 38.33964732 -75 37 C-90.62376085 44.63742156 -105.1375102 52.67456705 -117.9375 64.625 C-121 67 -121 67 -124.25 67.5625 C-127 67 -127 67 -128.875 65.9375 C-130.66292818 62.85829036 -130.30437334 60.52152879 -130 57 C-128.86390518 54.11587642 -127.3482729 51.52542747 -125.75 48.875 C-125.35425781 48.18535156 -124.95851563 47.49570312 -124.55078125 46.78515625 C-122.30301325 42.93078686 -119.89479969 39.4126767 -117 36 C-117 36.66 -117 37.32 -117 38 C-107.29567372 36.40912684 -99.83451478 32.27610807 -92.125 26.25 C-73.2083162 12.17058249 -50.59199109 7.08549727 -27.80517578 3.45410156 C-25.12484517 3.02020992 -22.45096776 2.55922671 -19.77734375 2.0859375 C-18.96773193 1.94430176 -18.15812012 1.80266602 -17.32397461 1.65673828 C-15.83071734 1.39539081 -14.33798802 1.13099841 -12.84594727 0.86279297 C-8.48078861 0.11753476 -4.40668159 -0.11475733 0 0 Z " fill="#A7C0E4" transform="translate(210,248)"/>
<path d="M0 0 C13.30379971 1.15350865 26.64299812 1.44635835 39.98803711 1.78637695 C36.98721088 4.08474263 33.8960231 6.09118397 30.65917969 8.04589844 C21.89564415 13.35881146 13.87783328 19.26087731 5.98803711 25.78637695 C5.45114258 26.225625 4.91424805 26.66487305 4.36108398 27.11743164 C-21.15830284 48.03216604 -43.80528355 72.1404985 -59.89086914 101.16137695 C-60.44581055 101.96575195 -60.44581055 101.96575195 -61.01196289 102.78637695 C-61.67196289 102.78637695 -62.33196289 102.78637695 -63.01196289 102.78637695 C-63.17051758 101.79379883 -63.32907227 100.8012207 -63.49243164 99.77856445 C-64.90152185 91.43360764 -66.79266928 83.92117913 -70.02368164 76.06762695 C-71.43113369 71.39466364 -72.10522712 67.29244237 -70.12988281 62.7644043 C-68.92453565 60.68113188 -67.62955267 58.70419306 -66.26196289 56.72387695 C-65.37012041 55.37963182 -64.47948372 54.03458587 -63.59008789 52.6887207 C-63.15760742 52.04402832 -62.72512695 51.39933594 -62.27954102 50.73510742 C-60.38653964 47.82487303 -58.70003204 44.8193797 -57.01196289 41.78637695 C-57.596875 42.19065918 -58.18178711 42.59494141 -58.78442383 43.01147461 C-61.43255697 44.82819269 -64.09672066 46.61986427 -66.76196289 48.41137695 C-67.68235352 49.04817383 -68.60274414 49.6849707 -69.55102539 50.34106445 C-70.44047852 50.9340332 -71.32993164 51.52700195 -72.24633789 52.13793945 C-73.06328125 52.69304199 -73.88022461 53.24814453 -74.72192383 53.82006836 C-77.01196289 54.78637695 -77.01196289 54.78637695 -79.20068359 54.1105957 C-81.79758913 52.21200888 -82.90962818 49.97077516 -84.44946289 47.16137695 C-86.47625756 43.50878784 -88.52169932 39.97800685 -90.88696289 36.53637695 C-93.773386 31.90089614 -94.51758226 27.8780287 -93.63696289 22.4934082 C-92.02360767 16.47357652 -89.16323715 13.2468479 -84.01196289 9.78637695 C-80.78445025 8.24966359 -77.48694786 7.151419 -74.07446289 6.09887695 C-73.15294434 5.80416504 -72.23142578 5.50945312 -71.28198242 5.20581055 C-63.2714515 2.7168192 -55.31893467 0.95439886 -47.01196289 -0.21362305 C-45.6797168 -0.40891602 -45.6797168 -0.40891602 -44.32055664 -0.6081543 C-29.63879709 -2.33136551 -14.66335034 -1.31694189 0 0 Z " fill="#485A75" transform="translate(138.011962890625,117.213623046875)"/>
<path d="M0 0 C-4.37062488 18.35662449 -11.48351773 33.38632099 -23.625 47.9375 C-24.06803467 48.46931885 -24.51106934 49.0011377 -24.9675293 49.54907227 C-32.45920483 58.28359366 -32.45920483 58.28359366 -37.23046875 59.62890625 C-40.31797808 59.52414046 -42.49415291 59.37938532 -45 57.5 C-47.44131055 51.39672361 -45.73215308 43.76492488 -45 37.375 C-44.11453134 29.2007421 -43.75480186 21.2277599 -44 13 C-37.96208624 10.95472471 -31.9180323 8.95974329 -25.8125 7.125 C-21.9925739 5.97067767 -18.22016831 4.7369888 -14.46875 3.37890625 C-13.69684326 3.09966309 -12.92493652 2.82041992 -12.12963867 2.53271484 C-10.60382534 1.97614907 -9.08045434 1.41283412 -7.55981445 0.84228516 C-2.21785632 -1.10892816 -2.21785632 -1.10892816 0 0 Z " fill="#A8C1E5" transform="translate(277,293)"/>
<path d="M0 0 C1.32 0 2.64 0 4 0 C4.14695312 1.8871875 4.14695312 1.8871875 4.296875 3.8125 C5.48333296 17.8325241 7.47043945 31.13202047 13.265625 44.08203125 C14 46 14 46 14 49 C10.15380434 48.75024703 8.40749593 48.38149938 5.55078125 45.70703125 C4.81214844 44.75183594 4.07351563 43.79664063 3.3125 42.8125 C2.19294922 41.39904297 2.19294922 41.39904297 1.05078125 39.95703125 C-4.71340721 31.64562047 -5.8805156 23.95214344 -5 14 C-2.21518987 2.21518987 -2.21518987 2.21518987 0 0 Z " fill="#4A5C77" transform="translate(277,101)"/>
<path d="M0 0 C1.32 0.33 2.64 0.66 4 1 C4.06469482 1.63800537 4.12938965 2.27601074 4.19604492 2.93334961 C6.19678693 24.23160337 6.19678693 24.23160337 13.17578125 44.3125 C14 46 14 46 13.625 48.25 C13.315625 49.11625 13.315625 49.11625 13 50 C7.35995584 48.63271657 4.3087473 44.47468683 1 40 C-0.56451469 37.41179051 -1.83643371 34.78905085 -3 32 C-3.4125 31.030625 -3.825 30.06125 -4.25 29.0625 C-6.52937289 19.75506071 -4.28486325 8.5697265 0 0 Z " fill="#495B77" transform="translate(232,122)"/>
<path d="M0 0 C1.32 0 2.64 0 4 0 C4.05422119 0.64735107 4.10844238 1.29470215 4.16430664 1.96166992 C5.32506352 15.03430521 7.07585169 27.1316528 11.75024414 39.44799805 C12.05438232 40.255354 12.35852051 41.06270996 12.671875 41.89453125 C12.9512793 42.59425049 13.23068359 43.29396973 13.51855469 44.01489258 C14.084734 46.34937736 13.75361075 47.74642615 13 50 C5.74422022 46.76802682 0.10570087 40.17939143 -3.15625 33.02734375 C-6.02097239 22.74882592 -4.51844334 10.91727034 -1 1 C-0.67 0.67 -0.34 0.34 0 0 Z " fill="#495B77" transform="translate(254,112)"/>
<path d="M0 0 C2.4375 1.625 2.4375 1.625 4 4 C4.5625 6.9375 4.5625 6.9375 4 10 C1.70985284 13.0099077 0.20864386 14.69783903 -3.5 15.625 C-7.20864386 14.69783903 -8.70985284 13.0099077 -11 10 C-11.6767545 6.31544773 -11.49791771 4.75683492 -9.4375 1.625 C-6.06489221 -0.62340519 -3.97487617 -0.56783945 0 0 Z " fill="#4A5C77" transform="translate(369,68)"/>
<path d="M0 0 C2 2 2 2 2.5 4.75 C1.88587233 8.74182987 0.59852138 10.2194006 -2.34375 12.86328125 C-4 14 -4 14 -6.6875 14.5625 C-9 14 -9 14 -10.875 12.875 C-12 11 -12 11 -12.0625 8.125 C-10.20024109 2.6477679 -5.98238332 -1.1632412 0 0 Z " fill="#4A5C77" transform="translate(432,49)"/>
<path d="M0 0 C-0.49493467 4.75416122 -1.72123406 7.55220583 -4.5625 11.375 C-5.20316406 12.24898437 -5.84382813 13.12296875 -6.50390625 14.0234375 C-6.99761719 14.67570313 -7.49132812 15.32796875 -8 16 C-9.13199353 15.0919838 -10.25532363 14.17316174 -11.375 13.25 C-12.00148438 12.73953125 -12.62796875 12.2290625 -13.2734375 11.703125 C-15.08312318 9.91800519 -16.00117455 8.32050356 -17 6 C-15.11076602 4.98758753 -13.21330056 3.99052575 -11.3125 3 C-10.25675781 2.443125 -9.20101563 1.88625 -8.11328125 1.3125 C-5.07773738 0.0327726 -3.23973174 -0.28851043 0 0 Z " fill="#B8C9D8" transform="translate(419,175)"/>
<path d="M0 0 C0.40214229 6.16618181 -1.03181664 11.17745757 -3 17 C-6.41321235 17 -7.39472885 16.33132534 -10.1875 14.5 C-10.90292969 14.0359375 -11.61835938 13.571875 -12.35546875 13.09375 C-12.89816406 12.7328125 -13.44085938 12.371875 -14 12 C-12.53823872 8.65452573 -10.67661689 6.3497606 -8.125 3.75 C-7.44695312 3.04359375 -6.76890625 2.3371875 -6.0703125 1.609375 C-4 0 -4 0 0 0 Z " fill="#B9CAD9" transform="translate(403,162)"/>
<path d="M0 0 C0.57492187 0.23976562 1.14984375 0.47953125 1.7421875 0.7265625 C1.26232719 6.29546767 0.44303569 11.39723818 -1.2578125 16.7265625 C-4.98214632 15.5139887 -8.63584056 14.21796271 -12.2578125 12.7265625 C-10.92376531 8.80693932 -9.28427574 6.29682141 -6.3828125 3.3515625 C-5.70476562 2.64257812 -5.02671875 1.93359375 -4.328125 1.203125 C-2.2578125 -0.2734375 -2.2578125 -0.2734375 0 0 Z " fill="#B9C9D8" transform="translate(386.2578125,154.2734375)"/>
<path d="M0 0 C-0.44787324 4.64973854 -2.02185597 6.37027468 -5.5625 9.3125 C-6.80193359 10.35857422 -6.80193359 10.35857422 -8.06640625 11.42578125 C-8.70449219 11.94527344 -9.34257812 12.46476563 -10 13 C-12.90252121 10.18143601 -15.10575711 7.5990615 -17 4 C-17 3.34 -17 2.68 -17 2 C-15.10787298 1.46585888 -13.21108364 0.94821671 -11.3125 0.4375 C-10.25675781 0.14746094 -9.20101563 -0.14257812 -8.11328125 -0.44140625 C-4.99304618 -1.00124767 -3.02306766 -0.84690764 0 0 Z " fill="#B7CAD8" transform="translate(432,193)"/>
<path d="M0 0 C1.65 0.33 3.3 0.66 5 1 C5.33 5.95 5.66 10.9 6 16 C-2.57142857 15 -2.57142857 15 -6 14 C-4.50829734 9.0276578 -2.39542583 4.58154261 0 0 Z " fill="#B9C9D8" transform="translate(363,148)"/>
</svg>
