<?xml version="1.0" encoding="UTF-8"?>
<!DOCTYPE svg PUBLIC "-//W3C//DTD SVG 1.1//EN" "http://www.w3.org/Graphics/SVG/1.1/DTD/svg11.dtd">
<svg xmlns="http://www.w3.org/2000/svg" version="1.1" width="512px" height="512px" style="shape-rendering:geometricPrecision; text-rendering:geometricPrecision; image-rendering:optimizeQuality; fill-rule:evenodd; clip-rule:evenodd" xmlns:xlink="http://www.w3.org/1999/xlink">
<g><path style="opacity:1" fill="#a75c5d" d="M 484.5,183.5 C 481.741,158.666 472.908,136.333 458,116.5C 455.234,113.223 452.067,110.557 448.5,108.5C 447.038,107.542 445.705,106.376 444.5,105C 439.785,104.719 435.118,104.219 430.5,103.5C 430.577,97.8187 428.577,92.9853 424.5,89C 423.207,88.51 421.873,88.3433 420.5,88.5C 420.5,92.5 420.5,96.5 420.5,100.5C 417.416,103.079 414.416,105.913 411.5,109C 408.436,110.859 405.436,112.692 402.5,114.5C 387.269,111.962 371.936,110.295 356.5,109.5C 340.192,110.33 324.025,112.33 308,115.5C 297.617,115.322 287.95,112.655 279,107.5C 276.875,103.606 277.042,99.9394 279.5,96.5C 283.099,95.6561 286.766,95.3227 290.5,95.5C 292.5,95.5 294.5,95.5 296.5,95.5C 299.713,95.81 302.713,95.4767 305.5,94.5C 307.806,94.0074 310.139,93.6741 312.5,93.5C 315.744,92.5371 318.744,91.2038 321.5,89.5C 324.699,88.1009 328.032,87.1009 331.5,86.5C 334.373,86.1977 337.039,85.531 339.5,84.5C 345.817,83.4268 352.15,83.4268 358.5,84.5C 367.159,85.2497 375.826,85.4164 384.5,85C 389.107,84.5614 391.44,82.0614 391.5,77.5C 394.91,77.7819 398.243,78.4486 401.5,79.5C 401.833,79 402.167,78.5 402.5,78C 390.33,68.2334 376.663,62.7334 361.5,61.5C 358.272,60.5863 354.939,60.2529 351.5,60.5C 349.393,59.5318 347.059,59.1984 344.5,59.5C 340.481,59.3542 336.481,59.0209 332.5,58.5C 329.833,57.1667 327.167,57.1667 324.5,58.5C 320.5,58.5 316.5,58.5 312.5,58.5C 310.039,57.469 307.373,56.8023 304.5,56.5C 302.254,55.5448 299.921,54.8782 297.5,54.5C 295.582,51.8621 292.915,50.1954 289.5,49.5C 287.999,48.2485 286.332,47.2485 284.5,46.5C 282.189,43.853 279.856,41.1864 277.5,38.5C 276.221,31.6962 278.888,27.6962 285.5,26.5C 291.416,28.3048 297.416,29.8048 303.5,31C 319.833,31.6667 336.167,31.6667 352.5,31C 362.503,26.3742 373.003,23.8742 384,23.5C 388.236,23.4938 392.402,23.9938 396.5,25C 404.081,28.1238 411.414,31.7905 418.5,36C 427.127,37.829 435.794,39.4956 444.5,41C 458.87,48.0352 470.037,58.5352 478,72.5C 497.374,108.577 499.541,145.577 484.5,183.5 Z"/></g>
<g><path style="opacity:1" fill="#d3e0f1" d="M 277.5,38.5 C 279.856,41.1864 282.189,43.853 284.5,46.5C 281.282,49.5549 278.616,53.0549 276.5,57C 275.216,57.6838 274.049,57.5171 273,56.5C 273.239,50.2122 274.739,44.2122 277.5,38.5 Z"/></g>
<g><path style="opacity:1" fill="#70325d" d="M 381.5,39.5 C 387.499,39.002 389.666,41.6687 388,47.5C 384.119,50.6204 380.119,50.9537 376,48.5C 374.434,43.2592 376.268,40.2592 381.5,39.5 Z"/></g>
<g><path style="opacity:1" fill="#d3def0" d="M 289.5,49.5 C 292.915,50.1954 295.582,51.8621 297.5,54.5C 295.608,57.2765 293.941,60.2765 292.5,63.5C 291.311,64.4287 289.978,64.762 288.5,64.5C 288.503,59.4725 288.836,54.4725 289.5,49.5 Z"/></g>
<g><path style="opacity:1" fill="#d4e2f2" d="M 304.5,56.5 C 307.373,56.8023 310.039,57.469 312.5,58.5C 311.626,61.9188 310.46,65.2522 309,68.5C 307.989,69.3366 306.822,69.67 305.5,69.5C 305.073,65.1756 304.739,60.8422 304.5,56.5 Z"/></g>
<g><path style="opacity:1" fill="#9daaeb" d="M 332.5,58.5 C 330.996,62.3484 329.996,66.3484 329.5,70.5C 328.178,70.67 327.011,70.3366 326,69.5C 324.892,65.9137 324.392,62.247 324.5,58.5C 327.167,57.1667 329.833,57.1667 332.5,58.5 Z"/></g>
<g><path style="opacity:1" fill="#9eaff3" d="M 344.5,59.5 C 347.059,59.1984 349.393,59.5318 351.5,60.5C 350.949,63.8067 350.616,67.1401 350.5,70.5C 349.167,70.5 347.833,70.5 346.5,70.5C 345.417,66.9155 344.751,63.2488 344.5,59.5 Z"/></g>
<g><path style="opacity:1" fill="#71325c" d="M 358.5,84.5 C 365.845,77.5087 366.845,69.842 361.5,61.5C 376.663,62.7334 390.33,68.2334 402.5,78C 402.167,78.5 401.833,79 401.5,79.5C 398.243,78.4486 394.91,77.7819 391.5,77.5C 391.44,82.0614 389.107,84.5614 384.5,85C 375.826,85.4164 367.159,85.2497 358.5,84.5 Z"/></g>
<g><path style="opacity:1" fill="#9faeef" d="M 339.5,84.5 C 337.039,85.531 334.373,86.1977 331.5,86.5C 331.884,81.9627 333.051,77.6293 335,73.5C 336.011,72.6634 337.178,72.33 338.5,72.5C 338.505,76.5341 338.838,80.5341 339.5,84.5 Z"/></g>
<g><path style="opacity:1" fill="#9dadef" d="M 321.5,89.5 C 318.744,91.2038 315.744,92.5371 312.5,93.5C 312.949,87.8075 314.949,82.8075 318.5,78.5C 319.086,78.7093 319.586,79.0426 320,79.5C 320.248,82.9194 320.748,86.2527 321.5,89.5 Z"/></g>
<g><path style="opacity:1" fill="#d4e0f1" d="M 290.5,95.5 C 286.766,95.3227 283.099,95.6561 279.5,96.5C 280.706,91.2215 282.706,86.2215 285.5,81.5C 286.689,80.5713 288.022,80.238 289.5,80.5C 289.221,85.5947 289.555,90.5947 290.5,95.5 Z"/></g>
<g><path style="opacity:1" fill="#d4e0f2" d="M 305.5,94.5 C 302.713,95.4767 299.713,95.81 296.5,95.5C 300.132,76.2199 303.132,75.8866 305.5,94.5 Z"/></g>
<g><path style="opacity:1" fill="#72345d" d="M 430.5,103.5 C 427.037,102.901 423.704,101.901 420.5,100.5C 420.5,96.5 420.5,92.5 420.5,88.5C 421.873,88.3433 423.207,88.51 424.5,89C 428.577,92.9853 430.577,97.8187 430.5,103.5 Z"/></g>
<g><path style="opacity:1" fill="#e09c7d" d="M 420.5,100.5 C 423.704,101.901 427.037,102.901 430.5,103.5C 435.118,104.219 439.785,104.719 444.5,105C 445.705,106.376 447.038,107.542 448.5,108.5C 460.241,121.523 467.074,136.856 469,154.5C 472.128,193.662 462.628,229.328 440.5,261.5C 432.417,272.337 423.417,282.337 413.5,291.5C 405.905,296.422 398.572,301.755 391.5,307.5C 394.329,298.514 396.662,289.514 398.5,280.5C 432.863,246.062 444.363,205.062 433,157.5C 431.629,152.536 429.796,147.869 427.5,143.5C 426.101,140.371 424.435,137.371 422.5,134.5C 418.22,125.553 411.553,118.886 402.5,114.5C 405.436,112.692 408.436,110.859 411.5,109C 414.416,105.913 417.416,103.079 420.5,100.5 Z"/></g>
<g><path style="opacity:1" fill="#74355d" d="M 448.5,108.5 C 452.067,110.557 455.234,113.223 458,116.5C 472.908,136.333 481.741,158.666 484.5,183.5C 474.444,212.298 459.777,238.298 440.5,261.5C 462.628,229.328 472.128,193.662 469,154.5C 467.074,136.856 460.241,121.523 448.5,108.5 Z"/></g>
<g><path style="opacity:1" fill="#ec6975" d="M 379.5,173.5 C 375.481,173.354 371.481,173.021 367.5,172.5C 355.588,168.916 343.255,167.249 330.5,167.5C 330.575,163.103 330.075,158.77 329,154.5C 327.667,153.167 326.333,153.167 325,154.5C 324.077,158.79 323.577,163.123 323.5,167.5C 318.5,167.5 313.5,167.5 308.5,167.5C 306.836,161.345 304.67,155.345 302,149.5C 300.644,148.62 299.144,148.286 297.5,148.5C 298.232,155.476 298.565,162.476 298.5,169.5C 294.825,170.057 291.159,170.724 287.5,171.5C 286.833,171.167 286.167,170.833 285.5,170.5C 281.468,160.103 276.635,150.103 271,140.5C 269.301,139.594 267.467,139.261 265.5,139.5C 265.338,141.527 265.505,143.527 266,145.5C 269.343,154.693 272.176,164.027 274.5,173.5C 270.258,176.462 265.591,177.962 260.5,178C 257.789,174.078 254.955,170.244 252,166.5C 249.833,165 248.333,165.5 247.5,168C 249.309,172.45 250.976,176.95 252.5,181.5C 249.982,184.353 246.815,186.353 243,187.5C 235.9,180.4 228.733,173.233 221.5,166C 218,165.5 216.5,167 217,170.5C 222.245,178.079 227.079,185.912 231.5,194C 227.616,197.527 223.45,200.693 219,203.5C 215.646,201.088 212.146,199.255 208.5,198C 207.483,199.049 207.316,200.216 208,201.5C 209.5,203.833 211,206.167 212.5,208.5C 209.167,212.5 205.5,216.167 201.5,219.5C 198.349,216.85 195.349,214.016 192.5,211C 189.051,211.146 187.885,212.979 189,216.5C 191.416,219.663 193.582,222.996 195.5,226.5C 185.709,238.418 177.709,251.418 171.5,265.5C 168.173,270.827 163.839,275.161 158.5,278.5C 176.171,256.986 184.338,232.319 183,204.5C 191.667,197.162 198,188.162 202,177.5C 206.741,151.425 221.908,134.925 247.5,128C 269.703,122.839 290.37,126.506 309.5,139C 317.928,140.595 326.261,142.595 334.5,145C 337.661,146.413 340.661,148.08 343.5,150C 353.827,160.512 365.827,168.345 379.5,173.5 Z"/></g>
<g><path style="opacity:1" fill="#a75c5d" d="M 422.5,134.5 C 424.435,137.371 426.101,140.371 427.5,143.5C 432.692,172.688 428.859,200.688 416,227.5C 411.736,235.028 406.736,242.028 401,248.5C 400.861,259.245 400.028,269.912 398.5,280.5C 396.662,289.514 394.329,298.514 391.5,307.5C 394.146,311.645 397.813,314.479 402.5,316C 412.538,316.342 422.371,317.842 432,320.5C 437.277,320.308 442.111,318.808 446.5,316C 451.102,314.878 455.768,314.378 460.5,314.5C 463.804,315.494 467.137,316.494 470.5,317.5C 471.631,319.074 471.798,320.741 471,322.5C 467.448,325.719 463.615,328.552 459.5,331C 480.833,342.47 479.499,349.637 455.5,352.5C 462.689,367.972 459.022,371.806 444.5,364C 430.185,357.177 416.185,349.843 402.5,342C 393.635,339.28 384.635,338.78 375.5,340.5C 366.783,340.825 361.45,336.825 359.5,328.5C 359.666,319.161 359.5,309.827 359,300.5C 358.11,293.408 355.61,287.075 351.5,281.5C 347.423,274.587 342.09,268.753 335.5,264C 333.359,263.116 331.693,263.616 330.5,265.5C 333.911,272.101 336.911,278.768 339.5,285.5C 339.5,286.167 339.167,286.5 338.5,286.5C 320.218,291.683 301.552,294.35 282.5,294.5C 282.334,288.158 282.5,281.825 283,275.5C 284.282,271.16 285.449,266.827 286.5,262.5C 281.991,264.165 278.491,267.165 276,271.5C 272.121,278.681 269.955,286.348 269.5,294.5C 270.181,315.968 267.514,336.968 261.5,357.5C 253.498,378.33 241.665,396.663 226,412.5C 219.595,430.618 224.428,445.118 240.5,456C 251.032,458.845 259.865,464.345 267,472.5C 270.371,481.095 267.538,486.095 258.5,487.5C 250.568,485.78 242.568,484.447 234.5,483.5C 225.957,487.453 218.457,486.12 212,479.5C 205.819,458.331 193.819,441.331 176,428.5C 172.459,422.801 171.792,416.801 174,410.5C 174.798,407.107 175.798,403.774 177,400.5C 181.27,392.959 185.27,385.293 189,377.5C 190.028,373.527 190.861,369.527 191.5,365.5C 194.167,347.021 188.167,332.187 173.5,321C 169.551,318.906 165.384,317.406 161,316.5C 150.927,321.787 140.76,326.953 130.5,332C 107.03,340.815 83.697,340.649 60.5,331.5C 31.0907,313.707 16.4241,287.373 16.5,252.5C 17.1711,220.164 29.8378,193.831 54.5,173.5C 48.6863,201.267 51.1863,228.267 62,254.5C 62.941,256.727 64.1077,258.727 65.5,260.5C 80.8599,289.51 104.527,300.01 136.5,292C 144.664,288.756 151.998,284.256 158.5,278.5C 163.839,275.161 168.173,270.827 171.5,265.5C 200.479,226.036 238.146,198.203 284.5,182C 311.593,173.655 339.259,170.488 367.5,172.5C 371.481,173.021 375.481,173.354 379.5,173.5C 409.77,178.577 424.103,165.577 422.5,134.5 Z"/></g>
<g><path style="opacity:1" fill="#b03945" d="M 367.5,172.5 C 339.259,170.488 311.593,173.655 284.5,182C 238.146,198.203 200.479,226.036 171.5,265.5C 177.709,251.418 185.709,238.418 195.5,226.5C 193.582,222.996 191.416,219.663 189,216.5C 187.885,212.979 189.051,211.146 192.5,211C 195.349,214.016 198.349,216.85 201.5,219.5C 205.5,216.167 209.167,212.5 212.5,208.5C 211,206.167 209.5,203.833 208,201.5C 207.316,200.216 207.483,199.049 208.5,198C 212.146,199.255 215.646,201.088 219,203.5C 223.45,200.693 227.616,197.527 231.5,194C 227.079,185.912 222.245,178.079 217,170.5C 216.5,167 218,165.5 221.5,166C 228.733,173.233 235.9,180.4 243,187.5C 246.815,186.353 249.982,184.353 252.5,181.5C 250.976,176.95 249.309,172.45 247.5,168C 248.333,165.5 249.833,165 252,166.5C 254.955,170.244 257.789,174.078 260.5,178C 265.591,177.962 270.258,176.462 274.5,173.5C 272.176,164.027 269.343,154.693 266,145.5C 265.505,143.527 265.338,141.527 265.5,139.5C 267.467,139.261 269.301,139.594 271,140.5C 276.635,150.103 281.468,160.103 285.5,170.5C 286.167,170.833 286.833,171.167 287.5,171.5C 291.159,170.724 294.825,170.057 298.5,169.5C 298.565,162.476 298.232,155.476 297.5,148.5C 299.144,148.286 300.644,148.62 302,149.5C 304.67,155.345 306.836,161.345 308.5,167.5C 313.5,167.5 318.5,167.5 323.5,167.5C 323.577,163.123 324.077,158.79 325,154.5C 326.333,153.167 327.667,153.167 329,154.5C 330.075,158.77 330.575,163.103 330.5,167.5C 343.255,167.249 355.588,168.916 367.5,172.5 Z"/></g>
<g><path style="opacity:1" fill="#f8dec5" d="M 427.5,143.5 C 429.796,147.869 431.629,152.536 433,157.5C 444.363,205.062 432.863,246.062 398.5,280.5C 400.028,269.912 400.861,259.245 401,248.5C 406.736,242.028 411.736,235.028 416,227.5C 428.859,200.688 432.692,172.688 427.5,143.5 Z"/></g>
<g><path style="opacity:1" fill="#72335c" d="M 65.5,260.5 C 64.1077,258.727 62.941,256.727 62,254.5C 51.1863,228.267 48.6863,201.267 54.5,173.5C 75.2083,157.23 98.8749,150.064 125.5,152C 126.833,153.333 126.833,154.667 125.5,156C 89.6173,169.256 68.4506,194.756 62,232.5C 61.1007,242.102 62.2673,251.435 65.5,260.5 Z"/></g>
<g><path style="opacity:1" fill="#b23a47" d="M 237.5,152.5 C 243.153,152.538 245.486,155.205 244.5,160.5C 240.138,161.837 237.472,160.17 236.5,155.5C 236.685,154.416 237.018,153.416 237.5,152.5 Z"/></g>
<g><path style="opacity:1" fill="#71335d" d="M 320.5,185.5 C 324.167,185.5 327.833,185.5 331.5,185.5C 331.5,186.5 331.5,187.5 331.5,188.5C 285.946,203.221 256.446,233.554 243,279.5C 240.89,291.829 238.89,304.162 237,316.5C 233.723,322.109 228.89,323.942 222.5,322C 219.081,316 220.748,312.834 227.5,312.5C 228.996,267.01 247.329,230.176 282.5,202C 294.224,194.047 306.891,188.547 320.5,185.5 Z"/></g>
<g><path style="opacity:1" fill="#72335d" d="M 282.5,294.5 C 278.167,294.5 273.833,294.5 269.5,294.5C 269.955,286.348 272.121,278.681 276,271.5C 278.491,267.165 281.991,264.165 286.5,262.5C 285.449,266.827 284.282,271.16 283,275.5C 282.5,281.825 282.334,288.158 282.5,294.5 Z"/></g>
<g><path style="opacity:1" fill="#71335d" d="M 351.5,281.5 C 347.574,283.031 343.574,284.364 339.5,285.5C 336.911,278.768 333.911,272.101 330.5,265.5C 331.693,263.616 333.359,263.116 335.5,264C 342.09,268.753 347.423,274.587 351.5,281.5 Z"/></g>
<g><path style="opacity:1" fill="#e09c7d" d="M 351.5,281.5 C 355.61,287.075 358.11,293.408 359,300.5C 359.5,309.827 359.666,319.161 359.5,328.5C 355.71,329.895 352.043,331.562 348.5,333.5C 329.528,342.158 309.861,348.824 289.5,353.5C 280.272,355.482 270.939,356.816 261.5,357.5C 267.514,336.968 270.181,315.968 269.5,294.5C 273.833,294.5 278.167,294.5 282.5,294.5C 281.968,302.321 283.468,309.654 287,316.5C 291.792,321.646 297.625,323.479 304.5,322C 310.611,320.341 316.777,318.841 323,317.5C 339.282,312.937 344.449,302.603 338.5,286.5C 339.167,286.5 339.5,286.167 339.5,285.5C 343.574,284.364 347.574,283.031 351.5,281.5 Z"/></g>
<g><path style="opacity:1" fill="#f9dfc6" d="M 338.5,286.5 C 344.449,302.603 339.282,312.937 323,317.5C 316.777,318.841 310.611,320.341 304.5,322C 297.625,323.479 291.792,321.646 287,316.5C 283.468,309.654 281.968,302.321 282.5,294.5C 301.552,294.35 320.218,291.683 338.5,286.5 Z"/></g>
<g><path style="opacity:1" fill="#70325d" d="M 413.5,291.5 C 420.957,293.527 428.624,295.194 436.5,296.5C 441.974,295.509 447.308,294.009 452.5,292C 457.871,291.324 463.204,291.491 468.5,292.5C 468.641,300.879 465.975,308.212 460.5,314.5C 455.768,314.378 451.102,314.878 446.5,316C 442.111,318.808 437.277,320.308 432,320.5C 422.371,317.842 412.538,316.342 402.5,316C 397.813,314.479 394.146,311.645 391.5,307.5C 398.572,301.755 405.905,296.422 413.5,291.5 Z"/></g>
<g><path style="opacity:1" fill="#e09c7e" d="M 191.5,365.5 C 150.221,368.611 111.221,360.778 74.5,342C 69.5863,338.723 64.9197,335.223 60.5,331.5C 83.697,340.649 107.03,340.815 130.5,332C 140.76,326.953 150.927,321.787 161,316.5C 165.384,317.406 169.551,318.906 173.5,321C 188.167,332.187 194.167,347.021 191.5,365.5 Z"/></g>
<g><path style="opacity:1" fill="#72335d" d="M 217.5,332.5 C 221.839,331.846 225.673,332.846 229,335.5C 229.944,338.347 229.444,340.847 227.5,343C 224.5,343.667 221.5,343.667 218.5,343C 214.935,339.784 214.602,336.284 217.5,332.5 Z"/></g>
<g><path style="opacity:1" fill="#6f325c" d="M 348.5,333.5 C 347.921,349.483 343.754,364.483 336,378.5C 330.747,385.007 327.08,392.34 325,400.5C 323.978,409.055 325.644,417.055 330,424.5C 336.007,435.174 343.507,444.674 352.5,453C 358.589,456.252 364.922,458.918 371.5,461C 377.551,465.064 381.218,470.731 382.5,478C 382.189,480.96 380.855,483.294 378.5,485C 371.202,484.516 363.869,484.016 356.5,483.5C 350.724,483.404 345.058,484.071 339.5,485.5C 335.071,484.908 331.905,482.575 330,478.5C 322.525,451.518 306.858,430.851 283,416.5C 279.45,409.097 278.783,401.43 281,393.5C 288.362,381.192 291.196,367.859 289.5,353.5C 309.861,348.824 329.528,342.158 348.5,333.5 Z"/></g>
<g><path style="opacity:1" fill="#71335d" d="M 213.5,351.5 C 216.956,351.596 220.123,352.596 223,354.5C 224.141,362.008 220.974,364.508 213.5,362C 212.584,361.626 211.75,361.126 211,360.5C 209.779,356.718 210.613,353.718 213.5,351.5 Z"/></g>
<g><path style="opacity:1" fill="#72335d" d="M 209.5,370.5 C 216.628,370.706 218.294,373.873 214.5,380C 206.408,380.09 204.741,376.923 209.5,370.5 Z"/></g>
</svg>
