<?xml version="1.0" encoding="UTF-8"?>
<!DOCTYPE svg PUBLIC "-//W3C//DTD SVG 1.1//EN" "http://www.w3.org/Graphics/SVG/1.1/DTD/svg11.dtd">
<svg xmlns="http://www.w3.org/2000/svg" version="1.1" width="512px" height="512px" style="shape-rendering:geometricPrecision; text-rendering:geometricPrecision; image-rendering:optimizeQuality; fill-rule:evenodd; clip-rule:evenodd" xmlns:xlink="http://www.w3.org/1999/xlink">
<g><path style="opacity:1" fill="#d4e1f2" d="M 105.5,81.5 C 103.178,83.664 100.511,85.3307 97.5,86.5C 97.1297,79.2412 97.1297,72.0745 97.5,65C 99.108,64.342 100.275,64.842 101,66.5C 103.211,71.2983 104.711,76.2983 105.5,81.5 Z"/></g>
<g><path style="opacity:1" fill="#d3e0f2" d="M 75.5,101.5 C 72.1053,105.898 68.1053,109.564 63.5,112.5C 62.864,96.7167 61.1974,81.05 58.5,65.5C 59.8221,65.33 60.9887,65.6634 62,66.5C 68.1853,77.5621 72.6853,89.2287 75.5,101.5 Z"/></g>
<g><path style="opacity:1" fill="#3f456b" d="M 113.5,93.5 C 110.5,95.8333 107.833,98.5 105.5,101.5C 99.0562,108.945 93.3895,116.945 88.5,125.5C 85.3768,128.976 83.0435,132.976 81.5,137.5C 71.5547,156.777 65.8881,177.277 64.5,199C 64.9481,207.658 66.2814,216.158 68.5,224.5C 56.9484,203.43 51.6151,180.764 52.5,156.5C 52.4816,145.451 53.1483,134.451 54.5,123.5C 57.1218,119.543 60.1218,115.876 63.5,112.5C 68.1053,109.564 72.1053,105.898 75.5,101.5C 82.2851,95.7181 89.6185,90.7181 97.5,86.5C 100.511,85.3307 103.178,83.664 105.5,81.5C 113.367,78.0693 121.367,74.9026 129.5,72C 133.111,70.7458 134.611,71.9124 134,75.5C 126.677,80.9929 119.843,86.9929 113.5,93.5 Z"/></g>
<g><path style="opacity:1" fill="#ec6975" d="M 280.5,150.5 C 280.357,160.402 278.691,170.068 275.5,179.5C 275,179.833 274.5,180.167 274,180.5C 268.962,178.879 263.795,178.213 258.5,178.5C 257.317,172.435 255.817,166.435 254,160.5C 252.776,157.527 250.776,156.86 248,158.5C 247.5,164.825 247.334,171.158 247.5,177.5C 241.833,177.5 236.167,177.5 230.5,177.5C 229.498,168.82 228.332,160.154 227,151.5C 225.333,150.167 223.667,150.167 222,151.5C 218.926,160.89 217.426,170.556 217.5,180.5C 214.687,180.548 212.021,181.215 209.5,182.5C 204.661,172.003 197.661,163.337 188.5,156.5C 191.646,128.593 204.48,106.593 227,90.5C 246.75,99.9165 262.417,113.916 274,132.5C 276.697,138.435 278.864,144.435 280.5,150.5 Z"/></g>
<g><path style="opacity:1" fill="#9daff2" d="M 113.5,93.5 C 118.893,94.1934 123.893,96.0268 128.5,99C 130,101.167 129.5,102.667 127,103.5C 119.923,101.943 112.757,101.276 105.5,101.5C 107.833,98.5 110.5,95.8333 113.5,93.5 Z"/></g>
<g><path style="opacity:1" fill="#76758e" d="M 54.5,123.5 C 53.1483,134.451 52.4816,145.451 52.5,156.5C 51.6151,180.764 56.9484,203.43 68.5,224.5C 73.9104,233.88 81.9104,239.88 92.5,242.5C 100.617,243.606 108.617,242.772 116.5,240C 134.834,229.502 152.834,218.502 170.5,207C 200.678,189.631 233.012,183.298 267.5,188C 289.296,193.395 308.296,203.728 324.5,219C 333.069,226.9 340.903,235.4 348,244.5C 359.413,260.321 370.08,276.654 380,293.5C 383.397,298.399 387.564,302.399 392.5,305.5C 398.301,311.973 404.968,317.307 412.5,321.5C 409.192,325.097 407.859,329.431 408.5,334.5C 411.813,333.839 414.48,332.006 416.5,329C 418.609,327.354 420.943,326.188 423.5,325.5C 429.853,324.901 435.853,326.068 441.5,329C 446.527,332.694 450.861,337.027 454.5,342C 462.138,342.976 469.805,343.643 477.5,344C 491.946,348.382 495.78,357.215 489,370.5C 486.313,374.194 482.813,376.694 478.5,378C 456.963,379.374 435.463,380.541 414,381.5C 413.601,381.272 413.435,380.938 413.5,380.5C 408.289,371.211 400.623,364.711 390.5,361C 376.527,359.731 363.527,355.564 351.5,348.5C 348.142,365.629 338.476,377.295 322.5,383.5C 316.77,376.973 309.437,373.64 300.5,373.5C 300.238,374.978 300.571,376.311 301.5,377.5C 304.433,378.93 306.933,380.93 309,383.5C 311.548,393.672 312.882,404.006 313,414.5C 314.723,419.613 316.723,424.613 319,429.5C 320.933,437.634 318.1,443.301 310.5,446.5C 300.494,446.666 290.494,446.5 280.5,446C 274.075,444.573 269.908,440.74 268,434.5C 267.667,424.5 267.333,414.5 267,404.5C 264.846,395.887 263.013,387.22 261.5,378.5C 259.58,367.098 262.58,357.265 270.5,349C 277.06,344.229 283.726,339.729 290.5,335.5C 305.695,327.449 312.862,314.783 312,297.5C 297.708,277.529 279.542,262.362 257.5,252C 243.914,251.048 234.414,256.882 229,269.5C 228.5,279.161 228.334,288.828 228.5,298.5C 227.614,314.183 226.448,329.849 225,345.5C 223.192,351.091 221.692,356.758 220.5,362.5C 219.21,363.058 218.377,364.058 218,365.5C 215.354,374.084 213.021,382.751 211,391.5C 209.661,403.075 210.661,414.408 214,425.5C 217.977,435.038 215.477,442.038 206.5,446.5C 195.495,446.667 184.495,446.5 173.5,446C 168.815,444.65 165.315,441.817 163,437.5C 158.75,421.42 156.25,405.087 155.5,388.5C 154.919,379.155 156.419,370.155 160,361.5C 160.5,354.842 160.666,348.175 160.5,341.5C 159.485,333.101 157.985,324.767 156,316.5C 155.5,303.504 155.333,290.504 155.5,277.5C 156.002,272.162 156.169,266.828 156,261.5C 130.836,277.666 103.336,284.499 73.5,282C 40.8595,274.198 22.5262,253.698 18.5,220.5C 20.671,184.299 32.671,151.966 54.5,123.5 Z"/></g>
<g><path style="opacity:1" fill="#9caff2" d="M 88.5,125.5 C 99.602,127.256 109.935,131.09 119.5,137C 121.329,138.113 122.163,139.613 122,141.5C 121.439,142.022 120.772,142.355 120,142.5C 107.393,139.118 94.5592,137.451 81.5,137.5C 83.0435,132.976 85.3768,128.976 88.5,125.5 Z"/></g>
<g><path style="opacity:1" fill="#ec6975" d="M 348.5,199.5 C 345.985,206.541 341.985,212.541 336.5,217.5C 331.873,214.209 327.54,210.542 323.5,206.5C 325.102,202.193 326.602,197.86 328,193.5C 328.777,190.571 328.61,187.737 327.5,185C 325.097,184.37 323.263,185.203 322,187.5C 319.75,191.668 317.25,195.668 314.5,199.5C 309.886,197.206 305.886,194.206 302.5,190.5C 304.137,185.893 306.304,181.56 309,177.5C 309.934,172.917 308.1,171.417 303.5,173C 298.957,177.375 294.624,181.875 290.5,186.5C 288.78,185.066 286.78,184.233 284.5,184C 284.043,183.586 283.709,183.086 283.5,182.5C 288.678,170.56 289.678,158.56 286.5,146.5C 303.703,136.365 322.37,131.532 342.5,132C 343.333,132.833 344.167,133.667 345,134.5C 351.914,155.95 353.08,177.616 348.5,199.5 Z"/></g>
<g><path style="opacity:1" fill="#b13946" d="M 241.5,132.5 C 244.595,132.626 246.428,134.293 247,137.5C 247.667,139.833 247.667,142.167 247,144.5C 243.733,146.988 241.733,145.988 241,141.5C 240.264,138.408 240.431,135.408 241.5,132.5 Z"/></g>
<g><path style="opacity:1" fill="#af3945" d="M 286.5,146.5 C 289.678,158.56 288.678,170.56 283.5,182.5C 283.709,183.086 284.043,183.586 284.5,184C 286.78,184.233 288.78,185.066 290.5,186.5C 294.624,181.875 298.957,177.375 303.5,173C 308.1,171.417 309.934,172.917 309,177.5C 306.304,181.56 304.137,185.893 302.5,190.5C 305.886,194.206 309.886,197.206 314.5,199.5C 317.25,195.668 319.75,191.668 322,187.5C 323.263,185.203 325.097,184.37 327.5,185C 328.61,187.737 328.777,190.571 328,193.5C 326.602,197.86 325.102,202.193 323.5,206.5C 327.54,210.542 331.873,214.209 336.5,217.5C 341.985,212.541 345.985,206.541 348.5,199.5C 351.096,198.735 353.763,198.401 356.5,198.5C 357.043,198.56 357.376,198.893 357.5,199.5C 354.372,209.452 349.539,218.118 343,225.5C 344.333,226.833 345.667,228.167 347,229.5C 350.788,226.507 354.955,225.507 359.5,226.5C 360.641,228.421 360.808,230.421 360,232.5C 357.555,233.977 355.388,235.81 353.5,238C 356.361,240.894 358.861,244.061 361,247.5C 366.202,243.33 371.035,238.83 375.5,234C 377.112,233.28 378.612,233.446 380,234.5C 380.584,237.257 380.25,239.923 379,242.5C 375.992,247.85 372.492,252.85 368.5,257.5C 369.666,260.503 371.333,263.17 373.5,265.5C 380.738,261.924 386.738,256.924 391.5,250.5C 392.833,250.5 394.167,250.5 395.5,250.5C 397.199,250.34 398.866,250.506 400.5,251C 395.5,261.333 387.833,269 377.5,274C 378.889,275.957 380.389,277.79 382,279.5C 401.016,271.152 403.516,274.819 389.5,290.5C 393.148,295.481 397.148,300.147 401.5,304.5C 398.482,304.704 395.482,305.037 392.5,305.5C 387.564,302.399 383.397,298.399 380,293.5C 370.08,276.654 359.413,260.321 348,244.5C 340.903,235.4 333.069,226.9 324.5,219C 308.296,203.728 289.296,193.395 267.5,188C 233.012,183.298 200.678,189.631 170.5,207C 152.834,218.502 134.834,229.502 116.5,240C 108.617,242.772 100.617,243.606 92.5,242.5C 91.3024,239.574 90.3024,236.574 89.5,233.5C 97.2627,235.036 104.929,234.703 112.5,232.5C 111.526,227.936 111.526,223.436 112.5,219C 113.833,218.333 115.167,218.333 116.5,219C 118.365,221.858 120.532,224.358 123,226.5C 125.441,225.365 127.608,223.865 129.5,222C 126.007,214.196 124.007,206.029 123.5,197.5C 126.786,199.451 129.786,201.785 132.5,204.5C 134.356,208.732 136.023,213.065 137.5,217.5C 142.167,214.5 146.833,211.5 151.5,208.5C 152.603,204.759 152.269,201.092 150.5,197.5C 150.98,194.508 152.647,193.341 155.5,194C 157.338,196.886 159.172,199.719 161,202.5C 163.899,200.966 166.733,199.299 169.5,197.5C 170.583,196.635 170.749,195.635 170,194.5C 167.304,188.274 164.47,182.107 161.5,176C 162,174.167 163.167,173 165,172.5C 171.223,177.728 176.389,183.894 180.5,191C 186.772,189.212 193.105,187.379 199.5,185.5C 198.908,182.309 197.741,179.309 196,176.5C 193.259,173.271 190.759,169.938 188.5,166.5C 188.5,163.167 188.5,159.833 188.5,156.5C 197.661,163.337 204.661,172.003 209.5,182.5C 212.021,181.215 214.687,180.548 217.5,180.5C 217.426,170.556 218.926,160.89 222,151.5C 223.667,150.167 225.333,150.167 227,151.5C 228.332,160.154 229.498,168.82 230.5,177.5C 236.167,177.5 241.833,177.5 247.5,177.5C 247.334,171.158 247.5,164.825 248,158.5C 250.776,156.86 252.776,157.527 254,160.5C 255.817,166.435 257.317,172.435 258.5,178.5C 263.795,178.213 268.962,178.879 274,180.5C 274.5,180.167 275,179.833 275.5,179.5C 278.691,170.068 280.357,160.402 280.5,150.5C 282.228,148.774 284.228,147.441 286.5,146.5 Z"/></g>
<g><path style="opacity:1" fill="#ec6975" d="M 188.5,166.5 C 190.759,169.938 193.259,173.271 196,176.5C 197.741,179.309 198.908,182.309 199.5,185.5C 193.105,187.379 186.772,189.212 180.5,191C 176.389,183.894 171.223,177.728 165,172.5C 163.167,173 162,174.167 161.5,176C 164.47,182.107 167.304,188.274 170,194.5C 170.749,195.635 170.583,196.635 169.5,197.5C 166.733,199.299 163.899,200.966 161,202.5C 159.172,199.719 157.338,196.886 155.5,194C 152.647,193.341 150.98,194.508 150.5,197.5C 152.269,201.092 152.603,204.759 151.5,208.5C 146.833,211.5 142.167,214.5 137.5,217.5C 136.023,213.065 134.356,208.732 132.5,204.5C 129.409,185.368 133.075,167.702 143.5,151.5C 160.406,150.691 175.406,155.691 188.5,166.5 Z"/></g>
<g><path style="opacity:1" fill="#b23a46" d="M 316.5,158.5 C 320.955,158.763 322.122,160.763 320,164.5C 314.929,169.162 312.596,168.162 313,161.5C 314.145,160.364 315.312,159.364 316.5,158.5 Z"/></g>
<g><path style="opacity:1" fill="#ea6773" d="M 123.5,197.5 C 124.007,206.029 126.007,214.196 129.5,222C 127.608,223.865 125.441,225.365 123,226.5C 120.532,224.358 118.365,221.858 116.5,219C 115.167,218.333 113.833,218.333 112.5,219C 111.526,223.436 111.526,227.936 112.5,232.5C 104.929,234.703 97.2627,235.036 89.5,233.5C 87.177,218.458 91.0103,205.124 101,193.5C 102.552,192.034 104.386,191.034 106.5,190.5C 112.426,192.252 118.093,194.585 123.5,197.5 Z"/></g>
<g><path style="opacity:1" fill="#ec6975" d="M 356.5,198.5 C 369.489,196.907 382.489,197.74 395.5,201C 396.931,201.465 398.097,202.299 399,203.5C 401.458,220.03 398.958,235.696 391.5,250.5C 386.738,256.924 380.738,261.924 373.5,265.5C 371.333,263.17 369.666,260.503 368.5,257.5C 372.492,252.85 375.992,247.85 379,242.5C 380.25,239.923 380.584,237.257 380,234.5C 378.612,233.446 377.112,233.28 375.5,234C 371.035,238.83 366.202,243.33 361,247.5C 358.861,244.061 356.361,240.894 353.5,238C 355.388,235.81 357.555,233.977 360,232.5C 360.808,230.421 360.641,228.421 359.5,226.5C 354.955,225.507 350.788,226.507 347,229.5C 345.667,228.167 344.333,226.833 343,225.5C 349.539,218.118 354.372,209.452 357.5,199.5C 357.376,198.893 357.043,198.56 356.5,198.5 Z"/></g>
<g><path style="opacity:1" fill="#3f446a" d="M 225.5,199.5 C 232.981,197.494 236.147,200.161 235,207.5C 231.817,209.523 228.317,210.023 224.5,209C 221.753,205.553 222.087,202.386 225.5,199.5 Z"/></g>
<g><path style="opacity:1" fill="#40466b" d="M 275.5,207.5 C 282.718,206.566 286.218,209.566 286,216.5C 281.877,220.328 277.877,219.995 274,215.5C 273.109,212.502 273.609,209.836 275.5,207.5 Z"/></g>
<g><path style="opacity:1" fill="#3f456b" d="M 186.5,214.5 C 194.021,214.39 196.021,217.557 192.5,224C 185.394,228.524 181.894,226.691 182,218.5C 183.667,217.267 185.167,215.933 186.5,214.5 Z"/></g>
<g><path style="opacity:1" fill="#40466c" d="M 244.5,216.5 C 247.941,216.301 251.274,216.801 254.5,218C 256.984,220.284 257.151,222.784 255,225.5C 251.72,227.891 248.22,228.058 244.5,226C 241.914,222.839 241.914,219.672 244.5,216.5 Z"/></g>
<g><path style="opacity:1" fill="#f9e0c7" d="M 18.5,220.5 C 22.5262,253.698 40.8595,274.198 73.5,282C 103.336,284.499 130.836,277.666 156,261.5C 156.169,266.828 156.002,272.162 155.5,277.5C 148.923,287.326 143.923,297.993 140.5,309.5C 124.31,318.786 106.977,324.452 88.5,326.5C 39.157,308.51 15.8237,273.177 18.5,220.5 Z"/></g>
<g><path style="opacity:1" fill="#3f456b" d="M 212.5,220.5 C 219.803,220.602 221.803,223.769 218.5,230C 214.808,232.159 211.308,231.993 208,229.5C 207.333,227.5 207.333,225.5 208,223.5C 209.652,222.601 211.152,221.601 212.5,220.5 Z"/></g>
<g><path style="opacity:1" fill="#40466b" d="M 284.5,228.5 C 291.029,228.857 294.195,232.19 294,238.5C 287.853,242.014 283.686,240.348 281.5,233.5C 282.092,231.577 283.092,229.911 284.5,228.5 Z"/></g>
<g><path style="opacity:1" fill="#3f456b" d="M 311.5,232.5 C 315.664,232.143 318.831,233.81 321,237.5C 321.34,242.822 318.84,244.989 313.5,244C 307.897,240.796 307.23,236.962 311.5,232.5 Z"/></g>
<g><path style="opacity:1" fill="#40466b" d="M 163.5,234.5 C 170.524,234.489 172.524,237.489 169.5,243.5C 162.213,248.78 158.713,247.113 159,238.5C 160.397,236.93 161.897,235.596 163.5,234.5 Z"/></g>
<g><path style="opacity:1" fill="#ea6874" d="M 395.5,250.5 C 404.096,249.231 412.762,249.731 421.5,252C 423.329,252.273 424.829,253.107 426,254.5C 428.063,268.517 425.397,281.517 418,293.5C 413.413,298.596 407.913,302.263 401.5,304.5C 397.148,300.147 393.148,295.481 389.5,290.5C 403.516,274.819 401.016,271.152 382,279.5C 380.389,277.79 378.889,275.957 377.5,274C 387.833,269 395.5,261.333 400.5,251C 398.866,250.506 397.199,250.34 395.5,250.5 Z"/></g>
<g><path style="opacity:1" fill="#f9e0c7" d="M 290.5,335.5 C 277.655,334.245 266.321,329.412 256.5,321C 251.5,316 246.5,311 241.5,306C 237.52,302.845 233.186,300.345 228.5,298.5C 228.334,288.828 228.5,279.161 229,269.5C 234.414,256.882 243.914,251.048 257.5,252C 279.542,262.362 297.708,277.529 312,297.5C 312.862,314.783 305.695,327.449 290.5,335.5 Z"/></g>
<g><path style="opacity:1" fill="#40466b" d="M 332.5,259.5 C 338.02,258.684 341.353,261.017 342.5,266.5C 339.399,272.743 335.566,273.077 331,267.5C 330.109,264.502 330.609,261.836 332.5,259.5 Z"/></g>
<g><path style="opacity:1" fill="#e09c7e" d="M 155.5,277.5 C 155.333,290.504 155.5,303.504 156,316.5C 157.985,324.767 159.485,333.101 160.5,341.5C 145.462,339.729 130.462,337.562 115.5,335C 106.111,333.035 97.1112,330.202 88.5,326.5C 106.977,324.452 124.31,318.786 140.5,309.5C 143.923,297.993 148.923,287.326 155.5,277.5 Z"/></g>
<g><path style="opacity:1" fill="#e09b7d" d="M 228.5,298.5 C 233.186,300.345 237.52,302.845 241.5,306C 246.5,311 251.5,316 256.5,321C 266.321,329.412 277.655,334.245 290.5,335.5C 283.726,339.729 277.06,344.229 270.5,349C 262.58,357.265 259.58,367.098 261.5,378.5C 254.384,376.906 247.384,374.906 240.5,372.5C 234.146,368.657 227.48,365.323 220.5,362.5C 221.692,356.758 223.192,351.091 225,345.5C 226.448,329.849 227.614,314.183 228.5,298.5 Z"/></g>
<g><path style="opacity:1" fill="#3e456a" d="M 412.5,321.5 C 416.395,322.462 420.061,323.796 423.5,325.5C 420.943,326.188 418.609,327.354 416.5,329C 414.48,332.006 411.813,333.839 408.5,334.5C 407.859,329.431 409.192,325.097 412.5,321.5 Z"/></g>
<g><path style="opacity:1" fill="#3f456b" d="M 426.5,341.5 C 433.899,340.405 437.065,343.405 436,350.5C 432.957,352.908 429.791,353.074 426.5,351C 424.006,347.91 424.006,344.744 426.5,341.5 Z"/></g>
<g><path style="opacity:1" fill="#df9b7d" d="M 413.5,380.5 C 391.111,381.424 368.777,383.09 346.5,385.5C 338.826,385.666 331.159,385.5 323.5,385C 322.944,384.617 322.611,384.117 322.5,383.5C 338.476,377.295 348.142,365.629 351.5,348.5C 363.527,355.564 376.527,359.731 390.5,361C 400.623,364.711 408.289,371.211 413.5,380.5 Z"/></g>
<g><path style="opacity:1" fill="#3e446a" d="M 220.5,362.5 C 227.48,365.323 234.146,368.657 240.5,372.5C 234.972,384.504 234.139,396.837 238,409.5C 239.464,415.558 241.13,421.558 243,427.5C 244.548,436.602 241.048,442.768 232.5,446C 223.84,446.5 215.173,446.666 206.5,446.5C 215.477,442.038 217.977,435.038 214,425.5C 210.661,414.408 209.661,403.075 211,391.5C 213.021,382.751 215.354,374.084 218,365.5C 218.377,364.058 219.21,363.058 220.5,362.5 Z"/></g>
<g><path style="opacity:1" fill="#3e446a" d="M 322.5,383.5 C 322.611,384.117 322.944,384.617 323.5,385C 331.159,385.5 338.826,385.666 346.5,385.5C 345.129,392.096 344.129,398.763 343.5,405.5C 344.746,413.075 346.913,420.408 350,427.5C 352.489,436.754 349.323,442.921 340.5,446C 330.506,446.5 320.506,446.666 310.5,446.5C 318.1,443.301 320.933,437.634 319,429.5C 316.723,424.613 314.723,419.613 313,414.5C 312.882,404.006 311.548,393.672 309,383.5C 306.933,380.93 304.433,378.93 301.5,377.5C 300.571,376.311 300.238,374.978 300.5,373.5C 309.437,373.64 316.77,376.973 322.5,383.5 Z"/></g>
</svg>
