<?xml version="1.0" encoding="UTF-8"?>
<svg version="1.1" xmlns="http://www.w3.org/2000/svg" width="512" height="512">
<path d="M0 0 C1.32 0 2.64 0 4 0 C21.61525768 19.3084063 25.80262492 45.9051146 25.15380859 71.03125 C24.19082569 89.61834862 24.19082569 89.61834862 21 96 C22.03125 96.0825 23.0625 96.165 24.125 96.25 C29.39206293 97.26943153 32.4944504 99.75149545 36.5625 103.125 C39.81063397 105.62356459 42.29108223 107.13584402 46.45703125 106.8046875 C51.06548973 105.34640417 52.76494343 101.04891707 55 97 C56.89512948 92.54644572 57.63101205 87.92439327 58.4375 83.171875 C59 81 59 81 61 79 C63.95819882 78.59180698 65.4116144 78.5649437 67.84375 80.36328125 C77.28514605 91.47473556 78.7440477 100.89616247 78 115 C83.11674531 117.36665998 88.25710874 119.46431713 93.5625 121.375 C100.44713111 124.01303622 106.36756718 127.02475021 110.4375 133.375 C112.21993906 137.51025862 112.77228022 140.52151108 113 145 C112.67 145.66 112.34 146.32 112 147 C111.34515625 146.98428955 110.6903125 146.9685791 110.015625 146.95239258 C107.01050669 146.88952066 104.00552737 146.85084512 101 146.8125 C99.97003906 146.78736328 98.94007813 146.76222656 97.87890625 146.73632812 C90.65308693 146.66729163 84.89707652 147.18584054 78.86328125 151.54296875 C74.93920813 155.70426543 71.8099858 160.01454131 69 165 C70.03125 165.474375 71.0625 165.94875 72.125 166.4375 C72.70507812 166.70433594 73.28515625 166.97117188 73.8828125 167.24609375 C79.33622641 169.18799206 85.14783038 169.26643445 90.875 169.5625 C92.050625 169.62727539 92.050625 169.62727539 93.25 169.69335938 C95.16650649 169.79853351 97.08323333 169.89967925 99 170 C100.31956069 175.26004193 99.45143565 178.26836869 97 183 C92.32577067 190.45724087 85.01261357 194.1645135 76.625 196.25 C73.1146832 196.94217514 69.69550943 197.1027625 66.125 197.25 C50.49789356 198.43837311 36.829017 212.82130678 27 224 C20.48066354 231.86771761 14.76755772 240.24763997 9.3125 248.875 C0.71931538 262.39137914 -10.00224412 273.61206694 -25 280 C-25.66 280 -26.32 280 -27 280 C-29.59057546 304.42542575 -27.84971693 327.53879948 -11.9375 347.375 C-10.62874352 348.91984589 -9.31634788 350.46161753 -8 352 C-0.82923247 360.89651241 4.7617377 371.27770322 4 383 C2.48007896 386.18459646 0.71704041 388.73579966 -2 391 C-5.49359977 392.16453326 -8.66422609 392.18064606 -12.30078125 392.203125 C-13.01477585 392.20882507 -13.72877045 392.21452515 -14.46440125 392.22039795 C-15.97486902 392.22983651 -17.48535727 392.23637739 -18.99584961 392.24023438 C-21.29382786 392.24992129 -23.59090414 392.28094606 -25.88867188 392.3125 C-27.35936971 392.31903256 -28.83007392 392.32428204 -30.30078125 392.328125 C-30.98223709 392.3404718 -31.66369293 392.3528186 -32.36579895 392.36553955 C-38.38358179 392.33777843 -42.20279919 390.5112825 -46.75 386.6875 C-50.55707792 382.14015692 -51.23946997 376.97633684 -52.25 371.25 C-54.15976201 362.19525771 -58.3767171 356.14483181 -63.875 348.875 C-70.4447993 339.99757446 -79 326.34822224 -79 315 C-80.14855469 315.39832031 -81.29710937 315.79664063 -82.48046875 316.20703125 C-91.58338136 319.32516687 -100.55448936 322.09754733 -110 324 C-115.78998932 339.54921659 -115.56305074 356.15359768 -109.02734375 371.24609375 C-106.86240532 376.41173753 -106.30836556 380.64995132 -108 386 C-110.56535196 389.24044458 -112.086805 390.69560167 -116 392 C-118.74543048 392.12094407 -121.46469271 392.18812655 -124.2109375 392.203125 C-125.01608795 392.20882507 -125.8212384 392.21452515 -126.65078735 392.22039795 C-128.35376678 392.22983936 -130.0567644 392.23637852 -131.75976562 392.24023438 C-134.35839873 392.24993801 -136.95624003 392.28096784 -139.5546875 392.3125 C-141.21093281 392.31903067 -142.86718377 392.32428089 -144.5234375 392.328125 C-145.29754974 392.3404718 -146.07166199 392.3528186 -146.86923218 392.36553955 C-151.44868835 392.34673119 -154.34215089 391.79891924 -158 389 C-160.28639528 386.67881175 -160.9423556 385.48654615 -161.328125 382.23046875 C-161.30234375 381.22628906 -161.2765625 380.22210938 -161.25 379.1875 C-161.22421875 378.12144531 -161.1984375 377.05539062 -161.171875 375.95703125 C-160.9766852 372.59887945 -160.49279967 369.32639777 -160 366 C-159.54471896 358.13613956 -160.67750643 350.67140666 -162 342.9375 C-163.26227196 335.53018112 -164.25477026 328.52368411 -164 321 C-164.96679688 321.02320313 -165.93359375 321.04640625 -166.9296875 321.0703125 C-174.5655519 321.17615616 -181.55811233 320.96115628 -189 319 C-189.19335938 319.58007812 -189.38671875 320.16015625 -189.5859375 320.7578125 C-189.84632813 321.53898437 -190.10671875 322.32015625 -190.375 323.125 C-190.64828125 323.95386719 -190.9215625 324.78273438 -191.203125 325.63671875 C-191.8036459 327.41767534 -192.45281039 329.18233823 -193.125 330.9375 C-196.90186206 344.15651721 -193.83007136 356.22829492 -188.38867188 368.46875 C-186.1596815 373.68693379 -185.14672667 378.32004388 -186 384 C-187.20703125 386.375 -187.20703125 386.375 -188.8125 388 C-189.59560547 388.8353125 -189.59560547 388.8353125 -190.39453125 389.6875 C-193.71172003 392.39936236 -197.11536947 392.13637715 -201.2121582 392.16113281 C-202.49391434 392.17074036 -203.77567047 392.1803479 -205.0962677 392.19024658 C-206.4977704 392.195095 -207.89927518 392.19937372 -209.30078125 392.203125 C-210.73943584 392.20887936 -212.17809043 392.21463706 -213.616745 392.22039795 C-216.63374183 392.23090039 -219.65071207 392.2367478 -222.66772461 392.24023438 C-226.52457317 392.24571343 -230.38106769 392.26973168 -234.23780537 392.29820633 C-237.2104544 392.31687617 -240.18301896 392.32204064 -243.15572166 392.32357025 C-244.57702759 392.32658821 -245.99833233 392.33458773 -247.41958046 392.34775543 C-249.41286806 392.36490275 -251.40630223 392.36107837 -253.3996582 392.35644531 C-254.53200394 392.36009094 -255.66434967 392.36373657 -256.83100891 392.36749268 C-261.90363739 391.77924431 -265.09879842 389.87918947 -268.71875 386.34765625 C-271.51930556 382.71610518 -272.46924627 378.84256661 -273.5 374.4375 C-275.76137116 365.59841035 -278.70999076 357.25976186 -282.35546875 348.88671875 C-285.06645281 342.62999015 -286.99852602 336.7562125 -288 330 C-289.134375 330.309375 -290.26875 330.61875 -291.4375 330.9375 C-312.08773336 335.9837442 -334.55607792 333.64746927 -353.125 323.25 C-367.32675579 314.3073319 -374.91500837 299.95958268 -379 284 C-382.67201529 265.90907652 -382.06470013 247.09666639 -372.140625 230.98046875 C-363.98156874 219.42180571 -363.98156874 219.42180571 -359 216 C-356.0625 216.0625 -356.0625 216.0625 -354 217 C-354.48069231 220.76542311 -355.08160029 224.33380039 -356.0625 228 C-358.64248539 239.56069791 -357.80188601 251.54116166 -351.90234375 261.93359375 C-348.23897889 266.91328632 -342.67845284 269.10718239 -337 271 C-329.84494365 271.78783111 -324.16731176 270.74707189 -318 267 C-315.22930256 264.81268079 -315.22930256 264.81268079 -313 262 C-312.51917969 261.43539063 -312.03835938 260.87078125 -311.54296875 260.2890625 C-303.47469462 250.28031738 -300.07204994 238.86915088 -298.6875 226.3125 C-294.96114986 195.66686012 -283.72390591 169.67240283 -259 150 C-218.46283836 121.19588905 -164.11863024 127.34790509 -118 135 C-118.33773438 134.49210938 -118.67546875 133.98421875 -119.0234375 133.4609375 C-123.21584726 126.99057099 -125.28512796 121.97127025 -125.125 114.125 C-125.10695313 112.97257812 -125.08890625 111.82015625 -125.0703125 110.6328125 C-125.04710937 109.76398438 -125.02390625 108.89515625 -125 108 C-122.72265625 107.27734375 -122.72265625 107.27734375 -120 107 C-118.18359375 108.44140625 -118.18359375 108.44140625 -116.4375 110.5625 C-107.22649756 120.56301693 -95.58576424 122.23542049 -82.75 123.4375 C-81.54730469 123.57865234 -80.34460938 123.71980469 -79.10546875 123.86523438 C-71.31488039 124.61367698 -71.31488039 124.61367698 -64.53515625 121.24609375 C-63.35262083 120.16859953 -62.17387265 119.0869254 -61 118 C-58.92435102 116.82321469 -56.82108823 115.69314963 -54.6875 114.625 C-52.45815066 113.41700373 -50.22898226 112.20867348 -48 111 C-46.96359375 110.48695313 -45.9271875 109.97390625 -44.859375 109.4453125 C-39.91999626 106.57941628 -37.08485092 104.07060992 -35.46484375 98.546875 C-34.32679678 93.73917844 -33.594153 88.90105153 -33 84 C-32.82710449 82.7404248 -32.65420898 81.48084961 -32.47607422 80.18310547 C-31.6278852 73.36363799 -31.7562795 66.48692816 -31.75 59.625 C-31.74899292 58.86466461 -31.74798584 58.10432922 -31.74694824 57.32095337 C-31.76064413 42.04984181 -33.15505229 28.24114233 -38.23046875 13.69921875 C-39.00277359 10.99027131 -39.1478897 8.79970496 -39 6 C-36.890625 5.6484375 -36.890625 5.6484375 -34 6 C-31.67704957 7.8114199 -29.77008336 9.51827311 -27.75 11.625 C-27.18007324 12.21112061 -26.61014648 12.79724121 -26.02294922 13.40112305 C-16.97568105 22.98725272 -11.29020044 33.77930948 -6.3125 45.89453125 C-5.30556891 48.81978022 -5.30556891 48.81978022 -4 50 C-1.01810676 37.06071328 -0.73741858 24.40775292 -0.93554688 11.20092773 C-0.95423828 9.89583252 -0.97292969 8.5907373 -0.9921875 7.24609375 C-1.01651855 6.06716553 -1.04084961 4.8882373 -1.06591797 3.67358398 C-1 1 -1 1 0 0 Z " fill="#797991" transform="translate(390,60)"/>
<path d="M0 0 C1.32 0 2.64 0 4 0 C21.61525768 19.3084063 25.80262492 45.9051146 25.15380859 71.03125 C24.19082569 89.61834862 24.19082569 89.61834862 21 96 C22.03125 96.0825 23.0625 96.165 24.125 96.25 C29.39206293 97.26943153 32.4944504 99.75149545 36.5625 103.125 C39.81063397 105.62356459 42.29108223 107.13584402 46.45703125 106.8046875 C51.06548973 105.34640417 52.76494343 101.04891707 55 97 C56.89512948 92.54644572 57.63101205 87.92439327 58.4375 83.171875 C59 81 59 81 61 79 C63.95819882 78.59180698 65.4116144 78.5649437 67.84375 80.36328125 C77.28514605 91.47473556 78.7440477 100.89616247 78 115 C83.11674531 117.36665998 88.25710874 119.46431713 93.5625 121.375 C100.44713111 124.01303622 106.36756718 127.02475021 110.4375 133.375 C112.21993906 137.51025862 112.77228022 140.52151108 113 145 C112.67 145.66 112.34 146.32 112 147 C111.34515625 146.98428955 110.6903125 146.9685791 110.015625 146.95239258 C107.01050669 146.88952066 104.00552737 146.85084512 101 146.8125 C99.97003906 146.78736328 98.94007813 146.76222656 97.87890625 146.73632812 C90.65308693 146.66729163 84.89707652 147.18584054 78.86328125 151.54296875 C74.93920813 155.70426543 71.8099858 160.01454131 69 165 C70.03125 165.474375 71.0625 165.94875 72.125 166.4375 C72.70507812 166.70433594 73.28515625 166.97117188 73.8828125 167.24609375 C79.33622641 169.18799206 85.14783038 169.26643445 90.875 169.5625 C92.050625 169.62727539 92.050625 169.62727539 93.25 169.69335938 C95.16650649 169.79853351 97.08323333 169.89967925 99 170 C100.31956069 175.26004193 99.45143565 178.26836869 97 183 C92.32577067 190.45724087 85.01261357 194.1645135 76.625 196.25 C73.1146832 196.94217514 69.69550943 197.1027625 66.125 197.25 C50.49789356 198.43837311 36.829017 212.82130678 27 224 C20.48066354 231.86771761 14.76755772 240.24763997 9.3125 248.875 C0.02797824 263.47879612 -11.99786773 275.66595591 -28.75 281.25 C-39.87068346 285.29784173 -49.1690638 294.21501055 -58.06640625 301.75 C-62.22659996 305.05659025 -62.22659996 305.05659025 -65.5625 304.8125 C-71.2838325 300.55817583 -75.65951206 294.03206788 -77 287 C-77.86302187 278.4081378 -77.32184011 270.59486184 -74.8125 262.3125 C-74.6165625 261.65378906 -74.420625 260.99507813 -74.21875 260.31640625 C-71.14648059 251.19383941 -62.75515456 246.38026989 -54.55078125 242.2734375 C-53.32572115 241.68187665 -52.10045802 241.0907361 -50.875 240.5 C-34.11624985 232.26216095 -26.24828906 216.03635063 -20 199 C-19.27773168 196.16292845 -19.27773168 196.16292845 -19 194 C-20.07084839 194.4954834 -20.07084839 194.4954834 -21.16333008 195.00097656 C-24.19263335 196.06784196 -26.19998545 196.15373593 -29.38671875 195.984375 C-30.9190918 195.93410156 -30.9190918 195.93410156 -32.48242188 195.8828125 C-34.60035276 195.79504937 -36.71768399 195.69116888 -38.83398438 195.5703125 C-46.94023526 195.34669179 -51.43829804 197.42626016 -58 202 C-64.46652346 205.35892026 -70.77895471 205.60079097 -78 205 C-79 204 -79 204 -79.25 201 C-79.22547369 197.03491263 -78.01841585 193.76608056 -76.55859375 190.11328125 C-75.89104384 187.58779522 -75.96906787 186.3956899 -77 184 C-78.61796734 182.40407064 -78.61796734 182.40407064 -80.6875 181.1875 C-81.35136719 180.74792969 -82.01523437 180.30835938 -82.69921875 179.85546875 C-85.79883512 178.70297981 -87.78557205 179.32999517 -91 180 C-104.16647973 180.96186259 -113.92697174 178.65876354 -124 170 C-124 167.6875 -124 167.6875 -123 165 C-119.5 163.4375 -119.5 163.4375 -117.3359375 162.75 C-114.85361519 161.9530002 -112.51072382 160.98752731 -110.125 159.9375 C-109.01511719 159.45603516 -109.01511719 159.45603516 -107.8828125 158.96484375 C-105.82980245 158.03434381 -105.82980245 158.03434381 -104 156 C-105.84097764 146.98745274 -108.0127962 142.13261679 -115.58984375 136.83203125 C-120.83080456 132.84822149 -123.27593398 127.22494632 -125 121 C-125.1953125 117.5703125 -125.1953125 117.5703125 -125.125 114.125 C-125.10695313 112.97257812 -125.08890625 111.82015625 -125.0703125 110.6328125 C-125.03550781 109.32957031 -125.03550781 109.32957031 -125 108 C-122.72265625 107.27734375 -122.72265625 107.27734375 -120 107 C-118.18359375 108.44140625 -118.18359375 108.44140625 -116.4375 110.5625 C-107.22649756 120.56301693 -95.58576424 122.23542049 -82.75 123.4375 C-81.54730469 123.57865234 -80.34460938 123.71980469 -79.10546875 123.86523438 C-71.31488039 124.61367698 -71.31488039 124.61367698 -64.53515625 121.24609375 C-63.35262083 120.16859953 -62.17387265 119.0869254 -61 118 C-58.92435102 116.82321469 -56.82108823 115.69314963 -54.6875 114.625 C-52.45815066 113.41700373 -50.22898226 112.20867348 -48 111 C-46.96359375 110.48695313 -45.9271875 109.97390625 -44.859375 109.4453125 C-39.91999626 106.57941628 -37.08485092 104.07060992 -35.46484375 98.546875 C-34.32679678 93.73917844 -33.594153 88.90105153 -33 84 C-32.74065674 82.11063721 -32.74065674 82.11063721 -32.47607422 80.18310547 C-31.6278852 73.36363799 -31.7562795 66.48692816 -31.75 59.625 C-31.74899292 58.86466461 -31.74798584 58.10432922 -31.74694824 57.32095337 C-31.76064413 42.04984181 -33.15505229 28.24114233 -38.23046875 13.69921875 C-39.00277359 10.99027131 -39.1478897 8.79970496 -39 6 C-36.890625 5.6484375 -36.890625 5.6484375 -34 6 C-31.67704957 7.8114199 -29.77008336 9.51827311 -27.75 11.625 C-27.18007324 12.21112061 -26.61014648 12.79724121 -26.02294922 13.40112305 C-16.97568105 22.98725272 -11.29020044 33.77930948 -6.3125 45.89453125 C-5.30556891 48.81978022 -5.30556891 48.81978022 -4 50 C-1.01810676 37.06071328 -0.73741858 24.40775292 -0.93554688 11.20092773 C-0.96358398 9.24328491 -0.96358398 9.24328491 -0.9921875 7.24609375 C-1.01651855 6.06716553 -1.04084961 4.8882373 -1.06591797 3.67358398 C-1 1 -1 1 0 0 Z " fill="#797991" transform="translate(390,60)"/>
<path d="M0 0 C-0.22854073 2.36871616 -0.4632089 4.7366046 -0.70507812 7.10400391 C-0.89431598 8.96223189 -1.07597851 10.82125593 -1.24804688 12.68115234 C-2.90353623 29.03364117 -2.90353623 29.03364117 -7.76953125 33.59765625 C-11.0625 35.25 -11.0625 35.25 -14.55859375 36.625 C-33.31886182 44.12058951 -47.28601327 66.42469362 -57.6875 82.875 C-66.97202176 97.47879612 -78.99786773 109.66595591 -95.75 115.25 C-106.87068346 119.29784173 -116.1690638 128.21501055 -125.06640625 135.75 C-129.22659996 139.05659025 -129.22659996 139.05659025 -132.5625 138.8125 C-138.2838325 134.55817583 -142.65951206 128.03206788 -144 121 C-144.86302187 112.4081378 -144.32184011 104.59486184 -141.8125 96.3125 C-141.6165625 95.65378906 -141.420625 94.99507813 -141.21875 94.31640625 C-138.14648059 85.19383941 -129.75515456 80.38026989 -121.55078125 76.2734375 C-120.32572115 75.68187665 -119.10045802 75.0907361 -117.875 74.5 C-106.2827724 68.80178836 -99.86320847 60.60870708 -94.07202148 49.16650391 C-91.60093028 44.36164032 -88.88900823 42.02405575 -84.4375 39.25 C-81.01673182 37.04083351 -77.86672149 34.91295894 -75 32 C-72.05770416 32.10145848 -70.91910702 33.07190487 -68.71484375 35.03125 C-63.63820432 38.45200978 -57.24022601 37.53360043 -51.375 37.4375 C-49.53421875 37.44813477 -49.53421875 37.44813477 -47.65625 37.45898438 C-40.15551719 37.7110982 -40.15551719 37.7110982 -34 34 C-33.30210731 31.45308691 -33.30210731 31.45308691 -33.125 28.5625 C-31.90345591 19.65495723 -28.22564869 10.6772954 -21 5 C-20.46117187 4.53851563 -19.92234375 4.07703125 -19.3671875 3.6015625 C-13.33116125 -0.96965403 -7.31244471 -0.50161587 0 0 Z " fill="#FBE1CA" transform="translate(457,226)"/>
<path d="M0 0 C-0.0721875 0.680625 -0.144375 1.36125 -0.21875 2.0625 C-2.49342077 25.82017249 -0.36595966 48.14185223 15.0625 67.375 C16.37125648 68.91984589 17.68365212 70.46161753 19 72 C26.17076753 80.89651241 31.7617377 91.27770322 31 103 C29.48007896 106.18459646 27.71704041 108.73579966 25 111 C21.50640023 112.16453326 18.33577391 112.18064606 14.69921875 112.203125 C13.62822685 112.21167511 13.62822685 112.21167511 12.53559875 112.22039795 C11.02513098 112.22983651 9.51464273 112.23637739 8.00415039 112.24023438 C5.70617214 112.24992129 3.40909586 112.28094606 1.11132812 112.3125 C-0.35936971 112.31903256 -1.83007392 112.32428204 -3.30078125 112.328125 C-4.32296501 112.3466452 -4.32296501 112.3466452 -5.36579895 112.36553955 C-11.38358179 112.33777843 -15.20279919 110.5112825 -19.75 106.6875 C-23.55707792 102.14015692 -24.23946997 96.97633684 -25.25 91.25 C-27.15976201 82.19525771 -31.3767171 76.14483181 -36.875 68.875 C-43.20203448 60.32560983 -52.13243641 46.47593032 -51.9609375 35.5 C-50.56178956 31.85994031 -47.88132511 30.83937271 -44.5625 29.1875 C-38.08706984 25.73142454 -32.63250587 21.71819405 -27 17 C-5.87716535 0 -5.87716535 0 0 0 Z " fill="#40486E" transform="translate(363,340)"/>
<path d="M0 0 C1.32 0 2.64 0 4 0 C21.62731603 19.32162367 25.80145134 45.92169967 25.140625 71.06201172 C24.91942126 75.68348008 24.40945259 80.23461142 23.75 84.8125 C23.64075195 85.60495117 23.53150391 86.39740234 23.41894531 87.21386719 C22.39699408 93.54674607 20.65265412 100.42772934 15.9375 105 C9.3283065 108.41119665 0.28808891 107.85022036 -7 107 C-10.92075312 105.59898422 -14.06389714 103.87220572 -16 100 C-16.04022391 97.6670134 -16.04320247 95.33293334 -16 93 C-23.17428773 93.96321456 -27.49548149 96.41705246 -33 101 C-34.485 101.99 -34.485 101.99 -36 103 C-35.4676462 98.35870182 -34.77012084 93.85088702 -33.84423828 89.26928711 C-29.22290955 64.90606367 -30.0501273 37.13727571 -38.23046875 13.69921875 C-39.00277359 10.99027131 -39.1478897 8.79970496 -39 6 C-36.890625 5.6484375 -36.890625 5.6484375 -34 6 C-31.67704957 7.8114199 -29.77008336 9.51827311 -27.75 11.625 C-26.89510986 12.50418091 -26.89510986 12.50418091 -26.02294922 13.40112305 C-16.97568105 22.98725272 -11.29020044 33.77930948 -6.3125 45.89453125 C-5.30556891 48.81978022 -5.30556891 48.81978022 -4 50 C-1.01810676 37.06071328 -0.73741858 24.40775292 -0.93554688 11.20092773 C-0.96358398 9.24328491 -0.96358398 9.24328491 -0.9921875 7.24609375 C-1.01651855 6.06716553 -1.04084961 4.8882373 -1.06591797 3.67358398 C-1 1 -1 1 0 0 Z " fill="#A0B1F6" transform="translate(390,60)"/>
<path d="M0 0 C9.93918957 -0.21496975 20.43309836 0.91555669 28.22265625 7.6171875 C31.79474455 12.40614105 32.85594768 18.23173622 34 24 C27.87314903 27.7441867 21.95365789 30.21440518 15 32 C14.67 33.65 14.34 35.3 14 37 C24.60658532 44.74807296 32.80587995 46.80433088 46 46 C47.01964844 45.75894531 48.03929687 45.51789063 49.08984375 45.26953125 C52.97425186 44.90976728 54.33004469 46.09206145 57.375 48.4375 C58.24898438 49.09621094 59.12296875 49.75492188 60.0234375 50.43359375 C61.00183594 51.20896484 61.00183594 51.20896484 62 52 C61.68950274 53.43793392 61.3765224 54.8753318 61.0625 56.3125 C60.88847656 57.11300781 60.71445312 57.91351563 60.53515625 58.73828125 C60 61 60 61 59 64 C58.96045766 66.33299825 58.95598268 68.66708189 59 71 C68.93048588 71.98213597 76.31928779 69.59764526 85 65 C85.61053223 64.47647949 86.22106445 63.95295898 86.85009766 63.41357422 C89.57924759 61.61914109 91.18742505 61.67990474 94.4296875 61.77734375 C95.47253906 61.79603516 96.51539063 61.81472656 97.58984375 61.83398438 C98.67394531 61.86814453 99.75804687 61.90230469 100.875 61.9375 C110.14524589 62.38774876 110.14524589 62.38774876 119 60 C118.02824388 66.53020112 116.70280985 72.44196789 113 78 C108.94032347 80.85366383 104.67942468 82.41554469 100 84 C99.00226563 84.38671875 98.00453125 84.7734375 96.9765625 85.171875 C84.82555288 89.6674228 72.88048903 90.1782623 60.0625 90.25 C58.88872803 90.2593457 57.71495605 90.26869141 56.50561523 90.27832031 C50.62385237 90.2564096 45.54148516 90.03268451 40 88 C38.49154252 82.21757966 39.54639363 79.09764408 41.94140625 73.7109375 C43.67077212 69.28222934 44.32267038 64.68783398 45 60 C44.07960938 60.05800781 43.15921875 60.11601562 42.2109375 60.17578125 C27.68312853 60.69357485 16.08217413 56.7148929 5 47 C0.4609531 42.56257355 -3.41488545 37.81650774 -6 32 C-5.75 28.5625 -5.75 28.5625 -5 26 C2 23.66666667 9 21.33333333 16 19 C15.319375 18.319375 14.63875 17.63875 13.9375 16.9375 C13.48375 16.47988281 13.03 16.02226562 12.5625 15.55078125 C11.47361311 14.47006101 10.36797706 13.40606773 9.25 12.35546875 C5.24407535 8.53084672 2.519285 4.93779861 0 0 Z " fill="#41486F" transform="translate(253,193)"/>
<path d="M0 0 C2.15302558 2.15302558 2.93732602 3.86864372 4.1875 6.625 C9.96481743 18.22972721 18.95792695 24.45665376 31 29 C30.37695602 32.61495307 29.36569295 35.78833042 28 39.1875 C22.83333867 53.31096472 25.64989354 66.05847339 31.61132812 79.46875 C33.8403185 84.68693379 34.85327333 89.32004388 34 95 C32.79296875 97.375 32.79296875 97.375 31.1875 99 C30.66542969 99.556875 30.14335937 100.11375 29.60546875 100.6875 C26.05639384 103.5889335 22.03633824 103.1303013 17.70703125 103.09765625 C16.64798836 103.09553383 16.64798836 103.09553383 15.56755066 103.09336853 C13.31582374 103.08777764 11.06419679 103.07522688 8.8125 103.0625 C7.28450665 103.05748382 5.75651173 103.05292112 4.22851562 103.04882812 C0.48563865 103.0378112 -3.25716373 103.02055287 -7 103 C-5.47011867 101.46584526 -3.93681318 99.93924345 -2.375 98.4375 C0.44558282 95.48870887 0.26694484 92.63674934 0.22265625 88.67529297 C-0.19467155 83.66095307 -1.68049371 78.90168314 -3 74.0625 C-6.83108959 58.97938297 -7.64051204 46.23905457 -2.97265625 31.33203125 C-0.93483215 24.35105151 -0.73851059 17.2818196 -0.4375 10.0625 C-0.39431641 9.09248047 -0.35113281 8.12246094 -0.30664062 7.12304688 C-0.20137907 4.74881399 -0.09924293 2.37449079 0 0 Z " fill="#40486F" transform="translate(170,349)"/>
<path d="M0 0 C1.76816669 3.16765181 2.55860763 6.14929347 3.3125 9.6875 C5.92000316 20.404338 11.39653057 29.31764774 20.8125 35.25 C25.37933462 37.83695314 29.96615348 39.56911111 35 41 C35.99 41.33 36.98 41.66 38 42 C54.89449785 43.15534122 72.63422185 40.15297179 86.20703125 29.22265625 C86.79871094 28.81917969 87.39039062 28.41570312 88 28 C89.485 28.495 89.485 28.495 91 29 C93.39227481 41.3244872 93.21003783 53.49790204 93 66 C71.00939132 71.6233781 47.9501752 70.49087959 27.875 59.25 C13.68416706 50.31420989 6.0633924 35.95745193 2 20 C0.70471305 13.31333545 -0.11272887 6.81497254 0 0 Z " fill="#E19F83" transform="translate(9,324)"/>
<path d="M0 0 C0.99 0.33 1.98 0.66 3 1 C4.17578125 3.44140625 4.17578125 3.44140625 5.3125 6.5625 C8.8750326 15.49003706 13.12375893 21.88831399 22 26 C32.8432057 30.53227553 43.34944587 32.10585667 55 33 C54.859375 34.859375 54.859375 34.859375 54 37 C45.9482308 41.10184469 36.87881519 41.81937629 28 41 C27.34 40.67 26.68 40.34 26 40 C29.0151939 45.10263583 32.14222037 48.96617057 38.171875 50.58203125 C54.69923366 53.0246105 69.86063063 50.20631258 83.734375 40.71484375 C85.69427811 39.23139985 87.54148141 37.6969244 89.375 36.0625 C92 34 92 34 94.875 33.6875 C95.57625 33.790625 96.2775 33.89375 97 34 C93.80327781 42.50476787 88.64989493 48.7047612 82.05078125 54.859375 C79.86570588 56.91220272 79.86570588 56.91220272 78.73046875 59.703125 C77 62 77 62 73.3828125 62.796875 C71.92334659 62.89111973 70.46189809 62.95784829 69 63 C68.29584961 63.03673828 67.59169922 63.07347656 66.86621094 63.11132812 C55.1925729 63.6014228 43.60835879 62.7691057 32 61.625 C30.69401855 61.49899414 29.38803711 61.37298828 28.04248047 61.24316406 C16.88039001 60.07128338 16.88039001 60.07128338 13 58 C12.11357141 55.27872622 11.57092025 52.92269952 11.125 50.125 C9.4609819 41.30525554 6.76973985 33.13123963 3.68359375 24.71875 C0.75446263 16.64967908 -1.5497864 9.65913577 -1 1 C-0.67 0.67 -0.34 0.34 0 0 Z " fill="#41496F" transform="translate(156,285)"/>
<path d="M0 0 C1.32 0 2.64 0 4 0 C14.99386434 12.05057589 21.02141436 28.22452792 24 44 C24.34998047 45.79630859 24.34998047 45.79630859 24.70703125 47.62890625 C26.04240526 57.3456521 23.26842302 64.09736547 18 72 C12.81410122 78.62642622 6.90560601 82.364798 -1 85 C-3.22818441 85.06937062 -5.45834524 85.08457084 -7.6875 85.0625 C-8.86699219 85.05347656 -10.04648437 85.04445313 -11.26171875 85.03515625 C-12.61716797 85.01775391 -12.61716797 85.01775391 -14 85 C-12.73558125 79.9645078 -11.38721344 74.9846529 -9.60546875 70.10546875 C-1.62930715 48.14030743 -0.42822914 26.68688624 -1.05004883 3.57836914 C-1 1 -1 1 0 0 Z " fill="#D8E5F7" transform="translate(390,60)"/>
<path d="M0 0 C0.56807373 0.05534912 1.13614746 0.11069824 1.72143555 0.16772461 C4.37666252 0.42565174 7.03207907 0.68157768 9.6875 0.9375 C10.58017578 1.02451172 11.47285156 1.11152344 12.39257812 1.20117188 C24.35986 2.35105305 36.29599583 3.16137504 48.3125 3.5625 C52.499375 3.706875 56.68625 3.85125 61 4 C59.68 14.89 58.36 25.78 57 37 C38.32651272 37 23.71421201 35.42180016 9.90234375 22.17578125 C4.40178863 15.88459193 0 8.4980446 0 0 Z " fill="#E09F83" transform="translate(170,344)"/>
<path d="M0 0 C1 2 1 2 0.00390625 5.1328125 C-0.22562744 5.76622559 -0.45516113 6.39963867 -0.69165039 7.05224609 C-4.53732228 17.7395634 -6.33299673 28.70732951 -2.25 39.6875 C0.29421663 45.03573002 3.84109764 48.8584264 8 53 C-6.65122246 62.7242627 -21.41559933 68.36029704 -39 70 C-36.37681362 64.27908097 -33.40363006 59.0262568 -29.875 53.8125 C-22.01543354 41.98712799 -15.63352515 28.66417307 -11.375 15.125 C-9.19198254 8.43798741 -5.36712714 4.41998706 0 0 Z " fill="#E0A084" transform="translate(318,313)"/>
<path d="M0 0 C-0.556875 0.4125 -1.11375 0.825 -1.6875 1.25 C-3.36611594 2.52030395 -5.00782147 3.83985123 -6.625 5.1875 C-9 7 -9 7 -11 7 C-11.2784375 7.556875 -11.556875 8.11375 -11.84375 8.6875 C-12.62709441 10.25418883 -13.41904431 11.81659916 -14.21875 13.375 C-17.16441143 19.41001365 -18.67887782 24.66933193 -19.25 31.37109375 C-20.2812805 34.98594675 -21.8921221 35.95054412 -25 38 C-29.42779312 38.80475195 -33.88186099 38.60304319 -38.375 38.5625 C-40.18484375 38.59827148 -40.18484375 38.59827148 -42.03125 38.63476562 C-49.58535441 38.6223138 -53.21946388 37.79114517 -59 33 C-62.88251647 33.4564372 -65.00767217 35.44105194 -67.9375 37.9375 C-71.19058947 40.70790541 -73.94311366 42.61383669 -78 44 C-74.65667313 33.3114853 -71.18157484 23.79904664 -64 15 C-63.34 14.67 -62.68 14.34 -62 14 C-59.95880212 15.61594832 -57.95927063 17.2856382 -56 19 C-56 19.66 -56 20.32 -56 21 C-55.4225 21.268125 -54.845 21.53625 -54.25 21.8125 C-52 23 -52 23 -50.34375 24.5625 C-47.05093463 26.58209343 -43.98356127 26.32512655 -40.25 26.1875 C-39.55261719 26.17396484 -38.85523438 26.16042969 -38.13671875 26.14648438 C-36.42414459 26.1112945 -34.71197059 26.05749155 -33 26 C-32.76925781 25.35933594 -32.53851563 24.71867187 -32.30078125 24.05859375 C-28.56048163 14.13866867 -24.50319604 8.09927593 -15 3 C-9.98345335 0.80164512 -5.53365805 -0.425666 0 0 Z " fill="#DF9F84" transform="translate(444,226)"/>
<path d="M0 0 C1.0209375 0.4640625 1.0209375 0.4640625 2.0625 0.9375 C1.58180769 4.70292311 0.98089971 8.27130039 0 11.9375 C-2.57998539 23.49819791 -1.73938601 35.47866166 4.16015625 45.87109375 C8.91557434 52.33523834 16.60128599 54.33866843 24.0625 55.9375 C24.0625 56.2675 24.0625 56.5975 24.0625 56.9375 C7.09386452 57.31226741 -5.10474344 55.54079299 -18.28125 43.6484375 C-20.98862954 40.85166335 -22.77487814 38.89290345 -23.4375 35 C-22.76773318 21.96745399 -13.59674187 9.78148699 -4.546875 1.04296875 C-2.9375 -0.0625 -2.9375 -0.0625 0 0 Z " fill="#424A71" transform="translate(33.9375,276.0625)"/>
<path d="M0 0 C2.01033288 0.41064726 4.00835711 0.88161574 6 1.375 C14.30949464 3.25106116 22.50625279 3.70179338 31 4 C32.31956069 9.26004193 31.45143565 12.26836869 29 17 C24.29103213 24.51266255 16.92411219 28.16546964 8.5 30.3125 C3.67211831 31.23662047 -1.10615414 31.15130788 -6 31 C-5.43092514 24.03725672 -4.40580795 17.27807999 -3 10.4375 C-2.82210938 9.53708984 -2.64421875 8.63667969 -2.4609375 7.70898438 C-1.13030688 1.13030688 -1.13030688 1.13030688 0 0 Z " fill="#40486F" transform="translate(458,226)"/>
<path d="M0 0 C4.08417263 0.5228233 5.40667821 2.78155706 7.87890625 5.88671875 C14.89105387 15.88581763 15.21628718 24.53149309 14.59375 36.33203125 C10.97180492 37.26611182 8.74725913 37.36403353 5.21875 36.14453125 C0.66789691 34.65516115 -3.9020081 33.36168848 -8.53125 32.14453125 C-9.20720215 31.96575439 -9.8831543 31.78697754 -10.57958984 31.6027832 C-12.18810221 31.17777987 -13.79712146 30.75469568 -15.40625 30.33203125 C-14.0779229 27.56468312 -12.59370917 25.01908817 -10.90625 22.45703125 C-7.32591741 16.74529831 -6.08548668 11.08467597 -4.96875 4.50390625 C-4.15848123 1.3753685 -3.20838059 0.44271485 0 0 Z " fill="#D8E5F7" transform="translate(453.40625,138.66796875)"/>
<path d="M0 0 C8.78307445 2.18895759 16.69220515 5.13383215 22 12.875 C24.25205818 16.91317329 24.84133012 20.3985736 25 25 C24.67 25.66 24.34 26.32 24 27 C23.33468262 26.99476318 22.66936523 26.98952637 21.98388672 26.98413086 C18.94760089 26.96324747 15.91133022 26.9503038 12.875 26.9375 C11.82828125 26.92912109 10.7815625 26.92074219 9.703125 26.91210938 C4.6909095 26.89624793 -0.07665912 26.91822787 -5 28 C-4.35546875 26.8965625 -3.7109375 25.793125 -3.046875 24.65625 C-0.54082444 19.64414887 -0.33837625 15.02753289 -0.25 9.5 C-0.22035156 8.5821875 -0.19070313 7.664375 -0.16015625 6.71875 C-0.09016664 4.47908236 -0.03712683 2.24041212 0 0 Z " fill="#40486F" transform="translate(478,180)"/>
<path d="M0 0 C0.06316406 0.60328125 0.12632812 1.2065625 0.19140625 1.828125 C0.86477288 6.22272826 1.34173969 8.416542 4.75 11.4375 C10.36815938 14.06090492 16.90728389 14.35777195 23 15 C23 15.66 23 16.32 23 17 C16.46902014 19.60584012 10.69954236 20.51659769 3.6875 20.4375 C2.76904297 20.43210205 1.85058594 20.4267041 0.90429688 20.42114258 C-8.50333658 20.2111804 -16.01526215 17.97620269 -24 13 C-23.34 12.484375 -22.68 11.96875 -22 11.4375 C-19.58729171 9.47717451 -17.30012069 7.46166252 -15 5.375 C-10.0538676 1.04944976 -6.64125448 -0.30889556 0 0 Z " fill="#424A71" transform="translate(374,153)"/>
<path d="M0 0 C4.62 0.66 9.24 1.32 14 2 C14.61875 4.7225 14.61875 4.7225 15.25 7.5 C18.00295987 18.34615206 22.62291626 25.62358306 32 32 C31.67 32.99 31.34 33.98 31 35 C22.60394106 34.4002815 15.97159375 31.63377882 9.66796875 25.96484375 C3.6065147 18.82453605 0 9.28374174 0 0 Z " fill="#424A70" transform="translate(307,183)"/>
<path d="M0 0 C0.66 0 1.32 0 2 0 C2.67561372 2.5395837 3.34065828 5.08118835 4 7.625 C4.19078125 8.33785156 4.3815625 9.05070312 4.578125 9.78515625 C6.69418353 18.0226698 6.69418353 18.0226698 6 22 C-3.27742942 30.52228981 -17.64395965 35.36089446 -30 36 C-29.27554688 35.42636719 -28.55109375 34.85273438 -27.8046875 34.26171875 C-16.68442282 25.29426297 -8.92575926 16.30012557 -2.3828125 3.625 C-1 1 -1 1 0 0 Z " fill="#434A70" transform="translate(93,330)"/>
<path d="M0 0 C2.475 0.495 2.475 0.495 5 1 C5.80781218 16.97672969 5.80781218 16.97672969 1 23 C-4.05705135 28.52695435 -9.64878038 32.59682592 -17.28125 33.171875 C-19.18831346 33.18530502 -21.09561998 33.10202036 -23 33 C-22.46230553 29.16052543 -21.00081545 27.90167732 -18 25.5625 C-9.99554342 18.73254103 -4.30088652 9.53674838 0 0 Z " fill="#41496F" transform="translate(244,284)"/>
<path d="M0 0 C0.66 0.33 1.32 0.66 2 1 C2.90238747 3.70716242 3.11851302 5.23776768 3.09765625 8.01171875 C3.09443359 8.76904297 3.09121094 9.52636719 3.08789062 10.30664062 C3.07951172 11.09232422 3.07113281 11.87800781 3.0625 12.6875 C3.05798828 13.48478516 3.05347656 14.28207031 3.04882812 15.10351562 C3.0370585 17.06904257 3.01912348 19.03453085 3 21 C-0.62194508 21.93408057 -2.84649087 22.03200228 -6.375 20.8125 C-10.92585309 19.3231299 -15.4957581 18.02965723 -20.125 16.8125 C-20.80095215 16.63372314 -21.4769043 16.45494629 -22.17333984 16.27075195 C-23.78185221 15.84574862 -25.39087146 15.42266443 -27 15 C-26.67 14.01 -26.34 13.02 -26 12 C-25.05898438 11.89042969 -24.11796875 11.78085938 -23.1484375 11.66796875 C-21.90320313 11.50941406 -20.65796875 11.35085937 -19.375 11.1875 C-18.14523437 11.03667969 -16.91546875 10.88585937 -15.6484375 10.73046875 C-10.10145262 9.61988398 -6.15836024 7.77126412 -2.625 3.3125 C-2.12226563 2.68988281 -1.61953125 2.06726563 -1.1015625 1.42578125 C-0.73804688 0.95527344 -0.37453125 0.48476562 0 0 Z " fill="#A0B1F5" transform="translate(465,154)"/>
<path d="M0 0 C0.99 0.33 1.98 0.66 3 1 C2.40546697 15.78132118 2.40546697 15.78132118 -1 22 C-3.31 20.35 -5.62 18.7 -8 17 C-7.49159115 12.17369625 -6.13041456 9.1398908 -3.4375 5.125 C-2.79683594 4.15820312 -2.15617187 3.19140625 -1.49609375 2.1953125 C-1.00238281 1.47085938 -0.50867188 0.74640625 0 0 Z " fill="#424A70" transform="translate(390,224)"/>
<path d="M0 0 C2.5625 1.6875 2.5625 1.6875 4 4 C3.9375 6.625 3.9375 6.625 3 9 C-0.80455581 11.53637054 -3.53947531 11.59473663 -8 11 C-10 9.8125 -10 9.8125 -11 8 C-11.41826612 5.21155919 -11.36703913 3.66525842 -10 1.1875 C-6.80215547 -0.71122019 -3.55993917 -0.6433625 0 0 Z " fill="#434B71" transform="translate(413,194)"/>
<path d="M0 0 C5.75 1.875 5.75 1.875 8 3 C6.76405345 6.84516703 4.42078905 8.27571638 0.93359375 10.1171875 C-3.64340123 12.20688622 -7.97164803 13.3047486 -13 13 C-13 11.68 -13 10.36 -13 9 C-12.48050781 8.76925781 -11.96101563 8.53851563 -11.42578125 8.30078125 C-6.71458958 6.09758071 -3.45626853 3.8883021 0 0 Z " fill="#434B71" transform="translate(425,164)"/>
</svg>
