<?xml version="1.0" encoding="UTF-8"?>
<svg version="1.1" xmlns="http://www.w3.org/2000/svg" width="512" height="512">
<path d="M0 0 C2.46542743 0.83415757 4.93154693 1.66627319 7.3984375 2.49609375 C8.47528809 2.86790771 9.55213867 3.23972168 10.66162109 3.62280273 C15.13506617 5.04134698 18.99915039 5.68791937 23.6875 5.51953125 C42.60432757 5.03747219 42.60432757 5.03747219 51.2578125 8.296875 C54.81159408 9.63263513 58.38215432 10.65918739 62.03466797 11.68408203 C79.45766122 16.63230191 93.64484157 23.55811792 103.13671875 39.80078125 C103.62785156 40.71214844 104.11898438 41.62351563 104.625 42.5625 C105.31529297 43.82126953 105.31529297 43.82126953 106.01953125 45.10546875 C111.50630581 56.06244152 113.60250215 68.41112103 114.90258789 80.5 C115.26995089 83.88876976 115.72026777 87.20739123 116.41015625 90.546875 C122.71320981 121.48847358 117.82952409 153.72375149 108.70141602 183.58374023 C108.40936279 184.56028564 108.11730957 185.53683105 107.81640625 186.54296875 C107.54256104 187.42106201 107.26871582 188.29915527 106.98657227 189.20385742 C106.56124437 191.9783968 106.92744051 192.8950579 108.5625 195.125 C113.00929672 199.32813663 118.24807122 202.77383581 123.28515625 206.23046875 C128.32904816 209.73408306 132.11217406 212.81929852 135.375 218.125 C135.96796875 219.07503906 136.5609375 220.02507812 137.171875 221.00390625 C139.70102373 225.45711167 139.83876823 229.37954475 139.875 234.375 C139.9059375 235.42397461 139.9059375 235.42397461 139.9375 236.49414062 C139.97342391 241.29447327 139.15010085 244.4909259 136.625 248.5625 C133.44061943 251.66308108 131.04985195 253.05680263 126.625 253.5625 C126.728125 254.51125 126.83125 255.46 126.9375 256.4375 C126.9503384 262.74115683 123.28849412 268.15330162 119.8125 273.1875 C116.97491517 274.97112475 114.85002315 275.19813571 111.53125 275 C109.625 274.5625 109.625 274.5625 107.125 272.625 C105.3664748 269.03467771 105.49476761 266.81305511 105.6640625 262.90625 C105.57830588 257.7608529 103.8597704 253.7972704 100.25 250.1875 C94.34263748 246.5305613 88.50630137 245.46808411 81.60546875 245.6015625 C78.29387879 247.20836946 77.12216754 250.47727043 75.5 253.625 C74.70787457 255.09951348 73.91219445 256.57212192 73.11328125 258.04296875 C72.70416504 258.79755371 72.29504883 259.55213867 71.87353516 260.32958984 C69.94238558 263.78330396 67.8202708 267.10590865 65.6875 270.4375 C59.42856955 280.30263354 53.6669749 290.47888107 48.41796875 300.91796875 C43.45491686 310.73021034 37.70280002 319.33494254 30.81079102 327.90942383 C28.63018937 330.94933606 27.56024329 332.76139685 27.8671875 336.55859375 C28.07601563 337.69425781 28.28484375 338.82992188 28.5 340 C30.80022309 354.61852304 30.31385463 368.19047774 21.3125 380.58984375 C19.03068658 383.25724138 16.5093966 385.47153679 13.81640625 387.71484375 C6.88448736 393.55940281 0.9268556 400.11924701 -4.5625 407.3125 C-5.05661377 407.93833984 -5.55072754 408.56417969 -6.05981445 409.20898438 C-8.36232778 412.32480683 -9.38571308 413.82419041 -9.328125 417.79296875 C-7.27981221 423.74482846 -3.3333452 427.31805362 2.125 430.3125 C6.24866947 432.2343912 10.22344979 433.16690325 14.6875 434 C22.42451739 435.4901546 27.533265 438.38940355 33 444 C36.40691046 449.37243573 38.57859294 454.12574763 37.625 460.5625 C35.29889436 463.77799898 33.85666744 465.30470914 29.9375 466.125 C26.90007577 465.60921098 24.74106794 464.83159886 21.9375 463.625 C14.50717136 460.46458872 7.501607 460.11577627 -0.375 461.5625 C-5.69918821 461.96126028 -10.56991907 462.30576862 -15.5625 460.25 C-19.10409246 456.86581165 -22.05056379 453.12169406 -25.11328125 449.3046875 C-30.98960427 442.18002643 -37.3704925 438.25872082 -45.65258789 434.40161133 C-49.65815796 432.52425814 -53.11273363 430.62817028 -56.375 427.5625 C-57.75302638 423.42842086 -58.21858978 419.87183777 -57.375 415.5625 C-55.45126142 412.48334525 -52.96513879 410.08910708 -50.375 407.5625 C-43.56230199 400.60840637 -39.45738804 393.80966411 -36.375 384.5625 C-36.95652832 384.85382813 -37.53805664 385.14515625 -38.13720703 385.4453125 C-54.83190337 393.75509678 -71.44605197 401.24030164 -89.625 405.62109375 C-90.34156265 405.79446762 -91.05812531 405.96784149 -91.79640198 406.14646912 C-95.35697395 407.00082982 -98.9211731 407.82291742 -102.49975586 408.59838867 C-111.35303346 410.58763519 -116.64402227 412.74833519 -122.3125 420.0625 C-123.88506283 423.76264784 -124.01405516 426.84096365 -122.609375 430.625 C-121.08219822 433.02208761 -119.94381036 433.49295529 -117.3125 434.5 C-100.44262918 441.42724164 -100.44262918 441.42724164 -97.375 447.5625 C-96.81987185 452.19463493 -96.7385758 455.54422127 -99.25 459.5625 C-102.26588051 462.40097577 -104.15367141 462.830745 -108.27734375 462.796875 C-110.6664843 462.52993192 -112.66901733 461.85478719 -114.9375 461.0625 C-122.82646833 458.49737533 -131.32854958 458.83731996 -139.375 460.5625 C-143.61943121 461.10158371 -147.60808295 461.55973727 -151.4375 459.3984375 C-154.84889832 456.53109839 -157.83286561 453.22317352 -160.375 449.5625 C-160.375 448.9025 -160.375 448.2425 -160.375 447.5625 C-161.23738281 447.15644531 -161.23738281 447.15644531 -162.1171875 446.7421875 C-164.40783183 445.54534565 -166.41740326 444.21579343 -168.5 442.6875 C-169.18320313 442.19507813 -169.86640625 441.70265625 -170.5703125 441.1953125 C-173.10630619 438.90084202 -174.12869166 436.82246191 -174.78125 433.484375 C-175.07158446 426.75829339 -172.68886088 423.50220598 -168.375 418.5625 C-167.715 417.5725 -167.055 416.5825 -166.375 415.5625 C-167.47207275 415.58207764 -167.47207275 415.58207764 -168.59130859 415.60205078 C-215.54295572 416.07449189 -265.51742178 399.9296544 -299.9375 367.375 C-312.81390432 354.08471125 -321.86835242 337.46986685 -326.375 319.5625 C-326.58769531 318.74910156 -326.80039062 317.93570312 -327.01953125 317.09765625 C-333.03464375 291.08986769 -327.91945806 263.32675899 -314.375 240.5625 C-295.32476718 211.02753083 -265.02199581 197.23633299 -231.7253418 190.0300293 C-225.01003094 188.69422164 -218.29831625 188.35600625 -211.47607422 187.9675293 C-187.27702321 186.95398077 -187.27702321 186.95398077 -166.5390625 175.74609375 C-159.69732722 167.21895539 -158.20351896 157.87145993 -158.3125 147.25 C-158.31926758 145.99606445 -158.31926758 145.99606445 -158.32617188 144.71679688 C-158.33789452 142.66533351 -158.35582797 140.61390727 -158.375 138.5625 C-157.055 138.2325 -155.735 137.9025 -154.375 137.5625 C-144.79442985 152.07022052 -138.54482467 168.12682581 -141.99609375 185.73046875 C-146.19540541 200.15743726 -155.95827647 209.18624636 -168.70703125 216.46484375 C-176.92884445 220.6074773 -185.26816054 223.00834475 -194.16479492 225.29589844 C-213.25122112 230.30011513 -231.63124946 239.17233176 -242.25 256.5 C-250.15606472 270.88464554 -250.62530945 286.65138708 -247.4375 302.5 C-244.76637237 310.99083082 -237.4616517 316.6227188 -230 320.9375 C-214.89477218 328.4370013 -200.59961712 330.29641299 -184.375 325.5625 C-175.83545316 322.67357698 -168.00398802 319.01423553 -161.171875 313.04296875 C-159.375 311.5625 -159.375 311.5625 -157.265625 310.61328125 C-154.85645653 309.27430125 -154.4824414 308.04970447 -153.375 305.5625 C-152.30318615 304.13709808 -151.21854397 302.72129989 -150.125 301.3125 C-144.68488258 293.62635899 -142.02127778 284.77112469 -139.20703125 275.8671875 C-125.62957533 232.95686606 -94.76294681 197.74116616 -55.0703125 176.8671875 C-41.10133429 169.83880759 -26.24676354 165.40733421 -11.14306641 161.52685547 C3.08340027 157.72592224 14.30680168 150.39011787 22.015625 137.6953125 C24.83875674 132.19979877 26.76105418 126.44638426 28.625 120.5625 C27.614375 120.500625 26.60375 120.43875 25.5625 120.375 C21.40137168 119.87304571 17.74916988 118.60623492 13.8125 117.1875 C0.58582223 112.55724507 -13.12861693 111.21300044 -27.08251953 111.02832031 C-34.48495963 110.85106856 -42.29665421 109.5443205 -47.95703125 104.34375 C-52.50850755 98.62619299 -56.05145444 91.97179 -55.375 84.5625 C-54 82.6875 -54 82.6875 -52.375 81.5625 C-51.715 81.5625 -51.055 81.5625 -50.375 81.5625 C-50.38660156 80.57507813 -50.39820313 79.58765625 -50.41015625 78.5703125 C-50.42369141 76.64832031 -50.42369141 76.64832031 -50.4375 74.6875 C-50.44910156 73.41132812 -50.46070313 72.13515625 -50.47265625 70.8203125 C-50.375 67.5625 -50.375 67.5625 -49.375 65.5625 C-47.58203125 65.62890625 -47.58203125 65.62890625 -45.375 66.5625 C-43.79208874 69.48110794 -42.50805889 72.37996098 -41.28320312 75.45898438 C-39.55330476 79.36037109 -38.70499723 80.43499322 -34.64453125 82.00390625 C-33.56558594 82.18824219 -32.48664063 82.37257813 -31.375 82.5625 C-31.436875 81.015625 -31.436875 81.015625 -31.5 79.4375 C-31.37924851 75.69420373 -30.72627982 73.02515453 -29.375 69.5625 C-28.385 69.8925 -27.395 70.2225 -26.375 70.5625 C-25.453125 72.99609375 -25.453125 72.99609375 -24.625 76 C-23.43874055 79.99192087 -23.43874055 79.99192087 -20.5625 82.734375 C-18.43176072 83.3579641 -18.43176072 83.3579641 -15.375 83.5625 C-15.31441406 82.86382812 -15.25382812 82.16515625 -15.19140625 81.4453125 C-15.10761719 80.53523438 -15.02382813 79.62515625 -14.9375 78.6875 C-14.85628906 77.78257813 -14.77507812 76.87765625 -14.69140625 75.9453125 C-14.375 73.5625 -14.375 73.5625 -13.375 71.5625 C-12.385 71.5625 -11.395 71.5625 -10.375 71.5625 C-9.385 74.8625 -8.395 78.1625 -7.375 81.5625 C1.19957862 77.73870143 6.05802754 74.35418192 10.5 66.0625 C11.75176704 62.16811365 12.30001354 59.61258122 11.625 55.5625 C9.79057169 53.45157815 7.96072135 52.16830842 5.625 50.5625 C5.25375 52.0165625 5.25375 52.0165625 4.875 53.5 C3.625 56.5625 3.625 56.5625 1.5625 57.5 C0.923125 57.520625 0.28375 57.54125 -0.375 57.5625 C-1.375 56.5625 -1.375 56.5625 -1.5078125 54.56640625 C-1.50394531 53.35791016 -1.50394531 53.35791016 -1.5 52.125 C-1.50257813 51.32191406 -1.50515625 50.51882812 -1.5078125 49.69140625 C-1.375 47.5625 -1.375 47.5625 -0.375 45.5625 C-4.335 45.0675 -4.335 45.0675 -8.375 44.5625 C-10.025 47.5325 -11.675 50.5025 -13.375 53.5625 C-14.695 53.5625 -16.015 53.5625 -17.375 53.5625 C-17.375 49.2725 -17.375 44.9825 -17.375 40.5625 C-23.17846144 39.878965 -23.17846144 39.878965 -25.7109375 42.75 C-26.38382812 43.678125 -27.05671875 44.60625 -27.75 45.5625 C-28.78253906 46.9546875 -28.78253906 46.9546875 -29.8359375 48.375 C-30.34382813 49.096875 -30.85171875 49.81875 -31.375 50.5625 C-32.365 50.2325 -33.355 49.9025 -34.375 49.5625 C-34.55951025 40.15247722 -34.55951025 40.15247722 -33.375 35.5625 C-37.42008393 35.09819564 -37.42008393 35.09819564 -39.62890625 37.75 C-40.39074219 38.678125 -41.15257812 39.60625 -41.9375 40.5625 C-44.25390625 43.375 -44.25390625 43.375 -46.375 45.5625 C-47.365 45.5625 -48.355 45.5625 -49.375 45.5625 C-49.4022367 43.04159222 -49.42195207 40.52098543 -49.4375 38 C-49.44587891 37.29552734 -49.45425781 36.59105469 -49.46289062 35.86523438 C-49.48378675 31.33077552 -49.04781147 27.05710123 -48.375 22.5625 C-48.478125 21.44875 -48.58125 20.335 -48.6875 19.1875 C-48.06538922 11.97101494 -42.48799543 5.92124569 -37.34375 1.0703125 C-25.57834915 -7.94049053 -12.86144341 -4.47502176 0 0 Z " fill="#F19C87" transform="translate(350.375,25.4375)"/>
<path d="M0 0 C2.14437109 2.68501989 3.6392281 5.19897004 4.9375 8.375 C6.59141434 12.23413347 8.59227918 15.54893348 11 19 C11.495 20.11375 11.495 20.11375 12 21.25 C13.30698942 23.53723148 14.64930503 23.83706816 17 25 C18.51211456 26.08751717 20.01113228 27.19336777 21.5 28.3125 C30.94302029 34.98797826 44.10298239 40.8390428 56 39 C61.64619355 37.27061952 65.86726173 35.18106714 69 30 C71.00310164 25.76266961 72.58420234 21.46520801 74 17 C75.65 17.33 77.3 17.66 79 18 C82.49409003 26.65203245 82.30659554 34.84755529 82 44 C59.33764649 56.86734971 34.93408625 65.49171798 9.375 70.5625 C2.6742113 72.03054914 -0.82725361 75.19645627 -4.9375 80.5 C-6.51006283 84.20014784 -6.63905516 87.27846365 -5.234375 91.0625 C-3.70719822 93.45958761 -2.56881036 93.93045529 0.0625 94.9375 C16.93237082 101.86474164 16.93237082 101.86474164 20 108 C20.55512815 112.63213493 20.6364242 115.98172127 18.125 120 C15.10911949 122.83847577 13.22132859 123.268245 9.09765625 123.234375 C6.7085157 122.96743192 4.70598267 122.29228719 2.4375 121.5 C-5.45146833 118.93487533 -13.95354958 119.27481996 -22 121 C-26.24443121 121.53908371 -30.23308295 121.99723727 -34.0625 119.8359375 C-37.47389832 116.96859839 -40.45786561 113.66067352 -43 110 C-43 109.34 -43 108.68 -43 108 C-43.57492188 107.72929687 -44.14984375 107.45859375 -44.7421875 107.1796875 C-47.03283183 105.98284565 -49.04240326 104.65329343 -51.125 103.125 C-51.80820313 102.63257813 -52.49140625 102.14015625 -53.1953125 101.6328125 C-55.73130619 99.33834202 -56.75369166 97.25996191 -57.40625 93.921875 C-57.69658446 87.19579339 -55.31386088 83.93970598 -51 79 C-50.01 77.515 -50.01 77.515 -49 76 C-49.72558105 76.01450195 -50.45116211 76.02900391 -51.19873047 76.04394531 C-58.60328577 76.12710252 -65.78079906 75.66802512 -73.125 74.75 C-74.19943359 74.61795166 -75.27386719 74.48590332 -76.38085938 74.34985352 C-83.147651 73.47582637 -89.83301344 72.39047347 -96.5 70.9375 C-97.25297363 70.77540039 -98.00594727 70.61330078 -98.78173828 70.44628906 C-100.53945679 70.03589113 -102.27385817 69.52766959 -104 69 C-104.33 68.34 -104.66 67.68 -105 67 C-103.93007812 66.97421875 -102.86015625 66.9484375 -101.7578125 66.921875 C-82.64917342 66.28137385 -63.26228593 63.80253866 -45 58 C-44.10039551 57.72140137 -43.20079102 57.44280273 -42.27392578 57.15576172 C-20.90713634 51.89980853 -20.90713634 51.89980853 -4.1875 39.25 C-1.92562862 33.05961517 -1.31870289 28.20588583 -3.01171875 21.76171875 C-3.33785156 20.52035156 -3.66398437 19.27898437 -4 18 C-4.99257812 18.58007812 -5.98515625 19.16015625 -7.0078125 19.7578125 C-20.1629733 27.35962312 -33.16739233 33.31399953 -48 37 C-48.84175781 37.226875 -49.68351562 37.45375 -50.55078125 37.6875 C-62.31716236 40.38982676 -76.12656312 40.04997184 -88 38 C-88.309375 38.969375 -88.61875 39.93875 -88.9375 40.9375 C-90 44 -90 44 -91 45 C-93.9375 45.1875 -93.9375 45.1875 -97 45 C-99 43 -99 43 -99.5 39.8125 C-98.84619531 34.82723921 -96.7432847 32.25391033 -93 29 C-89.39721581 26.66395054 -86.39812865 26.82061621 -82.171875 26.9453125 C-80.80861656 26.97424029 -79.4453336 27.00203022 -78.08203125 27.02880859 C-77.37385254 27.0454657 -76.66567383 27.0621228 -75.93603516 27.07928467 C-63.73272017 27.33448578 -52.601848 27.22723406 -41 23 C-39.67654689 22.56925503 -38.35229439 22.14096013 -37.02734375 21.71484375 C-23.11500096 17.05635209 -11.08762872 9.57449351 0 0 Z " fill="#9B5054" transform="translate(233,365)"/>
<path d="M0 0 C1.8125 0.0234375 1.8125 0.0234375 4 1 C5.54992911 3.20985986 6.78067469 5.24110064 8 7.625 C8.34740234 8.296521 8.69480469 8.96804199 9.05273438 9.65991211 C15.51363428 22.65595771 18.60593811 36.96335725 14.5 51.1875 C8.83724613 65.97357954 -2.66089666 75.02550314 -16.73095703 81.54785156 C-23.20912488 84.33092042 -29.97711121 85.98168211 -36.78979492 87.73339844 C-55.87622112 92.73761513 -74.25624946 101.60983176 -84.875 118.9375 C-90.35670121 128.91115082 -92.45908411 138.92613373 -91.6875 150.25 C-91.64117432 150.98855225 -91.59484863 151.72710449 -91.54711914 152.48803711 C-91.13347845 158.41516623 -90.29103961 164.19658892 -89 170 C-105.40430069 151.07196074 -107.96881602 128.0807108 -107 104 C-105.95335608 89.61233147 -100.60606788 66.60606788 -90 56 C-87.1229552 55.22675774 -84.28611787 54.5499992 -81.375 53.9375 C-80.20130859 53.67743164 -80.20130859 53.67743164 -79.00390625 53.41210938 C-70.70947444 51.61704577 -62.56129063 50.88677695 -54.10107422 50.4050293 C-29.90202321 49.39148077 -29.90202321 49.39148077 -9.1640625 38.18359375 C-2.32602467 29.66106367 -0.83152883 20.36368352 -1 9.75 C-1.04551862 6.82770487 -1.047344 3.92349185 -1 1 C-0.67 0.67 -0.34 0.34 0 0 Z " fill="#9B5054" transform="translate(193,163)"/>
<path d="M0 0 C1.99375759 1.99375759 2.64570975 3.27941316 3.75 5.8125 C6.49750895 11.408902 10.83922554 15.10137596 16.65625 17.44140625 C22.2840379 18.7826957 28.23462203 18.78481858 34 19 C30.48223942 26.75834868 26.27395657 33.9219279 21.75 41.125 C17.59339911 47.75229532 13.53567827 54.40301698 9.75 61.25 C9.14309326 62.34731445 9.14309326 62.34731445 8.52392578 63.46679688 C6.55547265 67.06032185 4.64566872 70.67543941 2.8046875 74.3359375 C-2.17384536 84.17263574 -7.94516612 92.83184231 -14.81420898 101.46044922 C-15.94224549 102.92501546 -16.97456641 104.46184962 -18 106 C-18.66 106 -19.32 106 -20 106 C-20.32871094 105.07960938 -20.65742188 104.15921875 -20.99609375 103.2109375 C-29.00592252 81.58843065 -42.19416317 65.23751252 -63.3125 55.4375 C-65.2027352 54.61206001 -67.0965179 53.79441561 -69 53 C-68.67 52.34 -68.34 51.68 -68 51 C-55.3761096 50.5446292 -44.72476745 52.11935907 -33.38012695 57.69946289 C-29.71863732 59.50138383 -29.71863732 59.50138383 -25.7265625 59.875 C-15.30878178 54.59540072 -3.87473628 37.18529336 1 27 C1.85951269 23.07762066 1.32259152 19.92745063 0 16.125 C-1.67871218 10.87902444 -1.74443715 5.23331145 0 0 Z " fill="#9B5054" transform="translate(396,252)"/>
<path d="M0 0 C0.33 0 0.66 0 1 0 C1.68270376 24.50147948 -1.7538604 47.56754492 -8.92358398 71.02124023 C-9.36166382 72.48605835 -9.36166382 72.48605835 -9.80859375 73.98046875 C-10.08243896 74.85856201 -10.35628418 75.73665527 -10.63842773 76.64135742 C-11.06375563 79.4158968 -10.69755949 80.3325579 -9.0625 82.5625 C-4.61570328 86.76563663 0.62307122 90.21133581 5.66015625 93.66796875 C10.70404816 97.17158306 14.48717406 100.25679852 17.75 105.5625 C18.63945312 106.98755859 18.63945312 106.98755859 19.546875 108.44140625 C22.07602373 112.89461167 22.21376823 116.81704475 22.25 121.8125 C22.270625 122.51181641 22.29125 123.21113281 22.3125 123.93164062 C22.34842391 128.73197327 21.52510085 131.9284259 19 136 C15.73006444 139.18388462 13.43208453 140.25143723 9 141 C8.91363281 140.24976563 8.82726562 139.49953125 8.73828125 138.7265625 C7.32092652 128.40197854 3.93017774 119.10341453 -4 112 C-9.7071255 107.75305879 -15.85920129 104.52031049 -22.25 101.4375 C-26.97268495 99.14568451 -30.68935569 96.83676762 -34.515625 93.28515625 C-40.31448116 88.26456763 -47.73037999 88.34617238 -55 88 C-54.02872285 85.53564254 -53.35720418 84.23247793 -51.109375 82.76953125 C-45.7460328 80.59400337 -41.74541508 79.95510433 -35.9375 80.125 C-31.42265457 79.89999145 -29.64542418 79.63481182 -26.38671875 76.4296875 C-23.83523528 72.84196526 -21.90942833 68.95544215 -20 65 C-19.29606678 63.61693603 -18.59163711 62.23412463 -17.88671875 60.8515625 C-15.78259908 56.62712251 -13.86099473 52.33630813 -12 48 C-11.71495605 47.34273926 -11.42991211 46.68547852 -11.13623047 46.00830078 C-6.43728714 34.98311044 -4.02403297 23.77987187 -2 12 C-1.773125 10.700625 -1.54625 9.40125 -1.3125 8.0625 C-0.85653892 5.37739589 -0.41577071 2.69156831 0 0 Z " fill="#9C5054" transform="translate(468,138)"/>
<path d="M0 0 C3.6400798 2.69877367 6.82011258 5.77941932 10 9 C10.99 9.99 10.99 9.99 12 11 C11.625 13.125 11.625 13.125 11 15 C10.113125 14.690625 9.22625 14.38125 8.3125 14.0625 C5.53290845 13.1709329 2.86863625 12.50622993 0 12 C-1.50335086 14.75821398 -2.33106182 17.16398341 -2.875 20.25 C-4.90004415 29.55302239 -9.10690995 35.54003063 -17 41 C-26.75786925 46 -26.75786925 46 -32 46 C-31.73445313 46.85722656 -31.46890625 47.71445313 -31.1953125 48.59765625 C-30.46642897 50.95721718 -29.74131633 53.3179455 -29.01953125 55.6796875 C-28.30065651 58.02085043 -27.56320932 60.35635001 -26.8125 62.6875 C-22.88125469 78.71488471 -23.71874247 96.09025936 -29.94921875 111.3203125 C-31 113 -31 113 -33.9375 113.9375 C-37 114 -37 114 -38.9375 113 C-40.85293081 109.39448318 -39.45955032 105.81092103 -38.49414062 102.0065918 C-37.07096706 96.2642981 -36.65001892 90.8424244 -36.6875 84.9375 C-36.69168945 84.02863037 -36.69587891 83.11976074 -36.70019531 82.18334961 C-36.87349135 71.66852028 -37.35060906 60.58147812 -44 52 C-47.91579473 49.5313468 -51.42331689 48.54484323 -56 48 C-55.54287762 46.45797384 -55.08423653 44.91639786 -54.625 43.375 C-54.36976563 42.51648438 -54.11453125 41.65796875 -53.8515625 40.7734375 C-52.94843312 37.83205281 -51.98322773 34.91548396 -51 32 C-49.74445313 32.04640625 -48.48890625 32.0928125 -47.1953125 32.140625 C-32.63033023 32.73885173 -32.63033023 32.73885173 -19.9921875 26.3046875 C-13.6183205 19.71746931 -11.01985827 11.58468733 -9.4921875 2.71484375 C-9.32976562 2.14894531 -9.16734375 1.58304687 -9 1 C-5.85174094 -0.57412953 -3.34732792 -0.97554184 0 0 Z " fill="#9C5155" transform="translate(430,114)"/>
<path d="M0 0 C3.61117856 1.31266877 5.2547529 3.37991352 7.7578125 6.26953125 C9.03011719 7.71779297 9.03011719 7.71779297 10.328125 9.1953125 C11.08867187 10.10667969 11.84921875 11.01804688 12.6328125 11.95703125 C13.2309375 12.66988281 13.8290625 13.38273438 14.4453125 14.1171875 C15.6328125 15.95703125 15.6328125 15.95703125 15.5078125 19.08203125 C14.6328125 21.95703125 14.6328125 21.95703125 11.6328125 23.95703125 C8.31040926 23.63289435 7.02504947 23.34926822 4.6328125 20.95703125 C-0.59463668 20.30070454 -4.46732966 22.00355831 -9.0546875 24.26953125 C-9.78872803 24.62563477 -10.52276855 24.98173828 -11.27905273 25.34863281 C-28.42969677 33.82174922 -44.95907598 43.62029919 -58.6796875 57.08203125 C-63.37722936 61.46958304 -67.96638429 62.8956817 -74.3671875 62.95703125 C-76.6875 62.48046875 -76.6875 62.48046875 -78.3671875 61.95703125 C-60.14847536 38.41352643 -33.52385566 22.47099334 -6.3671875 10.95703125 C-5.7071875 10.95703125 -5.0471875 10.95703125 -4.3671875 10.95703125 C-4.8621875 6.50203125 -4.8621875 6.50203125 -5.3671875 1.95703125 C-2.3671875 -0.04296875 -2.3671875 -0.04296875 0 0 Z " fill="#9D5255" transform="translate(357.3671875,241.04296875)"/>
<path d="M0 0 C0.66 0 1.32 0 2 0 C3.04680029 1.5315402 4.03706103 3.10189135 5 4.6875 C8.79799173 10.21969869 12.53706246 13.12518284 19 15 C25.22958415 15.96306942 30.68746499 15.50788082 36.20703125 12.35546875 C39.31698288 10.00437242 41.6879343 7.11778557 44 4 C44.99 4.33 45.98 4.66 47 5 C46.07407997 11.89650784 44.2028189 17.20898723 39 22 C32.12423283 26.64659194 25.33485927 29.58169772 17 28 C9.24259876 25.75166845 1.49611727 20.7441759 -3 14 C-2.6249179 9.12393272 -1.42369249 4.6507288 0 0 Z " fill="#9D5255" transform="translate(363,83)"/>
<path d="M0 0 C0.67095703 0.58007812 0.67095703 0.58007812 1.35546875 1.171875 C4.8521026 4.18390075 8.37407463 7.14321031 12 10 C11.54109375 10.44730469 11.0821875 10.89460938 10.609375 11.35546875 C7.7978475 14.12565025 5.1549804 16.79766448 2.75 19.9375 C1.88375 20.9584375 1.88375 20.9584375 1 22 C0.01 22 -0.98 22 -2 22 C-2.05434116 19.4580411 -2.0938339 16.91726318 -2.125 14.375 C-2.14175781 13.66214844 -2.15851563 12.94929688 -2.17578125 12.21484375 C-2.21684602 7.7387836 -1.69086567 4.22050722 0 0 Z " fill="#D9E5F5" transform="translate(303,49)"/>
<path d="M0 0 C3.57440494 0.64989181 5.15071255 2.07316362 7.578125 4.70703125 C9.52970237 7.69294463 9.34151501 10.08235771 8.75 13.5 C5.75 15.5 5.75 15.5 3.4375 15.5625 C-0.60300344 13.96509166 -3.03938364 11.20787779 -5.25 7.5 C-5.25 3.46398345 -4.18310383 0.92957863 0 0 Z " fill="#9E5356" transform="translate(379.25,231.5)"/>
<path d="M0 0 C1.76953125 0.06640625 1.76953125 0.06640625 4 1 C5.41691648 3.32045742 6.57010622 5.48118121 7.6875 7.9375 C7.99494141 8.58396484 8.30238281 9.23042969 8.61914062 9.89648438 C9.4239483 11.59239202 10.21295791 13.295775 11 15 C11.33 15.66 11.66 16.32 12 17 C10.02090602 17.02686553 8.04171029 17.04633375 6.0625 17.0625 C4.96035156 17.07410156 3.85820312 17.08570312 2.72265625 17.09765625 C0 17 0 17 -1 16 C-1.09932392 13.68925832 -1.12969618 11.37537058 -1.125 9.0625 C-1.12757813 7.79535156 -1.13015625 6.52820313 -1.1328125 5.22265625 C-1 2 -1 2 0 0 Z " fill="#DAE4F4" transform="translate(301,91)"/>
<path d="M0 0 C2.56231382 0.07919879 3.85022116 0.19671154 6.125 1.4375 C7.54409947 4.27569894 6.84256606 6.32224676 6.0625 9.3125 C4.48327594 10.89172406 2.86806126 10.520159 0.6875 10.5625 C-0.10398437 10.58828125 -0.89546875 10.6140625 -1.7109375 10.640625 C-3.9375 10.3125 -3.9375 10.3125 -5.73828125 8.95703125 C-6.9375 7.3125 -6.9375 7.3125 -6.75 4.75 C-5.36351118 0.59053353 -4.41600087 0.35047626 0 0 Z " fill="#9D5255" transform="translate(387.9375,50.6875)"/>
<path d="M0 0 C3.71888239 0.50712033 6.73454239 1.11608215 10 3 C8.59023295 6.03852705 6.91129772 8.5939595 4.875 11.25 C4.33617187 11.95640625 3.79734375 12.6628125 3.2421875 13.390625 C2.83226562 13.92171875 2.42234375 14.4528125 2 15 C1.01 14.67 0.02 14.34 -1 14 C-1.18451025 4.58997722 -1.18451025 4.58997722 0 0 Z " fill="#D9E5F6" transform="translate(317,61)"/>
<path d="M0 0 C0.99 0.33 1.98 0.66 3 1 C4.16796875 3.43359375 4.16796875 3.43359375 5.1875 6.4375 C5.70376953 7.92056641 5.70376953 7.92056641 6.23046875 9.43359375 C7 12 7 12 7 14 C4.03 14 1.06 14 -2 14 C-2.1799928 8.78020872 -1.97094808 4.92737019 0 0 Z " fill="#DAE2F1" transform="translate(321,95)"/>
<path d="M0 0 C3 0.25 3 0.25 5 2.25 C4.625 5.875 4.625 5.875 4 9.25 C-1.44736842 10.58157895 -1.44736842 10.58157895 -3.875 9.125 C-5.3568671 6.65522151 -5.3633156 5.08386167 -5 2.25 C-3 0.25 -3 0.25 0 0 Z " fill="#9E5356" transform="translate(102,378.75)"/>
<path d="M0 0 C2 2 2 2 2.3125 5 C2.1578125 6.485 2.1578125 6.485 2 8 C-1 10 -1 10 -3.5625 9.75 C-6 9 -6 9 -8 7 C-7.75 3.9375 -7.75 3.9375 -7 1 C-4.48718205 -0.25640898 -2.78302919 -0.20872719 0 0 Z " fill="#9E5356" transform="translate(123,386)"/>
<path d="M0 0 C2.5 0.25 2.5 0.25 4.5 2.25 C4.75 5.25 4.75 5.25 4.5 8.25 C2.5 10.25 2.5 10.25 0.0625 10.5625 C-2.5 10.25 -2.5 10.25 -4.375 9.0625 C-5.5 7.25 -5.5 7.25 -5.3125 4.6875 C-4.22827241 1.43481722 -3.47807945 0.34780795 0 0 Z " fill="#9E5255" transform="translate(326.5,35.75)"/>
<path d="M0 0 C2.97 0.33 5.94 0.66 9 1 C7.55049545 4.7910119 5.84827434 8.3874638 4 12 C2.68 12 1.36 12 0 12 C0 8.04 0 4.08 0 0 Z " fill="#A0B0F6" transform="translate(333,67)"/>
<path d="M0 0 C0.99 0 1.98 0 3 0 C4.32 3.63 5.64 7.26 7 11 C6 12 6 12 4.15234375 12.09765625 C2.1015625 12.06510417 0.05078125 12.03255208 -2 12 C-1.85904936 10.3745692 -1.71207913 8.74965949 -1.5625 7.125 C-1.48128906 6.22007813 -1.40007812 5.31515625 -1.31640625 4.3828125 C-1 2 -1 2 0 0 Z " fill="#A4B3F5" transform="translate(337,97)"/>
<path d="M0 0 C5.875 2.75 5.875 2.75 7 5 C6.22265625 6.7265625 6.22265625 6.7265625 5.0625 8.625 C4.0415625 10.295625 4.0415625 10.295625 3 12 C1.68 11.67 0.36 11.34 -1 11 C-1.0270043 9.54176788 -1.04639787 8.08339325 -1.0625 6.625 C-1.07410156 5.81289062 -1.08570313 5.00078125 -1.09765625 4.1640625 C-1 2 -1 2 0 0 Z " fill="#A0AFF5" transform="translate(350,71)"/>
</svg>
